<svg xmlns="http://www.w3.org/2000/svg" width="1357" height="1357" viewBox="0 0 1357 1357"><circle cx="438.285" cy="438.285" r="304.618" transform="matrix(1.235 0 0 1.235 137.02 0)" fill="#fff"/><path stroke-miterlimit="10" d="M678.302 6.175c-295.532 0-535.107 239.575-535.107 535.107S382.77 1076.39 678.302 1076.39s535.106-239.576 535.106-535.108C1213.408 245.75 973.83 6.175 678.3 6.175zm0 911.31c-207.77 0-376.203-168.432-376.203-376.203 0-207.77 168.43-376.206 376.2-376.206 207.77 0 376.2 168.433 376.2 376.206 0 207.773-168.434 376.203-376.204 376.203z" fill="#fff" stroke="#002147" stroke-width="3.705"/><path stroke-miterlimit="10" d="M678.302 6.175c-295.532 0-535.107 239.575-535.107 535.107S382.77 1076.39 678.302 1076.39s535.106-239.576 535.106-535.108C1213.408 245.75 973.83 6.175 678.3 6.175zm66.712 905.412l-7.847 77.9L508.65 949.83l-14.407-8.055 1.216-71.664c-115.34-64.27-193.37-187.42-193.37-328.82 0-207.77 168.43-376.204 376.202-376.204s376.204 168.433 376.204 376.205c0 185.004-133.54 338.818-309.488 370.304z" fill="#fff" stroke="#002147" stroke-width="12.35"/><path stroke-miterlimit="10" d="M800.01 886.92c-25.335 15.078-102.956 22.472-123.5 23.773-15.512 1.14-46.09 64.69-58.765 128.925-9.324 47.25-19.348 93.58-23.193 132.44h6.06s47.552 7.602 47.552 50.785c0 43.18-41.017 36.62-41.017 36.62s4.53 23.428 24.332 35.143c19.8 11.714 27.612 1.33 27.612 1.33s.827 15.97 21.575 43.32c0 0 .39.95.587.712.196.237.582-.712.582-.712 20.75-27.353 21.58-43.32 21.58-43.32s7.813 10.388 27.615-1.328c19.8-11.714 24.33-35.143 24.33-35.143s-41.016 6.558-41.016-36.62c0-43.183 47.554-50.784 47.554-50.784h3.19c0-54.91 1.622-98.352 2.907-134.742 4.036-114.212 8.867-128.936 32.006-150.39z" fill="#fff" stroke="#002147" stroke-width="3.441"/><path stroke-miterlimit="10" d="M704.722 1222.28c0-45.955 47.54-58.648 47.54-58.648s-1.887-61.935-.37-143.295c1.514-81.358 13.568-118.095 30.96-126.24 0 0-30.664 6.096-50.35 9.762-19.69 3.66-43.242 5.53-43.242 5.53-5.455-.14-28.704 7.99-45.58 109.77-16.88 101.786-31.954 144.775-31.954 144.775s46.063 12.383 46.063 58.337c0 45.955-34.49 49.24-34.49 49.24s8.64 14.798 22.64 14.798c14.006 0 18.31-14.795 18.31-14.795s-.404 23.62 16.584 49.696c0 0 .273.848.413.635.14.212.412-.634.412-.634 16.987-26.073 16.58-49.695 16.58-49.695s4.307 14.795 18.31 14.795c14.004 0 22.643-14.798 22.643-14.798s-34.48-3.288-34.48-49.244z" fill="#fff" stroke="#002147" stroke-width="3.441"/><path d="M760.592 998.88c-2.526 125.617 1.312 173.18 1.312 173.18s-47.556 7.6-47.556 50.783c0 33.117 24.127 36.976 35.374 36.976 3.417 0 5.644-.36 5.644-.36s-4.53 23.43-24.332 35.14c-7.14 4.224-12.724 5.575-16.944 5.575-7.48 0-10.673-4.246-10.673-4.246s-.828 15.966-21.58 43.32c0 0-.305.75-.513.75-.025 0-.05-.014-.072-.04-.022.026-.046.038-.074.038-.205 0-.51-.75-.51-.75-20.75-27.354-21.576-43.32-21.576-43.32s-3.195 4.245-10.677 4.245c-4.22 0-9.803-1.354-16.944-5.577-19.8-11.715-24.33-35.145-24.33-35.145s2.23.355 5.65.355c11.247 0 35.375-3.863 35.375-36.977 0-43.185-47.553-50.785-47.553-50.785s21.23-86.42 39.777-170.8c18.55-84.38 34.656-90.66 39.864-88.783l13.024-3.735c0-12.528-35.05-29.97-59.885 76.97-24.832 106.942-49.81 198.605-49.81 198.605.1.016 27.27 1.877 37.93 8.514 12.19 7.583 18.37 17.68 18.37 30.01 0 9.523-2.665 15.603-8.652 19.71-6.26 4.297-14.24 4.94-18.44 4.94-2.865 0-4.757-.285-4.777-.29l-12.198-1.87 3.377 17.546c.23 1.194 5.92 29.403 29.23 43.19 7.23 4.278 13.96 6.448 20 6.448 2.19 0 4.15-.29 5.884-.752 3.127 8.762 9.046 20.97 20.275 35.926 1.71 2.98 6.678 8.812 6.678 8.812s4.968-5.83 6.678-8.812c11.227-14.953 17.15-27.165 20.275-35.926 1.734.46 3.69.75 5.887.75 6.04 0 12.77-2.17 20-6.448 23.31-13.788 28.997-41.997 29.232-43.19l3.406-17.63-12.246 1.957c-.004 0-1.9.288-4.76.288-4.2 0-12.18-.642-18.44-4.94-5.99-4.105-8.66-10.186-8.66-19.708 0-12.33 6.184-22.43 18.37-30.01 10.666-6.637 37.855-8.5 37.966-8.52 0 0-6.43-53.44-6.43-174.932 0-121.495 41.26-118.76 41.26-118.76l14.315-5.556c-16.88-21.75-64.985-11.803-67.512 113.813z" fill="#002147"/><path stroke-miterlimit="10" d="M719.285 1162.192h-84.17s15.728 4.932 23.73 18.496c8.004 13.563 6.35 28.36 6.35 28.36h33.665s-1.655-14.794 6.348-28.36c8.002-13.562 23.733-18.496 23.733-18.496h-9.65z" fill="#fff" stroke="#002147" stroke-width="3.031"/><path stroke-miterlimit="10" d="M682.03 1169.18h-23.457s5.623 4.932 8.106 13.973c2.48 9.04 2.94 17.673 2.94 17.673h24.81s.463-8.632 2.947-17.673c2.482-9.042 8.105-13.975 8.105-13.975H682.03z" fill="#fff" stroke="#002147" stroke-width="3.031"/><path d="M682.03 1269.564l-17.27-18.686 6.6-30.232h21.343l6.595 30.232z" stroke-miterlimit="10" fill="#fff" stroke="#002147" stroke-width="4.041"/><path d="M682.03 1258.4l-9.986-10.803 3.816-17.485h12.342l3.816 17.485z" stroke-miterlimit="10" fill="#fff" stroke="#002147" stroke-width="6.063"/><path d="M490.767 1043.936s135.082 54.45 302.794 51.765c130.45-5.79 147.14-45.24 147.14-45.24" fill="#fff"/><path d="M793.73 1101.256h-.08c-166.904 2.673-303.6-51.617-304.96-52.167l4.154-10.31c1.342.54 136.026 53.98 300.55 51.36 116.547-5.19 141.148-37.28 142.26-37.28l1.516-1.07 9.065-3.828c.115 7.035-26.384 47.688-152.428 53.285h-.077z" fill="#002147"/><path stroke-miterlimit="10" d="M544.55 913.038s140.943 83.87 299.002 81.337c158.062-2.53 184.802-40.298 185.506-48.887-.417 39.15-39.61 77.906-83.214 102.085-43.6 24.178-96.306 31.665-147.01 32.476-203.496 3.26-350.904-73.69-350.904-73.69l96.62-93.328z" fill="#fff" stroke="#002147" stroke-width="3.705"/><path stroke-miterlimit="10" d="M530.896 931.07s192.796 93.6 342.685 78.293c149.89-15.307 171.05-46.345 152.82-62.392" fill="none" stroke="#002147" stroke-width="12.35"/><path d="M530.162 985.2h33.55c6.692 0 15.438 7.928 15.438 20.174 0 12.246-9.262 15.746-9.262 15.746s1.51-18.084-17.22-18.084-28.987.59-28.987-7.542c0-8.13 4.53-10.293 6.488-10.293z" fill="#002147"/><circle cx="532.279" cy="849.529" r="5" transform="matrix(1.235 0 0 1.235 137.02 0)" fill="#002147"/><circle cx="440.269" cy="838.989" r="5" transform="matrix(1.235 0 0 1.235 137.02 0)" fill="#002147"/><path stroke-miterlimit="10" d="M503.3 874.256l-69.848 50.28-18.248 78.62s61.545 41.533 78.6 74.026L595 897.415c-48.163-1.695-91.697-23.16-91.697-23.16z" fill="#fff" stroke="#002147" stroke-width="2.507"/><path stroke-miterlimit="10" d="M436.687 928.333l-24.425-8.805-6.484 69.926c-4.658 1.496-8.603 5.045-10.392 10.003-3.063 8.494 1.34 17.858 9.83 20.92 8.49 3.06 17.858-1.338 20.92-9.83 2.15-5.97.606-12.36-3.444-16.697l13.996-65.517zm73.308-68.133c-6.237-6.524-16.584-6.753-23.107-.515-3.81 3.645-5.456 8.688-4.94 13.555l-61.308 34.25 17.945 18.764 54.235-39.333c5.607 1.95 12.078.77 16.66-3.61 6.523-6.235 6.755-16.582.515-23.106z" fill="#fff" stroke="#002147" stroke-width="3.82"/><path d="M455.564 922.49c7.786 4.825 10.695 14.233 6.493 21.01-4.2 6.78-13.918 8.36-21.705 3.536l-40.372-25.018c-7.787-4.825-10.695-14.235-6.496-21.01 4.2-6.778 13.92-8.36 21.706-3.537l40.372 25.028z" fill="#002147"/><path d="M449.216 927.39c6.73 4.17 10.06 10.986 7.434 15.226-2.628 4.24-10.216 4.293-16.944.12l-34.908-21.632c-6.73-4.172-10.06-10.992-7.435-15.228 2.627-4.24 10.216-4.293 16.947-.12l34.906 21.63z" fill="#fff"/><circle cx="438.284" cy="439.284" r="304.618" transform="matrix(1.235 0 0 1.235 137.02 0)" fill="none"/><path d="M327.81 876.187l-1.325 1.325-17.2-17.188 1.327-1.326 1.827 1.828c1.91 1.91 4.18 2.577 6.8 2.003 1.24-.24 3.21-1.71 5.91-4.41l19.692-19.71c4.87-4.87 9.133-8.17 12.786-9.89 3.653-1.72 7.855-2.128 12.61-1.22 4.75.906 9.562 3.794 14.434 8.664 5.304 5.3 8.41 10.24 9.318 14.824.91 4.586.385 9.003-1.572 13.254-1.36 2.89-4.963 7.257-10.81 13.11l-18.98 18.99c-2.984 2.986-4.53 5.357-4.64 7.11-.104 1.757.76 3.554 2.6 5.39l1.826 1.83-1.325 1.323-20.99-20.983 1.324-1.325 1.864 1.86c2.005 2.005 4.072 2.804 6.2 2.396 1.456-.263 3.543-1.754 6.263-4.48l21.16-21.17c1.89-1.89 3.877-4.223 5.96-7.005 2.09-2.782 3.36-5.31 3.817-7.577.45-2.27.266-4.7-.56-7.287-.823-2.593-2.48-5.127-4.964-7.61-3.172-3.175-6.71-5.324-10.6-6.446-3.89-1.12-7.38-1.06-10.46.18-3.08 1.243-7.197 4.444-12.355 9.603l-19.657 19.67c-3.03 3.03-4.595 5.264-4.69 6.696-.12 1.98.74 3.89 2.58 5.73l1.828 1.83z" fill="#002147"/><path d="M271.536 810.737l-9.003-16.323 24.838-61.647-34.68 19.126c-3.695 2.037-5.774 3.724-6.234 5.057-.64 1.778-.306 3.853 1 6.217l1.147 2.083-1.64.904-11.544-20.938 1.642-.905 1.173 2.13c1.4 2.55 3.165 3.93 5.29 4.14 1.306.13 3.644-.73 7.016-2.59l50.7-27.953.88 1.598L275.547 788l37.04-20.424c3.7-2.038 5.785-3.71 6.26-5.014.623-1.81.29-3.88-1-6.216l-1.173-2.13 1.64-.904 11.544 20.936-1.643.904-1.15-2.086c-1.42-2.573-3.19-3.967-5.314-4.184-1.308-.13-3.645.736-7.017 2.596l-41.83 23.062c-1.08 2.87-1.695 4.935-1.85 6.197-.15 1.26-.03 2.917.37 4.97.21 1.006.79 2.382 1.755 4.126l-1.644.907z" fill="#002147"/><path d="M270.79 640.734l1.804-.503 7.883 28.36-1.804.5-.652-2.34c-.76-2.73-2.103-4.494-4.04-5.29-1.26-.49-3.873-.183-7.843.92l-42.752 11.887c-3.35.932-5.505 1.76-6.46 2.48-.722.553-1.237 1.415-1.542 2.585-.382 1.65-.357 3.256.08 4.817l.65 2.34-1.806.503-7.883-28.356 1.805-.5.665 2.39c.75 2.702 2.095 4.447 4.034 5.24 1.27.525 3.885.236 7.853-.868l42.75-11.888c3.353-.93 5.505-1.76 6.46-2.48.725-.55 1.235-1.43 1.53-2.634.39-1.615.37-3.205-.063-4.767l-.667-2.39z" fill="#002147"/><path d="M191.605 525.878l1.875-.074c.535 2.41 1.384 4.22 2.55 5.424 1.724 1.724 4.317 3.208 7.78 4.456l59.36 21.622.073 1.874-58.147 28.06c-2.984 1.436-4.804 2.44-5.456 3.005-1.012.887-1.79 1.956-2.33 3.21-.542 1.257-.856 2.934-.942 5.03l-1.874.075-1.11-28.04 1.87-.073c.43 3.16 1.053 5.195 1.866 6.11.815.913 1.828 1.345 3.043 1.298 1.687-.068 4.29-.948 7.803-2.643l39.545-19.058-40.37-14.62c-3.98-1.43-6.72-2.116-8.24-2.056-.98.04-1.897.565-2.755 1.58-.852 1.013-1.42 2.693-1.7 5.036-.025.17-.066.46-.117.866l-1.874.075-.84-21.158z" fill="#002147"/><path d="M206.483 443.575l26.456 6.106 3.39-14.702c.88-3.816.893-6.5.036-8.05-1.117-2.06-3.563-3.63-7.335-4.708l.423-1.828 23.296 5.377-.42 1.826c-3.36-.292-5.558-.313-6.587-.066-1.288.326-2.415 1.087-3.386 2.285-.97 1.2-1.777 3.197-2.42 5.993l-3.398 14.71 22.065 5.09c2.96.68 4.792.967 5.493.852.704-.117 1.32-.458 1.85-1.03.53-.57 1.01-1.78 1.432-3.62l2.62-11.353c.87-3.783 1.243-6.59 1.112-8.425-.133-1.83-.79-3.713-1.973-5.65-1.57-2.51-4.16-5.31-7.784-8.4l.455-1.974 15.45 9.65-11.9 51.578-1.828-.42.548-2.37c.366-1.58.335-3.163-.1-4.753-.28-1.174-.905-2.07-1.872-2.693-.967-.62-3.077-1.31-6.337-2.058l-43.483-10.035c-4.245-.978-6.96-1.154-8.144-.526-1.587.88-2.7 2.707-3.34 5.47l-.547 2.37-1.83-.422 11.903-51.578 14.83 2.642-.443 1.923c-3.68-.12-6.277.087-7.787.622-1.51.536-2.8 1.546-3.87 3.032-.797 1.2-1.578 3.464-2.346 6.79l-4.234 18.354z" fill="#002147"/><path d="M266.75 302.625c-.903.032-1.805.146-2.72.344-3.652.79-6.777 2.47-9.342 5.03-2.565 2.552-5.543 7.03-8.97 13.47l-11.75 22.09 1.657.873 1.188-2.25c1.222-2.296 2.82-3.693 4.75-4.156 1.368-.343 3.934.5 7.75 2.532L288.5 361.4c3.458 1.84 5.474 3.32 6.063 4.438 1.084 1.993.956 4.28-.407 6.845l-1.22 2.28 1.658.876 13.812-25.97-1.656-.903-1.25 2.373c-1.206 2.266-2.772 3.63-4.688 4.062-1.367.343-3.964-.5-7.78-2.53l-17.594-9.376c.28-.46.53-.936.78-1.376.255-.437.482-.83.688-1.22.508-.952 1.16-2.225 1.906-3.78l39.25-5.405 8.625-16.19v-.03l-1.656-.875c-2.114 3.12-4.37 5.36-6.78 6.72-2.404 1.358-6.35 2.42-11.87 3.155l-24.064 3.25c1.582-5.702 1.638-10.485.188-14.375-1.45-3.89-4.022-6.83-7.75-8.813-2.614-1.394-5.29-2.034-8-1.937zM262.97 313c2.305.04 4.633.678 7 1.938 3.874 2.063 6.277 5.23 7.217 9.5.94 4.267-.138 9.277-3.218 15.062-.146.268-.33.62-.568 1.03-.238.41-.51.904-.812 1.47l-25.22-13.438c1.007-3.252 1.988-5.738 2.908-7.468 2.08-3.905 4.933-6.424 8.563-7.53 1.364-.418 2.74-.588 4.127-.564z" fill="#002147"/><path d="M331.74 199.55l17.512 16.056-1.267 1.38c-3.772-2.632-7.18-4.282-10.236-4.95-3.05-.668-6.15-.468-9.28.6-3.13 1.068-5.75 2.748-7.85 5.036-2.375 2.59-3.545 5.455-3.518 8.596.028 3.143 1.052 5.637 3.067 7.487 1.544 1.415 3.44 2.17 5.69 2.262 3.283.168 9.14-1.22 17.57-4.17 6.873-2.4 11.78-3.843 14.725-4.33 2.94-.487 5.762-.35 8.46.403 2.697.754 5.054 2.057 7.07 3.906 3.834 3.514 5.775 8.03 5.823 13.55.05 5.52-2.07 10.62-6.36 15.3-1.347 1.47-2.726 2.747-4.138 3.835-.832.66-2.752 1.84-5.76 3.55-3.01 1.71-4.812 2.89-5.404 3.53-.57.63-.836 1.29-.794 1.99.042.71.567 1.68 1.58 2.93l-1.268 1.38L340 261.97l1.268-1.38c4.23 2.688 7.745 4.31 10.556 4.868 2.808.56 5.84.26 9.102-.898 3.26-1.16 6.122-3.08 8.587-5.77 2.853-3.113 4.285-6.324 4.298-9.636.01-3.31-1.1-5.992-3.342-8.046-1.245-1.14-2.816-1.95-4.71-2.43-1.898-.48-4.056-.498-6.475-.06-1.635.284-5.653 1.482-12.053 3.586-6.4 2.107-11.156 3.414-14.278 3.92-3.12.505-5.988.434-8.596-.22-2.61-.65-4.96-1.935-7.053-3.853-3.632-3.33-5.485-7.59-5.556-12.784-.07-5.195 1.87-9.946 5.817-14.252 2.466-2.69 5.738-4.933 9.82-6.736 1.9-.824 3.11-1.522 3.636-2.095.592-.646.884-1.352.876-2.12-.01-.763-.488-1.806-1.43-3.13l1.268-1.374z" fill="#002147"/><path d="M447.04 192.956l1.09 1.526-23.948 17.11-1.09-1.527 1.98-1.414c2.31-1.65 3.504-3.52 3.586-5.61.03-1.35-1.15-3.7-3.545-7.05l-25.8-36.103c-2.02-2.83-3.533-4.57-4.54-5.223-.764-.49-1.75-.68-2.955-.565-1.68.204-3.18.777-4.5 1.72l-1.98 1.414-1.088-1.525 23.946-17.11 1.09 1.523-2.02 1.44c-2.28 1.63-3.46 3.494-3.543 5.585-.06 1.37 1.11 3.732 3.505 7.085l25.797 36.103c2.023 2.83 3.536 4.57 4.54 5.225.767.49 1.767.666 3 .534 1.652-.184 3.136-.746 4.455-1.69l2.023-1.44z" fill="#002147"/><path d="M513.85 84.57l7.023 14.517-1.77.755c-1.458-2.462-2.718-4.128-3.785-4.994-1.73-1.39-3.58-2.17-5.543-2.343-1.964-.173-4.25.3-6.86 1.414l-8.897 3.79 20.6 48.265c1.657 3.885 3.112 6.13 4.36 6.73 1.736.803 3.833.68 6.285-.368l2.19-.935.735 1.722L501.4 164.56l-.734-1.723 2.236-.954c2.67-1.14 4.223-2.755 4.65-4.85.26-1.284-.365-3.697-1.875-7.236l-20.603-48.267-7.59 3.242c-2.952 1.26-4.955 2.37-6.01 3.335-1.365 1.28-2.264 3.004-2.697 5.172-.432 2.164-.148 4.723.852 7.674l-1.77.753-5.58-15.135 51.57-22.01z" fill="#002147"/><path d="M624.9 59.634l23.746-3.198.25 1.858-1.306.177c-.87.12-2.09.68-3.66 1.67-1.568 1-2.944 2.31-4.122 3.93-1.18 1.628-2.552 4.2-4.125 7.71l-12.935 28.07 2.297 17.07c.563 4.184 1.383 6.73 2.46 7.64 1.46 1.237 3.563 1.67 6.307 1.298l2.21-.295.25 1.857-28.916 3.892-.25-1.86 2.41-.325c2.876-.387 4.803-1.532 5.774-3.434.593-1.17.63-3.662.117-7.48l-2.17-16.112-22.515-26c-2.658-3.05-4.44-4.94-5.335-5.67-.902-.73-2.668-1.515-5.3-2.353-.717-.242-1.71-.28-2.98-.11l-.25-1.856 29.116-3.92.25 1.86-1.507.202c-1.574.21-2.972.777-4.194 1.69-1.223.914-1.736 2.11-1.538 3.582.164 1.203 1.477 3.24 3.942 6.112l17.164 20.02 10.527-22.78c1.585-3.416 2.273-5.892 2.067-7.434-.126-.938-.482-1.74-1.066-2.412-.584-.67-1.356-1.153-2.316-1.45-.96-.297-2.344-.324-4.152-.08l-.25-1.856z" fill="#002147"/><path d="M717.213 87.23c1.58.136 2.863.797 3.85 1.98.98 1.187 1.408 2.55 1.278 4.1-.13 1.547-.79 2.82-1.97 3.824-1.185 1-2.552 1.435-4.1 1.304-1.55-.13-2.823-.79-3.824-1.976-1-1.185-1.434-2.55-1.305-4.1.13-1.547.79-2.82 1.976-3.823 1.187-1 2.555-1.44 4.104-1.31z" fill="#002147"/><path d="M814.375 76.25c-4.667.07-9.25 1.166-13.72 3.28-9.16 4.335-15.373 11.723-18.655 22.126-3.207 10.175-2.735 19.438 1.375 27.78 4.114 8.345 10.672 13.91 19.688 16.75 8.92 2.815 17.552 1.935 25.906-2.655 8.35-4.583 14.11-11.86 17.25-21.81 3.04-9.66 2.44-18.702-1.75-27.122-4.2-8.422-10.53-13.976-19.037-16.656-3.748-1.183-7.432-1.743-11.062-1.69zM817 80.188c2.065-.022 4.21.306 6.406 1 6.247 1.97 10.463 5.692 12.625 11.187 2.68 6.898 2.226 15.95-1.31 27.156-3.26 10.34-7.634 17.286-13.154 20.818-5.524 3.536-11.38 4.346-17.53 2.406-5.766-1.817-9.715-5.483-11.845-10.97-2.753-7.206-2.436-16.15.938-26.842 3.29-10.435 8.005-17.67 14.125-21.686 3.07-2.02 6.31-3.026 9.75-3.062z" fill="#002147"/><path d="M930.616 131.82l-14.51 22.768 10.55 6.725c2.42 1.544 4.534 2.14 6.34 1.788 1.806-.35 3.9-1.983 6.286-4.91l1.58 1.008-12.497 19.607-1.58-1.006c1.407-2.267 2.166-4.105 2.284-5.513.11-1.406-.15-2.685-.8-3.84-.65-1.152-1.94-2.345-3.88-3.58l-10.55-6.723-11.597 18.196c-1.872 2.932-2.92 4.986-3.15 6.162-.17.894.037 1.886.624 2.98.815 1.48 1.91 2.66 3.276 3.53l2.092 1.333-1.008 1.58-24.86-15.844 1.006-1.58 2.05 1.307c2.392 1.525 4.572 1.935 6.544 1.23 1.265-.475 3.005-2.45 5.22-5.925l23.85-37.42c1.87-2.932 2.918-4.99 3.15-6.16.166-.896-.028-1.88-.58-2.955-.792-1.464-1.883-2.642-3.28-3.53l-2.05-1.306 1.007-1.58 43.1 27.47-7.56 13.086-1.494-.952c.984-3.177 1.39-5.712 1.213-7.607-.177-1.892-.803-3.58-1.878-5.068-1.074-1.486-3.12-3.19-6.14-5.114l-12.77-8.145z" fill="#002147"/><path d="M994.766 212.925c1.145 1.1 1.725 2.418 1.747 3.958.02 1.54-.51 2.87-1.585 3.99-1.077 1.12-2.393 1.697-3.943 1.728-1.55.03-2.887-.49-4.007-1.563-1.12-1.075-1.697-2.39-1.73-3.94-.03-1.552.495-2.89 1.57-4.01 1.077-1.12 2.39-1.696 3.94-1.728 1.55-.03 2.888.493 4.01 1.57z" fill="#002147"/><path d="M1055.28 258.344c-6.607.172-13.035 2.32-19.28 6.47-8.89 5.902-14.368 13.39-16.406 22.467-2.04 9.08-.418 17.567 4.812 25.44 5.175 7.796 12.43 12.546 21.813 14.22 9.38 1.676 18.43-.385 27.12-6.155 8.44-5.606 13.66-12.996 15.687-22.186 2.025-9.19.587-17.514-4.343-24.94-4.97-7.484-11.735-12.247-20.282-14.312-3.078-.743-6.12-1.078-9.125-1zm9.126 7.906c.94-.016 1.87.035 2.782.125 5.85.57 10.474 3.41 13.874 8.53 3.623 5.458 4.552 11.025 2.782 16.658-2.25 7.048-8.273 13.812-18.063 20.312-9.03 5.997-16.793 8.624-23.31 7.906-6.52-.72-11.552-3.75-15.122-9.12-3.345-5.032-4.137-10.363-2.344-15.97 2.38-7.337 8.255-14.107 17.595-20.31 7.974-5.296 15.236-8.013 21.81-8.126z" fill="#002147"/><path d="M1114.17 411.53l-16.595 20.62c-4.586 5.71-7.35 9.75-8.293 12.113-.944 2.364-1.044 5.02-.3 7.973l-1.788.558-8.78-28.143 1.79-.552c.614 1.86 1.24 3.186 1.878 3.977.5.59 1.117 1.007 1.85 1.257.732.25 1.405.277 2.018.086.74-.23 1.436-.608 2.087-1.13.478-.394 1.62-1.724 3.426-3.988l13.357-16.37-21.888-8.24c-2.32-.87-3.84-1.35-4.56-1.443-.718-.092-1.416-.033-2.092.178-1.033.32-1.752 1.025-2.157 2.106-.405 1.08-.275 2.86.393 5.343l-1.788.56-7.257-23.26 1.798-.558c.673 1.594 1.454 2.908 2.34 3.94 1.463 1.737 3.185 3.286 5.167 4.65 1.98 1.36 4.8 2.747 8.46 4.152l24.363 9.38 14.878-18.81c4.03-5.113 6.46-9.144 7.29-12.09.833-2.95.8-6.035-.1-9.256l1.79-.557 9.458 30.32-1.787.557c-.904-2.55-1.874-4.183-2.91-4.903-1.04-.72-2.01-.937-2.913-.656-1.193.37-2.692 1.69-4.5 3.954l-11.9 14.75 18.385 7.05c2.16.812 3.614 1.27 4.354 1.375.74.105 1.45.052 2.126-.16.676-.21 1.21-.59 1.607-1.137.528-.695.81-1.456.854-2.283.044-.828-.28-2.405-.97-4.737l1.792-.557 7.255 23.26-1.788.554c-.67-1.805-1.43-3.214-2.274-4.223-1.286-1.51-2.782-2.793-4.492-3.852-1.71-1.056-4.67-2.38-8.88-3.967l-20.69-7.82z" fill="#002147"/><path d="M1159.47 514.754l-26.977 1.112.52 12.503c.116 2.862.836 4.94 2.156 6.22 1.312 1.28 3.86 2.06 7.62 2.345l.08 1.87-23.23.96-.08-1.87c2.664-.146 4.605-.57 5.83-1.28 1.22-.71 2.12-1.66 2.695-2.85.577-1.19.82-2.93.724-5.226l-.516-12.5-21.565.89c-3.473.142-5.76.455-6.855.94-.83.374-1.524 1.113-2.086 2.218-.75 1.52-1.09 3.086-1.026 4.703l.103 2.484-1.873.078-1.216-29.454 1.873-.08.098 2.43c.12 2.835 1.03 4.86 2.736 6.073 1.112.767 3.728 1.063 7.845.894l44.34-1.83c3.47-.144 5.755-.46 6.85-.943.83-.37 1.527-1.093 2.09-2.164.75-1.485 1.09-3.054 1.02-4.706l-.096-2.43 1.872-.08 2.108 51.07-15.054 1.28-.073-1.773c3.17-1.01 5.48-2.13 6.934-3.354 1.456-1.224 2.486-2.703 3.09-4.434.604-1.734.83-4.388.686-7.964l-.627-15.134z" fill="#002147"/><path d="M1115.28 606.375c-5.933.23-11.374 1.857-16.342 4.875-7.954 4.83-12.96 11.864-15 21.094-2.024 9.133-.366 17.673 4.937 25.593 5.303 7.918 13.03 12.995 23.22 15.25 9.892 2.19 18.85.823 26.874-4.093 8.02-4.915 13.01-11.734 14.932-20.438 1.942-8.77.69-16.94-3.75-24.53-5.12-8.743-13.006-14.297-23.656-16.657-3.91-.87-7.66-1.237-11.22-1.1zm-4.31 10.938c4.02-.05 8.428.47 13.217 1.53 10.684 2.367 18.273 6.41 22.813 12.157 3.648 4.61 4.828 9.938 3.5 15.938-1.413 6.398-4.777 10.896-10.063 13.53-6.636 3.27-15.684 3.635-27.156 1.095-10.58-2.346-17.9-6.12-21.9-11.313-4.006-5.193-5.303-10.922-3.907-17.22 1.305-5.903 4.595-10.15 9.875-12.75 3.9-1.9 8.454-2.904 13.625-2.967z" fill="#002147"/><path d="M1061.03 711.438l-13.967 25.906 1.624.875 1.282-2.35c1.22-2.255 2.793-3.606 4.713-4.03 1.37-.337 3.946.54 7.75 2.593l17.563 9.47c-.286.455-.558.903-.814 1.343-.256.436-.48.833-.687 1.22-.514.95-1.15 2.2-1.907 3.75l-39.314 5.216-8.717 16.125 1.655.907c2.134-3.107 4.396-5.343 6.81-6.69 2.416-1.343 6.384-2.356 11.907-3.06l24.092-3.126c-1.615 5.69-1.706 10.48-.28 14.375 1.427 3.897 4 6.87 7.72 8.874 3.475 1.877 7.03 2.426 10.686 1.656 3.66-.77 6.793-2.43 9.376-4.97 2.583-2.54 5.6-7.016 9.065-13.436l11.875-22.03-1.658-.875-1.22 2.25c-1.234 2.29-2.817 3.675-4.75 4.125-1.37.336-3.975-.51-7.78-2.563l-39.03-21.094c-3.45-1.86-5.45-3.348-6.033-4.468-1.07-2-.94-4.288.438-6.844l1.25-2.25-1.657-.904zm21.783 33.968L1107.937 759c-1.023 3.245-1.974 5.713-2.906 7.438-2.093 3.892-4.983 6.38-8.62 7.468-3.636 1.087-7.353.63-11.125-1.406-3.864-2.086-6.24-5.288-7.155-9.563-.92-4.274.17-9.294 3.28-15.062.144-.265.354-.592.594-1 .236-.407.507-.904.813-1.47z" fill="#002147"/><path d="M1002.625 807l-21.375 22.03c-9.28 9.58-13.608 19.214-13 28.876.566 8.636 4.292 16.257 11.156 22.907 5.116 4.956 10.732 8.182 16.907 9.625 6.172 1.442 11.977 1.034 17.375-1.188 5.397-2.222 11.67-7.002 18.812-14.375l19.438-20.094-1.344-1.31-1.782 1.878c-1.807 1.868-3.703 2.746-5.687 2.656-1.432-.072-3.7-1.61-6.78-4.593l-31.876-30.875c-2.79-2.7-4.31-4.69-4.6-6-.49-2.163.26-4.29 2.28-6.374l1.815-1.874-1.345-1.28zm-10.094 17.53h.037l41.937 40.626c-1.996 3.468-4.07 6.287-6.187 8.47-5.638 5.822-12.224 8.687-19.75 8.593-7.524-.1-14.683-3.43-21.5-10.037-6.764-6.554-10.33-13.616-10.687-21.156-.36-7.54 2.203-14.12 7.655-19.75 2.017-2.08 4.847-4.335 8.5-6.75z" fill="#002147"/><g stroke="#002147"><path solid-color="#000000" overflow="visible" white-space="normal" style="text-indent:0;text-align:start;line-height:normal;text-transform:none;block-progression:tb" d="M507.548 302.233c-23.877-.042-45.6 8.177-59.94 25.27-15.827 18.86-19.457 44.7-12.91 70.736 6.544 26.03 23.178 52.5 48.3 73.58 25.12 21.08 54.075 32.86 80.853 34.79 25.38 1.82 48.99-5.33 64.86-22.13l122.5 102.79 4.943-5.89-122.5-102.79c13.794-18.547 16.734-43.037 10.53-67.71-6.544-26.038-23.18-52.505-48.302-73.58-25.12-21.08-54.072-32.87-80.85-34.79-2.51-.18-5.005-.277-7.475-.28zm-.008 7.684c2.282.006 4.593.093 6.93.26 24.925 1.793 52.492 12.902 76.46 33.015 23.97 20.113 39.7 45.33 45.792 69.566 6.092 24.235 2.636 47.254-11.344 63.914-13.98 16.66-36.052 24.064-60.976 22.272-24.925-1.792-52.492-12.9-76.46-33.014-23.97-20.112-39.698-45.33-45.79-69.566-6.093-24.235-2.634-47.258 11.345-63.918 12.67-15.098 31.982-22.59 54.043-22.53zm243.664 277.36l28.14 35.32v.003L908.95 731.352l16.477-19.637L795.82 602.962l-39.672-21.577" color="#000" fill="#002147" stroke-width=".5" font-family="sans-serif"/><path d="M630.335 474.037l-174.897-146.55M639.4 463.234l-174.9-146.55m176.11 129.152L479.455 310.83M639.86 426.786l-141.527-118.51m138.817 97.807l-117.98-98.708m102.1 177.463l-174.897-146.55M612.207 495.64L437.31 349.09m159.944 152.404L436.1 366.49m138.35 134.26L436.847 385.54m118.728 117.762l-117.98-98.708m200.655-.936l-81.266 96.85m67.28-124.054l-96.718 115.262m80.534-139.852l-107.84 128.52m84.943-145.106l-105.78 126.065m80.984-140.39L460.89 439.53m72.472-130.244L445.4 414.116m52.378-106.296l-60.667 72.3m194.66 9.524L540.518 498.4m101.458-77.04l-69.214 82.49m42.655-138.586L514.47 485.56m81.956-141.544L489.41 471.553m84.415-144.477L468.56 452.526m78.717-137.686l-94.554 112.684m64.71-120.992l-77.353 92.185" fill="none" stroke-width="1.282"/></g><g><path font-family="sans-serif" fill="#002147" color="#000" d="M849.274 302.237c-2.47.004-4.964.097-7.475.277-26.78 1.925-55.73 13.712-80.86 34.79-25.12 21.08-41.757 47.547-48.302 73.583-6.203 24.676-3.263 49.166 10.53 67.713l-122.5 102.79 4.945 5.892 122.5-102.79c15.87 16.8 39.477 23.948 64.85 22.124 26.78-1.925 55.733-13.712 80.854-34.79 25.12-21.08 41.755-47.546 48.3-73.583 6.546-26.037 2.916-51.876-12.91-70.736-14.34-17.093-36.064-25.312-59.94-25.27zm.008 7.684c22.06-.06 41.374 7.44 54.043 22.53 13.98 16.66 17.438 39.69 11.345 63.92-6.092 24.24-21.82 49.46-45.79 69.57-23.968 20.114-51.535 31.22-76.46 33.015-24.924 1.79-46.997-5.61-60.976-22.272-13.98-16.66-17.437-39.68-11.344-63.913 6.092-24.236 21.822-49.454 45.79-69.567 23.97-20.112 51.537-31.22 76.462-33.013 2.337-.168 4.647-.255 6.93-.26zM600.674 581.39l-39.672 21.576H561L431.395 711.72l16.476 19.636 129.61-108.752v-.002l28.14-35.32-4.94-5.893z" style="text-indent:0;text-align:start;line-height:normal;text-transform:none;block-progression:tb" white-space="normal" overflow="visible" solid-color="#000000"/><path stroke="#002147" fill="none" stroke-width="1.282" d="M726.665 474.037l174.897-146.55M717.6 463.234l174.9-146.55M716.39 445.836L877.545 310.83M717.14 426.786l141.527-118.51M719.85 406.083l117.98-98.708m-102.1 177.463l174.897-146.55M744.793 495.64L919.69 349.09M759.746 501.494L920.9 366.49M782.55 500.75l137.603-115.21M801.425 503.302l117.98-98.708m-200.655-.936l81.266 96.85m-67.28-124.054l96.718 115.262M748.92 351.864l107.84 128.52m-84.943-145.106l105.78 126.065m-80.984-140.39L896.11 439.53m-72.472-130.244l87.962 104.83M859.222 307.82l60.667 72.3m-194.66 9.524L816.482 498.4M715.03 421.36l69.215 82.49M741.59 365.264L842.53 485.56m-81.956-141.544L867.59 471.553m-84.415-144.477l105.266 125.45M809.73 314.84l94.554 112.684m-64.71-120.992l77.353 92.185"/></g><path style="line-height:normal;text-indent:0;text-align:start;text-decoration-line:none;text-decoration-style:solid;text-decoration-color:#000000;text-transform:none;block-progression:tb;isolation:auto;mix-blend-mode:normal" d="M646.344 808.094v4.406h-3.813v18c.017 12.277 6.98 23.595 18.16 29.688 11.19 6.1 24.934 6.1 36.126 0 11.182-6.098 18.143-17.442 18.156-29.72V812.5h-3.813v-4.406h-64.813zm3.843 3.843h57.125v4.375h3.844v14.157c-.01 10.84-6.126 20.905-16.156 26.37-10.033 5.47-22.463 5.47-32.5 0-10.027-5.465-16.142-15.532-16.156-26.374V816.31h3.843v-4.375z" fill="#002147"/><path fill="#002147" stroke="#002147" stroke-width="2.79" d="M643.93 793.13h69.638v14.96H643.93z"/><g stroke="#002147"><path stroke-width="6.846" fill="none" d="M678.59 793.444l.004-53.186"/><path stroke-width="7.201" fill="none" d="M688.703 794.76l5.51-56.616"/><path stroke-width="7.024" fill="none" d="M698.1 793.67l10.58-54.865"/><path stroke-width="7.325" fill="none" d="M710.978 794.087l12.385-55.56"/><path stroke-width="7.024" d="M668.052 794.21l-5.174-56.455"/><path stroke-width="7.024" d="M646.816 737.545L659.5 794.65l-12.684-57.104z"/><path stroke-width="7.024" d="M633.742 737.822l12.875 56.026-12.875-56.026z"/><path stroke-width="7.024" d="M644.03 775.122h71.05"/><path stroke-width="7.49" fill="none" d="M638.303 754.912H719.1"/></g><g fill="#002147"><path d="M608.97 632.406c-.17.01-.337.054-.5.094-2.613.666-4.077 5.034-5.19 8-1.56 4.148-1.654 8.232-1.874 13.156-.436 9.848.97 22.804 4.313 36.688 3.34 13.884 8 26.058 12.87 34.625 2.438 4.282 4.383 7.89 7.657 10.87 2.35 2.146 5.644 5.386 8.28 4.75 2.635-.634 4.07-5.02 5.19-8 1.554-4.15 1.654-8.263 1.873-13.187.436-9.844-.967-22.773-4.312-36.656-3.344-13.885-8-26.09-12.874-34.657-2.437-4.285-4.382-7.86-7.656-10.843-2.205-2.013-5.24-5.004-7.78-4.845zm2.342 5.657c1.08.23 2.313.917 3.75 2.218 2.15 1.95 4.534 5.105 6.875 9.22 4.683 8.23 9.27 20.24 12.563 33.91 3.292 13.666 4.67 26.412 4.25 35.874-.21 4.73-.88 8.662-1.906 11.376-.687 1.81-1.487 2.99-2.344 3.687l-23.188-96.282zm-2.812.656h.03l23.19 96.31c-1.08-.23-2.345-.95-3.783-2.25-2.15-1.95-4.534-5.1-6.875-9.22-4.683-8.233-9.27-20.24-12.562-33.907-3.293-13.667-4.67-26.413-4.25-35.875.21-4.73.88-8.63 1.906-11.343.683-1.814 1.49-3.022 2.344-3.72z" style="line-height:normal;text-indent:0;text-align:start;text-decoration-line:none;text-decoration-style:solid;text-decoration-color:#000000;text-transform:none;block-progression:tb;isolation:auto;mix-blend-mode:normal"/><path solid-color="#000000" overflow="visible" white-space="normal" font-family="sans-serif" color="#000" d="M625.614 631.63c-.17.004-.34.023-.505.057-2.66.55-4.25 4.89-5.47 7.832-.083.2-.147.4-.224.61.84 1.07 1.61 2.2 2.353 3.41.216-.72.447-1.39.7-2 .743-1.79 1.59-2.96 2.47-3.626l4.03 19.462c2.84 6.565 5.453 14.254 7.612 22.647l-8.845-42.687c1.073.265 2.31 1 3.704 2.348 2.087 2.014 4.358 5.263 6.566 9.453 4.415 8.38 8.62 20.51 11.47 34.275 2.853 13.766 3.813 26.568 3.09 36.01-.36 4.723-1.155 8.606-2.27 11.285-.743 1.79-1.586 2.958-2.465 3.626l-7.77-37.533c1.245 8.037 1.76 15.413 1.563 21.636l3.414 16.482c-1.073-.264-2.31-1.002-3.704-2.35-.385-.37-.778-.798-1.173-1.252-.13.423-.264.844-.423 1.266-.262.7-.548 1.487-.86 2.277.22.23.433.46.667.69 2.282 2.22 5.47 5.57 8.125 5.02 2.65-.55 4.24-4.89 5.46-7.836 1.68-4.098 1.91-8.18 2.28-13.095.753-9.83-.246-22.824-3.144-36.808-2.897-13.984-7.143-26.306-11.74-35.026-2.297-4.36-4.12-8.02-7.3-11.108-2.14-2.08-5.073-5.155-7.62-5.078z" style="line-height:normal;text-indent:0;text-align:start;text-decoration-line:none;text-decoration-style:solid;text-decoration-color:#000000;text-transform:none;block-progression:tb;isolation:auto;mix-blend-mode:normal"/><path d="M652.063 631.25c-2.698.272-4.74 4.417-6.25 7.22-2.093 3.876-2.747 7.904-3.625 12.717.73 1.55 1.458 3.186 2.156 4.907.192-1.513.406-2.976.656-4.344.85-4.66 2.052-8.42 3.438-10.97.927-1.702 1.868-2.77 2.812-3.342l9.906 98.53c-1.038-.374-2.19-1.234-3.437-2.718-1.08-1.286-2.18-2.97-3.25-5.03-.29 1.457-.687 2.858-1.25 4.28.7 1.233 1.46 2.434 2.402 3.563 2.04 2.443 4.862 6.083 7.563 5.812 2.697-.272 4.738-4.42 6.25-7.22 2.1-3.9 2.74-7.932 3.625-12.78 1.77-9.697 2.145-22.73.72-36.938-1.43-14.21-4.397-26.91-8.06-36.062-1.835-4.575-3.26-8.412-6.096-11.813-1.912-2.29-4.523-5.622-7.063-5.812-.17-.013-.33-.017-.5 0zm2.03 5.875c1.04.37 2.192 1.234 3.438 2.72 1.87 2.22 3.806 5.697 5.567 10.092 3.52 8.793 6.436 21.292 7.843 35.282 1.41 13.99 1.043 26.803-.657 36.12-.85 4.66-2.05 8.453-3.436 11-.925 1.704-1.9 2.77-2.844 3.344l-9.906-98.562z" style="line-height:normal;text-indent:0;text-align:start;text-decoration-line:none;text-decoration-style:solid;text-decoration-color:#000000;text-transform:none;block-progression:tb;isolation:auto;mix-blend-mode:normal"/><path d="M747.75 632.53c-2.544-.146-5.584 2.855-7.78 4.876-1.02.938-1.875 1.94-2.69 3 .483 1.263.83 2.523 1.095 3.813 1.135-1.55 2.25-2.816 3.313-3.786 1.43-1.31 2.67-2.014 3.75-2.25l-6.063 25.782c-.356 7.81-1.508 16.697-3.53 26.03-2.516 11.59-5.95 21.98-9.72 30.156l-3.406 14.438c-.857-.685-1.657-1.85-2.348-3.624-.728 1.15-1.534 2.22-2.406 3.25 1.07 2.81 2.45 6.088 4.717 6.624 2.64.623 5.94-2.66 8.282-4.812 3.26-3 5.176-6.61 7.592-10.905 4.832-8.59 9.407-20.788 12.687-34.688 3.28-13.9 4.64-26.842 4.156-36.687-.24-4.922-.36-9.016-1.936-13.156-1.13-2.974-2.58-7.345-5.22-7.97-.166-.04-.33-.083-.5-.093zm.5 6.314c.86.69 1.648 1.877 2.344 3.687 1.04 2.71 1.736 6.62 1.968 11.348.465 9.46-.833 22.222-4.062 35.906-3.228 13.684-7.763 25.714-12.406 33.97-2.322 4.126-4.704 7.292-6.844 9.25-1.43 1.31-2.67 2.015-3.75 2.25l22.75-96.406z" style="line-height:normal;text-indent:0;text-align:start;text-decoration-line:none;text-decoration-style:solid;text-decoration-color:#000000;text-transform:none;block-progression:tb;isolation:auto;mix-blend-mode:normal"/><path solid-color="#000000" overflow="visible" white-space="normal" font-family="sans-serif" color="#000" d="M678.595 632.037c-2.712 0-5.153 3.926-6.938 6.56-2.484 3.67-3.53 7.623-4.895 12.36-.037.128-.07.274-.106.404.58 1.6 1.147 3.26 1.68 5.03.367-1.62.75-3.19 1.168-4.64 1.312-4.55 2.876-8.19 4.51-10.59 1.092-1.6 2.155-2.57 3.15-3.05v99.06c-.995-.476-2.058-1.45-3.15-3.05-.86-1.264-1.7-2.88-2.496-4.786-.41 1.484-.912 2.915-1.58 4.318.495 1.037 1.052 2.044 1.72 3.03 1.784 2.635 4.225 6.56 6.937 6.56 2.71 0 5.152-3.925 6.937-6.56 2.484-3.67 3.53-7.624 4.895-12.36 2.73-9.47 4.39-22.398 4.39-36.68 0-14.28-1.66-27.207-4.39-36.68-1.366-4.734-2.41-8.687-4.895-12.356-1.785-2.635-4.226-6.56-6.937-6.56zm1.43 6.07c.996.476 2.058 1.448 3.15 3.05 1.634 2.397 3.198 6.04 4.51 10.59 2.624 9.1 4.28 21.83 4.28 35.888 0 14.06-1.656 26.79-4.28 35.89-1.312 4.55-2.876 8.19-4.51 10.587-1.092 1.602-2.154 2.575-3.15 3.05z" style="line-height:normal;text-indent:0;text-align:start;text-decoration-line:none;text-decoration-style:solid;text-decoration-color:#000000;text-transform:none;block-progression:tb;isolation:auto;mix-blend-mode:normal"/><path solid-color="#000000" overflow="visible" white-space="normal" font-family="sans-serif" color="#000" d="M704.41 630.514c-2.54.187-5.14 3.55-7.053 5.84-2.84 3.4-4.277 7.23-6.11 11.804-.315.783-.616 1.625-.92 2.46l.1.338c.43 1.49.824 3.096 1.2 4.752.72-2.326 1.476-4.513 2.268-6.49 1.76-4.395 3.682-7.86 5.548-10.082 1.248-1.484 2.403-2.345 3.442-2.72l-9.936 98.558c-.95-.574-1.91-1.65-2.83-3.352-.4-.724-.77-1.558-1.13-2.472-.49 1.524-1.03 2.97-1.68 4.363.07.14.13.28.2.42 1.51 2.802 3.546 6.954 6.244 7.226 2.697.27 5.52-3.39 7.56-5.84 2.84-3.4 4.277-7.23 6.11-11.808 3.668-9.15 6.615-21.846 8.048-36.055 1.43-14.208 1.08-27.236-.69-36.934-.883-4.85-1.527-8.886-3.63-12.785-1.51-2.8-3.546-6.95-6.244-7.224-.168-.017-.338-.02-.508-.008zm1.32 6.19c.945.573 1.904 1.648 2.83 3.352 1.385 2.548 2.576 6.328 3.425 10.987 1.698 9.318 2.067 22.15.657 36.138-1.41 13.99-4.335 26.49-7.86 35.28-1.76 4.4-3.68 7.86-5.547 10.08-1.248 1.49-2.403 2.35-3.442 2.72z" style="line-height:normal;text-indent:0;text-align:start;text-decoration-line:none;text-decoration-style:solid;text-decoration-color:#000000;text-transform:none;block-progression:tb;isolation:auto;mix-blend-mode:normal"/><path solid-color="#000000" overflow="visible" white-space="normal" font-family="sans-serif" color="#000" d="M731.268 632.158c-2.545-.1-5.51 2.945-7.668 5.005-3.206 3.06-5.065 6.7-7.403 11.04-.455.845-.905 1.75-1.353 2.66.29 1.636.53 3.385.74 5.194 1.022-2.35 2.066-4.538 3.124-6.5 2.247-4.17 4.548-7.397 6.652-9.393 1.407-1.335 2.652-2.06 3.727-2.314l-20.996 96.806c-.87-.677-1.7-1.853-2.43-3.65-.22-.54-.42-1.143-.61-1.778-.64 1.39-1.34 2.707-2.16 3.96 1.18 2.95 2.718 7.142 5.318 7.706 2.65.574 5.87-2.745 8.172-4.943 3.205-3.05 5.065-6.7 7.403-11.04 4.677-8.67 9.037-20.96 12.064-34.91 3.027-13.956 4.145-26.94 3.484-36.776-.33-4.92-.513-9-2.163-13.113-1.185-2.954-2.74-7.31-5.39-7.883-.164-.035-.33-.055-.5-.062zm.613 6.3c.88.675 1.71 1.85 2.44 3.647 1.09 2.69 1.847 6.58 2.165 11.304.636 9.44-.445 22.24-3.425 35.98-2.98 13.74-7.297 25.83-11.79 34.16-2.247 4.17-4.548 7.394-6.653 9.39-1.406 1.334-2.65 2.06-3.725 2.314z" style="line-height:normal;text-indent:0;text-align:start;text-decoration-line:none;text-decoration-style:solid;text-decoration-color:#000000;text-transform:none;block-progression:tb;isolation:auto;mix-blend-mode:normal"/></g></svg>