<svg xmlns="http://www.w3.org/2000/svg" width="1357" height="1357" viewBox="0 0 1357 1357"><path style="line-height:normal;text-indent:0;text-align:start;text-decoration-line:none;text-decoration-style:solid;text-decoration-color:#000000;text-transform:none;block-progression:tb;isolation:auto;mix-blend-mode:normal" d="M507.548 302.233c-23.877-.042-45.6 8.177-59.94 25.27-15.827 18.86-19.457 44.7-12.91 70.736 6.544 26.035 23.178 52.5 48.3 73.58 25.12 21.08 54.075 32.866 80.853 34.79 25.376 1.825 48.983-5.323 64.853-22.124l122.5 102.79 4.944-5.892-122.5-102.79c13.794-18.546 16.734-43.036 10.53-67.712-6.544-26.036-23.18-52.503-48.302-73.582-25.12-21.078-54.073-32.865-80.85-34.79-2.512-.18-5.006-.273-7.476-.277zm-.008 7.684c2.283.006 4.593.093 6.93.26 24.925 1.793 52.492 12.902 76.46 33.015 23.97 20.113 39.7 45.33 45.792 69.566 6.093 24.235 2.636 47.254-11.344 63.914-13.98 16.66-36.052 24.064-60.976 22.272-24.925-1.792-52.492-12.9-76.46-33.014-23.97-20.112-39.698-45.33-45.79-69.566-6.093-24.235-2.634-47.258 11.345-63.918 12.67-15.098 31.982-22.59 54.043-22.53zm248.608 271.468l-4.944 5.893 28.14 35.32v.002L908.95 731.352l16.477-19.637-129.605-108.753-39.674-21.577z" color="#000" font-family="sans-serif" white-space="normal" overflow="visible" solid-color="#000000" fill="#fff"/><path d="M630.335 474.037l-174.897-146.55M639.4 463.234l-174.9-146.55m176.11 129.152L479.455 310.83M639.86 426.786l-141.527-118.51m138.817 97.807l-117.98-98.708m102.1 177.463l-174.897-146.55M612.207 495.64L437.31 349.09m159.944 152.404L436.1 366.49m138.35 134.26L436.847 385.54m118.728 117.762l-117.98-98.708m200.655-.936l-81.266 96.85m67.28-124.054l-96.718 115.262m80.534-139.852l-107.84 128.52m84.943-145.106l-105.78 126.065m80.984-140.39L460.89 439.53m72.472-130.244L445.4 414.116m52.378-106.296l-60.667 72.3m194.66 9.524L540.512 498.4m101.458-77.04l-69.215 82.49m42.655-138.586L514.47 485.56m81.956-141.544L489.41 471.553m84.415-144.477L468.56 452.526m78.717-137.686l-94.554 112.684m64.71-120.992l-77.353 92.185" fill="none" stroke="#fff" stroke-width="1.282"/><path overflow="visible" white-space="normal" style="line-height:normal;text-indent:0;text-align:start;text-decoration-line:none;text-decoration-style:solid;text-decoration-color:#000000;text-transform:none;block-progression:tb;isolation:auto;mix-blend-mode:normal" d="M678.303 4.322c-296.533 0-536.96 240.428-536.96 536.96 0 192.265 101.09 360.92 252.995 455.77.546-1.12 1.206-2.15 1.95-3.104-150.87-94.184-251.24-261.692-251.24-452.665 0-294.532 238.726-533.255 533.255-533.255 294.53 0 533.252 238.725 533.252 533.254 0 175.89-85.14 331.87-216.458 428.998 7.973-3.29 14.103-6.628 18.738-9.776 2.64-2.114 5.256-4.257 7.855-6.422 4.08-4.147 5.424-7.534 5.524-8.744l3.698.17c0 .044-.01.087-.01.13v.013c0 .204-.026.408-.03.61 112.98-98.442 184.387-243.377 184.387-404.98 0-296.53-240.422-536.957-536.956-536.957zm0 158.903c-208.773 0-378.055 169.285-378.055 378.058 0 136.7 72.594 256.44 181.31 322.842.482-1.122 1.08-2.2 1.8-3.22C375.763 795.15 303.952 676.622 303.952 541.28c0-206.77 167.58-374.353 374.35-374.353s374.35 167.58 374.35 374.352c0 153.646-92.544 285.63-224.93 343.318.127.156.258.308.382.47l-14.31 5.556s-.342 0-.82.03c-3.117 1.203-6.255 2.36-9.412 3.482-2.242 1.445-4.706 3.507-7.235 6.377 150.98-49.585 260.03-191.677 260.03-359.233 0-208.773-169.282-378.058-378.055-378.058zm-86.46 742.356l-1.883 3.348c21.93 5.254 44.603 8.6 67.83 9.85.794-1.27 1.582-2.466 2.367-3.59-23.398-1.12-46.232-4.39-68.314-9.607zm-164.776 107.602c-.366.728-.783 1.422-1.235 2.084 4.133 2.207 8.29 4.376 12.486 6.477-4.182-3.276-7.968-6.136-11.25-8.563z" color="#000" font-family="sans-serif" solid-color="#000000" fill="#fff"/><path overflow="visible" white-space="normal" style="line-height:normal;text-indent:0;text-align:start;text-decoration-line:none;text-decoration-style:solid;text-decoration-color:#000000;text-transform:none;block-progression:tb;isolation:auto;mix-blend-mode:normal" d="M678.303 0C379.433 0 137.02 242.413 137.02 541.282c0 194.14 102.296 364.442 255.9 459.97.172-.82.378-1.636.67-2.443 1.185-3.29 3.254-5.98 5.82-7.983-150.12-93.31-250.04-259.723-250.04-449.546 0-292.193 236.738-528.93 528.933-528.93s528.93 236.737 528.93 528.932c0 179.88-89.736 338.72-226.882 434.27 5.28-1.652 10.058-3.348 14.265-5.064 13.103-5.35 21.254-10.856 26.116-15.443 4.864-4.587 6.374-8.403 6.483-9.707l3.697.17c0 .044-.01.087-.01.13v.013c-.03 2.215-.197 4.422-.46 6.625 115.762-99.282 189.14-246.584 189.14-410.996C1219.584 242.413 977.173 0 678.304 0zm-.002 158.905c-211.107 0-382.38 171.27-382.38 382.377 0 138.63 73.895 259.988 184.393 327.024.618-3.692 2.344-7.218 5.255-10.003.247-.237.51-.445.77-.667C379.594 792.73 308.27 675.394 308.27 541.282c0-204.435 165.595-370.027 370.03-370.027 204.434 0 370.026 165.59 370.026 370.027 0 152.493-92.188 283.346-223.84 340.014 1.32 1.11 2.533 2.375 3.618 3.772l-14.312 5.557s-11.217-.704-21.954 15.808c155.738-48.367 268.842-193.572 268.84-365.15 0-211.11-171.27-382.377-382.377-382.377z" color="#000" font-family="sans-serif" solid-color="#000000" fill="#fff"/><path overflow="visible" white-space="normal" style="line-height:normal;text-indent:0;text-align:start;text-decoration-line:none;text-decoration-style:solid;text-decoration-color:#000000;text-transform:none;block-progression:tb;isolation:auto;mix-blend-mode:normal" d="M813.107 877.122l-13.977 8.317c-12.11 7.207-37.86 12.948-62.928 16.832-25.068 3.887-49.595 6.06-59.798 6.707h-.018c-5.002.365-9.85 5.016-15.203 12.284-5.353 7.268-11.06 17.406-16.677 29.507-.71 1.532-1.42 3.1-2.128 4.694 1.074.39 2.156.778 3.244 1.17.667-1.5 1.334-2.973 2.005-4.416 5.55-11.957 11.19-21.937 16.327-28.913 5.14-6.976 9.93-10.693 12.683-10.896 10.35-.655 34.89-2.832 60.09-6.738 20.44-3.167 41.097-7.406 55.28-13.08-7.77 8.533-13.18 17.952-16.84 34.364-3.09 13.85-5.09 32.895-6.682 60.657 1.146.163 2.28.34 3.43.494 1.593-27.853 3.586-46.847 6.61-60.403 4.548-20.382 11.187-28.89 22.658-39.524zm-205.705 205.625c-6.28 31.78-11.9 62.226-14.565 89.142l-.185 1.89h7.774c.136.024 11.565 1.886 23.062 8.944 11.567 7.1 22.956 19.158 22.956 40.117 0 21.046-9.626 29.317-19.38 32.89-9.758 3.576-19.645 2.035-19.645 2.035l-2.432-.387.47 2.41s4.574 24.133 25.142 36.298c10.176 6.02 17.613 6.503 22.536 5.245 2.042-.522 3.548-1.358 4.733-2.16.42 2.033 1.197 5 2.623 8.775 2.853 7.55 8.317 18.486 18.71 32.214.055.122.074.188.202.407.105.18.19.375.552.687.18.157.464.398 1.035.457.096.013.165-.095.268-.106.1.012.172.118.266.11.572-.063.852-.305 1.033-.462.36-.313.443-.51.55-.688.13-.222.148-.293.202-.414 10.39-13.725 15.855-24.656 18.708-32.205 1.428-3.776 2.202-6.743 2.624-8.777 1.186.803 2.69 1.638 4.733 2.16 4.923 1.257 12.356.777 22.534-5.244 20.57-12.167 25.148-36.296 25.148-36.296l.465-2.414-2.426.386s-9.89 1.54-19.644-2.034c-9.754-3.574-19.38-11.844-19.38-32.888 0-20.96 11.39-33.02 22.955-40.12 11.498-7.057 22.924-8.92 23.062-8.943h4.727v-1.72c0-26.066.37-49.475.893-70.844-1.15-.02-2.283-.056-3.426-.082-.507 20.942-.87 43.824-.886 69.207h-1.63l-.136.02s-12.194 1.936-24.406 9.433c-12.21 7.496-24.596 20.827-24.596 43.048 0 22.135 10.883 32.178 21.637 36.12 8.7 3.188 15.86 2.667 18.83 2.345-1.295 5.037-6.673 22.198-22.94 31.82-9.622 5.693-15.995 5.88-19.93 4.873-3.935-1.005-5.433-3.095-5.433-3.095l-2.847-3.785-.247 4.73s-.16 3.635-2.898 10.88c-2.66 7.038-7.835 17.372-17.546 30.377-9.71-13.005-14.887-23.337-17.546-30.374-2.737-7.246-2.896-10.884-2.896-10.884l-.247-4.73-2.845 3.784s-1.5 2.087-5.434 3.095c-3.937 1.006-10.31.82-19.933-4.872-16.265-9.62-21.642-26.784-22.94-31.818 2.974.32 10.132.842 18.832-2.346 10.755-3.94 21.637-13.984 21.637-36.12 0-22.22-12.387-35.552-24.597-43.047-12.21-7.497-24.404-9.432-24.404-9.432l-.136-.02h-4.24c2.71-26.247 8.17-55.897 14.28-86.903-1.13-.23-2.27-.46-3.385-.692z" color="#000" font-family="sans-serif" solid-color="#000000" fill="#fff"/><path overflow="visible" white-space="normal" style="line-height:normal;text-indent:0;text-align:start;text-decoration-line:none;text-decoration-style:solid;text-decoration-color:#000000;text-transform:none;block-progression:tb;isolation:auto;mix-blend-mode:normal" d="M796.412 889.648l-13.894 2.763s-30.665 6.094-50.33 9.758c-19.55 3.64-43.06 5.51-43.06 5.51-3.71-.01-11.215 2.706-19.86 17.514-4.523 7.743-9.38 18.868-14.183 34.765 1.08.37 2.183.735 3.276 1.103 4.756-15.764 9.527-26.684 13.877-34.136 8.427-14.437 15.165-15.857 16.976-15.81l.093.002.09-.007s23.592-1.866 43.42-5.56c16.65-3.1 35.36-6.826 42.554-8.25-6.332 6.146-11.547 16.604-15.616 32.023-3.72 14.096-6.48 32.427-8.095 55.657 1.13.195 2.272.383 3.408.57 1.606-23.248 4.355-41.49 8.013-55.35 5.32-20.148 12.568-30.83 20.502-34.547zm-167.09 197.382c-11.046 52.98-19.22 76.343-19.22 76.343l-.612 1.748 1.79.483s11.2 3.018 22.43 11.64c11.23 8.62 22.358 22.634 22.358 45.035 0 22.546-8.326 34.21-16.56 40.484-8.24 6.273-16.365 7.044-16.365 7.044l-2.68.256 1.358 2.325s8.918 15.65 24.13 15.65c7.61 0 12.74-4.1 15.772-8.073.63-.823.867-1.478 1.34-2.268.938 8.685 4.165 25.67 16.228 44.268.037.106.05.17.145.376.077.16.12.324.433.665.154.17.405.494 1.103.585.117.015.17-.115.285-.13.12.016.173.146.287.13.697-.094.95-.415 1.108-.585.313-.342.352-.506.426-.667.094-.204.11-.263.146-.37 12.063-18.6 15.287-35.585 16.225-44.27.475.79.713 1.445 1.342 2.267 3.034 3.972 8.164 8.073 15.772 8.073 15.215 0 24.128-15.65 24.128-15.65l1.354-2.324-2.68-.254s-8.124-.77-16.36-7.043c-8.233-6.274-16.56-17.938-16.56-40.484 0-22.384 11.483-36.478 23.084-45.182 11.602-8.703 23.18-11.8 23.18-11.8l1.318-.355-.042-1.363s-.74-24.462-.92-62.78c-1.15-.042-2.3-.086-3.445-.135.168 36.957.87 60.638.903 61.777-1.82.523-11.927 3.552-23.06 11.905-12.168 9.128-24.46 24.36-24.46 47.93 0 23.41 8.914 36.364 17.92 43.225 6.878 5.236 12.536 6.586 15.43 7.12-2.77 3.775-9.89 11.973-19.793 11.973-6.398 0-10.42-3.295-13.042-6.722-2.618-3.428-3.62-6.834-3.62-6.834l-3.592-12.344.222 12.857s.284 22.02-15.272 46.955c-15.557-24.935-15.277-46.955-15.277-46.955l.22-12.857-3.593 12.344s-1 3.406-3.618 6.834c-2.622 3.427-6.646 6.722-13.04 6.722-9.9 0-17.026-8.198-19.797-11.974 2.896-.53 8.558-1.882 15.437-7.12 9.007-6.86 17.92-19.815 17.92-43.223 0-23.55-11.902-38.708-23.703-47.77-10.456-8.023-19.694-10.936-21.946-11.608.984-2.897 8.633-26.067 18.867-75.256-1.137-.205-2.275-.408-3.403-.615z" color="#000" font-family="sans-serif" solid-color="#000000" fill="#fff"/><path stroke-miterlimit="10" d="M719.286 1162.192h-84.17s15.728 4.932 23.73 18.496c8.004 13.563 6.35 28.36 6.35 28.36h33.665s-1.654-14.794 6.35-28.36c8-13.562 23.732-18.496 23.732-18.496h-9.658z" fill="none" stroke="#fff" stroke-width="3.031"/><path stroke-miterlimit="10" d="M682.03 1169.18h-23.456s5.623 4.932 8.106 13.973c2.483 9.04 2.948 17.673 2.948 17.673h24.81s.462-8.632 2.946-17.673c2.482-9.042 8.105-13.975 8.105-13.975h-23.457z" fill="none" stroke="#fff" stroke-width="3.031"/><path d="M682.03 1269.564l-17.268-18.686 6.598-30.232h21.344l6.595 30.232z" stroke-miterlimit="10" fill="none" stroke="#fff" stroke-width="4.041"/><path d="M682.03 1258.4l-9.985-10.803 3.816-17.485h12.343l3.816 17.485z" stroke-miterlimit="10" fill="none" stroke="#fff" stroke-width="6.063"/><path d="M547.024 985.2l-9.96 17.693c4.256.2 9.466.143 15.605.143 18.73 0 17.22 18.083 17.22 18.083s9.263-3.5 9.263-15.747-8.747-20.173-15.437-20.173z" fill="#fff"/><circle cx="794.386" cy="1049.168" r="6.175" fill="#fff"/><circle cx="680.753" cy="1036.151" r="6.175" fill="#fff"/><circle cx="678.302" cy="542.516" r="376.203" fill="none"/><path d="M327.81 876.187l-1.324 1.325-17.2-17.188 1.327-1.326 1.827 1.828c1.91 1.91 4.18 2.577 6.805 2.003 1.243-.24 3.21-1.71 5.908-4.41l19.695-19.704c4.87-4.872 9.133-8.17 12.786-9.89 3.653-1.72 7.855-2.128 12.61-1.22 4.75.906 9.562 3.794 14.434 8.664 5.304 5.3 8.41 10.242 9.318 14.825.91 4.586.385 9.003-1.572 13.254-1.36 2.89-4.965 7.257-10.812 13.11l-18.98 18.99c-2.985 2.986-4.53 5.357-4.64 7.11-.105 1.757.76 3.554 2.6 5.39l1.825 1.83-1.325 1.323-20.995-20.983 1.325-1.325 1.863 1.86c2.006 2.006 4.073 2.805 6.2 2.397 1.457-.262 3.544-1.753 6.264-4.478l21.16-21.175c1.887-1.888 3.875-4.222 5.962-7.004 2.088-2.783 3.36-5.31 3.813-7.578.452-2.27.267-4.7-.558-7.288-.824-2.592-2.48-5.126-4.965-7.61-3.174-3.174-6.71-5.323-10.603-6.445-3.89-1.12-7.38-1.06-10.46.182-3.08 1.242-7.197 4.443-12.355 9.602l-19.658 19.67c-3.03 3.03-4.595 5.265-4.69 6.697-.12 1.98.74 3.89 2.58 5.73l1.828 1.83z" fill="#fff"/><path d="M271.537 810.738l-9.003-16.324 24.838-61.647-34.687 19.126c-3.695 2.037-5.774 3.724-6.234 5.057-.64 1.778-.306 3.853 1 6.217l1.147 2.083-1.64.904-11.544-20.938 1.643-.905 1.173 2.13c1.4 2.544 3.163 3.924 5.29 4.14 1.304.13 3.642-.735 7.014-2.592l50.7-27.957.882 1.598-26.575 66.365 37.04-20.423c3.698-2.038 5.785-3.71 6.26-5.014.623-1.808.29-3.88-1-6.216l-1.173-2.13 1.642-.904 11.543 20.937-1.643.904-1.148-2.085c-1.42-2.573-3.192-3.967-5.317-4.184-1.306-.13-3.643.736-7.015 2.596l-41.83 23.062c-1.08 2.87-1.694 4.935-1.848 6.197-.152 1.26-.03 2.917.37 4.97.208 1.006.79 2.382 1.754 4.126l-1.643.904z" fill="#fff"/><path d="M270.79 640.734l1.807-.503 7.883 28.357-1.803.5-.652-2.34c-.76-2.734-2.108-4.497-4.046-5.29-1.26-.49-3.873-.186-7.843.92l-42.752 11.884c-3.352.932-5.506 1.76-6.46 2.48-.723.553-1.238 1.415-1.543 2.585-.383 1.65-.358 3.256.078 4.817l.65 2.34-1.805.504-7.884-28.356 1.806-.5.665 2.39c.75 2.702 2.096 4.447 4.035 5.24 1.27.525 3.887.236 7.855-.868l42.752-11.887c3.352-.93 5.504-1.76 6.46-2.48.724-.55 1.234-1.43 1.528-2.633.39-1.615.37-3.205-.062-4.767l-.667-2.39z" fill="#fff"/><path d="M191.608 525.878l1.875-.074c.534 2.41 1.383 4.22 2.548 5.424 1.726 1.724 4.32 3.208 7.78 4.456l59.36 21.622.075 1.874-58.147 28.06c-2.984 1.436-4.804 2.44-5.456 3.005-1.013.887-1.79 1.956-2.332 3.21-.54 1.257-.855 2.934-.94 5.03l-1.875.075-1.11-28.04 1.87-.073c.43 3.16 1.053 5.195 1.866 6.11.816.913 1.83 1.345 3.044 1.298 1.687-.068 4.29-.948 7.803-2.643l39.545-19.058-40.373-14.62c-3.98-1.43-6.726-2.116-8.246-2.056-.98.04-1.896.565-2.754 1.58-.852 1.013-1.42 2.693-1.7 5.036-.025.17-.066.46-.117.866l-1.874.075-.84-21.158z" fill="#fff"/><path d="M206.486 443.575l26.456 6.106 3.393-14.708c.88-3.816.894-6.5.037-8.05-1.118-2.06-3.564-3.63-7.336-4.708l.422-1.827 23.296 5.377-.422 1.828c-3.363-.292-5.558-.313-6.586-.066-1.29.326-2.416 1.087-3.387 2.285-.97 1.2-1.777 3.197-2.42 5.993l-3.398 14.71 22.065 5.09c2.96.68 4.794.967 5.496.852.703-.116 1.32-.457 1.848-1.03.532-.57 1.01-1.78 1.434-3.62l2.62-11.352c.87-3.783 1.243-6.59 1.112-8.425-.132-1.83-.79-3.715-1.972-5.652-1.57-2.51-4.162-5.31-7.784-8.398l.457-1.976 15.447 9.65-11.9 51.578-1.828-.42.548-2.37c.364-1.58.333-3.163-.1-4.753-.283-1.174-.907-2.07-1.874-2.693-.965-.62-3.075-1.31-6.335-2.058l-43.484-10.034c-4.244-.978-6.96-1.154-8.143-.526-1.588.88-2.702 2.705-3.34 5.468l-.548 2.37-1.83-.422 11.903-51.578 14.832 2.643-.444 1.924c-3.68-.12-6.275.087-7.786.622-1.51.536-2.8 1.546-3.872 3.032-.797 1.203-1.578 3.466-2.346 6.79l-4.234 18.356z" fill="#fff"/><path d="M266.756 302.623c-.903.032-1.81.146-2.725.344-3.652.79-6.762 2.463-9.327 5.02-2.565 2.556-5.562 7.053-8.988 13.493l-11.756 22.09 1.653.883 1.21-2.28c1.224-2.297 2.8-3.68 4.732-4.142 1.368-.342 3.96.503 7.775 2.534l39.17 20.846c3.46 1.84 5.483 3.32 6.072 4.438 1.083 1.992.94 4.27-.424 6.834l-1.212 2.28 1.656.88 13.826-25.98-1.654-.882-1.264 2.37c-1.205 2.267-2.763 3.618-4.68 4.05-1.367.344-3.96-.5-7.777-2.533l-17.615-9.377c.28-.46.55-.91.802-1.35.254-.438.484-.852.69-1.24.507-.953 1.136-2.206 1.885-3.76l39.273-5.433 8.613-16.19h.007l-1.654-.878c-2.12 3.117-4.383 5.355-6.79 6.714-2.406 1.358-6.365 2.406-11.886 3.142l-24.058 3.264c1.58-5.702 1.646-10.495.196-14.385-1.45-3.89-4.035-6.825-7.762-8.81-2.616-1.392-5.28-2.04-7.988-1.942zm-3.797 10.363c2.305.04 4.64.69 7.007 1.95 3.875 2.062 6.283 5.228 7.224 9.498.942 4.268-.127 9.293-3.206 15.078-.14.268-.333.61-.568 1.017-.237.41-.505.897-.807 1.462l-25.22-13.424c1.004-3.25 1.965-5.743 2.885-7.472 2.08-3.905 4.934-6.414 8.565-7.522 1.362-.416 2.735-.61 4.12-.588z" fill="#fff"/><path d="M331.74 199.55l17.513 16.056-1.267 1.38c-3.772-2.632-7.18-4.282-10.236-4.95-3.05-.668-6.145-.468-9.277.6-3.132 1.068-5.75 2.748-7.847 5.036-2.374 2.59-3.544 5.455-3.517 8.596.027 3.143 1.05 5.637 3.066 7.487 1.544 1.415 3.44 2.17 5.69 2.262 3.283.168 9.14-1.22 17.568-4.17 6.874-2.4 11.782-3.843 14.726-4.33 2.942-.487 5.763-.35 8.46.403 2.698.754 5.055 2.057 7.07 3.906 3.835 3.514 5.776 8.03 5.824 13.55.05 5.52-2.07 10.62-6.36 15.3-1.346 1.47-2.725 2.747-4.137 3.835-.832.658-2.752 1.84-5.76 3.55-3.01 1.708-4.812 2.887-5.404 3.53-.57.625-.835 1.288-.793 1.99.043.704.568 1.68 1.58 2.927l-1.267 1.38-17.364-15.92 1.266-1.378c4.228 2.685 7.744 4.306 10.555 4.865 2.81.56 5.842.26 9.103-.898 3.26-1.16 6.123-3.08 8.588-5.768 2.854-3.113 4.286-6.324 4.3-9.636.01-3.31-1.105-5.992-3.346-8.046-1.245-1.14-2.816-1.95-4.71-2.43-1.898-.48-4.056-.498-6.475-.06-1.637.284-5.655 1.482-12.055 3.586-6.397 2.107-11.154 3.414-14.276 3.92-3.122.505-5.99.434-8.597-.22-2.61-.65-4.96-1.935-7.052-3.853-3.632-3.33-5.485-7.59-5.556-12.788-.07-5.195 1.87-9.946 5.817-14.252 2.466-2.69 5.738-4.934 9.82-6.737 1.898-.824 3.11-1.522 3.636-2.095.593-.646.885-1.352.877-2.118-.01-.765-.487-1.808-1.428-3.13l1.267-1.376z" fill="#fff"/><path d="M447.04 192.956l1.09 1.526-23.947 17.11-1.09-1.527 1.98-1.414c2.31-1.65 3.504-3.52 3.586-5.612.03-1.35-1.152-3.702-3.546-7.055l-25.8-36.102c-2.02-2.83-3.533-4.57-4.54-5.223-.764-.49-1.75-.68-2.955-.565-1.68.205-3.18.778-4.5 1.72l-1.98 1.415-1.09-1.523 23.947-17.11 1.09 1.524-2.02 1.443c-2.28 1.63-3.46 3.492-3.543 5.583-.06 1.37 1.11 3.732 3.505 7.085l25.796 36.103c2.023 2.83 3.536 4.57 4.54 5.225.767.49 1.767.667 3 .535 1.652-.186 3.136-.748 4.455-1.692l2.024-1.442z" fill="#fff"/><path d="M513.85 84.57l7.024 14.517-1.77.755c-1.458-2.462-2.718-4.128-3.785-4.994-1.73-1.39-3.58-2.17-5.544-2.343-1.964-.173-4.25.3-6.86 1.414l-8.897 3.797 20.6 48.264c1.656 3.886 3.11 6.13 4.358 6.73 1.737.804 3.834.68 6.286-.367l2.19-.934.735 1.723-26.788 11.433-.738-1.724 2.236-.954c2.672-1.14 4.223-2.755 4.652-4.85.26-1.284-.367-3.697-1.877-7.236l-20.603-48.268-7.592 3.242c-2.952 1.26-4.955 2.37-6.01 3.335-1.365 1.28-2.264 3.004-2.697 5.172-.432 2.168-.148 4.727.852 7.678l-1.77.753-5.578-15.134 51.573-22.01z" fill="#fff"/><path d="M624.902 59.634l23.745-3.198.25 1.858-1.306.177c-.87.118-2.09.675-3.658 1.668-1.57.998-2.945 2.307-4.123 3.93-1.18 1.624-2.553 4.195-4.126 7.71L622.75 99.846l2.296 17.068c.563 4.184 1.383 6.73 2.46 7.642 1.46 1.235 3.563 1.667 6.307 1.296l2.21-.295.25 1.857-28.916 3.893-.25-1.858 2.41-.325c2.876-.387 4.803-1.532 5.774-3.434.594-1.17.63-3.664.118-7.48l-2.17-16.114-22.515-26c-2.658-3.05-4.44-4.94-5.335-5.672-.902-.728-2.668-1.515-5.3-2.353-.717-.244-1.71-.282-2.98-.112l-.25-1.856 29.116-3.92.25 1.858-1.507.202c-1.574.21-2.972.776-4.194 1.688-1.223.914-1.736 2.11-1.538 3.582.164 1.204 1.477 3.242 3.942 6.113L620.09 95.65l10.528-22.78c1.585-3.417 2.273-5.893 2.067-7.435-.126-.938-.482-1.74-1.066-2.412-.585-.67-1.357-1.153-2.317-1.45-.96-.297-2.344-.324-4.152-.08l-.25-1.856z" fill="#fff"/><path d="M717.214 87.23c1.58.134 2.863.795 3.85 1.98.98 1.185 1.408 2.55 1.278 4.1-.13 1.545-.79 2.82-1.976 3.822-1.186 1-2.553 1.435-4.1 1.304-1.55-.13-2.824-.79-3.825-1.976-1-1.186-1.434-2.552-1.305-4.1.13-1.548.79-2.822 1.976-3.824 1.187-1 2.555-1.438 4.104-1.307z" fill="#fff"/><path d="M814.37 76.254c-4.668.07-9.238 1.163-13.708 3.277-9.157 4.336-15.377 11.706-18.658 22.11-3.207 10.175-2.755 19.436 1.357 27.78 4.115 8.344 10.683 13.937 19.7 16.78 8.92 2.815 17.555 1.926 25.91-2.665 8.35-4.588 14.096-11.86 17.237-21.81 3.044-9.662 2.47-18.705-1.725-27.127-4.197-8.422-10.543-13.975-19.046-16.655v.002c-3.75-1.182-7.437-1.746-11.067-1.69zm2.642 3.918c2.065-.02 4.196.315 6.394 1.008h.002c6.247 1.97 10.45 5.705 12.612 11.2 2.676 6.898 2.245 15.953-1.288 27.16-3.26 10.336-7.655 17.276-13.175 20.808-5.525 3.535-11.362 4.33-17.512 2.392-5.765-1.818-9.714-5.47-11.842-10.957-2.754-7.207-2.446-16.157.926-26.85 3.29-10.435 7.993-17.662 14.112-21.68 3.07-2.02 6.328-3.046 9.77-3.08z" fill="#fff"/><path d="M930.617 131.82l-14.51 22.767 10.55 6.725c2.42 1.544 4.534 2.14 6.34 1.788 1.806-.35 3.9-1.988 6.286-4.915l1.58 1.008-12.497 19.607-1.58-1.007c1.407-2.266 2.166-4.104 2.284-5.512.116-1.407-.148-2.686-.796-3.84-.647-1.153-1.94-2.346-3.878-3.58l-10.55-6.724-11.596 18.196c-1.87 2.933-2.92 4.987-3.15 6.163-.168.894.038 1.886.625 2.98.815 1.482 1.91 2.66 3.276 3.53l2.093 1.333-1.006 1.58-24.86-15.844 1.006-1.58 2.05 1.306c2.393 1.524 4.573 1.934 6.545 1.23 1.265-.476 3.005-2.45 5.22-5.926l23.85-37.418c1.87-2.933 2.918-4.99 3.15-6.162.166-.895-.028-1.878-.58-2.954-.792-1.465-1.883-2.643-3.28-3.53l-2.05-1.307 1.007-1.58 43.098 27.47-7.558 13.086-1.494-.952c.984-3.178 1.39-5.713 1.213-7.608-.176-1.892-.802-3.58-1.877-5.068-1.074-1.485-3.12-3.19-6.14-5.113l-12.77-8.144z" fill="#fff"/><path d="M994.768 212.924c1.144 1.1 1.724 2.418 1.746 3.958.02 1.54-.51 2.87-1.585 3.99-1.078 1.12-2.394 1.697-3.944 1.728-1.55.03-2.887-.49-4.007-1.568-1.12-1.075-1.698-2.39-1.73-3.94-.03-1.552.494-2.89 1.568-4.01 1.078-1.12 2.39-1.696 3.942-1.728 1.55-.03 2.887.494 4.008 1.57z" fill="#fff"/><path d="M1055.28 258.348c-6.607.172-13.035 2.332-19.282 6.48-8.888 5.902-14.355 13.394-16.393 22.47-2.04 9.078-.443 17.553 4.788 25.43 5.174 7.79 12.45 12.527 21.834 14.202 9.38 1.674 18.42-.376 27.11-6.147 8.44-5.607 13.672-13 15.7-22.19 2.025-9.19.57-17.498-4.36-24.925-4.97-7.484-11.726-12.257-20.273-14.322-3.078-.744-6.12-1.077-9.123-.998zm9.13 7.918c.94-.017 1.865.02 2.775.11 5.852.57 10.48 3.417 13.88 8.536v.002c3.622 5.458 4.545 11.003 2.777 16.637-2.25 7.05-8.27 13.824-18.06 20.325-9.032 5.996-16.805 8.637-23.32 7.918-6.52-.72-11.56-3.768-15.13-9.14-3.344-5.035-4.123-10.357-2.332-15.964 2.38-7.34 8.244-14.11 17.584-20.313 7.975-5.295 15.25-7.998 21.826-8.11z" fill="#fff"/><path d="M1114.17 411.533l-16.594 20.618c-4.586 5.712-7.35 9.75-8.293 12.114-.944 2.364-1.044 5.02-.3 7.973l-1.788.558-8.78-28.143 1.79-.558c.614 1.86 1.24 3.186 1.878 3.977.5.59 1.117 1.006 1.85 1.256.732.25 1.405.277 2.018.086.742-.23 1.437-.608 2.088-1.13.478-.394 1.62-1.724 3.426-3.988l13.357-16.37-21.887-8.24c-2.32-.87-3.84-1.35-4.56-1.443-.718-.093-1.416-.034-2.092.177-1.032.32-1.75 1.025-2.156 2.106-.405 1.08-.275 2.86.393 5.343l-1.788.558-7.258-23.26 1.79-.557c.674 1.593 1.455 2.907 2.342 3.94 1.462 1.736 3.184 3.285 5.166 4.648 1.98 1.362 4.8 2.748 8.46 4.153l24.363 9.38 14.878-18.81c4.032-5.113 6.46-9.144 7.292-12.09.83-2.95.798-6.035-.1-9.256l1.79-.558 9.456 30.32-1.788.557c-.902-2.548-1.872-4.182-2.91-4.902-1.037-.72-2.01-.938-2.91-.657-1.194.372-2.693 1.69-4.5 3.953l-11.9 14.75 18.384 7.05c2.16.812 3.615 1.27 4.355 1.375.74.105 1.448.052 2.125-.16.677-.21 1.21-.59 1.608-1.137.526-.695.81-1.456.852-2.283.042-.828-.28-2.405-.973-4.737l1.79-.558 7.255 23.26-1.788.555c-.67-1.806-1.43-3.215-2.273-4.224-1.287-1.51-2.783-2.794-4.493-3.853-1.71-1.057-4.67-2.38-8.88-3.968l-20.692-7.82z" fill="#fff"/><path d="M1159.47 514.755l-26.976 1.112.52 12.503c.116 2.868.836 4.94 2.156 6.224 1.32 1.28 3.862 2.063 7.625 2.347l.08 1.872-23.23.958-.08-1.87c2.666-.145 4.607-.57 5.83-1.28 1.223-.71 2.12-1.66 2.697-2.85.577-1.19.818-2.93.724-5.225l-.516-12.5-21.563.888c-3.473.144-5.76.457-6.855.943-.83.373-1.525 1.112-2.087 2.217-.748 1.52-1.09 3.088-1.025 4.705l.105 2.483-1.873.077-1.217-29.454 1.875-.08.1 2.43c.117 2.834 1.028 4.858 2.734 6.072 1.112.766 3.728 1.062 7.845.893l44.336-1.828c3.472-.144 5.758-.46 6.854-.943.83-.37 1.526-1.094 2.09-2.165.75-1.484 1.09-3.053 1.022-4.705l-.1-2.43 1.873-.08 2.108 51.07-15.054 1.28-.075-1.773c3.17-1.01 5.48-2.128 6.934-3.353 1.452-1.225 2.482-2.704 3.087-4.435.603-1.733.832-4.387.685-7.963l-.627-15.134z" fill="#fff"/><path d="M1117.086 606.36c-6.633-.052-12.682 1.582-18.15 4.902-7.952 4.83-12.95 11.858-14.993 21.09-2.023 9.132-.383 17.657 4.92 25.576 5.303 7.917 13.048 13.005 23.237 15.26 9.892 2.19 18.848.825 26.87-4.09 8.022-4.916 12.998-11.726 14.925-20.43 1.942-8.77.693-16.95-3.748-24.54-5.12-8.742-13.005-14.29-23.655-16.65-3.256-.72-6.39-1.093-9.406-1.117zm-6.12 10.97c4.02-.05 8.425.456 13.214 1.516 10.682 2.366 18.296 6.42 22.836 12.164 3.648 4.61 4.807 9.918 3.478 15.92l-.002-.004c-1.414 6.397-4.767 10.913-10.053 13.55-6.64 3.268-15.695 3.63-27.168 1.09-10.586-2.342-17.88-6.11-21.88-11.302-4.007-5.194-5.31-10.936-3.915-17.235 1.305-5.904 4.598-10.157 9.878-12.757 3.902-1.9 8.44-2.88 13.61-2.943z" fill="#fff"/><path d="M1061.03 711.44l-13.98 25.898 1.65.89 1.275-2.363c1.22-2.256 2.787-3.6 4.705-4.023 1.37-.337 3.958.524 7.76 2.578l17.562 9.48c-.285.457-.556.906-.813 1.346-.257.437-.488.848-.696 1.234-.512.95-1.15 2.2-1.908 3.75l-39.305 5.204-8.71 16.136 1.653.89c2.136-3.106 4.41-5.33 6.826-6.677 2.413-1.343 6.38-2.368 11.903-3.072l24.076-3.118c-1.616 5.69-1.708 10.483-.282 14.38 1.426 3.898 3.994 6.852 7.71 8.856 3.478 1.877 7.044 2.43 10.702 1.662 3.658-.77 6.778-2.424 9.36-4.965 2.58-2.542 5.602-7.02 9.066-13.44l11.887-22.02-1.65-.89-1.227 2.272c-1.235 2.29-2.82 3.662-4.752 4.114-1.37.336-3.958-.522-7.762-2.576l-39.047-21.078c-3.448-1.86-5.463-3.35-6.047-4.472-1.07-2-.915-4.276.463-6.832l1.228-2.272-1.647-.89zm21.783 33.976l25.14 13.568c-1.024 3.246-2 5.733-2.93 7.455-2.1 3.893-4.972 6.383-8.61 7.47-3.636 1.087-7.343.612-11.116-1.424-3.864-2.087-6.254-5.268-7.17-9.54-.916-4.276.18-9.294 3.293-15.06.143-.267.336-.605.574-1.013.237-.408.512-.893.82-1.457z" fill="#fff"/><path d="M1002.623 806.986l-21.36 22.05c-9.28 9.58-13.62 19.2-13.01 28.862.566 8.636 4.28 16.28 11.143 22.93 5.117 4.956 10.76 8.157 16.936 9.6 6.173 1.442 11.962 1.055 17.36-1.168 5.396-2.223 11.666-7.02 18.808-14.393l19.455-20.084-1.346-1.304-1.797 1.856c-1.81 1.867-3.707 2.755-5.69 2.666-1.433-.073-3.69-1.6-6.77-4.584l-31.87-30.875c-2.79-2.702-4.322-4.71-4.606-6.018-.49-2.165.276-4.292 2.297-6.377l1.797-1.855-1.347-1.303v-.004zm-10.072 17.537l41.944 40.64c-1.998 3.467-4.055 6.294-6.17 8.478-5.64 5.822-12.22 8.684-19.746 8.59-7.525-.095-14.69-3.448-21.508-10.05-6.765-6.556-10.327-13.604-10.685-21.143-.358-7.54 2.19-14.124 7.64-19.752 2.02-2.087 4.863-4.34 8.526-6.762z" fill="#fff"/><path overflow="visible" white-space="normal" style="line-height:normal;text-indent:0;text-align:start;text-decoration-line:none;text-decoration-style:solid;text-decoration-color:#000000;text-transform:none;block-progression:tb;isolation:auto;mix-blend-mode:normal" d="M515.19 878.06c-.296.776-.63 1.544-1.037 2.283 15.428 6.22 45.663 16.61 78.798 18.158l-99.178 176.186c-9.17-16.1-27.964-33.732-44.865-47.67-7.904-6.516-15.166-12.05-20.842-16.233-.046.136-.083.276-.132.413-.247.69-.544 1.343-.865 1.982 5.68 4.196 12.718 9.57 20.242 15.775 17.47 14.403 37.042 32.925 45.386 48.817l1.07 2.04 103.337-183.57-2.06-.075c-33.014-1.163-63.89-11.693-79.855-18.105z" color="#000" font-family="sans-serif" solid-color="#000000" fill="#fff"/><path overflow="visible" white-space="normal" style="line-height:normal;text-indent:0;text-align:start;text-decoration-line:none;text-decoration-style:solid;text-decoration-color:#000000;text-transform:none;block-progression:tb;isolation:auto;mix-blend-mode:normal" d="M571.356 941.976l-6.193 11c63.39 26.3 196.942 73.977 309.047 62.53 75.335-7.693 118.53-19.15 141.75-31.62 11.61-6.234 18.653-12.8 21.204-20.633 2.557-7.832-.936-15.857-6.68-20.915l-8.16 9.27c3.372 2.97 4.07 4.84 3.1 7.818-.97 2.98-5.17 8.138-15.307 13.58-20.277 10.89-62.607 22.604-137.162 30.218-107.035 10.93-238.28-35.346-301.6-61.244z" color="#000" font-family="sans-serif" solid-color="#000000" fill="#fff"/><path d="M512.844 1045.92l-5.548 9.857c42.7 14.5 155.015 47.582 286.357 45.48h.155c126.044-5.596 152.544-46.247 152.43-53.283l-9.064 3.83-1.52 1.063c-1.108 0-25.708 32.098-142.26 37.285-127.797 2.03-237.273-29.677-280.55-44.226z" fill="#fff"/><path overflow="visible" white-space="normal" style="line-height:normal;text-indent:0;text-align:start;text-decoration-line:none;text-decoration-style:solid;text-decoration-color:#000000;text-transform:none;block-progression:tb;isolation:auto;mix-blend-mode:normal" d="M578.78 928.782l-1.856 3.303c50.428 24.277 153.832 65.95 266.66 64.143 79.175-1.268 125.574-11.345 152.43-22.31 13.43-5.483 21.97-11.19 27.26-16.178 1.192-1.124 2.17-2.186 3.054-3.22-2.61 15.947-11.368 31.783-24.08 46.412-15.116 17.39-35.66 33.024-57.3 45.023-43.188 23.95-95.6 31.436-146.14 32.246-118.528 1.898-217.328-23.19-279.123-44.422l-1.783 3.16c62.598 21.52 162.228 46.866 280.963 44.964 50.866-.815 103.866-8.3 147.88-32.708 21.962-12.18 42.816-28.017 58.3-45.834 15.448-17.774 25.596-37.57 25.858-57.707v-.012c0-.044.01-.086.01-.13l-3.698-.173c-.107 1.306-1.618 5.123-6.48 9.71-4.864 4.587-13.014 10.092-26.117 15.442-26.207 10.7-72.207 20.772-151.09 22.036-111.196 1.78-213.958-39.4-264.744-63.742zm-169.217-.828l-5.584 60.226c-4.647 1.875-8.56 5.553-10.39 10.63-3.41 9.464 1.52 19.953 10.98 23.365 9.46 3.41 19.952-1.517 23.365-10.98 2.26-6.278.76-12.933-3.207-17.74l10.584-49.543-3.448-2.137-11.247 52.652.68.73c3.578 3.83 4.95 9.46 3.044 14.744-2.71 7.523-10.953 11.393-18.472 8.683-7.52-2.713-11.39-10.954-8.682-18.475 1.585-4.387 5.06-7.51 9.18-8.83l1.202-.386 5.627-60.684z" color="#000" font-family="sans-serif" solid-color="#000000" fill="#fff"/><path d="M406.01 894.683c-5.118-.118-9.898 2.088-12.523 6.324-4.2 6.776-1.293 16.184 6.493 21.01l40.372 25.018c7.786 4.826 17.505 3.246 21.706-3.532 4.2-6.78 1.294-16.19-6.49-21.014l-40.378-25.022c-2.92-1.808-6.11-2.714-9.18-2.786zm-1.71 7.98c3.066-.022 6.644 1.008 10.01 3.093l34.905 21.633c6.73 4.17 10.06 10.988 7.435 15.226-2.628 4.24-10.213 4.294-16.944.12l-34.91-21.63c-6.73-4.173-10.06-10.993-7.433-15.23 1.314-2.12 3.87-3.192 6.935-3.214z" fill="#fff"/><path overflow="visible" white-space="normal" style="line-height:normal;text-indent:0;text-align:start;text-decoration-line:none;text-decoration-style:solid;text-decoration-color:#000000;text-transform:none;block-progression:tb;isolation:auto;mix-blend-mode:normal" d="M498.592 853.26c-4.675-.105-9.39 1.567-13.023 5.043-3.904 3.732-5.678 8.8-5.51 13.807l-55.638 31.08 3.714 2.3 55.847-31.198-.133-1.254c-.457-4.306.988-8.744 4.36-11.97 2.89-2.765 6.61-4.097 10.3-4.015 3.687.083 7.345 1.58 10.108 4.468 5.525 5.777 5.323 14.883-.454 20.403-4.06 3.884-9.763 4.91-14.716 3.193l-.94-.325-45.054 32.673 3.51 2.174 42.32-30.69c6.006 1.68 12.698.35 17.52-4.26 7.268-6.954 7.527-18.538.574-25.807-3.474-3.636-8.11-5.517-12.782-5.622z" color="#000" font-family="sans-serif" solid-color="#000000" fill="#fff"/><path d="M810.793 876.013c-19.827-.467-45.802 26.127-49.766 110.504 3.968.617 7.962 1.198 11.986 1.732 4.502-99.96 40.78-97.627 40.78-97.627l14.313-5.558c-4.22-5.434-10.39-8.892-17.315-9.052zm-128.105 23.32c-10.275-.346-26.4 11.223-40.934 55.906 3.158 1.15 6.385 2.296 9.66 3.44 13.667-43.953 24.7-47.69 28.838-46.2l13.024-3.737c0-4.307-4.14-9.194-10.586-9.41zm-72.897 183.902c-14.893 59.42-26.21 101.084-26.21 101.084.1.015 27.27 1.877 37.933 8.513 12.19 7.583 18.372 17.68 18.372 30.01 0 9.523-2.668 15.6-8.655 19.71-6.262 4.297-14.242 4.94-18.44 4.94-2.867 0-4.76-.285-4.78-.29l-12.198-1.87 3.378 17.545c.23 1.194 5.92 29.405 29.23 43.194 7.23 4.277 13.958 6.447 19.998 6.447 2.193 0 4.15-.293 5.886-.755 3.125 8.76 9.046 20.97 20.274 35.926 1.71 2.983 6.68 8.814 6.68 8.814s4.964-5.833 6.676-8.814c11.226-14.953 17.147-27.164 20.273-35.926 1.733.463 3.693.753 5.886.753 6.042 0 12.77-2.168 20-6.446 23.308-13.787 29-41.998 29.23-43.192l3.407-17.63-12.244 1.96s-1.898.285-4.76.285c-4.2 0-12.178-.644-18.44-4.94-5.985-4.106-8.656-10.19-8.656-19.71 0-12.328 6.183-22.425 18.37-30.008 10.666-6.635 37.854-8.497 37.965-8.517 0 0-3.116-26.137-5.006-83.026-4.735-.047-9.443-.13-14.117-.262.407 50.178 2.066 71.03 2.066 71.03s-47.557 7.603-47.557 50.784c0 33.12 24.125 36.98 35.373 36.98 3.417 0 5.643-.36 5.643-.36s-4.53 23.433-24.33 35.147c-7.142 4.225-12.724 5.575-16.944 5.575-7.48 0-10.676-4.246-10.676-4.246s-.827 15.965-21.578 43.318c0 0-.303.75-.51.75-.026 0-.05-.013-.072-.038-.023.025-.047.037-.075.037-.205 0-.512-.75-.512-.75-20.748-27.352-21.575-43.318-21.575-43.318s-3.192 4.243-10.673 4.243c-4.22 0-9.806-1.35-16.945-5.574-19.803-11.715-24.332-35.146-24.332-35.146s2.226.356 5.644.356c11.246 0 35.377-3.863 35.377-36.98 0-43.18-47.555-50.782-47.555-50.782s9.144-37.28 20.637-86.55c-3.88-.747-7.706-1.505-11.456-2.275z" fill="#fff"/><path overflow="visible" white-space="normal" d="M849.274 302.237c-2.47.004-4.964.097-7.475.277-26.78 1.925-55.73 13.712-80.853 34.79-25.12 21.08-41.758 47.547-48.303 73.583-6.203 24.676-3.263 49.166 10.53 67.713l-122.5 102.79 4.945 5.892 122.5-102.79c15.87 16.8 39.477 23.948 64.85 22.124 26.78-1.925 55.733-13.712 80.854-34.79 25.12-21.08 41.755-47.546 48.3-73.583 6.546-26.037 2.916-51.876-12.91-70.736-14.342-17.093-36.064-25.312-59.94-25.27zm.008 7.684c22.06-.06 41.374 7.433 54.043 22.53 13.98 16.66 17.438 39.684 11.345 63.92-6.092 24.234-21.82 49.453-45.79 69.565-23.968 20.113-51.535 31.222-76.46 33.014-24.924 1.79-46.997-5.61-60.976-22.273-13.98-16.66-17.437-39.68-11.344-63.914 6.092-24.235 21.822-49.453 45.79-69.566 23.97-20.113 51.537-31.222 76.462-33.014 2.337-.168 4.647-.255 6.93-.26zM600.674 581.39L561 602.965 431.395 711.72l16.476 19.636 129.61-108.752-.002-.002 28.14-35.32-4.943-5.893z" style="line-height:normal;text-indent:0;text-align:start;text-decoration-line:none;text-decoration-style:solid;text-decoration-color:#000000;text-transform:none;block-progression:tb;isolation:auto;mix-blend-mode:normal" color="#000" font-family="sans-serif" solid-color="#000000" fill="#fff"/><path d="M726.665 474.037l174.897-146.55M717.6 463.234l174.9-146.55M716.39 445.836L877.545 310.83M717.14 426.786l141.527-118.51M719.85 406.083l117.98-98.708m-102.1 177.463l174.897-146.55M744.793 495.64L919.69 349.09M759.746 501.494L920.9 366.49M782.55 500.75l137.603-115.21M801.425 503.302l117.98-98.708m-200.655-.936l81.266 96.85m-67.28-124.054l96.718 115.262M748.92 351.864l107.84 128.52m-84.943-145.106l105.78 126.065m-80.984-140.39L896.11 439.53m-72.472-130.244l87.962 104.83M859.222 307.82l60.667 72.3m-194.66 9.524L816.488 498.4M715.03 421.36l69.215 82.49M741.59 365.264L842.53 485.56m-81.956-141.544L867.59 471.553m-84.415-144.477l105.266 125.45M809.724 314.84l94.554 112.684m-64.71-120.992l77.353 92.185" fill="none" stroke="#fff" stroke-width="1.282"/><path d="M646.347 808.11v4.396h-3.812v17.98h.002c.013 12.277 6.964 23.6 18.146 29.693 11.193 6.1 24.94 6.1 36.132 0 11.182-6.096 18.133-17.417 18.146-29.695h.004v-17.977h-3.812v-4.397H646.35zm3.827 3.826h57.15v4.382h3.827v14.166c-.013 10.842-6.13 20.88-16.16 26.346-10.035 5.47-22.445 5.47-32.482 0-10.027-5.466-16.146-15.504-16.158-26.346v-12.26h-.003v-1.906h3.827z" style="line-height:normal;text-indent:0;text-align:start;text-decoration-line:none;text-decoration-style:solid;text-decoration-color:#000000;text-transform:none;block-progression:tb;isolation:auto;mix-blend-mode:normal" white-space="normal" overflow="visible" color="#000" font-family="sans-serif" solid-color="#000000" fill="#fff"/><path fill="#fff" stroke="#fff" stroke-width="2.79" d="M643.93 793.13h69.638v14.96H643.93z"/><g fill="none" stroke="#fff"><path d="M678.59 793.444l.004-53.186" stroke-width="6.846"/><path d="M688.703 794.76l5.51-56.616" stroke-width="7.201"/><path d="M698.1 793.67l10.58-54.865" stroke-width="7.024"/><path d="M710.978 794.087l12.385-55.56" stroke-width="7.325"/><path d="M668.052 794.21l-5.174-56.455m-16.062-.21L659.5 794.65l-12.684-57.104zm-13.074.277l12.875 56.026-12.875-56.026zm10.288 37.3h71.05" stroke-width="7.024"/><path d="M638.303 754.912H719.1" stroke-width="7.49"/></g><g white-space="normal" color="#000" font-family="sans-serif" fill="#fff"><path overflow="visible" style="line-height:normal;text-indent:0;text-align:start;text-decoration-line:none;text-decoration-style:solid;text-decoration-color:#000000;text-transform:none;block-progression:tb;isolation:auto;mix-blend-mode:normal" d="M625.614 631.63c-.17.004-.34.023-.505.057-2.657.55-4.25 4.89-5.463 7.832-.084.202-.148.407-.225.61.84 1.074 1.61 2.206 2.353 3.41.216-.72.447-1.39.698-1.993.744-1.79 1.59-2.96 2.468-3.627l4.03 19.463c2.84 6.566 5.456 14.255 7.615 22.648l-8.845-42.687c1.074.264 2.31 1 3.705 2.347 2.086 2.014 4.357 5.263 6.565 9.453 4.416 8.378 8.62 20.508 11.47 34.274 2.854 13.766 3.814 26.568 3.09 36.01-.36 4.723-1.154 8.606-2.268 11.285-.744 1.79-1.587 2.957-2.466 3.625L640.06 696.8c1.245 8.037 1.76 15.413 1.563 21.636l3.414 16.482c-1.073-.264-2.31-1.002-3.704-2.35-.385-.37-.778-.798-1.173-1.252-.13.423-.264.844-.423 1.266-.262.7-.548 1.487-.86 2.277.22.23.433.467.667.694 2.282 2.218 5.47 5.568 8.125 5.018 2.652-.55 4.246-4.89 5.46-7.833 1.687-4.098 1.91-8.18 2.286-13.095.753-9.83-.246-22.824-3.144-36.808-2.897-13.984-7.143-26.306-11.74-35.026-2.297-4.36-4.122-8.02-7.3-11.106-2.14-2.08-5.073-5.153-7.62-5.076z" solid-color="#000000"/><path overflow="visible" style="line-height:normal;text-indent:0;text-align:start;text-decoration-line:none;text-decoration-style:solid;text-decoration-color:#000000;text-transform:none;block-progression:tb;isolation:auto;mix-blend-mode:normal" d="M652.573 631.237c-.17-.013-.338-.012-.506.005-2.698.272-4.735 4.42-6.247 7.222-2.093 3.877-2.74 7.895-3.618 12.708.73 1.55 1.44 3.215 2.138 4.936.192-1.513.404-2.978.654-4.346.85-4.66 2.042-8.44 3.428-10.988.927-1.703 1.886-2.777 2.83-3.35l9.91 98.56c-1.038-.375-2.193-1.236-3.44-2.72-1.08-1.286-2.177-3-3.252-5.06-.29 1.458-.688 2.88-1.255 4.302.7 1.233 1.477 2.414 2.418 3.542 2.04 2.444 4.86 6.105 7.56 5.834 2.697-.272 4.734-4.422 6.246-7.222 2.102-3.9 2.746-7.94 3.63-12.788 1.77-9.697 2.128-22.725.7-36.934-1.43-14.21-4.373-26.905-8.038-36.056-1.833-4.575-3.27-8.405-6.107-11.806-1.912-2.29-4.513-5.65-7.053-5.84zm1.523 5.902c1.04.372 2.194 1.232 3.44 2.717 1.867 2.222 3.787 5.69 5.548 10.085 3.52 8.792 6.44 21.29 7.847 35.28 1.41 13.988 1.036 26.82-.664 36.137-.85 4.66-2.043 8.437-3.43 10.985-.925 1.703-1.884 2.778-2.828 3.352zm93.644-4.6c-2.544-.145-5.56 2.846-7.757 4.867-1.02.938-1.9 1.943-2.714 3.002.484 1.263.836 2.53 1.1 3.82 1.137-1.545 2.254-2.82 3.317-3.79 1.43-1.31 2.688-2.014 3.767-2.25l-6.084 25.788c-.355 7.81-1.506 16.68-3.53 26.013-2.514 11.59-5.953 21.994-9.724 30.17l-3.406 14.44c-.852-.685-1.653-1.863-2.344-3.64-.728 1.15-1.51 2.232-2.382 3.26 1.07 2.81 2.457 6.085 4.724 6.62 2.64.623 5.915-2.638 8.257-4.793 3.26-3 5.187-6.61 7.603-10.906 4.833-8.59 9.415-20.79 12.695-34.69 3.28-13.9 4.634-26.862 4.15-36.707-.24-4.923-.353-9.01-1.928-13.15-1.132-2.975-2.606-7.357-5.245-7.98-.165-.04-.33-.063-.5-.073zm.498 6.31c.86.692 1.67 1.882 2.366 3.692 1.04 2.708 1.726 6.612 1.958 11.34.464 9.46-.846 22.23-4.075 35.914-3.228 13.683-7.762 25.694-12.405 33.95-2.322 4.126-4.682 7.31-6.822 9.268-1.43 1.31-2.688 2.01-3.767 2.245z" solid-color="#000000"/><path overflow="visible" style="line-height:normal;text-indent:0;text-align:start;text-decoration-line:none;text-decoration-style:solid;text-decoration-color:#000000;text-transform:none;block-progression:tb;isolation:auto;mix-blend-mode:normal" d="M678.595 632.037c-2.712 0-5.153 3.926-6.938 6.56-2.484 3.67-3.53 7.623-4.895 12.36-.037.128-.07.274-.106.404.58 1.6 1.147 3.258 1.68 5.03.367-1.624.75-3.194 1.168-4.642 1.312-4.55 2.876-8.193 4.51-10.59 1.092-1.602 2.155-2.574 3.15-3.05v99.056c-.995-.476-2.058-1.45-3.15-3.05-.86-1.264-1.7-2.88-2.496-4.786-.41 1.484-.912 2.915-1.58 4.318.495 1.036 1.052 2.043 1.72 3.028 1.784 2.636 4.225 6.562 6.937 6.562 2.71 0 5.152-3.926 6.937-6.562 2.484-3.67 3.53-7.623 4.895-12.36 2.73-9.47 4.39-22.397 4.39-36.678 0-14.28-1.66-27.208-4.39-36.68-1.366-4.735-2.41-8.688-4.895-12.357-1.785-2.636-4.226-6.56-6.937-6.56zm1.43 6.07c.996.476 2.058 1.448 3.15 3.05 1.634 2.397 3.198 6.04 4.51 10.59 2.624 9.1 4.28 21.83 4.28 35.888 0 14.06-1.656 26.79-4.28 35.89-1.312 4.55-2.876 8.19-4.51 10.587-1.092 1.602-2.154 2.575-3.15 3.05z" solid-color="#000000"/><path overflow="visible" style="line-height:normal;text-indent:0;text-align:start;text-decoration-line:none;text-decoration-style:solid;text-decoration-color:#000000;text-transform:none;block-progression:tb;isolation:auto;mix-blend-mode:normal" d="M704.41 630.514c-2.54.187-5.14 3.55-7.053 5.84-2.84 3.4-4.277 7.23-6.11 11.804-.315.783-.616 1.625-.92 2.46l.1.338c.43 1.49.824 3.096 1.2 4.752.72-2.326 1.476-4.513 2.268-6.49 1.76-4.395 3.682-7.86 5.548-10.082 1.248-1.484 2.403-2.345 3.442-2.72l-9.936 98.558c-.946-.574-1.905-1.65-2.83-3.352-.395-.724-.77-1.558-1.13-2.472-.49 1.524-1.026 2.97-1.68 4.363.072.14.132.28.207.42 1.51 2.802 3.545 6.954 6.243 7.226 2.698.27 5.52-3.39 7.56-5.835 2.84-3.402 4.278-7.232 6.112-11.807 3.667-9.15 6.614-21.846 8.047-36.055 1.43-14.208 1.08-27.236-.69-36.934-.883-4.85-1.527-8.886-3.63-12.785-1.51-2.802-3.546-6.952-6.244-7.224-.168-.016-.338-.02-.508-.007zm1.32 6.19c.945.573 1.904 1.648 2.83 3.352 1.385 2.548 2.576 6.328 3.425 10.987 1.698 9.318 2.067 22.15.657 36.138-1.41 13.99-4.335 26.49-7.86 35.28-1.76 4.397-3.68 7.86-5.547 10.08-1.248 1.487-2.403 2.348-3.442 2.72z" solid-color="#000000"/><path overflow="visible" style="line-height:normal;text-indent:0;text-align:start;text-decoration-line:none;text-decoration-style:solid;text-decoration-color:#000000;text-transform:none;block-progression:tb;isolation:auto;mix-blend-mode:normal" d="M731.268 632.158c-2.545-.1-5.51 2.945-7.668 5.005-3.206 3.06-5.065 6.7-7.403 11.04-.455.845-.905 1.75-1.353 2.66.29 1.636.53 3.385.74 5.194 1.022-2.35 2.066-4.538 3.124-6.5 2.247-4.17 4.548-7.397 6.652-9.393 1.407-1.335 2.652-2.06 3.727-2.314l-20.996 96.806c-.87-.677-1.703-1.853-2.43-3.65-.22-.54-.42-1.143-.613-1.778-.643 1.39-1.342 2.707-2.16 3.96 1.176 2.95 2.715 7.142 5.315 7.706 2.65.574 5.87-2.745 8.172-4.943 3.206-3.057 5.066-6.7 7.404-11.04 4.677-8.677 9.037-20.96 12.064-34.916 3.027-13.956 4.145-26.94 3.484-36.776-.33-4.918-.515-9-2.165-13.113-1.185-2.954-2.74-7.308-5.39-7.883-.164-.035-.33-.055-.5-.062zm.613 6.3c.875.675 1.707 1.85 2.434 3.647 1.09 2.69 1.847 6.58 2.165 11.304.635 9.447-.446 22.24-3.426 35.98-2.98 13.74-7.296 25.83-11.79 34.166-2.246 4.168-4.547 7.394-6.652 9.39-1.406 1.334-2.65 2.06-3.725 2.314z" solid-color="#000000"/><path d="M608.486 632.482c-2.635.634-4.09 5.023-5.207 8.003-1.558 4.148-1.65 8.236-1.867 13.16-.437 9.848.98 22.803 4.323 36.687 3.345 13.884 7.985 26.063 12.858 34.63 2.437 4.286 4.38 7.885 7.654 10.87 2.35 2.145 5.644 5.39 8.28 4.755 2.635-.635 4.09-5.024 5.207-8.004 1.556-4.15 1.646-8.238 1.865-13.162.436-9.846-.98-22.8-4.324-36.685-3.345-13.884-7.984-26.063-12.857-34.63-2.437-4.286-4.38-7.884-7.654-10.868-2.352-2.145-5.645-5.39-8.28-4.754zm.032 6.235l23.2 96.3c-1.08-.228-2.34-.925-3.778-2.227-2.15-1.947-4.523-5.12-6.864-9.236-4.683-8.233-9.274-20.222-12.566-33.89-3.293-13.667-4.665-26.43-4.245-35.892.21-4.73.877-8.638 1.904-11.35.685-1.814 1.49-3.008 2.347-3.705zm2.78-.67c1.08.23 2.34.927 3.778 2.228 2.15 1.948 4.523 5.122 6.864 9.24 4.683 8.23 9.273 20.22 12.566 33.887 3.292 13.667 4.665 26.432 4.245 35.894-.21 4.73-.876 8.636-1.903 11.35-.686 1.812-1.492 3.006-2.35 3.703z" style="line-height:normal;text-indent:0;text-align:start;text-decoration-line:none;text-decoration-style:solid;text-decoration-color:#000000;text-transform:none;block-progression:tb;isolation:auto;mix-blend-mode:normal" overflow="visible" solid-color="#000000"/></g></svg>