<?xml version="1.0" encoding="UTF-8" standalone="no"?>
<svg
   xmlns:dc="http://purl.org/dc/elements/1.1/"
   xmlns:cc="http://creativecommons.org/ns#"
   xmlns:rdf="http://www.w3.org/1999/02/22-rdf-syntax-ns#"
   xmlns:svg="http://www.w3.org/2000/svg"
   xmlns="http://www.w3.org/2000/svg"
   xmlns:sodipodi="http://sodipodi.sourceforge.net/DTD/sodipodi-0.dtd"
   xmlns:inkscape="http://www.inkscape.org/namespaces/inkscape"
   width="1357"
   height="1357"
   viewBox="0 0 1357 1357"
   id="svg2"
   version="1.1"
   inkscape:version="0.91 r"
   sodipodi:docname="logo-white.svg">
  <metadata
     id="metadata90">
    <rdf:RDF>
      <cc:Work
         rdf:about="">
        <dc:format>image/svg+xml</dc:format>
        <dc:type
           rdf:resource="http://purl.org/dc/dcmitype/StillImage" />
        <dc:title></dc:title>
      </cc:Work>
    </rdf:RDF>
  </metadata>
  <defs
     id="defs88" />
  <sodipodi:namedview
     pagecolor="#b2ffff"
     bordercolor="#666666"
     borderopacity="1"
     objecttolerance="10"
     gridtolerance="10"
     guidetolerance="10"
     inkscape:pageopacity="0"
     inkscape:pageshadow="2"
     inkscape:window-width="1920"
     inkscape:window-height="1028"
     id="namedview86"
     showgrid="false"
     inkscape:zoom="0.69565217"
     inkscape:cx="724.51016"
     inkscape:cy="904.38808"
     inkscape:window-x="0"
     inkscape:window-y="0"
     inkscape:window-maximized="1"
     inkscape:current-layer="svg2" />
  <path
     style="line-height:normal;text-indent:0;text-align:start;text-decoration-line:none;text-decoration-style:solid;text-decoration-color:#000000;text-transform:none;block-progression:tb;isolation:auto;mix-blend-mode:normal"
     d="M507.548 302.233c-23.877-.042-45.6 8.177-59.94 25.27-15.827 18.86-19.457 44.7-12.91 70.736 6.544 26.036 23.178 52.502 48.3 73.58 25.12 21.08 54.075 32.867 80.853 34.792 25.375 1.824 48.982-5.324 64.852-22.125l122.5 102.79 4.944-5.892-122.5-102.79c13.794-18.546 16.734-43.036 10.53-67.712-6.544-26.036-23.18-52.503-48.302-73.582-25.12-21.078-54.073-32.865-80.85-34.79-2.512-.18-5.006-.273-7.476-.277zm-.008 7.684c2.283.006 4.593.093 6.93.26 24.925 1.793 52.492 12.902 76.46 33.015 23.97 20.113 39.7 45.33 45.792 69.566 6.093 24.235 2.636 47.254-11.344 63.914-13.98 16.66-36.052 24.064-60.976 22.272-24.925-1.792-52.492-12.9-76.46-33.014-23.97-20.112-39.698-45.33-45.79-69.566-6.093-24.235-2.634-47.258 11.345-63.918 12.67-15.098 31.982-22.59 54.043-22.53zm248.608 271.468l-4.944 5.893 28.14 35.32v.002L908.95 731.352l16.477-19.637-129.605-108.753-39.674-21.577z"
     color="#000"
     font-family="sans-serif"
     white-space="normal"
     overflow="visible"
     solid-color="#000000"
     fill="#fff"
     id="path4" />
  <g
     fill="none"
     stroke="#fff"
     stroke-width=".5"
     id="g6">
    <path
       d="M630.335 474.037l-174.897-146.55M639.4 463.234l-174.9-146.55M640.61 445.836L479.455 310.83M639.86 426.786l-141.527-118.51M637.15 406.083l-117.98-98.708M621.27 484.838l-174.897-146.55M612.207 495.64L437.31 349.09M597.254 501.494L436.1 366.49M574.45 500.75L436.847 385.54M555.575 503.302l-117.98-98.708M638.25 403.658l-81.266 96.85M624.263 376.454l-96.717 115.262M608.08 351.864l-107.84 128.52M585.183 335.278l-105.78 126.065M560.387 320.954L460.89 439.53M533.362 309.286L445.4 414.116M497.778 307.82l-60.667 72.3M631.77 389.644L540.512 498.4M641.97 421.36l-69.215 82.49M615.41 365.264L514.47 485.56M596.426 344.016L489.41 471.553M573.825 327.076L468.56 452.526M547.277 314.84l-94.554 112.684M517.433 306.532l-77.353 92.185"
       stroke-width="1.282"
       id="path8" />
  </g>
  <path
     d="M646.347 808.11v4.396h-3.812v17.979h.002c.013 12.278 6.964 23.6 18.146 29.694 11.193 6.1 24.94 6.1 36.132 0 11.182-6.095 18.133-17.416 18.146-29.694h.003v-17.977h-3.812v-4.397h-64.803zm3.827 3.826h57.15v4.382h3.827v14.166c-.014 10.842-6.132 20.88-16.16 26.346-10.036 5.47-22.446 5.47-32.483 0-10.027-5.466-16.146-15.504-16.158-26.346v-12.26h-.003v-1.906h3.827v-4.382zM608.486 632.482c-2.635.634-4.09 5.023-5.207 8.003-1.557 4.148-1.648 8.236-1.866 13.16-.437 9.848.98 22.803 4.323 36.687 3.345 13.884 7.985 26.063 12.858 34.63 2.437 4.286 4.38 7.885 7.654 10.87 2.35 2.145 5.644 5.39 8.28 4.755 2.635-.635 4.09-5.024 5.207-8.004 1.556-4.15 1.646-8.238 1.865-13.162.436-9.847-.98-22.802-4.324-36.686-3.345-13.884-7.984-26.063-12.857-34.63-2.436-4.286-4.378-7.884-7.653-10.868-2.352-2.145-5.645-5.39-8.28-4.754zm.032 6.235l23.2 96.3c-1.08-.228-2.34-.925-3.778-2.227-2.15-1.947-4.523-5.12-6.864-9.236-4.683-8.233-9.274-20.222-12.566-33.89-3.293-13.667-4.665-26.43-4.245-35.892.21-4.73.877-8.638 1.904-11.35.686-1.814 1.49-3.008 2.348-3.705zm2.78-.67c1.08.23 2.34.927 3.778 2.228 2.15 1.948 4.523 5.122 6.864 9.24 4.683 8.23 9.273 20.22 12.566 33.887 3.292 13.667 4.665 26.432 4.245 35.894-.21 4.73-.877 8.636-1.904 11.35-.686 1.812-1.492 3.006-2.35 3.703z"
     style="line-height:normal;text-indent:0;text-align:start;text-decoration-line:none;text-decoration-style:solid;text-decoration-color:#000000;text-transform:none;block-progression:tb;isolation:auto;mix-blend-mode:normal"
     color="#000"
     font-family="sans-serif"
     white-space="normal"
     overflow="visible"
     solid-color="#000000"
     fill="#fff"
     id="path10" />
  <path
     d="M625.614 631.63c-.17.004-.34.023-.505.057-2.656.55-4.25 4.89-5.462 7.832-.084.203-.148.408-.225.612.84 1.073 1.61 2.205 2.353 3.41.216-.72.447-1.39.698-1.994.744-1.79 1.59-2.96 2.468-3.627l4.03 19.463c2.84 6.566 5.455 14.255 7.614 22.648l-8.845-42.688c1.074.264 2.31 1 3.705 2.347 2.086 2.014 4.357 5.263 6.565 9.453 4.416 8.378 8.62 20.508 11.47 34.274 2.854 13.766 3.814 26.568 3.09 36.01-.36 4.723-1.154 8.606-2.268 11.285-.744 1.79-1.587 2.957-2.466 3.625L640.06 696.8c1.245 8.037 1.76 15.413 1.563 21.636l3.414 16.482c-1.073-.264-2.31-1.002-3.704-2.35-.385-.37-.778-.798-1.173-1.252-.13.423-.264.844-.423 1.266-.262.7-.548 1.487-.86 2.277.22.232.433.468.667.695 2.282 2.218 5.47 5.568 8.125 5.018 2.653-.55 4.247-4.89 5.46-7.833 1.688-4.097 1.91-8.18 2.287-13.094.753-9.83-.246-22.824-3.144-36.808-2.897-13.984-7.143-26.306-11.74-35.026-2.297-4.36-4.122-8.02-7.3-11.107-2.14-2.08-5.073-5.153-7.62-5.076z"
     style="line-height:normal;text-indent:0;text-align:start;text-decoration-line:none;text-decoration-style:solid;text-decoration-color:#000000;text-transform:none;block-progression:tb;isolation:auto;mix-blend-mode:normal"
     color="#000"
     font-family="sans-serif"
     white-space="normal"
     overflow="visible"
     solid-color="#000000"
     fill="#fff"
     id="path12" />
  <path
     d="M652.573 631.237c-.17-.013-.338-.012-.506.005-2.698.272-4.735 4.42-6.247 7.222-2.093 3.877-2.74 7.895-3.618 12.708.73 1.55 1.44 3.215 2.138 4.936.192-1.513.404-2.978.654-4.346.85-4.66 2.042-8.44 3.428-10.988.927-1.703 1.886-2.777 2.83-3.35l9.91 98.56c-1.038-.375-2.193-1.236-3.44-2.72-1.08-1.286-2.177-3-3.252-5.06-.29 1.458-.688 2.88-1.255 4.302.7 1.233 1.477 2.414 2.418 3.542 2.04 2.444 4.86 6.105 7.56 5.834 2.697-.272 4.734-4.422 6.246-7.222 2.103-3.9 2.747-7.94 3.632-12.788 1.77-9.697 2.127-22.725.698-36.934-1.43-14.21-4.372-26.905-8.037-36.056-1.833-4.575-3.27-8.405-6.107-11.806-1.912-2.29-4.513-5.65-7.053-5.84zm1.523 5.902c1.04.373 2.194 1.233 3.44 2.718 1.867 2.222 3.787 5.69 5.548 10.085 3.52 8.792 6.44 21.29 7.847 35.28 1.408 13.988 1.035 26.82-.665 36.137-.85 4.66-2.043 8.438-3.43 10.986-.925 1.703-1.884 2.778-2.828 3.352zM747.74 632.54c-2.544-.145-5.56 2.846-7.757 4.867-1.02.938-1.9 1.943-2.714 3.002.485 1.264.837 2.53 1.1 3.82 1.138-1.544 2.255-2.82 3.318-3.79 1.43-1.31 2.688-2.013 3.767-2.248l-6.084 25.787c-.355 7.81-1.506 16.68-3.53 26.013-2.514 11.59-5.953 21.993-9.724 30.17l-3.406 14.44c-.852-.686-1.653-1.864-2.344-3.642-.728 1.15-1.51 2.233-2.382 3.26 1.07 2.81 2.457 6.086 4.724 6.62 2.64.624 5.915-2.637 8.257-4.792 3.26-3 5.187-6.61 7.603-10.906 4.833-8.59 9.415-20.792 12.695-34.69 3.28-13.9 4.634-26.863 4.15-36.708-.24-4.923-.353-9.01-1.928-13.15-1.132-2.975-2.606-7.357-5.245-7.98-.165-.04-.33-.063-.5-.073zm.498 6.31c.86.692 1.67 1.882 2.366 3.692 1.04 2.708 1.726 6.612 1.958 11.34.464 9.46-.846 22.23-4.075 35.914-3.228 13.683-7.762 25.694-12.405 33.95-2.322 4.126-4.682 7.31-6.822 9.268-1.43 1.31-2.688 2.01-3.767 2.245z"
     style="line-height:normal;text-indent:0;text-align:start;text-decoration-line:none;text-decoration-style:solid;text-decoration-color:#000000;text-transform:none;block-progression:tb;isolation:auto;mix-blend-mode:normal"
     color="#000"
     font-family="sans-serif"
     white-space="normal"
     overflow="visible"
     solid-color="#000000"
     fill="#fff"
     id="path14" />
  <path
     d="M678.595 632.037c-2.712 0-5.153 3.926-6.938 6.56-2.484 3.67-3.53 7.623-4.895 12.36-.037.128-.07.274-.106.404.58 1.6 1.147 3.257 1.68 5.03.367-1.625.75-3.195 1.168-4.643 1.312-4.55 2.876-8.193 4.51-10.59 1.092-1.602 2.155-2.574 3.15-3.05v99.056c-.995-.476-2.058-1.45-3.15-3.05-.86-1.264-1.7-2.88-2.496-4.786-.41 1.484-.912 2.915-1.58 4.318.495 1.036 1.052 2.043 1.72 3.028 1.784 2.636 4.225 6.562 6.937 6.562 2.71 0 5.152-3.926 6.937-6.562 2.484-3.67 3.53-7.623 4.895-12.36 2.73-9.47 4.39-22.397 4.39-36.678 0-14.28-1.66-27.208-4.39-36.68-1.366-4.735-2.41-8.688-4.895-12.357-1.785-2.635-4.226-6.56-6.937-6.56zm1.43 6.07c.996.476 2.058 1.448 3.15 3.05 1.634 2.397 3.198 6.04 4.51 10.59 2.624 9.1 4.28 21.83 4.28 35.888 0 14.06-1.656 26.79-4.28 35.89-1.312 4.55-2.876 8.19-4.51 10.587-1.092 1.602-2.154 2.575-3.15 3.05z"
     style="line-height:normal;text-indent:0;text-align:start;text-decoration-line:none;text-decoration-style:solid;text-decoration-color:#000000;text-transform:none;block-progression:tb;isolation:auto;mix-blend-mode:normal"
     color="#000"
     font-family="sans-serif"
     white-space="normal"
     overflow="visible"
     solid-color="#000000"
     fill="#fff"
     id="path16" />
  <path
     d="M704.41 630.514c-2.54.187-5.14 3.55-7.053 5.84-2.84 3.4-4.277 7.23-6.11 11.804-.315.783-.616 1.625-.92 2.46l.1.338c.43 1.49.824 3.096 1.2 4.752.72-2.326 1.476-4.513 2.268-6.49 1.76-4.395 3.682-7.86 5.548-10.082 1.248-1.484 2.403-2.345 3.442-2.72l-9.936 98.558c-.945-.574-1.904-1.65-2.83-3.352-.394-.724-.77-1.558-1.13-2.472-.49 1.524-1.025 2.97-1.68 4.363.073.14.133.28.208.42 1.51 2.802 3.545 6.954 6.243 7.226 2.698.27 5.52-3.39 7.56-5.834 2.84-3.402 4.278-7.232 6.112-11.807 3.667-9.15 6.614-21.846 8.047-36.055 1.43-14.208 1.08-27.236-.688-36.934-.884-4.848-1.528-8.885-3.632-12.784-1.51-2.802-3.545-6.952-6.243-7.224-.168-.017-.338-.02-.508-.008zm1.32 6.19c.945.573 1.904 1.648 2.83 3.352 1.385 2.548 2.576 6.328 3.425 10.987 1.698 9.318 2.067 22.15.657 36.138-1.41 13.988-4.335 26.49-7.86 35.28-1.76 4.396-3.68 7.86-5.547 10.08-1.248 1.486-2.403 2.347-3.442 2.72z"
     style="line-height:normal;text-indent:0;text-align:start;text-decoration-line:none;text-decoration-style:solid;text-decoration-color:#000000;text-transform:none;block-progression:tb;isolation:auto;mix-blend-mode:normal"
     color="#000"
     font-family="sans-serif"
     white-space="normal"
     overflow="visible"
     solid-color="#000000"
     fill="#fff"
     id="path18" />
  <path
     d="M731.268 632.158c-2.545-.1-5.51 2.945-7.668 5.005-3.206 3.06-5.065 6.7-7.403 11.04-.455.845-.905 1.75-1.353 2.66.29 1.636.53 3.385.74 5.194 1.022-2.35 2.066-4.538 3.124-6.5 2.247-4.17 4.548-7.397 6.652-9.393 1.407-1.335 2.652-2.06 3.727-2.314l-20.996 96.806c-.872-.677-1.704-1.853-2.432-3.65-.22-.54-.42-1.143-.612-1.778-.643 1.39-1.342 2.707-2.16 3.96 1.176 2.95 2.715 7.142 5.315 7.706 2.65.574 5.87-2.745 8.172-4.943 3.206-3.058 5.066-6.7 7.404-11.04 4.677-8.678 9.037-20.96 12.064-34.917 3.027-13.956 4.145-26.94 3.484-36.776-.33-4.918-.515-9-2.165-13.113-1.186-2.954-2.74-7.308-5.39-7.883-.165-.035-.332-.055-.502-.062zm.613 6.3c.874.675 1.706 1.85 2.433 3.647 1.09 2.69 1.847 6.58 2.165 11.304.636 9.448-.445 22.24-3.425 35.98-2.98 13.74-7.296 25.83-11.79 34.167-2.246 4.168-4.547 7.394-6.652 9.39-1.406 1.334-2.65 2.06-3.725 2.314z"
     style="line-height:normal;text-indent:0;text-align:start;text-decoration-line:none;text-decoration-style:solid;text-decoration-color:#000000;text-transform:none;block-progression:tb;isolation:auto;mix-blend-mode:normal"
     color="#000"
     font-family="sans-serif"
     white-space="normal"
     overflow="visible"
     solid-color="#000000"
     fill="#fff"
     id="path20" />
  <path
     fill="#fff"
     stroke="#fff"
     stroke-width="2.790384"
     d="M643.93 793.13h69.638v14.96H643.93z"
     id="path22" />
  <path
     d="M678.59 793.444l.004-53.186"
     fill="none"
     stroke="#fff"
     stroke-width="6.8463519999999995"
     id="path24" />
  <path
     d="M688.703 794.76l5.51-56.616"
     fill="none"
     stroke="#fff"
     stroke-width="7.200868"
     id="path26" />
  <path
     d="M698.1 793.67l10.58-54.865"
     fill="none"
     stroke="#fff"
     stroke-width="7.02361"
     id="path28" />
  <path
     d="M710.978 794.087l12.385-55.56"
     fill="none"
     stroke="#fff"
     stroke-width="7.324757999999999"
     id="path30" />
  <path
     d="M668.052 794.21l-5.174-56.455M646.816 737.546L659.5 794.65l-12.684-57.104zm-13.074.276l12.875 56.026-12.875-56.026zM644.03 775.123h71.05"
     fill="none"
     stroke="#fff"
     stroke-width="7.02361"
     id="path32" />
  <path
     d="M638.303 754.912H719.1"
     fill="none"
     stroke="#fff"
     stroke-width="7.489627"
     id="path34" />
  <g
     transform="matrix(1.235 0 0 1.235 137.021 0)"
     id="g36">
    <path
       d="M438.285 3.5C198.177 3.5 3.5 198.178 3.5 438.285c0 155.68 81.853 292.243 204.854 369.045.442-.907.976-1.742 1.578-2.514C87.772 728.554 6.5 592.92 6.5 438.286 6.5 199.798 199.8 6.5 438.285 6.5c238.487 0 431.783 193.3 431.783 431.785 0 142.42-68.94 268.72-175.27 347.367 6.456-2.663 11.42-5.367 15.173-7.916 2.138-1.712 4.256-3.447 6.36-5.2 3.303-3.358 4.392-6.1 4.473-7.08l2.994.138c0 .035-.007.07-.008.105v.01c-.003.165-.02.33-.023.493 91.48-79.71 149.3-197.066 149.3-327.918C873.068 198.177 678.394 3.5 438.286 3.5zm0 128.666c-169.047 0-306.117 137.073-306.117 306.12 0 110.687 58.78 207.644 146.81 261.41.39-.908.873-1.782 1.456-2.608-87.12-53.24-145.266-149.215-145.266-258.803 0-167.425 135.692-303.12 303.117-303.12s303.117 135.694 303.117 303.12c0 124.41-74.934 231.28-182.13 277.99.104.127.21.25.31.38l-11.588 4.5s-.276 0-.664.025c-2.523.973-5.064 1.91-7.62 2.818-1.815 1.17-3.81 2.84-5.858 5.164 122.25-40.15 210.55-155.204 210.55-290.877 0-169.047-137.07-306.12-306.117-306.12zm-70.008 601.098l-1.525 2.71c17.758 4.254 36.116 6.963 54.924 7.975.642-1.027 1.28-1.996 1.916-2.905-18.946-.908-37.435-3.555-55.315-7.78zM234.855 820.39c-.296.59-.634 1.152-1 1.688 3.347 1.787 6.712 3.543 10.11 5.244-3.386-2.652-6.452-4.968-9.11-6.933z"
       style="line-height:normal;text-indent:0;text-align:start;text-decoration-line:none;text-decoration-style:solid;text-decoration-color:#000000;text-transform:none;block-progression:tb;isolation:auto;mix-blend-mode:normal"
       color="#000"
       font-family="sans-serif"
       white-space="normal"
       overflow="visible"
       solid-color="#000000"
       fill="#fff"
       id="path38" />
    <path
       d="M438.285 0C196.285 0 0 196.286 0 438.285 0 595.483 82.83 733.38 207.205 810.73c.14-.663.307-1.324.543-1.978.96-2.663 2.635-4.84 4.713-6.463C90.905 726.734 10 591.987 10 438.284 10 201.69 201.69 10 438.285 10c236.595 0 428.283 191.69 428.283 428.285 0 145.653-72.66 274.267-183.71 351.635 4.275-1.337 8.144-2.71 11.55-4.1 10.61-4.332 17.21-8.79 21.147-12.504 3.937-3.714 5.16-6.804 5.248-7.86l2.994.138c0 .035-.007.07-.008.105v.01c-.024 1.793-.16 3.58-.372 5.364 93.734-80.39 153.15-199.663 153.15-332.79C876.568 196.287 680.284 0 438.285 0zm-.002 128.668c-170.938 0-309.62 138.68-309.62 309.617 0 112.252 59.834 210.517 149.306 264.797.5-2.99 1.898-5.845 4.255-8.1.2-.192.414-.36.623-.54-86.432-52.555-144.184-147.564-144.184-256.157 0-165.534 134.085-299.617 299.62-299.617 165.533 0 299.616 134.082 299.616 299.617.002 123.476-74.646 229.43-181.248 275.315 1.07.9 2.052 1.923 2.93 3.054l-11.588 4.5s-9.083-.57-17.777 12.8C656.32 694.79 747.902 577.215 747.9 438.285c0-170.938-138.68-309.616-309.617-309.616z"
       style="line-height:normal;text-indent:0;text-align:start;text-decoration-line:none;text-decoration-style:solid;text-decoration-color:#000000;text-transform:none;block-progression:tb;isolation:auto;mix-blend-mode:normal"
       color="#000"
       font-family="sans-serif"
       white-space="normal"
       overflow="visible"
       solid-color="#000000"
       fill="#fff"
       id="path40" />
    <path
       d="M547.438 710.22l-11.317 6.735c-9.805 5.836-30.656 10.485-50.954 13.63-20.298 3.147-40.158 4.906-48.42 5.43h-.014c-4.05.297-7.976 4.063-12.31 9.948-4.335 5.885-8.956 14.094-13.504 23.892-.576 1.24-1.15 2.51-1.723 3.8.87.316 1.746.63 2.627.947.54-1.213 1.08-2.407 1.623-3.575 4.495-9.682 9.06-17.763 13.22-23.412 4.162-5.648 8.04-8.658 10.27-8.822 8.38-.53 28.25-2.293 48.656-5.455 16.55-2.565 33.277-5.997 44.76-10.592-6.29 6.91-10.67 14.537-13.635 27.826-2.502 11.214-4.12 26.635-5.41 49.115.928.132 1.847.275 2.777.4 1.29-22.553 2.904-37.933 5.353-48.91 3.682-16.503 9.058-23.392 18.346-32.003zM380.875 876.718c-5.085 25.734-9.635 50.386-11.793 72.18l-.15 1.53h6.295c.11.02 9.364 1.528 18.673 7.243 9.366 5.75 18.588 15.513 18.588 32.484 0 17.04-7.794 23.737-15.693 26.63-7.9 2.896-15.906 1.648-15.906 1.648l-1.968-.313.38 1.952s3.704 19.54 20.358 29.39c8.24 4.876 14.262 5.266 18.248 4.247 1.653-.423 2.873-1.1 3.832-1.75.342 1.647.97 4.05 2.125 7.106 2.31 6.113 6.734 14.968 15.15 26.084.044.1.06.153.163.33.085.145.154.304.447.557.146.127.376.322.838.37.078.01.134-.078.217-.087.082.01.14.096.216.088.463-.05.69-.246.836-.373.292-.253.36-.412.446-.557.105-.18.12-.237.164-.335 8.414-11.114 12.838-19.965 15.148-26.077 1.156-3.058 1.783-5.46 2.125-7.107.96.65 2.178 1.326 3.832 1.75 3.986 1.017 10.005.628 18.246-4.247 16.655-9.852 20.362-29.39 20.362-29.39l.377-1.954-1.965.312s-8.008 1.248-15.906-1.647c-7.898-2.894-15.693-9.59-15.693-26.63 0-16.972 9.223-26.736 18.588-32.485 9.31-5.715 18.562-7.224 18.674-7.242h3.827v-1.393c0-21.106.3-40.06.723-57.363-.93-.017-1.848-.046-2.774-.067-.41 16.957-.703 35.485-.717 56.038h-1.32l-.11.017s-9.874 1.567-19.762 7.637c-9.887 6.07-19.916 16.864-19.916 34.857 0 17.923 8.812 26.055 17.52 29.246 7.045 2.582 12.842 2.16 15.248 1.9-1.05 4.077-5.404 17.973-18.575 25.764-7.792 4.61-12.952 4.76-16.138 3.946-3.187-.814-4.4-2.506-4.4-2.506l-2.305-3.065-.2 3.83s-.13 2.943-2.347 8.81c-2.154 5.698-6.344 14.066-14.207 24.596-7.863-10.53-12.054-18.896-14.207-24.594-2.216-5.867-2.345-8.813-2.345-8.813l-.2-3.83-2.304 3.064s-1.214 1.69-4.4 2.506c-3.188.814-8.348.664-16.14-3.946-13.17-7.79-17.524-21.687-18.574-25.763 2.407.26 8.203.682 15.248-1.9 8.708-3.19 17.52-11.323 17.52-29.246 0-17.993-10.03-28.788-19.917-34.857-9.887-6.07-19.76-7.637-19.76-7.637l-.11-.017h-3.434c2.195-21.252 6.615-45.26 11.562-70.366-.913-.186-1.837-.372-2.74-.56z"
       style="line-height:normal;text-indent:0;text-align:start;text-decoration-line:none;text-decoration-style:solid;text-decoration-color:#000000;text-transform:none;block-progression:tb;isolation:auto;mix-blend-mode:normal"
       color="#000"
       font-family="sans-serif"
       white-space="normal"
       overflow="visible"
       solid-color="#000000"
       fill="#fff"
       id="path42" />
    <path
       d="M533.92 720.363l-11.25 2.237s-24.83 4.934-40.754 7.9c-15.83 2.948-34.867 4.463-34.867 4.463-3.004-.01-9.08 2.19-16.08 14.18-3.662 6.27-7.594 15.278-11.484 28.15.875.3 1.768.595 2.653.893 3.85-12.764 7.713-21.606 11.235-27.64 6.824-11.69 12.28-12.84 13.746-12.802l.075.002.073-.006s19.103-1.51 35.158-4.5c13.482-2.51 28.632-5.528 34.457-6.682-5.127 4.977-9.35 13.445-12.645 25.93-3.012 11.414-5.246 26.257-6.554 45.067.916.158 1.84.31 2.76.462 1.3-18.825 3.526-33.597 6.488-44.818 4.306-16.315 10.176-24.965 16.6-27.974zM398.625 880.186c-8.945 42.9-15.563 61.816-15.563 61.816l-.496 1.416 1.45.39s9.068 2.444 18.162 9.424c9.093 6.98 18.103 18.328 18.103 36.467 0 18.256-6.742 27.7-13.41 32.78-6.67 5.08-13.25 5.704-13.25 5.704l-2.17.207 1.1 1.883s7.22 12.672 19.538 12.672c6.16 0 10.314-3.32 12.77-6.537.51-.666.702-1.197 1.085-1.836.76 7.032 3.373 20.784 13.14 35.844.03.086.04.138.118.305.062.13.096.262.35.538.125.138.328.4.893.474.094.012.136-.093.23-.105.097.012.14.118.233.105.564-.076.77-.336.897-.474.253-.277.285-.41.345-.54.076-.165.088-.213.118-.3 9.768-15.06 12.378-28.813 13.138-35.846.384.64.577 1.17 1.086 1.836 2.458 3.216 6.612 6.537 12.772 6.537 12.32 0 19.537-12.672 19.537-12.672l1.096-1.882-2.17-.206s-6.578-.624-13.246-5.703c-6.667-5.08-13.41-14.524-13.41-32.78 0-18.125 9.298-29.537 18.692-36.585 9.394-7.048 18.77-9.556 18.77-9.556l1.066-.287-.034-1.103s-.6-19.808-.744-50.834c-.932-.034-1.862-.07-2.79-.11.137 29.925.704 49.1.732 50.022-1.473.424-9.658 2.876-18.672 9.64-9.853 7.392-19.805 19.726-19.805 38.81 0 18.955 7.217 29.445 14.508 35 5.57 4.24 10.152 5.333 12.496 5.765-2.244 3.057-8.01 9.695-16.028 9.695-5.18 0-8.438-2.668-10.56-5.443-2.12-2.775-2.93-5.533-2.93-5.533l-2.91-9.995.18 10.41s.23 17.83-12.366 38.02c-12.597-20.19-12.37-38.02-12.37-38.02l.178-10.41-2.908 9.995s-.81 2.758-2.93 5.533c-2.122 2.775-5.38 5.443-10.558 5.443-8.017 0-13.786-6.638-16.03-9.695 2.345-.43 6.93-1.524 12.5-5.766 7.293-5.554 14.51-16.044 14.51-34.998 0-19.07-9.637-31.343-19.193-38.68-8.466-6.497-15.946-8.856-17.77-9.4.796-2.346 6.99-21.107 15.276-60.936-.92-.166-1.842-.33-2.755-.498z"
       style="line-height:normal;text-indent:0;text-align:start;text-decoration-line:none;text-decoration-style:solid;text-decoration-color:#000000;text-transform:none;block-progression:tb;isolation:auto;mix-blend-mode:normal"
       color="#000"
       font-family="sans-serif"
       white-space="normal"
       overflow="visible"
       solid-color="#000000"
       fill="#fff"
       id="path44" />
    <path
       d="M471.47 941.046H403.316s12.735 3.994 19.215 14.977c6.48 10.982 5.14 22.964 5.14 22.964h27.26s-1.34-11.98 5.14-22.964c6.48-10.982 19.217-14.977 19.217-14.977h-7.82z"
       stroke-miterlimit="10"
       fill="none"
       stroke="#fff"
       stroke-width="2.454"
       id="path46" />
    <path
       d="M441.304 946.704H422.31s4.553 3.994 6.564 11.315c2.01 7.32 2.387 14.31 2.387 14.31h20.088s.375-6.99 2.386-14.31c2.01-7.322 6.563-11.316 6.563-11.316h-18.993z"
       stroke-miterlimit="10"
       fill="none"
       stroke="#fff"
       stroke-width="2.454"
       id="path48" />
    <path
       stroke-miterlimit="10"
       fill="none"
       stroke="#fff"
       stroke-width="3.272"
       d="M441.303 1027.987l-13.982-15.13 5.342-24.48h17.283l5.34 24.48z"
       id="path50" />
    <path
       stroke-miterlimit="10"
       fill="none"
       stroke="#fff"
       stroke-width="4.909"
       d="M441.303 1018.948l-8.085-8.748 3.09-14.158h9.993l3.09 14.158z"
       id="path52" />
    <path
       d="M331.986 797.734l-8.064 14.325c3.446.162 7.664.116 12.635.116 15.166 0 13.945 14.642 13.945 14.642s7.5-2.834 7.5-12.75-7.083-16.334-12.5-16.334z"
       fill="#fff"
       id="path54" />
    <circle
       r="5"
       cy="849.529"
       cx="532.279"
       fill="#fff"
       id="circle56" />
    <circle
       r="5"
       cy="838.989"
       cx="440.269"
       fill="#fff"
       id="circle58" />
    <circle
       r="304.618"
       cy="439.284"
       cx="438.284"
       fill="none"
       id="circle60" />
    <path
       d="M154.485 709.463l-1.072 1.073-13.926-13.917 1.073-1.074 1.48 1.48c1.547 1.546 3.384 2.087 5.51 1.622 1.006-.194 2.6-1.384 4.784-3.57l15.947-15.955c3.944-3.945 7.395-6.614 10.353-8.008 2.958-1.393 6.36-1.723 10.21-.988 3.846.734 7.743 3.072 11.688 7.016 4.295 4.29 6.81 8.293 7.545 12.004.736 3.713.312 7.29-1.273 10.732-1.1 2.34-4.02 5.877-8.755 10.616L182.68 725.87c-2.416 2.418-3.668 4.338-3.755 5.758-.086 1.422.615 2.877 2.104 4.365l1.478 1.48-1.073 1.072-17-16.99 1.073-1.073 1.508 1.507c1.625 1.623 3.298 2.27 5.02 1.94 1.18-.212 2.87-1.42 5.073-3.626l17.135-17.146c1.527-1.528 3.137-3.418 4.827-5.67 1.69-2.254 2.72-4.3 3.087-6.136.366-1.838.216-3.805-.452-5.902-.667-2.098-2.007-4.15-4.02-6.162-2.57-2.57-5.433-4.31-8.585-5.218-3.15-.908-5.975-.858-8.47.147-2.492 1.006-5.827 3.598-10.003 7.775l-15.918 15.927c-2.454 2.455-3.72 4.264-3.798 5.424-.096 1.604.6 3.15 2.09 4.64l1.48 1.48zM108.92 656.468l-7.29-13.218 20.112-49.916-28.087 15.486c-2.992 1.65-4.675 3.016-5.048 4.095-.518 1.44-.248 3.12.808 5.034l.93 1.687-1.327.732-9.348-16.954 1.33-.733.95 1.724c1.135 2.06 2.562 3.177 4.283 3.353 1.057.104 2.95-.596 5.68-2.1l41.054-22.637.713 1.293-21.518 53.737 29.99-16.537c2.995-1.65 4.685-3.003 5.07-4.06.504-1.464.234-3.142-.81-5.033l-.95-1.724 1.33-.733 9.347 16.953-1.33.732-.93-1.688c-1.15-2.083-2.584-3.212-4.305-3.388-1.057-.104-2.95.596-5.68 2.102l-33.87 18.674c-.874 2.324-1.372 3.996-1.497 5.018-.123 1.02-.023 2.362.3 4.025.168.814.64 1.928 1.42 3.34l-1.33.733zM108.315 518.813l1.463-.407 6.383 22.96-1.46.405-.528-1.896c-.615-2.213-1.707-3.64-3.276-4.283-1.02-.396-3.135-.15-6.35.745L69.93 545.96c-2.714.754-4.458 1.424-5.23 2.008-.586.447-1.003 1.145-1.25 2.093-.31 1.336-.29 2.636.063 3.9l.527 1.896-1.462.407-6.384-22.96 1.462-.405.538 1.936c.608 2.187 1.697 3.6 3.267 4.243 1.027.424 3.147.19 6.36-.704l34.617-9.625c2.714-.754 4.457-1.424 5.23-2.008.587-.446 1-1.157 1.238-2.132.317-1.308.3-2.595-.05-3.86l-.54-1.935zM44.2 425.812l1.518-.06c.433 1.952 1.12 3.417 2.063 4.392 1.397 1.396 3.497 2.598 6.3 3.608l48.065 17.508.06 1.517-47.083 22.72c-2.416 1.164-3.89 1.976-4.418 2.434-.82.718-1.45 1.584-1.888 2.6-.438 1.017-.692 2.375-.762 4.073l-1.517.06-.9-22.704 1.516-.06c.348 2.558.852 4.207 1.51 4.947.66.74 1.48 1.09 2.464 1.052 1.366-.055 3.473-.768 6.318-2.14l32.02-15.432-32.69-11.838c-3.222-1.158-5.446-1.713-6.676-1.665-.793.032-1.536.458-2.23 1.28-.69.82-1.15 2.18-1.377 4.077-.02.138-.053.372-.095.702l-1.517.06-.68-17.132zM56.247 359.17l21.422 4.944 2.747-11.91c.713-3.09.724-5.263.03-6.518-.905-1.668-2.886-2.94-5.94-3.812l.342-1.48 18.863 4.354-.342 1.48c-2.723-.236-4.5-.253-5.333-.053-1.043.264-1.956.88-2.742 1.85-.784.97-1.438 2.588-1.96 4.852l-2.75 11.91 17.866 4.122c2.398.552 3.882.783 4.45.69.57-.094 1.068-.37 1.497-.834.43-.462.816-1.44 1.16-2.93l2.122-9.193c.705-3.063 1.006-5.337.9-6.822-.107-1.482-.64-3.008-1.597-4.576-1.27-2.033-3.37-4.3-6.303-6.8l.37-1.6 12.508 7.813-9.636 41.764-1.48-.34.444-1.918c.295-1.28.27-2.562-.08-3.85-.23-.95-.735-1.677-1.518-2.18-.782-.502-2.49-1.06-5.13-1.667l-35.21-8.124c-3.437-.792-5.635-.935-6.594-.426-1.286.713-2.188 2.19-2.705 4.427l-.443 1.92-1.48-.342 9.637-41.764 12.01 2.14-.36 1.558c-2.98-.098-5.082.07-6.305.503-1.223.434-2.268 1.252-3.135 2.455-.646.974-1.278 2.806-1.9 5.497l-3.428 14.864zM153.58 255.48l-6.975 13.108-31.8 4.4c-.606 1.258-1.116 2.272-1.527 3.044-.167.314-.353.65-.558 1.005-.205.356-.422.72-.65 1.093l14.264 7.593c3.09 1.645 5.19 2.328 6.297 2.05 1.552-.35 2.814-1.444 3.79-3.28l1.022-1.918 1.34.713-11.196 21.037-1.34-.713.982-1.846c1.104-2.076 1.22-3.92.343-5.533-.477-.905-2.116-2.103-4.917-3.593l-31.717-16.88c-3.09-1.645-5.188-2.328-6.296-2.05-1.563.375-2.84 1.493-3.83 3.352l-.98 1.847-1.34-.715 9.52-17.886c2.774-5.215 5.2-8.856 7.277-10.926 2.077-2.07 4.595-3.424 7.553-4.064 2.96-.64 5.85-.21 8.674 1.294 3.018 1.606 5.112 3.983 6.286 7.133 1.174 3.15 1.12 7.03-.16 11.647l19.48-2.642c4.47-.596 7.677-1.444 9.626-2.544 1.948-1.1 3.78-2.913 5.496-5.438l1.34.71zm-43.792 21.437c.244-.458.462-.853.654-1.185.19-.33.346-.606.46-.823 2.493-4.684 3.358-8.754 2.596-12.21-.762-3.457-2.712-6.02-5.85-7.69-3.065-1.632-6.068-2-9.01-1.102-2.94.897-5.25 2.928-6.934 6.09-.745 1.4-1.524 3.417-2.338 6.05l20.422 10.87zM157.668 161.58l14.18 13-1.026 1.118c-3.054-2.132-5.815-3.468-8.288-4.01-2.47-.54-4.976-.378-7.512.487-2.536.865-4.655 2.225-6.354 4.078-1.922 2.097-2.87 4.417-2.848 6.96.023 2.545.852 4.564 2.484 6.062 1.25 1.146 2.785 1.757 4.607 1.832 2.658.136 7.4-.988 14.225-3.376 5.566-1.943 9.54-3.112 11.924-3.507 2.382-.394 4.666-.284 6.85.327 2.185.61 4.093 1.665 5.726 3.162 3.104 2.846 4.676 6.503 4.715 10.972.04 4.47-1.677 8.598-5.15 12.388-1.09 1.19-2.207 2.225-3.35 3.106-.674.532-2.228 1.49-4.664 2.873-2.437 1.384-3.896 2.338-4.376 2.86-.462.505-.676 1.042-.642 1.61.035.57.46 1.36 1.28 2.37l-1.026 1.118-14.06-12.89 1.026-1.117c3.423 2.175 6.27 3.488 8.546 3.94 2.274.453 4.73.21 7.37-.727 2.64-.938 4.958-2.494 6.954-4.67 2.31-2.52 3.47-5.12 3.48-7.802.008-2.68-.894-4.852-2.708-6.515-1.008-.924-2.28-1.58-3.815-1.968-1.536-.388-3.283-.403-5.242-.048-1.325.23-4.578 1.2-9.76 2.904-5.18 1.706-9.032 2.764-11.56 3.173-2.527.41-4.848.352-6.96-.177-2.113-.526-4.017-1.567-5.71-3.12-2.942-2.697-4.442-6.148-4.5-10.356-.057-4.206 1.514-8.053 4.71-11.54 1.996-2.177 4.646-3.995 7.95-5.455 1.538-.667 2.52-1.232 2.945-1.696.48-.523.717-1.095.71-1.715-.008-.62-.394-1.464-1.156-2.534l1.026-1.115zM251.028 156.24l.882 1.235-19.39 13.854-.882-1.236 1.603-1.145c1.87-1.336 2.837-2.85 2.903-4.545.025-1.094-.932-2.997-2.87-5.712l-20.89-29.233c-1.637-2.292-2.862-3.7-3.676-4.23-.62-.396-1.418-.55-2.394-.457-1.36.166-2.575.63-3.643 1.393l-1.603 1.145-.882-1.233 19.39-13.854.882 1.234-1.636 1.168c-1.846 1.32-2.802 2.827-2.868 4.52-.048 1.11.898 3.022 2.838 5.737l20.888 29.233c1.638 2.292 2.863 3.7 3.677 4.23.62.396 1.43.54 2.428.433 1.338-.15 2.54-.605 3.608-1.37l1.638-1.167zM305.125 68.478l5.687 11.754-1.434.612c-1.18-1.994-2.2-3.343-3.064-4.044-1.4-1.126-2.898-1.758-4.488-1.897-1.59-.14-3.442.243-5.555 1.145l-7.204 3.075 16.68 39.08c1.342 3.146 2.52 4.962 3.53 5.45 1.406.65 3.104.55 5.09-.298l1.773-.757.595 1.396-21.69 9.258-.597-1.396 1.81-.773c2.164-.923 3.42-2.23 3.767-3.926.21-1.04-.297-2.994-1.52-5.86l-16.682-39.083-6.148 2.625c-2.39 1.02-4.012 1.92-4.867 2.7-1.104 1.036-1.832 2.432-2.183 4.187-.35 1.756-.12 3.828.69 6.217l-1.433.61-4.517-12.254 41.76-17.822zM395.045 48.287l19.227-2.59.202 1.505-1.057.143c-.705.095-1.692.546-2.963 1.35-1.27.808-2.384 1.868-3.338 3.183-.955 1.314-2.067 3.396-3.34 6.243l-10.474 22.725 1.86 13.82c.456 3.388 1.12 5.45 1.992 6.188 1.183 1 2.885 1.35 5.107 1.05l1.79-.24.202 1.504-23.414 3.152-.202-1.505 1.95-.263c2.33-.313 3.89-1.24 4.676-2.78.48-.948.51-2.967.095-6.057L385.6 82.667l-18.23-21.053c-2.152-2.47-3.594-4-4.32-4.592-.73-.59-2.16-1.227-4.292-1.905-.58-.197-1.383-.228-2.413-.09l-.202-1.503 23.576-3.174.202 1.504-1.22.164c-1.274.17-2.406.628-3.396 1.367-.99.74-1.405 1.707-1.245 2.9.133.975 1.196 2.625 3.192 4.95L391.15 77.45l8.524-18.446c1.283-2.767 1.84-4.772 1.673-6.02-.102-.76-.39-1.41-.863-1.953-.473-.542-1.098-.934-1.875-1.175-.778-.24-1.898-.262-3.362-.064l-.203-1.503zM469.792 70.632c1.28.108 2.318.643 3.117 1.602.795.96 1.14 2.066 1.035 3.32-.106 1.252-.64 2.284-1.6 3.095-.96.81-2.067 1.162-3.32 1.056-1.254-.105-2.286-.64-3.097-1.6-.81-.96-1.162-2.066-1.057-3.32.106-1.253.64-2.285 1.6-3.096.96-.81 2.068-1.164 3.322-1.058zM557.42 63.112c6.885 2.17 12.025 6.667 15.424 13.486 3.396 6.82 3.86 14.142 1.395 21.965-2.543 8.058-7.195 13.945-13.958 17.66-6.764 3.717-13.757 4.436-20.98 2.158-7.3-2.303-12.617-6.832-15.948-13.588-3.33-6.756-3.697-14.255-1.1-22.495 2.657-8.423 7.693-14.39 15.108-17.9 6.435-3.044 13.123-3.473 20.06-1.285zm-1.642 2.62c-4.746-1.496-9.11-.937-13.088 1.68-4.955 3.253-8.764 9.105-11.428 17.555-2.73 8.658-2.98 15.904-.75 21.74 1.723 4.442 4.92 7.4 9.588 8.872 4.98 1.57 9.707.926 14.18-1.937 4.47-2.86 8.027-8.48 10.668-16.85 2.86-9.074 3.21-16.405 1.043-21.99-1.75-4.45-5.154-7.475-10.212-9.07zM642.588 106.737l-11.75 18.435 8.543 5.445c1.96 1.25 3.672 1.732 5.134 1.448 1.462-.284 3.158-1.61 5.09-3.98l1.28.816-10.12 15.876-1.28-.815c1.14-1.835 1.755-3.323 1.85-4.463.094-1.14-.12-2.176-.644-3.11-.524-.934-1.57-1.9-3.14-2.9l-8.542-5.444-9.39 14.734c-1.515 2.375-2.364 4.038-2.55 4.99-.137.724.03 1.527.505 2.413.66 1.2 1.546 2.153 2.653 2.858l1.694 1.08-.815 1.28-20.13-12.83.815-1.28 1.66 1.058c1.938 1.234 3.703 1.566 5.3.995 1.024-.384 2.433-1.983 4.226-4.797l19.312-30.298c1.514-2.375 2.363-4.04 2.55-4.99.135-.724-.022-1.52-.47-2.392-.64-1.186-1.524-2.14-2.654-2.858l-1.66-1.058.815-1.28 34.897 22.244-6.12 10.595-1.21-.77c.796-2.573 1.124-4.626.982-6.16-.143-1.532-.65-2.9-1.52-4.104-.87-1.202-2.527-2.583-4.972-4.14l-10.34-6.593zM694.532 172.408c.926.89 1.396 1.958 1.414 3.205.015 1.247-.414 2.325-1.284 3.23-.872.908-1.937 1.375-3.192 1.4-1.255.025-2.338-.398-3.245-1.27-.907-.87-1.374-1.935-1.4-3.19-.024-1.257.4-2.34 1.27-3.246.873-.907 1.936-1.374 3.192-1.4 1.255-.024 2.337.4 3.245 1.27zM767.333 221.594c3.992 6.014 5.17 12.74 3.53 20.18-1.642 7.442-5.878 13.43-12.712 17.97-7.038 4.673-14.356 6.332-21.952 4.976-7.597-1.356-13.49-5.19-17.68-11.5-4.235-6.377-5.527-13.24-3.875-20.59 1.65-7.35 6.076-13.415 13.273-18.194 7.357-4.886 15.024-6.366 23-4.44 6.92 1.672 12.393 5.538 16.417 11.598zm-2.926 1.007c-2.753-4.145-6.5-6.45-11.238-6.913-5.9-.58-12.54 1.58-19.92 6.48-7.563 5.023-12.31 10.505-14.238 16.447-1.45 4.54-.82 8.85 1.888 12.926 2.89 4.35 6.972 6.818 12.25 7.4 5.276.582 11.57-1.555 18.883-6.41 7.928-5.264 12.803-10.75 14.625-16.457 1.432-4.562.683-9.053-2.25-13.472zM791.215 333.225l-13.438 16.695c-3.713 4.624-5.952 7.894-6.715 9.808-.764 1.914-.845 4.065-.242 6.456l-1.448.452-7.11-22.788 1.45-.452c.497 1.506 1.004 2.58 1.52 3.22.406.476.905.814 1.498 1.016.593.202 1.138.225 1.634.07.6-.187 1.163-.492 1.69-.914.387-.32 1.312-1.397 2.774-3.23l10.816-13.255-17.723-6.673c-1.88-.703-3.11-1.092-3.692-1.168-.582-.076-1.147-.028-1.695.143-.836.26-1.418.83-1.746 1.705-.328.875-.223 2.317.318 4.326l-1.448.452-5.876-18.833 1.45-.452c.545 1.29 1.178 2.354 1.896 3.19 1.184 1.406 2.578 2.66 4.183 3.764 1.604 1.103 3.887 2.225 6.85 3.363l19.727 7.594 12.047-15.23c3.264-4.14 5.23-7.404 5.904-9.79.673-2.388.646-4.886-.082-7.494l1.45-.452 7.657 24.55-1.448.452c-.73-2.064-1.516-3.387-2.356-3.97-.84-.583-1.627-.76-2.357-.532-.966.3-2.18 1.368-3.643 3.2l-9.636 11.942 14.886 5.71c1.75.657 2.927 1.027 3.526 1.113.6.085 1.174.042 1.722-.13.548-.17.98-.478 1.302-.92.426-.564.656-1.18.69-1.85.034-.67-.228-1.947-.788-3.835l1.45-.452 5.874 18.833-1.448.45c-.542-1.462-1.156-2.603-1.84-3.42-1.042-1.222-2.253-2.262-3.638-3.12-1.385-.856-3.78-1.928-7.19-3.213l-16.755-6.332zM827.895 416.806l-21.844.9.42 10.124c.095 2.322.678 4 1.747 5.04 1.068 1.036 3.127 1.67 6.174 1.9l.064 1.515-18.81.776-.063-1.515c2.158-.117 3.73-.462 4.72-1.037.99-.574 1.717-1.343 2.184-2.307.467-.963.662-2.373.586-4.23l-.418-10.123-17.46.72c-2.812.117-4.663.37-5.55.764-.672.302-1.235.9-1.69 1.795-.606 1.23-.883 2.5-.83 3.81l.085 2.01-1.517.062-.985-23.85 1.518-.064.08 1.967c.096 2.295.833 3.934 2.215 4.917.9.62 3.018.86 6.352.723l35.9-1.48c2.812-.117 4.663-.372 5.55-.764.672-.3 1.236-.886 1.693-1.753.606-1.202.883-2.472.827-3.81l-.08-1.968 1.516-.063 1.707 41.35-12.19 1.037-.06-1.435c2.566-.818 4.438-1.723 5.615-2.715 1.176-.993 2.01-2.19 2.5-3.592.488-1.403.674-3.552.555-6.448l-.508-12.254zM823.38 525.237c-1.56 7.048-5.59 12.563-12.085 16.543-6.496 3.98-13.748 5.084-21.758 3.312-8.25-1.827-14.52-5.946-18.814-12.357-4.294-6.412-5.622-13.315-3.984-20.71 1.653-7.475 5.7-13.167 12.14-17.077 6.438-3.91 13.875-4.93 22.313-3.063 8.623 1.91 15.008 6.403 19.153 13.482 3.596 6.145 4.608 12.768 3.035 19.87zm-2.754-1.408c1.076-4.86.137-9.157-2.817-12.89-3.676-4.652-9.84-7.934-18.49-9.85-8.862-1.962-16.103-1.577-21.72 1.157-4.276 2.105-6.943 5.548-8 10.328-1.13 5.1-.074 9.75 3.17 13.955 3.24 4.205 9.146 7.256 17.717 9.153 9.29 2.057 16.623 1.762 21.998-.885 4.28-2.134 6.995-5.79 8.14-10.97zM721.903 624.753l7.053-13.066 31.826-4.215c.613-1.253 1.13-2.264 1.545-3.034.168-.313.355-.646.563-1 .208-.356.427-.72.658-1.09l-14.22-7.676c-3.08-1.663-5.175-2.36-6.284-2.087-1.553.343-2.822 1.43-3.81 3.257l-1.032 1.913-1.336-.72 11.32-20.97 1.334.72-.993 1.84c-1.116 2.07-1.242 3.914-.375 5.532.473.908 2.104 2.115 4.896 3.622l31.617 17.066c3.08 1.663 5.175 2.358 6.284 2.086 1.564-.366 2.848-1.476 3.848-3.33l.993-1.84 1.337.72-9.625 17.83c-2.805 5.198-5.252 8.825-7.342 10.884-2.09 2.057-4.615 3.396-7.577 4.02-2.962.622-5.85.174-8.665-1.346-3.01-1.623-5.09-4.014-6.245-7.17-1.155-3.156-1.08-7.037.228-11.645l-19.494 2.526c-4.472.57-7.685 1.4-9.64 2.488-1.955 1.09-3.797 2.89-5.527 5.406l-1.337-.72zm43.92-21.178c-.248.457-.47.85-.662 1.18-.193.33-.35.605-.466.82-2.52 4.67-3.408 8.733-2.666 12.195.742 3.46 2.676 6.035 5.805 7.725 3.055 1.648 6.057 2.033 9.002 1.153 2.945-.88 5.27-2.897 6.97-6.05.754-1.395 1.545-3.407 2.374-6.035l-20.358-10.988zM700.893 653.433l1.09 1.056-1.455 1.502c-1.636 1.688-2.257 3.41-1.86 5.163.23 1.06 1.472 2.684 3.73 4.872l25.806 25c2.494 2.416 4.322 3.654 5.482 3.713 1.606.072 3.143-.648 4.607-2.16l1.455-1.503 1.09 1.056-15.754 16.262c-5.783 5.97-10.86 9.854-15.23 11.654-4.37 1.8-9.057 2.114-14.055.946-5-1.168-9.57-3.76-13.713-7.773-5.558-5.385-8.565-11.574-9.024-18.566-.492-7.824 3.02-15.614 10.535-23.37l17.295-17.854zm-8.157 14.197c-2.966 1.96-5.267 3.785-6.903 5.475-4.414 4.557-6.477 9.888-6.187 15.994.29 6.104 3.175 11.812 8.653 17.12 5.52 5.346 11.323 8.06 17.416 8.137 6.093.076 11.422-2.24 15.988-6.954 1.712-1.768 3.378-4.058 4.996-6.866l-33.964-32.907z"
       fill="#fff"
       id="path62" />
    <path
       d="M306.21 710.98c-.24.628-.51 1.25-.84 1.848 12.492 5.036 36.974 13.45 63.804 14.703l-80.307 142.66c-7.425-13.036-22.643-27.313-36.328-38.598-6.4-5.277-12.28-9.757-16.876-13.145-.037.11-.067.223-.107.334-.2.558-.44 1.088-.7 1.605 4.6 3.398 10.298 7.75 16.39 12.773 14.145 11.663 29.994 26.66 36.75 39.528l.866 1.652 83.674-148.64-1.668-.06c-26.732-.942-51.732-9.468-64.66-14.66z"
       style="line-height:normal;text-indent:0;text-align:start;text-decoration-line:none;text-decoration-style:solid;text-decoration-color:#000000;text-transform:none;block-progression:tb;isolation:auto;mix-blend-mode:normal"
       color="#000"
       font-family="sans-serif"
       white-space="normal"
       overflow="visible"
       solid-color="#000000"
       fill="#fff"
       id="path64" />
    <path
       d="M351.688 762.734l-5.014 8.907c51.327 21.295 159.467 59.9 250.24 50.63 61-6.228 95.976-15.505 114.777-25.602 9.402-5.048 15.104-10.364 17.17-16.707 2.07-6.342-.758-12.84-5.41-16.935l-6.606 7.506c2.73 2.405 3.296 3.92 2.51 6.33-.787 2.413-4.187 6.59-12.395 10.997-16.418 8.817-50.694 18.302-111.062 24.467-86.668 8.85-192.94-28.62-244.21-49.59z"
       style="line-height:normal;text-indent:0;text-align:start;text-decoration-line:none;text-decoration-style:solid;text-decoration-color:#000000;text-transform:none;block-progression:tb;isolation:auto;mix-blend-mode:normal"
       color="#000"
       font-family="sans-serif"
       white-space="normal"
       overflow="visible"
       solid-color="#000000"
       fill="#fff"
       id="path66" />
    <path
       d="M304.31 846.9l-4.492 7.98c34.575 11.74 125.518 38.528 231.868 36.825h.062l.063-.004c102.06-4.53 123.518-37.446 123.426-43.143l-7.34 3.1-1.23.862c-.898 0-20.817 25.99-115.19 30.19-103.48 1.643-192.125-24.03-227.167-35.81z"
       fill="#fff"
       id="path68" />
    <path
       d="M357.7 752.05l-1.503 2.675c40.832 19.657 124.56 53.4 215.918 51.937 64.11-1.026 101.68-9.186 123.426-18.064 10.874-4.44 17.79-9.06 22.073-13.1.965-.91 1.758-1.77 2.473-2.607-2.114 12.912-9.205 25.735-19.498 37.58-12.24 14.082-28.875 26.74-46.397 36.456-34.97 19.393-77.408 25.454-118.333 26.11-95.973 1.536-175.973-18.778-226.01-35.97l-1.443 2.56c50.686 17.425 131.358 37.947 227.5 36.407 41.187-.66 84.102-6.72 119.74-26.484 17.784-9.863 34.67-22.686 47.208-37.113 12.508-14.392 20.725-30.42 20.937-46.726v-.01c0-.036.006-.07.007-.106l-2.994-.14c-.087 1.058-1.31 4.148-5.248 7.862-3.938 3.715-10.537 8.172-21.147 12.504-21.22 8.664-58.467 16.82-122.34 17.844-90.037 1.442-173.245-31.904-214.367-51.613zM220.682 751.38l-4.522 48.766c-3.762 1.518-6.93 4.496-8.412 8.606-2.762 7.664 1.23 16.157 8.89 18.92 7.662 2.762 16.156-1.228 18.92-8.89 1.83-5.084.615-10.473-2.597-14.366l8.57-40.115-2.792-1.73-9.107 42.633.552.59c2.896 3.102 4.007 7.66 2.464 11.94-2.195 6.09-8.87 9.224-14.958 7.03-6.09-2.197-9.224-8.87-7.03-14.96v-.002c1.283-3.552 4.097-6.08 7.434-7.15l.972-.312 4.557-49.137z"
       style="line-height:normal;text-indent:0;text-align:start;text-decoration-line:none;text-decoration-style:solid;text-decoration-color:#000000;text-transform:none;block-progression:tb;isolation:auto;mix-blend-mode:normal"
       color="#000"
       font-family="sans-serif"
       white-space="normal"
       overflow="visible"
       solid-color="#000000"
       fill="#fff"
       id="path70" />
    <path
       d="M217.805 724.44c-4.144-.096-8.015 1.69-10.14 5.12-3.402 5.487-1.047 13.105 5.257 17.012l32.69 20.258c6.305 3.908 14.174 2.628 17.576-2.86 3.4-5.49 1.048-13.11-5.256-17.015l-32.694-20.26c-2.364-1.464-4.947-2.198-7.433-2.256zm-1.385 6.46c2.483-.017 5.38.817 8.105 2.506l28.264 17.516c5.45 3.377 8.145 8.898 6.02 12.33-2.128 3.433-8.27 3.477-13.72.098l-28.266-17.516c-5.45-3.378-8.146-8.9-6.02-12.33 1.064-1.717 3.133-2.586 5.616-2.604z"
       fill="#fff"
       id="path72" />
    <path
       d="M292.77 690.898c-3.785-.084-7.602 1.27-10.545 4.084-3.16 3.022-4.597 7.125-4.46 11.18l-45.052 25.166 3.008 1.863 45.22-25.262-.108-1.016c-.37-3.486.8-7.08 3.53-9.693 2.34-2.238 5.352-3.316 8.34-3.25 2.986.067 5.948 1.28 8.185 3.618 4.474 4.677 4.31 12.05-.367 16.52-3.287 3.145-7.906 3.976-11.916 2.585l-.762-.263-36.48 26.455 2.843 1.76 34.266-24.85c4.863 1.36 10.282.284 14.186-3.45 5.885-5.63 6.095-15.01.465-20.896-2.813-2.944-6.566-4.467-10.35-4.552z"
       style="line-height:normal;text-indent:0;text-align:start;text-decoration-line:none;text-decoration-style:solid;text-decoration-color:#000000;text-transform:none;block-progression:tb;isolation:auto;mix-blend-mode:normal"
       color="#000"
       font-family="sans-serif"
       white-space="normal"
       overflow="visible"
       solid-color="#000000"
       fill="#fff"
       id="path74" />
    <path
       d="M545.564 709.322c-16.054-.378-37.086 21.156-40.296 89.477 3.213.5 6.447.97 9.705 1.403 3.646-80.94 33.02-79.05 33.02-79.05l11.59-4.5c-3.417-4.4-8.413-7.2-14.02-7.33zm-103.728 18.883c-8.32-.28-21.378 9.087-33.145 45.268 2.557.932 5.17 1.86 7.822 2.785 11.066-35.588 20-38.615 23.35-37.408l10.546-3.026c0-3.487-3.353-7.444-8.572-7.62zM382.81 877.113c-12.06 48.114-21.224 81.85-21.224 81.85.08.013 22.082 1.52 30.715 6.894 9.87 6.14 14.876 14.315 14.876 24.3 0 7.71-2.16 12.632-7.008 15.958-5.07 3.48-11.532 4-14.932 4-2.32 0-3.854-.23-3.87-.234l-9.876-1.515 2.735 14.207c.187.967 4.794 23.81 23.668 34.975 5.855 3.463 11.302 5.22 16.193 5.22 1.775 0 3.36-.236 4.766-.61 2.53 7.094 7.324 16.98 16.416 29.09 1.384 2.414 5.408 7.136 5.408 7.136s4.02-4.723 5.406-7.137c9.09-12.108 13.885-21.995 16.416-29.09 1.403.375 2.99.61 4.766.61 4.892 0 10.34-1.756 16.193-5.22 18.874-11.164 23.482-34.007 23.67-34.974l2.758-14.275-9.914 1.586s-1.537.232-3.855.232c-3.4 0-9.86-.522-14.93-4-4.847-3.325-7.01-8.25-7.01-15.96 0-9.982 5.007-18.158 14.876-24.298 8.635-5.372 30.65-6.88 30.74-6.896 0 0-2.523-21.164-4.054-67.228-3.833-.038-7.645-.105-11.43-.212.33 40.63 1.673 57.515 1.673 57.515s-38.507 6.156-38.507 41.12c0 26.817 19.535 29.943 28.642 29.943 2.767 0 4.57-.29 4.57-.29s-3.667 18.973-19.7 28.458c-5.783 3.42-10.303 4.513-13.72 4.513-6.056 0-8.644-3.438-8.644-3.438s-.67 12.928-17.472 35.076c0 0-.246.607-.414.607-.02 0-.04-.01-.058-.03-.018.02-.038.03-.06.03-.166 0-.415-.607-.415-.607-16.8-22.148-17.47-35.076-17.47-35.076s-2.584 3.437-8.642 3.437c-3.417 0-7.94-1.094-13.72-4.514-16.035-9.485-19.702-28.457-19.702-28.457s1.802.288 4.57.288c9.106 0 28.645-3.128 28.645-29.942 0-34.965-38.505-41.12-38.505-41.12s7.404-30.186 16.71-70.08c-3.143-.606-6.24-1.22-9.276-1.843z"
       fill="#fff"
       id="path76" />
  </g>
  <g
     id="g78">
    <path
       style="line-height:normal;text-indent:0;text-align:start;text-decoration-line:none;text-decoration-style:solid;text-decoration-color:#000000;text-transform:none;block-progression:tb;isolation:auto;mix-blend-mode:normal"
       d="M849.274 302.237c-2.47.004-4.964.097-7.475.277-26.78 1.925-55.73 13.712-80.852 34.79-25.12 21.08-41.758 47.547-48.303 73.583-6.203 24.676-3.263 49.166 10.53 67.713l-122.5 102.79 4.945 5.892 122.5-102.79c15.872 16.8 39.478 23.948 64.85 22.124 26.78-1.925 55.734-13.712 80.855-34.79 25.12-21.08 41.755-47.546 48.3-73.583 6.546-26.037 2.916-51.876-12.91-70.736-14.342-17.093-36.064-25.312-59.94-25.27zm.008 7.684c22.06-.06 41.374 7.432 54.043 22.53 13.98 16.66 17.438 39.683 11.345 63.918-6.092 24.235-21.82 49.454-45.79 69.566-23.968 20.113-51.535 31.222-76.46 33.014-24.924 1.792-46.997-5.61-60.976-22.272-13.98-16.66-17.437-39.68-11.344-63.914 6.092-24.235 21.822-49.453 45.79-69.566 23.97-20.113 51.537-31.222 76.462-33.014 2.337-.168 4.647-.255 6.93-.26zM600.674 581.39L561 602.965 431.395 711.72l16.476 19.636 129.61-108.752-.003-.002 28.14-35.32-4.943-5.893z"
       color="#000"
       font-family="sans-serif"
       white-space="normal"
       overflow="visible"
       solid-color="#000000"
       fill="#fff"
       id="path80" />
    <g
       fill="none"
       stroke="#fff"
       stroke-width=".5"
       id="g82">
      <path
         d="M726.665 474.037l174.897-146.55M717.6 463.234l174.9-146.55M716.39 445.836L877.545 310.83M717.14 426.786l141.527-118.51M719.85 406.083l117.98-98.708M735.73 484.838l174.897-146.55M744.793 495.64L919.69 349.09M759.746 501.494L920.9 366.49M782.55 500.75l137.603-115.21M801.425 503.302l117.98-98.708M718.75 403.658l81.266 96.85M732.737 376.454l96.717 115.262M748.92 351.864l107.84 128.52M771.817 335.278l105.78 126.065M796.613 320.954L896.11 439.53M823.638 309.286l87.962 104.83M859.222 307.82l60.667 72.3M725.23 389.644L816.488 498.4M715.03 421.36l69.215 82.49M741.59 365.264L842.53 485.56M760.574 344.016L867.59 471.553M783.175 327.076l105.266 125.45M809.723 314.84l94.554 112.684M839.567 306.532l77.353 92.185"
         stroke-width="1.282"
         id="path84" />
    </g>
  </g>
</svg>
