<!DOCTYPE svg PUBLIC "-//W3C//DTD SVG 1.1//EN" "http://www.w3.org/Graphics/SVG/1.1/DTD/svg11.dtd" [
	<!ENTITY ns_flows "http://ns.adobe.com/Flows/1.0/">
]><svg xmlns="http://www.w3.org/2000/svg" xmlns:xlink="http://www.w3.org/1999/xlink" width="524" height="659" viewBox="0 0 524 659"><linearGradient id="a" gradientUnits="userSpaceOnUse" x1="37.789" y1="515.304" x2="92.683" y2="536.376"><stop offset="0" stop-color="#8B5E3C"/><stop offset=".497" stop-color="#FDC060"/></linearGradient><linearGradient id="b" gradientUnits="userSpaceOnUse" x1="430.929" y1="536.376" x2="485.824" y2="515.304"><stop offset=".503" stop-color="#FDC060"/><stop offset="1" stop-color="#8B5E3C"/></linearGradient><linearGradient id="c" gradientUnits="userSpaceOnUse" x1="1.5" y1="461.128" x2="107.092" y2="461.128"><stop offset="0" stop-color="#BCBEC0"/><stop offset=".333" stop-color="#E6E7E8"/></linearGradient><linearGradient id="d" gradientUnits="userSpaceOnUse" x1="416.52" y1="461.128" x2="522.112" y2="461.128"><stop offset=".632" stop-color="#E6E7E8"/><stop offset=".687" stop-color="#DBDCDD"/><stop offset=".793" stop-color="#CACBCD"/><stop offset=".898" stop-color="#BFC1C3"/><stop offset="1" stop-color="#BCBEC0"/></linearGradient><defs><path id="e" d="M261.113 3.5H10.093v258.714c0 161.08 140 299 251.713 341 118.286-39 251.714-175.92 251.714-337V3.5H261.113z"/></defs><use xlink:href="#e" overflow="visible" fill="#ED1C24"/><clipPath id="f"><use xlink:href="#e" overflow="visible"/></clipPath><g clip-path="url(#f)"><defs><path id="g" d="M261.22 49.48H48.69V268.52c0 136.382 118.53 253.152 213.116 288.713 100.15-33.02 213.117-148.945 213.117-285.326V49.48H261.22z"/></defs><use xlink:href="#g" overflow="visible" fill="#FFF"/><clipPath id="h"><use xlink:href="#g" overflow="visible"/></clipPath><g clip-path="url(#h)"><defs><path id="i" d="M261.324 94.628H86.59v180.09c0 112.126 97.452 208.13 175.216 237.368 82.34-27.147 175.217-122.457 175.217-234.584V94.628h-175.7z"/></defs><use xlink:href="#i" overflow="visible" fill="#ED1C24"/></g></g><path clip-path="url(#f)" fill="#2E3192" d="M10.092 3.5h251.714v599.714H10.092z"/><g clip-path="url(#f)"><path fill="#FFF" d="M90.097 356.542s-7.047-9.527-6.93-14.683c.04-1.603 1.103-2.23 1.46-3.71.424-1.756.59-3.61-.063-5.12-1.034-2.395-3.778-1.814-5.47-1.16-2.257.87-6.08 6.89-6.08 6.89l-.95 9.926 7.89 12.595 10.143-4.738z"/><path fill="none" stroke="#010101" stroke-width="3" d="M90.097 356.542s-7.047-9.527-6.93-14.683c.04-1.603 1.103-2.23 1.46-3.71.424-1.756.59-3.61-.063-5.12-1.034-2.395-3.778-1.814-5.47-1.16-2.257.87-6.08 6.89-6.08 6.89l-.95 9.926 7.89 12.595 10.143-4.738z"/><path fill="#FFF" d="M172.408 384.275s-23.604-7.064-33.83-6.753c-2.44.075-5.903.065-8.054 2.104-1.885 1.788-3.764 6.016-4.733 9.345-1.074 3.696-2.666 9.726-1.685 13.468.896 3.42 6.327 5.968 6.327 5.968s-5.208 2.77-7.334 1.71c-1.57-.786-3.3-3.662-4.18-6.05-.66-1.796-1.066-6.875-1.066-6.875s-2.087 3.527-3.367 3.985c-1.704.608-5.387-.604-5.387-.604s1.65-2.498 2.27-3.58c1.055-1.847 2.057-4.43 2.433-6.943.23-1.52-.732-5.055-.732-5.055s-.506 3.094-.902 4.27c-.848 2.52-2.275 5.694-3.64 7.397-.77.957-2.308.786-2.924 2.035-.825 1.674-1.416 2.446-1.144 4.59.208 1.636.517 3.766 1.417 4.36.588.39 1.905 1.44 2.47.945.472-.414 1.636-1.104 1.636-1.104s-.714 3.18-1.98 5.045c-.687 1.012-1.828 1.105-2.44 1.31-.318.106-1.553.896-2.796-.423-1.208-1.283-2.21-3.586-2.38-4.043 0 0-1.75-3.63-2.044-5.538-.45-2.93-.214-7.192.27-10.12.272-1.63 1.375-3.28 1.604-4.932.188-1.367-.352-3.322-.123-4.67.253-1.494.213-1.424.213-1.424s.45 1.193-.35 3.392c-.888 2.436-3.354 8.662-3.354 8.662l-2.194-5.67-.26-5.72s-.107-1.927.226-2.345c.356-.443 1.035.73 1.436.418.99-.77.902-4.272.902-4.272s-.037 3.446-1.046 4.22c-.366.282-1.018-.78-1.32-.318-1.093 1.67-.35 4.486.03 8.397.277 2.844 1.055 5.67.538 7.375-.466 1.54-2.938 2.755-2.938 2.755l-7.342-4.602s-2.187-3.714-2.37-5.84c-.297-3.433.944-12.348.944-12.348l-.513-.2-3.188 5.258s.06 7.93-1.403 9.276c-1.042.957-3.67-2.3-3.67-2.3l-6.615-10.676s-.356-4.21.104-5.74c.695-2.32 4.014-5.225 4.014-5.225l-3.246-3.002s-4.122 3.644-5.823 2.638c-.83-.49-1.438-2.617-1.783-4.02-.667-2.71-.856-9.728-.856-9.728l6.28-16.622s2.34-.473 3.085.48c1.58 2.02 2.493 10.514 2.493 10.514s5.91 5.913 8.753 6.452c3.012.573 6.93-2.85 9.957-3.19 2.04-.23 4.82-.255 6.795.63.722.325 1.66 1.062 2.234 1.885 1.22 1.743 2.42 4.888 3.17 7.31.722 2.33.838 6.146 1.706 8.324.448 1.13 2.01 2.953 2.01 2.953s-2.858-8.04-3.916-11.646c-1.305-4.445-2.147-11.22-3.852-15.232-.52-1.226-1.872-1.912-2.21-3.32-.64-2.678-.334-7.04.382-9.68.112-.414.63-.594.637-1.05.03-1.675-1.754-2.556-2.197-4.037-.99-3.327-1.57-8.51-1.43-12.266.125-3.263.67-8.078 2.044-10.328 1.087-1.782 3.298-2.344 4.785-2.322 2.115.03 6.743 3.5 6.743 3.5s-3.55.86-4.786 2.323c-.884 1.045-1.96 3.114-2.15 4.94-.107 1.006.275 2.364.56 3.253 1.227 3.848 5.576 10.994 5.576 10.994s5.337-2.53 7.684-2.923c2.958-.498 6.966-.426 9.894.394 1.584.445 3.628 1.652 5.106 2.718 1.784 1.287 3.755 4.938 5.68 5.254 1.17.192 2.66-1.224 3.75-2.004 1.182-.845 2.86-1.882 3.774-3.44.828-1.408 34.154-20.1 24.736-31.376l-19.64-23.512 30.095 32.82 13.663 36.5-19.23 42.9z"/><path fill="none" stroke="#010101" stroke-width="3" d="M172.408 384.275s-23.604-7.064-33.83-6.753c-2.44.075-5.903.065-8.054 2.104-1.885 1.788-3.764 6.016-4.733 9.345-1.074 3.696-2.666 9.726-1.685 13.468.896 3.42 6.327 5.968 6.327 5.968s-5.208 2.77-7.334 1.71c-1.57-.786-3.3-3.662-4.18-6.05-.66-1.796-1.066-6.875-1.066-6.875s-2.087 3.527-3.367 3.985c-1.704.608-5.387-.604-5.387-.604s1.65-2.498 2.27-3.58c1.055-1.847 2.057-4.43 2.433-6.943.23-1.52-.732-5.055-.732-5.055s-.506 3.094-.902 4.27c-.848 2.52-2.275 5.694-3.64 7.397-.77.957-2.308.786-2.924 2.035-.825 1.674-1.416 2.446-1.144 4.59.208 1.636.517 3.766 1.417 4.36.588.39 1.905 1.44 2.47.945.472-.414 1.636-1.104 1.636-1.104s-.714 3.18-1.98 5.045c-.687 1.012-1.828 1.105-2.44 1.31-.318.106-1.553.896-2.796-.423-1.208-1.283-2.21-3.586-2.38-4.043 0 0-1.75-3.63-2.044-5.538-.45-2.93-.214-7.192.27-10.12.272-1.63 1.375-3.28 1.604-4.932.188-1.367-.352-3.322-.123-4.67.253-1.494.213-1.424.213-1.424s.45 1.193-.35 3.392c-.888 2.436-3.354 8.662-3.354 8.662l-2.194-5.67-.26-5.72s-.107-1.927.226-2.345c.356-.443 1.035.73 1.436.418.99-.77.902-4.272.902-4.272s-.037 3.446-1.046 4.22c-.366.282-1.018-.78-1.32-.318-1.093 1.67-.35 4.486.03 8.397.277 2.844 1.055 5.67.538 7.375-.466 1.54-2.938 2.755-2.938 2.755l-7.342-4.602s-2.187-3.714-2.37-5.84c-.297-3.433.944-12.348.944-12.348l-.513-.2-3.188 5.258s.06 7.93-1.403 9.276c-1.042.957-3.67-2.3-3.67-2.3l-6.615-10.676s-.356-4.21.104-5.74c.695-2.32 4.014-5.225 4.014-5.225l-3.246-3.002s-4.122 3.644-5.823 2.638c-.83-.49-1.438-2.617-1.783-4.02-.667-2.71-.856-9.728-.856-9.728l6.28-16.622s2.34-.473 3.085.48c1.58 2.02 2.493 10.514 2.493 10.514s5.91 5.913 8.753 6.452c3.012.573 6.93-2.85 9.957-3.19 2.04-.23 4.82-.255 6.795.63.722.325 1.66 1.062 2.234 1.885 1.22 1.743 2.42 4.888 3.17 7.31.722 2.33.838 6.146 1.706 8.324.448 1.13 2.01 2.953 2.01 2.953s-2.858-8.04-3.916-11.646c-1.305-4.445-2.147-11.22-3.852-15.232-.52-1.226-1.872-1.912-2.21-3.32-.64-2.678-.334-7.04.382-9.68.112-.414.63-.594.637-1.05.03-1.675-1.754-2.556-2.197-4.037-.99-3.327-1.57-8.51-1.43-12.266.125-3.263.67-8.078 2.044-10.328 1.087-1.782 3.298-2.344 4.785-2.322 2.115.03 6.743 3.5 6.743 3.5s-3.55.86-4.786 2.323c-.884 1.045-1.96 3.114-2.15 4.94-.107 1.006.275 2.364.56 3.253 1.227 3.848 5.576 10.994 5.576 10.994s5.337-2.53 7.684-2.923c2.958-.498 6.966-.426 9.894.394 1.584.445 3.628 1.652 5.106 2.718 1.784 1.287 3.755 4.938 5.68 5.254 1.17.192 2.66-1.224 3.75-2.004 1.182-.845 2.86-1.882 3.774-3.44.828-1.408 34.154-20.1 24.736-31.376l-19.64-23.512 30.095 32.82 13.663 36.5-19.23 42.9z"/><path fill="none" stroke="#010101" stroke-width="2.5" d="M97.974 330.08s2.006 1.97 2.946 2.45c.863.443 2.98.66 2.98.66M107.073 340.136s-1.76-2.11-2.64-2.26c-.993-.17-2.44.397-3.223 1.486-.835 1.164-1.646 5.5-1.646 5.5M107.614 344.464s-2.083-1.088-2.88-.474c-1.178.912-2.047 3.955-2.58 6-.29 1.098-.484 3.928-.484 3.928M109.876 350.478s-2.42-.215-3.31.585c-.822.742-1.64 2.588-2.03 4.047-.52 1.92-.643 6.973-.643 6.973M82.606 376.308s1.988-2.663 2.743-3.48c1.026-1.115 4.02-.018 4.02-.018M72.982 366.77s1.212-2.16 1.9-2.437c.947-.382 3.178 1.023 3.178 1.023"/><path fill="#ED1C24" d="M74.808 338.957c-.925-1.385-1.273-4.503-2.104-6.058-1.25-2.346-5-6.176-5-6.176s3.23-.756 4.584-.348c1.638.498 3.944 1.62 5.12 3.658.903 1.564 1.75 4.617 1.63 6.836-.077 1.44-.726 3.624-1.52 4.054-.847.457-2.044-.967-2.71-1.967z"/><path fill="none" stroke="#010101" stroke-width="2.5" d="M74.808 338.957c-.925-1.385-1.273-4.503-2.104-6.058-1.25-2.346-5-6.176-5-6.176s3.23-.756 4.584-.348c1.638.498 3.944 1.62 5.12 3.658.903 1.564 1.75 4.617 1.63 6.836-.077 1.44-.726 3.624-1.52 4.054-.847.457-2.044-.967-2.71-1.967z"/><path fill="#ED1C24" d="M65.196 343.23c.66 1.137 1.274 3.142 1.51 4.726.245 1.62.56 4.177.027 5.647-.34.938-1.285 1.46-1.906 1.612-.444.108-1.045-.157-1.444-.464-.843-.648-1.525-2.814-2.42-3.23-.783-.363-1.96.028-2.736.574-1.097.77-1.68.97-2.463 2.53-.6 1.197-1.84 5.877-1.84 5.877s-1.09-5.588-.95-7.84c.203-3.288.984-6.425 2.453-8.64.928-1.4 2.597-2.23 3.79-2.53 1.473-.375 3.49-.024 4.885.698.36.187.828.583 1.094 1.04z"/><path fill="none" stroke="#010101" stroke-width="2.5" d="M65.196 343.23c.66 1.137 1.274 3.142 1.51 4.726.245 1.62.56 4.177.027 5.647-.34.938-1.285 1.46-1.906 1.612-.444.108-1.045-.157-1.444-.464-.843-.648-1.525-2.814-2.42-3.23-.783-.363-1.96.028-2.736.574-1.097.77-1.68.97-2.463 2.53-.6 1.197-1.84 5.877-1.84 5.877s-1.09-5.588-.95-7.84c.203-3.288.984-6.425 2.453-8.64.928-1.4 2.597-2.23 3.79-2.53 1.473-.375 3.49-.024 4.885.698.36.187.828.583 1.094 1.04z"/><path fill="#ED1C24" d="M71.21 377.283c.544-.07 1.3.483 1.686 1.146.948 1.64 1.944 4.928 1.65 7.213-.22 1.734-1.6 3.154-2.474 4.08-1.3 1.38-3.27 2.63-4.778 2.913-1.395.26-4.63-.995-4.63-.995s2.825-2.988 3.728-4.84c.838-1.718 1.086-5.036 1.98-6.665.68-1.24 1.862-2.72 2.84-2.852z"/><path fill="none" stroke="#010101" stroke-width="2.5" d="M71.21 377.283c.544-.07 1.3.483 1.686 1.146.948 1.64 1.944 4.928 1.65 7.213-.22 1.734-1.6 3.154-2.474 4.08-1.3 1.38-3.27 2.63-4.778 2.913-1.395.26-4.63-.995-4.63-.995s2.825-2.988 3.728-4.84c.838-1.718 1.086-5.036 1.98-6.665.68-1.24 1.862-2.72 2.84-2.852z"/><path fill="#ED1C24" d="M88.847 391.883c1.205-.343 2.665 2.116 3.418 3.776.645 1.418.792 2.802.69 4.61-.13 2.38-1.207 5.443-2.292 6.923-.675.92-1.885 1.354-2.737 1.373-1.003.02-1.895.418-2.782-.38-1.024-.924-2.943-4.3-2.943-4.3s2.526-.024 3.427-.942c.977-1 2.033-3.27 2.34-5.165.166-1.027-.42-2.494-.247-3.52.15-.884.603-2.23 1.127-2.377z"/><path fill="none" stroke="#010101" stroke-width="2.5" d="M88.847 391.883c1.205-.343 2.665 2.116 3.418 3.776.645 1.418.792 2.802.69 4.61-.13 2.38-1.207 5.443-2.292 6.923-.675.92-1.885 1.354-2.737 1.373-1.003.02-1.895.418-2.782-.38-1.024-.924-2.943-4.3-2.943-4.3s2.526-.024 3.427-.942c.977-1 2.033-3.27 2.34-5.165.166-1.027-.42-2.494-.247-3.52.15-.884.603-2.23 1.127-2.377z"/><path fill="#FFF" d="M66.333 105.752s1.71-13.15 4.19-16.357c.755-.977 1.895.195 3.1-.686 1.298-.946 4.205-2.684 4.467-5.085.268-2.458-1.8-7.687-1.8-7.687s-4.42-5.497-6.645-5.686c-2.425-.204-7.604 4.938-7.604 4.938L61 86.665l5.333 19.087z"/><path fill="none" stroke="#010101" stroke-width="3" d="M66.333 105.752s1.71-13.15 4.19-16.357c.755-.977 1.895.195 3.1-.686 1.298-.946 4.205-2.684 4.467-5.085.268-2.458-1.8-7.687-1.8-7.687s-4.42-5.497-6.645-5.686c-2.425-.204-7.604 4.938-7.604 4.938L61 86.665l5.333 19.087z"/><path fill="#FFF" d="M155.445 168.667s-16.343 67.416-46.53 70.41c-5.546.55-13.062-3.498-17.836-8.37-2.41-2.46-6.493-11.59-6.493-11.59s-4.47 4.756-5.158 8.193c-.507 2.524.224 6.314.827 8.756.652 2.645 3.33 7.633 3.33 7.633s-4.99-1.787-6.577-4.174c-1.674-2.52-2.872-7.61-3.5-11.31-.572-3.39-.462-6.708.397-9.93.626-2.35 2.62-7.214 2.62-7.214s-3.408-7.752-4.732-11.613c-1.16-3.384-3.132-11.958-3.132-11.958s-1.82 1.02-2.468 1.858c-.58.75-1.292 2.032-1.556 3.2-.377 1.667-.754 4.507-.154 5.947.634 1.527 3.483 1.688 3.483 1.688s-1.18 2.992-1.98 3.264c-1.678.57-4.198-1.345-5.274-3.634-1.614-3.43-1.968-10.186-1.52-14.574.27-2.665 1.55-5.833 2.62-7.804 1.1-2.025 4.448-5.125 4.448-5.125s-2.714-4.4-3.296-6.897c-.43-1.84.088-4.75-.304-6.617-.51-2.418-2.69-4.404-2.874-6.964-.544-7.557 5.295-23.76 5.295-23.76s-3.37 13.934-6.478 16.54c-1.398 1.17-5.14-.694-5.14-.694l-3.6-13.515s.122-4.94.997-6.075c2.06-2.673 8.522.173 8.522.173l-5.63-2.098-.506-11.027 4.48-4.39s-5.116 5.675-7.44 4.843c-1.322-.474-3.23-5.427-3.23-5.427l.763-11.222s1.138-5.25 2.3-5.535c3.123-.77 8.184 11.33 8.184 11.33l-5.09-8.844 1.49-4.67 5.02 7.373-5.054-8.108.052-8.152 1.69-.26s-3.242-.926-3.95-2.603c-.83-1.962-1.258-4.886-.608-7.063 1.006-3.368 6.397-5.916 6.397-5.916s5.042-1.123 6.432.988c1.18 1.793 1.687 4.42 1.605 7.157-.066 2.278-2.103 6.74-2.103 6.74s2.122 13.08 3.673 18.192c1.808 5.955 4.964 13.217 7.64 18.077 2.544 4.616 7.02 8.71 9.553 13.342 3.88 7.095 8.227 22.712 11.19 31.044 3.765 10.59 13.597 20.734 13.597 20.734l46.08-21.653-.475 11.297z"/><path fill="none" stroke="#010101" stroke-width="3" d="M155.445 168.667s-16.343 67.416-46.53 70.41c-5.546.55-13.062-3.498-17.836-8.37-2.41-2.46-6.493-11.59-6.493-11.59s-4.47 4.756-5.158 8.193c-.507 2.524.224 6.314.827 8.756.652 2.645 3.33 7.633 3.33 7.633s-4.99-1.787-6.577-4.174c-1.674-2.52-2.872-7.61-3.5-11.31-.572-3.39-.462-6.708.397-9.93.626-2.35 2.62-7.214 2.62-7.214s-3.408-7.752-4.732-11.613c-1.16-3.384-3.132-11.958-3.132-11.958s-1.82 1.02-2.468 1.858c-.58.75-1.292 2.032-1.556 3.2-.377 1.667-.754 4.507-.154 5.947.634 1.527 3.483 1.688 3.483 1.688s-1.18 2.992-1.98 3.264c-1.678.57-4.198-1.345-5.274-3.634-1.614-3.43-1.968-10.186-1.52-14.574.27-2.665 1.55-5.833 2.62-7.804 1.1-2.025 4.448-5.125 4.448-5.125s-2.714-4.4-3.296-6.897c-.43-1.84.088-4.75-.304-6.617-.51-2.418-2.69-4.404-2.874-6.964-.544-7.557 5.295-23.76 5.295-23.76s-3.37 13.934-6.478 16.54c-1.398 1.17-5.14-.694-5.14-.694l-3.6-13.515s.122-4.94.997-6.075c2.06-2.673 8.522.173 8.522.173l-5.63-2.098-.506-11.027 4.48-4.39s-5.116 5.675-7.44 4.843c-1.322-.474-3.23-5.427-3.23-5.427l.763-11.222s1.138-5.25 2.3-5.535c3.123-.77 8.184 11.33 8.184 11.33l-5.09-8.844 1.49-4.67 5.02 7.373-5.054-8.108.052-8.152 1.69-.26s-3.242-.926-3.95-2.603c-.83-1.962-1.258-4.886-.608-7.063 1.006-3.368 6.397-5.916 6.397-5.916s5.042-1.123 6.432.988c1.18 1.793 1.687 4.42 1.605 7.157-.066 2.278-2.103 6.74-2.103 6.74s2.122 13.08 3.673 18.192c1.808 5.955 4.964 13.217 7.64 18.077 2.544 4.616 7.02 8.71 9.553 13.342 3.88 7.095 8.227 22.712 11.19 31.044 3.765 10.59 13.597 20.734 13.597 20.734l46.08-21.653-.475 11.297z"/><path fill="none" stroke="#010101" stroke-width="2.5" d="M76.472 212.08s2.29-4.527 3.12-6.415c.676-1.536 1.64-3.545 2.513-4.738.53-.722 1.962-1.884 1.962-1.884M68.52 187.575s1.966-1.645 2.866-2.022c1.325-.557 3.29.34 4.52-.693 1.48-1.243 2.853-4.55 3.78-6.913.62-1.58 1.555-5.778 1.555-5.778M65.784 172.56s3.32-.47 4.638-2.715M65.988 140.6s2.565 17.096 6.195 21.774c2.56 3.3 8.01 4.218 8.01 4.218"/><path fill="#ED1C24" d="M69.9 75.904c.16 1.663.82 3.863 1.596 4.873.59.77 1.693 1.4 2.4.996.945-.544 1.834-1.268 2.15-2.914.858-4.462 1.01-10.028-.067-14.315-.816-3.245-2.82-7.148-4.705-8.488-.868-.617-1.684-1.137-2.58-.627-.9.51-3.02 2.51-3.02 2.51s2.113.974 2.835 1.952c.805 1.09 1.612 3.155 1.985 4.812.47 2.085-.014 3.756-.05 6.002-.026 1.582-.697 3.64-.546 5.198z"/><path fill="none" stroke="#010101" stroke-width="2.5" d="M69.9 75.904c.16 1.663.82 3.863 1.596 4.873.59.77 1.693 1.4 2.4.996.945-.544 1.834-1.268 2.15-2.914.858-4.462 1.01-10.028-.067-14.315-.816-3.245-2.82-7.148-4.705-8.488-.868-.617-1.684-1.137-2.58-.627-.9.51-3.02 2.51-3.02 2.51s2.113.974 2.835 1.952c.805 1.09 1.612 3.155 1.985 4.812.47 2.085-.014 3.756-.05 6.002-.026 1.582-.697 3.64-.546 5.198z"/><path fill="#ED1C24" d="M46.096 62.987s.255-5.868 1.59-8.09c1.346-2.236 3.836-4.093 5.688-4.28 1.26-.13 3.01.81 4.02 2.11 1.932 2.49 3.61 6.206 4.197 10.272.247 1.703.482 3.846.055 5.448-.49 1.843-1.64 2.952-2.797 3.157-.83.15-2.06-1.688-2.67-2.66-1.582-2.503-1.54-7.84-3.39-9.713-.575-.582-1.52-.75-2.188-.686-.597.055-1.34.683-1.917.976-.862.437-2.587 3.465-2.587 3.465z"/><path fill="none" stroke="#010101" stroke-width="2.5" d="M46.096 62.987s.255-5.868 1.59-8.09c1.346-2.236 3.836-4.093 5.688-4.28 1.26-.13 3.01.81 4.02 2.11 1.932 2.49 3.61 6.206 4.197 10.272.247 1.703.482 3.846.055 5.448-.49 1.843-1.64 2.952-2.797 3.157-.83.15-2.06-1.688-2.67-2.66-1.582-2.503-1.54-7.84-3.39-9.713-.575-.582-1.52-.75-2.188-.686-.597.055-1.34.683-1.917.976-.862.437-2.587 3.465-2.587 3.465z"/><path fill="#ED1C24" d="M48.366 103.91c.592-.287 1.56-.426 1.9-1.315.493-1.278.362-3.75-.038-5.11-.566-1.924-1.146-3.494-2.344-4.074-.677-.328-3.598 1.16-4.238 1.673-1.592 1.277-2.565 2.825-3.27 5.618-.645 2.545-.763 6.675-.167 9.235.466 2.004 1.908 3.895 2.975 5.002.652.676 2.415 1.334 2.415 1.334s-1.34-5.312-1.136-7.67c.117-1.373.724-3.184 1.386-3.964.635-.747 1.778-.37 2.516-.726z"/><path fill="none" stroke="#010101" stroke-width="2.5" d="M48.366 103.91c.592-.287 1.56-.426 1.9-1.315.493-1.278.362-3.75-.038-5.11-.566-1.924-1.146-3.494-2.344-4.074-.677-.328-3.598 1.16-4.238 1.673-1.592 1.277-2.565 2.825-3.27 5.618-.645 2.545-.763 6.675-.167 9.235.466 2.004 1.908 3.895 2.975 5.002.652.676 2.415 1.334 2.415 1.334s-1.34-5.312-1.136-7.67c.117-1.373.724-3.184 1.386-3.964.635-.747 1.778-.37 2.516-.726z"/><path fill="#ED1C24" d="M51.167 130.767c.742-1.13 2.45.107 3.193 1.216.785 1.17 1.377 3.815 1.238 5.608-.156 2.01-1.362 4.257-2.3 5.47-1.315 1.706-3.52 3.375-5.148 3.177-1.734-.212-3.988-2.387-5.117-4.673-1.22-2.465-2-6.996-2.04-10.26-.02-1.42.77-4.552.77-4.552s.958 4.57 1.84 5.857c1.22 1.785 3.437 2.94 5.04 2.978.84.02 2.08-4.148 2.524-4.82z"/><path fill="none" stroke="#010101" stroke-width="2.5" d="M51.167 130.767c.742-1.13 2.45.107 3.193 1.216.785 1.17 1.377 3.815 1.238 5.608-.156 2.01-1.362 4.257-2.3 5.47-1.315 1.706-3.52 3.375-5.148 3.177-1.734-.212-3.988-2.387-5.117-4.673-1.22-2.465-2-6.996-2.04-10.26-.02-1.42.77-4.552.77-4.552s.958 4.57 1.84 5.857c1.22 1.785 3.437 2.94 5.04 2.978.84.02 2.08-4.148 2.524-4.82z"/><path fill="#FFF" d="M38.9 226.436c.815-.185 1.98.03 2.713.675.58.514 1.214 1.7 1.514 2.71.804 2.693.405 7.16 1.08 9.96 1.097 4.554 5.396 13.5 5.396 13.5l-10.94 1.326-8.577-12.763 1.11-6.848s1.854-3.82 2.862-5.006c1.307-1.536 3.28-3.2 4.84-3.554z"/><path fill="none" stroke="#010101" stroke-width="3" d="M38.9 226.436c.815-.185 1.98.03 2.713.675.58.514 1.214 1.7 1.514 2.71.804 2.693.405 7.16 1.08 9.96 1.097 4.554 5.396 13.5 5.396 13.5l-10.94 1.326-8.577-12.763 1.11-6.848s1.854-3.82 2.862-5.006c1.307-1.536 3.28-3.2 4.84-3.554z"/><path fill="#FFF" d="M138.563 200.067L96.2 211.102l-44.19 29.953-12.394 8.846-3.242-3.858s-2.23-8.064-4.002-10.058c-1.184-1.333-4.633-1.502-4.633-1.502l-4 17.072s.37 4.353 1.036 5.727c.706 1.46 3.252 2.91 3.252 2.91l3.578-2.324c.444-.753 10.248 1.22 11.91 2.88.4.4 1.298-1.147 1.113-1.887-.202-.806-1.787.337-3.095.255-1.707-.107-2.654.78-3.43.627-2.97-.585-3.042.02-5.176 2.428-.928 1.046-1.698 5.685-1.698 5.685l7.483 17.252s4.274 2.177 5.737.567c1.72-1.89 1.433-7.973 2.57-10.906.848-2.183 2.402-7.672 3.616-6.13 1.152 1.464-2.51 2.523-3.798 5.925-1.583 4.18-1.018 10.657-1.018 10.657l3.215 6.714s7.132 1.263 9.853-.795c.427-.324 1.042-1.088 1.112-1.887.148-1.67 1.3-6.538.51-8.657-.975-2.616-2.877-4.19-2.877-4.19s-.475.293.14.098c1.372-.438 2.86 4.192 2.86 4.192l6.648-8.463s.352 2.865.2 4.06c-.254 2.037-1.966 6.058-1.966 6.058s4.055-.795 6.138-2.716c1.542-1.422 4.488-4.584 5.293-7.28.537-1.798 1.313-3.46 1.313-3.46s.208 6.183-.553 9.662c-.458 2.09-2.174 4.994-2.174 4.994s2.33.247 4.33-.484c1.825-.665 3.313-2.297 3.797-2.634.094-.065 2.392-1.964 3.988-6.606 1.505-4.377.722-4.223 2.485-5.763.452-.395.547 3.417-.018 7.333-.5 3.473-1.647 7.077-1.626 7.182 2.213-.447 8.767-3.57 11.45-6.713 4.505-5.27 6.444-17.23 7.336-16.5 3.86 3.16 13.864 3.675 16.938 8.81 2.955 4.934 10.516-3.286 14.25-.344 5.984 4.715 15.998-47.684 15.998-47.684l-6.61-19.932-9.29-.147z"/><path fill="none" stroke="#010101" stroke-width="3" d="M138.563 200.067L96.2 211.102l-44.19 29.953-12.394 8.846-3.242-3.858s-2.23-8.064-4.002-10.058c-1.184-1.333-4.633-1.502-4.633-1.502l-4 17.072s.37 4.353 1.036 5.727c.706 1.46 3.252 2.91 3.252 2.91l3.578-2.324c.444-.753 10.248 1.22 11.91 2.88.4.4 1.298-1.147 1.113-1.887-.202-.806-1.787.337-3.095.255-1.707-.107-2.654.78-3.43.627-2.97-.585-3.042.02-5.176 2.428-.928 1.046-1.698 5.685-1.698 5.685l7.483 17.252s4.274 2.177 5.737.567c1.72-1.89 1.433-7.973 2.57-10.906.848-2.183 2.402-7.672 3.616-6.13 1.152 1.464-2.51 2.523-3.798 5.925-1.583 4.18-1.018 10.657-1.018 10.657l3.215 6.714s7.132 1.263 9.853-.795c.427-.324 1.042-1.088 1.112-1.887.148-1.67 1.3-6.538.51-8.657-.975-2.616-2.877-4.19-2.877-4.19s-.475.293.14.098c1.372-.438 2.86 4.192 2.86 4.192l6.648-8.463s.352 2.865.2 4.06c-.254 2.037-1.966 6.058-1.966 6.058s4.055-.795 6.138-2.716c1.542-1.422 4.488-4.584 5.293-7.28.537-1.798 1.313-3.46 1.313-3.46s.208 6.183-.553 9.662c-.458 2.09-2.174 4.994-2.174 4.994s2.33.247 4.33-.484c1.825-.665 3.313-2.297 3.797-2.634.094-.065 2.392-1.964 3.988-6.606 1.505-4.377.722-4.223 2.485-5.763.452-.395.547 3.417-.018 7.333-.5 3.473-1.647 7.077-1.626 7.182 2.213-.447 8.767-3.57 11.45-6.713 4.505-5.27 6.444-17.23 7.336-16.5 3.86 3.16 13.864 3.675 16.938 8.81 2.955 4.934 10.516-3.286 14.25-.344 5.984 4.715 15.998-47.684 15.998-47.684l-6.61-19.932-9.29-.147z"/><path fill="#ED1C24" d="M40.35 232.48c.153-3.135-.58-6.415-1.878-8.58-1.118-1.863-3.343-2.615-4.884-2.928-1.593-.325-3.915-.425-5.33.913-.74.7-1.186 1.563-1.423 2.97-.223 1.325-.37 4.27-.37 4.27s1.374-1.746 2.065-1.82c1.04-.114 2.356 1.143 3.255 2.046.933.94 1.86 2.96 2.743 4.034.62.753 1.45 1.888 2.188 2.172.794.306 2.013.367 2.706-.384.46-.498.883-1.756.93-2.693z"/><path fill="none" stroke="#010101" stroke-width="2.5" d="M40.35 232.48c.153-3.135-.58-6.415-1.878-8.58-1.118-1.863-3.343-2.615-4.884-2.928-1.593-.325-3.915-.425-5.33.913-.74.7-1.186 1.563-1.423 2.97-.223 1.325-.37 4.27-.37 4.27s1.374-1.746 2.065-1.82c1.04-.114 2.356 1.143 3.255 2.046.933.94 1.86 2.96 2.743 4.034.62.753 1.45 1.888 2.188 2.172.794.306 2.013.367 2.706-.384.46-.498.883-1.756.93-2.693z"/><path fill="#ED1C24" d="M31.72 244.028c-.27 1.63-1.338 3.502-2.252 4.097-.81.527-2.08.152-2.86-.473-1.008-.805-1.63-3.73-2.658-4.458-1.225-.87-3.13-.624-4.42-.07-.846.36-1.937 1.323-2.563 2.38-.807 1.368-1.857 5.672-1.857 5.672s-.568-8.296.277-11.396c.673-2.467 2.506-4.84 3.91-6.065 1.26-1.103 3.194-1.68 4.6-1.637 1.312.038 3.097.68 4.24 1.777 1.093 1.046 2.38 3.13 2.98 5.035.432 1.377.856 3.62.603 5.138z"/><path fill="none" stroke="#010101" stroke-width="2.5" d="M31.72 244.028c-.27 1.63-1.338 3.502-2.252 4.097-.81.527-2.08.152-2.86-.473-1.008-.805-1.63-3.73-2.658-4.458-1.225-.87-3.13-.624-4.42-.07-.846.36-1.937 1.323-2.563 2.38-.807 1.368-1.857 5.672-1.857 5.672s-.568-8.296.277-11.396c.673-2.467 2.506-4.84 3.91-6.065 1.26-1.103 3.194-1.68 4.6-1.637 1.312.038 3.097.68 4.24 1.777 1.093 1.046 2.38 3.13 2.98 5.035.432 1.377.856 3.62.603 5.138z"/><path fill="#ED1C24" d="M37.937 277.188c.832-1.736.778-4.174.145-6.126-.698-2.15-2.298-4.943-3.714-5.188-1.024-.177-2.04 2.232-2.898 3.23-1.06 1.23-2.556 2.7-3.48 4.22-.948 1.556-2.112 3.907-2.68 5.943-.343 1.226-.763 3.075-.618 4.407.21 1.92 2.157 5.308 2.157 5.308s-.36-4.5.143-6.125c.45-1.458 1.686-2.634 2.57-3.237 1.435-.976 3.553-.966 5.087-1.06 1.227-.075 2.498.278 3.287-1.372z"/><path fill="none" stroke="#010101" stroke-width="2.5" d="M37.937 277.188c.832-1.736.778-4.174.145-6.126-.698-2.15-2.298-4.943-3.714-5.188-1.024-.177-2.04 2.232-2.898 3.23-1.06 1.23-2.556 2.7-3.48 4.22-.948 1.556-2.112 3.907-2.68 5.943-.343 1.226-.763 3.075-.618 4.407.21 1.92 2.157 5.308 2.157 5.308s-.36-4.5.143-6.125c.45-1.458 1.686-2.634 2.57-3.237 1.435-.976 3.553-.966 5.087-1.06 1.227-.075 2.498.278 3.287-1.372z"/><path fill="#ED1C24" d="M55.417 289.578c.437 2.48.813 5.09.332 7.56-.525 2.695-2.382 5.634-3.914 6.635-.97.633-2.025 1.01-3.037.664-1.065-.364-3.418-2.05-3.418-2.05s1.803-1.595 2.48-2.525c.795-1.09 1.976-2.594 2.335-4.238.466-2.127-.733-5.5-.17-7.556.35-1.27 1.356-2.66 2.157-2.817.854-.165 1.988 1 2.6 2.04.314.53.505 1.56.633 2.288z"/><path fill="none" stroke="#010101" stroke-width="2.5" d="M55.417 289.578c.437 2.48.813 5.09.332 7.56-.525 2.695-2.382 5.634-3.914 6.635-.97.633-2.025 1.01-3.037.664-1.065-.364-3.418-2.05-3.418-2.05s1.803-1.595 2.48-2.525c.795-1.09 1.976-2.594 2.335-4.238.466-2.127-.733-5.5-.17-7.556.35-1.27 1.356-2.66 2.157-2.817.854-.165 1.988 1 2.6 2.04.314.53.505 1.56.633 2.288z"/><path fill="#FFF" d="M166.05 308.785c-2.748-1.176-6.67.048-9.436 1.2-1.5.624-4.753 3.46-4.753 3.46s3.595 3.47 5.206 4.703c3.19 2.44 7.986 3.664 10.926 6.92 2.604 2.884 5.37 8.428 7.276 12.652 2.167 4.805 6.07 17.41 6.07 17.41s1.163-23.556-1.71-31.646c-2.518-7.102-8.91-12.703-13.577-14.7z"/><path fill="none" stroke="#010101" stroke-width="3" d="M166.05 308.785c-2.748-1.176-6.67.048-9.436 1.2-1.5.624-4.753 3.46-4.753 3.46s3.595 3.47 5.206 4.703c3.19 2.44 7.986 3.664 10.926 6.92 2.604 2.884 5.37 8.428 7.276 12.652 2.167 4.805 6.07 17.41 6.07 17.41s1.163-23.556-1.71-31.646c-2.518-7.102-8.91-12.703-13.577-14.7z"/><path fill="#FFF" d="M168.2 453.362s-4.534-5.907-5.26-9.72c-.496-2.61 1.118-6.542.6-9.14-.498-2.5-2.136-5.364-3.57-6.238-1.076-.653-3.79.74-3.79.74l-3.225 12.5 2.223 5.06 4.55 7.22 8.473-.422z"/><path fill="none" stroke="#010101" stroke-width="3" d="M168.2 453.362s-4.534-5.907-5.26-9.72c-.496-2.61 1.118-6.542.6-9.14-.498-2.5-2.136-5.364-3.57-6.238-1.076-.653-3.79.74-3.79.74l-3.225 12.5 2.223 5.06 4.55 7.22 8.473-.422z"/><path fill="#FFF" d="M114.177 190.036s-19.146 64.908-15.955 69.82c3.066 4.723 20.796 12.944 24.597 15.62 6.09 4.292 19.134 17.317 25.312 21.22 4.646 2.933 10.923 9.423 15.172 13.803 4.69 4.835 11.497 11.468 14.21 19.7 1.68 5.097 2.506 13.724 1.62 19.427-1.337 8.633-7.503 15.55-11 22.123-.582 1.096-2.457.722-4.202 4.348-1.815 3.776-3.514 11.534-4.604 11.618-1.91.148-5.273-3.57-5.273-3.57s.25 4.357 1.692 7.53c1.148 2.525 3.453 4.016 4.095 4.01 1.597-.017 3.78-1.623 4.275-1.93 2.52-1.553 6.146-11.28 6.146-11.28s-6.688 12.606-6.86 19.41c-.077 3 1.385 5.43 1.076 8.39-.335 3.187-.867 6.606-2.72 6.884-2.702.404-6.258-1.497-6.258-1.497s1.528 4.894 4.057 7.33c1.573 1.514 3.52 1.796 5.222.72 3.756-2.387 8.218-8.627 10.48-14.372 1.328-3.362 2.294-12.976 2.294-12.976s-4.102 14.403-3.286 20.646c.567 4.343 4.1 9.4 4.1 9.4s-4.52 2.675-6.647 5.018c-3.36 3.698-8.246 18.058-8.246 18.058s-5.072-3.412-6.914-5.813c-1.207-1.573-1.92-5.74-3.368-6.483-1.048-.54-3.536 1.618-3.536 1.618l-2.766 18.714s1.318 5.313 2.54 6.052c2.058 1.24 4.723-3.013 7.026-3.364 2.28-.345 6.9 1.185 6.9 1.185l-8.37 8.544-.474 5.735 6.43 10.604s4.3-.898 5.432-3.152c1.554-3.088 1.467-13.407 1.467-13.407s1.52 3.03 1.898 5.186c.47 2.683-.364 7.587-.364 7.587l3.075 5.07 6.307 1.086s2.77-3.192 2.938-5.397c.302-3.89-3.563-11.457-3.563-11.457l6.95-1.577 1.248-9.112s1.935 11.853 4.293 14.522c1.513 1.715 4.313 1.68 6.027.63 1.43-.88 3.752-5.916 3.752-5.916s-2.705 1.736-3.814 1.156c-.998-.52-2.522-2.33-2.516-4.147.012-3.438 4.82-7.876 4.82-7.876s4.105 4.104 6.077 4.432c1.41.232 3.628.078 4.628-1.678 1.07-1.88.983-8.622.983-8.622s-1.266 3.32-2.43 3.484c-1.18.164-3.367-.798-3.853-2.67-.924-3.562 1.2-12.916 1.2-12.916s4.374 2.294 6.356.65c.784-.65 2.166-3.268 2.355-5.638.286-3.56-.088-5.3-.088-5.3s-1.234 4.4-2.685 4.253c-1.464-.147-3.448-1.674-4.424-3.567-1.655-3.217-2.695-9.328-2.64-13.662.065-5.25 1.68-10.218 2.75-15.142.314-1.442 1.044-3.99 1.044-3.99s3.214 4.607 4.997 5.57c1.25.672 4.154-.174 5.238-1.478 1.62-1.946 2.993-7.226 2.524-10.532-.39-2.747-2.8-5.016-2.8-5.016s.18 4.43-.01 6.376c-.136 1.383-2.208 2.212-2.986 2.585-.636.305-1.46-1.137-1.827-2.08-1.815-4.666-1.68-12.028-1.265-17.645.295-3.994 3.398-12.085 3.398-12.085s4.765 6.756 7.22 8.18c1.794 1.037 2.69-4.39 1.794-9.238-1.092-5.907-4.253-11.577-4.253-11.577s-9.197-15.294-11.07-20.044c-5.078-12.88-6.692-24.663-12.41-36.696-2.212-4.65-6.003-12.003-8.457-16.27-4.168-7.25-11.277-17.44-15.14-25.19-6.534-13.11-21.272-42.982-21.272-42.982l-7.064-19.447-30.61-1.51z"/><path fill="none" stroke="#010101" stroke-width="3" d="M114.177 190.036s-19.146 64.908-15.955 69.82c3.066 4.723 20.796 12.944 24.597 15.62 6.09 4.292 19.134 17.317 25.312 21.22 4.646 2.933 10.923 9.423 15.172 13.803 4.69 4.835 11.497 11.468 14.21 19.7 1.68 5.097 2.506 13.724 1.62 19.427-1.337 8.633-7.503 15.55-11 22.123-.582 1.096-2.457.722-4.202 4.348-1.815 3.776-3.514 11.534-4.604 11.618-1.91.148-5.273-3.57-5.273-3.57s.25 4.357 1.692 7.53c1.148 2.525 3.453 4.016 4.095 4.01 1.597-.017 3.78-1.623 4.275-1.93 2.52-1.553 6.146-11.28 6.146-11.28s-6.688 12.606-6.86 19.41c-.077 3 1.385 5.43 1.076 8.39-.335 3.187-.867 6.606-2.72 6.884-2.702.404-6.258-1.497-6.258-1.497s1.528 4.894 4.057 7.33c1.573 1.514 3.52 1.796 5.222.72 3.756-2.387 8.218-8.627 10.48-14.372 1.328-3.362 2.294-12.976 2.294-12.976s-4.102 14.403-3.286 20.646c.567 4.343 4.1 9.4 4.1 9.4s-4.52 2.675-6.647 5.018c-3.36 3.698-8.246 18.058-8.246 18.058s-5.072-3.412-6.914-5.813c-1.207-1.573-1.92-5.74-3.368-6.483-1.048-.54-3.536 1.618-3.536 1.618l-2.766 18.714s1.318 5.313 2.54 6.052c2.058 1.24 4.723-3.013 7.026-3.364 2.28-.345 6.9 1.185 6.9 1.185l-8.37 8.544-.474 5.735 6.43 10.604s4.3-.898 5.432-3.152c1.554-3.088 1.467-13.407 1.467-13.407s1.52 3.03 1.898 5.186c.47 2.683-.364 7.587-.364 7.587l3.075 5.07 6.307 1.086s2.77-3.192 2.938-5.397c.302-3.89-3.563-11.457-3.563-11.457l6.95-1.577 1.248-9.112s1.935 11.853 4.293 14.522c1.513 1.715 4.313 1.68 6.027.63 1.43-.88 3.752-5.916 3.752-5.916s-2.705 1.736-3.814 1.156c-.998-.52-2.522-2.33-2.516-4.147.012-3.438 4.82-7.876 4.82-7.876s4.105 4.104 6.077 4.432c1.41.232 3.628.078 4.628-1.678 1.07-1.88.983-8.622.983-8.622s-1.266 3.32-2.43 3.484c-1.18.164-3.367-.798-3.853-2.67-.924-3.562 1.2-12.916 1.2-12.916s4.374 2.294 6.356.65c.784-.65 2.166-3.268 2.355-5.638.286-3.56-.088-5.3-.088-5.3s-1.234 4.4-2.685 4.253c-1.464-.147-3.448-1.674-4.424-3.567-1.655-3.217-2.695-9.328-2.64-13.662.065-5.25 1.68-10.218 2.75-15.142.314-1.442 1.044-3.99 1.044-3.99s3.214 4.607 4.997 5.57c1.25.672 4.154-.174 5.238-1.478 1.62-1.946 2.993-7.226 2.524-10.532-.39-2.747-2.8-5.016-2.8-5.016s.18 4.43-.01 6.376c-.136 1.383-2.208 2.212-2.986 2.585-.636.305-1.46-1.137-1.827-2.08-1.815-4.666-1.68-12.028-1.265-17.645.295-3.994 3.398-12.085 3.398-12.085s4.765 6.756 7.22 8.18c1.794 1.037 2.69-4.39 1.794-9.238-1.092-5.907-4.253-11.577-4.253-11.577s-9.197-15.294-11.07-20.044c-5.078-12.88-6.692-24.663-12.41-36.696-2.212-4.65-6.003-12.003-8.457-16.27-4.168-7.25-11.277-17.44-15.14-25.19-6.534-13.11-21.272-42.982-21.272-42.982l-7.064-19.447-30.61-1.51z"/><path fill="none" stroke="#010101" stroke-width="2.5" d="M215.635 365.61s-1.707-7.445-2.9-10.71c-1.053-2.885-3.677-4.972-4.75-7.834-.9-2.398-1.86-9-1.86-9M200.312 349.25s2.557 6.1 2.88 9.196c.49 4.678-1.604 10.296-1.66 15.057-.04 3.118.454 6.615.147 9.084-.262 2.11-1.494 6.713-1.494 6.713s2.863-2.43 3.906-4.462c.402-.783 3.003-5.62 3.003-5.62s-.98 11.35-.228 15.937c.226 1.373 1.505 3.963 1.505 3.963M200.708 428.942s.866 5.538 1.577 7.63c.604 1.773 2.613 5.145 2.613 5.145M197.032 461.715s1.673-5.826 1.94-8.533c.297-3.003.28-7.222-.215-10.134-.184-1.083-1.108-3.225-1.108-3.225M192.02 442.556s1.646 5.864 1.508 8.633c-.205 4.085-2.057 8.913-2.706 12.86-.327 1.992-.866 4.69-.815 6.757.04 1.6.888 5.095.888 5.095M186.04 462.593s1.14-10.066 1.317-12.357c.15-1.917-.403-5.692-.403-5.692M164.555 244.833l-4.37 10.816M167.475 250.157l-3.782 8M169.616 255.84l-2.017 6.21M171.943 260.36l-2.156 5.887M188.375 427.047l-3.66 1.377-5.658-1.702s-.276 2.318-.046 3.807c.147.95.81 2.574 1.322 2.987.958.768 2.392 1.57 3.44 1.303.522-.135 1.548-1.49 1.548-1.49M184.646 391.92s-2.295 5.884-2.43 8.792c-.123 2.716.75 6.293 1.497 8.676.64 2.048 1.313 3.874 2.55 4.77 1.086.785 4.267.635 4.267.635s-2.764 2.996-4.105 3.206c-1.77.275-4.232-.844-5.73-2.483-.974-1.07-1.91-3.378-2.443-5.16-.717-2.395-1.385-8.68-1.385-8.68M172.325 392.685s-2.665 5.313-2.99 8.24c-.252 2.29.38 5.378.212 7.69-.158 2.165-.488 4.42-1.022 6.402-.572 2.123-2.895 8.24-2.895 8.24"/><path fill="none" stroke="#010101" stroke-width="2.5" d="M209.29 359.105s.296 7.526-.07 10.668c-.396 3.368-2.505 10.614-2.505 10.614M141.597 273.774s2.767 4.22 3.642 6.19c.508 1.146 2.72 6.903 2.72 6.903M148.706 279.272s3.744 6.24 4.924 8.94c.623 1.423 1.994 6.32 1.994 6.32M155.354 284.614s2.748 6.15 3.738 9.006c.713 2.05 2.043 7.158 2.043 7.158M162.555 292.22s1.93 4.176 2.587 6.16c.613 1.854 1.41 4.427 1.65 6.53.233 2.042-.082 6.954-.082 6.954"/><path fill="#ED1C24" d="M158.326 433.27c-.02-2.203-1.506-4.56-2.53-5.842-1.205-1.51-1.834-1.965-3.306-2.364-1.282-.35-3.14-.82-4.334.09-1.276.974-3.197 5.87-3.197 5.87s4.112-1.16 5.803-.457c1.84.768 2.316 3.84 4.076 5.027.636.43 1.582 1.313 2.22.877.623-.427 1.28-2.038 1.266-3.2z"/><path fill="none" stroke="#010101" stroke-width="2.5" d="M158.326 433.27c-.02-2.203-1.506-4.56-2.53-5.842-1.205-1.51-1.834-1.965-3.306-2.364-1.282-.35-3.14-.82-4.334.09-1.276.974-3.197 5.87-3.197 5.87s4.112-1.16 5.803-.457c1.84.768 2.316 3.84 4.076 5.027.636.43 1.582 1.313 2.22.877.623-.427 1.28-2.038 1.266-3.2z"/><path fill="#ED1C24" d="M150.68 443.1c.89 1.6 1.53 1.954 1.528 4.188 0 1.95-.724 4.9-1.725 5.79-.603.53-1.565-.308-2.217-.596-1.098-.485-2.416-2.122-3.548-2.228-.95-.088-2.265.47-3.092 1.306-.662.67-1.365 2.083-1.758 3.227-.416 1.21-.24 2.646-.438 4.01-.062.425-1.43-2.362-1.77-4.032-.355-1.727-.45-4.344-.162-6.112.414-2.538 1.58-3.79 2.71-5.56 1.064-1.664 2.587-1.52 3.98-2.062 1.42-.553 3.442-.25 4.834.452.55.274 1.263.906 1.66 1.618z"/><path fill="none" stroke="#010101" stroke-width="2.5" d="M150.68 443.1c.89 1.6 1.53 1.954 1.528 4.188 0 1.95-.724 4.9-1.725 5.79-.603.53-1.565-.308-2.217-.596-1.098-.485-2.416-2.122-3.548-2.228-.95-.088-2.265.47-3.092 1.306-.662.67-1.365 2.083-1.758 3.227-.416 1.21-.24 2.646-.438 4.01-.062.425-1.43-2.362-1.77-4.032-.355-1.727-.45-4.344-.162-6.112.414-2.538 1.58-3.79 2.71-5.56 1.064-1.664 2.587-1.52 3.98-2.062 1.42-.553 3.442-.25 4.834.452.55.274 1.263.906 1.66 1.618z"/><path fill="#ED1C24" d="M156.582 475.1s2.32 1.08 3.136 2.108c.45.566.712 1.002.844 1.945.28 2-.03 5.177-.812 6.736-1.057 2.103-3.492 2.357-5.033 3.118-1.058.522-3.248 1.885-3.248 1.885s2.25-10.907 3.008-12.662c.906-2.104 1.97-3.047 2.104-3.13z"/><path fill="none" stroke="#010101" stroke-width="2.5" d="M156.582 475.1s2.32 1.08 3.136 2.108c.45.566.712 1.002.844 1.945.28 2-.03 5.177-.812 6.736-1.057 2.103-3.492 2.357-5.033 3.118-1.058.522-3.248 1.885-3.248 1.885s2.25-10.907 3.008-12.662c.906-2.104 1.97-3.047 2.104-3.13z"/><path fill="#ED1C24" d="M178.213 483.754c.753.612 1.606 2.122 1.928 3.456.397 1.648.497 4.328.078 5.975-.58 2.282-2.328 4.343-3.61 5.462-1.7 1.484-6.188 2.328-6.188 2.328s2.13-3.73 2.873-5.565c.457-1.13 1.17-2.684 1.257-4.054.104-1.67-1.12-3.73-.89-5.363.15-1.057.855-2.246 1.44-2.64.875-.593 2.266-.287 3.113.4z"/><path fill="none" stroke="#010101" stroke-width="2.5" d="M178.213 483.754c.753.612 1.606 2.122 1.928 3.456.397 1.648.497 4.328.078 5.975-.58 2.282-2.328 4.343-3.61 5.462-1.7 1.484-6.188 2.328-6.188 2.328s2.13-3.73 2.873-5.565c.457-1.13 1.17-2.684 1.257-4.054.104-1.67-1.12-3.73-.89-5.363.15-1.057.855-2.246 1.44-2.64.875-.593 2.266-.287 3.113.4z"/><path fill="none" stroke="#010101" stroke-width="1.6" d="M217.81 367.813l-3.657-8.54"/><path fill="#FFF" d="M221.845 355.6s2.324 3.62 5.134 3.557c2.438-.055 5.517-4.1 6.88-7.638.82-2.13 1.848-16.324 1.345-19.562-.654-4.202-3.008-10.03-4.733-11.916-1.727-1.886-3.675-2.136-5.21-1.434-.748.34-1.465 1.856-2.03 2.78-.424.7-1.252 1.524-1.292 2.536-.022.59.397 1.208.636 1.627.877 1.55 3.414 4.148 3.414 4.148s-3.202 2.655-4.608 2.215c-1.274-.398-2.906-2.385-3.485-4.397-.75-2.604-.545-7.014.07-9.742.546-2.43 2.07-5.103 3.347-6.47 1.376-1.477 5.185-2.463 5.185-2.463s-5.854 1.328-8.256.317c-2.037-.856-4.585-3.338-6.13-5.79-.787-1.248-1.74-3.323-1.975-5.135-.285-2.21-.02-5.512.628-7.49.637-1.95 2.084-4.197 3.335-4.723 1.22-.515 3.007.41 4.08 1.527.9.937 2.263 4.637 2.263 4.637s-2.063-.68-2.87-.145c-.642.424-1.643 1.543-1.67 2.735-.038 1.75 1.426 3.315 2.267 4.263.967 1.09 3.646 2.15 3.646 2.15l4.52-.218 3.582.9s-4.114-15.747-5.838-21.704c-.985-3.4-2.443-12.2-3.045-15.867-.798-4.863-.584-5.406-1.47-10.22-1.02-5.545-2.86-13.113-5.333-17.024-1.43-2.262-4.602-4.713-6.466-5.613-1.566-.757-3.227-.598-4.832-.09-1.234.394-2.962 1.68-3.685 3.472-.827 2.052-1.168 5.884-.705 8.24.152.776.734 1.453 1.136 1.882.832.89 2.1 1.71 3.072 1.895 1.38.265 3.333.043 4.6-.965.348-.277.943-1.492.943-1.492s-.91 5.835-1.92 7.605c-1.07 1.875-3.113 3.327-4.62 3.59-1.69.295-4.087-.572-5.51-2.163-1.827-2.042-3.824-6.365-4.38-10.023-.64-4.225-.128-10.652 1.11-14.482 1.068-3.307 3.636-6.526 5.653-7.953 1.267-.897 4.527-.72 4.527-.72l1.93 1.14s-2.377-1.21-3.36-1.898c-1.06-.744-2.57-1.58-3.424-2.897-1.69-2.61-3.59-7.174-4.084-11.02-.315-2.465.135-5.984.634-8.366.63-2.998 1.85-7 3.294-8.97 1.458-1.99 3.993-3.335 5.838-3.456 1.133-.074 2.725.522 3.647 1.65 1.224 1.49 2.645 4.55 2.82 7.138.08 1.188-.816 3.742-.816 3.742s-1.568-3.572-2.554-4.265c-1.016-.714-2.654-.81-3.66-.027-.63.49-1.248 1.893-1.528 2.987-.54 2.104-1.005 5.512-.485 7.617.57 2.305 2.55 3.9 3.84 5.024 1.258 1.094 4.506 2.28 4.506 2.28l4.692 6.155s-.685-10.832-.607-15.493c.064-3.997.425-9.337.955-13.233.71-5.21 2.056-12.033 3.42-16.838 2.012-7.08 6.38-14.874 8.27-22.05.643-2.446 1.258-5.94 1.425-8.61.208-3.365.168-8.03-.424-11.244-.377-2.065-1.434-4.404-2.18-6.135-.818-1.903-1.79-4.947-3.044-5.893-.866-.653-2.294-.443-3.158.102s-1.848 2.002-2.32 3.23c-.472 1.23-.95 3.37-.75 4.493.202 1.123 1.763 3.725 2.284 3.448.52-.275 4.236-1.654 4.236-1.654s-1.075 5.4-2.276 6.978c-1.2 1.578-4.53 1.836-6.748 1.33-2.22-.506-5.018-4.496-6.847-7.047-1.828-2.55-3.427-5.27-4.033-8.02-.606-2.753-.467-6.648-.08-8.995.388-2.347 1.276-4.772 2.27-6.104.758-1.017 3.026-1.727 3.026-1.727s-3.515-2.444-4.706-4.28c-1.257-1.936-2.702-5.21-3.173-8.018-.533-3.194-.605-8.097.225-11.114 1.155-4.204 3.447-9.14 5.756-11.507 1.61-1.648 4.984-4.144 6.844-4.193 1.315-.034 3.204 2.603 4.133 4.204.906 1.562 1.633 4.816 1.386 7.005-.186 1.645-2.11 4.23-2.11 4.23s.536-4.342.04-5.87c-.4-1.238-1.53-2.453-2.352-2.39-1.11.086-2.583 1.955-3.038 3.725-.34 1.315-.006 3.438.323 4.75.8 3.177 4.316 8.774 4.316 8.774l7.44 3.8 4.768 5.53 1.34 3.38 2.51-9.85s4.66-8.085 7.176-10.065c1.36-1.07 3.43-1.932 4.892-1.464 1.42.456 3.126 2.48 4.132 4.276.723 1.296 1.843 3.466 1.685 5.26-.178 2.018-2.833 4.726-2.833 4.726s.64-4.134.11-5.496c-.533-1.38-2.04-1.988-3-1.896-.962.095-2.134 1.426-2.89 2.478-.923 1.29-1.947 3.51-2.477 5.354-.576 2.006-1.102 5.002-1.057 7.236.067 3.327 1.347 7.393 2.007 10.507.96 4.525 2.902 10.167 3.48 14.89.288 2.343.338 5.61.16 7.995-.11 1.47-.824 4.74-.824 4.74l-1.67 5.62s4.197-6.667 6.448-7.902c1.702-.934 4.35-1.343 5.937.042 1.944 1.698 3.575 6.552 4.342 10.097.354 1.638.506 4.122.262 5.83-.273 1.907-1.236 4.12-2.018 5.547-.544.995-2.15 2.634-2.15 2.634s1.494-5.877 1.277-8.468c-.187-2.222-1.09-5.357-2.238-6.374-1.465-1.296-4.1-.826-5.484.755-1.165 1.334-1.836 4.792-2.182 7.138-.397 2.7.4 6.604-.065 9.27-.52 2.98-2.062 6.394-3.258 8.72-1.673 3.25-4.768 6.005-6.458 9.224-1.34 2.548-5.904 13.894-6.508 16.112-.747 2.744-1.637 6.788-1.44 9.79.088 1.342 1.19 3.983 1.19 3.983s.932-4.404 1.715-5.815c1.685-3.032 4.815-5.225 7.052-6.837 1.672-1.207 4.616-.486 5.803-2.872.998-2.005 1.256-6.307.672-8.735-.416-1.726-2.12-3.52-2.865-3.73-.745-.21-1.376.786-1.376.786s1.896-4.103 3.076-4.48c1.522-.49 3.83.942 4.85 2.948.804 1.58 1.7 4.367 1.867 6.465.174 2.207-.262 5.78-.753 7.846-.52 2.19-2.474 3.51-3.386 5.274-.637 1.234-2.093 2.892-1.858 4.49.3 2.028 2.608 1.847 3.633 2.94 1.715 1.828 3.973 4.524 5.275 7.188.778 1.593 1.667 4.064 1.936 6.106.486 3.715.26 9.06-.396 12.713-.398 2.217-1.264 5.203-2.33 6.606-.532.7-1.475.97-2.138 1.043-1.29.144-3.188.16-4.255-1.09-.88-1.032-1.788-5.31-1.788-5.31l-.444-1.857s3.102 3.333 4.545 2.946c.805-.216 1.883-1.56 2.153-2.9.358-1.787-.118-4.747-.87-6.098-.953-1.71-3.05-1.73-4.398-2.15-1.097-.342-2.527-1.232-3.704-.52-1.395.845-3.323 1.805-4.587 3.146-.942 1-1.976 2.883-2.77 4.22-.583.98-1.554 2.117-1.85 3.43-.96 4.227-.494 13.206-.227 17.71.178 2.988.6 6.964 1.148 9.808 1.507 7.795 2.892 12.22 4.607 19.88 1.425 6.35 4.9 20.018 6.02 26.553.49 2.86 1.335 6.597 1.606 9.547.316 3.452.186 8.16.223 11.657.053 5.563.63 10.988-.217 16.365-.53 3.372-2.026 9.356-3.186 12.22-1.296 3.197-2.928 7.843-4.79 10.033-1.718 2.016-4.51 3.413-6.57 3.66-1.62.193-4.117-.2-5.62-1.237-2.268-1.558-6.947-7.598-6.947-7.598"/><path fill="none" stroke="#010101" stroke-width="3" d="M221.845 355.6s2.324 3.62 5.134 3.557c2.438-.055 5.517-4.1 6.88-7.638.82-2.13 1.848-16.324 1.345-19.562-.654-4.202-3.008-10.03-4.733-11.916-1.727-1.886-3.675-2.136-5.21-1.434-.748.34-1.465 1.856-2.03 2.78-.424.7-1.252 1.524-1.292 2.536-.022.59.397 1.208.636 1.627.877 1.55 3.414 4.148 3.414 4.148s-3.202 2.655-4.608 2.215c-1.274-.398-2.906-2.385-3.485-4.397-.75-2.604-.545-7.014.07-9.742.546-2.43 2.07-5.103 3.347-6.47 1.376-1.477 5.185-2.463 5.185-2.463s-5.854 1.328-8.256.317c-2.037-.856-4.585-3.338-6.13-5.79-.787-1.248-1.74-3.323-1.975-5.135-.285-2.21-.02-5.512.628-7.49.637-1.95 2.084-4.197 3.335-4.723 1.22-.515 3.007.41 4.08 1.527.9.937 2.263 4.637 2.263 4.637s-2.063-.68-2.87-.145c-.642.424-1.643 1.543-1.67 2.735-.038 1.75 1.426 3.315 2.267 4.263.967 1.09 3.646 2.15 3.646 2.15l4.52-.218 3.582.9s-4.114-15.747-5.838-21.704c-.985-3.4-2.443-12.2-3.045-15.867-.798-4.863-.584-5.406-1.47-10.22-1.02-5.545-2.86-13.113-5.333-17.024-1.43-2.262-4.602-4.713-6.466-5.613-1.566-.757-3.227-.598-4.832-.09-1.234.394-2.962 1.68-3.685 3.472-.827 2.052-1.168 5.884-.705 8.24.152.776.734 1.453 1.136 1.882.832.89 2.1 1.71 3.072 1.895 1.38.265 3.333.043 4.6-.965.348-.277.943-1.492.943-1.492s-.91 5.835-1.92 7.605c-1.07 1.875-3.113 3.327-4.62 3.59-1.69.295-4.087-.572-5.51-2.163-1.827-2.042-3.824-6.365-4.38-10.023-.64-4.225-.128-10.652 1.11-14.482 1.068-3.307 3.636-6.526 5.653-7.953 1.267-.897 4.527-.72 4.527-.72l1.93 1.14s-2.377-1.21-3.36-1.898c-1.06-.744-2.57-1.58-3.424-2.897-1.69-2.61-3.59-7.174-4.084-11.02-.315-2.465.135-5.984.634-8.366.63-2.998 1.85-7 3.294-8.97 1.458-1.99 3.993-3.335 5.838-3.456 1.133-.074 2.725.522 3.647 1.65 1.224 1.49 2.645 4.55 2.82 7.138.08 1.188-.816 3.742-.816 3.742s-1.568-3.572-2.554-4.265c-1.016-.714-2.654-.81-3.66-.027-.63.49-1.248 1.893-1.528 2.987-.54 2.104-1.005 5.512-.485 7.617.57 2.305 2.55 3.9 3.84 5.024 1.258 1.094 4.506 2.28 4.506 2.28l4.692 6.155s-.685-10.832-.607-15.493c.064-3.997.425-9.337.955-13.233.71-5.21 2.056-12.033 3.42-16.838 2.012-7.08 6.38-14.874 8.27-22.05.643-2.446 1.258-5.94 1.425-8.61.208-3.365.168-8.03-.424-11.244-.377-2.065-1.434-4.404-2.18-6.135-.818-1.903-1.79-4.947-3.044-5.893-.866-.653-2.294-.443-3.158.102s-1.848 2.002-2.32 3.23c-.472 1.23-.95 3.37-.75 4.493.202 1.123 1.763 3.725 2.284 3.448.52-.275 4.236-1.654 4.236-1.654s-1.075 5.4-2.276 6.978c-1.2 1.578-4.53 1.836-6.748 1.33-2.22-.506-5.018-4.496-6.847-7.047-1.828-2.55-3.427-5.27-4.033-8.02-.606-2.753-.467-6.648-.08-8.995.388-2.347 1.276-4.772 2.27-6.104.758-1.017 3.026-1.727 3.026-1.727s-3.515-2.444-4.706-4.28c-1.257-1.936-2.702-5.21-3.173-8.018-.533-3.194-.605-8.097.225-11.114 1.155-4.204 3.447-9.14 5.756-11.507 1.61-1.648 4.984-4.144 6.844-4.193 1.315-.034 3.204 2.603 4.133 4.204.906 1.562 1.633 4.816 1.386 7.005-.186 1.645-2.11 4.23-2.11 4.23s.536-4.342.04-5.87c-.4-1.238-1.53-2.453-2.352-2.39-1.11.086-2.583 1.955-3.038 3.725-.34 1.315-.006 3.438.323 4.75.8 3.177 4.316 8.774 4.316 8.774l7.44 3.8 4.768 5.53 1.34 3.38 2.51-9.85s4.66-8.085 7.176-10.065c1.36-1.07 3.43-1.932 4.892-1.464 1.42.456 3.126 2.48 4.132 4.276.723 1.296 1.843 3.466 1.685 5.26-.178 2.018-2.833 4.726-2.833 4.726s.64-4.134.11-5.496c-.533-1.38-2.04-1.988-3-1.896-.962.095-2.134 1.426-2.89 2.478-.923 1.29-1.947 3.51-2.477 5.354-.576 2.006-1.102 5.002-1.057 7.236.067 3.327 1.347 7.393 2.007 10.507.96 4.525 2.902 10.167 3.48 14.89.288 2.343.338 5.61.16 7.995-.11 1.47-.824 4.74-.824 4.74l-1.67 5.62s4.197-6.667 6.448-7.902c1.702-.934 4.35-1.343 5.937.042 1.944 1.698 3.575 6.552 4.342 10.097.354 1.638.506 4.122.262 5.83-.273 1.907-1.236 4.12-2.018 5.547-.544.995-2.15 2.634-2.15 2.634s1.494-5.877 1.277-8.468c-.187-2.222-1.09-5.357-2.238-6.374-1.465-1.296-4.1-.826-5.484.755-1.165 1.334-1.836 4.792-2.182 7.138-.397 2.7.4 6.604-.065 9.27-.52 2.98-2.062 6.394-3.258 8.72-1.673 3.25-4.768 6.005-6.458 9.224-1.34 2.548-5.904 13.894-6.508 16.112-.747 2.744-1.637 6.788-1.44 9.79.088 1.342 1.19 3.983 1.19 3.983s.932-4.404 1.715-5.815c1.685-3.032 4.815-5.225 7.052-6.837 1.672-1.207 4.616-.486 5.803-2.872.998-2.005 1.256-6.307.672-8.735-.416-1.726-2.12-3.52-2.865-3.73-.745-.21-1.376.786-1.376.786s1.896-4.103 3.076-4.48c1.522-.49 3.83.942 4.85 2.948.804 1.58 1.7 4.367 1.867 6.465.174 2.207-.262 5.78-.753 7.846-.52 2.19-2.474 3.51-3.386 5.274-.637 1.234-2.093 2.892-1.858 4.49.3 2.028 2.608 1.847 3.633 2.94 1.715 1.828 3.973 4.524 5.275 7.188.778 1.593 1.667 4.064 1.936 6.106.486 3.715.26 9.06-.396 12.713-.398 2.217-1.264 5.203-2.33 6.606-.532.7-1.475.97-2.138 1.043-1.29.144-3.188.16-4.255-1.09-.88-1.032-1.788-5.31-1.788-5.31l-.444-1.857s3.102 3.333 4.545 2.946c.805-.216 1.883-1.56 2.153-2.9.358-1.787-.118-4.747-.87-6.098-.953-1.71-3.05-1.73-4.398-2.15-1.097-.342-2.527-1.232-3.704-.52-1.395.845-3.323 1.805-4.587 3.146-.942 1-1.976 2.883-2.77 4.22-.583.98-1.554 2.117-1.85 3.43-.96 4.227-.494 13.206-.227 17.71.178 2.988.6 6.964 1.148 9.808 1.507 7.795 2.892 12.22 4.607 19.88 1.425 6.35 4.9 20.018 6.02 26.553.49 2.86 1.335 6.597 1.606 9.547.316 3.452.186 8.16.223 11.657.053 5.563.63 10.988-.217 16.365-.53 3.372-2.026 9.356-3.186 12.22-1.296 3.197-2.928 7.843-4.79 10.033-1.718 2.016-4.51 3.413-6.57 3.66-1.62.193-4.117-.2-5.62-1.237-2.268-1.558-6.947-7.598-6.947-7.598"/><path fill="none" stroke="#010101" stroke-width="2.5" d="M206.04 68.88s-1.563 8.727-1.29 11.77c.328 3.668 1.047 8.672 2.25 11.725.957 2.428 2.87 4.818 4.35 6.245 2.42 2.332 8.752 5.08 8.752 5.08"/><path fill="#FFF" d="M215.24 111.314s-3.645 3.286-4.844 5.46c-.86 1.56-1.842 4.093-2.104 6.2-.29 2.333.493 7.89.493 7.89"/><path fill="none" stroke="#010101" stroke-width="2.5" d="M215.24 111.314s-3.645 3.286-4.844 5.46c-.86 1.56-1.842 4.093-2.104 6.2-.29 2.333.493 7.89.493 7.89"/><path fill="#F8DE01" d="M241.093 144.477s-3.152 10.814-5.05 14.782c-.637 1.33-1.7 2.763-2.498 3.804-.79 1.03-2.77 3.087-2.77 3.087"/><path fill="none" stroke="#010101" stroke-width="2.5" d="M241.093 144.477s-3.152 10.814-5.05 14.782c-.637 1.33-1.7 2.763-2.498 3.804-.79 1.03-2.77 3.087-2.77 3.087"/><path fill="#FFF" d="M237.286 177.668s-2.767-1.443-3.974-1.223c-.975.178-2.24 1.123-3.036 2.128-.737.933-1.95 4.05-1.95 4.05"/><path fill="none" stroke="#010101" stroke-width="2.5" d="M237.286 177.668s-2.767-1.443-3.974-1.223c-.975.178-2.24 1.123-3.036 2.128-.737.933-1.95 4.05-1.95 4.05M253.65 232.034s-3.434-6.99-5.29-9.358c-1.886-2.407-4.898-4.8-7.24-5.07-2.63-.306-6.224 1.535-8.54 3.762-1.56 1.5-3.137 4.796-4.308 7.14-1.228 2.455-3.633 8.815-3.633 8.815"/><path fill="#F8DE01" d="M229.81 301.405s2.444 5.45 3.105 7.67c.52 1.745 1.19 6.222 1.19 6.222"/><path fill="none" stroke="#010101" stroke-width="2.5" d="M229.81 301.405s2.444 5.45 3.105 7.67c.52 1.745 1.19 6.222 1.19 6.222"/><path fill="#EF3733" d="M130.85 138.442s-5.942-6.345-8.895-7.01c-2.1-.47-4.993-.515-7.076.122-2.994.914-7.43 6.628-10.45 7.288-1.423.31-2.612.595-3.618-.96-1.8-2.782-.37-8.248-1.466-11.782-.538-1.73-1.893-3.526-2.99-4.45-1.36-1.142-3.49-2.094-5.037-1.833-.964.163-2.908 2.163-2.908 2.163s2.53 2.21 3.14 3.79c1.343 3.462.27 9.653 1.464 13.24.47 1.413 1.612 2.783 2.42 3.78.827 1.025 1.98 2.446 3.003 2.907 2.28 1.027 5.605.855 7.94.112 2.848-.908 6.026-6.376 8.876-7.284 2.164-.69 5.182.715 7.35 1.342 1.588.458 5.026 2.935 5.026 2.935l3.217-4.36z"/><path fill="none" stroke="#010101" stroke-width="2.5" d="M130.85 138.442s-5.942-6.345-8.895-7.01c-2.1-.47-4.993-.515-7.076.122-2.994.914-7.43 6.628-10.45 7.288-1.423.31-2.612.595-3.618-.96-1.8-2.782-.37-8.248-1.466-11.782-.538-1.73-1.893-3.526-2.99-4.45-1.36-1.142-3.49-2.094-5.037-1.833-.964.163-2.908 2.163-2.908 2.163s2.53 2.21 3.14 3.79c1.343 3.462.27 9.653 1.464 13.24.47 1.413 1.612 2.783 2.42 3.78.827 1.025 1.98 2.446 3.003 2.907 2.28 1.027 5.605.855 7.94.112 2.848-.908 6.026-6.376 8.876-7.284 2.164-.69 5.182.715 7.35 1.342 1.588.458 5.026 2.935 5.026 2.935l3.217-4.36z"/><path fill="#FFF" d="M110.24 117.575c.298-1.593.555-1.063 1.465-1.607.92-.55.903-.852 1.62.272.646 1.02.834.64.922 2.156.23 3.915-.088 7.83-.98 11.462-.38 1.54-1.4 3.523-1.4 3.523s-.718-1.517-1.037-3.376c-.676-3.93-1.327-8.51-.59-12.43z"/><path fill="none" stroke="#010101" stroke-width="2.5" d="M110.24 117.575c.298-1.593.555-1.063 1.465-1.607.92-.55.903-.852 1.62.272.646 1.02.834.64.922 2.156.23 3.915-.088 7.83-.98 11.462-.38 1.54-1.4 3.523-1.4 3.523s-.718-1.517-1.037-3.376c-.676-3.93-1.327-8.51-.59-12.43z"/><path fill="#FFF" d="M111.15 147.625c-.043 1.67.306 1.324 1.05 2.37.75 1.055.675 1.33 1.574.694.814-.577.912-.11 1.304-1.483 1.01-3.54 1.505-7.402 1.402-11.333-.044-1.67-.598-4.128-.598-4.128s-.982 1.002-1.66 2.56c-1.43 3.293-2.97 7.21-3.073 11.32z"/><path fill="none" stroke="#010101" stroke-width="2.5" d="M111.15 147.625c-.043 1.67.306 1.324 1.05 2.37.75 1.055.675 1.33 1.574.694.814-.577.912-.11 1.304-1.483 1.01-3.54 1.505-7.402 1.402-11.333-.044-1.67-.598-4.128-.598-4.128s-.982 1.002-1.66 2.56c-1.43 3.293-2.97 7.21-3.073 11.32z"/><path fill="#FFF" d="M141.31 142.507s-9.3 16.41-14.063 21.625c-4.52 4.948-11.88 7.048-16.392 12.02-4.555 5.022-10.092 13.453-13.396 20.87-2.27 5.095-4.255 13.122-5.68 19.064-1.308 5.447 1.662 13.085.355 13.76-1.722.887-4.834 4.67-6.88 10.587-1.435 4.145-2.105 10.562-2.437 12.53-.453 2.69-.193 7.01.792 9.2 1.092 2.426 5.464 3.907 5.464 3.907s-1.9-5.9-1.46-8.444c.352-2.032 1.937-4.054 3.122-4.55 1.777-.745 3.986.575 3.986.575s-1.753 9.172-1.222 13c.408 2.943 2.88 5.23 3.444 8.09.533 2.712.612 6.82.13 9.574-.82 4.674-5.407 13.324-5.407 13.324s7.012-3.636 9.308-7.143c1.965-3 3.966-8.52 4.522-12.954.526-4.197-1.775-10.118-.967-14.18 1.026-5.154 7.38-12.914 7.38-12.914s.215 9.485.756 13.412c.364 2.65 2.285 5.798 1.9 8.45-.518 3.558-4.396 4.69-5.356 7.965-.965 3.29-.88 8.61-.556 12.245.233 2.59.917 6.098 1.904 8.066 1.49 2.973 4.347 5.56 6.537 6.602.763.362 2.64.037 2.64.037s-4.422-5.022-5.2-8.497c-.43-1.923-.235-5.02.286-6.887.634-2.276 2.453-4.084 3.573-5.695 1.605-2.305 4.23-4.422 5.568-7.196 1.372-2.845 2.617-7.487 3.185-11.06.602-3.778.563-13.01.563-13.01s-.238 7.05.803 10.362c.627 1.988 3.17 5.41 3.87 7.317.572 1.557 1.387 3.915 1.266 5.76-.15 2.314-1.77 4.492-2.48 6.474-.644 1.796-2.037 6.098-2.037 6.098s5.954-4.688 7.993-7.928c1.833-2.91 4.276-7.57 4.73-11.803.24-2.22-.653-5.135-1.03-7.29-.268-1.524-.8-3.457-1.054-4.99-.244-1.47-.896-3.53-.613-4.988.48-2.473 3.794-5.69 3.794-5.69s-.85 4.8-.724 6.883c.207 3.477 2.538 10.756 2.538 10.756s.338-6.53 1.398-8.403c1.854-3.274 6.083-2.286 8.4-4.476 2.685-2.534 7.27-10.394 9.182-14.54.412-.895 3.974 7.42 6.266 4.428 3.666-4.787 6.446-10.638 9.247-20.1 2.156-7.29-.368-17.784-.092-27.223.3-10.216 2.15-23.08 2-23.996-.89-5.315-4.604-11.684-4.604-11.684l-.864-24.9-7.117-15.033-31.155 14.493 3.885 8.1z"/><path fill="none" stroke="#010101" stroke-width="3" d="M141.31 142.507s-9.3 16.41-14.063 21.625c-4.52 4.948-11.88 7.048-16.392 12.02-4.555 5.022-10.092 13.453-13.396 20.87-2.27 5.095-4.255 13.122-5.68 19.064-1.308 5.447 1.662 13.085.355 13.76-1.722.887-4.834 4.67-6.88 10.587-1.435 4.145-2.105 10.562-2.437 12.53-.453 2.69-.193 7.01.792 9.2 1.092 2.426 5.464 3.907 5.464 3.907s-1.9-5.9-1.46-8.444c.352-2.032 1.937-4.054 3.122-4.55 1.777-.745 3.986.575 3.986.575s-1.753 9.172-1.222 13c.408 2.943 2.88 5.23 3.444 8.09.533 2.712.612 6.82.13 9.574-.82 4.674-5.407 13.324-5.407 13.324s7.012-3.636 9.308-7.143c1.965-3 3.966-8.52 4.522-12.954.526-4.197-1.775-10.118-.967-14.18 1.026-5.154 7.38-12.914 7.38-12.914s.215 9.485.756 13.412c.364 2.65 2.285 5.798 1.9 8.45-.518 3.558-4.396 4.69-5.356 7.965-.965 3.29-.88 8.61-.556 12.245.233 2.59.917 6.098 1.904 8.066 1.49 2.973 4.347 5.56 6.537 6.602.763.362 2.64.037 2.64.037s-4.422-5.022-5.2-8.497c-.43-1.923-.235-5.02.286-6.887.634-2.276 2.453-4.084 3.573-5.695 1.605-2.305 4.23-4.422 5.568-7.196 1.372-2.845 2.617-7.487 3.185-11.06.602-3.778.563-13.01.563-13.01s-.238 7.05.803 10.362c.627 1.988 3.17 5.41 3.87 7.317.572 1.557 1.387 3.915 1.266 5.76-.15 2.314-1.77 4.492-2.48 6.474-.644 1.796-2.037 6.098-2.037 6.098s5.954-4.688 7.993-7.928c1.833-2.91 4.276-7.57 4.73-11.803.24-2.22-.653-5.135-1.03-7.29-.268-1.524-.8-3.457-1.054-4.99-.244-1.47-.896-3.53-.613-4.988.48-2.473 3.794-5.69 3.794-5.69s-.85 4.8-.724 6.883c.207 3.477 2.538 10.756 2.538 10.756s.338-6.53 1.398-8.403c1.854-3.274 6.083-2.286 8.4-4.476 2.685-2.534 7.27-10.394 9.182-14.54.412-.895 3.974 7.42 6.266 4.428 3.666-4.787 6.446-10.638 9.247-20.1 2.156-7.29-.368-17.784-.092-27.223.3-10.216 2.15-23.08 2-23.996-.89-5.315-4.604-11.684-4.604-11.684l-.864-24.9-7.117-15.033-31.155 14.493 3.885 8.1z"/><path fill="#FFF" d="M167.743 83.292s1.698-3.768 2.23-6.984c.324-1.96.158-7.726-.01-10.59-.158-2.684-.668-3.747-.668-3.747s-.335 3.274-.785 4.96c-.754 2.836-3.772 8.1-3.772 8.1s.542-3.762.494-5.397c-.15-5.048-2.508-16.246-2.508-16.246s-1.207 10.917-2.8 14.627c-1.375 3.205-3.15 2.123-5.326 3.396-5.442 3.185-15.273.562-21.493 4.79-2.562 1.744-7.847 7.968-7.847 7.968s-6.54 3.793-10.146 2.596c-1.325-.44-2.857-2.573-4.188-2.152-2.36.747-4.252.638-6.23 1.656-2.485 1.28-2.706 10.33-1.94 14.622.258 1.437 1.36 2.743 1.564 4.207.34 2.445-.888 5.952-.48 8.364.48 2.848 2.002 6.43 3.534 7.724 2.102 1.776 5.39.338 7.624-.94 2.45-1.4 5.085-.983 6.457-4.79.554-1.536 2.273-7.293 2.273-7.293s3.857 4.97 4.723 9.136c.754 3.632.655 9.408-.322 12.9-1.44 5.15-5.257 10.416-8.333 12.44-2.765 1.816-7.103-1.806-9.82.21-2.16 1.6-4.296 3.056-5.076 6.903-.506 2.49-.856 7.747.106 9.766 1.114 2.335 3.53.202 4.382 2.853.482 1.5.332 7.328.332 7.328s3.93-4.342 4.878-7.256c.6-1.848.667-6.965.667-6.965s9.522 1.25 13.614 1.24c2.83-.01 7.674 1.26 10.227-.904 2-1.694 3.613-5.937 4.1-9.707.18-1.392-.758-4.545-.758-4.545s1.47-1.54 2.206-.317c1.824 3.028 2.485 6.792 2.5 11.196.024 7.744-.64 19.183-2.652 26.12-1.18 4.07-3.272 9.408-5.553 13.237-.926 1.557-1.882 2.864-2.823 3.736-2.288 2.125-6.04 2.063-8.257 4.417-1.493 1.587-3.233 4.597-4.075 7.266-.684 2.167-1.146 5.55-1.078 8.008.086 3.105 1.91 9.792 1.91 9.792l1.626-7.93 7.937-6.47s10.43-3.886 14.25-8.023c4.218-4.565 4.343-7.19 4.343-7.19s-1.023 9.9-6.015 17.584c-1.56 2.402-6.04 5.946-6.04 5.946s8.478-.957 11.688-3.674c3.804-3.22 8.044-10.368 10.55-16.3 2.267-5.364 5.89-23.737 5.89-23.737s-2.524-17.313-4.48-25.59c-1.062-4.504-4.91-13.778-4.91-13.778s3.75 9.547 4.898 14.06c2.545 9.996 5.98 34.954 5.98 34.954s3.155-15.932 3.683-23.038c.388-5.228.592-12.454-.15-17.548-.63-4.344-3.97-13.215-3.97-13.215s3.142 9.247 3.933 13.608c.9 4.96-.152 12.788 1.448 17.172 1.862 5.103 6.175 10.99 9.66 11.103 1.442.047 3.18-2.436 4.137-4.33 1.292-2.555 2.81-7.008 2.618-10.38-.127-2.224-2.463-6.065-2.463-6.065s-1.21 5.3-2.054 6.9c-.73 1.39-2.104.83-3.01-.17-.813-.894-.656-5.216-.793-6.874-.674-8.19 2.295-17.783.72-24.45-.538-2.27-2.313-8.324-3.915-10.154-1.05-1.197-5.07-4.382-5.07-4.382s2.726-2.978 3.51-4.885c1.698-4.116 2.775-10.885 3.302-15.854.377-3.564.114-12.063.114-12.063s-6.424.28-9.146.97c-1.57.394-5.155 2.075-5.155 2.075z"/><path fill="none" stroke="#010101" stroke-width="3" d="M167.743 83.292s1.698-3.768 2.23-6.984c.324-1.96.158-7.726-.01-10.59-.158-2.684-.668-3.747-.668-3.747s-.335 3.274-.785 4.96c-.754 2.836-3.772 8.1-3.772 8.1s.542-3.762.494-5.397c-.15-5.048-2.508-16.246-2.508-16.246s-1.207 10.917-2.8 14.627c-1.375 3.205-3.15 2.123-5.326 3.396-5.442 3.185-15.273.562-21.493 4.79-2.562 1.744-7.847 7.968-7.847 7.968s-6.54 3.793-10.146 2.596c-1.325-.44-2.857-2.573-4.188-2.152-2.36.747-4.252.638-6.23 1.656-2.485 1.28-2.706 10.33-1.94 14.622.258 1.437 1.36 2.743 1.564 4.207.34 2.445-.888 5.952-.48 8.364.48 2.848 2.002 6.43 3.534 7.724 2.102 1.776 5.39.338 7.624-.94 2.45-1.4 5.085-.983 6.457-4.79.554-1.536 2.273-7.293 2.273-7.293s3.857 4.97 4.723 9.136c.754 3.632.655 9.408-.322 12.9-1.44 5.15-5.257 10.416-8.333 12.44-2.765 1.816-7.103-1.806-9.82.21-2.16 1.6-4.296 3.056-5.076 6.903-.506 2.49-.856 7.747.106 9.766 1.114 2.335 3.53.202 4.382 2.853.482 1.5.332 7.328.332 7.328s3.93-4.342 4.878-7.256c.6-1.848.667-6.965.667-6.965s9.522 1.25 13.614 1.24c2.83-.01 7.674 1.26 10.227-.904 2-1.694 3.613-5.937 4.1-9.707.18-1.392-.758-4.545-.758-4.545s1.47-1.54 2.206-.317c1.824 3.028 2.485 6.792 2.5 11.196.024 7.744-.64 19.183-2.652 26.12-1.18 4.07-3.272 9.408-5.553 13.237-.926 1.557-1.882 2.864-2.823 3.736-2.288 2.125-6.04 2.063-8.257 4.417-1.493 1.587-3.233 4.597-4.075 7.266-.684 2.167-1.146 5.55-1.078 8.008.086 3.105 1.91 9.792 1.91 9.792l1.626-7.93 7.937-6.47s10.43-3.886 14.25-8.023c4.218-4.565 4.343-7.19 4.343-7.19s-1.023 9.9-6.015 17.584c-1.56 2.402-6.04 5.946-6.04 5.946s8.478-.957 11.688-3.674c3.804-3.22 8.044-10.368 10.55-16.3 2.267-5.364 5.89-23.737 5.89-23.737s-2.524-17.313-4.48-25.59c-1.062-4.504-4.91-13.778-4.91-13.778s3.75 9.547 4.898 14.06c2.545 9.996 5.98 34.954 5.98 34.954s3.155-15.932 3.683-23.038c.388-5.228.592-12.454-.15-17.548-.63-4.344-3.97-13.215-3.97-13.215s3.142 9.247 3.933 13.608c.9 4.96-.152 12.788 1.448 17.172 1.862 5.103 6.175 10.99 9.66 11.103 1.442.047 3.18-2.436 4.137-4.33 1.292-2.555 2.81-7.008 2.618-10.38-.127-2.224-2.463-6.065-2.463-6.065s-1.21 5.3-2.054 6.9c-.73 1.39-2.104.83-3.01-.17-.813-.894-.656-5.216-.793-6.874-.674-8.19 2.295-17.783.72-24.45-.538-2.27-2.313-8.324-3.915-10.154-1.05-1.197-5.07-4.382-5.07-4.382s2.726-2.978 3.51-4.885c1.698-4.116 2.775-10.885 3.302-15.854.377-3.564.114-12.063.114-12.063s-6.424.28-9.146.97c-1.57.394-5.155 2.075-5.155 2.075z"/><path fill="#FFF" d="M132.79 93.894c-1.065 4.058 1.27 9.85 5.218 12.94 3.946 3.088 8.008 2.303 9.072-1.755s-1.272-9.853-5.22-12.94-8.007-2.304-9.07 1.754z"/><path fill="none" stroke="#010101" stroke-width="2.5" d="M132.79 93.894c-1.065 4.058 1.27 9.85 5.218 12.94 3.946 3.088 8.008 2.303 9.072-1.755s-1.272-9.853-5.22-12.94-8.007-2.304-9.07 1.754z"/><path fill="#FFF" d="M142.91 96.607c-.043 4.838-2.33 8.73-5.11 8.694-2.78-.035-4.998-3.985-4.953-8.823v-.012c.044-4.837 2.332-8.73 5.11-8.693 2.78.037 4.998 3.985 4.954 8.824v.01z"/><path fill="none" stroke="#010101" stroke-width="2.5" d="M142.91 96.607c-.043 4.838-2.33 8.73-5.11 8.694-2.78-.035-4.998-3.985-4.953-8.823v-.012c.044-4.837 2.332-8.73 5.11-8.693 2.78.037 4.998 3.985 4.954 8.824v.01z"/><path fill="#010101" d="M138.364 89.007c-.38-.008-.72.09-1.063.156-.682.13-1.26.323-1.26.323l.457 3.733s.47-.154 1.023-.26c.554-.106 1.245.065 1.14-.02-.048-.038.39.837.422 1.032.106.627.02 2.96-.167 3.59-.065.223-.587 1-.618 1.02.164-.09-.38-.018-.785-.15-.405-.13-.744-.283-.744-.283s-1.11-.247-1.273.385c-.218.836.61 2.848.61 2.848s.438.186.96.356c.523.167 1.056.462 1.846.025.944-.522 1.532-1.55 1.935-2.913.54-1.83.69-3.964.35-5.98-.238-1.43-.666-2.66-1.597-3.405-.443-.352-.856-.453-1.234-.46z"/><path fill="#FFF" d="M137.507 83.122s-1.74.448-2.463.936c-1.416.96-2.857 3.16-3.063 5.777-.107 1.37.187 2.537.747 3.504.604 1.038 1.593.924 2.443 1.002 1.247.117 2.812-1.572 4.026-1.3 1.75.39 4.005 2.29 5.31 4.343.61.96.726 3.302 1.41 4.095.617.712 1.78 1.188 2.447.617.688-.588 1.06-2.58 1.263-3.863.098-.62.118-1.518.02-2.134-.147-.93-.6-2.025-.978-2.73-.474-.88-1.873-2.355-1.873-2.355"/><path fill="none" stroke="#010101" stroke-width="2.5" d="M137.507 83.122s-1.74.448-2.463.936c-1.416.96-2.857 3.16-3.063 5.777-.107 1.37.187 2.537.747 3.504.604 1.038 1.593.924 2.443 1.002 1.247.117 2.812-1.572 4.026-1.3 1.75.39 4.005 2.29 5.31 4.343.61.96.726 3.302 1.41 4.095.617.712 1.78 1.188 2.447.617.688-.588 1.06-2.58 1.263-3.863.098-.62.118-1.518.02-2.134-.147-.93-.6-2.025-.978-2.73-.474-.88-1.873-2.355-1.873-2.355M105.386 102.104s3.117-7.03 4.528-8.02c1.41-.99 1.934-.84 2.202.03.268.872.17 2.24-.886 4.012-1.054 1.77-5.844 3.978-5.844 3.978z"/><path fill="#010101" d="M167.363 95.9s1.758-4.773 2.93-5.934c1.848-1.832 6.966-2.125 6.966-2.125s.793 7.75-.414 9.86c-.596 1.043-2.192-.648-2.798.378-.794 1.35.424 5.052-.38 6.386-.54.898-2.477.243-2.477.243s.087-5.476-.73-7.097c-.642-1.272-3.097-1.71-3.097-1.71z"/><path fill="none" stroke="#010101" stroke-width="2.5" d="M167.363 95.9s1.758-4.773 2.93-5.934c1.848-1.832 6.966-2.125 6.966-2.125s.793 7.75-.414 9.86c-.596 1.043-2.192-.648-2.798.378-.794 1.35.424 5.052-.38 6.386-.54.898-2.477.243-2.477.243s.087-5.476-.73-7.097c-.642-1.272-3.097-1.71-3.097-1.71zM162.685 98.66s-3.557 12.042-5.896 16.063c-1.234 2.122-3.25 4.438-4.91 5.312-3.18 1.68-11.437 2.543-11.437 2.543l-.523 1.133s9.313-4.046 11.925.17c.974 1.568.94 5.59.37 7.692-.487 1.8-1.786 4.3-2.772 5.31-1.537 1.575-5.58 3.46-5.58 3.46M159.454 160.122s.43 9.26-.123 13.07c-.873 6.01-2.45 11.197-4.285 16.523-.74 2.148-2.715 6.88-2.715 6.88M103.062 237.75s-4.025 4.604-5.496 7.37c-1.09 2.046-2.755 8.22-2.755 8.22M144.248 226.798s-7.727 4.137-10.945 7.868c-1.49 1.726-2.85 5.41-3.642 8.202-1.233 4.365-2.026 12.496-2.026 12.496M143.193 247.65s4.437-7.41 6.253-10.014c2.45-3.514 7.11-5.34 8.928-9.87 1.166-2.904 1.434-11.512 1.434-11.512M102.548 198.532s-.44 10.51-1.463 14.586c-.508 2.024-1.724 5.625-3.012 8.12-2.57 4.985-5.665 8.71-5.665 8.71M111.616 252.832s1.49-9.76 2.697-13.79c.787-2.628 3.605-7.638 3.605-7.638"/><path fill="#DEC35E" d="M206.505 114.34c-5.132 1.596-9.888 3.443-14.724 5.408l-23.38-26.54-23.382-26.54c2.475-4.398 5.198-9.06 7.367-13.76 0 0-1.712 7.375-.65 10.833.59 1.923 1.918 3.805 3.675 4.78 2.315 1.286 7.907.785 7.907.785s-.648 4.55.003 6.677c.612 1.998 2.058 3.69 3.508 5.195 1.283 1.33 2.688 2.82 4.48 3.267 2.717.677 8.315-1.18 8.315-1.18s-1.728 4.5-1.712 6.854c.014 1.943.518 3.954 1.49 5.635.976 1.682 2.443 3.162 4.147 4.1 2.308 1.268 7.702 1.765 7.702 1.765s-.732 4.256-.112 6.244c.6 1.923 1.882 3.745 3.525 4.912 1.738 1.234 4.02 1.55 6.137 1.81 1.89.23 5.705-.245 5.705-.245z"/><path fill="#F6E179" d="M163.36 76.568l-5.06 4.456 28.26 32.252 4.59-3.58-.46-7.027-5.755-1.435-5.48-4.464-1.696-3.152.657-9.098-5.167.99-5.288-2.31-3.862-4.033"/><path fill="#F6E179" d="M149.774 71.345l3.694-3.72 3.407 2.11 5.228.66.39 5.542.563 1.518-4.47 4.246"/><path fill="#D2BA47" d="M150.645 73.055l-5.627-6.387c2.475-4.398 5.198-9.06 7.367-13.76 0 0-1.712 7.375-.65 10.833.59 1.923 1.918 3.805 3.675 4.78l-4.765 4.535zm40.493 34.807c.6 1.923 1.882 3.745 3.525 4.912 1.738 1.234 4.02 1.55 6.137 1.81 1.89.23 5.705-.245 5.705-.245-5.132 1.596-9.888 3.443-14.724 5.408l-6.26-7.104.097-.086 5.52-4.696z"/><path fill="#E8CE55" d="M177.904 84.816l-9.207 8.887 10.207 11.76 5.23-4.608-3.252-1.935-2.868-4.133-.753-6.306"/><path fill="#D0B62C" d="M179.766 104.24l4.04-3.406 6.622 2.065.38 5.705-4.836 4.26-7.067-8.02"/><path fill="#E8CE55" d="M152.993 66.032l-4.474 4.696 2.92 3.313 4.723-4.76-1.435-.75"/><path fill="#F7ECA8" d="M152.96 75.663l6.267-5.366 3.06-.22-.38 3.435-6.203 5.618"/><path fill="#D2BA47" d="M179.61 83.29s-5.605 1.85-8.32 1.174c-1.795-.448-3.198-1.938-4.482-3.268-1.45-1.504-2.896-3.197-3.508-5.195-.65-2.127-.003-6.676-.003-6.676s-5.59.5-7.906-.784c-1.756-.976-3.086-2.858-3.676-4.78-1.06-3.457.65-10.834.65-10.834-.85 1.84-1.78 3.673-2.75 5.487 0 0-.23 2.46-.07 3.842.163 1.428.66 2.843 1.39 4.08.706 1.197 1.68 2.267 2.8 3.086 1.175.86 2.567 1.42 3.967 1.815.975.274 2.953.294 2.953.294s.08 2.238.292 3.295c.226 1.13.542 2.396 1.086 3.413.638 1.19 1.58 2.198 2.49 3.195 1.01 1.106 2.056 2.207 3.277 3.072 1.018.72 1.806 1.053 3.01 1.378 1.265.34 4.27.603 5.582.54-.033.994-.59 3.785-.394 5.21.17 1.235.71 2.41 1.297 3.51.705 1.32 1.664 2.5 2.635 3.64.874 1.027 1.756 2.087 2.856 2.87.938.67 2.022 1.134 3.117 1.5 1.022.342 2.573.663 2.573.663s.113 1.79.262 2.79c.215 1.438.596 2.89 1.3 4.162.672 1.215 1.61 2.315 2.707 3.166 1.137.88 2.478 1.552 3.873 1.895 1.352.33 3.892.353 3.892.353 1.922-.734 3.858-1.43 5.79-2.04 0 0-7.533.77-10.83-.72-1.832-.827-3.53-2.382-4.277-4.25-.984-2.457.218-7.94.218-7.94s-4.594.07-6.623-.846c-1.905-.86-3.402-2.505-4.71-4.134-1.16-1.44-2.46-3.022-2.678-4.858-.33-2.78 2.212-8.105 2.212-8.105z"/><path fill="none" stroke="#806829" stroke-width="1.177" d="M206.505 114.34c-5.132 1.596-9.888 3.443-14.724 5.408l-6.105-6.93-17.275-19.61-17.83-20.24-5.552-6.3c2.475-4.398 5.198-9.06 7.367-13.76 0 0-1.712 7.375-.65 10.833.59 1.923 1.918 3.805 3.675 4.78 2.315 1.286 7.907.785 7.907.785s-.648 4.55.003 6.677c.612 1.998 2.058 3.69 3.508 5.195 1.283 1.33 2.688 2.82 4.48 3.267 2.717.677 8.315-1.18 8.315-1.18s-1.728 4.5-1.712 6.854c.014 1.943.518 3.954 1.49 5.635.976 1.682 2.443 3.162 4.147 4.1 2.308 1.268 7.702 1.765 7.702 1.765s-.732 4.256-.112 6.244c.6 1.923 1.882 3.745 3.525 4.912 1.738 1.234 4.02 1.55 6.137 1.81 1.89.23 5.705-.245 5.705-.245z"/><path fill="#F6E179" d="M164.828 70.77c-.426.344-.688.907-.826 1.42-.34 1.254-.127 2.49.304 3.718.466 1.33 1.09 2.346 2.01 3.414.767.89 2.26 2.295 3.278 2.88 1.254.724 2.23.94 3.67 1.085.81.082 1.68-.152 2.433-.464.868-.36 1.947-1.458 1.947-1.458-1.29-.682-2.596-1.112-3.91-1.377-1.49-.3-2.99-.39-4.498-.39l11.434-10.202c-.237 2.103-.607 3.807-.555 5.654.045 1.555.167 2.267.667 3.422.7-1.07 1.184-1.652 1.525-3.13.474-2.047 1.063-4.154 1.365-6.395 2.145 1.747 4.038 3.712 5.866 5.786 1.826 2.074 3.537 4.2 5 6.547-2.262.018-4.427.337-6.518.55-1.51.152-2.146.56-3.297 1.118 1.083.64 1.774.852 3.312 1.093 1.825.287 3.563.134 5.68.164L182.152 94.26c.188-1.495.288-2.996.18-4.51-.1-1.338-.36-2.688-.875-4.054 0 0-1.225.932-1.69 1.75-.406.707-.746 1.54-.768 2.354-.038 1.447.054 2.442.612 3.776.454 1.084 1.66 2.743 2.446 3.616.943 1.045 1.873 1.794 3.133 2.424 1.164.582 2.364.948 3.652.77.525-.073 1.116-.262 1.512-.64 0 0 3.303 3.132 2.805 3.563-.872.752-1.103 2.037-1.093 3.216.013 1.642.496 3.103 1.92 4.45 2.114 2.002 5.86 2.208 8.248 1.637-4.608-3.585-4.18-2.416-5.91-3.8l11.89-5.68c-1.645 2.87-3.352 5.708-3.045 9.564 2.914-1.834 4.973-5.72 7.15-9.636 2.305 2.88 4.1 5.73 5.226 8.535-4.88 1.003-9.284 2.243-13.478 3.644-5.128.977-8.98-.042-11.47-2.578-1.224-1.248-2.26-2.55-2.67-4.43-.32-1.47-.492-3.16-.153-4.906 0 0-2.96-.368-4.395-.97-1.65-.694-3.257-1.732-4.513-3.01-1.3-1.32-2.692-3.376-3.44-5.07-.753-1.695-.818-2.844-.846-4.657-.018-1.306.778-4.157.778-4.157s-2.93.43-4.22.247c-1.796-.255-2.927-.466-4.516-1.424-1.585-.958-3.45-2.6-4.595-4.054-1.11-1.407-1.937-3.13-2.417-4.856-.415-1.5-.41-4.48-.41-4.48-1.772.116-3.428-.267-4.846-.772-1.813-.644-2.976-1.835-4.06-3.207-2.202-2.79-2.726-6.74-1.11-11.703 1.92-3.983 3.704-8.196 5.314-12.91 2.642 1.47 5.24 3.608 7.808 6.26-4.16 1.665-8.273 3.218-10.46 5.877 3.786.792 6.816-.543 9.87-1.812l-7.13 11.078c-1.157-1.89-.05-1.318-3.027-6.342-.867 2.295-1.136 6.04.585 8.39 1.156 1.58 2.544 2.246 4.17 2.465 1.17.157 2.474.09 3.33-.678"/><path fill="#F6E179" d="M152.297 66.915c-2.203-2.79-2.727-6.74-1.11-11.703 1.918-3.983 3.703-8.196 5.313-12.91 2.642 1.47 5.24 3.61 7.808 6.26-4.16 1.665-8.273 3.218-10.46 5.877 3.786.79 6.816-.545 9.87-1.814l-7.13 11.078c-1.157-1.89-.05-1.318-3.027-6.342-.865 2.295-1.134 6.04.587 8.39l-1.85 1.163zm41.69 44.06c2.114 2 5.86 2.207 8.248 1.636-4.608-3.584-4.18-2.415-5.91-3.8l11.89-5.678c-1.645 2.87-3.352 5.707-3.045 9.563 2.914-1.834 4.973-5.72 7.15-9.636 2.305 2.88 4.1 5.728 5.226 8.533-4.88 1.003-9.284 2.243-13.478 3.644-5.128.978-8.98-.04-11.47-2.577l-.14.032 1.528-1.718z"/><path fill="#F6E179" d="M181.31 81.972l-.507 3.403-2.527 3.65.426 3.81 2.277 4.105 3.455 3.067 4.022 1.145 2.17-1.243 2.273 2.77-1.523 2.26.57 4.354 2.018 2.577 4.26 1.605 3.622-.26 1.013 2.29-3.652.035-3.3-.61-1.847-1.05-1.185-.966-1.287-1.46-.896-1.305-.714-1.38-.356-2.115.07-3.245-2.63-.61-2.354-.773-2.535-1.45-1.968-1.95-1.923-2.66-1.257-2.66-.465-3.19.426-3.22.39-1.46-1.496.204-3.25.017-3.105-.864-2.482-1.58-2.394-2.244-1.688-2.2-1.12-2.696-.468-2.433-.276-2.688-3.227-.337-2.052-.62-1.278-.882-1.18-1.053-1.287-1.46-.81-1.3-.81-1.964-.188-3.35.496-3.618 2.145 1.293-.715 3.56 1.055 4.43 2.3 2.326 4.247 1.113 2.437-1.226 2.46 2.604-1.506 1.996.63 4.135 2.605 3.814 3.786 2.776 3.725.902 4.14-2.223"/><path fill="#F7ECA8" d="M164.832 70.77c-.425.344-.687.907-.825 1.418-.34 1.256-.127 2.492.304 3.72.467 1.328 1.092 2.346 2.01 3.413.767.892 2.26 2.296 3.28 2.883 1.253.723 2.228.94 3.667 1.083.812.083 1.682-.15 2.435-.463.868-.36 1.947-1.458 1.947-1.458-1.29-.682-2.597-1.112-3.913-1.377-1.488-.3-2.988-.39-4.496-.392l11.435-10.2c-.237 2.102-.608 3.806-.555 5.653.045 1.554.168 2.266.667 3.42.7-1.07 1.184-1.65 1.525-3.128.473-2.047 1.063-4.155 1.365-6.396 2.145 1.746 4.038 3.71 5.863 5.783 1.826 2.07 3.536 4.198 4.998 6.544-2.26.02-4.426.337-6.517.548-1.508.153-2.145.56-3.296 1.12 1.083.64 1.774.852 3.312 1.092 1.825.286 3.563.133 5.68.163l-11.562 10.055c.188-1.495.288-2.995.178-4.508-.097-1.34-.36-2.69-.873-4.055 0 0-1.225.932-1.692 1.747-.405.708-.746 1.542-.767 2.356-.037 1.447.055 2.442.613 3.777.454 1.084 1.658 2.743 2.446 3.616.94 1.045 1.872 1.794 3.132 2.424 1.163.58 2.363.947 3.65.77.526-.073 1.117-.262 1.512-.64 0 0 3.304 3.13 2.806 3.562-.872.753-1.102 2.038-1.093 3.217.013 1.64.497 3.1 1.92 4.448 2.114 2.002 5.863 2.208 8.25 1.638-4.61-3.586-4.18-2.416-5.912-3.8l11.89-5.68c-1.645 2.87-3.35 5.71-3.044 9.564 2.914-1.834 4.974-5.72 7.15-9.636 2.306 2.88 4.1 5.728 5.227 8.534l-1.14.24c-.853-2.712-2.356-4.852-3.99-6.876-2.55 5.39-5.263 7.68-7.628 9.067-.57-1.894-.897-4.07.88-8.71-2.258 1.363-4.688 2.528-7.287 3.5 2.13.96 4.097 2.167 5.115 4.475 0 0-2.314.66-3.646.643-1.527-.02-3.11-.252-4.492-.905-1.923-.91-3.364-2.26-4.01-4.216-.424-1.282-.678-3.63.025-4.876 0 0 .678-1.072 1.15-1.54.534-.53-.957-2.236-.957-2.236l-1.666.91c-.89.487-2.413.505-3.405.293-1.002-.213-1.99-.597-2.85-1.154-.99-.64-1.916-1.52-2.683-2.414-.81-.945-1.448-1.82-2.017-2.924-.54-1.048-.82-2.16-1.02-3.324-.56-3.306 1.28-5.622 3.728-7.703.724 1.398 1.106 2.6 1.313 3.702.303 1.604.234 2.993.31 4.465l8.01-6.818c-1.495-.09-2.948.094-4.486-.296-1.046-.264-2.814-1.026-3.98-2.083 1.91-1.052 2.005-1.833 9.747-2.494-1.165-1.635-2.034-3.03-3.737-4.966-1.704-1.935-2.98-2.972-4.456-4.333-1.63 7.598-2.418 7.594-3.703 9.355-.9-1.29-1.435-3.14-1.564-4.21-.193-1.576.172-2.994.272-4.487l-7.772 7.087c1.45.258 2.836.366 4.39.868 1.066.345 2.21.876 3.508 1.77-2.372 2.167-4.9 3.7-8.11 2.726-1.13-.342-2.196-.76-3.17-1.43-1.024-.703-1.81-1.446-2.645-2.367-.792-.876-1.546-1.905-2.057-2.968-.443-.923-.7-1.95-.785-2.97-.084-1.012.126-2.522.72-3.343l1.114-1.54M162.474 68.283c-.522.41-1.673.946-1.673.946-1.323.54-3.62-.01-4.84-.59-1.86-.888-3.018-2.488-3.677-4.51-.473-1.453-.503-3.053-.33-4.57.15-1.324 1.096-3.538 1.096-3.538 2.16 1.3 3.11 3.405 3.793 5.64 1.293-2.458 2.755-4.722 4.392-6.788-4.827 1.178-6.945.58-8.75-.225 1.675-2.172 4.287-4.576 9.956-6.426-1.8-1.874-3.734-3.636-6.318-4.822.13-.364.256-.732.383-1.102 2.642 1.472 5.24 3.61 7.808 6.26-4.16 1.665-8.273 3.218-10.46 5.877 3.786.79 6.817-.545 9.87-1.814l-7.13 11.078c-1.157-1.89-.05-1.317-3.027-6.34-.865 2.294-1.135 6.038.585 8.39 1.158 1.58 2.546 2.244 4.172 2.463 1.17.158 2.474.09 3.33-.677"/><linearGradient id="j" gradientUnits="userSpaceOnUse" x1="-47.887" y1="-43.346" x2="-46.887" y2="-43.346" gradientTransform="scale(91.3852) rotate(48.62 24.31 76.78)"><stop offset="0" stop-color="#FFF"/><stop offset="1"/></linearGradient><path fill="url(#j)" d="M203.56 113.537l.308-.082-.126-.298c-.965-2.187-2.766-3.405-4.707-4.34 2.174-.846 4.22-1.833 6.152-2.957-1.486 4.193-1.227 6.41-.68 8.23l.102.33.308-.174c2.33-1.368 5.01-3.675 7.52-8.787 1.517 1.914 2.9 3.928 3.69 6.443l.53-.168c-.866-2.762-2.394-4.938-4.032-6.973l-.282-.35-.185.408c-2.418 5.11-4.953 7.342-7.206 8.727-.49-1.778-.686-3.844.964-8.153l.287-.755-.692.418c-2.24 1.353-4.656 2.514-7.24 3.482l-.637.234.62.27c2.006.903 3.79 2.032 4.804 4.05l.012.063.487.38zm-50.373-57.055c1.87 1.26 2.763 3.167 3.404 5.27l.19.65.32-.596c1.287-2.44 2.743-4.692 4.368-6.744l.502-.633-.785.188c-4.484 1.094-6.514.632-8.216-.08 1.655-2.06 4.197-4.285 9.57-6.038l.42-.14-.303-.316c-1.813-1.883-3.78-3.673-6.41-4.88l-.233.505c2.398 1.1 4.217 2.724 5.928 4.474-5.387 1.843-8.014 4.21-9.664 6.352l-.22.275.323.15c1.734.773 3.9 1.315 8.24.37-1.354 1.774-2.59 3.678-3.7 5.725-.684-2.043-1.665-3.983-3.712-5.216l-.28-.164-.12.296-.06-.025.44.575zm11.235 12.816l-.03.027-.032.04-.7 1.057.095.133.354.192.684-1.028m-2.48-1.64l.348.567m18.8 14.96l.268-.222.16.306c.735 1.424 1.125 2.662 1.337 3.788.27 1.428.255 2.67.294 3.93l7.023-5.97c-1.23-.017-2.48.05-3.82-.29-1.097-.278-2.883-1.035-4.103-2.14l-.286-.265.337-.188c.933-.514 1.47-.996 2.736-1.418 1.203-.4 3.162-.737 6.66-1.054-1.036-1.477-1.905-2.795-3.45-4.55-1.543-1.75-2.735-2.772-4.07-3.987-.755 3.43-1.336 5.332-1.885 6.475-.577 1.205-1.123 1.677-1.75 2.536l-.23.312-.226-.318c-.943-1.35-1.47-3.217-1.605-4.338-.168-1.37.044-2.6.184-3.82l-6.792 6.2c1.24.196 2.477.347 3.854.793 1.09.353 2.263.888 3.58 1.795l.292.206-.262.23-.662-.162c-1.145-.74-2.17-1.23-3.12-1.54-1.518-.49-2.888-.605-4.355-.867l-.55-.1.412-.378 7.773-7.08.507-.473-.043.69c-.105 1.527-.46 2.916-.274 4.43.114.934.586 2.545 1.324 3.757.525-.67.97-1.154 1.436-2.122.545-1.134 1.15-3.013 1.964-6.802l.102-.47.355.325c1.468 1.354 2.757 2.404 4.46 4.338s2.583 3.346 3.742 4.973l.285.402-.48.04c-3.86.33-5.81.687-7.002 1.084-1.022.34-1.552.733-2.286 1.17 1.107.886 2.648 1.543 3.56 1.774 1.48.375 2.91.205 4.437.295l.685.037-.53.45-8.006 6.812-.422.37-.037-.566c-.075-1.49-.01-2.854-.305-4.422-.186-.98-.544-2.06-1.138-3.283l-.08-.693z"/><path fill="#FFF0A7" d="M188.083 75.863c-.85-.9-2.083-2.08-2.85-2.774 0 0-1.16 3.456-1.895 5.12-.525 1.19-1.806 3.532-1.785 3.556l6.53-5.903zM175.96 76.06c.78-.642 1.652-1.755 2.343-2.24 0 0-.194 2.163.208 3.562.288 1 1.658 3.554 1.64 3.57l-4.19-4.892zM186.48 88c.733-.693 1.947-1.418 2.516-2.04 0 0-2.17-.08-3.507-.657-.956-.41-3.317-2.092-3.336-2.075l4.325 4.77z"/><path fill="#E8CE55" d="M175.77 76.15c-.735.692-1.95 1.416-2.517 2.04 0 0 2.17.08 3.506.655.954.41 3.315 2.092 3.335 2.075l-4.326-4.77zM186.287 88.088c-.78.64-1.65 1.754-2.34 2.238 0 0 .193-2.162-.21-3.56-.287-1-1.657-3.554-1.638-3.57l4.187 4.892z"/><path fill="#F7ECA8" d="M156.637 45.186c1.1.57 2.573 1.43 3.45 1.977 0 0-3.034 1.676-4.432 2.84-.998.832-2.723 2.79-2.752 2.777l3.734-7.594z"/><path fill="#E8CE55" d="M214.648 111.138c-.426-1.16-1.094-2.733-1.524-3.672 0 0-2.046 2.8-3.376 4.038-.952.886-3.11 2.35-3.103 2.38l8.003-2.746z"/><path fill="none" stroke="#806829" stroke-width="1.177" d="M164.828 70.77c-.426.344-.688.907-.826 1.42-.34 1.254-.127 2.49.304 3.718.466 1.33 1.09 2.346 2.01 3.414.767.89 2.26 2.295 3.278 2.88 1.254.724 2.23.94 3.67 1.085.81.082 1.68-.152 2.433-.464.868-.36 1.947-1.458 1.947-1.458-1.29-.682-2.596-1.112-3.91-1.377-1.49-.3-2.99-.39-4.498-.39l11.434-10.202c-.237 2.103-.607 3.807-.555 5.654.045 1.555.167 2.267.667 3.422.7-1.07 1.184-1.652 1.525-3.13.474-2.047 1.063-4.154 1.365-6.395 2.145 1.747 4.038 3.712 5.866 5.786 1.826 2.074 3.537 4.2 5 6.547-2.262.018-4.427.337-6.518.55-1.51.152-2.146.56-3.297 1.118 1.083.64 1.774.852 3.312 1.093 1.825.287 3.563.134 5.68.164L182.152 94.26c.188-1.495.288-2.996.18-4.51-.1-1.338-.36-2.688-.875-4.054 0 0-1.225.932-1.69 1.75-.406.707-.746 1.54-.768 2.354-.038 1.447.054 2.442.612 3.776.454 1.084 1.66 2.743 2.446 3.616.943 1.045 1.873 1.794 3.133 2.424 1.164.582 2.364.948 3.652.77.525-.073 1.116-.262 1.512-.64 0 0 3.303 3.132 2.805 3.563-.872.752-1.103 2.037-1.093 3.216.013 1.642.496 3.103 1.92 4.45 2.114 2.002 5.86 2.208 8.248 1.637-4.608-3.585-4.18-2.416-5.91-3.8l11.89-5.68c-1.645 2.87-3.352 5.708-3.045 9.564 2.914-1.834 4.973-5.72 7.15-9.636 2.305 2.88 4.1 5.73 5.226 8.535-4.88 1.003-9.284 2.243-13.478 3.644-5.128.977-8.98-.042-11.47-2.578-1.224-1.248-2.26-2.55-2.67-4.43-.32-1.47-.492-3.16-.153-4.906 0 0-2.96-.368-4.395-.97-1.65-.694-3.257-1.732-4.513-3.01-1.3-1.32-2.692-3.376-3.44-5.07-.753-1.695-.818-2.844-.846-4.657-.018-1.306.778-4.157.778-4.157s-2.93.43-4.22.247c-1.796-.255-2.927-.466-4.516-1.424-1.585-.958-3.45-2.6-4.595-4.054-1.11-1.407-1.937-3.13-2.417-4.856-.415-1.5-.41-4.48-.41-4.48-1.772.116-3.428-.267-4.846-.772-1.813-.644-2.976-1.835-4.06-3.207-2.202-2.79-2.726-6.74-1.11-11.703 1.92-3.983 3.704-8.196 5.314-12.91 2.642 1.47 5.24 3.608 7.808 6.26-4.16 1.665-8.273 3.218-10.46 5.877 3.786.792 6.816-.543 9.87-1.812l-7.13 11.078c-1.157-1.89-.05-1.318-3.027-6.342-.867 2.295-1.136 6.04.585 8.39 1.156 1.58 2.544 2.246 4.17 2.465 1.17.157 2.474.09 3.33-.678"/><ellipse transform="rotate(48.624 181.22 82.057)" fill="#ECECEC" cx="181.224" cy="82.056" rx="2.507" ry="2.548"/><path fill="#CDCCCC" d="M178.81 81.36l-.135.755.223 1.028.5.62.625.577 1.126.21.706-.106.866-.434.73-.642.152-.654.117-.856-.254-.717s-.245.707-.412.977c-.16.26-.442.515-.706.668-.254.15-.625.28-.92.292-.325.017-.812-.068-1.113-.196-.336-.14-.646-.428-.895-.693-.21-.225-.61-.826-.61-.826z"/><path fill="#FFF" d="M182.43 81.583c-.55.486-1.406.418-1.91-.152-.502-.57-.462-1.428.09-1.914.284-.25.477-.014.83.02.337.035.937.073 1.18.35.503.572.364 1.21-.19 1.697z"/><ellipse transform="rotate(48.624 181.22 82.057)" fill="none" stroke="#818181" stroke-width="1.607" cx="181.224" cy="82.056" rx="2.507" ry="2.548"/><ellipse transform="rotate(48.616 152.377 54.613)" fill="#ECECEC" cx="152.369" cy="54.606" rx="2.508" ry="2.549"/><path fill="#CDCCCC" d="M149.956 53.91l-.136.755.223 1.028.5.62.626.577 1.125.21.707-.106.866-.434.73-.642.153-.654.118-.856-.255-.717s-.245.707-.413.976c-.16.26-.44.515-.705.67-.254.147-.625.277-.92.29-.325.017-.813-.067-1.113-.194-.336-.142-.646-.428-.895-.695-.21-.225-.61-.826-.61-.826z"/><path fill="#FFF" d="M153.577 54.133c-.553.486-1.41.418-1.91-.152-.504-.57-.464-1.428.09-1.915.282-.25.476-.014.83.022.336.033.934.07 1.18.35.5.57.362 1.21-.19 1.696z"/><ellipse transform="rotate(48.616 152.377 54.613)" fill="none" stroke="#818181" stroke-width="1.607" cx="152.369" cy="54.606" rx="2.508" ry="2.549"/><ellipse transform="rotate(-131.376 204.82 114.14)" fill="#ECECEC" cx="204.819" cy="114.141" rx="2.507" ry="2.549"/><path fill="#CDCCCC" d="M205.204 116.623l-.766.04-.99-.35-.553-.575-.495-.694-.064-1.143.193-.688.538-.805.73-.64.666-.072.864-.008.68.343s-.73.154-1.02.286c-.277.127-.567.374-.753.616-.18.234-.354.585-.405.875-.058.322-.034.816.054 1.13.098.35.343.695.576.975.197.238.744.71.744.71z"/><path fill="#FFF" d="M205.44 113.003c-.553.486-.593 1.344-.09 1.915.502.57 1.357.64 1.91.152.284-.25.074-.47.083-.827.01-.337.047-.937-.197-1.213-.503-.572-1.154-.514-1.707-.027z"/><ellipse transform="rotate(-131.376 204.82 114.14)" fill="none" stroke="#818181" stroke-width="1.607" cx="204.819" cy="114.141" rx="2.507" ry="2.549"/><path fill="#F6E179" d="M162.436 66.426l3.867 3.94-.383 1.38-1.39.36-3.868-3.938.268-1.5"/><path fill="#F7ECA8" d="M162.436 66.426l3.867 3.94-.383 1.38-4.99-5.08"/><path fill="none" stroke="#806829" stroke-width="1.177" d="M162.436 66.426l3.867 3.94-.383 1.38-1.39.36-3.868-3.938.268-1.5z"/><path fill="#F6E179" d="M194.36 102.665l-3.418-4.333-1.42.206-.532 1.333 3.42 4.334 1.522-.076"/><path fill="#FEE8A7" d="M194.36 102.665l-3.418-4.333-1.42.206 4.41 5.59"/><path fill="none" stroke="#806829" stroke-width="1.177" d="M194.36 102.665l-3.418-4.333-1.42.206-.532 1.333 3.42 4.334 1.522-.076z"/><path fill="#D2BA47" d="M139.333 72.577s2.82 2.763 7.698 7.71c4.88 4.946 9.947 10.386 12.454 13.23.4.456 7.238 8.218 7.64 8.672 2.426 2.754 7.3 8.598 11.555 14.02 4.254 5.422 6.595 8.575 6.595 8.575l9.683-5.314s-14.668-20.023-22.88-29.345c-8.215-9.323-26.23-26.397-26.23-26.397l-6.515 8.85z"/><path fill="#C5A942" d="M169.02 86.694l6.363 7.295-8.66 7.656-6.065-6.888"/><path fill="#E8CE55" d="M149.677 67.223l19.778 19.84-8.39 7.37-18.984-19.63"/><path fill="#F6E179" d="M151.4 68.715l13.416 13.323-8.157 7.852-13.017-13.452"/><path fill="#F7ECA8" d="M153.282 70.472l7.622 7.605-8.173 7.865-3.64-3.842-3.64-3.842"/><path fill="#D2BA47" d="M160.434 92.54c-2.53-2.873-7.595-8.313-12.488-13.274-3.07-3.104-4.98-4.64-8.172-7.618l-.4.93c3.188 3.02 4.59 4.512 7.686 7.626 4.864 4.932 9.93 10.37 12.41 13.185l7.64 8.67c2.403 2.727 7.28 8.574 11.52 13.98 4.228 5.387 6.7 8.763 6.7 8.763l.788-.416s-2.164-3.652-6.445-9.108c-4.27-5.44-9.145-11.284-11.597-14.068l-7.642-8.673z"/><path fill="#D0B62C" d="M155.387 72.71c-4.91-4.98-9.5-8.982-9.5-8.982l-1.14 1.588s4.406 3.856 9.255 8.77c4.864 4.933 9.89 10.403 12.372 13.22l7.64 8.67c2.4 2.728 7.33 8.682 11.57 14.085 4.23 5.39 7.656 10.3 7.656 10.3l1.65-1.01s-3.496-5.173-7.777-10.63c-4.27-5.438-8.935-11.467-11.388-14.25l-7.64-8.672c-4.1-4.498-8.426-8.77-12.698-13.09z"/><path fill="none" stroke="#806829" stroke-width="1.177" d="M171.883 90.083c8.21 9.31 15.91 19.068 23.052 29.247l-9.658 5.493c-7.298-9.952-13.728-17.697-21.87-27.086m8.676-7.426c-8.2-9.317-16.91-18.186-26.107-26.553l-6.667 8.888c8.953 8.494 15.825 15.85 24.114 25.11"/><path fill="#F6E179" d="M155.892 72.327l-.013-.002-.008-.008c-3.157-3.102-6.794-6.707-10.196-9.65-.982.025-1.532.44-1.187 1.664 3.266 2.827 6.867 6.378 10.026 9.483 4.22 4.266 8.376 8.655 12.404 13.136l7.64 8.67c2.38 2.705 7.248 8.562 11.46 13.966 4.195 5.38 8.164 11.153 8.164 11.153 1.24.49 1.662-.055 1.766-1.007 0 0-3.993-5.835-8.275-11.328-4.262-5.468-9.125-11.314-11.6-14.12l-7.638-8.672c-4.042-4.563-8.282-8.94-12.545-13.286z"/><path fill="#F7ECA8" d="M195.676 120.616c.273-.193.223-.407.274-.883 0 0-3.993-5.835-8.275-11.328-4.262-5.468-9.125-11.314-11.6-14.12l-7.638-8.672c-4.043-4.563-8.283-8.94-12.546-13.286l-.013-.002-.006-.008c-3.156-3.102-6.793-6.707-10.195-9.65-.49.013-.63-.09-.85.17 3.77 3.55 7.057 6.458 10.578 10.005 5.59 5.627 11.23 11.892 16.233 17.537 4.99 5.627 9.7 11.274 14.153 16.96 3.448 4.4 6.74 8.822 9.886 13.276z"/><path fill="#D2BA47" d="M144.39 63.56c-.018.21.014.466.1.77 3.267 2.827 6.868 6.378 10.027 9.483 4.22 4.266 8.376 8.655 12.404 13.136l7.64 8.67c2.382 2.705 7.25 8.562 11.462 13.966 4.194 5.38 8.163 11.153 8.163 11.153.39.153.543.16.786.13-7.356-11.07-15.13-20.168-23.415-29.706-8.068-9.29-17.658-19.318-27.164-27.605z"/><path fill="none" stroke="#806829" stroke-width="1.33" d="M155.892 72.327l-.013-.002-.008-.008c-3.157-3.102-6.794-6.707-10.196-9.65-.982.025-1.532.44-1.187 1.664 3.266 2.827 6.867 6.378 10.026 9.483 4.22 4.266 8.376 8.655 12.404 13.136l7.64 8.67c2.38 2.705 7.248 8.562 11.46 13.966 4.195 5.38 8.164 11.153 8.164 11.153 1.24.49 1.662-.055 1.766-1.007 0 0-3.993-5.835-8.275-11.328-4.262-5.468-9.125-11.314-11.6-14.12l-7.638-8.672c-4.042-4.563-8.282-8.94-12.545-13.286z"/><path fill="#F6E179" d="M148.58 81.017l-.01-.002-.008-.007c-2.95-2.87-6.352-6.205-9.547-8.914-.952.058-1.5.477-1.208 1.64 3.068 2.6 6.436 5.886 9.39 8.757 3.943 3.952 7.82 8.023 11.566 12.187l7.103 8.063c2.216 2.515 6.73 7.97 10.625 13.016 3.88 5.022 7.524 10.427 7.524 10.427 1.185.427 1.613-.11 1.748-1.027 0 0-3.67-5.466-7.628-10.593-3.94-5.104-8.452-10.55-10.752-13.16l-7.103-8.062c-3.76-4.24-7.718-8.298-11.7-12.323z"/><path fill="#F7ECA8" d="M185.464 126.013c.272-.196.23-.4.298-.857 0 0-3.67-5.466-7.628-10.593-3.94-5.104-8.452-10.55-10.752-13.16l-7.103-8.062c-3.76-4.24-7.72-8.298-11.7-12.323l-.012-.002-.007-.007c-2.95-2.87-6.35-6.205-9.546-8.914-.477.03-.608-.066-.828.19 3.528 3.28 6.614 5.96 9.904 9.243 5.222 5.21 10.47 11.032 15.126 16.28 4.64 5.232 9.01 10.49 13.128 15.796 3.19 4.107 6.225 8.24 9.12 12.41z"/><path fill="#D2BA47" d="M137.74 72.995c-.026.204-.006.447.067.738 3.068 2.6 6.436 5.887 9.39 8.758 3.943 3.952 7.82 8.023 11.566 12.187l7.103 8.063c2.216 2.515 6.73 7.97 10.625 13.016 3.88 5.022 7.524 10.427 7.524 10.427.37.134.52.136.758.1-6.746-10.378-13.966-18.846-21.663-27.72-7.5-8.642-16.445-17.94-25.37-25.568z"/><path fill="none" stroke="#806829" stroke-width="1.379" d="M148.58 81.017l-.01-.002-.008-.007c-2.95-2.87-6.352-6.205-9.547-8.914-.952.058-1.5.477-1.208 1.64 3.068 2.6 6.436 5.886 9.39 8.757 3.943 3.952 7.732 8.1 11.48 12.263l7.103 8.063c2.216 2.514 6.815 7.894 10.71 12.94 3.88 5.02 7.524 10.426 7.524 10.426 1.185.427 1.613-.11 1.748-1.027 0 0-3.67-5.466-7.628-10.593-3.94-5.104-8.538-10.474-10.838-13.083l-7.103-8.064c-3.76-4.24-7.63-8.374-11.612-12.4z"/><path fill="#F6E179" d="M169.427 102.297l-9.765-11.086 5.61-4.94 9.765 11.085z"/><path fill="#F7ECA8" d="M165.263 86.273l9.766 11.085-15.377-6.143"/><path fill="#E8CE55" d="M173.844 98.402l-4.425 3.9-7.817-8.873"/><path fill="none" stroke="#806829" stroke-width="2.66" d="M165.59 86.646l9.11 10.34c.18.206.2.485.043.624l-5.04 4.44c-.157.14-.432.084-.613-.122l-9.11-10.34c-.18-.207-.2-.486-.042-.625l5.04-4.44c.156-.137.432-.084.613.123z"/><path fill="#496AB3" d="M166.14 88.754l6.538 7.42c.313.355.345.835.074 1.075l-3.155 2.778c-.27.24-.743.146-1.056-.208l-6.537-7.422c-.313-.354-.346-.834-.074-1.073l3.154-2.78c.272-.24.745-.146 1.056.21z"/><path fill="none" stroke="#A08A30" stroke-width="2.66" d="M166.14 88.754l6.538 7.42c.313.355.345.835.074 1.075l-3.155 2.778c-.27.24-.743.146-1.056-.208l-6.537-7.422c-.313-.354-.346-.834-.074-1.073l3.154-2.78c.272-.24.745-.146 1.056.21z"/><path fill="#4F8FCC" d="M169.084 100.147c-.19-.037-.387-.15-.543-.327l-6.537-7.422c-.157-.178-.243-.386-.257-.58-.014-.194.046-.374.183-.494l3.154-2.78c.136-.12.32-.156.512-.12.193.04 3.68 11.76 3.488 11.723z"/><path fill="none" stroke="#A08A30" stroke-width="2.66" d="M169.084 100.147c-.19-.037-.387-.15-.543-.327l-6.537-7.422c-.157-.178-.243-.386-.257-.58-.014-.194.046-.374.183-.494l3.154-2.78c.136-.12.32-.156.512-.12.193.04 3.68 11.76 3.488 11.723z"/><path fill="#5D7CBD" d="M169.084 100.147c-.19-.037-.387-.15-.543-.327l-6.537-7.422c-.157-.178-.243-.386-.257-.58-.014-.194.046-.374.183-.494l3.154-2.78c.136-.12.32-.156.512-.12.098.02 1.044 3.05 1.928 6.025.856 2.884 1.654 5.716 1.56 5.697z"/><path fill="none" stroke="#D7E3F4" stroke-width="2.66" d="M169.084 100.147c-.19-.037-.387-.15-.543-.327l-6.537-7.422c-.157-.178-.243-.386-.257-.58-.014-.194.046-.374.183-.494l3.154-2.78c.136-.12.32-.156.512-.12.098.02 1.044 3.05 1.928 6.025.856 2.884 1.654 5.716 1.56 5.697z"/><path fill="#2857A7" d="M172.934 96.756c.014.193-.046.373-.182.494l-3.155 2.78c-.137.12-.322.155-.513.118-.19-.037-.387-.15-.543-.327l-6.537-7.42c-.157-.18-.243-.387-.257-.58-.013-.195 11.174 4.74 11.188 4.936z"/><path fill="none" stroke="#B0C6E7" stroke-width="2.66" d="M172.934 96.756c.014.193-.046.373-.182.494l-3.155 2.78c-.137.12-.322.155-.513.118-.19-.037-.387-.15-.543-.327l-6.537-7.42c-.157-.18-.243-.387-.257-.58-.013-.195 11.174 4.74 11.188 4.936z"/><path fill="#2152A4" d="M169.084 100.147c-.19-.037-.387-.15-.543-.327l-6.537-7.422c-.157-.178-.243-.386-.257-.58-.006-.1 2.87 1.124 5.708 2.377 0 0 1.82 5.99 1.63 5.952z"/><path fill="none" stroke="#B0C6E7" stroke-width="2.66" d="M169.084 100.147c-.19-.037-.387-.15-.543-.327l-6.537-7.422c-.157-.178-.243-.386-.257-.58-.006-.1 2.87 1.124 5.708 2.377 0 0 1.82 5.99 1.63 5.952z"/><path fill="none" stroke="#A08A30" stroke-width="2.66" d="M166.14 88.754l6.538 7.42c.313.355.345.835.074 1.075l-3.155 2.778c-.27.24-.743.146-1.056-.208l-6.537-7.422c-.313-.354-.346-.834-.074-1.073l3.154-2.78c.272-.24.745-.146 1.056.21z"/><path fill="#3462AE" d="M168.502 97.597l-4.296-4.876 2.115-1.863 4.297 4.876z"/><path fill="none" stroke="#B0C6E7" stroke-width="2.66" d="M168.502 97.597l-4.296-4.876 2.115-1.863 4.297 4.876z"/><path fill="#F6E179" d="M154.668 76.49l2.968 2.77c1.235 1.15 1.47 3.048.52 4.235l-.18.226c-.948 1.188-2.72 1.216-3.954.064l-2.968-2.768c-1.235-1.152-1.468-3.05-.52-4.236l.18-.226c.95-1.187 2.718-1.216 3.954-.064z"/><path fill="none" stroke="#806829" stroke-width="1.428" d="M154.668 76.49l2.968 2.77c1.235 1.15 1.47 3.048.52 4.235l-.18.226c-.948 1.188-2.72 1.216-3.954.064l-2.968-2.768c-1.235-1.152-1.468-3.05-.52-4.236l.18-.226c.95-1.187 2.718-1.216 3.954-.064z"/><path fill="#316A48" d="M154.27 77.188l2.786 2.6c.95.883 1.128 2.34.4 3.252-.728.912-2.088.934-3.036.048l-2.786-2.6c-.95-.883-1.128-2.34-.4-3.25.728-.914 2.088-.935 3.037-.05z"/><path fill="#36A464" d="M155.865 81.04c-.188.237-.72.424-1.17.334-.774-.154-1.613-.842-2.286-1.47-1.066-.993-1.275-2.216-.763-2.86.308-.383.947-.64 1.594-.407.434.156.956.54 1.385.94.716.666 1.54 1.7 1.664 2.51.06.393-.256.743-.425.953z"/><path fill="none" stroke="#A08A30" stroke-width="1.428" d="M154.27 77.188l2.786 2.6c.95.883 1.128 2.34.4 3.252-.728.912-2.088.934-3.036.048l-2.786-2.6c-.95-.883-1.128-2.34-.4-3.25.728-.914 2.088-.935 3.037-.05z"/><path fill="#B1DCBF" d="M154.458 79.494c-.263.328-.883.214-1.386-.255s-.697-1.116-.436-1.445c.263-.328.882-.214 1.386.255.502.47.697 1.115.436 1.444z"/><path fill="#F6E179" d="M139.687 71.082l7.36 1.094-2.795-6.79-3.024 2.524"/><path fill="none" stroke="#806829" stroke-width="1.361" d="M139.687 71.082l7.36 1.094-2.795-6.79-3.024 2.524z"/><path fill="#EE2345" d="M140.315 70.3l5.337.792-2.027-4.922-2.773 1.006"/><path fill="#BC202C" d="M140.315 70.3l5.337.792-4.762-3.885"/><path fill="none" stroke="#F4D7D7" stroke-width="1.361" d="M145.673 71.085l-4.85-3.9"/><path fill="none" stroke="#A48E31" stroke-width="1.361" d="M140.315 70.3l5.337.792-2.027-4.922-2.778.934z"/><ellipse transform="rotate(48.63 161.545 84.788)" fill="#ECECEC" cx="161.552" cy="84.791" rx="1.249" ry="1.269"/><path fill="#CDCCCC" d="M160.35 84.444l-.066.375.11.51.25.31.31.288.562.104.353-.052.43-.216.363-.32.076-.324.058-.426-.127-.357s-.12.35-.204.485c-.08.13-.22.256-.353.333-.125.074-.31.14-.457.146-.162.01-.405-.033-.555-.097-.166-.07-.32-.214-.443-.346-.107-.113-.307-.413-.307-.413z"/><path fill="#FFF" d="M162.154 84.555c-.275.242-.7.208-.95-.076-.252-.285-.23-.712.043-.955.142-.125.237-.007.414.01.17.018.466.036.59.174.25.285.18.603-.096.845z"/><ellipse transform="rotate(48.63 161.545 84.788)" fill="none" stroke="#818181" stroke-width="3.228" cx="161.552" cy="84.791" rx="1.249" ry="1.269"/><ellipse transform="rotate(48.616 158.734 87.612)" fill="#ECECEC" cx="158.735" cy="87.613" rx="1.248" ry="1.269"/><path fill="#CDCCCC" d="M157.533 87.267l-.067.376.11.51.25.31.31.288.563.105.352-.053.43-.215.364-.32.076-.325.06-.427-.13-.357s-.12.352-.204.485c-.08.13-.22.257-.35.333-.128.074-.313.14-.46.146-.16.008-.404-.034-.554-.098-.167-.07-.322-.213-.445-.346-.108-.112-.307-.41-.307-.41z"/><path fill="#FFF" d="M159.336 87.378c-.275.242-.702.208-.952-.076s-.23-.71.045-.954c.14-.124.235-.007.412.01.168.018.466.037.588.175.25.285.182.602-.094.845z"/><ellipse transform="rotate(48.616 158.734 87.612)" fill="none" stroke="#818181" stroke-width="3.228" cx="158.735" cy="87.613" rx="1.248" ry="1.269"/><ellipse transform="rotate(48.63 149.753 72.792)" fill="#ECECEC" cx="149.76" cy="72.794" rx="1.249" ry="1.269"/><path fill="#CDCCCC" d="M148.557 72.448l-.066.375.112.512.248.31.313.286.56.105.353-.052.432-.216.362-.32.077-.325.06-.426-.13-.357s-.12.35-.203.485c-.08.13-.222.256-.353.333-.125.074-.31.138-.456.146-.163.008-.405-.034-.556-.097-.166-.07-.32-.214-.444-.346-.106-.112-.307-.412-.307-.412z"/><path fill="#FFF" d="M150.36 72.56c-.273.242-.7.208-.95-.076s-.23-.71.045-.954c.14-.125.237-.007.413.01.168.018.466.037.587.175.25.284.18.602-.094.844z"/><ellipse transform="rotate(48.63 149.753 72.792)" fill="none" stroke="#818181" stroke-width="3.228" cx="149.76" cy="72.794" rx="1.249" ry="1.269"/><ellipse transform="rotate(48.61 146.94 75.61)" fill="#ECECEC" cx="146.942" cy="75.617" rx="1.249" ry="1.269"/><path fill="#CDCCCC" d="M145.74 75.27l-.067.376.11.512.25.31.312.286.56.104.354-.053.43-.216.363-.32.077-.325.058-.426-.127-.358s-.12.35-.204.485c-.08.13-.22.256-.352.333-.127.073-.312.14-.457.146-.163.008-.405-.034-.556-.098-.166-.07-.32-.213-.444-.345-.106-.112-.305-.412-.305-.412z"/><path fill="#FFF" d="M147.543 75.382c-.274.242-.7.208-.95-.076-.252-.284-.232-.71.044-.953.14-.125.235-.007.413.01.168.017.466.037.587.175.25.283.182.602-.094.844z"/><ellipse transform="rotate(48.61 146.94 75.61)" fill="none" stroke="#818181" stroke-width="3.228" cx="146.942" cy="75.617" rx="1.249" ry="1.269"/><path fill="#F6E179" d="M183.398 109.102l-2.372-3.293c-.988-1.373-2.84-1.842-4.138-1.05l-.247.15c-1.296.79-1.547 2.542-.56 3.914l2.372 3.293c.988 1.37 2.84 1.84 4.138 1.05l.246-.15c1.298-.792 1.55-2.545.562-3.915z"/><path fill="none" stroke="#806829" stroke-width="1.428" d="M183.398 109.102l-2.372-3.293c-.988-1.373-2.84-1.842-4.138-1.05l-.247.15c-1.296.79-1.547 2.542-.56 3.914l2.372 3.293c.988 1.37 2.84 1.84 4.138 1.05l.246-.15c1.298-.792 1.55-2.545.562-3.915z"/><path fill="#316A48" d="M182.657 109.408l-2.228-3.092c-.76-1.053-2.18-1.414-3.178-.806-.996.607-1.19 1.953-.43 3.006l2.227 3.092c.757 1.052 2.18 1.414 3.176.806.996-.607 1.19-1.953.43-3.006z"/><path fill="#36A464" d="M179.036 107.34c-.26.158-.51.663-.48 1.12.057.787.633 1.707 1.17 2.453.852 1.182 2.04 1.544 2.742 1.116.42-.257.755-.86.604-1.53-.1-.45-.414-1.016-.756-1.492-.572-.794-1.495-1.742-2.28-1.967-.384-.11-.77.16-1 .3z"/><path fill="none" stroke="#A08A30" stroke-width="1.428" d="M182.657 109.408l-2.228-3.092c-.76-1.053-2.18-1.414-3.178-.806-.996.607-1.19 1.953-.43 3.006l2.227 3.092c.757 1.052 2.18 1.414 3.176.806.996-.607 1.19-1.953.43-3.006z"/><path fill="#B1DCBF" d="M180.392 108.933c-.358.22-.324.85.078 1.406.402.557 1.02.832 1.377.613.358-.22.324-.85-.078-1.406-.402-.558-1.02-.833-1.378-.614z"/><path fill="#F6E179" d="M186.875 124.645l-.158-7.44 6.384 3.628-2.885 2.683"/><path fill="none" stroke="#806829" stroke-width="1.361" d="M186.875 124.645l-.158-7.44 6.384 3.628-2.885 2.683z"/><path fill="#EE2345" d="M187.73 124.12l-.113-5.394 4.628 2.63-1.348 2.626"/><path fill="#BC202C" d="M187.73 124.12l-.113-5.394 3.255 5.213"/><path fill="none" stroke="#F4D7D7" stroke-width="1.361" d="M187.627 118.706l3.256 5.305"/><path fill="none" stroke="#A48E31" stroke-width="1.361" d="M187.73 124.12l-.113-5.394 4.628 2.63-1.277 2.64z"/><ellipse transform="rotate(-131.376 176.033 101.224)" fill="#ECECEC" cx="176.032" cy="101.226" rx="1.248" ry="1.269"/><path fill="#CDCCCC" d="M176.224 102.462l-.382.02-.493-.175-.276-.285-.245-.346-.034-.57.097-.342.27-.4.36-.32.333-.035.43-.005.34.17s-.364.078-.508.144c-.14.062-.282.185-.375.306-.09.116-.177.29-.202.436-.026.16-.016.406.028.563.048.174.17.345.286.485.098.117.37.352.37.352z"/><path fill="#FFF" d="M176.34 100.66c-.274.242-.294.67-.043.953.25.284.675.318.95.076.142-.125.037-.236.042-.413.003-.168.022-.466-.1-.604-.25-.285-.573-.256-.85-.014z"/><ellipse transform="rotate(-131.376 176.033 101.224)" fill="none" stroke="#818181" stroke-width="3.228" cx="176.032" cy="101.226" rx="1.248" ry="1.269"/><ellipse transform="rotate(-131.39 172.876 103.666)" fill="#ECECEC" cx="172.876" cy="103.665" rx="1.248" ry="1.269"/><path fill="#CDCCCC" d="M173.07 104.9l-.383.02-.493-.173-.275-.286-.247-.345-.032-.57.097-.342.27-.4.362-.32.33-.035.432-.004.34.17s-.365.078-.51.144c-.137.063-.28.186-.374.306-.09.117-.177.292-.202.436-.027.16-.017.406.027.563.048.175.17.346.286.486.096.116.37.35.37.35z"/><path fill="#FFF" d="M173.186 103.1c-.275.24-.295.668-.045.952.25.284.678.318.952.076.14-.124.037-.234.042-.41.004-.17.023-.468-.1-.606-.25-.284-.573-.256-.848-.013z"/><ellipse transform="rotate(-131.39 172.876 103.666)" fill="none" stroke="#818181" stroke-width="3.228" cx="172.876" cy="103.665" rx="1.248" ry="1.269"/><ellipse transform="rotate(-131.37 186.448 114.433)" fill="#ECECEC" cx="186.446" cy="114.437" rx="1.249" ry="1.269"/><path fill="#CDCCCC" d="M186.638 115.672l-.38.02-.495-.175-.275-.285-.246-.346-.032-.57.096-.34.27-.402.362-.32.333-.035.43-.004.34.17s-.364.078-.508.143c-.138.062-.282.185-.375.306-.09.117-.176.292-.2.436-.03.16-.02.406.025.563.05.175.172.346.286.486.1.117.37.352.37.352z"/><path fill="#FFF" d="M186.755 113.87c-.275.243-.296.67-.045.954.25.284.677.318.95.075.143-.126.038-.235.043-.413.004-.168.023-.466-.1-.604-.248-.284-.573-.256-.848-.013z"/><ellipse transform="rotate(-131.37 186.448 114.433)" fill="none" stroke="#818181" stroke-width="3.228" cx="186.446" cy="114.437" rx="1.249" ry="1.269"/><ellipse transform="rotate(-131.37 183.292 116.872)" fill="#ECECEC" cx="183.291" cy="116.876" rx="1.249" ry="1.269"/><path fill="#CDCCCC" d="M183.483 118.112l-.38.02-.495-.175-.274-.285-.247-.346-.032-.57.097-.342.27-.4.36-.32.334-.034.43-.004.34.17s-.365.077-.51.143c-.137.062-.282.185-.374.306-.09.116-.177.292-.202.436-.028.16-.017.406.027.563.05.175.17.346.287.486.096.116.37.352.37.352z"/><path fill="#FFF" d="M183.6 116.31c-.275.24-.296.668-.045.953.25.284.677.318.95.075.143-.124.038-.233.043-.41.004-.17.023-.467-.1-.605-.248-.285-.573-.256-.848-.014z"/><ellipse transform="rotate(-131.37 183.292 116.872)" fill="none" stroke="#818181" stroke-width="3.228" cx="183.291" cy="116.876" rx="1.249" ry="1.269"/></g><use xlink:href="#e" overflow="visible" fill="none" stroke="#000" stroke-width="7" stroke-miterlimit="10"/><radialGradient id="k" cx="261.806" cy="575.523" r="180.594" gradientUnits="userSpaceOnUse"><stop offset=".632" stop-color="#FFF"/><stop offset=".705" stop-color="#F4F5F5"/><stop offset=".855" stop-color="#EAEBEB"/><stop offset="1" stop-color="#E6E7E8"/></radialGradient></svg>