<!DOCTYPE svg PUBLIC "-//W3C//DTD SVG 1.1//EN" "http://www.w3.org/Graphics/SVG/1.1/DTD/svg11.dtd" [
	<!ENTITY ns_flows "http://ns.adobe.com/Flows/1.0/">
]><svg xmlns="http://www.w3.org/2000/svg" xmlns:xlink="http://www.w3.org/1999/xlink" width="524" height="659" viewBox="0 0 524 659"><linearGradient id="a" gradientUnits="userSpaceOnUse" x1="37.789" y1="515.804" x2="92.683" y2="536.876"><stop offset="0" stop-color="#8B5E3C"/><stop offset=".497" stop-color="#FDC060"/></linearGradient><linearGradient id="b" gradientUnits="userSpaceOnUse" x1="430.929" y1="536.876" x2="485.824" y2="515.804"><stop offset=".503" stop-color="#FDC060"/><stop offset="1" stop-color="#8B5E3C"/></linearGradient><linearGradient id="c" gradientUnits="userSpaceOnUse" x1="1.5" y1="461.628" x2="107.092" y2="461.628"><stop offset="0" stop-color="#BCBEC0"/><stop offset=".333" stop-color="#E6E7E8"/></linearGradient><linearGradient id="d" gradientUnits="userSpaceOnUse" x1="416.52" y1="461.628" x2="522.112" y2="461.628"><stop offset=".632" stop-color="#E6E7E8"/><stop offset=".687" stop-color="#DBDCDD"/><stop offset=".793" stop-color="#CACBCD"/><stop offset=".898" stop-color="#BFC1C3"/><stop offset="1" stop-color="#BCBEC0"/></linearGradient><defs><path id="e" d="M261.113 4H10.093v258.714c0 161.08 140 299 251.713 341 118.286-39 251.714-175.92 251.714-337V4H261.113z"/></defs><use xlink:href="#e" overflow="visible"/><clipPath id="f"><use xlink:href="#e" overflow="visible"/></clipPath><g clip-path="url(#f)"><defs><path id="g" d="M261.375 117.128H105.057v161.108c0 100.31 87.182 186.195 156.75 212.35 73.66-24.286 156.748-109.55 156.748-209.86V117.13h-157.18z"/></defs><radialGradient id="h" cx="261.806" cy="303.856" r="172.392" gradientUnits="userSpaceOnUse"><stop offset=".632" stop-color="#FFF"/><stop offset=".841" stop-color="#F9F9F9"/><stop offset="1" stop-color="#F1F2F2"/></radialGradient><use xlink:href="#g" overflow="visible" fill="url(#h)"/><clipPath id="i"><use xlink:href="#g" overflow="visible"/></clipPath><g clip-path="url(#i)" stroke="#DDB52B" stroke-width="2" stroke-miterlimit="10"><path d="M333.856 469.446l23.688-20.25-38.99-45.605 9.378-8.017 9.13 10.447c2.374 2.72 6.197 3.268 8.535 1.224l6.41-5.6c2.338-2.045 2.306-5.905-.07-8.624l-25.93-29.672c-2.375-2.718-6.196-3.267-8.535-1.223l-6.41 5.602c-2.336 2.042-2.307 5.902.07 8.62l7.91 9.055-9.265 7.922-34.076-39.86 9.23-7.89 9.13 10.446c2.375 2.718 6.198 3.267 8.536 1.224l6.41-5.6c2.338-2.044 2.306-5.905-.07-8.624l-25.93-29.67c-2.375-2.72-6.196-3.268-8.535-1.224l-6.408 5.602c-2.337 2.042-2.308 5.903.07 8.622l7.91 9.053-9.12 7.796-34.498-40.354 8.507-7.272 9.13 10.447c2.375 2.72 6.198 3.268 8.536 1.225l6.41-5.6c2.338-2.044 2.306-5.905-.07-8.624l-25.93-29.67c-2.375-2.718-6.196-3.267-8.535-1.223l-6.408 5.602c-2.338 2.04-2.308 5.902.07 8.62l7.91 9.054-8.396 7.177-33.725-39.447 10.01-8.557 9.13 10.447c2.374 2.718 6.197 3.267 8.535 1.224l6.41-5.6c2.338-2.044 2.306-5.905-.07-8.624l-25.93-29.67c-2.375-2.72-6.196-3.268-8.535-1.224l-6.41 5.6c-2.336 2.043-2.307 5.904.07 8.623l7.91 9.053-9.896 8.462-35.064-41.014 10.85-9.276 9.13 10.447c2.375 2.718 6.198 3.267 8.536 1.224l6.41-5.602c2.338-2.043 2.306-5.904-.07-8.623l-25.93-29.67c-2.375-2.72-6.196-3.268-8.535-1.224l-6.408 5.603c-2.337 2.042-2.308 5.903.07 8.622l7.91 9.053-10.74 9.18-33.366-39.028 6.995-5.98 9.13 10.447c2.375 2.718 6.198 3.267 8.536 1.224l6.41-5.6c2.338-2.043 2.306-5.904-.07-8.623l-25.93-29.67c-2.375-2.72-6.196-3.268-8.535-1.224l-6.408 5.602c-2.337 2.042-2.308 5.903.07 8.622l7.91 9.053-6.884 5.885-4.97-5.813-23.687 20.252 4.97 5.812-9.67 8.267-8.293-9.49c-2.376-2.718-6.197-3.267-8.536-1.223l-6.408 5.602c-2.338 2.042-2.308 5.903.07 8.622l25.928 29.67c2.375 2.72 6.198 3.27 8.536 1.225l6.41-5.602c2.338-2.044 2.306-5.904-.07-8.623l-8.747-10.01 9.558-8.172 33.367 39.03-5.814 4.97-8.292-9.49c-2.376-2.718-6.197-3.267-8.536-1.223l-6.41 5.602c-2.337 2.042-2.307 5.903.07 8.622l25.93 29.67c2.374 2.72 6.197 3.27 8.535 1.225l6.41-5.602c2.338-2.044 2.306-5.904-.07-8.623l-8.747-10.01 5.704-4.876 35.063 41.013-6.656 5.69-8.292-9.49c-2.376-2.718-6.197-3.267-8.536-1.223l-6.41 5.602c-2.337 2.042-2.307 5.903.07 8.622l25.93 29.67c2.374 2.72 6.197 3.27 8.535 1.225l6.41-5.602c2.338-2.044 2.306-5.904-.07-8.623l-8.747-10.01 6.545-5.595 33.726 39.448-8.158 6.975-8.293-9.49c-2.377-2.718-6.198-3.267-8.537-1.223l-6.41 5.602c-2.337 2.042-2.307 5.903.07 8.622l25.93 29.67c2.374 2.72 6.197 3.268 8.535 1.225l6.41-5.602c2.338-2.043 2.306-5.904-.07-8.623l-8.747-10.01 8.05-6.88 34.497 40.353-7.435 6.356-8.293-9.49c-2.377-2.718-6.198-3.267-8.537-1.223l-6.41 5.603c-2.337 2.042-2.307 5.903.07 8.622l25.93 29.67c2.374 2.72 6.197 3.27 8.535 1.225l6.41-5.6c2.338-2.045 2.306-5.905-.07-8.624l-8.747-10.01 7.325-6.26 34.076 39.857-7.287 6.23-8.294-9.49c-2.377-2.72-6.198-3.267-8.537-1.223l-6.41 5.602c-2.336 2.042-2.307 5.902.07 8.62l25.93 29.673c2.374 2.72 6.197 3.268 8.535 1.224l6.41-5.602c2.338-2.044 2.306-5.904-.07-8.623l-8.746-10.01 7.177-6.136 38.986 45.596zM447.856 390.946l23.688-20.25-38.99-45.605 9.378-8.017 9.13 10.447c2.374 2.72 6.197 3.268 8.535 1.224l6.41-5.6c2.338-2.045 2.306-5.905-.07-8.624l-25.93-29.672c-2.375-2.718-6.196-3.267-8.535-1.223l-6.41 5.602c-2.336 2.042-2.307 5.902.07 8.62l7.91 9.055-9.265 7.922-34.076-39.86 9.23-7.89 9.13 10.446c2.375 2.718 6.198 3.267 8.536 1.224l6.41-5.6c2.338-2.044 2.306-5.905-.07-8.624l-25.93-29.67c-2.375-2.72-6.196-3.268-8.535-1.224l-6.408 5.602c-2.337 2.042-2.308 5.903.07 8.622l7.91 9.053-9.12 7.796-34.498-40.354 8.507-7.272 9.13 10.447c2.375 2.72 6.198 3.268 8.536 1.225l6.41-5.6c2.338-2.044 2.306-5.905-.07-8.624l-25.93-29.67c-2.375-2.718-6.196-3.267-8.535-1.223l-6.408 5.602c-2.337 2.04-2.308 5.902.07 8.62l7.91 9.054-8.396 7.177-33.725-39.447 10.01-8.557 9.13 10.447c2.374 2.718 6.197 3.267 8.535 1.224l6.41-5.6c2.338-2.044 2.306-5.905-.07-8.624l-25.93-29.67c-2.375-2.72-6.196-3.268-8.535-1.224l-6.41 5.6c-2.336 2.043-2.307 5.904.07 8.623l7.91 9.053-9.896 8.462-35.064-41.014 10.85-9.276 9.13 10.447c2.375 2.718 6.198 3.267 8.536 1.224l6.41-5.602c2.338-2.043 2.306-5.904-.07-8.623l-25.93-29.67c-2.375-2.72-6.196-3.268-8.535-1.224l-6.408 5.603c-2.337 2.042-2.308 5.903.07 8.622l7.91 9.053-10.74 9.18-33.366-39.028 6.995-5.98 9.13 10.447c2.375 2.718 6.198 3.267 8.536 1.224l6.41-5.6c2.338-2.043 2.306-5.904-.07-8.623l-25.93-29.67c-2.375-2.72-6.196-3.268-8.535-1.224l-6.408 5.602c-2.337 2.042-2.308 5.903.07 8.622l7.91 9.053-6.884 5.885-4.97-5.813-23.687 20.252 4.97 5.812-9.67 8.267-8.293-9.49c-2.376-2.718-6.197-3.267-8.536-1.223l-6.408 5.602c-2.338 2.042-2.308 5.903.07 8.622l25.928 29.67c2.375 2.72 6.198 3.27 8.536 1.225l6.41-5.602c2.338-2.044 2.306-5.904-.07-8.623l-8.747-10.01 9.558-8.172 33.367 39.03-5.814 4.97-8.292-9.49c-2.376-2.718-6.197-3.267-8.536-1.223l-6.41 5.602c-2.337 2.042-2.307 5.903.07 8.622l25.93 29.67c2.374 2.72 6.197 3.27 8.535 1.225l6.41-5.602c2.338-2.044 2.306-5.904-.07-8.623l-8.747-10.01 5.704-4.876 35.063 41.013-6.655 5.69-8.294-9.49c-2.376-2.718-6.197-3.267-8.536-1.223l-6.41 5.602c-2.337 2.042-2.307 5.903.07 8.622l25.93 29.67c2.374 2.72 6.197 3.27 8.535 1.225l6.41-5.602c2.338-2.044 2.306-5.904-.07-8.623l-8.746-10.01 6.546-5.595 33.725 39.448-8.157 6.975-8.294-9.49c-2.377-2.718-6.198-3.267-8.537-1.223l-6.41 5.602c-2.336 2.042-2.307 5.903.07 8.622l25.93 29.67c2.374 2.72 6.197 3.268 8.535 1.225l6.41-5.602c2.338-2.043 2.306-5.904-.07-8.623l-8.746-10.01 8.047-6.88 34.497 40.353-7.434 6.356-8.294-9.49c-2.377-2.718-6.198-3.267-8.537-1.223l-6.41 5.603c-2.336 2.042-2.307 5.903.07 8.622l25.93 29.67c2.374 2.72 6.197 3.27 8.535 1.225l6.41-5.6c2.338-2.045 2.306-5.905-.07-8.624l-8.746-10.01 7.323-6.26 34.076 39.857-7.287 6.23-8.294-9.49c-2.377-2.72-6.198-3.267-8.537-1.223l-6.41 5.602c-2.336 2.042-2.307 5.902.07 8.62l25.93 29.673c2.374 2.72 6.197 3.268 8.535 1.224l6.41-5.602c2.338-2.044 2.306-5.904-.07-8.623l-8.746-10.01 7.177-6.136 38.986 45.596z"/></g><use xlink:href="#g" overflow="visible" fill="none" stroke="#DDB52B" stroke-width="3" stroke-miterlimit="10"/></g><g clip-path="url(#f)" fill="#DDB52C"><path d="M456.833 19.578H462v60.375h-5.167z"/><path d="M441.09 24.078h18.25v3.833h-18.25zM444.256 27.912h4v4h-4zM445.256 37.245h14.083v4h-14.084zM453.756 72.745h8.167v3.667h-8.167zM468.09 19.578h5.166v60.375h-5.167z"/><path d="M470.75 24.078H489v3.833h-18.25zM481.833 27.912h4v4h-4zM470.75 37.245h14.083v4H470.75zM468.166 72.745h8.167v3.667h-8.167z"/><g><path d="M446.18 95.73l-3.654-3.653 15.822-15.823 3.654 3.654zM458.232 107.168l-3.27-3.27 13.494-13.495 3.27 3.268z"/><path d="M459.264 103.935l-3.27 3.27L442.5 93.71l3.268-3.27z"/><path d="M442.524 92.072h6.47v1.672h-6.47zM456.027 100.64h2.218v6.552h-2.218z"/></g><g><path d="M481.457 89.736l3.653 3.654-15.822 15.822-3.653-3.653zM469.406 78.298l3.27 3.27-13.495 13.495-3.27-3.27z"/><path d="M468.373 81.53l3.27-3.27 13.495 13.493-3.27 3.27z"/><path d="M478.642 91.72h6.47v1.673h-6.47zM469.392 78.274h2.218v6.55h-2.218z"/></g><g><path d="M456.833 199.578H462v60.375h-5.167z"/><path d="M441.09 204.078h18.25v3.833h-18.25zM444.256 207.912h4v4h-4zM445.256 217.245h14.083v4h-14.084zM453.756 252.745h8.167v3.667h-8.167z"/><g><path d="M468.09 199.578h5.166v60.375h-5.167z"/><path d="M470.75 204.078H489v3.833h-18.25zM481.833 207.912h4v4h-4zM470.75 217.245h14.083v4H470.75zM468.166 252.745h8.167v3.667h-8.167z"/></g><g><path d="M446.18 275.73l-3.655-3.652 15.822-15.822L462 259.91zM458.24 287.16l-3.27-3.27 13.495-13.495 3.27 3.27z"/><path d="M459.257 283.927l-3.27 3.27-13.496-13.494 3.27-3.27z"/><path d="M442.524 272.072h6.47v1.672h-6.47zM456.027 280.64h2.218v6.552h-2.218z"/></g><g><path d="M481.458 269.735l3.654 3.654-15.823 15.82-3.654-3.653zM469.397 258.305l3.27 3.27-13.495 13.495-3.27-3.27z"/><path d="M468.38 261.537l3.27-3.27 13.496 13.494-3.27 3.27z"/><path d="M478.642 271.72h6.47v1.673h-6.47zM469.392 258.274h2.218v6.55h-2.218z"/></g></g><g><path d="M254.443 19.578h5.167v60.375h-5.167z"/><path d="M238.7 24.078h18.25v3.833H238.7zM241.867 27.912h4v4h-4zM242.867 37.245h14.083v4h-14.083zM251.367 72.745h8.167v3.667h-8.167z"/><g><path d="M265.7 19.578h5.167v60.375H265.7z"/><path d="M268.36 24.078h18.25v3.833h-18.25zM279.443 27.912h4v4h-4zM268.36 37.245h14.083v4H268.36zM265.776 72.745h8.167v3.667h-8.167z"/></g><g><path d="M243.788 95.728l-3.653-3.653 15.822-15.822 3.653 3.653zM255.85 107.177l-3.27-3.27 13.494-13.496 3.27 3.27z"/><path d="M256.884 103.928l-3.27 3.27-13.496-13.495 3.27-3.27z"/><path d="M240.134 92.072h6.47v1.672h-6.47zM253.637 100.64h2.218v6.552h-2.218z"/></g><g><path d="M279.068 89.738l3.654 3.653-15.822 15.823-3.654-3.653zM267.008 78.288l3.27 3.27-13.495 13.496-3.27-3.27z"/><path d="M265.974 81.537l3.27-3.27L282.74 91.76l-3.27 3.27z"/><path d="M276.252 91.72h6.47v1.673h-6.47zM267.002 78.274h2.218v6.55h-2.218z"/></g></g><g><path d="M254.443 499.578h5.167v60.375h-5.167z"/><path d="M238.7 504.078h18.25v3.833H238.7z"/><path d="M241.867 507.91h4v4h-4zM242.867 517.245h14.083v4h-14.083zM251.367 552.745h8.167v3.666h-8.167z"/><g><path d="M265.7 499.578h5.167v60.375H265.7z"/><path d="M268.36 504.078h18.25v3.833h-18.25z"/><path d="M279.443 507.91h4v4h-4zM268.36 517.245h14.083v4H268.36zM265.776 552.745h8.167v3.666h-8.167z"/></g><g><path d="M243.782 575.73l-3.653-3.652 15.82-15.824 3.652 3.652zM255.86 587.2l-3.27-3.268 13.492-13.496 3.27 3.268z"/><path d="M256.907 583.918l-3.27 3.27-13.496-13.49 3.27-3.272z"/><path d="M240.134 572.072h6.47v1.673h-6.47zM253.637 580.64h2.218v6.553h-2.218z"/></g><g><path d="M279.07 569.733l3.652 3.654-15.824 15.82-3.653-3.654zM267.004 558.268l3.27 3.27-13.495 13.494-3.27-3.27z"/><path d="M265.953 561.542l3.27-3.27 13.494 13.494-3.27 3.27z"/><path d="M276.252 571.722h6.47v1.672h-6.47zM267.002 558.274h2.218v6.55h-2.218z"/></g></g><g><path d="M98.443 379.578h5.167v60.375h-5.167z"/><path d="M82.7 384.078h18.25v3.833H82.7z"/><path d="M85.867 387.91h4v4h-4zM86.867 397.245h14.083v4H86.867zM95.367 432.745h8.167v3.666h-8.167z"/><g><path d="M109.7 379.578h5.167v60.375H109.7z"/><path d="M112.36 384.078h18.25v3.833h-18.25z"/><path d="M123.443 387.91h4v4h-4zM112.36 397.245h14.083v4H112.36zM109.776 432.745h8.167v3.666h-8.167z"/></g><g><path d="M87.783 455.73l-3.653-3.654 15.82-15.824 3.653 3.652zM99.857 467.2l-3.27-3.27 13.493-13.496 3.27 3.27z"/><path d="M100.906 463.92l-3.27 3.27L84.14 453.7l3.27-3.272z"/><path d="M84.134 452.072h6.47v1.673h-6.47zM97.637 460.64h2.218v6.553h-2.218z"/></g><g><path d="M123.07 449.735l3.653 3.654-15.824 15.82-3.654-3.655zM111.004 438.27l3.27 3.27-13.495 13.494-3.27-3.27z"/><path d="M109.955 441.54l3.27-3.268 13.494 13.494-3.27 3.27z"/><path d="M120.252 451.722h6.47v1.672h-6.47zM111.002 438.274h2.218v6.55h-2.218z"/></g></g><g><path d="M413.443 379.578h5.167v60.375h-5.167z"/><path d="M397.7 384.078h18.25v3.833H397.7z"/><path d="M400.867 387.91h4v4h-4zM401.867 397.245h14.083v4h-14.083zM410.367 432.745h8.167v3.666h-8.167z"/><g><path d="M424.7 379.578h5.167v60.375H424.7z"/><path d="M427.36 384.078h18.25v3.833h-18.25z"/><path d="M438.443 387.91h4v4h-4zM427.36 397.245h14.083v4H427.36zM424.776 432.745h8.167v3.666h-8.167z"/></g><g><path d="M402.784 455.733l-3.654-3.653 15.82-15.824 3.654 3.652zM414.86 467.2l-3.27-3.27 13.494-13.495 3.27 3.268z"/><path d="M415.906 463.916l-3.27 3.27-13.496-13.49 3.27-3.272z"/><path d="M399.134 452.072h6.47v1.673h-6.47zM412.637 460.64h2.218v6.553h-2.218z"/></g><g><path d="M438.066 449.735l3.653 3.654-15.825 15.82-3.653-3.655zM426.002 438.268l3.27 3.27-13.495 13.494-3.27-3.27z"/><path d="M424.953 441.544l3.27-3.27 13.494 13.494-3.27 3.27z"/><path d="M435.252 451.722h6.47v1.672h-6.47zM426.002 438.274h2.218v6.55h-2.218z"/></g></g><g><path d="M52.053 19.578h5.167v60.375h-5.167z"/><path d="M36.31 24.078h18.25v3.833H36.31zM39.477 27.912h4v4h-4zM40.477 37.245H54.56v4H40.477zM48.977 72.745h8.167v3.667h-8.167z"/><g><path d="M63.31 19.578h5.167v60.375H63.31z"/><path d="M65.97 24.078h18.25v3.833H65.97zM77.053 27.912h4v4h-4zM65.97 37.245h14.083v4H65.97zM63.386 72.745h8.167v3.667h-8.167z"/></g><g><path d="M41.398 95.727l-3.654-3.653L53.566 76.25l3.654 3.655zM53.468 107.186l-3.27-3.27 13.495-13.495 3.27 3.27z"/><path d="M54.504 103.92l-3.27 3.27-13.496-13.495 3.27-3.27z"/><path d="M37.745 92.072h6.47v1.672h-6.47zM51.248 100.64h2.218v6.552h-2.218z"/></g><g><path d="M76.68 89.74l3.653 3.652-15.822 15.822-3.652-3.653zM64.61 78.28l3.27 3.268-13.495 13.497-3.27-3.27z"/><path d="M63.575 81.545l3.27-3.27L80.34 91.77l-3.27 3.27z"/><path d="M73.863 91.72h6.47v1.673h-6.47zM64.613 78.274h2.218v6.55h-2.217z"/></g></g><g><path d="M52.053 199.578h5.167v60.375h-5.167z"/><path d="M36.31 204.078h18.25v3.833H36.31zM39.477 207.912h4v4h-4zM40.477 217.245H54.56v4H40.477zM48.977 252.745h8.167v3.667h-8.167z"/><g><path d="M63.31 199.578h5.167v60.375H63.31z"/><path d="M65.97 204.078h18.25v3.833H65.97zM77.053 207.912h4v4h-4zM65.97 217.245h14.083v4H65.97zM63.386 252.745h8.167v3.667h-8.167z"/></g><g><path d="M41.396 275.728l-3.653-3.653 15.822-15.822 3.653 3.653zM53.477 287.18l-3.27-3.27 13.495-13.496 3.27 3.27z"/><path d="M54.496 283.91l-3.27 3.27-13.496-13.493 3.27-3.27z"/><path d="M37.745 272.072h6.47v1.672h-6.47zM51.248 280.64h2.218v6.552h-2.218z"/></g><g><path d="M76.68 269.738l3.655 3.653-15.823 15.823-3.653-3.653zM64.602 258.287l3.27 3.27-13.495 13.495-3.27-3.27z"/><path d="M63.582 261.553l3.27-3.27 13.496 13.495-3.27 3.27z"/><path d="M73.863 271.72h6.47v1.673h-6.47zM64.613 258.274h2.218v6.55h-2.217z"/></g></g></g><use xlink:href="#e" overflow="visible" fill="none" stroke="#DDB52B" stroke-width="7" stroke-miterlimit="10"/><radialGradient id="j" cx="261.806" cy="576.023" r="180.594" gradientUnits="userSpaceOnUse"><stop offset=".632" stop-color="#FFF"/><stop offset=".705" stop-color="#F4F5F5"/><stop offset=".855" stop-color="#EAEBEB"/><stop offset="1" stop-color="#E6E7E8"/></radialGradient></svg>