<!DOCTYPE svg PUBLIC "-//W3C//DTD SVG 1.1//EN" "http://www.w3.org/Graphics/SVG/1.1/DTD/svg11.dtd" [
	<!ENTITY ns_flows "http://ns.adobe.com/Flows/1.0/">
]><svg xmlns="http://www.w3.org/2000/svg" xmlns:xlink="http://www.w3.org/1999/xlink" width="524" height="659" viewBox="174.667 -0.5 524 659"><linearGradient id="a" gradientUnits="userSpaceOnUse" x1="212.455" y1="515.304" x2="267.349" y2="536.376"><stop offset="0" stop-color="#8B5E3C"/><stop offset=".497" stop-color="#FDC060"/></linearGradient><linearGradient id="b" gradientUnits="userSpaceOnUse" x1="605.596" y1="536.376" x2="660.49" y2="515.304"><stop offset=".503" stop-color="#FDC060"/><stop offset="1" stop-color="#8B5E3C"/></linearGradient><linearGradient id="c" gradientUnits="userSpaceOnUse" x1="176.167" y1="461.128" x2="281.759" y2="461.128"><stop offset="0" stop-color="#BCBEC0"/><stop offset=".333" stop-color="#E6E7E8"/></linearGradient><linearGradient id="d" gradientUnits="userSpaceOnUse" x1="591.187" y1="461.128" x2="696.778" y2="461.128"><stop offset=".632" stop-color="#E6E7E8"/><stop offset=".687" stop-color="#DBDCDD"/><stop offset=".793" stop-color="#CACBCD"/><stop offset=".898" stop-color="#BFC1C3"/><stop offset="1" stop-color="#BCBEC0"/></linearGradient><defs><path id="e" d="M435.78 3.5H184.76v258.714c0 161.08 140 299 251.713 341 118.286-39 251.714-175.92 251.714-337V3.5H435.78z"/></defs><radialGradient id="f" cx="436.473" cy="303.357" r="276.834" gradientUnits="userSpaceOnUse"><stop offset="0" stop-color="#E3D200"/><stop offset="1" stop-color="#B69E0D"/></radialGradient><use xlink:href="#e" overflow="visible" fill="url(#f)"/><clipPath id="g"><use xlink:href="#e" overflow="visible"/></clipPath><linearGradient id="h" gradientUnits="userSpaceOnUse" x1=".5" y1="334.208" x2="348.833" y2="334.208"><stop offset="0" stop-color="#006838"/><stop offset=".5" stop-color="#009444"/><stop offset="1" stop-color="#006838"/></linearGradient><ellipse clip-path="url(#g)" fill="url(#h)" stroke="#010101" cx="174.667" cy="334.208" rx="174.167" ry="327.708"/><linearGradient id="i" gradientUnits="userSpaceOnUse" x1="524.111" y1="332.208" x2="872.444" y2="332.208"><stop offset="0" stop-color="#006838"/><stop offset=".5" stop-color="#009444"/><stop offset="1" stop-color="#006838"/></linearGradient><ellipse clip-path="url(#g)" fill="url(#i)" stroke="#010101" cx="698.278" cy="332.208" rx="174.167" ry="327.708"/><g clip-path="url(#g)"><linearGradient id="j" gradientUnits="userSpaceOnUse" x1="126.759" y1="-43.372" x2="127.759" y2="-43.372" gradientTransform="matrix(18.588 0 0 -18.588 -1925.293 -528.82)"><stop offset="0"/><stop offset=".5" stop-color="#414042"/><stop offset="1"/></linearGradient><path fill="url(#j)" d="M449.274 462.128V93.595c.063-.345.128-.663.195-.967h-18.59v369.5h18.394z"/><path fill="none" stroke="#010101" stroke-width="2.5" d="M449.274 462.128V93.595c.063-.345.128-.663.195-.967h-18.59v369.5h18.394z"/><linearGradient id="k" gradientUnits="userSpaceOnUse" x1="126.759" y1="-43.372" x2="127.759" y2="-43.372" gradientTransform="matrix(33.57 0 0 -33.57 -3832.117 -1361.03)"><stop offset="0"/><stop offset=".5" stop-color="#414042"/><stop offset="1"/></linearGradient><path fill="url(#k)" d="M456.83 95.04c-.407 7.204-3.204 7.108-17.337 7.085-13.897-.02-16.526-.3-16.17-7.14.373-7.215 3.463-7.107 17.336-7.085 13.103.02 16.6-.44 16.17 7.14z"/><path fill="none" stroke="#010101" stroke-width=".932" d="M456.83 95.04c-.407 7.204-3.204 7.108-17.337 7.085-13.897-.02-16.526-.3-16.17-7.14.373-7.215 3.463-7.107 17.336-7.085 13.103.02 16.6-.44 16.17 7.14z"/><linearGradient id="l" gradientUnits="userSpaceOnUse" x1="126.759" y1="-43.373" x2="127.758" y2="-43.373" gradientTransform="matrix(39.585 0 0 -39.585 -4597.532 -1621.903)"><stop offset="0"/><stop offset=".5" stop-color="#414042"/><stop offset="1"/></linearGradient><path fill="url(#l)" d="M459.868 95.04c-.152 3.933-9.232 3.87-20.156 3.854-10.924-.015-19.532-.176-19.426-3.91.113-3.938 8.415-3.87 19.338-3.854 10.924.016 20.406-.228 20.244 3.91z"/><path fill="none" stroke="#010101" stroke-width=".932" d="M459.868 95.04c-.152 3.933-9.232 3.87-20.156 3.854-10.924-.015-19.532-.176-19.426-3.91.113-3.938 8.415-3.87 19.338-3.854 10.924.016 20.406-.228 20.244 3.91z"/><linearGradient id="m" gradientUnits="userSpaceOnUse" x1="126.759" y1="-43.372" x2="127.759" y2="-43.372" gradientTransform="matrix(33.598 0 0 -33.598 -3835.52 -989.423)"><stop offset="0"/><stop offset=".5" stop-color="#414042"/><stop offset="1"/></linearGradient><path fill="url(#m)" d="M456.827 468.012c-.494 7.2-3.29 7.068-17.422 6.874-13.895-.192-16.52-.502-16.083-7.337.463-7.21 3.55-7.066 17.424-6.875 13.103.18 16.603-.238 16.08 7.337z"/><path fill="none" stroke="#010101" stroke-width=".932" d="M456.827 468.012c-.494 7.2-3.29 7.068-17.422 6.874-13.895-.192-16.52-.502-16.083-7.337.463-7.21 3.55-7.066 17.424-6.875 13.103.18 16.603-.238 16.08 7.337z"/><linearGradient id="n" gradientUnits="userSpaceOnUse" x1="126.759" y1="-43.372" x2="127.759" y2="-43.372" gradientTransform="matrix(39.487 0 0 -39.487 -4585.027 -1244.876)"><stop offset="0"/><stop offset=".5" stop-color="#414042"/><stop offset="1"/></linearGradient><path fill="url(#n)" d="M459.82 467.884c-.17 4.503-9.226 4.398-20.124 4.342-10.896-.057-19.483-.272-19.36-4.548.13-4.51 9.225-4.398 20.122-4.342 10.898.057 19.54-.19 19.36 4.548z"/><path fill="none" stroke="#010101" stroke-width=".932" d="M459.82 467.884c-.17 4.503-9.226 4.398-20.124 4.342-10.896-.057-19.483-.272-19.36-4.548.13-4.51 9.225-4.398 20.122-4.342 10.898.057 19.54-.19 19.36 4.548z"/><path fill="#00AEEF" d="M392.16 171.68l-14.047 5.438-23.008 3.73 24.613-.035-17.936 11.94 24.938-11.02 5.864-4.546 16.213-14.865"/><path fill="none" stroke="#010101" stroke-width="2.5" d="M392.16 171.68l-14.047 5.438-23.008 3.73 24.613-.035-17.936 11.94 24.938-11.02 5.864-4.546 16.213-14.865z"/><linearGradient id="o" gradientUnits="userSpaceOnUse" x1="126.759" y1="-43.367" x2="127.759" y2="-43.367" gradientTransform="matrix(165.733 0 0 -165.733 -20654.566 -6907.204)"><stop offset="0" stop-color="#2E3192"/><stop offset=".5" stop-color="#00AEEF"/><stop offset="1" stop-color="#2E3192"/></linearGradient><path fill="url(#o)" d="M417.008 142.43l.606-2.426c1.713.43 3.704 1.233 3.73 1.242l1.064.424-1.52 5.062-1.198-.36-1.197-.358.407-1.354-.9-1.95c-.34-.105-.68-.203-.992-.28m36.87-18.203h-.07c-9.762 0-19.548.9-28.293 1.807-8.75.905-16.44 1.818-22.123 1.82-.78 0-1.526-.017-2.232-.055-1.196.31-2.98.97-5.08 1.854-2.212.928-4.794 2.103-7.53 3.39-5.477 2.572-11.574 5.59-16.658 8-3.394 1.606-6.326 2.94-8.384 3.71-2.2.82-3.653 1.42-4.623 1.925-.976.508-1.432.88-1.814 1.317-.255.295-.492.652-.787 1.144-.307.51-.67 1.152-1.176 1.946 2.082 2.918 4.842 4.734 7.822 5.92 3.178 1.263 6.587 1.77 9.5 2.042.202.004.404.007.606.007h.022c5.387 0 10.843-1.66 16.13-3.385 5.3-1.715 10.41-3.507 15.28-3.545h.048l-.112-.637 6.74-1.19.435 2.463-5.825 1.03c.054.894.08 1.748.08 2.568.002 4.98-.96 8.692-2.077 12.848l-.03.107-.046.1c-1.348 2.855-3.47 5.09-5.662 6.965-2.192 1.875-4.475 3.41-6.19 4.79-1.144.913-2.02 1.768-2.454 2.48-.143.234-.24.444-.302.64.254.26.552.448.927.602.526.21 1.213.323 2.03.323h.03c1.486 0 3.36-.373 5.326-.883 1.968-.508 4.03-1.145 5.984-1.632 3.444-1.017 7.004-3.215 10.868-6.818 3.87-3.607 8.03-8.613 12.648-15.144l.037-.053.042-.048c2.422-2.752 6.366-4.836 11.117-6.305 4.755-1.46 10.332-2.272 16.027-2.273 6.87.002 13.913 1.18 19.864 3.922 3.148 1.36 6.04 3.85 8.177 7.02 2.137 3.173 3.515 7.05 3.516 11.187.002 3.21-.84 6.566-2.77 9.797-1.932 3.233-4.94 6.333-9.235 9.1l-.01.006-.012.007c-17.96 11.04-31.463 16.238-48.894 22.198-13.988 5.37-23.36 10.588-29.567 15.854-6.21 5.276-9.278 10.547-10.807 16.28-1.014 3.823-1.324 7.872-1.324 12.244v.098l-.002.335c.003 5.31 1.404 9.695 3.765 13.455 2.36 3.757 5.708 6.887 9.62 9.55 7.814 5.327 17.85 8.732 26.315 11.615 6.373 1.94 11.87 3.35 16.518 4.67 4.65 1.327 8.45 2.556 11.446 4.21 1.993 1.103 3.638 2.413 4.852 4.08 1.626 2.224 2.407 5.02 2.402 8.495v.194c-.057 3.548-1.615 6.798-3.986 9.77-2.378 2.977-5.59 5.727-9.157 8.363-7.12 5.253-15.7 10.068-21.88 14.805-4.166 3.583-8.495 6.875-11.856 11.63-3.36 4.76-5.838 11.002-6.194 20.722.087 3.953 1.148 7.262 2.9 10.126 1.758 2.87 4.232 5.293 7.157 7.358 5.844 4.137 13.476 6.796 20.36 8.743 4.594 1.302 8.847 2.292 12.07 3.248 1.818.545 3.302 1.06 4.424 1.694 2.352 1.103 4.03 2.58 5.08 4.318 1.062 1.75 1.47 3.71 1.467 5.7-.004 2.843-.802 5.78-1.787 8.636-.54 1.558-1.142 3.092-1.715 4.557 1.47-.818 3-1.602 4.47-2.55 2.615-1.686 5.025-3.803 6.694-7.455 1.105-2.433 1.88-5.574 2.064-9.763-.054-2.34-.973-4.438-2.618-6.462-1.65-2.027-4.036-3.928-6.85-5.697-5.626-3.548-12.92-6.563-19.32-9.514-4.27-1.975-8.145-3.91-10.944-6.066-1.596-1.237-2.865-2.554-3.598-4.096-.388-.82-.61-1.71-.61-2.63 0-.086.003-.174.007-.262l-.002-.28c0-1.925.502-3.766 1.39-5.49.885-1.727 2.145-3.347 3.685-4.91 3.08-3.118 7.283-6.02 12.06-8.976 9.545-5.897 21.402-11.99 30.966-19.71 6.377-5.145 11.712-10.99 14.732-17.91 1.727-3.957 2.71-8.27 2.712-13.065 0-.473-.01-.95-.03-1.43v-.065c.003-.255.004-.508.004-.758-.003-6.348-.896-10.76-2.953-14.634-2.056-3.868-5.355-7.29-10.354-11.445-1.173-.876-3.436-2.023-6.264-3.203-2.855-1.195-6.31-2.453-9.944-3.662-7.272-2.42-15.293-4.646-20.812-5.844-5.387-1.17-9.908-2.603-13.497-4.256-3.586-1.657-6.257-3.52-7.905-5.68-1.095-1.434-1.72-3.042-1.718-4.712 0-1.405.44-2.81 1.257-4.143.82-1.338 2.01-2.623 3.565-3.878 3.113-2.507 7.703-4.916 13.93-7.216 13.453-4.963 29.813-11.22 50.402-22.47l.006-.002c12.056-6.503 20.22-13.733 25.374-21.648 5.153-7.917 7.343-16.543 7.347-26.008 0-.45-.004-.903-.014-1.357-.49-6.488-3.31-13.435-7.716-19.78-4.41-6.358-10.404-12.108-17.134-16.235l.003.002c-10.794-6.586-25.03-8.56-39.35-8.56"/><path fill="#010101" d="M452.345 439.106l.765.99c1.272-.99 2.94-1.858 4.756-2.855 2.718-1.496 5.787-3.306 8.232-6.5 2.45-3.19 4.193-7.712 4.477-14.394v-.075c-.04-2.444-.854-4.688-2.184-6.686-2.332-3.5-6.175-6.328-10.586-8.864-6.62-3.79-14.593-6.902-20.845-9.99-3.123-1.54-5.81-3.076-7.634-4.608-.912-.763-1.603-1.52-2.045-2.24-.442-.723-.645-1.386-.645-2.068l.004-.18.003-.053-.002-.053-.003-.256c.002-2.265.878-4.41 2.558-6.6 2.928-3.828 8.317-7.588 14.75-11.484 9.653-5.863 21.62-12.09 31.253-20.206 4.815-4.06 9.055-8.604 12.1-13.844 3.05-5.237 4.887-11.18 4.885-17.928 0-.506-.01-1.016-.03-1.53l-1.25.05 1.25.013c.003-.264.004-.525.004-.785.004-6.564-.94-11.48-3.246-15.808-2.304-4.327-5.887-7.974-10.985-12.213l-.025-.02-.024-.02c-1.517-1.126-3.878-2.29-6.824-3.527-8.813-3.685-22.72-7.8-31.19-9.643-7.006-1.518-12.432-3.494-16.003-5.675-1.788-1.088-3.103-2.224-3.94-3.328-.838-1.11-1.205-2.154-1.208-3.2 0-.886.266-1.816.89-2.84.93-1.53 2.696-3.226 5.388-4.934 2.69-1.71 6.29-3.44 10.84-5.12 13.478-4.97 30-11.29 50.735-22.62l-.005.002c12.314-6.64 20.84-14.133 26.28-22.482 5.442-8.347 7.756-17.526 7.752-27.373 0-.48-.005-.96-.016-1.443v-.033l-.004-.034c-.533-7.082-3.547-14.408-8.157-21.054-4.613-6.646-10.835-12.617-17.88-16.94l-.004-.002c-11.47-6.977-26.158-8.92-40.72-8.925-9.914 0-19.783.912-28.55 1.82-8.762.91-16.44 1.81-21.866 1.807-.813 0-1.574-.02-2.277-.062l-.19-.012-.182.045c-1.928.477-4.698 1.588-8.002 3.046-4.94 2.186-11.004 5.15-16.576 7.846-5.563 2.692-10.664 5.123-13.53 6.19-1.987.743-3.41 1.316-4.504 1.85-.82.402-1.465.784-2.006 1.207-.818.634-1.353 1.356-1.824 2.124-.478.774-.938 1.628-1.732 2.812l-.456.68.442.69c2.453 3.83 5.91 6.155 9.454 7.558 3.55 1.406 7.208 1.928 10.233 2.21l.042.004h.042c.237.007.474.01.71.01 5.907-.004 11.605-1.78 16.927-3.507 5.316-1.738 10.274-3.41 14.52-3.423l-.006-1.25-1.247.09c.074 1.022.108 1.98.108 2.892-.002 4.65-.874 8.04-1.99 12.2l1.206.323-1.13-.533c-1.7 3.63-5.133 6.354-8.32 8.717-1.59 1.188-3.105 2.28-4.31 3.434-.604.58-1.132 1.176-1.542 1.838-.408.66-.697 1.402-.75 2.208l-.028.427.24.355c.595.89 1.44 1.52 2.365 1.885.927.37 1.927.5 2.963.5 1.883-.003 3.916-.433 5.972-.962 2.053-.53 4.124-1.17 5.99-1.633l.025-.006.026-.008c3.95-1.163 7.835-3.613 11.892-7.395 4.058-3.785 8.303-8.914 12.984-15.53l-1.02-.72.94.822c1.908-2.2 5.49-4.193 9.97-5.56 4.477-1.378 9.836-2.165 15.292-2.164 6.59 0 13.318 1.15 18.83 3.7l.016.007.016.007c2.64 1.132 5.22 3.317 7.106 6.126 1.89 2.808 3.09 6.218 3.09 9.792-.002 2.777-.715 5.66-2.418 8.516-1.704 2.853-4.412 5.683-8.44 8.28l.676 1.05-.654-1.065c-17.79 10.93-31.01 16.014-48.417 21.97l-.023.008-.02.01c-18.863 7.247-29.693 14.274-35.862 21.92-3.08 3.82-4.963 7.79-6.055 11.914-1.093 4.127-1.407 8.4-1.407 12.886v.087l1.25-.003-1.25-.014-.002.364c-.003 5.756 1.55 10.66 4.15 14.786 3.9 6.196 10.077 10.643 16.818 14.103 6.747 3.458 14.095 5.937 20.445 8.104l.02.007.02.006c11.446 3.482 20.064 5.273 25.582 7.734 2.763 1.227 4.707 2.586 5.963 4.313 1.254 1.728 1.917 3.896 1.923 7.023v.166-.011c-.042 2.813-1.28 5.536-3.44 8.25-3.23 4.062-8.498 7.962-14.148 11.71-5.652 3.756-11.68 7.374-16.485 11.056l-.028.023-.03.023c-4.077 3.523-8.642 6.955-12.29 12.103-3.653 5.146-6.304 11.993-6.654 22.11v.07c.066 3.346.777 6.35 1.99 9.015 2.126 4.67 5.758 8.278 10.03 11.116 6.413 4.258 14.307 6.848 21.208 8.765 3.45.956 6.65 1.74 9.276 2.46 1.312.357 2.48.7 3.45 1.034.972.332 1.75.66 2.254.956l.048.027.05.023c2.025.948 3.27 2.093 4.046 3.37.774 1.278 1.103 2.743 1.104 4.403.004 2.362-.698 5.08-1.65 7.817-.947 2.74-2.132 5.492-3.03 8.018l-1.423 4.01 3.365-2.603-.77-.986 1.178.418c.856-2.413 2.048-5.184 3.037-8.035.985-2.855 1.783-5.794 1.787-8.638.002-1.988-.405-3.95-1.467-5.7-1.058-1.75-2.75-3.234-5.126-4.34l-.528 1.134.627-1.082c-1.128-.647-2.63-1.17-4.477-1.723-3.223-.955-7.476-1.945-12.068-3.247-6.886-1.947-14.517-4.606-20.36-8.742-2.925-2.064-5.4-4.487-7.158-7.357-1.757-2.873-2.818-6.192-2.9-10.16l-1.25.024 1.248.044c.352-9.737 2.83-15.99 6.196-20.755 3.37-4.766 7.71-8.062 11.883-11.654l-.816-.946.76.992c6.183-4.744 14.78-9.566 21.91-14.828 3.57-2.637 6.78-5.387 9.158-8.364 2.37-2.97 3.93-6.22 3.985-9.77v-.194c.006-3.473-.775-6.27-2.4-8.494-1.215-1.667-2.86-2.978-4.854-4.08-2.996-1.655-6.796-2.883-11.447-4.21-4.65-1.322-10.156-2.732-16.538-4.676l-.364 1.196.405-1.183c-8.47-2.885-18.514-6.29-26.334-11.622-3.91-2.662-7.258-5.792-9.62-9.55-2.36-3.76-3.76-8.143-3.765-13.454 0-.11 0-.223.002-.335v-.098c0-4.37.31-8.42 1.324-12.244 1.53-5.732 4.598-11.002 10.808-16.28 6.21-5.27 15.59-10.49 29.588-15.862l-.448-1.167.405 1.182c17.44-5.963 30.95-11.162 48.916-22.206l.01-.007.012-.008c4.296-2.766 7.304-5.866 9.234-9.1 1.932-3.23 2.772-6.587 2.77-9.796 0-4.137-1.378-8.014-3.514-11.188-2.14-3.174-5.037-5.666-8.192-7.026l-.494 1.148.524-1.135c-5.955-2.747-13.004-3.927-19.88-3.93-5.695.002-11.272.814-16.027 2.274-4.75 1.468-8.695 3.552-11.117 6.304l-.042.048-.037.053c-4.62 6.53-8.777 11.537-12.648 15.144-3.873 3.61-7.44 5.81-10.893 6.824l.353 1.2-.302-1.214c-1.96.488-4.035 1.128-6.012 1.64-1.973.512-3.856.885-5.347.88-.82.002-1.51-.11-2.04-.322-.53-.216-.904-.503-1.22-.962l-1.035.7 1.247.083c.02-.313.132-.653.383-1.062.433-.713 1.31-1.568 2.455-2.482 1.714-1.38 3.997-2.915 6.19-4.79 2.19-1.875 4.312-4.11 5.66-6.963l.048-.1.03-.108c1.117-4.155 2.078-7.868 2.076-12.848 0-.972-.036-1.992-.114-3.07l-.083-1.168-1.17.005c-4.87.038-9.98 1.83-15.28 3.545-5.294 1.726-10.758 3.39-16.152 3.385-.216 0-.433-.002-.65-.008l-.03 1.25.115-1.245c-2.92-.27-6.347-.776-9.542-2.045-3.2-1.273-6.146-3.272-8.27-6.583l-1.053.675 1.038.695c.76-1.13 1.246-2 1.64-2.654.294-.49.53-.847.787-1.143.383-.438.84-.81 1.814-1.318.97-.505 2.424-1.107 4.623-1.927 2.058-.77 4.99-2.103 8.384-3.71 5.085-2.41 11.182-5.427 16.658-8 2.737-1.286 5.32-2.46 7.53-3.39 2.208-.927 4.064-1.608 5.258-1.9l-.297-1.213-.076 1.248c.764.046 1.573.066 2.427.066 5.683-.002 13.374-.915 22.124-1.82 8.745-.906 18.53-1.807 28.294-1.807 14.345-.006 28.61 1.964 39.42 8.56h-.004c6.73 4.126 12.723 9.876 17.134 16.234 4.415 6.357 7.236 13.317 7.72 19.816l1.245-.093-1.25.028c.01.465.016.928.016 1.39-.005 9.464-2.194 18.09-7.348 26.007-5.155 7.915-13.318 15.145-25.374 21.648l-.006.003c-20.59 11.248-36.95 17.506-50.4 22.47-6.23 2.3-10.82 4.708-13.932 7.215-1.555 1.255-2.746 2.54-3.565 3.877-.818 1.334-1.258 2.738-1.257 4.143-.002 1.67.623 3.278 1.718 4.713 1.648 2.16 4.32 4.022 7.905 5.68 3.59 1.652 8.11 3.084 13.498 4.254 5.52 1.197 13.54 3.425 20.812 5.844 3.636 1.21 7.09 2.467 9.944 3.662 2.85 1.188 5.125 2.344 6.29 3.223l.75-1.002-.8.96c5.012 4.164 8.32 7.592 10.378 11.466 2.058 3.874 2.95 8.286 2.953 14.634 0 .25 0 .503-.004.758v.032l.002.032c.02.48.03.958.03 1.43-.002 4.795-.986 9.108-2.713 13.065-3.022 6.92-8.356 12.765-14.734 17.91-9.563 7.72-21.42 13.813-30.967 19.71-4.776 2.955-8.98 5.858-12.06 8.977-1.54 1.562-2.8 3.182-3.686 4.91-.886 1.723-1.39 3.564-1.39 5.49 0 .11.002.22.006.33l1.25-.037-1.248-.07c-.006.108-.01.215-.01.32 0 .918.222 1.807.61 2.628.733 1.542 2.002 2.858 3.598 4.096 2.8 2.156 6.674 4.09 10.944 6.065 6.4 2.95 13.694 5.966 19.32 9.514 2.814 1.77 5.2 3.67 6.85 5.696 1.654 2.035 2.574 4.146 2.62 6.5l1.25-.022-1.25-.054c-.182 4.207-.958 7.36-2.067 9.8-1.67 3.653-4.08 5.77-6.695 7.457-2.612 1.687-5.428 2.852-7.733 4.62l.765.99 1.178.417-1.178-.418"/><path fill="#010101" d="M406.334 132.894c.29 1.273-2.207 4.13-4.695 4.92-2.13.678-5.825 2.743-6.755 1.198-1.115-1.855-1.555-6.22 4.145-7.998 4.138-1.29 6.533.606 7.304 1.88z"/><path fill="none" stroke="#010101" stroke-width="2.5" d="M406.334 132.894c.29 1.273-2.207 4.13-4.695 4.92-2.13.678-5.825 2.743-6.755 1.198-1.115-1.855-1.555-6.22 4.145-7.998 4.138-1.29 6.533.606 7.304 1.88zM414.49 128.406c4.02.753 17.496 1.587 19.99 16.338 30.928-11.197 58.543-2.645 63.7-.53M434.75 293.913c12.97 3.44 37.854 4.167 41.63 16.802M419.926 392.155c8.362 5.016 6.13 2.55 22.915 5.615M406.856 235.568c-10.29 4.634-18.848 10.444-21.89 26.215M508.022 164.347c4.186 11.305 1.563 15.8-.402 21.76M449.188 219.555c9.232-1.025 23.676-5.69 30.627-8.462M429.847 221.973l-6.852 1.612"/><linearGradient id="p" gradientUnits="userSpaceOnUse" x1="126.759" y1="-42.594" x2="127.759" y2="-42.594" gradientTransform="matrix(165.733 0 0 -165.733 -20654.566 -6907.204)"><stop offset="0" stop-color="#0E0E14"/><stop offset=".5" stop-color="#0B1516"/><stop offset=".966" stop-color="#0E0F14"/><stop offset="1" stop-color="#0E0E14"/></linearGradient><path fill="url(#p)" d="M411.145 150.297l-6.74 1.19.112.636 1.122-.006.082 1.167.034.502 5.824-1.028-.435-2.46"/><path fill="#010101" d="M405.638 152.118l-1.122.006.105.594.218 1.23.917-.16c-.01-.167-.02-.334-.034-.503l-.082-1.167"/><linearGradient id="q" gradientUnits="userSpaceOnUse" x1="126.759" y1="-42.544" x2="127.759" y2="-42.544" gradientTransform="matrix(165.733 0 0 -165.733 -20654.566 -6907.204)"><stop offset="0" stop-color="#0E0E14"/><stop offset=".5" stop-color="#0B1516"/><stop offset=".966" stop-color="#0E0F14"/><stop offset="1" stop-color="#0E0E14"/></linearGradient><path fill="url(#q)" d="M418 142.71l.9 1.948.448-1.494c-.025-.01-.05-.018-.077-.027-.38-.136-.824-.287-1.27-.426"/><linearGradient id="r" gradientUnits="userSpaceOnUse" x1="126.759" y1="-42.541" x2="127.759" y2="-42.541" gradientTransform="matrix(165.733 0 0 -165.733 -20654.566 -6907.204)"><stop offset="0" stop-color="#0E0E14"/><stop offset=".5" stop-color="#0B1516"/><stop offset=".966" stop-color="#0E0F14"/><stop offset="1" stop-color="#0E0E14"/></linearGradient><path fill="url(#r)" d="M417.614 140.00400000000002l-.606 2.425c.313.077.653.175.993.28.446.14.89.29 1.272.427.026.01.052.02.077.027l-.45 1.494-.407 1.354 1.197.36 1.197.358 1.52-5.062-1.062-.424c-.027-.007-2.017-.81-3.73-1.24"/><linearGradient id="s" gradientUnits="userSpaceOnUse" x1="126.758" y1="-43.372" x2="127.758" y2="-43.372" gradientTransform="matrix(18.502 0 0 -18.502 -1914.485 -454.235)"><stop offset="0"/><stop offset=".5" stop-color="#414042"/><stop offset="1"/></linearGradient><path fill="url(#s)" d="M430.964 298.585l-.168 90.397c5.842 3.19 11.77 6.32 18.502 8.896l-.23-93.41c-6.034-2.91-12.07-4.715-18.104-5.883z"/><path fill="none" stroke="#010101" stroke-width="2.5" d="M430.964 298.585l-.168 90.397c5.842 3.19 11.77 6.32 18.502 8.896l-.23-93.41c-6.034-2.91-12.07-4.715-18.104-5.883z"/><linearGradient id="t" gradientUnits="userSpaceOnUse" x1="126.759" y1="-43.372" x2="127.759" y2="-43.372" gradientTransform="matrix(18.502 0 0 -18.502 -1914.313 -590.032)"><stop offset="0"/><stop offset=".5" stop-color="#414042"/><stop offset="1"/></linearGradient><path fill="url(#t)" d="M430.976 158.892v107.58c4.928 1.438 10.885 2.993 18.295 4.708l.208-117.47c-4.668-.225-13.538 1.55-18.502 5.182z"/><path fill="none" stroke="#010101" stroke-width="2.5" d="M430.976 158.892v107.58c4.928 1.438 10.885 2.993 18.295 4.708l.208-117.47c-4.668-.225-13.538 1.55-18.502 5.182z"/></g><g clip-path="url(#g)"><radialGradient id="u" cx="126.759" cy="-43.372" r="1" gradientTransform="matrix(74.586 0 0 -74.586 -9190.436 -2975.804)" gradientUnits="userSpaceOnUse"><stop offset="0" stop-color="#E1D680"/><stop offset="1" stop-color="#B5A270"/></radialGradient><path fill="url(#u)" d="M328.516 244.278l-7.453-21.71-13.887-17.822-15.984-12.246-26.855-11.767-19.757-3.21-17.113-1.31-21.877 1.372-3.247 7.768-.583 23.414 2.004 10.95 6.485 9.976 7.396 5.098 9.95 8.025 3.104 11.775-9.077 4.74-12.67 6.224-8.885 14.563-1.22 13.336 3.596 16.767 6.22 9.922 7.88 8.217 13.842 8.08 25.05 5.636 18.967-1.95 20.47-10.612 9.003-5.47 19.215-23.395 6.12-25.558"/><radialGradient id="v" cx="126.759" cy="-43.372" r="1" gradientTransform="matrix(76.477 0 0 -76.477 -9429.65 -3057.88)" gradientUnits="userSpaceOnUse"><stop offset="0" stop-color="#E3D200"/><stop offset="1" stop-color="#B69E0D"/></radialGradient><path fill="url(#v)" d="M267.49 180.517c-2.233-.762-3.106-1-5.48-1.498-.915-.192-1.77-.425-1.897-.52-.37-.268-7.692-1.675-8.467-1.626-.383.024-1.06-.14-1.507-.366-.447-.226-.783-.303-.748-.174.035.13-.644.09-1.51-.09s-1.817-.26-2.112-.18c-.296.08-.576.008-.622-.16-.047-.17-.46-.294-.918-.274-.46.02-1.792-.07-2.96-.2-1.17-.128-2.722-.244-3.447-.257-.726-.012-1.55-.124-1.83-.248s-1.05-.165-1.708-.09c-.66.073-1.684.03-2.278-.097-.593-.127-1.375-.148-1.737-.05-.362.1-.796.1-.967.004-.17-.097-.512-.166-.76-.153l-1.007.05c-.596.027-4.3-.027-6.29-.093-.666-.022-1.768.056-2.447.174-.68.118-1.44.154-1.69.08-.25-.072-.822-.102-1.272-.062-1.084.094-3.904.268-5.065.313-.51.02-1.66.14-2.552.267-.893.125-2.257.24-3.03.252-1.043.015-1.543.184-1.927.647-.63.765-1.788 3.225-1.687 3.59.04.147-.083 1.17-.272 2.272-.695 4.043-.9 5.582-.88 6.575.013.56-.093 1.14-.235 1.292-.142.152-.11.817.07 1.478.182.66.193 1.238.025 1.284-.168.045-.27.592-.226 1.215.042.624.002 1.69-.092 2.37-.264 1.922-.31 3.88-.107 4.62.103.37.098 1.585-.008 2.7-.107 1.115-.096 2.386.024 2.825.12.44.123.986.004 1.214-.357.69.664 6.7 1.89 11.116 1.307 4.718 3.852 9.914 5.414 11.055.308.225.9.787 1.316 1.25 1.05 1.167 6.586 4.392 9.484 5.523 4.012 1.565 8.192 5.44 9.856 9.137.783 1.736 1.69 5.35 1.62 6.436-.035.513-1.078.767-3.323.81-.513.01-3.54.667-6.727 1.458-5.294 1.313-5.975 1.56-7.89 2.853-2.568 1.736-4.89 4.35-6.814 7.67-1.498 2.585-4.265 9.21-4.1 9.813.052.187-.024.372-.167.413-.31.088-.728 1.505-1.846 6.264-.214.913-.446 1.76-.516 1.882-.136.24-.767 3.666-.91 4.938-.116 1.047-.067 3.74.11 5.97.08 1.01.182 2.608.228 3.55.08 1.683 1.782 8.205 2.933 11.69l5.865 10.59c1.333 1.776 2.762 3.475 3.942 4.6.774.74 1.457 1.523 1.517 1.74.06.22.266.355.458.303.192-.053.396.08.455.29.058.213.74.853 1.514 1.42.776.57 1.437 1.132 1.47 1.25.196.717 10.165 6.41 13.784 7.873 5.164 2.084 9.35 3.31 14.885 4.357 5.68 1.075 8.37 1.48 8.995 1.35.196-.04.835.03 1.42.154 1.546.33 4.194.45 5.844.268.788-.087 1.72-.094 2.07-.014.35.08 1.434.032 2.408-.107.975-.138 2.445-.26 3.268-.27 2.334-.028 8.3-1.613 10.138-2.693.89-.52 2.312-1.206 3.166-1.52.852-.317 1.81-.82 2.13-1.118.32-.3 1.395-.873 2.388-1.277.992-.403 2.026-.943 2.296-1.2.27-.255 1.068-.726 1.772-1.044 1.416-.64 2.632-1.402 8.694-5.445 2.268-1.513 4.835-3.377 5.708-4.143.872-.766 1.73-1.432 1.91-1.48.487-.135 4.722-4.026 4.767-4.384.02-.17.34-.394.708-.495.367-.1.628-.33.58-.508-.05-.18.2-.513.553-.743 1.333-.864 5.596-6.842 8.593-12.053 1.71-2.974 3.063-5.574 3.01-5.78-.055-.206.253-1.135.686-2.064 1.912-4.112 4.103-12.295 5.357-20.008.158-.972.347-2.076.418-2.454.074-.378.077-.888.01-1.133s.03-1.117.22-1.938c.187-.822.253-1.81.147-2.196-.106-.388-.134-1.014-.06-1.392.225-1.174.387-4.438.297-5.984-.047-.812-.155-3.06-.238-4.998-.084-1.936-.36-4.562-.614-5.833-.253-1.272-.44-2.87-.418-3.55.06-1.73-4.62-18.748-5.375-19.543-.32-.338-.793-1.38-1.05-2.318-.258-.94-.91-2.418-1.452-3.288-.542-.87-1.255-2.183-1.587-2.915-.33-.733-.815-1.558-1.076-1.833-.26-.276-.565-.833-.676-1.237-.11-.404-.684-1.263-1.274-1.91s-1.183-1.575-1.316-2.062c-.133-.487-.36-.854-.505-.814s-.58-.39-.967-.953c-1.148-1.676-2.313-3.197-2.55-3.333-.123-.07-1.306-1.308-2.63-2.75-1.323-1.445-2.776-2.903-3.228-3.24-.452-.34-1.99-1.646-3.42-2.905-1.432-1.26-2.81-2.418-3.067-2.576-.256-.156-1.6-1.054-2.984-1.994-3.344-2.27-10.49-6.325-12.866-7.3-1.046-.43-2.01-.87-2.144-.974-.457-.362-7.666-3.098-7.955-3.02-.157.044-.372-.023-.475-.15-.223-.27-3.97-1.63-4.27-1.547-.122.028-1.107-.25-2.195-.623zm48.69 59.51c-.136.036-1.118-.36-2.183-.878-1.763-.862-3.042-1.245-6.472-1.94-.655-.132-1.3-.323-1.43-.424-.13-.102-.755-.227-1.388-.278s-2.09-.182-3.24-.29-2.75-.118-3.56-.02c-.81.097-1.625.13-1.812.077-.65-.19-2.69.1-4.768.68-2.606.73-8.113 3.763-9.854 5.43-.288.274-1.172 1.056-1.966 1.736-.794.68-1.407 1.366-1.364 1.523.043.157-.168.355-.47.438-.302.084-.697.413-.88.732-.18.32-.967 1.505-1.746 2.635-1.413 2.05-2.047 3.157-6.955 12.105-1.432 2.61-2.705 4.774-2.83 4.808-.124.034-.624.576-1.108 1.205-.825 1.07-1.794 1.942-4.417 3.974-1.798 1.393-6.26 3.153-6.43 2.537-.044-.16.143-.352.414-.426.924-.252 5.96-5.253 7.064-7.013.162-.258.776-1.095 1.365-1.86.59-.765 1.887-3.252 2.885-5.528 2.807-6.405 7.526-15.504 8.13-15.68.14-.04.788-.77 1.436-1.62 2.43-3.186 8.048-7.474 12.54-9.568 4.513-2.104 10.886-3.5 14.798-3.236.84.056 1.81.028 2.152-.063.777-.206 4.316.482 6.102 1.188.736.292 1.506.483 1.71.427.206-.056.413.045.46.224s.443.34.875.357c.896.036 9.49 4.607 9.63 5.124.052.188.66.64 1.353 1.002 1.68.883 2.233 2.06 3.238 6.888.776 3.732.788 4.042.138 3.71-.39-.198-1.184-.874-1.765-1.5s-1.7-1.64-2.49-2.248c-1.7-1.31-6.805-4.324-7.16-4.226zm-62.37 28.348c-.288.08-.54.082-.562.007-.02-.076.174-.292.43-.48.258-.19.51-.193.562-.007.05.186-.144.4-.43.48zm-1.777 1.816c-.495.404-.938.757-.98.786-.043.03-.21-.422-.37-1.003l-.288-1.056 1.27.27 1.27.27-.902.734zm3.902 10.73c.192-.054.395.07.45.273.056.203-.08.316-.306.25-.226-.065-.427-.19-.45-.274-.025-.086.112-.198.305-.25zm52.034-23.584c-6.105-3.555-8.93-4.246-15.67-3.833-1.318.08-3.242.45-4.275.818-3.754 1.343-5.116 1.935-5.678 2.47-.314.298-.86.622-1.213.718-.642.176-6.27 4.978-6.474 5.523-.06.16-.806 1.13-1.66 2.156-.852 1.026-1.9 2.436-2.33 3.134-.426.697-.96 1.32-1.187 1.383-.226.062-.568.39-.762.73-.415.73-2.84 2.99-2.914 2.714-.03-.104-.425.143-.88.55-1.055.94-5.4 2.99-6.296 2.966-.374-.01-1.15.028-1.73.084-1.074.104-1.613-.03-1.426-.36.12-.21 1.805-.94 5-2.173 1.21-.467 2.568-1.184 3.012-1.595.445-.41 1.02-.802 1.277-.873.484-.133 5.655-5.188 5.845-5.713.058-.163.322-.51.588-.77.864-.853 2.775-3.68 4.537-6.71.95-1.635 2.287-3.426 2.97-3.98.68-.556 1.204-1.137 1.16-1.292-.04-.154.197-.363.53-.464.334-.1 1.13-.74 1.768-1.42 1.426-1.52 1.38-1.482 3.546-2.8 2.793-1.697 7.654-3.073 10.615-3.004.21.005.963-.016 1.676-.045 3.154-.13 8.992 1.89 13.23 4.583.644.408 1.782 1.108 2.53 1.557 1.526.914 3.993 2.987 4.937 4.147.342.422 1.198 1.453 1.9 2.292.703.838 1.48 1.807 1.727 2.152.246.345.973 1.254 1.614 2.02.64.766 1.257 1.726 1.37 2.135.11.407.386.794.61.86.616.182 1.98 5.623 1.85 7.37-.137 1.807-.644 4.286-1.067 5.222-.27.593-.347.603-.73.09-.238-.317-.624-1.233-.858-2.036-.236-.803-.663-1.782-.95-2.177-.29-.395-1.064-1.583-1.724-2.64-3.772-6.044-7.862-9.943-14.467-13.79zm-50.737 24.472c.224-.17.528-.24.676-.156.147.085-.036.224-.41.31-.41.093-.514.034-.267-.154zm2.88.217c.512-.14.97-.107 1.02.073.09.326-1.26.575-1.713.316-.13-.074.182-.25.694-.39zm32.86-11.017c-5.388-1.023-8.16-.912-13.038.526-2.357.695-4.646 1.538-5.087 1.872-.44.335-1.61.944-2.6 1.355-.988.412-2.158 1.017-2.6 1.347-.854.637-9.558 3.158-10.012 2.9-.147-.084.738-.438 1.966-.787 3.537-1.004 5.55-1.8 5.84-2.308.147-.258.544-.546.883-.64.338-.092 1.23-.568 1.98-1.058 3.574-2.336 4.75-3.047 5.936-3.583.706-.317 1.498-.782 1.76-1.03.263-.25 1.27-.757 2.24-1.127.968-.37 1.884-.808 2.037-.97.58-.626 8.872-3.03 9.75-2.832.478.11 1.36.143 1.965.076.604-.067 1.763.08 2.575.327.813.248 2.383.635 3.49.862 1.108.225 2.75.83 3.652 1.344 1.86 1.058 4.795 3.92 6.4 6.236.6.86 1.31 1.73 1.58 1.933.272.2.962 1.08 1.534 1.955.573.875 1.507 2.306 2.078 3.18.57.876 1.34 2.353 1.71 3.283.37.93.88 1.918 1.14 2.195.256.276.617 1.053.8 1.724.186.672.58 1.556.88 1.966.3.41 1.01 2.04 1.58 3.624 1.178 3.272 1.193 3.183-1.406 7.83l-1.385 2.474-2.042-7.128c-1.97-6.872-2.117-7.244-4.08-10.32-1.12-1.757-2.734-4.015-3.587-5.018-.853-1.004-2.16-2.63-2.903-3.61-.744-.984-1.48-1.752-1.636-1.71s-.342-.13-.412-.39c-.28-1.02-6.856-3.712-10.984-4.496zm1.185 18.702c-2.06-2.527-7.192-5.46-10.445-5.966-1.4-.22-2.836-.465-3.19-.55-1.006-.235-5.202-.042-7.37.342-1.08.19-3.176.244-4.654.12s-2.983-.216-3.343-.2c-.36.02-.965-.145-1.346-.36-.38-.216-.992-.31-1.362-.21s-.705.067-.745-.077c-.04-.145 2-.866 4.53-1.605 2.53-.74 6.24-1.836 8.24-2.438 5.355-1.614 8.956-1.852 13.225-.875 2.075.475 6.174 2.687 8.298 4.478 4.52 3.812 8.663 15.407 8.956 25.06.037 1.226.118 2.723.18 3.325.062.602.07 1.443.02 1.87-.05.426-.112 2.13-.14 3.79-.068 4.26-.483 5.312-2.955 7.487-1.79 1.576-2.877 2.152-4.18 2.215-.248.012-.19-.5.384-3.476.14-.724.194-1.542.118-1.817-.075-.275-.065-.813.02-1.195.176-.767.33-4.778.273-7.1-.02-.82-.05-2.585-.067-3.92-.03-2.327-.287-4.746-1.04-9.842-.55-3.73-1.826-7.12-3.405-9.056zm-14.244 46.24c.03-.37.138-.778.236-.907.232-.31 1.936-5.157 2.422-6.896.21-.746.566-1.75.794-2.232.23-.483.355-1.1.282-1.37-.074-.27-.03-.574.095-.677.126-.104.378-1.156.558-2.34.183-1.185.467-2.457.632-2.83.167-.37.23-.933.145-1.25-.087-.317-.104-1.226-.04-2.022.235-2.882-.054-5.55-.933-8.59-.865-2.994-1.453-4.18-3.222-6.5-1.177-1.544-5.517-4.58-6.898-4.824-.642-.114-1.276-.304-1.412-.42-.136-.12-.324-.168-.417-.11-.232.14-2.903-.217-7.22-.965-2.963-.516-4.207-.98-7.313-2.732-4.757-2.684-6.737-4.813-8.166-8.775-.598-1.658-.9-2.975-.773-3.352.18-.526.24-.522.394.027.433 1.526 3.708 4.31 7.81 6.637 4.07 2.307 4.49 2.452 10.555 3.62 3.474.67 6.57 1.15 6.878 1.065 1.798-.493 10.172 2.918 10.55 4.298.09.33.65 1.07 1.244 1.645.998.968 1.166 1.416 2.217 5.884 1.37 5.82 1.558 10.932.553 14.948-.196.782-.63 2.702-.962 4.266-.333 1.566-.78 3.097-.995 3.403-.215.307-.33.773-.257 1.037s-.025.524-.218.577c-.19.052-.3.265-.244.473.057.207-.24 1.175-.66 2.15-.42.975-.96 2.462-1.194 3.306-.47 1.682-2.075 3.424-3.552 3.854-.755.22-.933.14-.886-.396zm-28.6-59.576c-.29.453-.476 1.078-.413 1.39.075.38-.007.353-.25-.082-.2-.358-.58-.806-.847-.996-.622-.445-.444-.726.828-1.3 1.192-.537 1.433-.188.683.988zm8.973 63.675c2.672-4.42 3.47-6.076 4.586-9.51.72-2.218 1.28-4.142 1.242-4.277-.037-.136.067-.97.23-1.858.166-.887.224-2.18.13-2.874-.092-.692-.294-2.406-.448-3.808-.433-3.96-2.502-10.41-3.87-12.066-.417-.504-2.598-3.03-4.847-5.61-4.123-4.732-5.375-6.533-4.898-7.045.143-.152.807.283 1.473.968 2.17 2.226 6.31 4.897 9.664 6.24 3.553 1.42 6.847 3.49 7.808 4.906 1.458 2.15 2.703 7.042 2.567 10.08-.06 1.35-.23 2.58-.375 2.736-.146.156-.182.59-.08.967.104.375.117.994.03 1.376-.086.382-.297 1.577-.467 2.655-.323 2.042-1.01 4.312-1.406 4.635-.126.104-.178.377-.115.608.063.232-.315 1.293-.843 2.357-.528 1.065-.93 2.066-.89 2.225.144.61-2.254 5.104-3.457 6.48-1.352 1.547-2.25 1.938-4.456 1.93-1.652-.005-2.072-.3-1.58-1.113zm-22.35-66.16c.678-1.032 1.404-1.923 1.615-1.98.21-.058.344-.244.298-.412-.116-.422 1.345-1.456 3.047-2.158 1.647-.68 3.525-.647 4.05.068.455.617-.004 1.606-.528 1.14-.65-.577-1.932-.66-2.61-.167-.365.268-.877 1.064-1.136 1.773-.47 1.28-.466 1.292.454 2.026.51.406 1.632.914 2.494 1.127 1.595.394 2.544 1.365 1.59 1.627-.285.078-.655-.03-.82-.243-.6-.76-1.746 2.418-1.517 4.206.44 3.45 1.695 8.463 2.516 10.055 1.974 3.827 3.373 6.662 3.832 7.764.27.648.81 1.934 1.204 2.858 1.936 4.55 2.433 9.605 1.527 15.52-1.153 7.537-2.97 13.6-5.355 17.878-1.65 2.96-2.112 3.273-4.798 3.264-.774 0-1.447-.146-1.495-.32-.047-.17.385-.904.96-1.627 1.535-1.925 3.766-5.76 3.633-6.246-.063-.23-.01-.503.12-.606.272-.22 1.697-3.597 2.027-4.808.794-2.897 1.382-6.34 1.197-7.014-.12-.436-.116-.98.007-1.21.415-.774.273-5.846-.3-10.776-.32-2.75-1.89-8.98-2.5-9.92-.252-.39-.672-.65-.933-.58-.72.197-1.45 2.248-1.166 3.283.285 1.035.043 4.835-.352 5.525-.142.25-.12.96.05 1.577.168.618.203 1.207.077 1.31-.126.104-.474 1.39-.772 2.857-.298 1.468-.748 3.06-.998 3.54s-.416 1.02-.365 1.205c.05.183-.014.42-.14.523-.13.104-.69 1.53-1.25 3.168-.988 2.9-6.176 12.68-6.818 12.857-.177.05-.873.725-1.546 1.502s-1.554 1.624-1.957 1.878c-.91.578-3.45.084-5.458-1.06-1.67-.952-1.63-1.768.13-2.693.582-.306 1.107-.725 1.168-.932.06-.208.404-.457.763-.556.358-.098.808-.453 1-.788.188-.335.81-1.037 1.38-1.56 2.196-2.022 5.41-6.868 7.594-11.455 1.21-2.545 2.734-8.264 2.462-9.254-.078-.278-.037-.59.09-.694.512-.42.805-5.878.51-9.526-.16-2-.308-2.533-.798-2.875-1.194-.835-2.933.315-2.555 1.692.095.345.015.67-.176.723-.19.053-.29.307-.22.565.07.258-.107.84-.396 1.292-.288.453-.474 1.004-.414 1.224.33 1.208-5.486 11.342-8.186 14.26-.256.277-1.432 1.654-2.615 3.063-1.184 1.406-2.346 2.61-2.585 2.677-.24.066-.7.437-1.02.824-.323.39-.943.882-1.378 1.097-.78.384-2.345 1.534-4.23 3.107-1.314 1.097-2.375 1.342-2.643.607-.93-2.542-.566-4.25 1.94-9.115.975-1.89 4.423-6.6 4.935-6.74.162-.044.52-.448.8-.897.806-1.306 4.79-5.886 5.22-6.004.217-.06.358-.236.316-.392-.08-.293.64-1.028 4.983-5.08 3.33-3.105 3.493-3.392 2.32-4.06-.572-.326-1.2-.382-1.676-.15-.417.204-1.132.554-1.586.778-.454.222-1.43.667-2.167.986-.736.32-1.848.88-2.47 1.243-.624.364-1.72.927-2.44 1.25-.718.326-1.642.837-2.052 1.136-.41.3-1.224.768-1.81 1.04-1.818.852-4.04 2.397-6.308 4.39-.472.412-1.063.807-1.313.875-.25.07-1.418.98-2.593 2.024s-2.222 1.92-2.327 1.95c-.104.03-.705.615-1.333 1.304-1.89 2.07-2.978 1.805-2.01-.49.25-.593.423-1.195.383-1.338-.063-.228 1.222-2.422 2.398-4.098.223-.317.984-1.107 1.695-1.758.71-.65 1.343-1.3 1.407-1.444.063-.144 1.272-.968 2.685-1.832 1.414-.864 2.682-1.75 2.817-1.97.136-.218.616-.498 1.067-.622.45-.124 1.192-.568 1.646-.987.455-.42 1.96-1.184 3.35-1.697 1.384-.512 2.59-1.004 2.676-1.093.085-.088 1.38-.615 2.876-1.17 3.08-1.146 3.846-1.716 3.585-2.667-.377-1.377-3.734-1.84-10.004-1.38-2.994.217-8.787 1.678-11.087 2.792-1.016.492-2.882 1.363-3.98 1.86-.5.225-1.055.564-1.23.753-.597.64-4.238 2.34-4.5 2.098-.352-.33.394-2.174 1.14-2.817 4.214-3.64 15.23-6.96 22.113-6.664 3.548.152 4.436-.223 3.554-1.504-.33-.478-.988-1.008-1.465-1.176-.476-.17-2.024-.75-3.438-1.29-3.72-1.424-6.725-2.024-9.975-1.995-.836.01-4.89.876-8.282 1.77-2.022.537-2.2.525-1.91-.11.778-1.72 4.47-3.833 8.554-4.896 3.5-.912 4.473-.78 8.764 1.185.59.27 1.936.868 2.99 1.33 1.054.46 2.023.914 2.15 1.005.66.47 3.99.872 5.236.63 5.16-.99 6.298-1.676 8.586-5.164zm28.717-90.365c1.65.546 3.14.955 3.312.907.172-.047.402.035.51.18.11.147 1.258.638 2.554 1.09 1.295.453 3.01 1.146 3.814 1.54.802.396 2.084.947 2.848 1.227 3.538 1.295 18.446 9.71 18.674 10.54.072.265.288.436.48.384.192-.053.404.106.472.354.067.246.737.865 1.487 1.374.75.508 1.425 1.125 1.5 1.372.077.245.535.69 1.02.99.484.3 1.264.964 1.733 1.478.47.514 1.29 1.322 1.82 1.795.53.473 1.12 1.07 1.313 1.328.353.474.72.89 1.737 1.962 1.543 1.627 3.978 4.6 4.083 4.986.065.24.333.67.592.957.8.884 2.753 3.934 3.52 5.5 1.532 3.132 2.484 5.516 2.316 5.8-.096.162-1.744-.525-3.663-1.527-1.92-1.002-3.69-1.768-3.936-1.7-.247.066-.48.004-.522-.14-.21-.747-11.054-3.027-16.117-3.39-2.63-.187-14.224 2.747-16.16 4.09-.71.492-1.6 1.032-1.98 1.2-.38.17-.857.536-1.06.814-.202.276-1.65 1.673-3.217 3.103-5.594 5.104-8.766 10.5-9.96 16.95-.283 1.52-.62 3.3-.75 3.955-.41 2.07-2.308 7.73-2.895 8.634-.31.478-.525 1.006-.48 1.173.154.56-4.214 6.713-4.896 6.9-.173.047-.383-.167-.467-.474s.125-1.387.468-2.398c.342-1.01.6-1.917.572-2.013-.026-.098.276-.793.672-1.546.395-.753.95-2.54 1.234-3.975.284-1.434.627-2.694.764-2.8.136-.107.174-.462.084-.793-.09-.33-.063-.787.063-1.017.333-.61 1.277-4.458 1.82-7.42.724-3.933 2.896-10.127 4.535-12.928.81-1.386 2.376-3.54 3.48-4.784 1.102-1.244 2.133-2.448 2.29-2.677.3-.435 2.55-2.437 2.845-2.53.096-.03.595-.365 1.11-.742 1.544-1.13 4.07-2.685 5.302-3.26.637-.297 1.637-.823 2.225-1.168s4.04-1.442 7.67-2.438c3.633-.995 6.737-1.95 6.9-2.125.468-.503-.168-2.133-1.08-2.767-1.377-.958-4.844-1.8-6.045-1.472-.612.167-1.642.192-2.288.055-.646-.137-1.158-.187-1.136-.11.02.078-1 .203-2.268.28-2.233.136-7.146 1.465-9.166 2.48-.543.274-1.52.71-2.172.97-.65.26-1.765.813-2.476 1.232-1.093.645-4.018 2.23-6.53 3.54-2.48 1.292-6.854 5.148-7.656 6.75-.312.624-.875 2.084-1.25 3.248-.375 1.162-.826 2.384-1.002 2.712-.31.58-.433 1.388-.656 4.255-.058.738-.177 1.886-.267 2.55-.09.667-.1 2.442-.028 3.947.072 1.505.112 2.996.086 3.312-.024.315.07 2.146.21 4.067.4 5.45.4 5.517.072 5.606-.17.046-.25.298-.178.56.182.662-.33 4.614-.626 4.848-.132.106-.182.41-.108.68.2.724-.828 4.947-1.498 6.16-.353.637-.826 1.032-1.196.995-.9-.09-1.014-1.057-.202-1.734.854-.71 1.91-3.86 1.996-5.947.034-.835.136-1.707.226-1.938.09-.23.122-.914.07-1.52-.424-5.024-.55-7.226-.467-8.107.055-.565-.062-1.615-.258-2.332s-.257-1.49-.137-1.72c.12-.228.062-1.356-.128-2.508-.19-1.15-.245-2.57-.12-3.155.126-.585.278-1.5.336-2.03.258-2.314 1.015-5.838 1.647-7.655.376-1.082.652-2.09.612-2.24-.04-.147.233-.86.606-1.58.373-.72 1.09-2.256 1.595-3.41 1.53-3.5 3.802-7.633 4.27-7.76.24-.067.454-.27.473-.45.04-.375 5.846-8.034 6.153-8.12.343-.093 1.976-2.18 2.706-3.457.857-1.498.722-2.094-.6-2.652-1.722-.726-4.244.49-7.897 3.808-1.116 1.012-2.053 1.75-2.084 1.637-.03-.112-.42.16-.867.6-.447.443-1.162 1.065-1.59 1.385-2.45 1.826-5.852 5.964-8.444 10.27-.812 1.346-2.474 6-2.33 6.52.05.188-.012.425-.138.528-.214.175-.69 2.43-.995 4.712-.25 1.853-.198 6.328.082 7.35.155.565.167 1.226.03 1.467-.143.25.627 4.02 1.77 8.685 1.113 4.534 1.996 8.303 1.96 8.376-.145.303-2.09-3.872-2.9-6.227-.48-1.398-1.188-2.82-1.572-3.16-.385-.338-1.04-1.522-1.457-2.632-.418-1.108-1.104-2.623-1.525-3.364-.42-.742-.913-2.21-1.093-3.263-.18-1.053-.52-2.96-.75-4.236-.234-1.278-.568-3.138-.746-4.136-.336-1.902-.09-9.804.33-10.542.135-.235.17-.754.077-1.152-.092-.397.025-1.45.26-2.34.235-.89.625-2.536.864-3.657.24-1.122.633-2.418.876-2.882.43-.82.673-1.712 1.252-4.596.153-.765.45-1.885.66-2.49.21-.606.317-1.338.237-1.628s.02-.638.223-.773c.646-.433-.265-2.564-1.267-2.962-.807-.322-1.065-.264-2.162.485-1.506 1.03-4.795 3.973-5.244 4.693-.177.286-.718 1.04-1.202 1.675-1.908 2.516-3.39 5.787-3.735 8.238-.07.5-.203 1.182-.294 1.516-.093.335-.387 1.725-.653 3.09-.266 1.362-.554 2.792-.638 3.174-.084.382-.16 2.01-.17 3.615-.01 2.603.173 3.53 1.696 8.537 1.26 4.143 2.134 6.387 3.327 8.55.89 1.612 1.835 3.378 2.1 3.923.267.547.96 1.55 1.538 2.23.578.68 1.125 1.502 1.215 1.828.09.326.376.827.638 1.114.816.89 3.287 4.958 3.502 5.764.113.422.37.814.57.873.51.152 1.466 2.352 2.806 6.468l1.146 3.522-1.1-.162c-1.598-.234-4.627-1.267-5.965-2.032-1.604-.92-5.09-5.014-5.464-6.42-.17-.64-.333-1.917-.364-2.836-.072-2.138-1.347-6.737-1.965-7.09-.26-.147-.55-.56-.648-.915-.188-.688-2.352-3.114-2.844-3.19-.162-.023-.346-.235-.41-.47-.27-.99-5.734-4.777-7.41-5.137-1.276-.273-3.337-1.39-5.104-2.765-.765-.595-1.837-1.367-2.384-1.717-.866-.555-3.118-3.722-4.814-6.773-.3-.538-1.187-3.083-1.975-5.658-1.326-4.336-1.437-5.01-1.507-9.128-.04-2.445-.174-4.81-.295-5.252-.122-.444-.084-.844.083-.89.168-.046.234-.736.147-1.535-.087-.798-.08-2.024.015-2.724.096-.7.18-2.033.184-2.962.01-1.825.298-5.117.548-6.243.084-.38.19-1.845.235-3.25.11-3.415.66-5.967 1.4-6.488.333-.235 1.687-.488 3.006-.563 1.32-.076 3.2-.27 4.175-.427.978-.16 1.97-.23 2.208-.16.475.143.462.144 2.78-.195.893-.13 2.083-.193 2.644-.137.56.056 1.73.016 2.593-.087.866-.104 1.732-.142 1.924-.086.192.057 1.137.108 2.1.113.963.004 2.706.108 3.874.23 1.167.12 2.456.2 2.86.176.764-.046 1.022-.017 4.174.476 1.03.16 2.02.25 2.203.2.182-.048 1.978.206 3.99.567 2.012.36 4.715.817 6.007 1.012 1.292.196 3.024.492 3.85.66.825.167 1.732.242 2.014.165.283-.078.55 0 .6.17.046.172.544.3 1.106.29.562-.012 1.13.06 1.264.163.133.102 1.23.405 2.44.674 1.207.268 3.545.935 5.194 1.48z"/><path fill="none" stroke="#000" d="M267.49 180.517c-2.233-.762-3.106-1-5.48-1.498-.915-.192-1.77-.425-1.897-.52-.37-.268-7.692-1.675-8.467-1.626-.383.024-1.06-.14-1.507-.366-.447-.226-.783-.303-.748-.174.035.13-.644.09-1.51-.09s-1.817-.26-2.112-.18c-.296.08-.576.008-.622-.16-.047-.17-.46-.294-.918-.274-.46.02-1.792-.07-2.96-.2-1.17-.128-2.722-.244-3.447-.257-.726-.012-1.55-.124-1.83-.248s-1.05-.165-1.708-.09c-.66.073-1.684.03-2.278-.097-.593-.127-1.375-.148-1.737-.05-.362.1-.796.1-.967.004-.17-.097-.512-.166-.76-.153l-1.007.05c-.596.027-4.3-.027-6.29-.093-.666-.022-1.768.056-2.447.174-.68.118-1.44.154-1.69.08-.25-.072-.822-.102-1.272-.062-1.084.094-3.904.268-5.065.313-.51.02-1.66.14-2.552.267-.893.125-2.257.24-3.03.252-1.043.015-1.543.184-1.927.647-.63.765-1.788 3.225-1.687 3.59.04.147-.083 1.17-.272 2.272-.695 4.043-.9 5.582-.88 6.575.013.56-.093 1.14-.235 1.292-.142.152-.11.817.07 1.478.182.66.193 1.238.025 1.284-.168.045-.27.592-.226 1.215.042.624.002 1.69-.092 2.37-.264 1.922-.31 3.88-.107 4.62.103.37.098 1.585-.008 2.7-.107 1.115-.096 2.386.024 2.825.12.44.123.986.004 1.214-.357.69.664 6.7 1.89 11.116 1.307 4.718 3.852 9.914 5.414 11.055.308.225.9.787 1.316 1.25 1.05 1.167 6.586 4.392 9.484 5.523 4.012 1.565 8.192 5.44 9.856 9.137.783 1.736 1.69 5.35 1.62 6.436-.035.513-1.078.767-3.323.81-.513.01-3.54.667-6.727 1.458-5.294 1.313-5.975 1.56-7.89 2.853-2.568 1.736-4.89 4.35-6.814 7.67-1.498 2.585-4.265 9.21-4.1 9.813.052.187-.024.372-.167.413-.31.088-.728 1.505-1.846 6.264-.214.913-.446 1.76-.516 1.882-.136.24-.767 3.666-.91 4.938-.116 1.047-.067 3.74.11 5.97.08 1.01.182 2.608.228 3.55.08 1.683 1.782 8.205 2.933 11.69l5.865 10.59c1.333 1.776 2.762 3.475 3.942 4.6.774.74 1.457 1.523 1.517 1.74.06.22.266.355.458.303.192-.053.396.08.455.29.058.213.74.853 1.514 1.42.776.57 1.437 1.132 1.47 1.25.196.717 10.165 6.41 13.784 7.873 5.164 2.084 9.35 3.31 14.885 4.357 5.68 1.075 8.37 1.48 8.995 1.35.196-.04.835.03 1.42.154 1.546.33 4.194.45 5.844.268.788-.087 1.72-.094 2.07-.014.35.08 1.434.032 2.408-.107.975-.138 2.445-.26 3.268-.27 2.334-.028 8.3-1.613 10.138-2.693.89-.52 2.312-1.206 3.166-1.52.852-.317 1.81-.82 2.13-1.118.32-.3 1.395-.873 2.388-1.277.992-.403 2.026-.943 2.296-1.2.27-.255 1.068-.726 1.772-1.044 1.416-.64 2.632-1.402 8.694-5.445 2.268-1.513 4.835-3.377 5.708-4.143.872-.766 1.73-1.432 1.91-1.48.487-.135 4.722-4.026 4.767-4.384.02-.17.34-.394.708-.495.367-.1.628-.33.58-.508-.05-.18.2-.513.553-.743 1.333-.864 5.596-6.842 8.593-12.053 1.71-2.974 3.063-5.574 3.01-5.78-.055-.206.253-1.135.686-2.064 1.912-4.112 4.103-12.295 5.357-20.008.158-.972.347-2.076.418-2.454.074-.378.077-.888.01-1.133s.03-1.117.22-1.938c.187-.822.253-1.81.147-2.196-.106-.388-.134-1.014-.06-1.392.225-1.174.387-4.438.297-5.984-.047-.812-.155-3.06-.238-4.998-.084-1.936-.36-4.562-.614-5.833-.253-1.272-.44-2.87-.418-3.55.06-1.73-4.62-18.748-5.375-19.543-.32-.338-.793-1.38-1.05-2.318-.258-.94-.91-2.418-1.452-3.288-.542-.87-1.255-2.183-1.587-2.915-.33-.733-.815-1.558-1.076-1.833-.26-.276-.565-.833-.676-1.237-.11-.404-.684-1.263-1.274-1.91s-1.183-1.575-1.316-2.062c-.133-.487-.36-.854-.505-.814s-.58-.39-.967-.953c-1.148-1.676-2.313-3.197-2.55-3.333-.123-.07-1.306-1.308-2.63-2.75-1.323-1.445-2.776-2.903-3.228-3.24-.452-.34-1.99-1.646-3.42-2.905-1.432-1.26-2.81-2.418-3.067-2.576-.256-.156-1.6-1.054-2.984-1.994-3.344-2.27-10.49-6.325-12.866-7.3-1.046-.43-2.01-.87-2.144-.974-.457-.362-7.666-3.098-7.955-3.02-.157.044-.372-.023-.475-.15-.223-.27-3.97-1.63-4.27-1.547-.122.028-1.107-.25-2.195-.623zm48.69 59.51c-.136.036-1.118-.36-2.183-.878-1.763-.862-3.042-1.245-6.472-1.94-.655-.132-1.3-.323-1.43-.424-.13-.102-.755-.227-1.388-.278s-2.09-.182-3.24-.29-2.75-.118-3.56-.02c-.81.097-1.625.13-1.812.077-.65-.19-2.69.1-4.768.68-2.606.73-8.113 3.763-9.854 5.43-.288.274-1.172 1.056-1.966 1.736-.794.68-1.407 1.366-1.364 1.523.043.157-.168.355-.47.438-.302.084-.697.413-.88.732-.18.32-.967 1.505-1.746 2.635-1.413 2.05-2.047 3.157-6.955 12.105-1.432 2.61-2.705 4.774-2.83 4.808-.124.034-.624.576-1.108 1.205-.825 1.07-1.794 1.942-4.417 3.974-1.798 1.393-6.26 3.153-6.43 2.537-.044-.16.143-.352.414-.426.924-.252 5.96-5.253 7.064-7.013.162-.258.776-1.095 1.365-1.86.59-.765 1.887-3.252 2.885-5.528 2.807-6.405 7.526-15.504 8.13-15.68.14-.04.788-.77 1.436-1.62 2.43-3.186 8.048-7.474 12.54-9.568 4.513-2.104 10.886-3.5 14.798-3.236.84.056 1.81.028 2.152-.063.777-.206 4.316.482 6.102 1.188.736.292 1.506.483 1.71.427.206-.056.413.045.46.224s.443.34.875.357c.896.036 9.49 4.607 9.63 5.124.052.188.66.64 1.353 1.002 1.68.883 2.233 2.06 3.238 6.888.776 3.732.788 4.042.138 3.71-.39-.198-1.184-.874-1.765-1.5s-1.7-1.64-2.49-2.248c-1.7-1.31-6.805-4.324-7.16-4.226zm-62.37 28.348c-.288.08-.54.082-.562.007-.02-.076.174-.292.43-.48.258-.19.51-.193.562-.007.05.186-.144.4-.43.48zm-1.777 1.816c-.495.404-.938.757-.98.786-.043.03-.21-.422-.37-1.003l-.288-1.056 1.27.27 1.27.27-.902.734zm3.902 10.73c.192-.054.395.07.45.273.056.203-.08.316-.306.25-.226-.065-.427-.19-.45-.274-.025-.086.112-.198.305-.25zm52.034-23.584c-6.105-3.555-8.93-4.246-15.67-3.833-1.318.08-3.242.45-4.275.818-3.754 1.343-5.116 1.935-5.678 2.47-.314.298-.86.622-1.213.718-.642.176-6.27 4.978-6.474 5.523-.06.16-.806 1.13-1.66 2.156-.852 1.026-1.9 2.436-2.33 3.134-.426.697-.96 1.32-1.187 1.383-.226.062-.568.39-.762.73-.415.73-2.84 2.99-2.914 2.714-.03-.104-.425.143-.88.55-1.055.94-5.4 2.99-6.296 2.966-.374-.01-1.15.028-1.73.084-1.074.104-1.613-.03-1.426-.36.12-.21 1.805-.94 5-2.173 1.21-.467 2.568-1.184 3.012-1.595.445-.41 1.02-.802 1.277-.873.484-.133 5.655-5.188 5.845-5.713.058-.163.322-.51.588-.77.864-.853 2.775-3.68 4.537-6.71.95-1.635 2.287-3.426 2.97-3.98.68-.556 1.204-1.137 1.16-1.292-.04-.154.197-.363.53-.464.334-.1 1.13-.74 1.768-1.42 1.426-1.52 1.38-1.482 3.546-2.8 2.793-1.697 7.654-3.073 10.615-3.004.21.005.963-.016 1.676-.045 3.154-.13 8.992 1.89 13.23 4.583.644.408 1.782 1.108 2.53 1.557 1.526.914 3.993 2.987 4.937 4.147.342.422 1.198 1.453 1.9 2.292.703.838 1.48 1.807 1.727 2.152.246.345.973 1.254 1.614 2.02.64.766 1.257 1.726 1.37 2.135.11.407.386.794.61.86.616.182 1.98 5.623 1.85 7.37-.137 1.807-.644 4.286-1.067 5.222-.27.593-.347.603-.73.09-.238-.317-.624-1.233-.858-2.036-.236-.803-.663-1.782-.95-2.177-.29-.395-1.064-1.583-1.724-2.64-3.772-6.044-7.862-9.943-14.467-13.79zm-50.737 24.472c.224-.17.528-.24.676-.156.147.085-.036.224-.41.31-.41.093-.514.034-.267-.154zm2.88.217c.512-.14.97-.107 1.02.073.09.326-1.26.575-1.713.316-.13-.074.182-.25.694-.39zm32.86-11.017c-5.388-1.023-8.16-.912-13.038.526-2.357.695-4.646 1.538-5.087 1.872-.44.335-1.61.944-2.6 1.355-.988.412-2.158 1.017-2.6 1.347-.854.637-9.558 3.158-10.012 2.9-.147-.084.738-.438 1.966-.787 3.537-1.004 5.55-1.8 5.84-2.308.147-.258.544-.546.883-.64.338-.092 1.23-.568 1.98-1.058 3.574-2.336 4.75-3.047 5.936-3.583.706-.317 1.498-.782 1.76-1.03.263-.25 1.27-.757 2.24-1.127.968-.37 1.884-.808 2.037-.97.58-.626 8.872-3.03 9.75-2.832.478.11 1.36.143 1.965.076.604-.067 1.763.08 2.575.327.813.248 2.383.635 3.49.862 1.108.225 2.75.83 3.652 1.344 1.86 1.058 4.795 3.92 6.4 6.236.6.86 1.31 1.73 1.58 1.933.272.2.962 1.08 1.534 1.955.573.875 1.507 2.306 2.078 3.18.57.876 1.34 2.353 1.71 3.283.37.93.88 1.918 1.14 2.195.256.276.617 1.053.8 1.724.186.672.58 1.556.88 1.966.3.41 1.01 2.04 1.58 3.624 1.178 3.272 1.193 3.183-1.406 7.83l-1.385 2.474-2.042-7.128c-1.97-6.872-2.117-7.244-4.08-10.32-1.12-1.757-2.734-4.015-3.587-5.018-.853-1.004-2.16-2.63-2.903-3.61-.744-.984-1.48-1.752-1.636-1.71s-.342-.13-.412-.39c-.28-1.02-6.856-3.712-10.984-4.496zm1.185 18.702c-2.06-2.527-7.192-5.46-10.445-5.966-1.4-.22-2.836-.465-3.19-.55-1.006-.235-5.202-.042-7.37.342-1.08.19-3.176.244-4.654.12s-2.983-.216-3.343-.2c-.36.02-.965-.145-1.346-.36-.38-.216-.992-.31-1.362-.21s-.705.067-.745-.077c-.04-.145 2-.866 4.53-1.605 2.53-.74 6.24-1.836 8.24-2.438 5.355-1.614 8.956-1.852 13.225-.875 2.075.475 6.174 2.687 8.298 4.478 4.52 3.812 8.663 15.407 8.956 25.06.037 1.226.118 2.723.18 3.325.062.602.07 1.443.02 1.87-.05.426-.112 2.13-.14 3.79-.068 4.26-.483 5.312-2.955 7.487-1.79 1.576-2.877 2.152-4.18 2.215-.248.012-.19-.5.384-3.476.14-.724.194-1.542.118-1.817-.075-.275-.065-.813.02-1.195.176-.767.33-4.778.273-7.1-.02-.82-.05-2.585-.067-3.92-.03-2.327-.287-4.746-1.04-9.842-.55-3.73-1.826-7.12-3.405-9.056zm-14.244 46.24c.03-.37.138-.778.236-.907.232-.31 1.936-5.157 2.422-6.896.21-.746.566-1.75.794-2.232.23-.483.355-1.1.282-1.37-.074-.27-.03-.574.095-.677.126-.104.378-1.156.558-2.34.183-1.185.467-2.457.632-2.83.167-.37.23-.933.145-1.25-.087-.317-.104-1.226-.04-2.022.235-2.882-.054-5.55-.933-8.59-.865-2.994-1.453-4.18-3.222-6.5-1.177-1.544-5.517-4.58-6.898-4.824-.642-.114-1.276-.304-1.412-.42-.136-.12-.324-.168-.417-.11-.232.14-2.903-.217-7.22-.965-2.963-.516-4.207-.98-7.313-2.732-4.757-2.684-6.737-4.813-8.166-8.775-.598-1.658-.9-2.975-.773-3.352.18-.526.24-.522.394.027.433 1.526 3.708 4.31 7.81 6.637 4.07 2.307 4.49 2.452 10.555 3.62 3.474.67 6.57 1.15 6.878 1.065 1.798-.493 10.172 2.918 10.55 4.298.09.33.65 1.07 1.244 1.645.998.968 1.166 1.416 2.217 5.884 1.37 5.82 1.558 10.932.553 14.948-.196.782-.63 2.702-.962 4.266-.333 1.566-.78 3.097-.995 3.403-.215.307-.33.773-.257 1.037s-.025.524-.218.577c-.19.052-.3.265-.244.473.057.207-.24 1.175-.66 2.15-.42.975-.96 2.462-1.194 3.306-.47 1.682-2.075 3.424-3.552 3.854-.755.22-.933.14-.886-.396zm-28.6-59.576c-.29.453-.476 1.078-.413 1.39.075.38-.007.353-.25-.082-.2-.358-.58-.806-.847-.996-.622-.445-.444-.726.828-1.3 1.192-.537 1.433-.188.683.988zm8.973 63.675c2.672-4.42 3.47-6.076 4.586-9.51.72-2.218 1.28-4.142 1.242-4.277-.037-.136.067-.97.23-1.858.166-.887.224-2.18.13-2.874-.092-.692-.294-2.406-.448-3.808-.433-3.96-2.502-10.41-3.87-12.066-.417-.504-2.598-3.03-4.847-5.61-4.123-4.732-5.375-6.533-4.898-7.045.143-.152.807.283 1.473.968 2.17 2.226 6.31 4.897 9.664 6.24 3.553 1.42 6.847 3.49 7.808 4.906 1.458 2.15 2.703 7.042 2.567 10.08-.06 1.35-.23 2.58-.375 2.736-.146.156-.182.59-.08.967.104.375.117.994.03 1.376-.086.382-.297 1.577-.467 2.655-.323 2.042-1.01 4.312-1.406 4.635-.126.104-.178.377-.115.608.063.232-.315 1.293-.843 2.357-.528 1.065-.93 2.066-.89 2.225.144.61-2.254 5.104-3.457 6.48-1.352 1.547-2.25 1.938-4.456 1.93-1.652-.005-2.072-.3-1.58-1.113zm-22.35-66.16c.678-1.032 1.404-1.923 1.615-1.98.21-.058.344-.244.298-.412-.116-.422 1.345-1.456 3.047-2.158 1.647-.68 3.525-.647 4.05.068.455.617-.004 1.606-.528 1.14-.65-.577-1.932-.66-2.61-.167-.365.268-.877 1.064-1.136 1.773-.47 1.28-.466 1.292.454 2.026.51.406 1.632.914 2.494 1.127 1.595.394 2.544 1.365 1.59 1.627-.285.078-.655-.03-.82-.243-.6-.76-1.746 2.418-1.517 4.206.44 3.45 1.695 8.463 2.516 10.055 1.974 3.827 3.373 6.662 3.832 7.764.27.648.81 1.934 1.204 2.858 1.936 4.55 2.433 9.605 1.527 15.52-1.153 7.537-2.97 13.6-5.355 17.878-1.65 2.96-2.112 3.273-4.798 3.264-.774 0-1.447-.146-1.495-.32-.047-.17.385-.904.96-1.627 1.535-1.925 3.766-5.76 3.633-6.246-.063-.23-.01-.503.12-.606.272-.22 1.697-3.597 2.027-4.808.794-2.897 1.382-6.34 1.197-7.014-.12-.436-.116-.98.007-1.21.415-.774.273-5.846-.3-10.776-.32-2.75-1.89-8.98-2.5-9.92-.252-.39-.672-.65-.933-.58-.72.197-1.45 2.248-1.166 3.283.285 1.035.043 4.835-.352 5.525-.142.25-.12.96.05 1.577.168.618.203 1.207.077 1.31-.126.104-.474 1.39-.772 2.857-.298 1.468-.748 3.06-.998 3.54s-.416 1.02-.365 1.205c.05.183-.014.42-.14.523-.13.104-.69 1.53-1.25 3.168-.988 2.9-6.176 12.68-6.818 12.857-.177.05-.873.725-1.546 1.502s-1.554 1.624-1.957 1.878c-.91.578-3.45.084-5.458-1.06-1.67-.952-1.63-1.768.13-2.693.582-.306 1.107-.725 1.168-.932.06-.208.404-.457.763-.556.358-.098.808-.453 1-.788.188-.335.81-1.037 1.38-1.56 2.196-2.022 5.41-6.868 7.594-11.455 1.21-2.545 2.734-8.264 2.462-9.254-.078-.278-.037-.59.09-.694.512-.42.805-5.878.51-9.526-.16-2-.308-2.533-.798-2.875-1.194-.835-2.933.315-2.555 1.692.095.345.015.67-.176.723-.19.053-.29.307-.22.565.07.258-.107.84-.396 1.292-.288.453-.474 1.004-.414 1.224.33 1.208-5.486 11.342-8.186 14.26-.256.277-1.432 1.654-2.615 3.063-1.184 1.406-2.346 2.61-2.585 2.677-.24.066-.7.437-1.02.824-.323.39-.943.882-1.378 1.097-.78.384-2.345 1.534-4.23 3.107-1.314 1.097-2.375 1.342-2.643.607-.93-2.542-.566-4.25 1.94-9.115.975-1.89 4.423-6.6 4.935-6.74.162-.044.52-.448.8-.897.806-1.306 4.79-5.886 5.22-6.004.217-.06.358-.236.316-.392-.08-.293.64-1.028 4.983-5.08 3.33-3.105 3.493-3.392 2.32-4.06-.572-.326-1.2-.382-1.676-.15-.417.204-1.132.554-1.586.778-.454.222-1.43.667-2.167.986-.736.32-1.848.88-2.47 1.243-.624.364-1.72.927-2.44 1.25-.718.326-1.642.837-2.052 1.136-.41.3-1.224.768-1.81 1.04-1.818.852-4.04 2.397-6.308 4.39-.472.412-1.063.807-1.313.875-.25.07-1.418.98-2.593 2.024s-2.222 1.92-2.327 1.95c-.104.03-.705.615-1.333 1.304-1.89 2.07-2.978 1.805-2.01-.49.25-.593.423-1.195.383-1.338-.063-.228 1.222-2.422 2.398-4.098.223-.317.984-1.107 1.695-1.758.71-.65 1.343-1.3 1.407-1.444.063-.144 1.272-.968 2.685-1.832 1.414-.864 2.682-1.75 2.817-1.97.136-.218.616-.498 1.067-.622.45-.124 1.192-.568 1.646-.987.455-.42 1.96-1.184 3.35-1.697 1.384-.512 2.59-1.004 2.676-1.093.085-.088 1.38-.615 2.876-1.17 3.08-1.146 3.846-1.716 3.585-2.667-.377-1.377-3.734-1.84-10.004-1.38-2.994.217-8.787 1.678-11.087 2.792-1.016.492-2.882 1.363-3.98 1.86-.5.225-1.055.564-1.23.753-.597.64-4.238 2.34-4.5 2.098-.352-.33.394-2.174 1.14-2.817 4.214-3.64 15.23-6.96 22.113-6.664 3.548.152 4.436-.223 3.554-1.504-.33-.478-.988-1.008-1.465-1.176-.476-.17-2.024-.75-3.438-1.29-3.72-1.424-6.725-2.024-9.975-1.995-.836.01-4.89.876-8.282 1.77-2.022.537-2.2.525-1.91-.11.778-1.72 4.47-3.833 8.554-4.896 3.5-.912 4.473-.78 8.764 1.185.59.27 1.936.868 2.99 1.33 1.054.46 2.023.914 2.15 1.005.66.47 3.99.872 5.236.63 5.16-.99 6.298-1.676 8.586-5.164zm28.717-90.365c1.65.546 3.14.955 3.312.907.172-.047.402.035.51.18.11.147 1.258.638 2.554 1.09 1.295.453 3.01 1.146 3.814 1.54.802.396 2.084.947 2.848 1.227 3.538 1.295 18.446 9.71 18.674 10.54.072.265.288.436.48.384.192-.053.404.106.472.354.067.246.737.865 1.487 1.374.75.508 1.425 1.125 1.5 1.372.077.245.535.69 1.02.99.484.3 1.264.964 1.733 1.478.47.514 1.29 1.322 1.82 1.795.53.473 1.12 1.07 1.313 1.328.353.474.72.89 1.737 1.962 1.543 1.627 3.978 4.6 4.083 4.986.065.24.333.67.592.957.8.884 2.753 3.934 3.52 5.5 1.532 3.132 2.484 5.516 2.316 5.8-.096.162-1.744-.525-3.663-1.527-1.92-1.002-3.69-1.768-3.936-1.7-.247.066-.48.004-.522-.14-.21-.747-11.054-3.027-16.117-3.39-2.63-.187-14.224 2.747-16.16 4.09-.71.492-1.6 1.032-1.98 1.2-.38.17-.857.536-1.06.814-.202.276-1.65 1.673-3.217 3.103-5.594 5.104-8.766 10.5-9.96 16.95-.283 1.52-.62 3.3-.75 3.955-.41 2.07-2.308 7.73-2.895 8.634-.31.478-.525 1.006-.48 1.173.154.56-4.214 6.713-4.896 6.9-.173.047-.383-.167-.467-.474s.125-1.387.468-2.398c.342-1.01.6-1.917.572-2.013-.026-.098.276-.793.672-1.546.395-.753.95-2.54 1.234-3.975.284-1.434.627-2.694.764-2.8.136-.107.174-.462.084-.793-.09-.33-.063-.787.063-1.017.333-.61 1.277-4.458 1.82-7.42.724-3.933 2.896-10.127 4.535-12.928.81-1.386 2.376-3.54 3.48-4.784 1.102-1.244 2.133-2.448 2.29-2.677.3-.435 2.55-2.437 2.845-2.53.096-.03.595-.365 1.11-.742 1.544-1.13 4.07-2.685 5.302-3.26.637-.297 1.637-.823 2.225-1.168s4.04-1.442 7.67-2.438c3.633-.995 6.737-1.95 6.9-2.125.468-.503-.168-2.133-1.08-2.767-1.377-.958-4.844-1.8-6.045-1.472-.612.167-1.642.192-2.288.055-.646-.137-1.158-.187-1.136-.11.02.078-1 .203-2.268.28-2.233.136-7.146 1.465-9.166 2.48-.543.274-1.52.71-2.172.97-.65.26-1.765.813-2.476 1.232-1.093.645-4.018 2.23-6.53 3.54-2.48 1.292-6.854 5.148-7.656 6.75-.312.624-.875 2.084-1.25 3.248-.375 1.162-.826 2.384-1.002 2.712-.31.58-.433 1.388-.656 4.255-.058.738-.177 1.886-.267 2.55-.09.667-.1 2.442-.028 3.947.072 1.505.112 2.996.086 3.312-.024.315.07 2.146.21 4.067.4 5.45.4 5.517.072 5.606-.17.046-.25.298-.178.56.182.662-.33 4.614-.626 4.848-.132.106-.182.41-.108.68.2.724-.828 4.947-1.498 6.16-.353.637-.826 1.032-1.196.995-.9-.09-1.014-1.057-.202-1.734.854-.71 1.91-3.86 1.996-5.947.034-.835.136-1.707.226-1.938.09-.23.122-.914.07-1.52-.424-5.024-.55-7.226-.467-8.107.055-.565-.062-1.615-.258-2.332s-.257-1.49-.137-1.72c.12-.228.062-1.356-.128-2.508-.19-1.15-.245-2.57-.12-3.155.126-.585.278-1.5.336-2.03.258-2.314 1.015-5.838 1.647-7.655.376-1.082.652-2.09.612-2.24-.04-.147.233-.86.606-1.58.373-.72 1.09-2.256 1.595-3.41 1.53-3.5 3.802-7.633 4.27-7.76.24-.067.454-.27.473-.45.04-.375 5.846-8.034 6.153-8.12.343-.093 1.976-2.18 2.706-3.457.857-1.498.722-2.094-.6-2.652-1.722-.726-4.244.49-7.897 3.808-1.116 1.012-2.053 1.75-2.084 1.637-.03-.112-.42.16-.867.6-.447.443-1.162 1.065-1.59 1.385-2.45 1.826-5.852 5.964-8.444 10.27-.812 1.346-2.474 6-2.33 6.52.05.188-.012.425-.138.528-.214.175-.69 2.43-.995 4.712-.25 1.853-.198 6.328.082 7.35.155.565.167 1.226.03 1.467-.143.25.627 4.02 1.77 8.685 1.113 4.534 1.996 8.303 1.96 8.376-.145.303-2.09-3.872-2.9-6.227-.48-1.398-1.188-2.82-1.572-3.16-.385-.338-1.04-1.522-1.457-2.632-.418-1.108-1.104-2.623-1.525-3.364-.42-.742-.913-2.21-1.093-3.263-.18-1.053-.52-2.96-.75-4.236-.234-1.278-.568-3.138-.746-4.136-.336-1.902-.09-9.804.33-10.542.135-.235.17-.754.077-1.152-.092-.397.025-1.45.26-2.34.235-.89.625-2.536.864-3.657.24-1.122.633-2.418.876-2.882.43-.82.673-1.712 1.252-4.596.153-.765.45-1.885.66-2.49.21-.606.317-1.338.237-1.628s.02-.638.223-.773c.646-.433-.265-2.564-1.267-2.962-.807-.322-1.065-.264-2.162.485-1.506 1.03-4.795 3.973-5.244 4.693-.177.286-.718 1.04-1.202 1.675-1.908 2.516-3.39 5.787-3.735 8.238-.07.5-.203 1.182-.294 1.516-.093.335-.387 1.725-.653 3.09-.266 1.362-.554 2.792-.638 3.174-.084.382-.16 2.01-.17 3.615-.01 2.603.173 3.53 1.696 8.537 1.26 4.143 2.134 6.387 3.327 8.55.89 1.612 1.835 3.378 2.1 3.923.267.547.96 1.55 1.538 2.23.578.68 1.125 1.502 1.215 1.828.09.326.376.827.638 1.114.816.89 3.287 4.958 3.502 5.764.113.422.37.814.57.873.51.152 1.466 2.352 2.806 6.468l1.146 3.522-1.1-.162c-1.598-.234-4.627-1.267-5.965-2.032-1.604-.92-5.09-5.014-5.464-6.42-.17-.64-.333-1.917-.364-2.836-.072-2.138-1.347-6.737-1.965-7.09-.26-.147-.55-.56-.648-.915-.188-.688-2.352-3.114-2.844-3.19-.162-.023-.346-.235-.41-.47-.27-.99-5.734-4.777-7.41-5.137-1.276-.273-3.337-1.39-5.104-2.765-.765-.595-1.837-1.367-2.384-1.717-.866-.555-3.118-3.722-4.814-6.773-.3-.538-1.187-3.083-1.975-5.658-1.326-4.336-1.437-5.01-1.507-9.128-.04-2.445-.174-4.81-.295-5.252-.122-.444-.084-.844.083-.89.168-.046.234-.736.147-1.535-.087-.798-.08-2.024.015-2.724.096-.7.18-2.033.184-2.962.01-1.825.298-5.117.548-6.243.084-.38.19-1.845.235-3.25.11-3.415.66-5.967 1.4-6.488.333-.235 1.687-.488 3.006-.563 1.32-.076 3.2-.27 4.175-.427.978-.16 1.97-.23 2.208-.16.475.143.462.144 2.78-.195.893-.13 2.083-.193 2.644-.137.56.056 1.73.016 2.593-.087.866-.104 1.732-.142 1.924-.086.192.057 1.137.108 2.1.113.963.004 2.706.108 3.874.23 1.167.12 2.456.2 2.86.176.764-.046 1.022-.017 4.174.476 1.03.16 2.02.25 2.203.2.182-.048 1.978.206 3.99.567 2.012.36 4.715.817 6.007 1.012 1.292.196 3.024.492 3.85.66.825.167 1.732.242 2.014.165.283-.078.55 0 .6.17.046.172.544.3 1.106.29.562-.012 1.13.06 1.264.163.133.102 1.23.405 2.44.674 1.207.268 3.545.935 5.194 1.48z"/><g><radialGradient id="w" cx="126.759" cy="-43.372" r="1" gradientTransform="scale(74.586) rotate(180 67.46 -19.95)" gradientUnits="userSpaceOnUse"><stop offset="0" stop-color="#E1D680"/><stop offset="1" stop-color="#B5A270"/></radialGradient><path fill="url(#w)" d="M544.43 244.278l7.452-21.71 13.888-17.822 15.983-12.246 26.855-11.767 19.758-3.21 17.112-1.31 21.877 1.372 3.248 7.768.582 23.414-2.003 10.95-6.486 9.976-7.397 5.098-9.95 8.025-3.105 11.775 9.077 4.74 12.67 6.224 8.886 14.563 1.22 13.336-3.597 16.767-6.22 9.922-7.88 8.217-13.84 8.08-25.05 5.636-18.968-1.95-20.47-10.612-9.003-5.47-19.216-23.395-6.12-25.558"/><radialGradient id="x" cx="126.759" cy="-43.372" r="1" gradientTransform="scale(76.477) rotate(180 67.358 -19.992)" gradientUnits="userSpaceOnUse"><stop offset="0" stop-color="#E3D200"/><stop offset="1" stop-color="#B69E0D"/></radialGradient><path fill="url(#x)" d="M603.268 181.137c-.3-.083-4.048 1.276-4.27 1.548-.104.126-.318.194-.477.15-.288-.08-7.497 2.657-7.954 3.02-.133.104-1.098.543-2.144.972-2.375.976-9.522 5.032-12.866 7.3-1.385.94-2.73 1.838-2.985 1.995-.256.158-1.635 1.316-3.065 2.575-1.43 1.26-2.97 2.564-3.42 2.904-.452.34-1.905 1.797-3.23 3.24-1.324 1.445-2.506 2.683-2.63 2.752-.237.136-1.4 1.656-2.55 3.333-.387.564-.822.994-.967.954s-.373.326-.506.813c-.134.487-.727 1.415-1.316 2.062s-1.163 1.506-1.273 1.91c-.11.404-.416.96-.677 1.237-.26.275-.745 1.1-1.077 1.833-.333.732-1.046 2.044-1.59 2.915-.54.87-1.192 2.35-1.45 3.287-.256.937-.728 1.98-1.05 2.318-.753.795-5.435 17.814-5.374 19.543.023.682-.164 2.278-.418 3.55-.253 1.27-.53 3.896-.613 5.832-.084 1.937-.19 4.186-.238 4.998-.09 1.547.072 4.81.298 5.984.073.378.046 1.004-.06 1.392-.107.387-.04 1.375.146 2.196.19.82.288 1.693.22 1.94-.066.244-.063.754.01 1.132.07.378.26 1.482.418 2.454 1.254 7.713 3.445 15.896 5.357 20.008.432.93.74 1.858.687 2.064-.055.206 1.3 2.806 3.01 5.78 2.997 5.21 7.26 11.188 8.593 12.052.354.23.604.563.555.743s.212.408.58.508c.367.102.686.325.707.496.046.357 4.28 4.25 4.77 4.383.178.048 1.037.714 1.908 1.48.872.766 3.44 2.63 5.707 4.143 6.063 4.043 7.278 4.805 8.694 5.446.704.317 1.503.788 1.772 1.044.27.256 1.305.795 2.297 1.2.993.403 2.066.977 2.388 1.276.32.3 1.278.8 2.13 1.117.854.315 2.277 1 3.166 1.52 1.838 1.08 7.804 2.667 10.138 2.694.822.01 2.293.133 3.268.27.974.14 2.06.19 2.408.11s1.282-.074 2.07.013c1.65.183 4.3.06 5.846-.268.584-.125 1.223-.193 1.42-.153.624.128 3.315-.276 8.995-1.35 5.534-1.047 9.722-2.274 14.885-4.358 3.62-1.46 13.59-7.155 13.785-7.873.032-.117.692-.68 1.468-1.248.774-.57 1.457-1.208 1.515-1.42.058-.212.263-.343.454-.29.192.05.398-.084.458-.303s.742-1.003 1.517-1.74c1.18-1.127 2.61-2.825 3.94-4.6l5.868-10.59c1.15-3.487 2.852-10.01 2.932-11.692.047-.942.148-2.54.23-3.55.176-2.23.225-4.923.108-5.97-.143-1.272-.773-4.7-.91-4.938-.068-.122-.3-.97-.516-1.882-1.118-4.76-1.536-6.176-1.846-6.264-.144-.04-.22-.226-.17-.413.167-.602-2.6-7.226-4.098-9.812-1.923-3.32-4.246-5.935-6.814-7.67-1.915-1.292-2.596-1.54-7.89-2.852-3.188-.79-6.215-1.446-6.728-1.457-2.245-.044-3.288-.3-3.323-.81-.07-1.088.84-4.7 1.62-6.437 1.666-3.697 5.846-7.572 9.857-9.137 2.897-1.13 8.435-4.355 9.484-5.524.416-.462 1.01-1.024 1.316-1.25 1.562-1.14 4.106-6.335 5.415-11.054 1.226-4.417 2.247-10.425 1.89-11.116-.12-.228-.117-.774.004-1.214.12-.44.13-1.71.023-2.825-.105-1.115-.11-2.33-.01-2.7.203-.738.158-2.697-.105-4.62-.095-.68-.135-1.746-.092-2.37.045-.623-.057-1.17-.225-1.216-.168-.046-.157-.624.023-1.284.182-.66.213-1.326.072-1.478-.143-.152-.248-.733-.236-1.292.02-.994-.184-2.532-.88-6.576-.188-1.103-.312-2.125-.272-2.27.102-.367-1.055-2.827-1.687-3.592-.384-.463-.884-.632-1.926-.648-.775-.013-2.14-.126-3.033-.252-.893-.127-2.04-.246-2.553-.266-1.16-.046-3.98-.22-5.064-.314-.45-.04-1.02-.01-1.27.063-.252.072-1.013.036-1.692-.08-.68-.12-1.78-.197-2.447-.175-1.988.066-5.692.12-6.288.092l-1.007-.05c-.25-.013-.59.056-.76.153s-.606.096-.968-.003-1.144-.078-1.736.05c-.594.126-1.618.17-2.278.095-.657-.073-1.427-.033-1.707.09-.28.126-1.105.237-1.83.25-.726.012-2.276.128-3.446.257-1.17.127-2.504.217-2.963.198-.458-.02-.87.104-.918.273-.047.17-.327.243-.623.162-.295-.08-1.245 0-2.112.18-.865.18-1.545.22-1.51.09.036-.13-.3-.052-.746.174-.447.226-1.126.39-1.51.366-.774-.05-8.097 1.358-8.466 1.627-.13.093-.982.326-1.896.517-2.375.497-3.248.736-5.48 1.498-1.09.375-2.076.653-2.19.622zm-53.663 63.114c-.79.61-1.91 1.62-2.49 2.248s-1.376 1.303-1.766 1.5c-.65.333-.64.023.137-3.71 1.005-4.828 1.558-6.004 3.238-6.887.692-.362 1.3-.813 1.352-1 .142-.517 8.734-5.088 9.63-5.124.433-.017.825-.177.874-.356s.257-.28.463-.224c.204.056.974-.135 1.71-.426 1.786-.706 5.325-1.394 6.102-1.188.344.092 1.313.12 2.152.063 3.912-.263 10.285 1.13 14.797 3.236 4.493 2.096 10.112 6.383 12.54 9.57.647.85 1.294 1.58 1.436 1.62.604.174 5.323 9.273 8.13 15.678.998 2.276 2.296 4.764 2.886 5.528.59.765 1.203 1.602 1.364 1.86 1.104 1.76 6.14 6.76 7.063 7.014.27.074.46.266.414.426-.168.617-4.63-1.144-6.43-2.538-2.623-2.03-3.592-2.904-4.417-3.974-.484-.628-.983-1.17-1.11-1.205-.123-.035-1.396-2.2-2.828-4.81-4.908-8.948-5.542-10.054-6.955-12.104-.778-1.13-1.564-2.315-1.746-2.635-.18-.318-.576-.647-.878-.73-.302-.083-.513-.28-.47-.438.044-.158-.57-.843-1.364-1.522-.793-.68-1.678-1.46-1.965-1.737-1.74-1.666-7.248-4.7-9.854-5.428-2.078-.58-4.12-.872-4.77-.68-.186.053-1 .02-1.81-.078s-2.412-.09-3.562.02c-1.148.108-2.606.238-3.24.29s-1.258.177-1.39.278c-.13.1-.772.292-1.428.425-3.43.694-4.708 1.077-6.472 1.938-1.064.52-2.047.914-2.183.877-.355-.097-5.46 2.916-7.16 4.226zm69.1 23.645c.052-.186.304-.183.562.006.257.19.45.407.43.482-.02.075-.272.07-.56-.007-.288-.08-.483-.294-.43-.48zm1.307 1.563l1.27-.27 1.27-.27-.29 1.055c-.158.58-.324 1.032-.367 1.003-.043-.03-.486-.38-.98-.785l-.903-.732zm-2.695 11.71c-.023.086-.226.21-.45.275-.226.066-.362-.047-.308-.25.056-.203.258-.327.45-.274s.33.164.307.25zm-66.808-10.04c-.66 1.057-1.437 2.245-1.724 2.64-.288.395-.715 1.375-.95 2.177-.234.803-.62 1.718-.856 2.035-.385.514-.463.504-.73-.09-.424-.936-.932-3.416-1.066-5.22-.133-1.75 1.232-7.19 1.848-7.37.225-.067.5-.455.61-.862.113-.41.73-1.37 1.37-2.135.64-.766 1.368-1.675 1.613-2.02.247-.345 1.024-1.314 1.727-2.153.703-.84 1.56-1.87 1.9-2.292.943-1.16 3.41-3.234 4.938-4.147.748-.448 1.887-1.147 2.53-1.556 4.237-2.693 10.076-4.715 13.23-4.584.713.03 1.466.05 1.675.045 2.96-.07 7.822 1.307 10.615 3.005 2.167 1.317 2.12 1.28 3.545 2.8.64.68 1.434 1.32 1.77 1.42.332.1.57.31.527.463-.043.155.48.736 1.162 1.29.683.556 2.02 2.347 2.97 3.98 1.762 3.033 3.673 5.86 4.536 6.71.266.262.53.608.588.772.19.525 5.36 5.58 5.846 5.713.257.07.83.464 1.276.872.444.41 1.802 1.127 3.013 1.595 3.193 1.23 4.88 1.963 5 2.174.187.327-.353.462-1.428.358-.578-.056-1.355-.095-1.73-.084-.894.023-5.24-2.025-6.295-2.967-.455-.406-.852-.653-.88-.55-.076.275-2.5-1.982-2.916-2.714-.193-.338-.535-.667-.762-.73-.226-.062-.76-.685-1.188-1.382-.43-.697-1.477-2.107-2.33-3.133-.853-1.026-1.6-1.995-1.658-2.155-.205-.545-5.833-5.347-6.475-5.523-.35-.097-.897-.42-1.212-.72-.563-.534-1.924-1.125-5.678-2.468-1.033-.37-2.957-.738-4.276-.818-6.74-.413-9.563.278-15.668 3.833-6.604 3.847-10.694 7.746-14.467 13.79zm64.934 10.833c-.373-.083-.557-.223-.408-.308.147-.084.45-.014.676.156.248.188.142.247-.268.153zm-1.918.454c-.454.26-1.805.01-1.715-.316.05-.18.51-.213 1.02-.073.513.14.825.315.696.39zm-44.54-6.91c-.07.257-.255.432-.412.39s-.893.724-1.636 1.707c-.743.983-2.05 2.608-2.904 3.612-.854 1.003-2.47 3.26-3.588 5.017-1.963 3.076-2.11 3.448-4.08 10.32l-2.042 7.13-1.385-2.475c-2.6-4.646-2.584-4.558-1.406-7.83.57-1.583 1.28-3.214 1.58-3.624.3-.41.694-1.292.88-1.965.183-.67.544-1.448.8-1.724.258-.276.772-1.265 1.14-2.194.37-.93 1.14-2.406 1.71-3.282.57-.875 1.506-2.307 2.078-3.18s1.262-1.756 1.533-1.957c.27-.203.982-1.072 1.58-1.933 1.605-2.317 4.54-5.178 6.4-6.237.902-.514 2.545-1.12 3.652-1.344 1.107-.227 2.678-.614 3.49-.862.813-.246 1.972-.394 2.576-.326.604.067 1.486.034 1.963-.075.88-.2 9.172 2.205 9.752 2.83.152.163 1.068.6 2.037.97s1.977.878 2.24 1.127c.262.25 1.053.713 1.758 1.032 1.184.536 2.36 1.246 5.937 3.582.75.49 1.64.966 1.98 1.06.337.092.734.38.882.638.29.508 2.303 1.304 5.84 2.308 1.23.35 2.113.703 1.966.787-.454.258-9.158-2.264-10.012-2.9-.442-.33-1.612-.935-2.6-1.346-.99-.412-2.16-1.02-2.6-1.356-.44-.334-2.73-1.176-5.087-1.872-4.878-1.438-7.65-1.55-13.04-.526-4.126.786-10.703 3.478-10.983 4.497zm6.396 23.26c-.754 5.095-1.01 7.514-1.04 9.84-.018 1.336-.048 3.1-.067 3.92-.057 2.323.098 6.334.27 7.1.087.383.097.92.022 1.196-.076.275-.023 1.094.117 1.818.574 2.977.63 3.488.383 3.476-1.303-.063-2.39-.64-4.18-2.215-2.47-2.177-2.887-3.23-2.955-7.49-.027-1.656-.09-3.362-.14-3.788-.05-.427-.04-1.268.02-1.87.063-.602.144-2.1.18-3.326.293-9.652 4.436-21.247 8.957-25.06 2.122-1.79 6.222-4 8.296-4.477 4.27-.977 7.87-.74 13.227.874 2 .602 5.71 1.7 8.238 2.438 2.532.738 4.57 1.46 4.53 1.604-.04.145-.373.18-.744.078-.37-.102-.982-.007-1.363.21-.38.215-.984.378-1.346.36-.36-.017-1.863.073-3.342.198s-3.574.072-4.655-.12c-2.167-.383-6.363-.576-7.37-.34-.354.084-1.788.33-3.19.55-3.25.505-8.382 3.438-10.443 5.965-1.58 1.94-2.853 5.328-3.405 9.056zm16.764 37.584c-1.477-.43-3.082-2.173-3.553-3.854-.234-.844-.773-2.332-1.192-3.306-.42-.975-.717-1.943-.66-2.15.057-.208-.053-.42-.244-.473-.193-.053-.29-.313-.218-.577s-.042-.73-.257-1.036c-.213-.306-.66-1.837-.995-3.403-.332-1.565-.767-3.485-.963-4.267-1.004-4.016-.815-9.127.553-14.948 1.05-4.468 1.22-4.917 2.217-5.884.594-.574 1.153-1.314 1.244-1.644.378-1.38 8.752-4.79 10.55-4.298.31.084 3.404-.394 6.878-1.064 6.064-1.17 6.486-1.314 10.555-3.62 4.102-2.328 7.377-5.112 7.81-6.638.155-.55.215-.554.395-.027.127.376-.176 1.693-.773 3.35-1.43 3.963-3.41 6.092-8.166 8.776-3.105 1.752-4.35 2.216-7.314 2.732-4.314.75-6.986 1.106-7.22.965-.092-.058-.28-.01-.415.11-.137.116-.77.306-1.412.42-1.382.245-5.723 3.28-6.898 4.823-1.77 2.322-2.357 3.507-3.223 6.5-.88 3.04-1.168 5.71-.933 8.59.064.797.05 1.707-.04 2.023-.085.316-.02.88.146 1.25.166.372.45 1.644.632 2.828.18 1.185.432 2.238.558 2.34.127.104.17.41.096.68s.053.885.28 1.368c.23.482.587 1.486.796 2.232.486 1.74 2.19 6.586 2.422 6.896.098.13.205.538.236.908.043.536-.136.616-.89.396zm30.167-60.963c1.27.574 1.45.854.828 1.3-.265.19-.645.637-.846.995-.243.436-.325.462-.25.083.062-.313-.124-.938-.413-1.39-.748-1.175-.507-1.524.683-.988zm-11.236 65.778c-2.205.007-3.105-.383-4.457-1.93-1.202-1.376-3.6-5.872-3.455-6.48.037-.16-.363-1.16-.89-2.225-.528-1.065-.907-2.125-.844-2.356.064-.23.012-.504-.114-.608-.395-.323-1.083-2.593-1.405-4.635-.17-1.08-.38-2.273-.466-2.656-.088-.382-.074-1 .03-1.376.102-.375.065-.81-.08-.967-.146-.156-.315-1.386-.376-2.734-.136-3.04 1.11-7.932 2.567-10.08.96-1.417 4.255-3.487 7.81-4.908 3.353-1.342 7.492-4.014 9.663-6.24.667-.684 1.33-1.12 1.474-.966.477.513-.775 2.313-4.898 7.046-2.248 2.58-4.43 5.104-4.847 5.61-1.367 1.655-3.437 8.104-3.87 12.065-.153 1.402-.355 3.115-.448 3.81-.094.693-.035 1.986.13 2.873.163.887.268 1.723.23 1.858-.037.135.522 2.06 1.24 4.276 1.116 3.435 1.915 5.09 4.588 9.51.492.81.072 1.107-1.58 1.113zm32.51-62.1c1.246.24 4.577-.16 5.236-.63.127-.092 1.096-.545 2.15-1.007 1.055-.46 2.4-1.06 2.99-1.33 4.29-1.964 5.262-2.096 8.764-1.185 4.084 1.064 7.775 3.176 8.554 4.896.29.636.113.647-1.91.112-3.39-.895-7.444-1.762-8.28-1.77-3.25-.03-6.256.57-9.975 1.994-1.413.54-2.962 1.12-3.438 1.29-.477.17-1.136.7-1.465 1.177-.882 1.28.006 1.656 3.554 1.503 6.883-.295 17.898 3.024 22.113 6.663.745.643 1.49 2.488 1.138 2.817-.26.242-3.9-1.458-4.498-2.098-.176-.19-.73-.528-1.23-.754-1.097-.495-2.963-1.366-3.98-1.858-2.3-1.114-8.093-2.575-11.086-2.793-6.27-.46-9.628.003-10.005 1.38-.262.95.505 1.52 3.584 2.666 1.497.557 2.79 1.083 2.878 1.17.086.09 1.29.582 2.676 1.094 1.388.513 2.895 1.276 3.35 1.696.453.42 1.194.863 1.646.987.45.124.93.403 1.067.623.137.22 1.404 1.105 2.818 1.97 1.413.863 2.622 1.687 2.685 1.83.064.145.697.795 1.408 1.445.712.652 1.473 1.442 1.695 1.76 1.177 1.675 2.46 3.87 2.398 4.097-.04.144.134.746.382 1.34.97 2.293-.12 2.557-2.01.488-.627-.688-1.228-1.275-1.332-1.304s-1.152-.905-2.326-1.95c-1.176-1.043-2.342-1.954-2.594-2.022-.25-.07-.84-.463-1.313-.876-2.27-1.992-4.49-3.537-6.31-4.388-.585-.272-1.398-.74-1.81-1.04-.408-.3-1.332-.812-2.052-1.136-.718-.325-1.815-.888-2.438-1.252-.622-.364-1.734-.923-2.47-1.243-.74-.32-1.714-.764-2.17-.986l-1.585-.78c-.477-.23-1.104-.174-1.676.15-1.174.67-1.012.956 2.32 4.063 4.343 4.05 5.063 4.786 4.983 5.08-.043.155.1.332.315.39.43.12 4.414 4.7 5.22 6.005.278.45.638.853.8.897.513.14 3.96 4.85 4.935 6.74 2.508 4.864 2.872 6.573 1.94 9.116-.267.734-1.328.49-2.644-.607-1.886-1.572-3.45-2.722-4.23-3.106-.436-.215-1.056-.708-1.377-1.096-.322-.387-.78-.758-1.02-.824-.24-.065-1.403-1.27-2.585-2.678-1.184-1.408-2.36-2.785-2.615-3.062-2.7-2.92-8.518-13.053-8.186-14.26.06-.22-.127-.772-.414-1.225-.29-.454-.467-1.035-.396-1.293.07-.258-.028-.512-.22-.565-.192-.052-.272-.378-.177-.723.377-1.377-1.36-2.528-2.556-1.692-.49.342-.638.876-.8 2.875-.293 3.647 0 9.106.514 9.526.125.102.166.415.09.693-.27.99 1.25 6.71 2.462 9.253 2.185 4.587 5.398 9.433 7.595 11.455.57.524 1.19 1.226 1.38 1.56.192.336.642.69 1 .79.36.098.702.347.763.555.063.207.588.626 1.17.932 1.76.925 1.8 1.74.13 2.692-2.01 1.144-4.55 1.638-5.458 1.06-.402-.255-1.283-1.1-1.956-1.878-.674-.778-1.37-1.454-1.546-1.502-.643-.176-5.83-9.958-6.818-12.857-.56-1.64-1.12-3.064-1.25-3.168-.126-.104-.19-.34-.14-.523.05-.185-.114-.727-.364-1.205-.25-.48-.7-2.072-.998-3.54-.3-1.468-.646-2.754-.773-2.857-.125-.104-.09-.693.078-1.31.17-.618.19-1.327.05-1.578-.394-.69-.637-4.49-.353-5.526.283-1.035-.444-3.085-1.166-3.283-.26-.072-.68.19-.934.58-.607.94-2.178 7.17-2.498 9.92-.574 4.93-.715 10.002-.3 10.775.124.23.127.775.007 1.21-.185.675.402 4.117 1.196 7.015.33 1.21 1.756 4.588 2.027 4.808.13.105.184.378.12.608-.133.484 2.1 4.32 3.632 6.246.576.723 1.008 1.456.96 1.628-.046.173-.72.318-1.493.32-2.686.008-3.148-.306-4.798-3.265-2.386-4.277-4.202-10.34-5.354-17.877-.906-5.917-.408-10.97 1.527-15.52.393-.925.934-2.21 1.203-2.86.46-1.102 1.86-3.937 3.832-7.762.82-1.592 2.074-6.606 2.516-10.055.23-1.788-.918-4.965-1.516-4.205-.166.212-.537.32-.822.243-.953-.26-.004-1.232 1.59-1.626.863-.214 1.985-.722 2.495-1.128.92-.734.923-.747.454-2.026-.26-.708-.772-1.505-1.138-1.772-.678-.492-1.96-.41-2.61.167-.522.466-.98-.523-.528-1.14.525-.715 2.404-.747 4.05-.068 1.704.702 3.164 1.735 3.048 2.158-.045.168.09.354.3.41.21.06.936.95 1.612 1.983 2.292 3.48 3.43 4.168 8.583 5.165zm-32.1-97.02c1.207-.27 2.305-.572 2.438-.674.133-.103.702-.176 1.264-.164.56.012 1.06-.118 1.105-.29.048-.17.316-.248.598-.17.283.077 1.19.003 2.015-.165.825-.167 2.558-.463 3.85-.66 1.292-.194 3.995-.65 6.007-1.012 2.012-.36 3.81-.615 3.988-.566.184.05 1.174-.04 2.203-.2 3.15-.493 3.41-.522 4.173-.477.404.024 1.692-.055 2.86-.177 1.167-.12 2.91-.225 3.874-.23.963-.004 1.908-.055 2.1-.112.193-.056 1.06-.018 1.926.086.863.104 2.03.143 2.592.088.563-.056 1.752.006 2.644.137 2.318.34 2.306.338 2.78.196.238-.07 1.23 0 2.207.16s2.855.35 4.176.425 2.672.33 3.005.563c.74.522 1.29 3.074 1.4 6.488.045 1.406.15 2.87.236 3.252.25 1.126.538 4.418.548 6.243.006.93.088 2.263.184 2.962s.103 1.925.016 2.724c-.088.798-.02 1.488.146 1.534s.204.446.083.89c-.12.443-.255 2.807-.296 5.252-.068 4.118-.18 4.792-1.507 9.128-.788 2.575-1.676 5.12-1.975 5.658-1.696 3.05-3.948 6.218-4.814 6.773-.547.35-1.62 1.122-2.384 1.717-1.766 1.375-3.828 2.49-5.104 2.765-1.676.36-7.14 4.147-7.41 5.138-.063.234-.248.446-.41.47-.492.075-2.654 2.5-2.844 3.19-.098.354-.39.767-.648.915-.62.352-1.894 4.95-1.966 7.09-.03.92-.194 2.195-.365 2.834-.374 1.408-3.86 5.502-5.464 6.42-1.34.767-4.368 1.8-5.965 2.033l-1.1.162 1.145-3.523c1.34-4.116 2.295-6.316 2.805-6.467.2-.06.457-.45.57-.873.215-.806 2.686-4.873 3.502-5.764.262-.287.55-.788.64-1.113.088-.326.636-1.15 1.214-1.83.58-.68 1.272-1.682 1.538-2.228.265-.545 1.21-2.31 2.1-3.924 1.193-2.162 2.066-4.407 3.328-8.55 1.522-5.005 1.707-5.933 1.694-8.536-.01-1.606-.085-3.232-.17-3.615s-.37-1.813-.637-3.175c-.267-1.365-.56-2.754-.653-3.09-.092-.333-.225-1.016-.295-1.515-.344-2.45-1.827-5.722-3.734-8.237-.483-.635-1.024-1.39-1.2-1.675-.45-.72-3.738-3.663-5.244-4.693-1.097-.75-1.355-.807-2.163-.485-1 .398-1.913 2.53-1.267 2.96.2.136.303.483.223.774s.025 1.023.236 1.63c.21.604.507 1.724.66 2.488.58 2.884.823 3.776 1.253 4.596.24.464.636 1.76.873 2.882.24 1.12.628 2.767.862 3.657.236.89.354 1.943.262 2.34-.094.397-.06.917.076 1.152.42.737.666 8.64.33 10.542-.178.998-.513 2.858-.746 4.136-.232 1.277-.57 3.184-.75 4.237-.182 1.053-.673 2.52-1.095 3.263-.42.74-1.107 2.255-1.525 3.364-.416 1.11-1.07 2.294-1.457 2.633-.384.34-1.09 1.76-1.572 3.158-.81 2.355-2.755 6.53-2.9 6.227-.035-.073.847-3.843 1.96-8.376 1.145-4.665 1.914-8.436 1.77-8.686-.137-.242-.124-.902.03-1.466.28-1.022.332-5.498.082-7.35-.305-2.282-.78-4.538-.994-4.713-.126-.103-.188-.34-.137-.527.142-.52-1.52-5.175-2.332-6.522-2.592-4.305-5.993-8.443-8.442-10.27-.43-.32-1.145-.94-1.59-1.383s-.836-.712-.867-.6c-.032.11-.97-.626-2.084-1.638-3.653-3.317-6.175-4.533-7.896-3.808-1.323.558-1.458 1.154-.6 2.653.73 1.278 2.362 3.363 2.706 3.458.307.084 6.113 7.744 6.152 8.118.02.182.232.384.475.45.467.128 2.738 4.26 4.27 7.76.503 1.155 1.22 2.69 1.594 3.41.373.72.645 1.434.605 1.582-.04.15.236 1.157.612 2.24.632 1.816 1.39 5.34 1.647 7.654.06.53.21 1.444.336 2.03.126.584.07 2.004-.12 3.155-.188 1.152-.247 2.28-.127 2.51.12.228.058 1-.138 1.718-.197.717-.313 1.766-.26 2.332.085.882-.043 3.083-.467 8.107-.05.605-.02 1.29.07 1.52.09.23.192 1.103.227 1.938.084 2.087 1.142 5.236 1.995 5.948.813.677.7 1.645-.202 1.734-.37.037-.842-.357-1.195-.996-.67-1.212-1.697-5.435-1.498-6.16.073-.268.023-.573-.11-.678-.296-.234-.807-4.186-.625-4.848.07-.262-.01-.514-.18-.56-.326-.09-.325-.155.075-5.606.14-1.92.233-3.752.21-4.068-.026-.316.013-1.807.085-3.312.072-1.505.06-3.28-.028-3.946-.09-.665-.21-1.813-.268-2.55-.224-2.868-.348-3.677-.656-4.256-.177-.33-.628-1.55-1.003-2.712-.376-1.163-.938-2.624-1.25-3.25-.802-1.6-5.175-5.455-7.656-6.75-2.513-1.31-5.437-2.893-6.53-3.538-.71-.42-1.824-.974-2.476-1.232s-1.628-.695-2.17-.97c-2.022-1.015-6.934-2.344-9.166-2.48-1.27-.077-2.29-.202-2.27-.28.022-.077-.49-.027-1.135.11-.647.138-1.677.113-2.29-.055-1.2-.33-4.668.514-6.043 1.472-.912.632-1.55 2.263-1.08 2.766.162.174 3.266 1.13 6.898 2.125 3.63.997 7.084 2.094 7.67 2.44s1.59.87 2.226 1.166c1.232.577 3.76 2.13 5.303 3.26.516.378 1.015.712 1.11.742.294.093 2.546 2.096 2.845 2.532.157.23 1.188 1.433 2.29 2.677 1.104 1.245 2.67 3.397 3.48 4.784 1.64 2.802 3.812 8.997 4.534 12.93.544 2.96 1.487 6.81 1.82 7.42.126.23.153.687.063 1.016-.09.33-.053.686.084.793.136.104.48 1.365.762 2.798.284 1.434.84 3.222 1.234 3.975.396.753.698 1.448.673 1.545-.028.096.23 1.002.57 2.013.343 1.012.553 2.09.468 2.398-.084.308-.293.52-.467.474-.68-.187-5.05-6.34-4.895-6.9.045-.167-.17-.695-.48-1.174-.586-.904-2.483-6.565-2.893-8.634-.13-.654-.468-2.435-.75-3.956-1.195-6.448-4.367-11.845-9.96-16.95-1.57-1.43-3.017-2.826-3.22-3.102-.2-.278-.68-.643-1.06-.813-.38-.17-1.27-.71-1.978-1.2-1.938-1.344-13.532-4.278-16.162-4.09-5.063.362-15.905 2.642-16.117 3.39-.04.143-.274.205-.52.138-.246-.066-2.018.7-3.937 1.702s-3.567 1.69-3.663 1.527c-.168-.285.785-2.668 2.318-5.8.766-1.568 2.717-4.618 3.52-5.5.258-.288.525-.72.59-.958.106-.385 2.54-3.36 4.084-4.986 1.018-1.073 1.385-1.488 1.736-1.962.19-.257.78-.855 1.313-1.328.53-.474 1.35-1.282 1.82-1.795.47-.513 1.25-1.178 1.734-1.477.484-.298.94-.745 1.018-.99.076-.247.752-.864 1.5-1.372.752-.508 1.42-1.126 1.488-1.373.068-.248.28-.407.472-.354.192.052.407-.12.48-.383.228-.83 15.136-9.246 18.673-10.542.765-.28 2.047-.83 2.85-1.226.803-.394 2.52-1.087 3.813-1.54 1.296-.454 2.443-.944 2.553-1.09s.34-.23.512-.18 1.662-.362 3.312-.908 3.988-1.212 5.197-1.48z"/><path fill="none" stroke="#000" d="M603.268 181.137c-.3-.083-4.048 1.276-4.27 1.548-.104.126-.318.194-.477.15-.288-.08-7.497 2.657-7.954 3.02-.133.104-1.098.543-2.144.972-2.375.976-9.522 5.032-12.866 7.3-1.385.94-2.73 1.838-2.985 1.995-.256.158-1.635 1.316-3.065 2.575-1.43 1.26-2.97 2.564-3.42 2.904-.452.34-1.905 1.797-3.23 3.24-1.324 1.445-2.506 2.683-2.63 2.752-.237.136-1.4 1.656-2.55 3.333-.387.564-.822.994-.967.954s-.373.326-.506.813c-.134.487-.727 1.415-1.316 2.062s-1.163 1.506-1.273 1.91c-.11.404-.416.96-.677 1.237-.26.275-.745 1.1-1.077 1.833-.333.732-1.046 2.044-1.59 2.915-.54.87-1.192 2.35-1.45 3.287-.256.937-.728 1.98-1.05 2.318-.753.795-5.435 17.814-5.374 19.543.023.682-.164 2.278-.418 3.55-.253 1.27-.53 3.896-.613 5.832-.084 1.937-.19 4.186-.238 4.998-.09 1.547.072 4.81.298 5.984.073.378.046 1.004-.06 1.392-.107.387-.04 1.375.146 2.196.19.82.288 1.693.22 1.94-.066.244-.063.754.01 1.132.07.378.26 1.482.418 2.454 1.254 7.713 3.445 15.896 5.357 20.008.432.93.74 1.858.687 2.064-.055.206 1.3 2.806 3.01 5.78 2.997 5.21 7.26 11.188 8.593 12.052.354.23.604.563.555.743s.212.408.58.508c.367.102.686.325.707.496.046.357 4.28 4.25 4.77 4.383.178.048 1.037.714 1.908 1.48.872.766 3.44 2.63 5.707 4.143 6.063 4.043 7.278 4.805 8.694 5.446.704.317 1.503.788 1.772 1.044.27.256 1.305.795 2.297 1.2.993.403 2.066.977 2.388 1.276.32.3 1.278.8 2.13 1.117.854.315 2.277 1 3.166 1.52 1.838 1.08 7.804 2.667 10.138 2.694.822.01 2.293.133 3.268.27.974.14 2.06.19 2.408.11s1.282-.074 2.07.013c1.65.183 4.3.06 5.846-.268.584-.125 1.223-.193 1.42-.153.624.128 3.315-.276 8.995-1.35 5.534-1.047 9.722-2.274 14.885-4.358 3.62-1.46 13.59-7.155 13.785-7.873.032-.117.692-.68 1.468-1.248.774-.57 1.457-1.208 1.515-1.42.058-.212.263-.343.454-.29.192.05.398-.084.458-.303s.742-1.003 1.517-1.74c1.18-1.127 2.61-2.825 3.94-4.6l5.868-10.59c1.15-3.487 2.852-10.01 2.932-11.692.047-.942.148-2.54.23-3.55.176-2.23.225-4.923.108-5.97-.143-1.272-.773-4.7-.91-4.938-.068-.122-.3-.97-.516-1.882-1.118-4.76-1.536-6.176-1.846-6.264-.144-.04-.22-.226-.17-.413.167-.602-2.6-7.226-4.098-9.812-1.923-3.32-4.246-5.935-6.814-7.67-1.915-1.292-2.596-1.54-7.89-2.852-3.188-.79-6.215-1.446-6.728-1.457-2.245-.044-3.288-.3-3.323-.81-.07-1.088.84-4.7 1.62-6.437 1.666-3.697 5.846-7.572 9.857-9.137 2.897-1.13 8.435-4.355 9.484-5.524.416-.462 1.01-1.024 1.316-1.25 1.562-1.14 4.106-6.335 5.415-11.054 1.226-4.417 2.247-10.425 1.89-11.116-.12-.228-.117-.774.004-1.214.12-.44.13-1.71.023-2.825-.105-1.115-.11-2.33-.01-2.7.203-.738.158-2.697-.105-4.62-.095-.68-.135-1.746-.092-2.37.045-.623-.057-1.17-.225-1.216-.168-.046-.157-.624.023-1.284.182-.66.213-1.326.072-1.478-.143-.152-.248-.733-.236-1.292.02-.994-.184-2.532-.88-6.576-.188-1.103-.312-2.125-.272-2.27.102-.367-1.055-2.827-1.687-3.592-.384-.463-.884-.632-1.926-.648-.775-.013-2.14-.126-3.033-.252-.893-.127-2.04-.246-2.553-.266-1.16-.046-3.98-.22-5.064-.314-.45-.04-1.02-.01-1.27.063-.252.072-1.013.036-1.692-.08-.68-.12-1.78-.197-2.447-.175-1.988.066-5.692.12-6.288.092l-1.007-.05c-.25-.013-.59.056-.76.153s-.606.096-.968-.003-1.144-.078-1.736.05c-.594.126-1.618.17-2.278.095-.657-.073-1.427-.033-1.707.09-.28.126-1.105.237-1.83.25-.726.012-2.276.128-3.446.257-1.17.127-2.504.217-2.963.198-.458-.02-.87.104-.918.273-.047.17-.327.243-.623.162-.295-.08-1.245 0-2.112.18-.865.18-1.545.22-1.51.09.036-.13-.3-.052-.746.174-.447.226-1.126.39-1.51.366-.774-.05-8.097 1.358-8.466 1.627-.13.093-.982.326-1.896.517-2.375.497-3.248.736-5.48 1.498-1.09.375-2.076.653-2.19.622zm-53.663 63.114c-.79.61-1.91 1.62-2.49 2.248s-1.376 1.303-1.766 1.5c-.65.333-.64.023.137-3.71 1.005-4.828 1.558-6.004 3.238-6.887.692-.362 1.3-.813 1.352-1 .142-.517 8.734-5.088 9.63-5.124.433-.017.825-.177.874-.356s.257-.28.463-.224c.204.056.974-.135 1.71-.426 1.786-.706 5.325-1.394 6.102-1.188.344.092 1.313.12 2.152.063 3.912-.263 10.285 1.13 14.797 3.236 4.493 2.096 10.112 6.383 12.54 9.57.647.85 1.294 1.58 1.436 1.62.604.174 5.323 9.273 8.13 15.678.998 2.276 2.296 4.764 2.886 5.528.59.765 1.203 1.602 1.364 1.86 1.104 1.76 6.14 6.76 7.063 7.014.27.074.46.266.414.426-.168.617-4.63-1.144-6.43-2.538-2.623-2.03-3.592-2.904-4.417-3.974-.484-.628-.983-1.17-1.11-1.205-.123-.035-1.396-2.2-2.828-4.81-4.908-8.948-5.542-10.054-6.955-12.104-.778-1.13-1.564-2.315-1.746-2.635-.18-.318-.576-.647-.878-.73-.302-.083-.513-.28-.47-.438.044-.158-.57-.843-1.364-1.522-.793-.68-1.678-1.46-1.965-1.737-1.74-1.666-7.248-4.7-9.854-5.428-2.078-.58-4.12-.872-4.77-.68-.186.053-1 .02-1.81-.078s-2.412-.09-3.562.02c-1.148.108-2.606.238-3.24.29s-1.258.177-1.39.278c-.13.1-.772.292-1.428.425-3.43.694-4.708 1.077-6.472 1.938-1.064.52-2.047.914-2.183.877-.355-.097-5.46 2.916-7.16 4.226zm69.1 23.645c.052-.186.304-.183.562.006.257.19.45.407.43.482-.02.075-.272.07-.56-.007-.288-.08-.483-.294-.43-.48zm1.307 1.563l1.27-.27 1.27-.27-.29 1.055c-.158.58-.324 1.032-.367 1.003-.043-.03-.486-.38-.98-.785l-.903-.732zm-2.695 11.71c-.023.086-.226.21-.45.275-.226.066-.362-.047-.308-.25.056-.203.258-.327.45-.274s.33.164.307.25zm-66.808-10.04c-.66 1.057-1.437 2.245-1.724 2.64-.288.395-.715 1.375-.95 2.177-.234.803-.62 1.718-.856 2.035-.385.514-.463.504-.73-.09-.424-.936-.932-3.416-1.066-5.22-.133-1.75 1.232-7.19 1.848-7.37.225-.067.5-.455.61-.862.113-.41.73-1.37 1.37-2.135.64-.766 1.368-1.675 1.613-2.02.247-.345 1.024-1.314 1.727-2.153.703-.84 1.56-1.87 1.9-2.292.943-1.16 3.41-3.234 4.938-4.147.748-.448 1.887-1.147 2.53-1.556 4.237-2.693 10.076-4.715 13.23-4.584.713.03 1.466.05 1.675.045 2.96-.07 7.822 1.307 10.615 3.005 2.167 1.317 2.12 1.28 3.545 2.8.64.68 1.434 1.32 1.77 1.42.332.1.57.31.527.463-.043.155.48.736 1.162 1.29.683.556 2.02 2.347 2.97 3.98 1.762 3.033 3.673 5.86 4.536 6.71.266.262.53.608.588.772.19.525 5.36 5.58 5.846 5.713.257.07.83.464 1.276.872.444.41 1.802 1.127 3.013 1.595 3.193 1.23 4.88 1.963 5 2.174.187.327-.353.462-1.428.358-.578-.056-1.355-.095-1.73-.084-.894.023-5.24-2.025-6.295-2.967-.455-.406-.852-.653-.88-.55-.076.275-2.5-1.982-2.916-2.714-.193-.338-.535-.667-.762-.73-.226-.062-.76-.685-1.188-1.382-.43-.697-1.477-2.107-2.33-3.133-.853-1.026-1.6-1.995-1.658-2.155-.205-.545-5.833-5.347-6.475-5.523-.35-.097-.897-.42-1.212-.72-.563-.534-1.924-1.125-5.678-2.468-1.033-.37-2.957-.738-4.276-.818-6.74-.413-9.563.278-15.668 3.833-6.604 3.847-10.694 7.746-14.467 13.79zm64.934 10.833c-.373-.083-.557-.223-.408-.308.147-.084.45-.014.676.156.248.188.142.247-.268.153zm-1.918.454c-.454.26-1.805.01-1.715-.316.05-.18.51-.213 1.02-.073.513.14.825.315.696.39zm-44.54-6.91c-.07.257-.255.432-.412.39s-.893.724-1.636 1.707c-.743.983-2.05 2.608-2.904 3.612-.854 1.003-2.47 3.26-3.588 5.017-1.963 3.076-2.11 3.448-4.08 10.32l-2.042 7.13-1.385-2.475c-2.6-4.646-2.584-4.558-1.406-7.83.57-1.583 1.28-3.214 1.58-3.624.3-.41.694-1.292.88-1.965.183-.67.544-1.448.8-1.724.258-.276.772-1.265 1.14-2.194.37-.93 1.14-2.406 1.71-3.282.57-.875 1.506-2.307 2.078-3.18s1.262-1.756 1.533-1.957c.27-.203.982-1.072 1.58-1.933 1.605-2.317 4.54-5.178 6.4-6.237.902-.514 2.545-1.12 3.652-1.344 1.107-.227 2.678-.614 3.49-.862.813-.246 1.972-.394 2.576-.326.604.067 1.486.034 1.963-.075.88-.2 9.172 2.205 9.752 2.83.152.163 1.068.6 2.037.97s1.977.878 2.24 1.127c.262.25 1.053.713 1.758 1.032 1.184.536 2.36 1.246 5.937 3.582.75.49 1.64.966 1.98 1.06.337.092.734.38.882.638.29.508 2.303 1.304 5.84 2.308 1.23.35 2.113.703 1.966.787-.454.258-9.158-2.264-10.012-2.9-.442-.33-1.612-.935-2.6-1.346-.99-.412-2.16-1.02-2.6-1.356-.44-.334-2.73-1.176-5.087-1.872-4.878-1.438-7.65-1.55-13.04-.526-4.126.786-10.703 3.478-10.983 4.497zm6.396 23.26c-.754 5.095-1.01 7.514-1.04 9.84-.018 1.336-.048 3.1-.067 3.92-.057 2.323.098 6.334.27 7.1.087.383.097.92.022 1.196-.076.275-.023 1.094.117 1.818.574 2.977.63 3.488.383 3.476-1.303-.063-2.39-.64-4.18-2.215-2.47-2.177-2.887-3.23-2.955-7.49-.027-1.656-.09-3.362-.14-3.788-.05-.427-.04-1.268.02-1.87.063-.602.144-2.1.18-3.326.293-9.652 4.436-21.247 8.957-25.06 2.122-1.79 6.222-4 8.296-4.477 4.27-.977 7.87-.74 13.227.874 2 .602 5.71 1.7 8.238 2.438 2.532.738 4.57 1.46 4.53 1.604-.04.145-.373.18-.744.078-.37-.102-.982-.007-1.363.21-.38.215-.984.378-1.346.36-.36-.017-1.863.073-3.342.198s-3.574.072-4.655-.12c-2.167-.383-6.363-.576-7.37-.34-.354.084-1.788.33-3.19.55-3.25.505-8.382 3.438-10.443 5.965-1.58 1.94-2.853 5.328-3.405 9.056zm16.764 37.584c-1.477-.43-3.082-2.173-3.553-3.854-.234-.844-.773-2.332-1.192-3.306-.42-.975-.717-1.943-.66-2.15.057-.208-.053-.42-.244-.473-.193-.053-.29-.313-.218-.577s-.042-.73-.257-1.036c-.213-.306-.66-1.837-.995-3.403-.332-1.565-.767-3.485-.963-4.267-1.004-4.016-.815-9.127.553-14.948 1.05-4.468 1.22-4.917 2.217-5.884.594-.574 1.153-1.314 1.244-1.644.378-1.38 8.752-4.79 10.55-4.298.31.084 3.404-.394 6.878-1.064 6.064-1.17 6.486-1.314 10.555-3.62 4.102-2.328 7.377-5.112 7.81-6.638.155-.55.215-.554.395-.027.127.376-.176 1.693-.773 3.35-1.43 3.963-3.41 6.092-8.166 8.776-3.105 1.752-4.35 2.216-7.314 2.732-4.314.75-6.986 1.106-7.22.965-.092-.058-.28-.01-.415.11-.137.116-.77.306-1.412.42-1.382.245-5.723 3.28-6.898 4.823-1.77 2.322-2.357 3.507-3.223 6.5-.88 3.04-1.168 5.71-.933 8.59.064.797.05 1.707-.04 2.023-.085.316-.02.88.146 1.25.166.372.45 1.644.632 2.828.18 1.185.432 2.238.558 2.34.127.104.17.41.096.68s.053.885.28 1.368c.23.482.587 1.486.796 2.232.486 1.74 2.19 6.586 2.422 6.896.098.13.205.538.236.908.043.536-.136.616-.89.396zm30.167-60.963c1.27.574 1.45.854.828 1.3-.265.19-.645.637-.846.995-.243.436-.325.462-.25.083.062-.313-.124-.938-.413-1.39-.748-1.175-.507-1.524.683-.988zm-11.236 65.778c-2.205.007-3.105-.383-4.457-1.93-1.202-1.376-3.6-5.872-3.455-6.48.037-.16-.363-1.16-.89-2.225-.528-1.065-.907-2.125-.844-2.356.064-.23.012-.504-.114-.608-.395-.323-1.083-2.593-1.405-4.635-.17-1.08-.38-2.273-.466-2.656-.088-.382-.074-1 .03-1.376.102-.375.065-.81-.08-.967-.146-.156-.315-1.386-.376-2.734-.136-3.04 1.11-7.932 2.567-10.08.96-1.417 4.255-3.487 7.81-4.908 3.353-1.342 7.492-4.014 9.663-6.24.667-.684 1.33-1.12 1.474-.966.477.513-.775 2.313-4.898 7.046-2.248 2.58-4.43 5.104-4.847 5.61-1.367 1.655-3.437 8.104-3.87 12.065-.153 1.402-.355 3.115-.448 3.81-.094.693-.035 1.986.13 2.873.163.887.268 1.723.23 1.858-.037.135.522 2.06 1.24 4.276 1.116 3.435 1.915 5.09 4.588 9.51.492.81.072 1.107-1.58 1.113zm32.51-62.1c1.246.24 4.577-.16 5.236-.63.127-.092 1.096-.545 2.15-1.007 1.055-.46 2.4-1.06 2.99-1.33 4.29-1.964 5.262-2.096 8.764-1.185 4.084 1.064 7.775 3.176 8.554 4.896.29.636.113.647-1.91.112-3.39-.895-7.444-1.762-8.28-1.77-3.25-.03-6.256.57-9.975 1.994-1.413.54-2.962 1.12-3.438 1.29-.477.17-1.136.7-1.465 1.177-.882 1.28.006 1.656 3.554 1.503 6.883-.295 17.898 3.024 22.113 6.663.745.643 1.49 2.488 1.138 2.817-.26.242-3.9-1.458-4.498-2.098-.176-.19-.73-.528-1.23-.754-1.097-.495-2.963-1.366-3.98-1.858-2.3-1.114-8.093-2.575-11.086-2.793-6.27-.46-9.628.003-10.005 1.38-.262.95.505 1.52 3.584 2.666 1.497.557 2.79 1.083 2.878 1.17.086.09 1.29.582 2.676 1.094 1.388.513 2.895 1.276 3.35 1.696.453.42 1.194.863 1.646.987.45.124.93.403 1.067.623.137.22 1.404 1.105 2.818 1.97 1.413.863 2.622 1.687 2.685 1.83.064.145.697.795 1.408 1.445.712.652 1.473 1.442 1.695 1.76 1.177 1.675 2.46 3.87 2.398 4.097-.04.144.134.746.382 1.34.97 2.293-.12 2.557-2.01.488-.627-.688-1.228-1.275-1.332-1.304s-1.152-.905-2.326-1.95c-1.176-1.043-2.342-1.954-2.594-2.022-.25-.07-.84-.463-1.313-.876-2.27-1.992-4.49-3.537-6.31-4.388-.585-.272-1.398-.74-1.81-1.04-.408-.3-1.332-.812-2.052-1.136-.718-.325-1.815-.888-2.438-1.252-.622-.364-1.734-.923-2.47-1.243-.74-.32-1.714-.764-2.17-.986l-1.585-.78c-.477-.23-1.104-.174-1.676.15-1.174.67-1.012.956 2.32 4.063 4.343 4.05 5.063 4.786 4.983 5.08-.043.155.1.332.315.39.43.12 4.414 4.7 5.22 6.005.278.45.638.853.8.897.513.14 3.96 4.85 4.935 6.74 2.508 4.864 2.872 6.573 1.94 9.116-.267.734-1.328.49-2.644-.607-1.886-1.572-3.45-2.722-4.23-3.106-.436-.215-1.056-.708-1.377-1.096-.322-.387-.78-.758-1.02-.824-.24-.065-1.403-1.27-2.585-2.678-1.184-1.408-2.36-2.785-2.615-3.062-2.7-2.92-8.518-13.053-8.186-14.26.06-.22-.127-.772-.414-1.225-.29-.454-.467-1.035-.396-1.293.07-.258-.028-.512-.22-.565-.192-.052-.272-.378-.177-.723.377-1.377-1.36-2.528-2.556-1.692-.49.342-.638.876-.8 2.875-.293 3.647 0 9.106.514 9.526.125.102.166.415.09.693-.27.99 1.25 6.71 2.462 9.253 2.185 4.587 5.398 9.433 7.595 11.455.57.524 1.19 1.226 1.38 1.56.192.336.642.69 1 .79.36.098.702.347.763.555.063.207.588.626 1.17.932 1.76.925 1.8 1.74.13 2.692-2.01 1.144-4.55 1.638-5.458 1.06-.402-.255-1.283-1.1-1.956-1.878-.674-.778-1.37-1.454-1.546-1.502-.643-.176-5.83-9.958-6.818-12.857-.56-1.64-1.12-3.064-1.25-3.168-.126-.104-.19-.34-.14-.523.05-.185-.114-.727-.364-1.205-.25-.48-.7-2.072-.998-3.54-.3-1.468-.646-2.754-.773-2.857-.125-.104-.09-.693.078-1.31.17-.618.19-1.327.05-1.578-.394-.69-.637-4.49-.353-5.526.283-1.035-.444-3.085-1.166-3.283-.26-.072-.68.19-.934.58-.607.94-2.178 7.17-2.498 9.92-.574 4.93-.715 10.002-.3 10.775.124.23.127.775.007 1.21-.185.675.402 4.117 1.196 7.015.33 1.21 1.756 4.588 2.027 4.808.13.105.184.378.12.608-.133.484 2.1 4.32 3.632 6.246.576.723 1.008 1.456.96 1.628-.046.173-.72.318-1.493.32-2.686.008-3.148-.306-4.798-3.265-2.386-4.277-4.202-10.34-5.354-17.877-.906-5.917-.408-10.97 1.527-15.52.393-.925.934-2.21 1.203-2.86.46-1.102 1.86-3.937 3.832-7.762.82-1.592 2.074-6.606 2.516-10.055.23-1.788-.918-4.965-1.516-4.205-.166.212-.537.32-.822.243-.953-.26-.004-1.232 1.59-1.626.863-.214 1.985-.722 2.495-1.128.92-.734.923-.747.454-2.026-.26-.708-.772-1.505-1.138-1.772-.678-.492-1.96-.41-2.61.167-.522.466-.98-.523-.528-1.14.525-.715 2.404-.747 4.05-.068 1.704.702 3.164 1.735 3.048 2.158-.045.168.09.354.3.41.21.06.936.95 1.612 1.983 2.292 3.48 3.43 4.168 8.583 5.165zm-32.1-97.02c1.207-.27 2.305-.572 2.438-.674.133-.103.702-.176 1.264-.164.56.012 1.06-.118 1.105-.29.048-.17.316-.248.598-.17.283.077 1.19.003 2.015-.165.825-.167 2.558-.463 3.85-.66 1.292-.194 3.995-.65 6.007-1.012 2.012-.36 3.81-.615 3.988-.566.184.05 1.174-.04 2.203-.2 3.15-.493 3.41-.522 4.173-.477.404.024 1.692-.055 2.86-.177 1.167-.12 2.91-.225 3.874-.23.963-.004 1.908-.055 2.1-.112.193-.056 1.06-.018 1.926.086.863.104 2.03.143 2.592.088.563-.056 1.752.006 2.644.137 2.318.34 2.306.338 2.78.196.238-.07 1.23 0 2.207.16s2.855.35 4.176.425 2.672.33 3.005.563c.74.522 1.29 3.074 1.4 6.488.045 1.406.15 2.87.236 3.252.25 1.126.538 4.418.548 6.243.006.93.088 2.263.184 2.962s.103 1.925.016 2.724c-.088.798-.02 1.488.146 1.534s.204.446.083.89c-.12.443-.255 2.807-.296 5.252-.068 4.118-.18 4.792-1.507 9.128-.788 2.575-1.676 5.12-1.975 5.658-1.696 3.05-3.948 6.218-4.814 6.773-.547.35-1.62 1.122-2.384 1.717-1.766 1.375-3.828 2.49-5.104 2.765-1.676.36-7.14 4.147-7.41 5.138-.063.234-.248.446-.41.47-.492.075-2.654 2.5-2.844 3.19-.098.354-.39.767-.648.915-.62.352-1.894 4.95-1.966 7.09-.03.92-.194 2.195-.365 2.834-.374 1.408-3.86 5.502-5.464 6.42-1.34.767-4.368 1.8-5.965 2.033l-1.1.162 1.145-3.523c1.34-4.116 2.295-6.316 2.805-6.467.2-.06.457-.45.57-.873.215-.806 2.686-4.873 3.502-5.764.262-.287.55-.788.64-1.113.088-.326.636-1.15 1.214-1.83.58-.68 1.272-1.682 1.538-2.228.265-.545 1.21-2.31 2.1-3.924 1.193-2.162 2.066-4.407 3.328-8.55 1.522-5.005 1.707-5.933 1.694-8.536-.01-1.606-.085-3.232-.17-3.615s-.37-1.813-.637-3.175c-.267-1.365-.56-2.754-.653-3.09-.092-.333-.225-1.016-.295-1.515-.344-2.45-1.827-5.722-3.734-8.237-.483-.635-1.024-1.39-1.2-1.675-.45-.72-3.738-3.663-5.244-4.693-1.097-.75-1.355-.807-2.163-.485-1 .398-1.913 2.53-1.267 2.96.2.136.303.483.223.774s.025 1.023.236 1.63c.21.604.507 1.724.66 2.488.58 2.884.823 3.776 1.253 4.596.24.464.636 1.76.873 2.882.24 1.12.628 2.767.862 3.657.236.89.354 1.943.262 2.34-.094.397-.06.917.076 1.152.42.737.666 8.64.33 10.542-.178.998-.513 2.858-.746 4.136-.232 1.277-.57 3.184-.75 4.237-.182 1.053-.673 2.52-1.095 3.263-.42.74-1.107 2.255-1.525 3.364-.416 1.11-1.07 2.294-1.457 2.633-.384.34-1.09 1.76-1.572 3.158-.81 2.355-2.755 6.53-2.9 6.227-.035-.073.847-3.843 1.96-8.376 1.145-4.665 1.914-8.436 1.77-8.686-.137-.242-.124-.902.03-1.466.28-1.022.332-5.498.082-7.35-.305-2.282-.78-4.538-.994-4.713-.126-.103-.188-.34-.137-.527.142-.52-1.52-5.175-2.332-6.522-2.592-4.305-5.993-8.443-8.442-10.27-.43-.32-1.145-.94-1.59-1.383s-.836-.712-.867-.6c-.032.11-.97-.626-2.084-1.638-3.653-3.317-6.175-4.533-7.896-3.808-1.323.558-1.458 1.154-.6 2.653.73 1.278 2.362 3.363 2.706 3.458.307.084 6.113 7.744 6.152 8.118.02.182.232.384.475.45.467.128 2.738 4.26 4.27 7.76.503 1.155 1.22 2.69 1.594 3.41.373.72.645 1.434.605 1.582-.04.15.236 1.157.612 2.24.632 1.816 1.39 5.34 1.647 7.654.06.53.21 1.444.336 2.03.126.584.07 2.004-.12 3.155-.188 1.152-.247 2.28-.127 2.51.12.228.058 1-.138 1.718-.197.717-.313 1.766-.26 2.332.085.882-.043 3.083-.467 8.107-.05.605-.02 1.29.07 1.52.09.23.192 1.103.227 1.938.084 2.087 1.142 5.236 1.995 5.948.813.677.7 1.645-.202 1.734-.37.037-.842-.357-1.195-.996-.67-1.212-1.697-5.435-1.498-6.16.073-.268.023-.573-.11-.678-.296-.234-.807-4.186-.625-4.848.07-.262-.01-.514-.18-.56-.326-.09-.325-.155.075-5.606.14-1.92.233-3.752.21-4.068-.026-.316.013-1.807.085-3.312.072-1.505.06-3.28-.028-3.946-.09-.665-.21-1.813-.268-2.55-.224-2.868-.348-3.677-.656-4.256-.177-.33-.628-1.55-1.003-2.712-.376-1.163-.938-2.624-1.25-3.25-.802-1.6-5.175-5.455-7.656-6.75-2.513-1.31-5.437-2.893-6.53-3.538-.71-.42-1.824-.974-2.476-1.232s-1.628-.695-2.17-.97c-2.022-1.015-6.934-2.344-9.166-2.48-1.27-.077-2.29-.202-2.27-.28.022-.077-.49-.027-1.135.11-.647.138-1.677.113-2.29-.055-1.2-.33-4.668.514-6.043 1.472-.912.632-1.55 2.263-1.08 2.766.162.174 3.266 1.13 6.898 2.125 3.63.997 7.084 2.094 7.67 2.44s1.59.87 2.226 1.166c1.232.577 3.76 2.13 5.303 3.26.516.378 1.015.712 1.11.742.294.093 2.546 2.096 2.845 2.532.157.23 1.188 1.433 2.29 2.677 1.104 1.245 2.67 3.397 3.48 4.784 1.64 2.802 3.812 8.997 4.534 12.93.544 2.96 1.487 6.81 1.82 7.42.126.23.153.687.063 1.016-.09.33-.053.686.084.793.136.104.48 1.365.762 2.798.284 1.434.84 3.222 1.234 3.975.396.753.698 1.448.673 1.545-.028.096.23 1.002.57 2.013.343 1.012.553 2.09.468 2.398-.084.308-.293.52-.467.474-.68-.187-5.05-6.34-4.895-6.9.045-.167-.17-.695-.48-1.174-.586-.904-2.483-6.565-2.893-8.634-.13-.654-.468-2.435-.75-3.956-1.195-6.448-4.367-11.845-9.96-16.95-1.57-1.43-3.017-2.826-3.22-3.102-.2-.278-.68-.643-1.06-.813-.38-.17-1.27-.71-1.978-1.2-1.938-1.344-13.532-4.278-16.162-4.09-5.063.362-15.905 2.642-16.117 3.39-.04.143-.274.205-.52.138-.246-.066-2.018.7-3.937 1.702s-3.567 1.69-3.663 1.527c-.168-.285.785-2.668 2.318-5.8.766-1.568 2.717-4.618 3.52-5.5.258-.288.525-.72.59-.958.106-.385 2.54-3.36 4.084-4.986 1.018-1.073 1.385-1.488 1.736-1.962.19-.257.78-.855 1.313-1.328.53-.474 1.35-1.282 1.82-1.795.47-.513 1.25-1.178 1.734-1.477.484-.298.94-.745 1.018-.99.076-.247.752-.864 1.5-1.372.752-.508 1.42-1.126 1.488-1.373.068-.248.28-.407.472-.354.192.052.407-.12.48-.383.228-.83 15.136-9.246 18.673-10.542.765-.28 2.047-.83 2.85-1.226.803-.394 2.52-1.087 3.813-1.54 1.296-.454 2.443-.944 2.553-1.09s.34-.23.512-.18 1.662-.362 3.312-.908 3.988-1.212 5.197-1.48z"/></g></g><use xlink:href="#e" overflow="visible" fill="none" stroke="#000" stroke-width="7"/><radialGradient id="y" cx="436.473" cy="575.523" r="180.594" gradientUnits="userSpaceOnUse"><stop offset=".632" stop-color="#FFF"/><stop offset=".705" stop-color="#F4F5F5"/><stop offset=".855" stop-color="#EAEBEB"/><stop offset="1" stop-color="#E6E7E8"/></radialGradient></svg>