<?xml version="1.0" encoding="utf-8"?>
<!-- Generator: Adobe Illustrator 15.0.0, SVG Export Plug-In  -->
<!DOCTYPE svg PUBLIC "-//W3C//DTD SVG 1.1//EN" "http://www.w3.org/Graphics/SVG/1.1/DTD/svg11.dtd" [
	<!ENTITY ns_flows "http://ns.adobe.com/Flows/1.0/">
]>
<svg version="1.1"
	 xmlns="http://www.w3.org/2000/svg" xmlns:xlink="http://www.w3.org/1999/xlink" xmlns:a="http://ns.adobe.com/AdobeSVGViewerExtensions/3.0/"
	 x="0px" y="0px" width="524px" height="659px" viewBox="0 0 524 659" enable-background="new 0 0 524 659" xml:space="preserve">
<defs>
</defs>
<linearGradient id="SVGID_3_" gradientUnits="userSpaceOnUse" x1="37.7886" y1="515.3037" x2="92.6829" y2="536.3757">
	<stop  offset="0" style="stop-color:#8B5E3C"/>
	<stop  offset="0.497" style="stop-color:#FDC060"/>
</linearGradient>
<path display="none" fill="url(#SVGID_3_)" stroke="#000000" stroke-width="3" stroke-miterlimit="10" d="M109.092,493.628l-72,70
	c0,0-13.53,0.171-11-15c2.529-15.171,23-55,23-55s1-8,21-9S109.092,493.628,109.092,493.628z"/>
<linearGradient id="SVGID_4_" gradientUnits="userSpaceOnUse" x1="430.9292" y1="536.376" x2="485.8235" y2="515.304">
	<stop  offset="0.503" style="stop-color:#FDC060"/>
	<stop  offset="1" style="stop-color:#8B5E3C"/>
</linearGradient>
<path display="none" fill="url(#SVGID_4_)" stroke="#000000" stroke-width="3" stroke-miterlimit="10" d="M414.52,493.628l72,70
	c0,0,13.529,0.171,11-15s-23-55-23-55s-1-8-21-9S414.52,493.628,414.52,493.628z"/>
<linearGradient id="SVGID_5_" gradientUnits="userSpaceOnUse" x1="1.5" y1="461.1279" x2="107.0923" y2="461.1279">
	<stop  offset="0" style="stop-color:#BCBEC0"/>
	<stop  offset="0.3333" style="stop-color:#E6E7E8"/>
</linearGradient>
<path display="none" fill="url(#SVGID_5_)" stroke="#000000" stroke-width="3" stroke-miterlimit="10" d="M2.092,456.628
	c0-18,7.316-28,35-28s51,8,51,8l19,57c0,0-71.883-16.141-90.941-9.07S2.092,456.628,2.092,456.628z"/>
<linearGradient id="SVGID_6_" gradientUnits="userSpaceOnUse" x1="416.52" y1="461.1279" x2="522.1118" y2="461.1279">
	<stop  offset="0.6316" style="stop-color:#E6E7E8"/>
	<stop  offset="0.6867" style="stop-color:#DBDCDD"/>
	<stop  offset="0.7932" style="stop-color:#CACBCD"/>
	<stop  offset="0.8984" style="stop-color:#BFC1C3"/>
	<stop  offset="1" style="stop-color:#BCBEC0"/>
</linearGradient>
<path display="none" fill="url(#SVGID_6_)" stroke="#000000" stroke-width="3" stroke-miterlimit="10" d="M521.52,456.628
	c0-18-7.316-28-35-28s-51,8-51,8l-19,57c0,0,71.883-16.141,90.941-9.07S521.52,456.628,521.52,456.628z"/>
<path display="none" fill="#FBB040" stroke="#000000" stroke-width="3" stroke-miterlimit="10" d="M2.092,456.628c0,0,8,6,23,6
	c9.731,10.067,11,32,11,58.345c-25-1.345-34-19.345-34-48.345S2.092,456.628,2.092,456.628z"/>
<path display="none" fill="#FBB040" stroke="#000000" stroke-width="3" stroke-miterlimit="10" d="M521.52,456.628c0,0-8,6-23,6
	c-9.731,10.067-11,32-11,58.345c25-1.345,34-19.345,34-48.345S521.52,456.628,521.52,456.628z"/>
<g>
	<defs>
		<path id="SVGID_2_" d="M261.113,3.5H10.092c0,0,0,138.937,0,258.714c0,161.081,140,299,251.714,341
			c118.286-39,251.714-175.92,251.714-337c0-119.778,0-262.714,0-262.714H261.113z"/>
	</defs>
	<radialGradient id="SVGID_7_" cx="261.8062" cy="303.3569" r="276.8339" gradientUnits="userSpaceOnUse">
		<stop  offset="0" style="stop-color:#F69173"/>
		<stop  offset="1" style="stop-color:#CE1B23"/>
	</radialGradient>
	<use xlink:href="#SVGID_2_"  overflow="visible" fill="url(#SVGID_7_)"/>
	<clipPath id="SVGID_8_">
		<use xlink:href="#SVGID_2_"  overflow="visible"/>
	</clipPath>
	<g clip-path="url(#SVGID_8_)">
		<g>
			<path fill="#D4AC57" d="M316.382,359.294c0,0,4-9.333,17.666-10s44.333,5,63.666,5c7.17,0,13.011-1.65,17.488-3.846
				c7.594-3.725,11.266-9.019,10.846-10.487c-0.666-2.333-12,8.333-19.666,8.333c-7.668,0-30.668-11.667-29.334-13.667
				s39-27.667,53.334-44.667c14.332-17,15.332-20.667,15.332-20.667s37.667-6,51-27.333c13.334-21.333,9-28.333,7.334-28.333
				s-8.666,30.667-23.666,33s-19.334,2-22.334-3.333s2-22.667,13.334-32.667c11.332-10,10.666-32.667,9.332-41.333
				c-1.332-8.667-8.333-21.333-10-19c-1.666,2.333,6.334,18.333,3,30.333c-3.332,12-11.666,24-20,22.667
				c-8.332-1.333-26.333-14.666-30-39.333c-3.666-24.667,1.001-39.667,3.668-44.667c2.666-5-6.334-1-12,19.333
				c-5.668,20.333-2.668,21.667,1.332,35s9.334,20.333,15.334,35.667s11.334,40.667-5.666,61.333s-25,33.333-31,31.667
				s-8.667-20.666-4-35.333c4.666-14.667,11.999-20,8.332-19.333c-3.666,0.667-11,8.333-17.666,19.333s-4,34.666-10.334,44.333
				c-6.332,9.667-33.666,26.667-38.332,22c-4.668-4.667,3.859-32.667-6.404-59s-18.263-26-18.596-25
				c-0.334,1,13.666,33.334,12,45.667c-1.668,12.333-5,38-17,42s-7,4.306-8,8.319S316.382,359.294,316.382,359.294z"/>
			<g>
				<g>
					<path fill="#6E5726" d="M339.798,344.128c8.25-0.25,10.75,2.25,14.25,2.5s8-2.5,8-2.5c14.25,1.25,33,11.25,40.25,8.75
						c2.645-0.912,5.984-1.056,8.727-0.717c-3.754,1.283-8.186,2.134-13.311,2.134c-19.333,0-50-5.667-63.666-5
						c-9.162,0.447-13.965,4.781-16.146,7.595c-1.224,0.517-2.427,1.016-3.553,1.452c-1.176-0.563-2.775-1.344-4.546-2.253
						C318.548,345.128,331.548,344.378,339.798,344.128z"/>
					<path fill="#6E5726" d="M371.714,311.294c3.996-6.099,4.41-17.767,5.846-28.313c0.875,4.532,1.155,12.379,0.988,19.897
						c-0.25,11.25-10.391,12.606-10.391,12.606l0,0C369.645,314.004,370.871,312.583,371.714,311.294z"/>
					<path fill="#6E5726" d="M446.779,269.105c2.8-5.141,7.197-10.804,13.27-11.728c11.5-1.75,19.341-3.079,26.75-7.5
						c2.364-1.411,5.332-3.523,8.034-5.237C481.69,261.809,452.66,268.007,446.779,269.105z"/>
					<path fill="#6E5726" d="M432.048,209.294c-5.734-14.653-10.855-21.71-14.791-33.943c6.188,14.469,22.953,31.304,25.791,43.526
						c2.096,9.026-2.146,18.357-5.426,23.853C438.695,230.142,435.485,218.077,432.048,209.294z"/>
					<path fill="#6E5726" d="M412.551,159.669c1.055,2.524,2.025,5.718,2.752,9.54C414.053,165.481,413.033,162.718,412.551,159.669
						z"/>
					<path fill="#6E5726" d="M471.382,210.628c-5.469,4.825-9.458,11.356-11.79,17.425c-3.173-2.525-5.144-8.372,1.956-13.175
						c4.893-3.31,12.516-12.332,18.107-19.396C478.181,201.372,475.622,206.887,471.382,210.628z"/>
					<path fill="#6E5726" d="M312.455,327.63c4.884-9.712,6.793-24.275,7.928-32.668c0.52-3.851-0.486-9.651-2.107-15.838l0,0
						c3.976-0.505,4.523,15.005,5.523,28.505C324.369,315.336,318.013,322.714,312.455,327.63z"/>
				</g>
				<g>
					<g>
						<path fill="#E6E7E8" d="M395.382,302.294c0.661,0.184,1.349,0.183,2.068,0.027c-1.174,2.526-1.973,0.748-7.068-3.089
							c-7.167-5.396-1.834-30.938-0.834-36.104s11.07-15.44,11.07-15.44s0.008,0.188,0.023,0.533
							c-0.605,1.812-5.704,7.563-9.26,18.741C386.715,281.628,389.382,300.628,395.382,302.294z"/>
						<path fill="#E6E7E8" d="M334.257,333.82c-1.208,0.612-2.428,0.55-2.875-1.692c-1-5-0.168-29-0.834-34.833
							s-3.426-29.903-18.546-47.285c3.354,2.148,8.745,8.3,14.976,24.285c10.264,26.333,1.736,54.333,6.404,59
							C333.615,333.527,333.917,333.691,334.257,333.82z"/>
						<path fill="#E6E7E8" d="M377.048,334.628c-1.334,2,21.666,13.667,29.334,13.667c4.945,0,11.413-4.436,15.563-6.96
							c-3.827,3.175-9.108,7.096-12.063,7.293c-5,0.333-11.834,0.965-21.168-4.518C379.382,338.628,375.384,336.091,377.048,334.628
							z"/>
						<path fill="#E6E7E8" d="M406.337,295.309c-0.001,0,0-0.001-0.002-0.001c4.936-5.535,11.297-14.044,20.047-24.68
							c7.262-8.829,10.439-18.508,11.24-27.896c0.002,0.012,2.086,11.571-9.574,27.563
							C416.382,286.294,407.792,295.657,406.337,295.309z"/>
						<path fill="#E6E7E8" d="M481.048,247.688c-6.834,1.273-18.259,3.939-21.879-2.727c-0.002-0.002-0.002-0.004-0.003-0.006
							c3.036,3.712,7.962,3.735,21.216,1.673c15-2.333,22-33,23.666-33c0,0-4.833,13.833-7.166,18.333
							C494.548,236.461,487.882,246.415,481.048,247.688z"/>
						<path fill="#E6E7E8" d="M471.382,189.794c-9.834,14.167-13.211,16.341-19.82,12.951c-0.002,0-0.002-0.001-0.004-0.002
							c0.77,0.256,1.496,0.446,2.156,0.551c8.334,1.333,16.668-10.667,20-22.667c3.334-12-4.666-28-3-30.333
							C470.714,150.294,481.215,175.627,471.382,189.794z"/>
						<path fill="#E6E7E8" d="M429.495,181.717c0,0.001-0.001,0.008-0.001,0.008s-7.112-12.598-7.779-25.931
							c-0.666-13.333,0.5-26.666,2-30.333c1.01-2.468,2.273-6.744,3.668-8.109c0.597-0.024,0.683,0.661,0,1.942
							c-2.667,5-7.334,20-3.668,44.667C424.723,170.743,426.818,176.663,429.495,181.717z"/>
					</g>
					<g>
						<path fill="#E8C267" d="M395.382,302.294c0.661,0.184,1.349,0.183,2.068,0.027c-1.174,2.526-1.973,0.748-7.068-3.089
							c-7.167-5.396-1.834-30.938-0.834-36.104s11.07-15.44,11.07-15.44s0.008,0.188,0.023,0.533
							c-0.605,1.812-5.704,7.563-9.26,18.741C386.715,281.628,389.382,300.628,395.382,302.294z"/>
						<path fill="#E8C267" d="M334.257,333.82c-1.208,0.612-2.428,0.55-2.875-1.692c-1-5-0.168-29-0.834-34.833
							s-3.426-29.903-18.546-47.285c3.354,2.148,8.745,8.3,14.976,24.285c10.264,26.333,1.736,54.333,6.404,59
							C333.615,333.527,333.917,333.691,334.257,333.82z"/>
						<path fill="#E8C267" d="M377.048,334.628c-1.334,2,21.666,13.667,29.334,13.667c4.945,0,11.413-4.436,15.563-6.96
							c-3.827,3.175-9.108,7.096-12.063,7.293c-5,0.333-11.834,0.965-21.168-4.518C379.382,338.628,375.384,336.091,377.048,334.628
							z"/>
						<path fill="#E8C267" d="M406.337,295.309c-0.001,0,0-0.001-0.002-0.001c4.936-5.535,11.297-14.044,20.047-24.68
							c7.262-8.829,10.439-18.508,11.24-27.896c0.002,0.012,2.086,11.571-9.574,27.563
							C416.382,286.294,407.792,295.657,406.337,295.309z"/>
						<path fill="#E8C267" d="M481.048,247.688c-6.834,1.273-18.259,3.939-21.879-2.727c-0.002-0.002-0.002-0.004-0.003-0.006
							c3.036,3.712,7.962,3.735,21.216,1.673c15-2.333,22-33,23.666-33c0,0-4.833,13.833-7.166,18.333
							C494.548,236.461,487.882,246.415,481.048,247.688z"/>
						<path fill="#E8C267" d="M471.382,189.794c-9.834,14.167-13.211,16.341-19.82,12.951c-0.002,0-0.002-0.001-0.004-0.002
							c0.77,0.256,1.496,0.446,2.156,0.551c8.334,1.333,16.668-10.667,20-22.667c3.334-12-4.666-28-3-30.333
							C470.714,150.294,481.215,175.627,471.382,189.794z"/>
						<path fill="#E8C267" d="M429.495,181.717c0,0.001-0.001,0.008-0.001,0.008s-7.112-12.598-7.779-25.931
							c-0.666-13.333,0.5-26.666,2-30.333c1.01-2.468,2.273-6.744,3.668-8.109c0.597-0.024,0.683,0.661,0,1.942
							c-2.667,5-7.334,20-3.668,44.667C424.723,170.743,426.818,176.663,429.495,181.717z"/>
					</g>
				</g>
			</g>
		</g>
		<g>
			<path fill="#D4AC57" d="M220.589,359.294c0,0-4-9.333-17.666-10s-44.333,5-63.666,5c-7.17,0-13.011-1.65-17.488-3.846
				c-7.594-3.725-11.266-9.019-10.846-10.487c0.666-2.333,12,8.333,19.666,8.333c7.668,0,30.668-11.667,29.334-13.667
				s-39-27.667-53.334-44.667c-14.332-17-15.332-20.667-15.332-20.667s-37.667-6-51-27.333c-13.334-21.333-9-28.333-7.334-28.333
				s8.666,30.667,23.666,33s19.334,2,22.334-3.333s-2-22.667-13.334-32.667c-11.332-10-10.666-32.667-9.332-41.333
				c1.332-8.667,8.333-21.333,10-19c1.666,2.333-6.334,18.333-3,30.333c3.332,12,11.666,24,20,22.667
				c8.332-1.333,26.333-14.666,30-39.333c3.666-24.667-1.001-39.667-3.668-44.667c-2.666-5,6.334-1,12,19.333
				c5.668,20.333,2.668,21.667-1.332,35s-9.334,20.333-15.334,35.667s-11.334,40.667,5.666,61.333s25,33.333,31,31.667
				s8.667-20.666,4-35.333c-4.666-14.667-11.999-20-8.332-19.333c3.666,0.667,11,8.333,17.666,19.333s4,34.666,10.334,44.333
				c6.332,9.667,33.666,26.667,38.332,22c4.668-4.667-3.859-32.667,6.404-59s18.263-26,18.596-25c0.334,1-13.666,33.334-12,45.667
				c1.668,12.333,5,38,17,42s7,4.306,8,8.319S220.589,359.294,220.589,359.294z"/>
			<g>
				<g>
					<path fill="#6E5726" d="M197.173,344.128c-8.25-0.25-10.75,2.25-14.25,2.5s-8-2.5-8-2.5c-14.25,1.25-33,11.25-40.25,8.75
						c-2.645-0.912-5.984-1.056-8.727-0.717c3.754,1.283,8.186,2.134,13.311,2.134c19.333,0,50-5.667,63.666-5
						c9.162,0.447,13.965,4.781,16.146,7.595c1.224,0.517,2.427,1.016,3.553,1.452c1.176-0.563,2.775-1.344,4.546-2.253
						C218.423,345.128,205.423,344.378,197.173,344.128z"/>
					<path fill="#6E5726" d="M165.257,311.294c-3.996-6.099-4.41-17.767-5.846-28.313c-0.875,4.532-1.155,12.379-0.988,19.897
						c0.25,11.25,10.391,12.606,10.391,12.606l0,0C167.327,314.004,166.101,312.583,165.257,311.294z"/>
					<path fill="#6E5726" d="M90.193,269.105c-2.8-5.141-7.197-10.804-13.27-11.728c-11.5-1.75-19.341-3.079-26.75-7.5
						c-2.364-1.411-5.332-3.523-8.034-5.237C55.282,261.809,84.312,268.007,90.193,269.105z"/>
					<path fill="#6E5726" d="M104.923,209.294c5.734-14.653,10.855-21.71,14.791-33.943c-6.188,14.469-22.953,31.304-25.791,43.526
						c-2.096,9.026,2.146,18.357,5.426,23.853C98.277,230.142,101.487,218.077,104.923,209.294z"/>
					<path fill="#6E5726" d="M124.42,159.669c-1.055,2.524-2.025,5.718-2.752,9.54C122.918,165.481,123.939,162.718,124.42,159.669z
						"/>
					<path fill="#6E5726" d="M65.589,210.628c5.469,4.825,9.458,11.356,11.79,17.425c3.173-2.525,5.144-8.372-1.956-13.175
						c-4.893-3.31-12.516-12.332-18.107-19.396C58.791,201.372,61.35,206.887,65.589,210.628z"/>
					<path fill="#6E5726" d="M224.517,327.63c-4.884-9.712-6.793-24.275-7.928-32.668c-0.52-3.851,0.486-9.651,2.107-15.838l0,0
						c-3.976-0.505-4.523,15.005-5.523,28.505C212.603,315.336,218.958,322.714,224.517,327.63z"/>
				</g>
				<g>
					<g>
						<path fill="#E6E7E8" d="M141.589,302.294c-0.661,0.184-1.349,0.183-2.068,0.027c1.174,2.526,1.973,0.748,7.068-3.089
							c7.167-5.396,1.834-30.938,0.834-36.104s-11.07-15.44-11.07-15.44s-0.008,0.188-0.023,0.533
							c0.605,1.812,5.704,7.563,9.26,18.741C150.256,281.628,147.589,300.628,141.589,302.294z"/>
						<path fill="#E6E7E8" d="M202.714,333.82c1.208,0.612,2.428,0.55,2.875-1.692c1-5,0.168-29,0.834-34.833
							s3.426-29.903,18.546-47.285c-3.354,2.148-8.745,8.3-14.976,24.285c-10.264,26.333-1.736,54.333-6.404,59
							C203.357,333.527,203.054,333.691,202.714,333.82z"/>
						<path fill="#E6E7E8" d="M159.923,334.628c1.334,2-21.666,13.667-29.334,13.667c-4.945,0-11.413-4.436-15.563-6.96
							c3.827,3.175,9.108,7.096,12.063,7.293c5,0.333,11.834,0.965,21.168-4.518C157.589,338.628,161.587,336.091,159.923,334.628z"
							/>
						<path fill="#E6E7E8" d="M130.634,295.309c0.001,0,0-0.001,0.002-0.001c-4.936-5.535-11.297-14.044-20.047-24.68
							c-7.262-8.829-10.439-18.508-11.24-27.896c-0.002,0.012-2.086,11.571,9.574,27.563
							C120.589,286.294,129.179,295.657,130.634,295.309z"/>
						<path fill="#E6E7E8" d="M55.923,247.688c6.834,1.273,18.259,3.939,21.879-2.727c0.002-0.002,0.002-0.004,0.003-0.006
							c-3.036,3.712-7.962,3.735-21.216,1.673c-15-2.333-22-33-23.666-33c0,0,4.833,13.833,7.166,18.333
							C42.423,236.461,49.089,246.415,55.923,247.688z"/>
						<path fill="#E6E7E8" d="M65.589,189.794c9.834,14.167,13.211,16.341,19.82,12.951c0.002,0,0.002-0.001,0.004-0.002
							c-0.77,0.256-1.496,0.446-2.156,0.551c-8.334,1.333-16.668-10.667-20-22.667c-3.334-12,4.666-28,3-30.333
							C66.257,150.294,55.756,175.627,65.589,189.794z"/>
						<path fill="#E6E7E8" d="M107.477,181.717c0,0.001,0.001,0.008,0.001,0.008s7.112-12.598,7.779-25.931
							c0.666-13.333-0.5-26.666-2-30.333c-1.01-2.468-2.273-6.744-3.668-8.109c-0.597-0.024-0.683,0.661,0,1.942
							c2.667,5,7.334,20,3.668,44.667C112.249,170.743,110.154,176.663,107.477,181.717z"/>
					</g>
					<g>
						<path fill="#E8C267" d="M141.589,302.294c-0.661,0.184-1.349,0.183-2.068,0.027c1.174,2.526,1.973,0.748,7.068-3.089
							c7.167-5.396,1.834-30.938,0.834-36.104s-11.07-15.44-11.07-15.44s-0.008,0.188-0.023,0.533
							c0.605,1.812,5.704,7.563,9.26,18.741C150.256,281.628,147.589,300.628,141.589,302.294z"/>
						<path fill="#E8C267" d="M202.714,333.82c1.208,0.612,2.428,0.55,2.875-1.692c1-5,0.168-29,0.834-34.833
							s3.426-29.903,18.546-47.285c-3.354,2.148-8.745,8.3-14.976,24.285c-10.264,26.333-1.736,54.333-6.404,59
							C203.357,333.527,203.054,333.691,202.714,333.82z"/>
						<path fill="#E8C267" d="M159.923,334.628c1.334,2-21.666,13.667-29.334,13.667c-4.945,0-11.413-4.436-15.563-6.96
							c3.827,3.175,9.108,7.096,12.063,7.293c5,0.333,11.834,0.965,21.168-4.518C157.589,338.628,161.587,336.091,159.923,334.628z"
							/>
						<path fill="#E8C267" d="M130.634,295.309c0.001,0,0-0.001,0.002-0.001c-4.936-5.535-11.297-14.044-20.047-24.68
							c-7.262-8.829-10.439-18.508-11.24-27.896c-0.002,0.012-2.086,11.571,9.574,27.563
							C120.589,286.294,129.179,295.657,130.634,295.309z"/>
						<path fill="#E8C267" d="M55.923,247.688c6.834,1.273,18.259,3.939,21.879-2.727c0.002-0.002,0.002-0.004,0.003-0.006
							c-3.036,3.712-7.962,3.735-21.216,1.673c-15-2.333-22-33-23.666-33c0,0,4.833,13.833,7.166,18.333
							C42.423,236.461,49.089,246.415,55.923,247.688z"/>
						<path fill="#E8C267" d="M65.589,189.794c9.834,14.167,13.211,16.341,19.82,12.951c0.002,0,0.002-0.001,0.004-0.002
							c-0.77,0.256-1.496,0.446-2.156,0.551c-8.334,1.333-16.668-10.667-20-22.667c-3.334-12,4.666-28,3-30.333
							C66.257,150.294,55.756,175.627,65.589,189.794z"/>
						<path fill="#E8C267" d="M107.477,181.717c0,0.001,0.001,0.008,0.001,0.008s7.112-12.598,7.779-25.931
							c0.666-13.333-0.5-26.666-2-30.333c-1.01-2.468-2.273-6.744-3.668-8.109c-0.597-0.024-0.683,0.661,0,1.942
							c2.667,5,7.334,20,3.668,44.667C112.249,170.743,110.154,176.663,107.477,181.717z"/>
					</g>
				</g>
			</g>
		</g>
		<g>
			<path fill="#F1F2F2" d="M322.092,376.605c1.298,0,2.438-0.197,3.481-0.521c-1.942-13.656-19.697-26.602-20.484-29.123
				c-0.834-2.667-1.834-8-5.834-8s-8.21,7.237-16.236,7.237c-8.027,0-12.264,0.68-14.68,0.68s-6.652-0.68-14.68-0.68
				c-8.026,0-12.236-7.237-16.236-7.237s-5,5.333-5.834,8c-0.786,2.516-18.484,15.423-20.477,29.054
				c1.045,0.324,2.179,0.529,3.477,0.529c4.988,0,1.638,2.207-3.597,4.082c0.702,12.995,7.567,19.246,10.098,26.834
				c2.667,8,0.521,18.917,6.208,32.104s20.178,30.678,20.178,37.178s-4.428,7.322-4.428,15.635s13.208,19.625,15.75,19.625
				s7.489-2.041,9.703-2.041s6.837,2.041,9.379,2.041s15.75-11.313,15.75-19.625s-4.428-9.135-4.428-15.635
				s14.49-23.99,20.178-37.178s3.541-24.104,6.208-32.104c2.526-7.577,9.376-13.818,10.095-26.774
				C320.453,378.812,317.107,376.605,322.092,376.605z"/>
			<path fill="#E6E7E8" d="M239.048,416.753c8.875-2.375,10.75,20.875,11.625,9.625s-12.5-20.75-12.5-20.75
				c-1.428-1.115-2.5,6.75-4.875,8.625s-7.375-0.75-9.663-0.125s-0.212,4.75,5.288,6.875S230.173,419.128,239.048,416.753z"/>
			<path fill="#E6E7E8" d="M297.619,416.815c-8.875-2.375-10.75,20.875-11.625,9.625s12.5-20.75,12.5-20.75
				c1.428-1.115,2.5,6.75,4.875,8.625s7.375-0.75,9.663-0.125s0.212,4.75-5.288,6.875S306.494,419.19,297.619,416.815z"/>
			<path fill="#E6E7E8" d="M218.173,365.628c0,0-8-5-22-5s-29.25,9.25-41.25,9c-6.746,0-8.229,0.333-8.334,1.417
				c-0.104,1.083,0.084,1.417,8.334,1.667s21.5,18.833,42.083,18.833c20.584,0,16.251-8.5,23.834-10.167
				S218.173,365.628,218.173,365.628z M198.923,383.212c-7.833,0-23.25-8.084-30.167-8.5c-6.916-0.417,14.333-6.667,24.833-6.667
				s12.333,8.5,21,8.5S206.756,383.212,198.923,383.212z"/>
			<path fill="#58595B" d="M214.589,376.545c-8.667,0-10.5-8.5-21-8.5s-31.749,6.25-24.833,6.667c6.917,0.417,22.334,8.5,30.167,8.5
				S223.256,376.545,214.589,376.545z"/>
			<path fill="#939598" d="M193.589,368.045c10.5,0,12.333,8.5,21,8.5s-7.833,6.667-15.666,6.667c7.833,0,19.313-0.938,19.313-8.521
				S204.089,368.045,193.589,368.045z"/>
			<path fill="#939598" d="M233.298,414.253c1.621-1.28,2.636-5.349,3.57-7.449c-0.285-0.063-0.585-0.121-0.916-0.167
				c-4.223-0.588,1.804,5.158-5.029,5.158c-6.834,0-7.288-3.667-7.288-3.667c-1.975-0.948-2.069-0.229-2.041,1.127
				c0.358,1.485,0.602,3.056,0.788,4.716c0.203,0.163,0.427,0.321,0.68,0.476c0.146-0.139,0.33-0.252,0.573-0.318
				C225.923,413.503,230.923,416.128,233.298,414.253z"/>
			<path fill="#6D6E71" d="M236.716,407.16c0.001,0,0.001,0.001,0.002,0.001c0.489-1.189,0.95-1.928,1.455-1.533
				c0,0,0.121,0.087,0.339,0.251c-0.034-0.826-0.299-1.978-0.756-3.418c-1.191-3.756-4.333-1.666-9.333-10
				s-9.252-6.207-13.667-5.666c-1.438,0.176-2.235,0.656-2.576,1.334c0.517,1.891,1.162,3.614,1.872,5.225
				c2.335,3.065,5.962,6.282,7.204,7.441c2.5,2.334,2.333,0,6.5-0.667S234.589,406.295,236.716,407.16z"/>
			<path fill="#D1D3D4" d="M223.635,379.295c-1.965-0.048-8.701,3.94-11.869,7.109c0.293,1.338,0.645,2.604,1.051,3.796
				c0.336-0.01,0.698-0.03,1.106-0.072c11.531-1.184,19,8.5,29.333,15.5c10.334,7,15.667,89.667,15.667,34
				S223.635,379.295,223.635,379.295z"/>
			<path fill="#FFFFFF" d="M223.239,401.792c2.622-0.477,4.247-1.602,6.185-0.352s2.625,4.434,0.688,5.154s-5.688,0.783-6.188-0.279
				s-1.727-3.872-0.685-4.313"/>
			<path fill="#E6E7E8" d="M229.229,431.628c-2.058,5.004,10.944,27.25,18.944,29s6.25-15.75,0-23.5
				S231.286,426.628,229.229,431.628z"/>
			<path fill="#E6E7E8" d="M315.842,381.438c7.583,1.667,3.25,10.167,23.834,10.167c20.583,0,33.833-18.583,42.083-18.833
				s8.438-0.583,8.333-1.667c-0.104-1.083-1.587-1.417-8.333-1.417c-12,0.25-27.25-9-41.25-9s-22,5-22,5
				S308.259,379.771,315.842,381.438z M322.092,376.605c8.668,0,10.5-8.5,21-8.5s31.75,6.25,24.834,6.667
				c-6.917,0.417-22.334,8.5-30.167,8.5S313.426,376.605,322.092,376.605z"/>
			<path fill="#58595B" d="M343.092,368.105c-10.5,0-12.332,8.5-21,8.5c-8.666,0,7.834,6.667,15.667,6.667s23.25-8.084,30.167-8.5
				C374.842,374.355,353.592,368.105,343.092,368.105z"/>
			<path fill="#939598" d="M343.092,368.105c-10.5,0-12.332,8.5-21,8.5c-8.666,0,7.834,6.667,15.667,6.667
				c-7.833,0-19.313-0.938-19.313-8.521S332.592,368.105,343.092,368.105z"/>
			<path fill="#939598" d="M303.384,414.313c-1.622-1.28-2.636-5.349-3.57-7.449c0.285-0.063,0.585-0.121,0.916-0.167
				c4.222-0.588-1.804,5.158,5.029,5.158s7.288-3.667,7.288-3.667c1.975-0.948,2.069-0.229,2.041,1.127
				c-0.359,1.485-0.602,3.056-0.788,4.716c-0.203,0.163-0.427,0.321-0.681,0.476c-0.146-0.139-0.329-0.252-0.572-0.318
				C310.759,413.563,305.759,416.188,303.384,414.313z"/>
			<path fill="#6D6E71" d="M299.966,407.221c-0.001,0-0.001,0.001-0.003,0.001c-0.488-1.189-0.949-1.928-1.454-1.533
				c0,0-0.122,0.087-0.339,0.251c0.034-0.826,0.299-1.978,0.756-3.418c1.191-3.756,4.333-1.666,9.333-10s9.252-6.207,13.667-5.666
				c1.438,0.176,2.235,0.656,2.576,1.334c-0.517,1.891-1.162,3.614-1.873,5.225c-2.334,3.065-5.961,6.282-7.203,7.441
				c-2.5,2.334-2.334,0-6.5-0.667C304.758,399.521,302.092,406.355,299.966,407.221z"/>
			<path fill="#D1D3D4" d="M313.047,379.355c1.965-0.048,8.701,3.94,11.869,7.109c-0.293,1.338-0.645,2.604-1.051,3.796
				c-0.336-0.01-0.698-0.03-1.106-0.072c-11.531-1.184-19,8.5-29.333,15.5c-10.334,7-15.667,89.667-15.667,34
				S313.047,379.355,313.047,379.355z"/>
			<path fill="#FFFFFF" d="M313.444,401.853c-2.622-0.477-4.247-1.602-6.185-0.352s-2.625,4.434-0.688,5.154
				s5.688,0.783,6.188-0.279s1.727-3.872,0.685-4.313"/>
			<path fill="#E6E7E8" d="M307.454,431.688c2.057,5.004-10.944,27.25-18.944,29s-6.25-15.75,0-23.5
				S305.397,426.688,307.454,431.688z"/>
			<path fill="#D1D3D4" d="M297.494,345.846c-5.499,6.784-28.979,3.678-29.098,3.696c-0.119-0.018-23.641,3.088-29.141-3.696
				c-5.945-7.333,2.812,13.333-13.233,16c0,0,40.622,26.946,41.955,48.807c0.161,2.645,0.292,3.742,0.398,3.65
				c0.104,0.092,0.235-1.006,0.396-3.65c1.333-21.861,41.955-48.807,41.955-48.807C294.681,359.18,303.439,338.513,297.494,345.846z
				"/>
			<ellipse fill="#6D6E71" cx="257.069" cy="502.295" rx="6.354" ry="3"/>
			<ellipse fill="#6D6E71" cx="278.792" cy="502.295" rx="6.354" ry="3"/>
		</g>
		<radialGradient id="SVGID_9_" cx="268.3374" cy="149.5381" r="99.6138" gradientUnits="userSpaceOnUse">
			<stop  offset="0" style="stop-color:#FFFAC6"/>
			<stop  offset="1" style="stop-color:#D4AC57"/>
		</radialGradient>
		<polygon fill="url(#SVGID_9_)" stroke="#000000" stroke-width="2" stroke-miterlimit="10" points="288.06,86.674 313.122,30.797 
			268.19,30.797 223.256,30.797 248.243,86.507 192.533,61.521 192.533,106.453 192.533,151.385 248.614,126.233 223.552,182.11 
			250.642,182.11 268.337,268.279 286.076,182.11 313.418,182.11 288.432,126.4 344.142,151.386 344.142,106.454 344.142,61.521 		
			"/>
	</g>
	<use xlink:href="#SVGID_2_"  overflow="visible" fill="none" stroke="#000000" stroke-width="7" stroke-miterlimit="10"/>
</g>
<radialGradient id="SVGID_10_" cx="261.8062" cy="575.5225" r="180.5935" gradientUnits="userSpaceOnUse">
	<stop  offset="0.6316" style="stop-color:#FFFFFF"/>
	<stop  offset="0.7049" style="stop-color:#F4F5F5"/>
	<stop  offset="0.8549" style="stop-color:#EAEBEB"/>
	<stop  offset="1" style="stop-color:#E6E7E8"/>
</radialGradient>
<path display="none" fill="url(#SVGID_10_)" stroke="#000000" stroke-width="3" stroke-miterlimit="10" d="M474.52,493.628
	c0,0-35,101-212.714,101s-212.714-101-212.714-101s-32,43-29,61S84.52,657.416,261.806,657.416S500.52,572.628,503.52,554.628
	S474.52,493.628,474.52,493.628z"/>
<path display="none" fill="none" d="M20.092,554.628c3,18,64.428,102.788,241.714,102.788S500.52,572.628,503.52,554.628"/>
<g display="none">
	
		<text transform="matrix(0.4408 0.6676 -1.9194 1.2672 37.2827 555.4404)" display="inline" font-family="'LucidaCalligraphy-Italic'" font-size="20">S</text>
	
		<text transform="matrix(0.5079 0.6181 -1.7769 1.4603 42.7847 563.5693)" display="inline" font-family="'LucidaCalligraphy-Italic'" font-size="20">I</text>
	
		<text transform="matrix(0.5566 0.5746 -1.6519 1.6003 47.5898 569.4863)" display="inline" font-family="'LucidaCalligraphy-Italic'" font-size="20">C</text>
	
		<text transform="matrix(0.6084 0.5195 -1.4935 1.7491 55.4531 577.7002)" display="inline" font-family="'LucidaCalligraphy-Italic'" font-size="20">U</text>
	
		<text transform="matrix(0.6483 0.4688 -1.3477 1.8638 67.6816 587.9941)" display="inline" font-family="'LucidaCalligraphy-Italic'" font-size="20">T</text>
	
		<text transform="matrix(0.6686 0.4393 -1.2629 1.9223 77.1558 594.752)" display="inline" font-family="'LucidaCalligraphy-Italic'" font-size="20"> </text>
	
		<text transform="matrix(0.6802 0.4211 -1.2108 1.9555 81.7007 597.7354)" display="inline" font-family="'LucidaCalligraphy-Italic'" font-size="20"> </text>
	
		<text transform="matrix(0.696 0.3944 -1.1338 2.0011 86.3213 600.6553)" display="inline" font-family="'LucidaCalligraphy-Italic'" font-size="20">C</text>
	
		<text transform="matrix(0.7152 0.3585 -1.0306 2.0562 96.0356 606.1611)" display="inline" font-family="'LucidaCalligraphy-Italic'" font-size="20">E</text>
	
		<text transform="matrix(0.7333 0.3198 -0.9195 2.1082 106.7383 611.5469)" display="inline" font-family="'LucidaCalligraphy-Italic'" font-size="20">R</text>
	
		<text transform="matrix(0.7495 0.2797 -0.8043 2.1548 119.8345 617.248)" display="inline" font-family="'LucidaCalligraphy-Italic'" font-size="20">V</text>
	
		<text transform="matrix(0.7631 0.2401 -0.6902 2.194 133.4077 622.3232)" display="inline" font-family="'LucidaCalligraphy-Italic'" font-size="20">U</text>
	
		<text transform="matrix(0.7722 0.2089 -0.6007 2.2202 148.5088 626.999)" display="inline" font-family="'LucidaCalligraphy-Italic'" font-size="20">S</text>
	
		<text transform="matrix(0.7767 0.1915 -0.5506 2.2331 157.5664 629.4248)" display="inline" font-family="'LucidaCalligraphy-Italic'" font-size="20"> </text>
	
		<text transform="matrix(0.7797 0.1792 -0.5152 2.2415 162.7729 630.709)" display="inline" font-family="'LucidaCalligraphy-Italic'" font-size="20"> </text>
	
		<text transform="matrix(0.7847 0.1557 -0.4477 2.256 168.0757 632.0029)" display="inline" font-family="'LucidaCalligraphy-Italic'" font-size="20">A</text>
	
		<text transform="matrix(0.7907 0.1219 -0.3505 2.2731 183.5444 635.0742)" display="inline" font-family="'LucidaCalligraphy-Italic'" font-size="20">N</text>
	
		<text transform="matrix(0.795 0.0896 -0.2576 2.2855 199.9878 637.6016)" display="inline" font-family="'LucidaCalligraphy-Italic'" font-size="20">H</text>
	
		<text transform="matrix(0.7975 0.0637 -0.1833 2.2927 216.5059 639.4189)" display="inline" font-family="'LucidaCalligraphy-Italic'" font-size="20">E</text>
	
		<text transform="matrix(0.7988 0.0443 -0.1274 2.2965 228.3252 640.3545)" display="inline" font-family="'LucidaCalligraphy-Italic'" font-size="20">L</text>
	
		<text transform="matrix(0.7997 0.0227 -0.0654 2.2991 239.1509 640.9854)" display="inline" font-family="'LucidaCalligraphy-Italic'" font-size="20">A</text>
	
		<text transform="matrix(0.8 0.0077 -0.0221 2.2999 254.8149 641.3594)" display="inline" font-family="'LucidaCalligraphy-Italic'" font-size="20">T</text>
	
		<text transform="matrix(0.7999 -0.0107 0.0308 2.2998 266.27 641.4043)" display="inline" font-family="'LucidaCalligraphy-Italic'" font-size="20"> </text>
	
		<text transform="matrix(0.7998 -0.019 0.0545 2.2994 271.6118 641.333)" display="inline" font-family="'LucidaCalligraphy-Italic'" font-size="20"> </text>
	
		<text transform="matrix(0.7992 -0.0358 0.103 2.2977 277.0171 641.2588)" display="inline" font-family="'LucidaCalligraphy-Italic'" font-size="20">A</text>
	
		<text transform="matrix(0.7976 -0.0624 0.1794 2.293 292.729 640.5547)" display="inline" font-family="'LucidaCalligraphy-Italic'" font-size="20">D</text>
	
		<text transform="matrix(0.7959 -0.0813 0.2337 2.2881 308.3403 639.2725)" display="inline" font-family="'LucidaCalligraphy-Italic'" font-size="20"> </text>
	
		<text transform="matrix(0.7948 -0.0913 0.2624 2.285 313.686 638.7246)" display="inline" font-family="'LucidaCalligraphy-Italic'" font-size="20"> </text>
	
		<text transform="matrix(0.7926 -0.1083 0.3112 2.2788 319.0454 638.1475)" display="inline" font-family="'LucidaCalligraphy-Italic'" font-size="20">F</text>
	
		<text transform="matrix(0.7888 -0.1334 0.3836 2.2678 331.3218 636.4736)" display="inline" font-family="'LucidaCalligraphy-Italic'" font-size="20">O</text>
	
		<text transform="matrix(0.7829 -0.1647 0.4735 2.2507 343.8472 634.3945)" display="inline" font-family="'LucidaCalligraphy-Italic'" font-size="20">N</text>
	
		<text transform="matrix(0.7754 -0.1969 0.566 2.2293 360.146 630.9121)" display="inline" font-family="'LucidaCalligraphy-Italic'" font-size="20">T</text>
	
		<text transform="matrix(0.7677 -0.2251 0.6473 2.207 371.3862 628.0615)" display="inline" font-family="'LucidaCalligraphy-Italic'" font-size="20">E</text>
	
		<text transform="matrix(0.7592 -0.2521 0.7248 2.1828 382.8188 624.6836)" display="inline" font-family="'LucidaCalligraphy-Italic'" font-size="20">S</text>
	
		<text transform="matrix(0.7525 -0.2715 0.7806 2.1635 391.7153 621.7021)" display="inline" font-family="'LucidaCalligraphy-Italic'" font-size="20"> </text>
	
		<text transform="matrix(0.7471 -0.2861 0.8224 2.1479 396.7915 619.8711)" display="inline" font-family="'LucidaCalligraphy-Italic'" font-size="20"> </text>
	
		<text transform="matrix(0.7351 -0.3157 0.9077 2.1133 401.9614 617.999)" display="inline" font-family="'LucidaCalligraphy-Italic'" font-size="20">A</text>
	
		<text transform="matrix(0.7161 -0.3567 1.0255 2.0587 416.4829 611.7051)" display="inline" font-family="'LucidaCalligraphy-Italic'" font-size="20">Q</text>
	
		<text transform="matrix(0.6926 -0.4003 1.1509 1.9914 427.3823 606.3369)" display="inline" font-family="'LucidaCalligraphy-Italic'" font-size="20">U</text>
	
		<text transform="matrix(0.6592 -0.4532 1.3031 1.8952 441.2173 598.3379)" display="inline" font-family="'LucidaCalligraphy-Italic'" font-size="20">A</text>
	
		<text transform="matrix(0.6185 -0.5075 1.4589 1.7781 454.3472 589.2725)" display="inline" font-family="'LucidaCalligraphy-Italic'" font-size="20">R</text>
	
		<text transform="matrix(0.5635 -0.5678 1.6325 1.6202 465.6011 580.0947)" display="inline" font-family="'LucidaCalligraphy-Italic'" font-size="20">U</text>
	
		<text transform="matrix(0.4592 -0.6551 1.8833 1.3202 477.3345 568.5459)" display="inline" font-family="'LucidaCalligraphy-Italic'" font-size="20">M</text>
</g>
</svg>
