<!DOCTYPE svg PUBLIC "-//W3C//DTD SVG 1.1//EN" "http://www.w3.org/Graphics/SVG/1.1/DTD/svg11.dtd" [
	<!ENTITY ns_flows "http://ns.adobe.com/Flows/1.0/">
]><svg xmlns="http://www.w3.org/2000/svg" xmlns:xlink="http://www.w3.org/1999/xlink" width="524" height="659" viewBox="0 0 524 659"><linearGradient id="a" gradientUnits="userSpaceOnUse" x1="37.789" y1="515.304" x2="92.683" y2="536.376"><stop offset="0" stop-color="#8B5E3C"/><stop offset=".497" stop-color="#FDC060"/></linearGradient><linearGradient id="b" gradientUnits="userSpaceOnUse" x1="430.929" y1="536.376" x2="485.824" y2="515.304"><stop offset=".503" stop-color="#FDC060"/><stop offset="1" stop-color="#8B5E3C"/></linearGradient><linearGradient id="c" gradientUnits="userSpaceOnUse" x1="1.5" y1="461.128" x2="107.092" y2="461.128"><stop offset="0" stop-color="#BCBEC0"/><stop offset=".333" stop-color="#E6E7E8"/></linearGradient><linearGradient id="d" gradientUnits="userSpaceOnUse" x1="416.52" y1="461.128" x2="522.112" y2="461.128"><stop offset=".632" stop-color="#E6E7E8"/><stop offset=".687" stop-color="#DBDCDD"/><stop offset=".793" stop-color="#CACBCD"/><stop offset=".898" stop-color="#BFC1C3"/><stop offset="1" stop-color="#BCBEC0"/></linearGradient><defs><path id="e" d="M261.113 3.5H10.093v258.714c0 161.08 140 299 251.713 341 118.286-39 251.714-175.92 251.714-337V3.5H261.113z"/></defs><radialGradient id="f" cx="261.806" cy="303.357" r="276.834" gradientUnits="userSpaceOnUse"><stop offset="0" stop-color="#F69173"/><stop offset="1" stop-color="#CE1B23"/></radialGradient><use xlink:href="#e" overflow="visible" fill="url(#f)"/><clipPath id="g"><use xlink:href="#e" overflow="visible"/></clipPath><g clip-path="url(#g)"><path fill="#D4AC57" d="M316.382 359.294s4-9.333 17.666-10 44.333 5 63.666 5c7.17 0 13.01-1.65 17.488-3.846 7.594-3.725 11.266-9.02 10.846-10.487-.666-2.332-12 8.334-19.666 8.334-7.668 0-30.668-11.667-29.334-13.667s39-27.667 53.334-44.667c14.332-17 15.332-20.667 15.332-20.667s37.667-6 51-27.333c13.334-21.333 9-28.333 7.334-28.333s-8.666 30.667-23.666 33-19.334 2-22.334-3.333 2-22.667 13.334-32.667c11.332-10 10.666-32.667 9.332-41.333-1.332-8.667-8.333-21.333-10-19-1.666 2.333 6.334 18.333 3 30.333-3.332 12-11.666 24-20 22.667-8.332-1.333-26.333-14.666-30-39.333-3.666-24.666 1-39.666 3.668-44.666 2.666-5-6.334-1-12 19.333-5.668 20.333-2.668 21.667 1.332 35s9.334 20.333 15.334 35.667 11.334 40.667-5.666 61.333-25 33.333-31 31.667-8.667-20.666-4-35.333c4.666-14.666 12-20 8.332-19.332-3.666.667-11 8.333-17.666 19.333s-4 34.667-10.334 44.334c-6.332 9.667-33.666 26.667-38.332 22-4.668-4.667 3.86-32.667-6.404-59s-18.263-26-18.596-25c-.334 1 13.666 33.334 12 45.667-1.668 12.334-5 38-17 42s-7 4.307-8 8.32 21 14.014 21 14.014z"/><g fill="#6E5726"><path d="M339.798 344.128c8.25-.25 10.75 2.25 14.25 2.5s8-2.5 8-2.5c14.25 1.25 33 11.25 40.25 8.75 2.645-.912 5.984-1.056 8.727-.717-3.754 1.284-8.186 2.135-13.31 2.135-19.334 0-50-5.667-63.667-5-9.162.447-13.965 4.78-16.146 7.595-1.224.517-2.427 1.016-3.553 1.452-1.177-.563-2.776-1.344-4.547-2.253 8.745-10.962 21.745-11.712 29.995-11.962zM371.714 311.294c3.996-6.1 4.41-17.767 5.846-28.313.875 4.533 1.155 12.38.988 19.898-.25 11.25-10.39 12.606-10.39 12.606 1.487-1.48 2.713-2.9 3.556-4.19zM446.78 269.105c2.8-5.14 7.196-10.804 13.27-11.728 11.5-1.75 19.34-3.08 26.75-7.5 2.363-1.41 5.33-3.523 8.033-5.237-13.143 17.17-42.173 23.367-48.054 24.465zM432.048 209.294c-5.734-14.653-10.855-21.71-14.79-33.943 6.187 14.47 22.952 31.305 25.79 43.527 2.096 9.026-2.146 18.357-5.426 23.853 1.073-12.588-2.137-24.653-5.574-33.436zM412.55 159.67c1.056 2.523 2.026 5.717 2.753 9.54-1.25-3.73-2.27-6.492-2.752-9.54zM471.382 210.628c-5.47 4.825-9.458 11.356-11.79 17.425-3.173-2.525-5.144-8.372 1.956-13.175 4.893-3.31 12.516-12.332 18.107-19.396-1.474 5.89-4.033 11.405-8.273 15.146zM312.455 327.63c4.884-9.712 6.793-24.275 7.928-32.668.52-3.85-.486-9.65-2.107-15.838 3.976-.505 4.523 15.005 5.523 28.505.57 7.706-5.787 15.084-11.345 20z"/></g><g fill="#E6E7E8"><path d="M395.382 302.294c.66.184 1.35.183 2.068.027-1.174 2.527-1.973.75-7.068-3.088-7.167-5.396-1.834-30.938-.834-36.104s11.07-15.44 11.07-15.44l.023.533c-.604 1.813-5.703 7.564-9.26 18.742-4.665 14.666-1.998 33.666 4.002 35.332zM334.257 333.82c-1.208.612-2.428.55-2.875-1.692-1-5-.168-29-.834-34.833s-3.426-29.903-18.546-47.285c3.354 2.148 8.745 8.3 14.976 24.285 10.264 26.333 1.736 54.333 6.404 59 .233.232.535.396.875.525zM377.048 334.628c-1.334 2 21.666 13.667 29.334 13.667 4.945 0 11.413-4.436 15.563-6.96-3.827 3.175-9.108 7.096-12.063 7.293-5 .333-11.834.965-21.168-4.518-9.332-5.482-13.33-8.02-11.666-9.482zM406.337 295.31s0-.002-.002-.002c4.936-5.535 11.297-14.044 20.047-24.68 7.262-8.83 10.44-18.508 11.24-27.896.002.012 2.086 11.57-9.574 27.563-11.666 16-20.256 25.362-21.71 25.014zM481.048 247.688c-6.834 1.273-18.26 3.94-21.88-2.727 0 0 0-.003-.002-.005 3.036 3.712 7.962 3.735 21.216 1.673 15-2.333 22-33 23.666-33 0 0-4.833 13.833-7.166 18.333-2.334 4.5-9 14.455-15.834 15.728zM471.382 189.794c-9.834 14.167-13.21 16.34-19.82 12.95h-.004c.77.255 1.496.445 2.156.55 8.334 1.333 16.668-10.667 20-22.667 3.334-12-4.666-28-3-30.333 0 0 10.5 25.333.668 39.5zM429.495 181.717v.008s-7.113-12.598-7.78-25.93c-.666-13.334.5-26.667 2-30.334 1.01-2.467 2.273-6.743 3.668-8.108.597-.024.683.66 0 1.942-2.667 5-7.334 20-3.668 44.667 1.008 6.783 3.103 12.703 5.78 17.757z"/></g><g fill="#E8C267"><path d="M395.382 302.294c.66.184 1.35.183 2.068.027-1.174 2.527-1.973.75-7.068-3.088-7.167-5.396-1.834-30.938-.834-36.104s11.07-15.44 11.07-15.44l.023.533c-.604 1.813-5.703 7.564-9.26 18.742-4.665 14.666-1.998 33.666 4.002 35.332zM334.257 333.82c-1.208.612-2.428.55-2.875-1.692-1-5-.168-29-.834-34.833s-3.426-29.903-18.546-47.285c3.354 2.148 8.745 8.3 14.976 24.285 10.264 26.333 1.736 54.333 6.404 59 .233.232.535.396.875.525zM377.048 334.628c-1.334 2 21.666 13.667 29.334 13.667 4.945 0 11.413-4.436 15.563-6.96-3.827 3.175-9.108 7.096-12.063 7.293-5 .333-11.834.965-21.168-4.518-9.332-5.482-13.33-8.02-11.666-9.482zM406.337 295.31s0-.002-.002-.002c4.936-5.535 11.297-14.044 20.047-24.68 7.262-8.83 10.44-18.508 11.24-27.896.002.012 2.086 11.57-9.574 27.563-11.666 16-20.256 25.362-21.71 25.014zM481.048 247.688c-6.834 1.273-18.26 3.94-21.88-2.727 0 0 0-.003-.002-.005 3.036 3.712 7.962 3.735 21.216 1.673 15-2.333 22-33 23.666-33 0 0-4.833 13.833-7.166 18.333-2.334 4.5-9 14.455-15.834 15.728zM471.382 189.794c-9.834 14.167-13.21 16.34-19.82 12.95h-.004c.77.255 1.496.445 2.156.55 8.334 1.333 16.668-10.667 20-22.667 3.334-12-4.666-28-3-30.333 0 0 10.5 25.333.668 39.5zM429.495 181.717v.008s-7.113-12.598-7.78-25.93c-.666-13.334.5-26.667 2-30.334 1.01-2.467 2.273-6.743 3.668-8.108.597-.024.683.66 0 1.942-2.667 5-7.334 20-3.668 44.667 1.008 6.783 3.103 12.703 5.78 17.757z"/></g><path fill="#D4AC57" d="M220.59 359.294s-4-9.333-17.667-10-44.333 5-63.666 5c-7.17 0-13.01-1.65-17.488-3.846-7.595-3.725-11.267-9.02-10.847-10.487.666-2.332 12 8.334 19.666 8.334 7.667 0 30.667-11.667 29.333-13.667s-39-27.667-53.334-44.667c-14.333-17-15.333-20.667-15.333-20.667s-37.667-6-51-27.333c-13.334-21.333-9-28.333-7.334-28.333s8.666 30.667 23.666 33 19.333 2 22.333-3.333-2-22.667-13.334-32.667c-11.333-10-10.667-32.667-9.333-41.333 1.332-8.667 8.333-21.333 10-19 1.666 2.333-6.334 18.333-3 30.333 3.332 12 11.666 24 20 22.667 8.332-1.333 26.333-14.666 30-39.333 3.666-24.666-1-39.666-3.668-44.666-2.667-5 6.333-1 12 19.333s2.667 21.667-1.333 35-9.334 20.333-15.334 35.667-11.334 40.667 5.666 61.333 25 33.333 31 31.667 8.666-20.666 4-35.333c-4.667-14.666-12-20-8.333-19.332 3.666.667 11 8.333 17.666 19.333s4 34.667 10.334 44.334c6.332 9.667 33.666 26.667 38.332 22 4.667-4.667-3.86-32.667 6.403-59s18.263-26 18.596-25c.333 1-13.667 33.334-12 45.667 1.667 12.334 5 38 17 42s7 4.307 8 8.32-21 14.014-21 14.014z"/><g fill="#6E5726"><path d="M197.173 344.128c-8.25-.25-10.75 2.25-14.25 2.5s-8-2.5-8-2.5c-14.25 1.25-33 11.25-40.25 8.75-2.645-.912-5.984-1.056-8.727-.717 3.754 1.284 8.186 2.135 13.31 2.135 19.334 0 50-5.667 63.667-5 9.162.447 13.965 4.78 16.146 7.595 1.223.517 2.426 1.016 3.552 1.452 1.176-.563 2.775-1.344 4.546-2.253-8.745-10.962-21.745-11.712-29.995-11.962zM165.257 311.294c-3.996-6.1-4.41-17.767-5.846-28.313-.874 4.533-1.154 12.38-.987 19.898.25 11.25 10.39 12.606 10.39 12.606-1.486-1.48-2.712-2.9-3.556-4.19zM90.193 269.105c-2.8-5.14-7.197-10.804-13.27-11.728-11.5-1.75-19.34-3.08-26.75-7.5-2.364-1.41-5.332-3.523-8.034-5.237 13.142 17.17 42.172 23.367 48.053 24.465zM104.923 209.294c5.734-14.653 10.855-21.71 14.79-33.943-6.187 14.47-22.952 31.305-25.79 43.527-2.096 9.026 2.146 18.357 5.426 23.853-1.073-12.588 2.137-24.653 5.573-33.436zM124.42 159.67c-1.055 2.523-2.025 5.717-2.752 9.54 1.25-3.73 2.27-6.492 2.752-9.54zM65.59 210.628c5.468 4.825 9.457 11.356 11.79 17.425 3.172-2.525 5.143-8.372-1.957-13.175-4.893-3.31-12.516-12.332-18.107-19.396 1.475 5.89 4.034 11.405 8.273 15.146zM224.517 327.63c-4.884-9.712-6.793-24.275-7.928-32.668-.52-3.85.485-9.65 2.106-15.838-3.976-.505-4.523 15.005-5.523 28.505-.57 7.706 5.785 15.084 11.344 20z"/></g><g fill="#E6E7E8"><path d="M141.59 302.294c-.662.184-1.35.183-2.07.027 1.175 2.527 1.974.75 7.07-3.088 7.166-5.396 1.833-30.938.833-36.104s-11.07-15.44-11.07-15.44l-.023.533c.605 1.813 5.704 7.564 9.26 18.742 4.666 14.666 2 33.666-4 35.332zM202.714 333.82c1.208.612 2.428.55 2.875-1.692 1-5 .167-29 .833-34.833s3.426-29.903 18.546-47.285c-3.355 2.148-8.746 8.3-14.977 24.285-10.264 26.333-1.736 54.333-6.404 59-.233.232-.536.396-.876.525zM159.923 334.628c1.334 2-21.666 13.667-29.334 13.667-4.946 0-11.414-4.436-15.564-6.96 3.827 3.175 9.108 7.096 12.063 7.293 5 .333 11.833.965 21.167-4.518 9.332-5.482 13.33-8.02 11.666-9.482zM130.634 295.31s0-.002.002-.002c-4.936-5.535-11.297-14.044-20.047-24.68-7.263-8.83-10.44-18.508-11.24-27.896-.003.012-2.087 11.57 9.573 27.563 11.666 16 20.256 25.362 21.71 25.014zM55.923 247.688c6.834 1.273 18.26 3.94 21.88-2.727 0 0 0-.003.002-.005-3.036 3.712-7.962 3.735-21.216 1.673-15-2.333-22-33-23.667-33 0 0 4.833 13.833 7.166 18.333 2.333 4.5 9 14.455 15.833 15.728zM65.59 189.794c9.833 14.167 13.21 16.34 19.82 12.95h.003c-.77.255-1.496.445-2.156.55-8.334 1.333-16.668-10.667-20-22.667-3.334-12 4.666-28 3-30.333 0 0-10.5 25.333-.668 39.5zM107.477 181.717v.008s7.113-12.598 7.78-25.93c.666-13.334-.5-26.667-2-30.334-1.01-2.467-2.273-6.743-3.668-8.108-.598-.024-.684.66 0 1.942 2.666 5 7.333 20 3.667 44.667-1.008 6.783-3.103 12.703-5.78 17.757z"/></g><g fill="#E8C267"><path d="M141.59 302.294c-.662.184-1.35.183-2.07.027 1.175 2.527 1.974.75 7.07-3.088 7.166-5.396 1.833-30.938.833-36.104s-11.07-15.44-11.07-15.44l-.023.533c.605 1.813 5.704 7.564 9.26 18.742 4.666 14.666 2 33.666-4 35.332zM202.714 333.82c1.208.612 2.428.55 2.875-1.692 1-5 .167-29 .833-34.833s3.426-29.903 18.546-47.285c-3.355 2.148-8.746 8.3-14.977 24.285-10.264 26.333-1.736 54.333-6.404 59-.233.232-.536.396-.876.525zM159.923 334.628c1.334 2-21.666 13.667-29.334 13.667-4.946 0-11.414-4.436-15.564-6.96 3.827 3.175 9.108 7.096 12.063 7.293 5 .333 11.833.965 21.167-4.518 9.332-5.482 13.33-8.02 11.666-9.482zM130.634 295.31s0-.002.002-.002c-4.936-5.535-11.297-14.044-20.047-24.68-7.263-8.83-10.44-18.508-11.24-27.896-.003.012-2.087 11.57 9.573 27.563 11.666 16 20.256 25.362 21.71 25.014zM55.923 247.688c6.834 1.273 18.26 3.94 21.88-2.727 0 0 0-.003.002-.005-3.036 3.712-7.962 3.735-21.216 1.673-15-2.333-22-33-23.667-33 0 0 4.833 13.833 7.166 18.333 2.333 4.5 9 14.455 15.833 15.728zM65.59 189.794c9.833 14.167 13.21 16.34 19.82 12.95h.003c-.77.255-1.496.445-2.156.55-8.334 1.333-16.668-10.667-20-22.667-3.334-12 4.666-28 3-30.333 0 0-10.5 25.333-.668 39.5zM107.477 181.717v.008s7.113-12.598 7.78-25.93c.666-13.334-.5-26.667-2-30.334-1.01-2.467-2.273-6.743-3.668-8.108-.598-.024-.684.66 0 1.942 2.666 5 7.333 20 3.667 44.667-1.008 6.783-3.103 12.703-5.78 17.757z"/></g><g><path fill="#F1F2F2" d="M322.092 376.605c1.298 0 2.438-.197 3.48-.52-1.94-13.657-19.696-26.603-20.483-29.124-.835-2.666-1.835-8-5.835-8s-8.21 7.238-16.236 7.238c-8.028 0-12.265.68-14.68.68s-6.653-.68-14.68-.68c-8.027 0-12.237-7.237-16.237-7.237s-5 5.334-5.834 8c-.787 2.517-18.485 15.424-20.478 29.055 1.045.324 2.18.53 3.477.53 4.987 0 1.637 2.206-3.598 4.08.702 12.996 7.567 19.247 10.098 26.835 2.667 8 .52 18.917 6.208 32.104s20.178 30.678 20.178 37.178-4.428 7.322-4.428 15.635 13.208 19.625 15.75 19.625 7.49-2.04 9.703-2.04 6.838 2.04 9.38 2.04 15.75-11.313 15.75-19.625-4.428-9.135-4.428-15.635 14.49-23.99 20.178-37.178 3.54-24.104 6.208-32.104c2.526-7.577 9.376-13.818 10.095-26.774-5.23-1.874-8.576-4.08-3.59-4.08z"/><path fill="#E6E7E8" d="M239.048 416.753c8.875-2.375 10.75 20.875 11.625 9.625s-12.5-20.75-12.5-20.75c-1.428-1.115-2.5 6.75-4.875 8.625s-7.375-.75-9.663-.125-.212 4.75 5.288 6.875 1.25-1.875 10.125-4.25zM297.62 416.815c-8.876-2.375-10.75 20.875-11.626 9.625s12.5-20.75 12.5-20.75c1.428-1.115 2.5 6.75 4.875 8.625s7.374-.75 9.662-.125.212 4.75-5.288 6.875-1.25-1.875-10.125-4.25zM218.173 365.628s-8-5-22-5-29.25 9.25-41.25 9c-6.746 0-8.23.333-8.334 1.417-.105 1.083.083 1.417 8.333 1.667s21.5 18.833 42.083 18.833c20.584 0 16.25-8.5 23.834-10.167s-2.667-15.75-2.667-15.75zm-19.25 17.584c-7.833 0-23.25-8.084-30.167-8.5-6.916-.417 14.333-6.667 24.833-6.667s12.332 8.5 21 8.5-7.834 6.667-15.667 6.667z"/><path fill="#58595B" d="M214.59 376.545c-8.668 0-10.5-8.5-21-8.5s-31.75 6.25-24.834 6.667c6.917.417 22.334 8.5 30.167 8.5s24.333-6.667 15.666-6.667z"/><path fill="#939598" d="M193.59 368.045c10.5 0 12.332 8.5 21 8.5s-7.834 6.667-15.667 6.667c7.833 0 19.313-.938 19.313-8.52s-14.147-6.647-24.647-6.647zM233.298 414.253c1.62-1.28 2.636-5.35 3.57-7.45-.285-.062-.585-.12-.916-.166-4.223-.588 1.804 5.158-5.03 5.158-6.833 0-7.287-3.667-7.287-3.667-1.975-.948-2.07-.23-2.04 1.127.357 1.485.6 3.056.787 4.716.203.164.427.322.68.477.146-.14.33-.252.573-.318 2.288-.627 7.288 1.998 9.663.123z"/><path fill="#6D6E71" d="M236.716 407.16h.002c.49-1.188.95-1.927 1.455-1.532l.34.25c-.035-.825-.3-1.977-.757-3.417-1.19-3.755-4.333-1.665-9.333-10s-9.252-6.206-13.667-5.665c-1.438.176-2.235.656-2.576 1.334.517 1.89 1.162 3.613 1.872 5.224 2.335 3.065 5.962 6.282 7.204 7.44 2.5 2.335 2.333 0 6.5-.666s6.833 6.167 8.96 7.032z"/><path fill="#D1D3D4" d="M223.635 379.295c-1.965-.048-8.7 3.94-11.87 7.11.294 1.337.646 2.603 1.052 3.795.336-.01.698-.03 1.106-.072 11.53-1.184 19 8.5 29.333 15.5 10.334 7 15.667 89.667 15.667 34s-35.288-60.333-35.288-60.333z"/><path fill="#FFF" d="M223.24 401.792c2.62-.477 4.246-1.602 6.184-.352s2.625 4.434.688 5.154-5.688.783-6.188-.28-1.727-3.87-.685-4.312"/><path fill="#E6E7E8" d="M229.23 431.628c-2.06 5.004 10.943 27.25 18.943 29s6.25-15.75 0-23.5-16.887-10.5-18.944-5.5zM315.842 381.438c7.583 1.667 3.25 10.167 23.834 10.167 20.583 0 33.833-18.583 42.083-18.833s8.437-.583 8.332-1.667c-.104-1.083-1.587-1.417-8.333-1.417-12 .25-27.25-9-41.25-9s-22 5-22 5-10.25 14.083-2.668 15.75zm6.25-4.833c8.668 0 10.5-8.5 21-8.5s31.75 6.25 24.834 6.667c-6.917.417-22.334 8.5-30.167 8.5s-24.334-6.667-15.668-6.667z"/><path fill="#58595B" d="M343.092 368.105c-10.5 0-12.332 8.5-21 8.5-8.666 0 7.834 6.667 15.667 6.667s23.25-8.084 30.166-8.5c6.916-.417-14.334-6.667-24.834-6.667z"/><path fill="#939598" d="M343.092 368.105c-10.5 0-12.332 8.5-21 8.5-8.666 0 7.834 6.667 15.667 6.667-7.834 0-19.314-.938-19.314-8.52s14.146-6.647 24.646-6.647zM303.384 414.313c-1.622-1.28-2.636-5.35-3.57-7.45.285-.062.585-.12.916-.166 4.222-.588-1.804 5.158 5.03 5.158s7.287-3.667 7.287-3.667c1.975-.948 2.07-.23 2.04 1.127-.358 1.485-.6 3.056-.787 4.716-.203.164-.427.322-.68.477-.147-.14-.33-.252-.573-.318-2.288-.627-7.288 1.998-9.663.123z"/><path fill="#6D6E71" d="M299.966 407.22s0 .002-.003.002c-.488-1.19-.95-1.928-1.454-1.533 0 0-.123.086-.34.25.034-.826.3-1.978.756-3.418 1.19-3.756 4.333-1.666 9.333-10s9.25-6.207 13.666-5.666c1.438.176 2.235.656 2.576 1.334-.517 1.89-1.162 3.614-1.873 5.225-2.335 3.065-5.962 6.282-7.204 7.44-2.5 2.335-2.334 0-6.5-.666-4.168-.67-6.834 6.165-8.96 7.03z"/><path fill="#D1D3D4" d="M313.047 379.355c1.965-.048 8.7 3.94 11.87 7.11-.294 1.337-.646 2.603-1.052 3.795-.336-.01-.698-.03-1.106-.072-11.532-1.184-19 8.5-29.334 15.5s-15.667 89.667-15.667 34 35.287-60.333 35.287-60.333z"/><path fill="#FFF" d="M313.444 401.853c-2.622-.477-4.247-1.602-6.185-.352s-2.626 4.435-.69 5.155 5.69.783 6.19-.28 1.726-3.87.684-4.312"/><path fill="#E6E7E8" d="M307.454 431.688c2.057 5.004-10.944 27.25-18.944 29s-6.25-15.75 0-23.5 16.887-10.5 18.944-5.5z"/><path fill="#D1D3D4" d="M297.494 345.846c-5.5 6.784-28.98 3.678-29.098 3.696-.12-.018-23.64 3.088-29.14-3.696-5.946-7.333 2.81 13.333-13.234 16 0 0 40.622 26.946 41.955 48.807.16 2.645.292 3.742.398 3.65.104.092.235-1.006.396-3.65 1.334-21.86 41.956-48.807 41.956-48.807-16.045-2.666-7.287-23.333-13.232-16z"/><ellipse fill="#6D6E71" cx="257.069" cy="502.295" rx="6.354" ry="3"/><ellipse fill="#6D6E71" cx="278.792" cy="502.295" rx="6.354" ry="3"/></g><radialGradient id="h" cx="268.337" cy="149.538" r="99.614" gradientUnits="userSpaceOnUse"><stop offset="0" stop-color="#FFFAC6"/><stop offset="1" stop-color="#D4AC57"/></radialGradient><path fill="url(#h)" stroke="#000" stroke-width="2" stroke-miterlimit="10" d="M288.06 86.674l25.062-55.877h-89.866l24.987 55.71-55.71-24.986V151.386l56.08-25.152-25.06 55.877h27.09l17.694 86.17 17.74-86.17h27.34l-24.985-55.71 55.71 24.986V61.52z"/></g><use xlink:href="#e" overflow="visible" fill="none" stroke="#000" stroke-width="7" stroke-miterlimit="10"/><radialGradient id="i" cx="261.806" cy="575.523" r="180.594" gradientUnits="userSpaceOnUse"><stop offset=".632" stop-color="#FFF"/><stop offset=".705" stop-color="#F4F5F5"/><stop offset=".855" stop-color="#EAEBEB"/><stop offset="1" stop-color="#E6E7E8"/></radialGradient></svg>