<!DOCTYPE svg PUBLIC "-//W3C//DTD SVG 1.1//EN" "http://www.w3.org/Graphics/SVG/1.1/DTD/svg11.dtd" [
	<!ENTITY ns_flows "http://ns.adobe.com/Flows/1.0/">
]><svg xmlns="http://www.w3.org/2000/svg" xmlns:xlink="http://www.w3.org/1999/xlink" width="524" height="659" viewBox="0 -0.5 524 659"><linearGradient id="a" gradientUnits="userSpaceOnUse" x1="37.789" y1="515.304" x2="92.683" y2="536.376"><stop offset="0" stop-color="#8B5E3C"/><stop offset=".497" stop-color="#FDC060"/></linearGradient><linearGradient id="b" gradientUnits="userSpaceOnUse" x1="430.929" y1="536.376" x2="485.824" y2="515.304"><stop offset=".503" stop-color="#FDC060"/><stop offset="1" stop-color="#8B5E3C"/></linearGradient><linearGradient id="c" gradientUnits="userSpaceOnUse" x1="1.5" y1="461.128" x2="107.092" y2="461.128"><stop offset="0" stop-color="#BCBEC0"/><stop offset=".333" stop-color="#E6E7E8"/></linearGradient><linearGradient id="d" gradientUnits="userSpaceOnUse" x1="416.52" y1="461.128" x2="522.112" y2="461.128"><stop offset=".632" stop-color="#E6E7E8"/><stop offset=".687" stop-color="#DBDCDD"/><stop offset=".793" stop-color="#CACBCD"/><stop offset=".898" stop-color="#BFC1C3"/><stop offset="1" stop-color="#BCBEC0"/></linearGradient><defs><path id="e" d="M261.363 3.5H10.343v258.714c0 161.08 140 299 251.713 341 118.286-39 251.714-175.92 251.714-337V3.5H261.363z"/></defs><radialGradient id="f" cx="262.056" cy="303.357" r="276.834" gradientUnits="userSpaceOnUse"><stop offset="0" stop-color="#8DC63F"/><stop offset="1" stop-color="#006838"/></radialGradient><use xlink:href="#e" overflow="visible" fill="url(#f)"/><use xlink:href="#e" overflow="visible" fill="none" stroke="#000" stroke-width="7" stroke-miterlimit="10"/><radialGradient id="g" cx="-47.908" cy="-43.372" r="1" gradientTransform="matrix(45.955 0 0 -45.955 2456.222 -1687.593)" gradientUnits="userSpaceOnUse"><stop offset="0" stop-color="#FFD56D"/><stop offset="1" stop-color="#FBAF41"/></radialGradient><path fill="url(#g)" d="M212.358 334.098c.534-.73.728-4.6-3.94-6.308-2.675-.584-4.9-1.87-6.75-4.75-1.992-2.585-3.597-4.888-4.422-9.082-.675-2.486-.06-4.892 1.874-2.71.737 1.07 1.274 2.15 1.956 3.37 1.897 3.122 4.175 6.295 6.9 8.784 1.563 1.706 3.847 4.98 9.903 3.463 2.867-.536 5.63-3.108 7.232-5.74 1.41-2.73.923-5.748 1.024-8.478-.34-3.366-.344-6.545-2.143-9.275-.485-1.95.423-2.32 1.783-.896 2.334 2.29 2.93 4.065 3.71 6.604.584 4.73.927 9.747.392 14.72 1.166.048 2.408.29 3.577.29 4.572.24 8.502-.488 12.442-1.757 3.696-1.12 5.827-2.044 7.824-3.997 1.8-1.51 3.492-4.23 4.465-6.57.775-2.44.88-4.837 1.464-7.473.437-1.805 2.13-3.472 3.392-.456.353 2.536-.092 4.036-.97 6.718-.532 1.512-3.727 8.86-6.107 12.618 1.306 1.447 6.623.33 8.617-.596 1.604-1.02 3.915-2.43 5.568-3.5 1.458-1.364 2.686-2.824 4.18-5.217 1.557-3.197 2.095-5.543.585-10.862-1.458-5.024-3.694-9.178-5.496-13.91-.194-2.32.466-4.263 3.737-1.526 1.12 2.536 2.29 4.688 3.215 7.37 1.848 3.56 2.867 7.456 4.326 11.066 1.174 3.368 4.252 3.28 6.234-.525 1.75-3.463 2.48-7.895 2.72-11.308.048-6.096.637-10.99 1.367-16.453.91-1.634 1.384-3.887 3.393-.056.977 4.094.95 6.7.494 12.605-1.07 4.586-2.143 8.593-2.53 13.616-1.203 3.786.798 4.75 2.843 3.97 2.382-1.266 3.39-2.672 4.507-4.086 2.432-3.266 3.75-6.35 5.653-9.958 1.18-1.098 2.713-.897 2.12 3.045-1.898 5.168-4.432 9.332-9.44 14.16-2.387 2.07-.89 4.53 2.077 3.62 3.6-.876 5.974-2.584 8.846-3.9 1.12-.634 2.346-1.516 3.283.6-.144 1.755-.733 2.372-4.39 4.265-8.074 2.828-12.945 2.538-21.116 3.416-6.712 1.317-10.794 2.245-17.898 5.757-4.328 1.608-7.015 3.753-12.562 4.827-4.133-.047-11.133-1.416-16.824-1.66-6.808-.486-9.617-.37-17.983 6.115-3.686 2.22-5.69 1.94-5.562-.235l-3.588.287"/><path fill="none" stroke="#010101" stroke-width=".89" d="M212.358 334.098c.534-.73.728-4.6-3.94-6.308-2.675-.584-4.9-1.87-6.75-4.75-1.992-2.585-3.597-4.888-4.422-9.082-.675-2.486-.06-4.892 1.874-2.71.737 1.07 1.274 2.15 1.956 3.37 1.897 3.122 4.175 6.295 6.9 8.784 1.563 1.706 3.847 4.98 9.903 3.463 2.867-.536 5.63-3.108 7.232-5.74 1.41-2.73.923-5.748 1.024-8.478-.34-3.366-.344-6.545-2.143-9.275-.485-1.95.423-2.32 1.783-.896 2.334 2.29 2.93 4.065 3.71 6.604.584 4.73.927 9.747.392 14.72 1.166.048 2.408.29 3.577.29 4.572.24 8.502-.488 12.442-1.757 3.696-1.12 5.827-2.044 7.824-3.997 1.8-1.51 3.492-4.23 4.465-6.57.775-2.44.88-4.837 1.464-7.473.437-1.805 2.13-3.472 3.392-.456.353 2.536-.092 4.036-.97 6.718-.532 1.512-3.727 8.86-6.107 12.618 1.306 1.447 6.623.33 8.617-.596 1.604-1.02 3.915-2.43 5.568-3.5 1.458-1.364 2.686-2.824 4.18-5.217 1.557-3.197 2.095-5.543.585-10.862-1.458-5.024-3.694-9.178-5.496-13.91-.194-2.32.466-4.263 3.737-1.526 1.12 2.536 2.29 4.688 3.215 7.37 1.848 3.56 2.867 7.456 4.326 11.066 1.174 3.368 4.252 3.28 6.234-.525 1.75-3.463 2.48-7.895 2.72-11.308.048-6.096.637-10.99 1.367-16.453.91-1.634 1.384-3.887 3.393-.056.977 4.094.95 6.7.494 12.605-1.07 4.586-2.143 8.593-2.53 13.616-1.203 3.786.798 4.75 2.843 3.97 2.382-1.266 3.39-2.672 4.507-4.086 2.432-3.266 3.75-6.35 5.653-9.958 1.18-1.098 2.713-.897 2.12 3.045-1.898 5.168-4.432 9.332-9.44 14.16-2.387 2.07-.89 4.53 2.077 3.62 3.6-.876 5.974-2.584 8.846-3.9 1.12-.634 2.346-1.516 3.283.6-.144 1.755-.733 2.372-4.39 4.265-8.074 2.828-12.945 2.538-21.116 3.416-6.712 1.317-10.794 2.245-17.898 5.757-4.328 1.608-7.015 3.753-12.562 4.827-4.133-.047-11.133-1.416-16.824-1.66-6.808-.486-9.617-.37-17.983 6.115-3.686 2.22-5.69 1.94-5.562-.235l-3.588.287"/><radialGradient id="h" cx="-47.908" cy="-43.373" r="1" gradientTransform="matrix(34.626 0 0 -34.626 1965.996 -999.776)" gradientUnits="userSpaceOnUse"><stop offset="0" stop-color="#D1D3D4"/><stop offset="1" stop-color="#FFF"/></radialGradient><path fill="url(#h)" d="M322.496 466.998c.393 4.033-.062 9.64 1.29 13.78.292 1.9 2.402 3.733.65 6.66l-6.97 11.988-5.92 10.594-4.682 10.226c-.825 3.806-2.625 6.113-1.75 11.576.63 2.925-.474 2.612-1.736 2.76-2.57-.19-2.214 1.842-2.354 3.12-.387 3.362-.355 5.613-1.96 8.346-.973 2.486-10.856 1.705-9.865-.427 1.336-2.24 2.053-3.218 2.685-5.853 1.02-.38 3.43-.49 1.436-3.662l2.87-7.383 3.847-8.486 5.6-13.403c1.798-5.168 3.35-10.82 4.422-16.286.97-4.194.982-5.745.35-9.842-.826-4.29-1.66-8.243-4.044-12.242-2.177-3.376-3.055-11.78-6.86-11.763 7.51-1.518 16.236 6.586 22.992 10.295v.003zm-2.68 15.366c.157 3.544-.29 4.462-1.794 8.618 1.42-1.188 3.732-5.34 1.793-8.618z"/><path fill="none" stroke="#010101" stroke-width="1.749" d="M322.496 466.998c.393 4.033-.062 9.64 1.29 13.78.292 1.9 2.402 3.733.65 6.66l-6.97 11.988-5.92 10.594-4.682 10.226c-.825 3.806-2.625 6.113-1.75 11.576.63 2.925-.474 2.612-1.736 2.76-2.57-.19-2.214 1.842-2.354 3.12-.387 3.362-.355 5.613-1.96 8.346-.973 2.486-10.856 1.705-9.865-.427 1.336-2.24 2.053-3.218 2.685-5.853 1.02-.38 3.43-.49 1.436-3.662l2.87-7.383 3.847-8.486 5.6-13.403c1.798-5.168 3.35-10.82 4.422-16.286.97-4.194.982-5.745.35-9.842-.826-4.29-1.66-8.243-4.044-12.242-2.177-3.376-3.055-11.78-6.86-11.763 7.51-1.518 16.236 6.586 22.992 10.295v.003zm-2.68 15.366c.157 3.544-.29 4.462-1.794 8.618 1.42-1.188 3.732-5.34 1.793-8.618z"/><radialGradient id="i" cx="-47.907" cy="-43.371" r="1" gradientTransform="matrix(29.75 0 0 -29.75 1617.27 -808.65)" gradientUnits="userSpaceOnUse"><stop offset="0" stop-color="#D1D3D4"/><stop offset="1" stop-color="#FFF"/></radialGradient><path fill="url(#i)" d="M214.535 462.61c-4.946 1.384-11.223 2.36-16.3 2.61-8.32.828-14.052 2.064-18.43 4.89-4.767 5.367-4.644 11.93-3.522 17.833.775 3.12 1.778 6.85 5.38 8.653 2.266.308 1.73.228 1.016 2.792-.535 3.658 1.308 5.287 2.768 5.92.438.242 1.043.297 1.384 1.225.226 4.2.194 7.064-1.263 10.283-.76.906-1.353.045-2.052-.197l-3.57-3.433c-.19-1.71-.043-2.216.225-3.43-.742.025-1.058.84-1.134 2.48-2.903-3.432-5.543-8.405-7.483-12.782-1.024-3.805-.177-7.055-.664-11.006-.24-2.685-1.27-5.346-1.32-8.662l-.158-11.23c.73-3.85 2.526-5.333 7.1-7.966 5.35-3.123 13.48-5.936 18.64-9.4.422-.353 2.88-1.323 5.348-4.996l14.032 16.415z"/><path fill="none" stroke="#010101" stroke-width="1.749" d="M214.535 462.61c-4.946 1.384-11.223 2.36-16.3 2.61-8.32.828-14.052 2.064-18.43 4.89-4.767 5.367-4.644 11.93-3.522 17.833.775 3.12 1.778 6.85 5.38 8.653 2.266.308 1.73.228 1.016 2.792-.535 3.658 1.308 5.287 2.768 5.92.438.242 1.043.297 1.384 1.225.226 4.2.194 7.064-1.263 10.283-.76.906-1.353.045-2.052-.197l-3.57-3.433c-.19-1.71-.043-2.216.225-3.43-.742.025-1.058.84-1.134 2.48-2.903-3.432-5.543-8.405-7.483-12.782-1.024-3.805-.177-7.055-.664-11.006-.24-2.685-1.27-5.346-1.32-8.662l-.158-11.23c.73-3.85 2.526-5.333 7.1-7.966 5.35-3.123 13.48-5.936 18.64-9.4.422-.353 2.88-1.323 5.348-4.996l14.032 16.415z"/><radialGradient id="j" cx="-47.908" cy="-43.372" r="1" gradientTransform="matrix(79.15 0 0 -79.15 4067.252 -2960.58)" gradientUnits="userSpaceOnUse"><stop offset="0" stop-color="#D1D3D4"/><stop offset="1" stop-color="#FFF"/></radialGradient><path fill="url(#j)" d="M199.73 445.947c-.448-2.904-2.316-8.473-3.206-12.677 5.552-1.593 9.177-58.457 45.018-34.573 3.5 4.632 8.336 6.248 14.418 7.32 8.755.878 17.123 2.237 26.317 2.772 7.83 0 15.714.09 23.593.14 8.268.29 14.38 2.296 20.655 6.104 3.113 2 5.847 3.966 8.476 7.138 2.627 3.168 4.582 6.453 5.802 10.6.68 3.122-.23 5.067-1.154 7.703-.516 1.127-1.224 1.852-2.013 2.287.278-3.87-.954-5.563-2.473-6.344 1.274 2.688 1.575 4.668 1.165 6.832 0 3.168.67 7.082 1.253 10.3.777 4.537 2 8.337 4.093 12.337 3.063 5.852 5.38 8.91 9.03 12.617 1.992 1.755 3.713 2.557 3.372 5.53-.582 3.123-.783 5.578-.833 9.43-.435 5.362-.236 10.64-.286 16.005l.242 13.65c.046 3.705-.134 7.518.74 11.272.825 2.925-.455 3.055-1.768 4.177-2.14 2.535-1.166 7.585-3.988 10.95-.803 1.085-4.878 2.063-7.837 2.13-.417-.822.215-2.385.47-2.94-1.06-.185-1.606 1.447-2.04 2.873-1.378-.18-2.088-.724-1.26-1.78l3.81-4.587c.87.183 2.79.028 3.326-.817-.55-.004-1.495.074-1.77-.502.625-.957 1.545-2.275 1.758-3.464.825-3.07 1.026-6.573 1.073-9.744l-.197-20.633c-.388-5.22-.588-10.335-1.707-15.408-1.41-4.78-3.253-9.193-5.832-12.948-2.967-3.658-6.707-6.75-9.92-9.143-10.302-6.51-21.9-7.13-31.183-22.476 8.89 11.53 8.944 10.053-8.998 13.723-5.593 1.17-9.782 1.207-14.745 1.793-3.745.193-7.58.063-11.276.014-6.567 0-12.676.74-19.242.35-1.02-.318-2.264-.623-3.33-.805.586-2.624.66-6.062.158-6.9-.282 1.724-1.212 4.592-1.624 6.722l-3.765 17.434c-1.604 6.05-.562 11.752-.902 17.412-.764 4.73-2.032 5.46-2.633 8.336-.34 3.46-.283 7.557-.04 11.653.095 5.413 1.36 9.797 2.383 14.82.193.926-.015 1.83 1.055 2.952-1.29.9-2.13.507-3.203.995l-.972 9.075c-.974 2.047-2.983 2.28-5.222 3.06-2.07.705-3.827 1.22-5.677.997.137-.394 1-1.703.714-2.59-.73 1.033-1.668 2.588-2.08 2.104-.647-.06-.988-.158-1.644-.81 2.385-2.546 4.008-3.874 5.71-7.826 1.624-.166 3.69-2.73 3.28-2.793-1.09.713-2.18 1.652-2.767 1.46l.842-2.514c1.02-6 2.465-10.78 2.318-17.852.144-7.072-2.58-7.805-1.994-20.34l-.26-6.67c-.29-5.315-.365-10.632-.606-15.95-.29-3.315-.25-4.922-3.363-14.29-.696-1.598-1.895-3.198-1.973-5.137-.768 1.38-.13 3.325.222 4.817-.973-.01-1.866.195-2.768-.625-5.212-2.882-13.373-8.765-14.745-16.766l.008.013zm147.94 38.065c1.822.74 2.318 2.737 2.983 7.068.26-1.753.393-9.103-2.982-7.068z"/><path fill="none" stroke="#010101" stroke-width="1.749" d="M199.73 445.947c-.448-2.904-2.316-8.473-3.206-12.677 5.552-1.593 9.177-58.457 45.018-34.573 3.5 4.632 8.336 6.248 14.418 7.32 8.755.878 17.123 2.237 26.317 2.772 7.83 0 15.714.09 23.593.14 8.268.29 14.38 2.296 20.655 6.104 3.113 2 5.847 3.966 8.476 7.138 2.627 3.168 4.582 6.453 5.802 10.6.68 3.122-.23 5.067-1.154 7.703-.516 1.127-1.224 1.852-2.013 2.287.278-3.87-.954-5.563-2.473-6.344 1.274 2.688 1.575 4.668 1.165 6.832 0 3.168.67 7.082 1.253 10.3.777 4.537 2 8.337 4.093 12.337 3.063 5.852 5.38 8.91 9.03 12.617 1.992 1.755 3.713 2.557 3.372 5.53-.582 3.123-.783 5.578-.833 9.43-.435 5.362-.236 10.64-.286 16.005l.242 13.65c.046 3.705-.134 7.518.74 11.272.825 2.925-.455 3.055-1.768 4.177-2.14 2.535-1.166 7.585-3.988 10.95-.803 1.085-4.878 2.063-7.837 2.13-.417-.822.215-2.385.47-2.94-1.06-.185-1.606 1.447-2.04 2.873-1.378-.18-2.088-.724-1.26-1.78l3.81-4.587c.87.183 2.79.028 3.326-.817-.55-.004-1.495.074-1.77-.502.625-.957 1.545-2.275 1.758-3.464.825-3.07 1.026-6.573 1.073-9.744l-.197-20.633c-.388-5.22-.588-10.335-1.707-15.408-1.41-4.78-3.253-9.193-5.832-12.948-2.967-3.658-6.707-6.75-9.92-9.143-10.302-6.51-21.9-7.13-31.183-22.476 8.89 11.53 8.944 10.053-8.998 13.723-5.593 1.17-9.782 1.207-14.745 1.793-3.745.193-7.58.063-11.276.014-6.567 0-12.676.74-19.242.35-1.02-.318-2.264-.623-3.33-.805.586-2.624.66-6.062.158-6.9-.282 1.724-1.212 4.592-1.624 6.722l-3.765 17.434c-1.604 6.05-.562 11.752-.902 17.412-.764 4.73-2.032 5.46-2.633 8.336-.34 3.46-.283 7.557-.04 11.653.095 5.413 1.36 9.797 2.383 14.82.193.926-.015 1.83 1.055 2.952-1.29.9-2.13.507-3.203.995l-.972 9.075c-.974 2.047-2.983 2.28-5.222 3.06-2.07.705-3.827 1.22-5.677.997.137-.394 1-1.703.714-2.59-.73 1.033-1.668 2.588-2.08 2.104-.647-.06-.988-.158-1.644-.81 2.385-2.546 4.008-3.874 5.71-7.826 1.624-.166 3.69-2.73 3.28-2.793-1.09.713-2.18 1.652-2.767 1.46l.842-2.514c1.02-6 2.465-10.78 2.318-17.852.144-7.072-2.58-7.805-1.994-20.34l-.26-6.67c-.29-5.315-.365-10.632-.606-15.95-.29-3.315-.25-4.922-3.363-14.29-.696-1.598-1.895-3.198-1.973-5.137-.768 1.38-.13 3.325.222 4.817-.973-.01-1.866.195-2.768-.625-5.212-2.882-13.373-8.765-14.745-16.766l.008.013zm147.94 38.065c1.822.74 2.318 2.737 2.983 7.068.26-1.753.393-9.103-2.982-7.068z"/><radialGradient id="k" cx="-47.908" cy="-43.373" r="1" gradientTransform="matrix(5.4 0 0 -5.4 442.1 276.2)" gradientUnits="userSpaceOnUse"><stop offset="0" stop-color="#FFD56D"/><stop offset="1" stop-color="#FBAF41"/></radialGradient><path fill="url(#k)" d="M186.83 506.533c-.34-.928-.945-.982-1.383-1.225-.672-.29-1.417-.81-1.982-1.624-1.773 2.392-3.293 6.073-3.293 6.073-.268 1.214-.414 1.72-.225 3.43l3.57 3.432c.7.24 1.29 1.103 2.05.196 1.458-3.218 1.49-6.082 1.264-10.283z"/><path fill="none" stroke="#010101" stroke-width="1.749" d="M186.83 506.533c-.34-.928-.945-.982-1.383-1.225-.672-.29-1.417-.81-1.982-1.624-1.773 2.392-3.293 6.073-3.293 6.073-.268 1.214-.414 1.72-.225 3.43l3.57 3.432c.7.24 1.29 1.103 2.05.196 1.458-3.218 1.49-6.082 1.264-10.283z"/><radialGradient id="l" cx="-47.907" cy="-43.371" r="1" gradientTransform="matrix(7 0 0 -7 560 240.3)" gradientUnits="userSpaceOnUse"><stop offset="0" stop-color="#FFD56D"/><stop offset="1" stop-color="#FBAF41"/></radialGradient><path fill="url(#l)" d="M221.538 542.593c-1.703 3.952-3.326 5.28-5.71 7.825.654.652.995.752 1.644.812.41.484 1.35-1.07 2.08-2.103.285.886-.578 2.195-.715 2.59 1.85.222 3.607-.293 5.677-.998 2.238-.78 4.248-1.014 5.222-3.06l.972-9.076s-2.322 1.253-5.89 1.216c.407.064-1.657 2.627-3.28 2.793z"/><path fill="none" stroke="#010101" stroke-width="1.749" d="M221.538 542.593c-1.703 3.952-3.326 5.28-5.71 7.825.654.652.995.752 1.644.812.41.484 1.35-1.07 2.08-2.103.285.886-.578 2.195-.715 2.59 1.85.222 3.607-.293 5.677-.998 2.238-.78 4.248-1.014 5.222-3.06l.972-9.076s-2.322 1.253-5.89 1.216c.407.064-1.657 2.627-3.28 2.793z"/><radialGradient id="m" cx="-47.908" cy="-43.372" r="1" gradientTransform="matrix(6.2 0 0 -6.2 591.1 273.6)" gradientUnits="userSpaceOnUse"><stop offset="0" stop-color="#FFD56D"/><stop offset="1" stop-color="#FBAF41"/></radialGradient><path fill="url(#m)" d="M301.475 535.245s-4.352 3.383-7.477 3.34h-.002c-.325.812-1.482.947-2.112 1.182-.632 2.636-1.35 3.612-2.686 5.854-.99 2.133 8.893 2.914 9.865.428 1.604-2.732 1.573-4.983 1.96-8.347.085-.76-.004-1.788.452-2.455z"/><path fill="none" stroke="#010101" stroke-width="1.749" d="M301.475 535.245s-4.352 3.383-7.477 3.34h-.002c-.325.812-1.482.947-2.112 1.182-.632 2.636-1.35 3.612-2.686 5.854-.99 2.133 8.893 2.914 9.865.428 1.604-2.732 1.573-4.983 1.96-8.347.085-.76-.004-1.788.452-2.455z"/><radialGradient id="n" cx="-47.908" cy="-43.373" r="1" gradientTransform="matrix(6.2 0 0 -6.2 643 275.6)" gradientUnits="userSpaceOnUse"><stop offset="0" stop-color="#FFD56D"/><stop offset="1" stop-color="#FBAF41"/></radialGradient><path fill="url(#n)" d="M348.182 549.52c2.14-2.553 2.1-6.073 2.888-8.73-2.367 1.114-5.23 3.003-6.42 3.608-.534.846-2.455 1-3.326.817l-3.81 4.586c-.827 1.06-.117 1.602 1.26 1.782.435-1.426.982-3.058 2.04-2.873-.254.555-.886 2.117-.47 2.94 2.96-.067 7.035-1.045 7.838-2.13z"/><path fill="none" stroke="#010101" stroke-width="1.749" d="M348.182 549.52c2.14-2.553 2.1-6.073 2.888-8.73-2.367 1.114-5.23 3.003-6.42 3.608-.534.846-2.455 1-3.326.817l-3.81 4.586c-.827 1.06-.117 1.602 1.26 1.782.435-1.426.982-3.058 2.04-2.873-.254.555-.886 2.117-.47 2.94 2.96-.067 7.035-1.045 7.838-2.13z"/><radialGradient id="o" cx="-47.908" cy="-43.372" r="1" gradientTransform="matrix(45.5 0 0 -45.5 2387.6 -1589.8)" gradientUnits="userSpaceOnUse"><stop offset="0" stop-color="#D1D3D4"/><stop offset="1" stop-color="#FFF"/></radialGradient><path fill="url(#o)" d="M195.532 435.3c.034-6.01-1.996-11.087 4.484-20.944-4.848 6.08-9.935 4.3-10.88 6.533-1.37-12.18 1.948-10.757 10.155-22.697-6.183 4.3-10.82 4.396-12.66 7.78 3.114-14.026 1.078-17.397 11.073-22.84-2.06.155-10.462 3.056-13.237 6.4-2.724-2.134.064-6.503 1.606-8.728 2.138-2.78 3.752-4.06 6.524-6.79 2.994-3.588 6.056-7.87 8.272-12.59 3.556.71 4.696-.42 4.592-1.97-1.9 1.145-2.86 1.285-3.96.74-1.687-.884-3.376-1.766-5.065-2.65-3.89-1.66-8.135-3.165-13.098-3.115-3.015-.29-6.77.53-8.86.237-1.53 0-1.842-1.767-2.285-3.432 1.633 1.41 5.894 1.865 6.716.135-3.08.365-4.6.128-6.53-1.27-.776-.293-2.11-.022-2.11-1.047-.485-1.56-.206-2.033.182-3.69 1.216-2.342 1.96-3.75 6.855-4.232 8.22-.094 13.656-1.835 19.543-3.64 4.23-1.122 6.676-2.916 13.39-2.524.61-1.352 2.453-1.523 3.794-1.157.292 2.926 2.792 1.89 5.663.654 1.313 1.267 3.393 1.29 4.17 2.9-1.393.966-1.702 1.395-3.167 2.29 1.92.684 2.742-.486 5.595-3.083.344-.148 1.297-.957 1.54-1.152 2.042-1.316 3.575-3.02 8.438-3.657 2.577-.486 5.385-.556 9.715.904-4.036 3.658-5.087 7.242-10.925 9.63-1.687.97-3.664 1.65-5.84 2.128-1.978.337-3.594.674-3.85 1.69 2.98-.632 3.764-.678 4.23.153 1.336 5.973 2.925 12.63 3.543 18.775.73 6.29.632 12.5 1.604 18.742.632 2.924 3.4 12.272 6.37 15.247.256 7.396 3.556 12.79-3.342 22.23-1.04-9.836-4.12-14.822-5.662-14.057-1.54.768.917 13.143-6.613 19.712.78-9.86-3.138-15.52-5.34-14.56s-.607 12.132-11.09 21.193c-.097-15.68.882-13.973-1.825-11.386-3.713 3.55-8.42 9.644-11.713 13.14zm40.12-96.75c-.033-.032 1.017-.896 1.73-.943 3.995-1.964 3.96-3.658.18-2.638-1.915.274-8.698 5.48-10.197 5.944-1.224 1.125 1.632.842 2.134.614-.626.32-1.236.733-2.038.843-2.138.634-1.75-1.51-.775-1.95 3.16-.73 6.71-4.29 10.603-6.096 2.966-1.022 4.572-.047 3.647 1.51-.776 1.462-2.576 1.903-3.987 2.292-.894.467-1.117.714-1.224 1.29-.242-.32-.357-.28-.07-.867h-.005zm-58.553 6.295c.858-.96.837-1.585.054-1.412-1.322.878-2.545 1.698-3.705 2.6-.814-.263-.682.99-.402 1.348-.738.16-.847-.57-.41-1.74 1.654-.682 2.82-1.756 4.28-2.634 2.285-.436 1.262 1.46.18 1.84z"/><path fill="none" stroke="#010101" stroke-width="1.749" d="M195.532 435.3c.034-6.01-1.996-11.087 4.484-20.944-4.848 6.08-9.935 4.3-10.88 6.533-1.37-12.18 1.948-10.757 10.155-22.697-6.183 4.3-10.82 4.396-12.66 7.78 3.114-14.026 1.078-17.397 11.073-22.84-2.06.155-10.462 3.056-13.237 6.4-2.724-2.134.064-6.503 1.606-8.728 2.138-2.78 3.752-4.06 6.524-6.79 2.994-3.588 6.056-7.87 8.272-12.59 3.556.71 4.696-.42 4.592-1.97-1.9 1.145-2.86 1.285-3.96.74-1.687-.884-3.376-1.766-5.065-2.65-3.89-1.66-8.135-3.165-13.098-3.115-3.015-.29-6.77.53-8.86.237-1.53 0-1.842-1.767-2.285-3.432 1.633 1.41 5.894 1.865 6.716.135-3.08.365-4.6.128-6.53-1.27-.776-.293-2.11-.022-2.11-1.047-.485-1.56-.206-2.033.182-3.69 1.216-2.342 1.96-3.75 6.855-4.232 8.22-.094 13.656-1.835 19.543-3.64 4.23-1.122 6.676-2.916 13.39-2.524.61-1.352 2.453-1.523 3.794-1.157.292 2.926 2.792 1.89 5.663.654 1.313 1.267 3.393 1.29 4.17 2.9-1.393.966-1.702 1.395-3.167 2.29 1.92.684 2.742-.486 5.595-3.083.344-.148 1.297-.957 1.54-1.152 2.042-1.316 3.575-3.02 8.438-3.657 2.577-.486 5.385-.556 9.715.904-4.036 3.658-5.087 7.242-10.925 9.63-1.687.97-3.664 1.65-5.84 2.128-1.978.337-3.594.674-3.85 1.69 2.98-.632 3.764-.678 4.23.153 1.336 5.973 2.925 12.63 3.543 18.775.73 6.29.632 12.5 1.604 18.742.632 2.924 3.4 12.272 6.37 15.247.256 7.396 3.556 12.79-3.342 22.23-1.04-9.836-4.12-14.822-5.662-14.057-1.54.768.917 13.143-6.613 19.712.78-9.86-3.138-15.52-5.34-14.56s-.607 12.132-11.09 21.193c-.097-15.68.882-13.973-1.825-11.386-3.713 3.55-8.42 9.644-11.713 13.14zm40.12-96.75c-.033-.032 1.017-.896 1.73-.943 3.995-1.964 3.96-3.658.18-2.638-1.915.274-8.698 5.48-10.197 5.944-1.224 1.125 1.632.842 2.134.614-.626.32-1.236.733-2.038.843-2.138.634-1.75-1.51-.775-1.95 3.16-.73 6.71-4.29 10.603-6.096 2.966-1.022 4.572-.047 3.647 1.51-.776 1.462-2.576 1.903-3.987 2.292-.894.467-1.117.714-1.224 1.29-.242-.32-.357-.28-.07-.867h-.005zm-58.553 6.295c.858-.96.837-1.585.054-1.412-1.322.878-2.545 1.698-3.705 2.6-.814-.263-.682.99-.402 1.348-.738.16-.847-.57-.41-1.74 1.654-.682 2.82-1.756 4.28-2.634 2.285-.436 1.262 1.46.18 1.84z"/><path fill="#FFF" d="M205.2 341.058c.002.79-.61 1.43-1.368 1.43s-1.37-.638-1.372-1.427v-.002c0-.79.612-1.43 1.37-1.43.757 0 1.37.638 1.37 1.427v.003z"/><path fill="none" stroke="#010101" stroke-width=".89" d="M205.2 341.058c.002.79-.61 1.43-1.368 1.43s-1.37-.638-1.372-1.427v-.002c0-.79.612-1.43 1.37-1.43.757 0 1.37.638 1.37 1.427v.003z"/><path fill="none" stroke="#010101" stroke-width="1.749" d="M198.942 343.883c1.318-4.564 1.2-4.64 4.352-4.638 3.15.002 9.567.082 9.567.082s-4.676 1.466-6.948 2.908c-2.274 1.442-1.727 1.747-6.97 1.648z"/><radialGradient id="p" cx="-47.907" cy="-43.372" r="1" gradientTransform="matrix(46 0 0 -46 2320.1 -1942.6)" gradientUnits="userSpaceOnUse"><stop offset="0" stop-color="#FFD56D"/><stop offset="1" stop-color="#FBAF41"/></radialGradient><path fill="url(#p)" d="M76.245 79.094c.534-.73.728-4.6-3.94-6.308-2.675-.584-4.9-1.87-6.75-4.75-1.992-2.585-3.597-4.888-4.422-9.082-.675-2.486-.06-4.892 1.874-2.71.737 1.07 1.274 2.15 1.956 3.37 1.897 3.122 4.175 6.295 6.9 8.784 1.563 1.706 3.847 4.98 9.903 3.463 2.868-.535 5.63-3.107 7.233-5.74 1.408-2.73.922-5.747 1.023-8.477-.34-3.366-.344-6.545-2.143-9.275-.485-1.95.423-2.32 1.783-.896 2.334 2.29 2.93 4.065 3.71 6.604.584 4.73.927 9.747.392 14.72 1.166.048 2.408.29 3.577.29 4.572.24 8.502-.488 12.442-1.757 3.696-1.12 5.827-2.045 7.824-3.998 1.798-1.51 3.49-4.23 4.464-6.57.775-2.44.88-4.837 1.464-7.473.438-1.806 2.132-3.473 3.393-.457.352 2.536-.093 4.036-.97 6.718-.533 1.513-3.728 8.86-6.108 12.62 1.306 1.446 6.623.33 8.617-.597 1.603-1.02 3.914-2.43 5.567-3.5 1.458-1.364 2.686-2.824 4.18-5.217 1.557-3.197 2.095-5.543.585-10.862-1.458-5.024-3.694-9.178-5.496-13.91-.193-2.32.467-4.263 3.738-1.526 1.12 2.536 2.29 4.688 3.215 7.37 1.847 3.56 2.866 7.456 4.325 11.066 1.174 3.368 4.252 3.28 6.234-.525 1.75-3.464 2.478-7.896 2.72-11.31.047-6.095.636-10.988 1.366-16.452.91-1.634 1.385-3.887 3.394-.056.977 4.094.95 6.7.494 12.605-1.07 4.585-2.143 8.592-2.53 13.615-1.203 3.786.798 4.75 2.843 3.97 2.382-1.266 3.39-2.672 4.507-4.086 2.432-3.266 3.75-6.35 5.653-9.958 1.18-1.098 2.713-.897 2.12 3.045-1.898 5.168-4.432 9.332-9.44 14.16-2.387 2.07-.89 4.53 2.077 3.62 3.6-.876 5.974-2.584 8.846-3.9 1.12-.634 2.346-1.516 3.283.6-.144 1.755-.733 2.372-4.39 4.265-8.074 2.828-12.945 2.538-21.116 3.416-6.712 1.317-10.794 2.245-17.898 5.757-4.33 1.61-7.016 3.754-12.563 4.828-4.133-.047-11.133-1.416-16.824-1.66-6.808-.486-9.617-.37-17.983 6.115-3.686 2.22-5.69 1.94-5.562-.235l-3.59.287"/><path fill="none" stroke="#010101" stroke-width=".89" d="M76.245 79.094c.534-.73.728-4.6-3.94-6.308-2.675-.584-4.9-1.87-6.75-4.75-1.992-2.585-3.597-4.888-4.422-9.082-.675-2.486-.06-4.892 1.874-2.71.737 1.07 1.274 2.15 1.956 3.37 1.897 3.122 4.175 6.295 6.9 8.784 1.563 1.706 3.847 4.98 9.903 3.463 2.868-.535 5.63-3.107 7.233-5.74 1.408-2.73.922-5.747 1.023-8.477-.34-3.366-.344-6.545-2.143-9.275-.485-1.95.423-2.32 1.783-.896 2.334 2.29 2.93 4.065 3.71 6.604.584 4.73.927 9.747.392 14.72 1.166.048 2.408.29 3.577.29 4.572.24 8.502-.488 12.442-1.757 3.696-1.12 5.827-2.045 7.824-3.998 1.798-1.51 3.49-4.23 4.464-6.57.775-2.44.88-4.837 1.464-7.473.438-1.806 2.132-3.473 3.393-.457.352 2.536-.093 4.036-.97 6.718-.533 1.513-3.728 8.86-6.108 12.62 1.306 1.446 6.623.33 8.617-.597 1.603-1.02 3.914-2.43 5.567-3.5 1.458-1.364 2.686-2.824 4.18-5.217 1.557-3.197 2.095-5.543.585-10.862-1.458-5.024-3.694-9.178-5.496-13.91-.193-2.32.467-4.263 3.738-1.526 1.12 2.536 2.29 4.688 3.215 7.37 1.847 3.56 2.866 7.456 4.325 11.066 1.174 3.368 4.252 3.28 6.234-.525 1.75-3.464 2.478-7.896 2.72-11.31.047-6.095.636-10.988 1.366-16.452.91-1.634 1.385-3.887 3.394-.056.977 4.094.95 6.7.494 12.605-1.07 4.585-2.143 8.592-2.53 13.615-1.203 3.786.798 4.75 2.843 3.97 2.382-1.266 3.39-2.672 4.507-4.086 2.432-3.266 3.75-6.35 5.653-9.958 1.18-1.098 2.713-.897 2.12 3.045-1.898 5.168-4.432 9.332-9.44 14.16-2.387 2.07-.89 4.53 2.077 3.62 3.6-.876 5.974-2.584 8.846-3.9 1.12-.634 2.346-1.516 3.283.6-.144 1.755-.733 2.372-4.39 4.265-8.074 2.828-12.945 2.538-21.116 3.416-6.712 1.317-10.794 2.245-17.898 5.757-4.33 1.61-7.016 3.754-12.563 4.828-4.133-.047-11.133-1.416-16.824-1.66-6.808-.486-9.617-.37-17.983 6.115-3.686 2.22-5.69 1.94-5.562-.235l-3.59.287"/><radialGradient id="q" cx="-47.907" cy="-43.372" r="1" gradientTransform="matrix(34.6 0 0 -34.6 1829.9 -1254.8)" gradientUnits="userSpaceOnUse"><stop offset="0" stop-color="#D1D3D4"/><stop offset="1" stop-color="#FFF"/></radialGradient><path fill="url(#q)" d="M186.382 211.994c.393 4.033-.062 9.64 1.29 13.78.292 1.9 2.402 3.733.65 6.66l-6.97 11.988-5.92 10.594-4.682 10.226c-.825 3.806-2.625 6.113-1.75 11.576.63 2.925-.474 2.612-1.736 2.76-2.57-.19-2.214 1.842-2.354 3.12-.387 3.362-.355 5.613-1.96 8.346-.973 2.486-10.856 1.705-9.865-.427 1.337-2.242 2.054-3.22 2.686-5.854 1.02-.38 3.43-.49 1.437-3.662l2.87-7.382 3.846-8.486 5.6-13.403c1.798-5.17 3.35-10.82 4.422-16.287.972-4.194.983-5.745.35-9.842-.825-4.29-1.66-8.242-4.043-12.24-2.177-3.377-3.055-11.78-6.86-11.764 7.51-1.518 16.236 6.586 22.992 10.295v.004zm-2.68 15.366c.158 3.544-.29 4.462-1.793 8.618 1.418-1.188 3.73-5.34 1.792-8.618z"/><path fill="none" stroke="#010101" stroke-width="1.749" d="M186.382 211.994c.393 4.033-.062 9.64 1.29 13.78.292 1.9 2.402 3.733.65 6.66l-6.97 11.988-5.92 10.594-4.682 10.226c-.825 3.806-2.625 6.113-1.75 11.576.63 2.925-.474 2.612-1.736 2.76-2.57-.19-2.214 1.842-2.354 3.12-.387 3.362-.355 5.613-1.96 8.346-.973 2.486-10.856 1.705-9.865-.427 1.337-2.242 2.054-3.22 2.686-5.854 1.02-.38 3.43-.49 1.437-3.662l2.87-7.382 3.846-8.486 5.6-13.403c1.798-5.17 3.35-10.82 4.422-16.287.972-4.194.983-5.745.35-9.842-.825-4.29-1.66-8.242-4.043-12.24-2.177-3.377-3.055-11.78-6.86-11.764 7.51-1.518 16.236 6.586 22.992 10.295v.004zm-2.68 15.366c.158 3.544-.29 4.462-1.793 8.618 1.418-1.188 3.73-5.34 1.792-8.618z"/><radialGradient id="r" cx="-47.907" cy="-43.372" r="1" gradientTransform="matrix(29.8 0 0 -29.8 1481.1 -1063.6)" gradientUnits="userSpaceOnUse"><stop offset="0" stop-color="#D1D3D4"/><stop offset="1" stop-color="#FFF"/></radialGradient><path fill="url(#r)" d="M78.42 207.607c-4.945 1.383-11.222 2.358-16.3 2.61-8.32.827-14.05 2.063-18.43 4.89-4.766 5.366-4.643 11.93-3.52 17.832.774 3.118 1.777 6.848 5.378 8.652 2.267.308 1.732.228 1.017 2.792-.534 3.658 1.31 5.287 2.77 5.92.437.242 1.042.297 1.383 1.225.226 4.2.194 7.063-1.263 10.282-.76.906-1.352.045-2.05-.197l-3.57-3.432c-.19-1.71-.044-2.216.224-3.43-.743.025-1.06.84-1.135 2.48-2.902-3.432-5.542-8.405-7.482-12.782-1.024-3.804-.177-7.054-.664-11.005-.242-2.684-1.272-5.345-1.32-8.66l-.16-11.23c.73-3.852 2.527-5.334 7.1-7.967 5.352-3.123 13.482-5.936 18.64-9.4.423-.353 2.882-1.323 5.35-4.996l14.03 16.415z"/><path fill="none" stroke="#010101" stroke-width="1.749" d="M78.42 207.607c-4.945 1.383-11.222 2.358-16.3 2.61-8.32.827-14.05 2.063-18.43 4.89-4.766 5.366-4.643 11.93-3.52 17.832.774 3.118 1.777 6.848 5.378 8.652 2.267.308 1.732.228 1.017 2.792-.534 3.658 1.31 5.287 2.77 5.92.437.242 1.042.297 1.383 1.225.226 4.2.194 7.063-1.263 10.282-.76.906-1.352.045-2.05-.197l-3.57-3.432c-.19-1.71-.044-2.216.224-3.43-.743.025-1.06.84-1.135 2.48-2.902-3.432-5.542-8.405-7.482-12.782-1.024-3.804-.177-7.054-.664-11.005-.242-2.684-1.272-5.345-1.32-8.66l-.16-11.23c.73-3.852 2.527-5.334 7.1-7.967 5.352-3.123 13.482-5.936 18.64-9.4.423-.353 2.882-1.323 5.35-4.996l14.03 16.415z"/><radialGradient id="s" cx="-47.908" cy="-43.372" r="1" gradientTransform="matrix(79.1 0 0 -79.1 3931.1 -3215.6)" gradientUnits="userSpaceOnUse"><stop offset="0" stop-color="#D1D3D4"/><stop offset="1" stop-color="#FFF"/></radialGradient><path fill="url(#s)" d="M63.618 190.943c-.45-2.904-2.317-8.473-3.207-12.677 5.553-1.593 9.178-58.457 45.02-34.573 3.5 4.632 8.335 6.248 14.417 7.32 8.755.878 17.123 2.237 26.317 2.772 7.83 0 15.714.09 23.593.14 8.268.292 14.38 2.297 20.655 6.105 3.113 2 5.847 3.966 8.476 7.138 2.626 3.168 4.58 6.453 5.8 10.6.68 3.122-.228 5.067-1.153 7.703-.516 1.128-1.224 1.853-2.013 2.288.278-3.87-.954-5.563-2.473-6.344 1.273 2.688 1.574 4.668 1.164 6.832 0 3.168.67 7.082 1.253 10.3.777 4.537 2 8.337 4.093 12.337 3.063 5.852 5.38 8.91 9.03 12.617 1.992 1.755 3.713 2.557 3.372 5.53-.582 3.123-.783 5.578-.833 9.43-.436 5.362-.237 10.64-.287 16.005l.242 13.65c.046 3.706-.134 7.52.74 11.273.825 2.925-.455 3.055-1.768 4.177-2.14 2.536-1.166 7.586-3.988 10.952-.804 1.084-4.88 2.062-7.838 2.13-.417-.823.215-2.386.47-2.94-1.06-.186-1.606 1.446-2.04 2.872-1.378-.182-2.088-.725-1.26-1.782l3.81-4.586c.87.183 2.79.028 3.326-.817-.55-.003-1.496.075-1.77-.5.624-.958 1.544-2.276 1.757-3.465.825-3.07 1.026-6.573 1.073-9.744l-.198-20.633c-.388-5.22-.588-10.335-1.707-15.408-1.41-4.78-3.253-9.192-5.832-12.947-2.966-3.658-6.706-6.75-9.92-9.143-10.3-6.51-21.898-7.128-31.182-22.475 8.89 11.53 8.943 10.053-9 13.723-5.592 1.17-9.78 1.207-14.744 1.793-3.745.193-7.58.063-11.276.014-6.568 0-12.677.74-19.243.35-1.02-.318-2.264-.623-3.33-.805.586-2.623.66-6.06.158-6.9-.282 1.725-1.212 4.593-1.624 6.723l-3.766 17.434c-1.604 6.05-.562 11.752-.902 17.412-.764 4.73-2.032 5.46-2.633 8.336-.342 3.46-.284 7.557-.04 11.653.094 5.413 1.36 9.797 2.382 14.82.193.926-.015 1.83 1.055 2.952-1.29.9-2.13.508-3.203.996l-.972 9.076c-.974 2.047-2.983 2.28-5.222 3.06-2.07.705-3.827 1.22-5.677.997.137-.394 1-1.703.714-2.59-.73 1.033-1.668 2.588-2.08 2.104-.647-.06-.988-.16-1.644-.812 2.385-2.545 4.008-3.873 5.71-7.825 1.624-.166 3.69-2.73 3.28-2.793-1.09.712-2.18 1.65-2.767 1.46l.843-2.515c1.02-6 2.464-10.78 2.317-17.852.144-7.072-2.58-7.805-1.994-20.34l-.26-6.67c-.29-5.315-.365-10.632-.606-15.95-.29-3.315-.25-4.922-3.363-14.29-.696-1.598-1.895-3.198-1.973-5.137-.767 1.38-.13 3.325.223 4.817-.973-.01-1.866.195-2.768-.625-5.212-2.88-13.373-8.764-14.745-16.765l.008.013zm147.94 38.065c1.82.74 2.317 2.737 2.982 7.068.258-1.753.393-9.103-2.982-7.068z"/><path fill="none" stroke="#010101" stroke-width="1.749" d="M63.618 190.943c-.45-2.904-2.317-8.473-3.207-12.677 5.553-1.593 9.178-58.457 45.02-34.573 3.5 4.632 8.335 6.248 14.417 7.32 8.755.878 17.123 2.237 26.317 2.772 7.83 0 15.714.09 23.593.14 8.268.292 14.38 2.297 20.655 6.105 3.113 2 5.847 3.966 8.476 7.138 2.626 3.168 4.58 6.453 5.8 10.6.68 3.122-.228 5.067-1.153 7.703-.516 1.128-1.224 1.853-2.013 2.288.278-3.87-.954-5.563-2.473-6.344 1.273 2.688 1.574 4.668 1.164 6.832 0 3.168.67 7.082 1.253 10.3.777 4.537 2 8.337 4.093 12.337 3.063 5.852 5.38 8.91 9.03 12.617 1.992 1.755 3.713 2.557 3.372 5.53-.582 3.123-.783 5.578-.833 9.43-.436 5.362-.237 10.64-.287 16.005l.242 13.65c.046 3.706-.134 7.52.74 11.273.825 2.925-.455 3.055-1.768 4.177-2.14 2.536-1.166 7.586-3.988 10.952-.804 1.084-4.88 2.062-7.838 2.13-.417-.823.215-2.386.47-2.94-1.06-.186-1.606 1.446-2.04 2.872-1.378-.182-2.088-.725-1.26-1.782l3.81-4.586c.87.183 2.79.028 3.326-.817-.55-.003-1.496.075-1.77-.5.624-.958 1.544-2.276 1.757-3.465.825-3.07 1.026-6.573 1.073-9.744l-.198-20.633c-.388-5.22-.588-10.335-1.707-15.408-1.41-4.78-3.253-9.192-5.832-12.947-2.966-3.658-6.706-6.75-9.92-9.143-10.3-6.51-21.898-7.128-31.182-22.475 8.89 11.53 8.943 10.053-9 13.723-5.592 1.17-9.78 1.207-14.744 1.793-3.745.193-7.58.063-11.276.014-6.568 0-12.677.74-19.243.35-1.02-.318-2.264-.623-3.33-.805.586-2.623.66-6.06.158-6.9-.282 1.725-1.212 4.593-1.624 6.723l-3.766 17.434c-1.604 6.05-.562 11.752-.902 17.412-.764 4.73-2.032 5.46-2.633 8.336-.342 3.46-.284 7.557-.04 11.653.094 5.413 1.36 9.797 2.382 14.82.193.926-.015 1.83 1.055 2.952-1.29.9-2.13.508-3.203.996l-.972 9.076c-.974 2.047-2.983 2.28-5.222 3.06-2.07.705-3.827 1.22-5.677.997.137-.394 1-1.703.714-2.59-.73 1.033-1.668 2.588-2.08 2.104-.647-.06-.988-.16-1.644-.812 2.385-2.545 4.008-3.873 5.71-7.825 1.624-.166 3.69-2.73 3.28-2.793-1.09.712-2.18 1.65-2.767 1.46l.843-2.515c1.02-6 2.464-10.78 2.317-17.852.144-7.072-2.58-7.805-1.994-20.34l-.26-6.67c-.29-5.315-.365-10.632-.606-15.95-.29-3.315-.25-4.922-3.363-14.29-.696-1.598-1.895-3.198-1.973-5.137-.767 1.38-.13 3.325.223 4.817-.973-.01-1.866.195-2.768-.625-5.212-2.88-13.373-8.764-14.745-16.765l.008.013zm147.94 38.065c1.82.74 2.317 2.737 2.982 7.068.258-1.753.393-9.103-2.982-7.068z"/><radialGradient id="t" cx="-47.908" cy="-43.372" r="1" gradientTransform="matrix(5.4 0 0 -5.4 306 21.2)" gradientUnits="userSpaceOnUse"><stop offset="0" stop-color="#FFD56D"/><stop offset="1" stop-color="#FBAF41"/></radialGradient><path fill="url(#t)" d="M50.717 251.53c-.34-.93-.946-.983-1.384-1.226-.672-.29-1.417-.81-1.982-1.624-1.772 2.392-3.292 6.073-3.292 6.073-.268 1.214-.414 1.72-.225 3.43l3.57 3.432c.7.242 1.29 1.104 2.05.197 1.46-3.218 1.49-6.082 1.264-10.283z"/><path fill="none" stroke="#010101" stroke-width="1.749" d="M50.717 251.53c-.34-.93-.946-.983-1.384-1.226-.672-.29-1.417-.81-1.982-1.624-1.772 2.392-3.292 6.073-3.292 6.073-.268 1.214-.414 1.72-.225 3.43l3.57 3.432c.7.242 1.29 1.104 2.05.197 1.46-3.218 1.49-6.082 1.264-10.283z"/><radialGradient id="u" cx="-47.908" cy="-43.372" r="1" gradientTransform="matrix(7 0 0 -7 423.9 -14.7)" gradientUnits="userSpaceOnUse"><stop offset="0" stop-color="#FFD56D"/><stop offset="1" stop-color="#FBAF41"/></radialGradient><path fill="url(#u)" d="M85.424 287.59c-1.703 3.95-3.326 5.28-5.71 7.824.654.652.995.752 1.644.812.41.484 1.35-1.07 2.08-2.103.285.886-.578 2.195-.715 2.59 1.85.222 3.607-.293 5.677-.998 2.238-.78 4.248-1.013 5.222-3.06l.972-9.075s-2.322 1.253-5.89 1.216c.408.064-1.657 2.627-3.28 2.793z"/><path fill="none" stroke="#010101" stroke-width="1.749" d="M85.424 287.59c-1.703 3.95-3.326 5.28-5.71 7.824.654.652.995.752 1.644.812.41.484 1.35-1.07 2.08-2.103.285.886-.578 2.195-.715 2.59 1.85.222 3.607-.293 5.677-.998 2.238-.78 4.248-1.013 5.222-3.06l.972-9.075s-2.322 1.253-5.89 1.216c.408.064-1.657 2.627-3.28 2.793z"/><radialGradient id="v" cx="-47.907" cy="-43.372" r="1" gradientTransform="matrix(6.2 0 0 -6.2 455 18.6)" gradientUnits="userSpaceOnUse"><stop offset="0" stop-color="#FFD56D"/><stop offset="1" stop-color="#FBAF41"/></radialGradient><path fill="url(#v)" d="M165.362 280.24s-4.352 3.384-7.477 3.34h-.002c-.325.813-1.482.948-2.112 1.183-.63 2.636-1.348 3.612-2.685 5.854-.99 2.132 8.893 2.913 9.865.427 1.604-2.732 1.573-4.983 1.96-8.347.085-.76-.004-1.79.452-2.456z"/><path fill="none" stroke="#010101" stroke-width="1.749" d="M165.362 280.24s-4.352 3.384-7.477 3.34h-.002c-.325.813-1.482.948-2.112 1.183-.63 2.636-1.348 3.612-2.685 5.854-.99 2.132 8.893 2.913 9.865.427 1.604-2.732 1.573-4.983 1.96-8.347.085-.76-.004-1.79.452-2.456z"/><radialGradient id="w" cx="-47.909" cy="-43.373" r="1" gradientTransform="matrix(6.2 0 0 -6.2 506.9 20.6)" gradientUnits="userSpaceOnUse"><stop offset="0" stop-color="#FFD56D"/><stop offset="1" stop-color="#FBAF41"/></radialGradient><path fill="url(#w)" d="M212.07 294.518c2.14-2.554 2.1-6.074 2.887-8.732-2.367 1.115-5.23 3.004-6.42 3.61-.534.845-2.455 1-3.326.816l-3.81 4.586c-.826 1.058-.116 1.6 1.26 1.78.436-1.425.983-3.057 2.042-2.872-.255.556-.887 2.118-.47 2.94 2.96-.067 7.034-1.044 7.837-2.128z"/><path fill="none" stroke="#010101" stroke-width="1.749" d="M212.07 294.518c2.14-2.554 2.1-6.074 2.887-8.732-2.367 1.115-5.23 3.004-6.42 3.61-.534.845-2.455 1-3.326.816l-3.81 4.586c-.826 1.058-.116 1.6 1.26 1.78.436-1.425.983-3.057 2.042-2.872-.255.556-.887 2.118-.47 2.94 2.96-.067 7.034-1.044 7.837-2.128z"/><radialGradient id="x" cx="-47.908" cy="-43.372" r="1" gradientTransform="matrix(45.5 0 0 -45.5 2251.4 -1844.8)" gradientUnits="userSpaceOnUse"><stop offset="0" stop-color="#D1D3D4"/><stop offset="1" stop-color="#FFF"/></radialGradient><path fill="url(#x)" d="M59.418 180.297c.034-6.01-1.996-11.088 4.484-20.945-4.848 6.08-9.935 4.3-10.88 6.533-1.37-12.18 1.948-10.756 10.155-22.696-6.184 4.3-10.82 4.395-12.66 7.78 3.113-14.027 1.077-17.398 11.072-22.842-2.062.156-10.463 3.057-13.238 6.4-2.724-2.133.064-6.502 1.606-8.727 2.138-2.78 3.752-4.058 6.524-6.788 2.994-3.59 6.056-7.87 8.272-12.59 3.556.71 4.696-.42 4.592-1.97-1.9 1.144-2.86 1.284-3.96.738-1.687-.883-3.376-1.765-5.065-2.65-3.89-1.658-8.134-3.164-13.097-3.114-3.015-.29-6.77.53-8.86.237-1.53 0-1.842-1.767-2.285-3.432 1.633 1.41 5.894 1.866 6.716.136-3.08.365-4.6.128-6.53-1.27-.776-.293-2.11-.022-2.11-1.047-.485-1.562-.206-2.034.182-3.692 1.216-2.34 1.96-3.75 6.855-4.23 8.222-.096 13.657-1.837 19.544-3.642 4.23-1.122 6.676-2.916 13.39-2.524.61-1.352 2.453-1.523 3.794-1.157.292 2.927 2.792 1.89 5.663.655 1.314 1.267 3.394 1.29 4.172 2.9-1.394.966-1.703 1.395-3.168 2.29 1.92.684 2.742-.486 5.595-3.083.343-.15 1.296-.958 1.54-1.153 2.04-1.316 3.574-3.02 8.437-3.657 2.576-.487 5.384-.557 9.714.903-4.035 3.658-5.086 7.242-10.924 9.63-1.687.97-3.664 1.65-5.84 2.128-1.978.337-3.594.674-3.85 1.69 2.98-.632 3.764-.678 4.23.153 1.336 5.974 2.925 12.63 3.543 18.776.728 6.29.63 12.5 1.603 18.742.632 2.924 3.4 12.272 6.37 15.247.256 7.397 3.556 12.79-3.342 22.232-1.04-9.837-4.12-14.823-5.66-14.058-1.54.767.916 13.142-6.614 19.71.78-9.86-3.138-15.52-5.34-14.558s-.607 12.13-11.09 21.192c-.097-15.68.882-13.973-1.825-11.386-3.712 3.55-8.42 9.644-11.712 13.14zm40.12-96.752c-.032-.03 1.018-.895 1.73-.942 3.996-1.964 3.962-3.658.18-2.638-1.914.275-8.697 5.48-10.196 5.945-1.224 1.125 1.632.842 2.134.614-.625.32-1.235.733-2.037.843-2.14.633-1.75-1.512-.776-1.95 3.16-.73 6.71-4.292 10.603-6.097 2.966-1.022 4.572-.047 3.647 1.51-.776 1.462-2.576 1.903-3.987 2.292-.894.467-1.117.714-1.224 1.29-.242-.32-.357-.28-.07-.867h-.005zM40.986 89.84c.86-.96.838-1.584.055-1.41-1.32.877-2.544 1.697-3.704 2.6-.813-.264-.68.99-.4 1.347-.74.16-.848-.572-.41-1.742 1.653-.68 2.82-1.755 4.28-2.633 2.283-.436 1.26 1.46.18 1.84z"/><path fill="none" stroke="#010101" stroke-width="1.749" d="M59.418 180.297c.034-6.01-1.996-11.088 4.484-20.945-4.848 6.08-9.935 4.3-10.88 6.533-1.37-12.18 1.948-10.756 10.155-22.696-6.184 4.3-10.82 4.395-12.66 7.78 3.113-14.027 1.077-17.398 11.072-22.842-2.062.156-10.463 3.057-13.238 6.4-2.724-2.133.064-6.502 1.606-8.727 2.138-2.78 3.752-4.058 6.524-6.788 2.994-3.59 6.056-7.87 8.272-12.59 3.556.71 4.696-.42 4.592-1.97-1.9 1.144-2.86 1.284-3.96.738-1.687-.883-3.376-1.765-5.065-2.65-3.89-1.658-8.134-3.164-13.097-3.114-3.015-.29-6.77.53-8.86.237-1.53 0-1.842-1.767-2.285-3.432 1.633 1.41 5.894 1.866 6.716.136-3.08.365-4.6.128-6.53-1.27-.776-.293-2.11-.022-2.11-1.047-.485-1.562-.206-2.034.182-3.692 1.216-2.34 1.96-3.75 6.855-4.23 8.222-.096 13.657-1.837 19.544-3.642 4.23-1.122 6.676-2.916 13.39-2.524.61-1.352 2.453-1.523 3.794-1.157.292 2.927 2.792 1.89 5.663.655 1.314 1.267 3.394 1.29 4.172 2.9-1.394.966-1.703 1.395-3.168 2.29 1.92.684 2.742-.486 5.595-3.083.343-.15 1.296-.958 1.54-1.153 2.04-1.316 3.574-3.02 8.437-3.657 2.576-.487 5.384-.557 9.714.903-4.035 3.658-5.086 7.242-10.924 9.63-1.687.97-3.664 1.65-5.84 2.128-1.978.337-3.594.674-3.85 1.69 2.98-.632 3.764-.678 4.23.153 1.336 5.974 2.925 12.63 3.543 18.776.728 6.29.63 12.5 1.603 18.742.632 2.924 3.4 12.272 6.37 15.247.256 7.397 3.556 12.79-3.342 22.232-1.04-9.837-4.12-14.823-5.66-14.058-1.54.767.916 13.142-6.614 19.71.78-9.86-3.138-15.52-5.34-14.558s-.607 12.13-11.09 21.192c-.097-15.68.882-13.973-1.825-11.386-3.712 3.55-8.42 9.644-11.712 13.14zm40.12-96.752c-.032-.03 1.018-.895 1.73-.942 3.996-1.964 3.962-3.658.18-2.638-1.914.275-8.697 5.48-10.196 5.945-1.224 1.125 1.632.842 2.134.614-.625.32-1.235.733-2.037.843-2.14.633-1.75-1.512-.776-1.95 3.16-.73 6.71-4.292 10.603-6.097 2.966-1.022 4.572-.047 3.647 1.51-.776 1.462-2.576 1.903-3.987 2.292-.894.467-1.117.714-1.224 1.29-.242-.32-.357-.28-.07-.867h-.005zM40.986 89.84c.86-.96.838-1.584.055-1.41-1.32.877-2.544 1.697-3.704 2.6-.813-.264-.68.99-.4 1.347-.74.16-.848-.572-.41-1.742 1.653-.68 2.82-1.755 4.28-2.633 2.283-.436 1.26 1.46.18 1.84z"/><path fill="#FFF" d="M69.087 86.054c0 .79-.612 1.43-1.37 1.43s-1.37-.638-1.37-1.427v-.003c-.002-.79.61-1.43 1.37-1.43.756 0 1.37.638 1.37 1.427v.004z"/><path fill="none" stroke="#010101" stroke-width=".89" d="M69.087 86.054c0 .79-.612 1.43-1.37 1.43s-1.37-.638-1.37-1.427v-.003c-.002-.79.61-1.43 1.37-1.43.756 0 1.37.638 1.37 1.427v.004z"/><path fill="none" stroke="#010101" stroke-width="1.749" d="M62.83 88.88c1.317-4.565 1.2-4.64 4.35-4.64 3.15.003 9.568.083 9.568.083s-4.677 1.466-6.95 2.908c-2.273 1.443-1.726 1.75-6.97 1.65z"/><radialGradient id="y" cx="-47.907" cy="-43.372" r="1" gradientTransform="matrix(46 0 0 -46 2590.3 -1942.6)" gradientUnits="userSpaceOnUse"><stop offset="0" stop-color="#FFD56D"/><stop offset="1" stop-color="#FBAF41"/></radialGradient><path fill="url(#y)" d="M346.42 79.094c.534-.73.728-4.6-3.94-6.308-2.675-.584-4.9-1.87-6.75-4.75-1.992-2.585-3.597-4.888-4.422-9.082-.675-2.486-.06-4.892 1.874-2.71.737 1.07 1.274 2.15 1.956 3.37 1.897 3.122 4.175 6.295 6.9 8.784 1.563 1.706 3.847 4.98 9.903 3.463 2.87-.535 5.63-3.107 7.234-5.74 1.41-2.73.923-5.747 1.024-8.477-.34-3.366-.344-6.545-2.143-9.275-.485-1.95.423-2.32 1.783-.896 2.334 2.29 2.93 4.065 3.71 6.604.584 4.73.927 9.747.392 14.72 1.166.048 2.408.29 3.577.29 4.572.24 8.502-.488 12.442-1.757 3.695-1.12 5.826-2.045 7.823-3.998 1.798-1.51 3.49-4.23 4.464-6.57.775-2.44.88-4.837 1.464-7.473.44-1.806 2.133-3.473 3.394-.457.353 2.536-.092 4.036-.97 6.718-.532 1.513-3.727 8.86-6.107 12.62 1.306 1.446 6.623.33 8.617-.597 1.604-1.02 3.915-2.43 5.568-3.5 1.458-1.364 2.686-2.824 4.18-5.217 1.557-3.197 2.095-5.543.585-10.862-1.458-5.024-3.694-9.178-5.496-13.91-.192-2.32.468-4.263 3.74-1.526 1.118 2.536 2.29 4.688 3.214 7.37 1.848 3.56 2.867 7.456 4.326 11.066 1.174 3.368 4.252 3.28 6.234-.525 1.75-3.464 2.48-7.896 2.72-11.31.048-6.095.637-10.988 1.367-16.452.912-1.634 1.386-3.887 3.395-.056.977 4.094.95 6.7.494 12.605-1.07 4.585-2.144 8.592-2.532 13.615-1.202 3.786.8 4.75 2.844 3.97 2.382-1.266 3.39-2.672 4.507-4.086 2.43-3.266 3.75-6.35 5.652-9.958 1.18-1.098 2.713-.897 2.12 3.045-1.898 5.168-4.432 9.332-9.44 14.16-2.387 2.07-.89 4.53 2.077 3.62 3.6-.876 5.973-2.584 8.845-3.9 1.12-.634 2.346-1.516 3.283.6-.144 1.755-.733 2.372-4.39 4.265-8.074 2.828-12.945 2.538-21.116 3.416-6.712 1.317-10.794 2.245-17.898 5.757-4.328 1.61-7.015 3.754-12.562 4.828-4.133-.047-11.133-1.416-16.824-1.66-6.808-.486-9.617-.37-17.983 6.115-3.686 2.22-5.69 1.94-5.562-.235l-3.59.287"/><path fill="none" stroke="#010101" stroke-width=".89" d="M346.42 79.094c.534-.73.728-4.6-3.94-6.308-2.675-.584-4.9-1.87-6.75-4.75-1.992-2.585-3.597-4.888-4.422-9.082-.675-2.486-.06-4.892 1.874-2.71.737 1.07 1.274 2.15 1.956 3.37 1.897 3.122 4.175 6.295 6.9 8.784 1.563 1.706 3.847 4.98 9.903 3.463 2.87-.535 5.63-3.107 7.234-5.74 1.41-2.73.923-5.747 1.024-8.477-.34-3.366-.344-6.545-2.143-9.275-.485-1.95.423-2.32 1.783-.896 2.334 2.29 2.93 4.065 3.71 6.604.584 4.73.927 9.747.392 14.72 1.166.048 2.408.29 3.577.29 4.572.24 8.502-.488 12.442-1.757 3.695-1.12 5.826-2.045 7.823-3.998 1.798-1.51 3.49-4.23 4.464-6.57.775-2.44.88-4.837 1.464-7.473.44-1.806 2.133-3.473 3.394-.457.353 2.536-.092 4.036-.97 6.718-.532 1.513-3.727 8.86-6.107 12.62 1.306 1.446 6.623.33 8.617-.597 1.604-1.02 3.915-2.43 5.568-3.5 1.458-1.364 2.686-2.824 4.18-5.217 1.557-3.197 2.095-5.543.585-10.862-1.458-5.024-3.694-9.178-5.496-13.91-.192-2.32.468-4.263 3.74-1.526 1.118 2.536 2.29 4.688 3.214 7.37 1.848 3.56 2.867 7.456 4.326 11.066 1.174 3.368 4.252 3.28 6.234-.525 1.75-3.464 2.48-7.896 2.72-11.31.048-6.095.637-10.988 1.367-16.452.912-1.634 1.386-3.887 3.395-.056.977 4.094.95 6.7.494 12.605-1.07 4.585-2.144 8.592-2.532 13.615-1.202 3.786.8 4.75 2.844 3.97 2.382-1.266 3.39-2.672 4.507-4.086 2.43-3.266 3.75-6.35 5.652-9.958 1.18-1.098 2.713-.897 2.12 3.045-1.898 5.168-4.432 9.332-9.44 14.16-2.387 2.07-.89 4.53 2.077 3.62 3.6-.876 5.973-2.584 8.845-3.9 1.12-.634 2.346-1.516 3.283.6-.144 1.755-.733 2.372-4.39 4.265-8.074 2.828-12.945 2.538-21.116 3.416-6.712 1.317-10.794 2.245-17.898 5.757-4.328 1.61-7.015 3.754-12.562 4.828-4.133-.047-11.133-1.416-16.824-1.66-6.808-.486-9.617-.37-17.983 6.115-3.686 2.22-5.69 1.94-5.562-.235l-3.59.287"/><radialGradient id="z" cx="-47.908" cy="-43.372" r="1" gradientTransform="matrix(34.6 0 0 -34.6 2100 -1254.7)" gradientUnits="userSpaceOnUse"><stop offset="0" stop-color="#D1D3D4"/><stop offset="1" stop-color="#FFF"/></radialGradient><path fill="url(#z)" d="M456.558 211.994c.393 4.033-.062 9.64 1.29 13.78.292 1.9 2.402 3.733.65 6.66l-6.97 11.988-5.92 10.594-4.682 10.226c-.825 3.806-2.625 6.113-1.75 11.576.63 2.925-.474 2.612-1.736 2.76-2.57-.19-2.214 1.842-2.354 3.12-.387 3.362-.355 5.613-1.96 8.346-.973 2.486-10.856 1.705-9.865-.427 1.338-2.242 2.055-3.22 2.687-5.854 1.02-.38 3.43-.49 1.436-3.662l2.87-7.382 3.846-8.486 5.6-13.403c1.797-5.17 3.35-10.82 4.42-16.287.973-4.194.984-5.745.35-9.842-.824-4.29-1.658-8.242-4.042-12.24-2.177-3.377-3.055-11.78-6.86-11.764 7.51-1.518 16.236 6.586 22.992 10.295v.004zm-2.68 15.366c.157 3.544-.29 4.462-1.794 8.618 1.42-1.188 3.733-5.34 1.793-8.618z"/><path fill="none" stroke="#010101" stroke-width="1.749" d="M456.558 211.994c.393 4.033-.062 9.64 1.29 13.78.292 1.9 2.402 3.733.65 6.66l-6.97 11.988-5.92 10.594-4.682 10.226c-.825 3.806-2.625 6.113-1.75 11.576.63 2.925-.474 2.612-1.736 2.76-2.57-.19-2.214 1.842-2.354 3.12-.387 3.362-.355 5.613-1.96 8.346-.973 2.486-10.856 1.705-9.865-.427 1.338-2.242 2.055-3.22 2.687-5.854 1.02-.38 3.43-.49 1.436-3.662l2.87-7.382 3.846-8.486 5.6-13.403c1.797-5.17 3.35-10.82 4.42-16.287.973-4.194.984-5.745.35-9.842-.824-4.29-1.658-8.242-4.042-12.24-2.177-3.377-3.055-11.78-6.86-11.764 7.51-1.518 16.236 6.586 22.992 10.295v.004zm-2.68 15.366c.157 3.544-.29 4.462-1.794 8.618 1.42-1.188 3.733-5.34 1.793-8.618z"/><radialGradient id="A" cx="-47.908" cy="-43.372" r="1" gradientTransform="matrix(29.8 0 0 -29.8 1751.3 -1063.6)" gradientUnits="userSpaceOnUse"><stop offset="0" stop-color="#D1D3D4"/><stop offset="1" stop-color="#FFF"/></radialGradient><path fill="url(#A)" d="M348.597 207.607c-4.946 1.383-11.223 2.358-16.3 2.61-8.32.827-14.052 2.063-18.43 4.89-4.767 5.366-4.644 11.93-3.522 17.832.775 3.118 1.778 6.848 5.38 8.652 2.266.308 1.73.228 1.016 2.792-.533 3.658 1.31 5.287 2.77 5.92.438.242 1.043.297 1.384 1.225.226 4.2.194 7.063-1.263 10.282-.76.906-1.35.045-2.05-.197l-3.57-3.432c-.19-1.71-.043-2.216.225-3.43-.742.025-1.058.84-1.134 2.48-2.9-3.432-5.54-8.405-7.48-12.782-1.025-3.804-.178-7.054-.665-11.005-.24-2.684-1.27-5.345-1.32-8.66l-.158-11.23c.73-3.852 2.526-5.334 7.1-7.967 5.35-3.123 13.48-5.936 18.64-9.4.422-.353 2.88-1.323 5.348-4.996l14.032 16.415z"/><path fill="none" stroke="#010101" stroke-width="1.749" d="M348.597 207.607c-4.946 1.383-11.223 2.358-16.3 2.61-8.32.827-14.052 2.063-18.43 4.89-4.767 5.366-4.644 11.93-3.522 17.832.775 3.118 1.778 6.848 5.38 8.652 2.266.308 1.73.228 1.016 2.792-.533 3.658 1.31 5.287 2.77 5.92.438.242 1.043.297 1.384 1.225.226 4.2.194 7.063-1.263 10.282-.76.906-1.35.045-2.05-.197l-3.57-3.432c-.19-1.71-.043-2.216.225-3.43-.742.025-1.058.84-1.134 2.48-2.9-3.432-5.54-8.405-7.48-12.782-1.025-3.804-.178-7.054-.665-11.005-.24-2.684-1.27-5.345-1.32-8.66l-.158-11.23c.73-3.852 2.526-5.334 7.1-7.967 5.35-3.123 13.48-5.936 18.64-9.4.422-.353 2.88-1.323 5.348-4.996l14.032 16.415z"/><radialGradient id="B" cx="-47.908" cy="-43.372" r="1" gradientTransform="matrix(79.1 0 0 -79.1 4201.3 -3215.6)" gradientUnits="userSpaceOnUse"><stop offset="0" stop-color="#D1D3D4"/><stop offset="1" stop-color="#FFF"/></radialGradient><path fill="url(#B)" d="M333.793 190.943c-.45-2.904-2.317-8.473-3.207-12.677 5.552-1.593 9.177-58.457 45.018-34.573 3.5 4.632 8.336 6.248 14.418 7.32 8.755.878 17.123 2.237 26.317 2.772 7.83 0 15.713.09 23.592.14 8.268.292 14.38 2.297 20.655 6.105 3.113 2 5.847 3.966 8.476 7.138 2.626 3.168 4.58 6.453 5.8 10.6.68 3.122-.228 5.067-1.153 7.703-.516 1.128-1.224 1.853-2.013 2.288.278-3.87-.954-5.563-2.473-6.344 1.274 2.688 1.575 4.668 1.165 6.832 0 3.168.67 7.082 1.252 10.3.777 4.537 2 8.337 4.093 12.337 3.063 5.852 5.38 8.91 9.03 12.617 1.992 1.755 3.713 2.557 3.372 5.53-.582 3.123-.783 5.578-.833 9.43-.435 5.362-.236 10.64-.286 16.005l.242 13.65c.046 3.706-.134 7.52.74 11.273.825 2.925-.455 3.055-1.768 4.177-2.14 2.536-1.166 7.586-3.988 10.952-.803 1.084-4.878 2.062-7.837 2.13-.417-.823.215-2.386.47-2.94-1.06-.186-1.606 1.446-2.04 2.872-1.378-.182-2.088-.725-1.26-1.782l3.81-4.586c.87.183 2.79.028 3.326-.817-.55-.003-1.496.075-1.77-.5.624-.958 1.544-2.276 1.757-3.465.825-3.07 1.026-6.573 1.073-9.744l-.198-20.633c-.388-5.22-.588-10.335-1.707-15.408-1.41-4.78-3.253-9.192-5.832-12.947-2.967-3.658-6.707-6.75-9.92-9.143-10.302-6.51-21.9-7.128-31.183-22.475 8.89 11.53 8.943 10.053-9 13.723-5.592 1.17-9.78 1.207-14.744 1.793-3.746.193-7.58.063-11.277.014-6.568 0-12.677.74-19.243.35-1.02-.318-2.264-.623-3.33-.805.586-2.623.66-6.06.158-6.9-.282 1.725-1.212 4.593-1.624 6.723l-3.765 17.434c-1.605 6.05-.563 11.752-.903 17.412-.764 4.73-2.032 5.46-2.633 8.336-.34 3.46-.283 7.557-.04 11.653.095 5.413 1.36 9.797 2.383 14.82.193.926-.015 1.83 1.055 2.952-1.29.9-2.13.508-3.203.996l-.973 9.076c-.974 2.047-2.983 2.28-5.222 3.06-2.07.705-3.827 1.22-5.677.997.137-.394 1-1.703.714-2.59-.73 1.033-1.668 2.588-2.08 2.104-.647-.06-.988-.16-1.644-.812 2.385-2.545 4.008-3.873 5.71-7.825 1.624-.166 3.69-2.73 3.28-2.793-1.09.712-2.18 1.65-2.767 1.46l.844-2.515c1.02-6 2.465-10.78 2.318-17.852.144-7.072-2.58-7.805-1.994-20.34l-.26-6.67c-.29-5.315-.365-10.632-.606-15.95-.29-3.315-.25-4.922-3.363-14.29-.697-1.598-1.896-3.198-1.974-5.137-.768 1.38-.13 3.325.222 4.817-.973-.01-1.866.195-2.768-.625-5.212-2.88-13.373-8.764-14.745-16.765l.008.013zm147.94 38.065c1.822.74 2.318 2.737 2.983 7.068.258-1.753.393-9.103-2.982-7.068z"/><path fill="none" stroke="#010101" stroke-width="1.749" d="M333.793 190.943c-.45-2.904-2.317-8.473-3.207-12.677 5.552-1.593 9.177-58.457 45.018-34.573 3.5 4.632 8.336 6.248 14.418 7.32 8.755.878 17.123 2.237 26.317 2.772 7.83 0 15.713.09 23.592.14 8.268.292 14.38 2.297 20.655 6.105 3.113 2 5.847 3.966 8.476 7.138 2.626 3.168 4.58 6.453 5.8 10.6.68 3.122-.228 5.067-1.153 7.703-.516 1.128-1.224 1.853-2.013 2.288.278-3.87-.954-5.563-2.473-6.344 1.274 2.688 1.575 4.668 1.165 6.832 0 3.168.67 7.082 1.252 10.3.777 4.537 2 8.337 4.093 12.337 3.063 5.852 5.38 8.91 9.03 12.617 1.992 1.755 3.713 2.557 3.372 5.53-.582 3.123-.783 5.578-.833 9.43-.435 5.362-.236 10.64-.286 16.005l.242 13.65c.046 3.706-.134 7.52.74 11.273.825 2.925-.455 3.055-1.768 4.177-2.14 2.536-1.166 7.586-3.988 10.952-.803 1.084-4.878 2.062-7.837 2.13-.417-.823.215-2.386.47-2.94-1.06-.186-1.606 1.446-2.04 2.872-1.378-.182-2.088-.725-1.26-1.782l3.81-4.586c.87.183 2.79.028 3.326-.817-.55-.003-1.496.075-1.77-.5.624-.958 1.544-2.276 1.757-3.465.825-3.07 1.026-6.573 1.073-9.744l-.198-20.633c-.388-5.22-.588-10.335-1.707-15.408-1.41-4.78-3.253-9.192-5.832-12.947-2.967-3.658-6.707-6.75-9.92-9.143-10.302-6.51-21.9-7.128-31.183-22.475 8.89 11.53 8.943 10.053-9 13.723-5.592 1.17-9.78 1.207-14.744 1.793-3.746.193-7.58.063-11.277.014-6.568 0-12.677.74-19.243.35-1.02-.318-2.264-.623-3.33-.805.586-2.623.66-6.06.158-6.9-.282 1.725-1.212 4.593-1.624 6.723l-3.765 17.434c-1.605 6.05-.563 11.752-.903 17.412-.764 4.73-2.032 5.46-2.633 8.336-.34 3.46-.283 7.557-.04 11.653.095 5.413 1.36 9.797 2.383 14.82.193.926-.015 1.83 1.055 2.952-1.29.9-2.13.508-3.203.996l-.973 9.076c-.974 2.047-2.983 2.28-5.222 3.06-2.07.705-3.827 1.22-5.677.997.137-.394 1-1.703.714-2.59-.73 1.033-1.668 2.588-2.08 2.104-.647-.06-.988-.16-1.644-.812 2.385-2.545 4.008-3.873 5.71-7.825 1.624-.166 3.69-2.73 3.28-2.793-1.09.712-2.18 1.65-2.767 1.46l.844-2.515c1.02-6 2.465-10.78 2.318-17.852.144-7.072-2.58-7.805-1.994-20.34l-.26-6.67c-.29-5.315-.365-10.632-.606-15.95-.29-3.315-.25-4.922-3.363-14.29-.697-1.598-1.896-3.198-1.974-5.137-.768 1.38-.13 3.325.222 4.817-.973-.01-1.866.195-2.768-.625-5.212-2.88-13.373-8.764-14.745-16.765l.008.013zm147.94 38.065c1.822.74 2.318 2.737 2.983 7.068.258-1.753.393-9.103-2.982-7.068z"/><radialGradient id="C" cx="-47.907" cy="-43.372" r="1" gradientTransform="matrix(5.4 0 0 -5.4 576.2 21.2)" gradientUnits="userSpaceOnUse"><stop offset="0" stop-color="#FFD56D"/><stop offset="1" stop-color="#FBAF41"/></radialGradient><path fill="url(#C)" d="M320.893 251.53c-.34-.93-.946-.983-1.384-1.226-.674-.29-1.418-.81-1.983-1.624-1.772 2.392-3.293 6.073-3.293 6.073-.268 1.214-.414 1.72-.225 3.43l3.57 3.432c.698.242 1.29 1.104 2.05.197 1.457-3.218 1.49-6.082 1.263-10.283z"/><path fill="none" stroke="#010101" stroke-width="1.749" d="M320.893 251.53c-.34-.93-.946-.983-1.384-1.226-.674-.29-1.418-.81-1.983-1.624-1.772 2.392-3.293 6.073-3.293 6.073-.268 1.214-.414 1.72-.225 3.43l3.57 3.432c.698.242 1.29 1.104 2.05.197 1.457-3.218 1.49-6.082 1.263-10.283z"/><radialGradient id="D" cx="-47.908" cy="-43.372" r="1" gradientTransform="matrix(7 0 0 -7 694.1 -14.7)" gradientUnits="userSpaceOnUse"><stop offset="0" stop-color="#FFD56D"/><stop offset="1" stop-color="#FBAF41"/></radialGradient><path fill="url(#D)" d="M355.6 287.59c-1.703 3.95-3.326 5.28-5.71 7.824.654.652.995.752 1.644.812.41.484 1.35-1.07 2.08-2.103.285.886-.578 2.195-.715 2.59 1.85.222 3.606-.293 5.676-.998 2.238-.78 4.248-1.013 5.222-3.06l.972-9.075s-2.322 1.253-5.89 1.216c.408.064-1.657 2.627-3.28 2.793z"/><path fill="none" stroke="#010101" stroke-width="1.749" d="M355.6 287.59c-1.703 3.95-3.326 5.28-5.71 7.824.654.652.995.752 1.644.812.41.484 1.35-1.07 2.08-2.103.285.886-.578 2.195-.715 2.59 1.85.222 3.606-.293 5.676-.998 2.238-.78 4.248-1.013 5.222-3.06l.972-9.075s-2.322 1.253-5.89 1.216c.408.064-1.657 2.627-3.28 2.793z"/><radialGradient id="E" cx="-47.907" cy="-43.372" r="1" gradientTransform="matrix(6.2 0 0 -6.2 725.1 18.6)" gradientUnits="userSpaceOnUse"><stop offset="0" stop-color="#FFD56D"/><stop offset="1" stop-color="#FBAF41"/></radialGradient><path fill="url(#E)" d="M435.538 280.24s-4.352 3.384-7.477 3.34c-.326.813-1.483.948-2.113 1.183-.632 2.636-1.35 3.612-2.686 5.854-.99 2.132 8.894 2.913 9.866.427 1.604-2.732 1.573-4.983 1.96-8.347.084-.76-.004-1.79.452-2.456z"/><path fill="none" stroke="#010101" stroke-width="1.749" d="M435.538 280.24s-4.352 3.384-7.477 3.34c-.326.813-1.483.948-2.113 1.183-.632 2.636-1.35 3.612-2.686 5.854-.99 2.132 8.894 2.913 9.866.427 1.604-2.732 1.573-4.983 1.96-8.347.084-.76-.004-1.79.452-2.456z"/><radialGradient id="F" cx="-47.909" cy="-43.373" r="1" gradientTransform="matrix(6.2 0 0 -6.2 777.1 20.6)" gradientUnits="userSpaceOnUse"><stop offset="0" stop-color="#FFD56D"/><stop offset="1" stop-color="#FBAF41"/></radialGradient><path fill="url(#F)" d="M482.245 294.518c2.14-2.554 2.1-6.074 2.888-8.732-2.367 1.115-5.23 3.004-6.42 3.61-.534.845-2.455 1-3.326.816l-3.81 4.586c-.827 1.058-.117 1.6 1.26 1.78.435-1.425.982-3.057 2.04-2.872-.254.556-.886 2.118-.47 2.94 2.96-.067 7.035-1.044 7.838-2.128z"/><path fill="none" stroke="#010101" stroke-width="1.749" d="M482.245 294.518c2.14-2.554 2.1-6.074 2.888-8.732-2.367 1.115-5.23 3.004-6.42 3.61-.534.845-2.455 1-3.326.816l-3.81 4.586c-.827 1.058-.117 1.6 1.26 1.78.435-1.425.982-3.057 2.04-2.872-.254.556-.886 2.118-.47 2.94 2.96-.067 7.035-1.044 7.838-2.128z"/><radialGradient id="G" cx="-47.907" cy="-43.372" r="1" gradientTransform="matrix(45.5 0 0 -45.5 2521.6 -1844.8)" gradientUnits="userSpaceOnUse"><stop offset="0" stop-color="#D1D3D4"/><stop offset="1" stop-color="#FFF"/></radialGradient><path fill="url(#G)" d="M329.594 180.297c.034-6.01-1.996-11.088 4.484-20.945-4.848 6.08-9.935 4.3-10.88 6.533-1.37-12.18 1.948-10.756 10.155-22.696-6.184 4.3-10.82 4.395-12.66 7.78 3.113-14.027 1.077-17.398 11.072-22.842-2.06.156-10.462 3.057-13.237 6.4-2.724-2.133.064-6.502 1.606-8.727 2.138-2.78 3.752-4.058 6.524-6.788 2.994-3.59 6.056-7.87 8.272-12.59 3.556.71 4.696-.42 4.592-1.97-1.9 1.144-2.86 1.284-3.96.738-1.687-.883-3.376-1.765-5.065-2.65-3.89-1.658-8.135-3.164-13.098-3.114-3.016-.29-6.77.53-8.86.237-1.53 0-1.843-1.767-2.286-3.432 1.633 1.41 5.894 1.866 6.716.136-3.08.365-4.6.128-6.53-1.27-.776-.293-2.11-.022-2.11-1.047-.485-1.562-.206-2.034.182-3.692 1.216-2.34 1.96-3.75 6.855-4.23 8.22-.096 13.656-1.837 19.543-3.642 4.23-1.122 6.676-2.916 13.39-2.524.61-1.352 2.453-1.523 3.794-1.157.292 2.927 2.792 1.89 5.663.655 1.313 1.267 3.393 1.29 4.17 2.9-1.393.966-1.702 1.395-3.167 2.29 1.92.684 2.742-.486 5.595-3.083.344-.15 1.297-.958 1.54-1.153 2.042-1.316 3.575-3.02 8.438-3.657 2.576-.487 5.384-.557 9.714.903-4.036 3.658-5.087 7.242-10.925 9.63-1.687.97-3.664 1.65-5.84 2.128-1.978.337-3.594.674-3.85 1.69 2.98-.632 3.764-.678 4.23.153 1.336 5.974 2.925 12.63 3.543 18.776.73 6.29.632 12.5 1.604 18.742.63 2.924 3.398 12.272 6.368 15.247.257 7.397 3.557 12.79-3.34 22.232-1.04-9.837-4.122-14.823-5.663-14.058-1.54.767.917 13.142-6.613 19.71.78-9.86-3.138-15.52-5.34-14.558s-.607 12.13-11.09 21.192c-.097-15.68.882-13.973-1.825-11.386-3.713 3.55-8.42 9.644-11.713 13.14zm40.12-96.752c-.033-.03 1.017-.895 1.73-.942 3.995-1.964 3.96-3.658.18-2.638-1.915.275-8.698 5.48-10.197 5.945-1.224 1.125 1.632.842 2.134.614-.624.32-1.234.733-2.036.843-2.138.633-1.75-1.512-.775-1.95 3.16-.73 6.71-4.292 10.602-6.097 2.966-1.022 4.572-.047 3.647 1.51-.777 1.462-2.577 1.903-3.988 2.292-.894.467-1.117.714-1.224 1.29-.242-.32-.357-.28-.07-.867h-.005zM311.16 89.84c.86-.96.838-1.584.055-1.41-1.322.877-2.545 1.697-3.705 2.6-.813-.264-.68.99-.4 1.347-.74.16-.848-.572-.41-1.742 1.653-.68 2.82-1.755 4.28-2.633 2.283-.436 1.26 1.46.18 1.84z"/><path fill="none" stroke="#010101" stroke-width="1.749" d="M329.594 180.297c.034-6.01-1.996-11.088 4.484-20.945-4.848 6.08-9.935 4.3-10.88 6.533-1.37-12.18 1.948-10.756 10.155-22.696-6.184 4.3-10.82 4.395-12.66 7.78 3.113-14.027 1.077-17.398 11.072-22.842-2.06.156-10.462 3.057-13.237 6.4-2.724-2.133.064-6.502 1.606-8.727 2.138-2.78 3.752-4.058 6.524-6.788 2.994-3.59 6.056-7.87 8.272-12.59 3.556.71 4.696-.42 4.592-1.97-1.9 1.144-2.86 1.284-3.96.738-1.687-.883-3.376-1.765-5.065-2.65-3.89-1.658-8.135-3.164-13.098-3.114-3.016-.29-6.77.53-8.86.237-1.53 0-1.843-1.767-2.286-3.432 1.633 1.41 5.894 1.866 6.716.136-3.08.365-4.6.128-6.53-1.27-.776-.293-2.11-.022-2.11-1.047-.485-1.562-.206-2.034.182-3.692 1.216-2.34 1.96-3.75 6.855-4.23 8.22-.096 13.656-1.837 19.543-3.642 4.23-1.122 6.676-2.916 13.39-2.524.61-1.352 2.453-1.523 3.794-1.157.292 2.927 2.792 1.89 5.663.655 1.313 1.267 3.393 1.29 4.17 2.9-1.393.966-1.702 1.395-3.167 2.29 1.92.684 2.742-.486 5.595-3.083.344-.15 1.297-.958 1.54-1.153 2.042-1.316 3.575-3.02 8.438-3.657 2.576-.487 5.384-.557 9.714.903-4.036 3.658-5.087 7.242-10.925 9.63-1.687.97-3.664 1.65-5.84 2.128-1.978.337-3.594.674-3.85 1.69 2.98-.632 3.764-.678 4.23.153 1.336 5.974 2.925 12.63 3.543 18.776.73 6.29.632 12.5 1.604 18.742.63 2.924 3.398 12.272 6.368 15.247.257 7.397 3.557 12.79-3.34 22.232-1.04-9.837-4.122-14.823-5.663-14.058-1.54.767.917 13.142-6.613 19.71.78-9.86-3.138-15.52-5.34-14.558s-.607 12.13-11.09 21.192c-.097-15.68.882-13.973-1.825-11.386-3.713 3.55-8.42 9.644-11.713 13.14zm40.12-96.752c-.033-.03 1.017-.895 1.73-.942 3.995-1.964 3.96-3.658.18-2.638-1.915.275-8.698 5.48-10.197 5.945-1.224 1.125 1.632.842 2.134.614-.624.32-1.234.733-2.036.843-2.138.633-1.75-1.512-.775-1.95 3.16-.73 6.71-4.292 10.602-6.097 2.966-1.022 4.572-.047 3.647 1.51-.777 1.462-2.577 1.903-3.988 2.292-.894.467-1.117.714-1.224 1.29-.242-.32-.357-.28-.07-.867h-.005zM311.16 89.84c.86-.96.838-1.584.055-1.41-1.322.877-2.545 1.697-3.705 2.6-.813-.264-.68.99-.4 1.347-.74.16-.848-.572-.41-1.742 1.653-.68 2.82-1.755 4.28-2.633 2.283-.436 1.26 1.46.18 1.84z"/><path fill="#FFF" d="M339.263 86.054c0 .79-.612 1.43-1.37 1.43s-1.37-.638-1.37-1.427v-.003c-.002-.79.61-1.43 1.37-1.43.756 0 1.37.638 1.37 1.427v.004z"/><path fill="none" stroke="#010101" stroke-width=".89" d="M339.263 86.054c0 .79-.612 1.43-1.37 1.43s-1.37-.638-1.37-1.427v-.003c-.002-.79.61-1.43 1.37-1.43.756 0 1.37.638 1.37 1.427v.004z"/><path fill="none" stroke="#010101" stroke-width="1.749" d="M333.004 88.88c1.318-4.565 1.2-4.64 4.352-4.64 3.15.003 9.567.083 9.567.083s-4.677 1.466-6.95 2.908c-2.272 1.443-1.725 1.75-6.97 1.65z"/><radialGradient id="H" cx="261.806" cy="575.523" r="180.594" gradientUnits="userSpaceOnUse"><stop offset=".632" stop-color="#FFF"/><stop offset=".705" stop-color="#F4F5F5"/><stop offset=".855" stop-color="#EAEBEB"/><stop offset="1" stop-color="#E6E7E8"/></radialGradient></svg>