<?xml version="1.0" encoding="utf-8"?>
<!-- Generator: Adobe Illustrator 15.0.0, SVG Export Plug-In  -->
<!DOCTYPE svg PUBLIC "-//W3C//DTD SVG 1.1//EN" "http://www.w3.org/Graphics/SVG/1.1/DTD/svg11.dtd" [
	<!ENTITY ns_flows "http://ns.adobe.com/Flows/1.0/">
]>
<svg version="1.1"
	 xmlns="http://www.w3.org/2000/svg" xmlns:xlink="http://www.w3.org/1999/xlink" xmlns:a="http://ns.adobe.com/AdobeSVGViewerExtensions/3.0/"
	 x="0px" y="0px" width="524px" height="659px" viewBox="0 -0.5 524 659" enable-background="new 0 -0.5 524 659"
	 xml:space="preserve">
<defs>
</defs>
<linearGradient id="SVGID_3_" gradientUnits="userSpaceOnUse" x1="37.7886" y1="515.3037" x2="92.6829" y2="536.3757">
	<stop  offset="0" style="stop-color:#8B5E3C"/>
	<stop  offset="0.497" style="stop-color:#FDC060"/>
</linearGradient>
<path display="none" fill="url(#SVGID_3_)" stroke="#000000" stroke-width="3" stroke-miterlimit="10" d="M109.092,493.628l-72,70
	c0,0-13.53,0.171-11-15c2.529-15.171,23-55,23-55s1-8,21-9S109.092,493.628,109.092,493.628z"/>
<linearGradient id="SVGID_4_" gradientUnits="userSpaceOnUse" x1="430.9292" y1="536.376" x2="485.8235" y2="515.304">
	<stop  offset="0.503" style="stop-color:#FDC060"/>
	<stop  offset="1" style="stop-color:#8B5E3C"/>
</linearGradient>
<path display="none" fill="url(#SVGID_4_)" stroke="#000000" stroke-width="3" stroke-miterlimit="10" d="M414.52,493.628l72,70
	c0,0,13.529,0.171,11-15s-23-55-23-55s-1-8-21-9S414.52,493.628,414.52,493.628z"/>
<linearGradient id="SVGID_5_" gradientUnits="userSpaceOnUse" x1="1.5" y1="461.1279" x2="107.0923" y2="461.1279">
	<stop  offset="0" style="stop-color:#BCBEC0"/>
	<stop  offset="0.3333" style="stop-color:#E6E7E8"/>
</linearGradient>
<path display="none" fill="url(#SVGID_5_)" stroke="#000000" stroke-width="3" stroke-miterlimit="10" d="M2.092,456.628
	c0-18,7.316-28,35-28s51,8,51,8l19,57c0,0-71.883-16.141-90.941-9.07S2.092,456.628,2.092,456.628z"/>
<linearGradient id="SVGID_6_" gradientUnits="userSpaceOnUse" x1="416.52" y1="461.1279" x2="522.1118" y2="461.1279">
	<stop  offset="0.6316" style="stop-color:#E6E7E8"/>
	<stop  offset="0.6867" style="stop-color:#DBDCDD"/>
	<stop  offset="0.7932" style="stop-color:#CACBCD"/>
	<stop  offset="0.8984" style="stop-color:#BFC1C3"/>
	<stop  offset="1" style="stop-color:#BCBEC0"/>
</linearGradient>
<path display="none" fill="url(#SVGID_6_)" stroke="#000000" stroke-width="3" stroke-miterlimit="10" d="M521.52,456.628
	c0-18-7.316-28-35-28s-51,8-51,8l-19,57c0,0,71.883-16.141,90.941-9.07S521.52,456.628,521.52,456.628z"/>
<path display="none" fill="#FBB040" stroke="#000000" stroke-width="3" stroke-miterlimit="10" d="M2.092,456.628c0,0,8,6,23,6
	c9.731,10.067,11,32,11,58.345c-25-1.345-34-19.345-34-48.345S2.092,456.628,2.092,456.628z"/>
<path display="none" fill="#FBB040" stroke="#000000" stroke-width="3" stroke-miterlimit="10" d="M521.52,456.628c0,0-8,6-23,6
	c-9.731,10.067-11,32-11,58.345c25-1.345,34-19.345,34-48.345S521.52,456.628,521.52,456.628z"/>
<g>
	<defs>
		<path id="SVGID_2_" d="M261.363,3.5H10.342c0,0,0,138.937,0,258.714c0,161.081,140,299,251.714,341
			c118.286-39,251.714-175.92,251.714-337c0-119.778,0-262.714,0-262.714H261.363z"/>
	</defs>
	<radialGradient id="SVGID_7_" cx="262.0562" cy="303.3569" r="276.8339" gradientUnits="userSpaceOnUse">
		<stop  offset="0" style="stop-color:#8DC63F"/>
		<stop  offset="1" style="stop-color:#006838"/>
	</radialGradient>
	<use xlink:href="#SVGID_2_"  overflow="visible" fill="url(#SVGID_7_)"/>
	<clipPath id="SVGID_8_">
		<use xlink:href="#SVGID_2_"  overflow="visible"/>
	</clipPath>
	<use xlink:href="#SVGID_2_"  overflow="visible" fill="none" stroke="#000000" stroke-width="7" stroke-miterlimit="10"/>
</g>
<radialGradient id="SVGID_9_" cx="-47.9077" cy="-43.3721" r="1.0001" gradientTransform="matrix(45.9548 0 0 -45.9548 2456.2222 -1687.5928)" gradientUnits="userSpaceOnUse">
	<stop  offset="0" style="stop-color:#FFD56D"/>
	<stop  offset="1" style="stop-color:#FBAF41"/>
</radialGradient>
<path fill="url(#SVGID_9_)" d="M212.358,334.098c0.534-0.73,0.728-4.6-3.939-6.308c-2.676-0.584-4.901-1.869-6.75-4.749
	c-1.993-2.586-3.598-4.889-4.423-9.083c-0.675-2.486-0.059-4.892,1.874-2.709c0.737,1.07,1.274,2.149,1.956,3.369
	c1.897,3.122,4.175,6.295,6.9,8.784c1.563,1.706,3.847,4.981,9.903,3.463c2.868-0.536,5.63-3.108,7.233-5.74
	c1.409-2.73,0.923-5.748,1.024-8.478c-0.339-3.366-0.344-6.545-2.143-9.275c-0.485-1.95,0.423-2.32,1.783-0.896
	c2.334,2.291,2.931,4.065,3.711,6.604c0.583,4.73,0.926,9.747,0.391,14.721c1.166,0.047,2.408,0.288,3.577,0.288
	c4.572,0.241,8.502-0.487,12.442-1.756c3.696-1.12,5.827-2.044,7.824-3.997c1.798-1.511,3.491-4.229,4.464-6.57
	c0.775-2.439,0.88-4.837,1.464-7.473c0.438-1.805,2.132-3.472,3.393-0.456c0.353,2.536-0.092,4.036-0.969,6.718
	c-0.533,1.512-3.728,8.86-6.108,12.618c1.306,1.447,6.623,0.33,8.617-0.596c1.604-1.021,3.915-2.429,5.568-3.5
	c1.458-1.364,2.686-2.824,4.181-5.217c1.556-3.197,2.094-5.543,0.584-10.862c-1.458-5.024-3.694-9.178-5.496-13.91
	c-0.193-2.32,0.467-4.263,3.738-1.526c1.119,2.536,2.29,4.688,3.215,7.37c1.848,3.561,2.867,7.456,4.326,11.066
	c1.174,3.368,4.252,3.281,6.234-0.525c1.75-3.463,2.479-7.895,2.72-11.308c0.048-6.096,0.637-10.989,1.367-16.453
	c0.911-1.634,1.385-3.887,3.394-0.056c0.977,4.094,0.95,6.701,0.494,12.605c-1.069,4.585-2.143,8.592-2.531,13.615
	c-1.202,3.786,0.799,4.751,2.844,3.971c2.382-1.267,3.39-2.673,4.507-4.087c2.432-3.266,3.751-6.35,5.653-9.958
	c1.18-1.098,2.713-0.897,2.119,3.045c-1.897,5.168-4.431,9.332-9.44,14.161c-2.386,2.069-0.89,4.528,2.078,3.62
	c3.6-0.877,5.974-2.585,8.846-3.901c1.119-0.634,2.346-1.516,3.283,0.6c-0.144,1.755-0.733,2.372-4.39,4.265
	c-8.074,2.828-12.945,2.538-21.116,3.416c-6.712,1.317-10.794,2.245-17.898,5.757c-4.328,1.608-7.015,3.753-12.562,4.827
	c-4.133-0.047-11.133-1.416-16.824-1.66c-6.808-0.486-9.617-0.37-17.983,6.115c-3.686,2.22-5.689,1.94-5.562-0.235l-3.589,0.287"/>
<path fill="none" stroke="#010101" stroke-width="0.8905" d="M212.358,334.098c0.534-0.73,0.728-4.6-3.939-6.308
	c-2.676-0.584-4.901-1.869-6.75-4.749c-1.993-2.586-3.598-4.889-4.423-9.083c-0.675-2.486-0.059-4.892,1.874-2.709
	c0.737,1.07,1.274,2.149,1.956,3.369c1.897,3.122,4.175,6.295,6.9,8.784c1.563,1.706,3.847,4.981,9.903,3.463
	c2.868-0.536,5.63-3.108,7.233-5.74c1.409-2.73,0.923-5.748,1.024-8.478c-0.339-3.366-0.344-6.545-2.143-9.275
	c-0.485-1.95,0.423-2.32,1.783-0.896c2.334,2.291,2.931,4.065,3.711,6.604c0.583,4.73,0.926,9.747,0.391,14.721
	c1.166,0.047,2.408,0.288,3.577,0.288c4.572,0.241,8.502-0.487,12.442-1.756c3.696-1.12,5.827-2.044,7.824-3.997
	c1.798-1.511,3.491-4.229,4.464-6.57c0.775-2.439,0.88-4.837,1.464-7.473c0.438-1.805,2.132-3.472,3.393-0.456
	c0.353,2.536-0.092,4.036-0.969,6.718c-0.533,1.512-3.728,8.86-6.108,12.618c1.306,1.447,6.623,0.33,8.617-0.596
	c1.604-1.021,3.915-2.429,5.568-3.5c1.458-1.364,2.686-2.824,4.181-5.217c1.556-3.197,2.094-5.543,0.584-10.862
	c-1.458-5.024-3.694-9.178-5.496-13.91c-0.193-2.32,0.467-4.263,3.738-1.526c1.119,2.536,2.29,4.688,3.215,7.37
	c1.848,3.561,2.867,7.456,4.326,11.066c1.174,3.368,4.252,3.281,6.234-0.525c1.75-3.463,2.479-7.895,2.72-11.308
	c0.048-6.096,0.637-10.989,1.367-16.453c0.911-1.634,1.385-3.887,3.394-0.056c0.977,4.094,0.95,6.701,0.494,12.605
	c-1.069,4.585-2.143,8.592-2.531,13.615c-1.202,3.786,0.799,4.751,2.844,3.971c2.382-1.267,3.39-2.673,4.507-4.087
	c2.432-3.266,3.751-6.35,5.653-9.958c1.18-1.098,2.713-0.897,2.119,3.045c-1.897,5.168-4.431,9.332-9.44,14.161
	c-2.386,2.069-0.89,4.528,2.078,3.62c3.6-0.877,5.974-2.585,8.846-3.901c1.119-0.634,2.346-1.516,3.283,0.6
	c-0.144,1.755-0.733,2.372-4.39,4.265c-8.074,2.828-12.945,2.538-21.116,3.416c-6.712,1.317-10.794,2.245-17.898,5.757
	c-4.328,1.608-7.015,3.753-12.562,4.827c-4.133-0.047-11.133-1.416-16.824-1.66c-6.808-0.486-9.617-0.37-17.983,6.115
	c-3.686,2.22-5.689,1.94-5.562-0.235l-3.589,0.287"/>
<radialGradient id="SVGID_10_" cx="-47.9077" cy="-43.3726" r="1.0001" gradientTransform="matrix(34.6263 0 0 -34.6263 1965.9963 -999.7764)" gradientUnits="userSpaceOnUse">
	<stop  offset="0" style="stop-color:#D1D3D4"/>
	<stop  offset="1" style="stop-color:#FFFFFF"/>
</radialGradient>
<path fill="url(#SVGID_10_)" d="M322.496,466.998c0.393,4.033-0.062,9.639,1.291,13.779c0.291,1.9,2.401,3.734,0.648,6.661
	l-6.968,11.988l-5.921,10.594l-4.682,10.226c-0.825,3.806-2.625,6.113-1.75,11.576c0.631,2.925-0.474,2.612-1.736,2.759
	c-2.571-0.189-2.214,1.843-2.354,3.12c-0.387,3.363-0.355,5.614-1.96,8.347c-0.973,2.486-10.856,1.705-9.865-0.427
	c1.337-2.242,2.054-3.219,2.686-5.854c1.02-0.38,3.43-0.491,1.436-3.662l2.869-7.383l3.847-8.486l5.6-13.403
	c1.798-5.168,3.35-10.82,4.422-16.286c0.972-4.194,0.983-5.745,0.35-9.842c-0.825-4.291-1.659-8.243-4.043-12.242
	c-2.177-3.376-3.055-11.78-6.86-11.763c7.509-1.518,16.236,6.586,22.992,10.295V466.998z M319.815,482.364
	c0.158,3.544-0.289,4.462-1.793,8.618C319.441,489.794,321.754,485.641,319.815,482.364z"/>
<path fill="none" stroke="#010101" stroke-width="1.7487" d="M322.496,466.998c0.393,4.033-0.062,9.639,1.291,13.779
	c0.291,1.9,2.401,3.734,0.648,6.661l-6.968,11.988l-5.921,10.594l-4.682,10.226c-0.825,3.806-2.625,6.113-1.75,11.576
	c0.631,2.925-0.474,2.612-1.736,2.759c-2.571-0.189-2.214,1.843-2.354,3.12c-0.387,3.363-0.355,5.614-1.96,8.347
	c-0.973,2.486-10.856,1.705-9.865-0.427c1.337-2.242,2.054-3.219,2.686-5.854c1.02-0.38,3.43-0.491,1.436-3.662l2.869-7.383
	l3.847-8.486l5.6-13.403c1.798-5.168,3.35-10.82,4.422-16.286c0.972-4.194,0.983-5.745,0.35-9.842
	c-0.825-4.291-1.659-8.243-4.043-12.242c-2.177-3.376-3.055-11.78-6.86-11.763c7.509-1.518,16.236,6.586,22.992,10.295V466.998z
	 M319.815,482.364c0.158,3.544-0.289,4.462-1.793,8.618C319.441,489.794,321.754,485.641,319.815,482.364z"/>
<radialGradient id="SVGID_11_" cx="-47.9072" cy="-43.3711" r="0.9998" gradientTransform="matrix(29.7508 0 0 -29.7508 1617.2688 -808.6506)" gradientUnits="userSpaceOnUse">
	<stop  offset="0" style="stop-color:#D1D3D4"/>
	<stop  offset="1" style="stop-color:#FFFFFF"/>
</radialGradient>
<path fill="url(#SVGID_11_)" d="M214.535,462.611c-4.946,1.383-11.223,2.358-16.301,2.61c-8.319,0.827-14.051,2.063-18.43,4.89
	c-4.766,5.366-4.643,11.93-3.521,17.832c0.775,3.119,1.778,6.849,5.379,8.653c2.267,0.308,1.732,0.228,1.017,2.792
	c-0.534,3.658,1.309,5.287,2.769,5.92c0.438,0.242,1.043,0.297,1.384,1.225c0.226,4.201,0.194,7.064-1.263,10.283
	c-0.76,0.906-1.352,0.045-2.051-0.197l-3.57-3.432c-0.189-1.71-0.043-2.216,0.225-3.43c-0.742,0.025-1.058,0.839-1.134,2.479
	c-2.902-3.431-5.542-8.404-7.482-12.781c-1.024-3.805-0.177-7.055-0.664-11.006c-0.241-2.684-1.271-5.345-1.32-8.661l-0.158-11.229
	c0.729-3.852,2.526-5.334,7.099-7.967c5.352-3.123,13.482-5.936,18.64-9.399c0.423-0.354,2.882-1.324,5.349-4.997L214.535,462.611z"
	/>
<path fill="none" stroke="#010101" stroke-width="1.7487" d="M214.535,462.611c-4.946,1.383-11.223,2.358-16.301,2.61
	c-8.319,0.827-14.051,2.063-18.43,4.89c-4.766,5.366-4.643,11.93-3.521,17.832c0.775,3.119,1.778,6.849,5.379,8.653
	c2.267,0.308,1.732,0.228,1.017,2.792c-0.534,3.658,1.309,5.287,2.769,5.92c0.438,0.242,1.043,0.297,1.384,1.225
	c0.226,4.201,0.194,7.064-1.263,10.283c-0.76,0.906-1.352,0.045-2.051-0.197l-3.57-3.432c-0.189-1.71-0.043-2.216,0.225-3.43
	c-0.742,0.025-1.058,0.839-1.134,2.479c-2.902-3.431-5.542-8.404-7.482-12.781c-1.024-3.805-0.177-7.055-0.664-11.006
	c-0.241-2.684-1.271-5.345-1.32-8.661l-0.158-11.229c0.729-3.852,2.526-5.334,7.099-7.967c5.352-3.123,13.482-5.936,18.64-9.399
	c0.423-0.354,2.882-1.324,5.349-4.997L214.535,462.611z"/>
<radialGradient id="SVGID_12_" cx="-47.9077" cy="-43.3721" r="1" gradientTransform="matrix(79.1495 0 0 -79.1495 4067.2524 -2960.5815)" gradientUnits="userSpaceOnUse">
	<stop  offset="0" style="stop-color:#D1D3D4"/>
	<stop  offset="1" style="stop-color:#FFFFFF"/>
</radialGradient>
<path fill="url(#SVGID_12_)" d="M199.731,445.947c-0.449-2.904-2.317-8.473-3.207-12.677c5.552-1.593,9.177-58.457,45.018-34.573
	c3.5,4.632,8.336,6.248,14.418,7.32c8.755,0.878,17.123,2.237,26.317,2.772c7.83,0,15.714,0.091,23.593,0.141
	c8.268,0.291,14.38,2.296,20.655,6.104c3.113,1.999,5.847,3.966,8.476,7.138c2.626,3.168,4.581,6.453,5.801,10.6
	c0.679,3.122-0.229,5.067-1.154,7.703c-0.516,1.127-1.224,1.852-2.013,2.287c0.278-3.871-0.954-5.563-2.473-6.344
	c1.274,2.688,1.575,4.668,1.165,6.832c0,3.168,0.671,7.082,1.253,10.301c0.777,4.536,1.999,8.336,4.093,12.336
	c3.063,5.852,5.381,8.91,9.029,12.617c1.993,1.755,3.714,2.557,3.373,5.531c-0.582,3.122-0.783,5.577-0.833,9.43
	c-0.435,5.361-0.236,10.639-0.286,16.004l0.242,13.651c0.046,3.705-0.134,7.518,0.739,11.272c0.826,2.925-0.454,3.055-1.767,4.177
	c-2.14,2.536-1.166,7.586-3.988,10.952c-0.803,1.084-4.878,2.062-7.837,2.13c-0.417-0.823,0.215-2.386,0.47-2.941
	c-1.059-0.185-1.606,1.447-2.041,2.873c-1.377-0.181-2.087-0.724-1.26-1.781l3.81-4.586c0.871,0.183,2.792,0.028,3.327-0.817
	c-0.55-0.003-1.496,0.075-1.771-0.501c0.625-0.957,1.545-2.275,1.758-3.464c0.825-3.071,1.026-6.573,1.073-9.744l-0.198-20.633
	c-0.388-5.219-0.588-10.335-1.707-15.408c-1.411-4.78-3.253-9.192-5.832-12.947c-2.967-3.658-6.707-6.751-9.92-9.143
	c-10.302-6.509-21.899-7.128-31.183-22.475c8.889,11.531,8.943,10.053-8.999,13.723c-5.593,1.169-9.782,1.207-14.745,1.793
	c-3.745,0.193-7.58,0.063-11.276,0.014c-6.568,0-12.677,0.74-19.243,0.35c-1.02-0.318-2.264-0.623-3.329-0.805
	c0.585-2.623,0.658-6.061,0.157-6.9c-0.282,1.725-1.212,4.593-1.624,6.723l-3.765,17.434c-1.604,6.049-0.562,11.752-0.902,17.412
	c-0.764,4.73-2.032,5.459-2.633,8.336c-0.341,3.46-0.283,7.557-0.04,11.653c0.095,5.413,1.36,9.797,2.383,14.821
	c0.193,0.925-0.015,1.828,1.055,2.951c-1.29,0.9-2.131,0.508-3.203,0.996l-0.972,9.075c-0.974,2.047-2.983,2.28-5.222,3.06
	c-2.069,0.705-3.827,1.22-5.677,0.997c0.137-0.394,1-1.703,0.714-2.589c-0.729,1.032-1.668,2.587-2.079,2.103
	c-0.648-0.06-0.989-0.159-1.645-0.812c2.385-2.545,4.008-3.873,5.711-7.825c1.623-0.166,3.688-2.729,3.278-2.793
	c-1.088,0.712-2.179,1.651-2.766,1.46l0.843-2.515c1.02-5.999,2.465-10.779,2.318-17.852c0.144-7.072-2.579-7.805-1.994-20.341
	l-0.259-6.669c-0.29-5.315-0.366-10.632-0.607-15.949c-0.291-3.316-0.249-4.923-3.363-14.29c-0.696-1.599-1.895-3.199-1.973-5.138
	c-0.768,1.381-0.131,3.325,0.222,4.817c-0.973-0.009-1.866,0.195-2.768-0.625c-5.212-2.881-13.373-8.764-14.745-16.765
	L199.731,445.947z M347.671,484.012c1.821,0.74,2.317,2.737,2.982,7.068C350.912,489.327,351.046,481.977,347.671,484.012z"/>
<path fill="none" stroke="#010101" stroke-width="1.7487" d="M199.731,445.947c-0.449-2.904-2.317-8.473-3.207-12.677
	c5.552-1.593,9.177-58.457,45.018-34.573c3.5,4.632,8.336,6.248,14.418,7.32c8.755,0.878,17.123,2.237,26.317,2.772
	c7.83,0,15.714,0.091,23.593,0.141c8.268,0.291,14.38,2.296,20.655,6.104c3.113,1.999,5.847,3.966,8.476,7.138
	c2.626,3.168,4.581,6.453,5.801,10.6c0.679,3.122-0.229,5.067-1.154,7.703c-0.516,1.127-1.224,1.852-2.013,2.287
	c0.278-3.871-0.954-5.563-2.473-6.344c1.274,2.688,1.575,4.668,1.165,6.832c0,3.168,0.671,7.082,1.253,10.301
	c0.777,4.536,1.999,8.336,4.093,12.336c3.063,5.852,5.381,8.91,9.029,12.617c1.993,1.755,3.714,2.557,3.373,5.531
	c-0.582,3.122-0.783,5.577-0.833,9.43c-0.435,5.361-0.236,10.639-0.286,16.004l0.242,13.651c0.046,3.705-0.134,7.518,0.739,11.272
	c0.826,2.925-0.454,3.055-1.767,4.177c-2.14,2.536-1.166,7.586-3.988,10.952c-0.803,1.084-4.878,2.062-7.837,2.13
	c-0.417-0.823,0.215-2.386,0.47-2.941c-1.059-0.185-1.606,1.447-2.041,2.873c-1.377-0.181-2.087-0.724-1.26-1.781l3.81-4.586
	c0.871,0.183,2.792,0.028,3.327-0.817c-0.55-0.003-1.496,0.075-1.771-0.501c0.625-0.957,1.545-2.275,1.758-3.464
	c0.825-3.071,1.026-6.573,1.073-9.744l-0.198-20.633c-0.388-5.219-0.588-10.335-1.707-15.408c-1.411-4.78-3.253-9.192-5.832-12.947
	c-2.967-3.658-6.707-6.751-9.92-9.143c-10.302-6.509-21.899-7.128-31.183-22.475c8.889,11.531,8.943,10.053-8.999,13.723
	c-5.593,1.169-9.782,1.207-14.745,1.793c-3.745,0.193-7.58,0.063-11.276,0.014c-6.568,0-12.677,0.74-19.243,0.35
	c-1.02-0.318-2.264-0.623-3.329-0.805c0.585-2.623,0.658-6.061,0.157-6.9c-0.282,1.725-1.212,4.593-1.624,6.723l-3.765,17.434
	c-1.604,6.049-0.562,11.752-0.902,17.412c-0.764,4.73-2.032,5.459-2.633,8.336c-0.341,3.46-0.283,7.557-0.04,11.653
	c0.095,5.413,1.36,9.797,2.383,14.821c0.193,0.925-0.015,1.828,1.055,2.951c-1.29,0.9-2.131,0.508-3.203,0.996l-0.972,9.075
	c-0.974,2.047-2.983,2.28-5.222,3.06c-2.069,0.705-3.827,1.22-5.677,0.997c0.137-0.394,1-1.703,0.714-2.589
	c-0.729,1.032-1.668,2.587-2.079,2.103c-0.648-0.06-0.989-0.159-1.645-0.812c2.385-2.545,4.008-3.873,5.711-7.825
	c1.623-0.166,3.688-2.729,3.278-2.793c-1.088,0.712-2.179,1.651-2.766,1.46l0.843-2.515c1.02-5.999,2.465-10.779,2.318-17.852
	c0.144-7.072-2.579-7.805-1.994-20.341l-0.259-6.669c-0.29-5.315-0.366-10.632-0.607-15.949c-0.291-3.316-0.249-4.923-3.363-14.29
	c-0.696-1.599-1.895-3.199-1.973-5.138c-0.768,1.381-0.131,3.325,0.222,4.817c-0.973-0.009-1.866,0.195-2.768-0.625
	c-5.212-2.881-13.373-8.764-14.745-16.765L199.731,445.947z M347.671,484.012c1.821,0.74,2.317,2.737,2.982,7.068
	C350.912,489.327,351.046,481.977,347.671,484.012z"/>
<radialGradient id="SVGID_13_" cx="-47.9077" cy="-43.373" r="1" gradientTransform="matrix(5.4 0 0 -5.4 442.1 276.2405)" gradientUnits="userSpaceOnUse">
	<stop  offset="0" style="stop-color:#FFD56D"/>
	<stop  offset="1" style="stop-color:#FBAF41"/>
</radialGradient>
<path fill="url(#SVGID_13_)" d="M186.831,506.533c-0.341-0.928-0.946-0.982-1.384-1.225c-0.672-0.291-1.417-0.809-1.982-1.624
	c-1.773,2.392-3.293,6.073-3.293,6.073c-0.268,1.214-0.414,1.72-0.225,3.43l3.57,3.432c0.699,0.242,1.291,1.104,2.051,0.197
	C187.025,513.598,187.056,510.734,186.831,506.533z"/>
<path fill="none" stroke="#010101" stroke-width="1.7487" d="M186.831,506.533c-0.341-0.928-0.946-0.982-1.384-1.225
	c-0.672-0.291-1.417-0.809-1.982-1.624c-1.773,2.392-3.293,6.073-3.293,6.073c-0.268,1.214-0.414,1.72-0.225,3.43l3.57,3.432
	c0.699,0.242,1.291,1.104,2.051,0.197C187.025,513.598,187.056,510.734,186.831,506.533z"/>
<radialGradient id="SVGID_14_" cx="-47.9072" cy="-43.3711" r="1.0001" gradientTransform="matrix(7.0287 0 0 -7.0287 559.9925 240.3295)" gradientUnits="userSpaceOnUse">
	<stop  offset="0" style="stop-color:#FFD56D"/>
	<stop  offset="1" style="stop-color:#FBAF41"/>
</radialGradient>
<path fill="url(#SVGID_14_)" d="M221.538,542.593c-1.703,3.952-3.326,5.28-5.711,7.825c0.655,0.652,0.996,0.752,1.645,0.812
	c0.411,0.484,1.351-1.07,2.079-2.103c0.286,0.886-0.577,2.195-0.714,2.589c1.85,0.223,3.607-0.292,5.677-0.997
	c2.238-0.779,4.248-1.013,5.222-3.06l0.972-9.075c0,0-2.322,1.253-5.891,1.216C225.225,539.864,223.161,542.427,221.538,542.593z"/>
<path fill="none" stroke="#010101" stroke-width="1.7487" d="M221.538,542.593c-1.703,3.952-3.326,5.28-5.711,7.825
	c0.655,0.652,0.996,0.752,1.645,0.812c0.411,0.484,1.351-1.07,2.079-2.103c0.286,0.886-0.577,2.195-0.714,2.589
	c1.85,0.223,3.607-0.292,5.677-0.997c2.238-0.779,4.248-1.013,5.222-3.06l0.972-9.075c0,0-2.322,1.253-5.891,1.216
	C225.225,539.864,223.161,542.427,221.538,542.593z"/>
<radialGradient id="SVGID_15_" cx="-47.9077" cy="-43.3721" r="1.0002" gradientTransform="matrix(6.1738 0 0 -6.1738 591.0753 273.6492)" gradientUnits="userSpaceOnUse">
	<stop  offset="0" style="stop-color:#FFD56D"/>
	<stop  offset="1" style="stop-color:#FBAF41"/>
</radialGradient>
<path fill="url(#SVGID_15_)" d="M301.475,535.245c0,0-4.352,3.383-7.477,3.339h-0.002c-0.325,0.813-1.482,0.948-2.112,1.183
	c-0.632,2.636-1.349,3.612-2.686,5.854c-0.991,2.132,8.893,2.913,9.865,0.427c1.604-2.732,1.573-4.983,1.96-8.347
	C301.108,536.939,301.019,535.912,301.475,535.245z"/>
<path fill="none" stroke="#010101" stroke-width="1.7487" d="M301.475,535.245c0,0-4.352,3.383-7.477,3.339h-0.002
	c-0.325,0.813-1.482,0.948-2.112,1.183c-0.632,2.636-1.349,3.612-2.686,5.854c-0.991,2.132,8.893,2.913,9.865,0.427
	c1.604-2.732,1.573-4.983,1.96-8.347C301.108,536.939,301.019,535.912,301.475,535.245z"/>
<radialGradient id="SVGID_16_" cx="-47.9082" cy="-43.3726" r="1.0002" gradientTransform="matrix(6.2395 0 0 -6.2395 643.0355 275.6011)" gradientUnits="userSpaceOnUse">
	<stop  offset="0" style="stop-color:#FFD56D"/>
	<stop  offset="1" style="stop-color:#FBAF41"/>
</radialGradient>
<path fill="url(#SVGID_16_)" d="M348.182,549.521c2.141-2.554,2.1-6.074,2.888-8.732c-2.367,1.115-5.229,3.004-6.419,3.609
	c-0.535,0.846-2.456,1-3.327,0.817l-3.81,4.586c-0.827,1.058-0.117,1.601,1.26,1.781c0.435-1.426,0.982-3.058,2.041-2.873
	c-0.255,0.556-0.887,2.118-0.47,2.941C343.304,551.583,347.379,550.605,348.182,549.521z"/>
<path fill="none" stroke="#010101" stroke-width="1.7487" d="M348.182,549.521c2.141-2.554,2.1-6.074,2.888-8.732
	c-2.367,1.115-5.229,3.004-6.419,3.609c-0.535,0.846-2.456,1-3.327,0.817l-3.81,4.586c-0.827,1.058-0.117,1.601,1.26,1.781
	c0.435-1.426,0.982-3.058,2.041-2.873c-0.255,0.556-0.887,2.118-0.47,2.941C343.304,551.583,347.379,550.605,348.182,549.521z"/>
<radialGradient id="SVGID_17_" cx="-47.9077" cy="-43.3721" r="1.0001" gradientTransform="matrix(45.4952 0 0 -45.4952 2387.5679 -1589.8385)" gradientUnits="userSpaceOnUse">
	<stop  offset="0" style="stop-color:#D1D3D4"/>
	<stop  offset="1" style="stop-color:#FFFFFF"/>
</radialGradient>
<path fill="url(#SVGID_17_)" d="M195.532,435.301c0.034-6.01-1.996-11.088,4.484-20.945c-4.848,6.08-9.935,4.301-10.88,6.533
	c-1.371-12.179,1.948-10.756,10.155-22.696c-6.184,4.301-10.82,4.396-12.661,7.781c3.114-14.027,1.078-17.398,11.073-22.842
	c-2.061,0.156-10.462,3.057-13.237,6.4c-2.724-2.133,0.064-6.502,1.606-8.727c2.138-2.781,3.752-4.059,6.524-6.789
	c2.994-3.589,6.056-7.871,8.272-12.591c3.556,0.711,4.696-0.42,4.592-1.969c-1.899,1.144-2.86,1.284-3.96,0.738
	c-1.687-0.883-3.376-1.765-5.065-2.649c-3.891-1.659-8.135-3.165-13.098-3.115c-3.015-0.291-6.769,0.529-8.859,0.237
	c-1.531,0-1.843-1.767-2.286-3.432c1.633,1.409,5.894,1.865,6.716,0.135c-3.08,0.365-4.601,0.128-6.531-1.271
	c-0.775-0.292-2.109-0.021-2.109-1.046c-0.485-1.561-0.206-2.033,0.182-3.691c1.216-2.341,1.961-3.75,6.855-4.231
	c8.221-0.095,13.656-1.836,19.543-3.641c4.229-1.122,6.676-2.916,13.39-2.524c0.609-1.352,2.453-1.523,3.794-1.157
	c0.292,2.927,2.792,1.891,5.663,0.655c1.313,1.267,3.393,1.29,4.171,2.899c-1.394,0.967-1.703,1.396-3.168,2.292
	c1.919,0.683,2.742-0.487,5.595-3.084c0.344-0.149,1.297-0.958,1.54-1.153c2.042-1.316,3.575-3.021,8.438-3.657
	c2.576-0.487,5.384-0.557,9.714,0.903c-4.036,3.658-5.087,7.242-10.925,9.631c-1.687,0.97-3.664,1.648-5.839,2.127
	c-1.979,0.337-3.595,0.674-3.851,1.689c2.98-0.631,3.764-0.677,4.231,0.154c1.335,5.973,2.924,12.629,3.542,18.775
	c0.729,6.29,0.632,12.499,1.604,18.742c0.632,2.924,3.399,12.272,6.369,15.247c0.257,7.397,3.557,12.79-3.341,22.232
	c-1.04-9.837-4.121-14.823-5.662-14.058c-1.54,0.768,0.917,13.143-6.613,19.712c0.78-9.861-3.138-15.521-5.339-14.559
	s-0.608,12.131-11.091,21.192c-0.097-15.68,0.882-13.973-1.825-11.386C203.532,425.711,198.824,431.806,195.532,435.301z
	 M235.651,338.549c-0.032-0.031,1.018-0.895,1.73-0.942c3.996-1.964,3.962-3.658,0.18-2.638c-1.914,0.275-8.697,5.48-10.196,5.945
	c-1.224,1.125,1.632,0.842,2.134,0.614c-0.625,0.32-1.235,0.733-2.037,0.843c-2.138,0.633-1.75-1.512-0.775-1.951
	c3.16-0.73,6.711-4.291,10.603-6.096c2.966-1.022,4.572-0.047,3.647,1.511c-0.776,1.461-2.576,1.902-3.987,2.291
	c-0.894,0.467-1.117,0.714-1.224,1.291c-0.242-0.32-0.357-0.282-0.071-0.868H235.651z M177.099,344.845
	c0.859-0.961,0.838-1.585,0.055-1.412c-1.322,0.878-2.545,1.698-3.705,2.6c-0.813-0.263-0.681,0.99-0.401,1.348
	c-0.738,0.159-0.847-0.572-0.409-1.742c1.653-0.681,2.819-1.755,4.279-2.633C179.203,342.57,178.18,344.467,177.099,344.845z"/>
<path fill="none" stroke="#010101" stroke-width="1.7487" d="M195.532,435.301c0.034-6.01-1.996-11.088,4.484-20.945
	c-4.848,6.08-9.935,4.301-10.88,6.533c-1.371-12.179,1.948-10.756,10.155-22.696c-6.184,4.301-10.82,4.396-12.661,7.781
	c3.114-14.027,1.078-17.398,11.073-22.842c-2.061,0.156-10.462,3.057-13.237,6.4c-2.724-2.133,0.064-6.502,1.606-8.727
	c2.138-2.781,3.752-4.059,6.524-6.789c2.994-3.589,6.056-7.871,8.272-12.591c3.556,0.711,4.696-0.42,4.592-1.969
	c-1.899,1.144-2.86,1.284-3.96,0.738c-1.687-0.883-3.376-1.765-5.065-2.649c-3.891-1.659-8.135-3.165-13.098-3.115
	c-3.015-0.291-6.769,0.529-8.859,0.237c-1.531,0-1.843-1.767-2.286-3.432c1.633,1.409,5.894,1.865,6.716,0.135
	c-3.08,0.365-4.601,0.128-6.531-1.271c-0.775-0.292-2.109-0.021-2.109-1.046c-0.485-1.561-0.206-2.033,0.182-3.691
	c1.216-2.341,1.961-3.75,6.855-4.231c8.221-0.095,13.656-1.836,19.543-3.641c4.229-1.122,6.676-2.916,13.39-2.524
	c0.609-1.352,2.453-1.523,3.794-1.157c0.292,2.927,2.792,1.891,5.663,0.655c1.313,1.267,3.393,1.29,4.171,2.899
	c-1.394,0.967-1.703,1.396-3.168,2.292c1.919,0.683,2.742-0.487,5.595-3.084c0.344-0.149,1.297-0.958,1.54-1.153
	c2.042-1.316,3.575-3.021,8.438-3.657c2.576-0.487,5.384-0.557,9.714,0.903c-4.036,3.658-5.087,7.242-10.925,9.631
	c-1.687,0.97-3.664,1.648-5.839,2.127c-1.979,0.337-3.595,0.674-3.851,1.689c2.98-0.631,3.764-0.677,4.231,0.154
	c1.335,5.973,2.924,12.629,3.542,18.775c0.729,6.29,0.632,12.499,1.604,18.742c0.632,2.924,3.399,12.272,6.369,15.247
	c0.257,7.397,3.557,12.79-3.341,22.232c-1.04-9.837-4.121-14.823-5.662-14.058c-1.54,0.768,0.917,13.143-6.613,19.712
	c0.78-9.861-3.138-15.521-5.339-14.559s-0.608,12.131-11.091,21.192c-0.097-15.68,0.882-13.973-1.825-11.386
	C203.532,425.711,198.824,431.806,195.532,435.301z M235.651,338.549c-0.032-0.031,1.018-0.895,1.73-0.942
	c3.996-1.964,3.962-3.658,0.18-2.638c-1.914,0.275-8.697,5.48-10.196,5.945c-1.224,1.125,1.632,0.842,2.134,0.614
	c-0.625,0.32-1.235,0.733-2.037,0.843c-2.138,0.633-1.75-1.512-0.775-1.951c3.16-0.73,6.711-4.291,10.603-6.096
	c2.966-1.022,4.572-0.047,3.647,1.511c-0.776,1.461-2.576,1.902-3.987,2.291c-0.894,0.467-1.117,0.714-1.224,1.291
	c-0.242-0.32-0.357-0.282-0.071-0.868H235.651z M177.099,344.845c0.859-0.961,0.838-1.585,0.055-1.412
	c-1.322,0.878-2.545,1.698-3.705,2.6c-0.813-0.263-0.681,0.99-0.401,1.348c-0.738,0.159-0.847-0.572-0.409-1.742
	c1.653-0.681,2.819-1.755,4.279-2.633C179.203,342.57,178.18,344.467,177.099,344.845z"/>
<path fill="#FFFFFF" d="M205.201,341.058c0.001,0.79-0.612,1.43-1.369,1.431s-1.371-0.639-1.372-1.428v-0.003
	c-0.001-0.789,0.612-1.429,1.37-1.43c0.757-0.001,1.371,0.638,1.371,1.427V341.058z"/>
<path fill="none" stroke="#010101" stroke-width="0.8905" d="M205.201,341.058c0.001,0.79-0.612,1.43-1.369,1.431
	s-1.371-0.639-1.372-1.428v-0.003c-0.001-0.789,0.612-1.429,1.37-1.43c0.757-0.001,1.371,0.638,1.371,1.427V341.058z"/>
<path fill="none" stroke="#010101" stroke-width="1.7487" d="M198.942,343.883c1.318-4.564,1.201-4.64,4.352-4.638
	c3.149,0.002,9.567,0.082,9.567,0.082s-4.677,1.466-6.949,2.908C203.638,343.677,204.185,343.982,198.942,343.883z"/>
<radialGradient id="SVGID_18_" cx="-47.9072" cy="-43.3721" r="1.0001" gradientTransform="matrix(45.9548 0 0 -45.9548 2320.0972 -1942.5928)" gradientUnits="userSpaceOnUse">
	<stop  offset="0" style="stop-color:#FFD56D"/>
	<stop  offset="1" style="stop-color:#FBAF41"/>
</radialGradient>
<path fill="url(#SVGID_18_)" d="M76.245,79.094c0.534-0.73,0.728-4.6-3.939-6.308c-2.676-0.584-4.901-1.869-6.75-4.749
	c-1.993-2.586-3.598-4.889-4.423-9.083c-0.675-2.486-0.059-4.892,1.874-2.709c0.737,1.07,1.274,2.149,1.956,3.369
	c1.897,3.122,4.175,6.295,6.9,8.784c1.563,1.706,3.847,4.981,9.903,3.463c2.868-0.536,5.63-3.108,7.233-5.74
	c1.409-2.73,0.923-5.748,1.024-8.478c-0.339-3.366-0.344-6.545-2.143-9.275c-0.485-1.95,0.423-2.32,1.783-0.896
	c2.334,2.291,2.931,4.065,3.711,6.604c0.583,4.73,0.926,9.747,0.391,14.721c1.166,0.047,2.408,0.288,3.577,0.288
	c4.572,0.241,8.502-0.487,12.442-1.756c3.696-1.12,5.827-2.044,7.824-3.997c1.798-1.511,3.491-4.229,4.464-6.57
	c0.775-2.439,0.88-4.837,1.464-7.473c0.438-1.805,2.132-3.472,3.393-0.456c0.353,2.536-0.092,4.036-0.969,6.718
	c-0.533,1.512-3.728,8.86-6.108,12.618c1.306,1.447,6.623,0.33,8.617-0.596c1.604-1.021,3.915-2.429,5.568-3.5
	c1.458-1.364,2.686-2.824,4.181-5.217c1.556-3.197,2.094-5.543,0.584-10.862c-1.458-5.024-3.694-9.178-5.496-13.91
	c-0.193-2.32,0.467-4.263,3.738-1.526c1.119,2.536,2.29,4.688,3.215,7.37c1.848,3.561,2.867,7.456,4.326,11.066
	c1.174,3.368,4.252,3.281,6.234-0.525c1.75-3.463,2.479-7.895,2.72-11.308c0.048-6.096,0.637-10.989,1.367-16.453
	c0.911-1.634,1.385-3.887,3.394-0.056c0.977,4.094,0.95,6.701,0.494,12.605c-1.069,4.585-2.143,8.592-2.531,13.615
	c-1.202,3.786,0.799,4.751,2.844,3.971c2.382-1.267,3.39-2.673,4.507-4.087c2.432-3.266,3.751-6.35,5.653-9.958
	c1.18-1.098,2.713-0.897,2.119,3.045c-1.897,5.168-4.431,9.332-9.44,14.161c-2.386,2.069-0.89,4.528,2.078,3.62
	c3.6-0.877,5.974-2.585,8.846-3.901c1.119-0.634,2.346-1.516,3.283,0.6c-0.144,1.755-0.733,2.372-4.39,4.265
	c-8.074,2.828-12.945,2.538-21.116,3.416c-6.712,1.317-10.794,2.245-17.898,5.757c-4.328,1.608-7.015,3.753-12.562,4.827
	c-4.133-0.047-11.133-1.416-16.824-1.66c-6.808-0.486-9.617-0.37-17.983,6.115c-3.686,2.22-5.689,1.94-5.562-0.235l-3.589,0.287"/>
<path fill="none" stroke="#010101" stroke-width="0.8905" d="M76.245,79.094c0.534-0.73,0.728-4.6-3.939-6.308
	c-2.676-0.584-4.901-1.869-6.75-4.749c-1.993-2.586-3.598-4.889-4.423-9.083c-0.675-2.486-0.059-4.892,1.874-2.709
	c0.737,1.07,1.274,2.149,1.956,3.369c1.897,3.122,4.175,6.295,6.9,8.784c1.563,1.706,3.847,4.981,9.903,3.463
	c2.868-0.536,5.63-3.108,7.233-5.74c1.409-2.73,0.923-5.748,1.024-8.478c-0.339-3.366-0.344-6.545-2.143-9.275
	c-0.485-1.95,0.423-2.32,1.783-0.896c2.334,2.291,2.931,4.065,3.711,6.604c0.583,4.73,0.926,9.747,0.391,14.721
	c1.166,0.047,2.408,0.288,3.577,0.288c4.572,0.241,8.502-0.487,12.442-1.756c3.696-1.12,5.827-2.044,7.824-3.997
	c1.798-1.511,3.491-4.229,4.464-6.57c0.775-2.439,0.88-4.837,1.464-7.473c0.438-1.805,2.132-3.472,3.393-0.456
	c0.353,2.536-0.092,4.036-0.969,6.718c-0.533,1.512-3.728,8.86-6.108,12.618c1.306,1.447,6.623,0.33,8.617-0.596
	c1.604-1.021,3.915-2.429,5.568-3.5c1.458-1.364,2.686-2.824,4.181-5.217c1.556-3.197,2.094-5.543,0.584-10.862
	c-1.458-5.024-3.694-9.178-5.496-13.91c-0.193-2.32,0.467-4.263,3.738-1.526c1.119,2.536,2.29,4.688,3.215,7.37
	c1.848,3.561,2.867,7.456,4.326,11.066c1.174,3.368,4.252,3.281,6.234-0.525c1.75-3.463,2.479-7.895,2.72-11.308
	c0.048-6.096,0.637-10.989,1.367-16.453c0.911-1.634,1.385-3.887,3.394-0.056c0.977,4.094,0.95,6.701,0.494,12.605
	c-1.069,4.585-2.143,8.592-2.531,13.615c-1.202,3.786,0.799,4.751,2.844,3.971c2.382-1.267,3.39-2.673,4.507-4.087
	c2.432-3.266,3.751-6.35,5.653-9.958c1.18-1.098,2.713-0.897,2.119,3.045c-1.897,5.168-4.431,9.332-9.44,14.161
	c-2.386,2.069-0.89,4.528,2.078,3.62c3.6-0.877,5.974-2.585,8.846-3.901c1.119-0.634,2.346-1.516,3.283,0.6
	c-0.144,1.755-0.733,2.372-4.39,4.265c-8.074,2.828-12.945,2.538-21.116,3.416c-6.712,1.317-10.794,2.245-17.898,5.757
	c-4.328,1.608-7.015,3.753-12.562,4.827c-4.133-0.047-11.133-1.416-16.824-1.66c-6.808-0.486-9.617-0.37-17.983,6.115
	c-3.686,2.22-5.689,1.94-5.562-0.235l-3.589,0.287"/>
<radialGradient id="SVGID_19_" cx="-47.9072" cy="-43.3721" r="0.9997" gradientTransform="matrix(34.6262 0 0 -34.6262 1829.8577 -1254.7563)" gradientUnits="userSpaceOnUse">
	<stop  offset="0" style="stop-color:#D1D3D4"/>
	<stop  offset="1" style="stop-color:#FFFFFF"/>
</radialGradient>
<path fill="url(#SVGID_19_)" d="M186.382,211.994c0.393,4.033-0.062,9.639,1.291,13.779c0.291,1.9,2.401,3.734,0.648,6.661
	l-6.968,11.988l-5.921,10.594l-4.682,10.226c-0.825,3.806-2.625,6.113-1.75,11.576c0.631,2.925-0.474,2.612-1.736,2.759
	c-2.571-0.189-2.214,1.843-2.354,3.12c-0.387,3.363-0.355,5.614-1.96,8.347c-0.973,2.486-10.856,1.705-9.865-0.427
	c1.337-2.242,2.054-3.219,2.686-5.854c1.02-0.38,3.43-0.491,1.436-3.662l2.869-7.383l3.847-8.486l5.6-13.403
	c1.798-5.168,3.35-10.82,4.422-16.286c0.972-4.194,0.983-5.745,0.35-9.842c-0.825-4.291-1.659-8.243-4.043-12.242
	c-2.177-3.376-3.055-11.78-6.86-11.763c7.509-1.518,16.236,6.586,22.992,10.295V211.994z M183.702,227.36
	c0.158,3.544-0.289,4.462-1.793,8.618C183.328,234.79,185.641,230.637,183.702,227.36z"/>
<path fill="none" stroke="#010101" stroke-width="1.7487" d="M186.382,211.994c0.393,4.033-0.062,9.639,1.291,13.779
	c0.291,1.9,2.401,3.734,0.648,6.661l-6.968,11.988l-5.921,10.594l-4.682,10.226c-0.825,3.806-2.625,6.113-1.75,11.576
	c0.631,2.925-0.474,2.612-1.736,2.759c-2.571-0.189-2.214,1.843-2.354,3.12c-0.387,3.363-0.355,5.614-1.96,8.347
	c-0.973,2.486-10.856,1.705-9.865-0.427c1.337-2.242,2.054-3.219,2.686-5.854c1.02-0.38,3.43-0.491,1.436-3.662l2.869-7.383
	l3.847-8.486l5.6-13.403c1.798-5.168,3.35-10.82,4.422-16.286c0.972-4.194,0.983-5.745,0.35-9.842
	c-0.825-4.291-1.659-8.243-4.043-12.242c-2.177-3.376-3.055-11.78-6.86-11.763c7.509-1.518,16.236,6.586,22.992,10.295V211.994z
	 M183.702,227.36c0.158,3.544-0.289,4.462-1.793,8.618C183.328,234.79,185.641,230.637,183.702,227.36z"/>
<radialGradient id="SVGID_20_" cx="-47.9072" cy="-43.3721" r="1.0001" gradientTransform="matrix(29.7505 0 0 -29.7505 1481.1389 -1063.636)" gradientUnits="userSpaceOnUse">
	<stop  offset="0" style="stop-color:#D1D3D4"/>
	<stop  offset="1" style="stop-color:#FFFFFF"/>
</radialGradient>
<path fill="url(#SVGID_20_)" d="M78.421,207.607c-4.946,1.383-11.223,2.358-16.301,2.61c-8.319,0.827-14.051,2.063-18.43,4.89
	c-4.766,5.366-4.643,11.93-3.521,17.832c0.775,3.119,1.778,6.849,5.379,8.653c2.267,0.308,1.732,0.228,1.017,2.792
	c-0.534,3.658,1.309,5.287,2.769,5.92c0.438,0.242,1.043,0.297,1.384,1.225c0.226,4.201,0.194,7.064-1.263,10.283
	c-0.76,0.906-1.352,0.045-2.051-0.197l-3.57-3.432c-0.189-1.71-0.043-2.216,0.225-3.43c-0.742,0.025-1.058,0.839-1.134,2.479
	c-2.902-3.431-5.542-8.404-7.482-12.781c-1.024-3.805-0.177-7.055-0.664-11.006c-0.241-2.684-1.271-5.345-1.32-8.661l-0.158-11.229
	c0.729-3.852,2.526-5.334,7.099-7.967c5.352-3.123,13.482-5.936,18.64-9.399c0.423-0.354,2.882-1.324,5.349-4.997L78.421,207.607z"
	/>
<path fill="none" stroke="#010101" stroke-width="1.7487" d="M78.421,207.607c-4.946,1.383-11.223,2.358-16.301,2.61
	c-8.319,0.827-14.051,2.063-18.43,4.89c-4.766,5.366-4.643,11.93-3.521,17.832c0.775,3.119,1.778,6.849,5.379,8.653
	c2.267,0.308,1.732,0.228,1.017,2.792c-0.534,3.658,1.309,5.287,2.769,5.92c0.438,0.242,1.043,0.297,1.384,1.225
	c0.226,4.201,0.194,7.064-1.263,10.283c-0.76,0.906-1.352,0.045-2.051-0.197l-3.57-3.432c-0.189-1.71-0.043-2.216,0.225-3.43
	c-0.742,0.025-1.058,0.839-1.134,2.479c-2.902-3.431-5.542-8.404-7.482-12.781c-1.024-3.805-0.177-7.055-0.664-11.006
	c-0.241-2.684-1.271-5.345-1.32-8.661l-0.158-11.229c0.729-3.852,2.526-5.334,7.099-7.967c5.352-3.123,13.482-5.936,18.64-9.399
	c0.423-0.354,2.882-1.324,5.349-4.997L78.421,207.607z"/>
<radialGradient id="SVGID_21_" cx="-47.9077" cy="-43.3721" r="0.9998" gradientTransform="matrix(79.1495 0 0 -79.1495 3931.1294 -3215.5845)" gradientUnits="userSpaceOnUse">
	<stop  offset="0" style="stop-color:#D1D3D4"/>
	<stop  offset="1" style="stop-color:#FFFFFF"/>
</radialGradient>
<path fill="url(#SVGID_21_)" d="M63.618,190.943c-0.449-2.904-2.317-8.473-3.207-12.677c5.552-1.593,9.177-58.457,45.018-34.573
	c3.5,4.632,8.336,6.248,14.418,7.32c8.755,0.878,17.123,2.237,26.317,2.772c7.83,0,15.714,0.091,23.593,0.141
	c8.268,0.291,14.38,2.296,20.655,6.104c3.113,1.999,5.847,3.966,8.476,7.138c2.626,3.168,4.581,6.453,5.801,10.6
	c0.679,3.122-0.229,5.067-1.154,7.703c-0.516,1.127-1.224,1.852-2.013,2.287c0.278-3.871-0.954-5.563-2.473-6.344
	c1.274,2.688,1.575,4.668,1.165,6.832c0,3.168,0.671,7.082,1.253,10.301c0.777,4.536,1.999,8.336,4.093,12.336
	c3.063,5.852,5.381,8.91,9.029,12.617c1.993,1.755,3.714,2.557,3.373,5.531c-0.582,3.122-0.783,5.577-0.833,9.43
	c-0.435,5.361-0.236,10.639-0.286,16.004l0.242,13.651c0.046,3.705-0.134,7.518,0.739,11.272c0.826,2.925-0.454,3.055-1.767,4.177
	c-2.14,2.536-1.166,7.586-3.988,10.952c-0.803,1.084-4.878,2.062-7.837,2.13c-0.417-0.823,0.215-2.386,0.47-2.941
	c-1.059-0.185-1.606,1.447-2.041,2.873c-1.377-0.181-2.087-0.724-1.26-1.781l3.81-4.586c0.871,0.183,2.792,0.028,3.327-0.817
	c-0.55-0.003-1.496,0.075-1.771-0.501c0.625-0.957,1.545-2.275,1.758-3.464c0.825-3.071,1.026-6.573,1.073-9.744l-0.198-20.633
	c-0.388-5.219-0.588-10.335-1.707-15.408c-1.411-4.78-3.253-9.192-5.832-12.947c-2.967-3.658-6.707-6.751-9.92-9.143
	c-10.302-6.509-21.899-7.128-31.183-22.475c8.889,11.531,8.943,10.053-8.999,13.723c-5.593,1.169-9.782,1.207-14.745,1.793
	c-3.745,0.193-7.58,0.063-11.276,0.014c-6.568,0-12.677,0.74-19.243,0.35c-1.02-0.318-2.264-0.623-3.329-0.805
	c0.585-2.623,0.658-6.061,0.157-6.9c-0.282,1.725-1.212,4.593-1.624,6.723l-3.765,17.434c-1.604,6.049-0.562,11.752-0.902,17.412
	c-0.764,4.73-2.032,5.459-2.633,8.336c-0.341,3.46-0.283,7.557-0.04,11.653c0.095,5.413,1.36,9.797,2.383,14.821
	c0.193,0.925-0.015,1.828,1.055,2.951c-1.29,0.9-2.131,0.508-3.203,0.996l-0.972,9.075c-0.974,2.047-2.983,2.28-5.222,3.06
	c-2.069,0.705-3.827,1.22-5.677,0.997c0.137-0.394,1-1.703,0.714-2.589c-0.729,1.032-1.668,2.587-2.079,2.103
	c-0.648-0.06-0.989-0.159-1.645-0.812c2.385-2.545,4.008-3.873,5.711-7.825c1.623-0.166,3.688-2.729,3.278-2.793
	c-1.088,0.712-2.179,1.651-2.766,1.46l0.843-2.515c1.02-5.999,2.465-10.779,2.318-17.852c0.144-7.072-2.579-7.805-1.994-20.341
	l-0.259-6.669c-0.29-5.315-0.366-10.632-0.607-15.949c-0.291-3.316-0.249-4.923-3.363-14.29c-0.696-1.599-1.895-3.199-1.973-5.138
	c-0.768,1.381-0.131,3.325,0.222,4.817c-0.973-0.009-1.866,0.195-2.768-0.625c-5.212-2.881-13.373-8.764-14.745-16.765
	L63.618,190.943z M211.558,229.008c1.821,0.74,2.317,2.737,2.982,7.068C214.798,234.323,214.933,226.973,211.558,229.008z"/>
<path fill="none" stroke="#010101" stroke-width="1.7487" d="M63.618,190.943c-0.449-2.904-2.317-8.473-3.207-12.677
	c5.552-1.593,9.177-58.457,45.018-34.573c3.5,4.632,8.336,6.248,14.418,7.32c8.755,0.878,17.123,2.237,26.317,2.772
	c7.83,0,15.714,0.091,23.593,0.141c8.268,0.291,14.38,2.296,20.655,6.104c3.113,1.999,5.847,3.966,8.476,7.138
	c2.626,3.168,4.581,6.453,5.801,10.6c0.679,3.122-0.229,5.067-1.154,7.703c-0.516,1.127-1.224,1.852-2.013,2.287
	c0.278-3.871-0.954-5.563-2.473-6.344c1.274,2.688,1.575,4.668,1.165,6.832c0,3.168,0.671,7.082,1.253,10.301
	c0.777,4.536,1.999,8.336,4.093,12.336c3.063,5.852,5.381,8.91,9.029,12.617c1.993,1.755,3.714,2.557,3.373,5.531
	c-0.582,3.122-0.783,5.577-0.833,9.43c-0.435,5.361-0.236,10.639-0.286,16.004l0.242,13.651c0.046,3.705-0.134,7.518,0.739,11.272
	c0.826,2.925-0.454,3.055-1.767,4.177c-2.14,2.536-1.166,7.586-3.988,10.952c-0.803,1.084-4.878,2.062-7.837,2.13
	c-0.417-0.823,0.215-2.386,0.47-2.941c-1.059-0.185-1.606,1.447-2.041,2.873c-1.377-0.181-2.087-0.724-1.26-1.781l3.81-4.586
	c0.871,0.183,2.792,0.028,3.327-0.817c-0.55-0.003-1.496,0.075-1.771-0.501c0.625-0.957,1.545-2.275,1.758-3.464
	c0.825-3.071,1.026-6.573,1.073-9.744l-0.198-20.633c-0.388-5.219-0.588-10.335-1.707-15.408c-1.411-4.78-3.253-9.192-5.832-12.947
	c-2.967-3.658-6.707-6.751-9.92-9.143c-10.302-6.509-21.899-7.128-31.183-22.475c8.889,11.531,8.943,10.053-8.999,13.723
	c-5.593,1.169-9.782,1.207-14.745,1.793c-3.745,0.193-7.58,0.063-11.276,0.014c-6.568,0-12.677,0.74-19.243,0.35
	c-1.02-0.318-2.264-0.623-3.329-0.805c0.585-2.623,0.658-6.061,0.157-6.9c-0.282,1.725-1.212,4.593-1.624,6.723l-3.765,17.434
	c-1.604,6.049-0.562,11.752-0.902,17.412c-0.764,4.73-2.032,5.459-2.633,8.336c-0.341,3.46-0.283,7.557-0.04,11.653
	c0.095,5.413,1.36,9.797,2.383,14.821c0.193,0.925-0.015,1.828,1.055,2.951c-1.29,0.9-2.131,0.508-3.203,0.996l-0.972,9.075
	c-0.974,2.047-2.983,2.28-5.222,3.06c-2.069,0.705-3.827,1.22-5.677,0.997c0.137-0.394,1-1.703,0.714-2.589
	c-0.729,1.032-1.668,2.587-2.079,2.103c-0.648-0.06-0.989-0.159-1.645-0.812c2.385-2.545,4.008-3.873,5.711-7.825
	c1.623-0.166,3.688-2.729,3.278-2.793c-1.088,0.712-2.179,1.651-2.766,1.46l0.843-2.515c1.02-5.999,2.465-10.779,2.318-17.852
	c0.144-7.072-2.579-7.805-1.994-20.341l-0.259-6.669c-0.29-5.315-0.366-10.632-0.607-15.949c-0.291-3.316-0.249-4.923-3.363-14.29
	c-0.696-1.599-1.895-3.199-1.973-5.138c-0.768,1.381-0.131,3.325,0.222,4.817c-0.973-0.009-1.866,0.195-2.768-0.625
	c-5.212-2.881-13.373-8.764-14.745-16.765L63.618,190.943z M211.558,229.008c1.821,0.74,2.317,2.737,2.982,7.068
	C214.798,234.323,214.933,226.973,211.558,229.008z"/>
<radialGradient id="SVGID_22_" cx="-47.9077" cy="-43.3721" r="1.0001" gradientTransform="matrix(5.4 0 0 -5.4 305.9868 21.2366)" gradientUnits="userSpaceOnUse">
	<stop  offset="0" style="stop-color:#FFD56D"/>
	<stop  offset="1" style="stop-color:#FBAF41"/>
</radialGradient>
<path fill="url(#SVGID_22_)" d="M50.717,251.529c-0.341-0.928-0.946-0.982-1.384-1.225c-0.672-0.291-1.417-0.809-1.982-1.624
	c-1.773,2.392-3.293,6.073-3.293,6.073c-0.268,1.214-0.414,1.72-0.225,3.43l3.57,3.432c0.699,0.242,1.291,1.104,2.051,0.197
	C50.912,258.594,50.943,255.73,50.717,251.529z"/>
<path fill="none" stroke="#010101" stroke-width="1.7487" d="M50.717,251.529c-0.341-0.928-0.946-0.982-1.384-1.225
	c-0.672-0.291-1.417-0.809-1.982-1.624c-1.773,2.392-3.293,6.073-3.293,6.073c-0.268,1.214-0.414,1.72-0.225,3.43l3.57,3.432
	c0.699,0.242,1.291,1.104,2.051,0.197C50.912,258.594,50.943,255.73,50.717,251.529z"/>
<radialGradient id="SVGID_23_" cx="-47.9082" cy="-43.3721" r="0.9999" gradientTransform="matrix(7.0289 0 0 -7.0289 423.8922 -14.6856)" gradientUnits="userSpaceOnUse">
	<stop  offset="0" style="stop-color:#FFD56D"/>
	<stop  offset="1" style="stop-color:#FBAF41"/>
</radialGradient>
<path fill="url(#SVGID_23_)" d="M85.424,287.589c-1.703,3.952-3.326,5.28-5.711,7.825c0.655,0.652,0.996,0.752,1.645,0.812
	c0.411,0.484,1.351-1.07,2.079-2.103c0.286,0.886-0.577,2.195-0.714,2.589c1.85,0.223,3.607-0.292,5.677-0.997
	c2.238-0.779,4.248-1.013,5.222-3.06l0.972-9.075c0,0-2.322,1.253-5.891,1.216C89.112,284.86,87.047,287.423,85.424,287.589z"/>
<path fill="none" stroke="#010101" stroke-width="1.7487" d="M85.424,287.589c-1.703,3.952-3.326,5.28-5.711,7.825
	c0.655,0.652,0.996,0.752,1.645,0.812c0.411,0.484,1.351-1.07,2.079-2.103c0.286,0.886-0.577,2.195-0.714,2.589
	c1.85,0.223,3.607-0.292,5.677-0.997c2.238-0.779,4.248-1.013,5.222-3.06l0.972-9.075c0,0-2.322,1.253-5.891,1.216
	C89.112,284.86,87.047,287.423,85.424,287.589z"/>
<radialGradient id="SVGID_24_" cx="-47.9067" cy="-43.3721" r="1" gradientTransform="matrix(6.1741 0 0 -6.1741 454.9749 18.6323)" gradientUnits="userSpaceOnUse">
	<stop  offset="0" style="stop-color:#FFD56D"/>
	<stop  offset="1" style="stop-color:#FBAF41"/>
</radialGradient>
<path fill="url(#SVGID_24_)" d="M165.362,280.241c0,0-4.352,3.383-7.477,3.339h-0.002c-0.325,0.813-1.482,0.948-2.112,1.183
	c-0.632,2.636-1.349,3.612-2.686,5.854c-0.991,2.132,8.893,2.913,9.865,0.427c1.604-2.732,1.573-4.983,1.96-8.347
	C164.995,281.936,164.906,280.908,165.362,280.241z"/>
<path fill="none" stroke="#010101" stroke-width="1.7487" d="M165.362,280.241c0,0-4.352,3.383-7.477,3.339h-0.002
	c-0.325,0.813-1.482,0.948-2.112,1.183c-0.632,2.636-1.349,3.612-2.686,5.854c-0.991,2.132,8.893,2.913,9.865,0.427
	c1.604-2.732,1.573-4.983,1.96-8.347C164.995,281.936,164.906,280.908,165.362,280.241z"/>
<radialGradient id="SVGID_25_" cx="-47.9087" cy="-43.3726" r="1.0002" gradientTransform="matrix(6.2393 0 0 -6.2393 506.9133 20.6064)" gradientUnits="userSpaceOnUse">
	<stop  offset="0" style="stop-color:#FFD56D"/>
	<stop  offset="1" style="stop-color:#FBAF41"/>
</radialGradient>
<path fill="url(#SVGID_25_)" d="M212.069,294.518c2.141-2.554,2.1-6.074,2.888-8.732c-2.367,1.115-5.229,3.004-6.419,3.609
	c-0.535,0.846-2.456,1-3.327,0.817l-3.81,4.586c-0.827,1.058-0.117,1.601,1.26,1.781c0.435-1.426,0.982-3.058,2.041-2.873
	c-0.255,0.556-0.887,2.118-0.47,2.941C207.191,296.579,211.266,295.602,212.069,294.518z"/>
<path fill="none" stroke="#010101" stroke-width="1.7487" d="M212.069,294.518c2.141-2.554,2.1-6.074,2.888-8.732
	c-2.367,1.115-5.229,3.004-6.419,3.609c-0.535,0.846-2.456,1-3.327,0.817l-3.81,4.586c-0.827,1.058-0.117,1.601,1.26,1.781
	c0.435-1.426,0.982-3.058,2.041-2.873c-0.255,0.556-0.887,2.118-0.47,2.941C207.191,296.579,211.266,295.602,212.069,294.518z"/>
<radialGradient id="SVGID_26_" cx="-47.9077" cy="-43.3721" r="1.0001" gradientTransform="matrix(45.4949 0 0 -45.4949 2251.4504 -1844.8501)" gradientUnits="userSpaceOnUse">
	<stop  offset="0" style="stop-color:#D1D3D4"/>
	<stop  offset="1" style="stop-color:#FFFFFF"/>
</radialGradient>
<path fill="url(#SVGID_26_)" d="M59.418,180.297c0.034-6.01-1.996-11.088,4.484-20.945c-4.848,6.08-9.935,4.301-10.88,6.533
	c-1.371-12.179,1.948-10.756,10.155-22.696c-6.184,4.301-10.82,4.396-12.661,7.781c3.114-14.027,1.078-17.398,11.073-22.842
	c-2.061,0.156-10.462,3.057-13.237,6.4c-2.724-2.133,0.064-6.502,1.606-8.727c2.138-2.781,3.752-4.059,6.524-6.789
	c2.994-3.589,6.056-7.871,8.272-12.591c3.556,0.711,4.696-0.42,4.592-1.969c-1.899,1.144-2.86,1.284-3.96,0.738
	c-1.687-0.883-3.376-1.765-5.065-2.649c-3.891-1.659-8.135-3.165-13.098-3.115c-3.015-0.291-6.769,0.529-8.859,0.237
	c-1.531,0-1.843-1.767-2.286-3.432c1.633,1.409,5.894,1.865,6.716,0.135c-3.08,0.365-4.601,0.128-6.531-1.271
	c-0.775-0.292-2.109-0.021-2.109-1.046c-0.485-1.561-0.206-2.033,0.182-3.691c1.216-2.341,1.961-3.75,6.855-4.231
	c8.221-0.095,13.656-1.836,19.543-3.641c4.229-1.122,6.676-2.916,13.39-2.524c0.609-1.352,2.453-1.523,3.794-1.157
	c0.292,2.927,2.792,1.891,5.663,0.655c1.313,1.267,3.393,1.29,4.171,2.899c-1.394,0.967-1.703,1.396-3.168,2.292
	c1.919,0.683,2.742-0.487,5.595-3.084c0.344-0.149,1.297-0.958,1.54-1.153c2.042-1.316,3.575-3.021,8.438-3.657
	c2.576-0.487,5.384-0.557,9.714,0.903c-4.036,3.658-5.087,7.242-10.925,9.631c-1.687,0.97-3.664,1.648-5.839,2.127
	c-1.979,0.337-3.595,0.674-3.851,1.689c2.98-0.631,3.764-0.677,4.231,0.154c1.335,5.973,2.924,12.629,3.542,18.775
	c0.729,6.29,0.632,12.499,1.604,18.742c0.632,2.924,3.399,12.272,6.369,15.247c0.257,7.397,3.557,12.79-3.341,22.232
	c-1.04-9.837-4.121-14.823-5.662-14.058c-1.54,0.768,0.917,13.143-6.613,19.712c0.78-9.861-3.138-15.521-5.339-14.559
	s-0.608,12.131-11.091,21.192c-0.097-15.68,0.882-13.973-1.825-11.386C67.418,170.707,62.71,176.802,59.418,180.297z M99.538,83.545
	c-0.032-0.031,1.018-0.895,1.73-0.942c3.996-1.964,3.962-3.658,0.18-2.638c-1.914,0.275-8.697,5.48-10.196,5.945
	c-1.224,1.125,1.632,0.842,2.134,0.614c-0.625,0.32-1.235,0.733-2.037,0.843c-2.138,0.633-1.75-1.512-0.775-1.951
	c3.16-0.73,6.711-4.291,10.603-6.096c2.966-1.022,4.572-0.047,3.647,1.511c-0.776,1.461-2.576,1.902-3.987,2.291
	c-0.894,0.467-1.117,0.714-1.224,1.291c-0.242-0.32-0.357-0.282-0.071-0.868H99.538z M40.986,89.841
	c0.859-0.961,0.838-1.585,0.055-1.412c-1.322,0.878-2.545,1.698-3.705,2.6c-0.813-0.263-0.681,0.99-0.401,1.348
	c-0.738,0.159-0.847-0.572-0.409-1.742c1.653-0.681,2.819-1.755,4.279-2.633C43.089,87.566,42.067,89.463,40.986,89.841z"/>
<path fill="none" stroke="#010101" stroke-width="1.7487" d="M59.418,180.297c0.034-6.01-1.996-11.088,4.484-20.945
	c-4.848,6.08-9.935,4.301-10.88,6.533c-1.371-12.179,1.948-10.756,10.155-22.696c-6.184,4.301-10.82,4.396-12.661,7.781
	c3.114-14.027,1.078-17.398,11.073-22.842c-2.061,0.156-10.462,3.057-13.237,6.4c-2.724-2.133,0.064-6.502,1.606-8.727
	c2.138-2.781,3.752-4.059,6.524-6.789c2.994-3.589,6.056-7.871,8.272-12.591c3.556,0.711,4.696-0.42,4.592-1.969
	c-1.899,1.144-2.86,1.284-3.96,0.738c-1.687-0.883-3.376-1.765-5.065-2.649c-3.891-1.659-8.135-3.165-13.098-3.115
	c-3.015-0.291-6.769,0.529-8.859,0.237c-1.531,0-1.843-1.767-2.286-3.432c1.633,1.409,5.894,1.865,6.716,0.135
	c-3.08,0.365-4.601,0.128-6.531-1.271c-0.775-0.292-2.109-0.021-2.109-1.046c-0.485-1.561-0.206-2.033,0.182-3.691
	c1.216-2.341,1.961-3.75,6.855-4.231c8.221-0.095,13.656-1.836,19.543-3.641c4.229-1.122,6.676-2.916,13.39-2.524
	c0.609-1.352,2.453-1.523,3.794-1.157c0.292,2.927,2.792,1.891,5.663,0.655c1.313,1.267,3.393,1.29,4.171,2.899
	c-1.394,0.967-1.703,1.396-3.168,2.292c1.919,0.683,2.742-0.487,5.595-3.084c0.344-0.149,1.297-0.958,1.54-1.153
	c2.042-1.316,3.575-3.021,8.438-3.657c2.576-0.487,5.384-0.557,9.714,0.903c-4.036,3.658-5.087,7.242-10.925,9.631
	c-1.687,0.97-3.664,1.648-5.839,2.127c-1.979,0.337-3.595,0.674-3.851,1.689c2.98-0.631,3.764-0.677,4.231,0.154
	c1.335,5.973,2.924,12.629,3.542,18.775c0.729,6.29,0.632,12.499,1.604,18.742c0.632,2.924,3.399,12.272,6.369,15.247
	c0.257,7.397,3.557,12.79-3.341,22.232c-1.04-9.837-4.121-14.823-5.662-14.058c-1.54,0.768,0.917,13.143-6.613,19.712
	c0.78-9.861-3.138-15.521-5.339-14.559s-0.608,12.131-11.091,21.192c-0.097-15.68,0.882-13.973-1.825-11.386
	C67.418,170.707,62.71,176.802,59.418,180.297z M99.538,83.545c-0.032-0.031,1.018-0.895,1.73-0.942
	c3.996-1.964,3.962-3.658,0.18-2.638c-1.914,0.275-8.697,5.48-10.196,5.945c-1.224,1.125,1.632,0.842,2.134,0.614
	c-0.625,0.32-1.235,0.733-2.037,0.843c-2.138,0.633-1.75-1.512-0.775-1.951c3.16-0.73,6.711-4.291,10.603-6.096
	c2.966-1.022,4.572-0.047,3.647,1.511c-0.776,1.461-2.576,1.902-3.987,2.291c-0.894,0.467-1.117,0.714-1.224,1.291
	c-0.242-0.32-0.357-0.282-0.071-0.868H99.538z M40.986,89.841c0.859-0.961,0.838-1.585,0.055-1.412
	c-1.322,0.878-2.545,1.698-3.705,2.6c-0.813-0.263-0.681,0.99-0.401,1.348c-0.738,0.159-0.847-0.572-0.409-1.742
	c1.653-0.681,2.819-1.755,4.279-2.633C43.089,87.566,42.067,89.463,40.986,89.841z"/>
<path fill="#FFFFFF" d="M69.087,86.054c0.001,0.79-0.612,1.43-1.369,1.431s-1.371-0.639-1.372-1.428v-0.003
	c-0.001-0.789,0.612-1.429,1.37-1.43c0.757-0.001,1.371,0.638,1.371,1.427V86.054z"/>
<path fill="none" stroke="#010101" stroke-width="0.8905" d="M69.087,86.054c0.001,0.79-0.612,1.43-1.369,1.431
	s-1.371-0.639-1.372-1.428v-0.003c-0.001-0.789,0.612-1.429,1.37-1.43c0.757-0.001,1.371,0.638,1.371,1.427V86.054z"/>
<path fill="none" stroke="#010101" stroke-width="1.7487" d="M62.829,88.879c1.318-4.564,1.201-4.64,4.352-4.638
	c3.149,0.002,9.567,0.082,9.567,0.082s-4.677,1.466-6.949,2.908C67.525,88.673,68.072,88.979,62.829,88.879z"/>
<radialGradient id="SVGID_27_" cx="-47.9072" cy="-43.3721" r="1.0001" gradientTransform="matrix(45.9548 0 0 -45.9548 2590.2847 -1942.5928)" gradientUnits="userSpaceOnUse">
	<stop  offset="0" style="stop-color:#FFD56D"/>
	<stop  offset="1" style="stop-color:#FBAF41"/>
</radialGradient>
<path fill="url(#SVGID_27_)" d="M346.42,79.094c0.534-0.73,0.728-4.6-3.939-6.308c-2.676-0.584-4.901-1.869-6.75-4.749
	c-1.993-2.586-3.598-4.889-4.423-9.083c-0.675-2.486-0.059-4.892,1.874-2.709c0.737,1.07,1.274,2.149,1.956,3.369
	c1.897,3.122,4.175,6.295,6.9,8.784c1.563,1.706,3.847,4.981,9.903,3.463c2.868-0.536,5.63-3.108,7.233-5.74
	c1.409-2.73,0.923-5.748,1.024-8.478c-0.339-3.366-0.344-6.545-2.143-9.275c-0.485-1.95,0.423-2.32,1.783-0.896
	c2.334,2.291,2.931,4.065,3.711,6.604c0.583,4.73,0.926,9.747,0.391,14.721c1.166,0.047,2.408,0.288,3.577,0.288
	c4.572,0.241,8.502-0.487,12.442-1.756c3.696-1.12,5.827-2.044,7.824-3.997c1.798-1.511,3.491-4.229,4.464-6.57
	c0.775-2.439,0.88-4.837,1.464-7.473c0.438-1.805,2.132-3.472,3.393-0.456c0.353,2.536-0.092,4.036-0.969,6.718
	c-0.533,1.512-3.728,8.86-6.108,12.618c1.306,1.447,6.623,0.33,8.617-0.596c1.604-1.021,3.915-2.429,5.568-3.5
	c1.458-1.364,2.686-2.824,4.181-5.217c1.556-3.197,2.094-5.543,0.584-10.862c-1.458-5.024-3.694-9.178-5.496-13.91
	c-0.193-2.32,0.467-4.263,3.738-1.526c1.119,2.536,2.29,4.688,3.215,7.37c1.848,3.561,2.867,7.456,4.326,11.066
	c1.174,3.368,4.252,3.281,6.234-0.525c1.75-3.463,2.479-7.895,2.72-11.308c0.048-6.096,0.637-10.989,1.367-16.453
	c0.911-1.634,1.385-3.887,3.394-0.056c0.977,4.094,0.95,6.701,0.494,12.605c-1.069,4.585-2.143,8.592-2.531,13.615
	c-1.202,3.786,0.799,4.751,2.844,3.971c2.382-1.267,3.39-2.673,4.507-4.087c2.432-3.266,3.751-6.35,5.653-9.958
	c1.18-1.098,2.713-0.897,2.119,3.045c-1.897,5.168-4.431,9.332-9.44,14.161c-2.386,2.069-0.89,4.528,2.078,3.62
	c3.6-0.877,5.974-2.585,8.846-3.901c1.119-0.634,2.346-1.516,3.283,0.6c-0.144,1.755-0.733,2.372-4.39,4.265
	c-8.074,2.828-12.945,2.538-21.116,3.416c-6.712,1.317-10.794,2.245-17.898,5.757c-4.328,1.608-7.015,3.753-12.562,4.827
	c-4.133-0.047-11.133-1.416-16.824-1.66c-6.808-0.486-9.617-0.37-17.983,6.115c-3.686,2.22-5.689,1.94-5.562-0.235l-3.589,0.287"/>
<path fill="none" stroke="#010101" stroke-width="0.8905" d="M346.42,79.094c0.534-0.73,0.728-4.6-3.939-6.308
	c-2.676-0.584-4.901-1.869-6.75-4.749c-1.993-2.586-3.598-4.889-4.423-9.083c-0.675-2.486-0.059-4.892,1.874-2.709
	c0.737,1.07,1.274,2.149,1.956,3.369c1.897,3.122,4.175,6.295,6.9,8.784c1.563,1.706,3.847,4.981,9.903,3.463
	c2.868-0.536,5.63-3.108,7.233-5.74c1.409-2.73,0.923-5.748,1.024-8.478c-0.339-3.366-0.344-6.545-2.143-9.275
	c-0.485-1.95,0.423-2.32,1.783-0.896c2.334,2.291,2.931,4.065,3.711,6.604c0.583,4.73,0.926,9.747,0.391,14.721
	c1.166,0.047,2.408,0.288,3.577,0.288c4.572,0.241,8.502-0.487,12.442-1.756c3.696-1.12,5.827-2.044,7.824-3.997
	c1.798-1.511,3.491-4.229,4.464-6.57c0.775-2.439,0.88-4.837,1.464-7.473c0.438-1.805,2.132-3.472,3.393-0.456
	c0.353,2.536-0.092,4.036-0.969,6.718c-0.533,1.512-3.728,8.86-6.108,12.618c1.306,1.447,6.623,0.33,8.617-0.596
	c1.604-1.021,3.915-2.429,5.568-3.5c1.458-1.364,2.686-2.824,4.181-5.217c1.556-3.197,2.094-5.543,0.584-10.862
	c-1.458-5.024-3.694-9.178-5.496-13.91c-0.193-2.32,0.467-4.263,3.738-1.526c1.119,2.536,2.29,4.688,3.215,7.37
	c1.848,3.561,2.867,7.456,4.326,11.066c1.174,3.368,4.252,3.281,6.234-0.525c1.75-3.463,2.479-7.895,2.72-11.308
	c0.048-6.096,0.637-10.989,1.367-16.453c0.911-1.634,1.385-3.887,3.394-0.056c0.977,4.094,0.95,6.701,0.494,12.605
	c-1.069,4.585-2.143,8.592-2.531,13.615c-1.202,3.786,0.799,4.751,2.844,3.971c2.382-1.267,3.39-2.673,4.507-4.087
	c2.432-3.266,3.751-6.35,5.653-9.958c1.18-1.098,2.713-0.897,2.119,3.045c-1.897,5.168-4.431,9.332-9.44,14.161
	c-2.386,2.069-0.89,4.528,2.078,3.62c3.6-0.877,5.974-2.585,8.846-3.901c1.119-0.634,2.346-1.516,3.283,0.6
	c-0.144,1.755-0.733,2.372-4.39,4.265c-8.074,2.828-12.945,2.538-21.116,3.416c-6.712,1.317-10.794,2.245-17.898,5.757
	c-4.328,1.608-7.015,3.753-12.562,4.827c-4.133-0.047-11.133-1.416-16.824-1.66c-6.808-0.486-9.617-0.37-17.983,6.115
	c-3.686,2.22-5.689,1.94-5.562-0.235l-3.589,0.287"/>
<radialGradient id="SVGID_28_" cx="-47.9077" cy="-43.3721" r="1.0001" gradientTransform="matrix(34.626 0 0 -34.626 2100.0464 -1254.7429)" gradientUnits="userSpaceOnUse">
	<stop  offset="0" style="stop-color:#D1D3D4"/>
	<stop  offset="1" style="stop-color:#FFFFFF"/>
</radialGradient>
<path fill="url(#SVGID_28_)" d="M456.558,211.994c0.393,4.033-0.062,9.639,1.291,13.779c0.291,1.9,2.401,3.734,0.648,6.661
	l-6.968,11.988l-5.921,10.594l-4.682,10.226c-0.825,3.806-2.625,6.113-1.75,11.576c0.631,2.925-0.474,2.612-1.736,2.759
	c-2.571-0.189-2.214,1.843-2.354,3.12c-0.387,3.363-0.355,5.614-1.96,8.347c-0.973,2.486-10.856,1.705-9.865-0.427
	c1.337-2.242,2.054-3.219,2.686-5.854c1.02-0.38,3.43-0.491,1.436-3.662l2.869-7.383l3.847-8.486l5.6-13.403
	c1.798-5.168,3.35-10.82,4.422-16.286c0.972-4.194,0.983-5.745,0.35-9.842c-0.825-4.291-1.659-8.243-4.043-12.242
	c-2.177-3.376-3.055-11.78-6.86-11.763c7.509-1.518,16.236,6.586,22.992,10.295V211.994z M453.877,227.36
	c0.158,3.544-0.289,4.462-1.793,8.618C453.503,234.79,455.817,230.637,453.877,227.36z"/>
<path fill="none" stroke="#010101" stroke-width="1.7487" d="M456.558,211.994c0.393,4.033-0.062,9.639,1.291,13.779
	c0.291,1.9,2.401,3.734,0.648,6.661l-6.968,11.988l-5.921,10.594l-4.682,10.226c-0.825,3.806-2.625,6.113-1.75,11.576
	c0.631,2.925-0.474,2.612-1.736,2.759c-2.571-0.189-2.214,1.843-2.354,3.12c-0.387,3.363-0.355,5.614-1.96,8.347
	c-0.973,2.486-10.856,1.705-9.865-0.427c1.337-2.242,2.054-3.219,2.686-5.854c1.02-0.38,3.43-0.491,1.436-3.662l2.869-7.383
	l3.847-8.486l5.6-13.403c1.798-5.168,3.35-10.82,4.422-16.286c0.972-4.194,0.983-5.745,0.35-9.842
	c-0.825-4.291-1.659-8.243-4.043-12.242c-2.177-3.376-3.055-11.78-6.86-11.763c7.509-1.518,16.236,6.586,22.992,10.295V211.994z
	 M453.877,227.36c0.158,3.544-0.289,4.462-1.793,8.618C453.503,234.79,455.817,230.637,453.877,227.36z"/>
<radialGradient id="SVGID_29_" cx="-47.9077" cy="-43.3721" r="0.9998" gradientTransform="matrix(29.7507 0 0 -29.7507 1751.3273 -1063.6448)" gradientUnits="userSpaceOnUse">
	<stop  offset="0" style="stop-color:#D1D3D4"/>
	<stop  offset="1" style="stop-color:#FFFFFF"/>
</radialGradient>
<path fill="url(#SVGID_29_)" d="M348.597,207.607c-4.946,1.383-11.223,2.358-16.301,2.61c-8.319,0.827-14.051,2.063-18.43,4.89
	c-4.766,5.366-4.643,11.93-3.521,17.832c0.775,3.119,1.778,6.849,5.379,8.653c2.267,0.308,1.732,0.228,1.017,2.792
	c-0.534,3.658,1.309,5.287,2.769,5.92c0.438,0.242,1.043,0.297,1.384,1.225c0.226,4.201,0.194,7.064-1.263,10.283
	c-0.76,0.906-1.352,0.045-2.051-0.197l-3.57-3.432c-0.189-1.71-0.043-2.216,0.225-3.43c-0.742,0.025-1.058,0.839-1.134,2.479
	c-2.902-3.431-5.542-8.404-7.482-12.781c-1.024-3.805-0.177-7.055-0.664-11.006c-0.241-2.684-1.271-5.345-1.32-8.661l-0.158-11.229
	c0.729-3.852,2.526-5.334,7.099-7.967c5.352-3.123,13.482-5.936,18.64-9.399c0.423-0.354,2.882-1.324,5.349-4.997L348.597,207.607z"
	/>
<path fill="none" stroke="#010101" stroke-width="1.7487" d="M348.597,207.607c-4.946,1.383-11.223,2.358-16.301,2.61
	c-8.319,0.827-14.051,2.063-18.43,4.89c-4.766,5.366-4.643,11.93-3.521,17.832c0.775,3.119,1.778,6.849,5.379,8.653
	c2.267,0.308,1.732,0.228,1.017,2.792c-0.534,3.658,1.309,5.287,2.769,5.92c0.438,0.242,1.043,0.297,1.384,1.225
	c0.226,4.201,0.194,7.064-1.263,10.283c-0.76,0.906-1.352,0.045-2.051-0.197l-3.57-3.432c-0.189-1.71-0.043-2.216,0.225-3.43
	c-0.742,0.025-1.058,0.839-1.134,2.479c-2.902-3.431-5.542-8.404-7.482-12.781c-1.024-3.805-0.177-7.055-0.664-11.006
	c-0.241-2.684-1.271-5.345-1.32-8.661l-0.158-11.229c0.729-3.852,2.526-5.334,7.099-7.967c5.352-3.123,13.482-5.936,18.64-9.399
	c0.423-0.354,2.882-1.324,5.349-4.997L348.597,207.607z"/>
<radialGradient id="SVGID_30_" cx="-47.9082" cy="-43.3721" r="1" gradientTransform="matrix(79.1493 0 0 -79.1493 4201.3159 -3215.552)" gradientUnits="userSpaceOnUse">
	<stop  offset="0" style="stop-color:#D1D3D4"/>
	<stop  offset="1" style="stop-color:#FFFFFF"/>
</radialGradient>
<path fill="url(#SVGID_30_)" d="M333.793,190.943c-0.449-2.904-2.317-8.473-3.207-12.677c5.552-1.593,9.177-58.457,45.018-34.573
	c3.5,4.632,8.336,6.248,14.418,7.32c8.755,0.878,17.123,2.237,26.317,2.772c7.83,0,15.714,0.091,23.593,0.141
	c8.268,0.291,14.38,2.296,20.655,6.104c3.113,1.999,5.847,3.966,8.476,7.138c2.626,3.168,4.581,6.453,5.801,10.6
	c0.679,3.122-0.229,5.067-1.154,7.703c-0.516,1.127-1.224,1.852-2.013,2.287c0.278-3.871-0.954-5.563-2.473-6.344
	c1.274,2.688,1.575,4.668,1.165,6.832c0,3.168,0.671,7.082,1.253,10.301c0.777,4.536,1.999,8.336,4.093,12.336
	c3.063,5.852,5.381,8.91,9.029,12.617c1.993,1.755,3.714,2.557,3.373,5.531c-0.582,3.122-0.783,5.577-0.833,9.43
	c-0.435,5.361-0.236,10.639-0.286,16.004l0.242,13.651c0.046,3.705-0.134,7.518,0.739,11.272c0.826,2.925-0.454,3.055-1.767,4.177
	c-2.14,2.536-1.166,7.586-3.988,10.952c-0.803,1.084-4.878,2.062-7.837,2.13c-0.417-0.823,0.215-2.386,0.47-2.941
	c-1.059-0.185-1.606,1.447-2.041,2.873c-1.377-0.181-2.087-0.724-1.26-1.781l3.81-4.586c0.871,0.183,2.792,0.028,3.327-0.817
	c-0.55-0.003-1.496,0.075-1.771-0.501c0.625-0.957,1.545-2.275,1.758-3.464c0.825-3.071,1.026-6.573,1.073-9.744l-0.198-20.633
	c-0.388-5.219-0.588-10.335-1.707-15.408c-1.411-4.78-3.253-9.192-5.832-12.947c-2.967-3.658-6.707-6.751-9.92-9.143
	c-10.302-6.509-21.899-7.128-31.183-22.475c8.889,11.531,8.943,10.053-8.999,13.723c-5.593,1.169-9.782,1.207-14.745,1.793
	c-3.745,0.193-7.58,0.063-11.276,0.014c-6.568,0-12.677,0.74-19.243,0.35c-1.02-0.318-2.264-0.623-3.329-0.805
	c0.585-2.623,0.658-6.061,0.157-6.9c-0.282,1.725-1.212,4.593-1.624,6.723l-3.765,17.434c-1.604,6.049-0.562,11.752-0.902,17.412
	c-0.764,4.73-2.032,5.459-2.633,8.336c-0.341,3.46-0.283,7.557-0.04,11.653c0.095,5.413,1.36,9.797,2.383,14.821
	c0.193,0.925-0.015,1.828,1.055,2.951c-1.29,0.9-2.131,0.508-3.203,0.996l-0.972,9.075c-0.974,2.047-2.983,2.28-5.222,3.06
	c-2.069,0.705-3.827,1.22-5.677,0.997c0.137-0.394,1-1.703,0.714-2.589c-0.729,1.032-1.668,2.587-2.079,2.103
	c-0.648-0.06-0.989-0.159-1.645-0.812c2.385-2.545,4.008-3.873,5.711-7.825c1.623-0.166,3.688-2.729,3.278-2.793
	c-1.088,0.712-2.179,1.651-2.766,1.46l0.843-2.515c1.02-5.999,2.465-10.779,2.318-17.852c0.144-7.072-2.579-7.805-1.994-20.341
	l-0.259-6.669c-0.29-5.315-0.366-10.632-0.607-15.949c-0.291-3.316-0.249-4.923-3.363-14.29c-0.696-1.599-1.895-3.199-1.973-5.138
	c-0.768,1.381-0.131,3.325,0.222,4.817c-0.973-0.009-1.866,0.195-2.768-0.625c-5.212-2.881-13.373-8.764-14.745-16.765
	L333.793,190.943z M481.734,229.008c1.821,0.74,2.317,2.737,2.982,7.068C484.974,234.323,485.109,226.973,481.734,229.008z"/>
<path fill="none" stroke="#010101" stroke-width="1.7487" d="M333.793,190.943c-0.449-2.904-2.317-8.473-3.207-12.677
	c5.552-1.593,9.177-58.457,45.018-34.573c3.5,4.632,8.336,6.248,14.418,7.32c8.755,0.878,17.123,2.237,26.317,2.772
	c7.83,0,15.714,0.091,23.593,0.141c8.268,0.291,14.38,2.296,20.655,6.104c3.113,1.999,5.847,3.966,8.476,7.138
	c2.626,3.168,4.581,6.453,5.801,10.6c0.679,3.122-0.229,5.067-1.154,7.703c-0.516,1.127-1.224,1.852-2.013,2.287
	c0.278-3.871-0.954-5.563-2.473-6.344c1.274,2.688,1.575,4.668,1.165,6.832c0,3.168,0.671,7.082,1.253,10.301
	c0.777,4.536,1.999,8.336,4.093,12.336c3.063,5.852,5.381,8.91,9.029,12.617c1.993,1.755,3.714,2.557,3.373,5.531
	c-0.582,3.122-0.783,5.577-0.833,9.43c-0.435,5.361-0.236,10.639-0.286,16.004l0.242,13.651c0.046,3.705-0.134,7.518,0.739,11.272
	c0.826,2.925-0.454,3.055-1.767,4.177c-2.14,2.536-1.166,7.586-3.988,10.952c-0.803,1.084-4.878,2.062-7.837,2.13
	c-0.417-0.823,0.215-2.386,0.47-2.941c-1.059-0.185-1.606,1.447-2.041,2.873c-1.377-0.181-2.087-0.724-1.26-1.781l3.81-4.586
	c0.871,0.183,2.792,0.028,3.327-0.817c-0.55-0.003-1.496,0.075-1.771-0.501c0.625-0.957,1.545-2.275,1.758-3.464
	c0.825-3.071,1.026-6.573,1.073-9.744l-0.198-20.633c-0.388-5.219-0.588-10.335-1.707-15.408c-1.411-4.78-3.253-9.192-5.832-12.947
	c-2.967-3.658-6.707-6.751-9.92-9.143c-10.302-6.509-21.899-7.128-31.183-22.475c8.889,11.531,8.943,10.053-8.999,13.723
	c-5.593,1.169-9.782,1.207-14.745,1.793c-3.745,0.193-7.58,0.063-11.276,0.014c-6.568,0-12.677,0.74-19.243,0.35
	c-1.02-0.318-2.264-0.623-3.329-0.805c0.585-2.623,0.658-6.061,0.157-6.9c-0.282,1.725-1.212,4.593-1.624,6.723l-3.765,17.434
	c-1.604,6.049-0.562,11.752-0.902,17.412c-0.764,4.73-2.032,5.459-2.633,8.336c-0.341,3.46-0.283,7.557-0.04,11.653
	c0.095,5.413,1.36,9.797,2.383,14.821c0.193,0.925-0.015,1.828,1.055,2.951c-1.29,0.9-2.131,0.508-3.203,0.996l-0.972,9.075
	c-0.974,2.047-2.983,2.28-5.222,3.06c-2.069,0.705-3.827,1.22-5.677,0.997c0.137-0.394,1-1.703,0.714-2.589
	c-0.729,1.032-1.668,2.587-2.079,2.103c-0.648-0.06-0.989-0.159-1.645-0.812c2.385-2.545,4.008-3.873,5.711-7.825
	c1.623-0.166,3.688-2.729,3.278-2.793c-1.088,0.712-2.179,1.651-2.766,1.46l0.843-2.515c1.02-5.999,2.465-10.779,2.318-17.852
	c0.144-7.072-2.579-7.805-1.994-20.341l-0.259-6.669c-0.29-5.315-0.366-10.632-0.607-15.949c-0.291-3.316-0.249-4.923-3.363-14.29
	c-0.696-1.599-1.895-3.199-1.973-5.138c-0.768,1.381-0.131,3.325,0.222,4.817c-0.973-0.009-1.866,0.195-2.768-0.625
	c-5.212-2.881-13.373-8.764-14.745-16.765L333.793,190.943z M481.734,229.008c1.821,0.74,2.317,2.737,2.982,7.068
	C484.974,234.323,485.109,226.973,481.734,229.008z"/>
<radialGradient id="SVGID_31_" cx="-47.9067" cy="-43.3721" r="1" gradientTransform="matrix(5.4002 0 0 -5.4002 576.1693 21.2307)" gradientUnits="userSpaceOnUse">
	<stop  offset="0" style="stop-color:#FFD56D"/>
	<stop  offset="1" style="stop-color:#FBAF41"/>
</radialGradient>
<path fill="url(#SVGID_31_)" d="M320.893,251.529c-0.341-0.928-0.946-0.982-1.384-1.225c-0.673-0.291-1.417-0.809-1.982-1.624
	c-1.772,2.392-3.293,6.073-3.293,6.073c-0.268,1.214-0.414,1.72-0.225,3.43l3.57,3.432c0.699,0.242,1.291,1.104,2.051,0.197
	C321.087,258.594,321.119,255.73,320.893,251.529z"/>
<path fill="none" stroke="#010101" stroke-width="1.7487" d="M320.893,251.529c-0.341-0.928-0.946-0.982-1.384-1.225
	c-0.673-0.291-1.417-0.809-1.982-1.624c-1.772,2.392-3.293,6.073-3.293,6.073c-0.268,1.214-0.414,1.72-0.225,3.43l3.57,3.432
	c0.699,0.242,1.291,1.104,2.051,0.197C321.087,258.594,321.119,255.73,320.893,251.529z"/>
<radialGradient id="SVGID_32_" cx="-47.9082" cy="-43.3721" r="1.0001" gradientTransform="matrix(7.0292 0 0 -7.0292 694.0812 -14.6971)" gradientUnits="userSpaceOnUse">
	<stop  offset="0" style="stop-color:#FFD56D"/>
	<stop  offset="1" style="stop-color:#FBAF41"/>
</radialGradient>
<path fill="url(#SVGID_32_)" d="M355.6,287.589c-1.703,3.952-3.326,5.28-5.711,7.825c0.655,0.652,0.996,0.752,1.645,0.812
	c0.411,0.484,1.351-1.07,2.079-2.103c0.286,0.886-0.577,2.195-0.714,2.589c1.85,0.223,3.607-0.292,5.677-0.997
	c2.238-0.779,4.248-1.013,5.222-3.06l0.972-9.075c0,0-2.322,1.253-5.891,1.216C359.288,284.86,357.223,287.423,355.6,287.589z"/>
<path fill="none" stroke="#010101" stroke-width="1.7487" d="M355.6,287.589c-1.703,3.952-3.326,5.28-5.711,7.825
	c0.655,0.652,0.996,0.752,1.645,0.812c0.411,0.484,1.351-1.07,2.079-2.103c0.286,0.886-0.577,2.195-0.714,2.589
	c1.85,0.223,3.607-0.292,5.677-0.997c2.238-0.779,4.248-1.013,5.222-3.06l0.972-9.075c0,0-2.322,1.253-5.891,1.216
	C359.288,284.86,357.223,287.423,355.6,287.589z"/>
<radialGradient id="SVGID_33_" cx="-47.9067" cy="-43.3721" r="1" gradientTransform="matrix(6.1741 0 0 -6.1741 725.1507 18.6323)" gradientUnits="userSpaceOnUse">
	<stop  offset="0" style="stop-color:#FFD56D"/>
	<stop  offset="1" style="stop-color:#FBAF41"/>
</radialGradient>
<path fill="url(#SVGID_33_)" d="M435.538,280.241c0,0-4.352,3.383-7.477,3.339h-0.002c-0.325,0.813-1.482,0.948-2.112,1.183
	c-0.632,2.636-1.349,3.612-2.686,5.854c-0.991,2.132,8.893,2.913,9.865,0.427c1.604-2.732,1.573-4.983,1.96-8.347
	C435.17,281.936,435.082,280.908,435.538,280.241z"/>
<path fill="none" stroke="#010101" stroke-width="1.7487" d="M435.538,280.241c0,0-4.352,3.383-7.477,3.339h-0.002
	c-0.325,0.813-1.482,0.948-2.112,1.183c-0.632,2.636-1.349,3.612-2.686,5.854c-0.991,2.132,8.893,2.913,9.865,0.427
	c1.604-2.732,1.573-4.983,1.96-8.347C435.17,281.936,435.082,280.908,435.538,280.241z"/>
<radialGradient id="SVGID_34_" cx="-47.9087" cy="-43.3726" r="1.0002" gradientTransform="matrix(6.2393 0 0 -6.2393 777.0891 20.6064)" gradientUnits="userSpaceOnUse">
	<stop  offset="0" style="stop-color:#FFD56D"/>
	<stop  offset="1" style="stop-color:#FBAF41"/>
</radialGradient>
<path fill="url(#SVGID_34_)" d="M482.245,294.518c2.141-2.554,2.1-6.074,2.888-8.732c-2.367,1.115-5.229,3.004-6.419,3.609
	c-0.535,0.846-2.456,1-3.327,0.817l-3.81,4.586c-0.827,1.058-0.117,1.601,1.26,1.781c0.435-1.426,0.982-3.058,2.041-2.873
	c-0.255,0.556-0.887,2.118-0.47,2.941C477.367,296.579,481.442,295.602,482.245,294.518z"/>
<path fill="none" stroke="#010101" stroke-width="1.7487" d="M482.245,294.518c2.141-2.554,2.1-6.074,2.888-8.732
	c-2.367,1.115-5.229,3.004-6.419,3.609c-0.535,0.846-2.456,1-3.327,0.817l-3.81,4.586c-0.827,1.058-0.117,1.601,1.26,1.781
	c0.435-1.426,0.982-3.058,2.041-2.873c-0.255,0.556-0.887,2.118-0.47,2.941C477.367,296.579,481.442,295.602,482.245,294.518z"/>
<radialGradient id="SVGID_35_" cx="-47.9072" cy="-43.3721" r="1.0001" gradientTransform="matrix(45.4949 0 0 -45.4949 2521.6067 -1844.8501)" gradientUnits="userSpaceOnUse">
	<stop  offset="0" style="stop-color:#D1D3D4"/>
	<stop  offset="1" style="stop-color:#FFFFFF"/>
</radialGradient>
<path fill="url(#SVGID_35_)" d="M329.594,180.297c0.034-6.01-1.996-11.088,4.484-20.945c-4.848,6.08-9.935,4.301-10.88,6.533
	c-1.371-12.179,1.948-10.756,10.155-22.696c-6.184,4.301-10.82,4.396-12.661,7.781c3.114-14.027,1.078-17.398,11.073-22.842
	c-2.061,0.156-10.462,3.057-13.237,6.4c-2.724-2.133,0.064-6.502,1.606-8.727c2.138-2.781,3.752-4.059,6.524-6.789
	c2.994-3.589,6.056-7.871,8.272-12.591c3.556,0.711,4.696-0.42,4.592-1.969c-1.899,1.144-2.86,1.284-3.96,0.738
	c-1.687-0.883-3.376-1.765-5.065-2.649c-3.891-1.659-8.135-3.165-13.098-3.115c-3.015-0.291-6.769,0.529-8.859,0.237
	c-1.531,0-1.843-1.767-2.286-3.432c1.633,1.409,5.894,1.865,6.716,0.135c-3.08,0.365-4.601,0.128-6.531-1.271
	c-0.775-0.292-2.109-0.021-2.109-1.046c-0.485-1.561-0.206-2.033,0.182-3.691c1.216-2.341,1.961-3.75,6.855-4.231
	c8.221-0.095,13.656-1.836,19.543-3.641c4.229-1.122,6.676-2.916,13.39-2.524c0.609-1.352,2.453-1.523,3.794-1.157
	c0.292,2.927,2.792,1.891,5.663,0.655c1.313,1.267,3.393,1.29,4.171,2.899c-1.394,0.967-1.703,1.396-3.168,2.292
	c1.919,0.683,2.742-0.487,5.595-3.084c0.344-0.149,1.297-0.958,1.54-1.153c2.042-1.316,3.575-3.021,8.438-3.657
	c2.576-0.487,5.384-0.557,9.714,0.903c-4.036,3.658-5.087,7.242-10.925,9.631c-1.687,0.97-3.664,1.648-5.839,2.127
	c-1.979,0.337-3.595,0.674-3.851,1.689c2.98-0.631,3.764-0.677,4.231,0.154c1.335,5.973,2.924,12.629,3.542,18.775
	c0.729,6.29,0.632,12.499,1.604,18.742c0.632,2.924,3.399,12.272,6.369,15.247c0.257,7.397,3.557,12.79-3.341,22.232
	c-1.04-9.837-4.121-14.823-5.662-14.058c-1.54,0.768,0.917,13.143-6.613,19.712c0.78-9.861-3.138-15.521-5.339-14.559
	s-0.608,12.131-11.091,21.192c-0.097-15.68,0.882-13.973-1.825-11.386C337.594,170.707,332.886,176.802,329.594,180.297z
	 M369.713,83.545c-0.032-0.031,1.018-0.895,1.73-0.942c3.996-1.964,3.962-3.658,0.18-2.638c-1.914,0.275-8.697,5.48-10.196,5.945
	c-1.224,1.125,1.632,0.842,2.134,0.614c-0.625,0.32-1.235,0.733-2.037,0.843c-2.138,0.633-1.75-1.512-0.775-1.951
	c3.16-0.73,6.711-4.291,10.603-6.096c2.966-1.022,4.572-0.047,3.647,1.511c-0.776,1.461-2.576,1.902-3.987,2.291
	c-0.894,0.467-1.117,0.714-1.224,1.291c-0.242-0.32-0.357-0.282-0.071-0.868H369.713z M311.162,89.841
	c0.859-0.961,0.838-1.585,0.055-1.412c-1.322,0.878-2.545,1.698-3.705,2.6c-0.813-0.263-0.681,0.99-0.401,1.348
	c-0.738,0.159-0.847-0.572-0.409-1.742c1.653-0.681,2.819-1.755,4.279-2.633C313.265,87.566,312.243,89.463,311.162,89.841z"/>
<path fill="none" stroke="#010101" stroke-width="1.7487" d="M329.594,180.297c0.034-6.01-1.996-11.088,4.484-20.945
	c-4.848,6.08-9.935,4.301-10.88,6.533c-1.371-12.179,1.948-10.756,10.155-22.696c-6.184,4.301-10.82,4.396-12.661,7.781
	c3.114-14.027,1.078-17.398,11.073-22.842c-2.061,0.156-10.462,3.057-13.237,6.4c-2.724-2.133,0.064-6.502,1.606-8.727
	c2.138-2.781,3.752-4.059,6.524-6.789c2.994-3.589,6.056-7.871,8.272-12.591c3.556,0.711,4.696-0.42,4.592-1.969
	c-1.899,1.144-2.86,1.284-3.96,0.738c-1.687-0.883-3.376-1.765-5.065-2.649c-3.891-1.659-8.135-3.165-13.098-3.115
	c-3.015-0.291-6.769,0.529-8.859,0.237c-1.531,0-1.843-1.767-2.286-3.432c1.633,1.409,5.894,1.865,6.716,0.135
	c-3.08,0.365-4.601,0.128-6.531-1.271c-0.775-0.292-2.109-0.021-2.109-1.046c-0.485-1.561-0.206-2.033,0.182-3.691
	c1.216-2.341,1.961-3.75,6.855-4.231c8.221-0.095,13.656-1.836,19.543-3.641c4.229-1.122,6.676-2.916,13.39-2.524
	c0.609-1.352,2.453-1.523,3.794-1.157c0.292,2.927,2.792,1.891,5.663,0.655c1.313,1.267,3.393,1.29,4.171,2.899
	c-1.394,0.967-1.703,1.396-3.168,2.292c1.919,0.683,2.742-0.487,5.595-3.084c0.344-0.149,1.297-0.958,1.54-1.153
	c2.042-1.316,3.575-3.021,8.438-3.657c2.576-0.487,5.384-0.557,9.714,0.903c-4.036,3.658-5.087,7.242-10.925,9.631
	c-1.687,0.97-3.664,1.648-5.839,2.127c-1.979,0.337-3.595,0.674-3.851,1.689c2.98-0.631,3.764-0.677,4.231,0.154
	c1.335,5.973,2.924,12.629,3.542,18.775c0.729,6.29,0.632,12.499,1.604,18.742c0.632,2.924,3.399,12.272,6.369,15.247
	c0.257,7.397,3.557,12.79-3.341,22.232c-1.04-9.837-4.121-14.823-5.662-14.058c-1.54,0.768,0.917,13.143-6.613,19.712
	c0.78-9.861-3.138-15.521-5.339-14.559s-0.608,12.131-11.091,21.192c-0.097-15.68,0.882-13.973-1.825-11.386
	C337.594,170.707,332.886,176.802,329.594,180.297z M369.713,83.545c-0.032-0.031,1.018-0.895,1.73-0.942
	c3.996-1.964,3.962-3.658,0.18-2.638c-1.914,0.275-8.697,5.48-10.196,5.945c-1.224,1.125,1.632,0.842,2.134,0.614
	c-0.625,0.32-1.235,0.733-2.037,0.843c-2.138,0.633-1.75-1.512-0.775-1.951c3.16-0.73,6.711-4.291,10.603-6.096
	c2.966-1.022,4.572-0.047,3.647,1.511c-0.776,1.461-2.576,1.902-3.987,2.291c-0.894,0.467-1.117,0.714-1.224,1.291
	c-0.242-0.32-0.357-0.282-0.071-0.868H369.713z M311.162,89.841c0.859-0.961,0.838-1.585,0.055-1.412
	c-1.322,0.878-2.545,1.698-3.705,2.6c-0.813-0.263-0.681,0.99-0.401,1.348c-0.738,0.159-0.847-0.572-0.409-1.742
	c1.653-0.681,2.819-1.755,4.279-2.633C313.265,87.566,312.243,89.463,311.162,89.841z"/>
<path fill="#FFFFFF" d="M339.263,86.054c0.001,0.79-0.612,1.43-1.369,1.431s-1.371-0.639-1.372-1.428v-0.003
	c-0.001-0.789,0.612-1.429,1.37-1.43c0.757-0.001,1.371,0.638,1.371,1.427V86.054z"/>
<path fill="none" stroke="#010101" stroke-width="0.8905" d="M339.263,86.054c0.001,0.79-0.612,1.43-1.369,1.431
	s-1.371-0.639-1.372-1.428v-0.003c-0.001-0.789,0.612-1.429,1.37-1.43c0.757-0.001,1.371,0.638,1.371,1.427V86.054z"/>
<path fill="none" stroke="#010101" stroke-width="1.7487" d="M333.004,88.879c1.318-4.564,1.201-4.64,4.352-4.638
	c3.149,0.002,9.567,0.082,9.567,0.082s-4.677,1.466-6.949,2.908C337.701,88.673,338.248,88.979,333.004,88.879z"/>
<radialGradient id="SVGID_36_" cx="261.8062" cy="575.5225" r="180.5935" gradientUnits="userSpaceOnUse">
	<stop  offset="0.6316" style="stop-color:#FFFFFF"/>
	<stop  offset="0.7049" style="stop-color:#F4F5F5"/>
	<stop  offset="0.8549" style="stop-color:#EAEBEB"/>
	<stop  offset="1" style="stop-color:#E6E7E8"/>
</radialGradient>
<path display="none" fill="url(#SVGID_36_)" stroke="#000000" stroke-width="3" stroke-miterlimit="10" d="M474.52,493.628
	c0,0-35,101-212.714,101s-212.714-101-212.714-101s-32,43-29,61S84.52,657.416,261.806,657.416S500.52,572.628,503.52,554.628
	S474.52,493.628,474.52,493.628z"/>
<path display="none" fill="none" d="M20.092,554.628c3,18,64.428,102.788,241.714,102.788S500.52,572.628,503.52,554.628"/>
<g display="none">
	
		<text transform="matrix(0.5913 0.5966 -0.8167 0.8096 40.8853 562.8242)" display="inline" font-family="'LucidaCalligraphy-Italic'" font-size="38">H</text>
	
		<text transform="matrix(0.6973 0.4684 -0.6413 0.9546 64.752 586.3994)" display="inline" font-family="'LucidaCalligraphy-Italic'" font-size="38">U</text>
	
		<text transform="matrix(0.7618 0.3538 -0.4844 1.043 91.0112 604.1387)" display="inline" font-family="'LucidaCalligraphy-Italic'" font-size="38">M</text>
	
		<text transform="matrix(0.8004 0.255 -0.3491 1.0957 124.9995 619.6162)" display="inline" font-family="'LucidaCalligraphy-Italic'" font-size="38">A</text>
	
		<text transform="matrix(0.8217 0.1746 -0.239 1.1249 154.9297 629.1357)" display="inline" font-family="'LucidaCalligraphy-Italic'" font-size="38">N</text>
	
		<text transform="matrix(0.8311 0.1222 -0.1673 1.1378 187.2729 635.6895)" display="inline" font-family="'LucidaCalligraphy-Italic'" font-size="38">I</text>
	
		<text transform="matrix(0.8344 0.0967 -0.1325 1.1423 201.5688 637.7607)" display="inline" font-family="'LucidaCalligraphy-Italic'" font-size="38"> </text>
	
		<text transform="matrix(0.8365 0.0763 -0.1044 1.1452 212.1006 638.9795)" display="inline" font-family="'LucidaCalligraphy-Italic'" font-size="38"> </text>
	
		<text transform="matrix(0.8392 0.037 -0.0507 1.1489 222.7427 640.2012)" display="inline" font-family="'LucidaCalligraphy-Italic'" font-size="38">N</text>
	
		<text transform="matrix(0.84 -0.0081 0.011 1.1499 255.6118 641.4854)" display="inline" font-family="'LucidaCalligraphy-Italic'" font-size="38">I</text>
	
		<text transform="matrix(0.8394 -0.0307 0.0421 1.1492 270.0825 641.4648)" display="inline" font-family="'LucidaCalligraphy-Italic'" font-size="38">L</text>
	
		<text transform="matrix(0.8379 -0.0587 0.0804 1.1472 291.4839 640.5947)" display="inline" font-family="'LucidaCalligraphy-Italic'" font-size="38"> </text>
	
		<text transform="matrix(0.8363 -0.0784 0.1073 1.145 302.063 639.8525)" display="inline" font-family="'LucidaCalligraphy-Italic'" font-size="38"> </text>
	
		<text transform="matrix(0.8314 -0.12 0.1643 1.1382 312.7642 639.1133)" display="inline" font-family="'LucidaCalligraphy-Italic'" font-size="38">A</text>
	
		<text transform="matrix(0.8209 -0.1782 0.244 1.1238 343.6938 634.4902)" display="inline" font-family="'LucidaCalligraphy-Italic'" font-size="38">L</text>
	
		<text transform="matrix(0.8101 -0.2219 0.3039 1.1091 364.647 629.8496)" display="inline" font-family="'LucidaCalligraphy-Italic'" font-size="38">I</text>
	
		<text transform="matrix(0.7947 -0.2723 0.3727 1.0879 378.7417 626.1406)" display="inline" font-family="'LucidaCalligraphy-Italic'" font-size="38">E</text>
	
		<text transform="matrix(0.7612 -0.3552 0.4863 1.0421 401.3384 618.6895)" display="inline" font-family="'LucidaCalligraphy-Italic'" font-size="38">N</text>
	
		<text transform="matrix(0.7012 -0.4626 0.6333 0.9599 431.5425 604.585)" display="inline" font-family="'LucidaCalligraphy-Italic'" font-size="38">U</text>
	
		<text transform="matrix(0.5893 -0.5986 0.8195 0.8068 458.5054 587.3477)" display="inline" font-family="'LucidaCalligraphy-Italic'" font-size="38">M</text>
</g>
</svg>
