<?xml version="1.0" encoding="utf-8"?>
<!-- Generator: Adobe Illustrator 15.0.0, SVG Export Plug-In  -->
<!DOCTYPE svg PUBLIC "-//W3C//DTD SVG 1.1//EN" "http://www.w3.org/Graphics/SVG/1.1/DTD/svg11.dtd" [
	<!ENTITY ns_flows "http://ns.adobe.com/Flows/1.0/">
]>
<svg version="1.1"
	 xmlns="http://www.w3.org/2000/svg" xmlns:xlink="http://www.w3.org/1999/xlink" xmlns:a="http://ns.adobe.com/AdobeSVGViewerExtensions/3.0/"
	 x="0px" y="0px" width="524px" height="659px" viewBox="0 0 524 659" enable-background="new 0 0 524 659" xml:space="preserve">
<defs>
</defs>
<linearGradient id="SVGID_2_" gradientUnits="userSpaceOnUse" x1="37.7886" y1="515.3037" x2="92.6829" y2="536.3757">
	<stop  offset="0" style="stop-color:#8B5E3C"/>
	<stop  offset="0.497" style="stop-color:#FDC060"/>
</linearGradient>
<path display="none" fill="url(#SVGID_2_)" stroke="#000000" stroke-width="3" stroke-miterlimit="10" d="M109.092,493.628l-72,70
	c0,0-13.53,0.171-11-15c2.529-15.171,23-55,23-55s1-8,21-9S109.092,493.628,109.092,493.628z"/>
<linearGradient id="SVGID_3_" gradientUnits="userSpaceOnUse" x1="430.9292" y1="536.376" x2="485.8235" y2="515.304">
	<stop  offset="0.503" style="stop-color:#FDC060"/>
	<stop  offset="1" style="stop-color:#8B5E3C"/>
</linearGradient>
<path display="none" fill="url(#SVGID_3_)" stroke="#000000" stroke-width="3" stroke-miterlimit="10" d="M414.52,493.628l72,70
	c0,0,13.529,0.171,11-15s-23-55-23-55s-1-8-21-9S414.52,493.628,414.52,493.628z"/>
<linearGradient id="SVGID_4_" gradientUnits="userSpaceOnUse" x1="1.5" y1="461.1279" x2="107.0923" y2="461.1279">
	<stop  offset="0" style="stop-color:#BCBEC0"/>
	<stop  offset="0.3333" style="stop-color:#E6E7E8"/>
</linearGradient>
<path display="none" fill="url(#SVGID_4_)" stroke="#000000" stroke-width="3" stroke-miterlimit="10" d="M2.092,456.628
	c0-18,7.316-28,35-28s51,8,51,8l19,57c0,0-71.883-16.141-90.941-9.07S2.092,456.628,2.092,456.628z"/>
<linearGradient id="SVGID_5_" gradientUnits="userSpaceOnUse" x1="416.52" y1="461.1279" x2="522.1118" y2="461.1279">
	<stop  offset="0.6316" style="stop-color:#E6E7E8"/>
	<stop  offset="0.6867" style="stop-color:#DBDCDD"/>
	<stop  offset="0.7932" style="stop-color:#CACBCD"/>
	<stop  offset="0.8984" style="stop-color:#BFC1C3"/>
	<stop  offset="1" style="stop-color:#BCBEC0"/>
</linearGradient>
<path display="none" fill="url(#SVGID_5_)" stroke="#000000" stroke-width="3" stroke-miterlimit="10" d="M521.52,456.628
	c0-18-7.316-28-35-28s-51,8-51,8l-19,57c0,0,71.883-16.141,90.941-9.07S521.52,456.628,521.52,456.628z"/>
<path display="none" fill="#FBB040" stroke="#000000" stroke-width="3" stroke-miterlimit="10" d="M2.092,456.628c0,0,8,6,23,6
	c9.731,10.067,11,32,11,58.345c-25-1.345-34-19.345-34-48.345S2.092,456.628,2.092,456.628z"/>
<path display="none" fill="#FBB040" stroke="#000000" stroke-width="3" stroke-miterlimit="10" d="M521.52,456.628c0,0-8,6-23,6
	c-9.731,10.067-11,32-11,58.345c25-1.345,34-19.345,34-48.345S521.52,456.628,521.52,456.628z"/>
<g>
	<defs>
		<path id="SVGID_1_" d="M261.113,3.5H10.092c0,0,0,138.937,0,258.714c0,161.081,140,299,251.714,341
			c118.286-39,251.714-175.92,251.714-337c0-119.778,0-262.714,0-262.714H261.113z"/>
	</defs>
	<radialGradient id="SVGID_6_" cx="261.8062" cy="303.3569" r="276.8339" gradientUnits="userSpaceOnUse">
		<stop  offset="0" style="stop-color:#FFFFFF"/>
		<stop  offset="0.5502" style="stop-color:#FCFCFC"/>
		<stop  offset="0.7864" style="stop-color:#F4F4F5"/>
		<stop  offset="0.9622" style="stop-color:#EAEAEB"/>
		<stop  offset="1" style="stop-color:#E6E7E8"/>
	</radialGradient>
	<use xlink:href="#SVGID_1_"  overflow="visible" fill="url(#SVGID_6_)"/>
	<clipPath id="SVGID_7_">
		<use xlink:href="#SVGID_1_"  overflow="visible"/>
	</clipPath>
	<linearGradient id="SVGID_8_" gradientUnits="userSpaceOnUse" x1="261.8062" y1="3.5" x2="261.8062" y2="123.4429">
		<stop  offset="0" style="stop-color:#262262"/>
		<stop  offset="0.0687" style="stop-color:#282568"/>
		<stop  offset="0.2678" style="stop-color:#2C2A79"/>
		<stop  offset="0.4797" style="stop-color:#2D2D85"/>
		<stop  offset="0.7114" style="stop-color:#2E2F8E"/>
		<stop  offset="1" style="stop-color:#2E3192"/>
	</linearGradient>
	<rect x="10.092" y="3.5" clip-path="url(#SVGID_7_)" fill="url(#SVGID_8_)" width="503.428" height="119.943"/>
	<path clip-path="url(#SVGID_7_)" fill="#ED1C24" d="M477.441,405.962c-16.689,0-30.221-13.529-30.221-30.221
		c0-5.061,1.254-9.824,3.453-14.014l-0.873-0.873c-4.102,2.082-8.74,3.263-13.655,3.263c-16.69,0-30.222-13.531-30.222-30.222
		c0-4.915,1.186-9.548,3.268-13.651l-0.373-0.374c-3.969,1.917-8.41,3.009-13.113,3.009c-16.69,0-30.222-13.531-30.222-30.222
		c0-4.704,1.085-9.149,3.004-13.118l-0.805-0.805c-4.337,2.409-9.325,3.785-14.638,3.785c-16.69,0-30.223-13.531-30.223-30.222
		c0-5.312,1.386-10.294,3.793-14.631l-0.726-0.725c-4.881,3.385-10.804,5.373-17.194,5.373c-16.691,0-30.221-13.531-30.221-30.222
		c0-6.363,1.971-12.264,5.329-17.134c-0.034,0-0.067,0.005-0.103,0.005c-9.351,0-17.257-6.146-19.922-14.618v-6.067l-0.01-0.01
		c-0.014,1.456-0.18,2.875-0.477,4.245c-0.297-1.37-0.463-2.789-0.477-4.245l-0.01,0.01v6.067
		c-2.665,8.471-10.571,14.618-19.922,14.618c-0.035,0-0.068-0.005-0.103-0.005c3.358,4.87,5.329,10.771,5.329,17.134
		c0,16.691-13.53,30.222-30.222,30.222c-6.39,0-12.313-1.988-17.193-5.373l-0.726,0.725c2.407,4.337,3.792,9.319,3.792,14.631
		c0,16.69-13.531,30.222-30.223,30.222c-5.312,0-10.3-1.376-14.637-3.785l-0.805,0.805c1.918,3.969,3.004,8.415,3.004,13.118
		c0,16.691-13.531,30.222-30.222,30.222c-4.703,0-9.145-1.092-13.113-3.009l-0.373,0.374c2.081,4.103,3.267,8.736,3.267,13.651
		c0,16.691-13.53,30.222-30.221,30.222c-4.916,0-9.554-1.181-13.655-3.263l-0.874,0.873c2.2,4.19,3.454,8.954,3.454,14.014
		c0,16.692-13.531,30.221-30.222,30.221c-0.779,0-1.549-0.04-2.313-0.098c12.828,24.875,28.426,48.271,45.838,69.778
		c3.97-1.918,8.423-2.993,13.127-2.993c5.73,0,11.089,1.596,15.654,4.366c-2.898-4.639-4.58-10.117-4.58-15.99
		c0-16.69,13.531-30.222,30.223-30.222c4.995,0,9.702,1.22,13.854,3.365c-2.318-4.276-3.635-9.175-3.635-14.381
		c0-16.69,13.53-30.221,30.222-30.221c6.059,0,11.696,1.79,16.427,4.859c-2.533-4.42-3.989-9.538-3.989-14.998
		c0-16.691,13.531-30.222,30.222-30.222c6.26,0,12.074,1.903,16.898,5.161c-1.759-4.454-2.771-9.624-2.771-15.145
		c0-15.908,8.361-28.936,18.974-30.123c10.611,1.188,18.973,14.215,18.973,30.123c0,5.521-1.012,10.691-2.77,15.145
		c4.824-3.258,10.639-5.161,16.898-5.161c16.69,0,30.221,13.53,30.221,30.222c0,5.46-1.455,10.578-3.988,14.998
		c4.73-3.069,10.368-4.859,16.427-4.859c16.691,0,30.222,13.53,30.222,30.221c0,5.206-1.316,10.104-3.635,14.381
		c4.15-2.146,8.858-3.365,13.854-3.365c16.691,0,30.223,13.531,30.223,30.222c0,5.873-1.682,11.352-4.58,15.99
		c4.565-2.771,9.924-4.366,15.654-4.366c5.266,0,10.215,1.35,14.525,3.717c17.166-21.684,32.336-45.335,44.641-70.521
		C479.126,405.914,478.29,405.962,477.441,405.962z"/>
	<g clip-path="url(#SVGID_7_)">
		<path fill="#FFF200" stroke="#000000" stroke-width="4" stroke-miterlimit="10" d="M313.024,53.829h-39.127l-12.091-37.212
			l-12.091,37.212h-39.128l31.655,22.999l-12.091,37.212l31.654-22.998l31.654,22.998L281.37,76.828L313.024,53.829z
			 M261.806,82.233c-6.022,0-10.905-4.882-10.905-10.905c0-6.022,4.883-10.905,10.905-10.905s10.905,4.882,10.905,10.905
			C272.711,77.351,267.829,82.233,261.806,82.233z"/>
		<path fill="#FFF200" stroke="#000000" stroke-width="4" stroke-miterlimit="10" d="M159.028,53.829h-39.127L107.81,16.617
			L95.719,53.829H56.592l31.654,22.999L76.156,114.04l31.654-22.998l31.654,22.998l-12.091-37.212L159.028,53.829z M107.81,82.233
			c-6.022,0-10.905-4.882-10.905-10.905c0-6.022,4.883-10.905,10.905-10.905s10.905,4.882,10.905,10.905
			C118.715,77.351,113.833,82.233,107.81,82.233z"/>
		<path fill="#FFF200" stroke="#000000" stroke-width="4" stroke-miterlimit="10" d="M466.017,53.829H426.89l-12.091-37.212
			l-12.091,37.212h-39.127l31.654,22.999l-12.091,37.212l31.654-22.998l31.654,22.998l-12.091-37.212L466.017,53.829z
			 M414.799,82.233c-6.022,0-10.905-4.882-10.905-10.905c0-6.022,4.883-10.905,10.905-10.905s10.905,4.882,10.905,10.905
			C425.705,77.351,420.822,82.233,414.799,82.233z"/>
	</g>
	<use xlink:href="#SVGID_1_"  overflow="visible" fill="none" stroke="#000000" stroke-width="7" stroke-miterlimit="10"/>
</g>
<radialGradient id="SVGID_9_" cx="261.8062" cy="575.5225" r="180.5935" gradientUnits="userSpaceOnUse">
	<stop  offset="0.6316" style="stop-color:#FFFFFF"/>
	<stop  offset="0.7049" style="stop-color:#F4F5F5"/>
	<stop  offset="0.8549" style="stop-color:#EAEBEB"/>
	<stop  offset="1" style="stop-color:#E6E7E8"/>
</radialGradient>
<path display="none" fill="url(#SVGID_9_)" stroke="#000000" stroke-width="3" stroke-miterlimit="10" d="M474.52,493.628
	c0,0-35,101-212.714,101s-212.714-101-212.714-101s-32,43-29,61S84.52,657.416,261.806,657.416S500.52,572.628,503.52,554.628
	S474.52,493.628,474.52,493.628z"/>
<g display="none">
	<path fill="none" d="M20.092,554.628c3,18,64.428,102.788,241.714,102.788S500.52,572.628,503.52,554.628"/>
	<path display="inline" d="M56.142,554.339l2.238-0.219l1.138,1.429l13.104-7.662c-1.467-1.842-3.336-2.794-5.607-2.856
		c-2.271-0.063-4.501,0.777-6.69,2.521l-0.395,0.337l-3.827-1.246c3.961-2.773,7.582-3.906,10.861-3.398
		c3.279,0.508,6.454,2.688,9.523,6.543l6.193,7.774l-6.187,2.945l-0.687-0.862c0.585-0.274,1.117-0.604,1.597-0.985
		c1.598-1.273,0.935-3.747-1.992-7.421l-0.461-0.58l-13.188,7.708l4.68,5.875l-2.944,0.164c-0.875-1.652-1.827-3.126-2.857-4.419
		l-0.526-0.66l-6.027,3.523c-5.073,2.969-9.717,4.594-13.935,4.877c-4.217,0.283-7.32-0.824-9.309-3.321
		c-1.073-1.348-1.337-3.104-0.792-5.271l4.345-0.224c-1.452,2.316-1.552,4.261-0.299,5.833c1.145,1.437,2.933,1.858,5.365,1.266
		c2.432-0.594,6.166-2.36,11.201-5.3l7.208-4.199L56.142,554.339z"/>
	<path display="inline" d="M51.87,574.532l4.134-1.038l0.755,0.654c1.033,0.895,2.143,1.139,3.331,0.732
		c1.188-0.407,2.974-1.637,5.359-3.689l9.233-7.979c2.727-2.359,5.552-3.807,8.477-4.343c2.924-0.535,5.281-0.028,7.069,1.521
		c0.799,0.691,1.384,1.884,1.755,3.578l-4.495,3.876l-0.833-0.722c0.293-0.287,0.527-0.531,0.703-0.733
		c1.915-2.211,2.038-4.037,0.371-5.48c-1.641-1.421-4.401-0.453-8.281,2.905l-8.299,7.164c-2.487,2.152-4.62,3.611-6.4,4.379
		c-1.781,0.767-3.787,1.078-6.017,0.936l7.141,6.464c2.092,1.812,4.509,2.74,7.251,2.784l-1.353,1.168
		c-2.492,0.422-4.221,0.572-5.188,0.452s-1.955-0.616-2.961-1.488L51.87,574.532z"/>
	<path display="inline" d="M79.668,597.444c-2.373-1.532-3.6-3.757-3.679-6.671c-0.079-2.915,0.999-6.103,3.234-9.563
		c3.352-5.19,7.6-8.904,12.743-11.142c5.143-2.236,9.441-2.24,12.895-0.009c2.354,1.52,3.576,3.718,3.667,6.594
		s-0.964,6.017-3.165,9.425c-3.498,5.415-7.767,9.236-12.809,11.464C87.514,599.771,83.218,599.737,79.668,597.444z M81.103,596.462
		c2.508,1.62,5.831,1.193,9.97-1.281c4.139-2.474,7.852-6.252,11.139-11.335c4.16-6.447,4.606-10.726,1.338-12.836
		c-2.508-1.621-5.824-1.217-9.947,1.212c-4.123,2.428-7.807,6.15-11.051,11.167C78.299,589.981,77.815,594.339,81.103,596.462z"/>
	<path display="inline" d="M96.076,606.431l3.792-2.075l0.203,0.096c0.052,0.024,0.151,0.097,0.297,0.218
		c0.157,0.125,0.344,0.239,0.563,0.342c1.06,0.498,2.133,0.355,3.218-0.429c1.085-0.784,2.417-2.369,3.994-4.755l12.22-18.518
		c-2.141-1.006-4.242-1.031-6.302-0.077c-2.06,0.955-3.686,2.7-4.877,5.237l-0.221,0.471l-3.969,0.588
		c2.342-4.257,5.095-6.882,8.257-7.874c3.163-0.993,6.99-0.436,11.48,1.674c3.503,1.646,5.74,3.258,6.712,4.836
		s0.919,3.514-0.159,5.807c-1.78,3.789-5.321,6.073-10.622,6.852l-0.294,10.35c-0.105,3.682,0.165,5.673,0.809,5.977
		c0.707,0.332,2.566-0.332,5.579-1.991l-1.249,1.889c-3.78,2.132-6.211,2.944-7.292,2.437c-1.403-0.659-1.946-3.528-1.628-8.607
		l0.653-10.507l-2.947-1.385l-1.184,1.79c-2.599,3.938-5.895,6.472-9.889,7.601l6.016,3.034l-3.636,2.148L96.076,606.431z
		 M115.092,595.77l4.132,1.941c3.735-0.577,6.53-2.839,8.384-6.787c1.708-3.634,0.659-6.345-3.146-8.132l-0.608-0.286
		L115.092,595.77z"/>
	<path display="inline" d="M124.481,619.139l3.554-2.49l0.277,0.095c1.65,0.568,2.949,0.492,3.896-0.229
		c0.946-0.721,2.195-2.592,3.746-5.614l9.979-19.345c-2.237-0.77-4.328-0.571-6.272,0.597c-1.945,1.168-3.373,3.074-4.284,5.721
		l-0.169,0.49l-3.882,1.008c1.823-4.411,4.262-7.296,7.317-8.654c3.055-1.359,6.853-1.257,11.391,0.306l9.577,3.299l-3.623,5.812
		l-1.026-0.354c0.287-0.55,0.509-1.056,0.668-1.517c0.404-1.174,0.192-2.153-0.637-2.938c-0.829-0.785-2.541-1.624-5.136-2.518
		l-0.505-0.174l-6.436,12.55l7.264,2.502l-2.452,1.724c-2.317-1.279-3.92-2.072-4.811-2.379l-0.814-0.28l-1.17,2.286
		c-1.311,2.57-2.626,4.513-3.947,5.826s-3.107,2.453-5.359,3.421l7.672,3.115l1.687,0.656c1.77,0.609,3.71,0.354,5.82-0.765
		l-0.875,1.694c-2.838,1.999-5.104,2.707-6.798,2.123l-0.742-0.28L124.481,619.139z"/>
	<path display="inline" d="M147.92,625.12l3.006-2.581c0.529,2.486,1.654,3.935,3.374,4.345c1.642,0.392,3.41-0.177,5.303-1.706
		c1.894-1.528,4.415-4.438,7.563-8.73l11.296-15.366c-1.17-0.489-2.191-0.838-3.063-1.046c-2.335-0.557-4.327-0.186-5.976,1.111
		c-1.649,1.298-2.828,3.432-3.536,6.401l-3.816,1.444c0.898-2.827,2.053-5.067,3.462-6.722c1.562-1.845,3.168-3.039,4.821-3.583
		c1.653-0.545,3.878-0.621,6.678-0.229c0.558,0.085,1.405,0.197,2.541,0.339l3.621-0.035l-1.604,7.697l-2.811,16.095
		c-0.656,3.742-0.92,6.247-0.791,7.515c0.128,1.269,0.723,2.028,1.785,2.282c0.19,0.045,0.854,0.154,1.993,0.329l-0.579,1.463
		l-8.107-0.091l2.009-11.474l-9.132-2.178c-2.765,3.771-5.134,6.305-7.108,7.604c-1.975,1.299-4.051,1.689-6.229,1.17
		C150.554,628.682,148.987,627.33,147.92,625.12z M167.083,618.876l8.295,1.978l3.04-17.502L167.083,618.876z"/>
	<path display="inline" d="M185.108,635.304l3.057-3.056l0.241,0.133c0.131,0.053,0.458,0.119,0.98,0.2
		c1.26,0.197,2.289-0.271,3.087-1.403c0.798-1.133,1.737-3.444,2.817-6.937l5.623-18.266l-4.306-0.672
		c-4.369-0.682-6.921,1.339-7.659,6.061c-0.087,0.56-0.144,1.259-0.17,2.099l-3.893,1.707c1.189-4.492,3.201-7.886,6.035-10.181
		c2.833-2.295,6.083-3.156,9.748-2.585l7.217,1.126c3.257,0.509,5.458,0.55,6.606,0.124s2.067-1.626,2.759-3.604l2.775-1.022
		c-1.245,2.766-3.142,4.864-5.69,6.297c-2.548,1.432-5.264,1.923-8.146,1.474l-1.702-0.266l-4.9,15.872
		c-0.875,2.855-1.856,5.062-2.942,6.618c-1.085,1.558-2.628,2.968-4.626,4.231l6.541,1.211l-2.904,3.08L185.108,635.304z"/>
	<path display="inline" d="M228.646,638.542l2.556-3.398c1.089,2.641,2.667,3.988,4.733,4.044c1.354,0.037,2.576-0.717,3.663-2.26
		c1.087-1.544,1.855-3.607,2.305-6.19l3.86-22.309c-0.582-0.141-0.988-0.215-1.218-0.221c-1.894-0.052-3.498,0.829-4.81,2.642
		c-1.313,1.813-2.006,4.095-2.081,6.845l-3.401,2.149c0.36-4.379,1.732-7.755,4.117-10.128c2.385-2.374,5.534-3.508,9.449-3.401
		l1.395,0.037c1.905,8.152,3.229,16.517,3.974,25.093l11.973-24.661l3.7-0.489l-1.513,7.532l-3.328,19.185
		c-0.287,1.707-0.445,3.071-0.473,4.093c-0.037,1.383,0.558,2.091,1.786,2.124c0.608,0.017,1.426-0.047,2.452-0.192l-0.265,1.502
		l-8.569,2.081l5.291-30.575l-12.479,25.521l-1.783,0.329l0.019-0.684c0.166-6.146-0.724-13.806-2.67-22.98l-1.672,9.58
		c-2.043,11.82-5.958,17.651-11.744,17.495C231.893,641.249,230.137,640.328,228.646,638.542z"/>
	<path display="inline" d="M270.081,639.617l2.173-3.313c1.197,2.242,2.679,3.322,4.445,3.239c1.687-0.079,3.228-1.115,4.623-3.108
		s3.011-5.489,4.847-10.485l6.595-17.896c-1.26-0.146-2.337-0.197-3.232-0.155c-2.397,0.112-4.209,1.021-5.434,2.724
		c-1.226,1.704-1.767,4.081-1.624,7.131l-3.266,2.445c0.08-2.965,0.567-5.438,1.464-7.418c0.989-2.205,2.202-3.798,3.64-4.779
		c1.437-0.981,3.554-1.671,6.353-2.07c0.56-0.073,1.404-0.199,2.534-0.379l3.47-1.036l0.592,7.84l1.761,16.243
		c0.406,3.777,0.847,6.257,1.322,7.439c0.475,1.183,1.257,1.749,2.348,1.698c0.194-0.01,0.863-0.088,2.006-0.236l-0.15,1.565
		l-7.814,2.16l-1.249-11.581l-9.379,0.439c-1.611,4.388-3.185,7.479-4.722,9.275c-1.537,1.795-3.424,2.745-5.661,2.851
		C273.597,642.309,271.718,641.444,270.081,639.617z M286.761,628.306l8.519-0.398l-1.931-17.659L286.761,628.306z"/>
	<path display="inline" d="M308.967,646.868l2.659-2.561c1.563,1.569,3.418,2.234,5.563,1.992c1.506-0.169,2.594-0.906,3.262-2.211
		s1.083-3.489,1.247-6.553c0.012-0.208,0.029-0.511,0.054-0.91c-1.943,1.01-4.022,1.639-6.236,1.889
		c-2.933,0.33-5.377-0.565-7.332-2.686c-1.954-2.12-3.155-5.171-3.604-9.152c-0.701-6.229,0.284-11.744,2.957-16.544
		c2.673-4.799,6.246-7.45,10.72-7.953c2.545-0.287,5.076-0.128,7.595,0.476l-0.673,6.349l-1.044,0.117
		c-0.016-0.553-0.047-1.032-0.093-1.439c-0.156-1.393-0.831-2.453-2.022-3.183s-2.683-0.993-4.475-0.792
		c-3.059,0.345-5.512,2.756-7.359,7.236c-1.848,4.479-2.459,9.493-1.835,15.039c0.381,3.391,1.424,5.983,3.128,7.776
		c1.704,1.794,3.835,2.547,6.392,2.26c1.574-0.178,2.889-0.57,3.941-1.178l0.381-11.863l-3.03,0.341
		c-2.009,0.226-3.735,1.313-5.181,3.26l0.041-1.639c1.749-2.948,3.65-4.539,5.704-4.77l6.129-0.69l-0.521,7.393l-0.183,5.621
		c-0.172,5.146-1.063,9.008-2.675,11.586c-1.61,2.578-4.054,4.052-7.329,4.421C312.684,648.777,310.624,648.233,308.967,646.868z"/>
	<path display="inline" d="M331.268,636.675l1.841-3.899l0.245-0.094c0.065-0.028,0.213-0.049,0.445-0.061
		c0.115-0.006,0.241-0.021,0.376-0.047c1.23-0.232,2.062-0.921,2.494-2.067c0.432-1.146,0.589-3.083,0.471-5.813l-0.953-22.597
		c-2.324,0.438-4.042,1.647-5.153,3.625c-1.11,1.978-1.406,4.342-0.887,7.092l0.096,0.51l-2.872,2.799
		c-1.144-9.272,2.811-14.764,11.861-16.473l4.892-0.924c3.769-0.711,6.67-0.263,8.704,1.345c2.033,1.608,3.461,4.591,4.284,8.947
		c1.333,7.061,0.596,12.924-2.21,17.59c-2.807,4.667-7.347,7.592-13.621,8.776c-0.26,0.049-0.789,0.125-1.588,0.228L331.268,636.675
		z M336.828,632.602l3.145,0.126c1.709,0.077,3.41-0.044,5.104-0.363c2.324-0.439,4.053-1.218,5.187-2.335
		c1.133-1.118,2.033-2.94,2.701-5.467c1.183-4.447,1.303-9.166,0.36-14.156c-1.453-7.694-5.283-10.955-11.489-9.783l-2.116,0.399
		l0.767,18.264c0.146,3.317-0.029,5.878-0.53,7.685C339.455,628.777,338.412,630.654,336.828,632.602z"/>
	<path display="inline" d="M359.721,629.317l1.351-3.725c1.683,1.906,3.373,2.615,5.073,2.127c1.623-0.466,2.883-1.829,3.781-4.091
		s1.664-6.035,2.299-11.32l2.291-18.934c-1.26,0.149-2.32,0.347-3.182,0.594c-2.307,0.662-3.86,1.964-4.659,3.904
		c-0.8,1.94-0.778,4.378,0.064,7.313l-2.614,3.133c-0.606-2.904-0.702-5.423-0.286-7.557c0.454-2.373,1.267-4.203,2.439-5.489
		c1.172-1.286,3.073-2.445,5.704-3.479c0.527-0.201,1.321-0.519,2.379-0.953l3.137-1.81l2.384,7.493l5.458,15.399
		c1.267,3.581,2.268,5.893,3.003,6.935c0.734,1.041,1.626,1.411,2.675,1.11c0.188-0.054,0.82-0.285,1.898-0.692l0.214,1.558
		l-7.105,3.904l-3.886-10.981l-9.024,2.59c-0.556,4.642-1.375,8.013-2.456,10.114c-1.082,2.102-2.699,3.462-4.852,4.079
		C363.765,631.126,361.737,630.719,359.721,629.317z M373.345,614.465l8.196-2.352l-5.95-16.738L373.345,614.465z"/>
	<path display="inline" d="M394.42,620.986l0.94-4.157l0.925-0.379c1.264-0.519,1.983-1.399,2.156-2.643s-0.117-3.393-0.872-6.447
		l-2.952-11.84c-0.874-3.498-0.891-6.673-0.048-9.524c0.842-2.852,2.357-4.726,4.547-5.622c0.978-0.4,2.307-0.384,3.985,0.049
		l1.43,5.761l-1.021,0.418c-0.123-0.391-0.235-0.71-0.337-0.958c-1.108-2.706-2.683-3.641-4.723-2.805
		c-2.009,0.822-2.391,3.723-1.146,8.701l2.646,10.64c0.798,3.189,1.138,5.752,1.018,7.688c-0.119,1.935-0.746,3.865-1.881,5.791
		l8.991-3.454c2.562-1.049,4.48-2.786,5.758-5.213l0.432,1.734c-0.749,2.414-1.396,4.025-1.938,4.834
		c-0.544,0.809-1.432,1.466-2.665,1.971L394.42,620.986z"/>
	<path display="inline" d="M418.125,611.055l0.621-4.296l0.259-0.136c1.545-0.813,2.379-1.812,2.503-2.994
		c0.123-1.184-0.384-3.376-1.522-6.575l-7.255-20.522c-2.094,1.102-3.382,2.761-3.863,4.978s-0.071,4.563,1.232,7.04l0.241,0.459
		l-1.926,3.518c-1.964-4.35-2.394-8.103-1.291-11.259c1.104-3.156,3.779-5.853,8.027-8.088l8.965-4.717l1.751,6.621l-0.961,0.505
		c-0.204-0.585-0.42-1.094-0.646-1.524c-0.578-1.1-1.438-1.616-2.577-1.55s-2.924,0.739-5.353,2.017l-0.473,0.249l4.732,13.286
		l6.8-3.577l-0.425,2.967c-2.519,0.812-4.195,1.436-5.028,1.874l-0.763,0.401l0.864,2.419c0.975,2.716,1.487,5.005,1.539,6.866
		c0.052,1.862-0.342,3.944-1.18,6.248l7.526-3.454l1.633-0.779c1.657-0.872,2.801-2.46,3.432-4.764l0.634,1.798
		c-0.488,3.438-1.525,5.573-3.11,6.407l-0.713,0.349L418.125,611.055z"/>
	<path display="inline" d="M438.71,597.995l-0.085-4.233c2.5,1.392,4.569,1.476,6.208,0.253c1.095-0.817,1.594-2.165,1.495-4.044
		c-0.098-1.879-0.775-3.978-2.032-6.296l-10.775-19.885c-0.545,0.25-0.914,0.446-1.106,0.591c-1.51,1.126-2.219,2.808-2.126,5.044
		c0.092,2.236,0.961,4.456,2.606,6.661l-1.339,3.795c-2.308-3.477-3.316-6.912-3.026-10.307s1.825-6.129,4.604-8.203l1.326-0.989
		c3.43,2.62,7.324,5.236,11.682,7.85l4.941,2.964c3.415,2.022,6.085,3.729,8.01,5.117l-6.565-12.11
		c-2.268-4.173-3.494-7.794-3.679-10.864c-0.185-3.069,0.681-5.319,2.596-6.747c0.681-0.509,1.479-0.83,2.396-0.965l0.91,3.293
		c-1.478-0.271-2.594-0.124-3.349,0.438c-1.987,1.484-1.555,4.849,1.3,10.095l8.55,15.778l3.525,6.079l-1.146,2.15
		c-1.394-1.176-4.345-3.114-8.852-5.813l-9.504-5.68c-2.538-1.52-4.745-2.922-6.623-4.209l4.381,8.06
		c2.761,5.102,4.277,9.473,4.551,13.112c0.273,3.642-0.717,6.303-2.973,7.985C443.029,598.098,441.062,598.457,438.71,597.995z"/>
	<path display="inline" d="M467.76,576.568l-1.036-3.824c2.472,0.593,4.263,0.2,5.373-1.177c1.06-1.313,1.307-3.154,0.742-5.521
		c-0.565-2.367-2.108-5.896-4.629-10.584l-9.011-16.809c-0.945,0.847-1.699,1.618-2.262,2.315c-1.507,1.868-2.029,3.825-1.567,5.873
		c0.461,2.047,1.88,4.028,4.257,5.945l-0.337,4.066c-2.166-2.027-3.692-4.033-4.579-6.018c-0.993-2.203-1.38-4.167-1.16-5.894
		c0.219-1.727,1.108-3.769,2.666-6.127c0.317-0.467,0.783-1.183,1.399-2.147l1.526-3.283l6.258,4.76l13.32,9.462
		c3.095,2.202,5.243,3.518,6.443,3.947c1.199,0.429,2.142,0.22,2.827-0.63c0.122-0.152,0.508-0.704,1.155-1.657l1.071,1.151
		l-3.57,7.279l-9.492-6.75l-5.895,7.307c2.213,4.118,3.481,7.347,3.806,9.688c0.323,2.341-0.219,4.383-1.625,6.126
		C472.108,575.724,470.214,576.556,467.76,576.568z M470.368,556.583l5.354-6.637l-14.491-10.273L470.368,556.583z"/>
</g>
</svg>
