<!DOCTYPE svg PUBLIC "-//W3C//DTD SVG 1.1//EN" "http://www.w3.org/Graphics/SVG/1.1/DTD/svg11.dtd" [
	<!ENTITY ns_flows "http://ns.adobe.com/Flows/1.0/">
]><svg xmlns="http://www.w3.org/2000/svg" xmlns:xlink="http://www.w3.org/1999/xlink" width="524" height="659" viewBox="0 0 524 659"><linearGradient id="a" gradientUnits="userSpaceOnUse" x1="37.789" y1="515.304" x2="92.683" y2="536.376"><stop offset="0" stop-color="#8B5E3C"/><stop offset=".497" stop-color="#FDC060"/></linearGradient><linearGradient id="b" gradientUnits="userSpaceOnUse" x1="430.929" y1="536.376" x2="485.824" y2="515.304"><stop offset=".503" stop-color="#FDC060"/><stop offset="1" stop-color="#8B5E3C"/></linearGradient><linearGradient id="c" gradientUnits="userSpaceOnUse" x1="1.5" y1="461.128" x2="107.092" y2="461.128"><stop offset="0" stop-color="#BCBEC0"/><stop offset=".333" stop-color="#E6E7E8"/></linearGradient><linearGradient id="d" gradientUnits="userSpaceOnUse" x1="416.52" y1="461.128" x2="522.112" y2="461.128"><stop offset=".632" stop-color="#E6E7E8"/><stop offset=".687" stop-color="#DBDCDD"/><stop offset=".793" stop-color="#CACBCD"/><stop offset=".898" stop-color="#BFC1C3"/><stop offset="1" stop-color="#BCBEC0"/></linearGradient><defs><path id="e" d="M261.113 3.5H10.093v258.714c0 161.08 140 299 251.713 341 118.286-39 251.714-175.92 251.714-337V3.5H261.113z"/></defs><radialGradient id="f" cx="261.806" cy="303.357" r="276.834" gradientUnits="userSpaceOnUse"><stop offset="0" stop-color="#FFF"/><stop offset=".55" stop-color="#FCFCFC"/><stop offset=".786" stop-color="#F4F4F5"/><stop offset=".962" stop-color="#EAEAEB"/><stop offset="1" stop-color="#E6E7E8"/></radialGradient><use xlink:href="#e" overflow="visible" fill="url(#f)"/><clipPath id="g"><use xlink:href="#e" overflow="visible"/></clipPath><linearGradient id="h" gradientUnits="userSpaceOnUse" x1="261.806" y1="3.5" x2="261.806" y2="123.443"><stop offset="0" stop-color="#262262"/><stop offset=".069" stop-color="#282568"/><stop offset=".268" stop-color="#2C2A79"/><stop offset=".48" stop-color="#2D2D85"/><stop offset=".711" stop-color="#2E2F8E"/><stop offset="1" stop-color="#2E3192"/></linearGradient><path clip-path="url(#g)" fill="url(#h)" d="M10.092 3.5H513.52v119.943H10.092z"/><path clip-path="url(#g)" fill="#ED1C24" d="M477.44 405.962c-16.688 0-30.22-13.53-30.22-30.22 0-5.062 1.254-9.825 3.453-14.015l-.873-.873c-4.102 2.082-8.74 3.263-13.655 3.263-16.69 0-30.222-13.53-30.222-30.222 0-4.915 1.186-9.548 3.268-13.65l-.372-.375c-3.97 1.917-8.41 3.01-13.113 3.01-16.69 0-30.222-13.532-30.222-30.223 0-4.704 1.085-9.15 3.004-13.118l-.805-.806c-4.337 2.41-9.325 3.785-14.638 3.785-16.69 0-30.223-13.532-30.223-30.223 0-5.312 1.387-10.294 3.794-14.63l-.726-.726c-4.88 3.386-10.804 5.374-17.194 5.374-16.69 0-30.22-13.53-30.22-30.222 0-6.363 1.97-12.264 5.328-17.134-.034 0-.067.005-.103.005-9.352 0-17.258-6.146-19.923-14.618v-6.067l-.01-.01c-.014 1.456-.18 2.875-.477 4.245-.297-1.37-.463-2.79-.477-4.245l-.01.01v6.067c-2.665 8.47-10.57 14.618-19.922 14.618-.034 0-.067-.005-.102-.005 3.358 4.87 5.33 10.77 5.33 17.134 0 16.69-13.53 30.222-30.223 30.222-6.39 0-12.313-1.988-17.193-5.373l-.726.726c2.407 4.337 3.792 9.32 3.792 14.63 0 16.69-13.53 30.223-30.223 30.223-5.312 0-10.3-1.377-14.637-3.786l-.805.805c1.918 3.968 3.004 8.414 3.004 13.117 0 16.69-13.53 30.222-30.222 30.222-4.703 0-9.145-1.093-13.113-3.01l-.373.374c2.08 4.103 3.266 8.736 3.266 13.65 0 16.692-13.53 30.223-30.22 30.223-4.917 0-9.555-1.18-13.656-3.263l-.874.873c2.2 4.19 3.454 8.954 3.454 14.014 0 16.693-13.53 30.222-30.222 30.222-.78 0-1.55-.04-2.313-.098 12.828 24.875 28.426 48.27 45.838 69.778 3.97-1.918 8.423-2.993 13.127-2.993 5.73 0 11.09 1.595 15.654 4.365-2.898-4.64-4.58-10.117-4.58-15.99 0-16.69 13.53-30.222 30.223-30.222 4.995 0 9.702 1.22 13.854 3.365-2.317-4.276-3.634-9.175-3.634-14.38 0-16.69 13.53-30.222 30.222-30.222 6.06 0 11.696 1.79 16.427 4.86-2.533-4.42-3.99-9.54-3.99-15 0-16.69 13.532-30.22 30.223-30.22 6.26 0 12.074 1.902 16.898 5.16-1.76-4.454-2.77-9.624-2.77-15.145 0-15.907 8.36-28.935 18.973-30.122 10.61 1.188 18.972 14.215 18.972 30.123 0 5.522-1.012 10.692-2.77 15.146 4.824-3.258 10.64-5.16 16.898-5.16 16.69 0 30.22 13.53 30.22 30.22 0 5.46-1.454 10.58-3.987 15 4.73-3.07 10.368-4.86 16.427-4.86 16.69 0 30.222 13.53 30.222 30.22 0 5.207-1.316 10.105-3.635 14.382 4.15-2.146 8.858-3.365 13.854-3.365 16.692 0 30.224 13.53 30.224 30.222 0 5.873-1.682 11.352-4.58 15.99 4.565-2.77 9.924-4.366 15.654-4.366 5.266 0 10.215 1.35 14.525 3.716 17.166-21.684 32.336-45.335 44.64-70.52-.827.068-1.663.116-2.512.116z"/><g clip-path="url(#g)" fill="#FFF200" stroke="#000" stroke-width="4" stroke-miterlimit="10"><path d="M313.024 53.83h-39.127l-12.09-37.213-12.092 37.212h-39.128l31.655 22.998-12.09 37.212 31.653-22.998 31.654 22.998-12.09-37.212 31.654-23zm-51.218 28.403c-6.022 0-10.905-4.882-10.905-10.905 0-6.022 4.884-10.905 10.906-10.905s10.905 4.882 10.905 10.905-4.88 10.905-10.904 10.905zM159.028 53.83H119.9l-12.09-37.213L95.72 53.83H56.59l31.654 22.998-12.09 37.212 31.654-22.998 31.654 22.998-12.09-37.212 31.654-23zM107.81 82.232c-6.022 0-10.905-4.882-10.905-10.905 0-6.022 4.883-10.905 10.905-10.905s10.905 4.882 10.905 10.905-4.882 10.905-10.905 10.905zM466.017 53.83H426.89L414.8 16.616 402.707 53.83H363.58l31.655 22.998-12.09 37.212 31.653-22.998 31.654 22.998-12.09-37.212 31.655-23zM414.8 82.232c-6.023 0-10.906-4.882-10.906-10.905 0-6.022 4.883-10.905 10.905-10.905s10.904 4.882 10.904 10.905-4.882 10.905-10.905 10.905z"/></g><use xlink:href="#e" overflow="visible" fill="none" stroke="#000" stroke-width="7" stroke-miterlimit="10"/><radialGradient id="i" cx="261.806" cy="575.523" r="180.594" gradientUnits="userSpaceOnUse"><stop offset=".632" stop-color="#FFF"/><stop offset=".705" stop-color="#F4F5F5"/><stop offset=".855" stop-color="#EAEBEB"/><stop offset="1" stop-color="#E6E7E8"/></radialGradient></svg>