<?xml version="1.0" encoding="utf-8"?>
<!-- Generator: Adobe Illustrator 15.0.2, SVG Export Plug-In  -->
<!DOCTYPE svg PUBLIC "-//W3C//DTD SVG 1.1//EN" "http://www.w3.org/Graphics/SVG/1.1/DTD/svg11.dtd" [
	<!ENTITY ns_flows "http://ns.adobe.com/Flows/1.0/">
]>
<svg version="1.1"
	 xmlns="http://www.w3.org/2000/svg" xmlns:xlink="http://www.w3.org/1999/xlink" xmlns:a="http://ns.adobe.com/AdobeSVGViewerExtensions/3.0/"
	 x="0px" y="0px" width="524px" height="659px" viewBox="36.893 14.125 524 659" enable-background="new 36.893 14.125 524 659"
	 xml:space="preserve">
<defs>
</defs>
<linearGradient id="SVGID_9_" gradientUnits="userSpaceOnUse" x1="74.6812" y1="529.4287" x2="129.5755" y2="550.5007">
	<stop  offset="0" style="stop-color:#8B5E3C"/>
	<stop  offset="0.497" style="stop-color:#FDC060"/>
</linearGradient>
<path display="none" fill="url(#SVGID_9_)" stroke="#000000" stroke-width="3" stroke-miterlimit="10" d="M145.985,507.753l-72,70
	c0,0-13.53,0.171-11-15s23-55,23-55s1-8,21-9S145.985,507.753,145.985,507.753z"/>
<linearGradient id="SVGID_10_" gradientUnits="userSpaceOnUse" x1="467.8218" y1="550.501" x2="522.7161" y2="529.429">
	<stop  offset="0.503" style="stop-color:#FDC060"/>
	<stop  offset="1" style="stop-color:#8B5E3C"/>
</linearGradient>
<path display="none" fill="url(#SVGID_10_)" stroke="#000000" stroke-width="3" stroke-miterlimit="10" d="M451.413,507.753l72,70
	c0,0,13.529,0.171,11-15s-23-55-23-55s-1-8-21-9S451.413,507.753,451.413,507.753z"/>
<linearGradient id="SVGID_11_" gradientUnits="userSpaceOnUse" x1="38.3926" y1="475.2529" x2="143.9849" y2="475.2529">
	<stop  offset="0" style="stop-color:#BCBEC0"/>
	<stop  offset="0.3333" style="stop-color:#E6E7E8"/>
</linearGradient>
<path display="none" fill="url(#SVGID_11_)" stroke="#000000" stroke-width="3" stroke-miterlimit="10" d="M38.985,470.753
	c0-18,7.316-28,35-28s51,8,51,8l19,57c0,0-71.883-16.141-90.941-9.07S38.985,470.753,38.985,470.753z"/>
<linearGradient id="SVGID_12_" gradientUnits="userSpaceOnUse" x1="453.4126" y1="475.2529" x2="559.0044" y2="475.2529">
	<stop  offset="0.6316" style="stop-color:#E6E7E8"/>
	<stop  offset="0.6867" style="stop-color:#DBDCDD"/>
	<stop  offset="0.7932" style="stop-color:#CACBCD"/>
	<stop  offset="0.8984" style="stop-color:#BFC1C3"/>
	<stop  offset="1" style="stop-color:#BCBEC0"/>
</linearGradient>
<path display="none" fill="url(#SVGID_12_)" stroke="#000000" stroke-width="3" stroke-miterlimit="10" d="M558.413,470.753
	c0-18-7.316-28-35-28s-51,8-51,8l-19,57c0,0,71.883-16.141,90.941-9.07S558.413,470.753,558.413,470.753z"/>
<path display="none" fill="#FBB040" stroke="#000000" stroke-width="3" stroke-miterlimit="10" d="M38.985,470.753c0,0,8,6,23,6
	c9.731,10.067,11,32,11,58.345c-25-1.345-34-19.345-34-48.345S38.985,470.753,38.985,470.753z"/>
<path display="none" fill="#FBB040" stroke="#000000" stroke-width="3" stroke-miterlimit="10" d="M558.413,470.753c0,0-8,6-23,6
	c-9.731,10.067-11,32-11,58.345c25-1.345,34-19.345,34-48.345S558.413,470.753,558.413,470.753z"/>
<g>
	<defs>
		<path id="SVGID_5_" d="M298.005,17.625H46.985c0,0,0,138.937,0,258.714c0,161.081,140,299,251.714,341
			c118.286-39,251.714-175.92,251.714-337c0-119.778,0-262.714,0-262.714H298.005z"/>
	</defs>
	<use xlink:href="#SVGID_5_"  overflow="visible" fill="#ED1C24"/>
	<clipPath id="SVGID_13_">
		<use xlink:href="#SVGID_5_"  overflow="visible"/>
	</clipPath>
	<g clip-path="url(#SVGID_13_)">
		<defs>
			<path id="SVGID_6_" d="M298.099,58.128H80.985c0,0,0,120.17,0,223.768c0,139.324,121.09,258.613,217.714,294.941
				c102.309-33.732,217.714-152.159,217.714-291.481c0-103.599,0-227.228,0-227.228H298.099z"/>
		</defs>
		<clipPath id="SVGID_14_">
			<use xlink:href="#SVGID_6_"  overflow="visible"/>
		</clipPath>
		<g clip-path="url(#SVGID_14_)">
			<defs>
				<polygon id="SVGID_8_" points="559.634,624.35 540.733,610.237 531.052,630.589 521.374,610.237 511.693,630.589 
					502.019,610.237 492.339,630.589 482.664,610.237 472.985,630.589 463.307,610.237 453.626,630.589 443.949,610.237 
					434.268,630.589 424.585,610.237 414.905,630.589 405.224,610.237 395.542,630.589 385.858,610.237 376.175,630.589 
					366.493,610.237 356.812,630.589 347.131,610.237 337.449,630.589 327.762,610.237 318.079,630.589 308.389,610.237 
					289.479,624.355 308.699,596.945 288.699,573.478 308.699,550.013 288.699,526.544 308.699,503.073 288.699,479.604 
					308.699,456.138 288.699,432.668 308.699,409.2 288.699,385.731 308.699,362.258 288.699,338.789 308.699,315.317 
					288.699,291.848 308.699,268.377 288.699,244.909 308.699,221.437 288.699,197.969 308.699,174.499 288.699,151.028 
					308.699,127.554 288.699,104.08 308.699,80.606 288.699,57.131 308.699,33.653 289.477,6.239 308.378,20.351 318.059,0 
					327.738,20.351 337.418,0 347.092,20.351 356.772,0 366.449,20.351 376.126,0 385.804,20.351 395.485,0 405.163,20.351 
					414.843,0 424.526,20.351 434.207,0 443.888,20.351 453.57,0 463.253,20.351 472.936,0 482.619,20.351 492.299,0 501.98,20.351 
					511.663,0 521.349,20.351 531.033,0 540.722,20.351 559.631,6.234 540.413,33.643 560.413,57.111 540.413,80.576 
					560.413,104.045 540.413,127.516 560.413,150.984 540.413,174.452 560.413,197.92 540.413,221.388 560.413,244.858 
					540.413,268.331 560.413,291.8 540.413,315.271 560.413,338.741 540.413,362.212 560.413,385.68 540.413,409.152 
					560.413,432.62 540.413,456.09 560.413,479.561 540.413,503.034 560.413,526.508 540.413,549.982 560.413,573.457 
					540.579,598.781 				"/>
			</defs>
			<linearGradient id="SVGID_15_" gradientUnits="userSpaceOnUse" x1="288.6987" y1="315.2944" x2="560.4126" y2="315.2944">
				<stop  offset="0" style="stop-color:#2E3192"/>
				<stop  offset="1" style="stop-color:#262262"/>
			</linearGradient>
			<use xlink:href="#SVGID_8_"  overflow="visible" fill="url(#SVGID_15_)"/>
			<clipPath id="SVGID_16_">
				<use xlink:href="#SVGID_8_"  overflow="visible"/>
			</clipPath>
			<g id="g8767_1_" clip-path="url(#SVGID_16_)">
				<g>
					
						<radialGradient id="SVGID_17_" cx="-11.0278" cy="-29.2603" r="0.9999" gradientTransform="matrix(24.7617 0 0 -24.7617 684.2714 -538.9076)" gradientUnits="userSpaceOnUse">
						<stop  offset="0" style="stop-color:#F7D50A"/>
						<stop  offset="1" style="stop-color:#FBB040"/>
					</radialGradient>
					<path fill="url(#SVGID_17_)" d="M411.179,152.049c-0.036,39.383-22.737,48.582,0.525,67.129
						C433.196,198,411.495,190.395,411.179,152.049z"/>
					<path fill="none" stroke="#754C29" stroke-width="2.4106" d="M411.179,152.049c-0.036,39.383-22.737,48.582,0.525,67.129
						C433.196,198,411.495,190.395,411.179,152.049z"/>
				</g>
				<g>
					
						<radialGradient id="SVGID_18_" cx="-11.0024" cy="-29.2339" r="1.0001" gradientTransform="matrix(26.6285 0 0 -26.6285 716.9112 -566.2163)" gradientUnits="userSpaceOnUse">
						<stop  offset="0" style="stop-color:#F7D50A"/>
						<stop  offset="1" style="stop-color:#FBB040"/>
					</radialGradient>
					<path fill="url(#SVGID_18_)" d="M436.012,176.547c-10.865,39.023-27.722,20.343-23.428,71.353
						c4.125-2.379,5.569-12.185,8.374-14.621C439.56,211.962,430.219,196.466,436.012,176.547z"/>
					<path fill="none" stroke="#754C29" stroke-width="2.4106" d="M436.012,176.547c-10.865,39.023-27.722,20.343-23.428,71.353
						c4.125-2.379,5.569-12.185,8.374-14.621C439.56,211.962,430.219,196.466,436.012,176.547z"/>
					
						<radialGradient id="SVGID_19_" cx="-11.022" cy="-29.2539" r="1" gradientTransform="matrix(24.3413 0 0 -24.3413 698.5748 -468.4743)" gradientUnits="userSpaceOnUse">
						<stop  offset="0" style="stop-color:#F7D50A"/>
						<stop  offset="1" style="stop-color:#FBB040"/>
					</radialGradient>
					<path fill="url(#SVGID_19_)" d="M448.096,214.142c-11.756,18.407-39.814,13.193-35.093,58.915
						c2.715-4.908,6.437-12.149,9.267-13.431C435.11,250.732,435.65,228.873,448.096,214.142z"/>
					<path fill="none" stroke="#754C29" stroke-width="2.4106" d="M448.096,214.142c-11.756,18.407-39.814,13.193-35.093,58.915
						c2.715-4.908,6.437-12.149,9.267-13.431C435.11,250.732,435.65,228.873,448.096,214.142z"/>
					
						<radialGradient id="SVGID_20_" cx="-11.0215" cy="-29.2529" r="0.9999" gradientTransform="matrix(24.341 0 0 -24.341 698.8949 -443.6849)" gradientUnits="userSpaceOnUse">
						<stop  offset="0" style="stop-color:#F7D50A"/>
						<stop  offset="1" style="stop-color:#FBB040"/>
					</radialGradient>
					<path fill="url(#SVGID_20_)" d="M448.457,238.894c-11.758,18.405-39.814,13.192-35.093,58.914
						c2.715-4.907,6.437-12.149,9.267-13.431C435.469,275.483,436.01,253.625,448.457,238.894z"/>
					<path fill="none" stroke="#754C29" stroke-width="2.4106" d="M448.457,238.894c-11.758,18.405-39.814,13.192-35.093,58.914
						c2.715-4.907,6.437-12.149,9.267-13.431C435.469,275.483,436.01,253.625,448.457,238.894z"/>
					
						<radialGradient id="SVGID_21_" cx="-11.0215" cy="-29.2529" r="1.0002" gradientTransform="matrix(24.341 0 0 -24.341 698.8793 -419.6224)" gradientUnits="userSpaceOnUse">
						<stop  offset="0" style="stop-color:#F7D50A"/>
						<stop  offset="1" style="stop-color:#FBB040"/>
					</radialGradient>
					<path fill="url(#SVGID_21_)" d="M448.432,262.951c-11.758,18.405-39.813,13.192-35.094,58.914
						c2.715-4.907,6.438-12.149,9.269-13.43C435.446,299.541,435.986,277.682,448.432,262.951z"/>
					<path fill="none" stroke="#754C29" stroke-width="2.4106" d="M448.432,262.951c-11.758,18.405-39.813,13.192-35.094,58.914
						c2.715-4.907,6.438-12.149,9.269-13.43C435.446,299.541,435.986,277.682,448.432,262.951z"/>
					
						<radialGradient id="SVGID_23_" cx="-11.0083" cy="-29.2402" r="1.0002" gradientTransform="matrix(24.3409 0 0 -24.3409 698.9246 -394.8972)" gradientUnits="userSpaceOnUse">
						<stop  offset="0" style="stop-color:#F7D50A"/>
						<stop  offset="1" style="stop-color:#FBB040"/>
					</radialGradient>
					<path fill="url(#SVGID_23_)" d="M448.805,287.359c-11.757,18.406-39.813,13.193-35.092,58.915
						c2.714-4.908,6.436-12.149,9.267-13.431C435.819,323.95,436.359,302.09,448.805,287.359z"/>
					<path fill="none" stroke="#754C29" stroke-width="2.4106" d="M448.805,287.359c-11.757,18.406-39.813,13.193-35.092,58.915
						c2.714-4.908,6.436-12.149,9.267-13.431C435.819,323.95,436.359,302.09,448.805,287.359z"/>
					
						<radialGradient id="SVGID_24_" cx="-11.0073" cy="-29.2393" r="0.9998" gradientTransform="matrix(24.3409 0 0 -24.3409 698.8933 -370.8347)" gradientUnits="userSpaceOnUse">
						<stop  offset="0" style="stop-color:#F7D50A"/>
						<stop  offset="1" style="stop-color:#FBB040"/>
					</radialGradient>
					<path fill="url(#SVGID_24_)" d="M448.78,311.417c-11.757,18.407-39.813,13.193-35.093,58.915
						c2.716-4.908,6.438-12.149,9.268-13.431C435.793,348.007,436.334,326.147,448.78,311.417z"/>
					<path fill="none" stroke="#754C29" stroke-width="2.4106" d="M448.78,311.417c-11.757,18.407-39.813,13.193-35.093,58.915
						c2.716-4.908,6.438-12.149,9.268-13.431C435.793,348.007,436.334,326.147,448.78,311.417z"/>
					
						<radialGradient id="SVGID_25_" cx="-11.0044" cy="-29.2363" r="0.9999" gradientTransform="matrix(24.3403 0 0 -24.3403 699.1908 -346.3512)" gradientUnits="userSpaceOnUse">
						<stop  offset="0" style="stop-color:#F7D50A"/>
						<stop  offset="1" style="stop-color:#FBB040"/>
					</radialGradient>
					<path fill="url(#SVGID_25_)" d="M449.153,335.826c-11.756,18.405-39.813,13.193-35.092,58.913
						c2.715-4.906,6.438-12.147,9.267-13.429C436.167,372.416,436.708,350.557,449.153,335.826z"/>
					<path fill="none" stroke="#754C29" stroke-width="2.4106" d="M449.153,335.826c-11.756,18.405-39.813,13.193-35.092,58.913
						c2.715-4.906,6.438-12.147,9.267-13.429C436.167,372.416,436.708,350.557,449.153,335.826z"/>
				</g>
				<g>
					
						<radialGradient id="SVGID_27_" cx="-11.0181" cy="-29.25" r="0.9996" gradientTransform="matrix(26.6045 0 0 -26.6045 692.3541 -566.33)" gradientUnits="userSpaceOnUse">
						<stop  offset="0" style="stop-color:#F7D50A"/>
						<stop  offset="1" style="stop-color:#FBB040"/>
					</radialGradient>
					<path fill="url(#SVGID_27_)" d="M386.641,176.39c11.57,38.821,28.085,19.838,24.716,70.917
						c-4.17-2.304-5.79-12.081-8.639-14.467C383.734,211.864,392.792,196.201,386.641,176.39z"/>
					<path fill="none" stroke="#754C29" stroke-width="2.4105" d="M386.641,176.39c11.57,38.821,28.085,19.838,24.716,70.917
						c-4.17-2.304-5.79-12.081-8.639-14.467C383.734,211.864,392.792,196.201,386.641,176.39z"/>
					
						<radialGradient id="SVGID_28_" cx="-11.0259" cy="-29.2583" r="0.9999" gradientTransform="matrix(24.3135 0 0 -24.3135 661.5807 -468.0333)" gradientUnits="userSpaceOnUse">
						<stop  offset="0" style="stop-color:#F7D50A"/>
						<stop  offset="1" style="stop-color:#FBB040"/>
					</radialGradient>
					<path fill="url(#SVGID_28_)" d="M375.24,214.199c12.087,18.19,40.046,12.471,36.152,58.27
						c-2.803-4.859-6.656-12.032-9.509-13.262C388.884,250.548,387.95,228.701,375.24,214.199z"/>
					<path fill="none" stroke="#754C29" stroke-width="2.4105" d="M375.24,214.199c12.087,18.19,40.046,12.471,36.152,58.27
						c-2.803-4.859-6.656-12.032-9.509-13.262C388.884,250.548,387.95,228.701,375.24,214.199z"/>
					
						<radialGradient id="SVGID_29_" cx="-11.0151" cy="-29.2471" r="0.9999" gradientTransform="matrix(24.3131 0 0 -24.3131 661.3992 -443.0031)" gradientUnits="userSpaceOnUse">
						<stop  offset="0" style="stop-color:#F7D50A"/>
						<stop  offset="1" style="stop-color:#FBB040"/>
					</radialGradient>
					<path fill="url(#SVGID_29_)" d="M375.328,238.952c12.088,18.19,40.045,12.471,36.152,58.27
						c-2.803-4.857-6.656-12.03-9.509-13.26C388.973,275.301,388.038,253.455,375.328,238.952z"/>
					<path fill="none" stroke="#754C29" stroke-width="2.4105" d="M375.328,238.952c12.088,18.19,40.045,12.471,36.152,58.27
						c-2.803-4.857-6.656-12.03-9.509-13.26C388.973,275.301,388.038,253.455,375.328,238.952z"/>
					
						<radialGradient id="SVGID_30_" cx="-11.0259" cy="-29.2578" r="0.9999" gradientTransform="matrix(24.3135 0 0 -24.3135 662.1276 -419.2208)" gradientUnits="userSpaceOnUse">
						<stop  offset="0" style="stop-color:#F7D50A"/>
						<stop  offset="1" style="stop-color:#FBB040"/>
					</radialGradient>
					<path fill="url(#SVGID_30_)" d="M375.787,263.005c12.088,18.19,40.045,12.471,36.153,58.27
						c-2.804-4.859-6.657-12.031-9.51-13.262C389.433,299.354,388.498,277.508,375.787,263.005z"/>
					<path fill="none" stroke="#754C29" stroke-width="2.4105" d="M375.787,263.005c12.088,18.19,40.045,12.471,36.153,58.27
						c-2.804-4.859-6.657-12.031-9.51-13.262C389.433,299.354,388.498,277.508,375.787,263.005z"/>
					
						<radialGradient id="SVGID_31_" cx="-11.0229" cy="-29.2549" r="0.9999" gradientTransform="matrix(24.3132 0 0 -24.3132 662.1201 -394.729)" gradientUnits="userSpaceOnUse">
						<stop  offset="0" style="stop-color:#F7D50A"/>
						<stop  offset="1" style="stop-color:#FBB040"/>
					</radialGradient>
					<path fill="url(#SVGID_31_)" d="M375.855,287.417c12.088,18.19,40.045,12.471,36.153,58.269
						c-2.804-4.858-6.657-12.031-9.509-13.261C389.501,323.766,388.566,301.919,375.855,287.417z"/>
					<path fill="none" stroke="#754C29" stroke-width="2.4105" d="M375.855,287.417c12.088,18.19,40.045,12.471,36.153,58.269
						c-2.804-4.858-6.657-12.031-9.509-13.261C389.501,323.766,388.566,301.919,375.855,287.417z"/>
					
						<radialGradient id="SVGID_32_" cx="-11.0278" cy="-29.2598" r="0.9999" gradientTransform="matrix(24.3138 0 0 -24.3138 662.6976 -370.8063)" gradientUnits="userSpaceOnUse">
						<stop  offset="0" style="stop-color:#F7D50A"/>
						<stop  offset="1" style="stop-color:#FBB040"/>
					</radialGradient>
					<path fill="url(#SVGID_32_)" d="M376.315,311.47c12.087,18.19,40.045,12.471,36.152,58.27
						c-2.804-4.858-6.656-12.03-9.508-13.262C389.96,347.819,389.026,325.972,376.315,311.47z"/>
					<path fill="none" stroke="#754C29" stroke-width="2.4105" d="M376.315,311.47c12.087,18.19,40.045,12.471,36.152,58.27
						c-2.804-4.858-6.656-12.03-9.508-13.262C389.96,347.819,389.026,325.972,376.315,311.47z"/>
					
						<radialGradient id="SVGID_33_" cx="-11.0269" cy="-29.2583" r="0.9999" gradientTransform="matrix(24.3135 0 0 -24.3135 662.7369 -346.3458)" gradientUnits="userSpaceOnUse">
						<stop  offset="0" style="stop-color:#F7D50A"/>
						<stop  offset="1" style="stop-color:#FBB040"/>
					</radialGradient>
					<path fill="url(#SVGID_33_)" d="M376.383,335.881c12.087,18.19,40.046,12.471,36.152,58.27
						c-2.803-4.857-6.656-12.031-9.508-13.262C390.029,372.23,389.094,350.383,376.383,335.881z"/>
					<path fill="none" stroke="#754C29" stroke-width="2.4105" d="M376.383,335.881c12.087,18.19,40.046,12.471,36.152,58.27
						c-2.803-4.857-6.656-12.031-9.508-13.262C390.029,372.23,389.094,350.383,376.383,335.881z"/>
				</g>
			</g>
		</g>
		<g clip-path="url(#SVGID_14_)">
			<defs>
				<polygon id="SVGID_7_" points="56.206,616.479 56.665,630.589 66.345,610.237 76.024,630.589 85.705,610.237 95.379,630.589 
					105.058,610.237 114.734,630.589 124.413,610.237 134.09,630.589 143.771,610.237 153.449,630.589 163.13,610.237 
					172.812,630.589 182.493,610.237 192.174,630.589 201.856,610.237 211.54,630.589 221.222,610.237 230.905,630.589 
					240.585,610.237 250.266,630.589 259.949,610.237 269.635,630.589 279.319,610.237 289.008,630.589 289.479,616.473 
					308.699,596.945 288.699,573.478 308.699,550.013 288.699,526.545 308.699,503.073 288.699,479.604 308.699,456.138 
					288.699,432.668 308.699,409.2 288.699,385.731 308.699,362.259 288.699,338.789 308.699,315.318 288.699,291.849 
					308.699,268.377 288.699,244.909 308.699,221.438 288.699,197.969 308.699,174.499 288.699,151.028 308.699,127.555 
					288.699,104.081 308.699,80.606 288.699,57.132 308.699,33.654 289.477,14.113 289.019,0 279.339,20.352 269.659,0 
					259.979,20.352 250.305,0 240.625,20.352 230.949,0 221.271,20.352 211.593,0 201.913,20.352 192.235,0 182.554,20.352 
					172.872,0 163.191,20.352 153.51,0 143.828,20.352 134.144,0 124.462,20.352 114.779,0 105.099,20.352 95.418,0 85.735,20.352 
					76.048,0 66.365,20.352 56.675,0 56.204,14.118 36.985,33.643 56.985,57.111 36.985,80.577 56.985,104.045 36.985,127.516 
					56.985,150.984 36.985,174.452 56.985,197.92 36.985,221.389 56.985,244.858 36.985,268.331 56.985,291.8 36.985,315.271 
					56.985,338.741 36.985,362.212 56.985,385.68 36.985,409.152 56.985,432.62 36.985,456.09 56.985,479.562 36.985,503.034 
					56.985,526.508 36.985,549.982 56.985,573.457 37.214,599.104 				"/>
			</defs>
			
				<linearGradient id="SVGID_34_" gradientUnits="userSpaceOnUse" x1="540.4116" y1="315.2949" x2="812.1255" y2="315.2949" gradientTransform="matrix(-1 0 0 1 849.1104 0)">
				<stop  offset="0" style="stop-color:#FFFFFF"/>
				<stop  offset="1" style="stop-color:#D1D3D4"/>
			</linearGradient>
			<use xlink:href="#SVGID_7_"  overflow="visible" fill="url(#SVGID_34_)"/>
			<clipPath id="SVGID_35_">
				<use xlink:href="#SVGID_7_"  overflow="visible"/>
			</clipPath>
			<g clip-path="url(#SVGID_35_)">
				<g>
					<g>
						<linearGradient id="SVGID_36_" gradientUnits="userSpaceOnUse" x1="116.3301" y1="325.584" x2="251.8955" y2="325.584">
							<stop  offset="0" style="stop-color:#2B3990"/>
							<stop  offset="0.1131" style="stop-color:#2A3A91"/>
							<stop  offset="0.2039" style="stop-color:#294094"/>
							<stop  offset="0.2869" style="stop-color:#274A9A"/>
							<stop  offset="0.3654" style="stop-color:#2557A3"/>
							<stop  offset="0.4399" style="stop-color:#2166AE"/>
							<stop  offset="0.5" style="stop-color:#1C75BC"/>
							<stop  offset="0.5601" style="stop-color:#2166AE"/>
							<stop  offset="0.6346" style="stop-color:#2557A3"/>
							<stop  offset="0.7131" style="stop-color:#274A9A"/>
							<stop  offset="0.7961" style="stop-color:#294094"/>
							<stop  offset="0.8869" style="stop-color:#2A3A91"/>
							<stop  offset="1" style="stop-color:#2B3990"/>
						</linearGradient>
						<path fill="url(#SVGID_36_)" stroke="#000000" stroke-width="2.3461" stroke-miterlimit="10" d="M184.113,288.568H116.33
							V362.6c0,0,50.747,0,54.65,0c3.903,0,6.389-5.271,6.389-5.271s-0.594,0.032,6.744,0.032c7.338,0,6.745-0.032,6.745-0.032
							s2.485,5.271,6.389,5.271s54.649,0,54.649,0v-74.032H184.113z"/>
						<g>
							<linearGradient id="SVGID_37_" gradientUnits="userSpaceOnUse" x1="120.2183" y1="322.9307" x2="184.3086" y2="322.9307">
								<stop  offset="0" style="stop-color:#FFFFFF"/>
								<stop  offset="0.211" style="stop-color:#FAFAFA"/>
								<stop  offset="0.3803" style="stop-color:#F1F1F2"/>
								<stop  offset="0.5" style="stop-color:#E6E7E8"/>
								<stop  offset="0.6197" style="stop-color:#F1F1F2"/>
								<stop  offset="0.789" style="stop-color:#FAFAFA"/>
								<stop  offset="1" style="stop-color:#FFFFFF"/>
							</linearGradient>
							<path fill="url(#SVGID_37_)" stroke="#000000" stroke-width="0.782" stroke-miterlimit="10" d="M176.056,360.588
								c-0.411-0.767-9.864-1.79-16.053-1.875c-6.19-0.085-15.077,0.426-39.785,0.114v-65.896l11.97-7.658v64.833h52.121v10.48
								H176.056"/>
							<path fill="none" stroke="#000000" stroke-width="0.782" stroke-miterlimit="10" d="M180.294,356.126
								c-0.374-1.675-8.971-3.907-14.601-4.092c-5.629-0.187-13.71,0.93-36.183,0.25V287.43"/>
							<path fill="none" stroke="#000000" stroke-width="0.782" stroke-miterlimit="10" d="M178.51,357.736
								c-0.383-1.421-9.208-3.317-14.986-3.475c-5.778-0.158-14.072,0.79-37.134,0.213V289.14"/>
							<path fill="none" stroke="#000000" stroke-width="0.782" stroke-miterlimit="10" d="M177.32,359.014
								c-0.394-1.034-9.47-2.413-15.413-2.528c-5.943-0.114-14.474,0.574-38.194,0.155v-65.567"/>
						</g>
						<g>
							<linearGradient id="SVGID_38_" gradientUnits="userSpaceOnUse" x1="184.0083" y1="322.9307" x2="248.0986" y2="322.9307">
								<stop  offset="0" style="stop-color:#FFFFFF"/>
								<stop  offset="0.211" style="stop-color:#FAFAFA"/>
								<stop  offset="0.3803" style="stop-color:#F1F1F2"/>
								<stop  offset="0.5" style="stop-color:#E6E7E8"/>
								<stop  offset="0.6197" style="stop-color:#F1F1F2"/>
								<stop  offset="0.789" style="stop-color:#FAFAFA"/>
								<stop  offset="1" style="stop-color:#FFFFFF"/>
							</linearGradient>
							<path fill="url(#SVGID_38_)" stroke="#000000" stroke-width="0.782" stroke-miterlimit="10" d="M192.26,360.588
								c0.411-0.767,9.864-1.79,16.055-1.875c6.189-0.085,15.076,0.426,39.783,0.114v-65.896l-11.969-7.658v64.833h-52.122v10.48
								H192.26"/>
							<path fill="none" stroke="#000000" stroke-width="0.782" stroke-miterlimit="10" d="M188.023,356.126
								c0.373-1.675,8.97-3.907,14.599-4.092c5.63-0.187,13.713,0.93,36.182,0.25V287.43"/>
							<path fill="none" stroke="#000000" stroke-width="0.782" stroke-miterlimit="10" d="M189.807,357.736
								c0.384-1.421,9.208-3.317,14.985-3.475c5.778-0.158,14.073,0.79,37.136,0.213V289.14"/>
							<path fill="none" stroke="#000000" stroke-width="0.782" stroke-miterlimit="10" d="M190.997,359.014
								c0.395-1.034,9.469-2.413,15.412-2.528c5.944-0.114,14.474,0.574,38.196,0.155v-65.567"/>
						</g>
						<g>
							<radialGradient id="SVGID_39_" cx="184.1128" cy="319.7861" r="44.0862" gradientUnits="userSpaceOnUse">
								<stop  offset="0" style="stop-color:#FFFFFF"/>
								<stop  offset="0.5455" style="stop-color:#FCFBFA"/>
								<stop  offset="0.742" style="stop-color:#F3F1EF"/>
								<stop  offset="0.8815" style="stop-color:#E7E3E1"/>
								<stop  offset="0.9941" style="stop-color:#D8D1CE"/>
								<stop  offset="1" style="stop-color:#D7CFCD"/>
							</radialGradient>
							<path fill="url(#SVGID_39_)" stroke="#000000" stroke-width="0.782" stroke-miterlimit="10" d="M221.45,287.43
								c-7.657,0-12.117-1.784-18.884-1.784c-6.249,0-16.866,2.536-18.453,2.923c-1.587-0.387-12.204-2.923-18.453-2.923
								c-6.766,0-11.227,1.784-18.885,1.784c-7.658,0-14.587-2.156-14.587-2.156v64.833c23.063,0.815,31.358-0.523,37.136-0.3
								c5.171,0.199,14.688,4.629,14.789,4.487c0.101,0.143,9.619-4.288,14.789-4.487c5.778-0.224,14.073,1.115,37.135,0.3v-64.833
								C236.037,285.274,229.108,287.43,221.45,287.43z"/>
							
								<line fill="none" stroke="#000000" stroke-width="0.782" stroke-miterlimit="10" x1="184.113" y1="288.568" x2="184.113" y2="354.294"/>
						</g>
					</g>
					
						<radialGradient id="SVGID_40_" cx="184.1128" cy="359.8438" r="6.9974" gradientTransform="matrix(-4.371139e-008 -1 3 -1.311342e-007 -895.4185 543.9566)" gradientUnits="userSpaceOnUse">
						<stop  offset="0" style="stop-color:#FFFFFF"/>
						<stop  offset="1" style="stop-color:#D1D3D4"/>
					</radialGradient>
					
						<ellipse fill="url(#SVGID_40_)" stroke="#000000" stroke-width="1.564" stroke-miterlimit="10" cx="184.113" cy="359.844" rx="8.275" ry="5.427"/>
				</g>
			</g>
			<polygon clip-path="url(#SVGID_35_)" fill="#ED1C24" points="377.607,267.919 188.804,97.42 0,267.919 40.609,311.916 
				188.804,178.088 336.999,311.916 			"/>
		</g>
	</g>
	<use xlink:href="#SVGID_5_"  overflow="visible" fill="none" stroke="#000000" stroke-width="7" stroke-miterlimit="10"/>
</g>
<radialGradient id="SVGID_41_" cx="298.6987" cy="589.6475" r="180.5935" gradientUnits="userSpaceOnUse">
	<stop  offset="0.6316" style="stop-color:#FFFFFF"/>
	<stop  offset="0.7049" style="stop-color:#F4F5F5"/>
	<stop  offset="0.8549" style="stop-color:#EAEBEB"/>
	<stop  offset="1" style="stop-color:#E6E7E8"/>
</radialGradient>
<path display="none" fill="url(#SVGID_41_)" stroke="#000000" stroke-width="3" stroke-miterlimit="10" d="M511.413,507.753
	c0,0-35,101-212.714,101s-212.714-101-212.714-101s-32,43-29,61s64.428,102.788,241.714,102.788s238.714-84.788,241.714-102.788
	S511.413,507.753,511.413,507.753z"/>
<g display="none">
	<path fill="none" d="M56.985,568.753c3,18,64.428,102.788,241.714,102.788s238.714-84.788,241.714-102.788"/>
	<path display="inline" d="M93.034,568.464l2.238-0.219l1.138,1.429l13.104-7.662c-1.467-1.842-3.336-2.794-5.607-2.856
		c-2.271-0.063-4.501,0.777-6.69,2.521l-0.395,0.337l-3.827-1.246c3.961-2.773,7.582-3.906,10.861-3.398
		c3.279,0.508,6.454,2.688,9.523,6.543l6.193,7.774l-6.187,2.945l-0.687-0.862c0.585-0.274,1.117-0.604,1.597-0.985
		c1.598-1.273,0.935-3.747-1.992-7.421l-0.461-0.58l-13.188,7.708l4.68,5.875l-2.944,0.164c-0.875-1.652-1.827-3.126-2.857-4.419
		l-0.526-0.66l-6.027,3.523c-5.073,2.969-9.717,4.594-13.935,4.877c-4.217,0.283-7.32-0.824-9.309-3.321
		c-1.073-1.348-1.337-3.104-0.792-5.271l4.345-0.224c-1.452,2.316-1.552,4.261-0.299,5.833c1.145,1.437,2.933,1.858,5.365,1.266
		c2.432-0.594,6.166-2.36,11.201-5.3l7.208-4.199L93.034,568.464z"/>
	<path display="inline" d="M88.763,588.657l4.134-1.038l0.755,0.654c1.033,0.895,2.143,1.139,3.331,0.732
		c1.188-0.407,2.974-1.637,5.359-3.689l9.233-7.979c2.727-2.359,5.552-3.807,8.477-4.343c2.924-0.535,5.281-0.028,7.069,1.521
		c0.799,0.691,1.384,1.884,1.755,3.578l-4.495,3.876l-0.833-0.722c0.293-0.287,0.527-0.531,0.703-0.733
		c1.915-2.211,2.038-4.037,0.371-5.48c-1.641-1.421-4.401-0.453-8.281,2.905l-8.299,7.164c-2.487,2.152-4.62,3.611-6.4,4.379
		c-1.781,0.767-3.787,1.078-6.017,0.936l7.141,6.464c2.092,1.812,4.509,2.74,7.251,2.784l-1.353,1.168
		c-2.492,0.422-4.221,0.572-5.188,0.452s-1.955-0.616-2.961-1.488L88.763,588.657z"/>
	<path display="inline" d="M116.561,611.569c-2.373-1.532-3.6-3.757-3.679-6.671c-0.079-2.915,0.999-6.103,3.234-9.563
		c3.352-5.19,7.6-8.904,12.743-11.142c5.143-2.236,9.441-2.24,12.895-0.009c2.354,1.52,3.576,3.718,3.667,6.594
		s-0.964,6.017-3.165,9.425c-3.498,5.415-7.767,9.236-12.809,11.464C124.406,613.896,120.11,613.862,116.561,611.569z
		 M117.995,610.587c2.508,1.62,5.831,1.193,9.97-1.281c4.139-2.474,7.852-6.252,11.139-11.335c4.16-6.447,4.606-10.726,1.338-12.836
		c-2.508-1.621-5.824-1.217-9.947,1.212c-4.123,2.428-7.807,6.15-11.051,11.167C115.191,604.106,114.708,608.464,117.995,610.587z"
		/>
	<path display="inline" d="M132.969,620.556l3.792-2.075l0.203,0.096c0.052,0.024,0.151,0.097,0.297,0.218
		c0.157,0.125,0.344,0.239,0.563,0.342c1.06,0.498,2.133,0.355,3.218-0.429c1.085-0.784,2.417-2.369,3.994-4.755l12.22-18.518
		c-2.141-1.006-4.242-1.031-6.302-0.077c-2.06,0.955-3.686,2.7-4.877,5.237l-0.221,0.471l-3.969,0.588
		c2.342-4.257,5.095-6.882,8.257-7.874c3.163-0.993,6.99-0.436,11.48,1.674c3.503,1.646,5.74,3.258,6.712,4.836
		s0.919,3.514-0.159,5.807c-1.78,3.789-5.321,6.073-10.622,6.852l-0.294,10.35c-0.105,3.682,0.165,5.673,0.809,5.977
		c0.707,0.332,2.566-0.332,5.579-1.991l-1.249,1.889c-3.78,2.132-6.211,2.944-7.292,2.437c-1.403-0.659-1.946-3.528-1.628-8.607
		l0.653-10.507l-2.947-1.385l-1.184,1.79c-2.599,3.938-5.895,6.472-9.889,7.601l6.016,3.034l-3.636,2.148L132.969,620.556z
		 M151.985,609.895l4.132,1.941c3.735-0.577,6.53-2.839,8.384-6.787c1.708-3.634,0.659-6.345-3.146-8.132l-0.608-0.286
		L151.985,609.895z"/>
	<path display="inline" d="M161.374,633.264l3.554-2.49l0.277,0.095c1.65,0.568,2.949,0.492,3.896-0.229
		c0.946-0.721,2.195-2.592,3.746-5.614l9.979-19.345c-2.237-0.77-4.328-0.571-6.272,0.597c-1.945,1.168-3.373,3.074-4.284,5.721
		l-0.169,0.49l-3.882,1.008c1.823-4.411,4.262-7.296,7.317-8.654c3.055-1.359,6.853-1.257,11.391,0.306l9.577,3.299l-3.623,5.812
		l-1.026-0.354c0.287-0.55,0.509-1.056,0.668-1.517c0.404-1.174,0.192-2.153-0.637-2.938c-0.829-0.785-2.541-1.624-5.136-2.518
		l-0.505-0.174l-6.436,12.55l7.264,2.502l-2.452,1.724c-2.317-1.279-3.92-2.072-4.811-2.379l-0.814-0.28l-1.17,2.286
		c-1.311,2.57-2.626,4.513-3.947,5.826s-3.107,2.453-5.359,3.421l7.672,3.115l1.687,0.656c1.77,0.609,3.71,0.354,5.82-0.765
		l-0.875,1.694c-2.838,1.999-5.104,2.707-6.798,2.123l-0.742-0.28L161.374,633.264z"/>
	<path display="inline" d="M184.813,639.245l3.006-2.581c0.529,2.486,1.654,3.935,3.374,4.345c1.642,0.392,3.41-0.177,5.303-1.706
		c1.894-1.528,4.415-4.438,7.563-8.73l11.296-15.366c-1.17-0.489-2.191-0.838-3.063-1.046c-2.335-0.557-4.327-0.186-5.976,1.111
		c-1.649,1.298-2.828,3.432-3.536,6.401l-3.816,1.444c0.898-2.827,2.053-5.067,3.462-6.722c1.562-1.845,3.168-3.039,4.821-3.583
		c1.653-0.545,3.878-0.621,6.678-0.229c0.558,0.085,1.405,0.197,2.541,0.339l3.621-0.035l-1.604,7.697l-2.811,16.095
		c-0.656,3.742-0.92,6.247-0.791,7.515c0.128,1.269,0.723,2.028,1.785,2.282c0.19,0.045,0.854,0.154,1.993,0.329l-0.579,1.463
		l-8.107-0.091l2.009-11.474l-9.132-2.178c-2.765,3.771-5.134,6.305-7.108,7.604c-1.975,1.299-4.051,1.689-6.229,1.17
		C187.446,642.807,185.88,641.455,184.813,639.245z M203.976,633.001l8.295,1.978l3.04-17.502L203.976,633.001z"/>
	<path display="inline" d="M222,649.429l3.057-3.056l0.241,0.133c0.131,0.053,0.458,0.119,0.98,0.2
		c1.26,0.197,2.289-0.271,3.087-1.403c0.798-1.133,1.737-3.444,2.817-6.937l5.623-18.266l-4.306-0.672
		c-4.369-0.682-6.921,1.339-7.659,6.061c-0.087,0.56-0.144,1.259-0.17,2.099l-3.893,1.707c1.189-4.492,3.201-7.886,6.035-10.181
		c2.833-2.295,6.083-3.156,9.748-2.585l7.217,1.126c3.257,0.509,5.458,0.55,6.606,0.124s2.067-1.626,2.759-3.604l2.775-1.022
		c-1.245,2.766-3.142,4.864-5.69,6.297c-2.548,1.432-5.264,1.923-8.146,1.474l-1.702-0.266l-4.9,15.872
		c-0.875,2.855-1.856,5.062-2.942,6.618c-1.085,1.558-2.628,2.968-4.626,4.231l6.541,1.211l-2.904,3.08L222,649.429z"/>
	<path display="inline" d="M265.539,652.667l2.556-3.398c1.089,2.641,2.667,3.988,4.733,4.044c1.354,0.037,2.576-0.717,3.663-2.26
		c1.087-1.544,1.855-3.607,2.305-6.19l3.86-22.309c-0.582-0.141-0.988-0.215-1.218-0.221c-1.894-0.052-3.498,0.829-4.81,2.642
		c-1.313,1.813-2.006,4.095-2.081,6.845l-3.401,2.149c0.36-4.379,1.732-7.755,4.117-10.128c2.385-2.374,5.534-3.508,9.449-3.401
		l1.395,0.037c1.905,8.152,3.229,16.517,3.974,25.093l11.973-24.661l3.7-0.489l-1.513,7.532l-3.328,19.185
		c-0.287,1.707-0.445,3.071-0.473,4.093c-0.037,1.383,0.558,2.091,1.786,2.124c0.608,0.017,1.426-0.047,2.452-0.192l-0.265,1.502
		l-8.569,2.081l5.291-30.575l-12.479,25.521l-1.783,0.329l0.019-0.684c0.166-6.146-0.724-13.806-2.67-22.98l-1.672,9.58
		c-2.043,11.82-5.958,17.651-11.744,17.495C268.786,655.374,267.03,654.453,265.539,652.667z"/>
	<path display="inline" d="M306.973,653.742l2.173-3.313c1.197,2.242,2.679,3.322,4.445,3.239c1.687-0.079,3.228-1.115,4.623-3.108
		s3.011-5.489,4.847-10.485l6.595-17.896c-1.26-0.146-2.337-0.197-3.232-0.155c-2.397,0.112-4.209,1.021-5.434,2.724
		c-1.226,1.704-1.767,4.081-1.624,7.131l-3.266,2.445c0.08-2.965,0.567-5.438,1.464-7.418c0.989-2.205,2.202-3.798,3.64-4.779
		c1.437-0.981,3.554-1.671,6.353-2.07c0.56-0.073,1.404-0.199,2.534-0.379l3.47-1.036l0.592,7.84l1.761,16.243
		c0.406,3.777,0.847,6.257,1.322,7.439c0.475,1.183,1.257,1.749,2.348,1.698c0.194-0.01,0.863-0.088,2.006-0.236l-0.15,1.565
		l-7.814,2.16l-1.249-11.581l-9.379,0.439c-1.611,4.388-3.185,7.479-4.722,9.275c-1.537,1.795-3.424,2.745-5.661,2.851
		C310.49,656.434,308.611,655.569,306.973,653.742z M323.654,642.431l8.519-0.398l-1.931-17.659L323.654,642.431z"/>
	<path display="inline" d="M345.86,660.993l2.659-2.561c1.563,1.569,3.418,2.234,5.563,1.992c1.506-0.169,2.594-0.906,3.262-2.211
		s1.083-3.489,1.247-6.553c0.012-0.208,0.029-0.511,0.054-0.91c-1.943,1.01-4.022,1.639-6.236,1.889
		c-2.933,0.33-5.377-0.565-7.332-2.686c-1.954-2.12-3.155-5.171-3.604-9.152c-0.701-6.229,0.284-11.744,2.957-16.544
		c2.673-4.799,6.246-7.45,10.72-7.953c2.545-0.287,5.076-0.128,7.595,0.476l-0.673,6.349l-1.044,0.117
		c-0.016-0.553-0.047-1.032-0.093-1.439c-0.156-1.393-0.831-2.453-2.022-3.183s-2.683-0.993-4.475-0.792
		c-3.059,0.345-5.512,2.756-7.359,7.236c-1.848,4.479-2.459,9.493-1.835,15.039c0.381,3.391,1.424,5.983,3.128,7.776
		c1.704,1.794,3.835,2.547,6.392,2.26c1.574-0.178,2.889-0.57,3.941-1.178l0.381-11.863l-3.03,0.341
		c-2.009,0.226-3.735,1.313-5.181,3.26l0.041-1.639c1.749-2.948,3.65-4.539,5.704-4.77l6.129-0.69l-0.521,7.393l-0.183,5.621
		c-0.172,5.146-1.063,9.008-2.675,11.586c-1.61,2.578-4.054,4.052-7.329,4.421C349.577,662.902,347.516,662.358,345.86,660.993z"/>
	<path display="inline" d="M368.161,650.8l1.841-3.899l0.245-0.094c0.065-0.028,0.213-0.049,0.445-0.061
		c0.115-0.006,0.241-0.021,0.376-0.047c1.23-0.232,2.062-0.921,2.494-2.067c0.432-1.146,0.589-3.083,0.471-5.813l-0.953-22.597
		c-2.324,0.438-4.042,1.647-5.153,3.625c-1.11,1.978-1.406,4.342-0.887,7.092l0.096,0.51l-2.872,2.799
		c-1.144-9.272,2.811-14.764,11.861-16.473l4.892-0.924c3.769-0.711,6.67-0.263,8.704,1.345c2.033,1.608,3.461,4.591,4.284,8.947
		c1.333,7.061,0.596,12.924-2.21,17.59c-2.807,4.667-7.347,7.592-13.621,8.776c-0.26,0.049-0.789,0.125-1.588,0.228L368.161,650.8z
		 M373.72,646.727l3.145,0.126c1.709,0.077,3.41-0.044,5.104-0.363c2.324-0.439,4.053-1.218,5.187-2.335
		c1.133-1.118,2.033-2.94,2.701-5.467c1.183-4.447,1.303-9.166,0.36-14.156c-1.453-7.694-5.283-10.955-11.489-9.783l-2.116,0.399
		l0.767,18.264c0.146,3.317-0.029,5.878-0.53,7.685C376.347,642.902,375.304,644.779,373.72,646.727z"/>
	<path display="inline" d="M396.614,643.442l1.351-3.725c1.683,1.906,3.373,2.615,5.073,2.127c1.623-0.466,2.883-1.829,3.781-4.091
		s1.664-6.035,2.299-11.32l2.291-18.934c-1.26,0.149-2.32,0.347-3.182,0.594c-2.307,0.662-3.86,1.964-4.659,3.904
		c-0.8,1.94-0.778,4.378,0.064,7.313l-2.614,3.133c-0.606-2.904-0.702-5.423-0.286-7.557c0.454-2.373,1.267-4.203,2.439-5.489
		c1.172-1.286,3.073-2.445,5.704-3.479c0.527-0.201,1.321-0.519,2.379-0.953l3.137-1.81l2.384,7.493l5.458,15.399
		c1.267,3.581,2.268,5.893,3.003,6.935c0.734,1.041,1.626,1.411,2.675,1.11c0.188-0.054,0.82-0.285,1.898-0.692l0.214,1.558
		l-7.105,3.904l-3.886-10.981l-9.024,2.59c-0.556,4.642-1.375,8.013-2.456,10.114c-1.082,2.102-2.699,3.462-4.852,4.079
		C400.658,645.251,398.629,644.844,396.614,643.442z M410.238,628.59l8.196-2.352l-5.95-16.738L410.238,628.59z"/>
	<path display="inline" d="M431.313,635.111l0.94-4.157l0.925-0.379c1.264-0.519,1.983-1.399,2.156-2.643s-0.117-3.393-0.872-6.447
		l-2.952-11.84c-0.874-3.498-0.891-6.673-0.048-9.524c0.842-2.852,2.357-4.726,4.547-5.622c0.978-0.4,2.307-0.384,3.985,0.049
		l1.43,5.761l-1.021,0.418c-0.123-0.391-0.235-0.71-0.337-0.958c-1.108-2.706-2.683-3.641-4.723-2.805
		c-2.009,0.822-2.391,3.723-1.146,8.701l2.646,10.64c0.798,3.189,1.138,5.752,1.018,7.688c-0.119,1.935-0.746,3.865-1.881,5.791
		l8.991-3.454c2.562-1.049,4.48-2.786,5.758-5.213l0.432,1.734c-0.749,2.414-1.396,4.025-1.938,4.834
		c-0.544,0.809-1.432,1.466-2.665,1.971L431.313,635.111z"/>
	<path display="inline" d="M455.017,625.18l0.621-4.296l0.259-0.136c1.545-0.813,2.379-1.812,2.503-2.994
		c0.123-1.184-0.384-3.376-1.522-6.575l-7.255-20.522c-2.094,1.102-3.382,2.761-3.863,4.978s-0.071,4.563,1.232,7.04l0.241,0.459
		l-1.926,3.518c-1.964-4.35-2.394-8.103-1.291-11.259c1.104-3.156,3.779-5.853,8.027-8.088l8.965-4.717l1.751,6.621l-0.961,0.505
		c-0.204-0.585-0.42-1.094-0.646-1.524c-0.578-1.1-1.438-1.616-2.577-1.55s-2.924,0.739-5.353,2.017l-0.473,0.249l4.732,13.286
		l6.8-3.577l-0.425,2.967c-2.519,0.812-4.195,1.436-5.028,1.874l-0.763,0.401l0.864,2.419c0.975,2.716,1.487,5.005,1.539,6.866
		c0.052,1.862-0.342,3.944-1.18,6.248l7.526-3.454l1.633-0.779c1.657-0.872,2.801-2.46,3.432-4.764l0.634,1.798
		c-0.488,3.438-1.525,5.573-3.11,6.407l-0.713,0.349L455.017,625.18z"/>
	<path display="inline" d="M475.603,612.12l-0.085-4.233c2.5,1.392,4.569,1.476,6.208,0.253c1.095-0.817,1.594-2.165,1.495-4.044
		c-0.098-1.879-0.775-3.978-2.032-6.296l-10.775-19.885c-0.545,0.25-0.914,0.446-1.106,0.591c-1.51,1.126-2.219,2.808-2.126,5.044
		c0.092,2.236,0.961,4.456,2.606,6.661l-1.339,3.795c-2.308-3.477-3.316-6.912-3.026-10.307s1.825-6.129,4.604-8.203l1.326-0.989
		c3.43,2.62,7.324,5.236,11.682,7.85l4.941,2.964c3.415,2.022,6.085,3.729,8.01,5.117l-6.565-12.11
		c-2.268-4.173-3.494-7.794-3.679-10.864c-0.185-3.069,0.681-5.319,2.596-6.747c0.681-0.509,1.479-0.83,2.396-0.965l0.91,3.293
		c-1.478-0.271-2.594-0.124-3.349,0.438c-1.987,1.484-1.555,4.849,1.3,10.095l8.55,15.778l3.525,6.079l-1.146,2.15
		c-1.394-1.176-4.345-3.114-8.852-5.813l-9.504-5.68c-2.538-1.52-4.745-2.922-6.623-4.209l4.381,8.06
		c2.761,5.102,4.277,9.473,4.551,13.112c0.273,3.642-0.717,6.303-2.973,7.985C479.921,612.223,477.955,612.582,475.603,612.12z"/>
	<path display="inline" d="M504.653,590.693l-1.036-3.824c2.472,0.593,4.263,0.2,5.373-1.177c1.06-1.313,1.307-3.154,0.742-5.521
		c-0.565-2.367-2.108-5.896-4.629-10.584l-9.011-16.809c-0.945,0.847-1.699,1.618-2.262,2.315c-1.507,1.868-2.029,3.825-1.567,5.873
		c0.461,2.047,1.88,4.028,4.257,5.945l-0.337,4.066c-2.166-2.027-3.692-4.033-4.579-6.018c-0.993-2.203-1.38-4.167-1.16-5.894
		c0.219-1.727,1.108-3.769,2.666-6.127c0.317-0.467,0.783-1.183,1.399-2.147l1.526-3.283l6.258,4.76l13.32,9.462
		c3.095,2.202,5.243,3.518,6.443,3.947c1.199,0.429,2.142,0.22,2.827-0.63c0.122-0.152,0.508-0.704,1.155-1.657l1.071,1.151
		l-3.57,7.279l-9.492-6.75l-5.895,7.307c2.213,4.118,3.481,7.347,3.806,9.688c0.323,2.341-0.219,4.383-1.625,6.126
		C509,589.849,507.107,590.681,504.653,590.693z M507.26,570.708l5.354-6.637l-14.491-10.273L507.26,570.708z"/>
</g>
</svg>
