<!DOCTYPE svg PUBLIC "-//W3C//DTD SVG 1.1//EN" "http://www.w3.org/Graphics/SVG/1.1/DTD/svg11.dtd" [
	<!ENTITY ns_flows "http://ns.adobe.com/Flows/1.0/">
]><svg xmlns="http://www.w3.org/2000/svg" xmlns:xlink="http://www.w3.org/1999/xlink" width="524" height="659" viewBox="36.893 14.125 524 659"><linearGradient id="a" gradientUnits="userSpaceOnUse" x1="74.681" y1="529.429" x2="129.576" y2="550.501"><stop offset="0" stop-color="#8B5E3C"/><stop offset=".497" stop-color="#FDC060"/></linearGradient><linearGradient id="b" gradientUnits="userSpaceOnUse" x1="467.822" y1="550.501" x2="522.716" y2="529.429"><stop offset=".503" stop-color="#FDC060"/><stop offset="1" stop-color="#8B5E3C"/></linearGradient><linearGradient id="c" gradientUnits="userSpaceOnUse" x1="38.393" y1="475.253" x2="143.985" y2="475.253"><stop offset="0" stop-color="#BCBEC0"/><stop offset=".333" stop-color="#E6E7E8"/></linearGradient><linearGradient id="d" gradientUnits="userSpaceOnUse" x1="453.413" y1="475.253" x2="559.004" y2="475.253"><stop offset=".632" stop-color="#E6E7E8"/><stop offset=".687" stop-color="#DBDCDD"/><stop offset=".793" stop-color="#CACBCD"/><stop offset=".898" stop-color="#BFC1C3"/><stop offset="1" stop-color="#BCBEC0"/></linearGradient><defs><path id="e" d="M298.005 17.625H46.985V276.34c0 161.08 140 299 251.714 341 118.285-39 251.713-175.92 251.713-337V17.624H298.005z"/></defs><use xlink:href="#e" overflow="visible" fill="#ED1C24"/><clipPath id="f"><use xlink:href="#e" overflow="visible"/></clipPath><g clip-path="url(#f)"><defs><path id="g" d="M298.1 58.128H80.984v223.768c0 139.324 121.09 258.613 217.714 294.94 102.308-33.73 217.713-152.158 217.713-291.48V58.128H298.1z"/></defs><clipPath id="h"><use xlink:href="#g" overflow="visible"/></clipPath><g clip-path="url(#h)"><defs><path id="i" d="M559.634 624.35l-18.9-14.113-9.682 20.352-9.678-20.353-9.68 20.352-9.675-20.353-9.68 20.352-9.676-20.353-9.68 20.352-9.677-20.353-9.68 20.352-9.678-20.353-9.682 20.352-9.683-20.353-9.68 20.352-9.68-20.353-9.683 20.352-9.684-20.353-9.683 20.352-9.682-20.353-9.68 20.352-9.682-20.353-9.68 20.352-9.688-20.353-9.683 20.352-9.69-20.353-18.91 14.118 19.22-27.41-20-23.467 20-23.465-20-23.47 20-23.47-20-23.47 20-23.465-20-23.47 20-23.468-20-23.47 20-23.472-20-23.47 20-23.47-20-23.47 20-23.47-20-23.47 20-23.47-20-23.47 20-23.47-20-23.47 20-23.474-20-23.474 20-23.474-20-23.475 20-23.477L289.476 6.24l18.9 14.11L318.06 0l9.678 20.35L337.418 0l9.674 20.35L356.772 0l9.677 20.35L376.125 0l9.678 20.35L395.484 0l9.68 20.35L414.843 0l9.682 20.35L434.206 0l9.682 20.35L453.57 0l9.683 20.35L472.936 0l9.683 20.35L492.3 0l9.68 20.35L511.663 0l9.686 20.35L531.032 0l9.69 20.35L559.63 6.235l-19.217 27.41 20 23.467-20 23.466 20 23.47-20 23.47 20 23.468-20 23.468 20 23.468-20 23.468 20 23.47-20 23.473 20 23.47-20 23.47 20 23.47-20 23.472 20 23.468-20 23.472 20 23.468-20 23.47 20 23.47-20 23.474 20 23.474-20 23.474 20 23.475-19.834 25.324z"/></defs><linearGradient id="j" gradientUnits="userSpaceOnUse" x1="288.699" y1="315.294" x2="560.413" y2="315.294"><stop offset="0" stop-color="#2E3192"/><stop offset="1" stop-color="#262262"/></linearGradient><use xlink:href="#i" overflow="visible" fill="url(#j)"/><clipPath id="k"><use xlink:href="#i" overflow="visible"/></clipPath><g clip-path="url(#k)"><radialGradient id="l" cx="-11.028" cy="-29.26" r="1" gradientTransform="matrix(24.8 0 0 -24.8 684.3 -538.9)" gradientUnits="userSpaceOnUse"><stop offset="0" stop-color="#F7D50A"/><stop offset="1" stop-color="#FBB040"/></radialGradient><path fill="url(#l)" d="M411.18 152.05c-.037 39.382-22.738 48.58.524 67.128 21.492-21.178-.21-28.783-.525-67.13z"/><path fill="none" stroke="#754C29" stroke-width="2.411" d="M411.18 152.05c-.037 39.382-22.738 48.58.524 67.128 21.492-21.178-.21-28.783-.525-67.13z"/><g><radialGradient id="m" cx="-11.002" cy="-29.234" r="1" gradientTransform="matrix(26.6 0 0 -26.6 716.9 -566.2)" gradientUnits="userSpaceOnUse"><stop offset="0" stop-color="#F7D50A"/><stop offset="1" stop-color="#FBB040"/></radialGradient><path fill="url(#m)" d="M436.012 176.547c-10.865 39.023-27.722 20.343-23.428 71.353 4.125-2.38 5.57-12.185 8.374-14.62 18.602-21.318 9.26-36.814 15.054-56.733z"/><path fill="none" stroke="#754C29" stroke-width="2.411" d="M436.012 176.547c-10.865 39.023-27.722 20.343-23.428 71.353 4.125-2.38 5.57-12.185 8.374-14.62 18.602-21.318 9.26-36.814 15.054-56.733z"/><radialGradient id="n" cx="-11.022" cy="-29.254" r="1" gradientTransform="matrix(24.3 0 0 -24.3 698.6 -468.5)" gradientUnits="userSpaceOnUse"><stop offset="0" stop-color="#F7D50A"/><stop offset="1" stop-color="#FBB040"/></radialGradient><path fill="url(#n)" d="M448.096 214.142c-11.756 18.407-39.814 13.193-35.093 58.915 2.715-4.908 6.437-12.15 9.267-13.43 12.84-8.895 13.38-30.754 25.826-45.485z"/><path fill="none" stroke="#754C29" stroke-width="2.411" d="M448.096 214.142c-11.756 18.407-39.814 13.193-35.093 58.915 2.715-4.908 6.437-12.15 9.267-13.43 12.84-8.895 13.38-30.754 25.826-45.485z"/><radialGradient id="o" cx="-11.021" cy="-29.253" r="1" gradientTransform="matrix(24.3 0 0 -24.3 698.9 -443.7)" gradientUnits="userSpaceOnUse"><stop offset="0" stop-color="#F7D50A"/><stop offset="1" stop-color="#FBB040"/></radialGradient><path fill="url(#o)" d="M448.457 238.894c-11.758 18.405-39.814 13.192-35.093 58.914 2.715-4.907 6.437-12.15 9.267-13.43 12.84-8.895 13.38-30.753 25.827-45.484z"/><path fill="none" stroke="#754C29" stroke-width="2.411" d="M448.457 238.894c-11.758 18.405-39.814 13.192-35.093 58.914 2.715-4.907 6.437-12.15 9.267-13.43 12.84-8.895 13.38-30.753 25.827-45.484z"/><radialGradient id="p" cx="-11.021" cy="-29.253" r="1" gradientTransform="matrix(24.3 0 0 -24.3 698.9 -419.6)" gradientUnits="userSpaceOnUse"><stop offset="0" stop-color="#F7D50A"/><stop offset="1" stop-color="#FBB040"/></radialGradient><path fill="url(#p)" d="M448.432 262.95c-11.758 18.406-39.813 13.193-35.094 58.915 2.715-4.907 6.438-12.15 9.27-13.43 12.838-8.894 13.378-30.753 25.824-45.484z"/><path fill="none" stroke="#754C29" stroke-width="2.411" d="M448.432 262.95c-11.758 18.406-39.813 13.193-35.094 58.915 2.715-4.907 6.438-12.15 9.27-13.43 12.838-8.894 13.378-30.753 25.824-45.484z"/><radialGradient id="q" cx="-11.008" cy="-29.24" r="1" gradientTransform="matrix(24.3 0 0 -24.3 698.9 -394.9)" gradientUnits="userSpaceOnUse"><stop offset="0" stop-color="#F7D50A"/><stop offset="1" stop-color="#FBB040"/></radialGradient><path fill="url(#q)" d="M448.805 287.36c-11.757 18.405-39.813 13.192-35.092 58.914 2.714-4.908 6.436-12.15 9.267-13.43 12.84-8.894 13.38-30.754 25.825-45.485z"/><path fill="none" stroke="#754C29" stroke-width="2.411" d="M448.805 287.36c-11.757 18.405-39.813 13.192-35.092 58.914 2.714-4.908 6.436-12.15 9.267-13.43 12.84-8.894 13.38-30.754 25.825-45.485z"/><radialGradient id="r" cx="-11.007" cy="-29.239" r="1" gradientTransform="matrix(24.3 0 0 -24.3 698.9 -370.8)" gradientUnits="userSpaceOnUse"><stop offset="0" stop-color="#F7D50A"/><stop offset="1" stop-color="#FBB040"/></radialGradient><path fill="url(#r)" d="M448.78 311.417c-11.757 18.407-39.813 13.193-35.093 58.915 2.716-4.908 6.438-12.15 9.268-13.43 12.838-8.895 13.38-30.755 25.825-45.485z"/><path fill="none" stroke="#754C29" stroke-width="2.411" d="M448.78 311.417c-11.757 18.407-39.813 13.193-35.093 58.915 2.716-4.908 6.438-12.15 9.268-13.43 12.838-8.895 13.38-30.755 25.825-45.485z"/><radialGradient id="s" cx="-11.004" cy="-29.236" r="1" gradientTransform="matrix(24.3 0 0 -24.3 699.2 -346.4)" gradientUnits="userSpaceOnUse"><stop offset="0" stop-color="#F7D50A"/><stop offset="1" stop-color="#FBB040"/></radialGradient><path fill="url(#s)" d="M449.153 335.826c-11.756 18.405-39.813 13.193-35.092 58.913 2.716-4.907 6.44-12.148 9.268-13.43 12.84-8.894 13.38-30.753 25.825-45.484z"/><path fill="none" stroke="#754C29" stroke-width="2.411" d="M449.153 335.826c-11.756 18.405-39.813 13.193-35.092 58.913 2.716-4.907 6.44-12.148 9.268-13.43 12.84-8.894 13.38-30.753 25.825-45.484z"/></g><g><radialGradient id="t" cx="-11.018" cy="-29.25" r="1" gradientTransform="matrix(26.6 0 0 -26.6 692.4 -566.3)" gradientUnits="userSpaceOnUse"><stop offset="0" stop-color="#F7D50A"/><stop offset="1" stop-color="#FBB040"/></radialGradient><path fill="url(#t)" d="M386.64 176.39c11.57 38.82 28.086 19.838 24.717 70.917-4.17-2.304-5.79-12.08-8.64-14.467-18.983-20.976-9.925-36.64-16.076-56.45z"/><path fill="none" stroke="#754C29" stroke-width="2.41" d="M386.64 176.39c11.57 38.82 28.086 19.838 24.717 70.917-4.17-2.304-5.79-12.08-8.64-14.467-18.983-20.976-9.925-36.64-16.076-56.45z"/><radialGradient id="u" cx="-11.026" cy="-29.258" r="1" gradientTransform="matrix(24.3 0 0 -24.3 661.6 -468)" gradientUnits="userSpaceOnUse"><stop offset="0" stop-color="#F7D50A"/><stop offset="1" stop-color="#FBB040"/></radialGradient><path fill="url(#u)" d="M375.24 214.2c12.087 18.19 40.046 12.47 36.152 58.27-2.803-4.86-6.656-12.033-9.51-13.263-12.998-8.66-13.932-30.506-26.642-45.008z"/><path fill="none" stroke="#754C29" stroke-width="2.41" d="M375.24 214.2c12.087 18.19 40.046 12.47 36.152 58.27-2.803-4.86-6.656-12.033-9.51-13.263-12.998-8.66-13.932-30.506-26.642-45.008z"/><radialGradient id="v" cx="-11.015" cy="-29.247" r="1" gradientTransform="matrix(24.3 0 0 -24.3 661.4 -443)" gradientUnits="userSpaceOnUse"><stop offset="0" stop-color="#F7D50A"/><stop offset="1" stop-color="#FBB040"/></radialGradient><path fill="url(#v)" d="M375.328 238.952c12.088 18.19 40.045 12.47 36.152 58.27-2.803-4.857-6.656-12.03-9.51-13.26-12.997-8.66-13.932-30.507-26.642-45.01z"/><path fill="none" stroke="#754C29" stroke-width="2.41" d="M375.328 238.952c12.088 18.19 40.045 12.47 36.152 58.27-2.803-4.857-6.656-12.03-9.51-13.26-12.997-8.66-13.932-30.507-26.642-45.01z"/><radialGradient id="w" cx="-11.026" cy="-29.258" r="1" gradientTransform="matrix(24.3 0 0 -24.3 662.1 -419.2)" gradientUnits="userSpaceOnUse"><stop offset="0" stop-color="#F7D50A"/><stop offset="1" stop-color="#FBB040"/></radialGradient><path fill="url(#w)" d="M375.787 263.005c12.088 18.19 40.045 12.47 36.153 58.27-2.804-4.86-6.657-12.03-9.51-13.262-12.997-8.66-13.932-30.505-26.643-45.008z"/><path fill="none" stroke="#754C29" stroke-width="2.41" d="M375.787 263.005c12.088 18.19 40.045 12.47 36.153 58.27-2.804-4.86-6.657-12.03-9.51-13.262-12.997-8.66-13.932-30.505-26.643-45.008z"/><radialGradient id="x" cx="-11.023" cy="-29.255" r="1" gradientTransform="matrix(24.3 0 0 -24.3 662.1 -394.7)" gradientUnits="userSpaceOnUse"><stop offset="0" stop-color="#F7D50A"/><stop offset="1" stop-color="#FBB040"/></radialGradient><path fill="url(#x)" d="M375.855 287.417c12.088 18.19 40.045 12.47 36.153 58.27-2.804-4.86-6.657-12.032-9.51-13.262-12.997-8.66-13.932-30.506-26.643-45.008z"/><path fill="none" stroke="#754C29" stroke-width="2.41" d="M375.855 287.417c12.088 18.19 40.045 12.47 36.153 58.27-2.804-4.86-6.657-12.032-9.51-13.262-12.997-8.66-13.932-30.506-26.643-45.008z"/><radialGradient id="y" cx="-11.028" cy="-29.26" r="1" gradientTransform="matrix(24.3 0 0 -24.3 662.7 -370.8)" gradientUnits="userSpaceOnUse"><stop offset="0" stop-color="#F7D50A"/><stop offset="1" stop-color="#FBB040"/></radialGradient><path fill="url(#y)" d="M376.315 311.47c12.087 18.19 40.045 12.47 36.152 58.27-2.804-4.858-6.656-12.03-9.508-13.262-13-8.66-13.934-30.506-26.645-45.008z"/><path fill="none" stroke="#754C29" stroke-width="2.41" d="M376.315 311.47c12.087 18.19 40.045 12.47 36.152 58.27-2.804-4.858-6.656-12.03-9.508-13.262-13-8.66-13.934-30.506-26.645-45.008z"/><radialGradient id="z" cx="-11.027" cy="-29.258" r="1" gradientTransform="matrix(24.3 0 0 -24.3 662.7 -346.3)" gradientUnits="userSpaceOnUse"><stop offset="0" stop-color="#F7D50A"/><stop offset="1" stop-color="#FBB040"/></radialGradient><path fill="url(#z)" d="M376.383 335.88c12.087 18.19 40.046 12.472 36.152 58.27-2.803-4.856-6.656-12.03-9.508-13.26-12.998-8.66-13.933-30.507-26.644-45.01z"/><path fill="none" stroke="#754C29" stroke-width="2.41" d="M376.383 335.88c12.087 18.19 40.046 12.472 36.152 58.27-2.803-4.856-6.656-12.03-9.508-13.26-12.998-8.66-13.933-30.507-26.644-45.01z"/></g></g></g><g clip-path="url(#h)"><defs><path id="A" d="M56.206 616.48l.46 14.11 9.68-20.353 9.678 20.352 9.68-20.353 9.675 20.352 9.678-20.353 9.676 20.352 9.68-20.353 9.676 20.352 9.68-20.353 9.68 20.352 9.68-20.353 9.682 20.352 9.68-20.353 9.682 20.352 9.682-20.353 9.684 20.352 9.682-20.353 9.683 20.352 9.68-20.353 9.68 20.352 9.684-20.353 9.685 20.352 9.684-20.353 9.688 20.352.47-14.117 19.22-19.528-20-23.467 20-23.465-20-23.468 20-23.472-20-23.47 20-23.465-20-23.47 20-23.468-20-23.47 20-23.47-20-23.47 20-23.472-20-23.47 20-23.47-20-23.47 20-23.47-20-23.47 20-23.47-20-23.47 20-23.473-20-23.474 20-23.474-20-23.474 20-23.478-19.22-19.54L289.017 0l-9.68 20.352L269.66 0l-9.68 20.352L250.306 0l-9.68 20.352L230.95 0l-9.68 20.352L211.594 0l-9.68 20.352L192.235 0l-9.68 20.352L172.87 0l-9.68 20.352L153.51 0l-9.682 20.352L134.144 0l-9.682 20.352L114.78 0l-9.68 20.352L95.417 0l-9.683 20.352L76.048 0l-9.683 20.352L56.675 0l-.47 14.118-19.22 19.525 20 23.468-20 23.467 20 23.468-20 23.47 20 23.47-20 23.467 20 23.468-20 23.47 20 23.468-20 23.473 20 23.47-20 23.47 20 23.47-20 23.472 20 23.468-20 23.472 20 23.468-20 23.47 20 23.472-20 23.472 20 23.474-20 23.474 20 23.475-19.77 25.647z"/></defs><linearGradient id="B" gradientUnits="userSpaceOnUse" x1="540.412" y1="315.295" x2="812.125" y2="315.295" gradientTransform="matrix(-1 0 0 1 849.1 0)"><stop offset="0" stop-color="#FFF"/><stop offset="1" stop-color="#D1D3D4"/></linearGradient><use xlink:href="#A" overflow="visible" fill="url(#B)"/><clipPath id="C"><use xlink:href="#A" overflow="visible"/></clipPath><g clip-path="url(#C)"><linearGradient id="D" gradientUnits="userSpaceOnUse" x1="116.33" y1="325.584" x2="251.895" y2="325.584"><stop offset="0" stop-color="#2B3990"/><stop offset=".113" stop-color="#2A3A91"/><stop offset=".204" stop-color="#294094"/><stop offset=".287" stop-color="#274A9A"/><stop offset=".365" stop-color="#2557A3"/><stop offset=".44" stop-color="#2166AE"/><stop offset=".5" stop-color="#1C75BC"/><stop offset=".56" stop-color="#2166AE"/><stop offset=".635" stop-color="#2557A3"/><stop offset=".713" stop-color="#274A9A"/><stop offset=".796" stop-color="#294094"/><stop offset=".887" stop-color="#2A3A91"/><stop offset="1" stop-color="#2B3990"/></linearGradient><path fill="url(#D)" stroke="#000" stroke-width="2.346" stroke-miterlimit="10" d="M184.113 288.568H116.33V362.6h54.65c3.903 0 6.39-5.27 6.39-5.27s-.595.03 6.743.03 6.745-.03 6.745-.03 2.485 5.27 6.39 5.27h54.648v-74.032h-67.783z"/><linearGradient id="E" gradientUnits="userSpaceOnUse" x1="120.218" y1="322.931" x2="184.309" y2="322.931"><stop offset="0" stop-color="#FFF"/><stop offset=".211" stop-color="#FAFAFA"/><stop offset=".38" stop-color="#F1F1F2"/><stop offset=".5" stop-color="#E6E7E8"/><stop offset=".62" stop-color="#F1F1F2"/><stop offset=".789" stop-color="#FAFAFA"/><stop offset="1" stop-color="#FFF"/></linearGradient><path fill="url(#E)" stroke="#000" stroke-width=".782" stroke-miterlimit="10" d="M176.056 360.588c-.41-.767-9.864-1.79-16.053-1.875-6.19-.085-15.077.426-39.785.114V292.93l11.97-7.657v64.833h52.12v10.48h-8.252"/><path fill="none" stroke="#000" stroke-width=".782" stroke-miterlimit="10" d="M180.294 356.126c-.374-1.675-8.97-3.907-14.6-4.092-5.63-.187-13.71.93-36.184.25V287.43"/><path fill="none" stroke="#000" stroke-width=".782" stroke-miterlimit="10" d="M178.51 357.736c-.383-1.42-9.208-3.317-14.986-3.475-5.778-.157-14.072.79-37.134.214V289.14"/><path fill="none" stroke="#000" stroke-width=".782" stroke-miterlimit="10" d="M177.32 359.014c-.394-1.034-9.47-2.413-15.413-2.528-5.943-.114-14.474.574-38.194.155v-65.566"/><g><linearGradient id="F" gradientUnits="userSpaceOnUse" x1="184.008" y1="322.931" x2="248.099" y2="322.931"><stop offset="0" stop-color="#FFF"/><stop offset=".211" stop-color="#FAFAFA"/><stop offset=".38" stop-color="#F1F1F2"/><stop offset=".5" stop-color="#E6E7E8"/><stop offset=".62" stop-color="#F1F1F2"/><stop offset=".789" stop-color="#FAFAFA"/><stop offset="1" stop-color="#FFF"/></linearGradient><path fill="url(#F)" stroke="#000" stroke-width=".782" stroke-miterlimit="10" d="M192.26 360.588c.41-.767 9.864-1.79 16.055-1.875 6.19-.085 15.076.426 39.783.114V292.93l-11.97-7.657v64.833h-52.12v10.48h8.252"/><path fill="none" stroke="#000" stroke-width=".782" stroke-miterlimit="10" d="M188.023 356.126c.373-1.675 8.97-3.907 14.6-4.092 5.63-.187 13.712.93 36.18.25V287.43"/><path fill="none" stroke="#000" stroke-width=".782" stroke-miterlimit="10" d="M189.807 357.736c.384-1.42 9.208-3.317 14.985-3.475 5.778-.157 14.073.79 37.136.214V289.14"/><path fill="none" stroke="#000" stroke-width=".782" stroke-miterlimit="10" d="M190.997 359.014c.395-1.034 9.47-2.413 15.412-2.528 5.943-.114 14.473.574 38.195.155v-65.566"/></g><g><radialGradient id="G" cx="184.113" cy="319.786" r="44.086" gradientUnits="userSpaceOnUse"><stop offset="0" stop-color="#FFF"/><stop offset=".545" stop-color="#FCFBFA"/><stop offset=".742" stop-color="#F3F1EF"/><stop offset=".881" stop-color="#E7E3E1"/><stop offset=".994" stop-color="#D8D1CE"/><stop offset="1" stop-color="#D7CFCD"/></radialGradient><path fill="url(#G)" stroke="#000" stroke-width=".782" stroke-miterlimit="10" d="M221.45 287.43c-7.657 0-12.117-1.784-18.884-1.784-6.25 0-16.866 2.536-18.453 2.923-1.587-.388-12.204-2.924-18.453-2.924-6.766 0-11.227 1.784-18.885 1.784-7.658 0-14.587-2.156-14.587-2.156v64.833c23.063.815 31.358-.523 37.136-.3 5.17.2 14.688 4.63 14.79 4.487.1.143 9.618-4.288 14.788-4.487 5.778-.224 14.073 1.115 37.135.3v-64.833s-6.93 2.156-14.587 2.156z"/><path fill="none" stroke="#000" stroke-width=".782" stroke-miterlimit="10" d="M184.113 288.568v65.726"/></g><radialGradient id="H" cx="184.113" cy="359.844" r="6.997" gradientTransform="matrix(0 -1 3 0 -895.4 544)" gradientUnits="userSpaceOnUse"><stop offset="0" stop-color="#FFF"/><stop offset="1" stop-color="#D1D3D4"/></radialGradient><ellipse fill="url(#H)" stroke="#000" stroke-width="1.564" stroke-miterlimit="10" cx="184.113" cy="359.844" rx="8.275" ry="5.427"/></g><path clip-path="url(#C)" fill="#ED1C24" d="M377.607 267.92L188.804 97.42 0 267.92l40.61 43.996 148.194-133.828L337 311.916"/></g></g><use xlink:href="#e" overflow="visible" fill="none" stroke="#000" stroke-width="7" stroke-miterlimit="10"/><radialGradient id="I" cx="298.699" cy="589.648" r="180.594" gradientUnits="userSpaceOnUse"><stop offset=".632" stop-color="#FFF"/><stop offset=".705" stop-color="#F4F5F5"/><stop offset=".855" stop-color="#EAEBEB"/><stop offset="1" stop-color="#E6E7E8"/></radialGradient></svg>