<?xml version="1.0" encoding="UTF-8" standalone="no"?>
<!-- Generator: Adobe Illustrator 15.0.0, SVG Export Plug-In  -->

<svg
   xmlns:dc="http://purl.org/dc/elements/1.1/"
   xmlns:cc="http://creativecommons.org/ns#"
   xmlns:rdf="http://www.w3.org/1999/02/22-rdf-syntax-ns#"
   xmlns:svg="http://www.w3.org/2000/svg"
   xmlns="http://www.w3.org/2000/svg"
   xmlns:xlink="http://www.w3.org/1999/xlink"
   xmlns:sodipodi="http://sodipodi.sourceforge.net/DTD/sodipodi-0.dtd"
   xmlns:inkscape="http://www.inkscape.org/namespaces/inkscape"
   version="1.1"
   x="0px"
   y="0px"
   width="510.42801"
   height="606.9245"
   viewBox="132.396 -0.5 510.42802 606.92451"
   enable-background="new 132.396 -0.5 524 659"
   xml:space="preserve"
   id="svg6799"
   inkscape:version="0.91pre3 r13670"
   sodipodi:docname="lady-margaret-hall.svg"
   inkscape:export-filename="C:\Users\Tom\LMH App Files\48.png"
   inkscape:export-xdpi="7.0819674"
   inkscape:export-ydpi="7.0819674"><metadata
     id="metadata7357"><rdf:RDF><cc:Work
         rdf:about=""><dc:format>image/svg+xml</dc:format><dc:type
           rdf:resource="http://purl.org/dc/dcmitype/StillImage" /><dc:title></dc:title></cc:Work></rdf:RDF></metadata><sodipodi:namedview
     pagecolor="#2b2b1e"
     bordercolor="#666666"
     borderopacity="1"
     objecttolerance="10"
     gridtolerance="10"
     guidetolerance="10"
     inkscape:pageopacity="0"
     inkscape:pageshadow="2"
     inkscape:window-width="1920"
     inkscape:window-height="1003"
     id="namedview7355"
     showgrid="false"
     inkscape:zoom="0.64"
     inkscape:cx="16.3279"
     inkscape:cy="313.38066"
     inkscape:window-x="-9"
     inkscape:window-y="-9"
     inkscape:window-maximized="1"
     inkscape:current-layer="svg6799"
     fit-margin-top="0"
     fit-margin-left="0"
     fit-margin-right="0"
     fit-margin-bottom="0"
     height="2104.72px"
     showborder="true" /><defs
     id="defs6801"><radialGradient
       gradientUnits="userSpaceOnUse"
       r="48.400501"
       cy="523.53998"
       cx="394.20169"
       id="radialGradient9319"><stop
         id="stop9321"
         style="stop-color:#262262"
         offset="0" /><stop
         id="stop9323"
         style="stop-color:#2E3192"
         offset="1" /></radialGradient><radialGradient
       gradientUnits="userSpaceOnUse"
       r="47.569"
       cy="542.96002"
       cx="394.20169"
       id="radialGradient9313"><stop
         id="stop9315"
         style="stop-color:#262262"
         offset="0" /><stop
         id="stop9317"
         style="stop-color:#2E3192"
         offset="1" /></radialGradient><radialGradient
       gradientUnits="userSpaceOnUse"
       r="19.3379"
       cy="419.88379"
       cx="394.20261"
       id="radialGradient9307"
       fx="394.20261"
       fy="419.88379"
       spreadMethod="pad"><stop
         id="stop9309"
         style="stop-color:#262262"
         offset="0" /><stop
         id="stop9311"
         style="stop-color:#2E3192"
         offset="1" /></radialGradient><radialGradient
       gradientUnits="userSpaceOnUse"
       r="19.3379"
       cy="419.88379"
       cx="394.20261"
       id="radialGradient9301"><stop
         id="stop9303"
         style="stop-color:#262262"
         offset="0" /><stop
         id="stop9305"
         style="stop-color:#2E3192"
         offset="1" /></radialGradient><clipPath
       clipPathUnits="userSpaceOnUse"
       id="clipPath4366"><use
         height="659"
         width="524"
         y="0"
         x="0"
         style="overflow:visible;fill:#ff00ff"
         id="use4368"
         overflow="visible"
         xlink:href="#SVGID_2_"
         transform="translate(-89.452995,1.643005)" /></clipPath></defs><linearGradient
     id="SVGID_3_"
     gradientUnits="userSpaceOnUse"
     x1="170.1851"
     y1="515.30371"
     x2="225.07941"
     y2="536.37567"
     gradientTransform="translate(-56.629015,1.1430031)"><stop
       offset="0"
       style="stop-color:#8B5E3C"
       id="stop6804" /><stop
       offset="0.497"
       style="stop-color:#FDC060"
       id="stop6806" /></linearGradient><path
     display="none"
     stroke-miterlimit="10"
     d="m 184.85998,494.77101 -72,70 c 0,0 -13.529999,0.171 -11,-15 2.529,-15.17101 23,-55 23,-55 0,0 1,-8 21,-9 20,-1 39,9 39,9 z"
     id="path6808"
     inkscape:connector-curvature="0"
     style="display:none;fill:url(#SVGID_3_);stroke:#000000;stroke-width:3;stroke-miterlimit:10" /><linearGradient
     id="SVGID_4_"
     gradientUnits="userSpaceOnUse"
     x1="563.32568"
     y1="536.37598"
     x2="618.21997"
     y2="515.30402"
     gradientTransform="translate(-56.629015,1.1430031)"><stop
       offset="0.503"
       style="stop-color:#FDC060"
       id="stop6811" /><stop
       offset="1"
       style="stop-color:#8B5E3C"
       id="stop6813" /></linearGradient><path
     display="none"
     stroke-miterlimit="10"
     d="m 490.28798,494.77101 72,70 c 0,0 13.529,0.171 11,-15 -2.529,-15.17101 -23,-55 -23,-55 0,0 -1,-8 -21,-9 -20,-1 -39,9 -39,9 z"
     id="path6815"
     inkscape:connector-curvature="0"
     style="display:none;fill:url(#SVGID_4_);stroke:#000000;stroke-width:3;stroke-miterlimit:10" /><linearGradient
     id="SVGID_5_"
     gradientUnits="userSpaceOnUse"
     x1="133.8965"
     y1="461.1279"
     x2="239.4888"
     y2="461.1279"
     gradientTransform="translate(-56.629015,1.1430031)"><stop
       offset="0"
       style="stop-color:#BCBEC0"
       id="stop6818" /><stop
       offset="0.3333"
       style="stop-color:#E6E7E8"
       id="stop6820" /></linearGradient><path
     display="none"
     stroke-miterlimit="10"
     d="m 77.859991,457.77101 c 0,-18 7.31599,-28 34.999999,-28 27.684,0 51,8 51,8 l 19,57 c 0,0 -71.883,-16.141 -90.940999,-9.07 -19.058,7.071 -14.059,-27.93 -14.059,-27.93 z"
     id="path6822"
     inkscape:connector-curvature="0"
     style="display:none;fill:url(#SVGID_5_);stroke:#000000;stroke-width:3;stroke-miterlimit:10" /><linearGradient
     id="SVGID_6_"
     gradientUnits="userSpaceOnUse"
     x1="548.9165"
     y1="461.1279"
     x2="654.5083"
     y2="461.1279"
     gradientTransform="translate(-56.629015,1.1430031)"><stop
       offset="0.6316"
       style="stop-color:#E6E7E8"
       id="stop6825" /><stop
       offset="0.6867"
       style="stop-color:#DBDCDD"
       id="stop6827" /><stop
       offset="0.7932"
       style="stop-color:#CACBCD"
       id="stop6829" /><stop
       offset="0.8984"
       style="stop-color:#BFC1C3"
       id="stop6831" /><stop
       offset="1"
       style="stop-color:#BCBEC0"
       id="stop6833" /></linearGradient><path
     display="none"
     stroke-miterlimit="10"
     d="m 597.28798,457.77101 c 0,-18 -7.316,-28 -35,-28 -27.684,0 -51,8 -51,8 l -19,57 c 0,0 71.883,-16.141 90.941,-9.07 19.058,7.071 14.059,-27.93 14.059,-27.93 z"
     id="path6835"
     inkscape:connector-curvature="0"
     style="display:none;fill:url(#SVGID_6_);stroke:#000000;stroke-width:3;stroke-miterlimit:10" /><path
     display="none"
     stroke-miterlimit="10"
     d="m 77.859991,457.77101 c 0,0 8,6 22.999999,6 9.731,10.067 11,32 11,58.345 -24.999999,-1.345 -33.999999,-19.345 -33.999999,-48.345 0,-29 0,-16 0,-16 z"
     id="path6837"
     inkscape:connector-curvature="0"
     style="display:none;fill:#fbb040;stroke:#000000;stroke-width:3;stroke-miterlimit:10" /><path
     display="none"
     stroke-miterlimit="10"
     d="m 597.28798,457.77101 c 0,0 -8,6 -23,6 -9.731,10.067 -11,32 -11,58.345 25,-1.345 34,-19.345 34,-48.345 0,-29 0,-16 0,-16 z"
     id="path6839"
     inkscape:connector-curvature="0"
     style="display:none;fill:#fbb040;stroke:#000000;stroke-width:3;stroke-miterlimit:10" /><g
     id="g6841"
     transform="translate(-6.8430039,-0.5)"><defs
       id="defs6843"><path
         id="SVGID_2_"
         d="m 393.759,3.5 -251.02,0 c 0,0 0,138.937 0,258.714 0,161.081 140,299 251.714,341 118.286,-39 251.714,-175.92 251.714,-337 0,-119.778 0,-262.714 0,-262.714 l -252.408,0 z"
         inkscape:connector-curvature="0" /></defs><linearGradient
       id="SVGID_7_"
       gradientUnits="userSpaceOnUse"
       x1="142.7388"
       y1="303.3569"
       x2="646.1665"
       y2="303.3569"><stop
         offset="0"
         style="stop-color:#F9ED32"
         id="stop6847" /><stop
         offset="1"
         style="stop-color:#FBB040"
         id="stop6849" /></linearGradient><use
       xlink:href="#SVGID_2_"
       overflow="visible"
       stroke-miterlimit="10"
       id="use7306"
       style="overflow:visible;fill:#ffffff;stroke:#002147;stroke-width:7;stroke-miterlimit:10;stroke-opacity:1"
       x="0"
       y="0"
       width="524"
       height="659" /><use
       xlink:href="#SVGID_2_"
       overflow="visible"
       id="use6851"
       style="overflow:visible;fill:none"
       x="0"
       y="0"
       width="524"
       height="659" /><clipPath
       id="SVGID_8_"><use
         xlink:href="#SVGID_2_"
         overflow="visible"
         id="use6854"
         style="overflow:visible"
         x="0"
         y="0"
         width="524"
         height="659" /></clipPath><g
       clip-path="url(#SVGID_8_)"
       id="g6856"><radialGradient
         id="SVGID_9_"
         cx="431.98969"
         cy="51.382801"
         r="10.7892"
         gradientUnits="userSpaceOnUse"><stop
           offset="0"
           style="stop-color:#262262"
           id="stop6859" /><stop
           offset="1"
           style="stop-color:#2E3192"
           id="stop6861" /></radialGradient><path
         style="fill:#002147;fill-opacity:1;stroke:none;stroke-width:2;stroke-miterlimit:10"
         d="m 351.59375,46.96875 c -0.23882,-0.0152 -0.46619,0.0013 -0.71875,0.03125 -1.72171,0.204134 -4.03471,0.496029 -6.40625,0.90625 0.0384,0.306911 0.1028,0.617668 0.125,0.9375 0.0607,0.873013 0.0394,1.739509 -0.0937,2.53125 -0.0666,0.395871 -0.15933,0.795623 -0.34375,1.15625 -0.18442,0.360627 -0.47917,0.722951 -0.96875,0.90625 -0.468,0.175539 -0.94228,0.104494 -1.3125,-0.03125 -0.37022,-0.135744 -0.69957,-0.329386 -1,-0.5625 -0.60086,-0.466229 -1.15101,-1.07389 -1.65625,-1.6875 -0.4989,-0.605918 -0.98667,-1.218042 -1.3125,-1.6875 -0.76209,0.253874 -1.48549,0.513943 -2.09375,0.8125 -3.766,1.849 -8.76175,6.2465 -6.84375,8.4375 1.842,2.105 8.06225,-5.21625 11.28125,-4.53125 3.219,0.685 15.20275,1.10625 16.09375,-0.46875 0.83531,-1.476562 -1.16771,-6.522034 -4.75,-6.75 z M 342.5,48.28125 c -0.85253,0.17243 -1.6923,0.355463 -2.5,0.5625 0.18317,0.268415 0.40975,0.580065 0.78125,1.03125 0.45339,0.55064 0.9517,1.070791 1.34375,1.375 0.12738,0.09884 0.19365,0.14 0.28125,0.1875 0.0381,-0.105067 0.0931,-0.185183 0.125,-0.375 0.0895,-0.532165 0.116,-1.323138 0.0625,-2.09375 -0.0159,-0.229138 -0.066,-0.464054 -0.0937,-0.6875 z"
         transform="translate(89.452995,-1.643005)"
         id="path6863"
         inkscape:connector-curvature="0" /><radialGradient
         id="SVGID_10_"
         cx="430.37939"
         cy="47.398399"
         r="3.1131999"
         gradientUnits="userSpaceOnUse"><stop
           offset="0"
           style="stop-color:#262262"
           id="stop6866" /><stop
           offset="1"
           style="stop-color:#2E3192"
           id="stop6868" /></radialGradient><radialGradient
         id="SVGID_11_"
         cx="553.31787"
         cy="135.9512"
         r="35.863098"
         gradientUnits="userSpaceOnUse"><stop
           offset="0"
           style="stop-color:#262262"
           id="stop6873" /><stop
           offset="1"
           style="stop-color:#2E3192"
           id="stop6875" /></radialGradient><path
         style="fill:#002147;fill-opacity:1;stroke:none"
         d="m 481.3125,100.46875 c -1.37749,0.0666 -2.68971,0.50232 -4.1875,1.25 -2.55017,1.27301 -5.51226,3.44714 -9.53125,6 -1.21768,0.77347 -2.59761,1.57893 -4.03125,2.40625 -1.377,3.78952 -2.30493,8.44236 -2.5,14.1875 -0.28,8.224 6.70325,16.02425 6.15625,17.53125 -0.548,1.506 -9.86225,22.3355 -14.65625,24.9375 -4.794,2.603 -9.30075,2.46875 -11.21875,5.34375 -1.917,2.877 -4.2415,6.28275 -2.1875,6.96875 2.055,0.685 10.19025,2.34375 13.65625,2.34375 3.466,0 26.06175,-36.30425 30.71875,-38.90625 3.1112,-1.73832 3.27147,-18.92983 3.78125,-30.8125 -1.72303,-4.39892 -2.10155,-8.12517 -3.40625,-10.96875 -0.90429,-0.2156 -1.76726,-0.32118 -2.59375,-0.28125 z"
         transform="translate(89.452995,-1.643005)"
         id="path6877"
         inkscape:connector-curvature="0"
         sodipodi:nodetypes="sssccccccssccs" /><radialGradient
         id="SVGID_12_"
         cx="447.80911"
         cy="130.6523"
         r="29.125601"
         gradientUnits="userSpaceOnUse"><stop
           offset="0"
           style="stop-color:#262262"
           id="stop6880" /><stop
           offset="1"
           style="stop-color:#2E3192"
           id="stop6882" /></radialGradient><path
         style="fill:#002147;fill-opacity:1;stroke:none"
         d="m 364.78125,107.1875 c -0.91259,0.26971 -1.77675,0.6219 -2.59375,1.09375 -9.725,5.616 -21.80225,5.06575 -27.28125,13.96875 -5.479,8.902 -0.416,13.41525 -4.25,19.03125 -3.836,5.615 -5.6045,8.6335 -3.6875,10.6875 1.918,2.054 2.47375,6.44225 3.84375,6.03125 1.369,-0.411 1.92675,-4.649 3.84375,-4.375 1.918,0.274 4.5,-0.40875 4.5,-1.09375 0,-0.685 0.41775,-14.1115 2.46875,-19.3125 2.051,-5.201 -1.104,-9.59975 33,-8.09375 4.88338,-0.0725 8.31811,-0.29543 10.75,-0.625 -12.02509,-3.15542 -16.76186,-10.47657 -20.59375,-17.3125 z"
         transform="translate(89.452995,-1.643005)"
         id="path6884"
         inkscape:connector-curvature="0"
         sodipodi:nodetypes="cccccccssccc" /><radialGradient
         id="SVGID_13_"
         cx="521.8042"
         cy="103.4189"
         r="95.180199"
         gradientUnits="userSpaceOnUse"><stop
           offset="0"
           style="stop-color:#262262"
           id="stop6887" /><stop
           offset="1"
           style="stop-color:#2E3192"
           id="stop6889" /></radialGradient><path
         style="fill:#002147;fill-opacity:1;stroke:none;stroke-width:2;stroke-miterlimit:10"
         d="m 365.5625,19.96875 c -11.60641,0.04853 -13.45563,6.555813 -19.6875,8.78125 -7.67,2.739 -16.83425,5.856 -17.65625,7.5 -0.41728,0.836604 0.0703,1.530527 0.625,2.1875 L 329,38.21875 c 0.37709,-0.565025 0.71844,-0.568963 1.09375,-0.6875 0.37531,-0.118537 0.79584,-0.20011 1.25,-0.25 0.90833,-0.09978 1.92909,-0.118452 2.84375,0.21875 0.15695,0.05774 0.3243,0.134875 0.53125,0.34375 0.20695,0.208875 0.38789,0.728925 0.28125,1.09375 -0.10664,0.364825 -0.30287,0.488811 -0.4375,0.59375 -0.13463,0.104939 -0.25615,0.19261 -0.375,0.25 -0.4754,0.229561 -1.01634,0.350775 -1.625,0.5 C 331.34519,40.5797 330,40.8125 330,40.8125 l -0.25,0.03125 c -0.28788,1.840237 -0.44289,6.351443 5.84375,8.28125 6.917,2.124 17.6875,-2.66575 17.6875,1.03125 0,3.698 -16.72575,3.06575 -15.21875,6.96875 1.507,3.903 9.7145,-2.041 19.4375,2 9.725,4.041 1.39375,35.471 7.96875,47.25 4.02116,7.20613 8.57915,14.69617 21.71875,17.5625 -0.0106,-0.21264 -0.061,-1.43958 -0.0625,-1.46875 -0.45829,-0.46751 -6.61804,-6.80843 -9.625,-14.78125 -1.5597,-4.13547 -2.20856,-8.699195 -0.46875,-12.9375 1.73981,-4.238305 5.83271,-7.975508 13.3125,-10.5 L 391,86.15625 c -7.13021,2.406508 -10.646,5.740805 -12.125,9.34375 -1.479,3.602945 -0.95355,7.64597 0.5,11.5 2.90711,7.70807 9.46875,14.375 9.46875,14.375 l 0.25,0.28125 0.0312,0.375 c 0,0 0.67787,13.4037 0.90625,27.03125 0.11419,6.81377 0.10267,13.68486 -0.15625,19 -0.12946,2.65757 -0.30713,4.91572 -0.59375,6.625 -0.14331,0.85464 -0.31477,1.56613 -0.53125,2.15625 -0.21648,0.59012 -0.4175,1.13063 -1.09375,1.46875 -1.89304,0.94652 -5.56133,2.53978 -8.46875,4.53125 -1.45371,0.99573 -2.69072,2.0915 -3.40625,3.15625 -0.60385,0.89862 -0.7619,1.70056 -0.59375,2.5625 1.84555,0.70294 3.75937,0.677 5.59375,0.28125 1.98713,-0.4287 3.70144,-1.19025 5.1875,-1.28125 0.27516,-0.0168 1.35314,-0.29782 2.59375,-0.78125 1.24061,-0.48343 2.70445,-1.14633 4.09375,-1.9375 1.3893,-0.79117 2.70746,-1.69996 3.625,-2.59375 0.91754,-0.89379 1.369,-1.76695 1.375,-2.34375 0.0251,-2.14662 0.49917,-4.79565 1.15625,-7.21875 0.65708,-2.4231 1.43772,-4.55805 2.4375,-5.84375 -0.0857,0.11024 0.0702,-0.11303 0.1875,-0.46875 0.11725,-0.35572 0.25631,-0.88659 0.40625,-1.5 0.29988,-1.22682 0.64437,-2.89704 1,-4.875 0.71125,-3.95592 1.46318,-9.10386 2.03125,-14.375 0.56807,-5.27114 0.94275,-10.67514 0.90625,-15.0625 -0.0183,-2.19368 -0.13016,-4.12344 -0.375,-5.65625 -0.24484,-1.53281 -0.64113,-2.6552 -1,-3.125 L 406,120.5625 c 0.74838,0.9797 1.10548,2.34397 1.375,4.03125 0.0128,0.0804 0.0191,0.16808 0.0312,0.25 5.04465,-0.38145 10.73296,-1.11918 17.21875,-2.3125 44.65,-8.218 48.494,-26.037 60,-22.75 3.219,6.3 1.288,15.5575 15.875,27.0625 14.587,11.505 18.9745,8.00875 20.6875,11.84375 1.711,3.835 0.769,25.142 -0.875,26.375 -4.247,0.274 -15.14575,4.314 -8.84375,7.875 6.299,3.561 15.87025,2.465 19.15625,0 3.287,-2.464 8.2255,-30.122 4.9375,-35.875 -3.286,-5.752 -6.64425,-8.7915 -9.65625,-16.1875 -3.014,-7.396 -4.8515,-28.2 -8.6875,-34.5 -0.564,-0.928 -1.08775,-1.84375 -1.59375,-2.71875 10.051,0.129 25.6935,-12.0615 15.4375,-31.9375 C 509.01145,14.190754 473.3932,30.0725 473.5312,32.8125 c 0.137,2.739 4.47625,1.51975 10.40625,1.09375 27.803,-1.917 38.08425,18.235 38.90625,27 0.822,8.766 -6.8515,12.3125 -10.6875,12.3125 -3.834,0 -12.0625,-2 -12.0625,-2 -1.293,-0.51 -2.698,-1.0435 -4.25,-1.5625 -16.367,-5.479 -88.18875,5.685 -97.84375,-2.875 -4.15251,-3.681611 -5.09669,-11.856256 -6.46875,-20.3125 0.10831,2.110499 0.1352,4.573799 0.0937,7 -0.043,2.516831 -0.14065,4.992217 -0.28125,7 -0.1406,2.007783 -0.27903,3.424076 -0.53125,4.28125 -0.42617,1.450489 -1.48717,2.83139 -2.75,4.21875 -1.26283,1.38736 -2.73742,2.758133 -4.125,3.9375 -1.11731,0.949652 -1.30769,1.988505 -1.4375,3.125 -0.0649,0.568247 -0.0878,1.122 -0.25,1.71875 -0.16224,0.59675 -0.58478,1.321785 -1.3125,1.625 -0.652,0.271834 -1.4293,0.234661 -2.125,0 -0.6957,-0.234661 -1.38136,-0.635303 -2.15625,-1.21875 -1.54978,-1.166895 -3.44796,-3.041705 -6.125,-5.71875 -3.1001,-3.099572 -3.43989,-8.634515 -3.125,-13.5625 0.15745,-2.463992 0.52102,-4.811938 0.875,-6.625 0.17699,-0.906531 0.34083,-1.672951 0.5,-2.28125 0.15917,-0.608299 0.27118,-0.993651 0.4375,-1.34375 0.60925,-1.284315 1.11212,-2.91578 0.53125,-5.0625 -1.06279,-0.473622 -1.9103,-1.31297 -2.40625,-2.40625 -0.62143,-1.369907 -0.92804,-3.023567 -1.0625,-4.65625 -0.13446,-1.632683 -0.10375,-3.246224 0.0625,-4.5625 0.0831,-0.658138 0.19505,-1.226831 0.34375,-1.71875 0.1487,-0.491919 0.25402,-0.902528 0.78125,-1.3125 l 1.21875,1.5625 c 0.0274,-0.02131 0.0467,-0.01974 0.0625,-0.03125 -0.0305,0.05808 -0.075,0.178325 -0.125,0.34375 -0.10001,0.330851 -0.20815,0.827435 -0.28125,1.40625 -0.1462,1.15763 -0.18467,2.672808 -0.0625,4.15625 0.12217,1.483442 0.40515,2.933001 0.875,3.96875 0.46985,1.035749 1.02189,1.552225 1.6875,1.65625 l 0.59375,0.09375 0.1875,0.59375 c 0.91529,2.897317 0.13731,5.271405 -0.59375,6.8125 -0.005,0.0109 -0.16654,0.44217 -0.3125,1 -0.14596,0.55783 -0.29899,1.318016 -0.46875,2.1875 -0.33952,1.738969 -0.6932,3.987617 -0.84375,6.34375 -0.30111,4.712265 0.2894,9.789822 2.53125,12.03125 2.66496,2.664955 4.57703,4.475645 5.9375,5.5 0.68024,0.512178 1.22392,0.812755 1.59375,0.9375 0.36983,0.12475 0.518,0.13317 0.6875,0.0625 0.0942,-0.03929 0.0788,-0.02753 0.15625,-0.3125 0.0775,-0.284969 0.1155,-0.807372 0.1875,-1.4375 0.14394,-1.260255 0.50331,-3.027902 2.125,-4.40625 1.35142,-1.148633 2.80033,-2.46636 3.96875,-3.75 1.16842,-1.28364 2.05467,-2.559989 2.3125,-3.4375 0.0903,-0.306826 0.29997,-1.911002 0.4375,-3.875 0.13753,-1.963998 0.23885,-4.392706 0.28125,-6.875 0.0425,-2.482294 0.0219,-5.007938 -0.0937,-7.09375 -0.11563,-2.085812 -0.36872,-3.812011 -0.59375,-4.375 -0.75459,-1.887844 -1.4821,-5.073156 -2.21875,-8 -0.36832,-1.463422 -0.73463,-2.844442 -1.09375,-3.90625 -0.35912,-1.061808 -0.8568,-1.84877 -0.8125,-1.8125 l 0.5625,-0.6875 c -2.2994,-3.164941 -5.47954,-5.515715 -10.0625,-6.46875 -3.89081,-0.808875 -7.0716,-1.136199 -9.75,-1.125 z m -12.46875,11.25 c 1.08419,-0.0282 2.1735,0.1035 3.125,0.46875 3.807,1.461 3.07425,2.92475 3.53125,2.46875 0.0214,-0.02142 0.0531,-0.02631 0.0625,-0.03125 -0.18874,0.355537 -2.41788,3.003 -6.09375,2.84375 -4.199,-0.182 -5.85025,-1.19475 -6.03125,-1.46875 -0.184,-0.274 1.03125,-0.453 1.03125,-1 0,-0.547 0.33775,-1.23525 -1.03125,-1.53125 -1.0275,-0.222 2.15369,-1.665391 5.40625,-1.75 z"
         transform="translate(89.452995,-1.643005)"
         id="path6891"
         inkscape:connector-curvature="0" /><path
         d="m 441.307,31.654 c 0,0.252 1.027,0.525 1.096,0.914 0.068,0.388 -1.004,0.708 -0.867,1.072 0.137,0.365 1.574,1.393 2.465,0.753 0.891,-0.64 1.324,-1.05 1.004,-1.757 -0.318,-0.708 -1.393,-1.644 -2.305,-1.484 -0.914,0.16 -1.393,0.114 -1.393,0.502 z"
         id="path6899"
         style="fill:#002147;fill-opacity:1"
         inkscape:connector-curvature="0" /></g><g
       clip-path="url(#SVGID_8_)"
       id="g6903"><radialGradient
         id="SVGID_14_"
         cx="178.9175"
         cy="51.382801"
         r="10.7889"
         gradientUnits="userSpaceOnUse"><stop
           offset="0"
           style="stop-color:#262262"
           id="stop6906" /><stop
           offset="1"
           style="stop-color:#2E3192"
           id="stop6908" /></radialGradient><path
         style="fill:#002147;fill-opacity:1;stroke:none;stroke-width:2;stroke-miterlimit:10"
         d="M 98.53125,46.96875 C 98.292431,46.95355 98.065062,46.97005 97.8125,47 c -1.726025,0.204645 -4.059695,0.494404 -6.4375,0.90625 0.0384,0.306911 0.102799,0.617668 0.125,0.9375 0.06062,0.873013 0.07062,1.739509 -0.0625,2.53125 -0.06656,0.395871 -0.15933,0.795623 -0.34375,1.15625 -0.18442,0.360627 -0.51042,0.722951 -1,0.90625 -0.468,0.175539 -0.94228,0.104494 -1.3125,-0.03125 -0.37022,-0.135744 -0.66832,-0.329386 -0.96875,-0.5625 -0.60086,-0.466229 -1.15101,-1.07389 -1.65625,-1.6875 -0.505235,-0.61361 -0.985684,-1.247153 -1.3125,-1.71875 -0.776279,0.257229 -1.50704,0.54043 -2.125,0.84375 -3.766,1.849 -8.76175,6.2465 -6.84375,8.4375 1.842,2.105 8.0935,-5.21625 11.3125,-4.53125 3.219,0.685 15.20275,1.10625 16.09375,-0.46875 0.83531,-1.476562 -1.16771,-6.522034 -4.75,-6.75 z m -9.09375,1.3125 c -0.863392,0.174342 -1.713757,0.35268 -2.53125,0.5625 0.183169,0.268415 0.409749,0.580065 0.78125,1.03125 0.45339,0.55064 0.9517,1.070791 1.34375,1.375 0.13068,0.1014 0.2241,0.14017 0.3125,0.1875 0.0381,-0.105067 0.0931,-0.185183 0.125,-0.375 0.0894,-0.532165 0.08475,-1.323138 0.03125,-2.09375 -0.01588,-0.22868 -0.03868,-0.464478 -0.0625,-0.6875 z"
         transform="translate(89.452995,-1.643005)"
         id="path6910"
         inkscape:connector-curvature="0" /><radialGradient
         id="SVGID_15_"
         cx="177.30659"
         cy="47.398399"
         r="3.1134"
         gradientUnits="userSpaceOnUse"><stop
           offset="0"
           style="stop-color:#262262"
           id="stop6913" /><stop
           offset="1"
           style="stop-color:#2E3192"
           id="stop6915" /></radialGradient><radialGradient
         id="SVGID_16_"
         cx="300.24561"
         cy="135.9512"
         r="35.863098"
         gradientUnits="userSpaceOnUse"><stop
           offset="0"
           style="stop-color:#262262"
           id="stop6920" /><stop
           offset="1"
           style="stop-color:#2E3192"
           id="stop6922" /></radialGradient><path
         style="fill:#002147;fill-opacity:1;stroke:none;stroke-width:2;stroke-miterlimit:10"
         d="m 228.25,100.46875 c -1.37131,0.0671 -2.69653,0.50572 -4.1875,1.25 -2.55017,1.27301 -5.51226,3.44714 -9.53125,6 -1.21768,0.77347 -2.59761,1.57893 -4.03125,2.40625 -1.37796,3.79038 -2.30485,8.43994 -2.5,14.1875 -0.28,8.224 6.70325,16.02425 6.15625,17.53125 -0.548,1.506 -9.86225,22.3355 -14.65625,24.9375 -4.794,2.603 -9.332,2.46875 -11.25,5.34375 -1.917,2.877 -4.2415,6.28275 -2.1875,6.96875 2.055,0.685 10.19025,2.34375 13.65625,2.34375 3.466,0 26.06175,-36.30425 30.71875,-38.90625 3.1112,-1.73832 3.30272,-18.92983 3.8125,-30.8125 -1.73123,-4.39986 -2.13232,-8.12471 -3.4375,-10.96875 -0.89861,-0.21115 -1.73972,-0.3215 -2.5625,-0.28125 z"
         transform="translate(89.452995,-1.643005)"
         id="path6924"
         inkscape:connector-curvature="0"
         sodipodi:nodetypes="sssccccccssccs" /><radialGradient
         id="SVGID_17_"
         cx="194.7363"
         cy="130.6523"
         r="29.125601"
         gradientUnits="userSpaceOnUse"><stop
           offset="0"
           style="stop-color:#262262"
           id="stop6927" /><stop
           offset="1"
           style="stop-color:#2E3192"
           id="stop6929" /></radialGradient><path
         style="fill:#002147;fill-opacity:1;stroke:none;stroke-width:2;stroke-miterlimit:10"
         d="m 111.71875,107.1875 c -0.91584,0.26996 -1.8053,0.62039 -2.625,1.09375 -9.725,5.616 -21.771,5.06575 -27.25,13.96875 -5.479,8.902 -0.416,13.41525 -4.25,19.03125 -3.836,5.615 -5.6045,8.6335 -3.6875,10.6875 1.918,2.054 2.47375,6.44225 3.84375,6.03125 1.369,-0.411 1.8955,-4.649 3.8125,-4.375 1.918,0.274 4.53125,-0.40875 4.53125,-1.09375 0,-0.685 0.41775,-14.1115 2.46875,-19.3125 2.051,-5.201 -1.103999,-9.59975 33,-8.09375 4.88338,-0.0725 8.31811,-0.29543 10.75,-0.625 -12.02509,-3.15542 -16.76186,-10.47657 -20.59375,-17.3125 z"
         transform="translate(89.452995,-1.643005)"
         id="path6931"
         inkscape:connector-curvature="0"
         sodipodi:nodetypes="cscccccssccc" /><radialGradient
         id="SVGID_18_"
         cx="268.7319"
         cy="103.4189"
         r="95.18"
         gradientUnits="userSpaceOnUse"><stop
           offset="0"
           style="stop-color:#262262"
           id="stop6934" /><stop
           offset="1"
           style="stop-color:#2E3192"
           id="stop6936" /></radialGradient><path
         style="fill:#002147;fill-opacity:1;stroke:none;stroke-width:2;stroke-miterlimit:10"
         d="m 112.46875,19.96875 c -11.60641,0.04853 -13.455625,6.555813 -19.6875,8.78125 -7.67,2.739 -16.83425,5.856 -17.65625,7.5 -0.417284,0.836604 0.09357,1.530527 0.65625,2.1875 l 0.15625,-0.21875 c 0.37709,-0.565025 0.71844,-0.568963 1.09375,-0.6875 0.37531,-0.118537 0.79584,-0.20011 1.25,-0.25 0.8984,-0.09869 1.9058,-0.107506 2.8125,0.21875 0.01,0.0036 0.02125,-0.0037 0.03125,0 0.15171,0.056 0.33267,0.143324 0.53125,0.34375 0.20695,0.208875 0.38789,0.728925 0.28125,1.09375 -0.10664,0.364825 -0.30287,0.488811 -0.4375,0.59375 -0.13463,0.104939 -0.25615,0.19261 -0.375,0.25 -0.4754,0.229561 -1.01634,0.350775 -1.625,0.5 -1.21731,0.29845 -2.5625,0.53125 -2.5625,0.53125 l -0.25,0.03125 c -0.287881,1.840237 -0.442894,6.351443 5.84375,8.28125 6.917,2.124 17.65625,-2.66575 17.65625,1.03125 0,3.698 -16.6945,3.06575 -15.1875,6.96875 1.507,3.903 9.7145,-2.041 19.4375,2 9.725,4.041 1.3625,35.471 7.9375,47.25 4.02299,7.2094 8.59664,14.69909 21.75,17.5625 -0.0106,-0.21264 -0.061,-1.43958 -0.0625,-1.46875 -0.45829,-0.46751 -6.61804,-6.80843 -9.625,-14.78125 -1.5597,-4.13547 -2.23981,-8.699195 -0.5,-12.9375 1.73981,-4.238305 5.86396,-7.975508 13.34375,-10.5 l 0.65625,1.90625 c -7.13021,2.406508 -10.646,5.740805 -12.125,9.34375 -1.479,3.602945 -0.95355,7.64597 0.5,11.5 2.90711,7.70807 9.4375,14.375 9.4375,14.375 l 0.28125,0.28125 0,0.375 c 0,0 0.70912,13.4037 0.9375,27.03125 0.11419,6.81377 0.10267,13.68486 -0.15625,19 -0.12946,2.65757 -0.30713,4.91572 -0.59375,6.625 -0.14331,0.85464 -0.31477,1.56613 -0.53125,2.15625 -0.21648,0.59012 -0.4175,1.13063 -1.09375,1.46875 -1.89304,0.94652 -5.56133,2.53978 -8.46875,4.53125 -1.45371,0.99573 -2.72197,2.0915 -3.4375,3.15625 -0.60375,0.89789 -0.76109,1.70137 -0.59375,2.5625 1.84686,0.70487 3.78915,0.67732 5.625,0.28125 1.98713,-0.4287 3.67019,-1.19025 5.15625,-1.28125 0.27516,-0.0168 1.38439,-0.29782 2.625,-0.78125 1.24061,-0.48343 2.70445,-1.14633 4.09375,-1.9375 1.3893,-0.79117 2.70746,-1.69996 3.625,-2.59375 0.91754,-0.89379 1.369,-1.76695 1.375,-2.34375 0.0251,-2.14662 0.49917,-4.79565 1.15625,-7.21875 0.65708,-2.4231 1.43772,-4.55805 2.4375,-5.84375 -0.0857,0.11024 0.0702,-0.11303 0.1875,-0.46875 0.11725,-0.35572 0.25631,-0.88659 0.40625,-1.5 0.29988,-1.22682 0.64437,-2.89704 1,-4.875 0.71125,-3.95592 1.46318,-9.10386 2.03125,-14.375 0.56807,-5.27114 0.94275,-10.67514 0.90625,-15.0625 -0.0183,-2.19368 -0.13016,-4.12344 -0.375,-5.65625 -0.24484,-1.53281 -0.67238,-2.6552 -1.03125,-3.125 l 1.59375,-1.21875 c 0.74838,0.9797 1.13673,2.34397 1.40625,4.03125 0.0128,0.0804 0.0191,0.16808 0.0312,0.25 5.04465,-0.38145 10.73296,-1.11918 17.21875,-2.3125 44.65,-8.218 48.46275,-26.037 59.96875,-22.75 3.219,6.3 1.31925,15.5575 15.90625,27.0625 14.587,11.505 18.9745,8.00875 20.6875,11.84375 1.711,3.835 0.73775,25.142 -0.90625,26.375 -4.247,0.274 -15.1145,4.314 -8.8125,7.875 6.299,3.561 15.87025,2.465 19.15625,0 3.287,-2.464 8.2255,-30.122 4.9375,-35.875 -3.286,-5.752 -6.64425,-8.7915 -9.65625,-16.1875 -3.014,-7.396 -4.8515,-28.2 -8.6875,-34.5 -0.564,-0.928 -1.08775,-1.84375 -1.59375,-2.71875 10.051,0.129 25.66225,-12.0615 15.40625,-31.9375 C 255.91775,14.190754 220.2995,30.0725 220.4375,32.8125 c 0.137,2.739 4.5075,1.51975 10.4375,1.09375 27.803,-1.917 38.053,18.235 38.875,27 0.822,8.766 -6.8515,12.3125 -10.6875,12.3125 -3.834,0 -12.03125,-2 -12.03125,-2 -1.293,-0.51 -2.698,-1.0435 -4.25,-1.5625 -16.367,-5.479 -88.22,5.685 -97.875,-2.875 -4.11651,-3.649697 -5.09102,-11.7161 -6.4375,-20.09375 0.0989,2.064343 0.13385,4.434351 0.0937,6.78125 -0.043,2.516831 -0.1719,4.992217 -0.3125,7 -0.1406,2.007783 -0.24778,3.424076 -0.5,4.28125 -0.42617,1.450489 -1.48717,2.83139 -2.75,4.21875 -1.26283,1.38736 -2.76867,2.758133 -4.15625,3.9375 -1.11731,0.949652 -1.30769,1.988505 -1.4375,3.125 -0.0649,0.568247 -0.0878,1.122 -0.25,1.71875 -0.16224,0.59675 -0.58478,1.321785 -1.3125,1.625 -0.652,0.271834 -1.39805,0.234661 -2.09375,0 -0.6957,-0.234661 -1.38136,-0.635303 -2.15625,-1.21875 -1.54978,-1.166895 -3.47921,-3.041705 -6.15625,-5.71875 -3.09975,-3.099572 -3.40864,-8.634515 -3.09375,-13.5625 0.15745,-2.463992 0.52102,-4.811938 0.875,-6.625 0.17699,-0.906531 0.34083,-1.672951 0.5,-2.28125 0.15917,-0.608299 0.27118,-0.993651 0.4375,-1.34375 0.60925,-1.284273 1.11203,-2.915883 0.53125,-5.0625 -1.0708,-0.470975 -1.90792,-1.307726 -2.40625,-2.40625 -0.62143,-1.369907 -0.92804,-3.023567 -1.0625,-4.65625 -0.13446,-1.632683 -0.10375,-3.246224 0.0625,-4.5625 0.0831,-0.658138 0.19505,-1.226831 0.34375,-1.71875 0.1487,-0.491919 0.25402,-0.902528 0.78125,-1.3125 l 1.21875,1.5625 c 0.0337,-0.02623 0.0472,-0.01977 0.0625,-0.03125 -0.0383,0.05808 -0.10625,0.178325 -0.15625,0.34375 -0.10001,0.330851 -0.1769,0.827435 -0.25,1.40625 -0.1462,1.15763 -0.21592,2.672808 -0.0937,4.15625 0.12217,1.483442 0.4364,2.933001 0.90625,3.96875 0.46985,1.035749 0.99064,1.552225 1.65625,1.65625 l 0.625,0.09375 0.1875,0.59375 c 0.91529,2.897317 0.13736,5.271405 -0.59375,6.8125 -0.005,0.0109 -0.16654,0.44217 -0.3125,1 -0.14596,0.55783 -0.33024,1.318016 -0.5,2.1875 -0.33952,1.738969 -0.66195,3.987617 -0.8125,6.34375 -0.30111,4.712265 0.2894,9.789822 2.53125,12.03125 2.66496,2.664955 4.57703,4.475645 5.9375,5.5 0.68024,0.512178 1.22392,0.812755 1.59375,0.9375 0.36983,0.12475 0.518,0.13317 0.6875,0.0625 0.0943,-0.03929 0.0787,-0.02753 0.15625,-0.3125 0.0775,-0.284969 0.1155,-0.807372 0.1875,-1.4375 0.14394,-1.260255 0.50331,-3.027902 2.125,-4.40625 1.35142,-1.148633 2.80033,-2.46636 3.96875,-3.75 1.16842,-1.28364 2.02342,-2.559989 2.28125,-3.4375 0.0903,-0.306826 0.29997,-1.911002 0.4375,-3.875 0.13753,-1.963998 0.27,-4.392706 0.3125,-6.875 0.0425,-2.482294 0.0219,-5.007938 -0.0937,-7.09375 -0.11563,-2.085812 -0.39997,-3.812011 -0.625,-4.375 -0.75459,-1.887844 -1.45085,-5.073156 -2.1875,-8 -0.36832,-1.463422 -0.73463,-2.844442 -1.09375,-3.90625 -0.35912,-1.061808 -0.8568,-1.84877 -0.8125,-1.8125 l 0.5625,-0.6875 c -2.29703,-3.164941 -5.47954,-5.515715 -10.0625,-6.46875 -3.89081,-0.808875 -7.10285,-1.136199 -9.78125,-1.125 z m -12.4375,11.25 c 1.08419,-0.0282 2.1735,0.1035 3.125,0.46875 3.807,1.461 3.07425,2.92475 3.53125,2.46875 -0.25766,0.429386 -2.4227,2.968833 -6.03125,2.8125 C 96.45725,36.78675 94.806,35.774 94.625,35.5 c -0.184,-0.274 1,-0.453 1,-1 0,-0.547 0.369,-1.23525 -1,-1.53125 -1.0275,-0.222 2.153688,-1.665391 5.40625,-1.75 z m 36.125,4.5 c 0.32759,1.310936 0.6337,2.571046 0.9375,3.625 -0.28195,-1.227747 -0.5793,-2.450336 -0.9375,-3.625 z"
         transform="translate(89.452995,-1.643005)"
         id="path6938"
         inkscape:connector-curvature="0" /><path
         d="m 188.235,31.654 c 0,0.252 1.027,0.525 1.096,0.914 0.068,0.388 -1.004,0.708 -0.867,1.072 0.137,0.365 1.574,1.393 2.465,0.753 0.891,-0.64 1.324,-1.05 1.004,-1.757 -0.318,-0.708 -1.393,-1.644 -2.305,-1.484 -0.915,0.16 -1.393,0.114 -1.393,0.502 z"
         id="path6946"
         style="fill:#002147;fill-opacity:1;stroke:none"
         inkscape:connector-curvature="0" /></g><radialGradient
       id="SVGID_19_"
       cx="394.45169"
       cy="400.5459"
       r="327.21191"
       gradientUnits="userSpaceOnUse"><stop
         offset="0"
         style="stop-color:#262262"
         id="stop6951" /><stop
         offset="1"
         style="stop-color:#2E3192"
         id="stop6953" /></radialGradient><path
       style="fill:#002147;fill-opacity:1;stroke:none"
       clip-path="url(#clipPath4366)"
       d="M 305,158.03125 -88.09375,546.1875 -3.53125,646.34375 305,341.6875 613.53125,646.34375 698.09375,546.1875 305,158.03125 Z m -64.46875,77.0625 128.4375,0 0,6.96875 c -1.47979,0.0191 -2.84675,0.0934 -4.09375,0.28125 L 365.34375,243 c 1.48554,-0.78212 3.36509,-0.36948 4.375,1.03125 l 4.9375,6.875 c 1.107,1.534 0.75175,3.67425 -0.78125,4.78125 l -0.125,0.0937 0.65625,1.6875 1.15625,0 c 1.892,0 3.40625,1.51625 3.40625,3.40625 l 0,8.46875 c 0,1.889 -1.51425,3.4375 -3.40625,3.4375 l -1.34375,0 -0.5,1.46875 0.65625,0.4375 c 1.578,1.042 2.01075,3.172 0.96875,4.75 l -4.65625,7.03125 c -0.7815,1.1835 -2.18652,1.71266 -3.5,1.46875 l -0.0937,0.3125 c 1.34669,0.61263 2.21696,2.02403 2,3.5625 l -1.1875,8.375 c -0.20587,1.45981 -1.3241,2.57318 -2.6875,2.875 l 0,0.0625 c 1.16069,0.10995 2.24415,0.77855 2.78125,1.90625 l 3.65625,7.65625 c 0.80151,1.67982 0.0878,3.6608 -1.5625,4.5 l 0.5625,1.3125 c 0.64132,-0.13539 1.31746,-0.1875 2,-0.1875 5.293,0 9.53125,4.25425 9.53125,9.53125 0.001,5.275 -4.23725,9.5625 -9.53125,9.5625 -5.293,0 -9.5625,-4.2875 -9.5625,-9.5625 0,-3.39558 1.76811,-6.33534 4.4375,-8.03125 L 367,318.59375 c -1.56421,0.42012 -3.24633,-0.29754 -3.96875,-1.8125 l -3.625,-7.625 c -0.813,-1.706 -0.11325,-3.7495 1.59375,-4.5625 l 0.9375,-0.4375 -0.15625,-1.34375 -0.4375,-0.0625 c -1.873,-0.263 -3.139,-2.003 -2.875,-3.875 l 1.1875,-8.375 c 0.263,-1.872 1.97075,-3.2015 3.84375,-2.9375 l 0.21875,0.0312 0.4375,-1.3125 -0.5,-0.3125 c -1.577,-1.042 -1.9785,-3.173 -0.9375,-4.75 l 4.65625,-7.0625 c 0.75077,-1.13696 2.05287,-1.6388 3.3125,-1.46875 l 0.1875,-0.5625 c -0.86408,-0.62509 -1.4375,-1.63224 -1.4375,-2.78125 l 0,-8.46875 c 0,-1.19685 0.60748,-2.26193 1.53125,-2.875 l -0.125,-0.3125 c -1.39127,0.49677 -2.99341,0.0454 -3.90625,-1.21875 l -4.96875,-6.84375 c -1.07467,-1.49055 -0.79785,-3.55778 0.625,-4.6875 l -1.125,-1.625 c -2.72008,1.23535 -4.55736,3.619 -5.40625,8.1875 l 0,81.9375 -12.0625,-17.3437 4.53125,0 0,-5.3125 c -5.654,-0.011 -10.72,0.01 -16.375,0 l 0,5.3125 5.40625,0 -8.9375,17.34375 -8.9375,-17.34375 5.40625,0 0,-5.3125 -16.90625,0 0,5.3125 5.40625,0 -8.84375,17.34375 -8.84375,-17.34375 5.40625,0 0,-5.3125 -17.1875,0 0,5.3125 5.375,0 -8.9375,17.34375 -8.90625,-17.34375 5.375,0 0,-5.3125 c -5.655,0.01 -10.43975,-0.011 -16.09375,0 l 0,5.3125 4.5625,0 -12.09375,17.34375 0,-81.9375 c -0.84622,-4.55107 -2.6504,-6.94761 -5.34375,-8.1875 l -1.15625,1.65625 c 1.39642,1.13466 1.692,3.17634 0.625,4.65625 l -4.96875,6.84375 c -0.91202,1.26413 -2.51509,1.71552 -3.90625,1.21875 l -0.125,0.3125 c 0.92377,0.61307 1.53125,1.67815 1.53125,2.875 l 0,8.46875 c 0,1.14901 -0.57342,2.15616 -1.4375,2.78125 l 0.1875,0.5625 c 1.25977,-0.17005 2.56101,0.33179 3.3125,1.46875 l 4.65625,7.0625 c 1.042,1.577 0.6405,3.708 -0.9375,4.75 l -0.5,0.3125 0.4375,1.3125 L 246,287.5625 c 1.873,-0.264 3.58075,1.0655 3.84375,2.9375 l 1.1875,8.375 c 0.264,1.872 -1.003,3.612 -2.875,3.875 l -0.4375,0.0625 -0.15625,1.34375 0.9375,0.4375 c 1.706,0.813 2.40775,2.8565 1.59375,4.5625 l -3.625,7.625 c -0.72589,1.52411 -2.42774,2.24935 -4,1.8125 l -0.5,1.1875 c 2.67663,1.69448 4.4375,4.66143 4.4375,8.0625 0,5.275 -4.2685,9.5625 -9.5625,9.5625 -5.294,0 -9.53125,-4.2875 -9.53125,-9.5625 0,-5.277 4.23825,-9.53125 9.53125,-9.53125 0.68254,0 1.35868,0.0521 2,0.1875 l 0.5625,-1.3125 c -1.65031,-0.8392 -2.36499,-2.82018 -1.5625,-4.5 L 241.5,305.03125 c 0.5371,-1.1277 1.62056,-1.7963 2.78125,-1.90625 l 0,-0.0625 c -1.3634,-0.30182 -2.48163,-1.41519 -2.6875,-2.875 l -1.1875,-8.375 c -0.21614,-1.53847 0.65321,-2.94987 2,-3.5625 l -0.0937,-0.34375 c -1.31414,0.25287 -2.71725,-0.25096 -3.5,-1.4375 l -4.65625,-7.03125 c -1.042,-1.578 -0.60825,-3.708 0.96875,-4.75 l 0.65625,-0.4375 -0.5,-1.46875 -1.34375,0 c -1.891,0 -3.40625,-1.5485 -3.40625,-3.4375 l 0,-8.46875 c 0,-1.89 1.51525,-3.40625 3.40625,-3.40625 l 1.15625,0 0.65625,-1.6875 -0.15625,-0.0937 c -1.533,-1.107 -1.858,-3.24725 -0.75,-4.78125 l 4.9375,-6.875 c 1.00991,-1.40073 2.88946,-1.81337 4.375,-1.03125 l 0.46875,-0.65625 c -1.24712,-0.18633 -2.61239,-0.26235 -4.09375,-0.28125 l 0,-6.96875 z m 19.21875,7.8125 0,16.125 16.90625,0 0,-16.125 -16.90625,0 z m 24.375,0 0,16.125 16.90625,0 0,-16.125 -16.90625,0 z m 24.34375,0 0,16.125 16.90625,0 0,-16.125 -16.90625,0 z m 24.375,0 0,16.125 16.875,0 0,-16.125 -16.875,0 z m -90.96875,3.375 c -0.0664,0.0447 -0.131,0.10925 -0.1875,0.1875 l -2.65625,3.6875 c 0.20051,-0.002 0.39533,0.048 0.59375,0.125 l 0.125,0.0312 c 0.835,0.322 1.2605,1.25775 0.9375,2.09375 l -0.71875,1.84375 c 0.27,0.12203 0.49981,0.0717 0.6875,-0.1875 l 3.96875,-5.46875 c 0.12546,-0.17434 0.13941,-0.34083 0.0937,-0.5 l -0.34375,0.5 c -0.512,0.735 -1.515,0.91725 -2.25,0.40625 L 242,248.9375 c -0.735,-0.511 -0.91725,-1.515 -0.40625,-2.25 l 0.28125,-0.40625 z m 125.90625,0.1875 0.125,0.21875 c 0.512,0.735 0.32775,1.739 -0.40625,2.25 L 367.375,249 c -0.735,0.511 -1.738,0.32875 -2.25,-0.40625 l -0.34375,-0.5 c -0.0459,0.15917 -0.0317,0.32566 0.0937,0.5 l 3.9375,5.46875 c 0.1885,0.25919 0.44123,0.30953 0.71875,0.1875 l -0.71875,-1.84375 c -0.323,-0.836 0.1025,-1.77175 0.9375,-2.09375 l 0.125,-0.0312 c 0.19865,-0.077 0.39318,-0.12719 0.59375,-0.125 l -2.6875,-3.6875 z m -130.6875,15.28125 -0.53125,1.3125 c -0.325,0.836 -1.25775,1.2605 -2.09375,0.9375 l -0.125,-0.0625 c -0.37763,-0.14653 -0.66499,-0.41936 -0.84375,-0.75 l 0,5.28125 c 0,0.34363 0.18266,0.57928 0.53125,0.625 L 233.75,268.1875 c -0.282,-0.851 0.18125,-1.74925 1.03125,-2.03125 l 0.15625,-0.0625 c 0.851,-0.282 1.75025,0.18025 2.03125,1.03125 l 0.125,0.375 0,-5.75 z m 135.3125,0 0,5.75 0.125,-0.375 c 0.282,-0.851 1.18025,-1.31325 2.03125,-1.03125 l 0.15625,0.0625 c 0.851,0.282 1.31325,1.18025 1.03125,2.03125 l -0.28125,0.90625 c 0.34859,-0.0457 0.53125,-0.28137 0.53125,-0.625 l 0,-5.28125 c -0.17889,0.33064 -0.46612,0.60347 -0.84375,0.75 l -0.125,0.0625 c -0.836,0.323 -1.76975,-0.1015 -2.09375,-0.9375 l -0.53125,-1.3125 z m -112.65625,3.1875 0,16.09375 16.90625,0 0,-16.09375 -16.90625,0 z m 24.375,0 0,16.09375 16.90625,0 0,-16.09375 -16.90625,0 z m 24.34375,0 0,16.09375 16.90625,0 0,-16.09375 -16.90625,0 z m 24.375,0 0,16.09375 16.875,0 0,-16.09375 -16.875,0 z m -92.78125,11.5 0.5,1.53125 c 0.282,0.849 -0.18025,1.7815 -1.03125,2.0625 l -0.125,0.0312 c -0.46559,0.15392 -0.94955,0.0773 -1.34375,-0.15625 l 2.78125,4.21875 c 0.0816,0.12343 0.17631,0.20829 0.28125,0.25 l -0.65625,-2.03125 c -0.282,-0.851 0.18025,-1.7815 1.03125,-2.0625 l 0.125,-0.0312 c 0.31875,-0.10575 0.63693,-0.11585 0.9375,-0.0312 L 240.125,276.5 c -0.0182,-0.0274 -0.0432,-0.0389 -0.0625,-0.0625 z m 129.375,0 c -0.0193,0.0236 -0.0443,0.0351 -0.0625,0.0625 l -2.4375,3.71875 c 0.30067,-0.0846 0.61838,-0.0745 0.9375,0.0312 l 0.125,0.0312 c 0.85,0.281 1.31225,1.2115 1.03125,2.0625 L 368.375,284.375 c 0.10494,-0.0417 0.1996,-0.12657 0.28125,-0.25 l 2.78125,-4.21875 c -0.3942,0.23355 -0.87816,0.31017 -1.34375,0.15625 l -0.125,-0.0312 c -0.851,-0.281 -1.31425,-1.2135 -1.03125,-2.0625 l 0.5,-1.53125 z M 237,278.03125 c -0.0351,0.1475 0.0185,0.30775 0.125,0.46875 l 0.0937,0.125 L 237,278.03125 Z m 135.5,0 -0.21875,0.59375 0.0937,-0.125 c 0.107,-0.161 0.16025,-0.32125 0.125,-0.46875 z m -112.75,8.90625 0,16.125 16.90625,0 0,-16.125 -16.90625,0 z m 24.375,0 0,16.125 16.90625,0 0,-16.125 -16.90625,0 z m 24.34375,0 0,16.125 16.90625,0 0,-16.125 -16.90625,0 z m 24.375,0 0,16.125 16.875,0 0,-16.125 -16.875,0 z m -89.25,4.84375 c -0.095,0.11825 -0.12075,0.27775 -0.0937,0.46875 l 0.9375,6.6875 c 0.027,0.1915 0.10044,0.3215 0.21875,0.40625 l 0.1875,-1.6875 c 0.093,-0.892 0.89025,-1.5305 1.78125,-1.4375 l 0.15625,0.0312 c 0.38636,0.0403 0.71459,0.21341 0.96875,0.46875 l -0.5,-3.59375 c -0.15546,0.46642 -0.5235,0.86359 -1.03125,1.03125 l -0.125,0.0625 c -0.851,0.281 -1.75025,-0.18025 -2.03125,-1.03125 l -0.46875,-1.40625 z m 122.3125,0 -0.46875,1.40625 c -0.281,0.851 -1.18025,1.31225 -2.03125,1.03125 l -0.125,-0.0625 c -0.50835,-0.16766 -0.87591,-0.56483 -1.03125,-1.03125 l -0.5,3.59375 c 0.25423,-0.25534 0.58282,-0.42842 0.96875,-0.46875 l 0.15625,-0.0312 c 0.891,-0.093 1.68925,0.5455 1.78125,1.4375 l 0.1875,1.6875 c 0.11831,-0.0847 0.19175,-0.21475 0.21875,-0.40625 L 366,292.25 c 0.027,-0.191 10e-4,-0.3505 -0.0937,-0.46875 z m -122,15.1875 c -0.0295,0.0401 -0.0696,0.0745 -0.0937,0.125 l -2.90625,6.09375 c -0.0835,0.1745 -0.0881,0.32519 -0.0312,0.46875 l 0.3125,-0.6875 c 0.352,-0.824 1.302,-1.19475 2.125,-0.84375 l 0.125,0.0625 c 0.824,0.352 1.227,1.302 0.875,2.125 l -0.15625,0.40625 1.9375,-4.0625 c -0.25463,0.11532 -0.54522,0.18741 -0.84375,0.15625 l -0.125,0 c -0.89,-0.093 -1.5305,-0.89125 -1.4375,-1.78125 l 0.21875,-2.0625 z m 121.6875,0 0.21875,2.0625 c 0.093,0.89 -0.5475,1.68825 -1.4375,1.78125 l -0.125,0 c -0.29853,0.0312 -0.58923,-0.0409 -0.84375,-0.15625 l 1.9375,4.0625 -0.15625,-0.40625 c -0.352,-0.823 0.052,-1.773 0.875,-2.125 l 0.125,-0.0625 c 0.823,-0.351 1.773,0.0197 2.125,0.84375 l 0.3125,0.6875 c 0.0568,-0.14356 0.0518,-0.29425 -0.0312,-0.46875 l -2.90625,-6.09375 c -0.0241,-0.0505 -0.0642,-0.0849 -0.0937,-0.125 z m -128.75,15.4375 c -3.111,0 -5.4375,2.4435 -5.4375,5.4375 0,2.994 2.3215,5.4375 5.4375,5.4375 3.116,0 5.4375,-2.4435 5.4375,-5.4375 0,-1.70012 -0.75209,-3.21983 -1.96875,-4.21875 l -0.5,1.1875 c -0.352,0.823 -1.302,1.19475 -2.125,0.84375 l -0.125,-0.0312 c -0.823,-0.351 -1.19475,-1.301 -0.84375,-2.125 l 0.46875,-1.0625 c -0.11068,-0.006 -0.23092,-0.0312 -0.34375,-0.0312 z m 135.8125,0 c -0.11283,0 -0.23307,0.0249 -0.34375,0.0312 l 0.46875,1.0625 c 0.351,0.824 -0.0208,1.774 -0.84375,2.125 l -0.125,0.0312 c -0.824,0.351 -1.80425,-0.0208 -2.15625,-0.84375 l -0.5,-1.15625 c -1.19656,0.99926 -1.93694,2.50338 -1.9375,4.1875 0,2.994 2.3225,5.4375 5.4375,5.4375 3.116,0 5.4375,-2.4435 5.4375,-5.4375 0,-2.994 -2.3265,-5.4375 -5.4375,-5.4375 z"
       transform="translate(89.452995,-1.643005)"
       id="polygon6955"
       inkscape:connector-curvature="0" /><g
       clip-path="url(#SVGID_8_)"
       id="g6957" /><g
       clip-path="url(#SVGID_8_)"
       id="g7269"><radialGradient
         id="SVGID_20_"
         cx="394.20261"
         cy="419.88379"
         r="19.3379"
         gradientUnits="userSpaceOnUse"
         xlink:href="#radialGradient9307"><stop
           offset="0"
           style="stop-color:#262262"
           id="stop7272" /><stop
           offset="1"
           style="stop-color:#2E3192"
           id="stop7274" /></radialGradient><path
         style="fill:#002147;fill-opacity:1;stroke:none;stroke-width:2;stroke-miterlimit:10"
         d="m 304.75,402.1875 c -10.682,0 -19.34375,8.66275 -19.34375,19.34375 0,2.87924 0.65271,5.60731 1.78125,8.0625 2.67943,-1.33628 5.76466,-2.31235 9.28125,-2.75 -0.98475,-1.53172 -1.5625,-3.356 -1.5625,-5.3125 0,-5.432 4.41175,-9.84375 9.84375,-9.84375 5.431,0 9.84375,4.41175 9.84375,9.84375 0,1.95614 -0.57751,3.78076 -1.5625,5.3125 3.51659,0.43765 6.60182,1.41372 9.28125,2.75 1.12846,-2.45519 1.78125,-5.18326 1.78125,-8.0625 0,-10.681 -8.66675,-19.34375 -19.34375,-19.34375 z"
         transform="translate(89.452995,-1.643005)"
         id="path7276"
         inkscape:connector-curvature="0"
         sodipodi:nodetypes="ssccsssccss" /><radialGradient
         id="SVGID_21_"
         cx="394.20169"
         cy="470.31931"
         r="50.411999"
         gradientUnits="userSpaceOnUse"><stop
           offset="0"
           style="stop-color:#262262"
           id="stop7279" /><stop
           offset="1"
           style="stop-color:#2E3192"
           id="stop7281" /></radialGradient><path
         style="fill:#002147;fill-opacity:1;stroke:none"
         d="m 300.5625,427.59375 c -19.912,0 -26.06575,16.722 -31.71875,22.375 -5.53022,5.53022 -19.11884,62.98513 -19.71875,65.53125 1.8057,-1.49925 3.85835,-2.7913 6.09375,-3.90625 11.05286,-5.51285 27.13362,-6.70445 48,-6.78125 l 0,-0.0312 1,0 0.53125,0 0.5625,0 1,0 0,0.0312 c 20.8683,0.0768 36.94689,1.2684 48,6.78125 2.23545,1.11495 4.25679,2.407 6.0625,3.90625 -0.59991,-2.54612 -14.21978,-60.00103 -19.75,-65.53125 -5.653,-5.653 -11.7755,-22.375 -31.6875,-22.375 z"
         transform="translate(89.452995,-1.643005)"
         id="path7283"
         inkscape:connector-curvature="0"
         sodipodi:nodetypes="sscscccccccscsss" /><radialGradient
         id="SVGID_22_"
         cx="394.20169"
         cy="523.53998"
         r="48.400501"
         gradientUnits="userSpaceOnUse"
         xlink:href="#radialGradient9319"><stop
           offset="0"
           style="stop-color:#262262"
           id="stop7286" /><stop
           offset="1"
           style="stop-color:#2E3192"
           id="stop7288" /></radialGradient><path
         style="fill:#002147;fill-opacity:1;stroke:none"
         d="m 304.21875,505.75 0,0.0312 c -41.41273,0.0766 -63.72964,4.58509 -65.03125,35.84375 0.16125,-0.22231 0.33957,-0.44574 0.53125,-0.65625 0.98833,-1.08546 2.36643,-2.05098 4.09375,-2.96875 3.45464,-1.83554 8.3206,-3.43476 14.3125,-4.78125 11.98379,-2.69298 28.43978,-4.34375 46.625,-4.34375 18.18521,0 34.67221,1.65089 46.65625,4.34375 5.99202,1.34643 10.85776,2.94566 14.3125,4.78125 1.72737,0.91779 3.10539,1.88322 4.09375,2.96875 0.1907,0.20945 0.33941,0.43514 0.5,0.65625 -1.30156,-31.25866 -23.61464,-35.76712 -65.03125,-35.84375 l 0,-0.0312 c -0.181,0 -0.35125,0 -0.53125,0 -0.18,0 -0.35025,0 -0.53125,0 z"
         transform="translate(89.452995,-1.643005)"
         id="path7290"
         inkscape:connector-curvature="0"
         sodipodi:nodetypes="ccccsssssscccsc" /><radialGradient
         id="SVGID_23_"
         cx="394.20169"
         cy="542.96002"
         r="47.569"
         gradientUnits="userSpaceOnUse"
         xlink:href="#radialGradient9313"><stop
           offset="0"
           style="stop-color:#262262"
           id="stop7293" /><stop
           offset="1"
           style="stop-color:#2E3192"
           id="stop7295" /></radialGradient><path
         style="fill:#002147;fill-opacity:1;stroke:none;stroke-width:2;stroke-miterlimit:10"
         d="m 304.75,529.84375 c -36.249,0 -65.625,6.603 -65.625,14.75 0,0.12 -0.014,0.254 0,0.375 0.79865,7.41162 25.91757,13.45526 58.09375,14.28125 0.0491,-2.70137 0.81605,-5.14756 2.09375,-7 1.32138,-1.91577 3.23534,-3.21875 5.4375,-3.21875 2.20216,0 4.14737,1.30298 5.46875,3.21875 1.27752,1.85219 2.01317,4.29906 2.0625,7 32.69885,-0.84001 58.09375,-7.08303 58.09375,-14.65625 0,-8.148 -29.376,-14.75 -65.625,-14.75 z m 0,21.1875 c -1.41862,0 -2.76108,0.81938 -3.8125,2.34375 -1.01516,1.47181 -1.67464,3.56877 -1.71875,5.90625 1.824,0.0342 3.66792,0.0625 5.53125,0.0625 1.86512,0 3.70552,-0.0282 5.53125,-0.0625 -0.0463,-2.33709 -0.70373,-4.43465 -1.71875,-5.90625 -1.05142,-1.52437 -2.39388,-2.34375 -3.8125,-2.34375 z"
         transform="translate(89.452995,-1.643005)"
         id="path7297"
         inkscape:connector-curvature="0" /><radialGradient
         id="SVGID_24_"
         cx="394.20169"
         cy="557.875"
         r="8.1648998"
         gradientUnits="userSpaceOnUse"><stop
           offset="0"
           style="stop-color:#262262"
           id="stop7300" /><stop
           offset="1"
           style="stop-color:#2E3192"
           id="stop7302" /></radialGradient><ellipse
         stroke-miterlimit="10"
         cx="394.202"
         cy="557.875"
         rx="6.5560002"
         ry="9.5050001"
         id="ellipse7304"
         style="fill:#002147;fill-opacity:1;stroke:none;stroke-width:2;stroke-miterlimit:10" /></g></g><radialGradient
     id="SVGID_25_"
     cx="394.20261"
     cy="575.52252"
     r="180.59351"
     gradientUnits="userSpaceOnUse"
     gradientTransform="translate(-56.629015,1.1430031)"><stop
       offset="0.6316"
       style="stop-color:#FFFFFF"
       id="stop7309" /><stop
       offset="0.7049"
       style="stop-color:#F4F5F5"
       id="stop7311" /><stop
       offset="0.8549"
       style="stop-color:#EAEBEB"
       id="stop7313" /><stop
       offset="1"
       style="stop-color:#E6E7E8"
       id="stop7315" /></radialGradient><path
     display="none"
     stroke-miterlimit="10"
     d="m 550.28798,494.77101 c 0,0 -35,101 -212.714,101 -177.714,0 -212.714,-101 -212.714,-101 0,0 -31.999999,43 -28.999999,61 3,18 64.427999,102.788 241.713999,102.788 177.286,0 238.714,-84.788 241.714,-102.788 3,-18 -29,-61 -29,-61 z"
     id="path7317"
     inkscape:connector-curvature="0"
     style="display:none;fill:url(#SVGID_25_);stroke:#000000;stroke-width:3;stroke-miterlimit:10" /><g
     display="none"
     id="g7319"
     style="display:none"
     transform="translate(-56.629015,1.1430031)"><path
       d="m 152.489,554.628 c 3,18 64.428,102.788 241.714,102.788 177.286,0 238.714,-84.788 241.714,-102.788"
       id="path7321"
       inkscape:connector-curvature="0"
       style="fill:none" /><path
       display="inline"
       d="m 190.566,557.796 1.968,-0.403 1.307,1.382 10.12,-7.123 c -0.281,-0.464 -0.494,-0.771 -0.636,-0.922 -1.142,-1.208 -2.714,-1.67 -4.716,-1.386 -2.002,0.285 -3.851,1.229 -5.546,2.831 l -0.217,0.205 -3.55,-0.805 c 6.417,-5.409 12.402,-5.177 17.956,0.697 l 0.579,0.612 -11.74,8.269 6.607,6.987 5.268,-3.715 c 3.463,-2.445 6.696,-3.861 9.698,-4.247 3.002,-0.386 5.338,0.304 7.009,2.07 0.657,0.695 1.113,1.437 1.369,2.225 l -3.231,1.21 c 0.174,-1.638 -0.038,-2.773 -0.638,-3.408 -0.757,-0.8 -1.822,-1.005 -3.195,-0.614 -1.374,0.391 -3.327,1.461 -5.86,3.213 l -13.311,9.153 c -2.855,1.971 -4.686,3.337 -5.492,4.099 -1.064,1.007 -1.197,1.933 -0.397,2.778 0.35,0.37 0.906,0.845 1.669,1.425 l -1.116,0.776 -6.788,-4.415 13.603,-9.559 -6.606,-6.987 -2.102,1.473 c -3.333,2.336 -6.61,3.646 -9.833,3.935 -3.223,0.287 -5.727,-0.514 -7.511,-2.4 -1.321,-1.397 -1.842,-3.128 -1.563,-5.193 l 3.732,-0.525 c -1.02,2.337 -0.874,4.2 0.44,5.59 1.892,2 5.343,1.24 10.353,-2.281 l 4.235,-2.975 -1.865,-1.972 z"
       id="path7323"
       inkscape:connector-curvature="0"
       style="display:inline" /><path
       display="inline"
       d="m 211.704,597.266 4.582,-4.81 c -4.404,2.253 -7.684,2.618 -9.839,1.095 -1.502,-1.061 -2.191,-2.624 -2.069,-4.688 0.123,-2.064 1.034,-4.299 2.733,-6.703 1.059,-1.499 3.043,-3.763 5.954,-6.793 2.911,-3.029 5.764,-5.803 8.561,-8.32 -0.367,-0.398 -0.635,-0.658 -0.805,-0.778 -1.4,-0.989 -3.049,-1.131 -4.947,-0.426 -1.898,0.706 -3.565,2.075 -5.002,4.107 l -3.639,-0.089 c 5.208,-6.579 11.071,-7.565 17.588,-2.961 l 0.917,0.647 c -3.12,2.777 -6.236,5.783 -9.349,9.019 -3.113,3.234 -5.281,5.718 -6.504,7.448 -1.33,1.882 -2.099,3.547 -2.307,4.993 -0.208,1.447 0.176,2.516 1.152,3.205 1.026,0.726 2.467,0.838 4.323,0.337 1.855,-0.501 3.911,-1.564 6.168,-3.192 l 15.008,-15.81 3.197,1.605 -4.92,4.91 -10.637,11.191 c -1.948,2.055 -3.16,3.419 -3.636,4.093 -0.887,1.255 -0.766,2.281 0.363,3.078 0.399,0.282 0.949,0.584 1.651,0.905 l -0.954,0.998 -7.589,-3.061 z"
       id="path7325"
       inkscape:connector-curvature="0"
       style="display:inline" /><path
       display="inline"
       d="m 221.815,600.879 3.374,-1.85 c -0.086,2.582 0.712,4.281 2.395,5.098 1.103,0.535 2.391,0.369 3.862,-0.498 1.471,-0.867 2.874,-2.282 4.207,-4.244 l 11.497,-16.954 c -0.427,-0.333 -0.734,-0.545 -0.921,-0.636 -1.542,-0.748 -3.193,-0.62 -4.951,0.385 -1.758,1.006 -3.18,2.628 -4.266,4.868 l -3.605,0.504 c 1.928,-3.476 4.317,-5.747 7.168,-6.815 2.851,-1.068 5.87,-0.829 9.058,0.718 l 1.136,0.551 c -1.468,7.431 -3.493,14.82 -6.075,22.168 l 19.061,-15.87 3.234,0.976 -4.055,5.646 -9.894,14.576 c -0.873,1.301 -1.511,2.366 -1.915,3.198 -0.546,1.126 -0.319,1.932 0.681,2.417 0.496,0.24 1.193,0.492 2.094,0.755 l -0.778,1.141 -7.84,-1.479 15.756,-23.235 -19.798,16.39 -1.593,-0.394 0.27,-0.557 c 2.427,-5.005 4.548,-11.651 6.363,-19.941 l -4.949,7.275 c -6.089,8.983 -11.49,12.332 -16.202,10.047 -1.646,-0.799 -2.75,-2.213 -3.314,-4.24 z"
       id="path7327"
       inkscape:connector-curvature="0"
       style="display:inline" /><path
       display="inline"
       d="m 255.798,617.014 2.912,-2.09 c 0.281,2.282 1.181,3.676 2.7,4.181 1.449,0.482 3.087,0.108 4.914,-1.12 1.827,-1.229 4.328,-3.654 7.503,-7.275 l 11.39,-12.961 c -1.017,-0.533 -1.909,-0.928 -2.678,-1.184 -2.061,-0.686 -3.885,-0.508 -5.474,0.532 -1.588,1.039 -2.819,2.87 -3.69,5.491 l -3.553,1.002 c 1.032,-2.478 2.249,-4.406 3.649,-5.787 1.552,-1.539 3.095,-2.489 4.627,-2.851 1.533,-0.36 3.545,-0.254 6.037,0.32 0.497,0.12 1.251,0.288 2.263,0.505 l 3.266,0.253 -2.052,6.812 -3.799,14.286 c -0.885,3.321 -1.32,5.558 -1.304,6.711 0.016,1.153 0.492,1.886 1.429,2.197 0.167,0.056 0.758,0.207 1.771,0.453 l -0.637,1.272 -7.3,-0.719 2.713,-10.184 -8.06,-2.681 c -2.788,3.181 -5.123,5.278 -7.004,6.294 -1.882,1.016 -3.784,1.204 -5.707,0.564 -1.823,-0.604 -3.129,-1.945 -3.916,-4.021 z m 17.763,-4.122 7.321,2.436 4.116,-15.536 -11.437,13.1 z"
       id="path7329"
       inkscape:connector-curvature="0"
       style="display:inline" /><path
       display="inline"
       d="m 286.731,626.848 2.844,-2.565 c 0.529,2.534 1.697,3.999 3.504,4.396 1.208,0.265 2.425,-0.192 3.652,-1.373 1.227,-1.18 2.261,-2.886 3.102,-5.119 l 7.217,-19.148 c -0.494,-0.224 -0.847,-0.36 -1.06,-0.406 -1.665,-0.365 -3.234,0.146 -4.709,1.533 -1.475,1.387 -2.479,3.298 -3.012,5.729 l -3.388,1.332 c 1.01,-3.638 2.762,-6.363 5.256,-8.175 2.493,-1.813 5.272,-2.383 8.337,-1.71 l 1.461,0.32 c 0.241,3.897 0.758,8.11 1.551,12.64 l 0.9,5.134 c 0.639,3.534 1.054,6.37 1.245,8.509 l 4.394,-11.662 c 1.51,-4.023 3.261,-7.008 5.251,-8.952 1.99,-1.944 4.041,-2.685 6.152,-2.222 0.751,0.165 1.444,0.521 2.08,1.067 l -1.713,2.573 c -0.69,-1.17 -1.451,-1.847 -2.283,-2.029 -2.192,-0.481 -4.237,1.809 -6.134,6.868 l -5.727,15.192 -2.069,6.013 -2.15,0.489 c -0.021,-1.649 -0.443,-4.815 -1.267,-9.496 l -1.746,-9.864 c -0.464,-2.636 -0.813,-4.977 -1.044,-7.022 l -2.917,7.771 c -1.854,4.909 -3.944,8.535 -6.272,10.879 -2.328,2.344 -4.735,3.243 -7.222,2.697 -1.745,-0.385 -3.156,-1.517 -4.233,-3.399 z"
       id="path7331"
       inkscape:connector-curvature="0"
       style="display:inline" /><path
       display="inline"
       d="m 319.142,635.598 2.777,-2.779 1.033,0.154 c 1.171,0.174 2.115,-0.221 2.832,-1.186 0.717,-0.965 1.524,-2.955 2.425,-5.971 l 5.078,-16.848 -4.178,-0.622 2.7,-2.791 10.036,1.495 -2.809,2.774 -2.513,-0.374 -4.399,14.618 c -1.349,4.474 -3.59,7.671 -6.723,9.592 l 5.965,1.104 -2.685,2.793 -9.539,-1.959 z"
       id="path7333"
       inkscape:connector-curvature="0"
       style="display:inline" /><path
       display="inline"
       d="m 355.738,638.195 2.369,-3.01 c 0.951,2.407 2.35,3.652 4.198,3.737 1.235,0.056 2.357,-0.602 3.367,-1.973 1.009,-1.37 1.738,-3.228 2.188,-5.571 l 3.865,-20.094 c -0.524,-0.138 -0.895,-0.212 -1.113,-0.222 -1.702,-0.078 -3.163,0.692 -4.38,2.31 -1.218,1.618 -1.883,3.67 -1.997,6.157 l -3.113,1.887 c 0.379,-3.756 1.644,-6.738 3.794,-8.947 2.149,-2.209 4.792,-3.242 7.927,-3.099 l 1.495,0.067 c 0.898,3.801 2.122,7.865 3.672,12.193 l 1.757,4.907 c 1.229,3.375 2.119,6.1 2.67,8.175 l 2.352,-12.238 c 0.807,-4.222 2.025,-7.459 3.658,-9.713 1.631,-2.254 3.526,-3.331 5.686,-3.232 0.769,0.034 1.512,0.269 2.23,0.699 l -1.252,2.827 c -0.879,-1.037 -1.744,-1.575 -2.595,-1.614 -2.242,-0.102 -3.869,2.501 -4.881,7.809 l -3.067,15.944 -1.02,6.276 -2.036,0.847 c -0.3,-1.622 -1.253,-4.671 -2.859,-9.144 l -3.393,-9.426 c -0.905,-2.519 -1.645,-4.767 -2.22,-6.744 l -1.558,8.153 c -0.994,5.152 -2.44,9.08 -4.336,11.785 -1.897,2.704 -4.117,3.998 -6.66,3.883 -1.786,-0.08 -3.368,-0.956 -4.748,-2.629 z"
       id="path7335"
       inkscape:connector-curvature="0"
       style="display:inline" /><path
       display="inline"
       d="m 389.1,641.48 2.307,-3.18 1.045,-0.011 c 1.185,-0.011 2.055,-0.549 2.61,-1.614 0.555,-1.065 1.043,-3.158 1.46,-6.277 l 2.373,-17.436 -4.224,0.041 2.229,-3.18 10.146,-0.098 -2.338,3.181 -2.541,0.024 -2.052,15.128 c -0.632,4.63 -2.344,8.139 -5.137,10.526 l 6.064,0.155 -2.214,3.18 -9.728,-0.439 z"
       id="path7337"
       inkscape:connector-curvature="0"
       style="display:inline" /><path
       display="inline"
       d="m 402.91,641.451 2.096,-3.237 0.903,-0.033 c 1.235,-0.046 2.12,-0.569 2.655,-1.571 0.535,-1.002 0.958,-2.918 1.27,-5.748 l 1.187,-10.976 c 0.348,-3.244 1.324,-5.946 2.929,-8.104 1.605,-2.159 3.477,-3.278 5.616,-3.357 0.955,-0.035 2.078,0.394 3.369,1.285 l -0.583,5.338 -0.996,0.037 c 0.018,-0.37 0.021,-0.677 0.013,-0.919 -0.098,-2.644 -1.144,-3.929 -3.137,-3.855 -1.963,0.072 -3.191,2.417 -3.687,7.033 l -1.071,9.861 c -0.317,2.958 -0.828,5.24 -1.533,6.847 -0.705,1.607 -1.84,3.05 -3.404,4.332 l 8.714,-0.129 c 2.503,-0.093 4.675,-0.97 6.516,-2.633 l -0.174,1.608 c -1.39,1.816 -2.44,2.983 -3.154,3.501 -0.714,0.518 -1.673,0.798 -2.878,0.843 l -14.651,-0.123 z"
       id="path7339"
       inkscape:connector-curvature="0"
       style="display:inline" /><path
       display="inline"
       d="m 446.437,637.124 1.666,-3.174 c 1.274,1.914 2.704,2.757 4.287,2.527 1.512,-0.219 2.809,-1.286 3.892,-3.204 1.082,-1.917 2.23,-5.206 3.446,-9.866 l 4.372,-16.691 c -1.147,-0.021 -2.122,0.026 -2.924,0.143 -2.149,0.311 -3.701,1.287 -4.655,2.929 -0.954,1.642 -1.233,3.829 -0.838,6.563 l -2.727,2.488 c -0.188,-2.677 0.035,-4.946 0.669,-6.809 0.697,-2.071 1.65,-3.612 2.858,-4.622 1.208,-1.009 3.055,-1.815 5.54,-2.42 0.497,-0.115 1.247,-0.303 2.249,-0.563 l 3.033,-1.237 1.219,7.008 3.008,14.474 c 0.696,3.365 1.311,5.561 1.842,6.584 0.531,1.022 1.285,1.464 2.263,1.322 0.175,-0.025 0.771,-0.154 1.786,-0.388 l 10e-4,1.423 -6.848,2.63 -2.139,-10.32 -8.407,1.217 c -1.066,4.093 -2.213,7.015 -3.44,8.766 -1.227,1.752 -2.843,2.772 -4.848,3.063 -1.903,0.273 -3.67,-0.341 -5.305,-1.843 z m 14.031,-11.646 7.636,-1.104 -3.284,-15.733 -4.352,16.837 z"
       id="path7341"
       inkscape:connector-curvature="0"
       style="display:inline" /><path
       display="inline"
       d="m 478.329,634.058 1.473,-3.563 0.883,-0.197 c 1.206,-0.27 1.981,-0.945 2.326,-2.027 0.344,-1.082 0.412,-3.043 0.204,-5.883 l -0.827,-11.009 c -0.247,-3.254 0.223,-6.088 1.408,-8.502 1.187,-2.415 2.823,-3.854 4.913,-4.321 0.933,-0.208 2.115,0.009 3.547,0.651 l 0.396,5.355 -0.974,0.218 c -0.051,-0.368 -0.102,-0.67 -0.154,-0.906 -0.576,-2.582 -1.838,-3.656 -3.785,-3.222 -1.917,0.428 -2.699,2.956 -2.348,7.585 l 0.738,9.893 c 0.225,2.967 0.137,5.304 -0.265,7.012 -0.401,1.707 -1.255,3.333 -2.561,4.878 l 8.545,-1.71 c 2.444,-0.545 4.421,-1.803 5.93,-3.771 l 0.12,1.612 c -1.035,2.039 -1.857,3.377 -2.465,4.016 -0.608,0.639 -1.501,1.089 -2.677,1.352 l -14.427,2.539 z"
       id="path7343"
       inkscape:connector-curvature="0"
       style="display:inline" /><path
       display="inline"
       d="m 499.268,629.282 1.396,-3.673 1.005,-0.282 c 1.141,-0.32 1.84,-1.067 2.099,-2.241 0.258,-1.173 0.181,-3.32 -0.231,-6.44 l -2.266,-17.449 -4.066,1.143 1.321,-3.651 9.768,-2.746 -1.426,3.682 -2.446,0.688 1.973,15.139 c 0.601,4.633 -0.135,8.468 -2.207,11.503 l 5.895,-1.436 -1.306,3.647 -9.509,2.116 z"
       id="path7345"
       inkscape:connector-curvature="0"
       style="display:inline" /><path
       display="inline"
       d="m 515.301,624.747 1.138,-3.758 0.251,-0.087 c 1.492,-0.518 2.373,-1.298 2.645,-2.34 0.271,-1.041 0.114,-3.071 -0.471,-6.088 l -3.708,-19.342 c -2.021,0.702 -3.398,2.012 -4.13,3.929 -0.731,1.918 -0.683,4.073 0.147,6.465 l 0.153,0.443 -2.199,2.887 c -1.167,-4.157 -1.043,-7.573 0.372,-10.247 1.415,-2.675 4.174,-4.724 8.277,-6.146 l 8.658,-3.004 0.669,6.159 -0.928,0.322 c -0.104,-0.552 -0.228,-1.035 -0.372,-1.452 -0.368,-1.062 -1.066,-1.64 -2.095,-1.735 -1.028,-0.095 -2.716,0.265 -5.062,1.079 l -0.457,0.158 2.433,12.526 6.567,-2.278 -0.782,2.597 c -2.363,0.384 -3.948,0.716 -4.753,0.995 l -0.736,0.255 0.445,2.281 c 0.504,2.562 0.652,4.679 0.446,6.351 -0.206,1.673 -0.841,3.482 -1.902,5.43 l 7.2,-2.07 1.567,-0.476 c 1.6,-0.555 2.838,-1.82 3.715,-3.796 l 0.324,1.694 c -0.903,3.009 -2.121,4.778 -3.652,5.31 l -0.684,0.215 -13.076,3.723 z"
       id="path7347"
       inkscape:connector-curvature="0"
       style="display:inline" /><path
       display="inline"
       d="m 535.193,615.879 0.683,-3.769 c 1.968,1.682 3.788,2.127 5.46,1.336 1.117,-0.528 1.802,-1.635 2.051,-3.318 0.25,-1.684 0.025,-3.666 -0.675,-5.948 l -5.994,-19.564 c -0.528,0.124 -0.891,0.232 -1.088,0.325 -1.541,0.729 -2.47,2.093 -2.788,4.093 -0.319,2 0.054,4.125 1.118,6.375 l -1.867,3.125 c -1.424,-3.496 -1.703,-6.724 -0.838,-9.683 0.865,-2.958 2.716,-5.108 5.553,-6.45 l 1.353,-0.64 c 2.573,2.938 5.559,5.956 8.955,9.055 l 3.851,3.513 c 2.667,2.405 4.729,4.396 6.188,5.973 l -3.653,-11.915 c -1.264,-4.107 -1.703,-7.539 -1.316,-10.295 0.387,-2.755 1.557,-4.595 3.51,-5.519 0.695,-0.329 1.462,-0.471 2.299,-0.427 l 0.217,3.084 c -1.262,-0.505 -2.277,-0.575 -3.048,-0.211 -2.028,0.96 -2.247,4.021 -0.655,9.186 l 4.756,15.524 2.038,6.022 -1.402,1.702 c -1.025,-1.293 -3.295,-3.54 -6.809,-6.741 l -7.411,-6.738 c -1.979,-1.803 -3.686,-3.442 -5.12,-4.92 l 2.441,7.933 c 1.534,5.019 2.097,9.167 1.688,12.444 -0.409,3.278 -1.765,5.461 -4.066,6.549 -1.62,0.764 -3.429,0.731 -5.431,-0.101 z"
       id="path7349"
       inkscape:connector-curvature="0"
       style="display:inline" /><path
       display="inline"
       d="m 585.458,591.197 -2.894,-5.979 c 0.563,4.915 -0.248,8.113 -2.431,9.597 -1.521,1.033 -3.227,1.13 -5.117,0.29 -1.89,-0.841 -3.661,-2.479 -5.316,-4.914 -1.031,-1.519 -2.454,-4.172 -4.268,-7.961 -1.814,-3.789 -3.409,-7.436 -4.783,-10.938 -0.503,0.204 -0.84,0.364 -1.012,0.481 -1.418,0.963 -2.13,2.457 -2.137,4.482 -0.006,2.024 0.69,4.066 2.089,6.126 l -1.361,3.376 c -4.33,-7.188 -3.195,-13.023 3.406,-17.508 l 0.928,-0.631 c 1.504,3.896 3.224,7.87 5.159,11.921 1.935,4.051 3.499,6.953 4.689,8.706 1.295,1.906 2.583,3.211 3.865,3.914 1.281,0.703 2.416,0.719 3.404,0.047 1.04,-0.706 1.651,-2.016 1.835,-3.929 0.183,-1.912 -0.092,-4.211 -0.822,-6.896 l -9.531,-19.604 2.627,-2.43 2.869,6.332 6.741,13.89 c 1.239,2.546 2.092,4.16 2.555,4.843 0.863,1.271 1.866,1.518 3.01,0.741 0.404,-0.274 0.88,-0.684 1.427,-1.228 l 0.601,1.243 -5.533,6.029 z"
       id="path7351"
       inkscape:connector-curvature="0"
       style="display:inline" /><path
       display="inline"
       d="m 592.775,583.184 -0.762,-3.771 c 2.439,0.851 4.3,0.595 5.579,-0.77 0.839,-0.894 1.063,-2.173 0.674,-3.836 -0.391,-1.662 -1.324,-3.422 -2.801,-5.278 l -12.766,-16.02 c -0.446,0.309 -0.74,0.539 -0.882,0.69 -1.174,1.25 -1.542,2.863 -1.105,4.841 0.438,1.978 1.563,3.817 3.378,5.521 l -0.591,3.592 c -2.744,-2.875 -4.202,-5.832 -4.374,-8.872 -0.172,-3.039 0.955,-5.851 3.38,-8.435 l 0.863,-0.92 c 6.658,3.611 13.11,7.743 19.357,12.395 l -9.48,-22.919 1.894,-2.797 4.184,5.551 10.974,13.782 c 0.981,1.22 1.81,2.146 2.483,2.779 0.913,0.856 1.749,0.879 2.511,0.068 0.376,-0.401 0.824,-0.992 1.343,-1.774 l 0.857,1.082 -3.744,7.046 -17.496,-21.955 9.758,23.777 -0.85,1.404 -0.451,-0.424 c -4.056,-3.806 -9.771,-7.809 -17.146,-12.008 l 5.474,6.89 c 6.766,8.486 8.356,14.639 4.772,18.457 -1.251,1.335 -2.929,1.969 -5.033,1.904 z"
       id="path7353"
       inkscape:connector-curvature="0"
       style="display:inline" /></g></svg>