<svg xmlns="http://www.w3.org/2000/svg" xmlns:xlink="http://www.w3.org/1999/xlink" version="1.1" x="0" y="0" width="510.428" height="606.924" viewBox="132.396 -0.5 510.428 606.924" xml:space="preserve" id="svg558"><defs id="defs2"><radialGradient gradientUnits="userSpaceOnUse" r="327.212" cy="400.546" cx="394.452" id="SVGID_19_"><stop id="stop149" style="stop-color:#262262" offset="0"/><stop id="stop151" style="stop-color:#2e3192" offset="1"/></radialGradient><radialGradient id="SVGID_20_" cx="394.203" cy="419.884" r="19.338" gradientUnits="userSpaceOnUse"><stop offset="0" style="stop-color:#262262" id="stop468"/><stop offset="1" style="stop-color:#2e3192" id="stop470"/></radialGradient><radialGradient id="SVGID_21_" cx="394.202" cy="470.319" r="50.412" gradientUnits="userSpaceOnUse"><stop offset="0" style="stop-color:#262262" id="stop475"/><stop offset="1" style="stop-color:#2e3192" id="stop477"/></radialGradient><radialGradient id="SVGID_22_" cx="394.202" cy="523.54" r="48.401" gradientUnits="userSpaceOnUse"><stop offset="0" style="stop-color:#262262" id="stop482"/><stop offset="1" style="stop-color:#2e3192" id="stop484"/></radialGradient><radialGradient id="SVGID_23_" cx="394.202" cy="542.96" r="47.569" gradientUnits="userSpaceOnUse"><stop offset="0" style="stop-color:#262262" id="stop489"/><stop offset="1" style="stop-color:#2e3192" id="stop491"/></radialGradient><radialGradient id="SVGID_24_" cx="394.202" cy="557.875" r="8.165" gradientUnits="userSpaceOnUse"><stop offset="0" style="stop-color:#262262" id="stop496"/><stop offset="1" style="stop-color:#2e3192" id="stop498"/></radialGradient><radialGradient id="SVGID_14_" cx="178.917" cy="51.383" r="10.789" gradientUnits="userSpaceOnUse"><stop offset="0" style="stop-color:#262262" id="stop102"/><stop offset="1" style="stop-color:#2e3192" id="stop104"/></radialGradient><radialGradient id="SVGID_15_" cx="177.307" cy="47.398" r="3.113" gradientUnits="userSpaceOnUse"><stop offset="0" style="stop-color:#262262" id="stop109"/><stop offset="1" style="stop-color:#2e3192" id="stop111"/></radialGradient><radialGradient id="SVGID_16_" cx="300.246" cy="135.951" r="35.863" gradientUnits="userSpaceOnUse"><stop offset="0" style="stop-color:#262262" id="stop116"/><stop offset="1" style="stop-color:#2e3192" id="stop118"/></radialGradient><radialGradient id="SVGID_17_" cx="194.736" cy="130.652" r="29.126" gradientUnits="userSpaceOnUse"><stop offset="0" style="stop-color:#262262" id="stop123"/><stop offset="1" style="stop-color:#2e3192" id="stop125"/></radialGradient><radialGradient id="SVGID_18_" cx="268.732" cy="103.419" r="95.18" gradientUnits="userSpaceOnUse"><stop offset="0" style="stop-color:#262262" id="stop130"/><stop offset="1" style="stop-color:#2e3192" id="stop132"/></radialGradient><radialGradient id="SVGID_9_" cx="431.99" cy="51.383" r="10.789" gradientUnits="userSpaceOnUse"><stop offset="0" style="stop-color:#262262" id="stop55"/><stop offset="1" style="stop-color:#2e3192" id="stop57"/></radialGradient><radialGradient id="SVGID_10_" cx="430.379" cy="47.398" r="3.113" gradientUnits="userSpaceOnUse"><stop offset="0" style="stop-color:#262262" id="stop62"/><stop offset="1" style="stop-color:#2e3192" id="stop64"/></radialGradient><radialGradient id="SVGID_11_" cx="553.318" cy="135.951" r="35.863" gradientUnits="userSpaceOnUse"><stop offset="0" style="stop-color:#262262" id="stop69"/><stop offset="1" style="stop-color:#2e3192" id="stop71"/></radialGradient><radialGradient id="SVGID_12_" cx="447.809" cy="130.652" r="29.126" gradientUnits="userSpaceOnUse"><stop offset="0" style="stop-color:#262262" id="stop76"/><stop offset="1" style="stop-color:#2e3192" id="stop78"/></radialGradient><radialGradient id="SVGID_13_" cx="521.804" cy="103.419" r="95.18" gradientUnits="userSpaceOnUse"><stop offset="0" style="stop-color:#262262" id="stop83"/><stop offset="1" style="stop-color:#2e3192" id="stop85"/></radialGradient><linearGradient y2="303.357" x2="646.167" y1="303.357" x1="142.739" gradientUnits="userSpaceOnUse" id="SVGID_7_"><stop id="stop45" style="stop-color:#f9ed32" offset="0"/><stop id="stop47" style="stop-color:#fbb040" offset="1"/></linearGradient><clipPath id="SVGID_8_"><use id="use52" overflow="visible" xlink:href="#SVGID_2_" x="0" y="0" width="100%" height="100%"/></clipPath><defs id="defs43"><path d="M393.759 3.5h-251.02v258.714c0 161.081 140 299 251.714 341 118.286-39 251.714-175.92 251.714-337V3.5H393.759z" id="SVGID_2_"/></defs></defs><linearGradient id="SVGID_3_" gradientUnits="userSpaceOnUse" x1="170.185" y1="515.304" x2="225.079" y2="536.376"><stop offset="0" style="stop-color:#8b5e3c" id="stop4"/><stop offset=".497" style="stop-color:#fdc060" id="stop6"/></linearGradient><linearGradient id="SVGID_4_" gradientUnits="userSpaceOnUse" x1="563.326" y1="536.376" x2="618.22" y2="515.304"><stop offset=".503" style="stop-color:#fdc060" id="stop11"/><stop offset="1" style="stop-color:#8b5e3c" id="stop13"/></linearGradient><linearGradient id="SVGID_5_" gradientUnits="userSpaceOnUse" x1="133.897" y1="461.128" x2="239.489" y2="461.128"><stop offset="0" style="stop-color:#bcbec0" id="stop18"/><stop offset=".333" style="stop-color:#e6e7e8" id="stop20"/></linearGradient><linearGradient id="SVGID_6_" gradientUnits="userSpaceOnUse" x1="548.917" y1="461.128" x2="654.508" y2="461.128"><stop offset=".632" style="stop-color:#e6e7e8" id="stop25"/><stop offset=".687" style="stop-color:#dbdcdd" id="stop27"/><stop offset=".793" style="stop-color:#cacbcd" id="stop29"/><stop offset=".898" style="stop-color:#bfc1c3" id="stop31"/><stop offset="1" style="stop-color:#bcbec0" id="stop33"/></linearGradient><use style="fill:#fff;stroke:#002147;stroke-opacity:1" height="100%" width="100%" y="0" x="0" id="use505" stroke-miterlimit="10" stroke-width="7" stroke="#000" fill="none" overflow="visible" xlink:href="#SVGID_2_" transform="translate(-6.843 -.5)"/><g id="g1911" transform="translate(-6.843 -.5)"><path style="fill:#002147;fill-opacity:1;stroke:#fff;stroke-opacity:1" id="path107" d="M165.338 57.061c1.842 2.105 8.081-5.205 11.3-4.52 3.219.685 15.202 1.096 16.093-.479.891-1.575-1.438-7.19-5.479-6.711-4.04.479-11.299 1.438-15.066 3.287-3.766 1.849-8.766 6.232-6.848 8.423z" stroke-miterlimit="10" stroke-width="2" stroke="#fff200" fill="url(#SVGID_14_)"/><path style="fill:#002147;fill-opacity:1;stroke:#fff;stroke-opacity:1" id="path114" d="M174.629 46.469s3.104 4.931 4.565 4.383c1.461-.547.548-6.757 0-6.939-.547-.183-4.565 2.556-4.565 2.556z" stroke-miterlimit="10" stroke-width="2" stroke="#fff200" fill="url(#SVGID_15_)"/><path style="fill:#002147;fill-opacity:1;stroke:#fff" id="path121" d="M297.441 122.667c-.28 8.224 6.71 16.025 6.163 17.532-.548 1.506-9.861 22.325-14.655 24.927-4.794 2.603-9.313 2.466-11.231 5.341-1.917 2.877-4.245 6.3-2.191 6.986 2.055.685 10.188 2.329 13.654 2.329 3.466 0 26.066-36.296 30.723-38.898 4.657-2.602 2.74-40.13 5.205-42.048 2.465-1.918-2.604-6.848-5.342-6.711-2.74.136-21.368 2.327-22.326 30.542z" stroke-miterlimit="10" stroke-width="2" stroke="#fff200" fill="url(#SVGID_16_)"/><path style="fill:#002147;fill-opacity:1;stroke:#fff" id="path128" d="M198.552 106.642c-9.725 5.616-21.777 5.067-27.256 13.97-5.479 8.902-.411 13.422-4.245 19.038-3.836 5.615-5.616 8.629-3.699 10.683 1.918 2.054 2.466 6.437 3.836 6.026 1.369-.411 1.917-4.657 3.834-4.383 1.918.274 4.521-.411 4.521-1.096s.418-14.115 2.469-19.316c2.051-5.201-1.099-9.583 33.005-8.077 27.667-.411 10.272-5.479 12.601-9.176 2.327-3.697-15.341-13.285-25.066-7.669z" stroke-miterlimit="10" stroke-width="2" stroke="#fff200" fill="url(#SVGID_17_)"/><path style="fill:#002147;fill-opacity:1;stroke:#fff" id="path135" d="M371.949 135.404c-3.286-5.752-6.643-8.766-9.655-16.162-3.014-7.396-4.862-28.215-8.698-34.515-.564-.928-1.07-1.825-1.576-2.7 10.051.129 25.666-12.076 15.41-31.952-22.051-37.528-57.662-21.641-57.524-18.901.137 2.739 4.479 1.521 10.409 1.095 27.803-1.917 38.075 18.217 38.897 26.982.822 8.766-6.848 12.327-10.684 12.327-3.834 0-12.041-2.017-12.041-2.017v0a85.531 85.531 0 00-4.258-1.544c-16.367-5.479-88.205 5.684-97.86-2.876-9.656-8.561-1.917-41.363-22.667-45.678-20.751-4.314-21.789 4.913-29.459 7.652-7.67 2.739-16.836 5.839-17.658 7.483-.82 1.644 1.918 2.739 1.645 4.109-.274 1.37-1.164 6.643 5.752 8.766 6.917 2.124 17.669-2.654 17.669 1.043 0 3.698-16.71 3.066-15.203 6.969 1.507 3.903 9.725-2.055 19.448 1.986 9.725 4.041 1.37 35.474 7.945 47.253 4.126 7.394 8.796 15.111 22.744 17.8.461 9.901 2.205 51.63-1.014 53.239-3.652 1.826-14.929 6.438-12.92 11.962 4.519 2.098 9.496-.686 11.733-.822 2.237-.136 12.601-4.611 12.646-8.629.047-4.018 1.781-10.409 3.379-12.464 1.391-1.787 6.097-31.113 4.381-42.526 5.281-.355 11.311-1.127 18.219-2.398 44.65-8.218 48.484-26.023 59.99-22.736 3.219 6.3 1.301 15.545 15.888 27.05s18.97 8.012 20.683 11.847c1.711 3.835.753 25.133-.891 26.366-4.247.274-15.136 4.314-8.834 7.875 6.299 3.561 15.888 2.465 19.174 0 3.287-2.464 8.218-30.131 4.93-35.884z" stroke-miterlimit="10" stroke-width="2" stroke="#fff200" fill="url(#SVGID_18_)"/><path style="stroke:#fff" id="path137" d="M241.559 119.517c4.429 5.798-1.553 44.24-3.15 46.294-1.598 2.055-3.332 8.446-3.379 12.464-.045 4.018-10.408 8.492-12.646 8.629-2.238.137-7.215 2.92-11.733.822-2.009-5.524 9.268-10.136 12.92-11.962 3.652-1.826.914-55.333.914-55.333s-26.663-27.027 2.557-36.889" stroke-miterlimit="10" stroke-width="2" stroke="#fff200" fill="none"/><path style="stroke:#fff" id="path139" d="M204.442 28.024c-1.232.958-1.781 12.601 2.602 13.286.822 2.602.138 4.645-.547 6.089-.686 1.444-4.246 17.332 1.096 22.673 5.342 5.342 7.67 7.396 9.313 6.711 1.644-.685 0-3.972 2.739-6.3s5.89-5.342 6.574-7.67c.685-2.328 1.369-19.448 0-22.873-1.369-3.425-2.896-12.875-4.402-14.107" stroke-miterlimit="10" stroke-width="2" stroke="#fff200" fill="none"/><path style="fill:#fff;stroke:#fff" id="path141" d="M184.081 31.312c-1.37-.296 4.714-2.739 8.52-1.278 3.807 1.461 3.076 2.921 3.533 2.465.456-.457-1.826 3.013-6.027 2.831-4.199-.182-5.844-1.187-6.025-1.461-.184-.274 1.004-.457 1.004-1.004 0-.547.364-1.257-1.005-1.553z" stroke-miterlimit="10" stroke-width="2" stroke="#fff200" fill="#fff200"/><path style="fill:#002147;fill-opacity:1" id="path143" d="M188.235 31.654c0 .252 1.027.525 1.096.914.068.388-1.004.708-.867 1.072.137.365 1.574 1.393 2.465.753.891-.64 1.324-1.05 1.004-1.757-.318-.708-1.393-1.644-2.305-1.484-.915.16-1.393.114-1.393.502z"/><path style="stroke:#fff" id="path145" d="M166.192 38.173s5.311-.903 4.009-1.382c-1.302-.48-3.702-.118-4.009.342z" stroke-miterlimit="10" stroke-width="2" stroke="#fff200" fill="#fff200"/></g><path style="fill:#002147;fill-opacity:1;stroke:#fff" id="polygon154" stroke-miterlimit="10" stroke-width="2" stroke="#fff200" fill="url(#SVGID_19_)" clip-path="url(#SVGID_8_)" transform="translate(-6.843 -.5)" d="M394.454 340.035l308.545 304.671 84.544-100.162-393.089-388.157L1.361 544.544l84.547 100.162z"/><path fill="#e8ce55" d="M323.156 232.955v6.965c6.975.089 11.371 1.46 12.852 9.425v81.935l12.105-17.315h-4.56v-5.334c5.654-.011 10.438.01 16.093 0v5.334h-5.39l8.928 17.315 8.927-17.315h-5.38v-5.334h17.202v5.334h-5.418l8.845 17.315 8.845-17.315h-5.418v-5.334h16.914v5.334h-5.417l8.955 17.315 8.928-17.315h-5.39v-5.334c5.655.01 10.709-.011 16.363 0v5.334h-4.533l12.078 17.315v-81.935c1.48-7.965 5.904-9.335 12.88-9.425v-6.965zm19.208 7.822h16.915v16.114h-16.915zm24.367 0h16.897v16.114h-16.897zm24.36 0h16.888v16.114h-16.888zm24.35 0h16.887v16.114h-16.887zm-73.077 22.029h16.915v16.085h-16.915zm24.367 0h16.897v16.085h-16.897zm24.36 0h16.888v16.085h-16.888zm24.35 0h16.887v16.085h-16.887zm-73.077 21.999h16.915v16.114h-16.915zm24.367 0h16.897v16.114h-16.897zm24.36 0h16.888v16.114h-16.888zm24.35 0h16.887v16.114h-16.887z" id="path156" style="fill:#fff;fill-opacity:1;stroke:none;stroke-opacity:0"/><path style="fill:#fff" fill="#e8ce55" d="M455.451 255.313c-1.891 0-3.399 1.537-3.399 3.427v8.458c0 1.89 1.509 3.426 3.399 3.426h2.708a3.43 3.43 0 003.429-3.426v-8.458a3.43 3.43 0 00-3.429-3.427zm.222 3.676h2.267c.441 0 .663.222.663.608v6.744c0 .386-.222.608-.663.608h-2.267c-.444 0-.663-.213-.663-.608v-6.744c0-.395.219-.608.663-.608z" id="path322"/><path style="fill:#fff" fill="#e8ce55" d="M455.253 316.156a9.549 9.549 0 00-9.555 9.559 9.542 9.542 0 009.555 9.55 9.54 9.54 0 009.554-9.55 9.547 9.547 0 00-9.554-9.559zm0 4.119c3.111 0 5.441 2.445 5.441 5.439s-2.325 5.43-5.441 5.43c-3.115 0-5.434-2.436-5.434-5.43.001-2.994 2.322-5.439 5.434-5.439z" id="path328"/><path style="fill:#fff" fill="#e8ce55" d="M445.344 242.705c-1.533 1.106-1.857 3.235-.751 4.769l4.948 6.858c1.107 1.533 3.229 1.896 4.763.79l2.196-1.585a3.43 3.43 0 00.774-4.785l-4.95-6.858a3.428 3.428 0 00-4.784-.773zm2.331 2.851l1.837-1.326c.358-.258.668-.208.894.105l3.946 5.469c.227.313.177.623-.182.881l-1.838 1.326c-.36.261-.662.215-.894-.104l-3.946-5.469c-.231-.321-.178-.622.183-.882z" id="path334"/><path style="fill:#fff" fill="#e8ce55" d="M454.717 271.039c-1.577-1.042-3.683-.591-4.725.987l-4.661 7.058c-1.041 1.577-.629 3.691.948 4.733l2.261 1.493a3.43 3.43 0 004.748-.972l4.661-7.058a3.43 3.43 0 00-.972-4.749zm-1.841 3.189l1.892 1.249c.368.244.432.551.218.873l-3.716 5.628c-.213.322-.52.386-.889.142l-1.891-1.249c-.371-.245-.437-.544-.219-.873l3.716-5.628c.218-.329.518-.387.889-.142z" id="path340"/><path style="fill:#fff" fill="#e8ce55" d="M446.096 285.435c-1.873-.264-3.581 1.048-3.844 2.92l-1.178 8.375c-.264 1.872 1.017 3.604 2.89 3.867l2.682.377a3.43 3.43 0 003.871-2.916l1.178-8.375a3.43 3.43 0 00-2.916-3.871zm-.293 3.669l2.244.316c.438.062.626.313.572.695l-.939 6.678c-.054.383-.304.571-.741.51l-2.244-.316c-.44-.062-.628-.303-.572-.694l.939-6.678c.054-.391.301-.572.741-.511z" id="path346"/><path style="fill:#fff" fill="#e8ce55" d="M443.603 302.448c-1.707.813-2.407 2.85-1.594 4.556l3.641 7.634c.814 1.707 2.837 2.444 4.544 1.63l2.445-1.165a3.431 3.431 0 001.618-4.569l-3.642-7.634a3.427 3.427 0 00-4.568-1.618zm1.782 3.223l2.045-.976c.398-.189.694-.085.86.263l2.903 6.087c.166.349.062.645-.337.835l-2.046.975c-.401.191-.69.093-.861-.264l-2.901-6.086c-.171-.357-.065-.643.337-.834z" id="path352"/><path style="fill:#fff" fill="#e8ce55" d="M441.611 234.828l.111-.077a1.621 1.621 0 012.257.405l6.522 9.373a1.622 1.622 0 01-.405 2.257l-.11.078a1.623 1.623 0 01-2.258-.405l-6.522-9.374a1.62 1.62 0 01.405-2.257z" id="path358"/><path style="fill:#fff" fill="#e8ce55" d="M452.354 248.18l.126-.049a1.621 1.621 0 012.098.926l4.123 10.65a1.622 1.622 0 01-.927 2.098l-.126.049a1.622 1.622 0 01-2.098-.928l-4.123-10.648a1.622 1.622 0 01.927-2.098z" id="path364"/><path style="fill:#fff" fill="#e8ce55" d="M457.187 263.963l.128.042a1.62 1.62 0 011.03 2.049l-3.586 10.841a1.621 1.621 0 01-2.049 1.03l-.128-.042a1.619 1.619 0 01-1.03-2.048l3.585-10.841a1.622 1.622 0 012.05-1.031z" id="path370"/><path style="fill:#fff" fill="#e8ce55" d="M450.482 278.099l.129.042a1.622 1.622 0 011.03 2.049l-3.587 10.841a1.621 1.621 0 01-2.049 1.031l-.127-.043a1.618 1.618 0 01-1.03-2.048l3.585-10.842a1.62 1.62 0 012.049-1.03z" id="path376"/><path style="fill:#fff" fill="#e8ce55" d="M445.336 294.094l.135-.014a1.62 1.62 0 011.78 1.445l1.184 11.357a1.623 1.623 0 01-1.445 1.781l-.135.014a1.621 1.621 0 01-1.781-1.444l-1.183-11.358a1.622 1.622 0 011.445-1.781z" id="path382"/><path style="fill:#fff" fill="#e8ce55" d="M448.658 310.036l.125-.054a1.622 1.622 0 012.127.856l4.479 10.505a1.621 1.621 0 01-.855 2.127l-.125.053a1.623 1.623 0 01-2.128-.855l-4.478-10.505a1.621 1.621 0 01.855-2.127z" id="path388"/><path style="fill:#fff" fill="#e8ce55" d="M319.268 255.313c1.891 0 3.399 1.537 3.399 3.427v8.458c0 1.89-1.509 3.426-3.399 3.426h-2.709a3.43 3.43 0 01-3.427-3.426v-8.458a3.43 3.43 0 013.427-3.427zm-.222 3.676h-2.267c-.441 0-.663.222-.663.608v6.744c0 .386.222.608.663.608h2.267c.444 0 .664-.213.664-.608v-6.744c0-.395-.22-.608-.664-.608z" id="path394"/><path style="fill:#fff" fill="#e8ce55" d="M319.466 316.156a9.549 9.549 0 019.555 9.559 9.541 9.541 0 01-9.555 9.55 9.541 9.541 0 01-9.555-9.55 9.548 9.548 0 019.555-9.559zm0 4.119c-3.111 0-5.44 2.445-5.44 5.439s2.324 5.43 5.44 5.43c3.116 0 5.433-2.436 5.433-5.43 0-2.994-2.321-5.439-5.433-5.439z" id="path400"/><path style="fill:#fff" fill="#e8ce55" d="M329.375 242.705c1.533 1.106 1.857 3.235.751 4.769l-4.949 6.858c-1.106 1.533-3.229 1.896-4.762.79l-2.196-1.585a3.429 3.429 0 01-.773-4.785l4.949-6.858a3.428 3.428 0 014.784-.773zm-2.33 2.851l-1.838-1.326c-.358-.258-.668-.208-.894.105l-3.946 5.469c-.227.313-.177.623.182.881l1.838 1.326c.36.261.663.215.894-.104l3.946-5.469c.231-.321.179-.622-.182-.882z" id="path406"/><path style="fill:#fff" fill="#e8ce55" d="M320.002 271.039c1.578-1.042 3.683-.591 4.726.987l4.66 7.058c1.042 1.577.629 3.691-.949 4.733l-2.26 1.493a3.429 3.429 0 01-4.748-.972l-4.661-7.058a3.431 3.431 0 01.972-4.749zm1.841 3.189l-1.892 1.249c-.368.244-.431.551-.218.873l3.716 5.628c.213.322.52.386.889.142l1.891-1.249c.371-.245.437-.544.219-.873l-3.716-5.628c-.218-.329-.518-.387-.889-.142z" id="path412"/><path style="fill:#fff" fill="#e8ce55" d="M328.623 285.435c1.873-.264 3.581 1.048 3.844 2.92l1.178 8.375c.264 1.872-1.017 3.604-2.889 3.867l-2.683.377a3.43 3.43 0 01-3.871-2.916l-1.178-8.375a3.43 3.43 0 012.916-3.871zm.293 3.669l-2.244.316c-.438.062-.626.313-.572.695l.939 6.678c.054.383.304.571.741.51l2.244-.316c.44-.062.628-.303.572-.694l-.939-6.678c-.054-.391-.3-.572-.741-.511z" id="path418"/><path style="fill:#fff" fill="#e8ce55" d="M331.117 302.448c1.706.813 2.407 2.85 1.593 4.556l-3.641 7.634c-.813 1.707-2.837 2.444-4.544 1.63l-2.445-1.165a3.43 3.43 0 01-1.617-4.569l3.641-7.634a3.427 3.427 0 014.568-1.618zm-1.782 3.223l-2.046-.976c-.398-.189-.694-.085-.86.263l-2.902 6.087c-.167.349-.063.645.337.835l2.045.975c.401.191.69.093.86-.264l2.903-6.086c.17-.357.065-.643-.337-.834z" id="path424"/><path style="fill:#fff" fill="#e8ce55" d="M333.109 234.828l-.111-.077a1.621 1.621 0 00-2.257.405l-6.522 9.373a1.622 1.622 0 00.405 2.257l.111.078c.735.511 1.745.33 2.257-.405l6.522-9.374a1.62 1.62 0 00-.405-2.257z" id="path430"/><path style="fill:#fff" fill="#e8ce55" d="M322.365 248.18l-.126-.049a1.621 1.621 0 00-2.098.926l-4.123 10.65a1.623 1.623 0 00.927 2.098l.126.049a1.624 1.624 0 002.099-.928l4.122-10.648a1.622 1.622 0 00-.927-2.098z" id="path436"/><path style="fill:#fff" fill="#e8ce55" d="M317.533 263.963l-.129.042a1.621 1.621 0 00-1.03 2.049l3.586 10.841a1.621 1.621 0 002.049 1.03l.128-.042a1.62 1.62 0 001.031-2.048l-3.586-10.841a1.62 1.62 0 00-2.049-1.031z" id="path442"/><path style="fill:#fff" fill="#e8ce55" d="M324.238 278.099l-.128.042a1.62 1.62 0 00-1.03 2.049l3.586 10.841a1.621 1.621 0 002.049 1.031l.128-.043a1.62 1.62 0 001.03-2.048l-3.586-10.842a1.62 1.62 0 00-2.049-1.03z" id="path448"/><path style="fill:#fff" fill="#e8ce55" d="M329.383 294.094l-.134-.014a1.62 1.62 0 00-1.781 1.445l-1.183 11.357a1.622 1.622 0 001.444 1.781l.135.014a1.62 1.62 0 001.78-1.444l1.184-11.358a1.621 1.621 0 00-1.445-1.781z" id="path454"/><path style="fill:#fff" fill="#e8ce55" d="M326.061 310.036l-.125-.054a1.622 1.622 0 00-2.127.856l-4.479 10.505a1.621 1.621 0 00.855 2.127l.125.053a1.623 1.623 0 002.128-.855l4.478-10.505a1.62 1.62 0 00-.855-2.127z" id="path460"/><path fill="url(#SVGID_20_)" stroke="#fff200" stroke-width="2" stroke-miterlimit="10" d="M387.362 400.047c-10.682 0-19.34 8.657-19.34 19.338 0 10.68 8.658 19.337 19.34 19.337 10.678 0 19.336-8.657 19.336-19.337 0-10.681-8.659-19.338-19.336-19.338zm0 29.171a9.832 9.832 0 01-9.833-9.833 9.831 9.831 0 019.833-9.833 9.832 9.832 0 019.833 9.833c0 5.43-4.403 9.833-9.833 9.833z" id="path473" style="fill:#002147;fill-opacity:1;stroke:#000;stroke-opacity:0"/><path fill="url(#SVGID_21_)" stroke="#fff200" stroke-width="2" stroke-miterlimit="10" d="M443.161 514.19s-14.258-60.719-19.912-66.373c-5.653-5.653-11.799-22.37-31.711-22.37h-8.358c-19.912 0-26.058 16.717-31.711 22.37-5.654 5.654-19.912 66.373-19.912 66.373z" id="path480" style="fill:#002147;fill-opacity:1;stroke:#fff"/><path fill="url(#SVGID_22_)" stroke="#fff200" stroke-width="2" stroke-miterlimit="10" d="M387.893 503.624v-.004l-.534.002-.537-.002v.004c-42.693.079-65.098 4.886-65.098 38.837h131.27c0-33.951-22.404-38.758-65.101-38.837z" id="path487" style="fill:#002147;fill-opacity:1;stroke:#fff"/><path fill="url(#SVGID_23_)" stroke="#fff200" stroke-width="2" stroke-miterlimit="10" d="M452.994 542.461c0 8.146-29.388 14.749-65.636 14.749-35.708 0-64.755-6.406-65.615-14.387a3.15 3.15 0 01-.02-.362c0-8.147 29.386-14.75 65.635-14.75 36.249 0 65.636 6.602 65.636 14.75z" id="path494" style="fill:#002147;fill-opacity:1;stroke:#fff"/><ellipse fill="url(#SVGID_24_)" stroke="#fff200" stroke-width="2" stroke-miterlimit="10" cx="387.359" cy="557.375" rx="6.556" ry="9.505" id="ellipse501" style="fill:#002147;fill-opacity:1;stroke:#fff"/><radialGradient id="SVGID_25_" cx="394.203" cy="575.523" r="180.594" gradientUnits="userSpaceOnUse"><stop offset=".632" style="stop-color:#fff" id="stop509"/><stop offset=".705" style="stop-color:#f4f5f5" id="stop511"/><stop offset=".855" style="stop-color:#eaebeb" id="stop513"/><stop offset="1" style="stop-color:#e6e7e8" id="stop515"/></radialGradient><g id="g1933" transform="translate(246.23 -.5)"><path fill="url(#SVGID_14_)" stroke="#fff200" stroke-width="2" stroke-miterlimit="10" d="M165.338 57.061c1.842 2.105 8.081-5.205 11.3-4.52 3.219.685 15.202 1.096 16.093-.479.891-1.575-1.438-7.19-5.479-6.711-4.04.479-11.299 1.438-15.066 3.287-3.766 1.849-8.766 6.232-6.848 8.423z" id="path1913" style="fill:#002147;fill-opacity:1;stroke:#fff;stroke-opacity:1"/><path fill="url(#SVGID_15_)" stroke="#fff200" stroke-width="2" stroke-miterlimit="10" d="M174.629 46.469s3.104 4.931 4.565 4.383c1.461-.547.548-6.757 0-6.939-.547-.183-4.565 2.556-4.565 2.556z" id="path1915" style="fill:#002147;fill-opacity:1;stroke:#fff;stroke-opacity:1"/><path fill="url(#SVGID_16_)" stroke="#fff200" stroke-width="2" stroke-miterlimit="10" d="M297.441 122.667c-.28 8.224 6.71 16.025 6.163 17.532-.548 1.506-9.861 22.325-14.655 24.927-4.794 2.603-9.313 2.466-11.231 5.341-1.917 2.877-4.245 6.3-2.191 6.986 2.055.685 10.188 2.329 13.654 2.329 3.466 0 26.066-36.296 30.723-38.898 4.657-2.602 2.74-40.13 5.205-42.048 2.465-1.918-2.604-6.848-5.342-6.711-2.74.136-21.368 2.327-22.326 30.542z" id="path1917" style="fill:#002147;fill-opacity:1;stroke:#fff"/><path fill="url(#SVGID_17_)" stroke="#fff200" stroke-width="2" stroke-miterlimit="10" d="M198.552 106.642c-9.725 5.616-21.777 5.067-27.256 13.97-5.479 8.902-.411 13.422-4.245 19.038-3.836 5.615-5.616 8.629-3.699 10.683 1.918 2.054 2.466 6.437 3.836 6.026 1.369-.411 1.917-4.657 3.834-4.383 1.918.274 4.521-.411 4.521-1.096s.418-14.115 2.469-19.316c2.051-5.201-1.099-9.583 33.005-8.077 27.667-.411 10.272-5.479 12.601-9.176 2.327-3.697-15.341-13.285-25.066-7.669z" id="path1919" style="fill:#002147;fill-opacity:1;stroke:#fff"/><path fill="url(#SVGID_18_)" stroke="#fff200" stroke-width="2" stroke-miterlimit="10" d="M371.949 135.404c-3.286-5.752-6.643-8.766-9.655-16.162-3.014-7.396-4.862-28.215-8.698-34.515-.564-.928-1.07-1.825-1.576-2.7 10.051.129 25.666-12.076 15.41-31.952-22.051-37.528-57.662-21.641-57.524-18.901.137 2.739 4.479 1.521 10.409 1.095 27.803-1.917 38.075 18.217 38.897 26.982.822 8.766-6.848 12.327-10.684 12.327-3.834 0-12.041-2.017-12.041-2.017v0a85.531 85.531 0 00-4.258-1.544c-16.367-5.479-88.205 5.684-97.86-2.876-9.656-8.561-1.917-41.363-22.667-45.678-20.751-4.314-21.789 4.913-29.459 7.652-7.67 2.739-16.836 5.839-17.658 7.483-.82 1.644 1.918 2.739 1.645 4.109-.274 1.37-1.164 6.643 5.752 8.766 6.917 2.124 17.669-2.654 17.669 1.043 0 3.698-16.71 3.066-15.203 6.969 1.507 3.903 9.725-2.055 19.448 1.986 9.725 4.041 1.37 35.474 7.945 47.253 4.126 7.394 8.796 15.111 22.744 17.8.461 9.901 2.205 51.63-1.014 53.239-3.652 1.826-14.929 6.438-12.92 11.962 4.519 2.098 9.496-.686 11.733-.822 2.237-.136 12.601-4.611 12.646-8.629.047-4.018 1.781-10.409 3.379-12.464 1.391-1.787 6.097-31.113 4.381-42.526 5.281-.355 11.311-1.127 18.219-2.398 44.65-8.218 48.484-26.023 59.99-22.736 3.219 6.3 1.301 15.545 15.888 27.05s18.97 8.012 20.683 11.847c1.711 3.835.753 25.133-.891 26.366-4.247.274-15.136 4.314-8.834 7.875 6.299 3.561 15.888 2.465 19.174 0 3.287-2.464 8.218-30.131 4.93-35.884z" id="path1921" style="fill:#002147;fill-opacity:1;stroke:#fff"/><path fill="none" stroke="#fff200" stroke-width="2" stroke-miterlimit="10" d="M241.559 119.517c4.429 5.798-1.553 44.24-3.15 46.294-1.598 2.055-3.332 8.446-3.379 12.464-.045 4.018-10.408 8.492-12.646 8.629-2.238.137-7.215 2.92-11.733.822-2.009-5.524 9.268-10.136 12.92-11.962 3.652-1.826.914-55.333.914-55.333s-26.663-27.027 2.557-36.889" id="path1923" style="stroke:#fff"/><path fill="none" stroke="#fff200" stroke-width="2" stroke-miterlimit="10" d="M204.442 28.024c-1.232.958-1.781 12.601 2.602 13.286.822 2.602.138 4.645-.547 6.089-.686 1.444-4.246 17.332 1.096 22.673 5.342 5.342 7.67 7.396 9.313 6.711 1.644-.685 0-3.972 2.739-6.3s5.89-5.342 6.574-7.67c.685-2.328 1.369-19.448 0-22.873-1.369-3.425-2.896-12.875-4.402-14.107" id="path1925" style="stroke:#fff"/><path fill="#fff200" stroke="#fff200" stroke-width="2" stroke-miterlimit="10" d="M184.081 31.312c-1.37-.296 4.714-2.739 8.52-1.278 3.807 1.461 3.076 2.921 3.533 2.465.456-.457-1.826 3.013-6.027 2.831-4.199-.182-5.844-1.187-6.025-1.461-.184-.274 1.004-.457 1.004-1.004 0-.547.364-1.257-1.005-1.553z" id="path1927" style="fill:#fff;stroke:#fff"/><path d="M188.235 31.654c0 .252 1.027.525 1.096.914.068.388-1.004.708-.867 1.072.137.365 1.574 1.393 2.465.753.891-.64 1.324-1.05 1.004-1.757-.318-.708-1.393-1.644-2.305-1.484-.915.16-1.393.114-1.393.502z" id="path1929" style="fill:#002147;fill-opacity:1"/><path fill="#fff200" stroke="#fff200" stroke-width="2" stroke-miterlimit="10" d="M166.192 38.173s5.311-.903 4.009-1.382c-1.302-.48-3.702-.118-4.009.342z" id="path1931" style="stroke:#fff"/></g><use transform="translate(-6.843 -.5)" xlink:href="#SVGID_2_" overflow="visible" fill="none" stroke="#000" stroke-width="7" stroke-miterlimit="10" id="use426" x="0" y="0" width="100%" height="100%" style="fill:none;stroke:#002147;stroke-opacity:1"/></svg>