<?xml version="1.0" encoding="utf-8"?>
<!-- Generator: Adobe Illustrator 15.1.0, SVG Export Plug-In . SVG Version: 6.00 Build 0)  -->
<!DOCTYPE svg PUBLIC "-//W3C//DTD SVG 1.1//EN" "http://www.w3.org/Graphics/SVG/1.1/DTD/svg11.dtd">
<svg version="1.1" id="Layer_1" xmlns="http://www.w3.org/2000/svg" xmlns:xlink="http://www.w3.org/1999/xlink" x="0px" y="0px"
	 width="524px" height="659px" viewBox="0 0 524 659" enable-background="new 0 0 524 659" xml:space="preserve">
<linearGradient id="SVGID_3_" gradientUnits="userSpaceOnUse" x1="143.7881" y1="-51.3037" x2="198.6829" y2="-72.3759" gradientTransform="matrix(1 0 0 -1 -106 464)">
	<stop  offset="0" style="stop-color:#8B5E3C"/>
	<stop  offset="0.497" style="stop-color:#FDC060"/>
</linearGradient>
<path display="none" fill="url(#SVGID_3_)" stroke="#000000" stroke-width="3" stroke-miterlimit="10" d="M109.092,493.628l-72,70
	c0,0-13.53,0.171-11-15c2.529-15.171,23-55,23-55s1-8,21-9S109.092,493.628,109.092,493.628z"/>
<linearGradient id="SVGID_4_" gradientUnits="userSpaceOnUse" x1="536.9297" y1="-72.376" x2="591.824" y2="-51.304" gradientTransform="matrix(1 0 0 -1 -106 464)">
	<stop  offset="0.503" style="stop-color:#FDC060"/>
	<stop  offset="1" style="stop-color:#8B5E3C"/>
</linearGradient>
<path display="none" fill="url(#SVGID_4_)" stroke="#000000" stroke-width="3" stroke-miterlimit="10" d="M414.52,493.628l72,70
	c0,0,13.529,0.171,11-15c-2.528-15.171-23-55-23-55s-1-8-21-9S414.52,493.628,414.52,493.628z"/>
<linearGradient id="SVGID_5_" gradientUnits="userSpaceOnUse" x1="107.5" y1="2.8721" x2="213.0918" y2="2.8721" gradientTransform="matrix(1 0 0 -1 -106 464)">
	<stop  offset="0" style="stop-color:#BCBEC0"/>
	<stop  offset="0.3333" style="stop-color:#E6E7E8"/>
</linearGradient>
<path display="none" fill="url(#SVGID_5_)" stroke="#000000" stroke-width="3" stroke-miterlimit="10" d="M2.092,456.628
	c0-18,7.316-28,35-28c27.684,0,51,8,51,8l19,57c0,0-71.883-16.141-90.941-9.07C-2.907,491.629,2.092,456.628,2.092,456.628z"/>
<linearGradient id="SVGID_6_" gradientUnits="userSpaceOnUse" x1="522.5195" y1="2.8721" x2="628.1113" y2="2.8721" gradientTransform="matrix(1 0 0 -1 -106 464)">
	<stop  offset="0.6316" style="stop-color:#E6E7E8"/>
	<stop  offset="0.6867" style="stop-color:#DBDCDD"/>
	<stop  offset="0.7932" style="stop-color:#CACBCD"/>
	<stop  offset="0.8984" style="stop-color:#BFC1C3"/>
	<stop  offset="1" style="stop-color:#BCBEC0"/>
</linearGradient>
<path display="none" fill="url(#SVGID_6_)" stroke="#000000" stroke-width="3" stroke-miterlimit="10" d="M521.52,456.628
	c0-18-7.315-28-35-28c-27.684,0-51,8-51,8l-19,57c0,0,71.884-16.141,90.941-9.07C526.52,491.629,521.52,456.628,521.52,456.628z"/>
<path display="none" fill="#FBB040" stroke="#000000" stroke-width="3" stroke-miterlimit="10" d="M2.092,456.628c0,0,8,6,23,6
	c9.731,10.067,11,32,11,58.345c-25-1.345-34-19.345-34-48.345S2.092,456.628,2.092,456.628z"/>
<path display="none" fill="#FBB040" stroke="#000000" stroke-width="3" stroke-miterlimit="10" d="M521.52,456.628c0,0-8,6-23,6
	c-9.73,10.067-11,32-11,58.345c25-1.345,34-19.345,34-48.345S521.52,456.628,521.52,456.628z"/>
<g>
	<g>
		
			<linearGradient id="SVGID_7_" gradientUnits="userSpaceOnUse" x1="367.8057" y1="-139.2134" x2="367.8054" y2="460.4995" gradientTransform="matrix(1 0 0 -1 -106 464)">
			<stop  offset="0" style="stop-color:#000000"/>
			<stop  offset="1" style="stop-color:#414042"/>
		</linearGradient>
		<path id="SVGID_2_" fill="url(#SVGID_7_)" d="M261.113,3.5H10.092c0,0,0,138.937,0,258.714c0,161.081,140,299,251.714,341
			c118.286-39,251.713-175.92,251.713-337c0-119.778,0-262.714,0-262.714H261.113z"/>
	</g>
	<g>
		<path id="SVGID_1_" fill="none" stroke="#000000" stroke-width="7" stroke-miterlimit="10" d="M261.113,3.5H10.092
			c0,0,0,138.937,0,258.714c0,161.081,140,299,251.714,341c118.286-39,251.713-175.92,251.713-337c0-119.778,0-262.714,0-262.714
			H261.113z"/>
	</g>
</g>
<radialGradient id="SVGID_8_" cx="367.8057" cy="-111.522" r="180.5936" gradientTransform="matrix(1 0 0 -1 -106 464)" gradientUnits="userSpaceOnUse">
	<stop  offset="0.6316" style="stop-color:#FFFFFF"/>
	<stop  offset="0.7049" style="stop-color:#F4F5F5"/>
	<stop  offset="0.8549" style="stop-color:#EAEBEB"/>
	<stop  offset="1" style="stop-color:#E6E7E8"/>
</radialGradient>
<path display="none" fill="url(#SVGID_8_)" stroke="#000000" stroke-width="3" stroke-miterlimit="10" d="M474.52,493.628
	c0,0-35,101-212.713,101c-177.714,0-212.714-101-212.714-101s-32,43-29,61S84.52,657.416,261.806,657.416
	c177.286,0,238.713-84.788,241.713-102.788S474.52,493.628,474.52,493.628z"/>
<g display="none">
	<path display="inline" fill="none" d="M20.092,554.628c3,18,64.428,102.788,241.714,102.788
		c177.286,0,238.713-84.788,241.713-102.788"/>
	<path display="inline" d="M58.17,557.796l1.968-0.403l1.307,1.383l10.12-7.123c-0.281-0.464-0.494-0.771-0.636-0.922
		c-1.142-1.208-2.714-1.67-4.716-1.387c-2.002,0.285-3.851,1.229-5.546,2.831l-0.217,0.205l-3.55-0.805
		c6.417-5.409,12.402-5.177,17.956,0.697l0.579,0.611l-11.74,8.27l6.607,6.986l5.268-3.715c3.463-2.444,6.696-3.86,9.698-4.247
		c3.002-0.386,5.338,0.305,7.009,2.07c0.657,0.695,1.113,1.438,1.369,2.225l-3.231,1.21c0.174-1.638-0.038-2.772-0.638-3.407
		c-0.757-0.801-1.822-1.006-3.195-0.614c-1.374,0.391-3.327,1.461-5.86,3.213l-13.311,9.153c-2.855,1.971-4.686,3.337-5.492,4.099
		c-1.064,1.007-1.197,1.933-0.397,2.778c0.35,0.37,0.906,0.845,1.669,1.425l-1.116,0.776l-6.788-4.415l13.603-9.56l-6.606-6.986
		l-2.102,1.473c-3.333,2.336-6.61,3.646-9.833,3.935c-3.223,0.287-5.727-0.514-7.511-2.399c-1.321-1.397-1.842-3.128-1.563-5.193
		l3.732-0.525c-1.02,2.338-0.874,4.2,0.44,5.591c1.892,2,5.343,1.239,10.353-2.281l4.235-2.976L58.17,557.796z"/>
	<path display="inline" d="M79.308,597.266l4.582-4.81c-4.404,2.253-7.684,2.618-9.839,1.095c-1.502-1.061-2.191-2.624-2.069-4.688
		c0.123-2.064,1.034-4.299,2.733-6.703c1.059-1.499,3.043-3.764,5.954-6.793s5.764-5.803,8.561-8.32
		c-0.367-0.398-0.635-0.658-0.805-0.778c-1.4-0.988-3.049-1.131-4.947-0.426c-1.898,0.706-3.565,2.075-5.002,4.107l-3.639-0.089
		c5.208-6.579,11.071-7.565,17.588-2.961l0.917,0.646c-3.12,2.777-6.236,5.783-9.349,9.019c-3.113,3.234-5.281,5.719-6.504,7.448
		c-1.33,1.882-2.099,3.547-2.307,4.993c-0.208,1.447,0.176,2.516,1.152,3.205c1.026,0.726,2.467,0.838,4.323,0.337
		c1.855-0.501,3.911-1.564,6.168-3.192l15.008-15.81l3.197,1.604l-4.92,4.91l-10.637,11.191c-1.948,2.055-3.16,3.419-3.636,4.093
		c-0.887,1.255-0.766,2.281,0.363,3.078c0.399,0.282,0.949,0.584,1.651,0.905l-0.954,0.998L79.308,597.266z"/>
	<path display="inline" d="M89.419,600.879l3.374-1.85c-0.086,2.582,0.712,4.281,2.395,5.098c1.103,0.535,2.391,0.369,3.862-0.498
		c1.471-0.867,2.874-2.282,4.207-4.244l11.497-16.954c-0.427-0.333-0.734-0.545-0.921-0.636c-1.542-0.748-3.193-0.62-4.951,0.385
		c-1.758,1.007-3.18,2.629-4.266,4.868l-3.605,0.504c1.928-3.476,4.317-5.747,7.168-6.814c2.851-1.068,5.87-0.829,9.058,0.718
		l1.136,0.551c-1.468,7.432-3.493,14.82-6.075,22.168l19.061-15.869l3.234,0.976l-4.055,5.646l-9.894,14.576
		c-0.873,1.301-1.511,2.366-1.915,3.198c-0.546,1.126-0.319,1.932,0.681,2.417c0.496,0.24,1.193,0.492,2.094,0.755l-0.778,1.142
		l-7.84-1.479l15.756-23.235l-19.798,16.391l-1.593-0.395l0.27-0.557c2.427-5.005,4.548-11.651,6.363-19.941l-4.949,7.275
		c-6.089,8.983-11.49,12.332-16.202,10.047C91.087,604.32,89.982,602.906,89.419,600.879z"/>
	<path display="inline" d="M123.401,617.014l2.912-2.09c0.281,2.282,1.181,3.676,2.7,4.182c1.449,0.481,3.087,0.107,4.914-1.12
		c1.827-1.229,4.328-3.654,7.503-7.275l11.39-12.961c-1.017-0.533-1.909-0.928-2.678-1.185c-2.061-0.686-3.885-0.508-5.474,0.532
		c-1.588,1.039-2.819,2.87-3.69,5.491l-3.553,1.002c1.032-2.478,2.249-4.406,3.649-5.787c1.552-1.539,3.095-2.488,4.627-2.851
		c1.533-0.36,3.545-0.254,6.037,0.319c0.497,0.12,1.251,0.288,2.263,0.506l3.266,0.253l-2.052,6.812l-3.799,14.286
		c-0.885,3.321-1.32,5.558-1.304,6.711c0.016,1.153,0.492,1.886,1.429,2.197c0.167,0.056,0.758,0.207,1.771,0.453l-0.637,1.271
		l-7.3-0.719l2.713-10.184l-8.06-2.682c-2.788,3.182-5.123,5.278-7.004,6.294c-1.882,1.017-3.784,1.204-5.707,0.564
		C125.495,620.431,124.189,619.09,123.401,617.014z M141.165,612.892l7.321,2.437l4.116-15.536L141.165,612.892z"/>
	<path display="inline" d="M154.335,626.848l2.844-2.564c0.529,2.534,1.697,3.999,3.504,4.396c1.208,0.266,2.425-0.191,3.652-1.373
		c1.227-1.18,2.261-2.886,3.102-5.118l7.217-19.148c-0.494-0.224-0.847-0.36-1.06-0.406c-1.665-0.365-3.234,0.146-4.709,1.533
		c-1.475,1.387-2.479,3.298-3.012,5.729l-3.388,1.332c1.01-3.638,2.762-6.362,5.256-8.175c2.493-1.812,5.272-2.383,8.337-1.71
		l1.461,0.32c0.241,3.896,0.758,8.109,1.551,12.64l0.9,5.134c0.639,3.534,1.054,6.37,1.245,8.51l4.394-11.662
		c1.51-4.023,3.261-7.008,5.251-8.952c1.99-1.944,4.041-2.686,6.152-2.222c0.751,0.164,1.444,0.521,2.08,1.066l-1.713,2.573
		c-0.69-1.17-1.451-1.847-2.283-2.029c-2.192-0.48-4.237,1.81-6.134,6.868l-5.727,15.192l-2.069,6.013l-2.15,0.489
		c-0.021-1.649-0.443-4.815-1.267-9.496l-1.746-9.864c-0.464-2.636-0.813-4.977-1.044-7.021l-2.917,7.771
		c-1.854,4.909-3.944,8.535-6.272,10.879c-2.328,2.345-4.735,3.243-7.222,2.697C156.822,629.862,155.411,628.73,154.335,626.848z"/>
	<path display="inline" d="M186.746,635.598l2.777-2.778l1.033,0.153c1.171,0.175,2.115-0.221,2.832-1.186
		c0.717-0.965,1.524-2.955,2.425-5.971l5.078-16.849l-4.178-0.622l2.7-2.791l10.036,1.495l-2.809,2.774l-2.513-0.374l-4.399,14.618
		c-1.349,4.474-3.59,7.671-6.723,9.592l5.965,1.104l-2.685,2.793L186.746,635.598z"/>
	<path display="inline" d="M223.341,638.195l2.369-3.011c0.951,2.407,2.35,3.652,4.198,3.737c1.235,0.057,2.357-0.602,3.367-1.973
		c1.009-1.37,1.738-3.229,2.188-5.571l3.865-20.094c-0.524-0.138-0.895-0.212-1.113-0.222c-1.702-0.078-3.163,0.691-4.38,2.31
		c-1.218,1.618-1.883,3.67-1.997,6.157l-3.113,1.887c0.379-3.756,1.644-6.738,3.794-8.947c2.149-2.209,4.792-3.242,7.927-3.099
		l1.495,0.067c0.898,3.801,2.122,7.864,3.672,12.192l1.757,4.907c1.229,3.375,2.119,6.1,2.67,8.175l2.352-12.238
		c0.807-4.222,2.025-7.459,3.658-9.713c1.631-2.254,3.526-3.331,5.686-3.231c0.769,0.033,1.512,0.269,2.23,0.698l-1.252,2.827
		c-0.879-1.037-1.744-1.574-2.595-1.613c-2.242-0.103-3.869,2.501-4.881,7.809l-3.067,15.944l-1.02,6.275l-2.036,0.848
		c-0.3-1.622-1.253-4.672-2.859-9.145l-3.393-9.426c-0.905-2.52-1.645-4.768-2.22-6.744l-1.558,8.153
		c-0.994,5.151-2.44,9.08-4.336,11.785c-1.897,2.703-4.117,3.997-6.66,3.883C226.304,640.744,224.721,639.868,223.341,638.195z"/>
	<path display="inline" d="M256.704,641.48l2.307-3.181l1.045-0.011c1.185-0.011,2.055-0.549,2.61-1.614
		c0.555-1.064,1.043-3.158,1.46-6.276l2.373-17.437l-4.224,0.041l2.229-3.18l10.146-0.099l-2.338,3.182l-2.541,0.023l-2.053,15.128
		c-0.632,4.631-2.344,8.14-5.137,10.526l6.064,0.155l-2.215,3.18L256.704,641.48z"/>
	<path display="inline" d="M270.514,641.451l2.096-3.237l0.902-0.033c1.235-0.046,2.12-0.568,2.655-1.57s0.958-2.918,1.271-5.748
		l1.187-10.977c0.349-3.244,1.324-5.945,2.929-8.104c1.605-2.159,3.477-3.278,5.616-3.357c0.955-0.035,2.078,0.395,3.369,1.285
		l-0.583,5.338l-0.996,0.037c0.018-0.37,0.021-0.677,0.014-0.919c-0.099-2.645-1.145-3.929-3.138-3.855
		c-1.963,0.072-3.19,2.417-3.687,7.033l-1.071,9.861c-0.317,2.958-0.828,5.24-1.533,6.847c-0.705,1.607-1.84,3.05-3.403,4.332
		l8.713-0.129c2.504-0.093,4.676-0.97,6.517-2.633l-0.175,1.607c-1.389,1.816-2.439,2.983-3.153,3.501
		c-0.714,0.519-1.673,0.799-2.878,0.844L270.514,641.451z"/>
	<path display="inline" d="M314.041,637.124l1.666-3.174c1.273,1.914,2.704,2.757,4.287,2.526c1.512-0.219,2.809-1.285,3.892-3.203
		c1.082-1.917,2.23-5.206,3.446-9.866l4.372-16.691c-1.147-0.021-2.122,0.026-2.924,0.144c-2.149,0.311-3.701,1.287-4.655,2.929
		s-1.233,3.829-0.838,6.562l-2.728,2.488c-0.188-2.677,0.035-4.946,0.669-6.809c0.697-2.071,1.65-3.612,2.858-4.622
		c1.208-1.009,3.055-1.815,5.54-2.42c0.497-0.115,1.247-0.304,2.249-0.563l3.033-1.237l1.219,7.009l3.008,14.474
		c0.696,3.365,1.312,5.561,1.842,6.584c0.531,1.022,1.285,1.464,2.264,1.322c0.175-0.025,0.771-0.154,1.786-0.389l0.001,1.424
		l-6.849,2.63l-2.139-10.32l-8.407,1.217c-1.065,4.093-2.213,7.016-3.439,8.767c-1.228,1.752-2.844,2.771-4.849,3.062
		C317.443,639.24,315.675,638.626,314.041,637.124z M328.072,625.479l7.636-1.104l-3.284-15.733L328.072,625.479z"/>
	<path display="inline" d="M345.932,634.058l1.474-3.562l0.883-0.197c1.206-0.27,1.98-0.945,2.326-2.026
		c0.344-1.082,0.412-3.044,0.204-5.884l-0.827-11.009c-0.247-3.254,0.223-6.088,1.408-8.502c1.187-2.415,2.822-3.854,4.912-4.321
		c0.934-0.208,2.115,0.01,3.548,0.651l0.396,5.355l-0.974,0.218c-0.051-0.368-0.103-0.67-0.154-0.906
		c-0.576-2.582-1.838-3.656-3.785-3.222c-1.917,0.428-2.699,2.956-2.348,7.585l0.738,9.893c0.225,2.967,0.137,5.304-0.266,7.013
		c-0.4,1.706-1.255,3.332-2.561,4.878l8.545-1.71c2.443-0.546,4.421-1.804,5.93-3.771l0.12,1.612
		c-1.035,2.039-1.857,3.377-2.465,4.016c-0.608,0.639-1.501,1.089-2.677,1.353L345.932,634.058z"/>
	<path display="inline" d="M366.872,629.282l1.396-3.673l1.006-0.282c1.141-0.32,1.84-1.067,2.099-2.241
		c0.258-1.173,0.181-3.32-0.231-6.439l-2.266-17.449l-4.066,1.143l1.321-3.65l9.769-2.746l-1.427,3.682l-2.445,0.688l1.973,15.139
		c0.601,4.633-0.135,8.468-2.207,11.503l5.896-1.436l-1.307,3.646L366.872,629.282z"/>
	<path display="inline" d="M382.905,624.747l1.138-3.758l0.251-0.087c1.492-0.519,2.373-1.298,2.646-2.34
		c0.271-1.041,0.113-3.071-0.472-6.089l-3.708-19.342c-2.021,0.702-3.397,2.013-4.13,3.929c-0.73,1.919-0.683,4.073,0.147,6.466
		l0.152,0.442l-2.198,2.888c-1.167-4.157-1.044-7.573,0.371-10.247c1.415-2.676,4.175-4.725,8.277-6.146l8.658-3.004l0.669,6.159
		l-0.928,0.322c-0.104-0.553-0.229-1.035-0.372-1.452c-0.368-1.062-1.066-1.641-2.096-1.735c-1.027-0.095-2.716,0.265-5.062,1.079
		l-0.457,0.158l2.433,12.525l6.567-2.277l-0.782,2.597c-2.362,0.384-3.948,0.716-4.753,0.995l-0.736,0.255l0.445,2.281
		c0.504,2.562,0.652,4.679,0.446,6.351c-0.206,1.673-0.841,3.482-1.902,5.431l7.2-2.07l1.567-0.477
		c1.6-0.555,2.838-1.819,3.715-3.796l0.324,1.694c-0.903,3.009-2.121,4.778-3.652,5.31l-0.684,0.216L382.905,624.747z"/>
	<path display="inline" d="M402.796,615.879l0.683-3.769c1.969,1.682,3.788,2.127,5.461,1.336c1.116-0.528,1.802-1.636,2.051-3.318
		c0.25-1.684,0.024-3.666-0.675-5.948l-5.994-19.563c-0.528,0.124-0.892,0.231-1.088,0.325c-1.541,0.729-2.471,2.093-2.788,4.093
		c-0.319,2,0.054,4.125,1.118,6.375l-1.867,3.125c-1.424-3.496-1.703-6.724-0.838-9.683c0.864-2.959,2.716-5.108,5.553-6.45
		l1.353-0.641c2.573,2.938,5.56,5.956,8.955,9.056l3.852,3.513c2.667,2.405,4.729,4.396,6.188,5.973l-3.652-11.915
		c-1.265-4.106-1.703-7.539-1.316-10.295c0.387-2.755,1.557-4.595,3.51-5.519c0.695-0.329,1.462-0.471,2.299-0.427l0.218,3.084
		c-1.263-0.506-2.277-0.575-3.049-0.211c-2.027,0.96-2.247,4.021-0.654,9.186l4.756,15.524l2.038,6.021l-1.402,1.702
		c-1.025-1.293-3.295-3.54-6.809-6.741l-7.411-6.738c-1.979-1.803-3.687-3.441-5.12-4.92l2.441,7.934
		c1.533,5.019,2.097,9.167,1.688,12.443c-0.409,3.278-1.765,5.461-4.066,6.55C406.608,616.744,404.798,616.711,402.796,615.879z"/>
	<path display="inline" d="M453.062,591.197l-2.895-5.979c0.563,4.915-0.248,8.113-2.431,9.598c-1.521,1.032-3.228,1.13-5.117,0.29
		c-1.89-0.842-3.661-2.479-5.316-4.914c-1.03-1.52-2.454-4.173-4.268-7.961c-1.814-3.789-3.409-7.437-4.783-10.938
		c-0.503,0.204-0.84,0.364-1.012,0.481c-1.418,0.963-2.13,2.457-2.138,4.481c-0.006,2.024,0.69,4.066,2.09,6.126l-1.361,3.376
		c-4.33-7.188-3.195-13.022,3.406-17.508l0.928-0.631c1.504,3.896,3.224,7.87,5.159,11.921c1.935,4.051,3.499,6.953,4.688,8.706
		c1.295,1.906,2.583,3.211,3.865,3.914c1.281,0.703,2.416,0.719,3.404,0.047c1.04-0.706,1.65-2.016,1.835-3.929
		c0.183-1.912-0.092-4.211-0.822-6.896l-9.531-19.604l2.627-2.431l2.869,6.332l6.741,13.891c1.239,2.546,2.092,4.159,2.555,4.843
		c0.863,1.271,1.866,1.518,3.011,0.741c0.403-0.274,0.88-0.685,1.427-1.229l0.601,1.243L453.062,591.197z"/>
	<path display="inline" d="M460.378,583.184l-0.762-3.771c2.438,0.851,4.3,0.595,5.579-0.771c0.839-0.894,1.062-2.173,0.674-3.836
		c-0.391-1.662-1.324-3.422-2.801-5.277l-12.767-16.021c-0.445,0.31-0.739,0.539-0.882,0.69c-1.174,1.25-1.542,2.862-1.104,4.841
		c0.438,1.978,1.562,3.817,3.378,5.521l-0.592,3.593c-2.743-2.875-4.201-5.832-4.373-8.872c-0.173-3.039,0.954-5.852,3.38-8.436
		l0.862-0.92c6.658,3.611,13.11,7.743,19.357,12.396l-9.48-22.919l1.895-2.797l4.184,5.551l10.975,13.781
		c0.98,1.221,1.81,2.146,2.482,2.779c0.913,0.856,1.749,0.879,2.511,0.068c0.376-0.401,0.824-0.992,1.344-1.774l0.856,1.082
		l-3.744,7.046l-17.496-21.955l9.759,23.777l-0.851,1.404l-0.451-0.424c-4.056-3.807-9.771-7.81-17.146-12.009l5.474,6.891
		c6.767,8.485,8.356,14.639,4.772,18.457C464.161,582.615,462.483,583.249,460.378,583.184z"/>
</g>
<linearGradient id="SVGID_9_" gradientUnits="userSpaceOnUse" x1="217.3149" y1="184.3862" x2="525.3262" y2="184.3862" gradientTransform="matrix(1 0 0 -1 -106 464)">
	<stop  offset="0" style="stop-color:#ED1C24"/>
	<stop  offset="0.1784" style="stop-color:#E71D25"/>
	<stop  offset="0.3216" style="stop-color:#D91D27"/>
	<stop  offset="0.4522" style="stop-color:#C71E2B"/>
	<stop  offset="0.5" style="stop-color:#BE1E2D"/>
	<stop  offset="0.5478" style="stop-color:#C71E2B"/>
	<stop  offset="0.6784" style="stop-color:#D91D27"/>
	<stop  offset="0.8216" style="stop-color:#E71D25"/>
	<stop  offset="1" style="stop-color:#ED1C24"/>
</linearGradient>
<path fill="url(#SVGID_9_)" stroke="#000000" stroke-width="3" stroke-miterlimit="10" d="M265.32,195.512H111.315v168.204
	c0,0,115.299,0,124.167,0s14.515-11.976,14.515-11.976s-1.348,0.073,15.324,0.073c16.672,0,15.323-0.073,15.323-0.073
	s5.646,11.976,14.516,11.976c8.868,0,124.167,0,124.167,0V195.512H265.32z"/>
<linearGradient id="SVGID_10_" gradientUnits="userSpaceOnUse" x1="226.1475" y1="190.4141" x2="371.7646" y2="190.4141" gradientTransform="matrix(1 0 0 -1 -106 464)">
	<stop  offset="0" style="stop-color:#E7A523"/>
	<stop  offset="0.1213" style="stop-color:#E7A625"/>
	<stop  offset="0.2187" style="stop-color:#E9A92D"/>
	<stop  offset="0.3078" style="stop-color:#EDAF3C"/>
	<stop  offset="0.3919" style="stop-color:#F2B751"/>
	<stop  offset="0.4719" style="stop-color:#F9C26B"/>
	<stop  offset="0.5" style="stop-color:#FEC775"/>
	<stop  offset="0.5281" style="stop-color:#F9C26B"/>
	<stop  offset="0.6081" style="stop-color:#F2B751"/>
	<stop  offset="0.6922" style="stop-color:#EDAF3C"/>
	<stop  offset="0.7813" style="stop-color:#E9A92D"/>
	<stop  offset="0.8787" style="stop-color:#E7A625"/>
	<stop  offset="1" style="stop-color:#E7A523"/>
</linearGradient>
<path fill="url(#SVGID_10_)" stroke="#000000" stroke-width="2" stroke-miterlimit="10" d="M247.015,359.145
	c-0.934-1.742-22.412-4.067-36.475-4.26c-14.064-0.194-34.255,0.968-90.393,0.26v-149.72l27.196-17.398v147.306h118.421v23.812
	H247.015"/>
<path fill="none" stroke="#000000" stroke-width="2" stroke-miterlimit="10" d="M256.643,349.008
	c-0.848-3.805-20.381-8.877-33.173-9.299c-12.79-0.424-31.153,2.112-82.208,0.569V192.925"/>
<path fill="none" stroke="#000000" stroke-width="2" stroke-miterlimit="10" d="M252.59,352.665
	c-0.871-3.23-20.919-7.537-34.047-7.897c-13.128-0.357-31.975,1.795-84.375,0.484V196.811"/>
<path fill="none" stroke="#000000" stroke-width="2" stroke-miterlimit="10" d="M249.887,355.568
	c-0.896-2.35-21.517-5.483-35.017-5.743c-13.504-0.261-32.887,1.305-86.783,0.352V201.203"/>
<linearGradient id="SVGID_11_" gradientUnits="userSpaceOnUse" x1="371.0811" y1="190.4141" x2="516.7002" y2="190.4141" gradientTransform="matrix(1 0 0 -1 -106 464)">
	<stop  offset="0" style="stop-color:#E7A523"/>
	<stop  offset="0.1213" style="stop-color:#E7A625"/>
	<stop  offset="0.2187" style="stop-color:#E9A92D"/>
	<stop  offset="0.3078" style="stop-color:#EDAF3C"/>
	<stop  offset="0.3919" style="stop-color:#F2B751"/>
	<stop  offset="0.4719" style="stop-color:#F9C26B"/>
	<stop  offset="0.5" style="stop-color:#FEC775"/>
	<stop  offset="0.5281" style="stop-color:#F9C26B"/>
	<stop  offset="0.6081" style="stop-color:#F2B751"/>
	<stop  offset="0.6922" style="stop-color:#EDAF3C"/>
	<stop  offset="0.7813" style="stop-color:#E9A92D"/>
	<stop  offset="0.8787" style="stop-color:#E7A625"/>
	<stop  offset="1" style="stop-color:#E7A523"/>
</linearGradient>
<path fill="url(#SVGID_11_)" stroke="#000000" stroke-miterlimit="10" d="M283.832,359.145c0.934-1.742,22.412-4.067,36.476-4.26
	c14.063-0.194,34.257,0.968,90.393,0.26v-149.72l-27.197-17.398v147.306H265.081v23.812H283.832"/>
<path fill="none" stroke="#000000" stroke-miterlimit="10" d="M274.202,349.008c0.849-3.805,20.383-8.877,33.174-9.299
	c12.79-0.424,31.153,2.112,82.208,0.569V192.925"/>
<path fill="none" stroke="#000000" stroke-miterlimit="10" d="M278.256,352.665c0.873-3.23,20.921-7.537,34.049-7.897
	c13.128-0.359,31.974,1.795,84.373,0.484V196.811"/>
<path fill="none" stroke="#000000" stroke-width="2" stroke-miterlimit="10" d="M280.961,355.568
	c0.894-2.35,21.514-5.483,35.017-5.743c13.503-0.261,32.888,1.305,86.782,0.352V201.203"/>
<radialGradient id="SVGID_12_" cx="371.3203" cy="197.5605" r="100.1662" gradientTransform="matrix(1 0 0 -1 -106 464)" gradientUnits="userSpaceOnUse">
	<stop  offset="0" style="stop-color:#FFFFFF"/>
	<stop  offset="0.5455" style="stop-color:#FCFBFA"/>
	<stop  offset="0.742" style="stop-color:#F3F1EF"/>
	<stop  offset="0.8815" style="stop-color:#E7E3E1"/>
	<stop  offset="0.9941" style="stop-color:#D8D1CE"/>
	<stop  offset="1" style="stop-color:#D7CFCD"/>
</radialGradient>
<path fill="url(#SVGID_12_)" stroke="#000000" stroke-width="2" stroke-miterlimit="10" d="M350.151,192.925
	c-17.398,0-27.532-4.054-42.906-4.054c-14.196,0-38.321,5.76-41.925,6.641c-3.605-0.881-27.729-6.641-41.925-6.641
	c-15.372,0-25.508,4.054-42.907,4.054c-17.399,0-33.144-4.898-33.144-4.898v147.306c52.4,1.852,71.248-1.189,84.374-0.684
	c11.747,0.454,33.372,10.52,33.602,10.195c0.229,0.324,21.855-9.74,33.602-10.195c13.128-0.506,31.973,2.535,84.373,0.684V188.027
	C383.295,188.027,367.552,192.925,350.151,192.925z"/>
<line fill="none" stroke="#000000" stroke-width="2" stroke-miterlimit="10" x1="265.32" y1="195.512" x2="265.32" y2="344.845"/>
<radialGradient id="SVGID_13_" cx="271.6885" cy="148.1787" r="15.897" gradientTransform="matrix(-4.371139e-08 -1 -3 1.311342e-07 709.8555 629.1415)" gradientUnits="userSpaceOnUse">
	<stop  offset="0" style="stop-color:#FEC775"/>
	<stop  offset="1" style="stop-color:#E7A523"/>
</radialGradient>
<ellipse fill="url(#SVGID_13_)" stroke="#000000" stroke-width="4" stroke-miterlimit="10" cx="265.318" cy="357.454" rx="18.801" ry="12.331"/>
<g>
	<path fill="#010101" d="M220.007,275.904h-32.794l-5.747,13.368c-1.416,3.291-2.124,5.747-2.124,7.371
		c0,1.292,0.614,2.426,1.843,3.404c1.228,0.979,3.882,1.614,7.964,1.905v2.312h-26.672v-2.312c3.538-0.625,5.831-1.437,6.871-2.436
		c2.125-1.999,4.476-6.059,7.058-12.181l29.796-69.711h2.187l29.484,70.461c2.374,5.664,4.529,9.339,6.465,11.025
		c1.936,1.686,4.632,2.634,8.088,2.842v2.312h-33.418v-2.312c3.374-0.166,5.653-0.728,6.84-1.686c1.187-0.958,1.78-2.124,1.78-3.499
		c0-1.832-0.833-4.726-2.5-8.682L220.007,275.904z M218.258,271.282l-14.367-34.231l-14.742,34.231H218.258z"/>
</g>
<g>
	<path fill="#010101" d="M282.044,284.711h2.312c0.166,2.958,1.04,5.019,2.624,6.184c1.581,1.167,4.101,1.75,7.558,1.75h17.054
		l-0.126-4.185c-6.621-1.333-12.66-5.018-18.115-11.056c-5.457-6.038-8.183-13.658-8.183-22.862c0-10.203,3.8-18.905,11.399-26.111
		c7.6-7.204,17.521-10.806,29.765-10.806c11.869,0,21.571,3.404,29.109,10.213c7.536,6.809,11.307,15.523,11.307,26.142
		c0,8.62-2.343,15.939-7.027,21.957c-4.685,6.018-11.024,10.193-19.021,12.525l-0.625,4.185h17.366c3.956,0,6.569-0.75,7.839-2.249
		c1.271-1.5,1.946-3.394,2.03-5.684h2.312v19.552h-34.98l1.624-18.864c10.743-3.373,16.116-13.306,16.116-29.796
		c0-10.785-2.635-19.051-7.902-24.798c-5.269-5.747-11.441-8.62-18.521-8.62c-7.538,0-13.774,3.052-18.71,9.151
		c-4.935,6.102-7.401,13.899-7.401,23.393c0,6.871,1.103,13.128,3.312,18.771c2.206,5.644,6.434,9.61,12.679,11.9l1.188,18.864
		h-34.98V284.711z"/>
</g>
<g>
	
		<radialGradient id="SVGID_14_" cx="228.6523" cy="381.79" r="56.8934" gradientTransform="matrix(1 0 0 -1 -106 464)" gradientUnits="userSpaceOnUse">
		<stop  offset="0" style="stop-color:#FFFFFF"/>
		<stop  offset="0.4116" style="stop-color:#FCFCFC"/>
		<stop  offset="0.6557" style="stop-color:#F4F4F4"/>
		<stop  offset="0.8555" style="stop-color:#E6E6E6"/>
		<stop  offset="1" style="stop-color:#D6D6D6"/>
	</radialGradient>
	<path fill="url(#SVGID_14_)" d="M123.354,21.197c7.481,11.825,9.432,21.184,21.151,32.902c3.992,3.991,9.106,8.38,14.688,12.926
		c5.232,4.261,13.485,8.098,13.514,13.514c0.026,4.805-5.25,9.935-11.163,8.225c4.104,3.744,12.749,4.035,13.513,11.164
		c0.491,4.579-3.219,11.276-7.638,12.339c-10.806,2.599-12.586-9.141-19.389-12.339c2.154,9.523,13.229,10.437,14.688,19.39
		c3.162,19.393-26.19,20.456-27.614,2.938c-0.869,3.656,1.443,7.412,0.587,11.751c-3.232,16.38-34.631,9.876-25.264-11.165
		c-2.837,3.42-2.733,6.415-5.288,8.814c-9.172,8.613-26.688-0.541-22.327-14.102c2.236-6.954,11.426-8.659,14.101-16.451
		c-4.016,1.669-8.673,7.775-12.926,11.164c-9.609,1.208-15.104-6.21-13.513-13.514c1.232-5.656,8.604-6.78,12.926-9.4
		c-5.885,1.561-14.249-6.906-8.813-14.101c2.196-2.908,7.61-5.964,11.75-9.401c10.734-8.909,24.089-19.23,29.964-33.49
		c1.757-4.265,1.201-8.191,5.288-10.575C122.063,21.474,122.544,21.172,123.354,21.197z"/>
	
		<radialGradient id="SVGID_15_" cx="207.3813" cy="428.6914" r="11.1559" gradientTransform="matrix(1 0 0 -1 -106 464)" gradientUnits="userSpaceOnUse">
		<stop  offset="0" style="stop-color:#FFFFFF"/>
		<stop  offset="0.4116" style="stop-color:#FCFCFC"/>
		<stop  offset="0.6557" style="stop-color:#F4F4F4"/>
		<stop  offset="0.8555" style="stop-color:#E6E6E6"/>
		<stop  offset="1" style="stop-color:#D6D6D6"/>
	</radialGradient>
	<path fill="url(#SVGID_15_)" d="M115.128,28.247c-1.584,7.195-5.67,17.609-14.101,14.102c-0.249-2.011,1.759-1.766,2.35-2.938
		c-3.393-0.328-8.793,1.352-8.226-2.938c3.424-2.451,11.047-0.704,14.101-3.525c-5.876-1.366-13.055,1.042-19.976,0.587
		c-1.771-1.268-2.319-4.071-0.588-5.875C97.324,28.035,107.467,26.9,115.128,28.247z"/>
	
		<radialGradient id="SVGID_16_" cx="250.6992" cy="428.6621" r="11.1427" gradientTransform="matrix(1 0 0 -1 -106 464)" gradientUnits="userSpaceOnUse">
		<stop  offset="0" style="stop-color:#FFFFFF"/>
		<stop  offset="0.4116" style="stop-color:#FCFCFC"/>
		<stop  offset="0.6557" style="stop-color:#F4F4F4"/>
		<stop  offset="0.8555" style="stop-color:#E6E6E6"/>
		<stop  offset="1" style="stop-color:#D6D6D6"/>
	</radialGradient>
	<path fill="url(#SVGID_16_)" d="M150.38,36.473c0,0.783,0,1.567,0,2.35c-1.42,1.126-4.722,0.372-7.051,0.587
		c-1.525,0.804,3.292,1.979,1.175,3.525c-8.88,1.533-12.29-7.219-13.513-15.275c8.829,0.375,19.17-0.762,27.026,0.587
		c0.128,2.149,0.808,2.254,0,4.113c-5.532,2.819-14.086-0.534-21.15,0C138.9,36.202,147.362,33.616,150.38,36.473z"/>
</g>
<g>
	
		<radialGradient id="SVGID_17_" cx="507.1328" cy="381.79" r="56.8934" gradientTransform="matrix(1 0 0 -1 -106 464)" gradientUnits="userSpaceOnUse">
		<stop  offset="0" style="stop-color:#FFFFFF"/>
		<stop  offset="0.4116" style="stop-color:#FCFCFC"/>
		<stop  offset="0.6557" style="stop-color:#F4F4F4"/>
		<stop  offset="0.8555" style="stop-color:#E6E6E6"/>
		<stop  offset="1" style="stop-color:#D6D6D6"/>
	</radialGradient>
	<path fill="url(#SVGID_17_)" d="M401.834,21.197c7.482,11.825,9.433,21.184,21.152,32.902c3.991,3.991,9.105,8.38,14.688,12.926
		c5.232,4.261,13.484,8.098,13.514,13.514c0.027,4.805-5.25,9.935-11.162,8.225c4.104,3.744,12.748,4.035,13.513,11.164
		c0.491,4.579-3.219,11.276-7.638,12.339c-10.806,2.599-12.586-9.141-19.389-12.339c2.154,9.523,13.229,10.437,14.688,19.39
		c3.162,19.393-26.19,20.456-27.614,2.938c-0.869,3.656,1.443,7.412,0.587,11.751c-3.232,16.38-34.632,9.876-25.264-11.165
		c-2.837,3.42-2.733,6.415-5.288,8.814c-9.172,8.613-26.688-0.541-22.327-14.102c2.236-6.954,11.427-8.659,14.101-16.451
		c-4.016,1.669-8.672,7.775-12.926,11.164c-9.609,1.208-15.104-6.21-13.513-13.514c1.232-5.656,8.604-6.78,12.927-9.4
		c-5.885,1.561-14.25-6.906-8.813-14.101c2.196-2.908,7.61-5.964,11.751-9.401c10.733-8.909,24.089-19.23,29.964-33.49
		c1.757-4.265,1.2-8.191,5.288-10.575C400.544,21.474,401.025,21.172,401.834,21.197z"/>
	
		<radialGradient id="SVGID_18_" cx="485.8613" cy="428.6914" r="11.1562" gradientTransform="matrix(1 0 0 -1 -106 464)" gradientUnits="userSpaceOnUse">
		<stop  offset="0" style="stop-color:#FFFFFF"/>
		<stop  offset="0.4116" style="stop-color:#FCFCFC"/>
		<stop  offset="0.6557" style="stop-color:#F4F4F4"/>
		<stop  offset="0.8555" style="stop-color:#E6E6E6"/>
		<stop  offset="1" style="stop-color:#D6D6D6"/>
	</radialGradient>
	<path fill="url(#SVGID_18_)" d="M393.608,28.247c-1.584,7.195-5.671,17.609-14.101,14.102c-0.249-2.011,1.759-1.766,2.35-2.938
		c-3.393-0.328-8.793,1.352-8.226-2.938c3.424-2.451,11.047-0.704,14.101-3.525c-5.875-1.366-13.055,1.042-19.976,0.587
		c-1.771-1.268-2.319-4.071-0.589-5.875C375.805,28.035,385.947,26.9,393.608,28.247z"/>
	
		<radialGradient id="SVGID_19_" cx="529.1797" cy="428.6621" r="11.1427" gradientTransform="matrix(1 0 0 -1 -106 464)" gradientUnits="userSpaceOnUse">
		<stop  offset="0" style="stop-color:#FFFFFF"/>
		<stop  offset="0.4116" style="stop-color:#FCFCFC"/>
		<stop  offset="0.6557" style="stop-color:#F4F4F4"/>
		<stop  offset="0.8555" style="stop-color:#E6E6E6"/>
		<stop  offset="1" style="stop-color:#D6D6D6"/>
	</radialGradient>
	<path fill="url(#SVGID_19_)" d="M428.86,36.473c0,0.783,0,1.567,0,2.35c-1.42,1.126-4.722,0.372-7.051,0.587
		c-1.524,0.804,3.292,1.979,1.175,3.525c-8.88,1.533-12.289-7.219-13.512-15.275c8.828,0.375,19.17-0.762,27.025,0.587
		c0.129,2.149,0.808,2.254,0,4.113c-5.531,2.819-14.086-0.534-21.15,0C417.381,36.202,425.842,33.616,428.86,36.473z"/>
</g>
<g>
	
		<radialGradient id="SVGID_20_" cx="368" cy="-34.3813" r="56.8934" gradientTransform="matrix(1 0 0 -1 -106 464)" gradientUnits="userSpaceOnUse">
		<stop  offset="0" style="stop-color:#FFFFFF"/>
		<stop  offset="0.4116" style="stop-color:#FCFCFC"/>
		<stop  offset="0.6557" style="stop-color:#F4F4F4"/>
		<stop  offset="0.8555" style="stop-color:#E6E6E6"/>
		<stop  offset="1" style="stop-color:#D6D6D6"/>
	</radialGradient>
	<path fill="url(#SVGID_20_)" d="M262.701,437.368c7.482,11.825,9.433,21.184,21.152,32.901c3.991,3.992,9.105,8.381,14.688,12.926
		c5.232,4.262,13.484,8.098,13.514,13.515c0.027,4.806-5.25,9.935-11.162,8.225c4.104,3.743,12.748,4.034,13.513,11.163
		c0.491,4.579-3.219,11.276-7.638,12.34c-10.806,2.598-12.586-9.142-19.389-12.34c2.154,9.523,13.229,10.438,14.688,19.391
		c3.162,19.393-26.19,20.455-27.614,2.938c-0.869,3.655,1.443,7.411,0.587,11.75c-3.232,16.381-34.632,9.877-25.264-11.164
		c-2.837,3.42-2.733,6.415-5.288,8.814c-9.172,8.613-26.688-0.541-22.327-14.102c2.236-6.955,11.427-8.659,14.101-16.451
		c-4.016,1.669-8.672,7.775-12.926,11.164c-9.609,1.208-15.104-6.211-13.513-13.514c1.232-5.656,8.604-6.781,12.927-9.4
		c-5.885,1.561-14.25-6.906-8.813-14.102c2.196-2.908,7.61-5.964,11.751-9.401c10.733-8.909,24.089-19.229,29.964-33.489
		c1.757-4.266,1.2-8.191,5.288-10.576C261.411,437.645,261.893,437.343,262.701,437.368z"/>
	
		<radialGradient id="SVGID_21_" cx="346.7285" cy="12.521" r="11.1562" gradientTransform="matrix(1 0 0 -1 -106 464)" gradientUnits="userSpaceOnUse">
		<stop  offset="0" style="stop-color:#FFFFFF"/>
		<stop  offset="0.4116" style="stop-color:#FCFCFC"/>
		<stop  offset="0.6557" style="stop-color:#F4F4F4"/>
		<stop  offset="0.8555" style="stop-color:#E6E6E6"/>
		<stop  offset="1" style="stop-color:#D6D6D6"/>
	</radialGradient>
	<path fill="url(#SVGID_21_)" d="M254.476,444.418c-1.584,7.195-5.671,17.609-14.101,14.102c-0.249-2.011,1.759-1.766,2.35-2.938
		c-3.393-0.328-8.793,1.352-8.226-2.938c3.424-2.451,11.047-0.705,14.101-3.525c-5.875-1.366-13.055,1.041-19.976,0.588
		c-1.771-1.269-2.319-4.072-0.589-5.876C236.672,444.205,246.814,443.07,254.476,444.418z"/>
	
		<radialGradient id="SVGID_22_" cx="390.0469" cy="12.4902" r="11.1429" gradientTransform="matrix(1 0 0 -1 -106 464)" gradientUnits="userSpaceOnUse">
		<stop  offset="0" style="stop-color:#FFFFFF"/>
		<stop  offset="0.4116" style="stop-color:#FCFCFC"/>
		<stop  offset="0.6557" style="stop-color:#F4F4F4"/>
		<stop  offset="0.8555" style="stop-color:#E6E6E6"/>
		<stop  offset="1" style="stop-color:#D6D6D6"/>
	</radialGradient>
	<path fill="url(#SVGID_22_)" d="M289.728,452.645c0,0.783,0,1.566,0,2.35c-1.42,1.127-4.722,0.371-7.051,0.588
		c-1.524,0.804,3.292,1.979,1.175,3.524c-8.88,1.533-12.289-7.22-13.512-15.275c8.828,0.376,19.17-0.763,27.025,0.587
		c0.129,2.148,0.808,2.254,0,4.113c-5.531,2.818-14.086-0.535-21.15,0C278.248,452.373,286.709,449.787,289.728,452.645z"/>
</g>
</svg>
