<svg xmlns="http://www.w3.org/2000/svg" width="524" height="659" viewBox="0 0 524 659"><linearGradient id="a" gradientUnits="userSpaceOnUse" x1="143.788" y1="-51.304" x2="198.683" y2="-72.376" gradientTransform="matrix(1 0 0 -1 -106 464)"><stop offset="0" stop-color="#8B5E3C"/><stop offset=".497" stop-color="#FDC060"/></linearGradient><linearGradient id="b" gradientUnits="userSpaceOnUse" x1="536.93" y1="-72.376" x2="591.824" y2="-51.304" gradientTransform="matrix(1 0 0 -1 -106 464)"><stop offset=".503" stop-color="#FDC060"/><stop offset="1" stop-color="#8B5E3C"/></linearGradient><linearGradient id="c" gradientUnits="userSpaceOnUse" x1="107.5" y1="2.872" x2="213.092" y2="2.872" gradientTransform="matrix(1 0 0 -1 -106 464)"><stop offset="0" stop-color="#BCBEC0"/><stop offset=".333" stop-color="#E6E7E8"/></linearGradient><linearGradient id="d" gradientUnits="userSpaceOnUse" x1="522.519" y1="2.872" x2="628.111" y2="2.872" gradientTransform="matrix(1 0 0 -1 -106 464)"><stop offset=".632" stop-color="#E6E7E8"/><stop offset=".687" stop-color="#DBDCDD"/><stop offset=".793" stop-color="#CACBCD"/><stop offset=".898" stop-color="#BFC1C3"/><stop offset="1" stop-color="#BCBEC0"/></linearGradient><linearGradient id="e" gradientUnits="userSpaceOnUse" x1="367.806" y1="-139.213" x2="367.805" y2="460.5" gradientTransform="matrix(1 0 0 -1 -106 464)"><stop offset="0"/><stop offset="1" stop-color="#414042"/></linearGradient><path fill="url(#e)" d="M261.113 3.5H10.093v258.714c0 161.08 140 299 251.713 341 118.286-39 251.713-175.92 251.713-337V3.5H261.112z"/><path fill="none" stroke="#000" stroke-width="7" stroke-miterlimit="10" d="M261.113 3.5H10.093v258.714c0 161.08 140 299 251.713 341 118.286-39 251.713-175.92 251.713-337V3.5H261.112z"/><radialGradient id="f" cx="367.806" cy="-111.522" r="180.594" gradientTransform="matrix(1 0 0 -1 -106 464)" gradientUnits="userSpaceOnUse"><stop offset=".632" stop-color="#FFF"/><stop offset=".705" stop-color="#F4F5F5"/><stop offset=".855" stop-color="#EAEBEB"/><stop offset="1" stop-color="#E6E7E8"/></radialGradient><linearGradient id="g" gradientUnits="userSpaceOnUse" x1="217.315" y1="184.386" x2="525.326" y2="184.386" gradientTransform="matrix(1 0 0 -1 -106 464)"><stop offset="0" stop-color="#ED1C24"/><stop offset=".178" stop-color="#E71D25"/><stop offset=".322" stop-color="#D91D27"/><stop offset=".452" stop-color="#C71E2B"/><stop offset=".5" stop-color="#BE1E2D"/><stop offset=".548" stop-color="#C71E2B"/><stop offset=".678" stop-color="#D91D27"/><stop offset=".822" stop-color="#E71D25"/><stop offset="1" stop-color="#ED1C24"/></linearGradient><path fill="url(#g)" stroke="#000" stroke-width="3" stroke-miterlimit="10" d="M265.32 195.512H111.315v168.204h124.167l14.515-11.976s-1.348.073 15.324.073c16.673 0 15.324-.073 15.324-.073s5.646 11.976 14.516 11.976h124.167V195.512H265.32z"/><linearGradient id="h" gradientUnits="userSpaceOnUse" x1="226.148" y1="190.414" x2="371.765" y2="190.414" gradientTransform="matrix(1 0 0 -1 -106 464)"><stop offset="0" stop-color="#E7A523"/><stop offset=".121" stop-color="#E7A625"/><stop offset=".219" stop-color="#E9A92D"/><stop offset=".308" stop-color="#EDAF3C"/><stop offset=".392" stop-color="#F2B751"/><stop offset=".472" stop-color="#F9C26B"/><stop offset=".5" stop-color="#FEC775"/><stop offset=".528" stop-color="#F9C26B"/><stop offset=".608" stop-color="#F2B751"/><stop offset=".692" stop-color="#EDAF3C"/><stop offset=".781" stop-color="#E9A92D"/><stop offset=".879" stop-color="#E7A625"/><stop offset="1" stop-color="#E7A523"/></linearGradient><path fill="url(#h)" stroke="#000" stroke-width="2" stroke-miterlimit="10" d="M247.015 359.145c-.934-1.742-22.412-4.067-36.475-4.26-14.064-.194-34.255.968-90.393.26v-149.72l27.196-17.398v147.306h118.42v23.812h-18.748"/><path fill="none" stroke="#000" stroke-width="2" stroke-miterlimit="10" d="M256.643 349.008c-.848-3.805-20.38-8.877-33.173-9.3-12.79-.423-31.153 2.113-82.208.57V192.925"/><path fill="none" stroke="#000" stroke-width="2" stroke-miterlimit="10" d="M252.59 352.665c-.87-3.23-20.92-7.537-34.047-7.897-13.128-.357-31.975 1.795-84.375.484v-148.44"/><path fill="none" stroke="#000" stroke-width="2" stroke-miterlimit="10" d="M249.887 355.568c-.896-2.35-21.517-5.483-35.017-5.743-13.504-.26-32.887 1.305-86.783.352V201.203"/><linearGradient id="i" gradientUnits="userSpaceOnUse" x1="371.081" y1="190.414" x2="516.7" y2="190.414" gradientTransform="matrix(1 0 0 -1 -106 464)"><stop offset="0" stop-color="#E7A523"/><stop offset=".121" stop-color="#E7A625"/><stop offset=".219" stop-color="#E9A92D"/><stop offset=".308" stop-color="#EDAF3C"/><stop offset=".392" stop-color="#F2B751"/><stop offset=".472" stop-color="#F9C26B"/><stop offset=".5" stop-color="#FEC775"/><stop offset=".528" stop-color="#F9C26B"/><stop offset=".608" stop-color="#F2B751"/><stop offset=".692" stop-color="#EDAF3C"/><stop offset=".781" stop-color="#E9A92D"/><stop offset=".879" stop-color="#E7A625"/><stop offset="1" stop-color="#E7A523"/></linearGradient><path fill="url(#i)" stroke="#000" stroke-miterlimit="10" d="M283.832 359.145c.934-1.742 22.412-4.067 36.476-4.26 14.063-.194 34.257.968 90.393.26v-149.72l-27.196-17.398v147.306H265.08v23.812h18.752"/><path fill="none" stroke="#000" stroke-miterlimit="10" d="M274.202 349.008c.85-3.805 20.383-8.877 33.174-9.3 12.79-.423 31.153 2.113 82.208.57V192.925"/><path fill="none" stroke="#000" stroke-miterlimit="10" d="M278.256 352.665c.873-3.23 20.92-7.537 34.05-7.897 13.127-.36 31.973 1.795 84.372.484v-148.44"/><path fill="none" stroke="#000" stroke-width="2" stroke-miterlimit="10" d="M280.96 355.568c.895-2.35 21.515-5.483 35.018-5.743 13.503-.26 32.888 1.305 86.782.352V201.203"/><radialGradient id="j" cx="371.32" cy="197.56" r="100.166" gradientTransform="matrix(1 0 0 -1 -106 464)" gradientUnits="userSpaceOnUse"><stop offset="0" stop-color="#FFF"/><stop offset=".545" stop-color="#FCFBFA"/><stop offset=".742" stop-color="#F3F1EF"/><stop offset=".881" stop-color="#E7E3E1"/><stop offset=".994" stop-color="#D8D1CE"/><stop offset="1" stop-color="#D7CFCD"/></radialGradient><path fill="url(#j)" stroke="#000" stroke-width="2" stroke-miterlimit="10" d="M350.15 192.925c-17.397 0-27.53-4.054-42.905-4.054-14.196 0-38.32 5.76-41.925 6.642-3.605-.88-27.73-6.64-41.925-6.64-15.372 0-25.508 4.053-42.907 4.053-17.4 0-33.144-4.898-33.144-4.898v147.306c52.4 1.852 71.248-1.19 84.374-.684 11.747.453 33.372 10.52 33.602 10.194.23.324 21.855-9.74 33.602-10.195 13.128-.507 31.973 2.534 84.373.683V188.027s-15.743 4.898-33.144 4.898z"/><path fill="none" stroke="#000" stroke-width="2" stroke-miterlimit="10" d="M265.32 195.512v149.333"/><radialGradient id="k" cx="271.688" cy="148.179" r="15.897" gradientTransform="matrix(0 -1 -3 0 709.9 629.1)" gradientUnits="userSpaceOnUse"><stop offset="0" stop-color="#FEC775"/><stop offset="1" stop-color="#E7A523"/></radialGradient><ellipse fill="url(#k)" stroke="#000" stroke-width="4" stroke-miterlimit="10" cx="265.318" cy="357.454" rx="18.801" ry="12.331"/><path fill="#010101" d="M220.007 275.904h-32.794l-5.747 13.368c-1.416 3.29-2.124 5.747-2.124 7.37 0 1.293.614 2.427 1.843 3.405 1.228.98 3.882 1.614 7.964 1.905v2.312h-26.673v-2.312c3.538-.625 5.83-1.437 6.87-2.436 2.126-2 4.477-6.06 7.06-12.18l29.795-69.712h2.187l29.483 70.46c2.374 5.665 4.53 9.34 6.465 11.026 1.936 1.686 4.632 2.634 8.088 2.842v2.312h-33.418v-2.312c3.374-.166 5.653-.728 6.84-1.686 1.187-.958 1.78-2.124 1.78-3.5 0-1.83-.833-4.725-2.5-8.68l-5.12-12.182zm-1.75-4.622l-14.366-34.23-14.74 34.23h29.108zM282.044 284.71h2.312c.166 2.96 1.04 5.02 2.624 6.185 1.58 1.167 4.1 1.75 7.558 1.75h17.054l-.126-4.185c-6.62-1.333-12.66-5.018-18.115-11.056-5.456-6.038-8.182-13.658-8.182-22.862 0-10.203 3.8-18.905 11.4-26.11 7.6-7.205 17.52-10.807 29.764-10.807 11.87 0 21.57 3.404 29.11 10.213 7.535 6.81 11.306 15.523 11.306 26.142 0 8.62-2.343 15.94-7.027 21.957-4.684 6.018-11.023 10.193-19.02 12.525l-.625 4.185h17.366c3.957 0 6.57-.75 7.84-2.25 1.27-1.5 1.946-3.393 2.03-5.683h2.312v19.552h-34.98l1.624-18.864c10.743-3.373 16.116-13.306 16.116-29.796 0-10.785-2.635-19.05-7.902-24.798-5.27-5.747-11.44-8.62-18.52-8.62-7.54 0-13.775 3.052-18.71 9.15-4.936 6.103-7.402 13.9-7.402 23.394 0 6.87 1.103 13.128 3.312 18.77 2.206 5.645 6.434 9.61 12.68 11.9l1.187 18.865h-34.98V284.71z"/><radialGradient id="l" cx="228.652" cy="381.79" r="56.893" gradientTransform="matrix(1 0 0 -1 -106 464)" gradientUnits="userSpaceOnUse"><stop offset="0" stop-color="#FFF"/><stop offset=".412" stop-color="#FCFCFC"/><stop offset=".656" stop-color="#F4F4F4"/><stop offset=".856" stop-color="#E6E6E6"/><stop offset="1" stop-color="#D6D6D6"/></radialGradient><path fill="url(#l)" d="M123.354 21.197c7.48 11.825 9.432 21.184 21.15 32.902 3.993 3.99 9.107 8.38 14.69 12.925 5.23 4.26 13.484 8.098 13.513 13.514.026 4.804-5.25 9.934-11.163 8.224 4.104 3.744 12.75 4.035 13.513 11.164.49 4.58-3.22 11.276-7.638 12.34-10.807 2.598-12.587-9.142-19.39-12.34 2.154 9.523 13.23 10.437 14.688 19.39 3.162 19.393-26.19 20.456-27.614 2.938-.87 3.656 1.443 7.412.587 11.75-3.23 16.38-34.63 9.877-25.263-11.164-2.837 3.42-2.733 6.415-5.288 8.814-9.173 8.613-26.69-.54-22.328-14.102 2.236-6.954 11.426-8.66 14.1-16.45-4.015 1.668-8.672 7.774-12.925 11.163-9.61 1.208-15.104-6.21-13.513-13.514 1.232-5.656 8.604-6.78 12.926-9.4-5.885 1.56-14.25-6.906-8.813-14.1 2.196-2.91 7.61-5.965 11.75-9.402 10.734-8.908 24.09-19.23 29.964-33.49 1.758-4.264 1.202-8.19 5.29-10.574.473-.312.954-.614 1.764-.59z"/><radialGradient id="m" cx="207.381" cy="428.691" r="11.156" gradientTransform="matrix(1 0 0 -1 -106 464)" gradientUnits="userSpaceOnUse"><stop offset="0" stop-color="#FFF"/><stop offset=".412" stop-color="#FCFCFC"/><stop offset=".656" stop-color="#F4F4F4"/><stop offset=".856" stop-color="#E6E6E6"/><stop offset="1" stop-color="#D6D6D6"/></radialGradient><path fill="url(#m)" d="M115.128 28.247c-1.584 7.195-5.67 17.61-14.1 14.102-.25-2.012 1.758-1.767 2.35-2.94-3.394-.327-8.794 1.353-8.227-2.937 3.425-2.45 11.048-.704 14.102-3.525-5.876-1.366-13.055 1.042-19.976.587-1.77-1.268-2.32-4.07-.588-5.875 8.636.375 18.78-.76 26.44.587z"/><radialGradient id="n" cx="250.699" cy="428.662" r="11.143" gradientTransform="matrix(1 0 0 -1 -106 464)" gradientUnits="userSpaceOnUse"><stop offset="0" stop-color="#FFF"/><stop offset=".412" stop-color="#FCFCFC"/><stop offset=".656" stop-color="#F4F4F4"/><stop offset=".856" stop-color="#E6E6E6"/><stop offset="1" stop-color="#D6D6D6"/></radialGradient><path fill="url(#n)" d="M150.38 36.473v2.35c-1.42 1.126-4.722.372-7.05.587-1.526.804 3.29 1.98 1.174 3.525-8.88 1.533-12.29-7.22-13.513-15.275 8.83.375 19.17-.762 27.027.587.128 2.15.808 2.254 0 4.113-5.532 2.82-14.086-.534-21.15 0 2.033 3.842 10.495 1.256 13.513 4.113z"/><g><radialGradient id="o" cx="507.133" cy="381.79" r="56.893" gradientTransform="matrix(1 0 0 -1 -106 464)" gradientUnits="userSpaceOnUse"><stop offset="0" stop-color="#FFF"/><stop offset=".412" stop-color="#FCFCFC"/><stop offset=".656" stop-color="#F4F4F4"/><stop offset=".856" stop-color="#E6E6E6"/><stop offset="1" stop-color="#D6D6D6"/></radialGradient><path fill="url(#o)" d="M401.834 21.197c7.482 11.825 9.433 21.184 21.152 32.902 3.99 3.99 9.105 8.38 14.688 12.925 5.232 4.26 13.484 8.098 13.514 13.514.027 4.804-5.25 9.934-11.162 8.224 4.104 3.744 12.748 4.035 13.513 11.164.49 4.58-3.22 11.276-7.64 12.34-10.805 2.598-12.585-9.142-19.388-12.34 2.154 9.523 13.23 10.437 14.688 19.39 3.162 19.393-26.19 20.456-27.614 2.938-.87 3.656 1.443 7.412.587 11.75-3.232 16.38-34.632 9.877-25.264-11.164-2.838 3.42-2.734 6.415-5.29 8.814-9.17 8.613-26.687-.54-22.326-14.102 2.236-6.954 11.427-8.66 14.1-16.45-4.015 1.668-8.67 7.774-12.925 11.163-9.61 1.208-15.105-6.21-13.514-13.514 1.232-5.656 8.604-6.78 12.927-9.4-5.885 1.56-14.25-6.906-8.813-14.1 2.196-2.91 7.61-5.965 11.75-9.402 10.734-8.908 24.09-19.23 29.965-33.49 1.757-4.264 1.2-8.19 5.288-10.574.47-.312.952-.614 1.76-.59z"/><radialGradient id="p" cx="485.861" cy="428.691" r="11.156" gradientTransform="matrix(1 0 0 -1 -106 464)" gradientUnits="userSpaceOnUse"><stop offset="0" stop-color="#FFF"/><stop offset=".412" stop-color="#FCFCFC"/><stop offset=".656" stop-color="#F4F4F4"/><stop offset=".856" stop-color="#E6E6E6"/><stop offset="1" stop-color="#D6D6D6"/></radialGradient><path fill="url(#p)" d="M393.608 28.247c-1.584 7.195-5.67 17.61-14.1 14.102-.25-2.012 1.758-1.767 2.35-2.94-3.394-.327-8.794 1.353-8.227-2.937 3.425-2.45 11.048-.704 14.102-3.525-5.875-1.366-13.055 1.042-19.976.587-1.77-1.268-2.32-4.07-.59-5.875 8.64.375 18.78-.76 26.442.587z"/><radialGradient id="q" cx="529.18" cy="428.662" r="11.143" gradientTransform="matrix(1 0 0 -1 -106 464)" gradientUnits="userSpaceOnUse"><stop offset="0" stop-color="#FFF"/><stop offset=".412" stop-color="#FCFCFC"/><stop offset=".656" stop-color="#F4F4F4"/><stop offset=".856" stop-color="#E6E6E6"/><stop offset="1" stop-color="#D6D6D6"/></radialGradient><path fill="url(#q)" d="M428.86 36.473v2.35c-1.42 1.126-4.722.372-7.05.587-1.525.804 3.29 1.98 1.174 3.525-8.88 1.533-12.29-7.22-13.512-15.275 8.828.375 19.17-.762 27.025.587.13 2.15.808 2.254 0 4.113-5.53 2.82-14.086-.534-21.15 0 2.034 3.842 10.495 1.256 13.513 4.113z"/></g><g><radialGradient id="r" cx="368" cy="-34.381" r="56.893" gradientTransform="matrix(1 0 0 -1 -106 464)" gradientUnits="userSpaceOnUse"><stop offset="0" stop-color="#FFF"/><stop offset=".412" stop-color="#FCFCFC"/><stop offset=".656" stop-color="#F4F4F4"/><stop offset=".856" stop-color="#E6E6E6"/><stop offset="1" stop-color="#D6D6D6"/></radialGradient><path fill="url(#r)" d="M262.7 437.368c7.483 11.825 9.434 21.184 21.153 32.9 3.99 3.993 9.105 8.382 14.688 12.927 5.233 4.262 13.485 8.098 13.515 13.515.027 4.806-5.25 9.935-11.162 8.225 4.104 3.743 12.748 4.034 13.513 11.163.49 4.58-3.22 11.276-7.638 12.34-10.806 2.598-12.586-9.142-19.39-12.34 2.155 9.523 13.23 10.438 14.69 19.39 3.16 19.394-26.19 20.456-27.615 2.94-.87 3.654 1.443 7.41.587 11.75-3.232 16.38-34.632 9.876-25.264-11.165-2.837 3.42-2.733 6.415-5.288 8.814-9.172 8.613-26.688-.54-22.327-14.102 2.237-6.955 11.428-8.66 14.102-16.45-4.016 1.668-8.672 7.774-12.926 11.163-9.61 1.208-15.104-6.21-13.513-13.514 1.232-5.656 8.604-6.78 12.927-9.4-5.885 1.56-14.25-6.906-8.813-14.102 2.196-2.908 7.61-5.964 11.75-9.4 10.734-8.91 24.09-19.23 29.965-33.49 1.757-4.266 1.2-8.19 5.288-10.576.47-.31.953-.613 1.76-.588z"/><radialGradient id="s" cx="346.728" cy="12.521" r="11.156" gradientTransform="matrix(1 0 0 -1 -106 464)" gradientUnits="userSpaceOnUse"><stop offset="0" stop-color="#FFF"/><stop offset=".412" stop-color="#FCFCFC"/><stop offset=".656" stop-color="#F4F4F4"/><stop offset=".856" stop-color="#E6E6E6"/><stop offset="1" stop-color="#D6D6D6"/></radialGradient><path fill="url(#s)" d="M254.476 444.418c-1.584 7.195-5.67 17.61-14.1 14.102-.25-2.01 1.758-1.766 2.35-2.938-3.394-.328-8.794 1.352-8.227-2.938 3.423-2.45 11.046-.705 14.1-3.525-5.875-1.367-13.055 1.04-19.976.587-1.77-1.27-2.32-4.072-.59-5.876 8.638.375 18.78-.76 26.442.588z"/><radialGradient id="t" cx="390.047" cy="12.49" r="11.143" gradientTransform="matrix(1 0 0 -1 -106 464)" gradientUnits="userSpaceOnUse"><stop offset="0" stop-color="#FFF"/><stop offset=".412" stop-color="#FCFCFC"/><stop offset=".656" stop-color="#F4F4F4"/><stop offset=".856" stop-color="#E6E6E6"/><stop offset="1" stop-color="#D6D6D6"/></radialGradient><path fill="url(#t)" d="M289.728 452.645v2.35c-1.42 1.127-4.722.37-7.05.588-1.525.804 3.29 1.98 1.174 3.524-8.88 1.533-12.29-7.22-13.512-15.275 8.828.376 19.17-.763 27.025.587.13 2.147.808 2.253 0 4.112-5.53 2.818-14.086-.535-21.15 0 2.033 3.84 10.494 1.255 13.513 4.113z"/></g></svg>