<!DOCTYPE svg PUBLIC "-//W3C//DTD SVG 1.1//EN" "http://www.w3.org/Graphics/SVG/1.1/DTD/svg11.dtd" [
	<!ENTITY ns_flows "http://ns.adobe.com/Flows/1.0/">
]><svg xmlns="http://www.w3.org/2000/svg" xmlns:xlink="http://www.w3.org/1999/xlink" width="524" height="659" viewBox="44.081 0 524 659"><linearGradient id="a" gradientUnits="userSpaceOnUse" x1="81.869" y1="515.304" x2="136.763" y2="536.376"><stop offset="0" stop-color="#8B5E3C"/><stop offset=".497" stop-color="#FDC060"/></linearGradient><linearGradient id="b" gradientUnits="userSpaceOnUse" x1="475.01" y1="536.376" x2="529.904" y2="515.304"><stop offset=".503" stop-color="#FDC060"/><stop offset="1" stop-color="#8B5E3C"/></linearGradient><linearGradient id="c" gradientUnits="userSpaceOnUse" x1="45.581" y1="461.128" x2="151.173" y2="461.128"><stop offset="0" stop-color="#BCBEC0"/><stop offset=".333" stop-color="#E6E7E8"/></linearGradient><linearGradient id="d" gradientUnits="userSpaceOnUse" x1="460.601" y1="461.128" x2="566.192" y2="461.128"><stop offset=".632" stop-color="#E6E7E8"/><stop offset=".687" stop-color="#DBDCDD"/><stop offset=".793" stop-color="#CACBCD"/><stop offset=".898" stop-color="#BFC1C3"/><stop offset="1" stop-color="#BCBEC0"/></linearGradient><defs><path id="e" d="M305.193 3.5H54.173v258.714c0 161.08 140 299 251.714 341 118.286-39 251.714-175.92 251.714-337V3.5H305.194z"/></defs><use xlink:href="#e" overflow="visible"/><clipPath id="f"><use xlink:href="#e" overflow="visible"/></clipPath><g clip-path="url(#f)"><radialGradient id="g" cx="99.651" cy="403.53" r="36.05" gradientTransform="rotate(45 370.3 366.8)" gradientUnits="userSpaceOnUse"><stop offset=".632" stop-color="#FFF"/><stop offset=".731" stop-color="#FAFAFA"/><stop offset="1" stop-color="#F6F6F6"/></radialGradient><path fill="url(#g)" d="M152.944 252.37l-50.98-50.982 50.98-50.98 50.98 50.98"/><radialGradient id="h" cx="171.75" cy="475.63" r="36.05" gradientTransform="rotate(45 370.3 366.8)" gradientUnits="userSpaceOnUse"><stop offset=".632" stop-color="#FFF"/><stop offset=".731" stop-color="#FAFAFA"/><stop offset="1" stop-color="#F6F6F6"/></radialGradient><path fill="url(#h)" d="M152.944 354.33l-50.98-50.98 50.98-50.98 50.98 50.98"/><radialGradient id="i" cx="243.849" cy="403.531" r="36.05" gradientTransform="rotate(45 370.3 366.8)" gradientUnits="userSpaceOnUse"><stop offset=".632" stop-color="#FFF"/><stop offset=".731" stop-color="#FAFAFA"/><stop offset="1" stop-color="#F6F6F6"/></radialGradient><path fill="url(#i)" d="M254.905 354.33l-50.98-50.98 50.98-50.98 50.984 50.98"/><radialGradient id="j" cx="315.948" cy="475.63" r="36.05" gradientTransform="rotate(45 370.3 366.8)" gradientUnits="userSpaceOnUse"><stop offset=".632" stop-color="#FFF"/><stop offset=".731" stop-color="#FAFAFA"/><stop offset="1" stop-color="#F6F6F6"/></radialGradient><path fill="url(#j)" d="M254.905 456.294l-50.98-50.98 50.98-50.983 50.984 50.983"/><radialGradient id="k" cx="388.047" cy="403.53" r="36.05" gradientTransform="rotate(45 370.3 366.8)" gradientUnits="userSpaceOnUse"><stop offset=".632" stop-color="#FFF"/><stop offset=".731" stop-color="#FAFAFA"/><stop offset="1" stop-color="#F6F6F6"/></radialGradient><path fill="url(#k)" d="M356.87 456.294l-50.98-50.98 50.98-50.983 50.98 50.983"/><radialGradient id="l" cx="460.147" cy="475.63" r="36.05" gradientTransform="rotate(45 370.3 366.8)" gradientUnits="userSpaceOnUse"><stop offset=".632" stop-color="#FFF"/><stop offset=".731" stop-color="#FAFAFA"/><stop offset="1" stop-color="#F6F6F6"/></radialGradient><path fill="url(#l)" d="M356.87 558.257l-50.98-50.983 50.98-50.98 50.98 50.98"/><radialGradient id="m" cx="99.65" cy="547.73" r="36.05" gradientTransform="rotate(45 370.3 366.8)" gradientUnits="userSpaceOnUse"><stop offset=".632" stop-color="#FFF"/><stop offset=".731" stop-color="#FAFAFA"/><stop offset="1" stop-color="#F6F6F6"/></radialGradient><path fill="url(#m)" d="M50.98 354.33L0 303.35l50.98-50.98 50.983 50.98"/><radialGradient id="n" cx="171.75" cy="619.828" r="36.05" gradientTransform="rotate(45 370.3 366.8)" gradientUnits="userSpaceOnUse"><stop offset=".632" stop-color="#FFF"/><stop offset=".731" stop-color="#FAFAFA"/><stop offset="1" stop-color="#F6F6F6"/></radialGradient><path fill="url(#n)" d="M50.98 456.294L0 405.314l50.98-50.983 50.983 50.983"/><radialGradient id="o" cx="243.849" cy="547.729" r="36.05" gradientTransform="rotate(45 370.3 366.8)" gradientUnits="userSpaceOnUse"><stop offset=".632" stop-color="#FFF"/><stop offset=".731" stop-color="#FAFAFA"/><stop offset="1" stop-color="#F6F6F6"/></radialGradient><path fill="url(#o)" d="M152.944 456.294l-50.98-50.98 50.98-50.983 50.98 50.983"/><radialGradient id="p" cx="315.948" cy="619.828" r="36.05" gradientTransform="rotate(45 370.3 366.8)" gradientUnits="userSpaceOnUse"><stop offset=".632" stop-color="#FFF"/><stop offset=".731" stop-color="#FAFAFA"/><stop offset="1" stop-color="#F6F6F6"/></radialGradient><path fill="url(#p)" d="M152.944 558.257l-50.98-50.983 50.98-50.98 50.98 50.98"/><radialGradient id="q" cx="388.047" cy="547.73" r="36.05" gradientTransform="rotate(45 370.3 366.8)" gradientUnits="userSpaceOnUse"><stop offset=".632" stop-color="#FFF"/><stop offset=".731" stop-color="#FAFAFA"/><stop offset="1" stop-color="#F6F6F6"/></radialGradient><path fill="url(#q)" d="M254.905 558.257l-50.98-50.983 50.98-50.98 50.984 50.98"/><radialGradient id="r" cx="460.146" cy="619.827" r="36.051" gradientTransform="rotate(45 370.3 366.8)" gradientUnits="userSpaceOnUse"><stop offset=".632" stop-color="#FFF"/><stop offset=".731" stop-color="#FAFAFA"/><stop offset="1" stop-color="#F6F6F6"/></radialGradient><path fill="url(#r)" d="M254.905 660.218l-50.98-50.98 50.98-50.98 50.984 50.98"/><radialGradient id="s" cx="532.244" cy="403.532" r="36.05" gradientTransform="rotate(45 370.3 366.8)" gradientUnits="userSpaceOnUse"><stop offset=".632" stop-color="#FFF"/><stop offset=".731" stop-color="#FAFAFA"/><stop offset="1" stop-color="#F6F6F6"/></radialGradient><path fill="url(#s)" d="M458.83 558.257l-50.98-50.98 50.98-50.983 50.98 50.982"/><radialGradient id="t" cx="532.245" cy="259.334" r="36.049" gradientTransform="rotate(45 370.3 366.8)" gradientUnits="userSpaceOnUse"><stop offset=".632" stop-color="#FFF"/><stop offset=".731" stop-color="#FAFAFA"/><stop offset="1" stop-color="#F6F6F6"/></radialGradient><path fill="url(#t)" d="M560.793 456.294l-50.98-50.98 50.98-50.982 50.98 50.98"/><radialGradient id="u" cx="532.245" cy="547.731" r="36.05" gradientTransform="rotate(45 370.3 366.8)" gradientUnits="userSpaceOnUse"><stop offset=".632" stop-color="#FFF"/><stop offset=".731" stop-color="#FAFAFA"/><stop offset="1" stop-color="#F6F6F6"/></radialGradient><path fill="url(#u)" d="M356.867 660.22l-50.98-50.982 50.98-50.98 50.983 50.98"/><radialGradient id="v" cx="315.947" cy="187.234" r="36.05" gradientTransform="rotate(45 370.3 366.8)" gradientUnits="userSpaceOnUse"><stop offset=".632" stop-color="#FFF"/><stop offset=".731" stop-color="#FAFAFA"/><stop offset="1" stop-color="#F6F6F6"/></radialGradient><path fill="url(#v)" d="M458.83 252.37l-50.98-50.983 50.98-50.98 50.983 50.98"/><radialGradient id="w" cx="388.046" cy="115.136" r="36.05" gradientTransform="rotate(45 370.3 366.8)" gradientUnits="userSpaceOnUse"><stop offset=".632" stop-color="#FFF"/><stop offset=".731" stop-color="#FAFAFA"/><stop offset="1" stop-color="#F6F6F6"/></radialGradient><path fill="url(#w)" d="M560.793 252.37l-50.98-50.983 50.98-50.98 50.98 50.98"/><radialGradient id="x" cx="460.146" cy="187.234" r="36.049" gradientTransform="rotate(45 370.3 366.8)" gradientUnits="userSpaceOnUse"><stop offset=".632" stop-color="#FFF"/><stop offset=".731" stop-color="#FAFAFA"/><stop offset="1" stop-color="#F6F6F6"/></radialGradient><path fill="url(#x)" d="M560.793 354.33l-50.98-50.98 50.98-50.98 50.98 50.98"/><radialGradient id="y" cx="27.552" cy="475.63" r="36.05" gradientTransform="rotate(45 370.3 366.8)" gradientUnits="userSpaceOnUse"><stop offset=".632" stop-color="#FFF"/><stop offset=".731" stop-color="#FAFAFA"/><stop offset="1" stop-color="#F6F6F6"/></radialGradient><path fill="url(#y)" d="M50.98 252.37L0 201.387l50.98-50.98 50.983 50.98"/><radialGradient id="z" cx="171.75" cy="331.432" r="36.05" gradientTransform="rotate(45 370.3 366.8)" gradientUnits="userSpaceOnUse"><stop offset=".632" stop-color="#FFF"/><stop offset=".731" stop-color="#FAFAFA"/><stop offset="1" stop-color="#F6F6F6"/></radialGradient><path fill="url(#z)" d="M254.905 252.37l-50.98-50.983 50.98-50.98 50.984 50.98"/><radialGradient id="A" cx="243.849" cy="259.333" r="36.049" gradientTransform="rotate(45 370.3 366.8)" gradientUnits="userSpaceOnUse"><stop offset=".632" stop-color="#FFF"/><stop offset=".731" stop-color="#FAFAFA"/><stop offset="1" stop-color="#F6F6F6"/></radialGradient><path fill="url(#A)" d="M356.87 252.37l-50.98-50.983 50.98-50.98 50.98 50.98"/><radialGradient id="B" cx="315.948" cy="331.432" r="36.049" gradientTransform="rotate(45 370.3 366.8)" gradientUnits="userSpaceOnUse"><stop offset=".632" stop-color="#FFF"/><stop offset=".731" stop-color="#FAFAFA"/><stop offset="1" stop-color="#F6F6F6"/></radialGradient><path fill="url(#B)" d="M356.87 354.33l-50.98-50.98 50.98-50.98 50.98 50.98"/><radialGradient id="C" cx="388.046" cy="259.333" r="36.05" gradientTransform="rotate(45 370.3 366.8)" gradientUnits="userSpaceOnUse"><stop offset=".632" stop-color="#FFF"/><stop offset=".731" stop-color="#FAFAFA"/><stop offset="1" stop-color="#F6F6F6"/></radialGradient><path fill="url(#C)" d="M458.83 354.33l-50.98-50.98 50.98-50.98 50.983 50.98"/><radialGradient id="D" cx="460.146" cy="331.433" r="36.05" gradientTransform="rotate(45 370.3 366.8)" gradientUnits="userSpaceOnUse"><stop offset=".632" stop-color="#FFF"/><stop offset=".731" stop-color="#FAFAFA"/><stop offset="1" stop-color="#F6F6F6"/></radialGradient><path fill="url(#D)" d="M458.83 456.294l-50.98-50.98 50.98-50.983 50.983 50.983"/><g stroke="#000" stroke-miterlimit="10"><path d="M569.604 222.53c-.865-1.73-10.238-32.72-10.396-32.214-.156-.506-9.53 30.484-10.395 32.213-1 2 6.75-2.5 7.25-4.75s2.854 18.296 3.145 17.787c.293.51 2.646-20.038 3.146-17.788s8.25 6.75 7.25 4.75z"/><circle cx="550.441" cy="183.154" r="6.375"/><circle cx="559.207" cy="171.404" r="6.375"/><circle cx="568.445" cy="183.154" r="6.375"/><path d="M468.18 224.936c-.864-1.73-10.237-32.72-10.395-32.213-.156-.506-9.53 30.484-10.395 32.213-1 2 6.75-2.5 7.25-4.75s2.854 18.297 3.145 17.788c.293.51 2.646-20.038 3.146-17.788s8.25 6.75 7.25 4.75z"/><circle cx="449.019" cy="185.561" r="6.375"/><circle cx="457.784" cy="173.811" r="6.375"/><circle cx="467.022" cy="185.561" r="6.375"/><g><path d="M366.756 224.936c-.863-1.73-10.238-32.72-10.395-32.213-.157-.506-9.53 30.484-10.395 32.213-1 2 6.75-2.5 7.25-4.75s2.854 18.297 3.146 17.788c.292.51 2.646-20.038 3.146-17.788s8.25 6.75 7.25 4.75z"/><circle cx="347.596" cy="185.561" r="6.375"/><circle cx="356.361" cy="173.811" r="6.375"/><circle cx="365.6" cy="185.561" r="6.375"/></g><g><path d="M265.334 224.936c-.864-1.73-10.238-32.72-10.396-32.213-.157-.506-9.53 30.484-10.396 32.213-1 2 6.75-2.5 7.25-4.75s2.854 18.297 3.146 17.788c.292.51 2.646-20.038 3.146-17.788s8.25 6.75 7.25 4.75z"/><circle cx="246.173" cy="185.561" r="6.375"/><circle cx="254.938" cy="173.811" r="6.375"/><circle cx="264.177" cy="185.561" r="6.375"/></g><g><path d="M163.91 224.936c-.863-1.73-10.237-32.72-10.395-32.213-.157-.506-9.53 30.484-10.396 32.213-1 2 6.75-2.5 7.25-4.75s2.853 18.297 3.145 17.788c.292.51 2.646-20.038 3.146-17.788s8.25 6.75 7.25 4.75z"/><circle cx="144.75" cy="185.561" r="6.375"/><circle cx="153.516" cy="173.811" r="6.375"/><circle cx="162.754" cy="185.561" r="6.375"/></g><g><path d="M62.488 225.17c-.864-1.73-10.238-32.72-10.396-32.213-.157-.506-9.53 30.484-10.396 32.213-1 2 6.75-2.5 7.25-4.75s2.854 18.297 3.146 17.788c.292.51 2.646-20.038 3.146-17.788s8.25 6.75 7.25 4.75z"/><circle cx="43.327" cy="185.795" r="6.375"/><circle cx="52.093" cy="174.045" r="6.375"/><circle cx="61.331" cy="185.795" r="6.375"/></g><g><path d="M569.604 323.774c-.865-1.73-10.238-32.72-10.396-32.213-.156-.505-9.53 30.485-10.395 32.214-1 2 6.75-2.5 7.25-4.75s2.854 18.297 3.145 17.788c.293.51 2.646-20.038 3.146-17.788s8.25 6.75 7.25 4.75z"/><circle cx="550.441" cy="284.399" r="6.375"/><circle cx="559.207" cy="272.649" r="6.375"/><circle cx="568.445" cy="284.399" r="6.375"/><path d="M468.18 326.18c-.864-1.728-10.237-32.718-10.395-32.212-.156-.506-9.53 30.484-10.395 32.213-1 2 6.75-2.5 7.25-4.75s2.854 18.298 3.145 17.79c.293.508 2.646-20.04 3.146-17.79s8.25 6.75 7.25 4.75z"/><circle cx="449.019" cy="286.806" r="6.375"/><circle cx="457.784" cy="275.056" r="6.375"/><circle cx="467.022" cy="286.806" r="6.375"/><g><path d="M366.756 326.18c-.863-1.728-10.238-32.718-10.395-32.212-.157-.506-9.53 30.484-10.395 32.213-1 2 6.75-2.5 7.25-4.75s2.854 18.298 3.146 17.79c.292.508 2.646-20.04 3.146-17.79s8.25 6.75 7.25 4.75z"/><circle cx="347.596" cy="286.806" r="6.375"/><circle cx="356.361" cy="275.056" r="6.375"/><circle cx="365.6" cy="286.806" r="6.375"/></g><g><path d="M265.334 326.18c-.864-1.728-10.238-32.718-10.396-32.212-.157-.506-9.53 30.484-10.396 32.213-1 2 6.75-2.5 7.25-4.75s2.854 18.298 3.146 17.79c.292.508 2.646-20.04 3.146-17.79s8.25 6.75 7.25 4.75z"/><circle cx="246.173" cy="286.806" r="6.375"/><circle cx="254.938" cy="275.056" r="6.375"/><circle cx="264.177" cy="286.806" r="6.375"/></g><g><path d="M163.91 326.18c-.863-1.728-10.237-32.718-10.395-32.212-.157-.506-9.53 30.484-10.396 32.213-1 2 6.75-2.5 7.25-4.75s2.853 18.298 3.145 17.79c.292.508 2.646-20.04 3.146-17.79s8.25 6.75 7.25 4.75z"/><circle cx="144.75" cy="286.806" r="6.375"/><circle cx="153.516" cy="275.056" r="6.375"/><circle cx="162.754" cy="286.806" r="6.375"/></g><g><path d="M62.488 326.415c-.864-1.73-10.238-32.72-10.396-32.213-.157-.506-9.53 30.484-10.396 32.213-1 2 6.75-2.5 7.25-4.75s2.854 18.297 3.146 17.788c.292.51 2.646-20.038 3.146-17.788s8.25 6.75 7.25 4.75z"/><circle cx="43.327" cy="287.04" r="6.375"/><circle cx="52.093" cy="275.29" r="6.375"/><circle cx="61.331" cy="287.04" r="6.375"/></g></g><g><path d="M569.604 425.02c-.865-1.73-10.238-32.72-10.396-32.214-.156-.506-9.53 30.484-10.395 32.213-1 2 6.75-2.5 7.25-4.75s2.854 18.296 3.145 17.787c.293.51 2.646-20.038 3.146-17.788s8.25 6.75 7.25 4.75z"/><circle cx="550.441" cy="385.644" r="6.375"/><circle cx="559.207" cy="373.893" r="6.375"/><circle cx="568.445" cy="385.644" r="6.375"/><path d="M468.18 427.425c-.864-1.73-10.237-32.72-10.395-32.213-.156-.506-9.53 30.484-10.395 32.213-1 2 6.75-2.5 7.25-4.75s2.854 18.297 3.145 17.79c.293.507 2.646-20.04 3.146-17.79s8.25 6.75 7.25 4.75z"/><circle cx="449.019" cy="388.05" r="6.375"/><circle cx="457.784" cy="376.3" r="6.375"/><circle cx="467.022" cy="388.05" r="6.375"/><g><path d="M366.756 427.425c-.863-1.73-10.238-32.72-10.395-32.213-.157-.506-9.53 30.484-10.395 32.213-1 2 6.75-2.5 7.25-4.75s2.854 18.297 3.146 17.79c.292.507 2.646-20.04 3.146-17.79s8.25 6.75 7.25 4.75z"/><circle cx="347.596" cy="388.05" r="6.375"/><circle cx="356.361" cy="376.3" r="6.375"/><circle cx="365.6" cy="388.05" r="6.375"/></g><g><path d="M265.334 427.425c-.864-1.73-10.238-32.72-10.396-32.213-.157-.506-9.53 30.484-10.396 32.213-1 2 6.75-2.5 7.25-4.75s2.854 18.297 3.146 17.79c.292.507 2.646-20.04 3.146-17.79s8.25 6.75 7.25 4.75z"/><circle cx="246.173" cy="388.05" r="6.375"/><circle cx="254.938" cy="376.3" r="6.375"/><circle cx="264.177" cy="388.05" r="6.375"/></g><g><path d="M163.91 427.425c-.863-1.73-10.237-32.72-10.395-32.213-.157-.506-9.53 30.484-10.396 32.213-1 2 6.75-2.5 7.25-4.75s2.853 18.297 3.145 17.79c.292.507 2.646-20.04 3.146-17.79s8.25 6.75 7.25 4.75z"/><circle cx="144.75" cy="388.05" r="6.375"/><circle cx="153.516" cy="376.3" r="6.375"/><circle cx="162.754" cy="388.05" r="6.375"/></g><g><path d="M62.488 427.66c-.864-1.73-10.238-32.72-10.396-32.214-.157-.506-9.53 30.484-10.396 32.213-1 2 6.75-2.5 7.25-4.75s2.854 18.296 3.146 17.787c.292.51 2.646-20.038 3.146-17.788s8.25 6.75 7.25 4.75z"/><circle cx="43.327" cy="388.284" r="6.375"/><circle cx="52.093" cy="376.534" r="6.375"/><circle cx="61.331" cy="388.284" r="6.375"/></g></g><g><path d="M569.604 526.263c-.865-1.73-10.238-32.72-10.396-32.213-.156-.506-9.53 30.484-10.395 32.213-1 2 6.75-2.5 7.25-4.75s2.854 18.297 3.145 17.788c.293.51 2.646-20.037 3.146-17.787s8.25 6.75 7.25 4.75z"/><circle cx="550.441" cy="486.888" r="6.375"/><circle cx="559.207" cy="475.138" r="6.375"/><circle cx="568.445" cy="486.888" r="6.375"/><path d="M468.18 528.67c-.864-1.73-10.237-32.72-10.395-32.214-.156-.506-9.53 30.484-10.395 32.213-1 2 6.75-2.5 7.25-4.75s2.854 18.296 3.145 17.788c.293.508 2.646-20.04 3.146-17.79s8.25 6.75 7.25 4.75z"/><circle cx="449.019" cy="489.294" r="6.375"/><circle cx="457.784" cy="477.544" r="6.375"/><circle cx="467.022" cy="489.294" r="6.375"/><g><path d="M366.756 528.67c-.863-1.73-10.238-32.72-10.395-32.214-.157-.506-9.53 30.484-10.395 32.213-1 2 6.75-2.5 7.25-4.75s2.854 18.296 3.146 17.788c.292.508 2.646-20.04 3.146-17.79s8.25 6.75 7.25 4.75z"/><circle cx="347.596" cy="489.294" r="6.375"/><circle cx="356.361" cy="477.544" r="6.375"/><circle cx="365.6" cy="489.294" r="6.375"/></g><g><path d="M265.334 528.67c-.864-1.73-10.238-32.72-10.396-32.214-.157-.506-9.53 30.484-10.396 32.213-1 2 6.75-2.5 7.25-4.75s2.854 18.296 3.146 17.788c.292.508 2.646-20.04 3.146-17.79s8.25 6.75 7.25 4.75z"/><circle cx="246.173" cy="489.294" r="6.375"/><circle cx="254.938" cy="477.544" r="6.375"/><circle cx="264.177" cy="489.294" r="6.375"/></g><g><path d="M163.91 528.67c-.863-1.73-10.237-32.72-10.395-32.214-.157-.506-9.53 30.484-10.396 32.213-1 2 6.75-2.5 7.25-4.75s2.853 18.296 3.145 17.788c.292.508 2.646-20.04 3.146-17.79s8.25 6.75 7.25 4.75z"/><circle cx="144.75" cy="489.294" r="6.375"/><circle cx="153.516" cy="477.544" r="6.375"/><circle cx="162.754" cy="489.294" r="6.375"/></g><g><path d="M62.488 528.903c-.864-1.73-10.238-32.72-10.396-32.213-.157-.506-9.53 30.484-10.396 32.213-1 2 6.75-2.5 7.25-4.75s2.854 18.297 3.146 17.788c.292.51 2.646-20.037 3.146-17.787s8.25 6.75 7.25 4.75z"/><circle cx="43.327" cy="489.528" r="6.375"/><circle cx="52.093" cy="477.778" r="6.375"/><circle cx="61.331" cy="489.528" r="6.375"/></g></g></g></g><g clip-path="url(#f)"><linearGradient id="E" gradientUnits="userSpaceOnUse" x1="305.887" y1="171.294" x2="305.887" y2="3.5"><stop offset="0"/><stop offset="1" stop-color="#414042"/></linearGradient><path fill="url(#E)" d="M54.173 3.5H557.6v167.794H54.174z"/><linearGradient id="aZ" gradientUnits="userSpaceOnUse" x1="292.053" y1="51.503" x2="319.72" y2="51.503"><stop offset="0" stop-color="#BCBEC0"/><stop offset="1" stop-color="#FFF"/></linearGradient><path fill="url(#aZ)" stroke="#000" stroke-width=".271" stroke-miterlimit="10" d="M305.886 28.545c0 5.667-13.833 15.375-13.833 24.375s13.833 21.542 13.833 21.542S319.72 61.92 319.72 52.92s-13.834-18.71-13.834-24.375z"/><linearGradient id="ba" gradientUnits="userSpaceOnUse" x1="277.407" y1="46.293" x2="303.856" y2="46.293"><stop offset="0" stop-color="#BCBEC0"/><stop offset="1" stop-color="#FFF"/></linearGradient><path fill="url(#ba)" stroke="#000" stroke-width=".271" stroke-miterlimit="10" d="M281.86 27.69c-1.905-3.25-2.564-2.375-2.564-2.375s.16 5.264-.488 8.554c-.65 3.29-1.785 8.008-1.27 17.008 1.61 3.25 26.173 16.5 26.173 16.5s1.32-10.25-3.958-20.063c-5.28-9.812-15.984-16.375-17.89-19.625z"/><linearGradient id="bb" gradientUnits="userSpaceOnUse" x1="307.915" y1="46.293" x2="334.366" y2="46.293"><stop offset="0" stop-color="#BCBEC0"/><stop offset="1" stop-color="#FFF"/></linearGradient><path fill="url(#bb)" stroke="#000" stroke-width=".271" stroke-miterlimit="10" d="M332.965 33.87c-.648-3.29-.488-8.555-.488-8.555s-.66-.875-2.565 2.375-12.61 9.813-17.89 19.625-3.96 20.063-3.96 20.063 24.563-13.25 26.175-16.5c.513-9-.623-13.72-1.272-17.01z"/><linearGradient id="bc" gradientUnits="userSpaceOnUse" x1="273.037" y1="33.145" x2="281.984" y2="62.41"><stop offset="0" stop-color="#F9ED32"/><stop offset="1" stop-color="#FBB040"/></linearGradient><path fill="url(#bc)" stroke="#000" stroke-width=".271" stroke-miterlimit="10" d="M284.694 58.294s1.564-9.583-5.376-17.083-9.873-4.582-9.873-4.582-.49 1.083-1.467 1.083-.978-3 0-3 .88 1.334 1.955 1c1.075-.332 6.062-.082 9.874 4.668s7.332 12.333 6.06 18.5c-1.27 6.167-1.173-.584-1.173-.584z"/><linearGradient id="bd" gradientUnits="userSpaceOnUse" x1="223.462" y1="33.144" x2="232.41" y2="62.41" gradientTransform="matrix(-1 0 0 1 562.2 0)"><stop offset="0" stop-color="#F9ED32"/><stop offset="1" stop-color="#FBB040"/></linearGradient><path fill="url(#bd)" stroke="#000" stroke-width=".271" stroke-miterlimit="10" d="M327.076 58.294s-1.563-9.583 5.378-17.083 9.873-4.582 9.873-4.582.488 1.083 1.467 1.083c.978 0 .978-3 0-3-.98 0-.88 1.334-1.955 1-1.078-.332-6.064-.082-9.876 4.668s-7.332 12.333-6.06 18.5 1.172-.584 1.172-.584z"/><linearGradient id="be" gradientUnits="userSpaceOnUse" x1="309.324" y1="36.974" x2="302.606" y2="58.95"><stop offset="0" stop-color="#F9ED32"/><stop offset="1" stop-color="#FBB040"/></linearGradient><path fill="url(#be)" stroke="#000" stroke-width=".271" stroke-miterlimit="10" d="M306.87 37.128c0-1.438-.984-1.03-.984-1.03s-.984-.407-.984 1.03.733 2.906.733 7.438-.733 15.086-.733 15.086h1.968s-.733-10.555-.733-15.086.733-6 .733-7.438z"/><linearGradient id="bf" gradientUnits="userSpaceOnUse" x1="249.773" y1="101.544" x2="362" y2="101.544"><stop offset="0" stop-color="#BCBEC0"/><stop offset="1" stop-color="#FFF"/></linearGradient><path fill="url(#bf)" stroke="#000" stroke-width=".271" stroke-miterlimit="10" d="M337.56 58.294c-23.07 0-31.674 13.833-31.674 13.833s-8.603-13.833-31.674-13.833-24.44 13.667-24.44 13.667 3.717-8 10.95-8c7.234 0 19.942 35.75 22.68 51.334s9.19 29.5 22.484 29.5c13.295 0 19.747-13.917 22.485-29.5s15.446-51.333 22.68-51.333 10.95 8 10.95 8-1.368-13.666-24.44-13.666z"/><linearGradient id="bg" gradientUnits="userSpaceOnUse" x1="249.748" y1="61.652" x2="305.886" y2="61.652"><stop offset="0" stop-color="#BCBEC0"/><stop offset="1" stop-color="#FFF"/></linearGradient><path fill="url(#bg)" stroke="#000" stroke-width=".271" stroke-miterlimit="10" d="M281.25 49.794c-14.076-3.5-32.26 12.417-31.478 22.5 0 0 1.966-11.48 20.363-13.167 18.398-1.688 34.805 9.585 35.75 14.875 0-7.546-10.557-20.708-24.634-24.208z"/><linearGradient id="bh" gradientUnits="userSpaceOnUse" x1="305.886" y1="61.652" x2="362.024" y2="61.652"><stop offset="0" stop-color="#BCBEC0"/><stop offset="1" stop-color="#FFF"/></linearGradient><path fill="url(#bh)" stroke="#000" stroke-width=".271" stroke-miterlimit="10" d="M330.52 49.794c-14.076 3.5-24.635 16.662-24.635 24.208.945-5.29 17.353-16.563 35.75-14.875C360.036 60.815 362 72.294 362 72.294c.782-10.083-17.4-26-31.48-22.5z"/><linearGradient id="bi" gradientUnits="userSpaceOnUse" x1="298.829" y1="48.701" x2="310.733" y2="87.636"><stop offset="0" stop-color="#BCBEC0"/><stop offset="1" stop-color="#FFF"/></linearGradient><path fill="url(#bi)" d="M337.56 58.294c-22.998 0-31.616 13.742-31.672 13.83 0 .008 0 .016-.002.023 0-.008 0-.016-.002-.023-.056-.087-8.674-13.83-31.672-13.83-23.07 0-24.44 13.667-24.44 13.667s.06-.125.177-.345c.756-2.483 4.488-11.047 20.187-12.487 18.398-1.688 34.805 9.585 35.75 14.875.945-5.29 17.353-16.563 35.75-14.875 15.7 1.44 19.432 10.004 20.19 12.487.115.22.174.346.174.346s-1.368-13.666-24.44-13.666z"/><linearGradient id="bj" gradientUnits="userSpaceOnUse" x1="296.834" y1="97.144" x2="314.938" y2="97.144"><stop offset="0" stop-color="#BCBEC0"/><stop offset="1" stop-color="#FFF"/></linearGradient><path fill="url(#bj)" stroke="#000" stroke-width=".271" stroke-miterlimit="10" d="M305.886 52.33c0 7.267-9.052 20.5-9.052 45.376s9.052 44.25 9.052 44.25 9.052-19.375 9.052-44.25-9.052-38.11-9.052-45.375z"/><linearGradient id="bk" gradientUnits="userSpaceOnUse" x1="300.788" y1="132.838" x2="310.984" y2="132.838"><stop offset="0" stop-color="#BCBEC0"/><stop offset="1" stop-color="#E6E7E8"/></linearGradient><path fill="url(#bk)" d="M307.313 134.956c-1.085-.11-1.416-11.237-1.416-11.237s-.352 11.124-1.437 11.236c-1.208.124-3.538-7.448-3.672-7.887 2.437 9.18 5.098 14.886 5.098 14.886s2.66-5.705 5.1-14.887c-.136.438-2.466 8.01-3.673 7.886z"/><linearGradient id="bl" gradientUnits="userSpaceOnUse" x1="304.944" y1="137.603" x2="312.661" y2="162.843"><stop offset="0" stop-color="#F9ED32"/><stop offset="1" stop-color="#FBB040"/></linearGradient><path fill="url(#bl)" d="M310.757 158.95c-3.69 0-3.55-3.988-3.55-3.988 0-6.48 2.373-9.803 3.196-10.76 2.442-.667 4.604-1.875 6.512-3.515-.442.306-4.465 2.754-7.68 2.754-2.534 0-3.184-1.593-3.35-2.37-.166.777-.815 2.37-3.35 2.37-3.215 0-7.237-2.447-7.68-2.753 1.907 1.64 4.068 2.848 6.51 3.515.824.957 3.2 4.28 3.2 10.76.014 1.068.317 5.865 6.23 5.865h8.46v-1.875h-8.498z"/><g><linearGradient id="bm" gradientUnits="userSpaceOnUse" x1="124.387" y1="51.503" x2="152.053" y2="51.503"><stop offset="0" stop-color="#BCBEC0"/><stop offset="1" stop-color="#FFF"/></linearGradient><path fill="url(#bm)" stroke="#000" stroke-width=".271" stroke-miterlimit="10" d="M138.22 28.545c0 5.667-13.833 15.375-13.833 24.375s13.832 21.542 13.832 21.542 13.833-12.542 13.833-21.542-13.834-18.71-13.834-24.375z"/><linearGradient id="bn" gradientUnits="userSpaceOnUse" x1="109.74" y1="46.293" x2="136.19" y2="46.293"><stop offset="0" stop-color="#BCBEC0"/><stop offset="1" stop-color="#FFF"/></linearGradient><path fill="url(#bn)" stroke="#000" stroke-width=".271" stroke-miterlimit="10" d="M114.195 27.69c-1.906-3.25-2.566-2.375-2.566-2.375s.16 5.264-.49 8.554c-.648 3.29-1.783 8.008-1.27 17.008 1.613 3.25 26.174 16.5 26.174 16.5s1.32-10.25-3.96-20.063c-5.277-9.812-15.982-16.375-17.89-19.625z"/><linearGradient id="bo" gradientUnits="userSpaceOnUse" x1="140.248" y1="46.293" x2="166.699" y2="46.293"><stop offset="0" stop-color="#BCBEC0"/><stop offset="1" stop-color="#FFF"/></linearGradient><path fill="url(#bo)" stroke="#000" stroke-width=".271" stroke-miterlimit="10" d="M165.298 33.87c-.648-3.29-.488-8.555-.488-8.555s-.66-.875-2.565 2.375-12.61 9.813-17.89 19.625-3.96 20.063-3.96 20.063 24.563-13.25 26.175-16.5c.513-9-.623-13.72-1.272-17.01z"/><linearGradient id="bp" gradientUnits="userSpaceOnUse" x1="105.371" y1="33.144" x2="114.318" y2="62.41"><stop offset="0" stop-color="#F9ED32"/><stop offset="1" stop-color="#FBB040"/></linearGradient><path fill="url(#bp)" stroke="#000" stroke-width=".271" stroke-miterlimit="10" d="M117.028 58.294s1.563-9.583-5.377-17.083c-6.938-7.5-9.872-4.582-9.872-4.582s-.488 1.083-1.466 1.083c-.98 0-.98-3 0-3 .978 0 .88 1.334 1.954 1 1.076-.332 6.062-.082 9.874 4.668 3.813 4.75 7.332 12.333 6.06 18.5-1.27 6.167-1.172-.584-1.172-.584z"/><linearGradient id="bq" gradientUnits="userSpaceOnUse" x1="391.129" y1="33.144" x2="400.077" y2="62.41" gradientTransform="matrix(-1 0 0 1 562.2 0)"><stop offset="0" stop-color="#F9ED32"/><stop offset="1" stop-color="#FBB040"/></linearGradient><path fill="url(#bq)" stroke="#000" stroke-width=".271" stroke-miterlimit="10" d="M159.41 58.294s-1.564-9.583 5.377-17.083 9.873-4.582 9.873-4.582.488 1.083 1.467 1.083c.978 0 .978-3 0-3-.98 0-.88 1.334-1.955 1-1.077-.332-6.063-.082-9.875 4.668s-7.332 12.333-6.06 18.5 1.172-.584 1.172-.584z"/><linearGradient id="br" gradientUnits="userSpaceOnUse" x1="141.657" y1="36.974" x2="134.939" y2="58.95"><stop offset="0" stop-color="#F9ED32"/><stop offset="1" stop-color="#FBB040"/></linearGradient><path fill="url(#br)" stroke="#000" stroke-width=".271" stroke-miterlimit="10" d="M139.203 37.128c0-1.438-.984-1.03-.984-1.03s-.985-.407-.985 1.03.733 2.906.733 7.438-.733 15.086-.733 15.086h1.967s-.733-10.555-.733-15.086.733-6 .733-7.438z"/><linearGradient id="bs" gradientUnits="userSpaceOnUse" x1="82.106" y1="101.544" x2="194.333" y2="101.544"><stop offset="0" stop-color="#BCBEC0"/><stop offset="1" stop-color="#FFF"/></linearGradient><path fill="url(#bs)" stroke="#000" stroke-width=".271" stroke-miterlimit="10" d="M169.894 58.294c-23.072 0-31.675 13.833-31.675 13.833s-8.604-13.833-31.674-13.833c-23.072 0-24.44 13.667-24.44 13.667s3.716-8 10.95-8c7.233 0 19.942 35.75 22.68 51.334 2.736 15.583 9.19 29.5 22.483 29.5 13.294 0 19.746-13.917 22.484-29.5s15.445-51.333 22.68-51.333 10.95 8 10.95 8-1.37-13.666-24.44-13.666z"/><linearGradient id="bt" gradientUnits="userSpaceOnUse" x1="82.082" y1="61.652" x2="138.219" y2="61.652"><stop offset="0" stop-color="#BCBEC0"/><stop offset="1" stop-color="#FFF"/></linearGradient><path fill="url(#bt)" stroke="#000" stroke-width=".271" stroke-miterlimit="10" d="M113.585 49.794c-14.078-3.5-32.262 12.417-31.48 22.5 0 0 1.967-11.48 20.364-13.167s34.803 9.585 35.748 14.875c0-7.546-10.557-20.708-24.633-24.208z"/><linearGradient id="bu" gradientUnits="userSpaceOnUse" x1="138.219" y1="61.652" x2="194.357" y2="61.652"><stop offset="0" stop-color="#BCBEC0"/><stop offset="1" stop-color="#FFF"/></linearGradient><path fill="url(#bu)" stroke="#000" stroke-width=".271" stroke-miterlimit="10" d="M162.854 49.794c-14.077 3.5-24.636 16.662-24.636 24.208.945-5.29 17.353-16.563 35.75-14.875 18.398 1.688 20.364 13.167 20.364 13.167.783-10.083-17.4-26-31.478-22.5z"/><linearGradient id="bv" gradientUnits="userSpaceOnUse" x1="131.162" y1="48.7" x2="143.066" y2="87.636"><stop offset="0" stop-color="#BCBEC0"/><stop offset="1" stop-color="#FFF"/></linearGradient><path fill="url(#bv)" d="M169.894 58.294c-23 0-31.617 13.742-31.673 13.83v.023l-.003-.023c-.056-.087-8.674-13.83-31.67-13.83-23.073 0-24.44 13.667-24.44 13.667s.058-.125.175-.345c.758-2.483 4.49-11.047 20.188-12.487 18.397-1.688 34.804 9.585 35.75 14.875.944-5.29 17.352-16.563 35.75-14.875 15.698 1.44 19.43 10.004 20.188 12.487.116.22.175.346.175.346s-1.368-13.666-24.44-13.666z"/><linearGradient id="bw" gradientUnits="userSpaceOnUse" x1="129.167" y1="97.144" x2="147.27" y2="97.144"><stop offset="0" stop-color="#BCBEC0"/><stop offset="1" stop-color="#FFF"/></linearGradient><path fill="url(#bw)" stroke="#000" stroke-width=".271" stroke-miterlimit="10" d="M138.22 52.33c0 7.267-9.053 20.5-9.053 45.376s9.052 44.25 9.052 44.25 9.05-19.375 9.05-44.25-9.05-38.11-9.05-45.375z"/><linearGradient id="bx" gradientUnits="userSpaceOnUse" x1="133.121" y1="132.838" x2="143.317" y2="132.838"><stop offset="0" stop-color="#BCBEC0"/><stop offset="1" stop-color="#E6E7E8"/></linearGradient><path fill="url(#bx)" d="M139.646 134.956c-1.085-.11-1.416-11.237-1.416-11.237s-.352 11.124-1.437 11.236c-1.208.124-3.538-7.448-3.672-7.887 2.438 9.18 5.1 14.886 5.1 14.886s2.66-5.705 5.098-14.887c-.135.438-2.465 8.01-3.672 7.886z"/><linearGradient id="by" gradientUnits="userSpaceOnUse" x1="137.277" y1="137.602" x2="144.994" y2="162.843"><stop offset="0" stop-color="#F9ED32"/><stop offset="1" stop-color="#FBB040"/></linearGradient><path fill="url(#by)" d="M143.09 158.95c-3.69 0-3.55-3.988-3.55-3.988 0-6.48 2.373-9.803 3.196-10.76 2.442-.667 4.604-1.875 6.512-3.515-.442.306-4.465 2.754-7.68 2.754-2.534 0-3.184-1.593-3.35-2.37-.166.777-.815 2.37-3.35 2.37-3.215 0-7.237-2.447-7.678-2.753 1.905 1.64 4.066 2.848 6.51 3.515.822.957 3.198 4.28 3.198 10.76.014 1.068.317 5.865 6.23 5.865h8.46v-1.875h-8.498z"/></g><g><linearGradient id="bz" gradientUnits="userSpaceOnUse" x1="459.72" y1="51.503" x2="487.387" y2="51.503"><stop offset="0" stop-color="#BCBEC0"/><stop offset="1" stop-color="#FFF"/></linearGradient><path fill="url(#bz)" stroke="#000" stroke-width=".271" stroke-miterlimit="10" d="M473.553 28.545c0 5.667-13.833 15.375-13.833 24.375s13.833 21.542 13.833 21.542 13.834-12.542 13.834-21.542-13.834-18.71-13.834-24.375z"/><linearGradient id="bA" gradientUnits="userSpaceOnUse" x1="445.074" y1="46.293" x2="471.523" y2="46.293"><stop offset="0" stop-color="#BCBEC0"/><stop offset="1" stop-color="#FFF"/></linearGradient><path fill="url(#bA)" stroke="#000" stroke-width=".271" stroke-miterlimit="10" d="M449.528 27.69c-1.906-3.25-2.565-2.375-2.565-2.375s.16 5.264-.488 8.554c-.65 3.29-1.784 8.008-1.27 17.008 1.61 3.25 26.173 16.5 26.173 16.5s1.32-10.25-3.96-20.063c-5.278-9.812-15.983-16.375-17.89-19.625z"/><linearGradient id="bB" gradientUnits="userSpaceOnUse" x1="475.582" y1="46.293" x2="502.033" y2="46.293"><stop offset="0" stop-color="#BCBEC0"/><stop offset="1" stop-color="#FFF"/></linearGradient><path fill="url(#bB)" stroke="#000" stroke-width=".271" stroke-miterlimit="10" d="M500.632 33.87c-.648-3.29-.488-8.555-.488-8.555s-.66-.875-2.565 2.375-12.612 9.813-17.892 19.625-3.96 20.063-3.96 20.063 24.564-13.25 26.176-16.5c.513-9-.623-13.72-1.272-17.01z"/><linearGradient id="bC" gradientUnits="userSpaceOnUse" x1="440.704" y1="33.144" x2="449.652" y2="62.41"><stop offset="0" stop-color="#F9ED32"/><stop offset="1" stop-color="#FBB040"/></linearGradient><path fill="url(#bC)" stroke="#000" stroke-width=".271" stroke-miterlimit="10" d="M452.362 58.294s1.563-9.583-5.377-17.083c-6.94-7.5-9.873-4.582-9.873-4.582s-.488 1.083-1.467 1.083c-.978 0-.978-3 0-3 .98 0 .88 1.334 1.955 1s6.062-.082 9.874 4.668c3.813 4.75 7.332 12.333 6.06 18.5-1.27 6.167-1.172-.584-1.172-.584z"/><linearGradient id="bD" gradientUnits="userSpaceOnUse" x1="55.795" y1="33.145" x2="64.743" y2="62.411" gradientTransform="matrix(-1 0 0 1 562.2 0)"><stop offset="0" stop-color="#F9ED32"/><stop offset="1" stop-color="#FBB040"/></linearGradient><path fill="url(#bD)" stroke="#000" stroke-width=".271" stroke-miterlimit="10" d="M494.743 58.294s-1.563-9.583 5.378-17.083 9.874-4.582 9.874-4.582.488 1.083 1.467 1.083c.98 0 .98-3 0-3-.978 0-.88 1.334-1.954 1-1.077-.332-6.063-.082-9.875 4.668s-7.33 12.333-6.06 18.5 1.173-.584 1.173-.584z"/><linearGradient id="bE" gradientUnits="userSpaceOnUse" x1="476.991" y1="36.974" x2="470.272" y2="58.95"><stop offset="0" stop-color="#F9ED32"/><stop offset="1" stop-color="#FBB040"/></linearGradient><path fill="url(#bE)" stroke="#000" stroke-width=".271" stroke-miterlimit="10" d="M474.537 37.128c0-1.438-.984-1.03-.984-1.03s-.984-.407-.984 1.03.732 2.906.732 7.438-.733 15.086-.733 15.086h1.967s-.733-10.555-.733-15.086.733-6 .733-7.438z"/><linearGradient id="bF" gradientUnits="userSpaceOnUse" x1="417.44" y1="101.544" x2="529.667" y2="101.544"><stop offset="0" stop-color="#BCBEC0"/><stop offset="1" stop-color="#FFF"/></linearGradient><path fill="url(#bF)" stroke="#000" stroke-width=".271" stroke-miterlimit="10" d="M505.228 58.294c-23.072 0-31.675 13.833-31.675 13.833s-8.603-13.833-31.673-13.833c-23.072 0-24.44 13.667-24.44 13.667s3.716-8 10.95-8c7.233 0 19.94 35.75 22.68 51.334s9.19 29.5 22.483 29.5c13.295 0 19.747-13.917 22.485-29.5s15.445-51.333 22.68-51.333 10.95 8 10.95 8-1.37-13.666-24.44-13.666z"/><linearGradient id="bG" gradientUnits="userSpaceOnUse" x1="417.416" y1="61.652" x2="473.553" y2="61.652"><stop offset="0" stop-color="#BCBEC0"/><stop offset="1" stop-color="#FFF"/></linearGradient><path fill="url(#bG)" stroke="#000" stroke-width=".271" stroke-miterlimit="10" d="M448.92 49.794c-14.08-3.5-32.263 12.417-31.48 22.5 0 0 1.965-11.48 20.363-13.167 18.397-1.688 34.804 9.585 35.75 14.875 0-7.546-10.558-20.708-24.634-24.208z"/><linearGradient id="bH" gradientUnits="userSpaceOnUse" x1="473.553" y1="61.652" x2="529.691" y2="61.652"><stop offset="0" stop-color="#BCBEC0"/><stop offset="1" stop-color="#FFF"/></linearGradient><path fill="url(#bH)" stroke="#000" stroke-width=".271" stroke-miterlimit="10" d="M498.188 49.794c-14.077 3.5-24.636 16.662-24.636 24.208.945-5.29 17.353-16.563 35.75-14.875 18.398 1.688 20.364 13.167 20.364 13.167.783-10.083-17.4-26-31.478-22.5z"/><linearGradient id="bI" gradientUnits="userSpaceOnUse" x1="466.496" y1="48.701" x2="478.4" y2="87.636"><stop offset="0" stop-color="#BCBEC0"/><stop offset="1" stop-color="#FFF"/></linearGradient><path fill="url(#bI)" d="M505.228 58.294c-23 0-31.617 13.742-31.673 13.83 0 .008 0 .016-.002.023 0-.008 0-.016-.002-.023-.055-.087-8.673-13.83-31.67-13.83-23.072 0-24.44 13.667-24.44 13.667s.06-.125.176-.345c.757-2.483 4.49-11.047 20.188-12.487 18.397-1.688 34.804 9.585 35.75 14.875.944-5.29 17.352-16.563 35.75-14.875 15.698 1.44 19.43 10.004 20.188 12.487.116.22.175.346.175.346s-1.368-13.666-24.44-13.666z"/><linearGradient id="bJ" gradientUnits="userSpaceOnUse" x1="464.501" y1="97.144" x2="482.604" y2="97.144"><stop offset="0" stop-color="#BCBEC0"/><stop offset="1" stop-color="#FFF"/></linearGradient><path fill="url(#bJ)" stroke="#000" stroke-width=".271" stroke-miterlimit="10" d="M473.553 52.33c0 7.267-9.052 20.5-9.052 45.376s9.053 44.25 9.053 44.25 9.052-19.375 9.052-44.25-9.052-38.11-9.052-45.375z"/><linearGradient id="bK" gradientUnits="userSpaceOnUse" x1="468.455" y1="132.838" x2="478.651" y2="132.838"><stop offset="0" stop-color="#BCBEC0"/><stop offset="1" stop-color="#E6E7E8"/></linearGradient><path fill="url(#bK)" d="M474.98 134.956c-1.086-.11-1.417-11.237-1.417-11.237s-.352 11.124-1.437 11.236c-1.208.124-3.538-7.448-3.672-7.887 2.437 9.18 5.098 14.886 5.098 14.886s2.66-5.705 5.1-14.887c-.135.438-2.465 8.01-3.673 7.886z"/><linearGradient id="bL" gradientUnits="userSpaceOnUse" x1="472.61" y1="137.602" x2="480.327" y2="162.843"><stop offset="0" stop-color="#F9ED32"/><stop offset="1" stop-color="#FBB040"/></linearGradient><path fill="url(#bL)" d="M478.424 158.95c-3.69 0-3.55-3.988-3.55-3.988 0-6.48 2.373-9.803 3.196-10.76 2.442-.667 4.604-1.875 6.512-3.515-.442.306-4.465 2.754-7.68 2.754-2.534 0-3.184-1.593-3.35-2.37-.166.777-.815 2.37-3.35 2.37-3.215 0-7.237-2.447-7.68-2.753 1.907 1.64 4.068 2.848 6.51 3.515.824.957 3.2 4.28 3.2 10.76.014 1.068.317 5.865 6.23 5.865h8.46v-1.875h-8.498z"/></g></g><use xlink:href="#e" overflow="visible" fill="none" stroke="#000" stroke-width="7" stroke-miterlimit="10"/><radialGradient id="bM" cx="305.887" cy="575.523" r="180.594" gradientUnits="userSpaceOnUse"><stop offset=".632" stop-color="#FFF"/><stop offset=".705" stop-color="#F4F5F5"/><stop offset=".855" stop-color="#EAEBEB"/><stop offset="1" stop-color="#E6E7E8"/></radialGradient></svg>