<!DOCTYPE svg PUBLIC "-//W3C//DTD SVG 1.1//EN" "http://www.w3.org/Graphics/SVG/1.1/DTD/svg11.dtd" [
	<!ENTITY ns_flows "http://ns.adobe.com/Flows/1.0/">
]><svg xmlns="http://www.w3.org/2000/svg" xmlns:xlink="http://www.w3.org/1999/xlink" width="524" height="659" viewBox="0 -0.5 524 659"><linearGradient id="a" gradientUnits="userSpaceOnUse" x1="37.789" y1="515.304" x2="92.683" y2="536.376"><stop offset="0" stop-color="#8B5E3C"/><stop offset=".497" stop-color="#FDC060"/></linearGradient><linearGradient id="b" gradientUnits="userSpaceOnUse" x1="430.929" y1="536.376" x2="485.824" y2="515.304"><stop offset=".503" stop-color="#FDC060"/><stop offset="1" stop-color="#8B5E3C"/></linearGradient><linearGradient id="c" gradientUnits="userSpaceOnUse" x1="1.5" y1="461.128" x2="107.092" y2="461.128"><stop offset="0" stop-color="#BCBEC0"/><stop offset=".333" stop-color="#E6E7E8"/></linearGradient><linearGradient id="d" gradientUnits="userSpaceOnUse" x1="416.52" y1="461.128" x2="522.112" y2="461.128"><stop offset=".632" stop-color="#E6E7E8"/><stop offset=".687" stop-color="#DBDCDD"/><stop offset=".793" stop-color="#CACBCD"/><stop offset=".898" stop-color="#BFC1C3"/><stop offset="1" stop-color="#BCBEC0"/></linearGradient><defs><path id="e" d="M261.113 3.5H10.093v258.714c0 161.08 140 299 251.713 341 118.286-39 251.714-175.92 251.714-337V3.5H261.113z"/></defs><use xlink:href="#e" overflow="visible" fill="#BE1E2D"/><use xlink:href="#e" overflow="visible" fill="none" stroke="#000" stroke-width="7" stroke-miterlimit="10"/><radialGradient id="f" cx="261.806" cy="575.523" r="180.594" gradientUnits="userSpaceOnUse"><stop offset=".632" stop-color="#FFF"/><stop offset=".705" stop-color="#F4F5F5"/><stop offset=".855" stop-color="#EAEBEB"/><stop offset="1" stop-color="#E6E7E8"/></radialGradient><linearGradient id="g" gradientUnits="userSpaceOnUse" x1="91.893" y1="215.702" x2="91.893" y2="193.441"><stop offset="0" stop-color="#E7A523"/><stop offset=".121" stop-color="#E7A625"/><stop offset=".219" stop-color="#E9A92D"/><stop offset=".308" stop-color="#EDAF3C"/><stop offset=".392" stop-color="#F2B751"/><stop offset=".472" stop-color="#F9C26B"/><stop offset=".5" stop-color="#FEC775"/><stop offset=".528" stop-color="#F9C26B"/><stop offset=".608" stop-color="#F2B751"/><stop offset=".692" stop-color="#EDAF3C"/><stop offset=".781" stop-color="#E9A92D"/><stop offset=".879" stop-color="#E7A625"/><stop offset="1" stop-color="#E7A523"/></linearGradient><path fill="url(#g)" stroke="#000" stroke-width="2" stroke-miterlimit="10" d="M66.092 193.44h51.6v22.262h-51.6z"/><linearGradient id="h" gradientUnits="userSpaceOnUse" x1="91.968" y1="252.841" x2="91.968" y2="230.58"><stop offset="0" stop-color="#E7A523"/><stop offset=".121" stop-color="#E7A625"/><stop offset=".219" stop-color="#E9A92D"/><stop offset=".308" stop-color="#EDAF3C"/><stop offset=".392" stop-color="#F2B751"/><stop offset=".472" stop-color="#F9C26B"/><stop offset=".5" stop-color="#FEC775"/><stop offset=".528" stop-color="#F9C26B"/><stop offset=".608" stop-color="#F2B751"/><stop offset=".692" stop-color="#EDAF3C"/><stop offset=".781" stop-color="#E9A92D"/><stop offset=".879" stop-color="#E7A625"/><stop offset="1" stop-color="#E7A523"/></linearGradient><path fill="url(#h)" stroke="#000" stroke-width="2" stroke-miterlimit="10" d="M66.167 230.58h51.6v22.26h-51.6z"/><linearGradient id="i" gradientUnits="userSpaceOnUse" x1="91.968" y1="289.981" x2="91.968" y2="267.719"><stop offset="0" stop-color="#E7A523"/><stop offset=".121" stop-color="#E7A625"/><stop offset=".219" stop-color="#E9A92D"/><stop offset=".308" stop-color="#EDAF3C"/><stop offset=".392" stop-color="#F2B751"/><stop offset=".472" stop-color="#F9C26B"/><stop offset=".5" stop-color="#FEC775"/><stop offset=".528" stop-color="#F9C26B"/><stop offset=".608" stop-color="#F2B751"/><stop offset=".692" stop-color="#EDAF3C"/><stop offset=".781" stop-color="#E9A92D"/><stop offset=".879" stop-color="#E7A625"/><stop offset="1" stop-color="#E7A523"/></linearGradient><path fill="url(#i)" stroke="#000" stroke-width="2" stroke-miterlimit="10" d="M66.167 267.72h51.6v22.26h-51.6z"/><linearGradient id="j" gradientUnits="userSpaceOnUse" x1="91.893" y1="327.12" x2="91.893" y2="304.858"><stop offset="0" stop-color="#E7A523"/><stop offset=".121" stop-color="#E7A625"/><stop offset=".219" stop-color="#E9A92D"/><stop offset=".308" stop-color="#EDAF3C"/><stop offset=".392" stop-color="#F2B751"/><stop offset=".472" stop-color="#F9C26B"/><stop offset=".5" stop-color="#FEC775"/><stop offset=".528" stop-color="#F9C26B"/><stop offset=".608" stop-color="#F2B751"/><stop offset=".692" stop-color="#EDAF3C"/><stop offset=".781" stop-color="#E9A92D"/><stop offset=".879" stop-color="#E7A625"/><stop offset="1" stop-color="#E7A523"/></linearGradient><path fill="url(#j)" stroke="#000" stroke-width="2" stroke-miterlimit="10" d="M66.092 304.858h51.6v22.26h-51.6z"/><linearGradient id="k" gradientUnits="userSpaceOnUse" x1="91.893" y1="364.259" x2="91.893" y2="341.998"><stop offset="0" stop-color="#E7A523"/><stop offset=".121" stop-color="#E7A625"/><stop offset=".219" stop-color="#E9A92D"/><stop offset=".308" stop-color="#EDAF3C"/><stop offset=".392" stop-color="#F2B751"/><stop offset=".472" stop-color="#F9C26B"/><stop offset=".5" stop-color="#FEC775"/><stop offset=".528" stop-color="#F9C26B"/><stop offset=".608" stop-color="#F2B751"/><stop offset=".692" stop-color="#EDAF3C"/><stop offset=".781" stop-color="#E9A92D"/><stop offset=".879" stop-color="#E7A625"/><stop offset="1" stop-color="#E7A523"/></linearGradient><path fill="url(#k)" stroke="#000" stroke-width="2" stroke-miterlimit="10" d="M66.092 341.998h51.6v22.26h-51.6z"/><linearGradient id="l" gradientUnits="userSpaceOnUse" x1="428.634" y1="364.046" x2="428.634" y2="341.785"><stop offset="0" stop-color="#E7A523"/><stop offset=".121" stop-color="#E7A625"/><stop offset=".219" stop-color="#E9A92D"/><stop offset=".308" stop-color="#EDAF3C"/><stop offset=".392" stop-color="#F2B751"/><stop offset=".472" stop-color="#F9C26B"/><stop offset=".5" stop-color="#FEC775"/><stop offset=".528" stop-color="#F9C26B"/><stop offset=".608" stop-color="#F2B751"/><stop offset=".692" stop-color="#EDAF3C"/><stop offset=".781" stop-color="#E9A92D"/><stop offset=".879" stop-color="#E7A625"/><stop offset="1" stop-color="#E7A523"/></linearGradient><path fill="url(#l)" stroke="#000" stroke-width="2" stroke-miterlimit="10" d="M402.834 341.785v5.63h46.26v11h-46.26v5.63h51.6v-22.26z"/><linearGradient id="m" gradientUnits="userSpaceOnUse" x1="428.634" y1="327.12" x2="428.634" y2="304.858"><stop offset="0" stop-color="#E7A523"/><stop offset=".121" stop-color="#E7A625"/><stop offset=".219" stop-color="#E9A92D"/><stop offset=".308" stop-color="#EDAF3C"/><stop offset=".392" stop-color="#F2B751"/><stop offset=".472" stop-color="#F9C26B"/><stop offset=".5" stop-color="#FEC775"/><stop offset=".528" stop-color="#F9C26B"/><stop offset=".608" stop-color="#F2B751"/><stop offset=".692" stop-color="#EDAF3C"/><stop offset=".781" stop-color="#E9A92D"/><stop offset=".879" stop-color="#E7A625"/><stop offset="1" stop-color="#E7A523"/></linearGradient><path fill="url(#m)" stroke="#000" stroke-width="2" stroke-miterlimit="10" d="M402.834 304.858v5.47h46.26v11.002h-46.26v5.79h51.6v-22.262z"/><linearGradient id="n" gradientUnits="userSpaceOnUse" x1="428.709" y1="289.981" x2="428.709" y2="267.719"><stop offset="0" stop-color="#E7A523"/><stop offset=".121" stop-color="#E7A625"/><stop offset=".219" stop-color="#E9A92D"/><stop offset=".308" stop-color="#EDAF3C"/><stop offset=".392" stop-color="#F2B751"/><stop offset=".472" stop-color="#F9C26B"/><stop offset=".5" stop-color="#FEC775"/><stop offset=".528" stop-color="#F9C26B"/><stop offset=".608" stop-color="#F2B751"/><stop offset=".692" stop-color="#EDAF3C"/><stop offset=".781" stop-color="#E9A92D"/><stop offset=".879" stop-color="#E7A625"/><stop offset="1" stop-color="#E7A523"/></linearGradient><path fill="url(#n)" stroke="#000" stroke-width="2" stroke-miterlimit="10" d="M402.91 267.72v5.523h47.016v11H402.91v5.737h51.6v-22.26z"/><linearGradient id="o" gradientUnits="userSpaceOnUse" x1="428.709" y1="252.841" x2="428.709" y2="230.58"><stop offset="0" stop-color="#E7A523"/><stop offset=".121" stop-color="#E7A625"/><stop offset=".219" stop-color="#E9A92D"/><stop offset=".308" stop-color="#EDAF3C"/><stop offset=".392" stop-color="#F2B751"/><stop offset=".472" stop-color="#F9C26B"/><stop offset=".5" stop-color="#FEC775"/><stop offset=".528" stop-color="#F9C26B"/><stop offset=".608" stop-color="#F2B751"/><stop offset=".692" stop-color="#EDAF3C"/><stop offset=".781" stop-color="#E9A92D"/><stop offset=".879" stop-color="#E7A625"/><stop offset="1" stop-color="#E7A523"/></linearGradient><path fill="url(#o)" stroke="#000" stroke-width="2" stroke-miterlimit="10" d="M402.91 230.58v5.577h47.016v11H402.91v5.684h51.6v-22.26z"/><linearGradient id="p" gradientUnits="userSpaceOnUse" x1="428.634" y1="215.702" x2="428.634" y2="193.441"><stop offset="0" stop-color="#E7A523"/><stop offset=".121" stop-color="#E7A625"/><stop offset=".219" stop-color="#E9A92D"/><stop offset=".308" stop-color="#EDAF3C"/><stop offset=".392" stop-color="#F2B751"/><stop offset=".472" stop-color="#F9C26B"/><stop offset=".5" stop-color="#FEC775"/><stop offset=".528" stop-color="#F9C26B"/><stop offset=".608" stop-color="#F2B751"/><stop offset=".692" stop-color="#EDAF3C"/><stop offset=".781" stop-color="#E9A92D"/><stop offset=".879" stop-color="#E7A625"/><stop offset="1" stop-color="#E7A523"/></linearGradient><path fill="url(#p)" stroke="#000" stroke-width="2" stroke-miterlimit="10" d="M402.834 193.44v5.63h46.26v11.002h-46.26v5.63h51.6v-22.26z"/><linearGradient id="q" gradientUnits="userSpaceOnUse" x1="91.968" y1="279.702" x2="438.672" y2="279.702"><stop offset="0" stop-color="#E6E7E8"/><stop offset=".134" stop-color="#E4E5E6"/><stop offset=".241" stop-color="#DBDDDE"/><stop offset=".34" stop-color="#CDCFD1"/><stop offset=".432" stop-color="#BABCBE"/><stop offset=".5" stop-color="#A7A9AC"/><stop offset=".568" stop-color="#BABCBE"/><stop offset=".66" stop-color="#CDCFD1"/><stop offset=".759" stop-color="#DBDDDE"/><stop offset=".866" stop-color="#E4E5E6"/><stop offset="1" stop-color="#E6E7E8"/></linearGradient><path fill="url(#q)" stroke="#000" stroke-width="6" stroke-miterlimit="10" d="M265.32 185.035H91.97V374.37h139.765l16.338-13.48s-1.517.083 17.25.083 17.25-.082 17.25-.082 6.354 13.48 16.337 13.48h139.766V185.035H265.32z"/><linearGradient id="r" gradientUnits="userSpaceOnUse" x1="101.91" y1="272.916" x2="265.821" y2="272.916"><stop offset="0" stop-color="#E7A523"/><stop offset=".121" stop-color="#E7A625"/><stop offset=".219" stop-color="#E9A92D"/><stop offset=".308" stop-color="#EDAF3C"/><stop offset=".392" stop-color="#F2B751"/><stop offset=".472" stop-color="#F9C26B"/><stop offset=".5" stop-color="#FEC775"/><stop offset=".528" stop-color="#F9C26B"/><stop offset=".608" stop-color="#F2B751"/><stop offset=".692" stop-color="#EDAF3C"/><stop offset=".781" stop-color="#E9A92D"/><stop offset=".879" stop-color="#E7A625"/><stop offset="1" stop-color="#E7A523"/></linearGradient><path fill="url(#r)" stroke="#000" stroke-width="2" stroke-miterlimit="10" d="M244.715 369.224c-1.05-1.96-25.227-4.577-41.057-4.795-15.83-.22-38.558 1.09-101.748.292V196.194l30.613-19.584v165.812H265.82v26.803h-21.105"/><path fill="none" stroke="#000" stroke-width="2" stroke-miterlimit="10" d="M255.553 357.814c-.955-4.283-22.94-9.992-37.34-10.467-14.397-.477-35.067 2.378-92.536.64V182.125"/><path fill="none" stroke="#000" stroke-width="2" stroke-miterlimit="10" d="M250.99 361.93c-.98-3.635-23.546-8.483-38.323-8.888-14.777-.404-35.99 2.02-94.974.545v-167.09"/><path fill="none" stroke="#000" stroke-width="2" stroke-miterlimit="10" d="M247.948 365.2c-1.008-2.646-24.22-6.173-39.416-6.466-15.2-.293-37.018 1.47-97.685.396V191.44"/><linearGradient id="s" gradientUnits="userSpaceOnUse" x1="265.051" y1="272.916" x2="428.963" y2="272.916"><stop offset="0" stop-color="#E7A523"/><stop offset=".121" stop-color="#E7A625"/><stop offset=".219" stop-color="#E9A92D"/><stop offset=".308" stop-color="#EDAF3C"/><stop offset=".392" stop-color="#F2B751"/><stop offset=".472" stop-color="#F9C26B"/><stop offset=".5" stop-color="#FEC775"/><stop offset=".528" stop-color="#F9C26B"/><stop offset=".608" stop-color="#F2B751"/><stop offset=".692" stop-color="#EDAF3C"/><stop offset=".781" stop-color="#E9A92D"/><stop offset=".879" stop-color="#E7A625"/><stop offset="1" stop-color="#E7A523"/></linearGradient><path fill="url(#s)" stroke="#000" stroke-width="2" stroke-miterlimit="10" d="M286.157 369.224c1.05-1.96 25.23-4.577 41.06-4.795s38.558 1.09 101.747.292V196.194L398.35 176.61v165.812h-133.3v26.803h21.107"/><path fill="none" stroke="#000" stroke-width="2" stroke-miterlimit="10" d="M275.32 357.814c.954-4.283 22.942-9.992 37.34-10.467 14.397-.477 35.067 2.378 92.534.64V182.125"/><path fill="none" stroke="#000" stroke-width="2" stroke-miterlimit="10" d="M279.88 361.93c.983-3.635 23.55-8.483 38.327-8.888s35.99 2.02 94.973.545v-167.09"/><path fill="none" stroke="#000" stroke-width="2" stroke-miterlimit="10" d="M282.926 365.2c1.006-2.646 24.217-6.173 39.416-6.466s37.018 1.47 97.684.396V191.44"/><radialGradient id="t" cx="265.32" cy="264.873" r="112.75" gradientUnits="userSpaceOnUse"><stop offset="0" stop-color="#FFF"/><stop offset=".545" stop-color="#FCFBFA"/><stop offset=".742" stop-color="#F3F1EF"/><stop offset=".881" stop-color="#E7E3E1"/><stop offset=".994" stop-color="#D8D1CE"/><stop offset="1" stop-color="#D7CFCD"/></radialGradient><path fill="url(#t)" stroke="#000" stroke-width="2" stroke-miterlimit="10" d="M360.81 182.124c-19.585 0-30.993-4.563-48.298-4.563-15.98 0-43.135 6.485-47.19 7.476-4.06-.99-31.214-7.475-47.194-7.475-17.303 0-28.712 4.564-48.297 4.564s-37.306-5.514-37.306-5.514v165.812c58.983 2.084 80.198-1.34 94.973-.77 13.223.51 37.564 11.84 37.824 11.477.26.363 24.6-10.966 37.823-11.477 14.777-.57 35.99 2.853 94.973.77V176.61s-17.72 5.514-37.307 5.514z"/><path fill="none" stroke="#000" stroke-width="2" stroke-miterlimit="10" d="M265.32 185.035v168.093"/><radialGradient id="u" cx="265.319" cy="367.321" r="17.896" gradientTransform="matrix(0 -1 3 0 -836.6 632.6)" gradientUnits="userSpaceOnUse"><stop offset="0" stop-color="#FEC775"/><stop offset="1" stop-color="#E7A523"/></radialGradient><ellipse fill="url(#u)" stroke="#000" stroke-width="4" stroke-miterlimit="10" cx="265.319" cy="367.322" rx="21.162" ry="13.88"/><path d="M159.113 231.066v-.89h.648c.567 0 1.002-.147 1.305-.443.303-.296.526-.7.67-1.212.086-.335.13-1.344.13-3.025v-21.42c0-1.666-.054-2.707-.16-3.123-.105-.416-.32-.78-.64-1.093-.323-.313-.757-.47-1.305-.47h-.648v-.888h8.746c2.334 0 4.212.528 5.634 1.585 1.738 1.297 3.057 3.258 3.955 5.884.898 2.627 1.347 5.597 1.347 8.91 0 2.29-.22 4.4-.663 6.33-.44 1.93-1.013 3.52-1.714 4.778s-1.51 2.266-2.428 3.026c-.917.76-2.04 1.35-3.365 1.765-.586.19-1.508.287-2.767.287h-8.743zm7.45-30.716v25.408c0 1.345.04 2.17.116 2.474.076.305.205.537.388.697.26.24.634.36 1.124.36 1.604 0 2.83-.914 3.674-2.738 1.153-2.465 1.73-6.292 1.73-11.48 0-4.178-.395-7.516-1.182-10.014-.625-1.953-1.427-3.282-2.407-3.986-.692-.497-1.84-.738-3.444-.722zM188.076 200.375v13.256h.39c1.238 0 2.137-.647 2.694-1.944.557-1.297.913-3.21 1.066-5.74h.548v17.05h-.548c-.115-1.856-.358-3.377-.728-4.562-.37-1.185-.8-1.98-1.29-2.39s-1.2-.612-2.132-.612v9.174c0 1.793.045 2.89.137 3.29.09.4.262.73.512.984.25.256.653.384 1.21.384h1.167c1.825 0 3.288-.704 4.388-2.113 1.1-1.408 1.89-3.553 2.37-6.435h.533l-.88 10.35h-16.887v-.888h.648c.566 0 1.023-.168 1.37-.504.25-.224.44-.608.576-1.152.105-.383.158-1.392.158-3.025v-21.42c0-1.474-.024-2.378-.072-2.715-.096-.56-.274-.993-.533-1.297-.365-.448-.865-.672-1.5-.672h-.647v-.888h16.354v9.63h-.548c-.278-2.354-.67-4.042-1.174-5.067-.504-1.024-1.217-1.777-2.14-2.257-.538-.288-1.547-.432-3.026-.432h-2.016zM200.41 198.5h10.087v.89h-.504c-.76 0-1.28.132-1.563.396-.284.264-.485.628-.605 1.092-.12.465-.18 1.625-.18 3.482v15.946c0 2.914.132 4.843.396 5.788.265.945.7 1.73 1.305 2.354.605.625 1.37.937 2.29.937 1.058 0 1.958-.396 2.703-1.188.744-.792 1.302-1.885 1.67-3.278s.556-3.82.556-7.278v-13.28c0-1.457-.09-2.498-.273-3.122-.182-.625-.413-1.057-.69-1.297-.433-.368-1.043-.552-1.83-.552v-.888h6.757v.89h-.403c-.547 0-1.004.183-1.37.55-.364.37-.628.922-.79 1.658-.126.513-.19 1.433-.19 2.762v12.368c0 3.827-.15 6.588-.453 8.285-.302 1.697-1.04 3.258-2.21 4.683-1.173 1.425-2.772 2.137-4.8 2.137-1.69 0-2.996-.376-3.918-1.13-1.258-1.023-2.147-2.336-2.666-3.937-.52-1.6-.778-3.754-.778-6.46v-15.946c0-1.873-.063-3.038-.187-3.494-.124-.457-.34-.82-.647-1.093-.308-.272-.875-.4-1.7-.384v-.89zM234.89 197.757l.16 10.855h-.592c-.278-2.722-.963-4.91-2.053-6.568s-2.27-2.486-3.538-2.486c-.98 0-1.755.437-2.327 1.31-.572.872-.857 1.876-.857 3.013 0 .722.1 1.362.302 1.922.28.753.726 1.497 1.34 2.233.45.528 1.494 1.465 3.127 2.81 2.286 1.873 3.828 3.642 4.625 5.307.788 1.666 1.182 3.57 1.182 5.716 0 2.722-.637 5.063-1.91 7.024-1.273 1.96-2.89 2.942-4.85 2.942-.614 0-1.195-.104-1.743-.313-.547-.207-1.234-.6-2.06-1.176-.462-.32-.84-.48-1.14-.48-.25 0-.513.16-.79.48-.28.32-.505.81-.678 1.465h-.534v-12.297h.533c.42 3.458 1.236 6.096 2.44 7.913 1.207 1.817 2.506 2.726 3.898 2.726 1.076 0 1.933-.488 2.572-1.465.64-.977.958-2.113.958-3.41 0-.77-.123-1.513-.367-2.233-.244-.72-.617-1.405-1.116-2.053-.5-.647-1.383-1.492-2.65-2.533-1.778-1.457-3.056-2.698-3.834-3.723-.778-1.024-1.376-2.17-1.794-3.434-.418-1.265-.626-2.657-.626-4.18 0-2.593.57-4.802 1.714-6.627 1.143-1.825 2.584-2.738 4.323-2.738.634 0 1.25.128 1.845.384.45.19 1 .547 1.65 1.067.647.52 1.102.78 1.36.78.25 0 .448-.127.592-.383.144-.256.278-.873.403-1.85h.434zM152.408 264.128l-.637 11.43h-15.035v-.888h.562c.49 0 .887-.168 1.186-.504.217-.224.383-.608.5-1.152.092-.384.138-1.393.138-3.026v-21.42c0-1.666-.045-2.707-.137-3.123-.09-.416-.277-.78-.556-1.093-.28-.312-.655-.468-1.13-.468h-.562v-.89h9.03v.89h-.738c-.49 0-.887.168-1.187.504-.216.225-.387.608-.512 1.153-.092.385-.138 1.394-.138 3.027v20.75c0 1.665.05 2.725.15 3.18.1.458.295.798.587 1.022.208.144.712.215 1.51.215h1.412c.898 0 1.647-.304 2.247-.913.6-.608 1.118-1.57 1.555-2.882.437-1.313.85-3.25 1.242-5.812h.514zM163.198 242.538c2.697-.192 4.89 1.32 6.575 4.54 1.686 3.217 2.53 7.244 2.53 12.08 0 4.13-.63 7.764-1.887 10.902-1.666 4.163-4.017 6.244-7.056 6.244-3.047 0-5.403-1.985-7.068-5.956-1.315-3.138-1.973-6.86-1.973-11.167 0-4.834.854-8.864 2.565-12.09 1.71-3.227 3.815-4.744 6.313-4.552zm.15 1.537c-1.548 0-2.727 1.52-3.534 4.563-.658 2.498-.986 6.084-.986 10.76 0 5.555.508 9.66 1.523 12.32.71 1.856 1.7 2.785 2.973 2.785.857 0 1.573-.4 2.148-1.2.733-1.025 1.304-2.663 1.712-4.912.408-2.25.612-5.182.612-8.8 0-4.308-.208-7.53-.625-9.667-.418-2.138-.948-3.646-1.593-4.527s-1.39-1.32-2.23-1.32zM190.284 242.25v11.287h-.487c-.366-2.946-1.05-5.203-2.048-6.772-1-1.57-2.132-2.354-3.398-2.354-1.057 0-2.027.585-2.91 1.754-.882 1.168-1.528 2.698-1.936 4.587-.524 2.418-.787 5.108-.787 8.07 0 2.914.19 5.568.573 7.96.383 2.395.982 4.204 1.798 5.43s1.874 1.836 3.173 1.836c1.065 0 2.042-.448 2.93-1.345.885-.895 1.82-2.44 2.802-4.634v2.81c-.95 1.906-1.938 3.287-2.966 4.143-1.03.855-2.23 1.284-3.604 1.284-1.807 0-3.412-.697-4.814-2.09-1.403-1.392-2.485-3.393-3.247-6.003-.762-2.608-1.143-5.386-1.143-8.332 0-3.106.422-6.052 1.268-8.837.845-2.785 1.985-4.946 3.42-6.483s2.963-2.305 4.578-2.305c1.19 0 2.447.496 3.77 1.49.767.575 1.254.864 1.462.864.266 0 .497-.188.693-.564.195-.376.323-.973.38-1.79h.49zM192.282 242.994h8.74v.89h-.436c-.658 0-1.11.13-1.355.395s-.42.627-.523 1.09c-.104.466-.156 1.626-.156 3.483V264.8c0 2.914.116 4.843.345 5.788.23.945.605 1.73 1.13 2.354.525.625 1.187.937 1.986.937.917 0 1.697-.397 2.342-1.19s1.128-1.884 1.45-3.277c.32-1.393.48-3.818.48-7.277v-13.28c0-1.457-.08-2.498-.237-3.122-.158-.625-.358-1.057-.6-1.297-.375-.368-.903-.552-1.586-.552v-.89h5.856v.89h-.35c-.475 0-.87.184-1.187.552-.317.37-.546.92-.688 1.657-.108.513-.162 1.433-.162 2.762v12.368c0 3.827-.13 6.588-.394 8.285-.262 1.696-.9 3.257-1.917 4.682s-2.403 2.137-4.16 2.137c-1.464 0-2.597-.377-3.396-1.13-1.09-1.024-1.86-2.337-2.31-3.938-.45-1.6-.674-3.754-.674-6.46v-15.946c0-1.873-.054-3.038-.163-3.494-.108-.457-.295-.82-.562-1.093-.267-.273-.758-.4-1.474-.385v-.89zM226.287 242.994v8.814h-.45c-.266-2.033-.56-3.495-.886-4.383-.324-.89-.77-1.597-1.335-2.125-.316-.288-.87-.432-1.66-.432h-1.262v25.12c0 1.666.048 2.706.144 3.122.096.417.283.78.562 1.093.278.313.66.468 1.142.468h.562v.89h-8.867v-.89h.562c.49 0 .886-.167 1.186-.503.216-.224.387-.608.512-1.152.092-.384.138-1.393.138-3.026v-25.12h-1.224c-1.14 0-1.97.463-2.485 1.392-.725 1.297-1.183 3.146-1.374 5.548h-.474v-8.814h15.207zM227.81 242.994h8.742v.89h-.437c-.658 0-1.11.13-1.355.395s-.42.627-.524 1.09c-.104.466-.156 1.626-.156 3.483V264.8c0 2.914.115 4.843.344 5.788.23.945.605 1.73 1.13 2.354.525.625 1.187.937 1.986.937.916 0 1.696-.397 2.34-1.19s1.13-1.884 1.45-3.277c.32-1.393.48-3.818.48-7.277v-13.28c0-1.457-.08-2.498-.236-3.122-.158-.625-.358-1.057-.6-1.297-.375-.368-.903-.552-1.586-.552v-.89h5.857v.89h-.35c-.475 0-.87.184-1.187.552-.316.37-.545.92-.687 1.657-.107.513-.16 1.433-.16 2.762v12.368c0 3.827-.132 6.588-.395 8.285-.262 1.696-.9 3.257-1.917 4.682s-2.402 2.137-4.158 2.137c-1.465 0-2.598-.377-3.397-1.13-1.09-1.024-1.86-2.337-2.31-3.938-.45-1.6-.674-3.754-.674-6.46v-15.946c0-1.873-.055-3.038-.164-3.494-.108-.457-.295-.82-.562-1.093-.267-.273-.758-.4-1.474-.385v-.89zM257.694 242.25l.137 10.855h-.51c-.24-2.722-.835-4.91-1.78-6.568s-1.967-2.486-3.065-2.486c-.85 0-1.52.438-2.017 1.31-.496.873-.743 1.877-.743 3.014 0 .72.087 1.36.262 1.92.24.754.628 1.498 1.16 2.234.394.528 1.296 1.465 2.712 2.81 1.98 1.873 3.315 3.642 4.007 5.307.684 1.666 1.025 3.57 1.025 5.716 0 2.723-.553 5.064-1.656 7.025-1.103 1.96-2.503 2.942-4.2 2.942-.534 0-1.038-.104-1.513-.313-.474-.208-1.07-.6-1.786-1.177-.4-.32-.73-.48-.986-.48-.216 0-.444.16-.686.48-.24.32-.437.81-.587 1.465h-.462v-12.296h.462c.366 3.458 1.072 6.096 2.117 7.913 1.045 1.816 2.17 2.725 3.378 2.725.932 0 1.676-.488 2.23-1.465.553-.977.83-2.113.83-3.41 0-.77-.106-1.513-.32-2.233-.21-.72-.534-1.405-.966-2.053-.434-.648-1.2-1.493-2.3-2.534-1.54-1.457-2.646-2.698-3.32-3.723-.674-1.024-1.192-2.17-1.555-3.434-.36-1.265-.542-2.657-.542-4.18 0-2.593.495-4.802 1.486-6.627.99-1.825 2.24-2.738 3.747-2.738.55 0 1.083.128 1.6.384.39.192.867.548 1.43 1.068s.955.78 1.18.78c.217 0 .387-.127.512-.383s.242-.873.35-1.85h.372zM178.5 289.36v13.257h.39c1.24 0 2.138-.648 2.695-1.945.557-1.297.913-3.21 1.066-5.74h.55v17.05h-.55c-.114-1.856-.357-3.377-.727-4.562-.37-1.185-.8-1.98-1.29-2.39s-1.2-.612-2.132-.612v9.174c0 1.793.046 2.89.138 3.29.09.4.262.73.512.984.25.256.653.384 1.21.384h1.167c1.825 0 3.288-.704 4.388-2.113 1.1-1.41 1.89-3.554 2.37-6.436h.533l-.88 10.352h-16.887v-.89h.65c.565 0 1.022-.167 1.368-.503.25-.225.442-.61.577-1.153.105-.384.158-1.393.158-3.026v-21.42c0-1.473-.024-2.377-.072-2.714-.095-.56-.273-.993-.532-1.297-.365-.45-.865-.673-1.5-.673h-.647v-.89h16.355v9.63h-.548c-.278-2.353-.67-4.04-1.174-5.066-.504-1.023-1.217-1.776-2.14-2.256-.538-.288-1.547-.432-3.026-.432H178.5zM204.005 286.743l.158 10.855h-.59c-.28-2.722-.964-4.91-2.054-6.568s-2.27-2.486-3.54-2.486c-.978 0-1.754.437-2.326 1.31-.572.872-.857 1.876-.857 3.013 0 .72.1 1.36.302 1.92.278.754.725 1.498 1.34 2.234.45.53 1.493 1.466 3.126 2.81 2.286 1.874 3.828 3.643 4.625 5.308.79 1.666 1.183 3.57 1.183 5.716 0 2.722-.636 5.063-1.91 7.024-1.272 1.96-2.888 2.942-4.848 2.942-.615 0-1.196-.104-1.744-.313-.546-.208-1.233-.6-2.06-1.177-.46-.32-.84-.48-1.138-.48-.25 0-.514.16-.792.48-.28.32-.504.81-.677 1.465h-.533V308.5h.533c.422 3.457 1.237 6.095 2.442 7.912 1.206 1.817 2.505 2.726 3.897 2.726 1.076 0 1.933-.488 2.572-1.465.64-.977.958-2.113.958-3.41 0-.77-.123-1.513-.367-2.233-.245-.72-.618-1.405-1.117-2.053-.5-.648-1.383-1.493-2.65-2.534-1.778-1.457-3.056-2.698-3.834-3.723-.778-1.024-1.376-2.17-1.794-3.434-.418-1.265-.626-2.657-.626-4.18 0-2.593.57-4.802 1.714-6.627 1.143-1.826 2.584-2.74 4.323-2.74.635 0 1.25.13 1.846.385.45.192 1 .548 1.65 1.068.647.52 1.102.78 1.36.78.25 0 .448-.127.592-.383.144-.256.278-.873.403-1.85h.435zM225.172 287.487v8.814h-.52c-.307-2.032-.647-3.494-1.022-4.382-.375-.89-.89-1.597-1.542-2.125-.365-.288-1.004-.432-1.917-.432h-1.455v25.12c0 1.667.055 2.707.166 3.123.11.417.327.78.65 1.093.32.313.76.468 1.317.468h.648v.89h-10.23v-.89h.648c.566 0 1.023-.168 1.37-.504.25-.224.446-.608.59-1.152.105-.384.16-1.393.16-3.026v-25.12h-1.413c-1.316 0-2.272.464-2.868 1.393-.835 1.297-1.364 3.146-1.585 5.548h-.547v-8.814h17.552z"/><g><path d="M292.024 198.5l9.64 20.198v-14c0-1.954-.167-3.275-.503-3.964-.46-.928-1.233-1.376-2.32-1.345v-.89h6.456v.89c-.826.175-1.38.404-1.664.684-.283.28-.504.736-.664 1.37-.158.632-.236 1.716-.236 3.253v27.113h-.49l-13.213-27.113v20.7c0 1.874.255 3.14.77 3.795.515.657 1.103.984 1.765.984h.46v.89h-6.93v-.89c1.075-.016 1.825-.384 2.25-1.104.42-.72.632-1.945.632-3.674v-22.983l-.418-.864c-.413-.864-.778-1.432-1.095-1.704-.318-.272-.773-.424-1.37-.457v-.89h6.93zM317.385 198.045c3.11-.192 5.64 1.32 7.586 4.54 1.946 3.217 2.92 7.244 2.92 12.08 0 4.13-.726 7.764-2.177 10.902-1.922 4.163-4.635 6.244-8.14 6.244-3.517 0-6.235-1.984-8.157-5.955-1.518-3.138-2.277-6.86-2.277-11.167 0-4.835.987-8.865 2.962-12.092 1.973-3.226 4.4-4.743 7.283-4.55zm.172 1.537c-1.785 0-3.145 1.52-4.076 4.563-.76 2.498-1.138 6.084-1.138 10.76 0 5.555.586 9.66 1.758 12.32.816 1.856 1.96 2.785 3.43 2.785.988 0 1.814-.4 2.48-1.2.843-1.025 1.5-2.663 1.972-4.912s.707-5.183.707-8.802c0-4.307-.24-7.53-.722-9.666-.48-2.138-1.094-3.646-1.838-4.527s-1.602-1.32-2.573-1.32zM342.067 213.8c1.854.72 3.156 1.592 3.904 2.617 1.077 1.457 1.616 3.347 1.616 5.667 0 2.45-.592 4.475-1.773 6.076-1.45 1.938-3.56 2.906-6.324 2.906h-9.93v-.89c.903 0 1.515-.14 1.837-.42s.547-.644.678-1.092c.13-.448.193-1.553.193-3.314v-21.133c0-1.76-.064-2.87-.193-3.326-.13-.455-.357-.82-.686-1.092-.327-.272-.937-.408-1.83-.408v-.89h9.366c2.238 0 3.822.334 4.754.998.932.665 1.668 1.657 2.205 2.978.54 1.32.807 2.726.807 4.215 0 1.57-.34 2.967-1.02 4.19-.685 1.226-1.884 2.2-3.605 2.92zm-5.244 1.223v10.447l-.016 1.2c0 .866.133 1.518.396 1.96s.656.66 1.176.66c.767 0 1.476-.285 2.124-.854.648-.568 1.145-1.393 1.49-2.473.346-1.08.52-2.286.52-3.615 0-1.52-.21-2.885-.635-4.094-.423-1.21-1.005-2.054-1.743-2.534-.74-.48-1.845-.712-3.314-.697zm0-1.873c1.363 0 2.37-.256 3.018-.77.65-.51 1.147-1.23 1.493-2.16.346-.928.518-2.113.518-3.554s-.17-2.622-.51-3.542c-.34-.92-.83-1.62-1.462-2.1-.635-.48-1.652-.713-3.055-.698v12.824zM359.43 230.177v.89h-10.215v-.89h.648c.566 0 1.023-.168 1.37-.504.247-.224.44-.608.575-1.152.105-.383.158-1.392.158-3.025v-21.42c0-1.666-.053-2.707-.158-3.123-.105-.416-.32-.78-.643-1.093-.32-.313-.756-.47-1.303-.47h-.648v-.888h10.215v.89h-.65c-.565 0-1.02.167-1.366.503-.25.225-.447.608-.592 1.153-.105.384-.158 1.393-.158 3.026v21.42c0 1.667.055 2.707.166 3.123.11.417.326.78.648 1.093.32.313.756.468 1.303.468h.65zM373.97 197.757l.157 10.855h-.59c-.28-2.722-.965-4.91-2.055-6.568s-2.27-2.486-3.537-2.486c-.98 0-1.756.437-2.326 1.31-.573.872-.858 1.876-.858 3.013 0 .722.1 1.362.303 1.922.277.753.725 1.497 1.34 2.233.45.528 1.492 1.465 3.127 2.81 2.285 1.873 3.828 3.642 4.625 5.307.787 1.666 1.182 3.57 1.182 5.716 0 2.722-.638 5.063-1.91 7.024-1.272 1.96-2.89 2.942-4.85 2.942-.614 0-1.196-.104-1.743-.313s-1.234-.6-2.06-1.176c-.462-.32-.84-.48-1.14-.48-.25 0-.514.16-.793.48-.277.32-.504.81-.676 1.465h-.533v-12.297h.533c.422 3.458 1.236 6.096 2.44 7.913 1.206 1.817 2.507 2.726 3.9 2.726 1.075 0 1.933-.488 2.57-1.465s.958-2.113.958-3.41c0-.77-.12-1.513-.367-2.233-.245-.72-.618-1.405-1.118-2.053-.498-.647-1.383-1.492-2.65-2.533-1.777-1.457-3.055-2.698-3.832-3.723-.78-1.024-1.377-2.17-1.795-3.434-.418-1.265-.627-2.657-.627-4.18 0-2.593.572-4.802 1.715-6.627 1.143-1.825 2.584-2.738 4.322-2.738.635 0 1.25.128 1.846.384.452.19 1 .547 1.65 1.067.647.52 1.103.78 1.362.78.248 0 .445-.127.59-.383.145-.256.28-.873.404-1.85h.433zM325.006 274.67v.89H314.79v-.89h.65c.565 0 1.022-.168 1.368-.504.248-.224.44-.608.576-1.152.105-.384.158-1.393.158-3.026v-21.42c0-1.666-.053-2.707-.158-3.123-.105-.416-.32-.78-.643-1.093-.32-.312-.755-.468-1.302-.468h-.648v-.89h10.215v.89h-.648c-.566 0-1.02.168-1.367.504-.25.225-.447.608-.592 1.153-.105.385-.158 1.394-.158 3.027v21.42c0 1.667.055 2.707.166 3.123.11.417.326.78.648 1.093.32.313.756.468 1.303.468h.65zM333.034 242.994l9.64 20.197v-14c0-1.953-.17-3.274-.505-3.963-.462-.928-1.235-1.376-2.32-1.345v-.89h6.454v.89c-.826.176-1.38.405-1.664.685-.283.28-.504.736-.662 1.37-.158.632-.238 1.716-.238 3.253v27.113h-.49l-13.213-27.113v20.7c0 1.874.258 3.14.77 3.795.515.657 1.103.984 1.767.984h.46v.888h-6.93v-.89c1.075-.015 1.825-.383 2.247-1.103.423-.72.636-1.945.636-3.674V246.91l-.418-.864c-.414-.865-.78-1.433-1.096-1.705s-.773-.425-1.37-.458v-.89h6.932zM296.895 289.36v13.377h.563c.863 0 1.57-.216 2.117-.648s1.012-1.162 1.39-2.187c.38-1.024.628-2.41.743-4.155h.504v16.354h-.504c-.184-3.09-.68-5.127-1.492-6.112-.81-.984-1.73-1.477-2.758-1.477h-.563v9.966c0 1.665.055 2.705.166 3.12.11.418.327.782.65 1.094.32.313.755.468 1.302.468h.648v.89h-10.215v-.89h.648c.566 0 1.02-.168 1.367-.504.25-.224.443-.608.578-1.152.105-.384.158-1.393.158-3.026v-21.42c0-1.666-.053-2.707-.158-3.123-.107-.416-.32-.78-.643-1.093-.322-.312-.756-.468-1.303-.468h-.648v-.89h16.482v9.343h-.59c-.135-2.194-.48-3.82-1.03-4.876-.552-1.057-1.353-1.8-2.4-2.233-.575-.24-1.642-.36-3.198-.36h-1.813zM317.616 319.164v.89H307.4v-.89h.647c.566 0 1.023-.168 1.37-.504.25-.224.44-.608.575-1.152.105-.384.158-1.393.158-3.026v-21.42c0-1.666-.053-2.707-.158-3.123-.105-.417-.318-.78-.64-1.094-.323-.312-.757-.468-1.306-.468h-.648v-.89h10.217v.89h-.648c-.566 0-1.023.168-1.37.504-.25.225-.446.608-.59 1.153-.106.384-.16 1.393-.16 3.026v21.422c0 1.666.058 2.706.167 3.122.11.417.326.78.648 1.093.322.313.758.468 1.305.468h.65zM336.922 308.62l-.734 11.432H318.84v-.89h.648c.566 0 1.02-.167 1.367-.503.25-.225.443-.61.578-1.153.105-.384.158-1.393.158-3.026v-21.42c0-1.665-.052-2.706-.157-3.122-.107-.416-.32-.78-.643-1.093-.322-.312-.756-.468-1.303-.468h-.648v-.89h10.417v.89h-.852c-.566 0-1.023.168-1.37.504-.25.226-.444.61-.59 1.154-.104.384-.157 1.393-.157 3.026v20.75c0 1.665.057 2.725.172 3.18.115.458.342.798.678 1.022.24.145.822.216 1.744.216h1.627c1.038 0 1.9-.304 2.593-.913.69-.608 1.29-1.57 1.795-2.882.504-1.313.982-3.25 1.434-5.812h.59zM348.782 319.164v.89h-10.215v-.89h.648c.566 0 1.023-.168 1.37-.504.247-.224.44-.608.575-1.152.105-.384.158-1.393.158-3.026v-21.42c0-1.666-.053-2.707-.158-3.123-.105-.417-.32-.78-.643-1.094-.32-.312-.756-.468-1.303-.468h-.648v-.89h10.215v.89h-.647c-.566 0-1.02.168-1.367.504-.25.225-.447.608-.592 1.153-.105.384-.158 1.393-.158 3.026v21.422c0 1.666.055 2.706.166 3.122.11.417.326.78.648 1.093.32.313.756.468 1.303.468h.65zM360.856 287.03c3.113-.19 5.643 1.322 7.588 4.54 1.945 3.218 2.918 7.245 2.918 12.08 0 4.13-.727 7.765-2.176 10.903-1.922 4.163-4.637 6.244-8.143 6.244-3.516 0-6.234-1.985-8.154-5.956-1.52-3.137-2.278-6.86-2.278-11.166 0-4.835.986-8.865 2.96-12.092 1.975-3.226 4.403-4.743 7.284-4.55zm.174 1.538c-1.787 0-3.146 1.52-4.078 4.563-.76 2.5-1.14 6.085-1.14 10.76 0 5.556.587 9.662 1.76 12.32.815 1.857 1.96 2.786 3.43 2.786.99 0 1.815-.4 2.478-1.2.846-1.025 1.504-2.663 1.975-4.912s.705-5.183.705-8.802c0-4.307-.24-7.53-.72-9.666-.48-2.138-1.093-3.646-1.837-4.527s-1.603-1.322-2.573-1.322z"/></g><radialGradient id="v" cx="125.587" cy="84.769" r="66.897" gradientUnits="userSpaceOnUse"><stop offset="0" stop-color="#E7A523"/><stop offset=".121" stop-color="#E7A625"/><stop offset=".219" stop-color="#E9A92D"/><stop offset=".308" stop-color="#EDAF3C"/><stop offset=".392" stop-color="#F2B751"/><stop offset=".472" stop-color="#F9C26B"/><stop offset=".5" stop-color="#FEC775"/><stop offset=".528" stop-color="#F9C26B"/><stop offset=".608" stop-color="#F2B751"/><stop offset=".692" stop-color="#EDAF3C"/><stop offset=".781" stop-color="#E9A92D"/><stop offset=".879" stop-color="#E7A625"/><stop offset="1" stop-color="#E7A523"/></radialGradient><path fill="url(#v)" stroke="#000" stroke-width="2" stroke-miterlimit="10" d="M176.558 77.367V61.435H161.74v15.932h-28.738v-28.74h15.932V33.81h-15.932V17.878h-14.818V33.81h-15.932v14.818h15.932v28.726h-28.75v-15.93H74.617v15.93H58.684v14.818h15.933v15.932h14.817V92.172h28.738v28.74h-15.93v14.817h15.93v15.93h14.818v-15.93h15.932v-14.82H132.99V92.186h28.75v15.93h14.818v-15.93h15.932V77.367z"/><radialGradient id="w" cx="398.024" cy="84.769" r="66.897" gradientUnits="userSpaceOnUse"><stop offset="0" stop-color="#E7A523"/><stop offset=".121" stop-color="#E7A625"/><stop offset=".219" stop-color="#E9A92D"/><stop offset=".308" stop-color="#EDAF3C"/><stop offset=".392" stop-color="#F2B751"/><stop offset=".472" stop-color="#F9C26B"/><stop offset=".5" stop-color="#FEC775"/><stop offset=".528" stop-color="#F9C26B"/><stop offset=".608" stop-color="#F2B751"/><stop offset=".692" stop-color="#EDAF3C"/><stop offset=".781" stop-color="#E9A92D"/><stop offset=".879" stop-color="#E7A625"/><stop offset="1" stop-color="#E7A523"/></radialGradient><path fill="url(#w)" stroke="#000" stroke-width="2" stroke-miterlimit="10" d="M448.995 77.367V61.435h-14.818v15.932H405.44v-28.74h15.932V33.81H405.44V17.878h-14.818V33.81H374.69v14.818h15.932v28.726h-28.75v-15.93h-14.82v15.93h-15.93v14.818h15.93v15.932h14.82V92.172h28.738v28.74h-15.932v14.817h15.932v15.93h14.817v-15.93h15.933v-14.82h-15.933V92.186h28.75v15.93h14.818v-15.93h15.932V77.367z"/><radialGradient id="x" cx="261.805" cy="471.522" r="66.898" gradientUnits="userSpaceOnUse"><stop offset="0" stop-color="#E7A523"/><stop offset=".121" stop-color="#E7A625"/><stop offset=".219" stop-color="#E9A92D"/><stop offset=".308" stop-color="#EDAF3C"/><stop offset=".392" stop-color="#F2B751"/><stop offset=".472" stop-color="#F9C26B"/><stop offset=".5" stop-color="#FEC775"/><stop offset=".528" stop-color="#F9C26B"/><stop offset=".608" stop-color="#F2B751"/><stop offset=".692" stop-color="#EDAF3C"/><stop offset=".781" stop-color="#E9A92D"/><stop offset=".879" stop-color="#E7A625"/><stop offset="1" stop-color="#E7A523"/></radialGradient><path fill="url(#x)" stroke="#000" stroke-width="2" stroke-miterlimit="10" d="M312.776 464.12v-15.932h-14.818v15.932H269.22v-28.74h15.933v-14.817H269.22V404.63h-14.817v15.933H238.47v14.818h15.933v28.727h-28.75v-15.93h-14.82v15.93h-15.93v14.818h15.93v15.932h14.82v-15.932h28.738v28.74h-15.93v14.816h15.93v15.935h14.818V522.48h15.933v-14.815H269.21v-28.727h28.75v15.93h14.818v-15.93h15.932V464.12z"/></svg>