<?xml version="1.0" encoding="utf-8"?>
<!-- Generator: Adobe Illustrator 15.0.0, SVG Export Plug-In  -->
<!DOCTYPE svg PUBLIC "-//W3C//DTD SVG 1.1//EN" "http://www.w3.org/Graphics/SVG/1.1/DTD/svg11.dtd" [
	<!ENTITY ns_flows "http://ns.adobe.com/Flows/1.0/">
]>
<svg version="1.1"
	 xmlns="http://www.w3.org/2000/svg" xmlns:xlink="http://www.w3.org/1999/xlink" xmlns:a="http://ns.adobe.com/AdobeSVGViewerExtensions/3.0/"
	 x="0px" y="0px" width="524px" height="659px" viewBox="0 -0.5 524 659" enable-background="new 0 -0.5 524 659"
	 xml:space="preserve">
<defs>
</defs>
<linearGradient id="SVGID_3_" gradientUnits="userSpaceOnUse" x1="37.7886" y1="515.3037" x2="92.6829" y2="536.3757">
	<stop  offset="0" style="stop-color:#8B5E3C"/>
	<stop  offset="0.497" style="stop-color:#FDC060"/>
</linearGradient>
<path display="none" fill="url(#SVGID_3_)" stroke="#000000" stroke-width="3" stroke-miterlimit="10" d="M109.092,493.628l-72,70
	c0,0-13.53,0.171-11-15c2.529-15.171,23-55,23-55s1-8,21-9S109.092,493.628,109.092,493.628z"/>
<linearGradient id="SVGID_4_" gradientUnits="userSpaceOnUse" x1="430.9292" y1="536.376" x2="485.8235" y2="515.304">
	<stop  offset="0.503" style="stop-color:#FDC060"/>
	<stop  offset="1" style="stop-color:#8B5E3C"/>
</linearGradient>
<path display="none" fill="url(#SVGID_4_)" stroke="#000000" stroke-width="3" stroke-miterlimit="10" d="M414.52,493.628l72,70
	c0,0,13.529,0.171,11-15s-23-55-23-55s-1-8-21-9S414.52,493.628,414.52,493.628z"/>
<linearGradient id="SVGID_5_" gradientUnits="userSpaceOnUse" x1="1.5" y1="461.1279" x2="107.0923" y2="461.1279">
	<stop  offset="0" style="stop-color:#BCBEC0"/>
	<stop  offset="0.3333" style="stop-color:#E6E7E8"/>
</linearGradient>
<path display="none" fill="url(#SVGID_5_)" stroke="#000000" stroke-width="3" stroke-miterlimit="10" d="M2.092,456.628
	c0-18,7.316-28,35-28s51,8,51,8l19,57c0,0-71.883-16.141-90.941-9.07S2.092,456.628,2.092,456.628z"/>
<linearGradient id="SVGID_6_" gradientUnits="userSpaceOnUse" x1="416.52" y1="461.1279" x2="522.1118" y2="461.1279">
	<stop  offset="0.6316" style="stop-color:#E6E7E8"/>
	<stop  offset="0.6867" style="stop-color:#DBDCDD"/>
	<stop  offset="0.7932" style="stop-color:#CACBCD"/>
	<stop  offset="0.8984" style="stop-color:#BFC1C3"/>
	<stop  offset="1" style="stop-color:#BCBEC0"/>
</linearGradient>
<path display="none" fill="url(#SVGID_6_)" stroke="#000000" stroke-width="3" stroke-miterlimit="10" d="M521.52,456.628
	c0-18-7.316-28-35-28s-51,8-51,8l-19,57c0,0,71.883-16.141,90.941-9.07S521.52,456.628,521.52,456.628z"/>
<path display="none" fill="#FBB040" stroke="#000000" stroke-width="3" stroke-miterlimit="10" d="M2.092,456.628c0,0,8,6,23,6
	c9.731,10.067,11,32,11,58.345c-25-1.345-34-19.345-34-48.345S2.092,456.628,2.092,456.628z"/>
<path display="none" fill="#FBB040" stroke="#000000" stroke-width="3" stroke-miterlimit="10" d="M521.52,456.628c0,0-8,6-23,6
	c-9.731,10.067-11,32-11,58.345c25-1.345,34-19.345,34-48.345S521.52,456.628,521.52,456.628z"/>
<g>
	<defs>
		<path id="SVGID_2_" d="M261.113,3.5H10.092c0,0,0,138.937,0,258.714c0,161.081,140,299,251.714,341
			c118.286-39,251.714-175.92,251.714-337c0-119.778,0-262.714,0-262.714H261.113z"/>
	</defs>
	<use xlink:href="#SVGID_2_"  overflow="visible" fill="#BE1E2D"/>
	<clipPath id="SVGID_7_">
		<use xlink:href="#SVGID_2_"  overflow="visible"/>
	</clipPath>
	<use xlink:href="#SVGID_2_"  overflow="visible" fill="none" stroke="#000000" stroke-width="7" stroke-miterlimit="10"/>
</g>
<radialGradient id="SVGID_8_" cx="261.8062" cy="575.5225" r="180.5935" gradientUnits="userSpaceOnUse">
	<stop  offset="0.6316" style="stop-color:#FFFFFF"/>
	<stop  offset="0.7049" style="stop-color:#F4F5F5"/>
	<stop  offset="0.8549" style="stop-color:#EAEBEB"/>
	<stop  offset="1" style="stop-color:#E6E7E8"/>
</radialGradient>
<path display="none" fill="url(#SVGID_8_)" stroke="#000000" stroke-width="3" stroke-miterlimit="10" d="M474.52,493.628
	c0,0-35,101-212.714,101s-212.714-101-212.714-101s-32,43-29,61S84.52,657.416,261.806,657.416S500.52,572.628,503.52,554.628
	S474.52,493.628,474.52,493.628z"/>
<g display="none">
	<path fill="none" d="M20.092,554.628c3,18,64.428,102.788,241.714,102.788S500.52,572.628,503.52,554.628"/>
	<path display="inline" d="M58.17,557.796l1.968-0.403l1.307,1.382l10.12-7.123c-0.281-0.464-0.494-0.771-0.636-0.922
		c-1.142-1.208-2.714-1.67-4.716-1.386c-2.002,0.285-3.851,1.229-5.546,2.831l-0.217,0.205l-3.55-0.805
		c6.417-5.409,12.402-5.177,17.956,0.697l0.579,0.612l-11.74,8.269l6.607,6.987l5.268-3.715c3.463-2.445,6.696-3.861,9.698-4.247
		c3.002-0.386,5.338,0.304,7.009,2.07c0.657,0.695,1.113,1.437,1.369,2.225l-3.231,1.21c0.174-1.638-0.038-2.773-0.638-3.408
		c-0.757-0.8-1.822-1.005-3.195-0.614c-1.374,0.391-3.327,1.461-5.86,3.213l-13.311,9.153c-2.855,1.971-4.686,3.337-5.492,4.099
		c-1.064,1.007-1.197,1.933-0.397,2.778c0.35,0.37,0.906,0.845,1.669,1.425l-1.116,0.776l-6.788-4.415l13.603-9.559l-6.606-6.987
		l-2.102,1.473c-3.333,2.336-6.61,3.646-9.833,3.935c-3.223,0.287-5.727-0.514-7.511-2.4c-1.321-1.397-1.842-3.128-1.563-5.193
		l3.732-0.525c-1.02,2.337-0.874,4.2,0.44,5.59c1.892,2,5.343,1.24,10.353-2.281l4.235-2.975L58.17,557.796z"/>
	<path display="inline" d="M79.308,597.266l4.582-4.81c-4.404,2.253-7.684,2.618-9.839,1.095c-1.502-1.061-2.191-2.624-2.069-4.688
		c0.123-2.064,1.034-4.299,2.733-6.703c1.059-1.499,3.043-3.763,5.954-6.793c2.911-3.029,5.764-5.803,8.561-8.32
		c-0.367-0.398-0.635-0.658-0.805-0.778c-1.4-0.989-3.049-1.131-4.947-0.426c-1.898,0.706-3.565,2.075-5.002,4.107l-3.639-0.089
		c5.208-6.579,11.071-7.565,17.588-2.961l0.917,0.647c-3.12,2.777-6.236,5.783-9.349,9.019c-3.113,3.234-5.281,5.718-6.504,7.448
		c-1.33,1.882-2.099,3.547-2.307,4.993c-0.208,1.447,0.176,2.516,1.152,3.205c1.026,0.726,2.467,0.838,4.323,0.337
		c1.855-0.501,3.911-1.564,6.168-3.192l15.008-15.81l3.197,1.605l-4.92,4.91l-10.637,11.191c-1.948,2.055-3.16,3.419-3.636,4.093
		c-0.887,1.255-0.766,2.281,0.363,3.078c0.399,0.282,0.949,0.584,1.651,0.905l-0.954,0.998L79.308,597.266z"/>
	<path display="inline" d="M89.419,600.879l3.374-1.85c-0.086,2.582,0.712,4.281,2.395,5.098c1.103,0.535,2.391,0.369,3.862-0.498
		c1.471-0.867,2.874-2.282,4.207-4.244l11.497-16.954c-0.427-0.333-0.734-0.545-0.921-0.636c-1.542-0.748-3.193-0.62-4.951,0.385
		c-1.758,1.006-3.18,2.628-4.266,4.868l-3.605,0.504c1.928-3.476,4.317-5.747,7.168-6.815c2.851-1.068,5.87-0.829,9.058,0.718
		l1.136,0.551c-1.468,7.431-3.493,14.82-6.075,22.168l19.061-15.87l3.234,0.976l-4.055,5.646l-9.894,14.576
		c-0.873,1.301-1.511,2.366-1.915,3.198c-0.546,1.126-0.319,1.932,0.681,2.417c0.496,0.24,1.193,0.492,2.094,0.755l-0.778,1.141
		l-7.84-1.479l15.756-23.235l-19.798,16.39l-1.593-0.394l0.27-0.557c2.427-5.005,4.548-11.651,6.363-19.941l-4.949,7.275
		c-6.089,8.983-11.49,12.332-16.202,10.047C91.087,604.32,89.982,602.906,89.419,600.879z"/>
	<path display="inline" d="M123.401,617.014l2.912-2.09c0.281,2.282,1.181,3.676,2.7,4.181c1.449,0.482,3.087,0.108,4.914-1.12
		c1.827-1.229,4.328-3.654,7.503-7.275l11.39-12.961c-1.017-0.533-1.909-0.928-2.678-1.184c-2.061-0.686-3.885-0.508-5.474,0.532
		c-1.588,1.039-2.819,2.87-3.69,5.491l-3.553,1.002c1.032-2.478,2.249-4.406,3.649-5.787c1.552-1.539,3.095-2.489,4.627-2.851
		c1.533-0.36,3.545-0.254,6.037,0.32c0.497,0.12,1.251,0.288,2.263,0.505l3.266,0.253l-2.052,6.812l-3.799,14.286
		c-0.885,3.321-1.32,5.558-1.304,6.711c0.016,1.153,0.492,1.886,1.429,2.197c0.167,0.056,0.758,0.207,1.771,0.453l-0.637,1.272
		l-7.3-0.719l2.713-10.184l-8.06-2.681c-2.788,3.181-5.123,5.278-7.004,6.294c-1.882,1.016-3.784,1.204-5.707,0.564
		C125.495,620.431,124.189,619.09,123.401,617.014z M141.165,612.892l7.321,2.436l4.116-15.536L141.165,612.892z"/>
	<path display="inline" d="M154.335,626.848l2.844-2.565c0.529,2.534,1.697,3.999,3.504,4.396c1.208,0.265,2.425-0.192,3.652-1.373
		c1.227-1.18,2.261-2.886,3.102-5.119l7.217-19.148c-0.494-0.224-0.847-0.36-1.06-0.406c-1.665-0.365-3.234,0.146-4.709,1.533
		s-2.479,3.298-3.012,5.729l-3.388,1.332c1.01-3.638,2.762-6.363,5.256-8.175c2.493-1.813,5.272-2.383,8.337-1.71l1.461,0.32
		c0.241,3.897,0.758,8.11,1.551,12.64l0.9,5.134c0.639,3.534,1.054,6.37,1.245,8.509l4.394-11.662
		c1.51-4.023,3.261-7.008,5.251-8.952s4.041-2.685,6.152-2.222c0.751,0.165,1.444,0.521,2.08,1.067l-1.713,2.573
		c-0.69-1.17-1.451-1.847-2.283-2.029c-2.192-0.481-4.237,1.809-6.134,6.868l-5.727,15.192l-2.069,6.013l-2.15,0.489
		c-0.021-1.649-0.443-4.815-1.267-9.496l-1.746-9.864c-0.464-2.636-0.813-4.977-1.044-7.022l-2.917,7.771
		c-1.854,4.909-3.944,8.535-6.272,10.879c-2.328,2.344-4.735,3.243-7.222,2.697C156.822,629.862,155.411,628.73,154.335,626.848z"/>
	<path display="inline" d="M186.746,635.598l2.777-2.779l1.033,0.154c1.171,0.174,2.115-0.221,2.832-1.186s1.524-2.955,2.425-5.971
		l5.078-16.848l-4.178-0.622l2.7-2.791l10.036,1.495l-2.809,2.774l-2.513-0.374l-4.399,14.618c-1.349,4.474-3.59,7.671-6.723,9.592
		l5.965,1.104l-2.685,2.793L186.746,635.598z"/>
	<path display="inline" d="M223.341,638.195l2.369-3.01c0.951,2.407,2.35,3.652,4.198,3.737c1.235,0.056,2.357-0.602,3.367-1.973
		c1.009-1.37,1.738-3.228,2.188-5.571l3.865-20.094c-0.524-0.138-0.895-0.212-1.113-0.222c-1.702-0.078-3.163,0.692-4.38,2.31
		c-1.218,1.618-1.883,3.67-1.997,6.157l-3.113,1.887c0.379-3.756,1.644-6.738,3.794-8.947c2.149-2.209,4.792-3.242,7.927-3.099
		l1.495,0.067c0.898,3.801,2.122,7.865,3.672,12.193l1.757,4.907c1.229,3.375,2.119,6.1,2.67,8.175l2.352-12.238
		c0.807-4.222,2.025-7.459,3.658-9.713c1.631-2.254,3.526-3.331,5.686-3.232c0.769,0.034,1.512,0.269,2.23,0.699l-1.252,2.827
		c-0.879-1.037-1.744-1.575-2.595-1.614c-2.242-0.102-3.869,2.501-4.881,7.809l-3.067,15.944l-1.02,6.276l-2.036,0.847
		c-0.3-1.622-1.253-4.671-2.859-9.144l-3.393-9.426c-0.905-2.519-1.645-4.767-2.22-6.744l-1.558,8.153
		c-0.994,5.152-2.44,9.08-4.336,11.785c-1.897,2.704-4.117,3.998-6.66,3.883C226.304,640.744,224.721,639.868,223.341,638.195z"/>
	<path display="inline" d="M256.704,641.48l2.307-3.18l1.045-0.011c1.185-0.011,2.055-0.549,2.61-1.614s1.043-3.158,1.46-6.277
		l2.373-17.436l-4.224,0.041l2.229-3.18l10.146-0.098l-2.338,3.181l-2.541,0.024l-2.052,15.128
		c-0.632,4.63-2.344,8.139-5.137,10.526l6.064,0.155l-2.214,3.18L256.704,641.48z"/>
	<path display="inline" d="M270.513,641.451l2.096-3.237l0.903-0.033c1.235-0.046,2.12-0.569,2.655-1.571s0.958-2.918,1.27-5.748
		l1.187-10.976c0.348-3.244,1.324-5.946,2.929-8.104c1.605-2.159,3.477-3.278,5.616-3.357c0.955-0.035,2.078,0.394,3.369,1.285
		l-0.583,5.338l-0.996,0.037c0.018-0.37,0.021-0.677,0.013-0.919c-0.098-2.644-1.144-3.929-3.137-3.855
		c-1.963,0.072-3.191,2.417-3.687,7.033l-1.071,9.861c-0.317,2.958-0.828,5.24-1.533,6.847s-1.84,3.05-3.404,4.332l8.714-0.129
		c2.503-0.093,4.675-0.97,6.516-2.633l-0.174,1.608c-1.39,1.816-2.44,2.983-3.154,3.501s-1.673,0.798-2.878,0.843L270.513,641.451z"
		/>
	<path display="inline" d="M314.041,637.124l1.666-3.174c1.274,1.914,2.704,2.757,4.287,2.527c1.512-0.219,2.809-1.286,3.892-3.204
		c1.082-1.917,2.23-5.206,3.446-9.866l4.372-16.691c-1.147-0.021-2.122,0.026-2.924,0.143c-2.149,0.311-3.701,1.287-4.655,2.929
		s-1.233,3.829-0.838,6.563l-2.727,2.488c-0.188-2.677,0.035-4.946,0.669-6.809c0.697-2.071,1.65-3.612,2.858-4.622
		c1.208-1.009,3.055-1.815,5.54-2.42c0.497-0.115,1.247-0.303,2.249-0.563l3.033-1.237l1.219,7.008l3.008,14.474
		c0.696,3.365,1.311,5.561,1.842,6.584c0.531,1.022,1.285,1.464,2.263,1.322c0.175-0.025,0.771-0.154,1.786-0.388l0.001,1.423
		l-6.848,2.63l-2.139-10.32l-8.407,1.217c-1.066,4.093-2.213,7.015-3.44,8.766c-1.227,1.752-2.843,2.772-4.848,3.063
		C317.443,639.24,315.675,638.626,314.041,637.124z M328.072,625.478l7.636-1.104l-3.284-15.733L328.072,625.478z"/>
	<path display="inline" d="M345.932,634.058l1.473-3.563l0.883-0.197c1.206-0.27,1.981-0.945,2.326-2.027
		c0.344-1.082,0.412-3.043,0.204-5.883l-0.827-11.009c-0.247-3.254,0.223-6.088,1.408-8.502c1.187-2.415,2.823-3.854,4.913-4.321
		c0.933-0.208,2.115,0.009,3.547,0.651l0.396,5.355l-0.974,0.218c-0.051-0.368-0.102-0.67-0.154-0.906
		c-0.576-2.582-1.838-3.656-3.785-3.222c-1.917,0.428-2.699,2.956-2.348,7.585l0.738,9.893c0.225,2.967,0.137,5.304-0.265,7.012
		c-0.401,1.707-1.255,3.333-2.561,4.878l8.545-1.71c2.444-0.545,4.421-1.803,5.93-3.771l0.12,1.612
		c-1.035,2.039-1.857,3.377-2.465,4.016c-0.608,0.639-1.501,1.089-2.677,1.352L345.932,634.058z"/>
	<path display="inline" d="M366.872,629.282l1.396-3.673l1.005-0.282c1.141-0.32,1.84-1.067,2.099-2.241
		c0.258-1.173,0.181-3.32-0.231-6.44l-2.266-17.449l-4.066,1.143l1.321-3.651l9.768-2.746l-1.426,3.682l-2.446,0.688l1.973,15.139
		c0.601,4.633-0.135,8.468-2.207,11.503l5.895-1.436l-1.306,3.647L366.872,629.282z"/>
	<path display="inline" d="M382.905,624.747l1.138-3.758l0.251-0.087c1.492-0.518,2.373-1.298,2.645-2.34
		c0.271-1.041,0.114-3.071-0.471-6.088l-3.708-19.342c-2.021,0.702-3.398,2.012-4.13,3.929c-0.731,1.918-0.683,4.073,0.147,6.465
		l0.153,0.443l-2.199,2.887c-1.167-4.157-1.043-7.573,0.372-10.247c1.415-2.675,4.174-4.724,8.277-6.146l8.658-3.004l0.669,6.159
		l-0.928,0.322c-0.104-0.552-0.228-1.035-0.372-1.452c-0.368-1.062-1.066-1.64-2.095-1.735c-1.028-0.095-2.716,0.265-5.062,1.079
		l-0.457,0.158l2.433,12.526l6.567-2.278l-0.782,2.597c-2.363,0.384-3.948,0.716-4.753,0.995l-0.736,0.255l0.445,2.281
		c0.504,2.562,0.652,4.679,0.446,6.351c-0.206,1.673-0.841,3.482-1.902,5.43l7.2-2.07l1.567-0.476c1.6-0.555,2.838-1.82,3.715-3.796
		l0.324,1.694c-0.903,3.009-2.121,4.778-3.652,5.31l-0.684,0.215L382.905,624.747z"/>
	<path display="inline" d="M402.796,615.879l0.683-3.769c1.968,1.682,3.788,2.127,5.46,1.336c1.117-0.528,1.802-1.635,2.051-3.318
		c0.25-1.684,0.025-3.666-0.675-5.948l-5.994-19.564c-0.528,0.124-0.891,0.232-1.088,0.325c-1.541,0.729-2.47,2.093-2.788,4.093
		c-0.319,2,0.054,4.125,1.118,6.375l-1.867,3.125c-1.424-3.496-1.703-6.724-0.838-9.683c0.865-2.958,2.716-5.108,5.553-6.45
		l1.353-0.64c2.573,2.938,5.559,5.956,8.955,9.055l3.851,3.513c2.667,2.405,4.729,4.396,6.188,5.973l-3.653-11.915
		c-1.264-4.107-1.703-7.539-1.316-10.295c0.387-2.755,1.557-4.595,3.51-5.519c0.695-0.329,1.462-0.471,2.299-0.427l0.217,3.084
		c-1.262-0.505-2.277-0.575-3.048-0.211c-2.028,0.96-2.247,4.021-0.655,9.186l4.756,15.524l2.038,6.022l-1.402,1.702
		c-1.025-1.293-3.295-3.54-6.809-6.741l-7.411-6.738c-1.979-1.803-3.686-3.442-5.12-4.92l2.441,7.933
		c1.534,5.019,2.097,9.167,1.688,12.444c-0.409,3.278-1.765,5.461-4.066,6.549C406.608,616.744,404.798,616.711,402.796,615.879z"/>
	<path display="inline" d="M453.062,591.197l-2.894-5.979c0.563,4.915-0.248,8.113-2.431,9.597c-1.521,1.033-3.227,1.13-5.117,0.29
		c-1.89-0.841-3.661-2.479-5.316-4.914c-1.031-1.519-2.454-4.172-4.268-7.961c-1.814-3.789-3.409-7.436-4.783-10.938
		c-0.503,0.204-0.84,0.364-1.012,0.481c-1.418,0.963-2.13,2.457-2.137,4.482c-0.006,2.024,0.69,4.066,2.089,6.126l-1.361,3.376
		c-4.33-7.188-3.195-13.023,3.406-17.508l0.928-0.631c1.504,3.896,3.224,7.87,5.159,11.921s3.499,6.953,4.689,8.706
		c1.295,1.906,2.583,3.211,3.865,3.914c1.281,0.703,2.416,0.719,3.404,0.047c1.04-0.706,1.651-2.016,1.835-3.929
		c0.183-1.912-0.092-4.211-0.822-6.896l-9.531-19.604l2.627-2.43l2.869,6.332l6.741,13.89c1.239,2.546,2.092,4.16,2.555,4.843
		c0.863,1.271,1.866,1.518,3.01,0.741c0.404-0.274,0.88-0.684,1.427-1.228l0.601,1.243L453.062,591.197z"/>
	<path display="inline" d="M460.378,583.184l-0.762-3.771c2.439,0.851,4.3,0.595,5.579-0.77c0.839-0.894,1.063-2.173,0.674-3.836
		c-0.391-1.662-1.324-3.422-2.801-5.278l-12.766-16.02c-0.446,0.309-0.74,0.539-0.882,0.69c-1.174,1.25-1.542,2.863-1.105,4.841
		c0.438,1.978,1.563,3.817,3.378,5.521l-0.591,3.592c-2.744-2.875-4.202-5.832-4.374-8.872c-0.172-3.039,0.955-5.851,3.38-8.435
		l0.863-0.92c6.658,3.611,13.11,7.743,19.357,12.395l-9.48-22.919l1.894-2.797l4.184,5.551l10.974,13.782
		c0.981,1.22,1.81,2.146,2.483,2.779c0.913,0.856,1.749,0.879,2.511,0.068c0.376-0.401,0.824-0.992,1.343-1.774l0.857,1.082
		l-3.744,7.046l-17.496-21.955l9.758,23.777l-0.85,1.404l-0.451-0.424c-4.056-3.806-9.771-7.809-17.146-12.008l5.474,6.89
		c6.766,8.486,8.356,14.639,4.772,18.457C464.161,582.615,462.483,583.249,460.378,583.184z"/>
</g>
<linearGradient id="SVGID_9_" gradientUnits="userSpaceOnUse" x1="91.8926" y1="215.7021" x2="91.8926" y2="193.4409">
	<stop  offset="0" style="stop-color:#E7A523"/>
	<stop  offset="0.1213" style="stop-color:#E7A625"/>
	<stop  offset="0.2187" style="stop-color:#E9A92D"/>
	<stop  offset="0.3078" style="stop-color:#EDAF3C"/>
	<stop  offset="0.3919" style="stop-color:#F2B751"/>
	<stop  offset="0.4719" style="stop-color:#F9C26B"/>
	<stop  offset="0.5" style="stop-color:#FEC775"/>
	<stop  offset="0.5281" style="stop-color:#F9C26B"/>
	<stop  offset="0.6081" style="stop-color:#F2B751"/>
	<stop  offset="0.6922" style="stop-color:#EDAF3C"/>
	<stop  offset="0.7813" style="stop-color:#E9A92D"/>
	<stop  offset="0.8787" style="stop-color:#E7A625"/>
	<stop  offset="1" style="stop-color:#E7A523"/>
</linearGradient>
<rect x="66.092" y="193.441" fill="url(#SVGID_9_)" stroke="#000000" stroke-width="2" stroke-miterlimit="10" width="51.6" height="22.261"/>
<linearGradient id="SVGID_10_" gradientUnits="userSpaceOnUse" x1="91.9678" y1="252.8413" x2="91.9678" y2="230.5801">
	<stop  offset="0" style="stop-color:#E7A523"/>
	<stop  offset="0.1213" style="stop-color:#E7A625"/>
	<stop  offset="0.2187" style="stop-color:#E9A92D"/>
	<stop  offset="0.3078" style="stop-color:#EDAF3C"/>
	<stop  offset="0.3919" style="stop-color:#F2B751"/>
	<stop  offset="0.4719" style="stop-color:#F9C26B"/>
	<stop  offset="0.5" style="stop-color:#FEC775"/>
	<stop  offset="0.5281" style="stop-color:#F9C26B"/>
	<stop  offset="0.6081" style="stop-color:#F2B751"/>
	<stop  offset="0.6922" style="stop-color:#EDAF3C"/>
	<stop  offset="0.7813" style="stop-color:#E9A92D"/>
	<stop  offset="0.8787" style="stop-color:#E7A625"/>
	<stop  offset="1" style="stop-color:#E7A523"/>
</linearGradient>
<rect x="66.167" y="230.58" fill="url(#SVGID_10_)" stroke="#000000" stroke-width="2" stroke-miterlimit="10" width="51.6" height="22.261"/>
<linearGradient id="SVGID_11_" gradientUnits="userSpaceOnUse" x1="91.9678" y1="289.9805" x2="91.9678" y2="267.7192">
	<stop  offset="0" style="stop-color:#E7A523"/>
	<stop  offset="0.1213" style="stop-color:#E7A625"/>
	<stop  offset="0.2187" style="stop-color:#E9A92D"/>
	<stop  offset="0.3078" style="stop-color:#EDAF3C"/>
	<stop  offset="0.3919" style="stop-color:#F2B751"/>
	<stop  offset="0.4719" style="stop-color:#F9C26B"/>
	<stop  offset="0.5" style="stop-color:#FEC775"/>
	<stop  offset="0.5281" style="stop-color:#F9C26B"/>
	<stop  offset="0.6081" style="stop-color:#F2B751"/>
	<stop  offset="0.6922" style="stop-color:#EDAF3C"/>
	<stop  offset="0.7813" style="stop-color:#E9A92D"/>
	<stop  offset="0.8787" style="stop-color:#E7A625"/>
	<stop  offset="1" style="stop-color:#E7A523"/>
</linearGradient>
<rect x="66.167" y="267.719" fill="url(#SVGID_11_)" stroke="#000000" stroke-width="2" stroke-miterlimit="10" width="51.6" height="22.261"/>
<linearGradient id="SVGID_12_" gradientUnits="userSpaceOnUse" x1="91.8926" y1="327.1196" x2="91.8926" y2="304.8584">
	<stop  offset="0" style="stop-color:#E7A523"/>
	<stop  offset="0.1213" style="stop-color:#E7A625"/>
	<stop  offset="0.2187" style="stop-color:#E9A92D"/>
	<stop  offset="0.3078" style="stop-color:#EDAF3C"/>
	<stop  offset="0.3919" style="stop-color:#F2B751"/>
	<stop  offset="0.4719" style="stop-color:#F9C26B"/>
	<stop  offset="0.5" style="stop-color:#FEC775"/>
	<stop  offset="0.5281" style="stop-color:#F9C26B"/>
	<stop  offset="0.6081" style="stop-color:#F2B751"/>
	<stop  offset="0.6922" style="stop-color:#EDAF3C"/>
	<stop  offset="0.7813" style="stop-color:#E9A92D"/>
	<stop  offset="0.8787" style="stop-color:#E7A625"/>
	<stop  offset="1" style="stop-color:#E7A523"/>
</linearGradient>
<rect x="66.092" y="304.858" fill="url(#SVGID_12_)" stroke="#000000" stroke-width="2" stroke-miterlimit="10" width="51.6" height="22.261"/>
<linearGradient id="SVGID_13_" gradientUnits="userSpaceOnUse" x1="91.8926" y1="364.2588" x2="91.8926" y2="341.9976">
	<stop  offset="0" style="stop-color:#E7A523"/>
	<stop  offset="0.1213" style="stop-color:#E7A625"/>
	<stop  offset="0.2187" style="stop-color:#E9A92D"/>
	<stop  offset="0.3078" style="stop-color:#EDAF3C"/>
	<stop  offset="0.3919" style="stop-color:#F2B751"/>
	<stop  offset="0.4719" style="stop-color:#F9C26B"/>
	<stop  offset="0.5" style="stop-color:#FEC775"/>
	<stop  offset="0.5281" style="stop-color:#F9C26B"/>
	<stop  offset="0.6081" style="stop-color:#F2B751"/>
	<stop  offset="0.6922" style="stop-color:#EDAF3C"/>
	<stop  offset="0.7813" style="stop-color:#E9A92D"/>
	<stop  offset="0.8787" style="stop-color:#E7A625"/>
	<stop  offset="1" style="stop-color:#E7A523"/>
</linearGradient>
<rect x="66.092" y="341.998" fill="url(#SVGID_13_)" stroke="#000000" stroke-width="2" stroke-miterlimit="10" width="51.6" height="22.261"/>
<linearGradient id="SVGID_14_" gradientUnits="userSpaceOnUse" x1="428.6343" y1="364.0459" x2="428.6343" y2="341.7847">
	<stop  offset="0" style="stop-color:#E7A523"/>
	<stop  offset="0.1213" style="stop-color:#E7A625"/>
	<stop  offset="0.2187" style="stop-color:#E9A92D"/>
	<stop  offset="0.3078" style="stop-color:#EDAF3C"/>
	<stop  offset="0.3919" style="stop-color:#F2B751"/>
	<stop  offset="0.4719" style="stop-color:#F9C26B"/>
	<stop  offset="0.5" style="stop-color:#FEC775"/>
	<stop  offset="0.5281" style="stop-color:#F9C26B"/>
	<stop  offset="0.6081" style="stop-color:#F2B751"/>
	<stop  offset="0.6922" style="stop-color:#EDAF3C"/>
	<stop  offset="0.7813" style="stop-color:#E9A92D"/>
	<stop  offset="0.8787" style="stop-color:#E7A625"/>
	<stop  offset="1" style="stop-color:#E7A523"/>
</linearGradient>
<polygon fill="url(#SVGID_14_)" stroke="#000000" stroke-width="2" stroke-miterlimit="10" points="402.834,341.785 
	402.834,347.415 449.093,347.415 449.093,358.416 402.834,358.416 402.834,364.046 454.434,364.046 454.434,341.785 "/>
<linearGradient id="SVGID_15_" gradientUnits="userSpaceOnUse" x1="428.6343" y1="327.1196" x2="428.6343" y2="304.8584">
	<stop  offset="0" style="stop-color:#E7A523"/>
	<stop  offset="0.1213" style="stop-color:#E7A625"/>
	<stop  offset="0.2187" style="stop-color:#E9A92D"/>
	<stop  offset="0.3078" style="stop-color:#EDAF3C"/>
	<stop  offset="0.3919" style="stop-color:#F2B751"/>
	<stop  offset="0.4719" style="stop-color:#F9C26B"/>
	<stop  offset="0.5" style="stop-color:#FEC775"/>
	<stop  offset="0.5281" style="stop-color:#F9C26B"/>
	<stop  offset="0.6081" style="stop-color:#F2B751"/>
	<stop  offset="0.6922" style="stop-color:#EDAF3C"/>
	<stop  offset="0.7813" style="stop-color:#E9A92D"/>
	<stop  offset="0.8787" style="stop-color:#E7A625"/>
	<stop  offset="1" style="stop-color:#E7A523"/>
</linearGradient>
<polygon fill="url(#SVGID_15_)" stroke="#000000" stroke-width="2" stroke-miterlimit="10" points="402.834,304.858 
	402.834,310.329 449.093,310.329 449.093,321.33 402.834,321.33 402.834,327.12 454.434,327.12 454.434,304.858 "/>
<linearGradient id="SVGID_16_" gradientUnits="userSpaceOnUse" x1="428.7095" y1="289.9805" x2="428.7095" y2="267.7192">
	<stop  offset="0" style="stop-color:#E7A523"/>
	<stop  offset="0.1213" style="stop-color:#E7A625"/>
	<stop  offset="0.2187" style="stop-color:#E9A92D"/>
	<stop  offset="0.3078" style="stop-color:#EDAF3C"/>
	<stop  offset="0.3919" style="stop-color:#F2B751"/>
	<stop  offset="0.4719" style="stop-color:#F9C26B"/>
	<stop  offset="0.5" style="stop-color:#FEC775"/>
	<stop  offset="0.5281" style="stop-color:#F9C26B"/>
	<stop  offset="0.6081" style="stop-color:#F2B751"/>
	<stop  offset="0.6922" style="stop-color:#EDAF3C"/>
	<stop  offset="0.7813" style="stop-color:#E9A92D"/>
	<stop  offset="0.8787" style="stop-color:#E7A625"/>
	<stop  offset="1" style="stop-color:#E7A523"/>
</linearGradient>
<polygon fill="url(#SVGID_16_)" stroke="#000000" stroke-width="2" stroke-miterlimit="10" points="402.91,267.719 402.91,273.243 
	449.926,273.243 449.926,284.244 402.91,284.244 402.91,289.98 454.51,289.98 454.51,267.719 "/>
<linearGradient id="SVGID_17_" gradientUnits="userSpaceOnUse" x1="428.7095" y1="252.8413" x2="428.7095" y2="230.5801">
	<stop  offset="0" style="stop-color:#E7A523"/>
	<stop  offset="0.1213" style="stop-color:#E7A625"/>
	<stop  offset="0.2187" style="stop-color:#E9A92D"/>
	<stop  offset="0.3078" style="stop-color:#EDAF3C"/>
	<stop  offset="0.3919" style="stop-color:#F2B751"/>
	<stop  offset="0.4719" style="stop-color:#F9C26B"/>
	<stop  offset="0.5" style="stop-color:#FEC775"/>
	<stop  offset="0.5281" style="stop-color:#F9C26B"/>
	<stop  offset="0.6081" style="stop-color:#F2B751"/>
	<stop  offset="0.6922" style="stop-color:#EDAF3C"/>
	<stop  offset="0.7813" style="stop-color:#E9A92D"/>
	<stop  offset="0.8787" style="stop-color:#E7A625"/>
	<stop  offset="1" style="stop-color:#E7A523"/>
</linearGradient>
<polygon fill="url(#SVGID_17_)" stroke="#000000" stroke-width="2" stroke-miterlimit="10" points="402.91,230.58 402.91,236.157 
	449.926,236.157 449.926,247.158 402.91,247.158 402.91,252.841 454.51,252.841 454.51,230.58 "/>
<linearGradient id="SVGID_18_" gradientUnits="userSpaceOnUse" x1="428.6343" y1="215.7021" x2="428.6343" y2="193.4409">
	<stop  offset="0" style="stop-color:#E7A523"/>
	<stop  offset="0.1213" style="stop-color:#E7A625"/>
	<stop  offset="0.2187" style="stop-color:#E9A92D"/>
	<stop  offset="0.3078" style="stop-color:#EDAF3C"/>
	<stop  offset="0.3919" style="stop-color:#F2B751"/>
	<stop  offset="0.4719" style="stop-color:#F9C26B"/>
	<stop  offset="0.5" style="stop-color:#FEC775"/>
	<stop  offset="0.5281" style="stop-color:#F9C26B"/>
	<stop  offset="0.6081" style="stop-color:#F2B751"/>
	<stop  offset="0.6922" style="stop-color:#EDAF3C"/>
	<stop  offset="0.7813" style="stop-color:#E9A92D"/>
	<stop  offset="0.8787" style="stop-color:#E7A625"/>
	<stop  offset="1" style="stop-color:#E7A523"/>
</linearGradient>
<polygon fill="url(#SVGID_18_)" stroke="#000000" stroke-width="2" stroke-miterlimit="10" points="402.834,193.441 
	402.834,199.071 449.093,199.071 449.093,210.072 402.834,210.072 402.834,215.702 454.434,215.702 454.434,193.441 "/>
<linearGradient id="SVGID_19_" gradientUnits="userSpaceOnUse" x1="91.9678" y1="279.7021" x2="438.6724" y2="279.7021">
	<stop  offset="0" style="stop-color:#E6E7E8"/>
	<stop  offset="0.1338" style="stop-color:#E4E5E6"/>
	<stop  offset="0.2412" style="stop-color:#DBDDDE"/>
	<stop  offset="0.3395" style="stop-color:#CDCFD1"/>
	<stop  offset="0.4318" style="stop-color:#BABCBE"/>
	<stop  offset="0.5" style="stop-color:#A7A9AC"/>
	<stop  offset="0.5682" style="stop-color:#BABCBE"/>
	<stop  offset="0.6605" style="stop-color:#CDCFD1"/>
	<stop  offset="0.7588" style="stop-color:#DBDDDE"/>
	<stop  offset="0.8662" style="stop-color:#E4E5E6"/>
	<stop  offset="1" style="stop-color:#E6E7E8"/>
</linearGradient>
<path fill="url(#SVGID_19_)" stroke="#000000" stroke-width="6" stroke-miterlimit="10" d="M265.321,185.035H91.968V374.37
	c0,0,129.783,0,139.765,0s16.338-13.479,16.338-13.479s-1.518,0.082,17.25,0.082c18.766,0,17.248-0.082,17.248-0.082
	s6.355,13.479,16.338,13.479s139.766,0,139.766,0V185.035H265.321z"/>
<linearGradient id="SVGID_20_" gradientUnits="userSpaceOnUse" x1="101.9102" y1="272.9165" x2="265.8213" y2="272.9165">
	<stop  offset="0" style="stop-color:#E7A523"/>
	<stop  offset="0.1213" style="stop-color:#E7A625"/>
	<stop  offset="0.2187" style="stop-color:#E9A92D"/>
	<stop  offset="0.3078" style="stop-color:#EDAF3C"/>
	<stop  offset="0.3919" style="stop-color:#F2B751"/>
	<stop  offset="0.4719" style="stop-color:#F9C26B"/>
	<stop  offset="0.5" style="stop-color:#FEC775"/>
	<stop  offset="0.5281" style="stop-color:#F9C26B"/>
	<stop  offset="0.6081" style="stop-color:#F2B751"/>
	<stop  offset="0.6922" style="stop-color:#EDAF3C"/>
	<stop  offset="0.7813" style="stop-color:#E9A92D"/>
	<stop  offset="0.8787" style="stop-color:#E7A625"/>
	<stop  offset="1" style="stop-color:#E7A523"/>
</linearGradient>
<path fill="url(#SVGID_20_)" stroke="#000000" stroke-width="2" stroke-miterlimit="10" d="M244.715,369.224
	c-1.051-1.961-25.227-4.577-41.057-4.795c-15.831-0.218-38.558,1.09-101.748,0.293V196.194l30.613-19.584v165.812h133.297v26.803
	H244.715"/>
<path fill="none" stroke="#000000" stroke-width="2" stroke-miterlimit="10" d="M255.553,357.814
	c-0.955-4.283-22.941-9.992-37.34-10.467c-14.397-0.477-35.067,2.378-92.536,0.641V182.124"/>
<path fill="none" stroke="#000000" stroke-width="2" stroke-miterlimit="10" d="M250.991,361.931
	c-0.98-3.636-23.547-8.484-38.324-8.889c-14.777-0.404-35.991,2.02-94.974,0.545v-167.09"/>
<path fill="none" stroke="#000000" stroke-width="2" stroke-miterlimit="10" d="M247.948,365.199
	c-1.008-2.645-24.219-6.172-39.416-6.465c-15.2-0.293-37.018,1.469-97.685,0.396V191.441"/>
<linearGradient id="SVGID_21_" gradientUnits="userSpaceOnUse" x1="265.0513" y1="272.9165" x2="428.9634" y2="272.9165">
	<stop  offset="0" style="stop-color:#E7A523"/>
	<stop  offset="0.1213" style="stop-color:#E7A625"/>
	<stop  offset="0.2187" style="stop-color:#E9A92D"/>
	<stop  offset="0.3078" style="stop-color:#EDAF3C"/>
	<stop  offset="0.3919" style="stop-color:#F2B751"/>
	<stop  offset="0.4719" style="stop-color:#F9C26B"/>
	<stop  offset="0.5" style="stop-color:#FEC775"/>
	<stop  offset="0.5281" style="stop-color:#F9C26B"/>
	<stop  offset="0.6081" style="stop-color:#F2B751"/>
	<stop  offset="0.6922" style="stop-color:#EDAF3C"/>
	<stop  offset="0.7813" style="stop-color:#E9A92D"/>
	<stop  offset="0.8787" style="stop-color:#E7A625"/>
	<stop  offset="1" style="stop-color:#E7A523"/>
</linearGradient>
<path fill="url(#SVGID_21_)" stroke="#000000" stroke-width="2" stroke-miterlimit="10" d="M286.157,369.224
	c1.051-1.961,25.229-4.577,41.059-4.795s38.559,1.09,101.748,0.293V196.194L398.35,176.61v165.812H265.051v26.803H286.157"/>
<path fill="none" stroke="#000000" stroke-width="2" stroke-miterlimit="10" d="M275.319,357.814
	c0.955-4.283,22.943-9.992,37.34-10.467c14.398-0.477,35.068,2.378,92.535,0.641V182.124"/>
<path fill="none" stroke="#000000" stroke-width="2" stroke-miterlimit="10" d="M279.881,361.931
	c0.982-3.636,23.549-8.484,38.326-8.889s35.99,2.02,94.973,0.545v-167.09"/>
<path fill="none" stroke="#000000" stroke-width="2" stroke-miterlimit="10" d="M282.926,365.199
	c1.006-2.645,24.217-6.172,39.416-6.465s37.018,1.469,97.684,0.396V191.441"/>
<radialGradient id="SVGID_22_" cx="265.3198" cy="264.8735" r="112.7502" gradientUnits="userSpaceOnUse">
	<stop  offset="0" style="stop-color:#FFFFFF"/>
	<stop  offset="0.5455" style="stop-color:#FCFBFA"/>
	<stop  offset="0.742" style="stop-color:#F3F1EF"/>
	<stop  offset="0.8815" style="stop-color:#E7E3E1"/>
	<stop  offset="0.9941" style="stop-color:#D8D1CE"/>
	<stop  offset="1" style="stop-color:#D7CFCD"/>
</radialGradient>
<path fill="url(#SVGID_22_)" stroke="#000000" stroke-width="2" stroke-miterlimit="10" d="M360.809,182.124
	c-19.584,0-30.992-4.563-48.297-4.563c-15.98,0-43.135,6.484-47.191,7.475c-4.059-0.991-31.213-7.475-47.193-7.475
	c-17.303,0-28.712,4.563-48.297,4.563s-37.307-5.514-37.307-5.514v165.812c58.983,2.084,80.198-1.339,94.973-0.769
	c13.223,0.51,37.564,11.84,37.824,11.476c0.258,0.364,24.6-10.965,37.822-11.476c14.777-0.57,35.99,2.853,94.973,0.769V176.61
	C398.116,176.61,380.395,182.124,360.809,182.124z"/>
<line fill="none" stroke="#000000" stroke-width="2" stroke-miterlimit="10" x1="265.321" y1="185.035" x2="265.321" y2="353.128"/>
<radialGradient id="SVGID_23_" cx="265.3188" cy="367.3213" r="17.8957" gradientTransform="matrix(-4.371139e-008 -1 3 -1.311342e-007 -836.645 632.6402)" gradientUnits="userSpaceOnUse">
	<stop  offset="0" style="stop-color:#FEC775"/>
	<stop  offset="1" style="stop-color:#E7A523"/>
</radialGradient>
<ellipse fill="url(#SVGID_23_)" stroke="#000000" stroke-width="4" stroke-miterlimit="10" cx="265.319" cy="367.322" rx="21.162" ry="13.88"/>
<g>
	<path d="M159.113,231.066v-0.889h0.648c0.566,0,1.001-0.148,1.304-0.444c0.303-0.296,0.526-0.7,0.67-1.212
		c0.086-0.336,0.129-1.345,0.129-3.026v-21.421c0-1.665-0.053-2.706-0.158-3.122c-0.106-0.416-0.32-0.78-0.642-1.093
		c-0.322-0.312-0.756-0.468-1.304-0.468h-0.648v-0.889h8.746c2.334,0,4.212,0.528,5.634,1.585c1.738,1.297,3.057,3.258,3.955,5.884
		c0.898,2.626,1.347,5.596,1.347,8.91c0,2.29-0.221,4.399-0.663,6.328c-0.442,1.93-1.014,3.522-1.715,4.779
		s-1.511,2.266-2.428,3.026c-0.917,0.761-2.039,1.349-3.365,1.765c-0.586,0.192-1.508,0.288-2.767,0.288H159.113z M166.563,200.35
		v25.408c0,1.345,0.039,2.17,0.116,2.474c0.077,0.305,0.206,0.537,0.389,0.697c0.259,0.24,0.634,0.36,1.124,0.36
		c1.604,0,2.829-0.913,3.674-2.737c1.153-2.465,1.729-6.292,1.729-11.479c0-4.179-0.394-7.517-1.181-10.015
		c-0.625-1.953-1.427-3.282-2.407-3.986C169.315,200.575,168.167,200.334,166.563,200.35z"/>
	<path d="M188.076,200.375v13.256h0.389c1.239,0,2.138-0.648,2.695-1.945c0.557-1.297,0.913-3.21,1.066-5.74h0.548v17.051h-0.548
		c-0.115-1.857-0.358-3.378-0.728-4.563c-0.37-1.185-0.8-1.981-1.29-2.39s-1.201-0.612-2.132-0.612v9.174
		c0,1.793,0.045,2.89,0.137,3.29c0.091,0.4,0.262,0.729,0.512,0.984c0.25,0.256,0.653,0.384,1.21,0.384h1.167
		c1.825,0,3.288-0.704,4.388-2.113c1.1-1.409,1.89-3.554,2.37-6.436h0.533l-0.879,10.351h-16.888v-0.889h0.648
		c0.566,0,1.023-0.168,1.369-0.504c0.25-0.224,0.442-0.608,0.577-1.152c0.105-0.384,0.158-1.393,0.158-3.026v-21.421
		c0-1.473-0.024-2.377-0.072-2.714c-0.096-0.56-0.274-0.993-0.533-1.297c-0.365-0.448-0.865-0.672-1.499-0.672h-0.648v-0.889h16.354
		v9.63h-0.548c-0.278-2.354-0.67-4.042-1.174-5.067c-0.504-1.024-1.217-1.777-2.14-2.257c-0.538-0.288-1.547-0.432-3.026-0.432
		H188.076z"/>
	<path d="M200.41,198.501h10.087v0.889h-0.504c-0.759,0-1.28,0.132-1.563,0.396c-0.284,0.264-0.485,0.628-0.605,1.092
		c-0.12,0.465-0.18,1.625-0.18,3.482v15.946c0,2.914,0.132,4.843,0.396,5.788c0.264,0.945,0.699,1.729,1.304,2.354
		c0.605,0.625,1.369,0.937,2.291,0.937c1.057,0,1.957-0.396,2.702-1.188c0.744-0.792,1.302-1.885,1.671-3.278
		s0.555-3.818,0.555-7.277v-13.28c0-1.457-0.091-2.498-0.273-3.122c-0.183-0.625-0.414-1.057-0.692-1.297
		c-0.432-0.368-1.042-0.552-1.83-0.552v-0.889h6.758v0.889h-0.403c-0.547,0-1.004,0.184-1.369,0.552
		c-0.365,0.369-0.629,0.921-0.792,1.657c-0.125,0.513-0.188,1.433-0.188,2.762v12.368c0,3.827-0.151,6.588-0.454,8.285
		c-0.303,1.697-1.04,3.258-2.212,4.683c-1.172,1.425-2.771,2.137-4.798,2.137c-1.691,0-2.997-0.376-3.919-1.129
		c-1.258-1.024-2.147-2.337-2.666-3.938c-0.519-1.601-0.778-3.754-0.778-6.46v-15.946c0-1.873-0.063-3.038-0.187-3.494
		c-0.125-0.457-0.341-0.82-0.648-1.093c-0.308-0.272-0.875-0.4-1.701-0.384V198.501z"/>
	<path d="M234.891,197.757l0.158,10.855h-0.591c-0.278-2.722-0.963-4.911-2.053-6.568s-2.27-2.486-3.538-2.486
		c-0.979,0-1.755,0.437-2.327,1.309c-0.572,0.873-0.857,1.877-0.857,3.014c0,0.721,0.101,1.361,0.302,1.921
		c0.279,0.753,0.726,1.497,1.34,2.233c0.451,0.528,1.494,1.465,3.127,2.81c2.286,1.873,3.828,3.642,4.625,5.307
		c0.788,1.666,1.182,3.57,1.182,5.716c0,2.722-0.636,5.063-1.909,7.024c-1.273,1.961-2.889,2.942-4.849,2.942
		c-0.615,0-1.196-0.104-1.744-0.313c-0.547-0.208-1.234-0.6-2.061-1.177c-0.461-0.32-0.84-0.48-1.138-0.48
		c-0.25,0-0.514,0.16-0.792,0.48c-0.279,0.321-0.504,0.809-0.677,1.465h-0.533v-12.296h0.533c0.422,3.458,1.237,6.096,2.442,7.913
		c1.206,1.817,2.505,2.726,3.897,2.726c1.076,0,1.933-0.488,2.572-1.465c0.639-0.977,0.958-2.113,0.958-3.41
		c0-0.769-0.123-1.513-0.367-2.233c-0.245-0.721-0.618-1.405-1.117-2.053c-0.5-0.648-1.383-1.493-2.651-2.534
		c-1.777-1.457-3.055-2.698-3.833-3.723c-0.778-1.024-1.376-2.169-1.794-3.434c-0.418-1.265-0.626-2.657-0.626-4.179
		c0-2.594,0.571-4.803,1.714-6.628c1.143-1.825,2.584-2.738,4.323-2.738c0.634,0,1.249,0.128,1.845,0.384
		c0.451,0.192,1.001,0.548,1.649,1.068c0.648,0.521,1.103,0.781,1.362,0.781c0.25,0,0.447-0.128,0.591-0.384
		c0.144-0.256,0.278-0.873,0.403-1.849H234.891z"/>
	<path d="M152.408,264.128l-0.637,11.431h-15.036v-0.889h0.562c0.491,0,0.887-0.168,1.186-0.504c0.217-0.224,0.383-0.608,0.5-1.152
		c0.092-0.384,0.138-1.393,0.138-3.026v-21.421c0-1.665-0.046-2.706-0.138-3.122c-0.091-0.416-0.277-0.78-0.556-1.093
		c-0.279-0.312-0.655-0.468-1.13-0.468h-0.562v-0.889h9.029v0.889h-0.737c-0.491,0-0.887,0.168-1.187,0.504
		c-0.216,0.225-0.387,0.608-0.512,1.153c-0.092,0.384-0.138,1.393-0.138,3.026v20.749c0,1.666,0.05,2.726,0.15,3.182
		c0.1,0.457,0.295,0.797,0.587,1.021c0.208,0.145,0.712,0.216,1.511,0.216h1.411c0.899,0,1.648-0.304,2.248-0.913
		c0.6-0.608,1.118-1.569,1.555-2.882c0.437-1.313,0.851-3.25,1.242-5.812H152.408z"/>
	<path d="M163.198,242.538c2.697-0.192,4.889,1.321,6.575,4.539c1.686,3.218,2.529,7.245,2.529,12.08
		c0,4.13-0.629,7.765-1.886,10.903c-1.666,4.163-4.017,6.244-7.056,6.244c-3.047,0-5.403-1.985-7.068-5.956
		c-1.315-3.138-1.973-6.86-1.973-11.167c0-4.835,0.855-8.865,2.566-12.092C158.596,243.863,160.7,242.346,163.198,242.538z
		 M163.348,244.075c-1.548,0-2.727,1.521-3.534,4.563c-0.658,2.498-0.986,6.084-0.986,10.759c0,5.556,0.508,9.662,1.523,12.32
		c0.708,1.857,1.698,2.786,2.972,2.786c0.857,0,1.573-0.4,2.148-1.201c0.732-1.024,1.303-2.662,1.711-4.911
		c0.408-2.25,0.612-5.183,0.612-8.802c0-4.307-0.208-7.529-0.625-9.666c-0.417-2.138-0.947-3.646-1.592-4.527
		S164.188,244.075,163.348,244.075z"/>
	<path d="M190.284,242.25v11.287h-0.487c-0.366-2.946-1.049-5.203-2.048-6.772c-0.999-1.569-2.131-2.354-3.397-2.354
		c-1.057,0-2.027,0.584-2.91,1.753c-0.882,1.168-1.528,2.698-1.936,4.587c-0.524,2.417-0.787,5.107-0.787,8.069
		c0,2.914,0.191,5.568,0.574,7.961c0.383,2.394,0.982,4.203,1.798,5.428s1.873,1.837,3.172,1.837c1.065,0,2.042-0.448,2.929-1.345
		c0.886-0.896,1.821-2.441,2.803-4.635v2.81c-0.949,1.906-1.938,3.287-2.966,4.143c-1.028,0.856-2.229,1.285-3.603,1.285
		c-1.807,0-3.412-0.697-4.814-2.089c-1.403-1.393-2.485-3.394-3.247-6.004c-0.762-2.609-1.143-5.387-1.143-8.333
		c0-3.106,0.422-6.052,1.268-8.837c0.845-2.786,1.985-4.947,3.421-6.484s2.962-2.305,4.577-2.305c1.19,0,2.447,0.496,3.771,1.489
		c0.766,0.576,1.253,0.865,1.461,0.865c0.266,0,0.497-0.188,0.693-0.564c0.195-0.376,0.323-0.973,0.381-1.789H190.284z"/>
	<path d="M192.282,242.994h8.741v0.889h-0.437c-0.658,0-1.109,0.132-1.355,0.396s-0.42,0.628-0.524,1.092
		c-0.104,0.465-0.156,1.625-0.156,3.482V264.8c0,2.914,0.115,4.843,0.344,5.788c0.229,0.945,0.605,1.729,1.13,2.354
		c0.525,0.625,1.187,0.937,1.986,0.937c0.916,0,1.696-0.396,2.341-1.188s1.128-1.885,1.449-3.278
		c0.32-1.393,0.481-3.818,0.481-7.277v-13.28c0-1.457-0.08-2.498-0.237-3.122c-0.158-0.625-0.358-1.057-0.6-1.297
		c-0.375-0.368-0.903-0.552-1.586-0.552v-0.889h5.857v0.889h-0.35c-0.475,0-0.87,0.184-1.187,0.552
		c-0.316,0.369-0.545,0.921-0.687,1.657c-0.108,0.513-0.162,1.433-0.162,2.762v12.368c0,3.827-0.131,6.588-0.394,8.285
		c-0.262,1.697-0.901,3.258-1.917,4.683s-2.402,2.137-4.158,2.137c-1.465,0-2.598-0.376-3.397-1.129
		c-1.09-1.024-1.86-2.337-2.31-3.938c-0.45-1.601-0.674-3.754-0.674-6.46v-15.946c0-1.873-0.054-3.038-0.163-3.494
		c-0.108-0.457-0.295-0.82-0.562-1.093c-0.267-0.272-0.758-0.4-1.474-0.384V242.994z"/>
	<path d="M226.287,242.994v8.814h-0.449c-0.267-2.033-0.562-3.495-0.887-4.383c-0.325-0.889-0.77-1.597-1.336-2.125
		c-0.316-0.288-0.87-0.432-1.661-0.432h-1.261v25.12c0,1.666,0.048,2.706,0.144,3.122c0.096,0.417,0.283,0.781,0.562,1.093
		c0.279,0.313,0.66,0.468,1.143,0.468h0.562v0.889h-8.867v-0.889h0.562c0.491,0,0.887-0.168,1.187-0.504
		c0.216-0.224,0.387-0.608,0.512-1.152c0.092-0.384,0.138-1.393,0.138-3.026v-25.12h-1.224c-1.141,0-1.969,0.464-2.485,1.393
		c-0.725,1.297-1.183,3.146-1.374,5.548h-0.474v-8.814H226.287z"/>
	<path d="M227.811,242.994h8.741v0.889h-0.437c-0.658,0-1.109,0.132-1.355,0.396s-0.42,0.628-0.524,1.092
		c-0.104,0.465-0.156,1.625-0.156,3.482V264.8c0,2.914,0.115,4.843,0.344,5.788c0.229,0.945,0.605,1.729,1.13,2.354
		c0.525,0.625,1.187,0.937,1.986,0.937c0.916,0,1.696-0.396,2.341-1.188s1.128-1.885,1.449-3.278
		c0.32-1.393,0.481-3.818,0.481-7.277v-13.28c0-1.457-0.08-2.498-0.237-3.122c-0.158-0.625-0.358-1.057-0.6-1.297
		c-0.375-0.368-0.903-0.552-1.586-0.552v-0.889h5.857v0.889h-0.35c-0.475,0-0.87,0.184-1.187,0.552
		c-0.316,0.369-0.545,0.921-0.687,1.657c-0.108,0.513-0.162,1.433-0.162,2.762v12.368c0,3.827-0.131,6.588-0.394,8.285
		c-0.262,1.697-0.901,3.258-1.917,4.683s-2.402,2.137-4.158,2.137c-1.465,0-2.598-0.376-3.397-1.129
		c-1.09-1.024-1.86-2.337-2.31-3.938c-0.45-1.601-0.674-3.754-0.674-6.46v-15.946c0-1.873-0.054-3.038-0.163-3.494
		c-0.108-0.457-0.295-0.82-0.562-1.093c-0.267-0.272-0.758-0.4-1.474-0.384V242.994z"/>
	<path d="M257.694,242.25l0.137,10.855h-0.512c-0.24-2.722-0.834-4.911-1.779-6.568s-1.967-2.486-3.065-2.486
		c-0.849,0-1.521,0.437-2.017,1.309c-0.496,0.873-0.743,1.877-0.743,3.014c0,0.721,0.087,1.361,0.262,1.921
		c0.241,0.753,0.628,1.497,1.161,2.233c0.393,0.528,1.295,1.465,2.711,2.81c1.98,1.873,3.316,3.642,4.008,5.307
		c0.684,1.666,1.025,3.57,1.025,5.716c0,2.722-0.553,5.063-1.656,7.024c-1.103,1.961-2.503,2.942-4.201,2.942
		c-0.533,0-1.037-0.104-1.512-0.313c-0.474-0.208-1.069-0.6-1.786-1.177c-0.399-0.32-0.729-0.48-0.986-0.48
		c-0.217,0-0.445,0.16-0.687,0.48c-0.241,0.321-0.437,0.809-0.587,1.465h-0.462v-12.296h0.462c0.366,3.458,1.072,6.096,2.117,7.913
		c1.045,1.817,2.171,2.726,3.378,2.726c0.932,0,1.676-0.488,2.229-1.465c0.554-0.977,0.83-2.113,0.83-3.41
		c0-0.769-0.105-1.513-0.318-2.233c-0.212-0.721-0.535-1.405-0.967-2.053c-0.434-0.648-1.199-1.493-2.299-2.534
		c-1.54-1.457-2.647-2.698-3.321-3.723c-0.674-1.024-1.192-2.169-1.555-3.434c-0.362-1.265-0.543-2.657-0.543-4.179
		c0-2.594,0.495-4.803,1.486-6.628c0.991-1.825,2.239-2.738,3.747-2.738c0.55,0,1.082,0.128,1.599,0.384
		c0.391,0.192,0.867,0.548,1.43,1.068c0.563,0.521,0.955,0.781,1.18,0.781c0.217,0,0.387-0.128,0.512-0.384
		c0.125-0.256,0.242-0.873,0.35-1.849H257.694z"/>
	<path d="M178.501,289.361v13.256h0.389c1.239,0,2.138-0.648,2.695-1.945c0.557-1.297,0.913-3.21,1.066-5.74h0.548v17.051h-0.548
		c-0.115-1.857-0.358-3.378-0.728-4.563c-0.37-1.185-0.8-1.981-1.29-2.39s-1.201-0.612-2.132-0.612v9.174
		c0,1.793,0.045,2.89,0.137,3.29c0.091,0.4,0.262,0.729,0.512,0.984c0.25,0.256,0.653,0.384,1.21,0.384h1.167
		c1.825,0,3.288-0.704,4.388-2.113c1.1-1.409,1.89-3.554,2.37-6.436h0.533l-0.879,10.351h-16.888v-0.889h0.648
		c0.566,0,1.023-0.168,1.369-0.504c0.25-0.224,0.442-0.608,0.577-1.152c0.105-0.384,0.158-1.393,0.158-3.026v-21.421
		c0-1.473-0.024-2.377-0.072-2.714c-0.096-0.56-0.274-0.993-0.533-1.297c-0.365-0.448-0.865-0.672-1.499-0.672h-0.648v-0.889h16.354
		v9.63h-0.548c-0.278-2.354-0.67-4.042-1.174-5.067c-0.504-1.024-1.217-1.777-2.14-2.257c-0.538-0.288-1.547-0.432-3.026-0.432
		H178.501z"/>
	<path d="M204.005,286.743l0.158,10.855h-0.591c-0.278-2.722-0.963-4.911-2.053-6.568s-2.27-2.486-3.538-2.486
		c-0.979,0-1.755,0.437-2.327,1.309c-0.572,0.873-0.857,1.877-0.857,3.014c0,0.721,0.101,1.361,0.302,1.921
		c0.279,0.753,0.726,1.497,1.34,2.233c0.451,0.528,1.494,1.465,3.127,2.81c2.286,1.873,3.828,3.642,4.625,5.307
		c0.788,1.666,1.182,3.57,1.182,5.716c0,2.722-0.636,5.063-1.909,7.024c-1.273,1.961-2.889,2.942-4.849,2.942
		c-0.615,0-1.196-0.104-1.744-0.313c-0.547-0.208-1.234-0.6-2.061-1.177c-0.461-0.32-0.84-0.48-1.138-0.48
		c-0.25,0-0.514,0.16-0.792,0.48c-0.279,0.321-0.504,0.809-0.677,1.465h-0.533v-12.296h0.533c0.422,3.458,1.237,6.096,2.442,7.913
		c1.206,1.817,2.505,2.726,3.897,2.726c1.076,0,1.933-0.488,2.572-1.465c0.639-0.977,0.958-2.113,0.958-3.41
		c0-0.769-0.123-1.513-0.367-2.233c-0.245-0.721-0.618-1.405-1.117-2.053c-0.5-0.648-1.383-1.493-2.651-2.534
		c-1.777-1.457-3.055-2.698-3.833-3.723c-0.778-1.024-1.376-2.169-1.794-3.434c-0.418-1.265-0.626-2.657-0.626-4.179
		c0-2.594,0.571-4.803,1.714-6.628c1.143-1.825,2.584-2.738,4.323-2.738c0.634,0,1.249,0.128,1.845,0.384
		c0.451,0.192,1.001,0.548,1.649,1.068c0.648,0.521,1.103,0.781,1.362,0.781c0.25,0,0.447-0.128,0.591-0.384
		c0.144-0.256,0.278-0.873,0.403-1.849H204.005z"/>
	<path d="M225.172,287.487v8.814h-0.519c-0.308-2.033-0.648-3.495-1.023-4.383c-0.375-0.889-0.889-1.597-1.542-2.125
		c-0.365-0.288-1.004-0.432-1.917-0.432h-1.456v25.12c0,1.666,0.055,2.706,0.166,3.122c0.11,0.417,0.326,0.781,0.648,1.093
		c0.322,0.313,0.761,0.468,1.318,0.468h0.648v0.889h-10.23v-0.889h0.648c0.566,0,1.023-0.168,1.369-0.504
		c0.25-0.224,0.447-0.608,0.591-1.152c0.105-0.384,0.159-1.393,0.159-3.026v-25.12h-1.412c-1.316,0-2.272,0.464-2.868,1.393
		c-0.835,1.297-1.364,3.146-1.585,5.548h-0.547v-8.814H225.172z"/>
</g>
<g>
	<path d="M292.024,198.501l9.641,20.197v-14.001c0-1.953-0.168-3.274-0.504-3.963c-0.461-0.928-1.234-1.376-2.32-1.345v-0.889h6.455
		v0.889c-0.826,0.176-1.381,0.405-1.664,0.685c-0.283,0.28-0.504,0.736-0.664,1.369c-0.158,0.633-0.236,1.717-0.236,3.254v27.113
		h-0.49l-13.213-27.113v20.701c0,1.873,0.256,3.138,0.77,3.794c0.516,0.657,1.104,0.984,1.766,0.984h0.461v0.889h-6.93v-0.889
		c1.074-0.016,1.824-0.384,2.248-1.104c0.422-0.721,0.633-1.945,0.633-3.674v-22.983l-0.418-0.864
		c-0.412-0.865-0.777-1.433-1.094-1.705c-0.318-0.272-0.773-0.424-1.369-0.457v-0.889H292.024z"/>
	<path d="M317.385,198.045c3.111-0.192,5.641,1.321,7.586,4.539c1.945,3.218,2.918,7.245,2.918,12.08
		c0,4.13-0.725,7.765-2.176,10.903c-1.922,4.163-4.635,6.244-8.141,6.244c-3.516,0-6.234-1.985-8.156-5.956
		c-1.518-3.138-2.277-6.86-2.277-11.167c0-4.835,0.988-8.865,2.963-12.092C312.075,199.37,314.502,197.853,317.385,198.045z
		 M317.557,199.582c-1.785,0-3.145,1.521-4.076,4.563c-0.76,2.498-1.139,6.084-1.139,10.759c0,5.556,0.586,9.662,1.758,12.32
		c0.816,1.857,1.959,2.786,3.43,2.786c0.988,0,1.814-0.4,2.479-1.201c0.844-1.024,1.502-2.662,1.973-4.911s0.707-5.183,0.707-8.802
		c0-4.307-0.24-7.529-0.721-9.666c-0.48-2.138-1.094-3.646-1.838-4.527S318.528,199.582,317.557,199.582z"/>
	<path d="M342.067,213.799c1.854,0.721,3.156,1.593,3.904,2.618c1.076,1.457,1.615,3.347,1.615,5.667
		c0,2.45-0.592,4.475-1.773,6.076c-1.449,1.938-3.559,2.906-6.324,2.906h-9.93v-0.889c0.904,0,1.516-0.14,1.838-0.42
		s0.547-0.645,0.678-1.093c0.129-0.448,0.193-1.553,0.193-3.314v-21.133c0-1.761-0.064-2.87-0.193-3.326
		c-0.131-0.456-0.357-0.82-0.686-1.093c-0.326-0.272-0.936-0.408-1.83-0.408v-0.889h9.367c2.238,0,3.822,0.333,4.754,0.997
		c0.932,0.665,1.668,1.657,2.205,2.978c0.539,1.321,0.807,2.726,0.807,4.215c0,1.569-0.34,2.966-1.021,4.19
		C344.987,212.106,343.788,213.079,342.067,213.799z M336.823,215.023v10.447l-0.016,1.201c0,0.865,0.133,1.517,0.396,1.958
		s0.656,0.66,1.176,0.66c0.768,0,1.477-0.284,2.125-0.853c0.648-0.568,1.145-1.393,1.49-2.473c0.346-1.081,0.52-2.286,0.52-3.615
		c0-1.521-0.211-2.885-0.635-4.094c-0.422-1.209-1.004-2.054-1.742-2.534C339.397,215.24,338.292,215.008,336.823,215.023z
		 M336.823,213.15c1.363,0,2.369-0.256,3.018-0.769c0.648-0.512,1.146-1.232,1.492-2.161c0.346-0.928,0.518-2.113,0.518-3.554
		s-0.17-2.622-0.51-3.542c-0.342-0.92-0.83-1.621-1.463-2.101c-0.635-0.48-1.652-0.712-3.055-0.697V213.15z"/>
	<path d="M359.43,230.177v0.889h-10.215v-0.889h0.648c0.566,0,1.023-0.168,1.369-0.504c0.248-0.224,0.441-0.608,0.576-1.152
		c0.105-0.384,0.158-1.393,0.158-3.026v-21.421c0-1.665-0.053-2.706-0.158-3.122c-0.105-0.416-0.32-0.78-0.643-1.093
		c-0.32-0.312-0.756-0.468-1.303-0.468h-0.648v-0.889h10.215v0.889h-0.648c-0.566,0-1.021,0.168-1.367,0.504
		c-0.25,0.225-0.447,0.608-0.592,1.153c-0.105,0.384-0.158,1.393-0.158,3.026v21.421c0,1.666,0.055,2.706,0.166,3.122
		c0.109,0.417,0.326,0.781,0.648,1.093c0.32,0.313,0.756,0.468,1.303,0.468H359.43z"/>
	<path d="M373.969,197.757l0.158,10.855h-0.59c-0.279-2.722-0.965-4.911-2.055-6.568s-2.27-2.486-3.537-2.486
		c-0.98,0-1.756,0.437-2.326,1.309c-0.572,0.873-0.857,1.877-0.857,3.014c0,0.721,0.1,1.361,0.303,1.921
		c0.277,0.753,0.725,1.497,1.34,2.233c0.451,0.528,1.492,1.465,3.127,2.81c2.285,1.873,3.828,3.642,4.625,5.307
		c0.787,1.666,1.182,3.57,1.182,5.716c0,2.722-0.637,5.063-1.91,7.024c-1.271,1.961-2.889,2.942-4.848,2.942
		c-0.615,0-1.197-0.104-1.744-0.313s-1.234-0.6-2.061-1.177c-0.461-0.32-0.84-0.48-1.139-0.48c-0.25,0-0.514,0.16-0.793,0.48
		c-0.277,0.321-0.504,0.809-0.676,1.465h-0.533v-12.296h0.533c0.422,3.458,1.236,6.096,2.441,7.913
		c1.205,1.817,2.506,2.726,3.898,2.726c1.076,0,1.934-0.488,2.572-1.465s0.957-2.113,0.957-3.41c0-0.769-0.121-1.513-0.367-2.233
		c-0.244-0.721-0.617-1.405-1.117-2.053c-0.498-0.648-1.383-1.493-2.65-2.534c-1.777-1.457-3.055-2.698-3.832-3.723
		c-0.779-1.024-1.377-2.169-1.795-3.434c-0.418-1.265-0.627-2.657-0.627-4.179c0-2.594,0.572-4.803,1.715-6.628
		c1.143-1.825,2.584-2.738,4.322-2.738c0.635,0,1.25,0.128,1.846,0.384c0.451,0.192,1,0.548,1.648,1.068
		c0.648,0.521,1.104,0.781,1.363,0.781c0.248,0,0.445-0.128,0.59-0.384c0.145-0.256,0.279-0.873,0.404-1.849H373.969z"/>
	<path d="M325.006,274.67v0.889h-10.215v-0.889h0.648c0.566,0,1.023-0.168,1.369-0.504c0.248-0.224,0.441-0.608,0.576-1.152
		c0.105-0.384,0.158-1.393,0.158-3.026v-21.421c0-1.665-0.053-2.706-0.158-3.122c-0.105-0.416-0.32-0.78-0.643-1.093
		c-0.32-0.312-0.756-0.468-1.303-0.468h-0.648v-0.889h10.215v0.889h-0.648c-0.566,0-1.021,0.168-1.367,0.504
		c-0.25,0.225-0.447,0.608-0.592,1.153c-0.105,0.384-0.158,1.393-0.158,3.026v21.421c0,1.666,0.055,2.706,0.166,3.122
		c0.109,0.417,0.326,0.781,0.648,1.093c0.32,0.313,0.756,0.468,1.303,0.468H325.006z"/>
	<path d="M333.034,242.994l9.639,20.197V249.19c0-1.953-0.168-3.274-0.504-3.963c-0.461-0.928-1.234-1.376-2.32-1.345v-0.889h6.455
		v0.889c-0.826,0.176-1.381,0.405-1.664,0.685c-0.283,0.28-0.504,0.736-0.662,1.369c-0.158,0.633-0.238,1.717-0.238,3.254v27.113
		h-0.49l-13.213-27.113v20.701c0,1.873,0.258,3.138,0.771,3.794c0.514,0.657,1.102,0.984,1.766,0.984h0.461v0.889h-6.932v-0.889
		c1.076-0.016,1.826-0.384,2.248-1.104c0.422-0.721,0.635-1.945,0.635-3.674v-22.983l-0.418-0.864
		c-0.414-0.865-0.779-1.433-1.096-1.705s-0.773-0.424-1.369-0.457v-0.889H333.034z"/>
	<path d="M296.895,289.361v13.376h0.563c0.863,0,1.57-0.216,2.117-0.648s1.012-1.161,1.391-2.186
		c0.379-1.024,0.627-2.409,0.742-4.155h0.504v16.354h-0.504c-0.184-3.089-0.68-5.127-1.492-6.112
		c-0.811-0.984-1.73-1.477-2.758-1.477h-0.563v9.966c0,1.666,0.055,2.706,0.166,3.122c0.109,0.417,0.326,0.781,0.648,1.093
		c0.32,0.313,0.756,0.468,1.303,0.468h0.648v0.889h-10.215v-0.889h0.648c0.566,0,1.021-0.168,1.367-0.504
		c0.25-0.224,0.443-0.608,0.578-1.152c0.105-0.384,0.158-1.393,0.158-3.026v-21.421c0-1.665-0.053-2.706-0.158-3.122
		c-0.107-0.416-0.32-0.78-0.643-1.093c-0.322-0.312-0.756-0.468-1.303-0.468h-0.648v-0.889h16.482v9.342h-0.59
		c-0.135-2.193-0.479-3.819-1.029-4.875c-0.553-1.057-1.354-1.801-2.4-2.233c-0.576-0.24-1.643-0.36-3.199-0.36H296.895z"/>
	<path d="M317.616,319.164v0.889h-10.217v-0.889h0.648c0.566,0,1.023-0.168,1.369-0.504c0.25-0.224,0.441-0.608,0.576-1.152
		c0.105-0.384,0.158-1.393,0.158-3.026v-21.421c0-1.665-0.053-2.706-0.158-3.122c-0.105-0.416-0.318-0.78-0.641-1.093
		c-0.322-0.312-0.756-0.468-1.305-0.468h-0.648v-0.889h10.217v0.889h-0.648c-0.566,0-1.023,0.168-1.369,0.504
		c-0.25,0.225-0.447,0.608-0.59,1.153c-0.107,0.384-0.16,1.393-0.16,3.026v21.421c0,1.666,0.057,2.706,0.166,3.122
		c0.111,0.417,0.326,0.781,0.648,1.093c0.322,0.313,0.758,0.468,1.305,0.468H317.616z"/>
	<path d="M336.922,308.621l-0.734,11.431H318.84v-0.889h0.648c0.566,0,1.021-0.168,1.367-0.504c0.25-0.224,0.443-0.608,0.578-1.152
		c0.105-0.384,0.158-1.393,0.158-3.026v-21.421c0-1.665-0.053-2.706-0.158-3.122c-0.107-0.416-0.32-0.78-0.643-1.093
		c-0.322-0.312-0.756-0.468-1.303-0.468h-0.648v-0.889h10.418v0.889h-0.852c-0.566,0-1.023,0.168-1.369,0.504
		c-0.25,0.225-0.445,0.608-0.59,1.153c-0.105,0.384-0.158,1.393-0.158,3.026v20.749c0,1.666,0.057,2.726,0.172,3.182
		c0.115,0.457,0.342,0.797,0.678,1.021c0.24,0.145,0.822,0.216,1.744,0.216h1.627c1.039,0,1.902-0.304,2.594-0.913
		c0.691-0.608,1.291-1.569,1.795-2.882c0.504-1.313,0.982-3.25,1.434-5.812H336.922z"/>
	<path d="M348.782,319.164v0.889h-10.215v-0.889h0.648c0.566,0,1.023-0.168,1.369-0.504c0.248-0.224,0.441-0.608,0.576-1.152
		c0.105-0.384,0.158-1.393,0.158-3.026v-21.421c0-1.665-0.053-2.706-0.158-3.122c-0.105-0.416-0.32-0.78-0.643-1.093
		c-0.32-0.312-0.756-0.468-1.303-0.468h-0.648v-0.889h10.215v0.889h-0.648c-0.566,0-1.021,0.168-1.367,0.504
		c-0.25,0.225-0.447,0.608-0.592,1.153c-0.105,0.384-0.158,1.393-0.158,3.026v21.421c0,1.666,0.055,2.706,0.166,3.122
		c0.109,0.417,0.326,0.781,0.648,1.093c0.32,0.313,0.756,0.468,1.303,0.468H348.782z"/>
	<path d="M360.856,287.031c3.113-0.192,5.643,1.321,7.588,4.539c1.945,3.218,2.918,7.245,2.918,12.08
		c0,4.13-0.727,7.765-2.176,10.903c-1.922,4.163-4.637,6.244-8.143,6.244c-3.516,0-6.234-1.985-8.154-5.956
		c-1.52-3.138-2.277-6.86-2.277-11.167c0-4.835,0.986-8.865,2.961-12.092C355.547,288.356,357.975,286.839,360.856,287.031z
		 M361.03,288.568c-1.787,0-3.146,1.521-4.078,4.563c-0.76,2.498-1.139,6.084-1.139,10.759c0,5.556,0.586,9.662,1.758,12.32
		c0.816,1.857,1.961,2.786,3.43,2.786c0.99,0,1.816-0.4,2.479-1.201c0.846-1.024,1.504-2.662,1.975-4.911s0.705-5.183,0.705-8.802
		c0-4.307-0.24-7.529-0.721-9.666c-0.48-2.138-1.092-3.646-1.836-4.527S362,288.568,361.03,288.568z"/>
</g>
<radialGradient id="SVGID_24_" cx="125.5869" cy="84.7695" r="66.8972" gradientUnits="userSpaceOnUse">
	<stop  offset="0" style="stop-color:#E7A523"/>
	<stop  offset="0.1213" style="stop-color:#E7A625"/>
	<stop  offset="0.2187" style="stop-color:#E9A92D"/>
	<stop  offset="0.3078" style="stop-color:#EDAF3C"/>
	<stop  offset="0.3919" style="stop-color:#F2B751"/>
	<stop  offset="0.4719" style="stop-color:#F9C26B"/>
	<stop  offset="0.5" style="stop-color:#FEC775"/>
	<stop  offset="0.5281" style="stop-color:#F9C26B"/>
	<stop  offset="0.6081" style="stop-color:#F2B751"/>
	<stop  offset="0.6922" style="stop-color:#EDAF3C"/>
	<stop  offset="0.7813" style="stop-color:#E9A92D"/>
	<stop  offset="0.8787" style="stop-color:#E7A625"/>
	<stop  offset="1" style="stop-color:#E7A523"/>
</radialGradient>
<polygon fill="url(#SVGID_24_)" stroke="#000000" stroke-width="2" stroke-miterlimit="10" points="176.558,77.367 176.558,61.435 
	161.74,61.435 161.74,77.367 133.002,77.367 133.002,48.628 148.934,48.628 148.934,33.81 133.002,33.81 133.002,17.878 
	118.184,17.878 118.184,33.81 102.252,33.81 102.252,48.628 118.184,48.628 118.184,77.354 89.434,77.354 89.434,61.423 
	74.617,61.423 74.617,77.354 58.684,77.354 58.684,92.172 74.617,92.172 74.617,108.104 89.434,108.104 89.434,92.172 
	118.172,92.172 118.172,120.911 102.241,120.911 102.241,135.729 118.172,135.729 118.172,151.661 132.99,151.661 132.99,135.729 
	148.922,135.729 148.922,120.911 132.99,120.911 132.99,92.185 161.74,92.185 161.74,108.116 176.558,108.116 176.558,92.185 
	192.49,92.185 192.49,77.367 "/>
<radialGradient id="SVGID_25_" cx="398.0239" cy="84.7695" r="66.8975" gradientUnits="userSpaceOnUse">
	<stop  offset="0" style="stop-color:#E7A523"/>
	<stop  offset="0.1213" style="stop-color:#E7A625"/>
	<stop  offset="0.2187" style="stop-color:#E9A92D"/>
	<stop  offset="0.3078" style="stop-color:#EDAF3C"/>
	<stop  offset="0.3919" style="stop-color:#F2B751"/>
	<stop  offset="0.4719" style="stop-color:#F9C26B"/>
	<stop  offset="0.5" style="stop-color:#FEC775"/>
	<stop  offset="0.5281" style="stop-color:#F9C26B"/>
	<stop  offset="0.6081" style="stop-color:#F2B751"/>
	<stop  offset="0.6922" style="stop-color:#EDAF3C"/>
	<stop  offset="0.7813" style="stop-color:#E9A92D"/>
	<stop  offset="0.8787" style="stop-color:#E7A625"/>
	<stop  offset="1" style="stop-color:#E7A523"/>
</radialGradient>
<polygon fill="url(#SVGID_25_)" stroke="#000000" stroke-width="2" stroke-miterlimit="10" points="448.995,77.367 448.995,61.435 
	434.177,61.435 434.177,77.367 405.44,77.367 405.44,48.628 421.372,48.628 421.372,33.81 405.44,33.81 405.44,17.878 
	390.622,17.878 390.622,33.81 374.69,33.81 374.69,48.628 390.622,48.628 390.622,77.354 361.872,77.354 361.872,61.423 
	347.053,61.423 347.053,77.354 331.122,77.354 331.122,92.172 347.053,92.172 347.053,108.104 361.872,108.104 361.872,92.172 
	390.61,92.172 390.61,120.911 374.678,120.911 374.678,135.729 390.61,135.729 390.61,151.661 405.427,151.661 405.427,135.729 
	421.36,135.729 421.36,120.911 405.427,120.911 405.427,92.185 434.177,92.185 434.177,108.116 448.995,108.116 448.995,92.185 
	464.927,92.185 464.927,77.367 "/>
<radialGradient id="SVGID_26_" cx="261.8052" cy="471.5225" r="66.8979" gradientUnits="userSpaceOnUse">
	<stop  offset="0" style="stop-color:#E7A523"/>
	<stop  offset="0.1213" style="stop-color:#E7A625"/>
	<stop  offset="0.2187" style="stop-color:#E9A92D"/>
	<stop  offset="0.3078" style="stop-color:#EDAF3C"/>
	<stop  offset="0.3919" style="stop-color:#F2B751"/>
	<stop  offset="0.4719" style="stop-color:#F9C26B"/>
	<stop  offset="0.5" style="stop-color:#FEC775"/>
	<stop  offset="0.5281" style="stop-color:#F9C26B"/>
	<stop  offset="0.6081" style="stop-color:#F2B751"/>
	<stop  offset="0.6922" style="stop-color:#EDAF3C"/>
	<stop  offset="0.7813" style="stop-color:#E9A92D"/>
	<stop  offset="0.8787" style="stop-color:#E7A625"/>
	<stop  offset="1" style="stop-color:#E7A523"/>
</radialGradient>
<polygon fill="url(#SVGID_26_)" stroke="#000000" stroke-width="2" stroke-miterlimit="10" points="312.776,464.12 312.776,448.188 
	297.958,448.188 297.958,464.12 269.221,464.12 269.221,435.381 285.153,435.381 285.153,420.563 269.221,420.563 269.221,404.631 
	254.403,404.631 254.403,420.563 238.471,420.563 238.471,435.381 254.403,435.381 254.403,464.107 225.653,464.107 
	225.653,448.176 210.834,448.176 210.834,464.107 194.903,464.107 194.903,478.925 210.834,478.925 210.834,494.857 
	225.653,494.857 225.653,478.925 254.391,478.925 254.391,507.665 238.459,507.665 238.459,522.481 254.391,522.481 
	254.391,538.415 269.208,538.415 269.208,522.481 285.141,522.481 285.141,507.665 269.208,507.665 269.208,478.938 
	297.958,478.938 297.958,494.869 312.776,494.869 312.776,478.938 328.708,478.938 328.708,464.12 "/>
</svg>
