<!DOCTYPE svg PUBLIC "-//W3C//DTD SVG 1.1//EN" "http://www.w3.org/Graphics/SVG/1.1/DTD/svg11.dtd" [
	<!ENTITY ns_flows "http://ns.adobe.com/Flows/1.0/">
]><svg xmlns="http://www.w3.org/2000/svg" xmlns:xlink="http://www.w3.org/1999/xlink" width="524" height="659" viewBox="0 0 524 659"><linearGradient id="a" gradientUnits="userSpaceOnUse" x1="37.789" y1="515.304" x2="92.683" y2="536.376"><stop offset="0" stop-color="#8B5E3C"/><stop offset=".497" stop-color="#FDC060"/></linearGradient><linearGradient id="b" gradientUnits="userSpaceOnUse" x1="430.929" y1="536.376" x2="485.824" y2="515.304"><stop offset=".503" stop-color="#FDC060"/><stop offset="1" stop-color="#8B5E3C"/></linearGradient><linearGradient id="c" gradientUnits="userSpaceOnUse" x1="1.5" y1="461.128" x2="107.092" y2="461.128"><stop offset="0" stop-color="#BCBEC0"/><stop offset=".333" stop-color="#E6E7E8"/></linearGradient><linearGradient id="d" gradientUnits="userSpaceOnUse" x1="416.52" y1="461.128" x2="522.112" y2="461.128"><stop offset=".632" stop-color="#E6E7E8"/><stop offset=".687" stop-color="#DBDCDD"/><stop offset=".793" stop-color="#CACBCD"/><stop offset=".898" stop-color="#BFC1C3"/><stop offset="1" stop-color="#BCBEC0"/></linearGradient><defs><path id="e" d="M261.113 3.5H10.093v258.714c0 161.08 140 299 251.713 341 118.286-39 251.714-175.92 251.714-337V3.5H261.113z"/></defs><radialGradient id="f" cx="261.806" cy="303.357" r="276.834" gradientUnits="userSpaceOnUse"><stop offset=".529" stop-color="#FFCC2E"/><stop offset="1" stop-color="#F18A21"/></radialGradient><use xlink:href="#e" overflow="visible" fill="url(#f)"/><clipPath id="g"><use xlink:href="#e" overflow="visible"/></clipPath><g clip-path="url(#g)"><linearGradient id="h" gradientUnits="userSpaceOnUse" x1="10.092" y1="148.303" x2="261.806" y2="148.303"><stop offset=".529" stop-color="#2E3192"/><stop offset="1" stop-color="#1E1E58"/></linearGradient><path fill="url(#h)" d="M261.806 116.448L10.092 265.105v-84.947L261.806 31.5"/><linearGradient id="i" gradientUnits="userSpaceOnUse" x1="261.806" y1="148.303" x2="513.52" y2="148.303"><stop offset="0" stop-color="#AD1015"/><stop offset=".471" stop-color="#ED1C24"/></linearGradient><path fill="url(#i)" d="M261.806 116.448L513.52 265.105v-84.947L261.806 31.5"/><path fill="none" stroke="#000" stroke-width="2" stroke-miterlimit="10" d="M261.806 31.5L10.092 180.158v84.947l251.714-148.657L513.52 265.105v-84.947z"/><g><linearGradient id="j" gradientUnits="userSpaceOnUse" x1="10.092" y1="319.604" x2="261.806" y2="319.604"><stop offset=".529" stop-color="#ED1C24"/><stop offset="1" stop-color="#AD1015"/></linearGradient><path fill="url(#j)" d="M261.806 287.75L10.092 436.407V351.46L261.806 202.8"/><linearGradient id="k" gradientUnits="userSpaceOnUse" x1="261.806" y1="319.604" x2="513.52" y2="319.604"><stop offset="0" stop-color="#1E1E58"/><stop offset=".471" stop-color="#2E3192"/></linearGradient><path fill="url(#k)" d="M261.806 287.75L513.52 436.407V351.46L261.806 202.8"/><path fill="none" stroke="#000" stroke-width="2" stroke-miterlimit="10" d="M261.806 202.802L10.092 351.46v84.947L261.806 287.75 513.52 436.407V351.46z"/></g><g><linearGradient id="l" gradientUnits="userSpaceOnUse" x1="10.092" y1="490.997" x2="261.806" y2="490.997"><stop offset=".529" stop-color="#2E3192"/><stop offset="1" stop-color="#1E1E58"/></linearGradient><path fill="url(#l)" d="M261.806 459.143L10.092 607.8v-84.947l251.714-148.66"/><linearGradient id="m" gradientUnits="userSpaceOnUse" x1="261.806" y1="490.997" x2="513.52" y2="490.997"><stop offset="0" stop-color="#AD1015"/><stop offset=".471" stop-color="#ED1C24"/></linearGradient><path fill="url(#m)" d="M261.806 459.143L513.52 607.8v-84.947l-251.714-148.66"/><path fill="none" stroke="#000" stroke-width="2" stroke-miterlimit="10" d="M261.806 374.194L10.092 522.854v84.945l251.714-148.657L513.52 607.8v-84.947z"/></g></g><use xlink:href="#e" overflow="visible" fill="none" stroke="#000" stroke-width="7" stroke-miterlimit="10"/><radialGradient id="n" cx="261.806" cy="575.523" r="180.594" gradientUnits="userSpaceOnUse"><stop offset=".632" stop-color="#FFF"/><stop offset=".705" stop-color="#F4F5F5"/><stop offset=".855" stop-color="#EAEBEB"/><stop offset="1" stop-color="#E6E7E8"/></radialGradient></svg>