<?xml version="1.0" encoding="utf-8"?>
<!-- Generator: Adobe Illustrator 15.0.0, SVG Export Plug-In  -->
<!DOCTYPE svg PUBLIC "-//W3C//DTD SVG 1.1//EN" "http://www.w3.org/Graphics/SVG/1.1/DTD/svg11.dtd" [
	<!ENTITY ns_flows "http://ns.adobe.com/Flows/1.0/">
]>
<svg version="1.1"
	 xmlns="http://www.w3.org/2000/svg" xmlns:xlink="http://www.w3.org/1999/xlink" xmlns:a="http://ns.adobe.com/AdobeSVGViewerExtensions/3.0/"
	 x="0px" y="0px" width="524px" height="659px" viewBox="0 0 524 659" enable-background="new 0 0 524 659" xml:space="preserve">
<defs>
</defs>
<linearGradient id="SVGID_3_" gradientUnits="userSpaceOnUse" x1="37.7886" y1="515.3037" x2="92.6829" y2="536.3757">
	<stop  offset="0" style="stop-color:#8B5E3C"/>
	<stop  offset="0.497" style="stop-color:#FDC060"/>
</linearGradient>
<path display="none" fill="url(#SVGID_3_)" stroke="#000000" stroke-width="3" stroke-miterlimit="10" d="M109.092,493.628l-72,70
	c0,0-13.53,0.171-11-15s23-55,23-55s1-8,21-9S109.092,493.628,109.092,493.628z"/>
<linearGradient id="SVGID_4_" gradientUnits="userSpaceOnUse" x1="430.9292" y1="536.376" x2="485.8235" y2="515.304">
	<stop  offset="0.503" style="stop-color:#FDC060"/>
	<stop  offset="1" style="stop-color:#8B5E3C"/>
</linearGradient>
<path display="none" fill="url(#SVGID_4_)" stroke="#000000" stroke-width="3" stroke-miterlimit="10" d="M414.52,493.628l72,70
	c0,0,13.529,0.171,11-15s-23-55-23-55s-1-8-21-9S414.52,493.628,414.52,493.628z"/>
<linearGradient id="SVGID_5_" gradientUnits="userSpaceOnUse" x1="1.5" y1="461.1279" x2="107.0923" y2="461.1279">
	<stop  offset="0" style="stop-color:#BCBEC0"/>
	<stop  offset="0.3333" style="stop-color:#E6E7E8"/>
</linearGradient>
<path display="none" fill="url(#SVGID_5_)" stroke="#000000" stroke-width="3" stroke-miterlimit="10" d="M2.092,456.628
	c0-18,7.316-28,35-28s51,8,51,8l19,57c0,0-71.883-16.141-90.941-9.07S2.092,456.628,2.092,456.628z"/>
<linearGradient id="SVGID_6_" gradientUnits="userSpaceOnUse" x1="416.52" y1="461.1279" x2="522.1118" y2="461.1279">
	<stop  offset="0.6316" style="stop-color:#E6E7E8"/>
	<stop  offset="0.6867" style="stop-color:#DBDCDD"/>
	<stop  offset="0.7932" style="stop-color:#CACBCD"/>
	<stop  offset="0.8984" style="stop-color:#BFC1C3"/>
	<stop  offset="1" style="stop-color:#BCBEC0"/>
</linearGradient>
<path display="none" fill="url(#SVGID_6_)" stroke="#000000" stroke-width="3" stroke-miterlimit="10" d="M521.52,456.628
	c0-18-7.316-28-35-28s-51,8-51,8l-19,57c0,0,71.883-16.141,90.941-9.07S521.52,456.628,521.52,456.628z"/>
<path display="none" fill="#FBB040" stroke="#000000" stroke-width="3" stroke-miterlimit="10" d="M2.092,456.628c0,0,8,6,23,6
	c9.731,10.067,11,32,11,58.345c-25-1.345-34-19.345-34-48.345S2.092,456.628,2.092,456.628z"/>
<path display="none" fill="#FBB040" stroke="#000000" stroke-width="3" stroke-miterlimit="10" d="M521.52,456.628c0,0-8,6-23,6
	c-9.731,10.067-11,32-11,58.345c25-1.345,34-19.345,34-48.345S521.52,456.628,521.52,456.628z"/>
<g>
	<defs>
		<path id="SVGID_2_" d="M261.113,3.5H10.092c0,0,0,138.937,0,258.714c0,161.081,140,299,251.714,341
			c118.286-39,251.714-175.92,251.714-337c0-119.778,0-262.714,0-262.714H261.113z"/>
	</defs>
	<radialGradient id="SVGID_7_" cx="261.8062" cy="303.3569" r="276.8339" gradientUnits="userSpaceOnUse">
		<stop  offset="0.5287" style="stop-color:#FFCC2E"/>
		<stop  offset="1" style="stop-color:#F18A21"/>
	</radialGradient>
	<use xlink:href="#SVGID_2_"  overflow="visible" fill="url(#SVGID_7_)"/>
	<clipPath id="SVGID_8_">
		<use xlink:href="#SVGID_2_"  overflow="visible"/>
	</clipPath>
	<g clip-path="url(#SVGID_8_)">
		<g>
			<linearGradient id="SVGID_9_" gradientUnits="userSpaceOnUse" x1="10.0923" y1="148.3027" x2="261.8062" y2="148.3027">
				<stop  offset="0.5287" style="stop-color:#2E3192"/>
				<stop  offset="1" style="stop-color:#1E1E58"/>
			</linearGradient>
			<polygon fill="url(#SVGID_9_)" points="261.806,116.448 10.092,265.105 10.092,180.158 261.806,31.5 			"/>
			<linearGradient id="SVGID_10_" gradientUnits="userSpaceOnUse" x1="261.8062" y1="148.3027" x2="513.52" y2="148.3027">
				<stop  offset="0" style="stop-color:#AD1015"/>
				<stop  offset="0.4713" style="stop-color:#ED1C24"/>
			</linearGradient>
			<polyline fill="url(#SVGID_10_)" points="261.806,116.448 513.52,265.105 513.52,180.158 261.806,31.5 			"/>
			<polygon fill="none" stroke="#000000" stroke-width="2" stroke-miterlimit="10" points="261.806,31.5 10.092,180.158 
				10.092,265.105 261.806,116.448 513.52,265.105 513.52,180.158 			"/>
		</g>
		<g>
			<linearGradient id="SVGID_11_" gradientUnits="userSpaceOnUse" x1="10.0923" y1="319.6045" x2="261.8062" y2="319.6045">
				<stop  offset="0.5287" style="stop-color:#ED1C24"/>
				<stop  offset="1" style="stop-color:#AD1015"/>
			</linearGradient>
			<polygon fill="url(#SVGID_11_)" points="261.806,287.75 10.092,436.407 10.092,351.459 261.806,202.802 			"/>
			<linearGradient id="SVGID_12_" gradientUnits="userSpaceOnUse" x1="261.8062" y1="319.6045" x2="513.52" y2="319.6045">
				<stop  offset="0" style="stop-color:#1E1E58"/>
				<stop  offset="0.4713" style="stop-color:#2E3192"/>
			</linearGradient>
			<polyline fill="url(#SVGID_12_)" points="261.806,287.75 513.52,436.407 513.52,351.459 261.806,202.802 			"/>
			<polygon fill="none" stroke="#000000" stroke-width="2" stroke-miterlimit="10" points="261.806,202.802 10.092,351.459 
				10.092,436.407 261.806,287.75 513.52,436.407 513.52,351.459 			"/>
		</g>
		<g>
			<linearGradient id="SVGID_13_" gradientUnits="userSpaceOnUse" x1="10.0923" y1="490.9971" x2="261.8062" y2="490.9971">
				<stop  offset="0.5287" style="stop-color:#2E3192"/>
				<stop  offset="1" style="stop-color:#1E1E58"/>
			</linearGradient>
			<polygon fill="url(#SVGID_13_)" points="261.806,459.143 10.092,607.799 10.092,522.853 261.806,374.194 			"/>
			<linearGradient id="SVGID_14_" gradientUnits="userSpaceOnUse" x1="261.8062" y1="490.9971" x2="513.52" y2="490.9971">
				<stop  offset="0" style="stop-color:#AD1015"/>
				<stop  offset="0.4713" style="stop-color:#ED1C24"/>
			</linearGradient>
			<polyline fill="url(#SVGID_14_)" points="261.806,459.143 513.52,607.799 513.52,522.853 261.806,374.194 			"/>
			<polygon fill="none" stroke="#000000" stroke-width="2" stroke-miterlimit="10" points="261.806,374.194 10.092,522.853 
				10.092,607.799 261.806,459.143 513.52,607.799 513.52,522.853 			"/>
		</g>
	</g>
	<use xlink:href="#SVGID_2_"  overflow="visible" fill="none" stroke="#000000" stroke-width="7" stroke-miterlimit="10"/>
</g>
<radialGradient id="SVGID_15_" cx="261.8062" cy="575.5225" r="180.5935" gradientUnits="userSpaceOnUse">
	<stop  offset="0.6316" style="stop-color:#FFFFFF"/>
	<stop  offset="0.7049" style="stop-color:#F4F5F5"/>
	<stop  offset="0.8549" style="stop-color:#EAEBEB"/>
	<stop  offset="1" style="stop-color:#E6E7E8"/>
</radialGradient>
<path display="none" fill="url(#SVGID_15_)" stroke="#000000" stroke-width="3" stroke-miterlimit="10" d="M474.52,493.628
	c0,0-35,101-212.714,101s-212.714-101-212.714-101s-32,43-29,61S84.52,657.416,261.806,657.416S500.52,572.628,503.52,554.628
	S474.52,493.628,474.52,493.628z"/>
<g display="none">
	<path fill="none" d="M20.092,554.628c3,18,64.428,102.788,241.714,102.788S500.52,572.628,503.52,554.628"/>
	<path display="inline" d="M46.012,560.787l2.629-0.352l0.432,2.32c2.301,2.062,4.902,3.016,7.803,2.861
		c1.927-0.097,4.089-0.7,6.487-1.811c2.397-1.109,4.519-2.486,6.363-4.13c1.68-1.502,2.83-3.034,3.451-4.596
		s0.553-2.766-0.203-3.612c-1.171-1.313-3.191-1.563-6.062-0.752s-5.641,2.406-8.313,4.787c-2.593,2.317-3.374,4.052-2.345,5.205
		c0.616,0.69,1.642,1.065,3.078,1.126l-1.354,0.92c-2.021,0.011-3.459-0.464-4.316-1.424c-0.729-0.815-0.845-1.884-0.351-3.204
		c0.494-1.321,1.516-2.672,3.064-4.055c2.907-2.595,6.202-4.19,9.884-4.789c3.683-0.598,6.35,0.029,8.002,1.88
		c1.154,1.293,1.454,2.987,0.9,5.082c-0.554,2.096-1.809,4.017-3.766,5.764c-3.164,2.823-6.647,4.495-10.451,5.015
		c-3.803,0.521-7.617-0.157-11.441-2.032l1.61,9.065c0.284,1.618,0.742,2.781,1.375,3.49c0.717,0.804,1.95,1.287,3.7,1.45
		l-1.237,0.851c-2.537,0.178-4.208-0.185-5.015-1.088c-0.448-0.502-0.81-1.481-1.086-2.938L46.012,560.787z"/>
	<path display="inline" d="M69.93,586.84l4.329-4.057c-3.921,1.857-6.708,2.109-8.362,0.757c-1.152-0.942-1.573-2.302-1.261-4.078
		c0.312-1.775,1.302-3.684,2.97-5.723c1.04-1.271,2.933-3.184,5.68-5.737c2.747-2.555,5.42-4.89,8.021-7.006
		c-0.268-0.35-0.466-0.578-0.597-0.685c-1.074-0.879-2.443-1.032-4.106-0.461s-3.2,1.72-4.61,3.443l-3.043-0.146
		c5.033-5.568,10.05-6.308,15.05-2.217l0.703,0.575c-2.897,2.333-5.815,4.862-8.752,7.59s-5.007,4.825-6.208,6.293
		c-1.306,1.597-2.119,3.016-2.439,4.258s-0.106,2.17,0.642,2.782c0.788,0.645,1.985,0.769,3.591,0.372
		c1.606-0.396,3.438-1.273,5.496-2.633l14.184-13.334l2.519,1.444l-4.623,4.136l-10.052,9.438c-1.842,1.733-2.996,2.886-3.463,3.457
		c-0.871,1.063-0.873,1.949-0.007,2.658c0.306,0.25,0.737,0.521,1.293,0.811l-0.901,0.842L69.93,586.84z"/>
	<path display="inline" d="M76.39,590.666l3.132-1.324l0.707,0.463c0.802,0.526,1.654,0.519,2.558-0.022
		c0.903-0.542,2.271-1.879,4.102-4.011l10.264-11.898l-2.859-1.876l3.08-1.359l6.868,4.505l-3.153,1.312l-1.72-1.128l-8.901,10.326
		c-2.726,3.159-5.622,4.997-8.687,5.514l4,2.852l-3.069,1.366L76.39,590.666z"/>
	<path display="inline" d="M97.469,603.487l2.946-1.671l0.134,0.154c0.078,0.068,0.29,0.19,0.635,0.366
		c0.832,0.423,1.677,0.289,2.534-0.403c0.857-0.691,2.122-2.254,3.795-4.688l8.734-12.735l-2.845-1.448
		c-2.886-1.469-5.207-0.479-6.962,2.969c-0.208,0.408-0.431,0.931-0.669,1.565l-3.179,0.46c2.013-3.175,4.313-5.331,6.903-6.469
		c2.59-1.139,5.095-1.092,7.517,0.142l4.768,2.427c2.151,1.095,3.686,1.604,4.602,1.528s1.876-0.794,2.88-2.154l2.215-0.18
		c-1.599,1.843-3.479,3.035-5.643,3.576c-2.164,0.541-4.197,0.327-6.101-0.642l-1.125-0.572l-7.6,11.063
		c-1.363,1.991-2.629,3.464-3.799,4.418c-1.17,0.954-2.622,1.696-4.355,2.228l4.271,2.346l-2.845,1.723L97.469,603.487z"/>
	<path display="inline" d="M109.752,609.604l2.859-1.841l0.776,0.336c0.88,0.381,1.718,0.228,2.516-0.461
		c0.797-0.688,1.916-2.238,3.355-4.652l8.079-13.479l-3.138-1.359l2.802-1.866l7.537,3.265l-2.883,1.831l-1.887-0.817l-7.004,11.696
		c-2.146,3.579-4.685,5.885-7.616,6.918l4.428,2.125l-2.791,1.871L109.752,609.604z"/>
	<path display="inline" d="M121.155,612.934l2.624-2.061c0.111,2.274,0.881,3.659,2.312,4.155c0.938,0.325,1.977,0.012,3.117-0.94
		c1.14-0.951,2.185-2.374,3.135-4.268l8.193-16.356c-0.372-0.236-0.637-0.382-0.796-0.438c-1.311-0.454-2.649-0.127-4.013,0.983
		c-1.364,1.11-2.411,2.718-3.141,4.822l-2.907,0.912c1.33-3.298,3.121-5.601,5.372-6.908s4.732-1.491,7.443-0.552l0.965,0.335
		c-0.676,6.703-1.811,13.442-3.402,20.219l14.441-16.393l2.708,0.433l-2.913,5.477l-7.051,14.064
		c-0.621,1.253-1.067,2.271-1.338,3.052c-0.367,1.059-0.125,1.735,0.726,2.03c0.421,0.146,1.008,0.275,1.761,0.388l-0.555,1.101
		l-6.501-0.273l11.228-22.416l-15.007,16.944l-1.328-0.137l0.182-0.523c1.63-4.702,2.895-10.804,3.794-18.305l-3.528,7.021
		c-4.339,8.667-8.512,12.306-12.517,10.917C122.758,615.732,121.757,614.638,121.155,612.934z"/>
	<path display="inline" d="M149.748,624.274l2.526-2.278l0.208,0.054c1.237,0.324,2.191,0.159,2.862-0.493
		c0.67-0.653,1.521-2.251,2.552-4.795l6.635-16.288c-1.677-0.438-3.209-0.112-4.599,0.978c-1.39,1.091-2.371,2.731-2.944,4.923
		l-0.106,0.406l-2.822,1.117c1.18-3.678,2.87-6.183,5.07-7.515c2.201-1.332,5.001-1.553,8.403-0.663l7.178,1.878l-2.454,4.942
		l-0.769-0.201c0.191-0.463,0.336-0.886,0.436-1.268c0.254-0.973,0.062-1.74-0.578-2.302c-0.64-0.563-1.932-1.098-3.877-1.606
		l-0.378-0.099l-4.276,10.563l5.444,1.424l-1.742,1.576c-1.754-0.84-2.965-1.347-3.632-1.521l-0.61-0.159l-0.777,1.924
		c-0.871,2.163-1.768,3.823-2.692,4.98s-2.198,2.213-3.822,3.167l5.768,1.884l1.267,0.391c1.326,0.347,2.746-0.012,4.259-1.076
		l-0.582,1.426c-2.017,1.828-3.66,2.575-4.93,2.243l-0.557-0.165L149.748,624.274z"/>
	<path display="inline" d="M169.728,629.235l2.397-2.393l0.17,0.113c0.094,0.045,0.33,0.106,0.709,0.185
		c0.915,0.188,1.693-0.166,2.337-1.061c0.643-0.894,1.448-2.736,2.417-5.525l5.045-14.596l-3.127-0.642
		c-3.172-0.651-5.147,0.918-5.926,4.708c-0.092,0.448-0.169,1.011-0.23,1.688l-2.943,1.286c1.099-3.595,2.746-6.284,4.941-8.068
		c2.195-1.783,4.624-2.402,7.285-1.856l5.24,1.076c2.365,0.486,3.979,0.571,4.842,0.254c0.864-0.316,1.599-1.263,2.207-2.841
		l2.088-0.76c-1.053,2.2-2.551,3.849-4.493,4.944c-1.942,1.095-3.96,1.428-6.053,0.998l-1.236-0.254l-4.395,12.683
		c-0.786,2.281-1.617,4.037-2.492,5.267c-0.875,1.23-2.078,2.331-3.608,3.304l4.74,1.129l-2.286,2.415L169.728,629.235z"/>
	<path display="inline" d="M193.879,633.75l2.19-2.575l0.192-0.015c0.052-0.006,0.159,0.014,0.323,0.06
		c0.082,0.023,0.173,0.041,0.273,0.054c0.91,0.113,1.649-0.222,2.217-1.004c0.567-0.782,1.128-2.241,1.683-4.379l4.604-17.685
		c-1.72-0.214-3.196,0.311-4.43,1.574s-1.991,3.02-2.271,5.268l-0.052,0.417l-2.651,1.479c1.366-7.436,5.397-10.737,12.091-9.903
		l3.618,0.45c2.788,0.348,4.702,1.384,5.742,3.11c1.039,1.726,1.337,4.37,0.894,7.932c-0.719,5.772-2.598,10.127-5.638,13.064
		c-3.04,2.937-6.88,4.116-11.521,3.538c-0.192-0.023-0.578-0.091-1.157-0.201L193.879,633.75z M198.696,631.926l2.158,0.846
		c1.171,0.466,2.383,0.777,3.635,0.933c1.719,0.215,3.104,0.024,4.152-0.569c1.048-0.594,2.1-1.788,3.154-3.58
		c1.859-3.155,3.042-6.772,3.551-10.852c0.783-6.29-1.121-9.721-5.712-10.292l-1.565-0.195l-3.725,14.293
		c-0.671,2.597-1.391,4.534-2.16,5.811C201.415,629.596,200.252,630.798,198.696,631.926z"/>
	<path display="inline" d="M218.3,636.584l2.073-2.697l0.214,0.016c1.275,0.095,2.183-0.239,2.725-1.002
		c0.542-0.764,1.089-2.489,1.644-5.178l3.583-17.219c-1.729-0.128-3.177,0.47-4.347,1.793s-1.838,3.115-2.006,5.374l-0.031,0.419
		l-2.574,1.608c0.496-3.83,1.705-6.6,3.628-8.308c1.924-1.707,4.639-2.431,8.145-2.17l7.398,0.55l-1.52,5.305l-0.793-0.059
		c0.104-0.49,0.17-0.933,0.2-1.326c0.075-1.002-0.254-1.723-0.984-2.159c-0.731-0.438-2.099-0.73-4.104-0.88l-0.39-0.028
		l-2.297,11.162l5.612,0.417l-1.429,1.865c-1.877-0.509-3.16-0.789-3.847-0.84l-0.629-0.047l-0.417,2.033
		c-0.465,2.284-1.048,4.079-1.748,5.385c-0.7,1.305-1.762,2.573-3.187,3.806l6.013,0.81l1.317,0.155
		c1.367,0.102,2.699-0.508,3.995-1.828l-0.314,1.508c-1.653,2.162-3.135,3.194-4.443,3.097l-0.577-0.062L218.3,636.584z"/>
	<path display="inline" d="M252.478,639.072l0.952-5.854c-1.973,3.864-4.025,5.766-6.161,5.704c-1.488-0.043-2.651-0.863-3.488-2.46
		s-1.218-3.712-1.142-6.346c0.047-1.642,0.379-4.312,0.996-8.012s1.308-7.183,2.076-10.445c-0.426-0.114-0.723-0.174-0.891-0.179
		c-1.387-0.04-2.565,0.674-3.533,2.143c-0.968,1.468-1.484,3.315-1.549,5.541l-2.5,1.742c0.587-7.482,4.109-11.131,10.566-10.943
		l0.908,0.026c-0.871,3.616-1.637,7.401-2.298,11.354c-0.662,3.954-1.02,6.879-1.075,8.774c-0.06,2.061,0.163,3.682,0.667,4.861
		s1.24,1.783,2.207,1.812c1.017,0.029,2.041-0.604,3.071-1.897c1.031-1.295,1.945-3.107,2.746-5.44l3.094-19.221l2.876-0.394
		l-1.136,6.098l-2.199,13.612c-0.4,2.497-0.611,4.114-0.633,4.852c-0.039,1.374,0.499,2.077,1.618,2.109
		c0.395,0.012,0.901-0.037,1.519-0.146l-0.199,1.217L252.478,639.072z"/>
	<path display="inline" d="M260.44,636.848l1.735-2.85c0.9,2.092,2.107,3.119,3.621,3.083c0.992-0.024,1.855-0.682,2.59-1.973
		s1.216-2.989,1.442-5.096l1.945-18.189c-0.432-0.092-0.731-0.135-0.899-0.131c-1.388,0.033-2.525,0.809-3.414,2.326
		c-0.89,1.518-1.307,3.39-1.253,5.616l-2.403,1.873c0.091-3.555,0.962-6.338,2.612-8.352c1.651-2.014,3.91-3.055,6.778-3.124
		l1.021-0.025c1.714,6.516,3.012,13.226,3.895,20.13l7.785-20.412l2.688-0.542l-0.81,6.149l-1.679,15.644
		c-0.144,1.391-0.205,2.5-0.185,3.327c0.026,1.12,0.49,1.669,1.39,1.646c0.446-0.011,1.041-0.095,1.786-0.253l-0.135,1.226
		l-6.186,2.021l2.666-24.93l-8.122,21.127l-1.291,0.337l-0.014-0.554c-0.12-4.975-1.073-11.133-2.857-18.474l-0.846,7.812
		c-1.029,9.638-3.663,14.507-7.901,14.609C262.921,638.907,261.601,638.232,260.44,636.848z"/>
	<path display="inline" d="M305.648,623.369l0.747-1.605l1.331-0.126l0.433-12.258c-1.716,0.163-3.042,0.996-3.977,2.497
		c-0.935,1.502-1.295,3.381-1.081,5.636l0.053,0.417l-2.279,2.02c-0.152-3.911,0.575-6.856,2.183-8.838
		c1.607-1.98,4.208-3.142,7.8-3.483l7.248-0.688l-0.62,5.486l-0.804,0.076c0.061-0.517,0.067-1.022,0.021-1.517
		c-0.156-1.646-1.947-2.309-5.372-1.982l-0.54,0.051l-0.438,12.335l5.477-0.521l-1.059,2.057c-1.367-0.151-2.652-0.17-3.858-0.056
		l-0.615,0.059l-0.2,5.639c-0.166,4.746-0.993,8.603-2.481,11.569s-3.396,4.561-5.725,4.782c-1.256,0.119-2.446-0.49-3.57-1.828
		l1.576-3.026c0.858,2.015,2.021,2.953,3.486,2.813c1.34-0.127,2.306-1.143,2.898-3.046c0.592-1.904,0.973-5.21,1.143-9.918
		l0.247-6.736L305.648,623.369z"/>
	<path display="inline" d="M315.743,634.019l1.318-2.813c1.054,1.727,2.223,2.498,3.505,2.314c1.224-0.176,2.265-1.112,3.122-2.81
		c0.856-1.698,1.753-4.62,2.689-8.766l3.366-14.848c-0.931-0.034-1.721-0.005-2.37,0.088c-1.74,0.25-2.989,1.101-3.745,2.555
		c-0.757,1.453-0.959,3.402-0.608,5.85l-2.186,2.186c-0.182-2.394-0.025-4.417,0.469-6.071c0.544-1.841,1.3-3.204,2.27-4.09
		c0.969-0.885,2.458-1.581,4.468-2.088c0.402-0.096,1.009-0.254,1.818-0.473l2.448-1.064l1.064,6.274l2.596,12.964
		c0.602,3.016,1.124,4.983,1.565,5.904c0.442,0.921,1.059,1.324,1.85,1.211c0.142-0.02,0.623-0.128,1.445-0.322l0.017,1.271
		l-5.527,2.258l-1.847-9.244l-6.807,0.975c-0.821,3.641-1.72,6.235-2.696,7.783s-2.276,2.438-3.9,2.67
		C318.527,635.953,317.085,635.382,315.743,634.019z M327,623.804l6.183-0.885l-2.835-14.094L327,623.804z"/>
	<path display="inline" d="M355.231,627.223c-2.304,2.122-4.445,3.381-6.425,3.776c-2.128,0.426-3.959-0.149-5.491-1.726
		c-1.533-1.576-2.627-4.005-3.283-7.288c-1.04-5.204-0.801-9.856,0.718-13.956c1.518-4.1,3.873-6.469,7.065-7.106
		c1.905-0.381,3.747-0.372,5.525,0.026l-0.022,5.361l-0.779,0.155c-0.035-0.603-0.09-1.092-0.165-1.467
		c-0.217-1.087-0.785-1.889-1.703-2.407c-0.919-0.518-2.005-0.651-3.258-0.401c-1.89,0.378-3.289,1.982-4.198,4.813
		c-0.604,1.874-0.952,4.12-1.047,6.736c-0.095,2.617,0.081,5.043,0.527,7.278c0.539,2.698,1.432,4.729,2.677,6.09
		c1.246,1.361,2.686,1.879,4.318,1.553c1.831-0.365,3.639-1.453,5.421-3.264L355.231,627.223z"/>
	<path display="inline" d="M356.591,628.653l1.167-3.194l0.821-0.2c0.932-0.228,1.507-0.856,1.728-1.887
		c0.22-1.029,0.175-2.941-0.136-5.735l-1.702-15.622l-3.321,0.813l1.106-3.18l7.979-1.95l-1.191,3.2l-1.998,0.488l1.481,13.553
		c0.451,4.148-0.18,7.52-1.892,10.113l4.813-0.98l-1.094,3.176L356.591,628.653z"/>
	<path display="inline" d="M369.508,625.482l0.992-3.253l0.206-0.061c1.228-0.359,1.96-0.991,2.199-1.896
		c0.238-0.905,0.146-2.713-0.28-5.425l-2.698-17.379c-1.663,0.487-2.809,1.556-3.438,3.205c-0.63,1.65-0.627,3.563,0.01,5.736
		l0.118,0.403l-1.845,2.41c-0.882-3.76-0.723-6.777,0.478-9.052c1.201-2.274,3.488-3.906,6.862-4.895l7.12-2.086l0.441,5.501
		l-0.763,0.224c-0.075-0.495-0.168-0.933-0.279-1.311c-0.282-0.965-0.843-1.524-1.681-1.677s-2.222,0.054-4.15,0.619l-0.376,0.11
		l1.772,11.258l5.4-1.582l-0.683,2.248c-1.936,0.184-3.234,0.372-3.896,0.565l-0.605,0.178l0.324,2.05
		c0.367,2.303,0.453,4.188,0.256,5.655c-0.196,1.468-0.745,3.029-1.646,4.683l5.914-1.354l1.287-0.317
		c1.316-0.386,2.349-1.424,3.098-3.115l0.235,1.522c-0.788,2.604-1.812,4.092-3.071,4.46l-0.563,0.146L369.508,625.482z"/>
	<path display="inline" d="M389.159,619.437l0.797-3.292l0.204,0.008c0.104-0.01,0.337-0.081,0.701-0.213
		c0.878-0.316,1.358-1.024,1.439-2.123c0.082-1.099-0.192-3.09-0.822-5.976l-3.313-15.083l-3.003,1.084
		c-3.046,1.101-3.912,3.47-2.598,7.109c0.155,0.431,0.384,0.95,0.684,1.56l-1.84,2.633c-0.938-3.64-0.937-6.793,0.005-9.461
		c0.942-2.667,2.69-4.462,5.246-5.385l5.032-1.817c2.271-0.819,3.691-1.59,4.263-2.311c0.572-0.72,0.705-1.911,0.399-3.574
		l1.385-1.738c0.25,2.427-0.167,4.614-1.252,6.563c-1.086,1.948-2.633,3.284-4.643,4.01l-1.187,0.429l2.869,13.111
		c0.52,2.357,0.728,4.288,0.623,5.794s-0.557,3.073-1.354,4.701l4.633-1.511l-0.69,3.254L389.159,619.437z"/>
	<path display="inline" d="M412.006,610.506l0.428-3.353l0.238-0.116c1.134-0.554,1.725-1.327,1.773-2.321
		c0.049-0.993-0.41-2.94-1.376-5.84l-5.376-16.05c-1.558,0.761-2.508,2.007-2.851,3.739c-0.344,1.732-0.019,3.616,0.976,5.652
		l0.185,0.378l-1.413,2.686c-1.52-3.592-1.874-6.602-1.065-9.029c0.81-2.427,2.831-4.43,6.066-6.009
		c2.283-1.114,4.096-1.538,5.438-1.272s2.434,1.262,3.277,2.989c1.702,3.488,1.152,6.773-1.649,9.854
		c3.61-0.006,6.019,1.227,7.225,3.697c1.077,2.208,1.188,4.459,0.333,6.752c-0.855,2.295-2.447,4.01-4.775,5.146l-2.755,1.175
		L412.006,610.506z M413.777,592.731l0.59-0.288c1.398-0.683,2.249-1.873,2.553-3.572c0.304-1.698-0.014-3.509-0.951-5.431
		c-1.318-2.699-3.224-3.44-5.719-2.223l-0.283,0.139L413.777,592.731z M415.136,606.217l1.372-0.181
		c1.341-0.188,2.649-0.593,3.927-1.216c2.601-1.27,3.005-3.74,1.213-7.411c-0.876-1.796-1.955-3.022-3.234-3.68
		c-1.28-0.656-2.59-0.659-3.928-0.006l-0.328,0.16l0.688,2.044C416.178,599.923,416.275,603.353,415.136,606.217z"/>
	<path display="inline" d="M436.01,598.669c-1.772,1.068-3.678,1.081-5.717,0.037c-2.04-1.044-3.921-2.993-5.644-5.849
		c-2.584-4.283-3.878-8.631-3.883-13.043c-0.004-4.412,1.283-7.396,3.861-8.951c1.757-1.061,3.644-1.08,5.66-0.059
		c2.016,1.021,3.871,2.938,5.567,5.749c2.696,4.468,4.058,8.871,4.087,13.209C439.971,594.102,438.661,597.069,436.01,598.669z
		 M435.76,597.303c1.873-1.13,2.574-3.597,2.104-7.401c-0.469-3.805-1.969-7.805-4.497-12.002c-3.211-5.317-6.036-7.24-8.476-5.769
		c-1.873,1.13-2.588,3.583-2.146,7.359c0.443,3.776,1.912,7.735,4.409,11.878C430.438,596.805,433.307,598.783,435.76,597.303z"/>
	<path display="inline" d="M443.787,591.267l-0.29-3.308c1.976,1.14,3.554,1.249,4.734,0.328c0.789-0.615,1.097-1.657,0.922-3.127
		c-0.174-1.469-0.802-3.122-1.881-4.96l-9.256-15.757c-0.401,0.184-0.671,0.329-0.811,0.438c-1.088,0.849-1.537,2.146-1.348,3.895
		c0.189,1.749,0.969,3.501,2.338,5.258l-0.816,2.936c-1.94-2.764-2.891-5.468-2.852-8.113c0.04-2.645,1.062-4.748,3.065-6.31
		l0.955-0.744c2.749,2.118,5.851,4.243,9.305,6.377l3.916,2.418c2.705,1.652,4.826,3.04,6.364,4.165l-5.638-9.596
		c-1.948-3.308-3.074-6.161-3.378-8.563c-0.304-2.402,0.234-4.141,1.614-5.216c0.491-0.383,1.082-0.616,1.772-0.703l0.867,2.592
		c-1.138-0.242-1.979-0.152-2.523,0.271c-1.433,1.117-0.924,3.755,1.526,7.912l7.344,12.503l3.006,4.822l-0.758,1.655
		c-1.123-0.948-3.47-2.524-7.042-4.727l-7.531-4.636c-2.012-1.24-3.766-2.383-5.262-3.428l3.762,6.388
		c2.371,4.042,3.758,7.487,4.159,10.337c0.402,2.85-0.209,4.907-1.835,6.174C447.077,591.438,445.599,591.678,443.787,591.267z"/>
	<path display="inline" d="M463.822,575.9l-0.776-3.007c1.913,0.659,3.305,0.509,4.176-0.449c0.832-0.915,1.037-2.3,0.616-4.155
		c-0.421-1.854-1.592-4.678-3.512-8.469l-6.866-13.59c-0.739,0.567-1.329,1.094-1.771,1.579c-1.183,1.301-1.603,2.753-1.259,4.354
		c0.343,1.602,1.429,3.234,3.258,4.896l-0.291,3.077c-1.665-1.729-2.834-3.389-3.508-4.978c-0.754-1.766-1.039-3.299-0.856-4.599
		s0.888-2.785,2.113-4.456c0.249-0.33,0.616-0.838,1.101-1.523l1.208-2.38l4.818,4.158l10.261,8.338
		c2.385,1.94,4.041,3.124,4.969,3.553c0.928,0.428,1.66,0.347,2.197-0.245c0.097-0.105,0.399-0.495,0.908-1.169l0.822,0.969
		l-2.821,5.261l-7.313-5.947l-4.625,5.088c1.687,3.329,2.646,5.901,2.881,7.717c0.233,1.814-0.201,3.329-1.305,4.543
		C467.2,575.618,465.725,576.097,463.822,575.9z M465.99,560.855l4.201-4.621l-11.164-9.057L465.99,560.855z"/>
</g>
</svg>
