<!DOCTYPE svg PUBLIC "-//W3C//DTD SVG 1.1//EN" "http://www.w3.org/Graphics/SVG/1.1/DTD/svg11.dtd" [
	<!ENTITY ns_flows "http://ns.adobe.com/Flows/1.0/">
]><svg xmlns="http://www.w3.org/2000/svg" xmlns:xlink="http://www.w3.org/1999/xlink" width="524" height="659" viewBox="0 0 524 659"><linearGradient id="a" gradientUnits="userSpaceOnUse" x1="37.789" y1="515.304" x2="92.683" y2="536.376"><stop offset="0" stop-color="#8B5E3C"/><stop offset=".497" stop-color="#FDC060"/></linearGradient><linearGradient id="b" gradientUnits="userSpaceOnUse" x1="430.929" y1="536.376" x2="485.824" y2="515.304"><stop offset=".503" stop-color="#FDC060"/><stop offset="1" stop-color="#8B5E3C"/></linearGradient><linearGradient id="c" gradientUnits="userSpaceOnUse" x1="1.5" y1="461.128" x2="107.092" y2="461.128"><stop offset="0" stop-color="#BCBEC0"/><stop offset=".333" stop-color="#E6E7E8"/></linearGradient><linearGradient id="d" gradientUnits="userSpaceOnUse" x1="416.52" y1="461.128" x2="522.112" y2="461.128"><stop offset=".632" stop-color="#E6E7E8"/><stop offset=".687" stop-color="#DBDCDD"/><stop offset=".793" stop-color="#CACBCD"/><stop offset=".898" stop-color="#BFC1C3"/><stop offset="1" stop-color="#BCBEC0"/></linearGradient><defs><path id="e" d="M261.113 3.5H10.093v258.714c0 161.08 140 299 251.713 341 118.286-39 251.714-175.92 251.714-337V3.5H261.113z"/></defs><linearGradient id="f" gradientUnits="userSpaceOnUse" x1="261.806" y1="603.214" x2="261.806" y2="3.501"><stop offset="0" stop-color="#E6E7E8"/><stop offset="1" stop-color="#FFF"/></linearGradient><use xlink:href="#e" overflow="visible" fill="url(#f)"/><clipPath id="g"><use xlink:href="#e" overflow="visible"/></clipPath><g clip-path="url(#g)"><path fill="#ED2224" d="M96.722 330.128s4.817-23.106 15.338-42.676c1.312-2.44 8.498-13.81 6.83-16.6-1.665-2.793-5.165-4.662-11-2.704 3.436-2.735 8.752-4.017 14.253-4.017s6.56 2.42 8.752.668c2.185-1.747 1.298-4.343-1.404-7.446-1.622-1.864-4.613-3.267-9.6-3.1 4.176-3.348 16.68-2.828 23.266.532s10.94 6.722 16.733 12.515c20.84 22.347 23.02 92.975 51.832 91.327 34-1.945 37.5-39.75 37.5-39.75l-.86 106.75s-12.64-10-20.64-10-3 47-38 49c11.32-14.21 14.45-24.354 11.784-37.59-7.93 29.52-24.144 37.84-29.964 37.715 10.18-20.125 11.18-42.197 11.18-42.197s-13.5 36.572-36.5 40.572c15-24 16.25-49.167 16.25-49.167s-14.46 39.388-47.75 39.667c27.667-22.333 29.333-28 30.333-47-2.178 8.333-27.458 35.625-50.333 32 14.25-11 24.667-21.667 26.667-45.667-3.335 8.334-20.25 33.084-41.5 27.834 21-14 24.653-38.038 24.653-38.038s-8.82 17.05-34.82 11.87c27-14 31.998-31.336 35-44 3-12.662 5.724-26.874 2.974-28.374s-10.975 7.876-10.975 7.876z"/><g fill="#D32027"><path d="M189.722 464.628c22.5-7.25 20.797-51.537 33.273-50.394 3.515.163-8.14 32.54-10.82 37.11-2.677 4.573-11.203 12.534-22.453 13.284zM199.222 404.128s-10.75 44-27.11 59.468c15.03-8.065 16.505-8.944 21.404-19.053 8.11-18.636 5.706-40.415 5.706-40.415zM146.222 463.128c26.5-26.75 38.167-68.5 38.167-68.5s-3.483 33.574-9.45 43.162c-5.968 9.588-10.535 14.27-28.718 25.338zM114.722 453.628c33.25-10 50-62.667 50-62.667s-3.264 26.248-14.008 39.418-26.492 25.5-35.992 23.25zM94.722 438.628c22.902-5.248 47.5-36.25 54-58 0 0-3 29.77-17 40.885-14.5 18.865-37 17.115-37 17.115zM79.89 420.795c23.332-4.667 43.5-57.222 43.5-57.222s-4.168 32.555-13.418 40.555-16.416 20.834-30.083 16.667z"/></g><path fill="none" stroke="#771515" stroke-width="3" stroke-miterlimit="10" d="M96.722 330.128s4.817-23.106 15.338-42.676c1.312-2.44 8.498-13.81 6.83-16.6-1.665-2.793-5.165-4.662-11-2.704 3.436-2.735 8.752-4.017 14.253-4.017s6.56 2.42 8.752.668c2.185-1.747 1.298-4.343-1.404-7.446-1.622-1.864-4.613-3.267-9.6-3.1 4.176-3.348 16.68-2.828 23.266.532s10.94 6.722 16.733 12.515c20.84 22.347 23.02 92.975 51.832 91.327 34-1.945 37.5-39.75 37.5-39.75l-.86 106.75s-12.64-10-20.64-10-3 47-38 49c11.32-14.21 14.45-24.354 11.784-37.59-7.93 29.52-24.144 37.84-29.964 37.715 10.18-20.125 11.18-42.197 11.18-42.197s-13.5 36.572-36.5 40.572c15-24 16.25-49.167 16.25-49.167s-14.46 39.388-47.75 39.667c27.667-22.333 29.333-28 30.333-47-2.178 8.333-27.458 35.625-50.333 32 14.25-11 24.667-21.667 26.667-45.667-3.335 8.334-20.25 33.084-41.5 27.834 21-14 24.653-38.038 24.653-38.038s-8.82 17.05-34.82 11.87c27-14 31.998-31.336 35-44 3-12.662 5.724-26.874 2.974-28.374s-10.975 7.876-10.975 7.876z"/><g fill="#771515"><path d="M121.497 393.068c4.166-15.704 1.893-29.496 1.893-29.496-16.667 54.388-43.5 57.222-43.5 57.222 20.948 5.177 37.943-19.062 41.607-27.726zM94.722 438.628c23.182 12.41 50.333-32 50.333-32s4-12.333 3.667-26c-.52 12.074-24.333 54.667-54 58zM114.722 453.628c22.667-3.333 48.333-38.667 50-62.667-.446 16.533 0 16.808-2.25 23-5.417 16-29.75 42-47.75 39.668zM146.222 463.128c29.167-21.833 36.833-61.5 38.167-68.5 1 13 0 21 0 21s-11.002 40.667-38.168 47.5zM171.542 464.753c17.065-12.475 25.513-37.125 27.68-60.625 3.5 15.833 2.284 22.91 2.284 22.91s-12.477 36.173-29.964 37.715zM189.722 464.628c26.333-6 26.606-50.394 33.273-50.394 6.666 0 3.938.778 2.973 2.32s-7.58 47.074-36.246 48.074z"/></g><path fill="#771515" d="M151.21 261.51c17.587 14.54 19.352 98.118 43.512 98.118 5.73 0 15.734.254 18.667.333-26-9.15-35.378-88.48-62.18-98.45z"/><path fill="#EF3744" d="M111.055 310.827s14.885-42.342 28.667-44.533 11.613 7.333 11.307 9-3.98-2.667-10.31 3-29.665 32.533-29.665 32.533zM151.39 297.294s-.78 74.667 41.443 81c-33.778-13.666-41.444-81-41.444-81z"/><path fill="#771515" d="M151.39 297.294s-.78 74.667 41.443 81c-50.778-4-41.444-81-41.444-81z"/><g><path fill="#ED2224" d="M426.89 330.128s-4.817-23.106-15.34-42.676c-1.31-2.44-8.497-13.81-6.83-16.6s5.167-4.662 11-2.704c-3.435-2.735-8.75-4.017-14.25-4.017-5.503 0-6.562 2.42-8.754.668-2.185-1.747-1.298-4.343 1.404-7.446 1.623-1.864 4.614-3.267 9.6-3.1-4.175-3.348-16.68-2.828-23.265.532s-10.94 6.722-16.733 12.515c-20.84 22.347-23.02 92.975-51.833 91.327-34-1.945-37.5-39.75-37.5-39.75l.86 106.75s12.64-10 20.64-10 3 47 38 49c-11.32-14.21-14.452-24.354-11.785-37.59 7.93 29.52 24.144 37.84 29.964 37.715-10.18-20.125-11.18-42.197-11.18-42.197s13.5 36.572 36.5 40.572c-15-24-16.25-49.167-16.25-49.167s14.46 39.388 47.75 39.667c-27.668-22.333-29.334-28-30.334-47 2.178 8.333 27.458 35.625 50.333 32-14.25-11-24.668-21.667-26.668-45.667 3.334 8.334 20.25 33.084 41.5 27.834-21-14-24.654-38.038-24.654-38.038s8.82 17.05 34.82 11.87c-27-14-31.998-31.336-35-44-3-12.662-5.724-26.874-2.974-28.374s10.975 7.876 10.975 7.876z"/><g fill="#D32027"><path d="M333.89 464.628c-22.5-7.25-20.798-51.537-33.274-50.394-3.515.163 8.14 32.54 10.82 37.11 2.678 4.573 11.203 12.534 22.453 13.284zM324.39 404.128s10.75 44 27.11 59.468c-15.03-8.065-16.506-8.944-21.405-19.053-8.11-18.636-5.706-40.415-5.706-40.415zM377.39 463.128c-26.5-26.75-38.168-68.5-38.168-68.5s3.482 33.574 9.45 43.162c5.967 9.588 10.535 14.27 28.717 25.338zM408.89 453.628c-33.25-10-50-62.667-50-62.667s3.263 26.248 14.007 39.418 26.492 25.5 35.992 23.25zM428.89 438.628c-22.903-5.248-47.5-36.25-54-58 0 0 3 29.77 17 40.885 14.5 18.865 37 17.115 37 17.115zM443.722 420.795c-23.333-4.667-43.5-57.222-43.5-57.222s4.167 32.555 13.417 40.555 16.415 20.834 30.082 16.667z"/></g><path fill="none" stroke="#771515" stroke-width="3" stroke-miterlimit="10" d="M426.89 330.128s-4.817-23.106-15.34-42.676c-1.31-2.44-8.497-13.81-6.83-16.6s5.167-4.662 11-2.704c-3.435-2.735-8.75-4.017-14.25-4.017-5.503 0-6.562 2.42-8.754.668-2.185-1.747-1.298-4.343 1.404-7.446 1.623-1.864 4.614-3.267 9.6-3.1-4.175-3.348-16.68-2.828-23.265.532s-10.94 6.722-16.733 12.515c-20.84 22.347-23.02 92.975-51.833 91.327-34-1.945-37.5-39.75-37.5-39.75l.86 106.75s12.64-10 20.64-10 3 47 38 49c-11.32-14.21-14.452-24.354-11.785-37.59 7.93 29.52 24.144 37.84 29.964 37.715-10.18-20.125-11.18-42.197-11.18-42.197s13.5 36.572 36.5 40.572c-15-24-16.25-49.167-16.25-49.167s14.46 39.388 47.75 39.667c-27.668-22.333-29.334-28-30.334-47 2.178 8.333 27.458 35.625 50.333 32-14.25-11-24.668-21.667-26.668-45.667 3.334 8.334 20.25 33.084 41.5 27.834-21-14-24.654-38.038-24.654-38.038s8.82 17.05 34.82 11.87c-27-14-31.998-31.336-35-44-3-12.662-5.724-26.874-2.974-28.374s10.975 7.876 10.975 7.876z"/><g fill="#771515"><path d="M402.115 393.068c-4.166-15.704-1.893-29.496-1.893-29.496 16.667 54.388 43.5 57.222 43.5 57.222-20.95 5.177-37.944-19.062-41.607-27.726zM428.89 438.628c-23.183 12.41-50.334-32-50.334-32s-4-12.333-3.667-26c.52 12.074 24.332 54.667 54 58zM408.89 453.628c-22.668-3.333-48.334-38.667-50-62.667.445 16.533-.002 16.808 2.25 23 5.416 16 29.75 42 47.75 39.668zM377.39 463.128c-29.168-21.833-36.834-61.5-38.168-68.5-1 13 0 21 0 21s11 40.667 38.167 47.5zM352.07 464.753c-17.066-12.475-25.514-37.125-27.68-60.625-3.5 15.833-2.285 22.91-2.285 22.91s12.478 36.173 29.964 37.715zM333.89 464.628c-26.334-6-26.607-50.394-33.274-50.394-6.666 0-3.938.778-2.973 2.32s7.58 47.074 36.246 48.074z"/></g><path fill="#771515" d="M372.4 261.51c-17.586 14.54-19.35 98.118-43.51 98.118-5.73 0-15.735.254-18.668.333 26-9.15 35.377-88.48 62.178-98.45z"/><path fill="#EF3744" d="M412.556 310.827s-14.885-42.342-28.667-44.533-11.614 7.333-11.308 9 3.98-2.667 10.31 3 29.664 32.533 29.664 32.533zM372.222 297.294s.778 74.667-41.444 81c33.778-13.666 41.444-81 41.444-81z"/><path fill="#771515" d="M372.222 297.294s.778 74.667-41.444 81c50.778-4 41.444-81 41.444-81z"/></g><g><path fill="#FBB040" d="M220.38 461.703s-13.808 19.178-25.3 19.178c-11.495 0-14.248-8.627-27.248-6.69-21 4.94-19.75 25.19-15.5 29.44 4.277-9.467 5.477-14.28 18.19-15.483-7.75 7.25-22.44 17.732-7.69 36.482-3.75-16.75 11-25.575 15-22.5 10 3-7.5 21 14.66 28.5-5-14-6.16-20 2.84-24.5s17 5.5 19 13 5.224-8.778-4.89-17.39c-10.11-8.61 22.886-33.61 22.886-33.61l-4.996-8.5-6.953 2.073z"/><path fill="#F7941E" d="M209.993 510.755c.16-5.873-9.16-9.127-16.66-7.627-7.49 1.498-4.445 15.22-4.438 15.253-.927-5.85.658-9.36 6.438-12.252 5.718-2.86 11.032.14 14.66 4.627zM232.33 468.128l-2.505-4.26c-6.325 4.7-13.884 10.83-17.992 15.76-7.5 9-4.3 17.515-4.3 17.516.59-10.674 24.796-29.016 24.796-29.016zM163.333 486.628c-8 .5-8.016 10.516-8.016 10.516 2.707-5.248 5.815-8.11 15.205-8.998 0 0 .81-2.018-7.19-1.518zM177.833 502.128c2.02.606 2.917 1.824 3.246 3.444-.045-.255.75-8.444-7.747-8.43-8.494.017-10.398 16.833-10.4 16.86 2.614-9.667 11.86-14.21 14.9-11.874z"/><path fill="none" stroke="#F7941E" stroke-width="2" stroke-miterlimit="10" d="M158.333 483.628s9-8.5 27.75 0c10.666 3.093 22.69-5.583 22.69-5.583s-9.94 7.083-14.44 10.583-15-3-26.5 6.5"/><path fill="none" stroke="#F7941E" stroke-width="2" stroke-miterlimit="10" d="M184.333 508.128s5.64-13.66 15.07-21.58 20.188-19.42 20.188-19.42M204.333 499.628s-4.93-13.08 4.742-21.28"/><g fill="#BCBEC0"><path d="M156.463 495.127c-.89-3.2-3.327-5.286-5.645-6.604-2.07 6.427-.685 12.906 1.514 15.104 1.55-3.428 2.697-6.242 4.13-8.5zM213.194 506.112c-1.18 1.378-2.365 2.93-3.448 4.34 2.208 2.635 3.83 5.834 4.587 8.676 1.694 6.353 4.263-4.357-1.14-13.016zM189.014 519.08c-3.932 1.165-6.28.646-8.256.058.705 4.41 3.444 8.685 11.734 11.49-1.662-4.656-2.897-8.423-3.478-11.548zM158.086 502.423c-2.634 5.812-2.485 13.013 4.746 22.205-1.043-4.658-.652-8.7.537-12.047-3.11-2.398-4.382-6.207-5.284-10.157z"/></g><g fill="#939598"><path d="M163.37 512.58c-1.056-.813-1.886-1.8-2.575-2.888l-.01.008c-2.38 2.738 2.048 14.928 2.048 14.928-1.043-4.658-.653-8.7.537-12.047zM185.458 519.742c.985 4.038 7.035 10.886 7.035 10.886-1.663-4.656-2.897-8.423-3.48-11.548-1.36.403-2.523.596-3.555.662zM214.333 519.128c.437 1.638.93 2.135 1.332 1.833.26-3.402-3.374-9.356-4.95-11.765-.33.426-.654.848-.97 1.257 2.21 2.635 3.83 5.834 4.588 8.676zM155.255 492.515c-2.234 2.495-2.923 11.113-2.923 11.113 1.55-3.43 2.696-6.243 4.13-8.5-.27-.976-.696-1.835-1.207-2.613z"/></g><g><path fill="#FBB040" d="M303.233 461.703s13.807 19.178 25.3 19.178 14.247-8.627 27.247-6.69c21 4.94 19.75 25.19 15.5 29.44-4.278-9.467-5.478-14.28-18.19-15.483 7.75 7.25 22.44 17.732 7.69 36.482 3.75-16.75-11-25.575-15-22.5-10 3 7.5 21-14.66 28.5 5-14 6.16-20-2.84-24.5s-17 5.5-19 13-5.224-8.778 4.89-17.39c10.11-8.61-22.886-33.61-22.886-33.61l4.996-8.5 6.953 2.073z"/><path fill="#F7941E" d="M313.62 510.755c-.16-5.873 9.16-9.127 16.66-7.627 7.49 1.498 4.445 15.22 4.438 15.253.928-5.85-.657-9.36-6.438-12.252-5.72-2.86-11.032.14-14.66 4.627zM291.284 468.128l2.504-4.26c6.325 4.7 13.883 10.83 17.992 15.76 7.5 9 4.3 17.515 4.3 17.516-.59-10.674-24.796-29.016-24.796-29.016zM360.28 486.628c8 .5 8.016 10.516 8.016 10.516-2.708-5.248-5.815-8.11-15.205-8.998 0 0-.81-2.018 7.19-1.518zM345.78 502.128c-2.02.606-2.918 1.824-3.246 3.444.043-.255-.752-8.444 7.746-8.43 8.493.017 10.398 16.833 10.4 16.86-2.615-9.667-11.86-14.21-14.9-11.874z"/><path fill="none" stroke="#F7941E" stroke-width="2" stroke-miterlimit="10" d="M365.28 483.628s-9-8.5-27.75 0c-10.666 3.093-22.69-5.583-22.69-5.583s9.94 7.083 14.44 10.583 15-3 26.5 6.5"/><path fill="none" stroke="#F7941E" stroke-width="2" stroke-miterlimit="10" d="M339.28 508.128s-5.64-13.66-15.07-21.58-20.19-19.42-20.19-19.42M319.278 499.628s4.932-13.08-4.74-21.28"/><g fill="#BCBEC0"><path d="M367.148 495.127c.89-3.2 3.328-5.286 5.646-6.604 2.07 6.427.685 12.906-1.514 15.104-1.55-3.428-2.697-6.242-4.132-8.5zM310.418 506.112c1.18 1.378 2.365 2.93 3.448 4.34-2.208 2.635-3.83 5.834-4.587 8.676-1.695 6.353-4.264-4.357 1.138-13.016zM334.598 519.08c3.932 1.165 6.28.646 8.256.058-.705 4.41-3.445 8.685-11.734 11.49 1.662-4.656 2.896-8.423 3.478-11.548zM365.525 502.423c2.634 5.812 2.486 13.013-4.745 22.205 1.043-4.658.652-8.7-.537-12.047 3.11-2.398 4.382-6.207 5.282-10.157z"/></g><g fill="#939598"><path d="M360.243 512.58c1.055-.813 1.886-1.8 2.574-2.888l.01.008c2.38 2.738-2.047 14.928-2.047 14.928 1.043-4.658.652-8.7-.537-12.047zM338.155 519.742c-.986 4.038-7.035 10.886-7.035 10.886 1.662-4.656 2.896-8.423 3.48-11.548 1.36.403 2.522.596 3.555.662zM309.28 519.128c-.437 1.638-.93 2.135-1.332 1.833-.26-3.402 3.374-9.356 4.95-11.765.33.426.654.848.97 1.257-2.21 2.635-3.83 5.834-4.588 8.676zM368.357 492.515c2.233 2.495 2.923 11.113 2.923 11.113-1.55-3.43-2.696-6.243-4.132-8.5.27-.976.698-1.835 1.21-2.613z"/></g></g><g><path d="M242.083 271.128c-7.25-1.75-15.75-6.518-28-5.25s-22.25 4.715-22.25 1.482 7.375-12.607 7.375-12.607-13.51 7.724-12.76 14.24 6.195 5.52 11.955 4.885 13.117-3.5 16.148-3.5 6.782.5 11.032 1.5 5.5 3.25 9.25 3.25 7.25-4 7.25-4z"/><path fill="#ED2224" d="M287.53 522.878c-6.38-9.343-8.594-22.96-9.356-29.505 3.556 7.496 30.008 5.755 21.606 5.755-9 0-20.75-19.75-20.75-19.75s-2.98-5.25 2.52-9.75 12.73 17.5 22.73 1-20.5-17-20.5-35.5 7.625-15.5 7.625-45-12.125-30.5-14.125-61.5c5 7 12 9.5 25 8.5-16.143-5.992-26.5-16.5-26-26 4.5 4 19.5 6.5 19.5 6.5l-19.5-21c-2.303-8.5 3.053-9 4.053-22 .36-4.682 2.146-17.032 6.573-19.016s6.526-9.05 7.227-11.018-2.55 5.117-6.3 5.534-.64-1.5-11.64-1.5-3.86-5-17.324-6-6.537 6-17.537 6-20-1-25.655 0c-5.654 1-3.345 19 0 13.066 3.346-5.934 12.655-3.066 21.3 0s6.355 12.934-4.648 16.934c-11.003 4-9.068-4-9.068-4s-6.99 6.06 1.633 12.06 10.244-5.865 19.885-2.865 1.805 6.555 2.555 12.805l-19.5 21s15-2.5 19.5-6.5c.5 9.5-9.858 20.008-26 26 13 1 20-1.5 25-8.5-2 31-14.125 32-14.125 61.5s7.625 26.5 7.625 45-30.5 19-20.5 35.5 17.23-5.5 22.73-1 2.52 9.75 2.52 9.75-11.75 19.75-20.75 19.75c-8.4 0 18.05 1.74 21.605-5.755-.763 6.546-2.975 20.163-9.355 29.505-10.19 14.92-38.25 31.75-38.25 31.75s32.75-6.25 35.25 4.75 12.05-2.23 19.41 3.27c6.397 4.78.432 15.954 7.283 18.147 0 0 1.42.393 2.03.354.61.037 2.03-.355 2.03-.355 6.852-2.193.887-13.367 7.282-18.146 7.36-5.5 16.91 7.728 19.41-3.272s35.25-4.75 35.25-4.75-28.06-16.83-38.25-31.75z"/><path opacity=".49" fill="#FBB040" d="M215.677 261.694c3.346-5.934 12.655-3.066 21.3 0s6.355 12.934-4.648 16.934c-11.004 4-9.07-4-9.07-4s-6.988 6.06 1.634 12.06 10.244-5.865 19.885-2.865c0 0-2.28-3.696-2.28-15.53 0-5.885 1.1-13.708 2.603-20.066-.958.25-2.17.4-3.77.4-11 0-20-1-25.654 0-5.657 1-3.347 19-.003 13.067z"/><path fill="#BE1E2D" d="M227.833 317.628s18.25-8.375 21-13.25c-.25 5.875-.25 5.875-1.68 6.57-2.95 2.52-19.32 6.68-19.32 6.68zM227.833 336.128s19.78-7.89 20.14-12.258c-.265 4.883-3.432 6.97-3.432 6.97s-8.457 7.17-16.707 6.48 0-1.192 0-1.192z"/><path fill="#D32027" d="M245.833 334.2v.003c-2.998 25.665-13.625 28.305-13.625 55.925 0 28.832 7.28 26.63 7.61 43.788-.002-.02 0-.034 0-.054-.263-10.016 12.802-21.483 12.802-47.52s-7.787-34.214-6.787-52.14zM220.833 470.378c6.23-2.703 21.75-19.75 20.25-23.25-1.076-2.512-1.134-4.626-3.014-4.888-6.316 11.815-27.03 14.295-18.868 28.16.544.193 1.09.21 1.63-.022zM291.284 467.128c-3.8-1.5-7.79 1.9-7.79 1.9l.006.01c3.9.457 8.604 9.21 14.413 7.616.994-.453 1.777-.857 2.174-1.086.044-.032.088-.066.13-.1 1.18-.957-5.184-6.86-8.933-8.34zM252.62 512.378c-3.787-25.5-1.757-25.21-4.647-23.854-1.153.54-1.688 3.467-2.875 7.48-1.01 7.11-3.396 18.647-9.015 26.874-10.19 14.92-38.75 26.75-38.25 31.75 7.5 2.75 58.574-16.75 54.787-42.25z"/><path fill="#FBB040" d="M213.033 261.43c.714-.29 1.218-.62 1.218-.62s.583-7.65 7.333-8.916 8.27-1.545 8.26-3.53c-5.807-.206-10.637-.36-14.165.264-3.865.684-4.01 9.305-2.645 12.802z"/><g fill="#771516" stroke="#771516" stroke-width="3" stroke-miterlimit="10"><path d="M219.592 554.4h.005-.006zM233.083 559.378c4.397-2.5 9.33-15 9.33-15s-6.763 7.937-19.072 8.98M299.963 553.476c-12.31-1.044-19.072-8.98-19.072-8.98s4.935 12.5 9.33 15"/></g><path fill="#771516" d="M263.833 581.128l.004-.332c1.865-.597 2.776-1.862 3.25-3.48-2.653-3.665-5.28-9.854-5.28-19.437 0 9.574-2.622 15.76-5.273 19.427.256.877.63 1.658 1.226 2.277.505.524 1.16.938 2.018 1.213l.004.332c.75.057 1.416.06 2.026.02.61.038 1.275.036 2.025-.022z"/><path fill="#EF3744" d="M285.333 378.295c.25 9.583 0 27.626-1.25 31.354s-2.287 20.272-1.25 21.228c.143.132.556-.1 1.15-.576 1.207-13.394 7.422-13.538 7.422-40.174 0-22.787-7.23-28.58-11.446-44.317l-2.127-1.682s7.25 24.584 7.5 34.167z"/><path fill="#D32027" d="M275.742 248.62c-10.336-.14-3.603-5.006-16.873-5.992-10.635-.79-8.555 3.408-12.626 5.21.124 1.602.09 2.54.09 2.54s1.5 8.75 4.5 13.25 6.5 6.25 9.124 6.375-11.657-11.27-5.157-16.27 21.59 3.74 20.942-5.112z"/><path fill="none" stroke="#771516" stroke-width="2" stroke-linecap="round" stroke-miterlimit="10" d="M256.437 256.898c-6.48-5.52 1.646-6.02 5.35-3.69"/><path fill="#EF3744" d="M280.333 274.628c.36-4.682 2.146-17.032 6.573-19.016s6.526-9.05 7.227-11.018-2.55 5.117-6.3 5.534c-1.938.215-2.047-.192-3.214-.637-.005.005-15.223 18.6-11.537 28.582s-1.12 13.968 2.69 13.637c.478-4.5 3.794-7.128 4.56-17.082zM283.493 438.67s3.27 15.166 12.995 19.958c4.475 2.205 7.365 3.524 9.566 4.006-2.198-8.593-19.11-12-21.887-24.043-.273-.016-.51 0-.674.08zM287.53 522.878c-5.33-7.805-7.747-18.576-8.845-25.732l-.002-.002s.15 28.734 10.15 34.734 33.394 22.25 36.946 22.75c.5-5-28.06-16.83-38.25-31.75z"/><path fill="none" stroke="#771516" stroke-width="3" stroke-miterlimit="10" d="M244.778 283.823c9.64 3 1.805 6.555 2.555 12.805l-19.5 21s15-2.5 19.5-6.5c.5 9.5-9.858 20.008-26 26 13 1 20-1.5 25-8.5-2 31-14.125 32-14.125 61.5s7.625 26.5 7.625 45-30.5 19-20.5 35.5 17.23-5.5 22.73-1 2.52 9.75 2.52 9.75-11.75 19.75-20.75 19.75c-8.4 0 18.05 1.74 21.605-5.755-.763 6.546-2.975 20.163-9.355 29.505-10.19 14.92-38.25 31.75-38.25 31.75s32.75-6.25 35.25 4.75 12.05-2.23 19.41 3.27c5.597 4.183 1.73 13.26 5.266 16.935.504.524 1.16.938 2.017 1.213 0 0 1.42.393 2.03.354.61.038 2.03-.354 2.03-.354 6.852-2.193.887-13.367 7.282-18.146 7.36-5.5 16.91 7.73 19.41-3.27s35.25-4.75 35.25-4.75-28.06-16.83-38.25-31.75c-6.38-9.344-8.594-22.96-9.356-29.506 3.556 7.496 30.008 5.755 21.606 5.755-9 0-20.75-19.75-20.75-19.75s-2.98-5.25 2.52-9.75 12.73 17.5 22.73 1-20.5-17-20.5-35.5 7.625-15.5 7.625-45-12.125-30.5-14.125-61.5c5 7 12 9.5 25 8.5-16.143-5.993-26.5-16.5-26-26 4.5 4 19.5 6.5 19.5 6.5l-19.5-21c-2.303-8.5 3.053-9 4.053-22 .36-4.683 2.146-17.033 6.573-19.017s6.526-9.05 7.227-11.018-2.55 5.117-6.3 5.534-.64-1.5-11.64-1.5-3.86-5-17.324-6c-11.51-.855-8.13 4.13-13.77 5.598"/><path fill="none" stroke="#C85B1A" stroke-width="3" stroke-miterlimit="10" d="M245.1 248.227c-.957.25-2.17.4-3.768.4-11 0-20-1-25.655 0-5.654 1-3.345 19 0 13.067 3.346-5.934 12.655-3.066 21.3 0s6.355 12.934-4.648 16.934c-11.004 4-9.07-4-9.07-4s-6.988 6.06 1.634 12.06 10.244-5.865 19.885-2.865"/></g></g></g><g clip-path="url(#g)"><path fill="#ED2224" d="M281.583 77.347s3.016-14.467 9.603-26.72c.82-1.528 5.32-8.647 4.277-10.396-1.043-1.747-3.235-2.917-6.888-1.69 2.15-1.714 5.48-2.516 8.923-2.516 3.446 0 4.108 1.515 5.48.417 1.37-1.092.813-2.718-.88-4.66-1.016-1.17-2.887-2.047-6.01-1.942 2.614-2.097 10.444-1.77 14.568.333 4.123 2.105 6.85 4.21 10.477 7.837C334.18 52 335.546 96.224 353.588 95.192c21.29-1.217 23.482-24.89 23.482-24.89l-.54 66.843s-7.915-6.262-12.924-6.262-1.88 29.43-23.793 30.68c7.088-8.897 9.048-15.248 7.38-23.536-4.967 18.483-15.118 23.693-18.763 23.615 6.373-12.602 7-26.422 7-26.422s-8.453 22.9-22.855 25.404c9.393-15.028 10.176-30.786 10.176-30.786s-9.055 24.662-29.897 24.837c17.322-13.984 18.366-17.532 18.99-29.43-1.362 5.22-17.19 22.308-31.515 20.04 8.924-6.89 15.446-13.568 16.697-28.596-2.087 5.218-12.68 20.715-25.984 17.427 13.15-8.766 15.438-23.817 15.438-23.817s-5.522 10.675-21.804 7.433c16.908-8.766 20.037-19.62 21.916-27.55 1.88-7.93 3.586-16.828 1.863-17.767-1.723-.94-6.87 4.93-6.87 4.93z"/><g fill="#D32027"><path d="M339.814 161.564c14.087-4.54 13.02-32.27 20.834-31.554 2.198.102-5.098 20.375-6.775 23.237-1.677 2.863-7.015 7.848-14.06 8.317zM345.762 123.682s-6.73 27.55-16.976 37.236c9.41-5.05 10.334-5.6 13.402-11.93 5.078-11.67 3.574-25.306 3.574-25.306zM312.576 160.625c16.594-16.75 23.897-42.89 23.897-42.89s-2.18 21.02-5.915 27.025c-3.737 6.003-6.598 8.934-17.982 15.865zM292.853 154.676c20.82-6.26 31.307-39.24 31.307-39.24s-2.044 16.436-8.77 24.682c-6.728 8.246-16.59 15.967-22.537 14.558zM280.33 145.285c14.34-3.287 29.74-22.7 33.812-36.317 0 0-1.88 18.64-10.645 25.6-9.08 11.81-23.168 10.717-23.168 10.717zM271.042 134.118c14.61-2.922 27.237-35.83 27.237-35.83s-2.61 20.385-8.402 25.394c-5.792 5.008-10.28 13.045-18.836 10.436z"/></g><path fill="none" stroke="#771515" stroke-width="1.878" stroke-miterlimit="10" d="M281.583 77.347s3.016-14.467 9.603-26.72c.82-1.528 5.32-8.647 4.277-10.396-1.043-1.747-3.235-2.917-6.888-1.69 2.15-1.714 5.48-2.516 8.923-2.516 3.446 0 4.108 1.515 5.48.417 1.37-1.092.813-2.718-.88-4.66-1.016-1.17-2.887-2.047-6.01-1.942 2.614-2.097 10.444-1.77 14.568.333 4.123 2.105 6.85 4.21 10.477 7.837C334.18 52 335.546 96.224 353.588 95.192c21.29-1.217 23.482-24.89 23.482-24.89l-.54 66.843s-7.915-6.262-12.924-6.262-1.88 29.43-23.793 30.68c7.088-8.897 9.048-15.248 7.38-23.536-4.967 18.483-15.118 23.693-18.763 23.615 6.373-12.602 7-26.422 7-26.422s-8.453 22.9-22.855 25.404c9.393-15.028 10.176-30.786 10.176-30.786s-9.055 24.662-29.897 24.837c17.322-13.984 18.366-17.532 18.99-29.43-1.362 5.22-17.19 22.308-31.515 20.04 8.924-6.89 15.446-13.568 16.697-28.596-2.087 5.218-12.68 20.715-25.984 17.427 13.15-8.766 15.438-23.817 15.438-23.817s-5.522 10.675-21.804 7.433c16.908-8.766 20.037-19.62 21.916-27.55 1.88-7.93 3.586-16.828 1.863-17.767-1.723-.94-6.87 4.93-6.87 4.93z"/><g fill="#771515"><path d="M297.093 116.757c2.61-9.833 1.186-18.468 1.186-18.468-10.436 34.054-27.238 35.828-27.238 35.828 13.117 3.24 23.76-11.936 26.05-17.36zM280.33 145.285c14.515 7.77 31.515-20.038 31.515-20.038s2.506-7.722 2.298-16.28c-.327 7.56-15.238 34.23-33.814 36.318zM292.853 154.676c14.19-2.086 30.262-24.21 31.307-39.24-.28 10.354 0 10.525-1.408 14.403-3.393 10.017-18.63 26.297-29.9 24.836zM312.576 160.625c18.263-13.67 23.063-38.508 23.897-42.89.627 8.14 0 13.148 0 13.148s-6.887 25.463-23.897 29.742zM328.43 161.643c10.686-7.81 15.974-23.247 17.332-37.96 2.19 9.914 1.43 14.345 1.43 14.345s-7.812 22.65-18.76 23.615zM339.814 161.564c16.488-3.757 16.658-31.554 20.834-31.554 4.174 0 2.466.487 1.86 1.453-.603.965-4.746 29.475-22.694 30.1z"/></g><path fill="#771515" d="M315.7 34.382c11.012 9.104 12.117 61.436 27.245 61.436 3.586 0 9.852.16 11.687.208-16.28-5.73-22.15-55.402-38.933-61.644z"/><path fill="#EF3744" d="M290.556 65.262s9.32-26.513 17.95-27.884c8.63-1.372 7.27 4.592 7.08 5.635-.193 1.043-2.493-1.67-6.456 1.878-3.963 3.55-18.574 20.372-18.574 20.372zM315.81 56.788s-.486 46.753 25.95 50.72c-21.15-8.56-25.95-50.72-25.95-50.72z"/><path fill="#771515" d="M315.81 56.788s-.486 46.753 25.95 50.72c-31.794-2.506-25.95-50.72-25.95-50.72z"/><g><path fill="#ED2224" d="M488.315 77.347s-3.016-14.467-9.604-26.72c-.82-1.528-5.32-8.647-4.275-10.396 1.042-1.747 3.234-2.917 6.887-1.69-2.15-1.714-5.48-2.516-8.923-2.516-3.448 0-4.11 1.515-5.48.417-1.37-1.092-.814-2.718.878-4.66 1.016-1.17 2.89-2.047 6.01-1.942-2.613-2.097-10.443-1.77-14.566.333-4.124 2.105-6.85 4.21-10.478 7.837C435.714 52 434.35 96.224 416.307 95.192c-21.288-1.217-23.48-24.89-23.48-24.89l.54 66.843s7.913-6.262 12.923-6.262 1.878 29.43 23.794 30.68c-7.09-8.897-9.05-15.248-7.378-23.536 4.963 18.483 15.117 23.693 18.76 23.615-6.373-12.602-7-26.422-7-26.422s8.455 22.9 22.855 25.404c-9.392-15.028-10.175-30.786-10.175-30.786s9.055 24.662 29.9 24.837c-17.324-13.984-18.366-17.532-18.994-29.43 1.365 5.22 17.194 22.308 31.517 20.04-8.923-6.89-15.443-13.568-16.696-28.596 2.09 5.218 12.68 20.715 25.985 17.427-13.148-8.766-15.437-23.817-15.437-23.817s5.522 10.675 21.803 7.433c-16.905-8.766-20.034-19.62-21.915-27.55-1.878-7.93-3.584-16.828-1.862-17.767 1.722-.94 6.872 4.93 6.872 4.93z"/><g fill="#D32027"><path d="M430.083 161.564c-14.09-4.54-13.023-32.27-20.834-31.554-2.202.102 5.096 20.375 6.772 23.237 1.678 2.863 7.017 7.848 14.06 8.317zM424.135 123.682s6.73 27.55 16.976 37.236c-9.41-5.05-10.335-5.6-13.4-11.93-5.08-11.67-3.575-25.306-3.575-25.306zM457.32 160.625c-16.593-16.75-23.897-42.89-23.897-42.89s2.18 21.02 5.917 27.025c3.736 6.003 6.596 8.934 17.98 15.865zM477.044 154.676c-20.82-6.26-31.308-39.24-31.308-39.24s2.043 16.436 8.77 24.682c6.73 8.246 16.59 15.967 22.538 14.558zM489.567 145.285c-14.34-3.287-29.742-22.7-33.81-36.317 0 0 1.876 18.64 10.643 25.6 9.08 11.81 23.167 10.717 23.167 10.717zM498.855 134.118c-14.61-2.922-27.237-35.83-27.237-35.83s2.61 20.385 8.4 25.394c5.792 5.008 10.28 13.045 18.837 10.436z"/></g><path fill="none" stroke="#771515" stroke-width="1.878" stroke-miterlimit="10" d="M488.315 77.347s-3.016-14.467-9.604-26.72c-.82-1.528-5.32-8.647-4.275-10.396 1.042-1.747 3.234-2.917 6.887-1.69-2.15-1.714-5.48-2.516-8.923-2.516-3.448 0-4.11 1.515-5.48.417-1.37-1.092-.814-2.718.878-4.66 1.016-1.17 2.89-2.047 6.01-1.942-2.613-2.097-10.443-1.77-14.566.333-4.124 2.105-6.85 4.21-10.478 7.837C435.714 52 434.35 96.224 416.307 95.192c-21.288-1.217-23.48-24.89-23.48-24.89l.54 66.843s7.913-6.262 12.923-6.262 1.878 29.43 23.794 30.68c-7.09-8.897-9.05-15.248-7.378-23.536 4.963 18.483 15.117 23.693 18.76 23.615-6.373-12.602-7-26.422-7-26.422s8.455 22.9 22.855 25.404c-9.392-15.028-10.175-30.786-10.175-30.786s9.055 24.662 29.9 24.837c-17.324-13.984-18.366-17.532-18.994-29.43 1.365 5.22 17.194 22.308 31.517 20.04-8.923-6.89-15.443-13.568-16.696-28.596 2.09 5.218 12.68 20.715 25.985 17.427-13.148-8.766-15.437-23.817-15.437-23.817s5.522 10.675 21.803 7.433c-16.905-8.766-20.034-19.62-21.915-27.55-1.878-7.93-3.584-16.828-1.862-17.767 1.722-.94 6.872 4.93 6.872 4.93z"/><g fill="#771515"><path d="M472.8 116.757c-2.606-9.833-1.183-18.468-1.183-18.468 10.437 34.054 27.237 35.828 27.237 35.828-13.115 3.24-23.758-11.936-26.053-17.36zM489.567 145.285c-14.516 7.77-31.516-20.038-31.516-20.038s-2.502-7.722-2.294-16.28c.325 7.56 15.237 34.23 33.81 36.318zM477.044 154.676c-14.192-2.086-30.264-24.21-31.308-39.24.28 10.354 0 10.525 1.408 14.403 3.395 10.017 18.63 26.297 29.9 24.836zM457.32 160.625c-18.262-13.67-23.062-38.508-23.897-42.89-.626 8.14 0 13.148 0 13.148s6.888 25.463 23.898 29.742zM441.466 161.643c-10.685-7.81-15.975-23.247-17.33-37.96-2.192 9.914-1.43 14.345-1.43 14.345s7.812 22.65 18.76 23.615zM430.083 161.564c-16.488-3.757-16.66-31.554-20.834-31.554s-2.467.487-1.862 1.453c.604.965 4.745 29.475 22.695 30.1z"/></g><path fill="#771515" d="M454.197 34.382c-11.01 9.104-12.116 61.436-27.244 61.436-3.587 0-9.853.16-11.688.208 16.28-5.73 22.15-55.402 38.932-61.644z"/><path fill="#EF3744" d="M479.34 65.262s-9.32-26.513-17.95-27.884c-8.63-1.372-7.27 4.592-7.08 5.635.192 1.043 2.492-1.67 6.457 1.878 3.963 3.55 18.573 20.372 18.573 20.372zM454.085 56.788s.487 46.753-25.95 50.72c21.15-8.56 25.95-50.72 25.95-50.72z"/><path fill="#771515" d="M454.085 56.788s.487 46.753-25.95 50.72c31.794-2.506 25.95-50.72 25.95-50.72z"/></g><g><path fill="#FBB040" d="M359.01 159.732s-8.647 12.008-15.842 12.008c-7.197 0-8.92-5.402-17.062-4.19-13.15 3.092-12.367 15.772-9.706 18.434 2.68-5.927 3.43-8.94 11.39-9.694-4.853 4.54-14.05 11.104-4.814 22.843-2.35-10.488 6.887-16.013 9.392-14.088 6.262 1.878-4.695 13.15 9.18 17.846-3.13-8.765-3.856-12.522 1.777-15.34 5.637-2.818 10.646 3.443 11.898 8.14 1.252 4.696 3.27-5.496-3.062-10.888-6.33-5.392 14.33-21.045 14.33-21.045l-3.127-5.322-4.354 1.297z"/><path fill="#F7941E" d="M352.505 190.446c.102-3.677-5.735-5.715-10.432-4.775-4.69.94-2.783 9.53-2.778 9.55-.582-3.662.412-5.86 4.03-7.67 3.58-1.79 6.91.086 9.18 2.896zM366.49 163.756l-1.566-2.667c-3.96 2.942-8.693 6.78-11.266 9.867-4.696 5.635-2.692 10.967-2.692 10.968.368-6.685 15.525-18.17 15.525-18.17zM323.29 175.34c-5.01.312-5.02 6.583-5.02 6.583 1.695-3.287 3.642-5.078 9.52-5.634 0 0 .508-1.264-4.5-.95zM332.368 185.044c1.265.38 1.828 1.142 2.033 2.157-.026-.16.472-5.286-4.85-5.276-5.318.01-6.51 10.54-6.512 10.556 1.638-6.053 7.425-8.898 9.33-7.436z"/><path fill="none" stroke="#F7941E" stroke-width="1.252" stroke-miterlimit="10" d="M320.158 173.46s5.636-5.322 17.377 0c6.677 1.938 14.208-3.495 14.208-3.495s-6.226 4.435-9.044 6.626c-2.817 2.193-9.393-1.877-16.593 4.07"/><path fill="none" stroke="#F7941E" stroke-width="1.252" stroke-miterlimit="10" d="M336.438 188.802s3.532-8.553 9.437-13.513c5.904-4.96 12.642-12.16 12.642-12.16M348.963 183.48s-3.09-8.19 2.97-13.326"/><g fill="#BCBEC0"><path d="M318.99 180.66c-.56-2.004-2.085-3.31-3.537-4.134-1.295 4.024-.427 8.082.948 9.458.972-2.147 1.69-3.91 2.59-5.323zM354.51 187.54c-.74.862-1.48 1.833-2.16 2.717 1.384 1.65 2.398 3.653 2.873 5.432 1.06 3.977 2.67-2.73-.714-8.15zM339.37 195.66c-2.462.728-3.932.403-5.17.035.442 2.76 2.158 5.438 7.348 7.195-1.042-2.915-1.813-5.274-2.178-7.23zM320.004 185.23c-1.65 3.638-1.555 8.146 2.972 13.902-.653-2.917-.408-5.448.337-7.543-1.947-1.503-2.743-3.887-3.31-6.36z"/></g><g fill="#939598"><path d="M323.313 191.59c-.66-.51-1.18-1.127-1.613-1.81l-.005.006c-1.49 1.714 1.28 9.347 1.28 9.347-.652-2.917-.407-5.448.338-7.544zM337.142 196.074c.618 2.53 4.405 6.816 4.405 6.816-1.04-2.916-1.813-5.274-2.178-7.23-.853.252-1.58.372-2.228.414zM355.223 195.69c.273 1.024.583 1.335.834 1.147.164-2.13-2.113-5.86-3.1-7.367l-.607.787c1.384 1.65 2.4 3.653 2.873 5.432zM318.233 179.025c-1.4 1.563-1.832 6.96-1.832 6.96.972-2.148 1.69-3.91 2.59-5.324-.17-.61-.438-1.147-.757-1.635z"/></g><g><path fill="#FBB040" d="M410.887 159.732s8.646 12.008 15.842 12.008 8.92-5.402 17.06-4.19c13.15 3.092 12.366 15.772 9.706 18.434-2.68-5.927-3.43-8.94-11.39-9.694 4.853 4.54 14.05 11.104 4.814 22.843 2.348-10.488-6.886-16.013-9.392-14.088-6.263 1.878 4.695 13.15-9.18 17.846 3.13-8.765 3.857-12.522-1.78-15.34-5.634-2.818-10.643 3.443-11.895 8.14-1.252 4.696-3.27-5.496 3.063-10.888 6.33-5.392-14.33-21.045-14.33-21.045l3.13-5.322 4.35 1.297z"/><path fill="#F7941E" d="M417.39 190.446c-.1-3.677 5.736-5.715 10.434-4.775 4.688.94 2.783 9.53 2.777 9.55.58-3.662-.41-5.86-4.03-7.67-3.58-1.79-6.905.086-9.18 2.896zM403.406 163.756l1.567-2.667c3.96 2.942 8.692 6.78 11.266 9.867 4.695 5.635 2.692 10.967 2.692 10.968-.37-6.685-15.526-18.17-15.526-18.17zM446.608 175.34c5.01.312 5.018 6.583 5.018 6.583-1.693-3.287-3.64-5.078-9.52-5.634 0 0-.508-1.264 4.502-.95zM437.53 185.044c-1.266.38-1.828 1.142-2.034 2.157.027-.16-.472-5.286 4.85-5.276 5.32.01 6.51 10.54 6.513 10.556-1.64-6.053-7.428-8.898-9.33-7.436z"/><path fill="none" stroke="#F7941E" stroke-width="1.252" stroke-miterlimit="10" d="M449.738 173.46s-5.635-5.322-17.376 0c-6.68 1.938-14.206-3.495-14.206-3.495s6.223 4.435 9.04 6.626c2.818 2.193 9.393-1.877 16.595 4.07"/><path fill="none" stroke="#F7941E" stroke-width="1.252" stroke-miterlimit="10" d="M433.458 188.802s-3.53-8.553-9.437-13.513c-5.903-4.96-12.64-12.16-12.64-12.16M420.934 183.48s3.088-8.19-2.968-13.326"/><g fill="#BCBEC0"><path d="M450.91 180.66c.557-2.004 2.082-3.31 3.533-4.134 1.297 4.024.43 8.082-.947 9.458-.97-2.147-1.69-3.91-2.587-5.323zM415.386 187.54c.74.862 1.48 1.833 2.16 2.717-1.383 1.65-2.398 3.653-2.873 5.432-1.06 3.977-2.668-2.73.713-8.15zM430.527 195.66c2.46.728 3.933.403 5.17.035-.44 2.76-2.157 5.438-7.35 7.195 1.042-2.915 1.817-5.274 2.18-7.23zM449.893 185.23c1.647 3.638 1.557 8.146-2.973 13.902.653-2.917.41-5.448-.336-7.543 1.95-1.503 2.745-3.887 3.31-6.36z"/></g><g fill="#939598"><path d="M446.584 191.59c.66-.51 1.182-1.127 1.61-1.81l.007.006c1.492 1.714-1.28 9.347-1.28 9.347.654-2.917.41-5.448-.336-7.544zM432.753 196.074c-.617 2.53-4.405 6.816-4.405 6.816 1.04-2.916 1.815-5.274 2.18-7.23.85.252 1.58.372 2.225.414zM414.673 195.69c-.27 1.024-.58 1.335-.833 1.147-.163-2.13 2.112-5.86 3.1-7.367.206.267.41.53.606.787-1.382 1.65-2.398 3.653-2.873 5.432zM451.666 179.025c1.398 1.563 1.83 6.96 1.83 6.96-.97-2.148-1.688-3.91-2.587-5.324.17-.61.436-1.147.756-1.635z"/></g></g><g><path d="M372.6 40.404c-4.542-1.097-9.863-4.08-17.535-3.287-7.668.793-13.93 2.952-13.93.928s4.617-7.894 4.617-7.894-8.458 4.837-7.988 8.918c.47 4.08 3.878 3.455 7.483 3.058 3.606-.396 8.214-2.19 10.11-2.19 1.9 0 4.248.312 6.91.938 2.66.626 3.442 2.036 5.79 2.036 2.35 0 4.542-2.506 4.542-2.506z"/><path fill="#ED2224" d="M401.055 198.038c-3.996-5.85-5.38-14.376-5.857-18.475 2.226 4.694 18.79 3.604 13.527 3.604-5.635 0-12.992-12.367-12.992-12.367s-1.865-3.287 1.578-6.104c3.445-2.818 7.97 10.958 14.232.626s-12.836-10.645-12.836-22.23c0-11.582 4.774-9.704 4.774-28.175s-7.592-19.098-8.844-38.508c3.13 4.382 7.514 5.947 15.653 5.32-10.11-3.75-16.594-10.33-16.28-16.28 2.817 2.506 12.21 4.07 12.21 4.07l-12.21-13.148c-1.442-5.322 1.91-5.635 2.537-13.775.226-2.932 1.344-10.665 4.116-11.907 2.77-1.242 4.086-5.667 4.525-6.898.438-1.23-1.598 3.204-3.945 3.465s-.4-.94-7.288-.94-2.417-3.13-10.848-3.755c-8.432-.626-4.092 3.756-10.98 3.756-6.888 0-12.522-.626-16.063 0-3.54.627-2.095 11.897 0 8.182 2.096-3.716 7.924-1.92 13.338 0 5.412 1.92 3.98 8.1-2.912 10.603-6.89 2.505-5.678-2.504-5.678-2.504s-4.376 3.794 1.022 7.55c5.4 3.758 6.415-3.672 12.45-1.793 6.038 1.878 1.13 4.104 1.6 8.017l-12.21 13.146s9.394-1.564 12.212-4.07c.313 5.95-6.173 12.528-16.28 16.28 8.14.626 12.523-.94 15.653-5.322-1.253 19.41-8.846 20.037-8.846 38.508s4.774 16.593 4.774 28.176c0 11.584-19.097 11.897-12.837 22.23 6.264 10.33 10.79-3.445 14.235-.627s1.577 6.104 1.577 6.104-7.357 12.366-12.993 12.366c-5.26 0 11.303 1.09 13.528-3.604-.477 4.1-1.863 12.625-5.858 18.475-6.382 9.342-23.95 19.88-23.95 19.88s20.506-3.913 22.072 2.974c1.564 6.89 7.545-1.395 12.154 2.05 4.004 2.992.27 9.988 4.56 11.36 0 0 .89.247 1.27.223.383.024 1.272-.222 1.272-.222 4.29-1.372.555-8.37 4.56-11.36 4.607-3.445 10.588 4.838 12.154-2.05 1.564-6.886 22.07-2.973 22.07-2.973s-17.566-10.538-23.947-19.88z"/><path opacity=".49" fill="#FBB040" d="M356.065 34.497c2.096-3.716 7.924-1.92 13.338 0 5.412 1.92 3.98 8.1-2.912 10.603-6.89 2.505-5.677-2.504-5.677-2.504s-4.376 3.795 1.022 7.552c5.4 3.757 6.415-3.673 12.45-1.794 0 0-1.427-2.314-1.427-9.724 0-3.685.69-8.584 1.63-12.565-.6.156-1.358.25-2.36.25-6.888 0-12.522-.626-16.063 0-3.54.627-2.095 11.898 0 8.182z"/><path fill="#BE1E2D" d="M363.675 69.52s11.428-5.244 13.15-8.296c-.157 3.678-.157 3.678-1.054 4.114-1.844 1.578-12.095 4.182-12.095 4.182zM363.675 81.104s12.387-4.94 12.61-7.675c-.166 3.056-2.147 4.363-2.147 4.363s-5.297 4.49-10.463 4.057c-5.165-.433 0-.746 0-.746z"/><path fill="#D32027" d="M374.946 79.897c-1.877 16.07-8.53 17.725-8.53 35.02 0 18.052 4.558 16.673 4.765 27.417 0-.012.003-.022.003-.034-.166-6.27 8.015-13.452 8.015-29.755s-4.878-21.423-4.252-32.648zM359.292 165.164c3.902-1.692 13.618-12.366 12.68-14.558-.674-1.573-.71-2.896-1.887-3.06-3.955 7.397-16.925 8.95-11.814 17.632.343.12.685.133 1.022-.014zM403.406 163.13c-2.38-.94-4.88 1.188-4.88 1.188l.006.006c2.442.287 5.388 5.768 9.023 4.77.623-.285 1.114-.538 1.363-.68l.08-.064c.74-.598-3.246-4.293-5.592-5.22zM379.197 191.463c-2.372-15.967-1.1-15.785-2.91-14.937-.724.338-1.057 2.17-1.8 4.685-.634 4.452-2.127 11.675-5.646 16.828-6.38 9.342-24.262 16.75-23.95 19.88 4.697 1.72 36.678-10.49 34.307-26.455z"/><path fill="#FBB040" d="M354.41 34.332c.446-.18.762-.388.762-.388s.365-4.79 4.59-5.583c4.228-.792 5.18-.967 5.173-2.21-3.636-.127-6.66-.225-8.87.166-2.42.428-2.51 5.826-1.655 8.016z"/><g fill="#771516" stroke="#771516" stroke-width="1.878" stroke-miterlimit="10"><path d="M358.516 217.775h.003-.004zM366.963 220.892c2.754-1.565 5.844-9.393 5.844-9.393s-4.235 4.97-11.944 5.623M408.84 217.196c-7.706-.654-11.942-5.623-11.942-5.623s3.09 7.827 5.843 9.392"/></g><path fill="#771516" d="M386.217 234.51l.003-.208c1.167-.374 1.738-1.166 2.034-2.18-1.66-2.294-3.306-6.17-3.306-12.17 0 5.996-1.643 9.87-3.3 12.165.158.55.393 1.038.765 1.425.316.33.727.588 1.264.76l.002.208c.47.036.887.038 1.27.014.38.024.8.022 1.267-.014z"/><path fill="#EF3744" d="M399.68 107.507c.155 6 0 17.298-.783 19.632-.783 2.333-1.433 12.693-.783 13.29.09.083.35-.06.72-.36.756-8.387 4.647-8.477 4.647-25.155 0-14.27-4.525-17.895-7.165-27.75l-1.33-1.053s4.538 15.394 4.694 21.395z"/><path fill="#D32027" d="M393.675 26.312c-6.473-.087-2.256-3.136-10.566-3.752-6.66-.495-5.356 2.134-7.905 3.26.076 1.005.055 1.592.055 1.592s.94 5.478 2.818 8.296c1.878 2.817 4.07 3.914 5.713 3.992 1.646.078-7.297-7.057-3.227-10.188 4.068-3.13 13.517 2.342 13.112-3.2z"/><path fill="none" stroke="#771516" stroke-width="1.252" stroke-linecap="round" stroke-miterlimit="10" d="M381.587 31.495c-4.06-3.458 1.03-3.77 3.35-2.31"/><path fill="#EF3744" d="M396.548 42.596c.226-2.932 1.344-10.665 4.116-11.907 2.77-1.243 4.086-5.668 4.525-6.9.437-1.23-1.6 3.205-3.946 3.466-1.214.135-1.28-.12-2.013-.4 0 .004-9.528 11.647-7.222 17.897 2.31 6.25-.7 8.746 1.684 8.54.302-2.82 2.377-4.465 2.856-10.697zM398.527 145.312s2.05 9.495 8.138 12.495c2.802 1.38 4.612 2.207 5.99 2.508-1.377-5.38-11.967-7.514-13.704-15.054-.17-.01-.32 0-.423.052zM401.055 198.038c-3.337-4.887-4.85-11.632-5.537-16.113 0 0 .09 17.992 6.353 21.75 6.263 3.755 20.91 13.93 23.136 14.244.313-3.133-17.57-10.54-23.95-19.882z"/><path fill="none" stroke="#771516" stroke-width="1.878" stroke-miterlimit="10" d="M374.286 48.354c6.038 1.878 1.13 4.104 1.6 8.017l-12.21 13.15s9.392-1.564 12.21-4.07c.313 5.95-6.173 12.528-16.28 16.28 8.14.626 12.523-.94 15.653-5.322-1.253 19.41-8.846 20.037-8.846 38.508s4.774 16.593 4.774 28.176c0 11.584-19.097 11.897-12.837 22.23 6.264 10.33 10.79-3.445 14.235-.627s1.577 6.104 1.577 6.104-7.357 12.366-12.993 12.366c-5.26 0 11.303 1.09 13.528-3.604-.477 4.1-1.863 12.625-5.858 18.475-6.382 9.342-23.95 19.88-23.95 19.88s20.506-3.913 22.072 2.974c1.564 6.89 7.545-1.395 12.154 2.05 3.504 2.617 1.083 8.302 3.296 10.602.316.33.727.588 1.264.76 0 0 .89.246 1.27.222.383.024 1.272-.222 1.272-.222 4.29-1.373.555-8.37 4.56-11.362 4.607-3.444 10.588 4.84 12.154-2.048 1.564-6.887 22.07-2.974 22.07-2.974s-17.568-10.538-23.95-19.88c-3.995-5.85-5.38-14.376-5.856-18.475 2.226 4.694 18.79 3.604 13.527 3.604-5.635 0-12.992-12.367-12.992-12.367s-1.864-3.287 1.58-6.104c3.443-2.818 7.97 10.958 14.23.626s-12.836-10.645-12.836-22.23c0-11.582 4.774-9.704 4.774-28.175s-7.592-19.098-8.844-38.508c3.13 4.382 7.514 5.947 15.653 5.32-10.108-3.75-16.593-10.33-16.28-16.28 2.818 2.506 12.21 4.07 12.21 4.07l-12.21-13.148c-1.44-5.322 1.912-5.635 2.538-13.775.226-2.932 1.344-10.665 4.116-11.907 2.772-1.242 4.087-5.667 4.526-6.898.438-1.23-1.598 3.204-3.945 3.465s-.4-.94-7.287-.94-2.417-3.13-10.848-3.755c-7.205-.535-5.09 2.586-8.62 3.506"/><path fill="none" stroke="#C85B1A" stroke-width="1.878" stroke-miterlimit="10" d="M374.49 26.065c-.602.156-1.36.25-2.36.25-6.89 0-12.523-.626-16.064 0-3.54.627-2.095 11.897 0 8.182 2.096-3.716 7.924-1.92 13.338 0 5.412 1.92 3.98 8.1-2.912 10.603-6.89 2.505-5.678-2.504-5.678-2.504s-4.376 3.795 1.022 7.552c5.4 3.757 6.415-3.673 12.45-1.794"/></g></g><g><path fill="#ED2224" d="M35.296 77.347s3.017-14.467 9.604-26.72c.82-1.528 5.32-8.647 4.277-10.396-1.044-1.747-3.236-2.917-6.89-1.69 2.152-1.714 5.48-2.516 8.925-2.516s4.107 1.515 5.48.417c1.367-1.092.813-2.718-.88-4.66-1.016-1.17-2.888-2.047-6.01-1.942 2.614-2.097 10.443-1.77 14.567.333 4.123 2.105 6.85 4.21 10.477 7.837C87.897 52 89.262 96.224 107.304 95.192c21.288-1.217 23.48-24.89 23.48-24.89l-.54 66.843s-7.914-6.262-12.922-6.262-1.878 29.43-23.793 30.68c7.086-8.897 9.047-15.248 7.377-23.536-4.964 18.483-15.118 23.693-18.762 23.615 6.375-12.602 7-26.422 7-26.422s-8.452 22.9-22.854 25.404c9.394-15.028 10.176-30.786 10.176-30.786S67.41 154.5 46.568 154.675c17.323-13.984 18.366-17.532 18.992-29.43-1.363 5.22-17.192 22.308-31.516 20.04 8.922-6.89 15.445-13.568 16.698-28.596-2.088 5.218-12.68 20.715-25.985 17.427 13.15-8.766 15.438-23.817 15.438-23.817s-5.523 10.675-21.804 7.433c16.907-8.766 20.038-19.62 21.916-27.55 1.878-7.93 3.584-16.828 1.863-17.767-1.723-.94-6.874 4.93-6.874 4.93z"/><g fill="#D32027"><path d="M93.53 161.564c14.087-4.54 13.02-32.27 20.833-31.554 2.2.102-5.097 20.375-6.774 23.237-1.68 2.863-7.017 7.848-14.06 8.317zM99.477 123.682s-6.73 27.55-16.976 37.236c9.412-5.05 10.336-5.6 13.404-11.93 5.078-11.67 3.573-25.306 3.573-25.306zM66.29 160.625c16.593-16.75 23.9-42.89 23.9-42.89s-2.182 21.02-5.918 27.025c-3.736 6.003-6.596 8.934-17.98 15.865zM46.568 154.676c20.82-6.26 31.307-39.24 31.307-39.24s-2.043 16.436-8.77 24.682c-6.73 8.246-16.59 15.967-22.537 14.558zM34.044 145.285c14.34-3.287 29.743-22.7 33.813-36.317 0 0-1.878 18.64-10.645 25.6-9.08 11.81-23.168 10.717-23.168 10.717zM24.756 134.118c14.61-2.922 27.238-35.83 27.238-35.83s-2.61 20.385-8.4 25.394-10.28 13.045-18.838 10.436z"/></g><path fill="none" stroke="#771515" stroke-width="1.878" stroke-miterlimit="10" d="M35.296 77.347s3.017-14.467 9.604-26.72c.82-1.528 5.32-8.647 4.277-10.396-1.044-1.747-3.236-2.917-6.89-1.69 2.152-1.714 5.48-2.516 8.925-2.516s4.107 1.515 5.48.417c1.367-1.092.813-2.718-.88-4.66-1.016-1.17-2.888-2.047-6.01-1.942 2.614-2.097 10.443-1.77 14.567.333 4.123 2.105 6.85 4.21 10.477 7.837C87.897 52 89.262 96.224 107.304 95.192c21.288-1.217 23.48-24.89 23.48-24.89l-.54 66.843s-7.914-6.262-12.922-6.262-1.878 29.43-23.793 30.68c7.086-8.897 9.047-15.248 7.377-23.536-4.964 18.483-15.118 23.693-18.762 23.615 6.375-12.602 7-26.422 7-26.422s-8.452 22.9-22.854 25.404c9.394-15.028 10.176-30.786 10.176-30.786S67.41 154.5 46.568 154.675c17.323-13.984 18.366-17.532 18.992-29.43-1.363 5.22-17.192 22.308-31.516 20.04 8.922-6.89 15.445-13.568 16.698-28.596-2.088 5.218-12.68 20.715-25.985 17.427 13.15-8.766 15.438-23.817 15.438-23.817s-5.523 10.675-21.804 7.433c16.907-8.766 20.038-19.62 21.916-27.55 1.878-7.93 3.584-16.828 1.863-17.767-1.723-.94-6.874 4.93-6.874 4.93z"/><g fill="#771515"><path d="M50.81 116.757c2.607-9.833 1.184-18.468 1.184-18.468-10.436 34.054-27.238 35.828-27.238 35.828 13.118 3.24 23.76-11.936 26.053-17.36zM34.044 145.285c14.515 7.77 31.516-20.038 31.516-20.038s2.505-7.722 2.296-16.28c-.325 7.56-15.236 34.23-33.812 36.318zM46.568 154.676c14.193-2.086 30.263-24.21 31.307-39.24-.28 10.354 0 10.525-1.41 14.403-3.39 10.017-18.627 26.297-29.897 24.836zM66.29 160.625c18.264-13.67 23.064-38.508 23.9-42.89.625 8.14 0 13.148 0 13.148s-6.89 25.463-23.9 29.742zM82.145 161.643c10.685-7.81 15.975-23.247 17.332-37.96 2.19 9.914 1.43 14.345 1.43 14.345s-7.813 22.65-18.762 23.615zM93.53 161.564c16.486-3.757 16.658-31.554 20.833-31.554 4.173 0 2.466.487 1.86 1.453-.603.965-4.746 29.475-22.694 30.1z"/></g><path fill="#771515" d="M69.415 34.382c11.01 9.104 12.116 61.436 27.244 61.436 3.586 0 9.85.16 11.688.208-16.28-5.73-22.152-55.402-38.933-61.644z"/><path fill="#EF3744" d="M44.27 65.262s9.32-26.513 17.95-27.884c8.63-1.372 7.272 4.592 7.08 5.635-.19 1.043-2.49-1.67-6.454 1.878-3.964 3.55-18.575 20.372-18.575 20.372zM69.526 56.788s-.488 46.753 25.95 50.72c-21.15-8.56-25.95-50.72-25.95-50.72z"/><path fill="#771515" d="M69.526 56.788s-.488 46.753 25.95 50.72c-31.794-2.506-25.95-50.72-25.95-50.72z"/><g><path fill="#ED2224" d="M242.03 77.347s-3.016-14.467-9.603-26.72c-.82-1.528-5.32-8.647-4.277-10.396 1.043-1.747 3.235-2.917 6.887-1.69-2.15-1.714-5.48-2.516-8.923-2.516-3.445 0-4.107 1.515-5.48.417-1.368-1.092-.813-2.718.88-4.66 1.016-1.17 2.89-2.047 6.01-1.942-2.614-2.097-10.443-1.77-14.568.333-4.123 2.105-6.85 4.21-10.477 7.837C189.43 52 188.064 96.224 170.022 95.192c-21.29-1.217-23.48-24.89-23.48-24.89l.538 66.843s7.915-6.262 12.925-6.262c5.01 0 1.878 29.43 23.794 30.68-7.09-8.897-9.05-15.248-7.38-23.536 4.965 18.483 15.118 23.693 18.762 23.615-6.374-12.602-7-26.422-7-26.422s8.453 22.9 22.855 25.404c-9.393-15.028-10.176-30.786-10.176-30.786s9.056 24.662 29.9 24.837c-17.324-13.984-18.368-17.532-18.993-29.43 1.363 5.22 17.193 22.308 31.516 20.04-8.922-6.89-15.444-13.568-16.697-28.596 2.087 5.218 12.68 20.715 25.984 17.427-13.148-8.766-15.436-23.817-15.436-23.817s5.522 10.675 21.804 7.433c-16.907-8.766-20.037-19.62-21.916-27.55-1.878-7.93-3.584-16.828-1.862-17.767 1.72-.94 6.87 4.93 6.87 4.93z"/><g fill="#D32027"><path d="M183.8 161.564c-14.09-4.54-13.024-32.27-20.835-31.554-2.202.102 5.096 20.375 6.774 23.237 1.676 2.863 7.014 7.848 14.06 8.317zM177.85 123.682s6.73 27.55 16.976 37.236c-9.41-5.05-10.335-5.6-13.403-11.93-5.078-11.67-3.573-25.306-3.573-25.306zM211.037 160.625c-16.594-16.75-23.9-42.89-23.9-42.89s2.182 21.02 5.918 27.025c3.737 6.003 6.595 8.934 17.982 15.865zM230.76 154.676c-20.82-6.26-31.307-39.24-31.307-39.24s2.043 16.436 8.77 24.682c6.728 8.246 16.588 15.967 22.537 14.558zM243.282 145.285c-14.34-3.287-29.742-22.7-33.812-36.317 0 0 1.878 18.64 10.644 25.6 9.08 11.81 23.168 10.717 23.168 10.717zM252.57 134.118c-14.61-2.922-27.237-35.83-27.237-35.83s2.61 20.385 8.4 25.394c5.792 5.008 10.28 13.045 18.836 10.436z"/></g><path fill="none" stroke="#771515" stroke-width="1.878" stroke-miterlimit="10" d="M242.03 77.347s-3.016-14.467-9.603-26.72c-.82-1.528-5.32-8.647-4.277-10.396 1.043-1.747 3.235-2.917 6.887-1.69-2.15-1.714-5.48-2.516-8.923-2.516-3.445 0-4.107 1.515-5.48.417-1.368-1.092-.813-2.718.88-4.66 1.016-1.17 2.89-2.047 6.01-1.942-2.614-2.097-10.443-1.77-14.568.333-4.123 2.105-6.85 4.21-10.477 7.837C189.43 52 188.064 96.224 170.022 95.192c-21.29-1.217-23.48-24.89-23.48-24.89l.538 66.843s7.915-6.262 12.925-6.262c5.01 0 1.878 29.43 23.794 30.68-7.09-8.897-9.05-15.248-7.38-23.536 4.965 18.483 15.118 23.693 18.762 23.615-6.374-12.602-7-26.422-7-26.422s8.453 22.9 22.855 25.404c-9.393-15.028-10.176-30.786-10.176-30.786s9.056 24.662 29.9 24.837c-17.324-13.984-18.368-17.532-18.993-29.43 1.363 5.22 17.193 22.308 31.516 20.04-8.922-6.89-15.444-13.568-16.697-28.596 2.087 5.218 12.68 20.715 25.984 17.427-13.148-8.766-15.436-23.817-15.436-23.817s5.522 10.675 21.804 7.433c-16.907-8.766-20.037-19.62-21.916-27.55-1.878-7.93-3.584-16.828-1.862-17.767 1.72-.94 6.87 4.93 6.87 4.93z"/><g fill="#771515"><path d="M226.518 116.757c-2.61-9.833-1.186-18.468-1.186-18.468 10.437 34.054 27.236 35.828 27.236 35.828-13.115 3.24-23.756-11.936-26.05-17.36zM243.282 145.285c-14.515 7.77-31.516-20.038-31.516-20.038s-2.504-7.722-2.296-16.28c.326 7.56 15.236 34.23 33.812 36.318zM230.76 154.676c-14.193-2.086-30.263-24.21-31.307-39.24.28 10.354 0 10.525 1.408 14.403 3.393 10.017 18.63 26.297 29.9 24.836zM211.037 160.625c-18.264-13.67-23.064-38.508-23.9-42.89-.624 8.14 0 13.148 0 13.148s6.89 25.463 23.9 29.742zM195.18 161.643c-10.684-7.81-15.974-23.247-17.33-37.96-2.192 9.914-1.43 14.345-1.43 14.345s7.812 22.65 18.76 23.615zM183.8 161.564c-16.49-3.757-16.662-31.554-20.835-31.554-4.174 0-2.465.487-1.863 1.453.606.965 4.747 29.475 22.697 30.1z"/></g><path fill="#771515" d="M207.912 34.382c-11.012 9.104-12.117 61.436-27.244 61.436-3.587 0-9.853.16-11.688.208 16.28-5.73 22.15-55.402 38.932-61.644z"/><path fill="#EF3744" d="M233.056 65.262s-9.32-26.513-17.95-27.884c-8.63-1.372-7.27 4.592-7.08 5.635.193 1.043 2.492-1.67 6.456 1.878 3.963 3.55 18.574 20.372 18.574 20.372zM207.8 56.788s.488 46.753-25.95 50.72c21.15-8.56 25.95-50.72 25.95-50.72z"/><path fill="#771515" d="M207.8 56.788s.488 46.753-25.95 50.72c31.795-2.506 25.95-50.72 25.95-50.72z"/></g><g><path fill="#FBB040" d="M112.724 159.732s-8.645 12.008-15.842 12.008c-7.196 0-8.92-5.402-17.06-4.19-13.15 3.092-12.367 15.772-9.706 18.434 2.68-5.927 3.43-8.94 11.39-9.694-4.853 4.54-14.05 11.104-4.815 22.843-2.348-10.488 6.89-16.013 9.393-14.088 6.26 1.878-4.695 13.15 9.18 17.846-3.13-8.765-3.858-12.522 1.777-15.34 5.636-2.818 10.645 3.443 11.897 8.14s3.27-5.496-3.062-10.888c-6.332-5.392 14.33-21.045 14.33-21.045l-3.13-5.322-4.35 1.297z"/><path fill="#F7941E" d="M106.22 190.446c.102-3.677-5.734-5.715-10.43-4.775-4.692.94-2.785 9.53-2.78 9.55-.58-3.662.412-5.86 4.03-7.67 3.582-1.79 6.91.086 9.18 2.896zM120.206 163.756l-1.567-2.667c-3.96 2.942-8.694 6.78-11.267 9.867-4.696 5.635-2.692 10.967-2.692 10.968.37-6.685 15.526-18.17 15.526-18.17zM77.004 175.34c-5.01.312-5.018 6.583-5.018 6.583 1.694-3.287 3.64-5.078 9.52-5.634 0 0 .508-1.264-4.502-.95zM86.083 185.044c1.265.38 1.827 1.142 2.033 2.157-.028-.16.47-5.286-4.85-5.276-5.318.01-6.51 10.54-6.514 10.556 1.64-6.053 7.428-8.898 9.33-7.436z"/><path fill="none" stroke="#F7941E" stroke-width="1.252" stroke-miterlimit="10" d="M73.874 173.46s5.635-5.322 17.375 0c6.678 1.938 14.207-3.495 14.207-3.495s-6.224 4.435-9.042 6.626c-2.818 2.193-9.392-1.877-16.593 4.07"/><path fill="none" stroke="#F7941E" stroke-width="1.252" stroke-miterlimit="10" d="M90.154 188.802s3.532-8.553 9.436-13.513c5.904-4.96 12.642-12.16 12.642-12.16M102.677 183.48s-3.087-8.19 2.97-13.326"/><g fill="#BCBEC0"><path d="M72.703 180.66c-.558-2.004-2.083-3.31-3.534-4.134-1.298 4.024-.43 8.082.947 9.458.97-2.147 1.69-3.91 2.586-5.323zM108.225 187.54c-.74.862-1.48 1.833-2.16 2.717 1.383 1.65 2.398 3.653 2.873 5.432 1.06 3.977 2.67-2.73-.713-8.15zM93.085 195.66c-2.46.728-3.932.403-5.168.035.44 2.76 2.156 5.438 7.346 7.195-1.042-2.915-1.814-5.274-2.178-7.23zM73.72 185.23c-1.65 3.638-1.556 8.146 2.972 13.902-.653-2.917-.408-5.448.337-7.543-1.95-1.503-2.746-3.887-3.31-6.36z"/></g><g fill="#939598"><path d="M77.028 191.59c-.662-.51-1.182-1.127-1.613-1.81 0 .003-.003.004-.006.006-1.49 1.714 1.28 9.347 1.28 9.347-.652-2.917-.406-5.448.338-7.544zM90.858 196.074c.617 2.53 4.404 6.816 4.404 6.816-1.042-2.916-1.814-5.274-2.178-7.23-.852.252-1.58.372-2.226.414zM108.938 195.69c.273 1.024.582 1.335.833 1.147.164-2.13-2.11-5.86-3.1-7.367l-.605.787c1.383 1.65 2.398 3.653 2.873 5.432zM71.947 179.025c-1.398 1.563-1.83 6.96-1.83 6.96.97-2.148 1.69-3.91 2.586-5.324-.17-.61-.436-1.147-.756-1.635z"/></g><g><path fill="#FBB040" d="M164.603 159.732s8.645 12.008 15.842 12.008c7.196 0 8.92-5.402 17.06-4.19 13.15 3.092 12.367 15.772 9.706 18.434-2.678-5.927-3.43-8.94-11.39-9.694 4.854 4.54 14.052 11.104 4.816 22.843 2.35-10.488-6.888-16.013-9.392-14.088-6.26 1.878 4.696 13.15-9.18 17.846 3.13-8.765 3.858-12.522-1.777-15.34-5.635-2.818-10.645 3.443-11.897 8.14-1.252 4.696-3.27-5.496 3.06-10.888 6.333-5.392-14.328-21.045-14.328-21.045l3.128-5.322 4.353 1.297z"/><path fill="#F7941E" d="M171.107 190.446c-.1-3.677 5.735-5.715 10.432-4.775 4.69.94 2.782 9.53 2.778 9.55.58-3.662-.412-5.86-4.03-7.67-3.583-1.79-6.91.086-9.18 2.896zM157.122 163.756l1.567-2.667c3.96 2.942 8.692 6.78 11.265 9.867 4.697 5.635 2.692 10.967 2.692 10.968-.37-6.685-15.525-18.17-15.525-18.17zM200.323 175.34c5.01.312 5.02 6.583 5.02 6.583-1.696-3.287-3.642-5.078-9.52-5.634-.002 0-.51-1.264 4.5-.95zM191.244 185.044c-1.265.38-1.827 1.142-2.032 2.157.026-.16-.47-5.286 4.85-5.276 5.318.01 6.512 10.54 6.514 10.556-1.64-6.053-7.43-8.898-9.332-7.436z"/><path fill="none" stroke="#F7941E" stroke-width="1.252" stroke-miterlimit="10" d="M203.454 173.46s-5.635-5.322-17.375 0c-6.68 1.938-14.21-3.495-14.21-3.495s6.225 4.435 9.043 6.626c2.818 2.193 9.392-1.877 16.593 4.07"/><path fill="none" stroke="#F7941E" stroke-width="1.252" stroke-miterlimit="10" d="M187.173 188.802s-3.532-8.553-9.435-13.513c-5.905-4.96-12.642-12.16-12.642-12.16M174.65 183.48s3.088-8.19-2.97-13.326"/><g fill="#BCBEC0"><path d="M204.623 180.66c.558-2.004 2.084-3.31 3.536-4.134 1.295 4.024.427 8.082-.95 9.458-.97-2.147-1.688-3.91-2.587-5.323zM169.103 187.54c.738.862 1.48 1.833 2.16 2.717-1.383 1.65-2.4 3.653-2.874 5.432-1.062 3.977-2.67-2.73.713-8.15zM184.242 195.66c2.462.728 3.932.403 5.17.035-.442 2.76-2.158 5.438-7.348 7.195 1.04-2.915 1.814-5.274 2.178-7.23zM203.607 185.23c1.65 3.638 1.558 8.146-2.97 13.902.652-2.917.407-5.448-.337-7.543 1.947-1.503 2.744-3.887 3.307-6.36z"/></g><g fill="#939598"><path d="M200.3 191.59c.66-.51 1.18-1.127 1.612-1.81l.005.006c1.49 1.714-1.28 9.347-1.28 9.347.652-2.917.407-5.448-.337-7.544zM186.47 196.074c-.618 2.53-4.405 6.816-4.405 6.816 1.04-2.916 1.814-5.274 2.178-7.23.852.252 1.58.372 2.226.414zM168.39 195.69c-.274 1.024-.584 1.335-.835 1.147-.163-2.13 2.112-5.86 3.1-7.367l.607.787c-1.383 1.65-2.398 3.653-2.873 5.432zM205.38 179.025c1.398 1.563 1.83 6.96 1.83 6.96-.97-2.148-1.688-3.91-2.587-5.324.17-.61.438-1.147.757-1.635z"/></g></g><g><path d="M126.314 40.404c-4.54-1.097-9.862-4.08-17.532-3.287-7.67.793-13.932 2.952-13.932.928s4.618-7.894 4.618-7.894-8.46 4.837-7.99 8.918c.47 4.08 3.878 3.455 7.486 3.058 3.606-.396 8.212-2.19 10.11-2.19 1.9 0 4.246.312 6.908.938 2.66.626 3.443 2.036 5.792 2.036 2.348 0 4.54-2.506 4.54-2.506z"/><path fill="#ED2224" d="M154.77 198.038c-3.994-5.85-5.38-14.376-5.858-18.475 2.227 4.694 18.79 3.604 13.53 3.604-5.636 0-12.994-12.367-12.994-12.367s-1.865-3.287 1.58-6.104c3.443-2.818 7.97 10.958 14.23.626s-12.835-10.645-12.835-22.23c0-11.582 4.775-9.704 4.775-28.175s-7.592-19.098-8.844-38.508c3.13 4.382 7.514 5.947 15.653 5.32-10.107-3.75-16.593-10.33-16.28-16.28 2.818 2.506 12.21 4.07 12.21 4.07l-12.21-13.148c-1.442-5.322 1.912-5.635 2.538-13.775.225-2.932 1.343-10.665 4.116-11.907 2.772-1.242 4.087-5.667 4.526-6.898.437-1.23-1.597 3.204-3.944 3.465-2.35.26-.402-.94-7.29-.94s-2.417-3.13-10.848-3.755c-8.43-.626-4.092 3.756-10.98 3.756s-12.523-.626-16.064 0c-3.54.627-2.093 11.897 0 8.182 2.096-3.716 7.925-1.92 13.338 0 5.414 1.92 3.98 8.1-2.912 10.603-6.89 2.505-5.678-2.504-5.678-2.504s-4.376 3.794 1.022 7.55c5.4 3.758 6.414-3.672 12.45-1.793 6.037 1.878 1.13 4.104 1.6 8.017l-12.21 13.15s9.393-1.565 12.21-4.07c.314 5.948-6.172 12.527-16.28 16.28 8.14.625 12.523-.94 15.654-5.323-1.252 19.412-8.844 20.038-8.844 38.51s4.773 16.592 4.773 28.175c0 11.584-19.097 11.897-12.836 22.23 6.262 10.33 10.788-3.445 14.232-.627 3.443 2.818 1.577 6.104 1.577 6.104s-7.357 12.367-12.993 12.367c-5.26 0 11.302 1.09 13.528-3.605-.478 4.1-1.863 12.625-5.858 18.475-6.38 9.342-23.95 19.88-23.95 19.88s20.506-3.913 22.072 2.974c1.564 6.888 7.545-1.396 12.154 2.048 4.004 2.993.27 9.99 4.56 11.362 0 0 .89.246 1.272.222.38.024 1.27-.222 1.27-.222 4.29-1.373.556-8.37 4.56-11.362 4.61-3.444 10.59 4.84 12.155-2.048 1.565-6.887 22.07-2.974 22.07-2.974s-17.565-10.54-23.946-19.882z"/><path opacity=".49" fill="#FBB040" d="M109.78 34.497c2.095-3.716 7.924-1.92 13.337 0 5.414 1.92 3.98 8.1-2.912 10.603-6.89 2.505-5.678-2.504-5.678-2.504s-4.376 3.795 1.022 7.552c5.398 3.757 6.413-3.673 12.45-1.794 0 0-1.427-2.314-1.427-9.724 0-3.685.69-8.584 1.63-12.565-.602.156-1.36.25-2.36.25-6.89 0-12.524-.626-16.065 0-3.538.627-2.092 11.898 0 8.182z"/><path fill="#BE1E2D" d="M117.39 69.52s11.428-5.244 13.15-8.296c-.157 3.678-.157 3.678-1.052 4.114-1.846 1.578-12.097 4.182-12.097 4.182zM117.39 81.104s12.386-4.94 12.61-7.675c-.165 3.056-2.148 4.363-2.148 4.363s-5.295 4.49-10.46 4.057c-5.166-.433 0-.746 0-.746z"/><path fill="#D32027" d="M128.662 79.897c-1.876 16.07-8.53 17.725-8.53 35.02 0 18.052 4.557 16.673 4.763 27.417v-.034c-.163-6.27 8.017-13.452 8.017-29.755s-4.876-21.423-4.25-32.648zM113.008 165.164c3.9-1.692 13.62-12.366 12.68-14.558-.675-1.573-.71-2.896-1.888-3.06-3.954 7.397-16.923 8.95-11.813 17.632.34.12.683.133 1.02-.014zM157.122 163.13c-2.38-.94-4.88 1.188-4.88 1.188l.005.006c2.44.287 5.387 5.768 9.025 4.77.623-.285 1.112-.538 1.36-.68l.083-.064c.74-.598-3.247-4.293-5.593-5.22zM132.91 191.463c-2.37-15.967-1.1-15.785-2.91-14.937-.72.338-1.057 2.17-1.8 4.685-.63 4.452-2.125 11.675-5.643 16.828-6.38 9.342-24.264 16.75-23.95 19.88 4.695 1.72 36.676-10.49 34.304-26.455z"/><path fill="#FBB040" d="M108.125 34.332c.446-.18.763-.388.763-.388s.363-4.79 4.59-5.583c4.226-.792 5.176-.967 5.17-2.21-3.635-.127-6.66-.225-8.87.166-2.417.428-2.507 5.826-1.653 8.016z"/><g fill="#771516" stroke="#771516" stroke-width="1.878" stroke-miterlimit="10"><path d="M112.232 217.775h.003-.004zM120.68 220.892c2.752-1.565 5.84-9.393 5.84-9.393s-4.234 4.97-11.942 5.623M162.556 217.196c-7.708-.654-11.942-5.623-11.942-5.623s3.088 7.827 5.842 9.392"/></g><path fill="#771516" d="M139.933 234.51l.003-.208c1.167-.374 1.738-1.166 2.034-2.18-1.66-2.294-3.305-6.17-3.305-12.17 0 5.996-1.643 9.87-3.303 12.165.16.55.394 1.038.768 1.425.316.33.727.588 1.263.76l.002.208c.47.036.887.038 1.27.014.38.024.798.022 1.268-.014z"/><path fill="#EF3744" d="M153.395 107.507c.157 6 0 17.298-.783 19.632-.783 2.333-1.432 12.693-.783 13.29.088.083.347-.06.72-.36.755-8.387 4.647-8.477 4.647-25.155 0-14.27-4.528-17.895-7.167-27.75l-1.332-1.053s4.54 15.394 4.697 21.395z"/><path fill="#D32027" d="M147.39 26.312c-6.473-.087-2.255-3.136-10.566-3.752-6.658-.495-5.355 2.134-7.905 3.26.077 1.005.055 1.592.055 1.592s.94 5.478 2.817 8.296c1.88 2.817 4.07 3.914 5.714 3.992 1.644.078-7.3-7.057-3.23-10.188s13.518 2.342 13.114-3.2z"/><path fill="none" stroke="#771516" stroke-width="1.252" stroke-linecap="round" stroke-miterlimit="10" d="M135.302 31.495c-4.057-3.458 1.03-3.77 3.35-2.31"/><path fill="#EF3744" d="M150.264 42.596c.225-2.932 1.343-10.665 4.116-11.907 2.77-1.243 4.086-5.668 4.525-6.9.437-1.23-1.597 3.205-3.944 3.466-1.213.135-1.282-.12-2.013-.4-.002.004-9.53 11.647-7.223 17.897 2.308 6.25-.702 8.746 1.683 8.54.3-2.82 2.378-4.465 2.857-10.697zM152.243 145.312s2.047 9.495 8.137 12.495c2.802 1.38 4.612 2.207 5.99 2.508-1.376-5.38-11.967-7.514-13.705-15.054-.17-.01-.32 0-.422.052zM154.77 198.038c-3.337-4.887-4.85-11.632-5.538-16.113 0 0 .093 17.992 6.354 21.75 6.262 3.755 20.91 13.93 23.135 14.244.314-3.133-17.568-10.54-23.95-19.882z"/><path fill="none" stroke="#771516" stroke-width="1.878" stroke-miterlimit="10" d="M128 48.354c6.037 1.878 1.13 4.104 1.6 8.017l-12.21 13.15s9.393-1.564 12.21-4.07c.314 5.95-6.172 12.528-16.28 16.28 8.14.626 12.523-.94 15.654-5.322-1.252 19.41-8.844 20.037-8.844 38.508s4.773 16.593 4.773 28.176c0 11.584-19.097 11.897-12.836 22.23 6.262 10.33 10.788-3.445 14.232-.627 3.443 2.818 1.577 6.104 1.577 6.104s-7.357 12.366-12.993 12.366c-5.26 0 11.302 1.09 13.528-3.604-.478 4.1-1.863 12.625-5.858 18.475-6.38 9.342-23.95 19.88-23.95 19.88s20.506-3.913 22.072 2.974c1.564 6.89 7.545-1.395 12.154 2.05 3.503 2.617 1.083 8.302 3.296 10.602.316.33.727.588 1.263.76 0 0 .888.246 1.27.222.382.024 1.272-.222 1.272-.222 4.29-1.373.555-8.37 4.56-11.362 4.608-3.444 10.59 4.84 12.154-2.048 1.565-6.887 22.07-2.974 22.07-2.974s-17.568-10.538-23.95-19.88c-3.994-5.85-5.38-14.376-5.858-18.475 2.227 4.694 18.79 3.604 13.53 3.604-5.636 0-12.994-12.367-12.994-12.367s-1.865-3.287 1.58-6.104c3.443-2.818 7.97 10.958 14.23.626s-12.835-10.645-12.835-22.23c0-11.582 4.774-9.704 4.774-28.175s-7.592-19.098-8.844-38.508c3.13 4.382 7.514 5.947 15.653 5.32-10.107-3.75-16.593-10.33-16.28-16.28 2.818 2.506 12.21 4.07 12.21 4.07l-12.21-13.148c-1.442-5.322 1.912-5.635 2.538-13.775.226-2.932 1.344-10.665 4.117-11.907 2.77-1.242 4.086-5.667 4.525-6.898.437-1.23-1.597 3.204-3.944 3.465-2.35.26-.402-.94-7.29-.94s-2.417-3.13-10.848-3.755c-7.205-.535-5.09 2.586-8.62 3.506"/><path fill="none" stroke="#C85B1A" stroke-width="1.878" stroke-miterlimit="10" d="M128.204 26.065c-.6.156-1.36.25-2.36.25-6.888 0-12.523-.626-16.064 0-3.54.627-2.093 11.897 0 8.182 2.096-3.716 7.925-1.92 13.338 0 5.414 1.92 3.98 8.1-2.912 10.603-6.89 2.505-5.678-2.504-5.678-2.504s-4.376 3.795 1.022 7.552c5.4 3.757 6.414-3.673 12.45-1.794"/></g></g><g><path fill="#E27328" d="M133.894 121.887l-5.075-8.79 5.074-8.79h10.15l5.075 8.79-5.076 8.79"/><path fill="#FBB040" d="M144.044 104.307l-5.075-8.79v8.79"/><path fill="#F7941E" d="M133.894 104.307h5.075v-8.79M133.895 104.307h-10.15l7.61 4.395"/><path fill="#E48C2A" d="M128.82 113.097l2.536-4.395-7.61-4.394M128.82 113.097l-5.076 8.79 7.612-4.395"/><path fill="#CD7B29" d="M133.894 121.887l-2.538-4.395-7.61 4.395M133.894 121.887l5.074 8.79h.002v-8.79"/><path fill="#E48C2A" d="M144.044 121.888h-5.075v8.788"/><g><path fill="#E48C2A" d="M144.044 121.887h10.15v-.002l-7.612-4.394"/><path fill="#F7941E" d="M149.12 113.097l-2.538 4.394 7.61 4.395"/></g><g><path fill="#F7941E" d="M149.12 113.098l5.074-8.79h-.002l-7.61 4.394"/><path fill="#FBB040" d="M144.044 104.307l2.537 4.395 7.612-4.395"/></g><circle fill="#F7941E" stroke="#FBB040" stroke-miterlimit="10" cx="138.969" cy="113.097" r="7.323"/></g></g></g><use xlink:href="#e" overflow="visible" fill="none" stroke="#000" stroke-width="7" stroke-miterlimit="10"/><radialGradient id="h" cx="261.806" cy="575.523" r="180.594" gradientUnits="userSpaceOnUse"><stop offset=".632" stop-color="#FFF"/><stop offset=".705" stop-color="#F4F5F5"/><stop offset=".855" stop-color="#EAEBEB"/><stop offset="1" stop-color="#E6E7E8"/></radialGradient></svg>