<?xml version="1.0" encoding="utf-8"?>
<!-- Generator: Adobe Illustrator 15.0.0, SVG Export Plug-In  -->
<!DOCTYPE svg PUBLIC "-//W3C//DTD SVG 1.1//EN" "http://www.w3.org/Graphics/SVG/1.1/DTD/svg11.dtd" [
	<!ENTITY ns_flows "http://ns.adobe.com/Flows/1.0/">
]>
<svg version="1.1"
	 xmlns="http://www.w3.org/2000/svg" xmlns:xlink="http://www.w3.org/1999/xlink" xmlns:a="http://ns.adobe.com/AdobeSVGViewerExtensions/3.0/"
	 x="0px" y="0px" width="524px" height="659px" viewBox="0 0 524 659" enable-background="new 0 0 524 659" xml:space="preserve">
<defs>
</defs>
<linearGradient id="SVGID_3_" gradientUnits="userSpaceOnUse" x1="37.7886" y1="515.3037" x2="92.6829" y2="536.3757">
	<stop  offset="0" style="stop-color:#8B5E3C"/>
	<stop  offset="0.497" style="stop-color:#FDC060"/>
</linearGradient>
<path display="none" fill="url(#SVGID_3_)" stroke="#000000" stroke-width="3" stroke-miterlimit="10" d="M109.092,493.628l-72,70
	c0,0-13.53,0.171-11-15c2.529-15.171,23-55,23-55s1-8,21-9S109.092,493.628,109.092,493.628z"/>
<linearGradient id="SVGID_4_" gradientUnits="userSpaceOnUse" x1="430.9292" y1="536.376" x2="485.8235" y2="515.304">
	<stop  offset="0.503" style="stop-color:#FDC060"/>
	<stop  offset="1" style="stop-color:#8B5E3C"/>
</linearGradient>
<path display="none" fill="url(#SVGID_4_)" stroke="#000000" stroke-width="3" stroke-miterlimit="10" d="M414.52,493.628l72,70
	c0,0,13.529,0.171,11-15s-23-55-23-55s-1-8-21-9S414.52,493.628,414.52,493.628z"/>
<linearGradient id="SVGID_5_" gradientUnits="userSpaceOnUse" x1="1.5" y1="461.1279" x2="107.0923" y2="461.1279">
	<stop  offset="0" style="stop-color:#BCBEC0"/>
	<stop  offset="0.3333" style="stop-color:#E6E7E8"/>
</linearGradient>
<path display="none" fill="url(#SVGID_5_)" stroke="#000000" stroke-width="3" stroke-miterlimit="10" d="M2.092,456.628
	c0-18,7.316-28,35-28s51,8,51,8l19,57c0,0-71.883-16.141-90.941-9.07S2.092,456.628,2.092,456.628z"/>
<linearGradient id="SVGID_6_" gradientUnits="userSpaceOnUse" x1="416.52" y1="461.1279" x2="522.1118" y2="461.1279">
	<stop  offset="0.6316" style="stop-color:#E6E7E8"/>
	<stop  offset="0.6867" style="stop-color:#DBDCDD"/>
	<stop  offset="0.7932" style="stop-color:#CACBCD"/>
	<stop  offset="0.8984" style="stop-color:#BFC1C3"/>
	<stop  offset="1" style="stop-color:#BCBEC0"/>
</linearGradient>
<path display="none" fill="url(#SVGID_6_)" stroke="#000000" stroke-width="3" stroke-miterlimit="10" d="M521.52,456.628
	c0-18-7.316-28-35-28s-51,8-51,8l-19,57c0,0,71.883-16.141,90.941-9.07S521.52,456.628,521.52,456.628z"/>
<path display="none" fill="#FBB040" stroke="#000000" stroke-width="3" stroke-miterlimit="10" d="M2.092,456.628c0,0,8,6,23,6
	c9.731,10.067,11,32,11,58.345c-25-1.345-34-19.345-34-48.345S2.092,456.628,2.092,456.628z"/>
<path display="none" fill="#FBB040" stroke="#000000" stroke-width="3" stroke-miterlimit="10" d="M521.52,456.628c0,0-8,6-23,6
	c-9.731,10.067-11,32-11,58.345c25-1.345,34-19.345,34-48.345S521.52,456.628,521.52,456.628z"/>
<g>
	<defs>
		<path id="SVGID_2_" d="M261.113,3.5H10.092c0,0,0,138.937,0,258.714c0,161.081,140,299,251.714,341
			c118.286-39,251.714-175.92,251.714-337c0-119.778,0-262.714,0-262.714H261.113z"/>
	</defs>
	<linearGradient id="SVGID_7_" gradientUnits="userSpaceOnUse" x1="261.8062" y1="603.2139" x2="261.8061" y2="3.5005">
		<stop  offset="0" style="stop-color:#E6E7E8"/>
		<stop  offset="1" style="stop-color:#FFFFFF"/>
	</linearGradient>
	<use xlink:href="#SVGID_2_"  overflow="visible" fill="url(#SVGID_7_)"/>
	<clipPath id="SVGID_8_">
		<use xlink:href="#SVGID_2_"  overflow="visible"/>
	</clipPath>
	<g clip-path="url(#SVGID_8_)">
		<g>
			<g>
				<path fill="#ED2224" d="M96.722,330.128c0,0,4.817-23.106,15.338-42.676c1.312-2.439,8.498-13.809,6.831-16.601
					c-1.666-2.792-5.166-4.661-11-2.703c3.435-2.735,8.751-4.017,14.252-4.017s6.561,2.42,8.752,0.667
					c2.185-1.747,1.298-4.343-1.404-7.446c-1.623-1.864-4.614-3.267-9.6-3.1c4.175-3.348,16.679-2.828,23.265,0.532
					s10.94,6.722,16.733,12.515c20.84,22.348,23.02,92.976,51.833,91.328c34-1.945,37.5-39.75,37.5-39.75l-0.86,106.75
					c0,0-12.64-10-20.64-10s-3,47-38,49c11.32-14.211,14.451-24.354,11.784-37.59c-7.929,29.52-24.144,37.84-29.964,37.715
					c10.18-20.125,11.18-42.197,11.18-42.197s-13.5,36.572-36.5,40.572c15-24,16.25-49.167,16.25-49.167
					s-14.461,39.388-47.75,39.667c27.667-22.333,29.333-28,30.333-47c-2.178,8.333-27.458,35.625-50.333,32
					c14.25-11,24.667-21.667,26.667-45.667c-3.334,8.334-20.25,33.084-41.5,27.834c21-14,24.654-38.038,24.654-38.038
					s-8.82,17.05-34.821,11.871c27-14,31.999-31.337,35-44c3-12.663,5.725-26.875,2.975-28.375S96.722,330.128,96.722,330.128z"/>
				<g>
					<path fill="#D32027" d="M189.722,464.628c22.5-7.25,20.797-51.537,33.273-50.394c3.515,0.163-8.14,32.54-10.819,37.111
						C209.498,455.917,200.972,463.878,189.722,464.628z"/>
					<path fill="#D32027" d="M199.222,404.128c0,0-10.75,44-27.111,59.468c15.03-8.065,16.506-8.944,21.405-19.053
						C201.625,425.907,199.222,404.128,199.222,404.128z"/>
					<path fill="#D32027" d="M146.222,463.128c26.5-26.75,38.167-68.5,38.167-68.5s-3.482,33.574-9.45,43.162
						C168.972,447.378,164.405,452.06,146.222,463.128z"/>
					<path fill="#D32027" d="M114.722,453.628c33.25-10,50-62.667,50-62.667s-3.264,26.247-14.008,39.417
						S124.222,455.878,114.722,453.628z"/>
					<path fill="#D32027" d="M94.722,438.628c22.902-5.248,47.5-36.25,54-58c0,0-3,29.77-17,40.885
						C117.222,440.378,94.722,438.628,94.722,438.628z"/>
					<path fill="#D32027" d="M79.889,420.795c23.333-4.667,43.5-57.222,43.5-57.222s-4.167,32.555-13.417,40.555
						S93.556,424.962,79.889,420.795z"/>
				</g>
				<path fill="none" stroke="#771515" stroke-width="3" stroke-miterlimit="10" d="M96.722,330.128c0,0,4.817-23.106,15.338-42.676
					c1.312-2.439,8.498-13.809,6.831-16.601c-1.666-2.792-5.166-4.661-11-2.703c3.435-2.735,8.751-4.017,14.252-4.017
					s6.561,2.42,8.752,0.667c2.185-1.747,1.298-4.343-1.404-7.446c-1.623-1.864-4.614-3.267-9.6-3.1
					c4.175-3.348,16.679-2.828,23.265,0.532s10.94,6.722,16.733,12.515c20.84,22.348,23.02,92.976,51.833,91.328
					c34-1.945,37.5-39.75,37.5-39.75l-0.86,106.75c0,0-12.64-10-20.64-10s-3,47-38,49c11.32-14.211,14.451-24.354,11.784-37.59
					c-7.929,29.52-24.144,37.84-29.964,37.715c10.18-20.125,11.18-42.197,11.18-42.197s-13.5,36.572-36.5,40.572
					c15-24,16.25-49.167,16.25-49.167s-14.461,39.388-47.75,39.667c27.667-22.333,29.333-28,30.333-47
					c-2.178,8.333-27.458,35.625-50.333,32c14.25-11,24.667-21.667,26.667-45.667c-3.334,8.334-20.25,33.084-41.5,27.834
					c21-14,24.654-38.038,24.654-38.038s-8.82,17.05-34.821,11.871c27-14,31.999-31.337,35-44c3-12.663,5.725-26.875,2.975-28.375
					S96.722,330.128,96.722,330.128z"/>
				<g>
					<path fill="#771515" d="M121.497,393.068c4.166-15.704,1.893-29.496,1.893-29.496c-16.667,54.388-43.5,57.222-43.5,57.222
						C100.838,425.971,117.833,401.732,121.497,393.068z"/>
					<path fill="#771515" d="M94.722,438.628c23.182,12.409,50.333-32,50.333-32s4-12.333,3.667-26
						C148.203,392.702,124.389,435.295,94.722,438.628z"/>
					<path fill="#771515" d="M114.722,453.628c22.667-3.333,48.333-38.667,50-62.667c-0.446,16.532,0.001,16.807-2.25,23
						C157.055,429.961,132.722,455.961,114.722,453.628z"/>
					<path fill="#771515" d="M146.222,463.128c29.167-21.833,36.833-61.5,38.167-68.5c1,13,0,21,0,21
						S173.388,456.295,146.222,463.128z"/>
					<path fill="#771515" d="M171.542,464.753c17.065-12.475,25.513-37.125,27.68-60.625c3.5,15.833,2.284,22.91,2.284,22.91
						S189.029,463.211,171.542,464.753z"/>
					<path fill="#771515" d="M189.722,464.628c26.333-6,26.606-50.394,33.273-50.394c6.666,0,3.938,0.778,2.973,2.32
						S218.388,463.628,189.722,464.628z"/>
				</g>
				<g>
					<path fill="#771515" d="M151.211,261.511c17.586,14.539,19.351,98.117,43.511,98.117c5.729,0,15.734,0.254,18.667,0.333
						C187.389,350.81,178.012,271.479,151.211,261.511z"/>
				</g>
				<path fill="#EF3744" d="M111.055,310.827c0,0,14.885-42.342,28.667-44.533s11.613,7.333,11.307,9s-3.979-2.667-10.31,3
					S111.055,310.827,111.055,310.827z"/>
				<g>
					<path fill="#EF3744" d="M151.389,297.294c0,0-0.778,74.667,41.444,81C159.055,364.628,151.389,297.294,151.389,297.294z"/>
					<path fill="#771515" d="M151.389,297.294c0,0-0.778,74.667,41.444,81C142.055,374.295,151.389,297.294,151.389,297.294z"/>
				</g>
			</g>
			<g>
				<path fill="#ED2224" d="M426.889,330.128c0,0-4.816-23.106-15.338-42.676c-1.312-2.439-8.498-13.809-6.831-16.601
					s5.167-4.661,11-2.703c-3.435-2.735-8.751-4.017-14.251-4.017c-5.502,0-6.561,2.42-8.753,0.667
					c-2.185-1.747-1.298-4.343,1.404-7.446c1.623-1.864,4.614-3.267,9.6-3.1c-4.175-3.348-16.679-2.828-23.265,0.532
					s-10.94,6.722-16.733,12.515c-20.84,22.348-23.02,92.976-51.833,91.328c-34-1.945-37.5-39.75-37.5-39.75l0.86,106.75
					c0,0,12.64-10,20.64-10s3,47,38,49c-11.32-14.211-14.451-24.354-11.784-37.59c7.929,29.52,24.144,37.84,29.964,37.715
					c-10.18-20.125-11.18-42.197-11.18-42.197s13.5,36.572,36.5,40.572c-15-24-16.25-49.167-16.25-49.167
					s14.461,39.388,47.75,39.667c-27.667-22.333-29.333-28-30.333-47c2.178,8.333,27.458,35.625,50.333,32
					c-14.25-11-24.667-21.667-26.667-45.667c3.334,8.334,20.25,33.084,41.5,27.834c-21-14-24.654-38.038-24.654-38.038
					s8.82,17.05,34.821,11.871c-27-14-31.999-31.337-35-44c-3-12.663-5.725-26.875-2.975-28.375S426.889,330.128,426.889,330.128z"
					/>
				<g>
					<path fill="#D32027" d="M333.889,464.628c-22.5-7.25-20.797-51.537-33.273-50.394c-3.515,0.163,8.14,32.54,10.819,37.111
						C314.114,455.917,322.639,463.878,333.889,464.628z"/>
					<path fill="#D32027" d="M324.389,404.128c0,0,10.75,44,27.111,59.468c-15.03-8.065-16.506-8.944-21.405-19.053
						C321.986,425.907,324.389,404.128,324.389,404.128z"/>
					<path fill="#D32027" d="M377.389,463.128c-26.5-26.75-38.167-68.5-38.167-68.5s3.482,33.574,9.45,43.162
						C354.639,447.378,359.207,452.06,377.389,463.128z"/>
					<path fill="#D32027" d="M408.889,453.628c-33.25-10-50-62.667-50-62.667s3.264,26.247,14.008,39.417
						S399.389,455.878,408.889,453.628z"/>
					<path fill="#D32027" d="M428.889,438.628c-22.902-5.248-47.5-36.25-54-58c0,0,3,29.77,17,40.885
						C406.389,440.378,428.889,438.628,428.889,438.628z"/>
					<path fill="#D32027" d="M443.722,420.795c-23.333-4.667-43.5-57.222-43.5-57.222s4.167,32.555,13.417,40.555
						S430.055,424.962,443.722,420.795z"/>
				</g>
				<path fill="none" stroke="#771515" stroke-width="3" stroke-miterlimit="10" d="M426.889,330.128
					c0,0-4.816-23.106-15.338-42.676c-1.312-2.439-8.498-13.809-6.831-16.601s5.167-4.661,11-2.703
					c-3.435-2.735-8.751-4.017-14.251-4.017c-5.502,0-6.561,2.42-8.753,0.667c-2.185-1.747-1.298-4.343,1.404-7.446
					c1.623-1.864,4.614-3.267,9.6-3.1c-4.175-3.348-16.679-2.828-23.265,0.532s-10.94,6.722-16.733,12.515
					c-20.84,22.348-23.02,92.976-51.833,91.328c-34-1.945-37.5-39.75-37.5-39.75l0.86,106.75c0,0,12.64-10,20.64-10s3,47,38,49
					c-11.32-14.211-14.451-24.354-11.784-37.59c7.929,29.52,24.144,37.84,29.964,37.715c-10.18-20.125-11.18-42.197-11.18-42.197
					s13.5,36.572,36.5,40.572c-15-24-16.25-49.167-16.25-49.167s14.461,39.388,47.75,39.667c-27.667-22.333-29.333-28-30.333-47
					c2.178,8.333,27.458,35.625,50.333,32c-14.25-11-24.667-21.667-26.667-45.667c3.334,8.334,20.25,33.084,41.5,27.834
					c-21-14-24.654-38.038-24.654-38.038s8.82,17.05,34.821,11.871c-27-14-31.999-31.337-35-44c-3-12.663-5.725-26.875-2.975-28.375
					S426.889,330.128,426.889,330.128z"/>
				<g>
					<path fill="#771515" d="M402.115,393.068c-4.166-15.704-1.893-29.496-1.893-29.496c16.667,54.388,43.5,57.222,43.5,57.222
						C422.773,425.971,405.778,401.732,402.115,393.068z"/>
					<path fill="#771515" d="M428.889,438.628c-23.182,12.409-50.333-32-50.333-32s-4-12.333-3.667-26
						C375.409,392.702,399.222,435.295,428.889,438.628z"/>
					<path fill="#771515" d="M408.889,453.628c-22.667-3.333-48.333-38.667-50-62.667c0.446,16.532-0.001,16.807,2.25,23
						C366.556,429.961,390.889,455.961,408.889,453.628z"/>
					<path fill="#771515" d="M377.389,463.128c-29.167-21.833-36.833-61.5-38.167-68.5c-1,13,0,21,0,21
						S350.223,456.295,377.389,463.128z"/>
					<path fill="#771515" d="M352.069,464.753c-17.065-12.475-25.513-37.125-27.68-60.625c-3.5,15.833-2.284,22.91-2.284,22.91
						S334.583,463.211,352.069,464.753z"/>
					<path fill="#771515" d="M333.889,464.628c-26.333-6-26.606-50.394-33.273-50.394c-6.666,0-3.938,0.778-2.973,2.32
						S305.223,463.628,333.889,464.628z"/>
				</g>
				<g>
					<path fill="#771515" d="M372.4,261.511c-17.586,14.539-19.351,98.117-43.511,98.117c-5.729,0-15.734,0.254-18.667,0.333
						C336.222,350.81,345.599,271.479,372.4,261.511z"/>
				</g>
				<path fill="#EF3744" d="M412.556,310.827c0,0-14.885-42.342-28.667-44.533s-11.613,7.333-11.307,9s3.979-2.667,10.31,3
					S412.556,310.827,412.556,310.827z"/>
				<g>
					<path fill="#EF3744" d="M372.222,297.294c0,0,0.778,74.667-41.444,81C364.556,364.628,372.222,297.294,372.222,297.294z"/>
					<path fill="#771515" d="M372.222,297.294c0,0,0.778,74.667-41.444,81C381.556,374.295,372.222,297.294,372.222,297.294z"/>
				</g>
			</g>
		</g>
		<g>
			<g>
				<path fill="#FBB040" d="M220.379,461.703c0,0-13.807,19.178-25.3,19.178c-11.494,0-14.247-8.628-27.247-6.69
					c-21,4.938-19.75,25.188-15.5,29.438c4.277-9.466,5.477-14.279,18.189-15.482c-7.75,7.25-22.439,17.732-7.689,36.482
					c-3.75-16.75,10.999-25.574,15-22.5c10,3-7.5,21,14.66,28.5c-5-14-6.16-20,2.84-24.5s17,5.5,19,13s5.224-8.777-4.889-17.389
					c-10.111-8.611,22.885-33.611,22.885-33.611l-4.996-8.5L220.379,461.703z"/>
				<path fill="#F7941E" d="M209.993,510.755c0.161-5.873-9.16-9.127-16.66-7.627c-7.491,1.498-4.445,15.219-4.438,15.253
					c-0.927-5.85,0.658-9.362,6.438-12.253C201.051,503.269,206.365,506.267,209.993,510.755
					C209.993,510.755,209.993,510.755,209.993,510.755z"/>
				<path fill="#F7941E" d="M232.329,468.128l-2.504-4.26c-6.325,4.701-13.884,10.829-17.992,15.76c-7.5,9-4.3,17.515-4.3,17.516
					C208.123,486.47,232.329,468.128,232.329,468.128z"/>
				<path fill="#F7941E" d="M163.333,486.628c-8,0.5-8.016,10.516-8.016,10.516l0,0c2.707-5.248,5.815-8.109,15.205-8.998
					C170.522,488.146,171.333,486.128,163.333,486.628z"/>
				<path fill="#F7941E" d="M177.833,502.128c2.02,0.606,2.917,1.824,3.246,3.444c-0.044-0.255,0.751-8.444-7.746-8.429
					c-8.494,0.016-10.398,16.832-10.401,16.858C165.547,504.335,174.792,499.791,177.833,502.128z"/>
				<path fill="none" stroke="#F7941E" stroke-width="2" stroke-miterlimit="10" d="M158.333,483.628c0,0,9-8.5,27.75,0
					c10.666,3.093,22.69-5.583,22.69-5.583s-9.94,7.083-14.44,10.583s-15-3-26.5,6.5"/>
				<path fill="none" stroke="#F7941E" stroke-width="2" stroke-miterlimit="10" d="M184.333,508.128c0,0,5.641-13.66,15.07-21.58
					s20.188-19.42,20.188-19.42"/>
				<path fill="none" stroke="#F7941E" stroke-width="2" stroke-miterlimit="10" d="M204.333,499.628c0,0-4.931-13.08,4.742-21.28"
					/>
				<g>
					<path fill="#BCBEC0" d="M156.463,495.127c-0.891-3.201-3.327-5.286-5.645-6.604c-2.071,6.427-0.685,12.906,1.514,15.104
						C153.881,500.199,155.029,497.385,156.463,495.127z"/>
					<path fill="#BCBEC0" d="M213.194,506.112c-1.18,1.378-2.365,2.929-3.448,4.34c2.208,2.635,3.829,5.834,4.587,8.676
						C216.027,525.481,218.596,514.771,213.194,506.112z"/>
					<path fill="#BCBEC0" d="M189.014,519.08c-3.932,1.165-6.279,0.646-8.256,0.058c0.705,4.41,3.444,8.685,11.734,11.49
						C190.83,525.972,189.595,522.205,189.014,519.08z"/>
					<path fill="#BCBEC0" d="M158.086,502.423c-2.634,5.812-2.485,13.013,4.746,22.205c-1.043-4.658-0.652-8.7,0.537-12.047
						C160.259,510.182,158.988,506.373,158.086,502.423z"/>
				</g>
				<g>
					<path fill="#939598" d="M163.37,512.581c-1.056-0.814-1.886-1.8-2.575-2.889c-0.003,0.003-0.006,0.005-0.009,0.008
						c-2.38,2.738,2.047,14.928,2.047,14.928C161.79,519.97,162.18,515.928,163.37,512.581z"/>
					<path fill="#939598" d="M185.458,519.742c0.985,4.038,7.035,10.886,7.035,10.886c-1.663-4.656-2.897-8.423-3.479-11.548
						C187.652,519.483,186.49,519.676,185.458,519.742z"/>
					<path fill="#939598" d="M214.333,519.128c0.437,1.638,0.931,2.135,1.332,1.833c0.261-3.403-3.374-9.357-4.951-11.766
						c-0.329,0.426-0.653,0.848-0.968,1.257C211.954,513.087,213.575,516.286,214.333,519.128z"/>
					<path fill="#939598" d="M155.255,492.515c-2.234,2.495-2.923,11.113-2.923,11.113c1.549-3.429,2.696-6.243,4.131-8.501
						C156.193,494.152,155.766,493.293,155.255,492.515z"/>
				</g>
			</g>
			<g>
				<path fill="#FBB040" d="M303.233,461.703c0,0,13.807,19.178,25.3,19.178s14.247-8.628,27.247-6.69
					c21,4.938,19.75,25.188,15.5,29.438c-4.278-9.466-5.478-14.279-18.189-15.482c7.75,7.25,22.439,17.732,7.689,36.482
					c3.75-16.75-10.999-25.574-15-22.5c-10,3,7.5,21-14.66,28.5c5-14,6.16-20-2.84-24.5s-17,5.5-19,13s-5.224-8.777,4.889-17.389
					c10.111-8.611-22.885-33.611-22.885-33.611l4.996-8.5L303.233,461.703z"/>
				<path fill="#F7941E" d="M313.62,510.755c-0.161-5.873,9.16-9.127,16.66-7.627c7.49,1.498,4.445,15.219,4.438,15.253
					c0.928-5.85-0.657-9.362-6.438-12.253C322.561,503.269,317.248,506.267,313.62,510.755
					C313.62,510.755,313.62,510.755,313.62,510.755z"/>
				<path fill="#F7941E" d="M291.284,468.128l2.504-4.26c6.325,4.701,13.883,10.829,17.992,15.76c7.5,9,4.3,17.515,4.3,17.516
					C315.49,486.47,291.284,468.128,291.284,468.128z"/>
				<path fill="#F7941E" d="M360.28,486.628c8,0.5,8.016,10.516,8.016,10.516l0,0c-2.708-5.248-5.815-8.109-15.205-8.998
					C353.09,488.146,352.28,486.128,360.28,486.628z"/>
				<path fill="#F7941E" d="M345.78,502.128c-2.02,0.606-2.918,1.824-3.246,3.444c0.043-0.255-0.752-8.444,7.746-8.429
					c8.493,0.016,10.398,16.832,10.401,16.858C358.065,504.335,348.821,499.791,345.78,502.128z"/>
				<path fill="none" stroke="#F7941E" stroke-width="2" stroke-miterlimit="10" d="M365.28,483.628c0,0-9-8.5-27.75,0
					c-10.666,3.093-22.69-5.583-22.69-5.583s9.94,7.083,14.44,10.583s15-3,26.5,6.5"/>
				<path fill="none" stroke="#F7941E" stroke-width="2" stroke-miterlimit="10" d="M339.28,508.128c0,0-5.641-13.66-15.07-21.58
					s-20.189-19.42-20.189-19.42"/>
				<path fill="none" stroke="#F7941E" stroke-width="2" stroke-miterlimit="10" d="M319.278,499.628c0,0,4.932-13.08-4.741-21.28"
					/>
				<g>
					<path fill="#BCBEC0" d="M367.148,495.127c0.891-3.201,3.328-5.286,5.646-6.604c2.071,6.427,0.685,12.906-1.514,15.104
						C369.73,500.199,368.583,497.385,367.148,495.127z"/>
					<path fill="#BCBEC0" d="M310.418,506.112c1.18,1.378,2.365,2.929,3.448,4.34c-2.208,2.635-3.829,5.834-4.587,8.676
						C307.585,525.481,305.016,514.771,310.418,506.112z"/>
					<path fill="#BCBEC0" d="M334.598,519.08c3.932,1.165,6.279,0.646,8.256,0.058c-0.705,4.41-3.445,8.685-11.734,11.49
						C332.782,525.972,334.016,522.205,334.598,519.08z"/>
					<path fill="#BCBEC0" d="M365.525,502.423c2.634,5.812,2.486,13.013-4.745,22.205c1.043-4.658,0.652-8.7-0.537-12.047
						C363.353,510.182,364.625,506.373,365.525,502.423z"/>
				</g>
				<g>
					<path fill="#939598" d="M360.243,512.581c1.055-0.814,1.886-1.8,2.574-2.889c0.003,0.003,0.006,0.005,0.009,0.008
						c2.38,2.738-2.046,14.928-2.046,14.928C361.823,519.97,361.432,515.928,360.243,512.581z"/>
					<path fill="#939598" d="M338.155,519.742c-0.986,4.038-7.035,10.886-7.035,10.886c1.662-4.656,2.896-8.423,3.479-11.548
						C335.959,519.483,337.122,519.676,338.155,519.742z"/>
					<path fill="#939598" d="M309.28,519.128c-0.437,1.638-0.931,2.135-1.332,1.833c-0.261-3.403,3.374-9.357,4.951-11.766
						c0.329,0.426,0.653,0.848,0.968,1.257C311.659,513.087,310.038,516.286,309.28,519.128z"/>
					<path fill="#939598" d="M368.357,492.515c2.233,2.495,2.923,11.113,2.923,11.113c-1.55-3.429-2.696-6.243-4.132-8.501
						C367.419,494.152,367.846,493.293,368.357,492.515z"/>
				</g>
			</g>
			<g>
				<path d="M242.083,271.128c-7.25-1.75-15.75-6.518-28-5.25s-22.25,4.715-22.25,1.482s7.375-12.607,7.375-12.607
					s-13.509,7.724-12.759,14.241s6.194,5.518,11.954,4.884s13.117-3.5,16.148-3.5s6.781,0.5,11.031,1.5s5.5,3.25,9.25,3.25
					S242.083,271.128,242.083,271.128z"/>
				<path fill="#ED2224" d="M287.53,522.878c-6.381-9.343-8.594-22.959-9.356-29.505c3.556,7.496,30.008,5.755,21.606,5.755
					c-9,0-20.75-19.75-20.75-19.75s-2.979-5.25,2.521-9.75s12.729,17.5,22.729,1s-20.5-17-20.5-35.5s7.625-15.5,7.625-45
					s-12.125-30.5-14.125-61.5c5,7,12,9.5,25,8.5c-16.143-5.992-26.5-16.5-26-26c4.5,4,19.5,6.5,19.5,6.5l-19.5-21
					c-2.303-8.5,3.053-9,4.053-22c0.36-4.682,2.146-17.032,6.573-19.016s6.526-9.051,7.227-11.018s-2.55,5.117-6.3,5.534
					s-0.641-1.5-11.641-1.5s-3.859-5-17.323-6s-6.536,6-17.536,6s-20-1-25.655,0c-5.654,1-3.345,19,0,13.066
					c3.346-5.934,12.655-3.066,21.301,0s6.354,12.934-4.649,16.934c-11.003,4-9.068-4-9.068-4s-6.989,6.061,1.633,12.061
					s10.244-5.866,19.885-2.866s1.805,6.555,2.555,12.805l-19.5,21c0,0,15-2.5,19.5-6.5c0.5,9.5-9.858,20.008-26,26
					c13,1,20-1.5,25-8.5c-2,31-14.125,32-14.125,61.5s7.625,26.5,7.625,45s-30.5,19-20.5,35.5s17.229-5.5,22.729-1
					s2.521,9.75,2.521,9.75s-11.75,19.75-20.75,19.75c-8.401,0,18.05,1.741,21.605-5.755c-0.763,6.546-2.975,20.163-9.355,29.505
					c-10.191,14.921-38.25,31.75-38.25,31.75s32.75-6.25,35.25,4.75s12.051-2.229,19.411,3.271
					c6.396,4.779,0.431,15.953,7.282,18.146c0,0,1.42,0.393,2.03,0.354c0.61,0.038,2.03-0.354,2.03-0.354
					c6.852-2.193,0.887-13.367,7.282-18.146c7.36-5.5,16.911,7.729,19.411-3.271s35.25-4.75,35.25-4.75
					S297.721,537.799,287.53,522.878z"/>
				<path opacity="0.49" fill="#FBB040" d="M215.677,261.694c3.346-5.934,12.655-3.066,21.301,0s6.354,12.934-4.649,16.934
					c-11.003,4-9.068-4-9.068-4s-6.989,6.061,1.633,12.061s10.244-5.866,19.885-2.866c0,0-2.279-3.696-2.279-15.529
					c0-5.886,1.101-13.709,2.603-20.067c-0.958,0.25-2.17,0.401-3.769,0.401c-11,0-20-1-25.655,0
					C210.023,249.628,212.333,267.628,215.677,261.694z"/>
				<path fill="#BE1E2D" d="M227.833,317.628c0,0,18.25-8.375,21-13.25c-0.25,5.875-0.25,5.875-1.68,6.57
					C244.204,313.469,227.833,317.628,227.833,317.628z"/>
				<path fill="#BE1E2D" d="M227.833,336.128c0,0,19.78-7.891,20.14-12.258c-0.265,4.883-3.432,6.97-3.432,6.97
					s-8.458,7.171-16.708,6.479S227.833,336.128,227.833,336.128z"/>
				<path fill="#D32027" d="M245.833,334.201c0,0.001-0.001,0.001-0.001,0.002c-2.997,25.665-13.624,28.305-13.624,55.925
					c0,28.832,7.279,26.631,7.609,43.788c-0.001-0.019,0.002-0.034,0.002-0.054c-0.264-10.016,12.801-21.483,12.801-47.521
					S244.833,352.128,245.833,334.201z"/>
				<path fill="#D32027" d="M220.833,470.378c6.229-2.703,21.75-19.75,20.25-23.25c-1.076-2.512-1.134-4.626-3.014-4.888
					c-6.315,11.815-27.029,14.295-18.867,28.161C219.746,470.593,220.293,470.611,220.833,470.378z"/>
				<path fill="#D32027" d="M291.284,467.128c-3.799-1.5-7.791,1.899-7.791,1.899s0.006,0.01,0.007,0.011
					c3.899,0.457,8.604,9.211,14.413,7.616c0.994-0.453,1.777-0.857,2.174-1.086c0.044-0.032,0.088-0.066,0.131-0.1
					C301.397,474.511,295.033,468.608,291.284,467.128z"/>
				<path fill="#D32027" d="M252.62,512.378c-3.787-25.5-1.757-25.209-4.647-23.854c-1.153,0.54-1.688,3.467-2.875,7.481
					c-1.011,7.108-3.396,18.646-9.015,26.873c-10.191,14.921-38.75,26.75-38.25,31.75
					C205.333,557.378,256.407,537.878,252.62,512.378z"/>
				<path fill="#FBB040" d="M213.033,261.43c0.714-0.289,1.218-0.62,1.218-0.62s0.582-7.649,7.332-8.916s8.269-1.545,8.259-3.531
					l0,0c-5.806-0.205-10.636-0.359-14.164,0.265C211.813,249.312,211.669,257.933,213.033,261.43z"/>
				<g>
					<polygon fill="#771516" stroke="#771516" stroke-width="3" stroke-miterlimit="10" points="219.592,554.401 219.597,554.401 
						219.591,554.401 					"/>
					<path fill="#771516" stroke="#771516" stroke-width="3" stroke-miterlimit="10" d="M233.083,559.378
						c4.397-2.5,9.331-15,9.331-15s-6.764,7.937-19.073,8.98"/>
					<path fill="#771516" stroke="#771516" stroke-width="3" stroke-miterlimit="10" d="M299.963,553.476
						c-12.309-1.044-19.072-8.98-19.072-8.98s4.934,12.5,9.33,15"/>
				</g>
				<path fill="#771516" d="M263.833,581.128l0.004-0.332c1.865-0.597,2.776-1.862,3.25-3.479c-2.653-3.666-5.28-9.855-5.28-19.438
					c0,9.575-2.622,15.762-5.273,19.428c0.256,0.877,0.63,1.658,1.226,2.277c0.505,0.524,1.161,0.938,2.018,1.213l0.004,0.332
					c0.749,0.058,1.416,0.061,2.026,0.022C262.417,581.188,263.083,581.186,263.833,581.128z"/>
				<path fill="#EF3744" d="M285.333,378.295c0.25,9.583,0,27.626-1.25,31.354s-2.287,20.273-1.25,21.229
					c0.143,0.132,0.556-0.099,1.15-0.576c1.207-13.394,7.422-13.538,7.422-40.174c0-22.787-7.231-28.579-11.446-44.317l-2.126-1.683
					C277.833,344.128,285.083,368.712,285.333,378.295z"/>
				<path fill="#D32027" d="M275.742,248.621c-10.336-0.14-3.603-5.007-16.873-5.993c-10.634-0.79-8.554,3.408-12.625,5.209
					c0.124,1.603,0.089,2.541,0.089,2.541s1.5,8.75,4.5,13.25s6.5,6.25,9.125,6.375s-11.657-11.27-5.157-16.27
					S276.389,257.473,275.742,248.621z"/>
				<path fill="none" stroke="#771516" stroke-width="2" stroke-linecap="round" stroke-miterlimit="10" d="M256.437,256.898
					c-6.479-5.521,1.646-6.021,5.351-3.69"/>
				<path fill="#EF3744" d="M280.333,274.628c0.36-4.682,2.146-17.032,6.573-19.016s6.526-9.051,7.227-11.018s-2.55,5.117-6.3,5.534
					c-1.938,0.215-2.047-0.192-3.214-0.637c-0.004,0.004-15.222,18.599-11.536,28.581c3.686,9.982-1.12,13.968,2.689,13.637
					C276.251,287.209,279.567,284.582,280.333,274.628z"/>
				<path fill="#EF3744" d="M283.493,438.671c0,0,3.27,15.165,12.995,19.957c4.475,2.205,7.365,3.524,9.566,4.006
					c-2.198-8.593-19.111-12.001-21.887-24.043C283.894,438.574,283.656,438.59,283.493,438.671z"/>
				<path fill="#EF3744" d="M287.53,522.878c-5.33-7.805-7.747-18.576-8.845-25.732l-0.002-0.002c0,0,0.149,28.734,10.149,34.734
					s33.395,22.25,36.947,22.75C326.28,549.628,297.721,537.799,287.53,522.878z"/>
				<path fill="none" stroke="#771516" stroke-width="3" stroke-miterlimit="10" d="M244.778,283.823
					c9.641,3,1.805,6.555,2.555,12.805l-19.5,21c0,0,15-2.5,19.5-6.5c0.5,9.5-9.858,20.008-26,26c13,1,20-1.5,25-8.5
					c-2,31-14.125,32-14.125,61.5s7.625,26.5,7.625,45s-30.5,19-20.5,35.5s17.229-5.5,22.729-1s2.521,9.75,2.521,9.75
					s-11.75,19.75-20.75,19.75c-8.401,0,18.05,1.741,21.605-5.755c-0.763,6.546-2.975,20.163-9.355,29.505
					c-10.191,14.921-38.25,31.75-38.25,31.75s32.75-6.25,35.25,4.75s12.051-2.229,19.411,3.271
					c5.596,4.182,1.729,13.26,5.265,16.934c0.505,0.524,1.161,0.938,2.018,1.213c0,0,1.42,0.393,2.03,0.354
					c0.61,0.038,2.03-0.354,2.03-0.354c6.852-2.193,0.887-13.367,7.282-18.146c7.36-5.5,16.911,7.729,19.411-3.271
					s35.25-4.75,35.25-4.75s-28.059-16.829-38.25-31.75c-6.381-9.343-8.594-22.959-9.356-29.505
					c3.556,7.496,30.008,5.755,21.606,5.755c-9,0-20.75-19.75-20.75-19.75s-2.979-5.25,2.521-9.75s12.729,17.5,22.729,1
					s-20.5-17-20.5-35.5s7.625-15.5,7.625-45s-12.125-30.5-14.125-61.5c5,7,12,9.5,25,8.5c-16.143-5.992-26.5-16.5-26-26
					c4.5,4,19.5,6.5,19.5,6.5l-19.5-21c-2.303-8.5,3.053-9,4.053-22c0.36-4.682,2.146-17.032,6.573-19.016s6.526-9.051,7.227-11.018
					s-2.55,5.117-6.3,5.534s-0.641-1.5-11.641-1.5s-3.859-5-17.323-6c-11.508-0.854-8.128,4.131-13.768,5.599"/>
				<path fill="none" stroke="#C85B1A" stroke-width="3" stroke-miterlimit="10" d="M245.101,248.227
					c-0.958,0.25-2.17,0.401-3.769,0.401c-11,0-20-1-25.655,0c-5.654,1-3.345,19,0,13.066c3.346-5.934,12.655-3.066,21.301,0
					s6.354,12.934-4.649,16.934c-11.003,4-9.068-4-9.068-4s-6.989,6.061,1.633,12.061s10.244-5.866,19.885-2.866"/>
			</g>
		</g>
	</g>
	<g clip-path="url(#SVGID_8_)">
		<g>
			<g>
				<g>
					<path fill="#ED2224" d="M281.583,77.347c0,0,3.016-14.467,9.603-26.721c0.821-1.527,5.321-8.646,4.277-10.395
						c-1.043-1.748-3.235-2.918-6.888-1.692c2.15-1.713,5.48-2.515,8.923-2.515c3.446,0,4.108,1.515,5.48,0.417
						c1.369-1.093,0.813-2.719-0.879-4.662c-1.017-1.168-2.888-2.046-6.012-1.941c2.615-2.097,10.445-1.771,14.569,0.333
						c4.123,2.104,6.849,4.209,10.477,7.836C334.181,52,335.546,96.224,353.588,95.192c21.289-1.217,23.482-24.889,23.482-24.889
						l-0.54,66.842c0,0-7.915-6.262-12.924-6.262s-1.879,29.429-23.793,30.681c7.088-8.898,9.048-15.249,7.379-23.537
						c-4.966,18.483-15.117,23.693-18.762,23.615c6.373-12.602,6.999-26.422,6.999-26.422s-8.452,22.9-22.854,25.404
						c9.393-15.028,10.176-30.786,10.176-30.786s-9.056,24.662-29.898,24.837c17.322-13.984,18.366-17.532,18.991-29.429
						c-1.363,5.218-17.191,22.307-31.516,20.038c8.924-6.889,15.446-13.567,16.697-28.595c-2.087,5.219-12.68,20.716-25.984,17.428
						c13.148-8.766,15.437-23.817,15.437-23.817s-5.522,10.675-21.804,7.433c16.908-8.766,20.037-19.621,21.916-27.55
						c1.879-7.93,3.586-16.828,1.863-17.767C286.73,71.477,281.583,77.347,281.583,77.347z"/>
					<g>
						<path fill="#D32027" d="M339.814,161.564c14.087-4.54,13.021-32.27,20.834-31.554c2.198,0.102-5.098,20.375-6.775,23.237
							C352.196,156.11,346.858,161.095,339.814,161.564z"/>
						<path fill="#D32027" d="M345.762,123.682c0,0-6.731,27.55-16.976,37.236c9.41-5.05,10.334-5.601,13.402-11.93
							C347.266,137.319,345.762,123.682,345.762,123.682z"/>
						<path fill="#D32027" d="M312.576,160.625c16.594-16.749,23.897-42.891,23.897-42.891s-2.181,21.022-5.915,27.026
							C326.821,150.763,323.96,153.694,312.576,160.625z"/>
						<path fill="#D32027" d="M292.853,154.676c20.819-6.261,31.307-39.239,31.307-39.239s-2.044,16.435-8.771,24.681
							C308.662,148.364,298.799,156.085,292.853,154.676z"/>
						<path fill="#D32027" d="M280.329,145.285c14.342-3.287,29.742-22.699,33.813-36.317c0,0-1.88,18.64-10.645,25.6
							C294.418,146.379,280.329,145.285,280.329,145.285z"/>
						<path fill="#D32027" d="M271.042,134.118c14.609-2.922,27.237-35.829,27.237-35.829s-2.608,20.384-8.401,25.393
							C284.086,128.69,279.599,136.727,271.042,134.118z"/>
					</g>
					<path fill="none" stroke="#771515" stroke-width="1.8784" stroke-miterlimit="10" d="M281.583,77.347
						c0,0,3.016-14.467,9.603-26.721c0.821-1.527,5.321-8.646,4.277-10.395c-1.043-1.748-3.235-2.918-6.888-1.692
						c2.15-1.713,5.48-2.515,8.923-2.515c3.446,0,4.108,1.515,5.48,0.417c1.369-1.093,0.813-2.719-0.879-4.662
						c-1.017-1.168-2.888-2.046-6.012-1.941c2.615-2.097,10.445-1.771,14.569,0.333c4.123,2.104,6.849,4.209,10.477,7.836
						C334.181,52,335.546,96.224,353.588,95.192c21.289-1.217,23.482-24.889,23.482-24.889l-0.54,66.842
						c0,0-7.915-6.262-12.924-6.262s-1.879,29.429-23.793,30.681c7.088-8.898,9.048-15.249,7.379-23.537
						c-4.966,18.483-15.117,23.693-18.762,23.615c6.373-12.602,6.999-26.422,6.999-26.422s-8.452,22.9-22.854,25.404
						c9.393-15.028,10.176-30.786,10.176-30.786s-9.056,24.662-29.898,24.837c17.322-13.984,18.366-17.532,18.991-29.429
						c-1.363,5.218-17.191,22.307-31.516,20.038c8.924-6.889,15.446-13.567,16.697-28.595c-2.087,5.219-12.68,20.716-25.984,17.428
						c13.148-8.766,15.437-23.817,15.437-23.817s-5.522,10.675-21.804,7.433c16.908-8.766,20.037-19.621,21.916-27.55
						c1.879-7.93,3.586-16.828,1.863-17.767C286.73,71.477,281.583,77.347,281.583,77.347z"/>
					<g>
						<path fill="#771515" d="M297.093,116.757c2.609-9.833,1.186-18.468,1.186-18.468c-10.435,34.055-27.237,35.829-27.237,35.829
							C284.159,137.358,294.801,122.182,297.093,116.757z"/>
						<path fill="#771515" d="M280.329,145.285c14.516,7.769,31.516-20.038,31.516-20.038s2.506-7.722,2.298-16.28
							C313.816,116.528,298.905,143.197,280.329,145.285z"/>
						<path fill="#771515" d="M292.853,154.676c14.191-2.086,30.262-24.211,31.307-39.239c-0.28,10.353,0,10.524-1.408,14.402
							C319.359,139.857,304.123,156.137,292.853,154.676z"/>
						<path fill="#771515" d="M312.576,160.625c18.263-13.67,23.063-38.508,23.897-42.891c0.627,8.14,0,13.149,0,13.149
							S329.586,156.346,312.576,160.625z"/>
						<path fill="#771515" d="M328.431,161.643c10.685-7.811,15.973-23.247,17.331-37.961c2.191,9.915,1.431,14.346,1.431,14.346
							S339.38,160.677,328.431,161.643z"/>
						<path fill="#771515" d="M339.814,161.564c16.488-3.757,16.658-31.554,20.834-31.554c4.174,0,2.466,0.487,1.861,1.453
							C361.905,132.428,357.762,160.938,339.814,161.564z"/>
					</g>
					<g>
						<path fill="#771515" d="M315.699,34.382c11.013,9.104,12.118,61.436,27.246,61.436c3.586,0,9.852,0.159,11.687,0.208
							C338.351,90.297,332.481,40.624,315.699,34.382z"/>
					</g>
					<path fill="#EF3744" d="M290.556,65.262c0,0,9.32-26.513,17.949-27.884c8.63-1.372,7.272,4.592,7.081,5.635
						c-0.193,1.043-2.493-1.669-6.456,1.878C305.167,48.439,290.556,65.262,290.556,65.262z"/>
					<g>
						<path fill="#EF3744" d="M315.81,56.788c0,0-0.486,46.753,25.951,50.719C320.611,98.949,315.81,56.788,315.81,56.788z"/>
						<path fill="#771515" d="M315.81,56.788c0,0-0.486,46.753,25.951,50.719C309.966,105.002,315.81,56.788,315.81,56.788z"/>
					</g>
				</g>
				<g>
					<path fill="#ED2224" d="M488.315,77.347c0,0-3.016-14.467-9.604-26.721c-0.82-1.527-5.322-8.646-4.276-10.395
						c1.042-1.748,3.234-2.918,6.887-1.692c-2.15-1.713-5.479-2.515-8.923-2.515c-3.447,0-4.109,1.515-5.48,0.417
						c-1.368-1.093-0.813-2.719,0.879-4.662c1.016-1.168,2.889-2.046,6.01-1.941c-2.613-2.097-10.443-1.771-14.566,0.333
						c-4.124,2.104-6.851,4.209-10.478,7.836C435.714,52,434.349,96.224,416.307,95.192c-21.288-1.217-23.479-24.889-23.479-24.889
						l0.539,66.842c0,0,7.913-6.262,12.923-6.262c5.009,0,1.878,29.429,23.794,30.681c-7.089-8.898-9.05-15.249-7.378-23.537
						c4.963,18.483,15.117,23.693,18.761,23.615c-6.374-12.602-7.001-26.422-7.001-26.422s8.455,22.9,22.855,25.404
						c-9.393-15.028-10.176-30.786-10.176-30.786s9.055,24.662,29.899,24.837c-17.323-13.984-18.365-17.532-18.993-29.429
						c1.364,5.218,17.193,22.307,31.516,20.038c-8.923-6.889-15.443-13.567-16.696-28.595c2.088,5.219,12.679,20.716,25.984,17.428
						c-13.148-8.766-15.437-23.817-15.437-23.817s5.522,10.675,21.803,7.433c-16.906-8.766-20.035-19.621-21.916-27.55
						c-1.878-7.93-3.584-16.828-1.862-17.767C483.165,71.477,488.315,77.347,488.315,77.347z"/>
					<g>
						<path fill="#D32027" d="M430.083,161.564c-14.089-4.54-13.023-32.27-20.834-31.554c-2.201,0.102,5.097,20.375,6.773,23.237
							C417.7,156.11,423.039,161.095,430.083,161.564z"/>
						<path fill="#D32027" d="M424.135,123.682c0,0,6.73,27.55,16.976,37.236c-9.412-5.05-10.336-5.601-13.402-11.93
							C422.629,137.319,424.135,123.682,424.135,123.682z"/>
						<path fill="#D32027" d="M457.321,160.625c-16.594-16.749-23.898-42.891-23.898-42.891s2.181,21.022,5.917,27.026
							C443.076,150.763,445.936,153.694,457.321,160.625z"/>
						<path fill="#D32027" d="M477.044,154.676c-20.819-6.261-31.308-39.239-31.308-39.239s2.043,16.435,8.771,24.681
							C461.235,148.364,471.095,156.085,477.044,154.676z"/>
						<path fill="#D32027" d="M489.567,145.285c-14.341-3.287-29.742-22.699-33.811-36.317c0,0,1.877,18.64,10.644,25.6
							C475.479,146.379,489.567,145.285,489.567,145.285z"/>
						<path fill="#D32027" d="M498.855,134.118c-14.609-2.922-27.237-35.829-27.237-35.829s2.609,20.384,8.4,25.393
							C485.81,128.69,490.297,136.727,498.855,134.118z"/>
					</g>
					<path fill="none" stroke="#771515" stroke-width="1.8784" stroke-miterlimit="10" d="M488.315,77.347
						c0,0-3.016-14.467-9.604-26.721c-0.82-1.527-5.322-8.646-4.276-10.395c1.042-1.748,3.234-2.918,6.887-1.692
						c-2.15-1.713-5.479-2.515-8.923-2.515c-3.447,0-4.109,1.515-5.48,0.417c-1.368-1.093-0.813-2.719,0.879-4.662
						c1.016-1.168,2.889-2.046,6.01-1.941c-2.613-2.097-10.443-1.771-14.566,0.333c-4.124,2.104-6.851,4.209-10.478,7.836
						C435.714,52,434.349,96.224,416.307,95.192c-21.288-1.217-23.479-24.889-23.479-24.889l0.539,66.842
						c0,0,7.913-6.262,12.923-6.262c5.009,0,1.878,29.429,23.794,30.681c-7.089-8.898-9.05-15.249-7.378-23.537
						c4.963,18.483,15.117,23.693,18.761,23.615c-6.374-12.602-7.001-26.422-7.001-26.422s8.455,22.9,22.855,25.404
						c-9.393-15.028-10.176-30.786-10.176-30.786s9.055,24.662,29.899,24.837c-17.323-13.984-18.365-17.532-18.993-29.429
						c1.364,5.218,17.193,22.307,31.516,20.038c-8.923-6.889-15.443-13.567-16.696-28.595c2.088,5.219,12.679,20.716,25.984,17.428
						c-13.148-8.766-15.437-23.817-15.437-23.817s5.522,10.675,21.803,7.433c-16.906-8.766-20.035-19.621-21.916-27.55
						c-1.878-7.93-3.584-16.828-1.862-17.767C483.165,71.477,488.315,77.347,488.315,77.347z"/>
					<g>
						<path fill="#771515" d="M472.801,116.757c-2.607-9.833-1.184-18.468-1.184-18.468c10.437,34.055,27.237,35.829,27.237,35.829
							C485.739,137.358,475.096,122.182,472.801,116.757z"/>
						<path fill="#771515" d="M489.567,145.285c-14.516,7.769-31.516-20.038-31.516-20.038s-2.503-7.722-2.295-16.28
							C456.081,116.528,470.993,143.197,489.567,145.285z"/>
						<path fill="#771515" d="M477.044,154.676c-14.192-2.086-30.264-24.211-31.308-39.239c0.279,10.353,0,10.524,1.408,14.402
							C450.539,139.857,465.774,156.137,477.044,154.676z"/>
						<path fill="#771515" d="M457.321,160.625c-18.263-13.67-23.063-38.508-23.898-42.891c-0.626,8.14,0,13.149,0,13.149
							S440.311,156.346,457.321,160.625z"/>
						<path fill="#771515" d="M441.466,161.643c-10.685-7.811-15.975-23.247-17.331-37.961c-2.191,9.915-1.43,14.346-1.43,14.346
							S430.518,160.677,441.466,161.643z"/>
						<path fill="#771515" d="M430.083,161.564c-16.488-3.757-16.659-31.554-20.834-31.554s-2.466,0.487-1.861,1.453
							C407.992,132.428,412.133,160.938,430.083,161.564z"/>
					</g>
					<g>
						<path fill="#771515" d="M454.197,34.382c-11.011,9.104-12.116,61.436-27.244,61.436c-3.587,0-9.853,0.159-11.688,0.208
							C431.544,90.297,437.416,40.624,454.197,34.382z"/>
					</g>
					<path fill="#EF3744" d="M479.34,65.262c0,0-9.319-26.513-17.95-27.884c-8.629-1.372-7.271,4.592-7.079,5.635
						c0.191,1.043,2.491-1.669,6.456,1.878C464.73,48.439,479.34,65.262,479.34,65.262z"/>
					<g>
						<path fill="#EF3744" d="M454.085,56.788c0,0,0.487,46.753-25.951,50.719C449.286,98.949,454.085,56.788,454.085,56.788z"/>
						<path fill="#771515" d="M454.085,56.788c0,0,0.487,46.753-25.951,50.719C459.929,105.002,454.085,56.788,454.085,56.788z"/>
					</g>
				</g>
			</g>
			<g>
				<g>
					<path fill="#FBB040" d="M359.009,159.732c0,0-8.646,12.008-15.841,12.008c-7.197,0-8.921-5.402-17.062-4.189
						c-13.149,3.091-12.367,15.771-9.706,18.433c2.679-5.927,3.431-8.941,11.39-9.694c-4.853,4.54-14.051,11.104-4.814,22.843
						c-2.349-10.488,6.887-16.013,9.392-14.088c6.262,1.878-4.695,13.149,9.18,17.846c-3.131-8.766-3.856-12.523,1.777-15.341
						c5.637-2.818,10.646,3.443,11.898,8.14c1.252,4.696,3.271-5.496-3.062-10.888c-6.331-5.392,14.329-21.045,14.329-21.045
						l-3.127-5.322L359.009,159.732z"/>
					<path fill="#F7941E" d="M352.505,190.446c0.102-3.677-5.735-5.715-10.432-4.775c-4.69,0.938-2.783,9.529-2.778,9.55
						c-0.582-3.663,0.412-5.862,4.029-7.672C346.906,185.759,350.235,187.636,352.505,190.446
						C352.505,190.446,352.505,190.446,352.505,190.446z"/>
					<path fill="#F7941E" d="M366.491,163.756l-1.567-2.667c-3.961,2.943-8.693,6.78-11.266,9.868
						c-4.696,5.635-2.692,10.967-2.692,10.968C351.334,175.24,366.491,163.756,366.491,163.756z"/>
					<path fill="#F7941E" d="M323.29,175.339c-5.009,0.313-5.02,6.584-5.02,6.584l0,0c1.695-3.287,3.642-5.078,9.521-5.634
						C327.791,176.29,328.298,175.026,323.29,175.339z"/>
					<path fill="#F7941E" d="M332.368,185.044c1.265,0.38,1.828,1.142,2.033,2.157c-0.027-0.16,0.471-5.287-4.851-5.277
						c-5.318,0.01-6.511,10.539-6.512,10.556C324.676,186.427,330.463,183.582,332.368,185.044z"/>
					<path fill="none" stroke="#F7941E" stroke-width="1.2523" stroke-miterlimit="10" d="M320.158,173.461
						c0,0,5.636-5.323,17.377,0c6.677,1.937,14.208-3.496,14.208-3.496s-6.226,4.435-9.044,6.626
						c-2.816,2.192-9.392-1.878-16.592,4.07"/>
					<path fill="none" stroke="#F7941E" stroke-width="1.2523" stroke-miterlimit="10" d="M336.438,188.802
						c0,0,3.532-8.553,9.437-13.513c5.904-4.959,12.642-12.16,12.642-12.16"/>
					<path fill="none" stroke="#F7941E" stroke-width="1.2523" stroke-miterlimit="10" d="M348.963,183.479
						c0,0-3.089-8.19,2.969-13.325"/>
					<g>
						<path fill="#BCBEC0" d="M318.989,180.661c-0.559-2.005-2.084-3.31-3.536-4.135c-1.295,4.024-0.427,8.082,0.948,9.458
							C317.372,183.837,318.089,182.074,318.989,180.661z"/>
						<path fill="#BCBEC0" d="M354.509,187.54c-0.738,0.862-1.48,1.833-2.159,2.717c1.384,1.65,2.398,3.653,2.873,5.432
							C356.284,199.667,357.893,192.96,354.509,187.54z"/>
						<path fill="#BCBEC0" d="M339.37,195.659c-2.462,0.729-3.932,0.404-5.169,0.036c0.441,2.761,2.157,5.438,7.347,7.195
							C340.506,199.975,339.735,197.616,339.37,195.659z"/>
						<path fill="#BCBEC0" d="M320.004,185.229c-1.649,3.639-1.555,8.147,2.972,13.903c-0.653-2.917-0.408-5.448,0.337-7.543
							C321.366,190.087,320.57,187.703,320.004,185.229z"/>
					</g>
					<g>
						<path fill="#939598" d="M323.313,191.589c-0.66-0.509-1.18-1.126-1.613-1.808c-0.002,0.002-0.003,0.003-0.005,0.005
							c-1.489,1.714,1.281,9.347,1.281,9.347C322.323,196.216,322.568,193.685,323.313,191.589z"/>
						<path fill="#939598" d="M337.142,196.074c0.618,2.529,4.405,6.816,4.405,6.816c-1.041-2.916-1.813-5.274-2.178-7.231
							C338.517,195.912,337.79,196.032,337.142,196.074z"/>
						<path fill="#939598" d="M355.223,195.689c0.273,1.025,0.583,1.336,0.834,1.148c0.164-2.131-2.113-5.859-3.101-7.367
							c-0.205,0.267-0.408,0.531-0.606,0.787C353.734,191.907,354.749,193.91,355.223,195.689z"/>
						<path fill="#939598" d="M318.233,179.025c-1.399,1.563-1.832,6.959-1.832,6.959c0.971-2.147,1.688-3.91,2.588-5.323
							C318.82,180.051,318.552,179.513,318.233,179.025z"/>
					</g>
				</g>
				<g>
					<path fill="#FBB040" d="M410.887,159.732c0,0,8.646,12.008,15.842,12.008c7.197,0,8.921-5.402,17.062-4.189
						c13.149,3.091,12.365,15.771,9.705,18.433c-2.679-5.927-3.43-8.941-11.39-9.694c4.853,4.54,14.05,11.104,4.814,22.843
						c2.348-10.488-6.886-16.013-9.392-14.088c-6.263,1.878,4.695,13.149-9.181,17.846c3.131-8.766,3.858-12.523-1.778-15.341
						c-5.635-2.818-10.644,3.443-11.896,8.14c-1.252,4.696-3.269-5.496,3.063-10.888c6.33-5.392-14.33-21.045-14.33-21.045
						l3.129-5.322L410.887,159.732z"/>
					<path fill="#F7941E" d="M417.391,190.446c-0.101-3.677,5.735-5.715,10.433-4.775c4.688,0.938,2.783,9.529,2.777,9.55
						c0.58-3.663-0.411-5.862-4.031-7.672C422.99,185.759,419.665,187.636,417.391,190.446
						C417.391,190.446,417.391,190.446,417.391,190.446z"/>
					<path fill="#F7941E" d="M403.406,163.756l1.567-2.667c3.961,2.943,8.692,6.78,11.266,9.868
						c4.696,5.635,2.693,10.967,2.693,10.968C418.563,175.24,403.406,163.756,403.406,163.756z"/>
					<path fill="#F7941E" d="M446.608,175.339c5.01,0.313,5.018,6.584,5.018,6.584l0,0c-1.693-3.287-3.641-5.078-9.52-5.634
						C442.106,176.29,441.598,175.026,446.608,175.339z"/>
					<path fill="#F7941E" d="M437.529,185.044c-1.265,0.38-1.827,1.142-2.033,2.157c0.027-0.16-0.472-5.287,4.851-5.277
						c5.318,0.01,6.51,10.539,6.512,10.556C445.22,186.427,439.432,183.582,437.529,185.044z"/>
					<path fill="none" stroke="#F7941E" stroke-width="1.2523" stroke-miterlimit="10" d="M449.738,173.461
						c0,0-5.635-5.323-17.376,0c-6.679,1.937-14.206-3.496-14.206-3.496s6.223,4.435,9.041,6.626
						c2.817,2.192,9.392-1.878,16.594,4.07"/>
					<path fill="none" stroke="#F7941E" stroke-width="1.2523" stroke-miterlimit="10" d="M433.458,188.802
						c0,0-3.531-8.553-9.437-13.513c-5.904-4.959-12.642-12.16-12.642-12.16"/>
					<path fill="none" stroke="#F7941E" stroke-width="1.2523" stroke-miterlimit="10" d="M420.934,183.479
						c0,0,3.088-8.19-2.968-13.325"/>
					<g>
						<path fill="#BCBEC0" d="M450.909,180.661c0.558-2.005,2.083-3.31,3.534-4.135c1.297,4.024,0.429,8.082-0.947,9.458
							C452.526,183.837,451.807,182.074,450.909,180.661z"/>
						<path fill="#BCBEC0" d="M415.386,187.54c0.739,0.862,1.481,1.833,2.16,2.717c-1.383,1.65-2.398,3.653-2.873,5.432
							C413.613,199.667,412.005,192.96,415.386,187.54z"/>
						<path fill="#BCBEC0" d="M430.527,195.659c2.461,0.729,3.933,0.404,5.17,0.036c-0.441,2.761-2.157,5.438-7.349,7.195
							C429.389,199.975,430.164,197.616,430.527,195.659z"/>
						<path fill="#BCBEC0" d="M449.893,185.229c1.647,3.639,1.557,8.147-2.973,13.903c0.653-2.917,0.409-5.448-0.336-7.543
							C448.534,190.087,449.329,187.703,449.893,185.229z"/>
					</g>
					<g>
						<path fill="#939598" d="M446.584,191.589c0.66-0.509,1.182-1.126,1.611-1.808c0.003,0.002,0.004,0.003,0.006,0.005
							c1.491,1.714-1.281,9.347-1.281,9.347C447.574,196.216,447.33,193.685,446.584,191.589z"/>
						<path fill="#939598" d="M432.753,196.074c-0.617,2.529-4.405,6.816-4.405,6.816c1.041-2.916,1.815-5.274,2.179-7.231
							C431.379,195.912,432.107,196.032,432.753,196.074z"/>
						<path fill="#939598" d="M414.673,195.689c-0.271,1.025-0.581,1.336-0.833,1.148c-0.163-2.131,2.112-5.859,3.099-7.367
							c0.207,0.267,0.41,0.531,0.607,0.787C416.164,191.907,415.148,193.91,414.673,195.689z"/>
						<path fill="#939598" d="M451.666,179.025c1.398,1.563,1.83,6.959,1.83,6.959c-0.97-2.147-1.688-3.91-2.587-5.323
							C451.079,180.051,451.346,179.513,451.666,179.025z"/>
					</g>
				</g>
				<g>
					<path d="M372.599,40.404c-4.541-1.097-9.862-4.081-17.534-3.287c-7.668,0.793-13.931,2.952-13.931,0.928
						s4.618-7.894,4.618-7.894s-8.458,4.836-7.988,8.917c0.469,4.081,3.878,3.455,7.483,3.058c3.606-0.396,8.214-2.191,10.111-2.191
						c1.898,0,4.247,0.313,6.908,0.939c2.661,0.626,3.443,2.036,5.791,2.036C370.407,42.909,372.599,40.404,372.599,40.404z"/>
					<path fill="#ED2224" d="M401.055,198.038c-3.996-5.85-5.381-14.376-5.857-18.475c2.226,4.694,18.789,3.604,13.527,3.604
						c-5.635,0-12.992-12.367-12.992-12.367s-1.865-3.287,1.578-6.104c3.444-2.818,7.97,10.958,14.231,0.626
						s-12.836-10.645-12.836-22.229c0-11.583,4.774-9.705,4.774-28.176s-7.592-19.098-8.844-38.508
						c3.131,4.383,7.514,5.948,15.653,5.322c-10.108-3.752-16.593-10.331-16.279-16.28c2.817,2.505,12.21,4.07,12.21,4.07
						l-12.21-13.149c-1.442-5.322,1.911-5.635,2.537-13.775c0.226-2.932,1.344-10.665,4.116-11.907
						c2.771-1.242,4.086-5.667,4.525-6.898c0.438-1.231-1.598,3.204-3.945,3.465s-0.4-0.939-7.288-0.939s-2.417-3.13-10.848-3.756
						c-8.432-0.626-4.092,3.756-10.979,3.756c-6.889,0-12.523-0.626-16.064,0c-3.54,0.627-2.095,11.897,0,8.182
						c2.096-3.716,7.924-1.92,13.338,0c5.412,1.919,3.979,8.099-2.912,10.603c-6.89,2.505-5.678-2.504-5.678-2.504
						s-4.376,3.795,1.022,7.552c5.399,3.757,6.415-3.673,12.45-1.794c6.038,1.878,1.13,4.104,1.601,8.017L363.675,69.52
						c0,0,9.393-1.564,12.211-4.07c0.313,5.949-6.173,12.528-16.28,16.28c8.14,0.626,12.523-0.939,15.653-5.322
						c-1.252,19.411-8.845,20.037-8.845,38.508s4.774,16.593,4.774,28.176c0,11.584-19.097,11.897-12.837,22.229
						c6.263,10.332,10.79-3.444,14.234-0.626s1.577,6.104,1.577,6.104s-7.357,12.367-12.993,12.367
						c-5.26,0,11.304,1.091,13.529-3.604c-0.477,4.099-1.863,12.625-5.858,18.475c-6.382,9.342-23.95,19.88-23.95,19.88
						s20.506-3.913,22.072,2.974c1.564,6.888,7.545-1.396,12.154,2.048c4.004,2.993,0.27,9.989,4.56,11.362
						c0,0,0.89,0.246,1.271,0.222c0.382,0.024,1.271-0.222,1.271-0.222c4.29-1.373,0.555-8.37,4.561-11.362
						c4.606-3.444,10.587,4.839,12.153-2.048c1.564-6.887,22.071-2.974,22.071-2.974S407.436,207.379,401.055,198.038z"/>
					<path opacity="0.49" fill="#FBB040" d="M356.065,34.497c2.096-3.716,7.924-1.92,13.338,0c5.412,1.919,3.979,8.099-2.912,10.603
						c-6.89,2.505-5.678-2.504-5.678-2.504s-4.376,3.795,1.022,7.552c5.399,3.757,6.415-3.673,12.45-1.794
						c0,0-1.427-2.314-1.427-9.724c0-3.685,0.69-8.584,1.63-12.565c-0.601,0.156-1.358,0.25-2.359,0.25
						c-6.889,0-12.523-0.626-16.064,0C352.525,26.942,353.97,38.213,356.065,34.497z"/>
					<path fill="#BE1E2D" d="M363.675,69.52c0,0,11.428-5.244,13.149-8.296c-0.156,3.678-0.156,3.678-1.053,4.114
						C373.926,66.916,363.675,69.52,363.675,69.52z"/>
					<path fill="#BE1E2D" d="M363.675,81.104c0,0,12.387-4.941,12.61-7.675c-0.166,3.057-2.147,4.364-2.147,4.364
						s-5.297,4.49-10.463,4.057C358.51,81.417,363.675,81.104,363.675,81.104z"/>
					<path fill="#D32027" d="M374.946,79.897c0,0,0,0.001,0,0.001c-1.877,16.07-8.531,17.724-8.531,35.018
						c0,18.053,4.559,16.674,4.766,27.418c0-0.012,0.002-0.022,0.002-0.034c-0.166-6.271,8.015-13.452,8.015-29.755
						S374.32,91.122,374.946,79.897z"/>
					<path fill="#D32027" d="M359.292,165.164c3.902-1.692,13.618-12.366,12.68-14.558c-0.674-1.573-0.71-2.896-1.887-3.061
						c-3.955,7.398-16.925,8.951-11.814,17.633C358.613,165.299,358.955,165.311,359.292,165.164z"/>
					<path fill="#D32027" d="M403.406,163.129c-2.379-0.939-4.879,1.189-4.879,1.189s0.004,0.006,0.005,0.006
						c2.442,0.287,5.388,5.768,9.023,4.769c0.623-0.284,1.114-0.537,1.363-0.68c0.027-0.021,0.054-0.042,0.08-0.063
						C409.738,167.752,405.752,164.057,403.406,163.129z"/>
					<path fill="#D32027" d="M379.197,191.463c-2.372-15.967-1.101-15.785-2.911-14.937c-0.723,0.338-1.056,2.171-1.8,4.685
						c-0.633,4.451-2.126,11.674-5.645,16.827c-6.382,9.342-24.263,16.75-23.95,19.88
						C349.587,219.639,381.568,207.429,379.197,191.463z"/>
					<path fill="#FBB040" d="M354.41,34.332c0.446-0.181,0.762-0.388,0.762-0.388s0.365-4.79,4.591-5.583
						c4.227-0.793,5.178-0.968,5.172-2.211l0,0c-3.636-0.127-6.661-0.225-8.869,0.166C353.645,26.744,353.555,32.142,354.41,34.332z
						"/>
					<g>
						<polygon fill="#771516" stroke="#771516" stroke-width="1.8784" stroke-miterlimit="10" points="358.516,217.775 
							358.519,217.775 358.516,217.775 						"/>
						<path fill="#771516" stroke="#771516" stroke-width="1.8784" stroke-miterlimit="10" d="M366.963,220.892
							c2.754-1.565,5.844-9.393,5.844-9.393s-4.235,4.97-11.944,5.624"/>
						<path fill="#771516" stroke="#771516" stroke-width="1.8784" stroke-miterlimit="10" d="M408.84,217.196
							c-7.706-0.654-11.942-5.623-11.942-5.623s3.09,7.827,5.843,9.392"/>
					</g>
					<path fill="#771516" d="M386.217,234.51l0.003-0.208c1.167-0.374,1.738-1.166,2.034-2.179c-1.66-2.295-3.306-6.17-3.306-12.171
						c0,5.996-1.643,9.87-3.301,12.165c0.159,0.549,0.394,1.038,0.766,1.425c0.316,0.329,0.727,0.588,1.264,0.76l0.002,0.208
						c0.47,0.036,0.888,0.038,1.27,0.014C385.331,234.548,385.749,234.546,386.217,234.51z"/>
					<path fill="#EF3744" d="M399.679,107.507c0.156,6,0,17.298-0.782,19.632c-0.783,2.334-1.433,12.694-0.783,13.292
						c0.09,0.082,0.349-0.062,0.721-0.361c0.755-8.387,4.646-8.477,4.646-25.155c0-14.269-4.526-17.895-7.166-27.75l-1.331-1.053
						C394.984,86.113,399.523,101.506,399.679,107.507z"/>
					<path fill="#D32027" d="M393.675,26.312c-6.473-0.087-2.256-3.136-10.566-3.752c-6.658-0.495-5.355,2.134-7.904,3.261
						c0.076,1.004,0.055,1.591,0.055,1.591s0.939,5.478,2.818,8.296c1.878,2.817,4.069,3.914,5.713,3.992
						c1.645,0.078-7.298-7.057-3.228-10.188C384.631,26.381,394.08,31.854,393.675,26.312z"/>
					<path fill="none" stroke="#771516" stroke-width="1.2523" stroke-linecap="round" stroke-miterlimit="10" d="M381.587,31.495
						c-4.059-3.458,1.029-3.77,3.351-2.311"/>
					<path fill="#EF3744" d="M396.548,42.596c0.226-2.932,1.344-10.665,4.116-11.907c2.771-1.242,4.086-5.667,4.525-6.898
						c0.438-1.231-1.598,3.204-3.945,3.465c-1.214,0.135-1.281-0.121-2.013-0.399c-0.002,0.003-9.529,11.646-7.223,17.896
						c2.309,6.25-0.701,8.746,1.684,8.539C393.994,50.474,396.069,48.828,396.548,42.596z"/>
					<path fill="#EF3744" d="M398.527,145.312c0,0,2.049,9.495,8.138,12.495c2.802,1.381,4.612,2.207,5.99,2.508
						c-1.377-5.379-11.967-7.514-13.704-15.054C398.779,145.251,398.629,145.26,398.527,145.312z"/>
					<path fill="#EF3744" d="M401.055,198.038c-3.337-4.887-4.85-11.632-5.537-16.113l-0.001,0c0,0,0.092,17.992,6.354,21.749
						c6.262,3.756,20.91,13.932,23.135,14.245C425.319,214.787,407.436,207.379,401.055,198.038z"/>
					<path fill="none" stroke="#771516" stroke-width="1.8784" stroke-miterlimit="10" d="M374.286,48.354
						c6.038,1.878,1.13,4.104,1.601,8.017L363.675,69.52c0,0,9.393-1.564,12.211-4.07c0.313,5.949-6.173,12.528-16.28,16.28
						c8.14,0.626,12.523-0.939,15.653-5.322c-1.252,19.411-8.845,20.037-8.845,38.508s4.774,16.593,4.774,28.176
						c0,11.584-19.097,11.897-12.837,22.229c6.263,10.332,10.79-3.444,14.234-0.626s1.577,6.104,1.577,6.104
						s-7.357,12.367-12.993,12.367c-5.26,0,11.304,1.091,13.529-3.604c-0.477,4.099-1.863,12.625-5.858,18.475
						c-6.382,9.342-23.95,19.88-23.95,19.88s20.506-3.913,22.072,2.974c1.564,6.888,7.545-1.396,12.154,2.048
						c3.504,2.618,1.083,8.303,3.296,10.603c0.316,0.329,0.727,0.588,1.264,0.76c0,0,0.89,0.246,1.271,0.222
						c0.382,0.024,1.271-0.222,1.271-0.222c4.29-1.373,0.555-8.37,4.561-11.362c4.606-3.444,10.587,4.839,12.153-2.048
						c1.564-6.887,22.071-2.974,22.071-2.974s-17.569-10.538-23.95-19.88c-3.996-5.85-5.381-14.376-5.857-18.475
						c2.226,4.694,18.789,3.604,13.527,3.604c-5.635,0-12.992-12.367-12.992-12.367s-1.865-3.287,1.578-6.104
						c3.444-2.818,7.97,10.958,14.231,0.626s-12.836-10.645-12.836-22.229c0-11.583,4.774-9.705,4.774-28.176
						s-7.592-19.098-8.844-38.508c3.131,4.383,7.514,5.948,15.653,5.322c-10.108-3.752-16.593-10.331-16.279-16.28
						c2.817,2.505,12.21,4.07,12.21,4.07l-12.21-13.149c-1.442-5.322,1.911-5.635,2.537-13.775
						c0.226-2.932,1.344-10.665,4.116-11.907c2.771-1.242,4.086-5.667,4.525-6.898c0.438-1.231-1.598,3.204-3.945,3.465
						s-0.4-0.939-7.288-0.939s-2.417-3.13-10.848-3.756c-7.205-0.535-5.09,2.586-8.62,3.506"/>
					<path fill="none" stroke="#C85B1A" stroke-width="1.8784" stroke-miterlimit="10" d="M374.489,26.065
						c-0.601,0.156-1.358,0.25-2.359,0.25c-6.889,0-12.523-0.626-16.064,0c-3.54,0.627-2.095,11.897,0,8.182
						c2.096-3.716,7.924-1.92,13.338,0c5.412,1.919,3.979,8.099-2.912,10.603c-6.89,2.505-5.678-2.504-5.678-2.504
						s-4.376,3.795,1.022,7.552c5.399,3.757,6.415-3.673,12.45-1.794"/>
				</g>
			</g>
		</g>
		<g>
			<g>
				<g>
					<g>
						<path fill="#ED2224" d="M35.296,77.347c0,0,3.017-14.467,9.604-26.721c0.821-1.527,5.32-8.646,4.277-10.395
							c-1.044-1.748-3.236-2.918-6.889-1.692c2.151-1.713,5.48-2.515,8.924-2.515s4.107,1.515,5.48,0.417
							c1.367-1.093,0.813-2.719-0.879-4.662c-1.017-1.168-2.889-2.046-6.011-1.941c2.614-2.097,10.443-1.771,14.567,0.333
							c4.124,2.104,6.851,4.209,10.478,7.836C87.897,52,89.262,96.224,107.304,95.192c21.288-1.217,23.48-24.889,23.48-24.889
							l-0.539,66.842c0,0-7.915-6.262-12.923-6.262s-1.878,29.429-23.793,30.681c7.087-8.898,9.048-15.249,7.378-23.537
							c-4.964,18.483-15.118,23.693-18.762,23.615c6.375-12.602,7-26.422,7-26.422s-8.452,22.9-22.854,25.404
							c9.393-15.028,10.175-30.786,10.175-30.786s-9.055,24.662-29.898,24.837c17.323-13.984,18.366-17.532,18.992-29.429
							c-1.363,5.218-17.192,22.307-31.516,20.038c8.922-6.889,15.445-13.567,16.698-28.595
							c-2.088,5.219-12.679,20.716-25.985,17.428c13.149-8.766,15.438-23.817,15.438-23.817s-5.523,10.675-21.804,7.433
							c16.906-8.766,20.037-19.621,21.915-27.55c1.878-7.93,3.584-16.828,1.863-17.767C40.447,71.477,35.296,77.347,35.296,77.347z"
							/>
						<g>
							<path fill="#D32027" d="M93.529,161.564c14.088-4.54,13.021-32.27,20.834-31.554c2.2,0.102-5.097,20.375-6.774,23.237
								C105.911,156.11,100.573,161.095,93.529,161.564z"/>
							<path fill="#D32027" d="M99.477,123.682c0,0-6.731,27.55-16.976,37.236c9.411-5.05,10.335-5.601,13.403-11.93
								C100.982,137.319,99.477,123.682,99.477,123.682z"/>
							<path fill="#D32027" d="M66.291,160.625c16.592-16.749,23.898-42.891,23.898-42.891s-2.181,21.022-5.917,27.026
								C80.536,150.763,77.676,153.694,66.291,160.625z"/>
							<path fill="#D32027" d="M46.568,154.676c20.819-6.261,31.307-39.239,31.307-39.239s-2.043,16.435-8.771,24.681
								C62.376,148.364,52.515,156.085,46.568,154.676z"/>
							<path fill="#D32027" d="M34.044,145.285c14.34-3.287,29.743-22.699,33.813-36.317c0,0-1.878,18.64-10.645,25.6
								C48.133,146.379,34.044,145.285,34.044,145.285z"/>
							<path fill="#D32027" d="M24.756,134.118c14.61-2.922,27.238-35.829,27.238-35.829s-2.609,20.384-8.401,25.393
								S33.314,136.727,24.756,134.118z"/>
						</g>
						<path fill="none" stroke="#771515" stroke-width="1.8784" stroke-miterlimit="10" d="M35.296,77.347
							c0,0,3.017-14.467,9.604-26.721c0.821-1.527,5.32-8.646,4.277-10.395c-1.044-1.748-3.236-2.918-6.889-1.692
							c2.151-1.713,5.48-2.515,8.924-2.515s4.107,1.515,5.48,0.417c1.367-1.093,0.813-2.719-0.879-4.662
							c-1.017-1.168-2.889-2.046-6.011-1.941c2.614-2.097,10.443-1.771,14.567,0.333c4.124,2.104,6.851,4.209,10.478,7.836
							C87.897,52,89.262,96.224,107.304,95.192c21.288-1.217,23.48-24.889,23.48-24.889l-0.539,66.842c0,0-7.915-6.262-12.923-6.262
							s-1.878,29.429-23.793,30.681c7.087-8.898,9.048-15.249,7.378-23.537c-4.964,18.483-15.118,23.693-18.762,23.615
							c6.375-12.602,7-26.422,7-26.422s-8.452,22.9-22.854,25.404c9.393-15.028,10.175-30.786,10.175-30.786
							s-9.055,24.662-29.898,24.837c17.323-13.984,18.366-17.532,18.992-29.429c-1.363,5.218-17.192,22.307-31.516,20.038
							c8.922-6.889,15.445-13.567,16.698-28.595c-2.088,5.219-12.679,20.716-25.985,17.428
							c13.149-8.766,15.438-23.817,15.438-23.817s-5.523,10.675-21.804,7.433c16.906-8.766,20.037-19.621,21.915-27.55
							c1.878-7.93,3.584-16.828,1.863-17.767C40.447,71.477,35.296,77.347,35.296,77.347z"/>
						<g>
							<path fill="#771515" d="M50.809,116.757c2.608-9.833,1.185-18.468,1.185-18.468c-10.436,34.055-27.238,35.829-27.238,35.829
								C37.874,137.358,48.516,122.182,50.809,116.757z"/>
							<path fill="#771515" d="M34.044,145.285c14.515,7.769,31.516-20.038,31.516-20.038s2.505-7.722,2.296-16.28
								C67.531,116.528,52.62,143.197,34.044,145.285z"/>
							<path fill="#771515" d="M46.568,154.676c14.193-2.086,30.263-24.211,31.307-39.239c-0.28,10.353,0.001,10.524-1.409,14.402
								C73.074,139.857,57.838,156.137,46.568,154.676z"/>
							<path fill="#771515" d="M66.291,160.625c18.263-13.67,23.063-38.508,23.898-42.891c0.626,8.14,0,13.149,0,13.149
								S83.301,156.346,66.291,160.625z"/>
							<path fill="#771515" d="M82.145,161.643c10.685-7.811,15.975-23.247,17.332-37.961c2.191,9.915,1.43,14.346,1.43,14.346
								S93.094,160.677,82.145,161.643z"/>
							<path fill="#771515" d="M93.529,161.564c16.487-3.757,16.659-31.554,20.834-31.554c4.173,0,2.466,0.487,1.861,1.453
								C115.62,132.428,111.477,160.938,93.529,161.564z"/>
						</g>
						<g>
							<path fill="#771515" d="M69.415,34.382c11.011,9.104,12.116,61.436,27.244,61.436c3.587,0,9.852,0.159,11.689,0.208
								C92.067,90.297,86.196,40.624,69.415,34.382z"/>
						</g>
						<path fill="#EF3744" d="M44.271,65.262c0,0,9.32-26.513,17.95-27.884c8.63-1.372,7.271,4.592,7.08,5.635
							c-0.191,1.043-2.492-1.669-6.455,1.878C58.882,48.439,44.271,65.262,44.271,65.262z"/>
						<g>
							<path fill="#EF3744" d="M69.526,56.788c0,0-0.488,46.753,25.95,50.719C74.326,98.949,69.526,56.788,69.526,56.788z"/>
							<path fill="#771515" d="M69.526,56.788c0,0-0.488,46.753,25.95,50.719C63.682,105.002,69.526,56.788,69.526,56.788z"/>
						</g>
					</g>
					<g>
						<path fill="#ED2224" d="M242.03,77.347c0,0-3.016-14.467-9.603-26.721c-0.821-1.527-5.321-8.646-4.277-10.395
							c1.043-1.748,3.235-2.918,6.887-1.692c-2.151-1.713-5.479-2.515-8.923-2.515c-3.445,0-4.107,1.515-5.48,0.417
							c-1.368-1.093-0.813-2.719,0.879-4.662c1.017-1.168,2.89-2.046,6.011-1.941c-2.614-2.097-10.443-1.771-14.568,0.333
							c-4.123,2.104-6.85,4.209-10.477,7.836C189.429,52,188.065,96.224,170.023,95.192c-21.29-1.217-23.481-24.889-23.481-24.889
							l0.539,66.842c0,0,7.914-6.262,12.924-6.262c5.009,0,1.878,29.429,23.794,30.681c-7.089-8.898-9.049-15.249-7.378-23.537
							c4.964,18.483,15.117,23.693,18.761,23.615c-6.374-12.602-7-26.422-7-26.422s8.453,22.9,22.855,25.404
							c-9.393-15.028-10.176-30.786-10.176-30.786s9.055,24.662,29.899,24.837c-17.324-13.984-18.368-17.532-18.993-29.429
							c1.363,5.218,17.193,22.307,31.516,20.038c-8.922-6.889-15.444-13.567-16.697-28.595c2.087,5.219,12.68,20.716,25.984,17.428
							c-13.148-8.766-15.436-23.817-15.436-23.817s5.522,10.675,21.804,7.433c-16.907-8.766-20.037-19.621-21.916-27.55
							c-1.878-7.93-3.584-16.828-1.862-17.767C236.88,71.477,242.03,77.347,242.03,77.347z"/>
						<g>
							<path fill="#D32027" d="M183.799,161.564c-14.088-4.54-13.023-32.27-20.834-31.554c-2.202,0.102,5.096,20.375,6.774,23.237
								C171.416,156.11,176.754,161.095,183.799,161.564z"/>
							<path fill="#D32027" d="M177.85,123.682c0,0,6.73,27.55,16.976,37.236c-9.411-5.05-10.335-5.601-13.403-11.93
								C176.345,137.319,177.85,123.682,177.85,123.682z"/>
							<path fill="#D32027" d="M211.037,160.625c-16.594-16.749-23.899-42.891-23.899-42.891s2.181,21.022,5.917,27.026
								C196.792,150.763,199.65,153.694,211.037,160.625z"/>
							<path fill="#D32027" d="M230.76,154.676c-20.82-6.261-31.307-39.239-31.307-39.239s2.043,16.435,8.77,24.681
								C214.951,148.364,224.811,156.085,230.76,154.676z"/>
							<path fill="#D32027" d="M243.282,145.285c-14.34-3.287-29.742-22.699-33.812-36.317c0,0,1.878,18.64,10.644,25.6
								C229.194,146.379,243.282,145.285,243.282,145.285z"/>
							<path fill="#D32027" d="M252.569,134.118c-14.608-2.922-27.236-35.829-27.236-35.829s2.609,20.384,8.401,25.393
								C239.525,128.69,244.013,136.727,252.569,134.118z"/>
						</g>
						<path fill="none" stroke="#771515" stroke-width="1.8784" stroke-miterlimit="10" d="M242.03,77.347
							c0,0-3.016-14.467-9.603-26.721c-0.821-1.527-5.321-8.646-4.277-10.395c1.043-1.748,3.235-2.918,6.887-1.692
							c-2.151-1.713-5.479-2.515-8.923-2.515c-3.445,0-4.107,1.515-5.48,0.417c-1.368-1.093-0.813-2.719,0.879-4.662
							c1.017-1.168,2.89-2.046,6.011-1.941c-2.614-2.097-10.443-1.771-14.568,0.333c-4.123,2.104-6.85,4.209-10.477,7.836
							C189.429,52,188.065,96.224,170.023,95.192c-21.29-1.217-23.481-24.889-23.481-24.889l0.539,66.842
							c0,0,7.914-6.262,12.924-6.262c5.009,0,1.878,29.429,23.794,30.681c-7.089-8.898-9.049-15.249-7.378-23.537
							c4.964,18.483,15.117,23.693,18.761,23.615c-6.374-12.602-7-26.422-7-26.422s8.453,22.9,22.855,25.404
							c-9.393-15.028-10.176-30.786-10.176-30.786s9.055,24.662,29.899,24.837c-17.324-13.984-18.368-17.532-18.993-29.429
							c1.363,5.218,17.193,22.307,31.516,20.038c-8.922-6.889-15.444-13.567-16.697-28.595c2.087,5.219,12.68,20.716,25.984,17.428
							c-13.148-8.766-15.436-23.817-15.436-23.817s5.522,10.675,21.804,7.433c-16.907-8.766-20.037-19.621-21.916-27.55
							c-1.878-7.93-3.584-16.828-1.862-17.767C236.88,71.477,242.03,77.347,242.03,77.347z"/>
						<g>
							<path fill="#771515" d="M226.518,116.757c-2.609-9.833-1.186-18.468-1.186-18.468c10.437,34.055,27.236,35.829,27.236,35.829
								C239.453,137.358,228.812,122.182,226.518,116.757z"/>
							<path fill="#771515" d="M243.282,145.285c-14.515,7.769-31.516-20.038-31.516-20.038s-2.504-7.722-2.296-16.28
								C209.796,116.528,224.706,143.197,243.282,145.285z"/>
							<path fill="#771515" d="M230.76,154.676c-14.193-2.086-30.263-24.211-31.307-39.239c0.279,10.353-0.001,10.524,1.408,14.402
								C204.253,139.857,219.489,156.137,230.76,154.676z"/>
							<path fill="#771515" d="M211.037,160.625c-18.264-13.67-23.064-38.508-23.899-42.891c-0.625,8.14,0,13.149,0,13.149
								S194.026,156.346,211.037,160.625z"/>
							<path fill="#771515" d="M195.181,161.643c-10.685-7.811-15.975-23.247-17.331-37.961c-2.192,9.915-1.43,14.346-1.43,14.346
								S184.232,160.677,195.181,161.643z"/>
							<path fill="#771515" d="M183.799,161.564c-16.489-3.757-16.661-31.554-20.834-31.554c-4.174,0-2.465,0.487-1.863,1.453
								C161.708,132.428,165.849,160.938,183.799,161.564z"/>
						</g>
						<g>
							<path fill="#771515" d="M207.912,34.382c-11.012,9.104-12.117,61.436-27.244,61.436c-3.587,0-9.853,0.159-11.688,0.208
								C185.259,90.297,191.131,40.624,207.912,34.382z"/>
						</g>
						<path fill="#EF3744" d="M233.056,65.262c0,0-9.32-26.513-17.95-27.884c-8.629-1.372-7.271,4.592-7.08,5.635
							c0.193,1.043,2.492-1.669,6.456,1.878C218.445,48.439,233.056,65.262,233.056,65.262z"/>
						<g>
							<path fill="#EF3744" d="M207.8,56.788c0,0,0.488,46.753-25.95,50.719C203.001,98.949,207.8,56.788,207.8,56.788z"/>
							<path fill="#771515" d="M207.8,56.788c0,0,0.488,46.753-25.95,50.719C213.645,105.002,207.8,56.788,207.8,56.788z"/>
						</g>
					</g>
				</g>
				<g>
					<g>
						<path fill="#FBB040" d="M112.724,159.732c0,0-8.645,12.008-15.842,12.008c-7.196,0-8.92-5.402-17.06-4.189
							c-13.149,3.091-12.367,15.771-9.706,18.433c2.679-5.927,3.43-8.941,11.39-9.694c-4.853,4.54-14.051,11.104-4.815,22.843
							c-2.349-10.488,6.888-16.013,9.392-14.088c6.261,1.878-4.695,13.149,9.179,17.846c-3.13-8.766-3.857-12.523,1.778-15.341
							c5.636-2.818,10.645,3.443,11.897,8.14s3.27-5.496-3.062-10.888c-6.332-5.392,14.329-21.045,14.329-21.045l-3.128-5.322
							L112.724,159.732z"/>
						<path fill="#F7941E" d="M106.221,190.446c0.101-3.677-5.735-5.715-10.432-4.775c-4.691,0.938-2.784,9.529-2.779,9.55
							c-0.581-3.663,0.412-5.862,4.031-7.672C100.622,185.759,103.949,187.636,106.221,190.446
							C106.221,190.446,106.221,190.446,106.221,190.446z"/>
						<path fill="#F7941E" d="M120.206,163.756l-1.567-2.667c-3.96,2.943-8.693,6.78-11.266,9.868
							c-4.696,5.635-2.692,10.967-2.692,10.968C105.049,175.24,120.206,163.756,120.206,163.756z"/>
						<path fill="#F7941E" d="M77.004,175.339c-5.009,0.313-5.018,6.584-5.018,6.584l0,0c1.694-3.287,3.641-5.078,9.52-5.634
							C81.506,176.29,82.014,175.026,77.004,175.339z"/>
						<path fill="#F7941E" d="M86.083,185.044c1.265,0.38,1.827,1.142,2.033,2.157c-0.028-0.16,0.47-5.287-4.85-5.277
							c-5.318,0.01-6.511,10.539-6.514,10.556C78.392,186.427,84.18,183.582,86.083,185.044z"/>
						<path fill="none" stroke="#F7941E" stroke-width="1.2523" stroke-miterlimit="10" d="M73.874,173.461
							c0,0,5.635-5.323,17.375,0c6.679,1.937,14.208-3.496,14.208-3.496s-6.224,4.435-9.042,6.626
							c-2.818,2.192-9.392-1.878-16.593,4.07"/>
						<path fill="none" stroke="#F7941E" stroke-width="1.2523" stroke-miterlimit="10" d="M90.154,188.802
							c0,0,3.532-8.553,9.436-13.513c5.904-4.959,12.642-12.16,12.642-12.16"/>
						<path fill="none" stroke="#F7941E" stroke-width="1.2523" stroke-miterlimit="10" d="M102.677,183.479
							c0,0-3.087-8.19,2.97-13.325"/>
						<g>
							<path fill="#BCBEC0" d="M72.703,180.661c-0.558-2.005-2.083-3.31-3.534-4.135c-1.297,4.024-0.428,8.082,0.948,9.458
								C71.086,183.837,71.806,182.074,72.703,180.661z"/>
							<path fill="#BCBEC0" d="M108.225,187.54c-0.739,0.862-1.481,1.833-2.16,2.717c1.383,1.65,2.398,3.653,2.873,5.432
								C109.999,199.667,111.608,192.96,108.225,187.54z"/>
							<path fill="#BCBEC0" d="M93.085,195.659c-2.461,0.729-3.932,0.404-5.168,0.036c0.441,2.761,2.156,5.438,7.346,7.195
								C94.221,199.975,93.449,197.616,93.085,195.659z"/>
							<path fill="#BCBEC0" d="M73.72,185.229c-1.649,3.639-1.556,8.147,2.972,13.903c-0.653-2.917-0.408-5.448,0.337-7.543
								C75.081,190.087,74.284,187.703,73.72,185.229z"/>
						</g>
						<g>
							<path fill="#939598" d="M77.028,191.589c-0.662-0.509-1.182-1.126-1.613-1.808c-0.001,0.002-0.003,0.003-0.006,0.005
								c-1.489,1.714,1.282,9.347,1.282,9.347C76.038,196.216,76.284,193.685,77.028,191.589z"/>
							<path fill="#939598" d="M90.858,196.074c0.617,2.529,4.404,6.816,4.404,6.816c-1.042-2.916-1.814-5.274-2.178-7.231
								C92.232,195.912,91.504,196.032,90.858,196.074z"/>
							<path fill="#939598" d="M108.938,195.689c0.273,1.025,0.582,1.336,0.833,1.148c0.163-2.131-2.112-5.859-3.1-7.367
								c-0.207,0.267-0.409,0.531-0.606,0.787C107.448,191.907,108.463,193.91,108.938,195.689z"/>
							<path fill="#939598" d="M71.947,179.025c-1.398,1.563-1.83,6.959-1.83,6.959c0.97-2.147,1.689-3.91,2.586-5.323
								C72.534,180.051,72.267,179.513,71.947,179.025z"/>
						</g>
					</g>
					<g>
						<path fill="#FBB040" d="M164.603,159.732c0,0,8.645,12.008,15.842,12.008c7.196,0,8.921-5.402,17.06-4.189
							c13.149,3.091,12.367,15.771,9.706,18.433c-2.679-5.927-3.43-8.941-11.39-9.694c4.853,4.54,14.051,11.104,4.815,22.843
							c2.349-10.488-6.888-16.013-9.392-14.088c-6.261,1.878,4.696,13.149-9.179,17.846c3.13-8.766,3.857-12.523-1.778-15.341
							c-5.635-2.818-10.645,3.443-11.897,8.14c-1.252,4.696-3.271-5.496,3.061-10.888c6.332-5.392-14.329-21.045-14.329-21.045
							l3.128-5.322L164.603,159.732z"/>
						<path fill="#F7941E" d="M171.107,190.446c-0.101-3.677,5.735-5.715,10.432-4.775c4.69,0.938,2.783,9.529,2.779,9.55
							c0.581-3.663-0.412-5.862-4.031-7.672C176.705,185.759,173.379,187.636,171.107,190.446
							C171.107,190.446,171.107,190.446,171.107,190.446z"/>
						<path fill="#F7941E" d="M157.122,163.756l1.567-2.667c3.96,2.943,8.693,6.78,11.266,9.868
							c4.697,5.635,2.692,10.967,2.692,10.968C172.278,175.24,157.122,163.756,157.122,163.756z"/>
						<path fill="#F7941E" d="M200.323,175.339c5.009,0.313,5.02,6.584,5.02,6.584l0,0c-1.696-3.287-3.642-5.078-9.521-5.634
							C195.821,176.29,195.314,175.026,200.323,175.339z"/>
						<path fill="#F7941E" d="M191.244,185.044c-1.265,0.38-1.827,1.142-2.032,2.157c0.026-0.16-0.471-5.287,4.85-5.277
							c5.318,0.01,6.512,10.539,6.514,10.556C198.936,186.427,193.147,183.582,191.244,185.044z"/>
						<path fill="none" stroke="#F7941E" stroke-width="1.2523" stroke-miterlimit="10" d="M203.454,173.461
							c0,0-5.635-5.323-17.375,0c-6.679,1.937-14.208-3.496-14.208-3.496s6.224,4.435,9.042,6.626
							c2.818,2.192,9.392-1.878,16.593,4.07"/>
						<path fill="none" stroke="#F7941E" stroke-width="1.2523" stroke-miterlimit="10" d="M187.173,188.802
							c0,0-3.532-8.553-9.435-13.513c-5.905-4.959-12.642-12.16-12.642-12.16"/>
						<path fill="none" stroke="#F7941E" stroke-width="1.2523" stroke-miterlimit="10" d="M174.649,183.479
							c0,0,3.089-8.19-2.968-13.325"/>
						<g>
							<path fill="#BCBEC0" d="M204.623,180.661c0.558-2.005,2.084-3.31,3.536-4.135c1.296,4.024,0.428,8.082-0.948,9.458
								C206.24,183.837,205.522,182.074,204.623,180.661z"/>
							<path fill="#BCBEC0" d="M169.103,187.54c0.738,0.862,1.481,1.833,2.159,2.717c-1.382,1.65-2.398,3.653-2.873,5.432
								C167.328,199.667,165.719,192.96,169.103,187.54z"/>
							<path fill="#BCBEC0" d="M184.242,195.659c2.462,0.729,3.932,0.404,5.17,0.036c-0.442,2.761-2.158,5.438-7.348,7.195
								C183.105,199.975,183.878,197.616,184.242,195.659z"/>
							<path fill="#BCBEC0" d="M203.607,185.229c1.649,3.639,1.558,8.147-2.971,13.903c0.653-2.917,0.408-5.448-0.336-7.543
								C202.247,190.087,203.044,187.703,203.607,185.229z"/>
						</g>
						<g>
							<path fill="#939598" d="M200.3,191.589c0.661-0.509,1.181-1.126,1.612-1.808c0.002,0.002,0.003,0.003,0.005,0.005
								c1.49,1.714-1.281,9.347-1.281,9.347C201.289,196.216,201.044,193.685,200.3,191.589z"/>
							<path fill="#939598" d="M186.469,196.074c-0.617,2.529-4.404,6.816-4.404,6.816c1.041-2.916,1.814-5.274,2.178-7.231
								C185.095,195.912,185.822,196.032,186.469,196.074z"/>
							<path fill="#939598" d="M168.389,195.689c-0.273,1.025-0.583,1.336-0.834,1.148c-0.163-2.131,2.112-5.859,3.101-7.367
								c0.206,0.267,0.409,0.531,0.606,0.787C169.879,191.907,168.864,193.91,168.389,195.689z"/>
							<path fill="#939598" d="M205.38,179.025c1.398,1.563,1.83,6.959,1.83,6.959c-0.971-2.147-1.688-3.91-2.587-5.323
								C204.793,180.051,205.061,179.513,205.38,179.025z"/>
						</g>
					</g>
					<g>
						<path d="M126.314,40.404c-4.54-1.097-9.862-4.081-17.532-3.287c-7.67,0.793-13.932,2.952-13.932,0.928
							s4.618-7.894,4.618-7.894s-8.459,4.836-7.989,8.917c0.469,4.081,3.877,3.455,7.485,3.058c3.606-0.396,8.212-2.191,10.11-2.191
							c1.899,0,4.246,0.313,6.908,0.939c2.661,0.626,3.443,2.036,5.792,2.036C124.122,42.909,126.314,40.404,126.314,40.404z"/>
						<path fill="#ED2224" d="M154.771,198.038c-3.995-5.85-5.381-14.376-5.859-18.475c2.227,4.694,18.789,3.604,13.53,3.604
							c-5.636,0-12.994-12.367-12.994-12.367s-1.865-3.287,1.579-6.104c3.444-2.818,7.971,10.958,14.232,0.626
							s-12.836-10.645-12.836-22.229c0-11.583,4.775-9.705,4.775-28.176s-7.592-19.098-8.844-38.508
							c3.13,4.383,7.514,5.948,15.653,5.322c-10.107-3.752-16.593-10.331-16.28-16.28c2.818,2.505,12.21,4.07,12.21,4.07
							l-12.21-13.149c-1.442-5.322,1.912-5.635,2.538-13.775c0.225-2.932,1.343-10.665,4.116-11.907
							c2.771-1.242,4.086-5.667,4.525-6.898c0.437-1.231-1.597,3.204-3.944,3.465c-2.349,0.261-0.402-0.939-7.29-0.939
							s-2.417-3.13-10.848-3.756c-8.43-0.626-4.092,3.756-10.98,3.756s-12.523-0.626-16.064,0c-3.54,0.627-2.093,11.897,0,8.182
							c2.096-3.716,7.925-1.92,13.338,0c5.414,1.919,3.979,8.099-2.912,10.603c-6.889,2.505-5.678-2.504-5.678-2.504
							s-4.376,3.795,1.022,7.552c5.399,3.757,6.414-3.673,12.45-1.794c6.037,1.878,1.13,4.104,1.601,8.017l-12.21,13.149
							c0,0,9.392-1.564,12.21-4.07c0.313,5.949-6.173,12.528-16.281,16.28c8.141,0.626,12.523-0.939,15.654-5.322
							c-1.252,19.411-8.844,20.037-8.844,38.508s4.773,16.593,4.773,28.176c0,11.584-19.097,11.897-12.836,22.229
							c6.262,10.332,10.788-3.444,14.232-0.626c3.444,2.818,1.578,6.104,1.578,6.104s-7.357,12.367-12.993,12.367
							c-5.26,0,11.302,1.091,13.528-3.604c-0.478,4.099-1.863,12.625-5.858,18.475c-6.381,9.342-23.951,19.88-23.951,19.88
							s20.507-3.913,22.073,2.974c1.564,6.888,7.545-1.396,12.154,2.048c4.004,2.993,0.27,9.989,4.56,11.362
							c0,0,0.889,0.246,1.272,0.222c0.381,0.024,1.271-0.222,1.271-0.222c4.29-1.373,0.555-8.37,4.559-11.362
							c4.609-3.444,10.59,4.839,12.155-2.048c1.565-6.887,22.071-2.974,22.071-2.974S161.152,207.379,154.771,198.038z"/>
						<path opacity="0.49" fill="#FBB040" d="M109.779,34.497c2.096-3.716,7.925-1.92,13.338,0
							c5.414,1.919,3.979,8.099-2.912,10.603c-6.889,2.505-5.678-2.504-5.678-2.504s-4.376,3.795,1.022,7.552
							c5.399,3.757,6.414-3.673,12.45-1.794c0,0-1.426-2.314-1.426-9.724c0-3.685,0.689-8.584,1.629-12.565
							c-0.601,0.156-1.359,0.25-2.36,0.25c-6.888,0-12.523-0.626-16.064,0C106.24,26.942,107.686,38.213,109.779,34.497z"/>
						<path fill="#BE1E2D" d="M117.391,69.52c0,0,11.427-5.244,13.149-8.296c-0.157,3.678-0.157,3.678-1.052,4.114
							C127.642,66.916,117.391,69.52,117.391,69.52z"/>
						<path fill="#BE1E2D" d="M117.391,81.104c0,0,12.385-4.941,12.61-7.675c-0.166,3.057-2.149,4.364-2.149,4.364
							s-5.295,4.49-10.461,4.057C112.226,81.417,117.391,81.104,117.391,81.104z"/>
						<path fill="#D32027" d="M128.662,79.897c0,0,0,0.001,0,0.001c-1.876,16.07-8.53,17.724-8.53,35.018
							c0,18.053,4.557,16.674,4.763,27.418c0-0.012,0.001-0.022,0.001-0.034c-0.164-6.271,8.016-13.452,8.016-29.755
							S128.036,91.122,128.662,79.897z"/>
						<path fill="#D32027" d="M113.008,165.164c3.901-1.692,13.619-12.366,12.68-14.558c-0.675-1.573-0.71-2.896-1.888-3.061
							c-3.954,7.398-16.923,8.951-11.813,17.633C112.328,165.299,112.67,165.311,113.008,165.164z"/>
						<path fill="#D32027" d="M157.122,163.129c-2.379-0.939-4.879,1.189-4.879,1.189s0.004,0.006,0.004,0.006
							c2.441,0.287,5.387,5.768,9.025,4.769c0.623-0.284,1.112-0.537,1.361-0.68c0.027-0.021,0.054-0.042,0.082-0.063
							C163.454,167.752,159.468,164.057,157.122,163.129z"/>
						<path fill="#D32027" d="M132.911,191.463c-2.371-15.967-1.1-15.785-2.91-14.937c-0.722,0.338-1.058,2.171-1.8,4.685
							c-0.632,4.451-2.126,11.674-5.644,16.827c-6.381,9.342-24.264,16.75-23.951,19.88
							C103.302,219.639,135.283,207.429,132.911,191.463z"/>
						<path fill="#FBB040" d="M108.125,34.332c0.446-0.181,0.763-0.388,0.763-0.388s0.363-4.79,4.59-5.583
							c4.226-0.793,5.176-0.968,5.171-2.211l0,0c-3.636-0.127-6.66-0.225-8.87,0.166C107.361,26.744,107.271,32.142,108.125,34.332z
							"/>
						<g>
							<polygon fill="#771516" stroke="#771516" stroke-width="1.8784" stroke-miterlimit="10" points="112.232,217.775 
								112.235,217.775 112.231,217.775 							"/>
							<path fill="#771516" stroke="#771516" stroke-width="1.8784" stroke-miterlimit="10" d="M120.679,220.892
								c2.753-1.565,5.842-9.393,5.842-9.393s-4.235,4.97-11.943,5.624"/>
							<path fill="#771516" stroke="#771516" stroke-width="1.8784" stroke-miterlimit="10" d="M162.556,217.196
								c-7.708-0.654-11.942-5.623-11.942-5.623s3.088,7.827,5.842,9.392"/>
						</g>
						<path fill="#771516" d="M139.933,234.51l0.003-0.208c1.167-0.374,1.738-1.166,2.034-2.179
							c-1.661-2.295-3.305-6.17-3.305-12.171c0,5.996-1.643,9.87-3.303,12.165c0.16,0.549,0.394,1.038,0.768,1.425
							c0.316,0.329,0.727,0.588,1.263,0.76l0.002,0.208c0.469,0.036,0.887,0.038,1.27,0.014
							C139.046,234.548,139.463,234.546,139.933,234.51z"/>
						<path fill="#EF3744" d="M153.395,107.507c0.157,6,0,17.298-0.783,19.632c-0.783,2.334-1.432,12.694-0.783,13.292
							c0.089,0.082,0.348-0.062,0.721-0.361c0.755-8.387,4.647-8.477,4.647-25.155c0-14.269-4.528-17.895-7.167-27.75l-1.332-1.053
							C148.698,86.113,153.238,101.506,153.395,107.507z"/>
						<path fill="#D32027" d="M147.39,26.312c-6.473-0.087-2.255-3.136-10.566-3.752c-6.658-0.495-5.355,2.134-7.905,3.261
							c0.078,1.004,0.056,1.591,0.056,1.591s0.939,5.478,2.817,8.296c1.879,2.817,4.07,3.914,5.714,3.992
							c1.644,0.078-7.3-7.057-3.23-10.188S147.794,31.854,147.39,26.312z"/>
						<path fill="none" stroke="#771516" stroke-width="1.2523" stroke-linecap="round" stroke-miterlimit="10" d="M135.302,31.495
							c-4.057-3.458,1.03-3.77,3.351-2.311"/>
						<path fill="#EF3744" d="M150.264,42.596c0.225-2.932,1.343-10.665,4.116-11.907c2.771-1.242,4.086-5.667,4.525-6.898
							c0.437-1.231-1.597,3.204-3.944,3.465c-1.214,0.135-1.283-0.121-2.014-0.399c-0.002,0.003-9.531,11.646-7.223,17.896
							c2.308,6.25-0.702,8.746,1.683,8.539C147.708,50.474,149.785,48.828,150.264,42.596z"/>
						<path fill="#EF3744" d="M152.243,145.312c0,0,2.047,9.495,8.137,12.495c2.802,1.381,4.612,2.207,5.99,2.508
							c-1.376-5.379-11.967-7.514-13.705-15.054C152.495,145.251,152.345,145.26,152.243,145.312z"/>
						<path fill="#EF3744" d="M154.771,198.038c-3.338-4.887-4.852-11.632-5.539-16.113l-0.001,0c0,0,0.094,17.992,6.355,21.749
							c6.262,3.756,20.911,13.932,23.135,14.245C179.034,214.787,161.152,207.379,154.771,198.038z"/>
						<path fill="none" stroke="#771516" stroke-width="1.8784" stroke-miterlimit="10" d="M128,48.354
							c6.037,1.878,1.13,4.104,1.601,8.017l-12.21,13.149c0,0,9.392-1.564,12.21-4.07c0.313,5.949-6.173,12.528-16.281,16.28
							c8.141,0.626,12.523-0.939,15.654-5.322c-1.252,19.411-8.844,20.037-8.844,38.508s4.773,16.593,4.773,28.176
							c0,11.584-19.097,11.897-12.836,22.229c6.262,10.332,10.788-3.444,14.232-0.626c3.444,2.818,1.578,6.104,1.578,6.104
							s-7.357,12.367-12.993,12.367c-5.26,0,11.302,1.091,13.528-3.604c-0.478,4.099-1.863,12.625-5.858,18.475
							c-6.381,9.342-23.951,19.88-23.951,19.88s20.507-3.913,22.073,2.974c1.564,6.888,7.545-1.396,12.154,2.048
							c3.503,2.618,1.083,8.303,3.296,10.603c0.316,0.329,0.727,0.588,1.263,0.76c0,0,0.889,0.246,1.272,0.222
							c0.381,0.024,1.271-0.222,1.271-0.222c4.29-1.373,0.555-8.37,4.559-11.362c4.609-3.444,10.59,4.839,12.155-2.048
							c1.565-6.887,22.071-2.974,22.071-2.974s-17.569-10.538-23.95-19.88c-3.995-5.85-5.381-14.376-5.859-18.475
							c2.227,4.694,18.789,3.604,13.53,3.604c-5.636,0-12.994-12.367-12.994-12.367s-1.865-3.287,1.579-6.104
							c3.444-2.818,7.971,10.958,14.232,0.626s-12.836-10.645-12.836-22.229c0-11.583,4.775-9.705,4.775-28.176
							s-7.592-19.098-8.844-38.508c3.13,4.383,7.514,5.948,15.653,5.322c-10.107-3.752-16.593-10.331-16.28-16.28
							c2.818,2.505,12.21,4.07,12.21,4.07l-12.21-13.149c-1.442-5.322,1.912-5.635,2.538-13.775
							c0.225-2.932,1.343-10.665,4.116-11.907c2.771-1.242,4.086-5.667,4.525-6.898c0.437-1.231-1.597,3.204-3.944,3.465
							c-2.349,0.261-0.402-0.939-7.29-0.939s-2.417-3.13-10.848-3.756c-7.205-0.535-5.089,2.586-8.62,3.506"/>
						<path fill="none" stroke="#C85B1A" stroke-width="1.8784" stroke-miterlimit="10" d="M128.204,26.065
							c-0.601,0.156-1.359,0.25-2.36,0.25c-6.888,0-12.523-0.626-16.064,0c-3.54,0.627-2.093,11.897,0,8.182
							c2.096-3.716,7.925-1.92,13.338,0c5.414,1.919,3.979,8.099-2.912,10.603c-6.889,2.505-5.678-2.504-5.678-2.504
							s-4.376,3.795,1.022,7.552c5.399,3.757,6.414-3.673,12.45-1.794"/>
					</g>
				</g>
			</g>
			<g>
				<polygon fill="#E27328" points="133.894,121.887 128.819,113.097 133.894,104.307 144.044,104.307 149.119,113.097 
					144.044,121.887 				"/>
				<g>
					<polygon fill="#FBB040" points="144.044,104.307 138.969,95.517 138.969,95.518 138.969,104.307 					"/>
					<polygon fill="#F7941E" points="133.894,104.307 138.969,104.307 138.969,95.518 					"/>
				</g>
				<g>
					<polygon fill="#F7941E" points="133.895,104.307 123.744,104.307 123.745,104.308 131.356,108.702 					"/>
					<polygon fill="#E48C2A" points="128.819,113.097 131.356,108.702 123.745,104.308 					"/>
				</g>
				<g>
					<polygon fill="#E48C2A" points="128.819,113.097 123.744,121.887 123.745,121.887 131.356,117.492 					"/>
					<polygon fill="#CD7B29" points="133.894,121.887 131.356,117.492 123.745,121.887 					"/>
				</g>
				<g>
					<polygon fill="#CD7B29" points="133.894,121.887 138.968,130.677 138.97,130.676 138.969,121.887 					"/>
					<polygon fill="#E48C2A" points="144.044,121.888 138.969,121.887 138.97,130.676 					"/>
				</g>
				<g>
					<polygon fill="#E48C2A" points="144.044,121.887 154.193,121.887 154.193,121.885 146.582,117.491 					"/>
					<polygon fill="#F7941E" points="149.119,113.097 146.582,117.491 154.193,121.885 					"/>
				</g>
				<g>
					<polygon fill="#F7941E" points="149.119,113.098 154.194,104.308 154.192,104.307 146.581,108.702 					"/>
					<polygon fill="#FBB040" points="144.044,104.307 146.581,108.702 154.192,104.307 					"/>
				</g>
				<circle fill="#F7941E" stroke="#FBB040" stroke-miterlimit="10" cx="138.969" cy="113.097" r="7.323"/>
			</g>
		</g>
	</g>
	<use xlink:href="#SVGID_2_"  overflow="visible" fill="none" stroke="#000000" stroke-width="7" stroke-miterlimit="10"/>
</g>
<radialGradient id="SVGID_9_" cx="261.8062" cy="575.5225" r="180.5935" gradientUnits="userSpaceOnUse">
	<stop  offset="0.6316" style="stop-color:#FFFFFF"/>
	<stop  offset="0.7049" style="stop-color:#F4F5F5"/>
	<stop  offset="0.8549" style="stop-color:#EAEBEB"/>
	<stop  offset="1" style="stop-color:#E6E7E8"/>
</radialGradient>
<path display="none" fill="url(#SVGID_9_)" stroke="#000000" stroke-width="3" stroke-miterlimit="10" d="M474.52,493.628
	c0,0-35,101-212.714,101s-212.714-101-212.714-101s-32,43-29,61S84.52,657.416,261.806,657.416S500.52,572.628,503.52,554.628
	S474.52,493.628,474.52,493.628z"/>
<path display="none" fill="none" d="M20.092,554.628c3,18,64.428,102.788,241.714,102.788S500.52,572.628,503.52,554.628"/>
<g display="none">
	
		<text transform="matrix(0.7587 0.3605 -0.4935 1.0387 93.6392 605.2188)" display="inline" font-family="'LucidaCalligraphy-Italic'" font-size="42">F</text>
	
		<text transform="matrix(0.7904 0.2844 -0.3893 1.0821 118.5288 616.8916)" display="inline" font-family="'LucidaCalligraphy-Italic'" font-size="42">L</text>
	
		<text transform="matrix(0.8119 0.2155 -0.2951 1.1115 141.1191 625.0645)" display="inline" font-family="'LucidaCalligraphy-Italic'" font-size="42">O</text>
	
		<text transform="matrix(0.8272 0.146 -0.1999 1.1325 168.1968 632.2754)" display="inline" font-family="'LucidaCalligraphy-Italic'" font-size="42">R</text>
	
		<text transform="matrix(0.8355 0.0868 -0.1188 1.1438 198.9932 637.5859)" display="inline" font-family="'LucidaCalligraphy-Italic'" font-size="42">E</text>
	
		<text transform="matrix(0.8394 0.0317 -0.0434 1.1492 225.0742 640.4023)" display="inline" font-family="'LucidaCalligraphy-Italic'" font-size="42">A</text>
	
		<text transform="matrix(0.8398 -0.0165 0.0225 1.1498 259.5522 641.5625)" display="inline" font-family="'LucidaCalligraphy-Italic'" font-size="42">T</text>
	
		<text transform="matrix(0.8386 -0.0479 0.0656 1.1481 284.8784 640.9424)" display="inline" font-family="'LucidaCalligraphy-Italic'" font-size="42"> </text>
	
		<text transform="matrix(0.8371 -0.0692 0.0948 1.1461 296.6392 640.2705)" display="inline" font-family="'LucidaCalligraphy-Italic'" font-size="42"> </text>
	
		<text transform="matrix(0.835 -0.0917 0.1255 1.1431 308.3843 639.2998)" display="inline" font-family="'LucidaCalligraphy-Italic'" font-size="42"> </text>
	
		<text transform="matrix(0.8298 -0.1304 0.1785 1.1361 320.2202 638.1699)" display="inline" font-family="'LucidaCalligraphy-Italic'" font-size="42">E</text>
	
		<text transform="matrix(0.818 -0.1909 0.2613 1.1199 346.1802 634.1221)" display="inline" font-family="'LucidaCalligraphy-Italic'" font-size="42">X</text>
	
		<text transform="matrix(0.7983 -0.2614 0.3579 1.0929 372.9399 627.9023)" display="inline" font-family="'LucidaCalligraphy-Italic'" font-size="42">O</text>
	
		<text transform="matrix(0.7611 -0.3555 0.4867 1.0419 399.8696 619.3838)" display="inline" font-family="'LucidaCalligraphy-Italic'" font-size="42">N</text>
</g>
</svg>
