<?xml version="1.0" encoding="utf-8"?>
<!-- Generator: Adobe Illustrator 15.0.2, SVG Export Plug-In  -->
<!DOCTYPE svg PUBLIC "-//W3C//DTD SVG 1.1//EN" "http://www.w3.org/Graphics/SVG/1.1/DTD/svg11.dtd" [
	<!ENTITY ns_flows "http://ns.adobe.com/Flows/1.0/">
]>
<svg version="1.1"
	 xmlns="http://www.w3.org/2000/svg" xmlns:xlink="http://www.w3.org/1999/xlink" xmlns:a="http://ns.adobe.com/AdobeSVGViewerExtensions/3.0/"
	 x="0px" y="0px" width="524px" height="659px" viewBox="86.279 2 524 659" enable-background="new 86.279 2 524 659"
	 xml:space="preserve">
<defs>
</defs>
<linearGradient id="SVGID_3_" gradientUnits="userSpaceOnUse" x1="124.0679" y1="517.8037" x2="178.9622" y2="538.8757">
	<stop  offset="0" style="stop-color:#8B5E3C"/>
	<stop  offset="0.497" style="stop-color:#FDC060"/>
</linearGradient>
<path display="none" fill="url(#SVGID_3_)" stroke="#000000" stroke-width="3" stroke-miterlimit="10" d="M195.372,496.128l-72,70
	c0,0-13.53,0.171-11-15c2.529-15.171,23-55,23-55s1-8,21-9S195.372,496.128,195.372,496.128z"/>
<linearGradient id="SVGID_4_" gradientUnits="userSpaceOnUse" x1="517.2085" y1="538.876" x2="572.1028" y2="517.804">
	<stop  offset="0.503" style="stop-color:#FDC060"/>
	<stop  offset="1" style="stop-color:#8B5E3C"/>
</linearGradient>
<path display="none" fill="url(#SVGID_4_)" stroke="#000000" stroke-width="3" stroke-miterlimit="10" d="M500.799,496.128l72,70
	c0,0,13.529,0.171,11-15s-23-55-23-55s-1-8-21-9S500.799,496.128,500.799,496.128z"/>
<linearGradient id="SVGID_5_" gradientUnits="userSpaceOnUse" x1="87.7793" y1="463.6279" x2="193.3716" y2="463.6279">
	<stop  offset="0" style="stop-color:#BCBEC0"/>
	<stop  offset="0.3333" style="stop-color:#E6E7E8"/>
</linearGradient>
<path display="none" fill="url(#SVGID_5_)" stroke="#000000" stroke-width="3" stroke-miterlimit="10" d="M88.372,459.128
	c0-18,7.316-28,35-28s51,8,51,8l19,57c0,0-71.883-16.141-90.941-9.07S88.372,459.128,88.372,459.128z"/>
<linearGradient id="SVGID_6_" gradientUnits="userSpaceOnUse" x1="502.7993" y1="463.6279" x2="608.3911" y2="463.6279">
	<stop  offset="0.6316" style="stop-color:#E6E7E8"/>
	<stop  offset="0.6867" style="stop-color:#DBDCDD"/>
	<stop  offset="0.7932" style="stop-color:#CACBCD"/>
	<stop  offset="0.8984" style="stop-color:#BFC1C3"/>
	<stop  offset="1" style="stop-color:#BCBEC0"/>
</linearGradient>
<path display="none" fill="url(#SVGID_6_)" stroke="#000000" stroke-width="3" stroke-miterlimit="10" d="M607.799,459.128
	c0-18-7.316-28-35-28s-51,8-51,8l-19,57c0,0,71.883-16.141,90.941-9.07S607.799,459.128,607.799,459.128z"/>
<path display="none" fill="#FBB040" stroke="#000000" stroke-width="3" stroke-miterlimit="10" d="M88.372,459.128c0,0,8,6,23,6
	c9.731,10.067,11,32,11,58.345c-25-1.345-34-19.345-34-48.345S88.372,459.128,88.372,459.128z"/>
<path display="none" fill="#FBB040" stroke="#000000" stroke-width="3" stroke-miterlimit="10" d="M607.799,459.128c0,0-8,6-23,6
	c-9.731,10.067-11,32-11,58.345c25-1.345,34-19.345,34-48.345S607.799,459.128,607.799,459.128z"/>
<g>
	<defs>
		<path id="SVGID_1_" d="M347.392,3.5H96.372c0,0,0,138.937,0,258.714c0,161.081,140,299,251.714,341
			c118.286-39,251.714-175.92,251.714-337c0-119.778,0-262.714,0-262.714H347.392z"/>
	</defs>
	<use xlink:href="#SVGID_1_"  overflow="visible" fill="#FFFFFF"/>
	<clipPath id="SVGID_7_">
		<use xlink:href="#SVGID_1_"  overflow="visible"/>
	</clipPath>
	<polygon clip-path="url(#SVGID_7_)" fill="#BE1E2D" stroke="#000000" stroke-width="1.9837" stroke-miterlimit="10" points="
		695.179,292.692 417.101,292.692 417.101,67.34 279.07,67.34 279.07,292.692 0.992,292.692 0.992,430.724 279.07,430.724 
		279.07,656.076 417.101,656.076 417.101,430.724 695.179,430.724 	"/>
	<radialGradient id="SVGID_8_" cx="348.0854" cy="361.708" r="138.8705" gradientUnits="userSpaceOnUse">
		<stop  offset="0" style="stop-color:#FFFFFF"/>
		<stop  offset="0.035" style="stop-color:#FEF4E5"/>
		<stop  offset="0.0955" style="stop-color:#FEE4BE"/>
		<stop  offset="0.1625" style="stop-color:#FDD69C"/>
		<stop  offset="0.2355" style="stop-color:#FCCA7F"/>
		<stop  offset="0.3165" style="stop-color:#FCC168"/>
		<stop  offset="0.4088" style="stop-color:#FBB956"/>
		<stop  offset="0.5195" style="stop-color:#FBB449"/>
		<stop  offset="0.6667" style="stop-color:#FBB142"/>
		<stop  offset="1" style="stop-color:#FBB040"/>
	</radialGradient>
	<path clip-path="url(#SVGID_7_)" fill="url(#SVGID_8_)" d="M348.084,236.464c4.762,37.518,6.605,56.967,7.955,71.398
		c5.303-12.809,12.775-30.463,25.563-57.919c-5.494,33.35-8.816,50.651-11.33,63.682c7.781-9.51,18.408-22.125,32.688-37.85
		c-9.896,22.081-16.428,35.769-21.396,46.07c9.238-6.673,21.367-15.197,36.875-25.405c-11.117,14.485-19.918,25.294-26.797,33.554
		c11.219-4.903,26.047-11.28,47.818-20.124c-14.947,12.007-27.566,21.443-37.322,28.522c14.453-3.293,33.73-7.656,68.383-14.848
		c-26.086,11.782-45.055,19.671-58.957,25.305c17.52-0.639,40.859-1.487,87.797-2.238c-42.443,8.194-66.369,12.218-83.787,15.097
		c17.418,2.879,41.344,6.901,83.787,15.095c-46.938-0.75-70.277-1.598-87.797-2.236c13.9,5.633,32.869,13.523,58.957,25.304
		c-34.652-7.191-53.93-11.553-68.383-14.848c9.756,7.08,22.375,16.516,37.322,28.521c-21.771-8.844-36.602-15.219-47.818-20.123
		c6.879,8.26,15.68,19.068,26.795,33.553c-15.508-10.207-27.637-18.732-36.873-25.404c4.967,10.301,11.5,23.99,21.396,46.072
		c-14.281-15.725-24.906-28.342-32.688-37.85c2.514,13.029,5.836,30.33,11.33,63.682c-12.787-27.457-20.26-45.113-25.563-57.922
		c-1.35,14.432-3.193,33.881-7.955,71.4c-4.76-37.52-6.605-56.969-7.955-71.4c-5.302,12.809-12.774,30.465-25.563,57.922
		c5.494-33.352,8.817-50.652,11.33-63.682c-7.78,9.508-18.407,22.125-32.688,37.85c9.898-22.082,16.43-35.771,21.398-46.072
		c-9.237,6.672-21.367,15.197-36.876,25.404c11.117-14.482,19.918-25.291,26.798-33.553c-11.219,4.904-26.049,11.279-47.819,20.123
		c14.946-12.006,27.566-21.441,37.323-28.521c-14.453,3.295-33.73,7.656-68.38,14.848c26.085-11.781,45.052-19.671,58.953-25.304
		c-17.519,0.638-40.858,1.486-87.796,2.236c42.442-8.193,66.369-12.216,83.786-15.095c-17.417-2.879-41.344-6.902-83.786-15.097
		c46.938,0.751,70.277,1.6,87.796,2.239c-13.901-5.633-32.868-13.523-58.953-25.304c34.649,7.191,53.926,11.553,68.38,14.847
		c-9.757-7.079-22.378-16.515-37.324-28.522c21.771,8.845,36.601,15.221,47.82,20.125c-6.88-8.26-15.681-19.069-26.798-33.554
		c15.508,10.207,27.638,18.732,36.875,25.405c-4.968-10.301-11.5-23.99-21.397-46.07c14.281,15.725,24.907,28.34,32.688,37.85
		c-2.513-13.031-5.836-30.332-11.33-63.682c12.787,27.457,20.261,45.111,25.563,57.919
		C341.479,293.431,343.324,273.981,348.084,236.464z"/>
	<path clip-path="url(#SVGID_7_)" fill="#F7941E" d="M348.084,236.464l-0.072,125.648l8.027-54.25l25.563-57.919l-33.59,112.185
		l22.26-48.503l32.688-37.85l-54.947,86.353l33.551-40.283l36.875-25.405l-70.426,65.672l43.629-32.118l47.818-20.124
		l-91.447,52.258l54.125-23.736c0,0,33.73-7.656,68.383-14.848c-17.751,8.017-122.508,38.583-122.508,38.583l63.551-13.279
		l87.797-2.238l-151.348,15.517l67.561-0.42l83.787,15.095l-151.348-14.674l63.551,12.438l58.957,25.304l-122.508-37.742
		l54.125,22.895l37.322,28.521l-91.447-51.416l43.629,31.293l26.795,33.553l-70.424-64.846l33.551,39.441l21.396,46.072
		l-54.947-85.514l22.26,47.664l11.33,63.682l-33.59-111.346l8.027,53.424l-7.955,71.4l-0.072-124.824l-7.883,53.424l-25.563,57.922
		l33.445-111.346l-22.115,47.664l-32.688,37.85l54.803-85.529l-33.404,39.457l-36.876,25.404l70.28-64.846l-43.482,31.293
		l-47.819,20.123l91.302-51.416l-53.979,22.895l-68.38,14.848l122.358-37.742l-63.405,12.438l-87.796,2.236l151.201-14.674
		l-67.415-0.42l-83.786-15.097l151.201,15.518l-63.405-13.279l-58.953-25.304l122.358,38.583l-53.979-23.736l-37.324-28.522
		l91.303,52.258l-43.482-32.134l-26.798-33.554l70.202,65.75l-33.327-40.345l-21.397-46.07l54.725,86.415l-22.037-48.565
		l-11.33-63.682l33.367,112.247l-7.805-54.328L348.084,236.464z"/>
	<path clip-path="url(#SVGID_7_)" fill="none" stroke="#8B5E3C" stroke-miterlimit="10" d="M348.084,236.464
		c4.762,37.518,6.605,56.967,7.955,71.398c5.303-12.809,12.775-30.463,25.563-57.919c-5.494,33.35-8.816,50.651-11.33,63.682
		c7.781-9.51,18.408-22.125,32.688-37.85c-9.896,22.081-16.428,35.769-21.396,46.07c9.238-6.673,21.367-15.197,36.875-25.405
		c-11.117,14.485-19.918,25.294-26.797,33.554c11.219-4.903,26.047-11.28,47.818-20.124c-14.947,12.007-27.566,21.443-37.322,28.522
		c14.453-3.293,33.73-7.656,68.383-14.848c-26.086,11.782-45.055,19.671-58.957,25.305c17.52-0.639,40.859-1.487,87.797-2.238
		c-42.443,8.194-66.369,12.218-83.787,15.097c17.418,2.879,41.344,6.901,83.787,15.095c-46.938-0.75-70.277-1.598-87.797-2.236
		c13.9,5.633,32.869,13.523,58.957,25.304c-34.652-7.191-53.93-11.553-68.383-14.848c9.756,7.08,22.375,16.516,37.322,28.521
		c-21.771-8.844-36.602-15.219-47.818-20.123c6.879,8.26,15.68,19.068,26.795,33.553c-15.508-10.207-27.637-18.732-36.873-25.404
		c4.967,10.301,11.5,23.99,21.396,46.072c-14.281-15.725-24.906-28.342-32.688-37.85c2.514,13.029,5.836,30.33,11.33,63.682
		c-12.787-27.457-20.26-45.113-25.563-57.922c-1.35,14.432-3.193,33.881-7.955,71.4c-4.76-37.52-6.605-56.969-7.955-71.4
		c-5.302,12.809-12.774,30.465-25.563,57.922c5.494-33.352,8.817-50.652,11.33-63.682c-7.78,9.508-18.407,22.125-32.688,37.85
		c9.898-22.082,16.43-35.771,21.398-46.072c-9.237,6.672-21.367,15.197-36.876,25.404c11.117-14.482,19.918-25.291,26.798-33.553
		c-11.219,4.904-26.049,11.279-47.819,20.123c14.946-12.006,27.566-21.441,37.323-28.521c-14.453,3.295-33.73,7.656-68.38,14.848
		c26.085-11.781,45.052-19.671,58.953-25.304c-17.519,0.638-40.858,1.486-87.796,2.236c42.442-8.193,66.369-12.216,83.786-15.095
		c-17.417-2.879-41.344-6.902-83.786-15.097c46.938,0.751,70.277,1.6,87.796,2.239c-13.901-5.633-32.868-13.523-58.953-25.304
		c34.649,7.191,53.926,11.553,68.38,14.847c-9.757-7.079-22.378-16.515-37.324-28.522c21.771,8.845,36.601,15.221,47.82,20.125
		c-6.88-8.26-15.681-19.069-26.798-33.554c15.508,10.207,27.638,18.732,36.875,25.405c-4.968-10.301-11.5-23.99-21.397-46.07
		c14.281,15.725,24.907,28.34,32.688,37.85c-2.513-13.031-5.836-30.332-11.33-63.682c12.787,27.457,20.261,45.111,25.563,57.919
		C341.479,293.431,343.324,273.981,348.084,236.464z"/>
	<g clip-path="url(#SVGID_7_)">
		<g>
			<g>
				<linearGradient id="SVGID_9_" gradientUnits="userSpaceOnUse" x1="262.8521" y1="362.0996" x2="433.3179" y2="362.0996">
					<stop  offset="0" style="stop-color:#ED1C24"/>
					<stop  offset="0.0812" style="stop-color:#ED2225"/>
					<stop  offset="0.1464" style="stop-color:#EE3229"/>
					<stop  offset="0.2061" style="stop-color:#EF4632"/>
					<stop  offset="0.2625" style="stop-color:#F15D42"/>
					<stop  offset="0.3166" style="stop-color:#F37759"/>
					<stop  offset="0.3689" style="stop-color:#F69375"/>
					<stop  offset="0.4199" style="stop-color:#FAB59D"/>
					<stop  offset="0.4686" style="stop-color:#FDDED0"/>
					<stop  offset="0.5" style="stop-color:#FFFFFF"/>
					<stop  offset="0.5314" style="stop-color:#FDDED0"/>
					<stop  offset="0.5801" style="stop-color:#FAB59D"/>
					<stop  offset="0.6311" style="stop-color:#F69375"/>
					<stop  offset="0.6834" style="stop-color:#F37759"/>
					<stop  offset="0.7375" style="stop-color:#F15D42"/>
					<stop  offset="0.7939" style="stop-color:#EF4632"/>
					<stop  offset="0.8536" style="stop-color:#EE3229"/>
					<stop  offset="0.9188" style="stop-color:#ED2225"/>
					<stop  offset="1" style="stop-color:#ED1C24"/>
				</linearGradient>
				<path fill="url(#SVGID_9_)" stroke="#000000" stroke-width="2.95" stroke-miterlimit="10" d="M348.085,315.554h-85.233v93.092
					c0,0,63.811,0,68.719,0s8.034-6.629,8.034-6.629s-0.747,0.041,8.48,0.041s8.48-0.041,8.48-0.041s3.125,6.629,8.033,6.629
					s68.719,0,68.719,0v-93.092H348.085z"/>
				<g>
					<linearGradient id="SVGID_10_" gradientUnits="userSpaceOnUse" x1="267.7407" y1="358.7627" x2="348.3315" y2="358.7627">
						<stop  offset="0" style="stop-color:#E7A523"/>
						<stop  offset="0.1213" style="stop-color:#E7A625"/>
						<stop  offset="0.2187" style="stop-color:#E9A92D"/>
						<stop  offset="0.3078" style="stop-color:#EDAF3C"/>
						<stop  offset="0.3919" style="stop-color:#F2B751"/>
						<stop  offset="0.4719" style="stop-color:#F9C26B"/>
						<stop  offset="0.5" style="stop-color:#FEC775"/>
						<stop  offset="0.5281" style="stop-color:#F9C26B"/>
						<stop  offset="0.6081" style="stop-color:#F2B751"/>
						<stop  offset="0.6922" style="stop-color:#EDAF3C"/>
						<stop  offset="0.7813" style="stop-color:#E9A92D"/>
						<stop  offset="0.8787" style="stop-color:#E7A625"/>
						<stop  offset="1" style="stop-color:#E7A523"/>
					</linearGradient>
					<path fill="url(#SVGID_10_)" stroke="#000000" stroke-width="0.9833" stroke-miterlimit="10" d="M337.955,406.114
						c-0.517-0.963-12.403-2.25-20.187-2.357c-7.784-0.107-18.958,0.537-50.027,0.145v-82.86l15.052-9.629v81.525h65.539v13.178
						H337.955"/>
					<path fill="none" stroke="#000000" stroke-width="0.9833" stroke-miterlimit="10" d="M343.283,400.505
						c-0.47-2.105-11.279-4.912-18.359-5.146c-7.078-0.234-17.24,1.168-45.496,0.314v-81.55"/>
					<path fill="none" stroke="#000000" stroke-width="0.9833" stroke-miterlimit="10" d="M341.041,402.528
						c-0.482-1.787-11.578-4.172-18.844-4.369c-7.266-0.199-17.695,0.992-46.696,0.268v-82.154"/>
					<path fill="none" stroke="#000000" stroke-width="0.9833" stroke-miterlimit="10" d="M339.544,404.136
						c-0.496-1.301-11.908-3.035-19.381-3.178c-7.473-0.146-18.2,0.721-48.029,0.193v-82.448"/>
				</g>
				<g>
					<linearGradient id="SVGID_11_" gradientUnits="userSpaceOnUse" x1="347.9536" y1="358.7627" x2="428.5444" y2="358.7627">
						<stop  offset="0" style="stop-color:#E7A523"/>
						<stop  offset="0.1213" style="stop-color:#E7A625"/>
						<stop  offset="0.2187" style="stop-color:#E9A92D"/>
						<stop  offset="0.3078" style="stop-color:#EDAF3C"/>
						<stop  offset="0.3919" style="stop-color:#F2B751"/>
						<stop  offset="0.4719" style="stop-color:#F9C26B"/>
						<stop  offset="0.5" style="stop-color:#FEC775"/>
						<stop  offset="0.5281" style="stop-color:#F9C26B"/>
						<stop  offset="0.6081" style="stop-color:#F2B751"/>
						<stop  offset="0.6922" style="stop-color:#EDAF3C"/>
						<stop  offset="0.7813" style="stop-color:#E9A92D"/>
						<stop  offset="0.8787" style="stop-color:#E7A625"/>
						<stop  offset="1" style="stop-color:#E7A523"/>
					</linearGradient>
					<path fill="url(#SVGID_11_)" stroke="#000000" stroke-width="0.9833" stroke-miterlimit="10" d="M358.331,406.114
						c0.517-0.963,12.404-2.25,20.188-2.357s18.958,0.537,50.026,0.145v-82.86l-15.053-9.629v81.525h-65.538v13.178H358.331"/>
					<path fill="none" stroke="#000000" stroke-width="0.9833" stroke-miterlimit="10" d="M353.001,400.505
						c0.469-2.105,11.28-4.912,18.359-5.146s17.241,1.168,45.496,0.314v-81.55"/>
					<path fill="none" stroke="#000000" stroke-width="0.9833" stroke-miterlimit="10" d="M355.245,402.528
						c0.483-1.787,11.578-4.172,18.844-4.369c7.266-0.199,17.695,0.992,46.696,0.268v-82.154"/>
					<path fill="none" stroke="#000000" stroke-width="0.9833" stroke-miterlimit="10" d="M356.742,404.136
						c0.495-1.301,11.906-3.035,19.38-3.178c7.473-0.146,18.201,0.721,48.028,0.193v-82.448"/>
				</g>
				<g>
					<radialGradient id="SVGID_12_" cx="348.0845" cy="354.8076" r="55.4366" gradientUnits="userSpaceOnUse">
						<stop  offset="0" style="stop-color:#FFFFFF"/>
						<stop  offset="0.5455" style="stop-color:#FCFBFA"/>
						<stop  offset="0.742" style="stop-color:#F3F1EF"/>
						<stop  offset="0.8815" style="stop-color:#E7E3E1"/>
						<stop  offset="0.9941" style="stop-color:#D8D1CE"/>
						<stop  offset="1" style="stop-color:#D7CFCD"/>
					</radialGradient>
					<path fill="url(#SVGID_12_)" stroke="#000000" stroke-width="0.9833" stroke-miterlimit="10" d="M395.035,314.123
						c-9.629,0-15.237-2.244-23.747-2.244c-7.856,0-21.207,3.188-23.202,3.675c-1.995-0.486-15.347-3.675-23.204-3.675
						c-8.507,0-14.116,2.244-23.746,2.244s-18.343-2.711-18.343-2.711v81.525c29.001,1.023,39.431-0.658,46.695-0.377
						c6.502,0.25,18.47,5.82,18.598,5.641c0.127,0.18,12.095-5.391,18.597-5.641c7.266-0.281,17.695,1.4,46.695,0.377v-81.525
						C413.377,311.412,404.664,314.123,395.035,314.123z"/>
					
						<line fill="none" stroke="#000000" stroke-width="0.9833" stroke-miterlimit="10" x1="348.085" y1="315.554" x2="348.085" y2="398.2"/>
				</g>
			</g>
			
				<radialGradient id="SVGID_13_" cx="348.0845" cy="405.1797" r="8.7992" gradientTransform="matrix(-4.371139e-008 -1 3 -1.311342e-007 -867.4546 753.2642)" gradientUnits="userSpaceOnUse">
				<stop  offset="0" style="stop-color:#FEC775"/>
				<stop  offset="1" style="stop-color:#E7A523"/>
			</radialGradient>
			
				<ellipse fill="url(#SVGID_13_)" stroke="#000000" stroke-width="1.9667" stroke-miterlimit="10" cx="348.084" cy="405.179" rx="10.405" ry="6.826"/>
		</g>
		<g>
			<path d="M293.535,337.314v-0.461h0.391c0.341,0,0.604-0.077,0.786-0.23s0.317-0.364,0.404-0.63
				c0.052-0.175,0.078-0.698,0.078-1.571v-11.124c0-0.865-0.032-1.405-0.096-1.621c-0.063-0.216-0.192-0.405-0.386-0.567
				s-0.456-0.243-0.786-0.243h-0.391v-0.461h5.27c1.406,0,2.538,0.274,3.394,0.823c1.047,0.673,1.842,1.692,2.383,3.055
				c0.541,1.364,0.812,2.906,0.812,4.626c0,1.189-0.133,2.285-0.399,3.286c-0.266,1.002-0.611,1.829-1.033,2.481
				c-0.422,0.653-0.91,1.177-1.462,1.571c-0.553,0.395-1.229,0.701-2.027,0.917c-0.353,0.1-0.909,0.149-1.667,0.149H293.535z
				 M298.023,321.365v13.194c0,0.698,0.023,1.126,0.069,1.284c0.046,0.158,0.125,0.279,0.234,0.362
				c0.156,0.125,0.382,0.187,0.677,0.187c0.966,0,1.704-0.474,2.213-1.421c0.695-1.28,1.042-3.268,1.042-5.961
				c0-2.17-0.237-3.903-0.712-5.2c-0.376-1.014-0.859-1.704-1.45-2.07C299.681,321.481,298.989,321.356,298.023,321.365z"/>
			<path d="M313.006,320.167c1.875-0.1,3.398,0.686,4.571,2.357c1.172,1.671,1.758,3.762,1.758,6.273
				c0,2.145-0.437,4.032-1.311,5.661c-1.157,2.162-2.792,3.243-4.905,3.243c-2.118,0-3.756-1.031-4.914-3.093
				c-0.915-1.629-1.372-3.563-1.372-5.799c0-2.511,0.595-4.604,1.784-6.279S311.27,320.068,313.006,320.167z M313.11,320.966
				c-1.076,0-1.895,0.79-2.457,2.369c-0.457,1.297-0.686,3.16-0.686,5.587c0,2.885,0.353,5.018,1.059,6.397
				c0.492,0.964,1.181,1.446,2.066,1.446c0.596,0,1.094-0.208,1.493-0.624c0.509-0.532,0.906-1.382,1.189-2.55
				c0.283-1.167,0.425-2.691,0.425-4.57c0-2.236-0.145-3.909-0.434-5.019c-0.29-1.11-0.659-1.894-1.107-2.351
				C314.211,321.194,313.695,320.966,313.11,320.966z"/>
			<path d="M328.441,331.553l3.195-11.148h4.792v0.461h-0.382c-0.347,0-0.625,0.087-0.833,0.262
				c-0.145,0.116-0.261,0.312-0.348,0.586c-0.063,0.2-0.095,0.719-0.095,1.559v11.148c0,0.865,0.032,1.405,0.095,1.621
				c0.064,0.216,0.194,0.405,0.391,0.567c0.196,0.162,0.46,0.243,0.79,0.243h0.382v0.461h-6.146v-0.461h0.382
				c0.347,0,0.625-0.087,0.833-0.262c0.145-0.117,0.261-0.316,0.347-0.599c0.064-0.2,0.096-0.723,0.096-1.571v-12.533l-4.514,15.426
				h-0.208l-4.583-15.313v11.909c0,0.831,0.015,1.343,0.043,1.534c0.075,0.416,0.239,0.754,0.491,1.017
				c0.251,0.262,0.646,0.393,1.185,0.393v0.461h-4.028v-0.461h0.122c0.26,0.008,0.503-0.052,0.729-0.181
				c0.226-0.129,0.396-0.301,0.512-0.518s0.206-0.52,0.269-0.911c0.012-0.091,0.018-0.515,0.018-1.272v-10.699
				c0-0.856-0.032-1.391-0.096-1.603c-0.063-0.212-0.194-0.399-0.391-0.561s-0.46-0.243-0.79-0.243h-0.373v-0.461h4.809
				L328.441,331.553z"/>
			<path d="M311.657,359.957v0.461h-6.155v-0.461h0.391c0.341,0,0.616-0.087,0.825-0.262c0.15-0.117,0.266-0.316,0.347-0.599
				c0.063-0.2,0.096-0.723,0.096-1.571v-11.124c0-0.865-0.032-1.405-0.096-1.621s-0.192-0.405-0.386-0.567s-0.456-0.243-0.786-0.243
				h-0.391v-0.461h6.155v0.461h-0.391c-0.341,0-0.616,0.087-0.825,0.262c-0.15,0.116-0.269,0.316-0.356,0.599
				c-0.063,0.199-0.095,0.723-0.095,1.571v11.124c0,0.865,0.033,1.405,0.1,1.621s0.197,0.405,0.391,0.567s0.456,0.243,0.786,0.243
				H311.657z"/>
			<path d="M316.492,343.509l5.808,10.487v-7.27c0-1.014-0.101-1.7-0.304-2.058c-0.278-0.482-0.744-0.715-1.397-0.698v-0.461h3.889
				v0.461c-0.498,0.091-0.832,0.21-1.003,0.355c-0.171,0.146-0.304,0.383-0.399,0.711c-0.095,0.329-0.143,0.892-0.143,1.69v14.079
				h-0.295l-7.96-14.079v10.75c0,0.973,0.155,1.629,0.464,1.97s0.664,0.511,1.063,0.511h0.278v0.461h-4.175v-0.461
				c0.648-0.008,1.099-0.2,1.354-0.574s0.382-1.01,0.382-1.908v-11.935l-0.251-0.449c-0.249-0.449-0.469-0.744-0.66-0.885
				c-0.191-0.142-0.466-0.22-0.825-0.237v-0.461H316.492z"/>
			<path d="M304.078,366.613h6.077v0.461h-0.304c-0.457,0-0.771,0.068-0.942,0.206c-0.17,0.137-0.292,0.326-0.364,0.567
				c-0.073,0.241-0.109,0.844-0.109,1.808v8.28c0,1.513,0.08,2.515,0.239,3.005c0.159,0.491,0.421,0.898,0.786,1.222
				c0.365,0.324,0.825,0.486,1.38,0.486c0.637,0,1.179-0.206,1.628-0.617c0.448-0.411,0.784-0.979,1.007-1.702
				s0.334-1.983,0.334-3.779v-6.896c0-0.756-0.055-1.297-0.165-1.621c-0.11-0.324-0.249-0.549-0.417-0.673
				c-0.26-0.191-0.628-0.287-1.103-0.287v-0.461h4.072v0.461h-0.243c-0.33,0-0.605,0.095-0.825,0.287
				c-0.22,0.191-0.379,0.478-0.478,0.86c-0.075,0.266-0.113,0.744-0.113,1.434v6.422c0,1.987-0.091,3.421-0.273,4.302
				c-0.183,0.881-0.626,1.692-1.333,2.432c-0.706,0.74-1.67,1.11-2.891,1.11c-1.019,0-1.806-0.195-2.361-0.587
				c-0.758-0.531-1.293-1.213-1.606-2.045c-0.313-0.831-0.469-1.949-0.469-3.354v-8.28c0-0.973-0.038-1.578-0.113-1.814
				s-0.206-0.426-0.391-0.567c-0.185-0.141-0.526-0.208-1.024-0.199V366.613z"/>
			<path d="M324.852,366.226l0.096,5.637h-0.356c-0.168-1.414-0.581-2.55-1.237-3.411c-0.657-0.861-1.367-1.291-2.131-1.291
				c-0.59,0-1.058,0.227-1.402,0.68s-0.516,0.975-0.516,1.565c0,0.375,0.061,0.707,0.182,0.998c0.168,0.391,0.437,0.777,0.807,1.16
				c0.272,0.274,0.9,0.761,1.884,1.459c1.377,0.973,2.306,1.891,2.787,2.756c0.475,0.865,0.712,1.854,0.712,2.968
				c0,1.414-0.383,2.63-1.15,3.647c-0.767,1.019-1.741,1.528-2.921,1.528c-0.371,0-0.721-0.055-1.05-0.162
				c-0.33-0.108-0.744-0.313-1.242-0.611c-0.278-0.166-0.506-0.249-0.686-0.249c-0.151,0-0.31,0.083-0.478,0.249
				s-0.304,0.42-0.408,0.761h-0.321v-6.385h0.321c0.255,1.795,0.745,3.166,1.472,4.108c0.726,0.944,1.509,1.416,2.348,1.416
				c0.648,0,1.165-0.254,1.55-0.761c0.385-0.507,0.577-1.098,0.577-1.771c0-0.399-0.074-0.786-0.221-1.16
				c-0.148-0.374-0.372-0.729-0.673-1.066c-0.301-0.336-0.833-0.775-1.598-1.315c-1.071-0.756-1.84-1.401-2.309-1.933
				c-0.469-0.532-0.829-1.126-1.081-1.783c-0.252-0.657-0.378-1.38-0.378-2.17c0-1.347,0.344-2.494,1.033-3.442
				c0.688-0.948,1.557-1.421,2.604-1.421c0.382,0,0.752,0.066,1.111,0.199c0.272,0.1,0.604,0.285,0.994,0.555
				s0.664,0.405,0.82,0.405c0.15,0,0.269-0.066,0.356-0.2c0.087-0.133,0.168-0.453,0.243-0.96H324.852z"/>
		</g>
		<g>
			<path d="M366.783,325.894v-0.561h6.556v0.561h-0.4c-0.363,0-0.654,0.106-0.873,0.318c-0.151,0.142-0.272,0.384-0.363,0.728
				c-0.067,0.242-0.101,0.879-0.101,1.909v10.063c0,1.97-0.118,3.402-0.354,4.296s-0.656,1.642-1.259,2.243
				c-0.604,0.601-1.329,0.902-2.178,0.902c-1.037,0-1.875-0.455-2.515-1.364s-0.959-1.915-0.959-3.016c0-0.707,0.13-1.28,0.391-1.72
				s0.579-0.659,0.955-0.659c0.369,0,0.681,0.197,0.932,0.591c0.252,0.394,0.378,0.879,0.378,1.455c0,0.283-0.021,0.53-0.063,0.742
				c-0.024,0.102-0.12,0.356-0.287,0.766s-0.25,0.7-0.25,0.871c0,0.263,0.079,0.49,0.236,0.682c0.23,0.283,0.53,0.424,0.9,0.424
				c0.261,0,0.476-0.111,0.646-0.333c0.17-0.222,0.289-0.568,0.359-1.038c0.069-0.47,0.104-1.775,0.104-3.917v-10.987
				c0-1.05-0.035-1.707-0.104-1.97c-0.07-0.263-0.206-0.493-0.409-0.69c-0.203-0.197-0.478-0.295-0.823-0.295H366.783z"/>
			<path d="M378.522,326.515v8.365h0.245c0.782,0,1.349-0.409,1.7-1.228s0.576-2.025,0.673-3.622h0.346v10.76h-0.346
				c-0.072-1.172-0.226-2.132-0.459-2.879s-0.505-1.25-0.813-1.508c-0.31-0.257-0.758-0.386-1.346-0.386v5.789
				c0,1.132,0.028,1.824,0.086,2.076c0.058,0.253,0.165,0.46,0.323,0.622c0.157,0.162,0.412,0.242,0.764,0.242h0.736
				c1.151,0,2.074-0.444,2.769-1.333s1.192-2.243,1.496-4.062h0.336l-0.555,6.532h-10.656v-0.561h0.409
				c0.357,0,0.646-0.106,0.863-0.318c0.158-0.142,0.279-0.384,0.364-0.728c0.066-0.243,0.1-0.879,0.1-1.91v-13.518
				c0-0.929-0.015-1.5-0.045-1.712c-0.062-0.354-0.173-0.626-0.337-0.818c-0.23-0.283-0.546-0.424-0.945-0.424h-0.409v-0.561h10.32
				v6.077h-0.346c-0.176-1.485-0.423-2.551-0.741-3.198s-0.769-1.122-1.351-1.425c-0.339-0.182-0.976-0.272-1.909-0.272H378.522z"/>
			<path d="M394.616,324.863l0.101,6.85h-0.373c-0.176-1.717-0.607-3.099-1.296-4.145c-0.688-1.046-1.432-1.569-2.232-1.569
				c-0.618,0-1.107,0.275-1.469,0.826c-0.36,0.551-0.541,1.185-0.541,1.902c0,0.455,0.064,0.859,0.191,1.212
				c0.176,0.475,0.458,0.945,0.846,1.41c0.285,0.333,0.942,0.924,1.973,1.773c1.443,1.182,2.416,2.298,2.919,3.349
				c0.497,1.051,0.746,2.253,0.746,3.607c0,1.718-0.401,3.195-1.205,4.433c-0.803,1.238-1.823,1.856-3.06,1.856
				c-0.388,0-0.755-0.066-1.101-0.197c-0.346-0.131-0.778-0.379-1.3-0.743c-0.291-0.202-0.53-0.303-0.719-0.303
				c-0.157,0-0.324,0.101-0.5,0.303s-0.318,0.51-0.428,0.924h-0.336v-7.759h0.336c0.268,2.183,0.781,3.847,1.542,4.994
				c0.761,1.147,1.58,1.72,2.459,1.72c0.68,0,1.221-0.308,1.623-0.925c0.403-0.616,0.605-1.333,0.605-2.152
				c0-0.485-0.078-0.955-0.232-1.409s-0.39-0.887-0.704-1.296c-0.315-0.409-0.873-0.942-1.674-1.599
				c-1.121-0.919-1.928-1.703-2.418-2.349c-0.491-0.646-0.869-1.369-1.133-2.167c-0.264-0.798-0.396-1.677-0.396-2.637
				c0-1.637,0.361-3.031,1.082-4.183c0.722-1.152,1.631-1.728,2.729-1.728c0.399,0,0.788,0.081,1.163,0.242
				c0.285,0.122,0.633,0.346,1.042,0.674c0.409,0.329,0.695,0.493,0.858,0.493c0.158,0,0.282-0.081,0.373-0.242
				s0.176-0.551,0.255-1.167H394.616z"/>
			<path d="M368.714,353.41h6.365v0.561h-0.318c-0.479,0-0.808,0.083-0.986,0.25c-0.18,0.167-0.307,0.397-0.383,0.689
				c-0.075,0.293-0.113,1.026-0.113,2.198v10.063c0,1.839,0.083,3.057,0.25,3.652c0.167,0.596,0.441,1.091,0.823,1.485
				s0.863,0.591,1.445,0.591c0.667,0,1.235-0.25,1.705-0.75s0.821-1.189,1.055-2.068c0.233-0.879,0.351-2.41,0.351-4.592v-8.38
				c0-0.919-0.058-1.576-0.173-1.97s-0.261-0.667-0.437-0.818c-0.272-0.232-0.658-0.349-1.155-0.349v-0.561h4.265v0.561h-0.254
				c-0.346,0-0.634,0.116-0.864,0.349s-0.397,0.581-0.5,1.046c-0.079,0.323-0.118,0.904-0.118,1.743v7.805
				c0,2.415-0.096,4.158-0.286,5.229c-0.191,1.071-0.656,2.056-1.396,2.955c-0.739,0.899-1.749,1.349-3.027,1.349
				c-1.067,0-1.892-0.237-2.474-0.712c-0.794-0.646-1.354-1.475-1.683-2.485c-0.327-1.01-0.49-2.369-0.49-4.077v-10.063
				c0-1.182-0.04-1.917-0.118-2.205c-0.079-0.288-0.216-0.518-0.409-0.689c-0.194-0.172-0.552-0.252-1.073-0.243V353.41z"/>
			<path d="M390.473,352.94l0.101,6.85h-0.373c-0.176-1.717-0.607-3.099-1.296-4.145c-0.688-1.046-1.432-1.569-2.232-1.569
				c-0.618,0-1.107,0.275-1.469,0.826c-0.36,0.551-0.541,1.185-0.541,1.902c0,0.455,0.064,0.859,0.191,1.212
				c0.176,0.475,0.458,0.945,0.846,1.41c0.285,0.333,0.942,0.924,1.973,1.773c1.443,1.182,2.416,2.298,2.919,3.349
				c0.497,1.051,0.746,2.253,0.746,3.607c0,1.718-0.401,3.195-1.205,4.433c-0.803,1.238-1.823,1.856-3.06,1.856
				c-0.388,0-0.755-0.066-1.101-0.197c-0.346-0.131-0.778-0.379-1.3-0.743c-0.291-0.202-0.53-0.303-0.719-0.303
				c-0.157,0-0.324,0.101-0.5,0.303s-0.318,0.51-0.428,0.924h-0.336v-7.759h0.336c0.268,2.183,0.781,3.847,1.542,4.994
				c0.761,1.147,1.58,1.72,2.459,1.72c0.68,0,1.221-0.308,1.623-0.925c0.403-0.616,0.605-1.333,0.605-2.152
				c0-0.485-0.078-0.955-0.232-1.409s-0.39-0.887-0.704-1.296c-0.315-0.409-0.873-0.942-1.674-1.599
				c-1.121-0.919-1.928-1.703-2.418-2.349c-0.491-0.646-0.869-1.369-1.133-2.167c-0.264-0.798-0.396-1.677-0.396-2.637
				c0-1.637,0.361-3.031,1.082-4.183c0.722-1.152,1.631-1.728,2.729-1.728c0.399,0,0.788,0.081,1.163,0.242
				c0.285,0.122,0.633,0.346,1.042,0.674c0.409,0.329,0.695,0.493,0.858,0.493c0.158,0,0.282-0.081,0.373-0.242
				s0.176-0.551,0.255-1.167H390.473z"/>
		</g>
	</g>
	<g clip-path="url(#SVGID_7_)">
		<linearGradient id="SVGID_14_" gradientUnits="userSpaceOnUse" x1="348.0854" y1="195.6279" x2="348.0854" y2="3.5">
			<stop  offset="0" style="stop-color:#2E3192"/>
			<stop  offset="0.1896" style="stop-color:#2E3393"/>
			<stop  offset="0.3654" style="stop-color:#2D3996"/>
			<stop  offset="0.5358" style="stop-color:#2B449C"/>
			<stop  offset="0.7029" style="stop-color:#2753A5"/>
			<stop  offset="0.866" style="stop-color:#2265B0"/>
			<stop  offset="1" style="stop-color:#1C75BC"/>
		</linearGradient>
		<path fill="url(#SVGID_14_)" stroke="#000000" stroke-width="2.8155" stroke-miterlimit="10" d="M599.799,3.5H347.392H96.372
			c0,0,0,83.844,0,172.562c8.435,10.133,17.447,19.566,34.224,19.566c36.251,0,36.251-44.04,72.502-44.04
			c36.25,0,36.25,44.04,72.499,44.04s36.249-44.04,72.497-44.04c36.249,0,36.249,44.04,72.499,44.04s36.25-44.04,72.499-44.04
			s36.249,44.04,72.497,44.04c16.769,0,25.779-9.424,34.211-19.553C599.799,87.694,599.799,3.5,599.799,3.5z"/>
		<g>
			<path fill="#010101" d="M469.003,110.157c-1.788,0.685-11.788-1.54-22.223-4.946c-18.308-5.976-37.826-7.91-46.447-4.602
				c-3.664,1.406-3.479,2.097,1.59,5.92c3.157,2.38,5.03,5.037,4.164,5.903c-2.098,2.098-30.027,2.068-55.151-0.058
				c-19.031-1.611-20.506-1.393-23.967,3.549c-3.466,4.947-4.045,5.032-9.584,1.403c-6.295-4.125-20.662-7.8-42.34-10.828
				c-7.365-1.029-17.5-3.696-22.521-5.926c-5.122-2.275-9.13-2.972-9.13-1.588c0,4.052-6.248,2.799-10.728-2.15
				c-3.261-3.603-3.478-4.918-0.985-5.993c2.303-0.993,1.667-2.501-2.286-5.419c-3.014-2.223-5.479-4.934-5.479-6.023
				c0-3.298,28.233-15.56,44.314-20.815c20.818-6.805,58.642-11.104,109.07-2.617c11.741,1.985,22.533,1.829,27.305,1.673
				c1.408-0.046,2.291-0.092,2.521-0.083c1.004,0.039,1.826,1.064,1.826,2.278c0,1.213-2.466,1.563-5.479,0.777
				c-5.129-1.339-5.218-1.169-1.391,2.663c6.858,6.868,27.354,5.393,44.605-3.212c14.345-7.154,25.564-9.411,25.564-5.143
				c0,1.189-3.987,7.958-8.859,15.042c-8.621,12.532-8.734,12.984-4.187,16.707c6.195,5.072,13.046,15.078,13.046,19.053
				C472.253,107.476,470.791,109.471,469.003,110.157"/>
			<path fill="#010101" d="M395.174,108.025c-4.844,1.859-4.002,2.558,3.082,2.558c4.059,0,5.234-0.687,3.265-1.905
				C399.825,107.629,396.969,107.336,395.174,108.025z"/>
			<g>
				<radialGradient id="SVGID_15_" cx="347.3696" cy="81.9668" r="87.9402" gradientUnits="userSpaceOnUse">
					<stop  offset="0" style="stop-color:#FFDDA0"/>
					<stop  offset="1" style="stop-color:#FBB040"/>
				</radialGradient>
				<path fill="url(#SVGID_15_)" stroke="#000000" stroke-miterlimit="10" d="M459.086,91.898
					c-8.141-7.615-7.952-12.057,0.994-23.313c12.838-16.155,10.062-16.04-15.989-4.87c-7.393,3.17-18.004,6.875-28.141,6.204
					c-14.926-0.987-30.482-7.859-46.807-10.444c-18.526-2.934-33.887-4.281-34.768-4.281c-3.195,0-6.79,0-8.155,0s-8.474,0-9.844,0
					c-1.4,0-27.567,2.466-28.449,3.348c-0.882,0.881-28.012,4.2-47.793,13.772l-14.215,6.879l7.52,3.888
					c8.114,4.196,9.949,8.633,3.569,8.633c-3.354,0-3.46,0.59-0.697,3.919c2.034,2.452,3.589,2.907,4.152,1.217
					c1.248-3.742,6.737-3.376,15.229,1.016c3.953,2.044,12.39,4.155,18.747,4.69c6.358,0.534,15.388,2.148,20.065,3.587
					c4.678,1.438,10.704,2.607,13.391,2.598l4.886-0.21l25.563-0.027c17.724-0.019,30.792-1.473,42.607-4.742
					c40.521-11.209,39.308-11.154,63.821-2.932c12.243,4.106,22.848,6.877,23.566,6.159
					C470.249,105.081,466.304,98.648,459.086,91.898"/>
				<radialGradient id="SVGID_16_" cx="382.5786" cy="108.002" r="13.2576" gradientUnits="userSpaceOnUse">
					<stop  offset="0" style="stop-color:#FFDDA0"/>
					<stop  offset="1" style="stop-color:#FBB040"/>
				</radialGradient>
				<path fill="url(#SVGID_16_)" stroke="#000000" stroke-miterlimit="10" d="M400.749,110.93c1.186-1.66-4.267-8.06-7.112-6.638
					c-2.844,1.422-29.395,5.926-29.395,5.926s18.016,1.186,21.099,1.186C388.421,111.404,399.326,112.826,400.749,110.93z"/>
				<radialGradient id="SVGID_17_" cx="319.2026" cy="114.252" r="5.6356" gradientUnits="userSpaceOnUse">
					<stop  offset="0" style="stop-color:#FFDDA0"/>
					<stop  offset="1" style="stop-color:#FBB040"/>
				</radialGradient>
				<path fill="url(#SVGID_17_)" stroke="#000000" stroke-miterlimit="10" d="M311.854,111.641c0,0,4.504,0.948,8.06,0.474
					c3.556-0.474,6.638-0.948,6.638-0.948s-2.371,5.926-3.556,6.163C321.81,117.567,311.854,111.641,311.854,111.641z"/>
			</g>
			<path fill="none" stroke="#010101" stroke-width="0.4371" d="M400.749,110.93c1.186-1.66-4.267-8.06-7.112-6.638
				c-2.844,1.422-29.395,5.926-29.395,5.926s18.016,1.186,21.099,1.186C388.421,111.404,399.326,112.826,400.749,110.93z"/>
			<path fill="none" stroke="#010101" stroke-width="0.4371" d="M311.854,111.641c0,0,4.504,0.948,8.06,0.474
				c3.556-0.474,6.638-0.948,6.638-0.948s-2.371,5.926-3.556,6.163C321.81,117.567,311.854,111.641,311.854,111.641z"/>
			<path fill="#0C0E10" d="M252.806,76.368c-0.701,0-1.049-0.733-1.101-1.701c-0.079-1.46,0.5-3.447,1.458-4.231
				c1.012-0.828,2.916-1.531,4.234-1.531c0.756,0,1.319,0.231,1.411,0.802c0.362,2.244-3.263,1.591-4.06,2.387l-0.014,0.029
				l-0.071,0.1C254.084,73.208,255.2,76.368,252.806,76.368 M257.094,67.549c-3.926,0-7.104,3.032-7.104,6.761
				c0,0.131-0.008,0.256,0,0.386c0.214,3.548,3.316,6.361,7.104,6.361c3.926,0,7.118-3.018,7.118-6.747
				S261.02,67.549,257.094,67.549"/>
			<path fill="#010101" d="M285.304,57.119c-0.14-0.042-4.223,1.511-4.268,1.422c7.778,3.23,10.64,6.918,14.8,11.67
				c0.936,1.271,6.963,14.834,6.966,15.032c-2.374-3.937-3.639-11.93-4.917-16.381c-1.73-3.88-3.981-7.015-7.582-8.963
				C288.909,58.976,287.102,57.872,285.304,57.119z"/>
			<path fill="#010101" d="M296.445,56.171c-0.139-0.042-4.222,1.511-4.267,1.422c7.778,3.23,10.64,6.918,14.799,11.67
				c0.937,1.271,6.964,14.835,6.967,15.032c-2.374-3.937-3.638-11.93-4.917-16.381c-1.73-3.88-3.981-7.015-7.582-8.963
				C300.05,58.028,298.244,56.924,296.445,56.171z"/>
			<path fill="#010101" d="M307.848,55.259c-0.133-0.058-4.369,1.008-4.403,0.915c7.349,4.115,9.761,8.111,13.338,13.315
				c0.782,1.372,5.187,15.545,5.167,15.741c-1.898-4.187-2.223-12.272-2.975-16.842c-1.266-4.056-3.136-7.432-6.485-9.786
				C311.213,57.523,309.546,56.216,307.848,55.259z"/>
			<path fill="#010101" d="M318.482,54.777c-0.104-0.061-3.746,0.386-3.765,0.306c5.703,4.12,7.304,7.643,9.752,12.275
				c0.51,1.205,2.727,13.281,2.689,13.439c-1.152-3.628-0.592-10.295-0.749-14.122c-0.639-3.456-1.852-6.415-4.401-8.686
				C321.054,56.976,319.8,55.734,318.482,54.777z"/>
			<path fill="#010101" d="M329.287,54.593c-0.091-0.063-3.736-0.176-3.738-0.243c4.716,4.071,5.55,7.126,6.982,11.188
				c0.249,1.04-0.082,11.087-0.15,11.21c-0.376-3.082,1.548-8.396,2.186-11.509c0.09-2.875-0.481-5.425-2.502-7.591
				C331.342,56.705,330.375,55.538,329.287,54.593z"/>
			<path fill="#010101" d="M341.213,56.232l-3.539-1.231c3.459,5.182,3.448,8.348,3.745,12.645
				c-0.037,1.068-3.035,10.664-3.135,10.764c0.46-3.07,3.731-7.68,5.176-10.509c0.854-2.747,0.982-5.356-0.386-7.983
				C342.63,58.815,342.009,57.434,341.213,56.232z"/>
			<path fill="#010101" d="M350.695,56.47l-3.538-1.231c3.459,5.181,3.448,8.348,3.745,12.645
				c-0.037,1.068-3.036,10.663-3.135,10.764c0.459-3.071,3.731-7.68,5.176-10.509c0.854-2.748,0.982-5.357-0.387-7.983
				C352.113,59.053,351.492,57.671,350.695,56.47z"/>
			<path fill="#010101" d="M363.116,57.729c-0.05-0.098-3.222-1.898-3.193-1.958c2.273,5.8,1.587,8.892,0.96,13.153
				c-0.265,1.036-5.243,9.769-5.361,9.847c1.104-2.901,5.285-6.706,7.301-9.162c1.421-2.502,2.104-5.023,1.326-7.882
				C363.951,60.555,363.638,59.072,363.116,57.729z"/>
			<path fill="#010101" d="M371.996,58.989l-2.94-1.796c2.093,5.322,1.46,8.159,0.883,12.068c-0.243,0.951-4.826,8.963-4.935,9.035
				c1.017-2.662,4.865-6.153,6.72-8.406c1.309-2.295,1.937-4.609,1.222-7.232C372.763,61.583,372.475,60.222,371.996,58.989z"/>
			<path fill="#010101" d="M382.671,61.87l-2.643-1.96c1.446,5.05,0.532,7.541-0.444,11.008c-0.338,0.832-5.618,7.548-5.73,7.6
				c1.267-2.29,5.353-5.003,7.385-6.828c1.508-1.924,2.362-3.944,1.954-6.396C383.133,64.302,383.002,63.04,382.671,61.87z"/>
			<path fill="#010101" d="M390.334,64.282l-2.311-1.461c1.265,3.763,0.465,5.62-0.389,8.204c-0.294,0.62-4.911,5.625-5.011,5.664
				c1.108-1.706,4.682-3.728,6.457-5.088c1.319-1.434,2.066-2.939,1.71-4.767C390.74,66.094,390.625,65.153,390.334,64.282z"/>
			<path fill="#010101" d="M398.22,66.224l-2.045-1.286c1.119,3.313,0.411,4.947-0.344,7.222c-0.262,0.545-4.349,4.952-4.436,4.986
				c0.98-1.502,4.144-3.282,5.716-4.479c1.167-1.263,1.828-2.587,1.513-4.196C398.579,67.819,398.477,66.991,398.22,66.224z"/>
			<path fill="#010101" d="M405.22,68.066l-1.515-0.961c0.829,2.477,0.305,3.699-0.255,5.399c-0.193,0.408-3.219,3.702-3.284,3.728
				c0.726-1.123,3.068-2.454,4.232-3.349c0.865-0.944,1.354-1.934,1.12-3.137C405.485,69.259,405.41,68.64,405.22,68.066z"/>
			<path fill="#010101" d="M410.513,69.417l-1.182-0.787c0.646,2.026,0.237,3.026-0.2,4.417c-0.15,0.333-2.514,3.029-2.564,3.049
				c0.567-0.918,2.396-2.008,3.306-2.739c0.675-0.772,1.058-1.583,0.875-2.567C410.72,70.393,410.662,69.886,410.513,69.417z"/>
			<path fill="#010101" d="M270.981,101.668c3.872,0.712,4.425,0.475,4.978,0.237c0.529-0.227,1.106-0.316,1.659-0.474
				c3.692-1.055,6.772-4.774,8.297-7.822c1.567-3.134,2.608-6.571,2.608-10.193c0-1.502-2.126-4.005-4.268-5.926
				c-1.177,0.973,0.948,3.476,0.948,4.978c0,3.622-1.041,7.06-2.607,10.193c-1.524,3.049-4.604,6.768-8.297,7.823
				c-0.553,0.158-1.131,0.248-1.659,0.474C272.086,101.194,271.534,101.431,270.981,101.668z"/>
			<path fill="#010101" d="M282.517,102.438c3.931-0.21,4.414-0.57,4.896-0.929c0.462-0.344,1.002-0.565,1.503-0.848
				c3.345-1.886,5.474-6.221,6.246-9.541c0.794-3.412,1.005-6.998,0.161-10.521c-0.35-1.461-3-3.399-5.53-4.769
				c-0.918,1.221,1.732,3.16,2.082,4.62c0.844,3.523,0.633,7.108-0.161,10.521c-0.772,3.32-2.901,7.654-6.246,9.541
				c-0.501,0.282-1.042,0.504-1.503,0.848C283.483,101.719,283,102.078,282.517,102.438z"/>
			<path fill="#010101" d="M428.967,92.209c1.22-3.558,1.83-15.96,0-19.417c6.506-1.728,24.602-7.726,24.602-7.726
				s-19.112,9.251-18.706,9.251c0.407,0,15.656-2.44,14.945-1.525c-0.713,0.915-13.928,4.981-13.928,4.981
				s13.826,0.813,13.113,1.118c-0.712,0.305-12.504,2.44-12.504,2.44s13.217,1.627,12.81,2.033
				c-0.407,0.407-13.928,1.525-13.114,1.729c0.102,0.102,13.928,5.896,13.114,5.896s-14.652-1.716-14.64-1.626
				c0.102-0.102,20.027,9.353,19.316,9.353C453.264,98.715,429.272,92.311,428.967,92.209z"/>
			<path fill="#010101" d="M307.688,90.175c2.948-1.423,5.592-0.406,8.234,0.102c2.644,0.509,7.319-3.151,9.455-2.439
				c2.135,0.712,4.065,1.83,10.572,2.236c6.506,0.407,9.759,0.203,9.759,0.203s0.509,4.88-1.932,6.202
				c-2.439,1.321-7.421,2.542-10.471,3.863c-3.05,1.322-6.1,2.542-8.438,3.66s-11.284,1.83-12.911,1.626
				c-1.626-0.203-3.456-4.575-4.981-5.287c-1.524-0.711-3.558-2.44-2.135-3.049c1.424-0.61,4.981-1.22,5.795-0.102
				s2.644,4.168,4.27,4.372c1.627,0.204-0.305-5.591-0.711-6.709c-0.407-1.118-5.389-2.135-6.71-2.236
				C306.163,92.514,307.688,89.972,307.688,90.175z M321.92,101.562c2.847-2.948,5.592-8.641,6.913-8.844s14.231-0.813,14.028,0
				c-0.203,0.813-6.099,3.456-8.233,4.981C332.493,99.223,322.225,101.358,321.92,101.562z M318.871,92.616
				c4.27-0.813,9.353-2.745,7.523-0.813c-1.83,1.932-6.913,3.964-7.32,3.964c-0.406,0,4.271,0.305,4.066,0.813
				c-0.203,0.508-3.354,2.949-4.27,3.66c-0.915,0.712-1.932-2.542-1.83-4.575C317.143,93.632,318.972,92.412,318.871,92.616z"/>
		</g>
	</g>
	<use xlink:href="#SVGID_1_"  overflow="visible" fill="none" stroke="#000000" stroke-width="7" stroke-miterlimit="10"/>
</g>
<radialGradient id="SVGID_18_" cx="348.0854" cy="578.0225" r="180.5935" gradientUnits="userSpaceOnUse">
	<stop  offset="0.6316" style="stop-color:#FFFFFF"/>
	<stop  offset="0.7049" style="stop-color:#F4F5F5"/>
	<stop  offset="0.8549" style="stop-color:#EAEBEB"/>
	<stop  offset="1" style="stop-color:#E6E7E8"/>
</radialGradient>
<path display="none" fill="url(#SVGID_18_)" stroke="#000000" stroke-width="3" stroke-miterlimit="10" d="M560.799,496.128
	c0,0-35,101-212.714,101s-212.714-101-212.714-101s-32,43-29,61s64.428,102.788,241.714,102.788s238.714-84.788,241.714-102.788
	S560.799,496.128,560.799,496.128z"/>
<g display="none">
	<path fill="none" d="M106.372,557.128c3,18,64.428,102.788,241.714,102.788s238.714-84.788,241.714-102.788"/>
	<path display="inline" d="M144.449,560.296l1.968-0.403l1.307,1.382l10.12-7.123c-0.281-0.464-0.494-0.771-0.636-0.922
		c-1.142-1.208-2.714-1.67-4.716-1.386c-2.002,0.285-3.851,1.229-5.546,2.831l-0.217,0.205l-3.55-0.805
		c6.417-5.409,12.402-5.177,17.956,0.697l0.579,0.612l-11.74,8.269l6.607,6.987l5.268-3.715c3.463-2.445,6.696-3.861,9.698-4.247
		c3.002-0.386,5.338,0.304,7.009,2.07c0.657,0.695,1.113,1.437,1.369,2.225l-3.231,1.21c0.174-1.638-0.038-2.773-0.638-3.408
		c-0.757-0.8-1.822-1.005-3.195-0.614c-1.374,0.391-3.327,1.461-5.86,3.213l-13.311,9.153c-2.855,1.971-4.686,3.337-5.492,4.099
		c-1.064,1.007-1.197,1.933-0.397,2.778c0.35,0.37,0.906,0.845,1.669,1.425l-1.116,0.776l-6.788-4.415l13.603-9.559l-6.606-6.987
		l-2.102,1.473c-3.333,2.336-6.61,3.646-9.833,3.935c-3.223,0.287-5.727-0.514-7.511-2.4c-1.321-1.397-1.842-3.128-1.563-5.193
		l3.732-0.525c-1.02,2.337-0.874,4.2,0.44,5.59c1.892,2,5.343,1.24,10.353-2.281l4.235-2.975L144.449,560.296z"/>
	<path display="inline" d="M165.587,599.766l4.582-4.81c-4.404,2.253-7.684,2.618-9.839,1.095c-1.502-1.061-2.191-2.624-2.069-4.688
		c0.123-2.064,1.034-4.299,2.733-6.703c1.059-1.499,3.043-3.763,5.954-6.793c2.911-3.029,5.764-5.803,8.561-8.32
		c-0.367-0.398-0.635-0.658-0.805-0.778c-1.4-0.989-3.049-1.131-4.947-0.426c-1.898,0.706-3.565,2.075-5.002,4.107l-3.639-0.089
		c5.208-6.579,11.071-7.565,17.588-2.961l0.917,0.647c-3.12,2.777-6.236,5.783-9.349,9.019c-3.113,3.234-5.281,5.718-6.504,7.448
		c-1.33,1.882-2.099,3.547-2.307,4.993c-0.208,1.447,0.176,2.516,1.152,3.205c1.026,0.726,2.467,0.838,4.323,0.337
		c1.855-0.501,3.911-1.564,6.168-3.192l15.008-15.81l3.197,1.605l-4.92,4.91l-10.637,11.191c-1.948,2.055-3.16,3.419-3.636,4.093
		c-0.887,1.255-0.766,2.281,0.363,3.078c0.399,0.282,0.949,0.584,1.651,0.905l-0.954,0.998L165.587,599.766z"/>
	<path display="inline" d="M175.698,603.379l3.374-1.85c-0.086,2.582,0.712,4.281,2.395,5.098c1.103,0.535,2.391,0.369,3.862-0.498
		c1.471-0.867,2.874-2.282,4.207-4.244l11.497-16.954c-0.427-0.333-0.734-0.545-0.921-0.636c-1.542-0.748-3.193-0.62-4.951,0.385
		c-1.758,1.006-3.18,2.628-4.266,4.868l-3.605,0.504c1.928-3.476,4.317-5.747,7.168-6.815c2.851-1.068,5.87-0.829,9.058,0.718
		l1.136,0.551c-1.468,7.431-3.493,14.82-6.075,22.168l19.061-15.87l3.234,0.976l-4.055,5.646l-9.894,14.576
		c-0.873,1.301-1.511,2.366-1.915,3.198c-0.546,1.126-0.319,1.932,0.681,2.417c0.496,0.24,1.193,0.492,2.094,0.755l-0.778,1.141
		l-7.84-1.479l15.756-23.235l-19.798,16.39l-1.593-0.394l0.27-0.557c2.427-5.005,4.548-11.651,6.363-19.941l-4.949,7.275
		c-6.089,8.983-11.49,12.332-16.202,10.047C177.366,606.82,176.262,605.406,175.698,603.379z"/>
	<path display="inline" d="M209.681,619.514l2.912-2.09c0.281,2.282,1.181,3.676,2.7,4.181c1.449,0.482,3.087,0.108,4.914-1.12
		c1.827-1.229,4.328-3.654,7.503-7.275l11.39-12.961c-1.017-0.533-1.909-0.928-2.678-1.184c-2.061-0.686-3.885-0.508-5.474,0.532
		c-1.588,1.039-2.819,2.87-3.69,5.491l-3.553,1.002c1.032-2.478,2.249-4.406,3.649-5.787c1.552-1.539,3.095-2.489,4.627-2.851
		c1.533-0.36,3.545-0.254,6.037,0.32c0.497,0.12,1.251,0.288,2.263,0.505l3.266,0.253l-2.052,6.812l-3.799,14.286
		c-0.885,3.321-1.32,5.558-1.304,6.711c0.016,1.153,0.492,1.886,1.429,2.197c0.167,0.056,0.758,0.207,1.771,0.453l-0.637,1.272
		l-7.3-0.719l2.713-10.184l-8.06-2.681c-2.788,3.181-5.123,5.278-7.004,6.294c-1.882,1.016-3.784,1.204-5.707,0.564
		C211.774,622.931,210.468,621.59,209.681,619.514z M227.444,615.392l7.321,2.436l4.116-15.536L227.444,615.392z"/>
	<path display="inline" d="M240.614,629.348l2.844-2.565c0.529,2.534,1.697,3.999,3.504,4.396c1.208,0.265,2.425-0.192,3.652-1.373
		c1.227-1.18,2.261-2.886,3.102-5.119l7.217-19.148c-0.494-0.224-0.847-0.36-1.06-0.406c-1.665-0.365-3.234,0.146-4.709,1.533
		s-2.479,3.298-3.012,5.729l-3.388,1.332c1.01-3.638,2.762-6.363,5.256-8.175c2.493-1.813,5.272-2.383,8.337-1.71l1.461,0.32
		c0.241,3.897,0.758,8.11,1.551,12.64l0.9,5.134c0.639,3.534,1.054,6.37,1.245,8.509l4.394-11.662
		c1.51-4.023,3.261-7.008,5.251-8.952s4.041-2.685,6.152-2.222c0.751,0.165,1.444,0.521,2.08,1.067l-1.713,2.573
		c-0.69-1.17-1.451-1.847-2.283-2.029c-2.192-0.481-4.237,1.809-6.134,6.868l-5.727,15.192l-2.069,6.013l-2.15,0.489
		c-0.021-1.649-0.443-4.815-1.267-9.496l-1.746-9.864c-0.464-2.636-0.813-4.977-1.044-7.022l-2.917,7.771
		c-1.854,4.909-3.944,8.535-6.272,10.879c-2.328,2.344-4.735,3.243-7.222,2.697C243.102,632.362,241.69,631.23,240.614,629.348z"/>
	<path display="inline" d="M273.025,638.098l2.777-2.779l1.033,0.154c1.171,0.174,2.115-0.221,2.832-1.186s1.524-2.955,2.425-5.971
		l5.078-16.848l-4.178-0.622l2.7-2.791l10.036,1.495l-2.809,2.774l-2.513-0.374l-4.399,14.618c-1.349,4.474-3.59,7.671-6.723,9.592
		l5.965,1.104l-2.685,2.793L273.025,638.098z"/>
	<path display="inline" d="M309.621,640.695l2.369-3.01c0.951,2.407,2.35,3.652,4.198,3.737c1.235,0.056,2.357-0.602,3.367-1.973
		c1.009-1.37,1.738-3.228,2.188-5.571l3.865-20.094c-0.524-0.138-0.895-0.212-1.113-0.222c-1.702-0.078-3.163,0.692-4.38,2.31
		c-1.218,1.618-1.883,3.67-1.997,6.157l-3.113,1.887c0.379-3.756,1.644-6.738,3.794-8.947c2.149-2.209,4.792-3.242,7.927-3.099
		l1.495,0.067c0.898,3.801,2.122,7.865,3.672,12.193l1.757,4.907c1.229,3.375,2.119,6.1,2.67,8.175l2.352-12.238
		c0.807-4.222,2.025-7.459,3.658-9.713c1.631-2.254,3.526-3.331,5.686-3.232c0.769,0.034,1.512,0.269,2.23,0.699l-1.252,2.827
		c-0.879-1.037-1.744-1.575-2.595-1.614c-2.242-0.102-3.869,2.501-4.881,7.809l-3.067,15.944l-1.02,6.276l-2.036,0.847
		c-0.3-1.622-1.253-4.671-2.859-9.144l-3.393-9.426c-0.905-2.519-1.645-4.767-2.22-6.744l-1.558,8.153
		c-0.994,5.152-2.44,9.08-4.336,11.785c-1.897,2.704-4.117,3.998-6.66,3.883C312.583,643.244,311,642.368,309.621,640.695z"/>
	<path display="inline" d="M342.983,643.98l2.307-3.18l1.045-0.011c1.185-0.011,2.055-0.549,2.61-1.614s1.043-3.158,1.46-6.277
		l2.373-17.436l-4.224,0.041l2.229-3.18l10.146-0.098l-2.338,3.181l-2.541,0.024l-2.052,15.128
		c-0.632,4.63-2.344,8.139-5.137,10.526l6.064,0.155l-2.214,3.18L342.983,643.98z"/>
	<path display="inline" d="M356.792,643.951l2.096-3.237l0.903-0.033c1.235-0.046,2.12-0.569,2.655-1.571s0.958-2.918,1.27-5.748
		l1.187-10.976c0.348-3.244,1.324-5.946,2.929-8.104c1.605-2.159,3.477-3.278,5.616-3.357c0.955-0.035,2.078,0.394,3.369,1.285
		l-0.583,5.338l-0.996,0.037c0.018-0.37,0.021-0.677,0.013-0.919c-0.098-2.644-1.144-3.929-3.137-3.855
		c-1.963,0.072-3.191,2.417-3.687,7.033l-1.071,9.861c-0.317,2.958-0.828,5.24-1.533,6.847s-1.84,3.05-3.404,4.332l8.714-0.129
		c2.503-0.093,4.675-0.97,6.516-2.633l-0.174,1.608c-1.39,1.816-2.44,2.983-3.154,3.501s-1.673,0.798-2.878,0.843L356.792,643.951z"
		/>
	<path display="inline" d="M400.32,639.624l1.666-3.174c1.274,1.914,2.704,2.757,4.287,2.527c1.512-0.219,2.809-1.286,3.892-3.204
		c1.082-1.917,2.23-5.206,3.446-9.866l4.372-16.691c-1.147-0.021-2.122,0.026-2.924,0.143c-2.149,0.311-3.701,1.287-4.655,2.929
		s-1.233,3.829-0.838,6.563l-2.727,2.488c-0.188-2.677,0.035-4.946,0.669-6.809c0.697-2.071,1.65-3.612,2.858-4.622
		c1.208-1.009,3.055-1.815,5.54-2.42c0.497-0.115,1.247-0.303,2.249-0.563l3.033-1.237l1.219,7.008l3.008,14.474
		c0.696,3.365,1.311,5.561,1.842,6.584c0.531,1.022,1.285,1.464,2.263,1.322c0.175-0.025,0.771-0.154,1.786-0.388l0.001,1.423
		l-6.848,2.63l-2.139-10.32l-8.407,1.217c-1.066,4.093-2.213,7.015-3.44,8.766c-1.227,1.752-2.843,2.772-4.848,3.063
		C403.722,641.74,401.955,641.126,400.32,639.624z M414.351,627.978l7.636-1.104l-3.284-15.733L414.351,627.978z"/>
	<path display="inline" d="M432.211,636.558l1.473-3.563l0.883-0.197c1.206-0.27,1.981-0.945,2.326-2.027
		c0.344-1.082,0.412-3.043,0.204-5.883l-0.827-11.009c-0.247-3.254,0.223-6.088,1.408-8.502c1.187-2.415,2.823-3.854,4.913-4.321
		c0.933-0.208,2.115,0.009,3.547,0.651l0.396,5.355l-0.974,0.218c-0.051-0.368-0.102-0.67-0.154-0.906
		c-0.576-2.582-1.838-3.656-3.785-3.222c-1.917,0.428-2.699,2.956-2.348,7.585l0.738,9.893c0.225,2.967,0.137,5.304-0.265,7.012
		c-0.401,1.707-1.255,3.333-2.561,4.878l8.545-1.71c2.444-0.545,4.421-1.803,5.93-3.771l0.12,1.612
		c-1.035,2.039-1.857,3.377-2.465,4.016c-0.608,0.639-1.501,1.089-2.677,1.352L432.211,636.558z"/>
	<path display="inline" d="M453.151,631.782l1.396-3.673l1.005-0.282c1.141-0.32,1.84-1.067,2.099-2.241
		c0.258-1.173,0.181-3.32-0.231-6.44l-2.266-17.449l-4.066,1.143l1.321-3.651l9.768-2.746l-1.426,3.682l-2.446,0.688l1.973,15.139
		c0.601,4.633-0.135,8.468-2.207,11.503l5.895-1.436l-1.306,3.647L453.151,631.782z"/>
	<path display="inline" d="M469.184,627.247l1.138-3.758l0.251-0.087c1.492-0.518,2.373-1.298,2.645-2.34
		c0.271-1.041,0.114-3.071-0.471-6.088l-3.708-19.342c-2.021,0.702-3.398,2.012-4.13,3.929c-0.731,1.918-0.683,4.073,0.147,6.465
		l0.153,0.443l-2.199,2.887c-1.167-4.157-1.043-7.573,0.372-10.247c1.415-2.675,4.174-4.724,8.277-6.146l8.658-3.004l0.669,6.159
		l-0.928,0.322c-0.104-0.552-0.228-1.035-0.372-1.452c-0.368-1.062-1.066-1.64-2.095-1.735c-1.028-0.095-2.716,0.265-5.062,1.079
		l-0.457,0.158l2.433,12.526l6.567-2.278l-0.782,2.597c-2.363,0.384-3.948,0.716-4.753,0.995l-0.736,0.255l0.445,2.281
		c0.504,2.562,0.652,4.679,0.446,6.351c-0.206,1.673-0.841,3.482-1.902,5.43l7.2-2.07l1.567-0.476c1.6-0.555,2.838-1.82,3.715-3.796
		l0.324,1.694c-0.903,3.009-2.121,4.778-3.652,5.31l-0.684,0.215L469.184,627.247z"/>
	<path display="inline" d="M489.076,618.379l0.683-3.769c1.968,1.682,3.788,2.127,5.46,1.336c1.117-0.528,1.802-1.635,2.051-3.318
		c0.25-1.684,0.025-3.666-0.675-5.948l-5.994-19.564c-0.528,0.124-0.891,0.232-1.088,0.325c-1.541,0.729-2.47,2.093-2.788,4.093
		c-0.319,2,0.054,4.125,1.118,6.375l-1.867,3.125c-1.424-3.496-1.703-6.724-0.838-9.683c0.865-2.958,2.716-5.108,5.553-6.45
		l1.353-0.64c2.573,2.938,5.559,5.956,8.955,9.055l3.851,3.513c2.667,2.405,4.729,4.396,6.188,5.973l-3.653-11.915
		c-1.264-4.107-1.703-7.539-1.316-10.295c0.387-2.755,1.557-4.595,3.51-5.519c0.695-0.329,1.462-0.471,2.299-0.427l0.217,3.084
		c-1.262-0.505-2.277-0.575-3.048-0.211c-2.028,0.96-2.247,4.021-0.655,9.186l4.756,15.524l2.038,6.022l-1.402,1.702
		c-1.025-1.293-3.295-3.54-6.809-6.741l-7.411-6.738c-1.979-1.803-3.686-3.442-5.12-4.92l2.441,7.933
		c1.534,5.019,2.097,9.167,1.688,12.444c-0.409,3.278-1.765,5.461-4.066,6.549C492.887,619.244,491.078,619.211,489.076,618.379z"/>
	<path display="inline" d="M539.341,593.697l-2.894-5.979c0.563,4.915-0.248,8.113-2.431,9.597c-1.521,1.033-3.227,1.13-5.117,0.29
		c-1.89-0.841-3.661-2.479-5.316-4.914c-1.031-1.519-2.454-4.172-4.268-7.961c-1.814-3.789-3.409-7.436-4.783-10.938
		c-0.503,0.204-0.84,0.364-1.012,0.481c-1.418,0.963-2.13,2.457-2.137,4.482c-0.006,2.024,0.69,4.066,2.089,6.126l-1.361,3.376
		c-4.33-7.188-3.195-13.023,3.406-17.508l0.928-0.631c1.504,3.896,3.224,7.87,5.159,11.921s3.499,6.953,4.689,8.706
		c1.295,1.906,2.583,3.211,3.865,3.914c1.281,0.703,2.416,0.719,3.404,0.047c1.04-0.706,1.651-2.016,1.835-3.929
		c0.183-1.912-0.092-4.211-0.822-6.896l-9.531-19.604l2.627-2.43l2.869,6.332l6.741,13.89c1.239,2.546,2.092,4.16,2.555,4.843
		c0.863,1.271,1.866,1.518,3.01,0.741c0.404-0.274,0.88-0.684,1.427-1.228l0.601,1.243L539.341,593.697z"/>
	<path display="inline" d="M546.658,585.684l-0.762-3.771c2.439,0.851,4.3,0.595,5.579-0.77c0.839-0.894,1.063-2.173,0.674-3.836
		c-0.391-1.662-1.324-3.422-2.801-5.278l-12.766-16.02c-0.446,0.309-0.74,0.539-0.882,0.69c-1.174,1.25-1.542,2.863-1.105,4.841
		c0.438,1.978,1.563,3.817,3.378,5.521l-0.591,3.592c-2.744-2.875-4.202-5.832-4.374-8.872c-0.172-3.039,0.955-5.851,3.38-8.435
		l0.863-0.92c6.658,3.611,13.11,7.743,19.357,12.395l-9.48-22.919l1.894-2.797l4.184,5.551l10.974,13.782
		c0.981,1.22,1.81,2.146,2.483,2.779c0.913,0.856,1.749,0.879,2.511,0.068c0.376-0.401,0.824-0.992,1.343-1.774l0.857,1.082
		l-3.744,7.046l-17.496-21.955l9.758,23.777l-0.85,1.404l-0.451-0.424c-4.056-3.806-9.771-7.809-17.146-12.008l5.474,6.89
		c6.766,8.486,8.356,14.639,4.772,18.457C550.44,585.115,548.762,585.749,546.658,585.684z"/>
</g>
</svg>
