<!DOCTYPE svg PUBLIC "-//W3C//DTD SVG 1.1//EN" "http://www.w3.org/Graphics/SVG/1.1/DTD/svg11.dtd" [
	<!ENTITY ns_flows "http://ns.adobe.com/Flows/1.0/">
]><svg xmlns="http://www.w3.org/2000/svg" width="524" height="657" viewBox="0 0 524 657"><linearGradient id="a" gradientUnits="userSpaceOnUse" x1="37.789" y1="513.593" x2="92.683" y2="534.665"><stop offset="0" stop-color="#8B5E3C"/><stop offset=".497" stop-color="#FDC060"/></linearGradient><linearGradient id="b" gradientUnits="userSpaceOnUse" x1="430.929" y1="534.665" x2="485.824" y2="513.593"><stop offset=".503" stop-color="#FDC060"/><stop offset="1" stop-color="#8B5E3C"/></linearGradient><linearGradient id="c" gradientUnits="userSpaceOnUse" x1="1.5" y1="459.417" x2="107.092" y2="459.417"><stop offset="0" stop-color="#BCBEC0"/><stop offset=".333" stop-color="#E6E7E8"/></linearGradient><linearGradient id="d" gradientUnits="userSpaceOnUse" x1="416.52" y1="459.417" x2="522.112" y2="459.417"><stop offset=".632" stop-color="#E6E7E8"/><stop offset=".687" stop-color="#DBDCDD"/><stop offset=".793" stop-color="#CACBCD"/><stop offset=".898" stop-color="#BFC1C3"/><stop offset="1" stop-color="#BCBEC0"/></linearGradient><radialGradient id="e" cx="261.806" cy="303.357" r="276.834" gradientUnits="userSpaceOnUse"><stop offset=".389" stop-color="#FFF"/><stop offset=".705" stop-color="#F4F5F5"/><stop offset=".855" stop-color="#EAEBEB"/><stop offset="1" stop-color="#E7E7E7"/></radialGradient><path fill="url(#e)" d="M261.114 3.5H10.092v258.714c0 161.08 140 299 251.714 341 118.286-39 251.714-175.92 251.714-337V3.5H261.114z"/><path fill="none" stroke="#231F20" stroke-width="7" stroke-miterlimit="10" d="M261.114 3.5H10.092v258.714c0 161.08 140 299 251.714 341 118.286-39 251.714-175.92 251.714-337V3.5H261.114z"/><path fill="#231F20" d="M114.136 64.583V53.75h-9.333v10.833H84.136V43.917H94.97v-9.334H84.136V23.917h-9v10.666H64.303v9.334h10.833v20.666H54.47V53.75h-9.333v10.833H34.47v9h10.667v10.834h9.333V73.583h20.666v40.667l4.334 30.417 4.666-30.417V73.583h20.667v10.834h9.333V73.583h10.668v-9M294.135 64.583V53.75h-9.332v10.833h-20.667V43.917h10.834v-9.334h-10.834V23.917h-9v10.666h-10.833v9.334h10.833v20.666H234.47V53.75h-9.333v10.833H214.47v9h10.667v10.834h9.333V73.583h20.666v40.667l4.334 30.417 4.666-30.417V73.583h20.667v10.834h9.332V73.583h10.67v-9M484.136 64.583V53.75h-9.332v10.833h-20.668V43.917h10.834v-9.334h-10.834V23.917h-9v10.666h-10.832v9.334h10.832v20.666H424.47V53.75h-9.332v10.833H404.47v9h10.668v10.834h9.332V73.583h20.666v40.667l4.334 30.417 4.666-30.417V73.583h20.668v10.834h9.332V73.583h10.668v-9M294.135 494.583V483.75h-9.332v10.833h-20.667v-20.667h10.834v-9.332h-10.834v-10.668h-9v10.668h-10.833v9.332h10.833v20.667H234.47V483.75h-9.333v10.833H214.47v9h10.667v10.834h9.333v-10.834h20.666v40.667l4.334 30.416 4.666-30.416v-40.667h20.667v10.834h9.332v-10.834h10.67v-9M154.136 344.583V333.75h-9.333v10.833h-20.667v-20.666h10.834v-9.334h-10.834v-10.666h-9v10.666h-10.833v9.334h10.833v20.666H94.47V333.75h-9.333v10.833H74.47v9h10.667v10.834h9.333v-10.834h20.666v40.666l4.334 30.416 4.666-30.417v-40.667h20.667v10.834h9.333v-10.834h10.668v-9M444.136 344.583V333.75h-9.332v10.833h-20.668v-20.666h10.834v-9.334h-10.834v-10.666h-9v10.666h-10.832v9.334h10.832v20.666H384.47V333.75h-9.332v10.833H364.47v9h10.668v10.834h9.332v-10.834h20.666v40.666l4.334 30.416 4.666-30.417v-40.667h20.668v10.834h9.332v-10.834h10.668v-9"/><radialGradient id="f" cx="379.637" cy="184.157" r="76.226" gradientUnits="userSpaceOnUse"><stop offset=".512" stop-color="#ED1C24"/><stop offset=".626" stop-color="#DF1A22"/><stop offset=".845" stop-color="#C0151B"/><stop offset="1" stop-color="#A70E13"/></radialGradient><path fill="url(#f)" stroke="#231F20" stroke-width="4" stroke-miterlimit="10" d="M379.637 109.866l18.44 56.753h59.674l-48.276 35.074 18.44 56.754-48.277-35.075-48.277 35.075 18.44-56.754-48.277-35.075h59.674z"/><radialGradient id="g" cx="149.637" cy="184.157" r="76.226" gradientUnits="userSpaceOnUse"><stop offset=".512" stop-color="#ED1C24"/><stop offset=".626" stop-color="#DF1A22"/><stop offset=".845" stop-color="#C0151B"/><stop offset="1" stop-color="#A70E13"/></radialGradient><path fill="url(#g)" stroke="#231F20" stroke-width="4" stroke-miterlimit="10" d="M149.637 109.866l18.44 56.753h59.674l-48.276 35.074 18.44 56.754-48.277-35.075-48.277 35.075 18.44-56.754-48.277-35.075h59.674z"/><radialGradient id="h" cx="264.637" cy="348.157" r="76.226" gradientUnits="userSpaceOnUse"><stop offset=".512" stop-color="#ED1C24"/><stop offset=".626" stop-color="#DF1A22"/><stop offset=".845" stop-color="#C0151B"/><stop offset="1" stop-color="#A70E13"/></radialGradient><path fill="url(#h)" stroke="#231F20" stroke-width="4" stroke-miterlimit="10" d="M264.637 273.866l18.44 56.753h59.674l-48.276 35.074 18.44 56.753-48.277-35.075-48.277 35.075 18.44-56.753-48.277-35.075h59.674z"/><radialGradient id="i" cx="261.806" cy="573.812" r="180.594" gradientUnits="userSpaceOnUse"><stop offset=".632" stop-color="#FFF"/><stop offset=".705" stop-color="#F4F5F5"/><stop offset=".855" stop-color="#EAEBEB"/><stop offset="1" stop-color="#E6E7E8"/></radialGradient></svg>