<?xml version="1.0" encoding="utf-8"?>
<!-- Generator: Adobe Illustrator 15.0.0, SVG Export Plug-In  -->
<!DOCTYPE svg PUBLIC "-//W3C//DTD SVG 1.1//EN" "http://www.w3.org/Graphics/SVG/1.1/DTD/svg11.dtd" [
	<!ENTITY ns_flows "http://ns.adobe.com/Flows/1.0/">
]>
<svg version="1.1"
	 xmlns="http://www.w3.org/2000/svg" xmlns:xlink="http://www.w3.org/1999/xlink" xmlns:a="http://ns.adobe.com/AdobeSVGViewerExtensions/3.0/"
	 x="0px" y="0px" width="524px" height="657px" viewBox="0 0 524 657" enable-background="new 0 0 524 657" xml:space="preserve">
<defs>
</defs>
<linearGradient id="SVGID_5_" gradientUnits="userSpaceOnUse" x1="37.7886" y1="513.5928" x2="92.6829" y2="534.6647">
	<stop  offset="0" style="stop-color:#8B5E3C"/>
	<stop  offset="0.497" style="stop-color:#FDC060"/>
</linearGradient>
<path display="none" fill="url(#SVGID_5_)" stroke="#000000" stroke-width="3" stroke-miterlimit="10" d="M109.092,491.917l-72,70
	c0,0-13.53,0.171-11-15c2.529-15.171,23-55,23-55s1-8,21-9S109.092,491.917,109.092,491.917z"/>
<linearGradient id="SVGID_6_" gradientUnits="userSpaceOnUse" x1="430.9292" y1="534.665" x2="485.8235" y2="513.5931">
	<stop  offset="0.503" style="stop-color:#FDC060"/>
	<stop  offset="1" style="stop-color:#8B5E3C"/>
</linearGradient>
<path display="none" fill="url(#SVGID_6_)" stroke="#000000" stroke-width="3" stroke-miterlimit="10" d="M414.52,491.917l72,70
	c0,0,13.529,0.171,11-15s-23-55-23-55s-1-8-21-9S414.52,491.917,414.52,491.917z"/>
<linearGradient id="SVGID_7_" gradientUnits="userSpaceOnUse" x1="1.5" y1="459.417" x2="107.0923" y2="459.417">
	<stop  offset="0" style="stop-color:#BCBEC0"/>
	<stop  offset="0.3333" style="stop-color:#E6E7E8"/>
</linearGradient>
<path display="none" fill="url(#SVGID_7_)" stroke="#000000" stroke-width="3" stroke-miterlimit="10" d="M2.092,454.917
	c0-18,7.316-28,35-28s51,8,51,8l19,57c0,0-71.883-16.141-90.941-9.07S2.092,454.917,2.092,454.917z"/>
<linearGradient id="SVGID_8_" gradientUnits="userSpaceOnUse" x1="416.52" y1="459.417" x2="522.1118" y2="459.417">
	<stop  offset="0.6316" style="stop-color:#E6E7E8"/>
	<stop  offset="0.6867" style="stop-color:#DBDCDD"/>
	<stop  offset="0.7932" style="stop-color:#CACBCD"/>
	<stop  offset="0.8984" style="stop-color:#BFC1C3"/>
	<stop  offset="1" style="stop-color:#BCBEC0"/>
</linearGradient>
<path display="none" fill="url(#SVGID_8_)" stroke="#000000" stroke-width="3" stroke-miterlimit="10" d="M521.52,454.917
	c0-18-7.316-28-35-28s-51,8-51,8l-19,57c0,0,71.883-16.141,90.941-9.07S521.52,454.917,521.52,454.917z"/>
<path display="none" fill="#FBB040" stroke="#000000" stroke-width="3" stroke-miterlimit="10" d="M2.092,454.917c0,0,8,6,23,6
	c9.731,10.067,11,32,11,58.345c-25-1.345-34-19.345-34-48.345S2.092,454.917,2.092,454.917z"/>
<path display="none" fill="#FBB040" stroke="#000000" stroke-width="3" stroke-miterlimit="10" d="M521.52,454.917c0,0-8,6-23,6
	c-9.731,10.067-11,32-11,58.345c25-1.345,34-19.345,34-48.345S521.52,454.917,521.52,454.917z"/>
<radialGradient id="SVGID_9_" cx="261.8062" cy="303.3569" r="276.8339" gradientUnits="userSpaceOnUse">
	<stop  offset="0.3893" style="stop-color:#FFFFFF"/>
	<stop  offset="0.7049" style="stop-color:#F4F5F5"/>
	<stop  offset="0.8549" style="stop-color:#EAEBEB"/>
	<stop  offset="1" style="stop-color:#E7E7E7"/>
</radialGradient>
<path id="SVGID_4_" fill="url(#SVGID_9_)" d="M261.114,3.5H10.092c0,0,0,138.937,0,258.714c0,161.081,140,299,251.714,341
	c118.286-39,251.714-175.92,251.714-337c0-119.778,0-262.714,0-262.714H261.114z"/>
<path id="SVGID_3_" fill="none" stroke="#231F20" stroke-width="7" stroke-miterlimit="10" d="M261.114,3.5H10.092
	c0,0,0,138.937,0,258.714c0,161.081,140,299,251.714,341c118.286-39,251.714-175.92,251.714-337c0-119.778,0-262.714,0-262.714
	H261.114z"/>
<polygon fill="#231F20" points="114.136,64.583 114.136,53.75 104.803,53.75 104.803,64.583 84.136,64.583 84.136,43.917 
	94.97,43.917 94.97,34.583 84.136,34.583 84.136,23.917 75.136,23.917 75.136,34.583 64.303,34.583 64.303,43.917 75.136,43.917 
	75.136,64.583 54.47,64.583 54.47,53.75 45.137,53.75 45.137,64.583 34.47,64.583 34.47,73.583 45.137,73.583 45.137,84.417 
	54.47,84.417 54.47,73.583 75.136,73.583 75.136,94.25 75.136,103.583 75.136,114.25 79.47,144.667 84.136,114.25 84.136,103.583 
	84.136,94.25 84.136,73.583 104.803,73.583 104.803,84.417 114.136,84.417 114.136,73.583 124.804,73.583 124.804,64.583 "/>
<polygon fill="#231F20" points="294.135,64.583 294.135,53.75 284.803,53.75 284.803,64.583 264.136,64.583 264.136,43.917 
	274.97,43.917 274.97,34.583 264.136,34.583 264.136,23.917 255.136,23.917 255.136,34.583 244.303,34.583 244.303,43.917 
	255.136,43.917 255.136,64.583 234.47,64.583 234.47,53.75 225.137,53.75 225.137,64.583 214.47,64.583 214.47,73.583 
	225.137,73.583 225.137,84.417 234.47,84.417 234.47,73.583 255.136,73.583 255.136,94.25 255.136,103.583 255.136,114.25 
	259.47,144.667 264.136,114.25 264.136,103.583 264.136,94.25 264.136,73.583 284.803,73.583 284.803,84.417 294.135,84.417 
	294.135,73.583 304.804,73.583 304.804,64.583 "/>
<polygon fill="#231F20" points="484.136,64.583 484.136,53.75 474.804,53.75 474.804,64.583 454.136,64.583 454.136,43.917 
	464.97,43.917 464.97,34.583 454.136,34.583 454.136,23.917 445.136,23.917 445.136,34.583 434.304,34.583 434.304,43.917 
	445.136,43.917 445.136,64.583 424.47,64.583 424.47,53.75 415.138,53.75 415.138,64.583 404.47,64.583 404.47,73.583 
	415.138,73.583 415.138,84.417 424.47,84.417 424.47,73.583 445.136,73.583 445.136,94.25 445.136,103.583 445.136,114.25 
	449.47,144.667 454.136,114.25 454.136,103.583 454.136,94.25 454.136,73.583 474.804,73.583 474.804,84.417 484.136,84.417 
	484.136,73.583 494.804,73.583 494.804,64.583 "/>
<polygon fill="#231F20" points="294.135,494.583 294.135,483.75 284.803,483.75 284.803,494.583 264.136,494.583 264.136,473.916 
	274.97,473.916 274.97,464.584 264.136,464.584 264.136,453.916 255.136,453.916 255.136,464.584 244.303,464.584 244.303,473.916 
	255.136,473.916 255.136,494.583 234.47,494.583 234.47,483.75 225.137,483.75 225.137,494.583 214.47,494.583 214.47,503.583 
	225.137,503.583 225.137,514.417 234.47,514.417 234.47,503.583 255.136,503.583 255.136,524.25 255.136,533.582 255.136,544.25 
	259.47,574.666 264.136,544.25 264.136,533.582 264.136,524.25 264.136,503.583 284.803,503.583 284.803,514.417 294.135,514.417 
	294.135,503.583 304.804,503.583 304.804,494.583 "/>
<polygon fill="#231F20" points="154.136,344.583 154.136,333.75 144.803,333.75 144.803,344.583 124.136,344.583 124.136,323.917 
	134.97,323.917 134.97,314.583 124.136,314.583 124.136,303.917 115.136,303.917 115.136,314.583 104.303,314.583 104.303,323.917 
	115.136,323.917 115.136,344.583 94.47,344.583 94.47,333.75 85.137,333.75 85.137,344.583 74.47,344.583 74.47,353.583 
	85.137,353.583 85.137,364.417 94.47,364.417 94.47,353.583 115.136,353.583 115.136,374.25 115.136,383.583 115.136,394.249 
	119.47,424.666 124.136,394.249 124.136,383.583 124.136,374.25 124.136,353.583 144.803,353.583 144.803,364.417 154.136,364.417 
	154.136,353.583 164.804,353.583 164.804,344.583 "/>
<polygon fill="#231F20" points="444.136,344.583 444.136,333.75 434.804,333.75 434.804,344.583 414.136,344.583 414.136,323.917 
	424.97,323.917 424.97,314.583 414.136,314.583 414.136,303.917 405.136,303.917 405.136,314.583 394.304,314.583 394.304,323.917 
	405.136,323.917 405.136,344.583 384.47,344.583 384.47,333.75 375.138,333.75 375.138,344.583 364.47,344.583 364.47,353.583 
	375.138,353.583 375.138,364.417 384.47,364.417 384.47,353.583 405.136,353.583 405.136,374.25 405.136,383.583 405.136,394.249 
	409.47,424.666 414.136,394.249 414.136,383.583 414.136,374.25 414.136,353.583 434.804,353.583 434.804,364.417 444.136,364.417 
	444.136,353.583 454.804,353.583 454.804,344.583 "/>
<radialGradient id="SVGID_10_" cx="379.6372" cy="184.1572" r="76.2264" gradientUnits="userSpaceOnUse">
	<stop  offset="0.5123" style="stop-color:#ED1C24"/>
	<stop  offset="0.6256" style="stop-color:#DF1A22"/>
	<stop  offset="0.8452" style="stop-color:#C0151B"/>
	<stop  offset="1" style="stop-color:#A70E13"/>
</radialGradient>
<polygon fill="url(#SVGID_10_)" stroke="#231F20" stroke-width="4" stroke-miterlimit="10" points="379.637,109.866 
	398.078,166.619 457.751,166.619 409.474,201.694 427.915,258.448 379.637,223.373 331.36,258.448 349.8,201.694 301.523,166.619 
	361.197,166.619 "/>
<radialGradient id="SVGID_11_" cx="149.6372" cy="184.1572" r="76.2264" gradientUnits="userSpaceOnUse">
	<stop  offset="0.5123" style="stop-color:#ED1C24"/>
	<stop  offset="0.6256" style="stop-color:#DF1A22"/>
	<stop  offset="0.8452" style="stop-color:#C0151B"/>
	<stop  offset="1" style="stop-color:#A70E13"/>
</radialGradient>
<polygon fill="url(#SVGID_11_)" stroke="#231F20" stroke-width="4" stroke-miterlimit="10" points="149.637,109.866 
	168.078,166.619 227.751,166.619 179.474,201.694 197.915,258.448 149.637,223.373 101.36,258.448 119.8,201.694 71.523,166.619 
	131.197,166.619 "/>
<radialGradient id="SVGID_12_" cx="264.6372" cy="348.1567" r="76.2264" gradientUnits="userSpaceOnUse">
	<stop  offset="0.5123" style="stop-color:#ED1C24"/>
	<stop  offset="0.6256" style="stop-color:#DF1A22"/>
	<stop  offset="0.8452" style="stop-color:#C0151B"/>
	<stop  offset="1" style="stop-color:#A70E13"/>
</radialGradient>
<polygon fill="url(#SVGID_12_)" stroke="#231F20" stroke-width="4" stroke-miterlimit="10" points="264.637,273.866 
	283.078,330.619 342.751,330.619 294.474,365.694 312.915,422.447 264.637,387.372 216.36,422.447 234.8,365.694 186.523,330.619 
	246.197,330.619 "/>
<radialGradient id="SVGID_13_" cx="261.8062" cy="573.8115" r="180.5935" gradientUnits="userSpaceOnUse">
	<stop  offset="0.6316" style="stop-color:#FFFFFF"/>
	<stop  offset="0.7049" style="stop-color:#F4F5F5"/>
	<stop  offset="0.8549" style="stop-color:#EAEBEB"/>
	<stop  offset="1" style="stop-color:#E6E7E8"/>
</radialGradient>
<path display="none" fill="url(#SVGID_13_)" stroke="#000000" stroke-width="3" stroke-miterlimit="10" d="M474.52,491.917
	c0,0-35,101-212.714,101s-212.714-101-212.714-101s-32,43-29,61S84.52,655.705,261.806,655.705S500.52,570.917,503.52,552.917
	S474.52,491.917,474.52,491.917z"/>
<g display="none">
	<path fill="none" d="M20.092,552.917c3,18,64.428,102.788,241.714,102.788S500.52,570.917,503.52,552.917"/>
	<path display="inline" d="M39.121,557.445l3.659-0.678l0.152,0.113c0.042,0.029,0.104,0.116,0.187,0.261
		c0.041,0.073,0.093,0.147,0.155,0.223c0.57,0.689,1.375,0.899,2.416,0.629c1.041-0.27,2.621-1.1,4.74-2.49l17.553-11.495
		c-1.077-1.303-2.571-1.839-4.482-1.61s-3.872,1.174-5.881,2.835l-0.373,0.308l-3.113-0.523c6.966-5.206,12.546-5.274,16.738-0.204
		l2.266,2.74c1.746,2.112,2.303,4.217,1.671,6.314s-2.54,4.463-5.723,7.095c-5.16,4.266-10.023,6.608-14.59,7.026
		s-8.304-1.131-11.21-4.646c-0.12-0.146-0.347-0.453-0.678-0.924L39.121,557.445z M44.085,559.104l0.888,2.108
		c0.476,1.149,1.105,2.199,1.89,3.147c1.077,1.302,2.234,2.053,3.474,2.253c1.239,0.199,2.961-0.091,5.167-0.871
		c3.884-1.371,7.65-3.563,11.296-6.579c5.622-4.647,6.996-8.711,4.121-12.188l-0.98-1.186l-14.188,9.288
		c-2.574,1.691-4.653,2.81-6.237,3.353C47.931,558.975,46.121,559.199,44.085,559.104z"/>
	<path display="inline" d="M60.047,580.978c-1.53-1.316-2.01-3.208-1.44-5.675s2.106-5.154,4.61-8.063
		c3.755-4.363,7.893-7.47,12.413-9.32c4.52-1.85,7.893-1.817,10.119,0.099c1.517,1.306,2,3.176,1.447,5.608
		c-0.552,2.434-2.061,5.083-4.526,7.947c-3.918,4.553-8.096,7.75-12.534,9.593C65.698,583.01,62.335,582.946,60.047,580.978z
		 M61.385,580.158c1.616,1.391,4.316,1.057,8.1-1.002c3.783-2.059,7.515-5.225,11.196-9.497c4.661-5.42,5.939-9.036,3.833-10.849
		c-1.617-1.392-4.306-1.077-8.066,0.943s-7.458,5.139-11.09,9.356C60.59,574.652,59.267,578.335,61.385,580.158z"/>
	<path display="inline" d="M70.142,585.93l3.236-1.708c-0.642,2.491-0.353,4.138,0.866,4.942c0.814,0.538,1.935,0.404,3.361-0.4
		c1.426-0.806,2.922-2.148,4.487-4.028l13.429-16.121c-0.285-0.328-0.499-0.54-0.642-0.635c-1.123-0.741-2.535-0.642-4.236,0.297
		c-1.702,0.939-3.258,2.479-4.67,4.618l-3.142,0.427c2.275-3.148,4.741-5.269,7.397-6.358c2.656-1.091,5.018-0.953,7.085,0.412
		l0.986,0.65c-1.425,3.692-2.77,7.747-4.032,12.161l-1.432,5.005c-0.97,3.45-1.824,6.194-2.562,8.235l8.178-9.819
		c2.817-3.389,5.389-5.75,7.714-7.085c2.326-1.334,4.201-1.531,5.625-0.592c0.507,0.335,0.89,0.834,1.15,1.497l-2.374,1.987
		c-0.045-1.258-0.348-2.072-0.909-2.443c-1.479-0.976-3.989,0.667-7.53,4.93l-10.656,12.791l-4.065,5.109l-1.847-0.062
		c0.666-1.544,1.649-4.598,2.952-9.161l2.738-9.619c0.733-2.57,1.434-4.838,2.102-6.802l-5.441,6.545
		c-3.446,4.132-6.543,7.011-9.292,8.637c-2.749,1.625-4.962,1.885-6.639,0.777C70.8,589.34,70.188,587.944,70.142,585.93z"/>
	<path display="inline" d="M93.468,603.085l3.113-2.082l0.187,0.096c1.109,0.568,2.084,0.55,2.925-0.056s2.128-2.224,3.863-4.854
		l11.146-16.838c-1.504-0.771-3.089-0.674-4.754,0.292c-1.666,0.965-3.093,2.608-4.282,4.929l-0.221,0.43l-3.066,0.749
		c2.207-3.856,4.572-6.331,7.096-7.424c2.524-1.094,5.312-0.858,8.363,0.705l6.439,3.3l-3.811,5.035l-0.69-0.354
		c0.319-0.479,0.582-0.92,0.789-1.324c0.528-1.029,0.562-1.91,0.102-2.64c-0.46-0.729-1.563-1.541-3.308-2.436l-0.339-0.174
		l-7.203,10.925l4.884,2.503l-2.148,1.441c-1.464-1.228-2.495-1.994-3.094-2.301l-0.547-0.28l-1.311,1.99
		c-1.47,2.238-2.821,3.916-4.053,5.035c-1.233,1.118-2.776,2.065-4.629,2.841l5.066,3.064l1.12,0.648
		c1.19,0.609,2.674,0.457,4.453-0.459l-0.977,1.475c-2.488,1.671-4.302,2.215-5.44,1.631l-0.494-0.277L93.468,603.085z"/>
	<path display="inline" d="M123.105,614.712c-3.135,0.703-5.608,0.668-7.419-0.104c-1.947-0.83-3.04-2.45-3.279-4.86
		c-0.239-2.411,0.396-5.388,1.907-8.933c2.395-5.619,5.459-9.962,9.196-13.027c3.736-3.065,7.064-3.976,9.985-2.731
		c1.743,0.743,3.195,1.824,4.356,3.242l-3.332,5.152l-0.713-0.304c0.345-0.602,0.604-1.104,0.777-1.51
		c0.5-1.173,0.546-2.276,0.14-3.311c-0.407-1.033-1.183-1.795-2.331-2.283c-1.728-0.736-3.827-0.006-6.297,2.192
		c-1.636,1.454-3.301,3.414-4.993,5.879c-1.693,2.466-3.053,4.906-4.082,7.319c-1.241,2.913-1.79,5.389-1.646,7.426
		c0.144,2.037,0.963,3.374,2.457,4.011c1.675,0.714,3.778,0.718,6.308,0.013L123.105,614.712z"/>
	<path display="inline" d="M133.642,620.71l2.705-2.564l0.153,0.048c0.039,0.012,0.115,0.059,0.227,0.14
		c0.12,0.084,0.263,0.15,0.427,0.202c0.799,0.249,1.582-0.079,2.349-0.983c0.767-0.904,1.683-2.571,2.749-5.001l8.254-18.854
		c-1.614-0.502-3.159-0.135-4.635,1.104s-2.603,3.104-3.379,5.598l-0.144,0.462l-2.894,1.266c1.554-4.248,3.474-7.11,5.76-8.588
		s5.121-1.69,8.504-0.637c2.64,0.821,4.348,1.849,5.124,3.081c0.776,1.232,0.813,2.975,0.112,5.229
		c-1.16,3.725-3.672,6.428-7.539,8.111l0.191,9.323c0.067,3.315,0.344,5.049,0.83,5.2c0.532,0.166,1.873-0.774,4.022-2.821
		l-0.844,1.924c-2.695,2.613-4.45,3.792-5.264,3.539c-1.058-0.329-1.569-2.798-1.535-7.405l0.067-9.529l-2.22-0.691l-0.799,1.822
		c-1.755,4.011-4.079,6.893-6.97,8.646l4.542,1.598l-2.588,2.601L133.642,620.71z M147.2,607.625l3.114,0.969
		c2.722-1.211,4.688-3.757,5.896-7.637c1.112-3.571,0.235-5.804-2.632-6.696l-0.458-0.143L147.2,607.625z"/>
	<path display="inline" d="M168.819,631.246l2.294-6.412c-2.799,3.976-5.213,5.725-7.241,5.247
		c-1.413-0.333-2.332-1.479-2.755-3.438c-0.423-1.958-0.288-4.413,0.408-7.364c0.433-1.84,1.381-4.784,2.846-8.834
		c1.463-4.049,2.948-7.838,4.454-11.366c-0.38-0.21-0.65-0.334-0.81-0.371c-1.317-0.311-2.613,0.269-3.886,1.737
		c-1.273,1.468-2.203,3.45-2.791,5.945l-2.802,1.484c2.33-8.315,6.561-11.751,12.693-10.307l0.862,0.203
		c-1.688,3.907-3.314,8.023-4.881,12.35s-2.601,7.552-3.101,9.676c-0.544,2.311-0.714,4.178-0.511,5.603s0.765,2.246,1.683,2.462
		c0.966,0.228,2.095-0.289,3.386-1.55s2.595-3.128,3.912-5.603l7.5-21.056l2.845,0.105l-2.527,6.651l-5.32,14.91
		c-0.973,2.735-1.557,4.517-1.752,5.344c-0.363,1.539-0.013,2.435,1.049,2.685c0.375,0.089,0.871,0.13,1.488,0.125l-0.478,1.332
		L168.819,631.246z"/>
	<path display="inline" d="M177.642,632.281l2.339-2.901l0.158,0.026c0.04,0.007,0.122,0.043,0.244,0.108
		c0.13,0.066,0.28,0.114,0.45,0.143c0.825,0.14,1.557-0.289,2.197-1.288c0.639-0.998,1.325-2.772,2.056-5.322l5.663-19.789
		c-1.666-0.282-3.148,0.289-4.446,1.713c-1.298,1.425-2.165,3.424-2.602,5.998l-0.081,0.478l-2.699,1.641
		c0.973-4.417,2.494-7.511,4.562-9.28s4.849-2.358,8.343-1.766c2.726,0.462,4.555,1.251,5.489,2.369
		c0.934,1.117,1.204,2.84,0.809,5.167c-0.652,3.846-2.781,6.86-6.388,9.045l1.434,9.214c0.51,3.277,1.015,4.958,1.517,5.043
		c0.55,0.093,1.753-1.018,3.61-3.333l-0.579,2.02c-2.322,2.949-3.903,4.353-4.745,4.21c-1.092-0.185-1.929-2.563-2.51-7.134
		l-1.206-9.453l-2.292-0.389l-0.549,1.913c-1.205,4.209-3.122,7.375-5.753,9.499l4.714,0.978l-2.217,2.923L177.642,632.281z
		 M189.332,617.504l3.215,0.544c2.536-1.563,4.144-4.349,4.823-8.355c0.625-3.688-0.542-5.783-3.502-6.285l-0.473-0.08
		L189.332,617.504z"/>
	<path display="inline" d="M199.324,634.521l2.071-2.894c1.237,2.348,2.659,3.617,4.263,3.811c1.116,0.134,2.096-0.319,2.94-1.361
		s1.373-2.45,1.586-4.225c0.21-1.745-0.226-3.752-1.308-6.022l-1.395-2.934c-1.037-2.161-1.66-3.667-1.867-4.519
		c-0.208-0.851-0.229-1.96-0.064-3.327c0.327-2.72,1.253-4.987,2.777-6.803c1.524-1.816,3.178-2.617,4.961-2.402
		c1.132,0.137,2.387,0.899,3.765,2.29l-1.27,5.402l-0.77-0.093c0.071-0.448,0.116-0.761,0.138-0.935
		c0.166-1.382-0.01-2.532-0.527-3.45c-0.518-0.918-1.286-1.438-2.303-1.561c-1.051-0.126-2.001,0.323-2.852,1.35
		s-1.375,2.361-1.573,4.005c-0.133,1.105-0.073,2.138,0.179,3.098c0.252,0.96,0.848,2.382,1.786,4.265l1.174,2.399
		c1.309,2.65,1.834,5.045,1.577,7.183c-0.338,2.808-1.381,5.123-3.129,6.949c-1.748,1.825-3.665,2.613-5.75,2.362
		C202.138,636.918,200.668,636.055,199.324,634.521z"/>
	<path display="inline" d="M229.696,639.552l1.273-6.69c-2.149,4.362-4.263,6.464-6.34,6.306c-1.448-0.109-2.533-1.099-3.254-2.969
		c-0.722-1.868-0.968-4.315-0.739-7.339c0.143-1.884,0.624-4.939,1.443-9.167s1.698-8.201,2.639-11.92
		c-0.408-0.148-0.694-0.229-0.857-0.241c-1.35-0.103-2.54,0.671-3.57,2.318c-1.03,1.648-1.642,3.75-1.836,6.306l-2.539,1.901
		c1.013-8.576,4.661-12.626,10.943-12.148l0.883,0.066c-1.062,4.121-2.031,8.44-2.909,12.957c-0.877,4.517-1.399,7.863-1.564,10.04
		c-0.18,2.366-0.059,4.237,0.364,5.613c0.422,1.376,1.103,2.101,2.044,2.172c0.99,0.075,2.025-0.61,3.105-2.056
		c1.08-1.446,2.079-3.493,2.996-6.142l4.148-21.963l2.827-0.337l-1.466,6.963l-2.946,15.554c-0.538,2.854-0.838,4.704-0.903,5.551
		c-0.12,1.577,0.364,2.407,1.452,2.49c0.384,0.029,0.881-0.007,1.489-0.107l-0.266,1.39L229.696,639.552z"/>
	<path display="inline" d="M238.119,637.97l1.816-3.06c1.434,2.233,2.958,3.378,4.573,3.433c1.124,0.039,2.061-0.497,2.813-1.606
		c0.752-1.11,1.159-2.559,1.22-4.345c0.061-1.757-0.545-3.72-1.817-5.889l-1.639-2.805c-1.218-2.064-1.966-3.512-2.246-4.342
		s-0.396-1.934-0.348-3.31c0.094-2.738,0.823-5.076,2.187-7.016c1.363-1.939,2.943-2.878,4.738-2.816
		c1.14,0.039,2.455,0.693,3.946,1.961l-0.804,5.49l-0.775-0.026c0.032-0.453,0.051-0.768,0.057-0.943
		c0.049-1.391-0.225-2.521-0.818-3.393c-0.594-0.87-1.403-1.323-2.428-1.358c-1.058-0.036-1.966,0.493-2.726,1.589
		c-0.76,1.095-1.168,2.47-1.226,4.124c-0.038,1.112,0.109,2.136,0.442,3.071c0.333,0.935,1.048,2.3,2.143,4.097l1.375,2.29
		c1.53,2.529,2.258,4.87,2.184,7.022c-0.097,2.825-0.939,5.222-2.525,7.19c-1.586,1.968-3.429,2.916-5.527,2.844
		C241.127,640.118,239.588,639.383,238.119,637.97z"/>
	<path display="inline" d="M259.793,639.748l1.814-3.27l0.824-0.009c0.936-0.009,1.621-0.561,2.058-1.656s0.816-3.249,1.138-6.46
		l1.834-17.948l-3.335,0.032l1.753-3.27l8.01-0.077l-1.839,3.271l-2.005,0.019l-1.586,15.573c-0.487,4.766-1.831,8.375-4.03,10.827
		l4.788,0.174l-1.74,3.27L259.793,639.748z"/>
	<path display="inline" d="M271.554,637.78l1.61-3.307c0.938,2.392,2.146,3.553,3.621,3.485c0.967-0.044,1.789-0.814,2.469-2.313
		c0.679-1.497,1.098-3.459,1.258-5.886l1.369-20.959c-0.423-0.098-0.717-0.144-0.88-0.136c-1.353,0.062-2.44,0.974-3.263,2.733
		c-0.823,1.761-1.176,3.922-1.059,6.482l-2.289,2.194c-0.015-4.091,0.754-7.308,2.306-9.651c1.551-2.344,3.724-3.58,6.519-3.708
		l0.996-0.045c1.86,7.467,3.32,15.164,4.381,23.093l7.001-23.613l2.605-0.669l-0.612,7.088l-1.184,18.025
		c-0.099,1.603-0.127,2.88-0.083,3.831c0.059,1.287,0.526,1.911,1.403,1.871c0.435-0.02,1.013-0.127,1.734-0.321l-0.096,1.412
		l-5.974,2.429l1.877-28.725l-7.308,24.441l-1.25,0.409l-0.029-0.636c-0.262-5.722-1.369-12.79-3.322-21.206l-0.599,9.001
		c-0.724,11.104-3.15,16.751-7.281,16.94C274.034,640.108,272.727,639.354,271.554,637.78z"/>
	<path display="inline" d="M301.911,638.18l1.509-3.415l0.233-0.022l0.529-0.024c0.963-0.094,1.609-0.733,1.939-1.919
		c0.329-1.186,0.521-3.538,0.573-7.056l0.255-18.962c-1.674,0.163-2.952,1.1-3.837,2.81c-0.884,1.71-1.2,3.861-0.947,6.452
		l0.059,0.479l-2.188,2.285c-0.213-4.558,0.449-7.954,1.987-10.188s4.111-3.525,7.721-3.877c2.596-0.253,4.496,0.066,5.699,0.957
		c1.204,0.891,1.919,2.502,2.146,4.835c0.182,1.866-0.013,3.806-0.583,5.818s-1.381,3.6-2.43,4.762
		c-1.214,1.325-2.675,2.07-4.381,2.236l-0.331,0.032l0.336-1.379l0.221-0.021c1.567-0.152,2.792-1.201,3.674-3.146
		s1.19-4.285,0.924-7.019c-0.401-4.123-2.235-6.024-5.501-5.707l-0.246,17.909c-0.057,4.495-1.068,8.112-3.035,10.851l4.731-0.289
		l-1.375,3.4L301.911,638.18z"/>
	<path display="inline" d="M316.851,636.733l1.292-3.458l0.707-0.096c0.967-0.132,1.606-0.729,1.917-1.792
		c0.311-1.062,0.433-3.053,0.366-5.971l-0.275-11.316c-0.083-3.345,0.388-6.177,1.413-8.497c1.024-2.32,2.374-3.595,4.049-3.822
		c0.748-0.103,1.679,0.259,2.793,1.083l0.129,5.504l-0.78,0.106c-0.027-0.381-0.058-0.694-0.091-0.941
		c-0.368-2.699-1.332-3.943-2.893-3.73c-1.536,0.209-2.245,2.693-2.127,7.452l0.243,10.168c0.076,3.05-0.075,5.421-0.453,7.113
		s-1.111,3.249-2.201,4.669l6.842-0.732c1.959-0.268,3.571-1.314,4.838-3.143l0.039,1.657c-0.893,1.955-1.592,3.222-2.096,3.801
		c-0.505,0.579-1.229,0.933-2.172,1.061L316.851,636.733z"/>
	<path display="inline" d="M334.9,634.208l1.212-3.544l0.206-0.037c1.228-0.221,1.991-0.827,2.292-1.818s0.343-3.059,0.127-6.202
		l-1.354-20.147c-1.663,0.3-2.864,1.339-3.603,3.116s-0.876,3.95-0.414,6.516l0.086,0.476l-1.983,2.456
		c-0.585-4.404-0.206-7.807,1.137-10.207c1.344-2.399,3.702-3.904,7.077-4.512l7.12-1.283l0.024,6.314l-0.763,0.138
		c-0.037-0.574-0.095-1.085-0.176-1.531c-0.205-1.139-0.712-1.859-1.521-2.16s-2.178-0.277-4.107,0.07l-0.375,0.067l0.901,13.055
		l5.4-0.973l-0.834,2.449c-1.907-0.088-3.192-0.071-3.854,0.048l-0.605,0.108l0.166,2.378c0.188,2.671,0.133,4.824-0.168,6.461
		c-0.301,1.638-0.953,3.326-1.957,5.067l5.887-0.637l1.283-0.165c1.316-0.236,2.403-1.259,3.262-3.065l0.117,1.765
		c-0.964,2.839-2.075,4.371-3.335,4.598l-0.562,0.079L334.9,634.208z"/>
	<path display="inline" d="M351.478,629.38l0.905-3.297c1.265,1.893,2.51,2.688,3.737,2.389c1.172-0.286,2.061-1.426,2.666-3.422
		c0.606-1.995,1.085-5.388,1.435-10.178l1.269-17.157c-0.914,0.026-1.682,0.116-2.303,0.268c-1.666,0.407-2.77,1.465-3.31,3.175
		c-0.541,1.709-0.475,3.945,0.201,6.709l-1.837,2.646c-0.503-2.715-0.625-5.032-0.368-6.952c0.28-2.136,0.834-3.743,1.66-4.82
		s2.186-1.976,4.079-2.694c0.38-0.139,0.95-0.36,1.712-0.667l2.245-1.387l1.893,7.075l4.299,14.591
		c0.997,3.393,1.774,5.599,2.331,6.617c0.558,1.018,1.214,1.435,1.972,1.25c0.135-0.033,0.591-0.19,1.367-0.47l0.188,1.446
		l-5.091,2.963l-3.06-10.404l-6.515,1.592c-0.307,4.206-0.832,7.226-1.575,9.059c-0.742,1.833-1.892,2.938-3.445,3.318
		C354.459,631.389,352.975,630.839,351.478,629.38z M361.083,616.946l5.917-1.445l-4.685-15.859L361.083,616.946z"/>
	<path display="inline" d="M378.582,624.266l0.763-3.648l0.202,0.028c0.104-0.001,0.334-0.059,0.694-0.172
		c0.869-0.273,1.339-1.027,1.411-2.263c0.071-1.235-0.217-3.517-0.867-6.845l-3.414-17.398l-2.971,0.934
		c-3.013,0.946-3.852,3.544-2.518,7.792c0.158,0.503,0.389,1.114,0.691,1.833l-1.803,2.8c-0.962-4.212-0.986-7.781-0.075-10.709
		c0.912-2.927,2.632-4.788,5.16-5.582l4.977-1.563c2.246-0.705,3.65-1.438,4.211-2.198c0.562-0.759,0.684-2.095,0.366-4.007
		l1.359-1.832c0.269,2.771-0.127,5.207-1.188,7.306s-2.585,3.46-4.572,4.085l-1.174,0.368l2.958,15.124
		c0.536,2.719,0.758,4.925,0.667,6.619s-0.525,3.424-1.304,5.188l4.584-1.256l-0.657,3.615L378.582,624.266z"/>
	<path display="inline" d="M408.345,614.429c-1.856,0.791-3.766,0.387-5.727-1.214c-1.962-1.601-3.695-4.166-5.199-7.696
		c-2.257-5.296-3.218-10.38-2.882-15.253c0.336-4.872,1.855-7.884,4.557-9.035c1.842-0.784,3.732-0.392,5.672,1.179
		c1.939,1.569,3.65,4.093,5.132,7.569c2.354,5.525,3.378,10.687,3.072,15.481C412.664,610.257,411.123,613.246,408.345,614.429z
		 M408.201,612.866c1.962-0.836,2.855-3.405,2.679-7.709s-1.369-9.05-3.578-14.239c-2.804-6.575-5.484-9.318-8.04-8.229
		c-1.963,0.836-2.868,3.388-2.716,7.653c0.151,4.267,1.317,8.961,3.497,14.083C402.911,611.148,405.629,613.962,408.201,612.866z"/>
	<path display="inline" d="M420.121,608.344l0.076-3.727l0.141-0.075c0.036-0.019,0.123-0.04,0.259-0.063
		c0.145-0.026,0.292-0.081,0.444-0.162c0.738-0.394,1.055-1.181,0.949-2.362c-0.104-1.181-0.647-3.004-1.628-5.469l-7.623-19.119
		c-1.491,0.796-2.314,2.154-2.471,4.075c-0.155,1.921,0.381,4.032,1.61,6.336l0.229,0.428l-1.132,2.948
		c-1.932-4.09-2.621-7.467-2.067-10.132s2.394-4.832,5.521-6.5c2.438-1.302,4.369-1.796,5.792-1.483
		c1.422,0.313,2.688,1.511,3.8,3.594c1.837,3.441,1.996,7.129,0.479,11.063l6.77,6.413c2.408,2.281,3.836,3.302,4.284,3.063
		c0.492-0.263,0.765-1.878,0.818-4.845l0.776,1.951c-0.033,3.754-0.426,5.831-1.179,6.233c-0.978,0.521-3.094-0.849-6.349-4.108
		l-6.736-6.741l-2.052,1.095l0.736,1.849c1.621,4.066,2.04,7.744,1.258,11.034l4.327-2.11l0.033,3.669L420.121,608.344z
		 M420.331,589.503l2.877-1.535c1.051-2.789,0.619-5.976-1.294-9.561c-1.762-3.301-3.967-4.244-6.615-2.831l-0.424,0.227
		L420.331,589.503z"/>
	<path display="inline" d="M439.631,597.595l-0.307-3.708l0.215-0.144c1.021-0.686,1.448-1.574,1.278-2.669
		c-0.17-1.093-1.062-3.198-2.675-6.313l-8.961-17.245c-1.404,0.941-2.088,2.374-2.053,4.298c0.035,1.925,0.778,3.971,2.229,6.137
		l0.27,0.401l-0.834,3.045c-2.324-3.839-3.346-7.117-3.064-9.836c0.282-2.719,1.881-5.056,4.798-7.01
		c2.059-1.378,3.794-1.968,5.206-1.769c1.413,0.2,2.734,1.219,3.966,3.057c2.486,3.712,2.655,7.354,0.507,10.927
		c3.642-0.253,6.343,0.935,8.104,3.563c1.573,2.349,2.181,4.812,1.823,7.387c-0.357,2.576-1.586,4.567-3.685,5.973l-2.521,1.478
		L439.631,597.595z M437.502,577.969l0.532-0.356c1.261-0.844,1.856-2.209,1.789-4.094c-0.068-1.886-0.787-3.851-2.157-5.895
		c-1.924-2.872-4.011-3.555-6.26-2.048l-0.255,0.171L437.502,577.969z M441.844,592.674l1.345-0.292
		c1.312-0.297,2.544-0.831,3.695-1.603c2.345-1.57,2.208-4.31-0.409-8.216c-1.279-1.91-2.638-3.183-4.074-3.816
		c-1.437-0.633-2.758-0.546-3.964,0.263l-0.297,0.198l1.145,2.195C441.509,585.696,442.363,589.453,441.844,592.674z"/>
	<path display="inline" d="M455.933,586.336l-0.705-3.678l0.16-0.135c0.956-0.801,1.318-1.706,1.088-2.716s-1.22-2.826-2.967-5.448
		l-11.17-16.822c-1.296,1.086-1.823,2.583-1.582,4.493s1.198,3.864,2.873,5.862l0.31,0.371l-0.503,3.116
		c-2.693-3.534-4.052-6.677-4.076-9.427s1.277-5.227,3.905-7.428l5.547-4.646l3.153,5.47l-0.594,0.498
		c-0.317-0.48-0.621-0.895-0.913-1.242c-0.742-0.887-1.54-1.261-2.392-1.121c-0.851,0.14-2.028,0.84-3.531,2.099l-0.292,0.245
		l7.259,10.888l4.207-3.524l0.49,2.54c-1.699,0.871-2.808,1.522-3.323,1.954l-0.472,0.396l1.323,1.981
		c1.489,2.226,2.51,4.123,3.061,5.693c0.55,1.571,0.822,3.361,0.814,5.37l4.795-3.473l1.033-0.779
		c1.024-0.858,1.462-2.285,1.311-4.28l0.978,1.475c0.571,2.942,0.366,4.824-0.615,5.646l-0.448,0.347L455.933,586.336z"/>
	<path display="inline" d="M468.351,573.862l-1.379-3.409c2.404,0.903,4.075,0.784,5.013-0.357c0.614-0.748,0.593-1.875-0.065-3.382
		c-0.658-1.506-1.836-3.132-3.531-4.875l-14.655-15.045c-0.356,0.249-0.587,0.437-0.69,0.563c-0.859,1.046-0.91,2.464-0.152,4.254
		c0.757,1.79,2.127,3.498,4.107,5.125l0.098,3.169c-3.049-2.727-4.925-5.45-5.628-8.173c-0.702-2.721-0.166-5.163,1.609-7.324
		l0.632-0.771c6.794,3.615,13.49,7.683,20.091,12.201l-12.859-21.006l1.247-2.384l4.857,5.199l12.6,12.943
		c1.125,1.146,2.055,2.021,2.79,2.626c0.997,0.818,1.773,0.888,2.33,0.21c0.276-0.336,0.584-0.837,0.923-1.504l0.984,1.016
		l-2.193,6.064l-20.086-20.62l13.269,21.789l-0.532,1.202l-0.492-0.404c-4.426-3.635-10.42-7.543-17.979-11.725l6.287,6.469
		c7.767,7.971,10.337,13.553,7.713,16.748C471.741,573.578,470.305,574.045,468.351,573.862z"/>
</g>
</svg>
