<svg xmlns="http://www.w3.org/2000/svg" xmlns:xlink="http://www.w3.org/1999/xlink" width="524" height="659" viewBox="132.646 -0.5 524 659"><linearGradient id="a" gradientUnits="userSpaceOnUse" x1="170.435" y1="515.304" x2="225.329" y2="536.376"><stop offset="0" stop-color="#8B5E3C"/><stop offset=".497" stop-color="#FDC060"/></linearGradient><linearGradient id="b" gradientUnits="userSpaceOnUse" x1="563.576" y1="536.376" x2="618.47" y2="515.304"><stop offset=".503" stop-color="#FDC060"/><stop offset="1" stop-color="#8B5E3C"/></linearGradient><linearGradient id="c" gradientUnits="userSpaceOnUse" x1="134.147" y1="461.128" x2="239.739" y2="461.128"><stop offset="0" stop-color="#BCBEC0"/><stop offset=".333" stop-color="#E6E7E8"/></linearGradient><linearGradient id="d" gradientUnits="userSpaceOnUse" x1="549.167" y1="461.128" x2="654.758" y2="461.128"><stop offset=".632" stop-color="#E6E7E8"/><stop offset=".687" stop-color="#DBDCDD"/><stop offset=".793" stop-color="#CACBCD"/><stop offset=".898" stop-color="#BFC1C3"/><stop offset="1" stop-color="#BCBEC0"/></linearGradient><defs><path id="e" d="M393.76 3.5H142.74v258.714c0 161.08 140 299 251.713 341 118.286-39 251.714-175.92 251.714-337V3.5H393.76z"/></defs><radialGradient id="f" cx="394.453" cy="303.357" r="276.834" gradientUnits="userSpaceOnUse"><stop offset="0" stop-color="#FFD56C"/><stop offset="1" stop-color="#FBB041"/></radialGradient><use xlink:href="#e" overflow="visible" fill="url(#f)"/><clipPath id="g"><use xlink:href="#e" overflow="visible"/></clipPath><radialGradient id="h" cx="394.452" cy="367.634" r="327.212" gradientUnits="userSpaceOnUse"><stop offset="0" stop-color="#ED1C24"/><stop offset="1" stop-color="#BE1E2D"/></radialGradient><path clip-path="url(#g)" fill="url(#h)" stroke="#000" stroke-width="2" stroke-miterlimit="10" d="M787.543 511.632l-393.09-388.157L1.362 511.632 85.91 611.794l308.546-304.67L703 611.793z"/><g clip-path="url(#g)" stroke-miterlimit="10" fill="#be1e2d" stroke="#000" stroke-width="2"><path d="M308.258 39.604h-38.123-82.423c-15.867 0-19.394-9.643-19.394-9.643v53.617s3.527-9.644 19.394-9.644h37.464v101.423c0 16.81-11.9 18.63-11.9 18.63h69.42s-11.9-1.82-11.9-18.63V73.933h37.462c15.868 0 19.394 9.644 19.394 9.644V29.96s-3.526 9.644-19.394 9.644zM600.11 39.604H561.985h-82.423c-15.868 0-19.394-9.644-19.394-9.644V83.577s3.525-9.643 19.393-9.643h37.464v101.423c0 16.81-11.9 18.63-11.9 18.63H574.548s-11.902-1.82-11.902-18.63V73.933h37.463c15.866 0 19.393 9.643 19.393 9.643V29.96s-3.527 9.644-19.394 9.644zM455.728 414.17h-38.123-82.423c-15.868 0-19.394-9.642-19.394-9.642v53.615s3.526-9.644 19.394-9.644h37.464v101.423c0 16.81-11.9 18.63-11.9 18.63h69.419s-11.9-1.82-11.9-18.63V448.5h37.463c15.867 0 19.394 9.644 19.394 9.644v-53.617s-3.527 9.643-19.394 9.643z"/></g><g clip-path="url(#g)"><radialGradient id="i" cx="528.624" cy="337.828" r="49.981" gradientUnits="userSpaceOnUse"><stop offset="0" stop-color="#FFD56C"/><stop offset="1" stop-color="#FBB041"/></radialGradient><path fill="url(#i)" stroke="#000" stroke-width="2" stroke-miterlimit="10" d="M579.84 326.33h-39.126l-12.09-37.213-12.092 37.212h-39.127l31.654 22.998-12.092 37.213 31.654-22.998 31.654 23-12.09-37.214 31.655-23zm-51.216 28.403c-6.022 0-10.905-4.882-10.905-10.905 0-6.022 4.882-10.905 10.904-10.905s10.905 4.882 10.905 10.905-4.884 10.905-10.906 10.905z"/><radialGradient id="j" cx="260.282" cy="337.828" r="49.981" gradientUnits="userSpaceOnUse"><stop offset="0" stop-color="#FFD56C"/><stop offset="1" stop-color="#FBB041"/></radialGradient><path fill="url(#j)" stroke="#000" stroke-width="2" stroke-miterlimit="10" d="M311.5 326.33h-39.127l-12.09-37.213-12.092 37.212h-39.126l31.654 22.998-12.09 37.213 31.653-22.998 31.655 23-12.09-37.214 31.655-23zm-51.218 28.403c-6.022 0-10.905-4.882-10.905-10.905 0-6.022 4.883-10.905 10.905-10.905s10.905 4.882 10.905 10.905-4.883 10.905-10.905 10.905z"/><radialGradient id="k" cx="394.452" cy="225.828" r="49.981" gradientUnits="userSpaceOnUse"><stop offset="0" stop-color="#FFD56C"/><stop offset="1" stop-color="#FBB041"/></radialGradient><path fill="url(#k)" stroke="#000" stroke-width="2" stroke-miterlimit="10" d="M445.67 214.33H406.54l-12.09-37.213-12.092 37.212h-39.127l31.654 22.998-12.09 37.213 31.653-22.998 31.654 23-12.09-37.214 31.655-23zm-51.218 28.403c-6.022 0-10.905-4.882-10.905-10.905 0-6.022 4.883-10.905 10.905-10.905s10.905 4.882 10.905 10.905-4.883 10.905-10.905 10.905z"/></g><use xlink:href="#e" overflow="visible" fill="none" stroke="#000" stroke-width="7" stroke-miterlimit="10"/><radialGradient id="l" cx="394.453" cy="575.523" r="180.594" gradientUnits="userSpaceOnUse"><stop offset=".632" stop-color="#FFF"/><stop offset=".705" stop-color="#F4F5F5"/><stop offset=".855" stop-color="#EAEBEB"/><stop offset="1" stop-color="#E6E7E8"/></radialGradient></svg>