<?xml version="1.0" encoding="UTF-8" standalone="no"?>
<!-- Generator: Adobe Illustrator 15.0.0, SVG Export Plug-In  -->

<svg
   xmlns:dc="http://purl.org/dc/elements/1.1/"
   xmlns:cc="http://creativecommons.org/ns#"
   xmlns:rdf="http://www.w3.org/1999/02/22-rdf-syntax-ns#"
   xmlns:svg="http://www.w3.org/2000/svg"
   xmlns="http://www.w3.org/2000/svg"
   xmlns:xlink="http://www.w3.org/1999/xlink"
   xmlns:sodipodi="http://sodipodi.sourceforge.net/DTD/sodipodi-0.dtd"
   xmlns:inkscape="http://www.inkscape.org/namespaces/inkscape"
   version="1.1"
   x="0px"
   y="0px"
   width="524px"
   height="659px"
   viewBox="132.646 -0.5 524 659"
   enable-background="new 132.646 -0.5 524 659"
   xml:space="preserve"
   id="svg2"
   inkscape:version="0.48.2 r9819"
   sodipodi:docname="St-Antony's_College_Oxford_Coat_Of_Arms.svg"><metadata
   id="metadata150"><rdf:RDF><cc:Work
       rdf:about=""><dc:format>image/svg+xml</dc:format><dc:type
         rdf:resource="http://purl.org/dc/dcmitype/StillImage" /></cc:Work></rdf:RDF></metadata><sodipodi:namedview
   pagecolor="#ffffff"
   bordercolor="#666666"
   borderopacity="1"
   objecttolerance="10"
   gridtolerance="10"
   guidetolerance="10"
   inkscape:pageopacity="0"
   inkscape:pageshadow="2"
   inkscape:window-width="1280"
   inkscape:window-height="699"
   id="namedview148"
   showgrid="true"
   inkscape:zoom="1.55"
   inkscape:cx="262"
   inkscape:cy="211.04665"
   inkscape:window-x="0"
   inkscape:window-y="0"
   inkscape:window-maximized="1"
   inkscape:current-layer="g66"><inkscape:grid
     type="xygrid"
     id="grid3171" /></sodipodi:namedview>
<defs
   id="defs4">
</defs>
<linearGradient
   id="SVGID_3_"
   gradientUnits="userSpaceOnUse"
   x1="170.4351"
   y1="515.3037"
   x2="225.3294"
   y2="536.3757">
	<stop
   offset="0"
   style="stop-color:#8B5E3C"
   id="stop7" />
	<stop
   offset="0.497"
   style="stop-color:#FDC060"
   id="stop9" />
</linearGradient>
<path
   display="none"
   fill="url(#SVGID_3_)"
   stroke="#000000"
   stroke-width="3"
   stroke-miterlimit="10"
   d="M241.739,493.628l-72,70  c0,0-13.53,0.171-11-15c2.529-15.171,23-55,23-55s1-8,21-9S241.739,493.628,241.739,493.628z"
   id="path11" />
<linearGradient
   id="SVGID_4_"
   gradientUnits="userSpaceOnUse"
   x1="563.5757"
   y1="536.376"
   x2="618.47"
   y2="515.304">
	<stop
   offset="0.503"
   style="stop-color:#FDC060"
   id="stop14" />
	<stop
   offset="1"
   style="stop-color:#8B5E3C"
   id="stop16" />
</linearGradient>
<path
   display="none"
   fill="url(#SVGID_4_)"
   stroke="#000000"
   stroke-width="3"
   stroke-miterlimit="10"
   d="M547.167,493.628l72,70  c0,0,13.529,0.171,11-15s-23-55-23-55s-1-8-21-9S547.167,493.628,547.167,493.628z"
   id="path18" />
<linearGradient
   id="SVGID_5_"
   gradientUnits="userSpaceOnUse"
   x1="134.1465"
   y1="461.1279"
   x2="239.7388"
   y2="461.1279">
	<stop
   offset="0"
   style="stop-color:#BCBEC0"
   id="stop21" />
	<stop
   offset="0.3333"
   style="stop-color:#E6E7E8"
   id="stop23" />
</linearGradient>
<path
   display="none"
   fill="url(#SVGID_5_)"
   stroke="#000000"
   stroke-width="3"
   stroke-miterlimit="10"
   d="M134.739,456.628  c0-18,7.316-28,35-28s51,8,51,8l19,57c0,0-71.883-16.141-90.941-9.07S134.739,456.628,134.739,456.628z"
   id="path25" />
<linearGradient
   id="SVGID_6_"
   gradientUnits="userSpaceOnUse"
   x1="549.1665"
   y1="461.1279"
   x2="654.7583"
   y2="461.1279">
	<stop
   offset="0.6316"
   style="stop-color:#E6E7E8"
   id="stop28" />
	<stop
   offset="0.6867"
   style="stop-color:#DBDCDD"
   id="stop30" />
	<stop
   offset="0.7932"
   style="stop-color:#CACBCD"
   id="stop32" />
	<stop
   offset="0.8984"
   style="stop-color:#BFC1C3"
   id="stop34" />
	<stop
   offset="1"
   style="stop-color:#BCBEC0"
   id="stop36" />
</linearGradient>
<path
   display="none"
   fill="url(#SVGID_6_)"
   stroke="#000000"
   stroke-width="3"
   stroke-miterlimit="10"
   d="M654.167,456.628  c0-18-7.316-28-35-28s-51,8-51,8l-19,57c0,0,71.883-16.141,90.941-9.07S654.167,456.628,654.167,456.628z"
   id="path38" />
<path
   display="none"
   fill="#FBB040"
   stroke="#000000"
   stroke-width="3"
   stroke-miterlimit="10"
   d="M134.739,456.628c0,0,8,6,23,6  c9.731,10.067,11,32,11,58.345c-25-1.345-34-19.345-34-48.345S134.739,456.628,134.739,456.628z"
   id="path40" />
<path
   display="none"
   fill="#FBB040"
   stroke="#000000"
   stroke-width="3"
   stroke-miterlimit="10"
   d="M654.167,456.628c0,0-8,6-23,6  c-9.731,10.067-11,32-11,58.345c25-1.345,34-19.345,34-48.345S654.167,456.628,654.167,456.628z"
   id="path42" />
<g
   id="g44">
	<defs
   id="defs46">
		<path
   id="SVGID_2_"
   d="M393.759,3.5H142.739c0,0,0,138.937,0,258.714c0,161.081,140,299,251.714,341    c118.286-39,251.714-175.92,251.714-337c0-119.778,0-262.714,0-262.714H393.759z" />
	</defs>
	<radialGradient
   id="SVGID_7_"
   cx="394.4526"
   cy="303.3569"
   r="276.8339"
   gradientUnits="userSpaceOnUse">
		<stop
   offset="0"
   style="stop-color:#FFD56C"
   id="stop50" />
		<stop
   offset="1"
   style="stop-color:#FBB041"
   id="stop52" />
	</radialGradient>
	<use
   xlink:href="#SVGID_2_"
   overflow="visible"
   fill="url(#SVGID_7_)"
   id="use54" />
	<clipPath
   id="SVGID_8_">
		<use
   xlink:href="#SVGID_2_"
   overflow="visible"
   id="use57" />
	</clipPath>
	<radialGradient
   id="SVGID_9_"
   cx="394.4517"
   cy="367.6343"
   r="327.2118"
   gradientUnits="userSpaceOnUse">
		<stop
   offset="0"
   style="stop-color:#ED1C24"
   id="stop60" />
		<stop
   offset="1"
   style="stop-color:#BE1E2D"
   id="stop62" />
	</radialGradient>
	<polygon
   clip-path="url(#SVGID_8_)"
   fill="url(#SVGID_9_)"
   stroke="#000000"
   stroke-width="2"
   stroke-miterlimit="10"
   points="   787.543,511.632 394.454,123.475 1.361,511.632 85.908,611.794 394.454,307.123 702.999,611.794  "
   id="polygon64" />
	<g
   clip-path="url(#SVGID_8_)"
   id="g66">
		<path
   stroke-miterlimit="10"
   d="m 308.25813,39.604366 c -6.57043,0 -21.83487,0 -37.46296,0 -0.22081,0 -0.44031,0 -0.66115,0 0,0 -6.27423,0 -15.42709,0 -4.02106,0 -8.59881,0 -13.44233,0 -4.96519,0 -10.20936,0 -15.42842,0 -0.22083,0 -0.44033,0 -0.65982,0 -15.62941,0 -30.89253,0 -37.46428,0 -15.86742,0 -19.39395,-9.643678 -19.39395,-9.643678 V 40.37586 73.161638 83.57681 c 0,0 3.52653,-9.643677 19.39395,-9.643677 6.57175,0 21.83487,0 37.46428,0 0,36.513767 0,90.504717 0,101.422877 0,16.81067 -11.90055,18.62899 -11.90055,18.62899 h 27.98879 13.44233 27.9888 c 0,0 -11.90056,-1.81832 -11.90056,-18.62899 0,-10.91816 0,-64.90911 0,-101.422877 15.62809,0 30.89253,0 37.46296,0 15.86742,0 19.39395,9.643677 19.39395,9.643677 V 73.161638 40.37586 29.960688 c 0,0 -3.52653,9.643678 -19.39395,9.643678 z"
   id="path68"
   inkscape:connector-curvature="0"
   style="fill:#be1e2d;stroke:#000000;stroke-width:1.99999976;stroke-miterlimit:10" />
		
		
	<path
   style="fill:#be1e2d;stroke:#000000;stroke-width:1.99999976;stroke-miterlimit:10"
   inkscape:connector-curvature="0"
   id="path3156"
   d="m 600.10896,39.604053 c -6.57043,0 -21.83487,0 -37.46296,0 -0.22081,0 -0.44031,0 -0.66115,0 0,0 -6.27423,0 -15.42709,0 -4.02106,0 -8.59881,0 -13.44233,0 -4.96519,0 -10.20936,0 -15.42842,0 -0.22083,0 -0.44033,0 -0.65982,0 -15.62941,0 -30.89253,0 -37.46428,0 -15.86742,0 -19.39395,-9.643678 -19.39395,-9.643678 v 10.415172 32.785778 10.415172 c 0,0 3.52653,-9.643677 19.39395,-9.643677 6.57175,0 21.83487,0 37.46428,0 0,36.51377 0,90.50472 0,101.42288 0,16.81067 -11.90055,18.62899 -11.90055,18.62899 h 27.98879 13.44233 27.9888 c 0,0 -11.90056,-1.81832 -11.90056,-18.62899 0,-10.91816 0,-64.90911 0,-101.42288 15.62809,0 30.89253,0 37.46296,0 15.86742,0 19.39395,9.643677 19.39395,9.643677 V 73.161325 40.375547 29.960375 c 0,0 -3.52653,9.643678 -19.39395,9.643678 z"
   stroke-miterlimit="10" /><path
   stroke-miterlimit="10"
   d="m 455.72777,414.17123 c -6.57043,0 -21.83487,0 -37.46296,0 -0.22081,0 -0.44031,0 -0.66115,0 0,0 -6.27423,0 -15.42709,0 -4.02106,0 -8.59881,0 -13.44233,0 -4.96519,0 -10.20936,0 -15.42842,0 -0.22083,0 -0.44033,0 -0.65982,0 -15.62941,0 -30.89253,0 -37.46428,0 -15.86742,0 -19.39395,-9.64367 -19.39395,-9.64367 v 10.41517 32.78578 10.41517 c 0,0 3.52653,-9.64368 19.39395,-9.64368 6.57175,0 21.83487,0 37.46428,0 0,36.51377 0,90.50472 0,101.42288 0,16.81067 -11.90055,18.62899 -11.90055,18.62899 h 27.98879 13.44233 27.9888 c 0,0 -11.90056,-1.81832 -11.90056,-18.62899 0,-10.91816 0,-64.90911 0,-101.42288 15.62809,0 30.89253,0 37.46296,0 15.86742,0 19.39395,9.64368 19.39395,9.64368 v -10.41517 -32.78578 -10.41517 c 0,0 -3.52653,9.64367 -19.39395,9.64367 z"
   id="path3169"
   inkscape:connector-curvature="0"
   style="fill:#be1e2d;stroke:#000000;stroke-width:1.99999976;stroke-miterlimit:10" /></g>
	<g
   clip-path="url(#SVGID_8_)"
   id="g74">
		<g
   id="g76">
			<radialGradient
   id="SVGID_10_"
   cx="528.6235"
   cy="337.8281"
   r="49.9806"
   gradientUnits="userSpaceOnUse">
				<stop
   offset="0"
   style="stop-color:#FFD56C"
   id="stop79" />
				<stop
   offset="1"
   style="stop-color:#FBB041"
   id="stop81" />
			</radialGradient>
			<path
   fill="url(#SVGID_10_)"
   stroke="#000000"
   stroke-width="2"
   stroke-miterlimit="10"
   d="M579.841,326.329h-39.127     l-12.091-37.212l-12.091,37.212h-39.127l31.654,22.999l-12.091,37.213l31.654-22.999l31.654,22.999l-12.091-37.213     L579.841,326.329z M528.624,354.733c-6.022,0-10.905-4.882-10.905-10.905c0-6.022,4.883-10.905,10.905-10.905     s10.905,4.882,10.905,10.905C539.529,349.851,534.646,354.733,528.624,354.733z"
   id="path83" />
			<radialGradient
   id="SVGID_11_"
   cx="260.2817"
   cy="337.8281"
   r="49.9806"
   gradientUnits="userSpaceOnUse">
				<stop
   offset="0"
   style="stop-color:#FFD56C"
   id="stop86" />
				<stop
   offset="1"
   style="stop-color:#FBB041"
   id="stop88" />
			</radialGradient>
			<path
   fill="url(#SVGID_11_)"
   stroke="#000000"
   stroke-width="2"
   stroke-miterlimit="10"
   d="M311.5,326.329h-39.127     l-12.091-37.212l-12.091,37.212h-39.127l31.654,22.999l-12.091,37.213l31.654-22.999l31.654,22.999l-12.091-37.213L311.5,326.329     z M260.282,354.733c-6.022,0-10.905-4.882-10.905-10.905c0-6.022,4.883-10.905,10.905-10.905s10.905,4.882,10.905,10.905     C271.187,349.851,266.304,354.733,260.282,354.733z"
   id="path90" />
		</g>
		<radialGradient
   id="SVGID_12_"
   cx="394.4517"
   cy="225.8281"
   r="49.9806"
   gradientUnits="userSpaceOnUse">
			<stop
   offset="0"
   style="stop-color:#FFD56C"
   id="stop93" />
			<stop
   offset="1"
   style="stop-color:#FBB041"
   id="stop95" />
		</radialGradient>
		<path
   fill="url(#SVGID_12_)"
   stroke="#000000"
   stroke-width="2"
   stroke-miterlimit="10"
   d="M445.669,214.329h-39.127    l-12.091-37.212l-12.091,37.212h-39.127l31.654,22.999l-12.091,37.213l31.654-22.999l31.654,22.999l-12.091-37.213    L445.669,214.329z M394.452,242.733c-6.022,0-10.905-4.882-10.905-10.905c0-6.022,4.883-10.905,10.905-10.905    s10.905,4.882,10.905,10.905C405.357,237.851,400.474,242.733,394.452,242.733z"
   id="path97" />
	</g>
	<use
   xlink:href="#SVGID_2_"
   overflow="visible"
   fill="none"
   stroke="#000000"
   stroke-width="7"
   stroke-miterlimit="10"
   id="use99" />
</g>
<radialGradient
   id="SVGID_13_"
   cx="394.4526"
   cy="575.5225"
   r="180.5935"
   gradientUnits="userSpaceOnUse">
	<stop
   offset="0.6316"
   style="stop-color:#FFFFFF"
   id="stop102" />
	<stop
   offset="0.7049"
   style="stop-color:#F4F5F5"
   id="stop104" />
	<stop
   offset="0.8549"
   style="stop-color:#EAEBEB"
   id="stop106" />
	<stop
   offset="1"
   style="stop-color:#E6E7E8"
   id="stop108" />
</radialGradient>
<path
   display="none"
   fill="url(#SVGID_13_)"
   stroke="#000000"
   stroke-width="3"
   stroke-miterlimit="10"
   d="M607.167,493.628  c0,0-35,101-212.714,101s-212.714-101-212.714-101s-32,43-29,61s64.428,102.788,241.714,102.788s238.714-84.788,241.714-102.788  S607.167,493.628,607.167,493.628z"
   id="path110" />
<g
   display="none"
   id="g112">
	<path
   fill="none"
   d="M152.739,554.628c3,18,64.428,102.788,241.714,102.788s238.714-84.788,241.714-102.788"
   id="path114" />
	<path
   display="inline"
   d="M190.816,557.796l1.968-0.403l1.307,1.382l10.12-7.123c-0.281-0.464-0.494-0.771-0.636-0.922   c-1.142-1.208-2.714-1.67-4.716-1.386c-2.002,0.285-3.851,1.229-5.546,2.831l-0.217,0.205l-3.55-0.805   c6.417-5.409,12.402-5.177,17.956,0.697l0.579,0.612l-11.74,8.269l6.607,6.987l5.268-3.715c3.463-2.445,6.696-3.861,9.698-4.247   c3.002-0.386,5.338,0.304,7.009,2.07c0.657,0.695,1.113,1.437,1.369,2.225l-3.231,1.21c0.174-1.638-0.038-2.773-0.638-3.408   c-0.757-0.8-1.822-1.005-3.195-0.614c-1.374,0.391-3.327,1.461-5.86,3.213l-13.311,9.153c-2.855,1.971-4.686,3.337-5.492,4.099   c-1.064,1.007-1.197,1.933-0.397,2.778c0.35,0.37,0.906,0.845,1.669,1.425l-1.116,0.776l-6.788-4.415l13.603-9.559l-6.606-6.987   l-2.102,1.473c-3.333,2.336-6.61,3.646-9.833,3.935c-3.223,0.287-5.727-0.514-7.511-2.4c-1.321-1.397-1.842-3.128-1.563-5.193   l3.732-0.525c-1.02,2.337-0.874,4.2,0.44,5.59c1.892,2,5.343,1.24,10.353-2.281l4.235-2.975L190.816,557.796z"
   id="path116" />
	<path
   display="inline"
   d="M211.954,597.266l4.582-4.81c-4.404,2.253-7.684,2.618-9.839,1.095c-1.502-1.061-2.191-2.624-2.069-4.688   c0.123-2.064,1.034-4.299,2.733-6.703c1.059-1.499,3.043-3.763,5.954-6.793c2.911-3.029,5.764-5.803,8.561-8.32   c-0.367-0.398-0.635-0.658-0.805-0.778c-1.4-0.989-3.049-1.131-4.947-0.426c-1.898,0.706-3.565,2.075-5.002,4.107l-3.639-0.089   c5.208-6.579,11.071-7.565,17.588-2.961l0.917,0.647c-3.12,2.777-6.236,5.783-9.349,9.019c-3.113,3.234-5.281,5.718-6.504,7.448   c-1.33,1.882-2.099,3.547-2.307,4.993c-0.208,1.447,0.176,2.516,1.152,3.205c1.026,0.726,2.467,0.838,4.323,0.337   c1.855-0.501,3.911-1.564,6.168-3.192l15.008-15.81l3.197,1.605l-4.92,4.91l-10.637,11.191c-1.948,2.055-3.16,3.419-3.636,4.093   c-0.887,1.255-0.766,2.281,0.363,3.078c0.399,0.282,0.949,0.584,1.651,0.905l-0.954,0.998L211.954,597.266z"
   id="path118" />
	<path
   display="inline"
   d="M222.065,600.879l3.374-1.85c-0.086,2.582,0.712,4.281,2.395,5.098c1.103,0.535,2.391,0.369,3.862-0.498   c1.471-0.867,2.874-2.282,4.207-4.244l11.497-16.954c-0.427-0.333-0.734-0.545-0.921-0.636c-1.542-0.748-3.193-0.62-4.951,0.385   c-1.758,1.006-3.18,2.628-4.266,4.868l-3.605,0.504c1.928-3.476,4.317-5.747,7.168-6.815c2.851-1.068,5.87-0.829,9.058,0.718   l1.136,0.551c-1.468,7.431-3.493,14.82-6.075,22.168l19.061-15.87l3.234,0.976l-4.055,5.646l-9.894,14.576   c-0.873,1.301-1.511,2.366-1.915,3.198c-0.546,1.126-0.319,1.932,0.681,2.417c0.496,0.24,1.193,0.492,2.094,0.755l-0.778,1.141   l-7.84-1.479l15.756-23.235l-19.798,16.39l-1.593-0.394l0.27-0.557c2.427-5.005,4.548-11.651,6.363-19.941l-4.949,7.275   c-6.089,8.983-11.49,12.332-16.202,10.047C223.733,604.32,222.629,602.906,222.065,600.879z"
   id="path120" />
	<path
   display="inline"
   d="M256.048,617.014l2.912-2.09c0.281,2.282,1.181,3.676,2.7,4.181c1.449,0.482,3.087,0.108,4.914-1.12   c1.827-1.229,4.328-3.654,7.503-7.275l11.39-12.961c-1.017-0.533-1.909-0.928-2.678-1.184c-2.061-0.686-3.885-0.508-5.474,0.532   c-1.588,1.039-2.819,2.87-3.69,5.491l-3.553,1.002c1.032-2.478,2.249-4.406,3.649-5.787c1.552-1.539,3.095-2.489,4.627-2.851   c1.533-0.36,3.545-0.254,6.037,0.32c0.497,0.12,1.251,0.288,2.263,0.505l3.266,0.253l-2.052,6.812l-3.799,14.286   c-0.885,3.321-1.32,5.558-1.304,6.711c0.016,1.153,0.492,1.886,1.429,2.197c0.167,0.056,0.758,0.207,1.771,0.453l-0.637,1.272   l-7.3-0.719l2.713-10.184l-8.06-2.681c-2.788,3.181-5.123,5.278-7.004,6.294c-1.882,1.016-3.784,1.204-5.707,0.564   C258.141,620.431,256.835,619.09,256.048,617.014z M273.811,612.892l7.321,2.436l4.116-15.536L273.811,612.892z"
   id="path122" />
	<path
   display="inline"
   d="M286.981,626.848l2.844-2.565c0.529,2.534,1.697,3.999,3.504,4.396c1.208,0.265,2.425-0.192,3.652-1.373   c1.227-1.18,2.261-2.886,3.102-5.119l7.217-19.148c-0.494-0.224-0.847-0.36-1.06-0.406c-1.665-0.365-3.234,0.146-4.709,1.533   s-2.479,3.298-3.012,5.729l-3.388,1.332c1.01-3.638,2.762-6.363,5.256-8.175c2.493-1.813,5.272-2.383,8.337-1.71l1.461,0.32   c0.241,3.897,0.758,8.11,1.551,12.64l0.9,5.134c0.639,3.534,1.054,6.37,1.245,8.509l4.394-11.662   c1.51-4.023,3.261-7.008,5.251-8.952s4.041-2.685,6.152-2.222c0.751,0.165,1.444,0.521,2.08,1.067l-1.713,2.573   c-0.69-1.17-1.451-1.847-2.283-2.029c-2.192-0.481-4.237,1.809-6.134,6.868l-5.727,15.192l-2.069,6.013l-2.15,0.489   c-0.021-1.649-0.443-4.815-1.267-9.496l-1.746-9.864c-0.464-2.636-0.813-4.977-1.044-7.022l-2.917,7.771   c-1.854,4.909-3.944,8.535-6.272,10.879c-2.328,2.344-4.735,3.243-7.222,2.697C289.469,629.862,288.058,628.73,286.981,626.848z"
   id="path124" />
	<path
   display="inline"
   d="M319.392,635.598l2.777-2.779l1.033,0.154c1.171,0.174,2.115-0.221,2.832-1.186s1.524-2.955,2.425-5.971   l5.078-16.848l-4.178-0.622l2.7-2.791l10.036,1.495l-2.809,2.774l-2.513-0.374l-4.399,14.618c-1.349,4.474-3.59,7.671-6.723,9.592   l5.965,1.104l-2.685,2.793L319.392,635.598z"
   id="path126" />
	<path
   display="inline"
   d="M355.988,638.195l2.369-3.01c0.951,2.407,2.35,3.652,4.198,3.737c1.235,0.056,2.357-0.602,3.367-1.973   c1.009-1.37,1.738-3.228,2.188-5.571l3.865-20.094c-0.524-0.138-0.895-0.212-1.113-0.222c-1.702-0.078-3.163,0.692-4.38,2.31   c-1.218,1.618-1.883,3.67-1.997,6.157l-3.113,1.887c0.379-3.756,1.644-6.738,3.794-8.947c2.149-2.209,4.792-3.242,7.927-3.099   l1.495,0.067c0.898,3.801,2.122,7.865,3.672,12.193l1.757,4.907c1.229,3.375,2.119,6.1,2.67,8.175l2.352-12.238   c0.807-4.222,2.025-7.459,3.658-9.713c1.631-2.254,3.526-3.331,5.686-3.232c0.769,0.034,1.512,0.269,2.23,0.699l-1.252,2.827   c-0.879-1.037-1.744-1.575-2.595-1.614c-2.242-0.102-3.869,2.501-4.881,7.809l-3.067,15.944l-1.02,6.276l-2.036,0.847   c-0.3-1.622-1.253-4.671-2.859-9.144l-3.393-9.426c-0.905-2.519-1.645-4.767-2.22-6.744l-1.558,8.153   c-0.994,5.152-2.44,9.08-4.336,11.785c-1.897,2.704-4.117,3.998-6.66,3.883C358.95,640.744,357.368,639.868,355.988,638.195z"
   id="path128" />
	<path
   display="inline"
   d="M389.35,641.48l2.307-3.18l1.045-0.011c1.185-0.011,2.055-0.549,2.61-1.614s1.043-3.158,1.46-6.277   l2.373-17.436l-4.224,0.041l2.229-3.18l10.146-0.098l-2.338,3.181l-2.541,0.024l-2.052,15.128   c-0.632,4.63-2.344,8.139-5.137,10.526l6.064,0.155l-2.214,3.18L389.35,641.48z"
   id="path130" />
	<path
   display="inline"
   d="M403.16,641.451l2.096-3.237l0.903-0.033c1.235-0.046,2.12-0.569,2.655-1.571s0.958-2.918,1.27-5.748   l1.187-10.976c0.348-3.244,1.324-5.946,2.929-8.104c1.605-2.159,3.477-3.278,5.616-3.357c0.955-0.035,2.078,0.394,3.369,1.285   l-0.583,5.338l-0.996,0.037c0.018-0.37,0.021-0.677,0.013-0.919c-0.098-2.644-1.144-3.929-3.137-3.855   c-1.963,0.072-3.191,2.417-3.687,7.033l-1.071,9.861c-0.317,2.958-0.828,5.24-1.533,6.847s-1.84,3.05-3.404,4.332l8.714-0.129   c2.503-0.093,4.675-0.97,6.516-2.633l-0.174,1.608c-1.39,1.816-2.44,2.983-3.154,3.501s-1.673,0.798-2.878,0.843L403.16,641.451z"
   id="path132" />
	<path
   display="inline"
   d="M446.687,637.124l1.666-3.174c1.274,1.914,2.704,2.757,4.287,2.527c1.512-0.219,2.809-1.286,3.892-3.204   c1.082-1.917,2.23-5.206,3.446-9.866l4.372-16.691c-1.147-0.021-2.122,0.026-2.924,0.143c-2.149,0.311-3.701,1.287-4.655,2.929   s-1.233,3.829-0.838,6.563l-2.727,2.488c-0.188-2.677,0.035-4.946,0.669-6.809c0.697-2.071,1.65-3.612,2.858-4.622   c1.208-1.009,3.055-1.815,5.54-2.42c0.497-0.115,1.247-0.303,2.249-0.563l3.033-1.237l1.219,7.008l3.008,14.474   c0.696,3.365,1.311,5.561,1.842,6.584c0.531,1.022,1.285,1.464,2.263,1.322c0.175-0.025,0.771-0.154,1.786-0.388l0.001,1.423   l-6.848,2.63l-2.139-10.32l-8.407,1.217c-1.066,4.093-2.213,7.015-3.44,8.766c-1.227,1.752-2.843,2.772-4.848,3.063   C450.089,639.24,448.322,638.626,446.687,637.124z M460.718,625.478l7.636-1.104l-3.284-15.733L460.718,625.478z"
   id="path134" />
	<path
   display="inline"
   d="M478.579,634.058l1.473-3.563l0.883-0.197c1.206-0.27,1.981-0.945,2.326-2.027   c0.344-1.082,0.412-3.043,0.204-5.883l-0.827-11.009c-0.247-3.254,0.223-6.088,1.408-8.502c1.187-2.415,2.823-3.854,4.913-4.321   c0.933-0.208,2.115,0.009,3.547,0.651l0.396,5.355l-0.974,0.218c-0.051-0.368-0.102-0.67-0.154-0.906   c-0.576-2.582-1.838-3.656-3.785-3.222c-1.917,0.428-2.699,2.956-2.348,7.585l0.738,9.893c0.225,2.967,0.137,5.304-0.265,7.012   c-0.401,1.707-1.255,3.333-2.561,4.878l8.545-1.71c2.444-0.545,4.421-1.803,5.93-3.771l0.12,1.612   c-1.035,2.039-1.857,3.377-2.465,4.016c-0.608,0.639-1.501,1.089-2.677,1.352L478.579,634.058z"
   id="path136" />
	<path
   display="inline"
   d="M499.518,629.282l1.396-3.673l1.005-0.282c1.141-0.32,1.84-1.067,2.099-2.241   c0.258-1.173,0.181-3.32-0.231-6.44l-2.266-17.449l-4.066,1.143l1.321-3.651l9.768-2.746l-1.426,3.682l-2.446,0.688l1.973,15.139   c0.601,4.633-0.135,8.468-2.207,11.503l5.895-1.436l-1.306,3.647L499.518,629.282z"
   id="path138" />
	<path
   display="inline"
   d="M515.551,624.747l1.138-3.758l0.251-0.087c1.492-0.518,2.373-1.298,2.645-2.34   c0.271-1.041,0.114-3.071-0.471-6.088l-3.708-19.342c-2.021,0.702-3.398,2.012-4.13,3.929c-0.731,1.918-0.683,4.073,0.147,6.465   l0.153,0.443l-2.199,2.887c-1.167-4.157-1.043-7.573,0.372-10.247c1.415-2.675,4.174-4.724,8.277-6.146l8.658-3.004l0.669,6.159   l-0.928,0.322c-0.104-0.552-0.228-1.035-0.372-1.452c-0.368-1.062-1.066-1.64-2.095-1.735c-1.028-0.095-2.716,0.265-5.062,1.079   l-0.457,0.158l2.433,12.526l6.567-2.278l-0.782,2.597c-2.363,0.384-3.948,0.716-4.753,0.995l-0.736,0.255l0.445,2.281   c0.504,2.562,0.652,4.679,0.446,6.351c-0.206,1.673-0.841,3.482-1.902,5.43l7.2-2.07l1.567-0.476c1.6-0.555,2.838-1.82,3.715-3.796   l0.324,1.694c-0.903,3.009-2.121,4.778-3.652,5.31l-0.684,0.215L515.551,624.747z"
   id="path140" />
	<path
   display="inline"
   d="M535.443,615.879l0.683-3.769c1.968,1.682,3.788,2.127,5.46,1.336c1.117-0.528,1.802-1.635,2.051-3.318   c0.25-1.684,0.025-3.666-0.675-5.948l-5.994-19.564c-0.528,0.124-0.891,0.232-1.088,0.325c-1.541,0.729-2.47,2.093-2.788,4.093   c-0.319,2,0.054,4.125,1.118,6.375l-1.867,3.125c-1.424-3.496-1.703-6.724-0.838-9.683c0.865-2.958,2.716-5.108,5.553-6.45   l1.353-0.64c2.573,2.938,5.559,5.956,8.955,9.055l3.851,3.513c2.667,2.405,4.729,4.396,6.188,5.973l-3.653-11.915   c-1.264-4.107-1.703-7.539-1.316-10.295c0.387-2.755,1.557-4.595,3.51-5.519c0.695-0.329,1.462-0.471,2.299-0.427l0.217,3.084   c-1.262-0.505-2.277-0.575-3.048-0.211c-2.028,0.96-2.247,4.021-0.655,9.186l4.756,15.524l2.038,6.022l-1.402,1.702   c-1.025-1.293-3.295-3.54-6.809-6.741l-7.411-6.738c-1.979-1.803-3.686-3.442-5.12-4.92l2.441,7.933   c1.534,5.019,2.097,9.167,1.688,12.444c-0.409,3.278-1.765,5.461-4.066,6.549C539.254,616.744,537.445,616.711,535.443,615.879z"
   id="path142" />
	<path
   display="inline"
   d="M585.708,591.197l-2.894-5.979c0.563,4.915-0.248,8.113-2.431,9.597c-1.521,1.033-3.227,1.13-5.117,0.29   c-1.89-0.841-3.661-2.479-5.316-4.914c-1.031-1.519-2.454-4.172-4.268-7.961c-1.814-3.789-3.409-7.436-4.783-10.938   c-0.503,0.204-0.84,0.364-1.012,0.481c-1.418,0.963-2.13,2.457-2.137,4.482c-0.006,2.024,0.69,4.066,2.089,6.126l-1.361,3.376   c-4.33-7.188-3.195-13.023,3.406-17.508l0.928-0.631c1.504,3.896,3.224,7.87,5.159,11.921s3.499,6.953,4.689,8.706   c1.295,1.906,2.583,3.211,3.865,3.914c1.281,0.703,2.416,0.719,3.404,0.047c1.04-0.706,1.651-2.016,1.835-3.929   c0.183-1.912-0.092-4.211-0.822-6.896l-9.531-19.604l2.627-2.43l2.869,6.332l6.741,13.89c1.239,2.546,2.092,4.16,2.555,4.843   c0.863,1.271,1.866,1.518,3.01,0.741c0.404-0.274,0.88-0.684,1.427-1.228l0.601,1.243L585.708,591.197z"
   id="path144" />
	<path
   display="inline"
   d="M593.025,583.184l-0.762-3.771c2.439,0.851,4.3,0.595,5.579-0.77c0.839-0.894,1.063-2.173,0.674-3.836   c-0.391-1.662-1.324-3.422-2.801-5.278l-12.766-16.02c-0.446,0.309-0.74,0.539-0.882,0.69c-1.174,1.25-1.542,2.863-1.105,4.841   c0.438,1.978,1.563,3.817,3.378,5.521l-0.591,3.592c-2.744-2.875-4.202-5.832-4.374-8.872c-0.172-3.039,0.955-5.851,3.38-8.435   l0.863-0.92c6.658,3.611,13.11,7.743,19.357,12.395l-9.48-22.919l1.894-2.797l4.184,5.551l10.974,13.782   c0.981,1.22,1.81,2.146,2.483,2.779c0.913,0.856,1.749,0.879,2.511,0.068c0.376-0.401,0.824-0.992,1.343-1.774l0.857,1.082   l-3.744,7.046L596.5,543.185l9.758,23.777l-0.85,1.404l-0.451-0.424c-4.056-3.806-9.771-7.809-17.146-12.008l5.474,6.89   c6.766,8.486,8.356,14.639,4.772,18.457C596.807,582.615,595.129,583.249,593.025,583.184z"
   id="path146" />
</g>
</svg>