<?xml version="1.0" encoding="UTF-8"?>
<!-- Generator: Adobe Illustrator 15.0.0, SVG Export Plug-In  -->
<!DOCTYPE svg PUBLIC "-//W3C//DTD SVG 1.1//EN" "http://www.w3.org/Graphics/SVG/1.1/DTD/svg11.dtd" [
	<!ENTITY ns_flows "http://ns.adobe.com/Flows/1.0/">
]>
<svg version="1.1" xmlns="http://www.w3.org/2000/svg" xmlns:xlink="http://www.w3.org/1999/xlink" xmlns:a="http://ns.adobe.com/AdobeSVGViewerExtensions/3.0/" x="0px" y="0px" width="524px" height="659px" viewBox="0 0 524 659" enable-background="new 0 0 524 659" xml:space="preserve">
<defs>
</defs>
<linearGradient id="SVGID_3_" gradientUnits="userSpaceOnUse" x1="37.7886" y1="515.3037" x2="92.6829" y2="536.3757">
	<stop offset="0" style="stop-color:#8B5E3C"/>
	<stop offset="0.497" style="stop-color:#FDC060"/>
</linearGradient>
<path display="none" fill="url(#SVGID_3_)" stroke="#000000" stroke-width="3" stroke-miterlimit="10" d="M109.092,493.628l-72,70  c0,0-13.53,0.171-11-15s23-55,23-55s1-8,21-9S109.092,493.628,109.092,493.628z"/>
<linearGradient id="SVGID_4_" gradientUnits="userSpaceOnUse" x1="430.9292" y1="536.376" x2="485.8235" y2="515.304">
	<stop offset="0.503" style="stop-color:#FDC060"/>
	<stop offset="1" style="stop-color:#8B5E3C"/>
</linearGradient>
<path display="none" fill="url(#SVGID_4_)" stroke="#000000" stroke-width="3" stroke-miterlimit="10" d="M414.52,493.628l72,70  c0,0,13.529,0.171,11-15s-23-55-23-55s-1-8-21-9S414.52,493.628,414.52,493.628z"/>
<linearGradient id="SVGID_5_" gradientUnits="userSpaceOnUse" x1="1.5" y1="461.1279" x2="107.0923" y2="461.1279">
	<stop offset="0" style="stop-color:#BCBEC0"/>
	<stop offset="0.3333" style="stop-color:#E6E7E8"/>
</linearGradient>
<path display="none" fill="url(#SVGID_5_)" stroke="#000000" stroke-width="3" stroke-miterlimit="10" d="M2.092,456.628  c0-18,7.316-28,35-28s51,8,51,8l19,57c0,0-71.883-16.141-90.941-9.07S2.092,456.628,2.092,456.628z"/>
<linearGradient id="SVGID_6_" gradientUnits="userSpaceOnUse" x1="416.52" y1="461.1279" x2="522.1118" y2="461.1279">
	<stop offset="0.6316" style="stop-color:#E6E7E8"/>
	<stop offset="0.6867" style="stop-color:#DBDCDD"/>
	<stop offset="0.7932" style="stop-color:#CACBCD"/>
	<stop offset="0.8984" style="stop-color:#BFC1C3"/>
	<stop offset="1" style="stop-color:#BCBEC0"/>
</linearGradient>
<path display="none" fill="url(#SVGID_6_)" stroke="#000000" stroke-width="3" stroke-miterlimit="10" d="M521.52,456.628  c0-18-7.316-28-35-28s-51,8-51,8l-19,57c0,0,71.883-16.141,90.941-9.07S521.52,456.628,521.52,456.628z"/>
<path display="none" fill="#FBB040" stroke="#000000" stroke-width="3" stroke-miterlimit="10" d="M2.092,456.628c0,0,8,6,23,6  c9.731,10.067,11,32,11,58.345c-25-1.345-34-19.345-34-48.345S2.092,456.628,2.092,456.628z"/>
<path display="none" fill="#FBB040" stroke="#000000" stroke-width="3" stroke-miterlimit="10" d="M521.52,456.628c0,0-8,6-23,6  c-9.731,10.067-11,32-11,58.345c25-1.345,34-19.345,34-48.345S521.52,456.628,521.52,456.628z"/>
<g>
	<defs>
		<path id="SVGID_2_" d="M261.113,3.5H10.092c0,0,0,138.937,0,258.714c0,161.081,140,299,251.714,341    c118.286-39,251.714-175.92,251.714-337c0-119.778,0-262.714,0-262.714H261.113z"/>
	</defs>
	<radialGradient id="SVGID_7_" cx="261.8062" cy="303.3569" r="276.8339" gradientUnits="userSpaceOnUse">
		<stop offset="0" style="stop-color:#262262"/>
		<stop offset="0.5" style="stop-color:#2E3192"/>
		<stop offset="1" style="stop-color:#262262"/>
	</radialGradient>
	<use xlink:href="#SVGID_2_" overflow="visible" fill="url(#SVGID_7_)"/>
	<clipPath id="SVGID_8_">
		<use xlink:href="#SVGID_2_" overflow="visible"/>
	</clipPath>
	
		<radialGradient id="SVGID_9_" cx="261.8062" cy="320.0713" r="192.21" gradientTransform="matrix(-4.371139e-008 -1 3 -1.311342e-007 -698.4077 581.8775)" gradientUnits="userSpaceOnUse">
		<stop offset="0" style="stop-color:#E8B620"/>
		<stop offset="0.5" style="stop-color:#F7D50A"/>
		<stop offset="1" style="stop-color:#E8B620"/>
	</radialGradient>
	<polygon clip-path="url(#SVGID_8_)" fill="url(#SVGID_9_)" stroke="#000000" stroke-width="3" stroke-miterlimit="10" points="   513.52,217.458 10.092,217.458 10.092,396.021 33.643,422.685 109.701,336.571 185.757,422.685 261.814,336.571 337.871,422.685    413.927,336.571 489.981,422.685 513.52,396.033  "/>
	<g clip-path="url(#SVGID_8_)">
		<linearGradient id="SVGID_10_" gradientUnits="userSpaceOnUse" x1="261.8062" y1="111.064" x2="513.52" y2="111.064">
			<stop offset="0" style="stop-color:#262262"/>
			<stop offset="0.5" style="stop-color:#2E3192"/>
			<stop offset="1" style="stop-color:#262262"/>
		</linearGradient>
		
			<rect x="261.806" y="3.5" fill="url(#SVGID_10_)" stroke="#000000" stroke-width="3" stroke-miterlimit="10" width="251.714" height="215.128"/>
		<g>
			<g>
				<path fill="#E3C920" d="M478.52,85.628h-94.214v73.279c0,0,5.758-0.408,6.037-9.133c-0.003,0.097,0.023,1.546,5.099,1.546      c6.207,0,8.202-2.033,8.202-4.964s-1.328-4.766-2.768-5.643c-1.443,0.089-0.248,3.624-3.686,3.624      c-3.436,0-6.735-1.597-6.735-4.311c0-4.059-0.104-46.389-0.111-49.703c4.26,0.006,58.685,0.085,63.902,0.085      c3.489,0,5.542,2.568,5.542,5.241c0,2.672-4.545,1.743-4.658,2.866c1.126,1.12,3.485,2.153,7.255,2.153      c3.768,0,6.382-1.552,6.382-6.379c0-3.947-1.864-3.969-1.989-3.966C477.996,90.106,478.52,85.628,478.52,85.628z"/>
				<path fill="#FEE46F" d="M384.306,12.349v73.279h94.214c0,0-0.524-4.479-11.742-4.695c0.125,0.002,1.989-0.02,1.989-3.966      c0-4.828-2.614-6.379-6.382-6.379c-3.77,0-6.129,1.033-7.255,2.153c0.113,1.123,4.658,0.193,4.658,2.866      c0,2.673-2.053,5.241-5.542,5.241c-5.218,0-59.643,0.079-63.902,0.085c0.008-3.314,0.111-45.644,0.111-49.703      c0-2.713,3.3-4.311,6.735-4.311c3.438,0,2.242,3.535,3.686,3.624c1.439-0.877,2.768-2.712,2.768-5.643s-1.995-4.964-8.202-4.964      c-5.075,0-5.103,1.449-5.098,1.546C390.064,12.757,384.306,12.349,384.306,12.349z"/>
				<path fill="#FFF2AC" d="M290.092,85.628h94.214V12.349c0,0-5.758,0.408-6.037,9.133c0.004-0.097-0.023-1.546-5.099-1.546      c-6.207,0-8.202,2.033-8.202,4.964s1.328,4.766,2.768,5.643c1.443-0.089,0.248-3.624,3.686-3.624      c3.436,0,6.736,1.597,6.736,4.311c0,4.059,0.103,46.389,0.11,49.703c-4.26-0.006-58.685-0.085-63.902-0.085      c-3.488,0-5.542-2.568-5.542-5.241c0-2.672,4.545-1.743,4.658-2.866c-1.126-1.12-3.485-2.153-7.255-2.153      c-3.768,0-6.382,1.552-6.382,6.379c0,3.947,1.864,3.969,1.989,3.966C290.617,81.149,290.092,85.628,290.092,85.628z"/>
				<path fill="#FEE46F" d="M384.306,158.907V85.628h-94.214c0,0,0.524,4.479,11.742,4.695c-0.125-0.002-1.989,0.02-1.989,3.966      c0,4.828,2.614,6.379,6.382,6.379c3.77,0,6.129-1.033,7.255-2.153c-0.113-1.123-4.658-0.193-4.658-2.866      c0-2.673,2.054-5.241,5.542-5.241c5.218,0,59.643-0.079,63.902-0.085c-0.008,3.314-0.11,45.644-0.11,49.703      c0,2.713-3.301,4.311-6.736,4.311c-3.438,0-2.242-3.535-3.686-3.624c-1.439,0.877-2.768,2.712-2.768,5.643      s1.995,4.964,8.202,4.964c5.075,0,5.103-1.449,5.098-1.546C378.548,158.499,384.306,158.907,384.306,158.907z"/>
			</g>
			<g>
				<g>
					<path fill="#E3C920" stroke="#A97C50" stroke-width="0.6897" stroke-miterlimit="10" d="M419.299,59.419l5.395-12.759       l19.828-1.473c0,0-5.524,5.783-11.298,6.042C427.452,51.488,423.044,60.282,419.299,59.419z"/>
					<path fill="#E3C920" d="M450.211,57.006c-6.034,0-10.513,0.69-16.55-5.345c-6.037-6.035-8.105-5.345-6.727-7.414       c1.379-2.069,5.172-9.311-0.517-10.863c-2.838-0.774-4.689,0.211-5.704,1.799c-0.975,0.017-3.263-0.074-3.263-0.074l2.32,3.093       c-0.057,0.851,0.035,1.693,0.266,2.424c0,0-3.104,2.241-3.62,4.655c-0.077,0.356-0.138,0.766-0.164,1.213       c-0.156,2.585,0.838,6.461,6.715,8.959c0.624,0.265,1.21,0.494,1.765,0.694c-0.322,2.363-1.267,5.53-3.919,7.496       c0,0,5.604-0.258,7.673-3.362c1.552,3.449,3.448,5.345,7.069,5.518c-2.461-3.28-2.916-5.532-3.343-7.87       c1.574,0.318,3.126,0.764,5.067,1.835c5,2.759,8.275,6.725,8.966,7.242c0.245-1.79,0.518-4.311-2.414-6.896       C447.281,59.937,449.522,59.592,450.211,57.006z"/>
					<path fill="#FEE46F" d="M439.78,58.644c0,0,4.914,0.318,6.639-0.258c0,0-10.087-1.731-10.69-3.714       c-0.029-0.099-0.083-1.154-0.146-1.273c-0.624-0.507-1.263-1.08-1.92-1.737c-6.037-6.035-8.105-5.345-6.727-7.414       c1.379-2.069,5.172-9.311-0.517-10.863c-2.489-0.678-4.22-0.004-5.291,1.242c-0.612,1.862-1.124,4.046-1.292,5.074       c0.047,0.321,0.11,0.634,0.202,0.926c0,0-3.104,2.241-3.62,4.655c-0.077,0.356-0.138,0.766-0.164,1.213       c-0.016,0.235-0.012,0.736-0.012,0.736c1.728,3.827,4.707,5.477,8.021,7.523c0.609-0.758,0.517-1.714,0.517-1.714       s1.725,1.293,1.467,3.966c-0.259,2.672-1.337,4.526-1.337,4.526s2.802-2.198,3.491-2.371c0.69-0.172,2.376,2.336,3.966,3.562       c1.115,0.858-2.414-4.384-2.241-6.539c0.129-1.613,6.982,0.927,10.991,4.832c2.131,1.562,2.212,1.771,3.234,2.801       C443.056,61.575,442.919,60.496,439.78,58.644z"/>
					<path fill="#FFF2AC" d="M417.778,42.762c-0.616,0.745-1.168,1.62-1.36,2.519c-0.077,0.356-0.138,0.766-0.164,1.213       c-0.004,0.063-0.008,0.146-0.009,0.232c0.315,0.55,0.796,0.903,1.335,0.903c0.949,0,1.72-1.093,1.72-2.442       C419.299,43.934,418.634,42.903,417.778,42.762z"/>
					<path fill="none" stroke="#A97C50" stroke-width="0.6897" stroke-miterlimit="10" d="M450.211,57.006       c-6.034,0-10.513,0.69-16.55-5.345c-6.037-6.035-8.105-5.345-6.727-7.414c1.379-2.069,5.172-9.311-0.517-10.863       c-2.838-0.774-4.689,0.211-5.704,1.799c-0.975,0.017-3.263-0.074-3.263-0.074l2.32,3.093c-0.057,0.851,0.035,1.693,0.266,2.424       c0,0-3.104,2.241-3.62,4.655c-0.077,0.356-0.138,0.766-0.164,1.213c-0.156,2.585,0.838,6.461,6.715,8.959       c0.624,0.265,1.21,0.494,1.765,0.694c-0.322,2.363-1.267,5.53-3.919,7.496c0,0,5.604-0.258,7.673-3.362       c1.552,3.449,3.448,5.345,7.069,5.518c-2.461-3.28-2.916-5.532-3.343-7.87c1.574,0.318,3.126,0.764,5.067,1.835       c5,2.759,8.275,6.725,8.966,7.242c0.245-1.79,0.518-4.311-2.414-6.896C447.281,59.937,449.522,59.592,450.211,57.006z"/>
					<path fill="#E3C920" d="M420.814,46.833c-1.379,2.27,3.534,5.69,8.879,7.069c5.346,1.379,17.415,0.862,18.622,0       s-18.021-7.978-21.683-8.299C422.968,45.281,422.28,44.419,420.814,46.833z"/>
					<path fill="#FEE46F" d="M446.94,52.773c-4.356-2.26-17.363-6.912-20.308-7.17c-3.664-0.322-4.353-1.184-5.818,1.23       c-0.963,1.585,0.835,3.602,3.948,5.118c2.039,0.993,6.568-0.336,4.582-4.792c1.707,1.708,9.66,3.985,9.66,3.985l-7.674-1.173       l0.322,0.957l9.248,1.75l-9.138-0.759l0.258,0.651c0,0,6.043,1.131,7.501,1.159C442.279,53.783,445.738,53.713,446.94,52.773z"/>
					
						<ellipse transform="matrix(0.9501 0.3121 -0.3121 0.9501 36.3852 -130.3251)" fill="#FFF2AC" cx="425.373" cy="48.517" rx="3.707" ry="2.328"/>
					
						<path fill="none" stroke="#A97C50" stroke-width="0.6897" stroke-linecap="round" stroke-linejoin="round" stroke-miterlimit="10" d="       M422.056,45.424c-0.414,0.233-0.791,0.666-1.242,1.409c-1.379,2.27,3.534,5.69,8.879,7.069c5.346,1.379,17.415,0.862,18.622,0       s-18.021-7.978-21.683-8.299"/>
					<circle fill="#A97C50" cx="423.7" cy="37.091" r="0.865"/>
					<path fill="none" stroke="#A97C50" stroke-width="0.3448" stroke-linecap="round" stroke-miterlimit="10" d="M427.193,35.884       c0.949,0.689-0.258,5.172-2.414,5.604c-2.154,0.431-3.435-0.395-3.017-1.084"/>
				</g>
				<g>
					<path fill="#E3C920" stroke="#A97C50" stroke-width="0.6897" stroke-miterlimit="10" d="M322.398,59.419l5.395-12.759       l19.829-1.473c0,0-5.525,5.783-11.298,6.042C330.551,51.488,326.142,60.282,322.398,59.419z"/>
					<path fill="#E3C920" d="M353.31,57.006c-6.035,0-10.513,0.69-16.55-5.345c-6.037-6.035-8.106-5.345-6.727-7.414       c1.379-2.069,5.172-9.311-0.517-10.863c-2.838-0.774-4.69,0.211-5.704,1.799c-0.975,0.017-3.262-0.074-3.262-0.074l2.319,3.093       c-0.057,0.851,0.035,1.693,0.266,2.424c0,0-3.104,2.241-3.621,4.655c-0.076,0.356-0.137,0.766-0.164,1.213       c-0.154,2.585,0.838,6.461,6.717,8.959c0.623,0.265,1.209,0.494,1.764,0.694c-0.321,2.363-1.266,5.53-3.919,7.496       c0,0,5.604-0.258,7.672-3.362c1.553,3.449,3.449,5.345,7.07,5.518c-2.461-3.28-2.916-5.532-3.343-7.87       c1.575,0.318,3.126,0.764,5.067,1.835c4.999,2.759,8.276,6.725,8.966,7.242c0.245-1.79,0.517-4.311-2.414-6.896       C350.379,59.937,352.621,59.592,353.31,57.006z"/>
					<path fill="#FEE46F" d="M342.879,58.644c0,0,4.914,0.318,6.638-0.258c0,0-10.087-1.731-10.689-3.714       c-0.031-0.099-0.083-1.154-0.147-1.273c-0.625-0.507-1.262-1.08-1.92-1.737c-6.037-6.035-8.106-5.345-6.727-7.414       c1.379-2.069,5.172-9.311-0.517-10.863c-2.49-0.678-4.219-0.004-5.29,1.242c-0.614,1.862-1.124,4.046-1.294,5.074       c0.048,0.321,0.111,0.634,0.203,0.926c0,0-3.104,2.241-3.621,4.655c-0.076,0.356-0.137,0.766-0.164,1.213       c-0.014,0.235-0.011,0.736-0.011,0.736c1.728,3.827,4.706,5.477,8.021,7.523c0.61-0.758,0.518-1.714,0.518-1.714       s1.725,1.293,1.466,3.966s-1.337,4.526-1.337,4.526s2.803-2.198,3.491-2.371c0.69-0.172,2.376,2.336,3.967,3.562       c1.114,0.858-2.414-4.384-2.242-6.539c0.129-1.613,6.982,0.927,10.992,4.832c2.131,1.562,2.212,1.771,3.232,2.801       C346.155,61.575,346.017,60.496,342.879,58.644z"/>
					<path fill="#FFF2AC" d="M320.876,42.762c-0.616,0.745-1.168,1.62-1.361,2.519c-0.076,0.356-0.137,0.766-0.164,1.213       c-0.004,0.063-0.007,0.146-0.008,0.232c0.315,0.55,0.796,0.903,1.335,0.903c0.95,0,1.72-1.093,1.72-2.442       C322.398,43.934,321.733,42.903,320.876,42.762z"/>
					<path fill="none" stroke="#A97C50" stroke-width="0.6897" stroke-miterlimit="10" d="M353.31,57.006       c-6.035,0-10.513,0.69-16.55-5.345c-6.037-6.035-8.106-5.345-6.727-7.414c1.379-2.069,5.172-9.311-0.517-10.863       c-2.838-0.774-4.69,0.211-5.704,1.799c-0.975,0.017-3.262-0.074-3.262-0.074l2.319,3.093c-0.057,0.851,0.035,1.693,0.266,2.424       c0,0-3.104,2.241-3.621,4.655c-0.076,0.356-0.137,0.766-0.164,1.213c-0.154,2.585,0.838,6.461,6.717,8.959       c0.623,0.265,1.209,0.494,1.764,0.694c-0.321,2.363-1.266,5.53-3.919,7.496c0,0,5.604-0.258,7.672-3.362       c1.553,3.449,3.449,5.345,7.07,5.518c-2.461-3.28-2.916-5.532-3.343-7.87c1.575,0.318,3.126,0.764,5.067,1.835       c4.999,2.759,8.276,6.725,8.966,7.242c0.245-1.79,0.517-4.311-2.414-6.896C350.379,59.937,352.621,59.592,353.31,57.006z"/>
					<path fill="#E3C920" d="M323.913,46.833c-1.378,2.27,3.535,5.69,8.88,7.069s17.414,0.862,18.621,0s-18.021-7.978-21.683-8.299       C326.068,45.281,325.378,44.419,323.913,46.833z"/>
					<path fill="#FEE46F" d="M350.04,52.773c-4.357-2.26-17.364-6.912-20.309-7.17c-3.663-0.322-4.353-1.184-5.818,1.23       c-0.963,1.585,0.835,3.602,3.948,5.118c2.039,0.993,6.568-0.336,4.581-4.792c1.709,1.708,9.661,3.985,9.661,3.985l-7.674-1.173       l0.322,0.957l9.249,1.75l-9.139-0.759l0.258,0.651c0,0,6.043,1.131,7.501,1.159C345.377,53.783,348.836,53.713,350.04,52.773z"/>
					
						<ellipse transform="matrix(0.9501 0.312 -0.312 0.9501 31.5396 -100.0723)" fill="#FFF2AC" cx="328.471" cy="48.517" rx="3.707" ry="2.328"/>
					
						<path fill="none" stroke="#A97C50" stroke-width="0.6897" stroke-linecap="round" stroke-linejoin="round" stroke-miterlimit="10" d="       M325.155,45.424c-0.414,0.233-0.791,0.666-1.242,1.409c-1.378,2.27,3.535,5.69,8.88,7.069s17.414,0.862,18.621,0       s-18.021-7.978-21.683-8.299"/>
					<circle fill="#A97C50" cx="326.799" cy="37.091" r="0.866"/>
					<path fill="none" stroke="#A97C50" stroke-width="0.3448" stroke-linecap="round" stroke-miterlimit="10" d="M330.292,35.884       c0.949,0.689-0.258,5.172-2.413,5.604s-3.435-0.395-3.018-1.084"/>
				</g>
				<g>
					<path fill="#E3C920" stroke="#A97C50" stroke-width="0.6897" stroke-miterlimit="10" d="M419.299,135.286l5.395-12.76       l19.828-1.473c0,0-5.524,5.782-11.298,6.042C427.452,127.354,423.044,136.147,419.299,135.286z"/>
					<path fill="#E3C920" d="M450.211,132.872c-6.034,0-10.513,0.69-16.55-5.345c-6.037-6.035-8.105-5.346-6.727-7.415       c1.379-2.069,5.172-9.311-0.517-10.863c-2.838-0.774-4.689,0.211-5.704,1.799c-0.975,0.017-3.263-0.075-3.263-0.075l2.32,3.094       c-0.057,0.851,0.035,1.693,0.266,2.423c0,0-3.104,2.242-3.62,4.656c-0.077,0.356-0.138,0.766-0.164,1.213       c-0.156,2.585,0.838,6.461,6.715,8.959c0.624,0.265,1.21,0.494,1.765,0.694c-0.322,2.363-1.267,5.53-3.919,7.496       c0,0,5.604-0.258,7.673-3.362c1.552,3.449,3.448,5.345,7.069,5.518c-2.461-3.281-2.916-5.533-3.343-7.871       c1.574,0.318,3.126,0.764,5.067,1.836c5,2.758,8.275,6.724,8.966,7.241c0.245-1.79,0.518-4.311-2.414-6.897       C447.281,135.803,449.522,135.458,450.211,132.872z"/>
					<path fill="#FEE46F" d="M439.78,134.51c0,0,4.914,0.318,6.639-0.259c0,0-10.087-1.731-10.69-3.713       c-0.029-0.1-0.083-1.154-0.146-1.273c-0.624-0.507-1.263-1.08-1.92-1.737c-6.037-6.035-8.105-5.346-6.727-7.415       c1.379-2.069,5.172-9.311-0.517-10.863c-2.489-0.678-4.22-0.004-5.291,1.242c-0.612,1.862-1.124,4.046-1.292,5.073       c0.047,0.321,0.11,0.635,0.202,0.926c0,0-3.104,2.242-3.62,4.656c-0.077,0.356-0.138,0.766-0.164,1.213       c-0.016,0.235-0.012,0.736-0.012,0.736c1.728,3.827,4.707,5.476,8.021,7.522c0.609-0.757,0.517-1.713,0.517-1.713       s1.725,1.293,1.467,3.966c-0.259,2.673-1.337,4.526-1.337,4.526s2.802-2.198,3.491-2.371c0.69-0.172,2.376,2.336,3.966,3.562       c1.115,0.859-2.414-4.384-2.241-6.539c0.129-1.613,6.982,0.927,10.991,4.831c2.131,1.562,2.212,1.772,3.234,2.802       C443.056,137.441,442.919,136.362,439.78,134.51z"/>
					<path fill="#FFF2AC" d="M417.778,118.628c-0.616,0.745-1.168,1.619-1.36,2.519c-0.077,0.356-0.138,0.766-0.164,1.213       c-0.004,0.063-0.008,0.146-0.009,0.232c0.315,0.55,0.796,0.903,1.335,0.903c0.949,0,1.72-1.093,1.72-2.442       C419.299,119.799,418.634,118.768,417.778,118.628z"/>
					<path fill="none" stroke="#A97C50" stroke-width="0.6897" stroke-miterlimit="10" d="M450.211,132.872       c-6.034,0-10.513,0.69-16.55-5.345c-6.037-6.035-8.105-5.346-6.727-7.415c1.379-2.069,5.172-9.311-0.517-10.863       c-2.838-0.774-4.689,0.211-5.704,1.799c-0.975,0.017-3.263-0.075-3.263-0.075l2.32,3.094c-0.057,0.851,0.035,1.693,0.266,2.423       c0,0-3.104,2.242-3.62,4.656c-0.077,0.356-0.138,0.766-0.164,1.213c-0.156,2.585,0.838,6.461,6.715,8.959       c0.624,0.265,1.21,0.494,1.765,0.694c-0.322,2.363-1.267,5.53-3.919,7.496c0,0,5.604-0.258,7.673-3.362       c1.552,3.449,3.448,5.345,7.069,5.518c-2.461-3.281-2.916-5.533-3.343-7.871c1.574,0.318,3.126,0.764,5.067,1.836       c5,2.758,8.275,6.724,8.966,7.241c0.245-1.79,0.518-4.311-2.414-6.897C447.281,135.803,449.522,135.458,450.211,132.872z"/>
					<path fill="#E3C920" d="M420.814,122.699c-1.379,2.271,3.534,5.69,8.879,7.069c5.346,1.379,17.415,0.862,18.622,0       c1.207-0.862-18.021-7.978-21.683-8.299C422.968,121.147,422.28,120.285,420.814,122.699z"/>
					<path fill="#FEE46F" d="M446.94,128.639c-4.356-2.261-17.363-6.912-20.308-7.17c-3.664-0.322-4.353-1.184-5.818,1.23       c-0.963,1.586,0.835,3.602,3.948,5.119c2.039,0.992,6.568-0.337,4.582-4.793c1.707,1.708,9.66,3.985,9.66,3.985l-7.674-1.173       l0.322,0.957l9.248,1.75l-9.138-0.759l0.258,0.651c0,0,6.043,1.131,7.501,1.16C442.279,129.649,445.738,129.579,446.94,128.639       z"/>
					
						<ellipse transform="matrix(0.95 0.3122 -0.3122 0.95 60.0924 -126.5819)" fill="#FFF2AC" cx="425.373" cy="124.383" rx="3.707" ry="2.327"/>
					
						<path fill="none" stroke="#A97C50" stroke-width="0.6897" stroke-linecap="round" stroke-linejoin="round" stroke-miterlimit="10" d="       M422.056,121.29c-0.414,0.233-0.791,0.666-1.242,1.409c-1.379,2.271,3.534,5.69,8.879,7.069c5.346,1.379,17.415,0.862,18.622,0       c1.207-0.862-18.021-7.978-21.683-8.299"/>
					<circle fill="#A97C50" cx="423.7" cy="112.957" r="0.865"/>
					<path fill="none" stroke="#A97C50" stroke-width="0.3448" stroke-linecap="round" stroke-miterlimit="10" d="M427.193,111.75       c0.949,0.689-0.258,5.172-2.414,5.604c-2.154,0.431-3.435-0.395-3.017-1.084"/>
				</g>
				<g>
					<path fill="#E3C920" stroke="#A97C50" stroke-width="0.6897" stroke-miterlimit="10" d="M322.398,135.286l5.395-12.76       l19.829-1.473c0,0-5.525,5.782-11.298,6.042S326.142,136.147,322.398,135.286z"/>
					<path fill="#E3C920" d="M353.31,132.872c-6.035,0-10.513,0.69-16.55-5.345c-6.037-6.035-8.106-5.346-6.727-7.415       c1.379-2.069,5.172-9.311-0.517-10.863c-2.838-0.774-4.69,0.211-5.704,1.799c-0.975,0.017-3.262-0.075-3.262-0.075l2.319,3.094       c-0.057,0.851,0.035,1.693,0.266,2.423c0,0-3.104,2.242-3.621,4.656c-0.076,0.356-0.137,0.766-0.164,1.213       c-0.154,2.585,0.838,6.461,6.717,8.959c0.623,0.265,1.209,0.494,1.764,0.694c-0.321,2.363-1.266,5.53-3.919,7.496       c0,0,5.604-0.258,7.672-3.362c1.553,3.449,3.449,5.345,7.07,5.518c-2.461-3.281-2.916-5.533-3.343-7.871       c1.575,0.318,3.126,0.764,5.067,1.836c4.999,2.758,8.276,6.724,8.966,7.241c0.245-1.79,0.517-4.311-2.414-6.897       C350.379,135.803,352.621,135.458,353.31,132.872z"/>
					<path fill="#FEE46F" d="M342.879,134.51c0,0,4.914,0.318,6.638-0.259c0,0-10.087-1.731-10.689-3.713       c-0.031-0.1-0.083-1.154-0.147-1.273c-0.625-0.507-1.262-1.08-1.92-1.737c-6.037-6.035-8.106-5.346-6.727-7.415       c1.379-2.069,5.172-9.311-0.517-10.863c-2.49-0.678-4.219-0.004-5.29,1.242c-0.614,1.862-1.124,4.046-1.294,5.073       c0.048,0.321,0.111,0.635,0.203,0.926c0,0-3.104,2.242-3.621,4.656c-0.076,0.356-0.137,0.766-0.164,1.213       c-0.014,0.235-0.011,0.736-0.011,0.736c1.728,3.827,4.706,5.476,8.021,7.522c0.61-0.757,0.518-1.713,0.518-1.713       s1.725,1.293,1.466,3.966c-0.259,2.673-1.337,4.526-1.337,4.526s2.803-2.198,3.491-2.371c0.69-0.172,2.376,2.336,3.967,3.562       c1.114,0.859-2.414-4.384-2.242-6.539c0.129-1.613,6.982,0.927,10.992,4.831c2.131,1.562,2.212,1.772,3.232,2.802       C346.155,137.441,346.017,136.362,342.879,134.51z"/>
					<path fill="#FFF2AC" d="M320.876,118.628c-0.616,0.745-1.168,1.619-1.361,2.519c-0.076,0.356-0.137,0.766-0.164,1.213       c-0.004,0.063-0.007,0.146-0.008,0.232c0.315,0.55,0.796,0.903,1.335,0.903c0.95,0,1.72-1.093,1.72-2.442       C322.398,119.799,321.733,118.768,320.876,118.628z"/>
					<path fill="none" stroke="#A97C50" stroke-width="0.6897" stroke-miterlimit="10" d="M353.31,132.872       c-6.035,0-10.513,0.69-16.55-5.345c-6.037-6.035-8.106-5.346-6.727-7.415c1.379-2.069,5.172-9.311-0.517-10.863       c-2.838-0.774-4.69,0.211-5.704,1.799c-0.975,0.017-3.262-0.075-3.262-0.075l2.319,3.094c-0.057,0.851,0.035,1.693,0.266,2.423       c0,0-3.104,2.242-3.621,4.656c-0.076,0.356-0.137,0.766-0.164,1.213c-0.154,2.585,0.838,6.461,6.717,8.959       c0.623,0.265,1.209,0.494,1.764,0.694c-0.321,2.363-1.266,5.53-3.919,7.496c0,0,5.604-0.258,7.672-3.362       c1.553,3.449,3.449,5.345,7.07,5.518c-2.461-3.281-2.916-5.533-3.343-7.871c1.575,0.318,3.126,0.764,5.067,1.836       c4.999,2.758,8.276,6.724,8.966,7.241c0.245-1.79,0.517-4.311-2.414-6.897C350.379,135.803,352.621,135.458,353.31,132.872z"/>
					<path fill="#E3C920" d="M323.913,122.699c-1.378,2.271,3.535,5.69,8.88,7.069s17.414,0.862,18.621,0       c1.207-0.862-18.021-7.978-21.683-8.299C326.068,121.147,325.378,120.285,323.913,122.699z"/>
					<path fill="#FEE46F" d="M350.04,128.639c-4.357-2.261-17.364-6.912-20.309-7.17c-3.663-0.322-4.353-1.184-5.818,1.23       c-0.963,1.586,0.835,3.602,3.948,5.119c2.039,0.992,6.568-0.337,4.581-4.793c1.709,1.708,9.661,3.985,9.661,3.985l-7.674-1.173       l0.322,0.957l9.249,1.75l-9.139-0.759l0.258,0.651c0,0,6.043,1.131,7.501,1.16C345.377,129.649,348.836,129.579,350.04,128.639       z"/>
					
						<ellipse transform="matrix(0.95 0.3122 -0.3122 0.95 55.24 -96.3185)" fill="#FFF2AC" cx="328.471" cy="124.383" rx="3.707" ry="2.327"/>
					
						<path fill="none" stroke="#A97C50" stroke-width="0.6897" stroke-linecap="round" stroke-linejoin="round" stroke-miterlimit="10" d="       M325.155,121.29c-0.414,0.233-0.791,0.666-1.242,1.409c-1.378,2.271,3.535,5.69,8.88,7.069s17.414,0.862,18.621,0       c1.207-0.862-18.021-7.978-21.683-8.299"/>
					<circle fill="#A97C50" cx="326.799" cy="112.957" r="0.866"/>
					<path fill="none" stroke="#A97C50" stroke-width="0.3448" stroke-linecap="round" stroke-miterlimit="10" d="M330.292,111.75       c0.949,0.689-0.258,5.172-2.413,5.604s-3.435-0.395-3.018-1.084"/>
				</g>
				<g>
					<path fill="#E3C920" stroke="#A97C50" stroke-width="0.6897" stroke-miterlimit="10" d="M370.381,198.376l5.395-12.76       l19.829-1.473c0,0-5.525,5.782-11.298,6.042S374.125,199.238,370.381,198.376z"/>
					<path fill="#E3C920" d="M401.293,195.962c-6.035,0-10.513,0.69-16.55-5.345c-6.037-6.035-8.106-5.346-6.727-7.415       c1.379-2.069,5.172-9.311-0.517-10.863c-2.838-0.774-4.69,0.211-5.704,1.799c-0.975,0.017-3.262-0.075-3.262-0.075l2.319,3.094       c-0.057,0.851,0.035,1.693,0.266,2.423c0,0-3.104,2.242-3.621,4.656c-0.076,0.356-0.137,0.766-0.164,1.213       c-0.154,2.585,0.838,6.461,6.717,8.959c0.623,0.265,1.209,0.494,1.764,0.694c-0.321,2.363-1.266,5.53-3.919,7.496       c0,0,5.604-0.258,7.672-3.362c1.553,3.449,3.449,5.345,7.07,5.518c-2.461-3.281-2.916-5.533-3.343-7.871       c1.575,0.318,3.126,0.764,5.067,1.836c4.999,2.758,8.276,6.724,8.966,7.241c0.245-1.79,0.517-4.311-2.414-6.897       C398.363,198.894,400.604,198.549,401.293,195.962z"/>
					<path fill="#FEE46F" d="M390.863,197.601c0,0,4.914,0.318,6.638-0.259c0,0-10.087-1.731-10.689-3.713       c-0.031-0.1-0.083-1.154-0.147-1.273c-0.625-0.507-1.262-1.08-1.92-1.737c-6.037-6.035-8.106-5.346-6.727-7.415       c1.379-2.069,5.172-9.311-0.517-10.863c-2.49-0.678-4.219-0.004-5.29,1.242c-0.614,1.862-1.124,4.046-1.294,5.073       c0.048,0.321,0.111,0.635,0.203,0.926c0,0-3.104,2.242-3.621,4.656c-0.076,0.356-0.137,0.766-0.164,1.213       c-0.014,0.235-0.011,0.736-0.011,0.736c1.728,3.827,4.706,5.476,8.021,7.522c0.61-0.757,0.518-1.713,0.518-1.713       s1.725,1.293,1.466,3.966c-0.259,2.673-1.337,4.526-1.337,4.526s2.803-2.198,3.491-2.371c0.69-0.172,2.376,2.336,3.967,3.562       c1.114,0.859-2.414-4.384-2.242-6.539c0.129-1.613,6.982,0.927,10.992,4.831c2.131,1.562,2.212,1.772,3.232,2.802       C394.138,200.532,394,199.453,390.863,197.601z"/>
					<path fill="#FFF2AC" d="M368.86,181.719c-0.616,0.745-1.168,1.619-1.361,2.519c-0.076,0.356-0.137,0.766-0.164,1.213       c-0.004,0.063-0.007,0.146-0.008,0.232c0.315,0.55,0.796,0.903,1.335,0.903c0.95,0,1.72-1.093,1.72-2.442       C370.381,182.89,369.716,181.859,368.86,181.719z"/>
					<path fill="none" stroke="#A97C50" stroke-width="0.6897" stroke-miterlimit="10" d="M401.293,195.962       c-6.035,0-10.513,0.69-16.55-5.345c-6.037-6.035-8.106-5.346-6.727-7.415c1.379-2.069,5.172-9.311-0.517-10.863       c-2.838-0.774-4.69,0.211-5.704,1.799c-0.975,0.017-3.262-0.075-3.262-0.075l2.319,3.094c-0.057,0.851,0.035,1.693,0.266,2.423       c0,0-3.104,2.242-3.621,4.656c-0.076,0.356-0.137,0.766-0.164,1.213c-0.154,2.585,0.838,6.461,6.717,8.959       c0.623,0.265,1.209,0.494,1.764,0.694c-0.321,2.363-1.266,5.53-3.919,7.496c0,0,5.604-0.258,7.672-3.362       c1.553,3.449,3.449,5.345,7.07,5.518c-2.461-3.281-2.916-5.533-3.343-7.871c1.575,0.318,3.126,0.764,5.067,1.836       c4.999,2.758,8.276,6.724,8.966,7.241c0.245-1.79,0.517-4.311-2.414-6.897C398.363,198.894,400.604,198.549,401.293,195.962z"/>
					<path fill="#E3C920" d="M371.896,185.79c-1.378,2.271,3.535,5.69,8.88,7.069s17.414,0.862,18.621,0       c1.207-0.862-18.021-7.978-21.683-8.299C374.051,184.238,373.362,183.375,371.896,185.79z"/>
					<path fill="#FEE46F" d="M398.023,191.73c-4.357-2.261-17.364-6.912-20.309-7.17c-3.663-0.322-4.353-1.184-5.818,1.23       c-0.963,1.586,0.835,3.602,3.948,5.119c2.039,0.992,6.568-0.337,4.581-4.793c1.709,1.708,9.661,3.985,9.661,3.985l-7.674-1.173       l0.322,0.957l9.249,1.75l-9.139-0.759l0.258,0.651c0,0,6.043,1.131,7.501,1.16C393.361,192.74,396.82,192.67,398.023,191.73z"/>
					
						<ellipse transform="matrix(0.95 0.3122 -0.3122 0.95 77.3318 -108.1442)" fill="#FFF2AC" cx="376.454" cy="187.474" rx="3.707" ry="2.327"/>
					
						<path fill="none" stroke="#A97C50" stroke-width="0.6897" stroke-linecap="round" stroke-linejoin="round" stroke-miterlimit="10" d="       M373.138,184.38c-0.414,0.233-0.791,0.666-1.242,1.409c-1.378,2.271,3.535,5.69,8.88,7.069s17.414,0.862,18.621,0       c1.207-0.862-18.021-7.978-21.683-8.299"/>
					<circle fill="#A97C50" cx="374.782" cy="176.048" r="0.866"/>
					<path fill="none" stroke="#A97C50" stroke-width="0.3448" stroke-linecap="round" stroke-miterlimit="10" d="M378.275,174.841       c0.949,0.689-0.258,5.172-2.413,5.604s-3.435-0.395-3.018-1.084"/>
				</g>
			</g>
		</g>
	</g>
	<g clip-path="url(#SVGID_8_)">
		<linearGradient id="SVGID_11_" gradientUnits="userSpaceOnUse" x1="10.0923" y1="111.064" x2="261.8062" y2="111.064">
			<stop offset="0" style="stop-color:#ED1C24"/>
			<stop offset="0.5" style="stop-color:#BE1E2D"/>
			<stop offset="1" style="stop-color:#ED1C24"/>
		</linearGradient>
		
			<rect x="10.092" y="3.5" fill="url(#SVGID_11_)" stroke="#000000" stroke-width="3" stroke-miterlimit="10" width="251.714" height="215.128"/>
		<g>
			<g>
				<g>
					
						<linearGradient id="SVGID_12_" gradientUnits="userSpaceOnUse" x1="86.8188" y1="173.3545" x2="130.3086" y2="173.3545" gradientTransform="matrix(0.9869 0.1612 -0.1612 0.9869 -21.1122 -27.107)">
						<stop offset="0" style="stop-color:#A7A9AC"/>
						<stop offset="0.5" style="stop-color:#FFFFFF"/>
						<stop offset="1" style="stop-color:#A7A9AC"/>
					</linearGradient>
					<path fill="url(#SVGID_12_)" stroke="#000000" stroke-width="0.88" stroke-miterlimit="10" d="M67.124,174.932       c0.661-3.567-3.11-9.235-8.767-6.641s-1.084,7.865-1.084,7.865s0.577-2.974,1.515-3.027c0.938-0.053,1.808-0.376,1.989,2.829       c0.181,3.205-4.603,5.75-10.384,0.587c-3.397-3.033-4.991-7.739-4.555-12.419c0.058-0.324,1.128-5.903,5.444-6.085       c4.445-0.188,5.456,0.343,5.456,0.343s-1.932-4.154-4.925-3.794c-0.835,0.1-1.583,0.327-2.229,0.599       c0.084-0.099,0.164-0.199,0.251-0.297c5.79-6.483,15.289-10.472,21.194-5.198c5.906,5.273,4.096,13.47,4.096,13.47       s6.508-5.561,5.948-8.288c-0.559-2.726-2.563-7.41-7.868-11.775c-5.306-4.366-14.729-3.206-22.28,1.26       c-2.851,1.686-5.335,4.208-7.268,7.198c-0.472-0.848-1.07-1.655-1.774-2.06c-1.864-1.071-3.798-0.485-3.798-0.485       s2.184,2.458,2.478,4.873c0.277,2.287,0.41,2.352-0.415,5.66c-0.03,0.116-0.059,0.232-0.087,0.349       c-0.02,0.077-0.036,0.146-0.057,0.227l0.003-0.004c-0.66,2.771-0.885,5.636-0.576,8.419       c1.041,9.392,8.686,14.214,16.809,15.008C64.361,184.342,66.463,178.499,67.124,174.932z"/>
					
						<linearGradient id="SVGID_13_" gradientUnits="userSpaceOnUse" x1="118.6904" y1="191.6558" x2="159.7622" y2="191.6558" gradientTransform="matrix(0.9869 0.1612 -0.1612 0.9869 -21.1122 -27.107)">
						<stop offset="0" style="stop-color:#A7A9AC"/>
						<stop offset="0.5" style="stop-color:#FFFFFF"/>
						<stop offset="1" style="stop-color:#A7A9AC"/>
					</linearGradient>
					<path fill="url(#SVGID_13_)" stroke="#000000" stroke-width="0.88" stroke-miterlimit="10" d="M64.453,190.881       c1.706,7.981,7.359,15.034,16.808,15.01c2.8-0.01,5.623-0.556,8.301-1.523l-0.004,0.003c0.078-0.029,0.144-0.054,0.219-0.082       c0.113-0.043,0.226-0.083,0.337-0.127c3.194-1.192,3.272-1.068,5.577-1.05c2.433,0.02,5.121,1.914,5.121,1.914       s0.365-1.989-0.91-3.721c-0.48-0.652-1.351-1.156-2.247-1.529c2.753-2.259,4.979-5.011,6.333-8.034       c3.586-8.005,3.676-17.5-1.26-22.28c-4.937-4.779-9.816-6.242-12.588-6.49c-2.772-0.249-7.563,6.844-7.563,6.844       s7.94-2.722,13.846,2.551c5.906,5.274,3.014,15.162-2.776,21.646c-0.087,0.097-0.177,0.188-0.267,0.283       c0.197-0.674,0.338-1.441,0.344-2.282c0.02-3.016-4.326-4.466-4.326-4.466s0.642,0.944,0.957,5.381       c0.306,4.309-5.117,6.001-5.432,6.096c-4.603,0.96-9.458-0.092-12.854-3.127c-5.782-5.162-3.792-10.202-0.588-10.382       c3.206-0.182,2.982,0.719,3.036,1.657c0.053,0.938-2.837,1.847-2.837,1.847s5.753,3.949,7.693-1.965       c1.939-5.913-4.118-9.021-7.587-7.962C68.315,180.154,62.746,182.9,64.453,190.881z"/>
				</g>
				
					<linearGradient id="SVGID_14_" gradientUnits="userSpaceOnUse" x1="131.6143" y1="91.3887" x2="233.9346" y2="91.3887" gradientTransform="matrix(0.9869 0.1612 -0.1612 0.9869 -21.1122 -27.107)">
					<stop offset="0" style="stop-color:#A7A9AC"/>
					<stop offset="0.5" style="stop-color:#FFFFFF"/>
					<stop offset="1" style="stop-color:#A7A9AC"/>
				</linearGradient>
				<path fill="url(#SVGID_14_)" stroke="#000000" stroke-width="0.88" stroke-miterlimit="10" d="M206.059,24.03      c-1.461-1.303-3.893-0.96-5.435,0.766L82.079,157.556l5.286,4.72l118.546-132.76C207.452,27.791,207.518,25.335,206.059,24.03z"/>
				
					<linearGradient id="SVGID_15_" gradientUnits="userSpaceOnUse" x1="210.6733" y1="46.6411" x2="251.3354" y2="46.6411" gradientTransform="matrix(0.9869 0.1612 -0.1612 0.9869 -21.1122 -27.107)">
					<stop offset="0" style="stop-color:#A7A9AC"/>
					<stop offset="0.5" style="stop-color:#FFFFFF"/>
					<stop offset="1" style="stop-color:#A7A9AC"/>
				</linearGradient>
				<polygon fill="url(#SVGID_15_)" stroke="#000000" stroke-width="0.88" stroke-miterlimit="10" points="218.58,52.754       220.94,50.111 218.352,47.8 209.762,40.129 206.763,43.489 202.303,39.506 205.301,36.147 205.303,36.146 202.934,34.033       202.934,34.033 177.76,62.227 177.76,62.227 180.127,64.34 180.127,64.34 183.126,60.981 187.586,64.964 184.588,68.323       193.177,75.993 195.765,78.304 198.126,75.661 195.537,73.35 199.644,68.752 202.23,71.063 205.698,67.181 199.971,62.068       196.504,65.95 191.934,61.869 195.4,57.987 190.059,53.217 195.37,47.271 200.71,52.039 204.177,48.158 208.748,52.239       205.282,56.121 211.008,61.234 214.474,57.353 211.887,55.041 215.991,50.443     "/>
				
					<linearGradient id="SVGID_16_" gradientUnits="userSpaceOnUse" x1="141.1948" y1="148.9873" x2="151.6011" y2="148.9873" gradientTransform="matrix(0.9869 0.1612 -0.1612 0.9869 -21.1122 -27.107)">
					<stop offset="0" style="stop-color:#A7A9AC"/>
					<stop offset="0.5" style="stop-color:#FFFFFF"/>
					<stop offset="1" style="stop-color:#A7A9AC"/>
				</linearGradient>
				<polygon fill="url(#SVGID_16_)" stroke="#000000" stroke-width="0.88" stroke-miterlimit="10" points="102.686,147.999       94.537,140.722 96.012,139.07 104.162,146.347     "/>
				
					<linearGradient id="SVGID_17_" gradientUnits="userSpaceOnUse" x1="136.041" y1="157.1455" x2="146.3677" y2="157.1455" gradientTransform="matrix(0.9869 0.1612 -0.1612 0.9869 -21.1122 -27.107)">
					<stop offset="0" style="stop-color:#A7A9AC"/>
					<stop offset="0.5" style="stop-color:#FFFFFF"/>
					<stop offset="1" style="stop-color:#A7A9AC"/>
				</linearGradient>
				<polygon fill="url(#SVGID_17_)" stroke="#000000" stroke-width="0.88" stroke-miterlimit="10" points="96.294,155.158       88.145,147.881 89.521,146.339 97.671,153.616     "/>
				
					<linearGradient id="SVGID_18_" gradientUnits="userSpaceOnUse" x1="136.9902" y1="152.9727" x2="150.7305" y2="152.9727" gradientTransform="matrix(0.9869 0.1612 -0.1612 0.9869 -21.1122 -27.107)">
					<stop offset="0" style="stop-color:#A7A9AC"/>
					<stop offset="0.5" style="stop-color:#FFFFFF"/>
					<stop offset="1" style="stop-color:#A7A9AC"/>
				</linearGradient>
				<path fill="url(#SVGID_18_)" stroke="#000000" stroke-width="0.88" stroke-miterlimit="10" d="M102.095,152.32      c-1.142,1.277-4.704-0.043-7.958-2.949c-3.253-2.905-4.967-6.296-3.827-7.574c1.141-1.277,4.703,0.043,7.958,2.948      C101.522,147.651,103.234,151.042,102.095,152.32z"/>
				
					<linearGradient id="SVGID_19_" gradientUnits="userSpaceOnUse" x1="132.4819" y1="160.9561" x2="145.0161" y2="160.9561" gradientTransform="matrix(0.9869 0.1612 -0.1612 0.9869 -21.1122 -27.107)">
					<stop offset="0" style="stop-color:#A7A9AC"/>
					<stop offset="0.5" style="stop-color:#FFFFFF"/>
					<stop offset="1" style="stop-color:#A7A9AC"/>
				</linearGradient>
				<path fill="url(#SVGID_19_)" stroke="#000000" stroke-width="0.88" stroke-miterlimit="10" d="M87.347,148.356      c-0.799,0.594-1.576,1.295-2.298,2.104c-0.431,0.483-0.822,0.98-1.175,1.486c0.832,1.73,1.983,3.492,3.576,4.914      c0.024,0.021,0.045,0.044,0.068,0.067c0.024,0.021,0.05,0.04,0.075,0.06c1.532,1.369,3.331,2.298,5.08,2.929      c0.485-0.423,0.956-0.887,1.407-1.393c0.723-0.809,1.332-1.66,1.833-2.52L87.347,148.356z"/>
				
					<linearGradient id="SVGID_20_" gradientUnits="userSpaceOnUse" x1="124.4829" y1="167.7974" x2="149.2207" y2="167.7974" gradientTransform="matrix(0.9869 0.1612 -0.1612 0.9869 -21.1122 -27.107)">
					<stop offset="0" style="stop-color:#A7A9AC"/>
					<stop offset="0.5" style="stop-color:#FFFFFF"/>
					<stop offset="1" style="stop-color:#A7A9AC"/>
				</linearGradient>
				<path fill="url(#SVGID_20_)" stroke="#000000" stroke-width="0.88" stroke-miterlimit="10" d="M86.636,157.916      c-0.024-0.022-0.05-0.041-0.074-0.061c-0.024-0.022-0.044-0.045-0.068-0.067c-4.901-4.375-5.643-11.967-5.643-11.967      s-1.877,8.418-3.327,12.37c-1.449,3.951-6.73,10.419-3.372,13.418c0.024,0.021,0.05,0.039,0.076,0.059      c0.022,0.022,0.043,0.046,0.067,0.068c3.359,3,9.19-2.977,12.953-4.863c3.763-1.886,11.917-4.7,11.917-4.7      S91.537,162.291,86.636,157.916z"/>
			</g>
			<g>
				<g>
					
						<linearGradient id="SVGID_21_" gradientUnits="userSpaceOnUse" x1="86.8184" y1="173.3545" x2="130.3081" y2="173.3545" gradientTransform="matrix(-0.9869 0.1612 0.1612 0.9869 280.1366 -27.107)">
						<stop offset="0" style="stop-color:#E8B620"/>
						<stop offset="0.5" style="stop-color:#F7D50A"/>
						<stop offset="1" style="stop-color:#E8B620"/>
					</linearGradient>
					<path fill="url(#SVGID_21_)" stroke="#000000" stroke-width="0.88" stroke-miterlimit="10" d="M202.785,183.546       c8.123-0.794,15.768-5.617,16.809-15.008c0.309-2.784,0.084-5.649-0.576-8.419l0.003,0.004       c-0.021-0.081-0.038-0.15-0.057-0.227c-0.028-0.116-0.057-0.233-0.087-0.349c-0.824-3.308-0.692-3.373-0.415-5.66       c0.293-2.415,2.478-4.873,2.478-4.873s-1.934-0.586-3.798,0.485c-0.704,0.404-1.302,1.211-1.774,2.06       c-1.933-2.99-4.417-5.512-7.268-7.198c-7.551-4.466-16.975-5.626-22.28-1.26c-5.305,4.366-7.309,9.05-7.868,11.775       c-0.56,2.727,5.948,8.288,5.948,8.288s-1.81-8.197,4.096-13.47c5.905-5.273,15.405-1.285,21.194,5.198       c0.087,0.098,0.167,0.198,0.251,0.297c-0.646-0.272-1.394-0.499-2.229-0.599c-2.994-0.36-4.925,3.794-4.925,3.794       s1.01-0.532,5.456-0.343c4.316,0.182,5.386,5.761,5.444,6.085c0.436,4.681-1.158,9.387-4.555,12.419       c-5.781,5.163-10.565,2.618-10.384-0.587c0.181-3.206,1.051-2.882,1.989-2.829c0.938,0.053,1.515,3.027,1.515,3.027       s4.573-5.271-1.084-7.865s-9.428,3.074-8.767,6.641C192.562,178.499,194.663,184.342,202.785,183.546z"/>
					
						<linearGradient id="SVGID_22_" gradientUnits="userSpaceOnUse" x1="118.6899" y1="191.6558" x2="159.7622" y2="191.6558" gradientTransform="matrix(-0.9869 0.1612 0.1612 0.9869 280.1366 -27.107)">
						<stop offset="0" style="stop-color:#E8B620"/>
						<stop offset="0.5" style="stop-color:#F7D50A"/>
						<stop offset="1" style="stop-color:#E8B620"/>
					</linearGradient>
					<path fill="url(#SVGID_22_)" stroke="#000000" stroke-width="0.88" stroke-miterlimit="10" d="M187.239,179.094       c-3.469-1.059-9.526,2.049-7.587,7.962c1.94,5.914,7.693,1.965,7.693,1.965s-2.89-0.909-2.837-1.847       c0.053-0.938-0.17-1.838,3.036-1.657c3.205,0.18,5.194,5.22-0.588,10.382c-3.397,3.035-8.252,4.087-12.854,3.127       c-0.315-0.095-5.738-1.788-5.432-6.096c0.314-4.438,0.957-5.381,0.957-5.381s-4.345,1.451-4.326,4.466       c0.006,0.841,0.147,1.607,0.344,2.282c-0.089-0.095-0.18-0.186-0.267-0.283c-5.79-6.484-8.682-16.372-2.776-21.646       c5.906-5.273,13.846-2.551,13.846-2.551s-4.791-7.093-7.563-6.844c-2.772,0.248-7.651,1.71-12.588,6.49       c-4.937,4.78-4.846,14.274-1.26,22.28c1.354,3.023,3.58,5.775,6.333,8.034c-0.896,0.373-1.766,0.876-2.247,1.529       c-1.274,1.732-0.91,3.721-0.91,3.721s2.688-1.894,5.121-1.914c2.305-0.018,2.383-0.142,5.577,1.05       c0.111,0.043,0.224,0.084,0.337,0.127c0.075,0.027,0.141,0.053,0.219,0.082l-0.004-0.003c2.679,0.967,5.501,1.514,8.301,1.523       c9.449,0.024,15.103-7.029,16.808-15.01C196.279,182.9,190.709,180.154,187.239,179.094z"/>
				</g>
				
					<linearGradient id="SVGID_23_" gradientUnits="userSpaceOnUse" x1="131.6138" y1="91.3887" x2="233.9346" y2="91.3887" gradientTransform="matrix(-0.9869 0.1612 0.1612 0.9869 280.1366 -27.107)">
					<stop offset="0" style="stop-color:#E8B620"/>
					<stop offset="0.5" style="stop-color:#F7D50A"/>
					<stop offset="1" style="stop-color:#E8B620"/>
				</linearGradient>
				<path fill="url(#SVGID_23_)" stroke="#000000" stroke-width="0.88" stroke-miterlimit="10" d="M52.965,24.03      c1.461-1.303,3.893-0.96,5.435,0.766l118.546,132.76l-5.286,4.72L53.113,29.516C51.573,27.791,51.506,25.335,52.965,24.03z"/>
				
					<linearGradient id="SVGID_24_" gradientUnits="userSpaceOnUse" x1="210.6729" y1="46.6411" x2="251.3345" y2="46.6411" gradientTransform="matrix(-0.9869 0.1612 0.1612 0.9869 280.1366 -27.107)">
					<stop offset="0" style="stop-color:#E8B620"/>
					<stop offset="0.5" style="stop-color:#F7D50A"/>
					<stop offset="1" style="stop-color:#E8B620"/>
				</linearGradient>
				<polygon fill="url(#SVGID_24_)" stroke="#000000" stroke-width="0.88" stroke-miterlimit="10" points="40.445,52.754       38.084,50.111 40.673,47.8 49.263,40.129 52.262,43.489 56.721,39.506 53.723,36.147 53.722,36.146 56.09,34.033 56.09,34.033       81.265,62.227 81.265,62.227 78.897,64.34 78.897,64.34 75.898,60.981 71.438,64.964 74.437,68.323 65.847,75.993       63.259,78.304 60.898,75.661 63.487,73.35 59.381,68.752 56.794,71.063 53.327,67.181 59.053,62.068 62.52,65.95 67.09,61.869       63.625,57.987 68.965,53.217 63.654,47.271 58.314,52.039 54.847,48.158 50.276,52.239 53.743,56.121 48.017,61.234       44.551,57.353 47.138,55.041 43.034,50.443     "/>
				
					<linearGradient id="SVGID_25_" gradientUnits="userSpaceOnUse" x1="141.1943" y1="148.9873" x2="151.6006" y2="148.9873" gradientTransform="matrix(-0.9869 0.1612 0.1612 0.9869 280.1366 -27.107)">
					<stop offset="0" style="stop-color:#E8B620"/>
					<stop offset="0.5" style="stop-color:#F7D50A"/>
					<stop offset="1" style="stop-color:#E8B620"/>
				</linearGradient>
				<polygon fill="url(#SVGID_25_)" stroke="#000000" stroke-width="0.88" stroke-miterlimit="10" points="156.338,147.999       164.488,140.722 163.013,139.07 154.863,146.347     "/>
				
					<linearGradient id="SVGID_26_" gradientUnits="userSpaceOnUse" x1="136.0405" y1="157.145" x2="146.3672" y2="157.145" gradientTransform="matrix(-0.9869 0.1612 0.1612 0.9869 280.1366 -27.107)">
					<stop offset="0" style="stop-color:#E8B620"/>
					<stop offset="0.5" style="stop-color:#F7D50A"/>
					<stop offset="1" style="stop-color:#E8B620"/>
				</linearGradient>
				<polygon fill="url(#SVGID_26_)" stroke="#000000" stroke-width="0.88" stroke-miterlimit="10" points="162.73,155.158       170.879,147.881 169.503,146.339 161.353,153.616     "/>
				
					<linearGradient id="SVGID_27_" gradientUnits="userSpaceOnUse" x1="136.9902" y1="152.9727" x2="150.73" y2="152.9727" gradientTransform="matrix(-0.9869 0.1612 0.1612 0.9869 280.1366 -27.107)">
					<stop offset="0" style="stop-color:#E8B620"/>
					<stop offset="0.5" style="stop-color:#F7D50A"/>
					<stop offset="1" style="stop-color:#E8B620"/>
				</linearGradient>
				<path fill="url(#SVGID_27_)" stroke="#000000" stroke-width="0.88" stroke-miterlimit="10" d="M156.93,152.32      c1.142,1.277,4.704-0.043,7.958-2.949c3.253-2.905,4.967-6.296,3.827-7.574c-1.141-1.277-4.703,0.043-7.958,2.948      C157.502,147.651,155.79,151.042,156.93,152.32z"/>
				
					<linearGradient id="SVGID_28_" gradientUnits="userSpaceOnUse" x1="132.4814" y1="160.9561" x2="145.0161" y2="160.9561" gradientTransform="matrix(-0.9869 0.1612 0.1612 0.9869 280.1366 -27.107)">
					<stop offset="0" style="stop-color:#E8B620"/>
					<stop offset="0.5" style="stop-color:#F7D50A"/>
					<stop offset="1" style="stop-color:#E8B620"/>
				</linearGradient>
				<path fill="url(#SVGID_28_)" stroke="#000000" stroke-width="0.88" stroke-miterlimit="10" d="M171.677,148.356      c0.799,0.594,1.576,1.295,2.298,2.104c0.431,0.483,0.822,0.98,1.175,1.486c-0.832,1.73-1.983,3.492-3.576,4.914      c-0.024,0.021-0.045,0.044-0.068,0.067c-0.024,0.021-0.05,0.04-0.075,0.06c-1.532,1.369-3.331,2.298-5.08,2.929      c-0.485-0.423-0.956-0.887-1.407-1.393c-0.723-0.809-1.332-1.66-1.833-2.52L171.677,148.356z"/>
				
					<linearGradient id="SVGID_29_" gradientUnits="userSpaceOnUse" x1="124.4824" y1="167.7974" x2="149.2207" y2="167.7974" gradientTransform="matrix(-0.9869 0.1612 0.1612 0.9869 280.1366 -27.107)">
					<stop offset="0" style="stop-color:#E8B620"/>
					<stop offset="0.5" style="stop-color:#F7D50A"/>
					<stop offset="1" style="stop-color:#E8B620"/>
				</linearGradient>
				<path fill="url(#SVGID_29_)" stroke="#000000" stroke-width="0.88" stroke-miterlimit="10" d="M172.388,157.916      c0.024-0.022,0.05-0.041,0.074-0.061c0.024-0.022,0.044-0.045,0.068-0.067c4.901-4.375,5.643-11.967,5.643-11.967      s1.877,8.418,3.327,12.37c1.449,3.951,6.73,10.419,3.372,13.418c-0.024,0.021-0.05,0.039-0.076,0.059      c-0.022,0.022-0.043,0.046-0.067,0.068c-3.359,3-9.19-2.977-12.953-4.863c-3.763-1.886-11.917-4.7-11.917-4.7      S167.487,162.291,172.388,157.916z"/>
			</g>
		</g>
	</g>
	<use xlink:href="#SVGID_2_" overflow="visible" fill="none" stroke="#000000" stroke-width="7" stroke-miterlimit="10"/>
</g>
<radialGradient id="SVGID_30_" cx="261.8062" cy="575.5225" r="180.5935" gradientUnits="userSpaceOnUse">
	<stop offset="0.6316" style="stop-color:#FFFFFF"/>
	<stop offset="0.7049" style="stop-color:#F4F5F5"/>
	<stop offset="0.8549" style="stop-color:#EAEBEB"/>
	<stop offset="1" style="stop-color:#E6E7E8"/>
</radialGradient>
<path display="none" fill="url(#SVGID_30_)" stroke="#000000" stroke-width="3" stroke-miterlimit="10" d="M474.52,493.628  c0,0-35,101-212.714,101s-212.714-101-212.714-101s-32,43-29,61S84.52,657.416,261.806,657.416S500.52,572.628,503.52,554.628  S474.52,493.628,474.52,493.628z"/>
<path display="none" fill="none" d="M20.092,554.628c3,18,64.428,102.788,241.714,102.788S500.52,572.628,503.52,554.628"/>
<g display="none">
	
		<text transform="matrix(0.8255 0.1555 -0.2129 1.1301 165.9526 631.6982)" display="inline" font-family="'LucidaCalligraphy-Italic'" font-size="42">F</text>
	
		<text transform="matrix(0.8339 0.1014 -0.1388 1.1416 192.7964 636.6699)" display="inline" font-family="'LucidaCalligraphy-Italic'" font-size="42">L</text>
	
		<text transform="matrix(0.8384 0.0526 -0.072 1.1477 216.4658 639.5859)" display="inline" font-family="'LucidaCalligraphy-Italic'" font-size="42">O</text>
	
		<text transform="matrix(0.84 0.0081 -0.011 1.1499 244.209 641.2627)" display="inline" font-family="'LucidaCalligraphy-Italic'" font-size="42">R</text>
	
		<text transform="matrix(0.8389 -0.0437 0.0598 1.1484 275.3511 641.415)" display="inline" font-family="'LucidaCalligraphy-Italic'" font-size="42">E</text>
	
		<text transform="matrix(0.834 -0.1004 0.1375 1.1418 301.5464 640.209)" display="inline" font-family="'LucidaCalligraphy-Italic'" font-size="42">A</text>
	
		<text transform="matrix(0.8237 -0.1647 0.2255 1.1277 336.022 635.8936)" display="inline" font-family="'LucidaCalligraphy-Italic'" font-size="42">T</text>
	
		<text transform="matrix(0.8136 -0.209 0.2861 1.1138 360.9116 630.7344)" display="inline" font-family="'LucidaCalligraphy-Italic'" font-size="42"> </text>
	
		<text transform="matrix(0.8053 -0.239 0.3272 1.1025 372.3853 627.7852)" display="inline" font-family="'LucidaCalligraphy-Italic'" font-size="42"> </text>
</g>
</svg>