<!DOCTYPE svg PUBLIC "-//W3C//DTD SVG 1.1//EN" "http://www.w3.org/Graphics/SVG/1.1/DTD/svg11.dtd" [
	<!ENTITY ns_flows "http://ns.adobe.com/Flows/1.0/">
]><svg xmlns="http://www.w3.org/2000/svg" xmlns:xlink="http://www.w3.org/1999/xlink" width="524" height="659" viewBox="0 0 524 659"><linearGradient id="a" gradientUnits="userSpaceOnUse" x1="37.789" y1="515.304" x2="92.683" y2="536.376"><stop offset="0" stop-color="#8B5E3C"/><stop offset=".497" stop-color="#FDC060"/></linearGradient><linearGradient id="b" gradientUnits="userSpaceOnUse" x1="430.929" y1="536.376" x2="485.824" y2="515.304"><stop offset=".503" stop-color="#FDC060"/><stop offset="1" stop-color="#8B5E3C"/></linearGradient><linearGradient id="c" gradientUnits="userSpaceOnUse" x1="1.5" y1="461.128" x2="107.092" y2="461.128"><stop offset="0" stop-color="#BCBEC0"/><stop offset=".333" stop-color="#E6E7E8"/></linearGradient><linearGradient id="d" gradientUnits="userSpaceOnUse" x1="416.52" y1="461.128" x2="522.112" y2="461.128"><stop offset=".632" stop-color="#E6E7E8"/><stop offset=".687" stop-color="#DBDCDD"/><stop offset=".793" stop-color="#CACBCD"/><stop offset=".898" stop-color="#BFC1C3"/><stop offset="1" stop-color="#BCBEC0"/></linearGradient><defs><path id="e" d="M261.113 3.5H10.093v258.714c0 161.08 140 299 251.713 341 118.286-39 251.714-175.92 251.714-337V3.5H261.113z"/></defs><radialGradient id="f" cx="261.806" cy="303.357" r="276.834" gradientUnits="userSpaceOnUse"><stop offset="0" stop-color="#262262"/><stop offset=".5" stop-color="#2E3192"/><stop offset="1" stop-color="#262262"/></radialGradient><use xlink:href="#e" overflow="visible" fill="url(#f)"/><clipPath id="g"><use xlink:href="#e" overflow="visible"/></clipPath><radialGradient id="h" cx="261.806" cy="320.071" r="192.21" gradientTransform="matrix(0 -1 3 0 -698.4 581.9)" gradientUnits="userSpaceOnUse"><stop offset="0" stop-color="#E8B620"/><stop offset=".5" stop-color="#F7D50A"/><stop offset="1" stop-color="#E8B620"/></radialGradient><path clip-path="url(#g)" fill="url(#h)" stroke="#000" stroke-width="3" stroke-miterlimit="10" d="M513.52 217.458H10.092V396.02l23.55 26.665 76.06-86.114 76.055 86.115 76.057-86.114 76.057 86.115 76.057-86.114 76.054 86.115 23.54-26.652z"/><g clip-path="url(#g)"><linearGradient id="i" gradientUnits="userSpaceOnUse" x1="261.806" y1="111.064" x2="513.52" y2="111.064"><stop offset="0" stop-color="#262262"/><stop offset=".5" stop-color="#2E3192"/><stop offset="1" stop-color="#262262"/></linearGradient><path fill="url(#i)" stroke="#000" stroke-width="3" stroke-miterlimit="10" d="M261.806 3.5H513.52v215.128H261.806z"/><path fill="#E3C920" d="M478.52 85.628h-94.214v73.28s5.758-.41 6.037-9.134c-.003.097.023 1.546 5.1 1.546 6.206 0 8.2-2.033 8.2-4.964s-1.327-4.766-2.767-5.643c-1.443.09-.248 3.624-3.686 3.624-3.436 0-6.735-1.597-6.735-4.31 0-4.06-.104-46.39-.11-49.704 4.26.006 58.684.085 63.9.085 3.49 0 5.543 2.568 5.543 5.24 0 2.673-4.545 1.744-4.658 2.867 1.126 1.12 3.485 2.153 7.255 2.153 3.768 0 6.382-1.552 6.382-6.38 0-3.946-1.864-3.968-1.99-3.965 11.22-.217 11.743-4.695 11.743-4.695z"/><path fill="#FEE46F" d="M384.306 12.35v73.278h94.214s-.524-4.48-11.742-4.695c.125.002 1.99-.02 1.99-3.966 0-4.828-2.615-6.38-6.383-6.38-3.77 0-6.13 1.034-7.255 2.154.113 1.124 4.658.194 4.658 2.867s-2.053 5.24-5.542 5.24c-5.218 0-59.643.08-63.902.086.008-3.314.11-45.644.11-49.703 0-2.713 3.3-4.31 6.736-4.31 3.438 0 2.242 3.534 3.686 3.623 1.44-.877 2.768-2.712 2.768-5.643s-1.995-4.964-8.202-4.964c-5.075 0-5.103 1.45-5.098 1.546-.28-8.725-6.038-9.133-6.038-9.133z"/><path fill="#FFF2AC" d="M290.092 85.628h94.214v-73.28s-5.758.41-6.037 9.134c.003-.097-.024-1.546-5.1-1.546-6.207 0-8.202 2.033-8.202 4.964s1.328 4.766 2.768 5.643c1.443-.09.248-3.624 3.686-3.624 3.436 0 6.736 1.596 6.736 4.31 0 4.06.103 46.39.11 49.703-4.26-.006-58.685-.085-63.902-.085-3.488 0-5.542-2.568-5.542-5.24 0-2.673 4.545-1.744 4.658-2.867-1.126-1.12-3.485-2.152-7.255-2.152-3.768 0-6.382 1.552-6.382 6.38 0 3.946 1.864 3.968 1.99 3.965-11.218.216-11.743 4.695-11.743 4.695z"/><path fill="#FEE46F" d="M384.306 158.907v-73.28h-94.214s.524 4.48 11.742 4.696c-.125-.002-1.99.02-1.99 3.966 0 4.827 2.615 6.378 6.383 6.378 3.77 0 6.13-1.033 7.255-2.153-.113-1.123-4.658-.193-4.658-2.866 0-2.674 2.054-5.242 5.542-5.242 5.218 0 59.643-.08 63.902-.085-.008 3.314-.11 45.644-.11 49.703 0 2.713-3.3 4.31-6.736 4.31-3.438 0-2.242-3.534-3.686-3.623-1.44.877-2.768 2.712-2.768 5.643s1.995 4.964 8.202 4.964c5.075 0 5.103-1.45 5.098-1.546.28 8.725 6.038 9.133 6.038 9.133z"/><g><path fill="#E3C920" stroke="#A97C50" stroke-width=".69" stroke-miterlimit="10" d="M419.3 59.42l5.394-12.76 19.828-1.473s-5.524 5.783-11.298 6.042c-5.772.258-10.18 9.052-13.925 8.19z"/><path fill="#E3C920" d="M450.21 57.006c-6.033 0-10.512.69-16.55-5.345-6.036-6.034-8.104-5.344-6.726-7.413 1.38-2.07 5.172-9.31-.517-10.863-2.838-.774-4.69.21-5.704 1.8-.975.016-3.263-.075-3.263-.075l2.32 3.092c-.057.85.035 1.693.266 2.424 0 0-3.104 2.24-3.62 4.655-.077.357-.138.767-.164 1.214-.156 2.585.838 6.46 6.715 8.96.624.264 1.21.493 1.765.693-.322 2.363-1.267 5.53-3.92 7.496 0 0 5.605-.258 7.674-3.362 1.552 3.45 3.448 5.346 7.07 5.52-2.462-3.28-2.917-5.533-3.344-7.87 1.574.317 3.126.763 5.067 1.834 5 2.76 8.274 6.725 8.965 7.242.245-1.79.518-4.31-2.414-6.896 3.45-.173 5.692-.518 6.38-3.104z"/><path fill="#FEE46F" d="M439.78 58.644s4.914.318 6.64-.258c0 0-10.088-1.73-10.69-3.714-.03-.1-.084-1.154-.147-1.273-.624-.508-1.263-1.08-1.92-1.738-6.037-6.035-8.105-5.345-6.727-7.414 1.38-2.07 5.172-9.31-.517-10.863-2.49-.678-4.22-.004-5.292 1.242-.612 1.862-1.124 4.046-1.292 5.074.047.322.11.635.202.927 0 0-3.104 2.24-3.62 4.655-.077.356-.138.766-.164 1.213-.016.235-.012.736-.012.736 1.728 3.828 4.707 5.478 8.02 7.524.61-.758.518-1.714.518-1.714s1.725 1.293 1.467 3.966c-.26 2.672-1.337 4.526-1.337 4.526s2.802-2.198 3.49-2.37c.69-.173 2.377 2.335 3.967 3.56 1.115.86-2.414-4.383-2.24-6.538.128-1.613 6.98.927 10.99 4.832 2.13 1.562 2.212 1.77 3.234 2.8-1.294-2.24-1.43-3.32-4.57-5.172z"/><path fill="#FFF2AC" d="M417.778 42.762c-.616.745-1.168 1.62-1.36 2.52-.077.355-.138.765-.164 1.212-.004.063-.008.146-.01.232.316.55.797.903 1.336.903.95 0 1.72-1.094 1.72-2.443 0-1.253-.666-2.284-1.522-2.425z"/><path fill="none" stroke="#A97C50" stroke-width=".69" stroke-miterlimit="10" d="M450.21 57.006c-6.033 0-10.512.69-16.55-5.345-6.036-6.034-8.104-5.344-6.726-7.413 1.38-2.07 5.172-9.31-.517-10.863-2.838-.774-4.69.21-5.704 1.8-.975.016-3.263-.075-3.263-.075l2.32 3.092c-.057.85.035 1.693.266 2.424 0 0-3.104 2.24-3.62 4.655-.077.357-.138.767-.164 1.214-.156 2.585.838 6.46 6.715 8.96.624.264 1.21.493 1.765.693-.322 2.363-1.267 5.53-3.92 7.496 0 0 5.605-.258 7.674-3.362 1.552 3.45 3.448 5.346 7.07 5.52-2.462-3.28-2.917-5.533-3.344-7.87 1.574.317 3.126.763 5.067 1.834 5 2.76 8.274 6.725 8.965 7.242.245-1.79.518-4.31-2.414-6.896 3.45-.173 5.692-.518 6.38-3.104z"/><path fill="#E3C920" d="M420.814 46.833c-1.38 2.27 3.534 5.69 8.88 7.07 5.345 1.378 17.414.86 18.62 0s-18.02-7.98-21.682-8.3c-3.664-.322-4.352-1.184-5.818 1.23z"/><path fill="#FEE46F" d="M446.94 52.773c-4.356-2.26-17.363-6.912-20.308-7.17-3.664-.322-4.353-1.184-5.818 1.23-.963 1.585.835 3.602 3.948 5.118 2.04.994 6.568-.335 4.582-4.79 1.707 1.707 9.66 3.984 9.66 3.984l-7.674-1.173.322.958 9.248 1.75-9.138-.76.258.652s6.043 1.13 7.5 1.16c2.76.053 6.218-.017 7.42-.957z"/><ellipse transform="rotate(18.2 425.3 48.6)" fill="#FFF2AC" cx="425.373" cy="48.517" rx="3.707" ry="2.328"/><path fill="none" stroke="#A97C50" stroke-width=".69" stroke-linecap="round" stroke-linejoin="round" stroke-miterlimit="10" d="M422.056 45.424c-.414.233-.79.666-1.242 1.41-1.38 2.27 3.534 5.69 8.88 7.068 5.345 1.38 17.414.862 18.62 0s-18.02-7.978-21.682-8.3"/><circle fill="#A97C50" cx="423.7" cy="37.091" r=".865"/><path fill="none" stroke="#A97C50" stroke-width=".345" stroke-linecap="round" stroke-miterlimit="10" d="M427.193 35.884c.95.69-.258 5.172-2.414 5.604-2.155.43-3.436-.395-3.018-1.084"/><g><path fill="#E3C920" stroke="#A97C50" stroke-width=".69" stroke-miterlimit="10" d="M322.398 59.42l5.395-12.76 19.83-1.473s-5.526 5.783-11.3 6.042c-5.772.258-10.18 9.052-13.925 8.19z"/><path fill="#E3C920" d="M353.31 57.006c-6.035 0-10.513.69-16.55-5.345-6.037-6.034-8.106-5.344-6.727-7.413 1.38-2.07 5.172-9.31-.517-10.863-2.838-.774-4.69.21-5.704 1.8-.975.016-3.262-.075-3.262-.075l2.32 3.092c-.058.85.034 1.693.265 2.424 0 0-3.104 2.24-3.62 4.655-.077.357-.138.767-.165 1.214-.154 2.585.838 6.46 6.717 8.96.623.264 1.21.493 1.764.693-.32 2.363-1.265 5.53-3.918 7.496 0 0 5.604-.258 7.672-3.362 1.553 3.45 3.45 5.346 7.07 5.52-2.46-3.28-2.916-5.533-3.343-7.87 1.576.317 3.127.763 5.068 1.834 5 2.76 8.276 6.725 8.966 7.242.245-1.79.517-4.31-2.414-6.896 3.45-.173 5.69-.518 6.38-3.104z"/><path fill="#FEE46F" d="M342.88 58.644s4.913.318 6.637-.258c0 0-10.087-1.73-10.69-3.714-.03-.1-.082-1.154-.146-1.273-.624-.508-1.26-1.08-1.92-1.738-6.036-6.035-8.105-5.345-6.726-7.414 1.38-2.07 5.172-9.31-.517-10.863-2.49-.678-4.22-.004-5.29 1.242-.614 1.862-1.124 4.046-1.294 5.074.048.322.11.635.203.927 0 0-3.104 2.24-3.62 4.655-.077.356-.138.766-.165 1.213-.013.235-.01.736-.01.736 1.728 3.828 4.706 5.478 8.02 7.524.61-.758.52-1.714.52-1.714s1.724 1.293 1.465 3.966-1.337 4.526-1.337 4.526 2.803-2.198 3.49-2.37c.69-.173 2.377 2.335 3.968 3.56 1.114.86-2.414-4.383-2.242-6.538.13-1.613 6.982.927 10.992 4.832 2.13 1.562 2.212 1.77 3.232 2.8-1.293-2.24-1.43-3.32-4.57-5.172z"/><path fill="#FFF2AC" d="M320.876 42.762c-.616.745-1.168 1.62-1.36 2.52-.077.355-.138.765-.165 1.212-.003.063-.006.146-.007.232.315.55.796.903 1.335.903.95 0 1.72-1.094 1.72-2.443 0-1.253-.665-2.284-1.522-2.425z"/><path fill="none" stroke="#A97C50" stroke-width=".69" stroke-miterlimit="10" d="M353.31 57.006c-6.035 0-10.513.69-16.55-5.345-6.037-6.034-8.106-5.344-6.727-7.413 1.38-2.07 5.172-9.31-.517-10.863-2.838-.774-4.69.21-5.704 1.8-.975.016-3.262-.075-3.262-.075l2.32 3.092c-.058.85.034 1.693.265 2.424 0 0-3.104 2.24-3.62 4.655-.077.357-.138.767-.165 1.214-.154 2.585.838 6.46 6.717 8.96.623.264 1.21.493 1.764.693-.32 2.363-1.265 5.53-3.918 7.496 0 0 5.604-.258 7.672-3.362 1.553 3.45 3.45 5.346 7.07 5.52-2.46-3.28-2.916-5.533-3.343-7.87 1.576.317 3.127.763 5.068 1.834 5 2.76 8.276 6.725 8.966 7.242.245-1.79.517-4.31-2.414-6.896 3.45-.173 5.69-.518 6.38-3.104z"/><path fill="#E3C920" d="M323.913 46.833c-1.378 2.27 3.535 5.69 8.88 7.07s17.414.86 18.62 0-18.02-7.98-21.682-8.3c-3.662-.322-4.352-1.184-5.817 1.23z"/><path fill="#FEE46F" d="M350.04 52.773c-4.357-2.26-17.364-6.912-20.31-7.17-3.662-.322-4.352-1.184-5.817 1.23-.963 1.585.835 3.602 3.948 5.118 2.04.994 6.57-.335 4.582-4.79 1.71 1.707 9.66 3.984 9.66 3.984l-7.673-1.173.32.958 9.25 1.75-9.14-.76.26.652s6.042 1.13 7.5 1.16c2.757.053 6.216-.017 7.42-.957z"/><ellipse transform="rotate(18.2 328.5 48.5)" fill="#FFF2AC" cx="328.471" cy="48.517" rx="3.707" ry="2.328"/><path fill="none" stroke="#A97C50" stroke-width=".69" stroke-linecap="round" stroke-linejoin="round" stroke-miterlimit="10" d="M325.155 45.424c-.414.233-.79.666-1.242 1.41-1.378 2.27 3.535 5.69 8.88 7.068s17.414.862 18.62 0-18.02-7.978-21.682-8.3"/><circle fill="#A97C50" cx="326.799" cy="37.091" r=".866"/><path fill="none" stroke="#A97C50" stroke-width=".345" stroke-linecap="round" stroke-miterlimit="10" d="M330.292 35.884c.95.69-.258 5.172-2.413 5.604s-3.436-.395-3.02-1.084"/></g><g><path fill="#E3C920" stroke="#A97C50" stroke-width=".69" stroke-miterlimit="10" d="M419.3 135.286l5.394-12.76 19.828-1.473s-5.524 5.782-11.298 6.042c-5.772.26-10.18 9.052-13.925 8.19z"/><path fill="#E3C920" d="M450.21 132.872c-6.033 0-10.512.69-16.55-5.345-6.036-6.035-8.104-5.346-6.726-7.415 1.38-2.07 5.172-9.31-.517-10.863-2.838-.775-4.69.21-5.704 1.798-.975.017-3.263-.075-3.263-.075l2.32 3.094c-.057.85.035 1.693.266 2.423 0 0-3.104 2.242-3.62 4.656-.077.356-.138.766-.164 1.213-.156 2.584.838 6.46 6.715 8.958.624.265 1.21.494 1.765.694-.322 2.363-1.267 5.53-3.92 7.496 0 0 5.605-.258 7.674-3.362 1.552 3.45 3.448 5.345 7.07 5.518-2.462-3.28-2.917-5.533-3.344-7.87 1.574.317 3.126.763 5.067 1.835 5 2.757 8.274 6.723 8.965 7.24.245-1.79.518-4.31-2.414-6.897 3.45-.17 5.692-.515 6.38-3.1z"/><path fill="#FEE46F" d="M439.78 134.51s4.914.318 6.64-.26c0 0-10.088-1.73-10.69-3.712-.03-.1-.084-1.154-.147-1.273-.624-.507-1.263-1.08-1.92-1.737-6.037-6.035-8.105-5.346-6.727-7.415 1.38-2.07 5.172-9.31-.517-10.863-2.49-.678-4.22-.004-5.292 1.242-.612 1.862-1.124 4.046-1.292 5.073.047.32.11.635.202.926 0 0-3.104 2.243-3.62 4.657-.077.356-.138.766-.164 1.213-.016.235-.012.736-.012.736 1.728 3.827 4.707 5.476 8.02 7.522.61-.757.518-1.713.518-1.713s1.725 1.293 1.467 3.966c-.26 2.674-1.337 4.527-1.337 4.527s2.802-2.198 3.49-2.37c.69-.173 2.377 2.335 3.967 3.56 1.115.86-2.414-4.383-2.24-6.538.128-1.614 6.98.926 10.99 4.83 2.13 1.562 2.212 1.772 3.234 2.802-1.294-2.24-1.43-3.32-4.57-5.172z"/><path fill="#FFF2AC" d="M417.778 118.628c-.616.745-1.168 1.62-1.36 2.52-.077.355-.138.765-.164 1.212-.004.063-.008.146-.01.232.316.55.797.903 1.336.903.95 0 1.72-1.093 1.72-2.442 0-1.254-.666-2.285-1.522-2.425z"/><path fill="none" stroke="#A97C50" stroke-width=".69" stroke-miterlimit="10" d="M450.21 132.872c-6.033 0-10.512.69-16.55-5.345-6.036-6.035-8.104-5.346-6.726-7.415 1.38-2.07 5.172-9.31-.517-10.863-2.838-.775-4.69.21-5.704 1.798-.975.017-3.263-.075-3.263-.075l2.32 3.094c-.057.85.035 1.693.266 2.423 0 0-3.104 2.242-3.62 4.656-.077.356-.138.766-.164 1.213-.156 2.584.838 6.46 6.715 8.958.624.265 1.21.494 1.765.694-.322 2.363-1.267 5.53-3.92 7.496 0 0 5.605-.258 7.674-3.362 1.552 3.45 3.448 5.345 7.07 5.518-2.462-3.28-2.917-5.533-3.344-7.87 1.574.317 3.126.763 5.067 1.835 5 2.757 8.274 6.723 8.965 7.24.245-1.79.518-4.31-2.414-6.897 3.45-.17 5.692-.515 6.38-3.1z"/><path fill="#E3C920" d="M420.814 122.7c-1.38 2.27 3.534 5.69 8.88 7.068 5.345 1.38 17.414.862 18.62 0 1.208-.862-18.02-7.978-21.682-8.3-3.664-.32-4.352-1.183-5.818 1.23z"/><path fill="#FEE46F" d="M446.94 128.64c-4.356-2.262-17.363-6.913-20.308-7.17-3.664-.323-4.353-1.185-5.818 1.23-.963 1.585.835 3.6 3.948 5.118 2.04.992 6.568-.337 4.582-4.793 1.707 1.708 9.66 3.985 9.66 3.985l-7.674-1.173.322.957 9.248 1.75-9.138-.76.258.652s6.043 1.13 7.5 1.16c2.76.053 6.218-.017 7.42-.957z"/><ellipse transform="rotate(18.2 425.4 124.4)" fill="#FFF2AC" cx="425.373" cy="124.383" rx="3.707" ry="2.327"/><path fill="none" stroke="#A97C50" stroke-width=".69" stroke-linecap="round" stroke-linejoin="round" stroke-miterlimit="10" d="M422.056 121.29c-.414.233-.79.666-1.242 1.41-1.38 2.27 3.534 5.69 8.88 7.068 5.345 1.38 17.414.862 18.62 0 1.208-.862-18.02-7.978-21.682-8.3"/><circle fill="#A97C50" cx="423.7" cy="112.957" r=".865"/><path fill="none" stroke="#A97C50" stroke-width=".345" stroke-linecap="round" stroke-miterlimit="10" d="M427.193 111.75c.95.69-.258 5.172-2.414 5.604-2.155.43-3.436-.395-3.018-1.084"/></g><g><path fill="#E3C920" stroke="#A97C50" stroke-width=".69" stroke-miterlimit="10" d="M322.398 135.286l5.395-12.76 19.83-1.473s-5.526 5.782-11.3 6.042-10.18 9.052-13.925 8.19z"/><path fill="#E3C920" d="M353.31 132.872c-6.035 0-10.513.69-16.55-5.345-6.037-6.035-8.106-5.346-6.727-7.415 1.38-2.07 5.172-9.31-.517-10.863-2.838-.775-4.69.21-5.704 1.798-.975.017-3.262-.075-3.262-.075l2.32 3.094c-.058.85.034 1.693.265 2.423 0 0-3.104 2.242-3.62 4.656-.077.356-.138.766-.165 1.213-.154 2.584.838 6.46 6.717 8.958.623.265 1.21.494 1.764.694-.32 2.363-1.265 5.53-3.918 7.496 0 0 5.604-.258 7.672-3.362 1.553 3.45 3.45 5.345 7.07 5.518-2.46-3.28-2.916-5.533-3.343-7.87 1.576.317 3.127.763 5.068 1.835 5 2.757 8.276 6.723 8.966 7.24.245-1.79.517-4.31-2.414-6.897 3.45-.17 5.69-.515 6.38-3.1z"/><path fill="#FEE46F" d="M342.88 134.51s4.913.318 6.637-.26c0 0-10.087-1.73-10.69-3.712-.03-.1-.082-1.154-.146-1.273-.624-.507-1.26-1.08-1.92-1.737-6.036-6.035-8.105-5.346-6.726-7.415 1.38-2.07 5.172-9.31-.517-10.863-2.49-.678-4.22-.004-5.29 1.242-.614 1.862-1.124 4.046-1.294 5.073.048.32.11.635.203.926 0 0-3.104 2.243-3.62 4.657-.077.356-.138.766-.165 1.213-.013.235-.01.736-.01.736 1.728 3.827 4.706 5.476 8.02 7.522.61-.757.52-1.713.52-1.713s1.724 1.293 1.465 3.966c-.26 2.674-1.337 4.527-1.337 4.527s2.803-2.198 3.49-2.37c.69-.173 2.377 2.335 3.968 3.56 1.114.86-2.414-4.383-2.242-6.538.13-1.614 6.982.926 10.992 4.83 2.13 1.562 2.212 1.772 3.232 2.802-1.293-2.24-1.43-3.32-4.57-5.172z"/><path fill="#FFF2AC" d="M320.876 118.628c-.616.745-1.168 1.62-1.36 2.52-.077.355-.138.765-.165 1.212-.003.063-.006.146-.007.232.315.55.796.903 1.335.903.95 0 1.72-1.093 1.72-2.442 0-1.254-.665-2.285-1.522-2.425z"/><path fill="none" stroke="#A97C50" stroke-width=".69" stroke-miterlimit="10" d="M353.31 132.872c-6.035 0-10.513.69-16.55-5.345-6.037-6.035-8.106-5.346-6.727-7.415 1.38-2.07 5.172-9.31-.517-10.863-2.838-.775-4.69.21-5.704 1.798-.975.017-3.262-.075-3.262-.075l2.32 3.094c-.058.85.034 1.693.265 2.423 0 0-3.104 2.242-3.62 4.656-.077.356-.138.766-.165 1.213-.154 2.584.838 6.46 6.717 8.958.623.265 1.21.494 1.764.694-.32 2.363-1.265 5.53-3.918 7.496 0 0 5.604-.258 7.672-3.362 1.553 3.45 3.45 5.345 7.07 5.518-2.46-3.28-2.916-5.533-3.343-7.87 1.576.317 3.127.763 5.068 1.835 5 2.757 8.276 6.723 8.966 7.24.245-1.79.517-4.31-2.414-6.897 3.45-.17 5.69-.515 6.38-3.1z"/><path fill="#E3C920" d="M323.913 122.7c-1.378 2.27 3.535 5.69 8.88 7.068s17.414.862 18.62 0c1.208-.862-18.02-7.978-21.682-8.3-3.662-.32-4.352-1.183-5.817 1.23z"/><path fill="#FEE46F" d="M350.04 128.64c-4.357-2.262-17.364-6.913-20.31-7.17-3.662-.323-4.352-1.185-5.817 1.23-.963 1.585.835 3.6 3.948 5.118 2.04.992 6.57-.337 4.582-4.793 1.71 1.708 9.66 3.985 9.66 3.985l-7.673-1.173.32.957 9.25 1.75-9.14-.76.26.652s6.042 1.13 7.5 1.16c2.757.053 6.216-.017 7.42-.957z"/><ellipse transform="rotate(18.2 328.4 124.3)" fill="#FFF2AC" cx="328.471" cy="124.383" rx="3.707" ry="2.327"/><path fill="none" stroke="#A97C50" stroke-width=".69" stroke-linecap="round" stroke-linejoin="round" stroke-miterlimit="10" d="M325.155 121.29c-.414.233-.79.666-1.242 1.41-1.378 2.27 3.535 5.69 8.88 7.068s17.414.862 18.62 0c1.208-.862-18.02-7.978-21.682-8.3"/><circle fill="#A97C50" cx="326.799" cy="112.957" r=".866"/><path fill="none" stroke="#A97C50" stroke-width=".345" stroke-linecap="round" stroke-miterlimit="10" d="M330.292 111.75c.95.69-.258 5.172-2.413 5.604s-3.436-.395-3.02-1.084"/></g><g><path fill="#E3C920" stroke="#A97C50" stroke-width=".69" stroke-miterlimit="10" d="M370.38 198.376l5.396-12.76 19.83-1.473s-5.526 5.782-11.3 6.042-10.18 9.053-13.925 8.19z"/><path fill="#E3C920" d="M401.293 195.962c-6.035 0-10.513.69-16.55-5.345-6.037-6.035-8.106-5.346-6.727-7.415 1.38-2.07 5.172-9.31-.517-10.863-2.84-.775-4.69.21-5.705 1.798-.975.017-3.262-.075-3.262-.075l2.32 3.094c-.058.85.034 1.693.265 2.423 0 0-3.104 2.242-3.62 4.656-.077.356-.138.766-.165 1.213-.154 2.584.838 6.46 6.717 8.958.623.265 1.21.494 1.764.694-.32 2.363-1.266 5.53-3.92 7.496 0 0 5.605-.258 7.673-3.362 1.553 3.45 3.45 5.345 7.07 5.518-2.46-3.28-2.916-5.533-3.343-7.87 1.575.317 3.126.763 5.067 1.835 5 2.757 8.277 6.723 8.967 7.24.245-1.79.517-4.31-2.414-6.897 3.45-.17 5.69-.514 6.38-3.1z"/><path fill="#FEE46F" d="M390.863 197.6s4.914.32 6.638-.258c0 0-10.086-1.73-10.688-3.713-.03-.1-.083-1.155-.147-1.274-.625-.507-1.262-1.08-1.92-1.737-6.037-6.036-8.106-5.347-6.727-7.416 1.38-2.07 5.172-9.31-.517-10.863-2.49-.677-4.218-.003-5.29 1.243-.613 1.862-1.123 4.046-1.293 5.073.048.32.11.635.203.926 0 0-3.104 2.242-3.62 4.656-.077.356-.138.766-.165 1.213-.014.236-.01.737-.01.737 1.727 3.827 4.705 5.476 8.02 7.522.61-.758.518-1.714.518-1.714s1.725 1.293 1.466 3.966c-.26 2.673-1.338 4.526-1.338 4.526s2.803-2.198 3.49-2.37c.69-.173 2.377 2.335 3.968 3.56 1.114.86-2.414-4.383-2.242-6.538.13-1.613 6.982.927 10.992 4.83 2.13 1.563 2.212 1.773 3.232 2.803-1.294-2.24-1.432-3.32-4.57-5.172z"/><path fill="#FFF2AC" d="M368.86 181.72c-.616.744-1.168 1.618-1.36 2.518-.077.356-.138.766-.165 1.213-.004.064-.007.147-.008.233.315.55.796.903 1.335.903.95 0 1.72-1.093 1.72-2.442 0-1.254-.666-2.285-1.522-2.425z"/><path fill="none" stroke="#A97C50" stroke-width=".69" stroke-miterlimit="10" d="M401.293 195.962c-6.035 0-10.513.69-16.55-5.345-6.037-6.035-8.106-5.346-6.727-7.415 1.38-2.07 5.172-9.31-.517-10.863-2.84-.775-4.69.21-5.705 1.798-.975.017-3.262-.075-3.262-.075l2.32 3.094c-.058.85.034 1.693.265 2.423 0 0-3.104 2.242-3.62 4.656-.077.356-.138.766-.165 1.213-.154 2.584.838 6.46 6.717 8.958.623.265 1.21.494 1.764.694-.32 2.363-1.266 5.53-3.92 7.496 0 0 5.605-.258 7.673-3.362 1.553 3.45 3.45 5.345 7.07 5.518-2.46-3.28-2.916-5.533-3.343-7.87 1.575.317 3.126.763 5.067 1.835 5 2.757 8.277 6.723 8.967 7.24.245-1.79.517-4.31-2.414-6.897 3.45-.17 5.69-.514 6.38-3.1z"/><path fill="#E3C920" d="M371.896 185.79c-1.378 2.27 3.535 5.69 8.88 7.07s17.414.86 18.62 0c1.208-.863-18.02-7.98-21.682-8.3-3.663-.322-4.352-1.185-5.818 1.23z"/><path fill="#FEE46F" d="M398.023 191.73c-4.357-2.26-17.364-6.912-20.31-7.17-3.662-.322-4.352-1.184-5.817 1.23-.963 1.586.835 3.602 3.948 5.12 2.04.99 6.568-.338 4.58-4.794 1.71 1.708 9.662 3.985 9.662 3.985l-7.674-1.172.322.957 9.25 1.75-9.14-.76.258.652s6.043 1.13 7.5 1.16c2.76.053 6.218-.017 7.42-.957z"/><ellipse transform="rotate(18.2 376.4 187.4)" fill="#FFF2AC" cx="376.454" cy="187.474" rx="3.707" ry="2.327"/><path fill="none" stroke="#A97C50" stroke-width=".69" stroke-linecap="round" stroke-linejoin="round" stroke-miterlimit="10" d="M373.138 184.38c-.414.233-.79.666-1.242 1.41-1.378 2.27 3.535 5.69 8.88 7.068s17.414.862 18.62 0c1.208-.862-18.02-7.978-21.682-8.3"/><circle fill="#A97C50" cx="374.782" cy="176.048" r=".866"/><path fill="none" stroke="#A97C50" stroke-width=".345" stroke-linecap="round" stroke-miterlimit="10" d="M378.275 174.84c.95.69-.258 5.173-2.413 5.605s-3.435-.395-3.018-1.084"/></g></g></g><g clip-path="url(#g)"><linearGradient id="j" gradientUnits="userSpaceOnUse" x1="10.092" y1="111.064" x2="261.806" y2="111.064"><stop offset="0" stop-color="#ED1C24"/><stop offset=".5" stop-color="#BE1E2D"/><stop offset="1" stop-color="#ED1C24"/></linearGradient><path fill="url(#j)" stroke="#000" stroke-width="3" stroke-miterlimit="10" d="M10.092 3.5h251.714v215.128H10.092z"/><linearGradient id="k" gradientUnits="userSpaceOnUse" x1="86.819" y1="173.355" x2="130.309" y2="173.355" gradientTransform="rotate(9.3 156.5 -143.7)"><stop offset="0" stop-color="#A7A9AC"/><stop offset=".5" stop-color="#FFF"/><stop offset="1" stop-color="#A7A9AC"/></linearGradient><path fill="url(#k)" stroke="#000" stroke-width=".88" stroke-miterlimit="10" d="M67.124 174.932c.66-3.567-3.11-9.235-8.767-6.64s-1.084 7.864-1.084 7.864.577-2.974 1.515-3.027c.938-.054 1.808-.377 1.99 2.828.18 3.205-4.604 5.75-10.385.587-3.397-3.033-4.99-7.74-4.555-12.42.058-.323 1.128-5.902 5.444-6.084 4.445-.187 5.456.344 5.456.344s-1.932-4.154-4.925-3.794c-.835.1-1.583.327-2.23.6.085-.1.165-.2.252-.298 5.79-6.483 15.29-10.472 21.194-5.198 5.905 5.273 4.095 13.47 4.095 13.47s6.508-5.56 5.948-8.288c-.56-2.726-2.563-7.41-7.868-11.775-5.306-4.365-14.73-3.205-22.28 1.26-2.85 1.687-5.335 4.21-7.268 7.2-.472-.85-1.07-1.656-1.774-2.06-1.864-1.072-3.798-.486-3.798-.486s2.184 2.458 2.478 4.873c.277 2.287.41 2.352-.415 5.66-.03.116-.06.232-.087.35-.02.076-.035.145-.056.226l.003-.004c-.66 2.77-.885 5.635-.576 8.418 1.042 9.392 8.687 14.214 16.81 15.008 8.12.796 10.223-5.047 10.884-8.614z"/><linearGradient id="l" gradientUnits="userSpaceOnUse" x1="118.69" y1="191.656" x2="159.762" y2="191.656" gradientTransform="rotate(9.3 156.5 -143.7)"><stop offset="0" stop-color="#A7A9AC"/><stop offset=".5" stop-color="#FFF"/><stop offset="1" stop-color="#A7A9AC"/></linearGradient><path fill="url(#l)" stroke="#000" stroke-width=".88" stroke-miterlimit="10" d="M64.453 190.88c1.706 7.982 7.36 15.035 16.808 15.01 2.8-.01 5.624-.555 8.302-1.522l-.004.003.22-.08c.112-.044.225-.084.336-.128 3.194-1.192 3.272-1.068 5.577-1.05 2.434.02 5.122 1.914 5.122 1.914s.365-1.99-.91-3.72c-.48-.653-1.35-1.157-2.247-1.53 2.753-2.26 4.98-5.01 6.333-8.034 3.586-8.005 3.676-17.5-1.26-22.28-4.937-4.78-9.816-6.242-12.588-6.49-2.772-.25-7.563 6.844-7.563 6.844s7.94-2.722 13.846 2.55c5.906 5.275 3.014 15.163-2.776 21.647-.087.097-.177.188-.267.283.197-.674.338-1.44.344-2.282.02-3.016-4.326-4.466-4.326-4.466s.642.944.957 5.38c.306 4.31-5.117 6.002-5.432 6.097-4.603.96-9.458-.092-12.854-3.127-5.783-5.162-3.793-10.202-.59-10.382 3.207-.182 2.983.72 3.037 1.657.053.938-2.837 1.847-2.837 1.847s5.753 3.95 7.693-1.965c1.94-5.913-4.118-9.02-7.587-7.962-3.47 1.06-9.04 3.807-7.333 11.788z"/><linearGradient id="m" gradientUnits="userSpaceOnUse" x1="131.614" y1="91.389" x2="233.935" y2="91.389" gradientTransform="rotate(9.3 156.5 -143.7)"><stop offset="0" stop-color="#A7A9AC"/><stop offset=".5" stop-color="#FFF"/><stop offset="1" stop-color="#A7A9AC"/></linearGradient><path fill="url(#m)" stroke="#000" stroke-width=".88" stroke-miterlimit="10" d="M206.06 24.03c-1.462-1.303-3.894-.96-5.436.766L82.08 157.556l5.285 4.72L205.91 29.516c1.542-1.725 1.608-4.18.15-5.486z"/><linearGradient id="n" gradientUnits="userSpaceOnUse" x1="210.673" y1="46.641" x2="251.335" y2="46.641" gradientTransform="rotate(9.3 156.5 -143.7)"><stop offset="0" stop-color="#A7A9AC"/><stop offset=".5" stop-color="#FFF"/><stop offset="1" stop-color="#A7A9AC"/></linearGradient><path fill="url(#n)" stroke="#000" stroke-width=".88" stroke-miterlimit="10" d="M218.58 52.754l2.36-2.643-2.588-2.31-8.59-7.67-3 3.36-4.46-3.984 3-3.36-2.368-2.113-25.174 28.194 2.367 2.113 3-3.36 4.46 3.984-3 3.36 8.59 7.67 2.588 2.31 2.36-2.643-2.588-2.31 4.107-4.598 2.586 2.31 3.468-3.88-5.727-5.114-3.466 3.882-4.57-4.08 3.466-3.883-5.34-4.77 5.31-5.946 5.34 4.77 3.467-3.882 4.57 4.08-3.465 3.883 5.726 5.114 3.466-3.88-2.587-2.313 4.104-4.597z"/><linearGradient id="o" gradientUnits="userSpaceOnUse" x1="141.195" y1="148.987" x2="151.601" y2="148.987" gradientTransform="rotate(9.3 156.5 -143.7)"><stop offset="0" stop-color="#A7A9AC"/><stop offset=".5" stop-color="#FFF"/><stop offset="1" stop-color="#A7A9AC"/></linearGradient><path fill="url(#o)" stroke="#000" stroke-width=".88" stroke-miterlimit="10" d="M102.686 148l-8.15-7.278 1.476-1.652 8.15 7.277z"/><linearGradient id="p" gradientUnits="userSpaceOnUse" x1="136.041" y1="157.145" x2="146.368" y2="157.145" gradientTransform="rotate(9.3 156.5 -143.7)"><stop offset="0" stop-color="#A7A9AC"/><stop offset=".5" stop-color="#FFF"/><stop offset="1" stop-color="#A7A9AC"/></linearGradient><path fill="url(#p)" stroke="#000" stroke-width=".88" stroke-miterlimit="10" d="M96.294 155.158l-8.15-7.277 1.377-1.54 8.15 7.276z"/><linearGradient id="q" gradientUnits="userSpaceOnUse" x1="136.99" y1="152.973" x2="150.731" y2="152.973" gradientTransform="rotate(9.3 156.5 -143.7)"><stop offset="0" stop-color="#A7A9AC"/><stop offset=".5" stop-color="#FFF"/><stop offset="1" stop-color="#A7A9AC"/></linearGradient><path fill="url(#q)" stroke="#000" stroke-width=".88" stroke-miterlimit="10" d="M102.095 152.32c-1.142 1.277-4.704-.043-7.958-2.95-3.253-2.904-4.967-6.295-3.827-7.573 1.14-1.277 4.703.043 7.958 2.948 3.254 2.906 4.966 6.297 3.827 7.575z"/><linearGradient id="r" gradientUnits="userSpaceOnUse" x1="132.482" y1="160.956" x2="145.016" y2="160.956" gradientTransform="rotate(9.3 156.5 -143.7)"><stop offset="0" stop-color="#A7A9AC"/><stop offset=".5" stop-color="#FFF"/><stop offset="1" stop-color="#A7A9AC"/></linearGradient><path fill="url(#r)" stroke="#000" stroke-width=".88" stroke-miterlimit="10" d="M87.347 148.356c-.8.594-1.576 1.295-2.298 2.104-.432.483-.823.98-1.176 1.486.832 1.73 1.983 3.492 3.576 4.914.024.02.045.044.068.067l.075.06c1.532 1.37 3.33 2.298 5.08 2.93.485-.424.956-.888 1.407-1.394.723-.81 1.332-1.66 1.833-2.52l-8.566-7.647z"/><linearGradient id="s" gradientUnits="userSpaceOnUse" x1="124.483" y1="167.797" x2="149.221" y2="167.797" gradientTransform="rotate(9.3 156.5 -143.7)"><stop offset="0" stop-color="#A7A9AC"/><stop offset=".5" stop-color="#FFF"/><stop offset="1" stop-color="#A7A9AC"/></linearGradient><path fill="url(#s)" stroke="#000" stroke-width=".88" stroke-miterlimit="10" d="M86.636 157.916c-.024-.022-.05-.04-.074-.06-.024-.023-.044-.046-.068-.068-4.9-4.375-5.643-11.967-5.643-11.967s-1.876 8.42-3.326 12.37c-1.45 3.952-6.73 10.42-3.372 13.42.024.02.05.038.076.058.022.022.043.046.067.068 3.36 3 9.19-2.977 12.953-4.863 3.763-1.886 11.917-4.7 11.917-4.7s-7.628.118-12.53-4.257z"/><g><linearGradient id="t" gradientUnits="userSpaceOnUse" x1="86.818" y1="173.355" x2="130.308" y2="173.355" gradientTransform="matrix(-1 .2 .2 1 280.1 -27.1)"><stop offset="0" stop-color="#E8B620"/><stop offset=".5" stop-color="#F7D50A"/><stop offset="1" stop-color="#E8B620"/></linearGradient><path fill="url(#t)" stroke="#000" stroke-width=".88" stroke-miterlimit="10" d="M202.785 183.546c8.123-.794 15.768-5.617 16.81-15.008.308-2.784.083-5.65-.577-8.42l.003.005-.056-.227-.087-.35c-.824-3.307-.692-3.372-.415-5.66.293-2.414 2.478-4.872 2.478-4.872s-1.934-.586-3.798.485c-.704.403-1.302 1.21-1.774 2.06-1.933-2.99-4.417-5.513-7.268-7.2-7.55-4.465-16.975-5.625-22.28-1.26-5.305 4.367-7.31 9.05-7.868 11.776-.56 2.727 5.948 8.288 5.948 8.288s-1.81-8.197 4.096-13.47c5.905-5.273 15.405-1.285 21.194 5.198.087.098.167.198.25.297-.645-.273-1.393-.5-2.228-.6-2.994-.36-4.925 3.794-4.925 3.794s1.01-.532 5.456-.343c4.316.183 5.386 5.762 5.444 6.086.436 4.68-1.158 9.387-4.555 12.42-5.78 5.162-10.565 2.617-10.384-.588.18-3.206 1.05-2.882 1.99-2.83.937.054 1.514 3.028 1.514 3.028s4.573-5.27-1.084-7.865-9.428 3.075-8.767 6.642c.662 3.567 2.763 9.41 10.885 8.614z"/><linearGradient id="u" gradientUnits="userSpaceOnUse" x1="118.69" y1="191.656" x2="159.762" y2="191.656" gradientTransform="matrix(-1 .2 .2 1 280.1 -27.1)"><stop offset="0" stop-color="#E8B620"/><stop offset=".5" stop-color="#F7D50A"/><stop offset="1" stop-color="#E8B620"/></linearGradient><path fill="url(#u)" stroke="#000" stroke-width=".88" stroke-miterlimit="10" d="M187.24 179.094c-3.47-1.06-9.527 2.05-7.588 7.962 1.94 5.914 7.693 1.965 7.693 1.965s-2.89-.908-2.837-1.846c.053-.938-.17-1.838 3.036-1.657 3.205.18 5.194 5.22-.588 10.382-3.397 3.034-8.252 4.086-12.854 3.126-.315-.095-5.738-1.788-5.432-6.096.314-4.438.957-5.38.957-5.38s-4.345 1.45-4.326 4.465c.007.84.148 1.607.345 2.282-.09-.095-.18-.186-.267-.283-5.79-6.484-8.682-16.372-2.776-21.646 5.906-5.273 13.846-2.55 13.846-2.55s-4.79-7.094-7.563-6.845c-2.772.248-7.65 1.71-12.588 6.49-4.937 4.78-4.846 14.274-1.26 22.28 1.354 3.023 3.58 5.775 6.333 8.034-.896.373-1.766.876-2.247 1.53-1.274 1.73-.91 3.72-.91 3.72s2.688-1.894 5.12-1.914c2.306-.018 2.384-.142 5.578 1.05l.338.127.22.082-.005-.003c2.68.966 5.5 1.513 8.3 1.522 9.45.024 15.104-7.03 16.81-15.01 1.706-7.982-3.864-10.728-7.334-11.788z"/><linearGradient id="v" gradientUnits="userSpaceOnUse" x1="131.614" y1="91.389" x2="233.935" y2="91.389" gradientTransform="matrix(-1 .2 .2 1 280.1 -27.1)"><stop offset="0" stop-color="#E8B620"/><stop offset=".5" stop-color="#F7D50A"/><stop offset="1" stop-color="#E8B620"/></linearGradient><path fill="url(#v)" stroke="#000" stroke-width=".88" stroke-miterlimit="10" d="M52.965 24.03c1.46-1.303 3.893-.96 5.435.766l118.546 132.76-5.286 4.72L53.113 29.516c-1.54-1.725-1.607-4.18-.148-5.486z"/><linearGradient id="w" gradientUnits="userSpaceOnUse" x1="210.673" y1="46.641" x2="251.334" y2="46.641" gradientTransform="matrix(-1 .2 .2 1 280.1 -27.1)"><stop offset="0" stop-color="#E8B620"/><stop offset=".5" stop-color="#F7D50A"/><stop offset="1" stop-color="#E8B620"/></linearGradient><path fill="url(#w)" stroke="#000" stroke-width=".88" stroke-miterlimit="10" d="M40.445 52.754l-2.36-2.643 2.588-2.31 8.59-7.67 3 3.36 4.458-3.984-2.997-3.36 2.367-2.113 25.175 28.194-2.368 2.113-3-3.36-4.46 3.984 3 3.36-8.59 7.67-2.588 2.31-2.362-2.643 2.59-2.31-4.107-4.598-2.586 2.31-3.467-3.88 5.726-5.114 3.467 3.882 4.57-4.08-3.465-3.883 5.34-4.77-5.31-5.946-5.34 4.77-3.468-3.882-4.57 4.08 3.466 3.883-5.726 5.114-3.466-3.88 2.588-2.313-4.104-4.597z"/><linearGradient id="x" gradientUnits="userSpaceOnUse" x1="141.194" y1="148.987" x2="151.601" y2="148.987" gradientTransform="matrix(-1 .2 .2 1 280.1 -27.1)"><stop offset="0" stop-color="#E8B620"/><stop offset=".5" stop-color="#F7D50A"/><stop offset="1" stop-color="#E8B620"/></linearGradient><path fill="url(#x)" stroke="#000" stroke-width=".88" stroke-miterlimit="10" d="M156.338 148l8.15-7.278-1.475-1.652-8.15 7.277z"/><linearGradient id="y" gradientUnits="userSpaceOnUse" x1="136.041" y1="157.145" x2="146.367" y2="157.145" gradientTransform="matrix(-1 .2 .2 1 280.1 -27.1)"><stop offset="0" stop-color="#E8B620"/><stop offset=".5" stop-color="#F7D50A"/><stop offset="1" stop-color="#E8B620"/></linearGradient><path fill="url(#y)" stroke="#000" stroke-width=".88" stroke-miterlimit="10" d="M162.73 155.158l8.15-7.277-1.377-1.54-8.15 7.276z"/><linearGradient id="z" gradientUnits="userSpaceOnUse" x1="136.99" y1="152.973" x2="150.73" y2="152.973" gradientTransform="matrix(-1 .2 .2 1 280.1 -27.1)"><stop offset="0" stop-color="#E8B620"/><stop offset=".5" stop-color="#F7D50A"/><stop offset="1" stop-color="#E8B620"/></linearGradient><path fill="url(#z)" stroke="#000" stroke-width=".88" stroke-miterlimit="10" d="M156.93 152.32c1.142 1.277 4.704-.043 7.958-2.95 3.253-2.904 4.967-6.295 3.827-7.573-1.14-1.277-4.703.043-7.958 2.948-3.255 2.906-4.967 6.297-3.827 7.575z"/><linearGradient id="A" gradientUnits="userSpaceOnUse" x1="132.481" y1="160.956" x2="145.016" y2="160.956" gradientTransform="matrix(-1 .2 .2 1 280.1 -27.1)"><stop offset="0" stop-color="#E8B620"/><stop offset=".5" stop-color="#F7D50A"/><stop offset="1" stop-color="#E8B620"/></linearGradient><path fill="url(#A)" stroke="#000" stroke-width=".88" stroke-miterlimit="10" d="M171.677 148.356c.8.594 1.576 1.295 2.298 2.104.43.483.822.98 1.175 1.486-.832 1.73-1.983 3.492-3.576 4.914-.024.02-.045.044-.068.067l-.075.06c-1.53 1.37-3.33 2.298-5.08 2.93-.484-.424-.955-.888-1.406-1.394-.723-.81-1.332-1.66-1.833-2.52l8.567-7.647z"/><linearGradient id="B" gradientUnits="userSpaceOnUse" x1="124.482" y1="167.797" x2="149.221" y2="167.797" gradientTransform="matrix(-1 .2 .2 1 280.1 -27.1)"><stop offset="0" stop-color="#E8B620"/><stop offset=".5" stop-color="#F7D50A"/><stop offset="1" stop-color="#E8B620"/></linearGradient><path fill="url(#B)" stroke="#000" stroke-width=".88" stroke-miterlimit="10" d="M172.388 157.916c.024-.022.05-.04.074-.06.024-.023.044-.046.068-.068 4.9-4.375 5.643-11.967 5.643-11.967s1.877 8.42 3.327 12.37c1.45 3.952 6.73 10.42 3.372 13.42-.024.02-.05.038-.076.058-.022.022-.043.046-.067.068-3.36 3-9.19-2.977-12.954-4.863-3.763-1.886-11.917-4.7-11.917-4.7s7.627.118 12.528-4.257z"/></g></g><use xlink:href="#e" overflow="visible" fill="none" stroke="#000" stroke-width="7" stroke-miterlimit="10"/><radialGradient id="C" cx="261.806" cy="575.523" r="180.594" gradientUnits="userSpaceOnUse"><stop offset=".632" stop-color="#FFF"/><stop offset=".705" stop-color="#F4F5F5"/><stop offset=".855" stop-color="#EAEBEB"/><stop offset="1" stop-color="#E6E7E8"/></radialGradient></svg>