<!DOCTYPE svg PUBLIC "-//W3C//DTD SVG 1.1//EN" "http://www.w3.org/Graphics/SVG/1.1/DTD/svg11.dtd" [
	<!ENTITY ns_flows "http://ns.adobe.com/Flows/1.0/">
]><svg xmlns="http://www.w3.org/2000/svg" xmlns:xlink="http://www.w3.org/1999/xlink" width="524" height="657" viewBox="0 0 524 657"><linearGradient id="a" gradientUnits="userSpaceOnUse" x1="37.788" y1="513.593" x2="92.683" y2="534.665"><stop offset="0" stop-color="#8B5E3C"/><stop offset=".497" stop-color="#FDC060"/></linearGradient><linearGradient id="b" gradientUnits="userSpaceOnUse" x1="430.929" y1="534.665" x2="485.824" y2="513.593"><stop offset=".503" stop-color="#FDC060"/><stop offset="1" stop-color="#8B5E3C"/></linearGradient><linearGradient id="c" gradientUnits="userSpaceOnUse" x1="1.5" y1="459.417" x2="107.092" y2="459.417"><stop offset="0" stop-color="#BCBEC0"/><stop offset=".333" stop-color="#E6E7E8"/></linearGradient><linearGradient id="d" gradientUnits="userSpaceOnUse" x1="416.52" y1="459.417" x2="522.112" y2="459.417"><stop offset=".632" stop-color="#E6E7E8"/><stop offset=".687" stop-color="#DBDCDD"/><stop offset=".793" stop-color="#CACBCD"/><stop offset=".898" stop-color="#BFC1C3"/><stop offset="1" stop-color="#BCBEC0"/></linearGradient><defs><path id="e" d="M261.113 3.5H10.093v258.714c0 161.08 140 299 251.713 341 118.286-39 251.714-175.92 251.714-337V3.5H261.113z"/></defs><use xlink:href="#e" overflow="visible"/><clipPath id="f"><use xlink:href="#e" overflow="visible"/></clipPath><radialGradient id="g" cx="261.806" cy="255.783" r="251.999" gradientUnits="userSpaceOnUse"><stop offset=".632" stop-color="#FFF"/><stop offset=".731" stop-color="#FAFAFA"/><stop offset="1" stop-color="#F6F6F6"/></radialGradient><path clip-path="url(#f)" fill="url(#g)" stroke="#000" stroke-width="4" stroke-miterlimit="10" d="M467.182 3.5L261.985 227.257 56.788 3.5H10.092v71.21l195.893 213.61-139.2 151.792c15.365 23.588 33.083 45.474 52.178 65.23l143.022-155.957 145.52 158.68c19.174-19.76 36.768-41.76 51.888-65.547L317.985 288.32 513.52 75.1V3.5h-46.338z"/><g clip-path="url(#f)"><g fill="#FFF" stroke="#000" stroke-miterlimit="10"><path d="M267.257 153.712s-3.14 10.616-16.96 10.616c5.072-2.763 5.114-7.19.414-10.53M319.753 114.69s7.624 8.025.714 19.994c.143-5.774-3.67-8.024-8.913-5.624M311.554 49.7s10.763-2.588 17.673 9.38c-4.93-3.01-8.784-.833-9.327 4.907M252.09 25.17s3.14-10.615 16.96-10.615c-5.072 2.763-5.114 7.19-.414 10.53M199.594 64.194s-7.624-8.026-.714-19.995c-.143 5.773 3.67 8.023 8.913 5.623M207.793 129.183s-10.763 2.59-17.673-9.38c4.93 3.01 8.784.834 9.327-4.906"/><path d="M259.736 24.38c-35.898 0-65 29.102-65 65s29.102 65 65 65 65-29.102 65-65-29.102-65-65-65zm0 121c-30.928 0-56-25.072-56-56s25.072-56 56-56 56 25.072 56 56-25.072 56-56 56z"/><path d="M259.736 75.38c-7.732 0-14 6.268-14 14s6.268 14 14 14 14-6.268 14-14-6.268-14-14-14zm0 23.878c-5.455 0-9.878-4.422-9.878-9.877s4.423-9.876 9.878-9.876 9.878 4.422 9.878 9.877-4.423 9.878-9.878 9.878z"/><path d="M264.736 53.56c0-12 7.92-18.503 4.878-19.132-2.41-.5-7.194-.752-9.08-.836v-.033s-.15.004-.398.015l-.4-.016v.032c-1.884.084-6.667.337-9.078.836-3.042.63 4.878 7.13 4.878 19.13s1.94 12.158 0 18c-1.94 5.844 1 4 1 4h7.2s2.94 1.844 1-4 0-6 0-18zM231.125 66.984c-10.393-6-12.063-16.11-14.13-13.79-1.637 1.838-4.248 5.854-5.263 7.444l-.028-.016-.187.354-.213.338.028.016c-.87 1.674-3.042 5.943-3.815 8.28-.977 2.95 8.614-.658 19.007 5.342s11.5 4.397 15.59 9c4.09 4.6 3.963 1.134 3.963 1.134l1.6-2.772.4-.692 1.6-2.772s3.067-1.625-2.963-2.866c-6.03-1.24-5.196-3-15.59-9zM226.525 103.622c-10.392 6-19.983 2.393-19.007 5.34.773 2.338 2.946 6.607 3.815 8.282l-.028.016.213.338c.115.22.187.354.187.354l.028-.016c1.016 1.59 3.626 5.606 5.263 7.444 2.066 2.32 3.738-7.79 14.13-13.79 10.393-6 9.558-7.76 15.59-9 6.03-1.242 2.963-2.866 2.963-2.866l-1.602-2.772-.4-.692-1.6-2.772s.126-3.468-3.964 1.134-5.197 3-15.59 9zM255.047 125.505c0 12-7.92 18.502-4.878 19.13 2.41.5 7.193.753 9.078.837v.033l.4-.016.398.015v-.033c1.885-.084 6.668-.337 9.078-.836 3.043-.63-4.877-7.13-4.877-19.13s-1.94-12.158 0-18c1.94-5.844-1-4-1-4h-7.2s-2.94-1.844-1 4 0 6 0 18zM288.657 112.08c10.393 6 12.064 16.11 14.13 13.79 1.638-1.838 4.25-5.854 5.263-7.444l.03.016.185-.354.213-.338-.027-.016c.87-1.674 3.043-5.943 3.816-8.28.977-2.95-8.614.658-19.007-5.342s-11.5-4.397-15.59-9c-4.09-4.6-3.964-1.134-3.964-1.134l-1.602 2.772-.398.692-1.602 2.772s-3.066 1.625 2.965 2.866 5.194 3 15.587 9zM293.258 75.44c10.39-6 19.983-2.392 19.007-5.34-.773-2.337-2.946-6.606-3.815-8.28l.027-.017-.213-.338-.186-.354-.03.017c-1.015-1.59-3.624-5.606-5.26-7.444-2.067-2.32-3.74 7.79-14.132 13.79s-9.557 7.76-15.588 9c-6.03 1.242-2.965 2.866-2.965 2.866l1.602 2.77.398.693 1.602 2.772s-.127 3.468 3.963-1.134 5.198-3 15.59-9z"/><g><path d="M439.742 351.884s-3.14 10.616-16.96 10.616c5.072-2.763 5.114-7.19.414-10.53M492.238 312.86s7.624 8.027.714 19.996c.143-5.774-3.67-8.024-8.913-5.624M484.04 247.873s10.762-2.59 17.672 9.38c-4.93-3.01-8.784-.834-9.327 4.906M424.576 223.343s3.14-10.616 16.96-10.616c-5.073 2.763-5.115 7.19-.415 10.53M372.08 262.366s-7.625-8.026-.715-19.995c-.143 5.775 3.67 8.025 8.913 5.625M380.278 327.354s-10.763 2.59-17.673-9.38c4.93 3.01 8.784.834 9.327-4.906"/><path d="M432.22 222.552c-35.898 0-65 29.102-65 65s29.102 65 65 65 65-29.102 65-65-29.1-65-65-65zm0 121c-30.928 0-56-25.072-56-56s25.072-56 56-56 56 25.072 56 56-25.072 56-56 56z"/><path d="M432.22 273.552c-7.732 0-14 6.268-14 14s6.268 14 14 14 14-6.268 14-14-6.267-14-14-14zm0 23.878c-5.455 0-9.877-4.422-9.877-9.877s4.422-9.877 9.877-9.877 9.878 4.422 9.878 9.877-4.423 9.877-9.878 9.877z"/><path d="M437.22 251.73c0-12 7.92-18.502 4.878-19.13-2.41-.5-7.194-.753-9.08-.837v-.033s-.15.005-.398.016l-.4-.016v.033c-1.884.084-6.667.337-9.077.836-3.043.628 4.877 7.13 4.877 19.13s1.94 12.157 0 18 1 4 1 4h7.2s2.94 1.843 1-4 0-6 0-18zM403.61 265.156c-10.393-6-12.062-16.11-14.13-13.79-1.636 1.838-4.247 5.854-5.263 7.444l-.027-.016-.188.354-.213.338.028.016c-.87 1.674-3.043 5.943-3.816 8.28-.977 2.95 8.615-.658 19.008 5.342 10.392 6 11.5 4.397 15.59 9 4.09 4.6 3.962 1.134 3.962 1.134l1.602-2.772.398-.692 1.602-2.772s3.066-1.625-2.965-2.866-5.197-3-15.59-9zM399.01 301.794c-10.393 6-19.984 2.393-19.008 5.34.773 2.338 2.947 6.607 3.816 8.282l-.03.016.214.338c.115.22.188.354.188.354l.027-.016c1.016 1.59 3.627 5.606 5.264 7.444 2.067 2.32 3.74-7.79 14.13-13.79 10.394-6 9.558-7.76 15.59-9 6.03-1.242 2.964-2.866 2.964-2.866l-1.602-2.772-.398-.692-1.602-2.772s.127-3.468-3.963 1.134-5.198 3-15.59 9zM427.532 323.677c0 12-7.92 18.502-4.878 19.13 2.41.5 7.194.753 9.08.837v.033s.15-.005.398-.016l.4.017v-.033c1.884-.084 6.667-.337 9.077-.836 3.042-.63-4.878-7.13-4.878-19.13s-1.94-12.158 0-18c1.94-5.844-1-4-1-4h-7.2s-2.94-1.844-1 4 0 6 0 18zM461.14 310.25c10.394 6 12.065 16.11 14.13 13.79 1.64-1.837 4.25-5.853 5.264-7.443l.03.016.185-.354.212-.34-.027-.015c.87-1.674 3.042-5.943 3.815-8.28.977-2.95-8.614.658-19.007-5.342s-11.5-4.397-15.59-9c-4.09-4.6-3.963-1.134-3.963-1.134l-1.602 2.77-.398.693-1.602 2.772s-3.066 1.625 2.965 2.866 5.196 3 15.588 9zM465.743 273.613c10.39-6 19.983-2.393 19.007-5.34-.773-2.338-2.946-6.607-3.815-8.282l.027-.015-.213-.338-.187-.354-.03.016c-1.015-1.59-3.624-5.607-5.26-7.445-2.067-2.32-3.74 7.79-14.132 13.79s-9.556 7.76-15.587 9c-6.03 1.242-2.965 2.866-2.965 2.866l1.602 2.773.398.692 1.602 2.772s-.127 3.468 3.963-1.134 5.197-3 15.59-9z"/></g><g><path d="M99.037 351.822s-3.14 10.616-16.96 10.616c5.072-2.763 5.114-7.19.414-10.53M151.533 312.8s7.624 8.025.714 19.994c.143-5.774-3.67-8.024-8.913-5.624M143.333 247.81s10.763-2.588 17.673 9.38c-4.93-3.01-8.784-.833-9.327 4.907M83.87 223.282s3.14-10.616 16.96-10.616c-5.072 2.763-5.114 7.19-.414 10.53M31.374 262.305s-7.624-8.026-.714-19.995c-.143 5.774 3.67 8.024 8.913 5.624M39.573 327.293s-10.763 2.59-17.673-9.38c4.93 3.01 8.784.834 9.327-4.906"/><path d="M91.515 222.49c-35.898 0-65 29.103-65 65s29.102 65 65 65 65-29.1 65-65-29.1-65-65-65zm0 121c-30.928 0-56-25.07-56-56s25.072-56 56-56 56 25.073 56 56-25.072 56-56 56z"/><path d="M91.515 273.49c-7.732 0-14 6.27-14 14s6.268 14 14 14 14-6.267 14-14-6.267-14-14-14zm0 23.878c-5.455 0-9.877-4.422-9.877-9.877s4.422-9.876 9.877-9.876 9.878 4.422 9.878 9.877-4.423 9.878-9.878 9.878z"/><path d="M96.515 251.67c0-12 7.92-18.503 4.878-19.132-2.41-.5-7.194-.752-9.08-.836v-.033s-.15.004-.398.015l-.4-.016v.032c-1.884.084-6.667.337-9.077.836-3.043.63 4.877 7.13 4.877 19.13s1.94 12.158 0 18c-1.94 5.844 1 4 1 4h7.2s2.94 1.844 1-4 0-6 0-18zM62.906 265.094c-10.394-6-12.063-16.11-14.13-13.79-1.637 1.838-4.248 5.854-5.264 7.444l-.027-.016-.188.354-.213.338.03.016c-.872 1.674-3.044 5.943-3.817 8.28-.977 2.95 8.615-.658 19.008 5.342 10.392 6 11.5 4.397 15.59 9 4.09 4.6 3.962 1.134 3.962 1.134l1.602-2.772.397-.692 1.602-2.772s3.065-1.625-2.966-2.866-5.196-3-15.588-9zM58.305 301.732c-10.393 6-19.984 2.393-19.008 5.34.773 2.338 2.947 6.607 3.816 8.282l-.03.016.214.338c.115.22.188.354.188.354l.027-.016c1.016 1.59 3.627 5.606 5.264 7.444 2.066 2.32 3.738-7.79 14.13-13.79 10.393-6 9.557-7.76 15.588-9 6.03-1.242 2.965-2.866 2.965-2.866l-1.603-2.772-.398-.692-1.603-2.772s.127-3.468-3.963 1.134-5.197 3-15.59 9zM86.827 323.615c0 12-7.92 18.502-4.878 19.13 2.41.5 7.193.753 9.078.837v.033l.4-.016.398.015v-.033c1.885-.084 6.668-.337 9.078-.836 3.043-.63-4.877-7.13-4.877-19.13s-1.94-12.158 0-18c1.94-5.844-1-4-1-4h-7.2s-2.94-1.844-1 4 0 6 0 18zM120.436 310.19c10.393 6 12.064 16.11 14.13 13.79 1.638-1.838 4.25-5.854 5.263-7.444l.028.016.186-.354.213-.338-.027-.016c.87-1.674 3.042-5.943 3.815-8.28.977-2.95-8.614.658-19.007-5.342s-11.5-4.397-15.59-9c-4.09-4.6-3.963-1.134-3.963-1.134l-1.602 2.772-.398.692-1.602 2.772s-3.066 1.625 2.965 2.866 5.195 3 15.588 9zM125.038 273.552c10.39-6 19.983-2.393 19.007-5.34-.773-2.338-2.946-6.607-3.815-8.282l.027-.016-.213-.338-.186-.354-.03.016c-1.015-1.59-3.624-5.606-5.26-7.444-2.067-2.32-3.74 7.79-14.132 13.79s-9.557 7.76-15.588 9c-6.03 1.242-2.965 2.866-2.965 2.866l1.602 2.772.398.692 1.602 2.772s-.127 3.468 3.963-1.134 5.197-3 15.59-9z"/></g><g><path d="M268.154 555.814s-3.14 10.616-16.96 10.616c5.072-2.764 5.114-7.19.414-10.53M320.65 516.792s7.624 8.025.714 19.994c.143-5.773-3.67-8.023-8.913-5.623M312.45 451.804s10.764-2.59 17.674 9.38c-4.93-3.01-8.784-.835-9.327 4.906M252.988 427.274s3.14-10.617 16.96-10.617c-5.073 2.764-5.115 7.19-.415 10.53M200.49 466.297s-7.623-8.026-.713-19.995c-.143 5.773 3.67 8.023 8.913 5.623M208.69 531.285s-10.763 2.59-17.673-9.38c4.93 3.01 8.784.834 9.327-4.906"/><path d="M260.632 426.483c-35.898 0-65 29.102-65 65s29.102 65 65 65 65-29.102 65-65-29.1-65-65-65zm0 121c-30.928 0-56-25.072-56-56s25.072-56 56-56 56 25.072 56 56-25.072 56-56 56z"/><path d="M260.632 477.483c-7.732 0-14 6.268-14 14 0 7.73 6.268 14 14 14s14-6.27 14-14c0-7.732-6.267-14-14-14zm0 23.877c-5.455 0-9.877-4.422-9.877-9.877s4.422-9.878 9.877-9.878 9.878 4.423 9.878 9.878-4.423 9.877-9.878 9.877z"/><path d="M265.632 455.66c0-12 7.92-18.5 4.878-19.13-2.41-.5-7.194-.752-9.08-.836v-.033l-.398.017-.4-.016v.034c-1.884.084-6.667.337-9.077.836-3.043.63 4.877 7.13 4.877 19.13s1.94 12.157 0 18c-1.94 5.845 1 4 1 4h7.2s2.94 1.845 1-4 0-6 0-18zM232.023 469.087c-10.394-6-12.063-16.11-14.13-13.79-1.637 1.838-4.248 5.854-5.264 7.444l-.028-.016-.188.354c-.133.21-.213.34-.213.34l.03.015c-.87 1.674-3.043 5.943-3.816 8.28-.977 2.95 8.615-.658 19.008 5.342 10.392 6 11.5 4.397 15.59 9 4.09 4.6 3.962 1.134 3.962 1.134l1.602-2.772.398-.692 1.602-2.772s3.066-1.625-2.965-2.865c-6.03-1.245-5.194-3.003-15.587-9.003zM227.422 505.725c-10.393 6-19.984 2.393-19.008 5.34.773 2.34 2.947 6.608 3.816 8.282l-.03.016s.08.13.214.34c.115.22.188.353.188.353l.027-.017c1.015 1.59 3.626 5.605 5.263 7.443 2.066 2.32 3.738-7.79 14.13-13.79 10.393-6 9.557-7.76 15.588-9s2.966-2.865 2.966-2.865l-1.602-2.772-.398-.692-1.602-2.77s.127-3.47-3.963 1.133-5.196 2.998-15.588 8.998zM255.944 527.607c0 12-7.92 18.503-4.878 19.132 2.41.497 7.194.75 9.08.835v.032s.15-.005.398-.016c.248.012.4.017.4.017v-.032c1.884-.084 6.667-.338 9.077-.836 3.044-.63-4.876-7.133-4.876-19.133s-1.94-12.157 0-18-1-4-1-4h-7.2s-2.94-1.843-1 4 0 6 0 18zM289.553 514.183c10.393 6 12.064 16.11 14.13 13.79 1.638-1.84 4.25-5.855 5.263-7.444l.03.015.185-.354.214-.337-.027-.017c.87-1.675 3.042-5.943 3.815-8.28.977-2.95-8.614.658-19.007-5.342s-11.5-4.396-15.59-9c-4.09-4.602-3.963-1.134-3.963-1.134L273 498.853l-.398.69-1.602 2.773s-3.066 1.624 2.965 2.866c6.032 1.24 5.196 3 15.588 9zM294.155 477.544c10.39-6 19.983-2.393 19.007-5.342-.773-2.337-2.946-6.605-3.815-8.28l.027-.017-.213-.338-.185-.354-.03.016c-1.015-1.59-3.624-5.606-5.26-7.444-2.067-2.32-3.74 7.79-14.132 13.79s-9.557 7.76-15.588 9c-6.03 1.24-2.965 2.865-2.965 2.865l1.602 2.773.398.69 1.602 2.773s-.127 3.468 3.963-1.134 5.197-2.998 15.59-8.998z"/></g></g><radialGradient id="h" cx="261.805" cy="290.493" r="258.55" gradientUnits="userSpaceOnUse"><stop offset=".632" stop-color="#D5AC6E"/><stop offset=".669" stop-color="#D2A86E"/><stop offset=".837" stop-color="#C79E6C"/><stop offset="1" stop-color="#C49A6C"/></radialGradient><path fill="url(#h)" d="M267.257 153.712s-3.14 10.616-16.96 10.616c5.072-2.763 5.114-7.19.414-10.53"/><radialGradient id="i" cx="261.805" cy="290.493" r="258.55" gradientUnits="userSpaceOnUse"><stop offset=".632" stop-color="#D5AC6E"/><stop offset=".669" stop-color="#D2A86E"/><stop offset=".837" stop-color="#C79E6C"/><stop offset="1" stop-color="#C49A6C"/></radialGradient><path fill="url(#i)" d="M319.753 114.69s7.624 8.025.714 19.994c.143-5.774-3.67-8.024-8.913-5.624"/><radialGradient id="j" cx="261.805" cy="290.493" r="258.55" gradientUnits="userSpaceOnUse"><stop offset=".632" stop-color="#D5AC6E"/><stop offset=".669" stop-color="#D2A86E"/><stop offset=".837" stop-color="#C79E6C"/><stop offset="1" stop-color="#C49A6C"/></radialGradient><path fill="url(#j)" d="M311.554 49.7s10.763-2.588 17.673 9.38c-4.93-3.01-8.784-.833-9.327 4.907"/><radialGradient id="k" cx="261.805" cy="290.493" r="258.55" gradientUnits="userSpaceOnUse"><stop offset=".632" stop-color="#D5AC6E"/><stop offset=".669" stop-color="#D2A86E"/><stop offset=".837" stop-color="#C79E6C"/><stop offset="1" stop-color="#C49A6C"/></radialGradient><path fill="url(#k)" d="M252.09 25.17s3.14-10.615 16.96-10.615c-5.072 2.763-5.114 7.19-.414 10.53"/><radialGradient id="l" cx="261.805" cy="290.493" r="258.55" gradientUnits="userSpaceOnUse"><stop offset=".632" stop-color="#D5AC6E"/><stop offset=".669" stop-color="#D2A86E"/><stop offset=".837" stop-color="#C79E6C"/><stop offset="1" stop-color="#C49A6C"/></radialGradient><path fill="url(#l)" d="M199.594 64.194s-7.624-8.026-.714-19.995c-.143 5.773 3.67 8.023 8.913 5.623"/><radialGradient id="m" cx="261.805" cy="290.493" r="258.55" gradientUnits="userSpaceOnUse"><stop offset=".632" stop-color="#D5AC6E"/><stop offset=".669" stop-color="#D2A86E"/><stop offset=".837" stop-color="#C79E6C"/><stop offset="1" stop-color="#C49A6C"/></radialGradient><path fill="url(#m)" d="M207.793 129.183s-10.763 2.59-17.673-9.38c4.93 3.01 8.784.834 9.327-4.906"/><radialGradient id="n" cx="261.805" cy="290.493" r="258.55" gradientUnits="userSpaceOnUse"><stop offset=".632" stop-color="#D5AC6E"/><stop offset=".669" stop-color="#D2A86E"/><stop offset=".837" stop-color="#C79E6C"/><stop offset="1" stop-color="#C49A6C"/></radialGradient><path fill="url(#n)" d="M259.736 24.38c-35.898 0-65 29.102-65 65s29.102 65 65 65 65-29.102 65-65-29.102-65-65-65zm0 121c-30.928 0-56-25.072-56-56s25.072-56 56-56 56 25.072 56 56-25.072 56-56 56z"/><radialGradient id="o" cx="261.805" cy="290.493" r="258.55" gradientUnits="userSpaceOnUse"><stop offset=".632" stop-color="#D5AC6E"/><stop offset=".669" stop-color="#D2A86E"/><stop offset=".837" stop-color="#C79E6C"/><stop offset="1" stop-color="#C49A6C"/></radialGradient><path fill="url(#o)" d="M259.736 75.38c-7.732 0-14 6.268-14 14s6.268 14 14 14 14-6.268 14-14-6.268-14-14-14zm0 23.878c-5.455 0-9.878-4.422-9.878-9.877s4.423-9.876 9.878-9.876 9.878 4.422 9.878 9.877-4.423 9.878-9.878 9.878z"/><radialGradient id="p" cx="261.805" cy="290.493" r="258.55" gradientUnits="userSpaceOnUse"><stop offset=".632" stop-color="#D5AC6E"/><stop offset=".669" stop-color="#D2A86E"/><stop offset=".837" stop-color="#C79E6C"/><stop offset="1" stop-color="#C49A6C"/></radialGradient><path fill="url(#p)" d="M264.736 53.56c0-12 7.92-18.503 4.878-19.132-2.41-.5-7.194-.752-9.08-.836v-.033s-.15.004-.398.015l-.4-.016v.032c-1.884.084-6.667.337-9.078.836-3.042.63 4.878 7.13 4.878 19.13s1.94 12.158 0 18c-1.94 5.844 1 4 1 4h7.2s2.94 1.844 1-4 0-6 0-18z"/><radialGradient id="q" cx="261.805" cy="290.493" r="258.55" gradientUnits="userSpaceOnUse"><stop offset=".632" stop-color="#D5AC6E"/><stop offset=".669" stop-color="#D2A86E"/><stop offset=".837" stop-color="#C79E6C"/><stop offset="1" stop-color="#C49A6C"/></radialGradient><path fill="url(#q)" d="M231.125 66.984c-10.393-6-12.063-16.11-14.13-13.79-1.637 1.838-4.248 5.854-5.263 7.444l-.028-.016-.187.354-.213.338.028.016c-.87 1.674-3.042 5.943-3.815 8.28-.977 2.95 8.614-.658 19.007 5.342s11.5 4.397 15.59 9c4.09 4.6 3.963 1.134 3.963 1.134l1.6-2.772.4-.692 1.6-2.772s3.067-1.625-2.963-2.866c-6.03-1.24-5.196-3-15.59-9z"/><radialGradient id="r" cx="261.805" cy="290.493" r="258.55" gradientUnits="userSpaceOnUse"><stop offset=".632" stop-color="#D5AC6E"/><stop offset=".669" stop-color="#D2A86E"/><stop offset=".837" stop-color="#C79E6C"/><stop offset="1" stop-color="#C49A6C"/></radialGradient><path fill="url(#r)" d="M226.525 103.622c-10.392 6-19.983 2.393-19.007 5.34.773 2.338 2.946 6.607 3.815 8.282l-.028.016.213.338c.115.22.187.354.187.354l.028-.016c1.016 1.59 3.626 5.606 5.263 7.444 2.066 2.32 3.738-7.79 14.13-13.79 10.393-6 9.558-7.76 15.59-9 6.03-1.242 2.963-2.866 2.963-2.866l-1.602-2.772-.4-.692-1.6-2.772s.126-3.468-3.964 1.134-5.197 3-15.59 9z"/><radialGradient id="s" cx="261.805" cy="290.493" r="258.55" gradientUnits="userSpaceOnUse"><stop offset=".632" stop-color="#D5AC6E"/><stop offset=".669" stop-color="#D2A86E"/><stop offset=".837" stop-color="#C79E6C"/><stop offset="1" stop-color="#C49A6C"/></radialGradient><path fill="url(#s)" d="M255.047 125.505c0 12-7.92 18.502-4.878 19.13 2.41.5 7.193.753 9.078.837v.033l.4-.016.398.015v-.033c1.885-.084 6.668-.337 9.078-.836 3.043-.63-4.877-7.13-4.877-19.13s-1.94-12.158 0-18c1.94-5.844-1-4-1-4h-7.2s-2.94-1.844-1 4 0 6 0 18z"/><radialGradient id="t" cx="261.805" cy="290.493" r="258.55" gradientUnits="userSpaceOnUse"><stop offset=".632" stop-color="#D5AC6E"/><stop offset=".669" stop-color="#D2A86E"/><stop offset=".837" stop-color="#C79E6C"/><stop offset="1" stop-color="#C49A6C"/></radialGradient><path fill="url(#t)" d="M288.657 112.08c10.393 6 12.064 16.11 14.13 13.79 1.638-1.838 4.25-5.854 5.263-7.444l.03.016.185-.354.213-.338-.027-.016c.87-1.674 3.043-5.943 3.816-8.28.977-2.95-8.614.658-19.007-5.342s-11.5-4.397-15.59-9c-4.09-4.6-3.964-1.134-3.964-1.134l-1.602 2.772-.398.692-1.602 2.772s-3.066 1.625 2.965 2.866 5.194 3 15.587 9z"/><radialGradient id="u" cx="261.805" cy="290.493" r="258.55" gradientUnits="userSpaceOnUse"><stop offset=".632" stop-color="#D5AC6E"/><stop offset=".669" stop-color="#D2A86E"/><stop offset=".837" stop-color="#C79E6C"/><stop offset="1" stop-color="#C49A6C"/></radialGradient><path fill="url(#u)" d="M293.258 75.44c10.39-6 19.983-2.392 19.007-5.34-.773-2.337-2.946-6.606-3.815-8.28l.027-.017-.213-.338-.186-.354-.03.017c-1.015-1.59-3.624-5.606-5.26-7.444-2.067-2.32-3.74 7.79-14.132 13.79s-9.557 7.76-15.588 9c-6.03 1.242-2.965 2.866-2.965 2.866l1.602 2.77.398.693 1.602 2.772s-.127 3.468 3.963-1.134 5.198-3 15.59-9z"/><g><radialGradient id="v" cx="261.805" cy="290.493" r="258.55" gradientUnits="userSpaceOnUse"><stop offset=".632" stop-color="#D5AC6E"/><stop offset=".669" stop-color="#D2A86E"/><stop offset=".837" stop-color="#C79E6C"/><stop offset="1" stop-color="#C49A6C"/></radialGradient><path fill="url(#v)" d="M439.742 351.884s-3.14 10.616-16.96 10.616c5.072-2.763 5.114-7.19.414-10.53"/><radialGradient id="w" cx="261.805" cy="290.493" r="258.55" gradientUnits="userSpaceOnUse"><stop offset=".632" stop-color="#D5AC6E"/><stop offset=".669" stop-color="#D2A86E"/><stop offset=".837" stop-color="#C79E6C"/><stop offset="1" stop-color="#C49A6C"/></radialGradient><path fill="url(#w)" d="M492.238 312.86s7.624 8.027.714 19.996c.143-5.774-3.67-8.024-8.913-5.624"/><radialGradient id="x" cx="261.805" cy="290.493" r="258.55" gradientUnits="userSpaceOnUse"><stop offset=".632" stop-color="#D5AC6E"/><stop offset=".669" stop-color="#D2A86E"/><stop offset=".837" stop-color="#C79E6C"/><stop offset="1" stop-color="#C49A6C"/></radialGradient><path fill="url(#x)" d="M484.04 247.873s10.762-2.59 17.672 9.38c-4.93-3.01-8.784-.834-9.327 4.906"/><radialGradient id="y" cx="261.805" cy="290.493" r="258.55" gradientUnits="userSpaceOnUse"><stop offset=".632" stop-color="#D5AC6E"/><stop offset=".669" stop-color="#D2A86E"/><stop offset=".837" stop-color="#C79E6C"/><stop offset="1" stop-color="#C49A6C"/></radialGradient><path fill="url(#y)" d="M424.576 223.343s3.14-10.616 16.96-10.616c-5.073 2.763-5.115 7.19-.415 10.53"/><radialGradient id="z" cx="261.805" cy="290.493" r="258.55" gradientUnits="userSpaceOnUse"><stop offset=".632" stop-color="#D5AC6E"/><stop offset=".669" stop-color="#D2A86E"/><stop offset=".837" stop-color="#C79E6C"/><stop offset="1" stop-color="#C49A6C"/></radialGradient><path fill="url(#z)" d="M372.08 262.366s-7.625-8.026-.715-19.995c-.143 5.775 3.67 8.025 8.913 5.625"/><radialGradient id="A" cx="261.805" cy="290.493" r="258.55" gradientUnits="userSpaceOnUse"><stop offset=".632" stop-color="#D5AC6E"/><stop offset=".669" stop-color="#D2A86E"/><stop offset=".837" stop-color="#C79E6C"/><stop offset="1" stop-color="#C49A6C"/></radialGradient><path fill="url(#A)" d="M380.278 327.354s-10.763 2.59-17.673-9.38c4.93 3.01 8.784.834 9.327-4.906"/><radialGradient id="B" cx="261.805" cy="290.493" r="258.55" gradientUnits="userSpaceOnUse"><stop offset=".632" stop-color="#D5AC6E"/><stop offset=".669" stop-color="#D2A86E"/><stop offset=".837" stop-color="#C79E6C"/><stop offset="1" stop-color="#C49A6C"/></radialGradient><path fill="url(#B)" d="M432.22 222.552c-35.898 0-65 29.102-65 65s29.102 65 65 65 65-29.102 65-65-29.1-65-65-65zm0 121c-30.928 0-56-25.072-56-56s25.072-56 56-56 56 25.072 56 56-25.072 56-56 56z"/><radialGradient id="C" cx="261.805" cy="290.493" r="258.55" gradientUnits="userSpaceOnUse"><stop offset=".632" stop-color="#D5AC6E"/><stop offset=".669" stop-color="#D2A86E"/><stop offset=".837" stop-color="#C79E6C"/><stop offset="1" stop-color="#C49A6C"/></radialGradient><path fill="url(#C)" d="M432.22 273.552c-7.732 0-14 6.268-14 14s6.268 14 14 14 14-6.268 14-14-6.267-14-14-14zm0 23.878c-5.455 0-9.877-4.422-9.877-9.877s4.422-9.877 9.877-9.877 9.878 4.422 9.878 9.877-4.423 9.877-9.878 9.877z"/><radialGradient id="D" cx="261.805" cy="290.493" r="258.55" gradientUnits="userSpaceOnUse"><stop offset=".632" stop-color="#D5AC6E"/><stop offset=".669" stop-color="#D2A86E"/><stop offset=".837" stop-color="#C79E6C"/><stop offset="1" stop-color="#C49A6C"/></radialGradient><path fill="url(#D)" d="M437.22 251.73c0-12 7.92-18.502 4.878-19.13-2.41-.5-7.194-.753-9.08-.837v-.033s-.15.005-.398.016l-.4-.016v.033c-1.884.084-6.667.337-9.077.836-3.043.628 4.877 7.13 4.877 19.13s1.94 12.157 0 18 1 4 1 4h7.2s2.94 1.843 1-4 0-6 0-18z"/><radialGradient id="E" cx="261.805" cy="290.493" r="258.55" gradientUnits="userSpaceOnUse"><stop offset=".632" stop-color="#D5AC6E"/><stop offset=".669" stop-color="#D2A86E"/><stop offset=".837" stop-color="#C79E6C"/><stop offset="1" stop-color="#C49A6C"/></radialGradient><path fill="url(#E)" d="M403.61 265.156c-10.393-6-12.062-16.11-14.13-13.79-1.636 1.838-4.247 5.854-5.263 7.444l-.027-.016-.188.354-.213.338.028.016c-.87 1.674-3.043 5.943-3.816 8.28-.977 2.95 8.615-.658 19.008 5.342 10.392 6 11.5 4.397 15.59 9 4.09 4.6 3.962 1.134 3.962 1.134l1.602-2.772.398-.692 1.602-2.772s3.066-1.625-2.965-2.866-5.197-3-15.59-9z"/><radialGradient id="F" cx="261.805" cy="290.493" r="258.55" gradientUnits="userSpaceOnUse"><stop offset=".632" stop-color="#D5AC6E"/><stop offset=".669" stop-color="#D2A86E"/><stop offset=".837" stop-color="#C79E6C"/><stop offset="1" stop-color="#C49A6C"/></radialGradient><path fill="url(#F)" d="M399.01 301.794c-10.393 6-19.984 2.393-19.008 5.34.773 2.338 2.947 6.607 3.816 8.282l-.03.016.214.338c.115.22.188.354.188.354l.027-.016c1.016 1.59 3.627 5.606 5.264 7.444 2.067 2.32 3.74-7.79 14.13-13.79 10.394-6 9.558-7.76 15.59-9 6.03-1.242 2.964-2.866 2.964-2.866l-1.602-2.772-.398-.692-1.602-2.772s.127-3.468-3.963 1.134-5.198 3-15.59 9z"/><radialGradient id="G" cx="261.805" cy="290.493" r="258.55" gradientUnits="userSpaceOnUse"><stop offset=".632" stop-color="#D5AC6E"/><stop offset=".669" stop-color="#D2A86E"/><stop offset=".837" stop-color="#C79E6C"/><stop offset="1" stop-color="#C49A6C"/></radialGradient><path fill="url(#G)" d="M427.532 323.677c0 12-7.92 18.502-4.878 19.13 2.41.5 7.194.753 9.08.837v.033s.15-.005.398-.016l.4.017v-.033c1.884-.084 6.667-.337 9.077-.836 3.042-.63-4.878-7.13-4.878-19.13s-1.94-12.158 0-18c1.94-5.844-1-4-1-4h-7.2s-2.94-1.844-1 4 0 6 0 18z"/><radialGradient id="H" cx="261.805" cy="290.493" r="258.55" gradientUnits="userSpaceOnUse"><stop offset=".632" stop-color="#D5AC6E"/><stop offset=".669" stop-color="#D2A86E"/><stop offset=".837" stop-color="#C79E6C"/><stop offset="1" stop-color="#C49A6C"/></radialGradient><path fill="url(#H)" d="M461.14 310.25c10.394 6 12.065 16.11 14.13 13.79 1.64-1.837 4.25-5.853 5.264-7.443l.03.016.185-.354.212-.34-.027-.015c.87-1.674 3.042-5.943 3.815-8.28.977-2.95-8.614.658-19.007-5.342s-11.5-4.397-15.59-9c-4.09-4.6-3.963-1.134-3.963-1.134l-1.602 2.77-.398.693-1.602 2.772s-3.066 1.625 2.965 2.866 5.196 3 15.588 9z"/><radialGradient id="I" cx="261.805" cy="290.493" r="258.55" gradientUnits="userSpaceOnUse"><stop offset=".632" stop-color="#D5AC6E"/><stop offset=".669" stop-color="#D2A86E"/><stop offset=".837" stop-color="#C79E6C"/><stop offset="1" stop-color="#C49A6C"/></radialGradient><path fill="url(#I)" d="M465.743 273.613c10.39-6 19.983-2.393 19.007-5.34-.773-2.338-2.946-6.607-3.815-8.282l.027-.015-.213-.338-.187-.354-.03.016c-1.015-1.59-3.624-5.607-5.26-7.445-2.067-2.32-3.74 7.79-14.132 13.79s-9.556 7.76-15.587 9c-6.03 1.242-2.965 2.866-2.965 2.866l1.602 2.773.398.692 1.602 2.772s-.127 3.468 3.963-1.134 5.197-3 15.59-9z"/></g><g><radialGradient id="J" cx="261.805" cy="290.493" r="258.55" gradientUnits="userSpaceOnUse"><stop offset=".632" stop-color="#D5AC6E"/><stop offset=".669" stop-color="#D2A86E"/><stop offset=".837" stop-color="#C79E6C"/><stop offset="1" stop-color="#C49A6C"/></radialGradient><path fill="url(#J)" d="M99.037 351.822s-3.14 10.616-16.96 10.616c5.072-2.763 5.114-7.19.414-10.53"/><radialGradient id="K" cx="261.805" cy="290.493" r="258.55" gradientUnits="userSpaceOnUse"><stop offset=".632" stop-color="#D5AC6E"/><stop offset=".669" stop-color="#D2A86E"/><stop offset=".837" stop-color="#C79E6C"/><stop offset="1" stop-color="#C49A6C"/></radialGradient><path fill="url(#K)" d="M151.533 312.8s7.624 8.025.714 19.994c.143-5.774-3.67-8.024-8.913-5.624"/><radialGradient id="L" cx="261.805" cy="290.493" r="258.55" gradientUnits="userSpaceOnUse"><stop offset=".632" stop-color="#D5AC6E"/><stop offset=".669" stop-color="#D2A86E"/><stop offset=".837" stop-color="#C79E6C"/><stop offset="1" stop-color="#C49A6C"/></radialGradient><path fill="url(#L)" d="M143.333 247.81s10.763-2.588 17.673 9.38c-4.93-3.01-8.784-.833-9.327 4.907"/><radialGradient id="M" cx="261.805" cy="290.493" r="258.55" gradientUnits="userSpaceOnUse"><stop offset=".632" stop-color="#D5AC6E"/><stop offset=".669" stop-color="#D2A86E"/><stop offset=".837" stop-color="#C79E6C"/><stop offset="1" stop-color="#C49A6C"/></radialGradient><path fill="url(#M)" d="M83.87 223.282s3.14-10.616 16.96-10.616c-5.072 2.763-5.114 7.19-.414 10.53"/><radialGradient id="N" cx="261.805" cy="290.493" r="258.55" gradientUnits="userSpaceOnUse"><stop offset=".632" stop-color="#D5AC6E"/><stop offset=".669" stop-color="#D2A86E"/><stop offset=".837" stop-color="#C79E6C"/><stop offset="1" stop-color="#C49A6C"/></radialGradient><path fill="url(#N)" d="M31.374 262.305s-7.624-8.026-.714-19.995c-.143 5.774 3.67 8.024 8.913 5.624"/><radialGradient id="O" cx="261.805" cy="290.493" r="258.55" gradientUnits="userSpaceOnUse"><stop offset=".632" stop-color="#D5AC6E"/><stop offset=".669" stop-color="#D2A86E"/><stop offset=".837" stop-color="#C79E6C"/><stop offset="1" stop-color="#C49A6C"/></radialGradient><path fill="url(#O)" d="M39.573 327.293s-10.763 2.59-17.673-9.38c4.93 3.01 8.784.834 9.327-4.906"/><radialGradient id="P" cx="261.805" cy="290.493" r="258.55" gradientUnits="userSpaceOnUse"><stop offset=".632" stop-color="#D5AC6E"/><stop offset=".669" stop-color="#D2A86E"/><stop offset=".837" stop-color="#C79E6C"/><stop offset="1" stop-color="#C49A6C"/></radialGradient><path fill="url(#P)" d="M91.515 222.49c-35.898 0-65 29.103-65 65s29.102 65 65 65 65-29.1 65-65-29.1-65-65-65zm0 121c-30.928 0-56-25.07-56-56s25.072-56 56-56 56 25.073 56 56-25.072 56-56 56z"/><radialGradient id="Q" cx="261.805" cy="290.493" r="258.55" gradientUnits="userSpaceOnUse"><stop offset=".632" stop-color="#D5AC6E"/><stop offset=".669" stop-color="#D2A86E"/><stop offset=".837" stop-color="#C79E6C"/><stop offset="1" stop-color="#C49A6C"/></radialGradient><path fill="url(#Q)" d="M91.515 273.49c-7.732 0-14 6.27-14 14s6.268 14 14 14 14-6.267 14-14-6.267-14-14-14zm0 23.878c-5.455 0-9.877-4.422-9.877-9.877s4.422-9.876 9.877-9.876 9.878 4.422 9.878 9.877-4.423 9.878-9.878 9.878z"/><radialGradient id="R" cx="261.805" cy="290.493" r="258.55" gradientUnits="userSpaceOnUse"><stop offset=".632" stop-color="#D5AC6E"/><stop offset=".669" stop-color="#D2A86E"/><stop offset=".837" stop-color="#C79E6C"/><stop offset="1" stop-color="#C49A6C"/></radialGradient><path fill="url(#R)" d="M96.515 251.67c0-12 7.92-18.503 4.878-19.132-2.41-.5-7.194-.752-9.08-.836v-.033s-.15.004-.398.015l-.4-.016v.032c-1.884.084-6.667.337-9.077.836-3.043.63 4.877 7.13 4.877 19.13s1.94 12.158 0 18c-1.94 5.844 1 4 1 4h7.2s2.94 1.844 1-4 0-6 0-18z"/><radialGradient id="S" cx="261.805" cy="290.493" r="258.55" gradientUnits="userSpaceOnUse"><stop offset=".632" stop-color="#D5AC6E"/><stop offset=".669" stop-color="#D2A86E"/><stop offset=".837" stop-color="#C79E6C"/><stop offset="1" stop-color="#C49A6C"/></radialGradient><path fill="url(#S)" d="M62.906 265.094c-10.394-6-12.063-16.11-14.13-13.79-1.637 1.838-4.248 5.854-5.264 7.444l-.027-.016-.188.354-.213.338.03.016c-.872 1.674-3.044 5.943-3.817 8.28-.977 2.95 8.615-.658 19.008 5.342 10.392 6 11.5 4.397 15.59 9 4.09 4.6 3.962 1.134 3.962 1.134l1.602-2.772.397-.692 1.602-2.772s3.065-1.625-2.966-2.866-5.196-3-15.588-9z"/><radialGradient id="T" cx="261.805" cy="290.493" r="258.55" gradientUnits="userSpaceOnUse"><stop offset=".632" stop-color="#D5AC6E"/><stop offset=".669" stop-color="#D2A86E"/><stop offset=".837" stop-color="#C79E6C"/><stop offset="1" stop-color="#C49A6C"/></radialGradient><path fill="url(#T)" d="M58.305 301.732c-10.393 6-19.984 2.393-19.008 5.34.773 2.338 2.947 6.607 3.816 8.282l-.03.016.214.338c.115.22.188.354.188.354l.027-.016c1.016 1.59 3.627 5.606 5.264 7.444 2.066 2.32 3.738-7.79 14.13-13.79 10.393-6 9.557-7.76 15.588-9 6.03-1.242 2.965-2.866 2.965-2.866l-1.603-2.772-.398-.692-1.603-2.772s.127-3.468-3.963 1.134-5.197 3-15.59 9z"/><radialGradient id="U" cx="261.805" cy="290.493" r="258.55" gradientUnits="userSpaceOnUse"><stop offset=".632" stop-color="#D5AC6E"/><stop offset=".669" stop-color="#D2A86E"/><stop offset=".837" stop-color="#C79E6C"/><stop offset="1" stop-color="#C49A6C"/></radialGradient><path fill="url(#U)" d="M86.827 323.615c0 12-7.92 18.502-4.878 19.13 2.41.5 7.193.753 9.078.837v.033l.4-.016.398.015v-.033c1.885-.084 6.668-.337 9.078-.836 3.043-.63-4.877-7.13-4.877-19.13s-1.94-12.158 0-18c1.94-5.844-1-4-1-4h-7.2s-2.94-1.844-1 4 0 6 0 18z"/><radialGradient id="V" cx="261.805" cy="290.493" r="258.55" gradientUnits="userSpaceOnUse"><stop offset=".632" stop-color="#D5AC6E"/><stop offset=".669" stop-color="#D2A86E"/><stop offset=".837" stop-color="#C79E6C"/><stop offset="1" stop-color="#C49A6C"/></radialGradient><path fill="url(#V)" d="M120.436 310.19c10.393 6 12.064 16.11 14.13 13.79 1.638-1.838 4.25-5.854 5.263-7.444l.028.016.186-.354.213-.338-.027-.016c.87-1.674 3.042-5.943 3.815-8.28.977-2.95-8.614.658-19.007-5.342s-11.5-4.397-15.59-9c-4.09-4.6-3.963-1.134-3.963-1.134l-1.602 2.772-.398.692-1.602 2.772s-3.066 1.625 2.965 2.866 5.195 3 15.588 9z"/><radialGradient id="W" cx="261.805" cy="290.493" r="258.55" gradientUnits="userSpaceOnUse"><stop offset=".632" stop-color="#D5AC6E"/><stop offset=".669" stop-color="#D2A86E"/><stop offset=".837" stop-color="#C79E6C"/><stop offset="1" stop-color="#C49A6C"/></radialGradient><path fill="url(#W)" d="M125.038 273.552c10.39-6 19.983-2.393 19.007-5.34-.773-2.338-2.946-6.607-3.815-8.282l.027-.016-.213-.338-.186-.354-.03.016c-1.015-1.59-3.624-5.606-5.26-7.444-2.067-2.32-3.74 7.79-14.132 13.79s-9.557 7.76-15.588 9c-6.03 1.242-2.965 2.866-2.965 2.866l1.602 2.772.398.692 1.602 2.772s-.127 3.468 3.963-1.134 5.197-3 15.59-9z"/></g><g><radialGradient id="X" cx="261.805" cy="290.493" r="258.55" gradientUnits="userSpaceOnUse"><stop offset=".632" stop-color="#D5AC6E"/><stop offset=".669" stop-color="#D2A86E"/><stop offset=".837" stop-color="#C79E6C"/><stop offset="1" stop-color="#C49A6C"/></radialGradient><path fill="url(#X)" d="M268.154 555.814s-3.14 10.616-16.96 10.616c5.072-2.764 5.114-7.19.414-10.53"/><radialGradient id="Y" cx="261.805" cy="290.493" r="258.55" gradientUnits="userSpaceOnUse"><stop offset=".632" stop-color="#D5AC6E"/><stop offset=".669" stop-color="#D2A86E"/><stop offset=".837" stop-color="#C79E6C"/><stop offset="1" stop-color="#C49A6C"/></radialGradient><path fill="url(#Y)" d="M320.65 516.792s7.624 8.025.714 19.994c.143-5.773-3.67-8.023-8.913-5.623"/><radialGradient id="Z" cx="261.805" cy="290.493" r="258.55" gradientUnits="userSpaceOnUse"><stop offset=".632" stop-color="#D5AC6E"/><stop offset=".669" stop-color="#D2A86E"/><stop offset=".837" stop-color="#C79E6C"/><stop offset="1" stop-color="#C49A6C"/></radialGradient><path fill="url(#Z)" d="M312.45 451.804s10.764-2.59 17.674 9.38c-4.93-3.01-8.784-.835-9.327 4.906"/><radialGradient id="aa" cx="261.805" cy="290.493" r="258.55" gradientUnits="userSpaceOnUse"><stop offset=".632" stop-color="#D5AC6E"/><stop offset=".669" stop-color="#D2A86E"/><stop offset=".837" stop-color="#C79E6C"/><stop offset="1" stop-color="#C49A6C"/></radialGradient><path fill="url(#aa)" d="M252.988 427.274s3.14-10.617 16.96-10.617c-5.073 2.764-5.115 7.19-.415 10.53"/><radialGradient id="ab" cx="261.805" cy="290.493" r="258.55" gradientUnits="userSpaceOnUse"><stop offset=".632" stop-color="#D5AC6E"/><stop offset=".669" stop-color="#D2A86E"/><stop offset=".837" stop-color="#C79E6C"/><stop offset="1" stop-color="#C49A6C"/></radialGradient><path fill="url(#ab)" d="M200.49 466.297s-7.623-8.026-.713-19.995c-.143 5.773 3.67 8.023 8.913 5.623"/><radialGradient id="ac" cx="261.805" cy="290.493" r="258.55" gradientUnits="userSpaceOnUse"><stop offset=".632" stop-color="#D5AC6E"/><stop offset=".669" stop-color="#D2A86E"/><stop offset=".837" stop-color="#C79E6C"/><stop offset="1" stop-color="#C49A6C"/></radialGradient><path fill="url(#ac)" d="M208.69 531.285s-10.763 2.59-17.673-9.38c4.93 3.01 8.784.834 9.327-4.906"/><radialGradient id="ad" cx="261.805" cy="290.493" r="258.55" gradientUnits="userSpaceOnUse"><stop offset=".632" stop-color="#D5AC6E"/><stop offset=".669" stop-color="#D2A86E"/><stop offset=".837" stop-color="#C79E6C"/><stop offset="1" stop-color="#C49A6C"/></radialGradient><path fill="url(#ad)" d="M260.632 426.483c-35.898 0-65 29.102-65 65s29.102 65 65 65 65-29.102 65-65-29.1-65-65-65zm0 121c-30.928 0-56-25.072-56-56s25.072-56 56-56 56 25.072 56 56-25.072 56-56 56z"/><radialGradient id="ae" cx="261.805" cy="290.493" r="258.55" gradientUnits="userSpaceOnUse"><stop offset=".632" stop-color="#D5AC6E"/><stop offset=".669" stop-color="#D2A86E"/><stop offset=".837" stop-color="#C79E6C"/><stop offset="1" stop-color="#C49A6C"/></radialGradient><path fill="url(#ae)" d="M260.632 477.483c-7.732 0-14 6.268-14 14 0 7.73 6.268 14 14 14s14-6.27 14-14c0-7.732-6.267-14-14-14zm0 23.877c-5.455 0-9.877-4.422-9.877-9.877s4.422-9.878 9.877-9.878 9.878 4.423 9.878 9.878-4.423 9.877-9.878 9.877z"/><radialGradient id="af" cx="261.805" cy="290.493" r="258.55" gradientUnits="userSpaceOnUse"><stop offset=".632" stop-color="#D5AC6E"/><stop offset=".669" stop-color="#D2A86E"/><stop offset=".837" stop-color="#C79E6C"/><stop offset="1" stop-color="#C49A6C"/></radialGradient><path fill="url(#af)" d="M265.632 455.66c0-12 7.92-18.5 4.878-19.13-2.41-.5-7.194-.752-9.08-.836v-.033l-.398.017-.4-.016v.034c-1.884.084-6.667.337-9.077.836-3.043.63 4.877 7.13 4.877 19.13s1.94 12.157 0 18c-1.94 5.845 1 4 1 4h7.2s2.94 1.845 1-4 0-6 0-18z"/><radialGradient id="ag" cx="261.805" cy="290.493" r="258.55" gradientUnits="userSpaceOnUse"><stop offset=".632" stop-color="#D5AC6E"/><stop offset=".669" stop-color="#D2A86E"/><stop offset=".837" stop-color="#C79E6C"/><stop offset="1" stop-color="#C49A6C"/></radialGradient><path fill="url(#ag)" d="M232.023 469.087c-10.394-6-12.063-16.11-14.13-13.79-1.637 1.838-4.248 5.854-5.264 7.444l-.028-.016-.188.354c-.133.21-.213.34-.213.34l.03.015c-.87 1.674-3.043 5.943-3.816 8.28-.977 2.95 8.615-.658 19.008 5.342 10.392 6 11.5 4.397 15.59 9 4.09 4.6 3.962 1.134 3.962 1.134l1.602-2.772.398-.692 1.602-2.772s3.066-1.625-2.965-2.865c-6.03-1.245-5.194-3.003-15.587-9.003z"/><radialGradient id="ah" cx="261.805" cy="290.493" r="258.55" gradientUnits="userSpaceOnUse"><stop offset=".632" stop-color="#D5AC6E"/><stop offset=".669" stop-color="#D2A86E"/><stop offset=".837" stop-color="#C79E6C"/><stop offset="1" stop-color="#C49A6C"/></radialGradient><path fill="url(#ah)" d="M227.422 505.725c-10.393 6-19.984 2.393-19.008 5.34.773 2.34 2.947 6.608 3.816 8.282l-.03.016s.08.13.214.34c.115.22.188.353.188.353l.027-.017c1.015 1.59 3.626 5.605 5.263 7.443 2.066 2.32 3.738-7.79 14.13-13.79 10.393-6 9.557-7.76 15.588-9s2.966-2.865 2.966-2.865l-1.602-2.772-.398-.692-1.602-2.77s.127-3.47-3.963 1.133-5.196 2.998-15.588 8.998z"/><radialGradient id="ai" cx="261.805" cy="290.493" r="258.55" gradientUnits="userSpaceOnUse"><stop offset=".632" stop-color="#D5AC6E"/><stop offset=".669" stop-color="#D2A86E"/><stop offset=".837" stop-color="#C79E6C"/><stop offset="1" stop-color="#C49A6C"/></radialGradient><path fill="url(#ai)" d="M255.944 527.607c0 12-7.92 18.503-4.878 19.132 2.41.497 7.194.75 9.08.835v.032s.15-.005.398-.016c.248.012.4.017.4.017v-.032c1.884-.084 6.667-.338 9.077-.836 3.044-.63-4.876-7.133-4.876-19.133s-1.94-12.157 0-18-1-4-1-4h-7.2s-2.94-1.843-1 4 0 6 0 18z"/><radialGradient id="aj" cx="261.805" cy="290.493" r="258.55" gradientUnits="userSpaceOnUse"><stop offset=".632" stop-color="#D5AC6E"/><stop offset=".669" stop-color="#D2A86E"/><stop offset=".837" stop-color="#C79E6C"/><stop offset="1" stop-color="#C49A6C"/></radialGradient><path fill="url(#aj)" d="M289.553 514.183c10.393 6 12.064 16.11 14.13 13.79 1.638-1.84 4.25-5.855 5.263-7.444l.03.015.185-.354.214-.337-.027-.017c.87-1.675 3.042-5.943 3.815-8.28.977-2.95-8.614.658-19.007-5.342s-11.5-4.396-15.59-9c-4.09-4.602-3.963-1.134-3.963-1.134L273 498.853l-.398.69-1.602 2.773s-3.066 1.624 2.965 2.866c6.032 1.24 5.196 3 15.588 9z"/><radialGradient id="ak" cx="261.805" cy="290.493" r="258.55" gradientUnits="userSpaceOnUse"><stop offset=".632" stop-color="#D5AC6E"/><stop offset=".669" stop-color="#D2A86E"/><stop offset=".837" stop-color="#C79E6C"/><stop offset="1" stop-color="#C49A6C"/></radialGradient><path fill="url(#ak)" d="M294.155 477.544c10.39-6 19.983-2.393 19.007-5.342-.773-2.337-2.946-6.605-3.815-8.28l.027-.017-.213-.338-.185-.354-.03.016c-1.015-1.59-3.624-5.606-5.26-7.444-2.067-2.32-3.74 7.79-14.132 13.79s-9.557 7.76-15.588 9c-6.03 1.24-2.965 2.865-2.965 2.865l1.602 2.773.398.69 1.602 2.773s-.127 3.468 3.963-1.134 5.197-2.998 15.59-8.998z"/></g><g fill="none" stroke="#000" stroke-width="2" stroke-miterlimit="10"><path d="M267.257 153.712s-3.14 10.616-16.96 10.616c5.072-2.763 5.114-7.19.414-10.53M319.753 114.69s7.624 8.025.714 19.994c.143-5.774-3.67-8.024-8.913-5.624M311.554 49.7s10.763-2.588 17.673 9.38c-4.93-3.01-8.784-.833-9.327 4.907M252.09 25.17s3.14-10.615 16.96-10.615c-5.072 2.763-5.114 7.19-.414 10.53M199.594 64.194s-7.624-8.026-.714-19.995c-.143 5.773 3.67 8.023 8.913 5.623M207.793 129.183s-10.763 2.59-17.673-9.38c4.93 3.01 8.784.834 9.327-4.906"/><path d="M259.736 24.38c-35.898 0-65 29.102-65 65s29.102 65 65 65 65-29.102 65-65-29.102-65-65-65zm0 121c-30.928 0-56-25.072-56-56s25.072-56 56-56 56 25.072 56 56-25.072 56-56 56z"/><path d="M259.736 75.38c-7.732 0-14 6.268-14 14s6.268 14 14 14 14-6.268 14-14-6.268-14-14-14zm0 23.878c-5.455 0-9.878-4.422-9.878-9.877s4.423-9.876 9.878-9.876 9.878 4.422 9.878 9.877-4.423 9.878-9.878 9.878z"/><path d="M264.736 53.56c0-12 7.92-18.503 4.878-19.132-2.41-.5-7.194-.752-9.08-.836v-.033s-.15.004-.398.015l-.4-.016v.032c-1.884.084-6.667.337-9.078.836-3.042.63 4.878 7.13 4.878 19.13s1.94 12.158 0 18c-1.94 5.844 1 4 1 4h7.2s2.94 1.844 1-4 0-6 0-18zM231.125 66.984c-10.393-6-12.063-16.11-14.13-13.79-1.637 1.838-4.248 5.854-5.263 7.444l-.028-.016-.187.354-.213.338.028.016c-.87 1.674-3.042 5.943-3.815 8.28-.977 2.95 8.614-.658 19.007 5.342s11.5 4.397 15.59 9c4.09 4.6 3.963 1.134 3.963 1.134l1.6-2.772.4-.692 1.6-2.772s3.067-1.625-2.963-2.866c-6.03-1.24-5.196-3-15.59-9zM226.525 103.622c-10.392 6-19.983 2.393-19.007 5.34.773 2.338 2.946 6.607 3.815 8.282l-.028.016.213.338c.115.22.187.354.187.354l.028-.016c1.016 1.59 3.626 5.606 5.263 7.444 2.066 2.32 3.738-7.79 14.13-13.79 10.393-6 9.558-7.76 15.59-9 6.03-1.242 2.963-2.866 2.963-2.866l-1.602-2.772-.4-.692-1.6-2.772s.126-3.468-3.964 1.134-5.197 3-15.59 9zM255.047 125.505c0 12-7.92 18.502-4.878 19.13 2.41.5 7.193.753 9.078.837v.033l.4-.016.398.015v-.033c1.885-.084 6.668-.337 9.078-.836 3.043-.63-4.877-7.13-4.877-19.13s-1.94-12.158 0-18c1.94-5.844-1-4-1-4h-7.2s-2.94-1.844-1 4 0 6 0 18zM288.657 112.08c10.393 6 12.064 16.11 14.13 13.79 1.638-1.838 4.25-5.854 5.263-7.444l.03.016.185-.354.213-.338-.027-.016c.87-1.674 3.043-5.943 3.816-8.28.977-2.95-8.614.658-19.007-5.342s-11.5-4.397-15.59-9c-4.09-4.6-3.964-1.134-3.964-1.134l-1.602 2.772-.398.692-1.602 2.772s-3.066 1.625 2.965 2.866 5.194 3 15.587 9zM293.258 75.44c10.39-6 19.983-2.392 19.007-5.34-.773-2.337-2.946-6.606-3.815-8.28l.027-.017-.213-.338-.186-.354-.03.017c-1.015-1.59-3.624-5.606-5.26-7.444-2.067-2.32-3.74 7.79-14.132 13.79s-9.557 7.76-15.588 9c-6.03 1.242-2.965 2.866-2.965 2.866l1.602 2.77.398.693 1.602 2.772s-.127 3.468 3.963-1.134 5.198-3 15.59-9z"/><g><path d="M439.742 351.884s-3.14 10.616-16.96 10.616c5.072-2.763 5.114-7.19.414-10.53M492.238 312.86s7.624 8.027.714 19.996c.143-5.774-3.67-8.024-8.913-5.624M484.04 247.873s10.762-2.59 17.672 9.38c-4.93-3.01-8.784-.834-9.327 4.906M424.576 223.343s3.14-10.616 16.96-10.616c-5.073 2.763-5.115 7.19-.415 10.53M372.08 262.366s-7.625-8.026-.715-19.995c-.143 5.775 3.67 8.025 8.913 5.625M380.278 327.354s-10.763 2.59-17.673-9.38c4.93 3.01 8.784.834 9.327-4.906"/><path d="M432.22 222.552c-35.898 0-65 29.102-65 65s29.102 65 65 65 65-29.102 65-65-29.1-65-65-65zm0 121c-30.928 0-56-25.072-56-56s25.072-56 56-56 56 25.072 56 56-25.072 56-56 56z"/><path d="M432.22 273.552c-7.732 0-14 6.268-14 14s6.268 14 14 14 14-6.268 14-14-6.267-14-14-14zm0 23.878c-5.455 0-9.877-4.422-9.877-9.877s4.422-9.877 9.877-9.877 9.878 4.422 9.878 9.877-4.423 9.877-9.878 9.877z"/><path d="M437.22 251.73c0-12 7.92-18.502 4.878-19.13-2.41-.5-7.194-.753-9.08-.837v-.033s-.15.005-.398.016l-.4-.016v.033c-1.884.084-6.667.337-9.077.836-3.043.628 4.877 7.13 4.877 19.13s1.94 12.157 0 18 1 4 1 4h7.2s2.94 1.843 1-4 0-6 0-18zM403.61 265.156c-10.393-6-12.062-16.11-14.13-13.79-1.636 1.838-4.247 5.854-5.263 7.444l-.027-.016-.188.354-.213.338.028.016c-.87 1.674-3.043 5.943-3.816 8.28-.977 2.95 8.615-.658 19.008 5.342 10.392 6 11.5 4.397 15.59 9 4.09 4.6 3.962 1.134 3.962 1.134l1.602-2.772.398-.692 1.602-2.772s3.066-1.625-2.965-2.866-5.197-3-15.59-9zM399.01 301.794c-10.393 6-19.984 2.393-19.008 5.34.773 2.338 2.947 6.607 3.816 8.282l-.03.016.214.338c.115.22.188.354.188.354l.027-.016c1.016 1.59 3.627 5.606 5.264 7.444 2.067 2.32 3.74-7.79 14.13-13.79 10.394-6 9.558-7.76 15.59-9 6.03-1.242 2.964-2.866 2.964-2.866l-1.602-2.772-.398-.692-1.602-2.772s.127-3.468-3.963 1.134-5.198 3-15.59 9zM427.532 323.677c0 12-7.92 18.502-4.878 19.13 2.41.5 7.194.753 9.08.837v.033s.15-.005.398-.016l.4.017v-.033c1.884-.084 6.667-.337 9.077-.836 3.042-.63-4.878-7.13-4.878-19.13s-1.94-12.158 0-18c1.94-5.844-1-4-1-4h-7.2s-2.94-1.844-1 4 0 6 0 18zM461.14 310.25c10.394 6 12.065 16.11 14.13 13.79 1.64-1.837 4.25-5.853 5.264-7.443l.03.016.185-.354.212-.34-.027-.015c.87-1.674 3.042-5.943 3.815-8.28.977-2.95-8.614.658-19.007-5.342s-11.5-4.397-15.59-9c-4.09-4.6-3.963-1.134-3.963-1.134l-1.602 2.77-.398.693-1.602 2.772s-3.066 1.625 2.965 2.866 5.196 3 15.588 9zM465.743 273.613c10.39-6 19.983-2.393 19.007-5.34-.773-2.338-2.946-6.607-3.815-8.282l.027-.015-.213-.338-.187-.354-.03.016c-1.015-1.59-3.624-5.607-5.26-7.445-2.067-2.32-3.74 7.79-14.132 13.79s-9.556 7.76-15.587 9c-6.03 1.242-2.965 2.866-2.965 2.866l1.602 2.773.398.692 1.602 2.772s-.127 3.468 3.963-1.134 5.197-3 15.59-9z"/></g><g><path d="M99.037 351.822s-3.14 10.616-16.96 10.616c5.072-2.763 5.114-7.19.414-10.53M151.533 312.8s7.624 8.025.714 19.994c.143-5.774-3.67-8.024-8.913-5.624M143.333 247.81s10.763-2.588 17.673 9.38c-4.93-3.01-8.784-.833-9.327 4.907M83.87 223.282s3.14-10.616 16.96-10.616c-5.072 2.763-5.114 7.19-.414 10.53M31.374 262.305s-7.624-8.026-.714-19.995c-.143 5.774 3.67 8.024 8.913 5.624M39.573 327.293s-10.763 2.59-17.673-9.38c4.93 3.01 8.784.834 9.327-4.906"/><path d="M91.515 222.49c-35.898 0-65 29.103-65 65s29.102 65 65 65 65-29.1 65-65-29.1-65-65-65zm0 121c-30.928 0-56-25.07-56-56s25.072-56 56-56 56 25.073 56 56-25.072 56-56 56z"/><path d="M91.515 273.49c-7.732 0-14 6.27-14 14s6.268 14 14 14 14-6.267 14-14-6.267-14-14-14zm0 23.878c-5.455 0-9.877-4.422-9.877-9.877s4.422-9.876 9.877-9.876 9.878 4.422 9.878 9.877-4.423 9.878-9.878 9.878z"/><path d="M96.515 251.67c0-12 7.92-18.503 4.878-19.132-2.41-.5-7.194-.752-9.08-.836v-.033s-.15.004-.398.015l-.4-.016v.032c-1.884.084-6.667.337-9.077.836-3.043.63 4.877 7.13 4.877 19.13s1.94 12.158 0 18c-1.94 5.844 1 4 1 4h7.2s2.94 1.844 1-4 0-6 0-18zM62.906 265.094c-10.394-6-12.063-16.11-14.13-13.79-1.637 1.838-4.248 5.854-5.264 7.444l-.027-.016-.188.354-.213.338.03.016c-.872 1.674-3.044 5.943-3.817 8.28-.977 2.95 8.615-.658 19.008 5.342 10.392 6 11.5 4.397 15.59 9 4.09 4.6 3.962 1.134 3.962 1.134l1.602-2.772.397-.692 1.602-2.772s3.065-1.625-2.966-2.866-5.196-3-15.588-9zM58.305 301.732c-10.393 6-19.984 2.393-19.008 5.34.773 2.338 2.947 6.607 3.816 8.282l-.03.016.214.338c.115.22.188.354.188.354l.027-.016c1.016 1.59 3.627 5.606 5.264 7.444 2.066 2.32 3.738-7.79 14.13-13.79 10.393-6 9.557-7.76 15.588-9 6.03-1.242 2.965-2.866 2.965-2.866l-1.603-2.772-.398-.692-1.603-2.772s.127-3.468-3.963 1.134-5.197 3-15.59 9zM86.827 323.615c0 12-7.92 18.502-4.878 19.13 2.41.5 7.193.753 9.078.837v.033l.4-.016.398.015v-.033c1.885-.084 6.668-.337 9.078-.836 3.043-.63-4.877-7.13-4.877-19.13s-1.94-12.158 0-18c1.94-5.844-1-4-1-4h-7.2s-2.94-1.844-1 4 0 6 0 18zM120.436 310.19c10.393 6 12.064 16.11 14.13 13.79 1.638-1.838 4.25-5.854 5.263-7.444l.028.016.186-.354.213-.338-.027-.016c.87-1.674 3.042-5.943 3.815-8.28.977-2.95-8.614.658-19.007-5.342s-11.5-4.397-15.59-9c-4.09-4.6-3.963-1.134-3.963-1.134l-1.602 2.772-.398.692-1.602 2.772s-3.066 1.625 2.965 2.866 5.195 3 15.588 9zM125.038 273.552c10.39-6 19.983-2.393 19.007-5.34-.773-2.338-2.946-6.607-3.815-8.282l.027-.016-.213-.338-.186-.354-.03.016c-1.015-1.59-3.624-5.606-5.26-7.444-2.067-2.32-3.74 7.79-14.132 13.79s-9.557 7.76-15.588 9c-6.03 1.242-2.965 2.866-2.965 2.866l1.602 2.772.398.692 1.602 2.772s-.127 3.468 3.963-1.134 5.197-3 15.59-9z"/></g><g><path d="M268.154 555.814s-3.14 10.616-16.96 10.616c5.072-2.764 5.114-7.19.414-10.53M320.65 516.792s7.624 8.025.714 19.994c.143-5.773-3.67-8.023-8.913-5.623M312.45 451.804s10.764-2.59 17.674 9.38c-4.93-3.01-8.784-.835-9.327 4.906M252.988 427.274s3.14-10.617 16.96-10.617c-5.073 2.764-5.115 7.19-.415 10.53M200.49 466.297s-7.623-8.026-.713-19.995c-.143 5.773 3.67 8.023 8.913 5.623M208.69 531.285s-10.763 2.59-17.673-9.38c4.93 3.01 8.784.834 9.327-4.906"/><path d="M260.632 426.483c-35.898 0-65 29.102-65 65s29.102 65 65 65 65-29.102 65-65-29.1-65-65-65zm0 121c-30.928 0-56-25.072-56-56s25.072-56 56-56 56 25.072 56 56-25.072 56-56 56z"/><path d="M260.632 477.483c-7.732 0-14 6.268-14 14 0 7.73 6.268 14 14 14s14-6.27 14-14c0-7.732-6.267-14-14-14zm0 23.877c-5.455 0-9.877-4.422-9.877-9.877s4.422-9.878 9.877-9.878 9.878 4.423 9.878 9.878-4.423 9.877-9.878 9.877z"/><path d="M265.632 455.66c0-12 7.92-18.5 4.878-19.13-2.41-.5-7.194-.752-9.08-.836v-.033l-.398.017-.4-.016v.034c-1.884.084-6.667.337-9.077.836-3.043.63 4.877 7.13 4.877 19.13s1.94 12.157 0 18c-1.94 5.845 1 4 1 4h7.2s2.94 1.845 1-4 0-6 0-18zM232.023 469.087c-10.394-6-12.063-16.11-14.13-13.79-1.637 1.838-4.248 5.854-5.264 7.444l-.028-.016-.188.354c-.133.21-.213.34-.213.34l.03.015c-.87 1.674-3.043 5.943-3.816 8.28-.977 2.95 8.615-.658 19.008 5.342 10.392 6 11.5 4.397 15.59 9 4.09 4.6 3.962 1.134 3.962 1.134l1.602-2.772.398-.692 1.602-2.772s3.066-1.625-2.965-2.865c-6.03-1.245-5.194-3.003-15.587-9.003zM227.422 505.725c-10.393 6-19.984 2.393-19.008 5.34.773 2.34 2.947 6.608 3.816 8.282l-.03.016s.08.13.214.34c.115.22.188.353.188.353l.027-.017c1.015 1.59 3.626 5.605 5.263 7.443 2.066 2.32 3.738-7.79 14.13-13.79 10.393-6 9.557-7.76 15.588-9s2.966-2.865 2.966-2.865l-1.602-2.772-.398-.692-1.602-2.77s.127-3.47-3.963 1.133-5.196 2.998-15.588 8.998zM255.944 527.607c0 12-7.92 18.503-4.878 19.132 2.41.497 7.194.75 9.08.835v.032s.15-.005.398-.016c.248.012.4.017.4.017v-.032c1.884-.084 6.667-.338 9.077-.836 3.044-.63-4.876-7.133-4.876-19.133s-1.94-12.157 0-18-1-4-1-4h-7.2s-2.94-1.843-1 4 0 6 0 18zM289.553 514.183c10.393 6 12.064 16.11 14.13 13.79 1.638-1.84 4.25-5.855 5.263-7.444l.03.015.185-.354.214-.337-.027-.017c.87-1.675 3.042-5.943 3.815-8.28.977-2.95-8.614.658-19.007-5.342s-11.5-4.396-15.59-9c-4.09-4.602-3.963-1.134-3.963-1.134L273 498.853l-.398.69-1.602 2.773s-3.066 1.624 2.965 2.866c6.032 1.24 5.196 3 15.588 9zM294.155 477.544c10.39-6 19.983-2.393 19.007-5.342-.773-2.337-2.946-6.605-3.815-8.28l.027-.017-.213-.338-.185-.354-.03.016c-1.015-1.59-3.624-5.606-5.26-7.444-2.067-2.32-3.74 7.79-14.132 13.79s-9.557 7.76-15.588 9c-6.03 1.24-2.965 2.865-2.965 2.865l1.602 2.773.398.69 1.602 2.773s-.127 3.468 3.963-1.134 5.197-2.998 15.59-8.998z"/></g></g></g><g clip-path="url(#f)" stroke="#000" stroke-miterlimit="10"><path d="M268.24 286.618c3.54 7.335 12.373 19.07 12.373 19.07-6.85-9.902-16.964-44.745-16.964-44.745s-10.114 34.843-16.964 44.746c0 0 8.83-11.737 12.373-19.072 3.542-7.335-5.176 24.386-6.986 26.407 5.632-1.833 8.813-12.838 9.548-16.872.734-4.033-.734 13.572-2.563 22.74 4.52-7.335 4.59-23.473 4.59-23.473s.068 16.137 4.59 23.473c-1.827-9.168-3.297-26.773-2.562-22.74.734 4.034 3.916 15.04 9.548 16.872-1.81-2.022-10.53-33.743-6.986-26.407z"/><path d="M266.775 273.892c0 1.882-1.4 3.408-3.125 3.408-1.726 0-3.125-1.525-3.125-3.408V253.72c0-1.883 1.4-3.41 3.125-3.41 1.726 0 3.125 1.526 3.125 3.41v20.172z"/><path d="M274.024 260.67c0 1.73-1.287 3.135-2.875 3.135l-7.5 2.317-7.5-2.317c-1.59 0-2.876-1.404-2.876-3.135 0-1.73 1.287-3.135 2.875-3.135l7.5 2.317 7.5-2.317c1.587 0 2.874 1.404 2.874 3.135zM211.74 225.59c3.54 7.336 12.372 19.073 12.372 19.073-6.85-9.903-16.964-44.746-16.964-44.746s-10.113 34.843-16.963 44.746c0 0 8.83-11.736 12.373-19.072 3.543-7.334-5.175 24.387-6.985 26.408 5.632-1.833 8.813-12.838 9.548-16.872.735-4.033-.733 13.57-2.562 22.74 4.522-7.336 4.59-23.473 4.59-23.473s.07 16.137 4.59 23.473c-1.826-9.17-3.296-26.773-2.56-22.74.733 4.034 3.915 15.04 9.547 16.872-1.81-2.02-10.53-33.743-6.986-26.407z"/><path d="M210.274 212.865c0 1.882-1.4 3.408-3.125 3.408-1.727 0-3.126-1.525-3.126-3.408v-20.173c0-1.882 1.4-3.408 3.125-3.408s3.124 1.525 3.124 3.408v20.173z"/><path d="M217.523 199.644c0 1.73-1.287 3.135-2.875 3.135l-7.5 2.316-7.5-2.317c-1.588 0-2.875-1.405-2.875-3.136 0-1.73 1.287-3.135 2.875-3.135l7.5 2.316 7.5-2.317c1.588 0 2.875 1.402 2.875 3.134zM158.65 170.503c3.542 7.335 12.374 19.072 12.374 19.072-6.85-9.903-16.964-44.746-16.964-44.746s-10.113 34.842-16.963 44.745c0 0 8.83-11.736 12.373-19.072 3.543-7.335-5.175 24.386-6.985 26.407 5.632-1.833 8.813-12.838 9.548-16.872.734-4.033-.734 13.57-2.563 22.74 4.522-7.335 4.59-23.473 4.59-23.473s.07 16.137 4.59 23.473c-1.826-9.17-3.296-26.773-2.56-22.74.733 4.034 3.915 15.04 9.547 16.872-1.81-2.02-10.53-33.742-6.986-26.407z"/><path d="M157.186 157.778c0 1.882-1.4 3.408-3.125 3.408s-3.124-1.526-3.124-3.408v-20.173c0-1.882 1.4-3.408 3.125-3.408 1.727 0 3.126 1.525 3.126 3.408v20.173z"/><path d="M164.435 144.557c0 1.73-1.287 3.135-2.875 3.135l-7.5 2.317-7.5-2.318c-1.588 0-2.875-1.403-2.875-3.135 0-1.73 1.287-3.135 2.875-3.135l7.5 2.317 7.5-2.318c1.588 0 2.875 1.403 2.875 3.135z"/><g><path d="M105.526 112.554c3.54 7.336 12.373 19.072 12.373 19.072-6.85-9.903-16.965-44.746-16.965-44.746s-10.113 34.843-16.963 44.746c0 0 8.83-11.736 12.373-19.072 3.543-7.335-5.175 24.386-6.985 26.407 5.632-1.832 8.813-12.837 9.548-16.87.734-4.034-.734 13.57-2.563 22.74 4.522-7.336 4.59-23.474 4.59-23.474s.07 16.137 4.59 23.473c-1.826-9.17-3.296-26.774-2.56-22.74.733 4.033 3.915 15.038 9.547 16.87-1.81-2.02-10.53-33.742-6.986-26.406z"/><path d="M104.06 99.83c0 1.88-1.398 3.407-3.124 3.407-1.726 0-3.125-1.525-3.125-3.408V79.654c0-1.882 1.4-3.408 3.126-3.408s3.125 1.525 3.125 3.408V99.83z"/><path d="M111.31 86.607c0 1.73-1.287 3.135-2.875 3.135l-7.5 2.317-7.5-2.318c-1.588 0-2.875-1.403-2.875-3.135 0-1.73 1.287-3.135 2.875-3.135l7.5 2.317 7.5-2.318c1.588 0 2.875 1.403 2.875 3.135z"/></g><g><path d="M49.843 57.467c3.54 7.335 12.373 19.07 12.373 19.07-6.85-9.902-16.964-44.745-16.964-44.745S35.14 66.635 28.292 76.538c0 0 8.83-11.736 12.37-19.07 3.544-7.336-5.174 24.385-6.984 26.406 5.632-1.833 8.813-12.838 9.548-16.872s-.734 13.57-2.563 22.74c4.522-7.335 4.59-23.473 4.59-23.473s.07 16.136 4.59 23.472c-1.826-9.168-3.296-26.773-2.56-22.74.733 4.034 3.915 15.04 9.547 16.872-1.81-2.02-10.53-33.743-6.987-26.407z"/><path d="M48.378 44.74c0 1.883-1.4 3.41-3.125 3.41-1.726 0-3.125-1.526-3.125-3.41V24.57c0-1.882 1.4-3.408 3.125-3.408 1.726 0 3.125 1.526 3.125 3.408V44.74z"/><path d="M55.627 31.52c0 1.73-1.287 3.135-2.875 3.135l-7.5 2.317-7.5-2.317c-1.588 0-2.875-1.404-2.875-3.135 0-1.73 1.287-3.135 2.875-3.135l7.5 2.317 7.5-2.317c1.588 0 2.875 1.403 2.875 3.135z"/></g><g><path d="M311.873 225.59c-3.54 7.336-12.373 19.073-12.373 19.073 6.85-9.903 16.964-44.746 16.964-44.746s10.113 34.843 16.963 44.746c0 0-8.832-11.736-12.373-19.072-3.543-7.334 5.175 24.387 6.985 26.408-5.633-1.833-8.814-12.838-9.55-16.872-.733-4.033.735 13.57 2.564 22.74-4.522-7.336-4.59-23.473-4.59-23.473s-.07 16.137-4.59 23.473c1.826-9.17 3.296-26.773 2.56-22.74-.733 4.034-3.915 15.04-9.547 16.872 1.81-2.02 10.53-33.743 6.986-26.407z"/><path d="M313.337 212.865c0 1.882 1.4 3.408 3.125 3.408 1.726 0 3.125-1.525 3.125-3.408v-20.173c0-1.882-1.4-3.408-3.125-3.408-1.726 0-3.125 1.525-3.125 3.408v20.173z"/><path d="M306.088 199.644c0 1.73 1.287 3.135 2.875 3.135l7.5 2.316 7.5-2.317c1.588 0 2.875-1.405 2.875-3.136 0-1.73-1.287-3.135-2.875-3.135l-7.5 2.316-7.5-2.317c-1.588 0-2.875 1.402-2.875 3.134zM364.96 170.503c-3.54 7.335-12.373 19.072-12.373 19.072 6.85-9.903 16.964-44.746 16.964-44.746s10.114 34.842 16.964 44.745c0 0-8.832-11.736-12.373-19.072-3.542-7.335 5.176 24.386 6.986 26.407-5.632-1.833-8.813-12.838-9.548-16.872-.734-4.033.734 13.57 2.563 22.74-4.52-7.335-4.59-23.473-4.59-23.473s-.068 16.137-4.59 23.473c1.827-9.17 3.297-26.773 2.562-22.74-.734 4.034-3.916 15.04-9.548 16.872 1.81-2.02 10.53-33.742 6.986-26.407z"/><path d="M366.425 157.778c0 1.882 1.4 3.408 3.125 3.408 1.726 0 3.125-1.526 3.125-3.408v-20.173c0-1.882-1.4-3.408-3.125-3.408-1.726 0-3.125 1.525-3.125 3.408v20.173z"/><path d="M359.176 144.557c0 1.73 1.287 3.135 2.875 3.135l7.5 2.317 7.5-2.318c1.59 0 2.876-1.403 2.876-3.135 0-1.73-1.287-3.135-2.875-3.135l-7.5 2.317-7.5-2.318c-1.587 0-2.874 1.403-2.874 3.135z"/><g><path d="M418.085 112.554c-3.54 7.336-12.373 19.072-12.373 19.072 6.85-9.903 16.964-44.746 16.964-44.746s10.113 34.843 16.963 44.746c0 0-8.833-11.736-12.374-19.072-3.543-7.335 5.175 24.386 6.985 26.407-5.63-1.832-8.812-12.837-9.547-16.87-.734-4.034.734 13.57 2.563 22.74-4.522-7.336-4.59-23.474-4.59-23.474s-.07 16.137-4.59 23.473c1.826-9.17 3.296-26.774 2.56-22.74-.733 4.033-3.915 15.038-9.547 16.87 1.81-2.02 10.528-33.742 6.985-26.406z"/><path d="M419.55 99.83c0 1.88 1.4 3.407 3.125 3.407 1.726 0 3.125-1.525 3.125-3.408V79.654c0-1.882-1.4-3.408-3.125-3.408-1.726 0-3.125 1.525-3.125 3.408V99.83z"/><path d="M412.3 86.607c0 1.73 1.288 3.135 2.876 3.135l7.5 2.317 7.5-2.318c1.588 0 2.875-1.403 2.875-3.135 0-1.73-1.286-3.135-2.874-3.135l-7.5 2.317-7.5-2.318c-1.588 0-2.875 1.403-2.875 3.135z"/></g><g><path d="M473.768 57.467c-3.54 7.335-12.373 19.07-12.373 19.07 6.85-9.902 16.963-44.745 16.963-44.745s10.113 34.843 16.963 44.746c0 0-8.83-11.736-12.372-19.07-3.543-7.336 5.176 24.385 6.986 26.406-5.633-1.833-8.814-12.838-9.55-16.872s.735 13.57 2.564 22.74c-4.52-7.335-4.59-23.473-4.59-23.473s-.068 16.136-4.59 23.472c1.826-9.168 3.297-26.773 2.56-22.74-.733 4.034-3.915 15.04-9.546 16.872 1.81-2.02 10.53-33.743 6.986-26.407z"/><path d="M475.233 44.74c0 1.883 1.398 3.41 3.125 3.41 1.725 0 3.125-1.526 3.125-3.41V24.57c0-1.882-1.4-3.408-3.125-3.408-1.727 0-3.125 1.526-3.125 3.408V44.74z"/><path d="M467.983 31.52c0 1.73 1.287 3.135 2.875 3.135l7.5 2.317 7.5-2.317c1.588 0 2.875-1.404 2.875-3.135 0-1.73-1.287-3.135-2.875-3.135l-7.5 2.317-7.5-2.317c-1.588 0-2.875 1.403-2.875 3.135z"/></g></g><g><path d="M311.873 345.385c-3.54 7.335-12.373 19.072-12.373 19.072 6.85-9.903 16.964-44.746 16.964-44.746s10.113 34.844 16.963 44.747c0 0-8.832-11.736-12.373-19.072-3.543-7.335 5.175 24.386 6.985 26.407-5.633-1.833-8.814-12.838-9.55-16.872-.733-4.033.735 13.57 2.564 22.74-4.522-7.335-4.59-23.473-4.59-23.473s-.07 16.137-4.59 23.473c1.826-9.17 3.296-26.773 2.56-22.74-.733 4.034-3.915 15.04-9.547 16.872 1.81-2.02 10.53-33.743 6.986-26.407z"/><path d="M313.337 332.66c0 1.882 1.4 3.408 3.125 3.408 1.726 0 3.125-1.526 3.125-3.408v-20.173c0-1.882-1.4-3.408-3.125-3.408-1.726 0-3.125 1.524-3.125 3.407v20.173z"/><path d="M306.088 319.438c0 1.73 1.287 3.135 2.875 3.135l7.5 2.317 7.5-2.317c1.588 0 2.875-1.403 2.875-3.135 0-1.73-1.287-3.135-2.875-3.135l-7.5 2.317-7.5-2.317c-1.588 0-2.875 1.404-2.875 3.135z"/><g><path d="M358.925 400.598c-3.54 7.336-12.373 19.07-12.373 19.07 6.85-9.9 16.964-44.745 16.964-44.745s10.113 34.844 16.962 44.745c0 0-8.83-11.734-12.372-19.07-3.543-7.336 5.175 24.387 6.985 26.407-5.63-1.833-8.812-12.838-9.547-16.872-.734-4.033.734 13.57 2.563 22.74-4.522-7.335-4.59-23.473-4.59-23.473s-.07 16.138-4.59 23.473c1.826-9.17 3.296-26.773 2.56-22.74-.733 4.034-3.915 15.04-9.547 16.872 1.81-2.02 10.528-33.743 6.985-26.407z"/><path d="M360.39 387.872c0 1.882 1.4 3.408 3.125 3.408 1.726 0 3.125-1.526 3.125-3.408V367.7c0-1.883-1.4-3.41-3.125-3.41-1.726 0-3.125 1.527-3.125 3.41v20.172z"/><path d="M353.14 374.65c0 1.73 1.288 3.135 2.876 3.135l7.5 2.317 7.5-2.317c1.588 0 2.875-1.403 2.875-3.135 0-1.73-1.286-3.135-2.874-3.135l-7.5 2.317-7.5-2.317c-1.588 0-2.875 1.404-2.875 3.135z"/></g><g><path d="M407.165 450.896c-3.54 7.336-12.373 19.072-12.373 19.072 6.85-9.903 16.964-44.747 16.964-44.747s10.113 34.845 16.962 44.748c0 0-8.83-11.736-12.372-19.072-3.543-7.335 5.175 24.386 6.985 26.407-5.63-1.833-8.812-12.838-9.547-16.872-.734-4.032.734 13.573 2.563 22.74-4.522-7.335-4.59-23.472-4.59-23.472s-.07 16.137-4.59 23.473c1.826-9.167 3.296-26.772 2.56-22.74-.733 4.035-3.915 15.04-9.547 16.873 1.81-2.02 10.528-33.74 6.985-26.407z"/><path d="M408.63 438.17c0 1.884 1.398 3.41 3.124 3.41 1.726 0 3.125-1.526 3.125-3.41V418c0-1.882-1.4-3.408-3.126-3.408s-3.125 1.526-3.125 3.408v20.173z"/><path d="M401.38 424.95c0 1.73 1.287 3.135 2.875 3.135l7.5 2.316 7.5-2.315c1.588 0 2.875-1.404 2.875-3.136 0-1.732-1.287-3.136-2.875-3.136l-7.5 2.317-7.5-2.316c-1.588 0-2.875 1.404-2.875 3.135z"/></g></g><g><path d="M216.343 345.385c3.54 7.335 12.373 19.072 12.373 19.072-6.85-9.903-16.964-44.746-16.964-44.746s-10.113 34.844-16.963 44.747c0 0 8.83-11.736 12.372-19.072 3.543-7.335-5.175 24.386-6.985 26.407 5.632-1.833 8.813-12.838 9.548-16.872.734-4.033-.734 13.57-2.563 22.74 4.522-7.335 4.59-23.473 4.59-23.473s.07 16.137 4.59 23.473c-1.826-9.17-3.296-26.773-2.56-22.74.733 4.034 3.915 15.04 9.547 16.872-1.81-2.02-10.53-33.743-6.987-26.407z"/><path d="M214.878 332.66c0 1.882-1.4 3.408-3.125 3.408-1.726 0-3.125-1.526-3.125-3.408v-20.173c0-1.882 1.4-3.408 3.125-3.408 1.726 0 3.125 1.524 3.125 3.407v20.173z"/><path d="M222.127 319.438c0 1.73-1.287 3.135-2.875 3.135l-7.5 2.317-7.5-2.317c-1.588 0-2.875-1.403-2.875-3.135 0-1.73 1.287-3.135 2.875-3.135l7.5 2.317 7.5-2.317c1.588 0 2.875 1.404 2.875 3.135z"/><g><path d="M169.29 400.598c3.542 7.336 12.374 19.07 12.374 19.07-6.85-9.9-16.964-44.745-16.964-44.745s-10.113 34.844-16.962 44.745c0 0 8.83-11.734 12.372-19.07 3.543-7.336-5.175 24.387-6.985 26.407 5.632-1.833 8.813-12.838 9.548-16.872.734-4.033-.734 13.57-2.563 22.74 4.522-7.335 4.59-23.473 4.59-23.473s.07 16.138 4.59 23.473c-1.826-9.17-3.296-26.773-2.56-22.74.733 4.034 3.915 15.04 9.547 16.872-1.81-2.02-10.53-33.743-6.986-26.407z"/><path d="M167.826 387.872c0 1.882-1.4 3.408-3.125 3.408s-3.124-1.526-3.124-3.408V367.7c0-1.883 1.4-3.41 3.125-3.41 1.727 0 3.126 1.527 3.126 3.41v20.172z"/><path d="M175.075 374.65c0 1.73-1.287 3.135-2.875 3.135l-7.5 2.317-7.5-2.317c-1.588 0-2.875-1.403-2.875-3.135 0-1.73 1.287-3.135 2.875-3.135l7.5 2.317 7.5-2.317c1.588 0 2.875 1.404 2.875 3.135z"/></g><g><path d="M121.05 450.896c3.542 7.336 12.374 19.072 12.374 19.072-6.85-9.903-16.964-44.747-16.964-44.747s-10.113 34.845-16.962 44.748c0 0 8.83-11.736 12.372-19.072 3.543-7.335-5.175 24.386-6.985 26.407 5.632-1.833 8.813-12.838 9.548-16.872.734-4.032-.734 13.573-2.563 22.74 4.522-7.335 4.59-23.472 4.59-23.472s.07 16.137 4.59 23.473c-1.826-9.167-3.296-26.772-2.56-22.74.733 4.035 3.915 15.04 9.547 16.873-1.81-2.02-10.53-33.74-6.986-26.407z"/><path d="M119.586 438.17c0 1.884-1.4 3.41-3.125 3.41s-3.124-1.526-3.124-3.41V418c0-1.882 1.4-3.408 3.125-3.408 1.727 0 3.126 1.526 3.126 3.408v20.173z"/><path d="M126.835 424.95c0 1.73-1.287 3.135-2.875 3.135l-7.5 2.316-7.5-2.315c-1.588 0-2.875-1.404-2.875-3.136 0-1.732 1.287-3.136 2.875-3.136l7.5 2.317 7.5-2.316c1.588 0 2.875 1.404 2.875 3.135z"/></g></g></g><use xlink:href="#e" overflow="visible" fill="none" stroke="#000" stroke-width="7" stroke-miterlimit="10"/><radialGradient id="al" cx="261.806" cy="573.812" r="180.594" gradientUnits="userSpaceOnUse"><stop offset=".632" stop-color="#FFF"/><stop offset=".705" stop-color="#F4F5F5"/><stop offset=".855" stop-color="#EAEBEB"/><stop offset="1" stop-color="#E6E7E8"/></radialGradient></svg>