<?xml version="1.0" encoding="utf-8"?>
<!-- Generator: Adobe Illustrator 15.0.0, SVG Export Plug-In  -->
<!DOCTYPE svg PUBLIC "-//W3C//DTD SVG 1.1//EN" "http://www.w3.org/Graphics/SVG/1.1/DTD/svg11.dtd" [
	<!ENTITY ns_flows "http://ns.adobe.com/Flows/1.0/">
]>
<svg version="1.1"
	 xmlns="http://www.w3.org/2000/svg" xmlns:xlink="http://www.w3.org/1999/xlink" xmlns:a="http://ns.adobe.com/AdobeSVGViewerExtensions/3.0/"
	 x="0px" y="0px" width="524px" height="659px" viewBox="0 0 524 659" enable-background="new 0 0 524 659" xml:space="preserve">
<defs>
</defs>
<linearGradient id="SVGID_3_" gradientUnits="userSpaceOnUse" x1="37.7891" y1="515.3037" x2="92.6834" y2="536.3757">
	<stop  offset="0" style="stop-color:#8B5E3C"/>
	<stop  offset="0.497" style="stop-color:#FDC060"/>
</linearGradient>
<path display="none" fill="url(#SVGID_3_)" stroke="#000000" stroke-width="3" stroke-miterlimit="10" d="M109.092,493.628l-72,70
	c0,0-13.529,0.171-11-15c2.53-15.171,23-55,23-55s1-8,21-9S109.092,493.628,109.092,493.628z"/>
<linearGradient id="SVGID_4_" gradientUnits="userSpaceOnUse" x1="430.9292" y1="536.375" x2="485.824" y2="515.3029">
	<stop  offset="0.503" style="stop-color:#FDC060"/>
	<stop  offset="1" style="stop-color:#8B5E3C"/>
</linearGradient>
<path display="none" fill="url(#SVGID_4_)" stroke="#000000" stroke-width="3" stroke-miterlimit="10" d="M414.52,493.628l72,70
	c0,0,13.529,0.171,11-15s-23-55-23-55s-1-8-21-9S414.52,493.628,414.52,493.628z"/>
<linearGradient id="SVGID_5_" gradientUnits="userSpaceOnUse" x1="1.5" y1="461.1279" x2="107.0923" y2="461.1279">
	<stop  offset="0" style="stop-color:#BCBEC0"/>
	<stop  offset="0.3333" style="stop-color:#E6E7E8"/>
</linearGradient>
<path display="none" fill="url(#SVGID_5_)" stroke="#000000" stroke-width="3" stroke-miterlimit="10" d="M2.092,456.628
	c0-18,7.316-28,35-28s51,8,51,8l19,57c0,0-71.883-16.141-90.941-9.07S2.092,456.628,2.092,456.628z"/>
<linearGradient id="SVGID_6_" gradientUnits="userSpaceOnUse" x1="416.52" y1="461.1279" x2="522.1118" y2="461.1279">
	<stop  offset="0.6316" style="stop-color:#E6E7E8"/>
	<stop  offset="0.6867" style="stop-color:#DBDCDD"/>
	<stop  offset="0.7932" style="stop-color:#CACBCD"/>
	<stop  offset="0.8984" style="stop-color:#BFC1C3"/>
	<stop  offset="1" style="stop-color:#BCBEC0"/>
</linearGradient>
<path display="none" fill="url(#SVGID_6_)" stroke="#000000" stroke-width="3" stroke-miterlimit="10" d="M521.52,456.628
	c0-18-7.316-28-35-28s-51,8-51,8l-19,57c0,0,71.883-16.141,90.941-9.07S521.52,456.628,521.52,456.628z"/>
<path display="none" fill="#FBB040" stroke="#000000" stroke-width="3" stroke-miterlimit="10" d="M2.092,456.628c0,0,8,6,23,6
	c9.731,10.067,11,32,11,58.345c-25-1.345-34-19.345-34-48.345S2.092,456.628,2.092,456.628z"/>
<path display="none" fill="#FBB040" stroke="#000000" stroke-width="3" stroke-miterlimit="10" d="M521.52,456.628c0,0-8,6-23,6
	c-9.73,10.067-11,32-11,58.345c25-1.345,34-19.345,34-48.345S521.52,456.628,521.52,456.628z"/>
<g>
	<defs>
		<path id="SVGID_2_" d="M261.113,3.5H10.092c0,0,0,138.937,0,258.714c0,161.081,140,299,251.714,341
			c118.286-39,251.714-175.92,251.714-337c0-119.778,0-262.714,0-262.714H261.113z"/>
	</defs>
	<radialGradient id="SVGID_7_" cx="261.8062" cy="303.3569" r="276.8339" gradientUnits="userSpaceOnUse">
		<stop  offset="0" style="stop-color:#D1D3D4"/>
		<stop  offset="1" style="stop-color:#FFFFFF"/>
	</radialGradient>
	<use xlink:href="#SVGID_2_"  overflow="visible" fill="url(#SVGID_7_)"/>
	<clipPath id="SVGID_8_">
		<use xlink:href="#SVGID_2_"  overflow="visible"/>
	</clipPath>
	<g clip-path="url(#SVGID_8_)">
		
			<radialGradient id="SVGID_9_" cx="140.7153" cy="125.3623" r="121.5505" gradientTransform="matrix(1.0381 0 0 1 -10.1272 0)" gradientUnits="userSpaceOnUse">
			<stop  offset="0" style="stop-color:#520050"/>
			<stop  offset="0.9877" style="stop-color:#92278F"/>
		</radialGradient>
		
			<rect x="10.092" y="3.5" fill="url(#SVGID_9_)" stroke="#000000" stroke-width="4" stroke-miterlimit="10" width="251.714" height="243.725"/>
		<g>
			<radialGradient id="SVGID_10_" cx="261.8066" cy="247.2246" r="218.989" gradientUnits="userSpaceOnUse">
				<stop  offset="0" style="stop-color:#520050"/>
				<stop  offset="0.9877" style="stop-color:#92278F"/>
			</radialGradient>
			<polygon fill="url(#SVGID_10_)" stroke="#000000" stroke-width="4" stroke-miterlimit="10" points="422.299,137.73 
				422.299,193.678 318.804,193.678 318.804,90.183 371.301,90.183 371.301,28.235 261.807,28.235 152.312,28.235 152.312,86.732 
				208.26,86.732 208.26,190.227 104.765,190.227 104.765,137.73 42.818,137.73 42.818,247.224 42.818,247.225 42.818,356.719 
				101.314,356.719 101.314,300.771 204.809,300.771 204.809,404.267 152.312,404.267 152.312,466.214 261.807,466.214 
				371.301,466.214 371.301,407.717 315.354,407.717 315.354,304.222 418.848,304.222 418.848,356.719 480.795,356.719 
				480.795,247.225 480.795,247.224 480.795,137.73 			"/>
			<radialGradient id="SVGID_11_" cx="152.3125" cy="137.73" r="109.4946" gradientUnits="userSpaceOnUse">
				<stop  offset="0" style="stop-color:#D1D3D4"/>
				<stop  offset="1" style="stop-color:#FFFFFF"/>
			</radialGradient>
			<polygon fill="url(#SVGID_11_)" stroke="#000000" stroke-width="4" stroke-miterlimit="10" points="152.312,28.235 
				152.312,86.732 208.26,86.732 208.26,190.227 104.765,190.227 104.765,137.73 42.818,137.73 42.818,247.225 261.807,247.225 
				261.807,28.235 			"/>
		</g>
	</g>
	<use xlink:href="#SVGID_2_"  overflow="visible" fill="none" stroke="#000000" stroke-width="7" stroke-miterlimit="10"/>
</g>
<radialGradient id="SVGID_12_" cx="261.8062" cy="575.5225" r="180.5935" gradientUnits="userSpaceOnUse">
	<stop  offset="0.6316" style="stop-color:#FFFFFF"/>
	<stop  offset="0.7049" style="stop-color:#F4F5F5"/>
	<stop  offset="0.8549" style="stop-color:#EAEBEB"/>
	<stop  offset="1" style="stop-color:#E6E7E8"/>
</radialGradient>
<path display="none" fill="url(#SVGID_12_)" stroke="#000000" stroke-width="3" stroke-miterlimit="10" d="M474.52,493.628
	c0,0-35,101-212.714,101s-212.714-101-212.714-101s-32,43-29,61S84.52,657.416,261.806,657.416S500.52,572.628,503.52,554.628
	S474.52,493.628,474.52,493.628z"/>
<g display="none">
	<path fill="none" d="M20.093,554.628c3,18,64.428,102.788,241.714,102.788c177.286,0,238.713-84.788,241.713-102.788"/>
	<path display="inline" d="M37.9,553.78l3.517-0.658c-1.365,1.985-1.677,3.464-0.937,4.436c0.706,0.928,2.133,1.219,4.283,0.873
		c2.149-0.346,5.602-1.431,10.356-3.257l17.037-6.524c-0.361-0.812-0.729-1.463-1.104-1.955c-1.003-1.319-2.43-1.84-4.28-1.563
		c-1.85,0.277-3.985,1.337-6.406,3.18l-3.229-0.473c2.438-1.666,4.631-2.812,6.58-3.438c2.166-0.702,3.921-0.922,5.265-0.659
		c1.343,0.263,2.709,1.086,4.099,2.471c0.272,0.281,0.697,0.695,1.272,1.244l2.163,1.403l-6.14,4.867L57.86,564.12
		c-2.912,2.415-4.757,4.101-5.536,5.058s-0.941,1.735-0.484,2.335c0.082,0.107,0.4,0.447,0.955,1.021l-1.328,0.816l-4.728-3.262
		l8.926-7.407l-3.926-5.158c-4.176,1.604-7.285,2.48-9.327,2.63s-3.532-0.391-4.469-1.621C37.054,557.364,37.04,555.781,37.9,553.78
		z M53.432,556.877l3.566,4.686l13.6-11.309L53.432,556.877z"/>
	<path display="inline" d="M53.104,575.554l3.604-1.472l0.166,0.081c0.046,0.02,0.119,0.094,0.218,0.222
		c0.049,0.063,0.11,0.127,0.182,0.189c0.651,0.568,1.485,0.604,2.502,0.108s2.512-1.672,4.487-3.525l16.357-15.333
		c-1.231-1.074-2.795-1.289-4.692-0.646s-3.763,2.016-5.596,4.117l-0.34,0.391l-3.191,0.147c6.418-6.731,12.024-8.008,16.817-3.827
		l2.59,2.26c1.996,1.74,2.795,3.731,2.397,5.974c-0.398,2.241-2.049,5.027-4.954,8.358c-4.707,5.396-9.335,8.8-13.883,10.208
		c-4.548,1.408-8.483,0.663-11.806-2.235c-0.138-0.12-0.4-0.38-0.787-0.78L53.104,575.554z M58.287,576.145l1.132,1.923
		c0.609,1.051,1.362,1.968,2.258,2.749c1.231,1.074,2.481,1.577,3.75,1.51c1.269-0.068,2.969-0.732,5.1-1.993
		c3.753-2.216,7.293-5.231,10.621-9.046c5.129-5.881,6.051-10.255,2.764-13.122l-1.121-0.977l-13.222,12.391
		c-2.398,2.254-4.363,3.825-5.895,4.714C62.141,575.182,60.345,575.799,58.287,576.145z"/>
	<path display="inline" d="M78.678,593.705l2.615-1.562l0.827,2.281c2.685,1.162,5.489,1.006,8.414-0.469
		c1.944-0.973,4.042-2.593,6.294-4.859s4.179-4.693,5.78-7.279c1.457-2.362,2.37-4.517,2.74-6.463c0.37-1.946,0.1-3.2-0.811-3.764
		c-1.41-0.871-3.507-0.227-6.29,1.934c-2.783,2.161-5.334,5.114-7.652,8.861c-2.249,3.643-2.753,5.847-1.514,6.612
		c0.742,0.459,1.848,0.396,3.318-0.188l-1.223,1.594c-2.053,0.924-3.595,1.066-4.627,0.429c-0.877-0.542-1.174-1.629-0.893-3.262
		c0.282-1.632,1.094-3.535,2.438-5.709c2.522-4.081,5.605-7.272,9.25-9.572s6.462-2.836,8.452-1.606
		c1.389,0.859,1.978,2.531,1.765,5.018c-0.212,2.485-1.167,5.103-2.865,7.85c-2.745,4.441-6.007,7.798-9.788,10.069
		c-3.78,2.271-7.772,3.27-11.974,2.995l3.154,8.947c0.56,1.599,1.221,2.633,1.983,3.104c0.863,0.533,2.199,0.492,4.005-0.123
		l-1.116,1.466c-2.549,1.335-4.31,1.702-5.281,1.103c-0.54-0.334-1.071-1.216-1.595-2.646L78.678,593.705z"/>
	<path display="inline" d="M107.149,612.659l3.863-6.167c-3.706,3.554-6.462,4.886-8.269,3.995
		c-1.259-0.621-1.833-1.983-1.725-4.088c0.109-2.104,0.881-4.61,2.315-7.52c0.894-1.813,2.568-4.666,5.022-8.558
		c2.454-3.892,4.859-7.511,7.216-10.856c-0.307-0.291-0.532-0.472-0.674-0.542c-1.173-0.578-2.559-0.234-4.155,1.031
		s-3.001,3.128-4.214,5.588l-3.057,0.981c4.395-8.123,9.323-10.839,14.785-8.146l0.768,0.379c-2.629,3.7-5.256,7.629-7.88,11.786
		s-4.453,7.283-5.486,9.377c-1.123,2.277-1.773,4.171-1.952,5.682c-0.179,1.51,0.14,2.467,0.958,2.87
		c0.861,0.425,2.071,0.113,3.631-0.936c1.56-1.048,3.291-2.719,5.191-5.014l12.654-20.258l2.682,0.668l-4.147,6.367l-8.969,14.343
		c-1.643,2.632-2.665,4.355-3.067,5.171c-0.749,1.518-0.65,2.51,0.296,2.977c0.334,0.165,0.795,0.305,1.384,0.42l-0.804,1.281
		L107.149,612.659z"/>
	<path display="inline" d="M115.791,613.568l2.635-2.42c-0.106,2.407,0.411,3.826,1.553,4.26c1.09,0.413,2.456-0.096,4.096-1.526
		s3.995-4.18,7.063-8.245l11.001-14.554c-0.736-0.497-1.393-0.855-1.971-1.075c-1.55-0.587-3.036-0.274-4.458,0.939
		c-1.423,1.214-2.674,3.243-3.752,6.089l-2.989,1.308c1.186-2.704,2.44-4.837,3.762-6.399c1.466-1.742,2.839-2.857,4.118-3.346
		c1.279-0.488,2.874-0.513,4.785-0.073c0.38,0.094,0.959,0.222,1.738,0.382l2.578,0.047l-2.633,7.379l-5.117,15.442
		c-1.192,3.59-1.865,5.998-2.02,7.222c-0.155,1.225,0.12,1.97,0.825,2.237c0.126,0.048,0.576,0.168,1.351,0.361l-0.694,1.396
		l-5.738-0.265l3.652-11.009l-6.062-2.298c-2.694,3.57-4.868,5.96-6.521,7.168s-3.204,1.538-4.649,0.989
		C116.97,617.058,116.12,615.722,115.791,613.568z M130.607,607.975l5.505,2.087l5.553-16.793L130.607,607.975z"/>
	<path display="inline" d="M140.291,624.516l2.691-2.822l0.144,0.142c0.082,0.058,0.297,0.14,0.647,0.245
		c0.842,0.254,1.646-0.149,2.41-1.213c0.764-1.062,1.841-3.266,3.232-6.61l7.26-17.501l-2.881-0.869
		c-2.922-0.883-5.072,0.956-6.449,5.517c-0.163,0.54-0.331,1.218-0.502,2.033l-3.027,1.468c1.65-4.313,3.674-7.517,6.07-9.609
		c2.396-2.092,4.82-2.768,7.272-2.027l4.828,1.458c2.179,0.658,3.707,0.809,4.585,0.451c0.878-0.356,1.739-1.479,2.583-3.369
		l2.123-0.857c-1.374,2.63-3.081,4.578-5.12,5.845c-2.039,1.268-4.023,1.609-5.951,1.027l-1.139-0.344l-6.319,15.206
		c-1.133,2.735-2.22,4.834-3.261,6.295c-1.042,1.462-2.375,2.758-4,3.888l4.341,1.507l-2.588,2.853L140.291,624.516z"/>
	<path display="inline" d="M156.581,629.187l2.538-2.959l0.151,0.134c0.085,0.054,0.305,0.123,0.659,0.21
		c0.854,0.21,1.635-0.236,2.342-1.338c0.707-1.101,1.667-3.358,2.879-6.772l6.326-17.859l-2.922-0.716
		c-2.965-0.728-5.015,1.223-6.149,5.85c-0.134,0.548-0.266,1.233-0.394,2.057l-2.946,1.626c1.421-4.396,3.272-7.701,5.555-9.917
		c2.282-2.215,4.667-3.018,7.155-2.408l4.898,1.201c2.21,0.542,3.745,0.611,4.603,0.209c0.858-0.402,1.659-1.569,2.402-3.502
		l2.074-0.967c-1.233,2.698-2.834,4.734-4.804,6.106c-1.969,1.373-3.932,1.819-5.888,1.34l-1.155-0.283l-5.507,15.519
		c-0.987,2.791-1.961,4.944-2.925,6.458c-0.963,1.515-2.227,2.879-3.79,4.093l4.415,1.276l-2.434,2.985L156.581,629.187z"/>
	<path display="inline" d="M186.114,636.35l2.032-6.987c-2.595,4.431-4.883,6.465-6.864,6.101c-1.38-0.253-2.306-1.406-2.775-3.46
		s-0.412-4.677,0.174-7.867c0.365-1.988,1.196-5.189,2.494-9.604c1.297-4.414,2.623-8.552,3.977-12.414
		c-0.375-0.196-0.641-0.309-0.796-0.338c-1.287-0.235-2.526,0.474-3.716,2.127c-1.19,1.653-2.033,3.829-2.528,6.526l-2.673,1.78
		c2.009-9.016,6.008-12.974,11.999-11.875l0.842,0.154c-1.519,4.278-2.973,8.775-4.362,13.491s-2.294,8.222-2.716,10.519
		c-0.458,2.497-0.567,4.496-0.327,5.998c0.24,1.502,0.809,2.335,1.706,2.5c0.943,0.173,2.022-0.457,3.237-1.892
		c1.214-1.434,2.422-3.515,3.624-6.241l6.64-22.943l2.762-0.091l-2.251,7.259l-4.71,16.247c-0.861,2.98-1.374,4.918-1.538,5.812
		c-0.305,1.665,0.061,2.592,1.098,2.782c0.367,0.067,0.849,0.076,1.446,0.026l-0.423,1.452L186.114,636.35z"/>
	<path display="inline" d="M201.048,638.536c-1.935-0.249-3.313-1.635-4.135-4.158c-0.823-2.523-0.972-5.821-0.447-9.894
		c0.787-6.107,2.541-11.333,5.263-15.675c2.722-4.342,5.49-6.332,8.306-5.969c1.919,0.247,3.288,1.612,4.107,4.096
		c0.82,2.483,0.971,5.729,0.455,9.74c-0.82,6.372-2.561,11.701-5.219,15.988S203.942,638.909,201.048,638.536z M201.712,637.011
		c2.044,0.263,4.073-1.647,6.085-5.734c2.012-4.085,3.405-9.12,4.178-15.104c0.975-7.585,0.13-11.549-2.534-11.892
		c-2.045-0.264-4.075,1.624-6.088,5.662c-2.014,4.038-3.402,9.01-4.166,14.916C198.191,632.615,199.033,636.665,201.712,637.011z"/>
	<path display="inline" d="M213.764,639.191l2.035-3.325l0.154,0.013c0.04,0.003,0.121,0.033,0.243,0.09
		c0.13,0.058,0.279,0.094,0.445,0.107c0.806,0.065,1.479-0.466,2.021-1.594c0.541-1.127,1.067-3.085,1.579-5.874l3.958-21.635
		c-1.628-0.131-3.014,0.627-4.158,2.273c-1.144,1.647-1.828,3.863-2.053,6.647l-0.042,0.517l-2.479,2.02
		c0.603-4.8,1.835-8.246,3.695-10.339s4.497-3.002,7.912-2.726c2.664,0.216,4.488,0.871,5.474,1.966s1.376,2.9,1.172,5.418
		c-0.336,4.159-2.161,7.584-5.474,10.274l2.082,9.661c0.74,3.436,1.355,5.174,1.846,5.214c0.537,0.043,1.613-1.261,3.228-3.913
		l-0.405,2.207c-2.015,3.375-3.434,5.028-4.256,4.962c-1.067-0.086-2.055-2.532-2.962-7.338l-1.88-9.939l-2.241-0.181l-0.384,2.091
		c-0.842,4.602-2.451,8.166-4.827,10.693l4.62,0.563l-1.917,3.335L213.764,639.191z M223.916,622.279l3.142,0.254
		c2.328-1.921,3.667-5.049,4.017-9.382c0.323-3.988-0.962-6.101-3.855-6.335l-0.462-0.037L223.916,622.279z"/>
	<path display="inline" d="M256.729,639.308c-2.569,1.945-4.805,2.895-6.708,2.849c-2.045-0.049-3.604-1.223-4.674-3.521
		s-1.557-5.508-1.458-9.629c0.157-6.532,1.371-12.063,3.642-16.594c2.27-4.53,4.939-6.759,8.007-6.686
		c1.832,0.045,3.521,0.54,5.069,1.487l-1.167,6.441l-0.749-0.018c0.097-0.735,0.151-1.338,0.163-1.809
		c0.032-1.363-0.317-2.478-1.05-3.343c-0.733-0.864-1.702-1.312-2.907-1.341c-1.815-0.043-3.443,1.518-4.884,4.683
		c-0.955,2.095-1.755,4.703-2.401,7.825c-0.646,3.122-1.003,6.086-1.071,8.892c-0.082,3.387,0.304,6.063,1.157,8.028
		c0.853,1.966,2.064,2.967,3.634,3.005c1.76,0.042,3.652-0.79,5.676-2.497L256.729,639.308z"/>
	<path display="inline" d="M258.637,639.543l1.56-3.219c0.786,2.276,1.79,3.406,3.011,3.389c1.166-0.017,2.248-0.992,3.246-2.927
		c1-1.934,2.178-5.355,3.535-10.266l4.873-17.58c-0.867-0.191-1.609-0.283-2.229-0.274c-1.656,0.024-2.924,0.862-3.799,2.515
		c-0.877,1.651-1.293,3.999-1.25,7.042l-2.297,2.315c0.107-2.95,0.488-5.396,1.143-7.334c0.723-2.16,1.588-3.702,2.598-4.627
		c1.01-0.924,2.484-1.534,4.424-1.828c0.387-0.053,0.973-0.147,1.756-0.284l2.414-0.905l0.268,7.829l0.924,16.243
		c0.213,3.776,0.473,6.263,0.779,7.458s0.836,1.787,1.59,1.776c0.135-0.002,0.598-0.056,1.389-0.161l-0.133,1.554l-5.432,1.864
		l-0.656-11.58l-6.48,0.094c-1.191,4.312-2.334,7.333-3.428,9.064c-1.092,1.732-2.412,2.609-3.958,2.631
		C261.017,642.354,259.734,641.424,258.637,639.543z M270.356,628.89l5.887-0.084l-1.016-17.658L270.356,628.89z"/>
	<path display="inline" d="M284.295,641.002l1.547-3.58l0.154-0.009c0.039-0.003,0.123,0.016,0.254,0.055
		c0.137,0.039,0.289,0.054,0.455,0.043c0.807-0.049,1.398-0.669,1.775-1.862c0.377-1.192,0.621-3.204,0.734-6.037l0.869-21.978
		c-1.631,0.1-2.896,1.045-3.797,2.838c-0.9,1.792-1.266,4.082-1.096,6.87l0.031,0.517l-2.168,2.35
		c-0.08-4.837,0.652-8.423,2.199-10.757s4.029-3.605,7.449-3.813c2.666-0.162,4.564,0.229,5.695,1.174
		c1.131,0.944,1.771,2.678,1.926,5.198c0.252,4.164-1.07,7.813-3.971,10.943l3.424,9.271c1.217,3.298,2.072,4.932,2.563,4.901
		c0.537-0.032,1.42-1.476,2.645-4.329l-0.09,2.243c-1.52,3.625-2.691,5.462-3.514,5.512c-1.068,0.065-2.393-2.217-3.969-6.847
		l-3.264-9.574l-2.244,0.137l-0.084,2.124c-0.186,4.674-1.275,8.43-3.271,11.268l4.654-0.095l-1.428,3.572L284.295,641.002z
		 M291.961,622.826l3.146-0.191c2.033-2.23,2.918-5.516,2.652-9.854c-0.242-3.994-1.813-5.904-4.709-5.728l-0.463,0.028
		L291.961,622.826z"/>
	<path display="inline" d="M305.684,639.611l1.354-3.651l0.172-0.066c0.045-0.021,0.148-0.024,0.309-0.011
		c0.082,0.007,0.168,0.005,0.264-0.006c0.859-0.096,1.449-0.686,1.771-1.771c0.322-1.084,0.467-2.98,0.436-5.689l-0.238-22.419
		c-1.625,0.182-2.84,1.188-3.648,3.021c-0.809,1.833-1.059,4.136-0.75,6.907l0.057,0.514l-2.047,2.452
		c-0.621-9.281,2.229-14.274,8.549-14.979l3.416-0.381c2.633-0.294,4.641,0.464,6.023,2.272s2.318,4.909,2.809,9.301
		c0.793,7.118,0.172,12.828-1.865,17.131c-2.037,4.304-5.246,6.699-9.629,7.188c-0.182,0.021-0.549,0.038-1.107,0.053
		L305.684,639.611z M309.624,636.191l2.182,0.467c1.188,0.262,2.371,0.326,3.553,0.194c1.623-0.181,2.84-0.762,3.648-1.743
		c0.807-0.98,1.467-2.683,1.979-5.104c0.906-4.264,1.078-8.91,0.516-13.941c-0.865-7.756-3.465-11.392-7.799-10.908l-1.479,0.165
		l0.191,18.119c0.039,3.292-0.131,5.802-0.514,7.531C311.52,632.701,310.76,634.441,309.624,636.191z"/>
	<path display="inline" d="M325.59,637.29l1.242-3.707l0.789-0.119c0.895-0.135,1.467-0.813,1.719-2.031
		c0.254-1.219,0.291-3.551,0.113-6.995l-0.955-19.255l-3.186,0.482l1.184-3.697l7.656-1.16l-1.268,3.711l-1.916,0.29l0.834,16.706
		c0.252,5.112-0.488,9.116-2.225,12.01l4.611-0.461l-1.174,3.696L325.59,637.29z"/>
	<path display="inline" d="M336.657,633.515l0.996-3.699c1.303,2.393,2.646,3.45,4.031,3.173c0.924-0.185,1.588-1.112,1.99-2.783
		c0.4-1.671,0.475-3.807,0.221-6.409l-2.174-22.314c-0.42-0.043-0.713-0.049-0.877-0.017c-1.273,0.256-2.158,1.372-2.652,3.349
		s-0.473,4.31,0.066,6.998l-1.824,2.643c-0.66-4.103-0.473-7.553,0.561-10.349s2.725-4.429,5.072-4.898l1.119-0.225
		c1.613,3.896,3.533,8.012,5.758,12.345l2.525,4.912c1.75,3.374,3.088,6.118,4.014,8.234l-1.326-13.591
		c-0.461-4.686-0.371-8.399,0.27-11.141s1.77-4.273,3.387-4.598c0.574-0.115,1.182-0.013,1.82,0.308l-0.217,3.279
		c-0.908-0.937-1.682-1.342-2.318-1.215c-1.68,0.337-2.229,3.451-1.648,9.344l1.725,17.706l0.818,6.932l-1.291,1.313
		c-0.627-1.681-2.092-4.76-4.396-9.236l-4.859-9.432c-1.297-2.521-2.404-4.784-3.324-6.79l0.891,9.052
		c0.555,5.722,0.471,10.222-0.252,13.498c-0.723,3.277-2.037,5.106-3.943,5.487C339.481,635.659,338.094,635.033,336.657,633.515z"
		/>
	<path display="inline" d="M364.407,629.895l0.785-3.84l0.195-0.053c1.164-0.314,1.836-1.008,2.02-2.079
		c0.182-1.071-0.004-3.268-0.559-6.59l-3.518-21.288c-1.578,0.427-2.625,1.607-3.145,3.542c-0.521,1.935-0.416,4.248,0.313,6.94
		l0.135,0.499l-1.65,2.736c-1.049-4.636-1.055-8.271-0.018-10.904c1.037-2.635,3.154-4.385,6.354-5.251l6.752-1.827l0.715,6.697
		l-0.723,0.196c-0.098-0.606-0.211-1.145-0.338-1.613c-0.322-1.194-0.893-1.926-1.709-2.192c-0.814-0.266-2.137-0.151-3.967,0.344
		l-0.355,0.096l2.303,13.793l5.121-1.386l-0.539,2.653c-1.855,0.032-3.098,0.133-3.725,0.303l-0.574,0.155l0.42,2.512
		c0.477,2.821,0.658,5.11,0.547,6.867c-0.113,1.757-0.559,3.591-1.338,5.504l5.627-1.062l1.225-0.258
		c1.246-0.338,2.188-1.493,2.818-3.466l0.309,1.864c-0.623,3.075-1.529,4.773-2.725,5.097l-0.533,0.12L364.407,629.895z"/>
	<path display="inline" d="M380.153,624.152l0.533-3.687c2.113,1.766,3.91,2.405,5.396,1.92c1.031-0.338,1.688-1.191,1.965-2.56
		c0.279-1.369,0.121-2.962-0.473-4.779c-0.586-1.787-1.85-3.559-3.791-5.313l-2.508-2.271c-1.855-1.668-3.061-2.873-3.617-3.615
		c-0.555-0.741-1.061-1.813-1.52-3.212c-0.91-2.785-1.102-5.382-0.57-7.79c0.531-2.407,1.621-3.881,3.271-4.421
		c1.049-0.343,2.479-0.126,4.293,0.648l1.268,5.793l-0.711,0.233c-0.137-0.467-0.234-0.79-0.293-0.969
		c-0.461-1.415-1.121-2.46-1.977-3.137s-1.754-0.861-2.695-0.553c-0.973,0.318-1.604,1.155-1.895,2.512s-0.16,2.876,0.389,4.559
		c0.371,1.132,0.877,2.112,1.52,2.941c0.643,0.828,1.787,1.963,3.434,3.402l2.08,1.842c2.309,2.032,3.82,4.143,4.537,6.332
		c0.939,2.874,1.049,5.567,0.326,8.079c-0.721,2.511-2.047,4.082-3.977,4.714C383.663,625.304,381.999,625.081,380.153,624.152z"/>
	<path display="inline" d="M400.817,616.367l0.123-3.85c1.805,2.039,3.355,2.765,4.656,2.175c0.852-0.386,1.283-1.441,1.293-3.167
		c0.012-1.725-0.398-3.819-1.227-6.282l-7.166-21.269c-0.42,0.053-0.703,0.112-0.848,0.178c-1.191,0.539-1.805,1.828-1.84,3.865
		c-0.033,2.037,0.514,4.305,1.646,6.803l-1.182,2.986c-1.652-4.052-2.25-7.514-1.793-10.388c0.457-2.873,1.916-4.867,4.381-5.983
		l0.877-0.397c4.666,6.746,9.064,13.862,13.197,21.35l-3.164-25.895l2.076-1.586l2.289,7.246l6.158,18.293
		c0.555,1.625,1.041,2.901,1.461,3.829c0.568,1.256,1.24,1.709,2.012,1.359c0.383-0.174,0.861-0.484,1.434-0.933l0.479,1.434
		l-4.4,4.523l-9.822-29.149l3.219,26.824l-0.961,0.849l-0.281-0.621c-2.527-5.581-6.357-12.199-11.488-19.854l3.07,9.139
		c3.799,11.268,3.877,17.727,0.236,19.375C403.981,617.798,402.502,617.513,400.817,616.367z"/>
	<path display="inline" d="M441.393,599.154l-3.061-6.602c0.955,5.045,0.568,8.081-1.164,9.109
		c-1.207,0.717-2.662,0.455-4.365-0.784c-1.705-1.239-3.385-3.254-5.041-6.043c-1.031-1.738-2.508-4.697-4.432-8.878
		c-1.922-4.179-3.643-8.169-5.162-11.97c-0.41,0.099-0.686,0.188-0.822,0.27c-1.125,0.667-1.592,2.016-1.402,4.044
		c0.189,2.029,0.984,4.223,2.385,6.58l-0.846,3.099c-4.41-8.115-3.998-13.728,1.24-16.836l0.736-0.437
		c1.666,4.223,3.525,8.567,5.578,13.034c2.053,4.468,3.674,7.706,4.867,9.714c1.295,2.183,2.527,3.761,3.695,4.735
		c1.168,0.974,2.145,1.229,2.928,0.763c0.826-0.49,1.225-1.674,1.197-3.554c-0.027-1.879-0.484-4.24-1.369-7.086l-10.074-21.656
		l2.021-1.883l3.074,6.949l7.127,15.341c1.311,2.813,2.197,4.61,2.66,5.392c0.865,1.455,1.75,1.914,2.656,1.376
		c0.32-0.19,0.689-0.501,1.107-0.931l0.635,1.372L441.393,599.154z"/>
	<path display="inline" d="M446.836,592.257l-0.793-3.747c2.248,1.54,3.924,1.873,5.033,0.998c0.74-0.584,0.91-1.712,0.51-3.383
		s-1.303-3.608-2.709-5.813l-12.061-18.9c-0.395,0.152-0.658,0.28-0.787,0.383c-1.021,0.807-1.303,2.202-0.848,4.188
		c0.457,1.986,1.535,4.055,3.234,6.207l-0.428,3.183c-2.449-3.357-3.848-6.517-4.193-9.477c-0.348-2.961,0.418-5.183,2.299-6.667
		l0.895-0.708c3.205,2.741,6.783,5.537,10.732,8.389l4.477,3.233c3.092,2.213,5.527,4.052,7.313,5.518l-7.346-11.511
		c-2.537-3.967-4.141-7.317-4.814-10.051c-0.672-2.733-0.361-4.61,0.932-5.633c0.461-0.363,1.049-0.548,1.762-0.552l1.295,3.021
		c-1.234-0.423-2.105-0.434-2.615-0.03c-1.346,1.062-0.422,4.086,2.77,9.074l9.568,14.997l3.873,5.807l-0.555,1.756
		c-1.32-1.213-4.023-3.292-8.107-6.237l-8.609-6.201c-2.299-1.658-4.313-3.173-6.043-4.543l4.9,7.663
		c3.09,4.848,5.057,8.896,5.898,12.144c0.842,3.249,0.5,5.475-1.023,6.679C450.323,592.888,448.805,592.959,446.836,592.257z"/>
	<path display="inline" d="M470.334,575.824l-1.471-3.605l0.082-0.165c0.02-0.046,0.094-0.118,0.221-0.218
		c0.064-0.049,0.127-0.109,0.189-0.182c0.568-0.65,0.605-1.484,0.109-2.502c-0.494-1.017-1.67-2.513-3.523-4.488l-15.326-16.363
		c-1.074,1.23-1.289,2.795-0.648,4.692c0.643,1.897,2.016,3.763,4.115,5.598l0.391,0.34l0.146,3.191
		c-6.729-6.422-8.002-12.028-3.82-16.819l2.26-2.59c1.742-1.995,3.734-2.793,5.977-2.395c2.24,0.399,5.025,2.052,8.355,4.958
		c5.395,4.709,8.795,9.339,10.201,13.887c1.408,4.549,0.66,8.484-2.238,11.806c-0.121,0.138-0.381,0.399-0.781,0.787
		L470.334,575.824z M470.928,570.642l1.924-1.131c1.051-0.608,1.967-1.361,2.75-2.258c1.074-1.23,1.576-2.479,1.51-3.749
		s-0.73-2.97-1.99-5.101c-2.215-3.755-5.229-7.296-9.041-10.624c-5.881-5.133-10.254-6.056-13.121-2.771l-0.979,1.12l12.385,13.228
		c2.254,2.399,3.824,4.364,4.713,5.897C469.965,566.787,470.583,568.583,470.928,570.642z"/>
	<path display="inline" d="M483.938,559.622l-2.256-3.192l0.369-0.706c0.418-0.801,0.211-1.663-0.625-2.588
		c-0.834-0.923-2.693-2.331-5.576-4.223l-16.102-10.604l-1.492,2.856l-2.285-3.14l3.588-6.862l2.246,3.214l-0.898,1.718
		l13.973,9.195c4.273,2.816,7.066,5.779,8.377,8.888l2.352-3.991l2.289,3.129L483.938,559.622z"/>
</g>
</svg>
