<!DOCTYPE svg PUBLIC "-//W3C//DTD SVG 1.1//EN" "http://www.w3.org/Graphics/SVG/1.1/DTD/svg11.dtd" [
	<!ENTITY ns_flows "http://ns.adobe.com/Flows/1.0/">
]><svg xmlns="http://www.w3.org/2000/svg" xmlns:xlink="http://www.w3.org/1999/xlink" width="524" height="659" viewBox="0 0 524 659"><linearGradient id="a" gradientUnits="userSpaceOnUse" x1="37.789" y1="515.304" x2="92.683" y2="536.376"><stop offset="0" stop-color="#8B5E3C"/><stop offset=".497" stop-color="#FDC060"/></linearGradient><linearGradient id="b" gradientUnits="userSpaceOnUse" x1="430.929" y1="536.375" x2="485.824" y2="515.303"><stop offset=".503" stop-color="#FDC060"/><stop offset="1" stop-color="#8B5E3C"/></linearGradient><linearGradient id="c" gradientUnits="userSpaceOnUse" x1="1.5" y1="461.128" x2="107.092" y2="461.128"><stop offset="0" stop-color="#BCBEC0"/><stop offset=".333" stop-color="#E6E7E8"/></linearGradient><linearGradient id="d" gradientUnits="userSpaceOnUse" x1="416.52" y1="461.128" x2="522.112" y2="461.128"><stop offset=".632" stop-color="#E6E7E8"/><stop offset=".687" stop-color="#DBDCDD"/><stop offset=".793" stop-color="#CACBCD"/><stop offset=".898" stop-color="#BFC1C3"/><stop offset="1" stop-color="#BCBEC0"/></linearGradient><defs><path id="e" d="M261.113 3.5H10.093v258.714c0 161.08 140 299 251.713 341 118.286-39 251.714-175.92 251.714-337V3.5H261.113z"/></defs><radialGradient id="f" cx="261.806" cy="303.357" r="276.834" gradientUnits="userSpaceOnUse"><stop offset="0" stop-color="#D1D3D4"/><stop offset="1" stop-color="#FFF"/></radialGradient><use xlink:href="#e" overflow="visible" fill="url(#f)"/><clipPath id="g"><use xlink:href="#e" overflow="visible"/></clipPath><g clip-path="url(#g)"><radialGradient id="h" cx="140.715" cy="125.362" r="121.55" gradientTransform="translate(-10.1)" gradientUnits="userSpaceOnUse"><stop offset="0" stop-color="#520050"/><stop offset=".988" stop-color="#92278F"/></radialGradient><path fill="url(#h)" stroke="#000" stroke-width="4" stroke-miterlimit="10" d="M10.092 3.5h251.714v243.725H10.092z"/><radialGradient id="i" cx="261.807" cy="247.225" r="218.989" gradientUnits="userSpaceOnUse"><stop offset="0" stop-color="#520050"/><stop offset=".988" stop-color="#92278F"/></radialGradient><path fill="url(#i)" stroke="#000" stroke-width="4" stroke-miterlimit="10" d="M422.3 137.73v55.948H318.803V90.183H371.3V28.235H152.313v58.497h55.948v103.495H104.765V137.73H42.818V356.72h58.496v-55.95H204.81v103.497H152.31v61.947H371.3v-58.497h-55.946V304.222h103.494v52.497h61.947V137.73z"/><radialGradient id="j" cx="152.313" cy="137.73" r="109.495" gradientUnits="userSpaceOnUse"><stop offset="0" stop-color="#D1D3D4"/><stop offset="1" stop-color="#FFF"/></radialGradient><path fill="url(#j)" stroke="#000" stroke-width="4" stroke-miterlimit="10" d="M152.312 28.235v58.497h55.948v103.495H104.765V137.73H42.818v109.495h218.99V28.235z"/></g><use xlink:href="#e" overflow="visible" fill="none" stroke="#000" stroke-width="7" stroke-miterlimit="10"/><radialGradient id="k" cx="261.806" cy="575.523" r="180.594" gradientUnits="userSpaceOnUse"><stop offset=".632" stop-color="#FFF"/><stop offset=".705" stop-color="#F4F5F5"/><stop offset=".855" stop-color="#EAEBEB"/><stop offset="1" stop-color="#E6E7E8"/></radialGradient></svg>