<svg xmlns="http://www.w3.org/2000/svg" width="73.382" height="87.656"><defs><clipPath id="d"><path d="M105.29 696.673H164v74.132h-58.71v-74.132z"/></clipPath><clipPath id="e"><path d="M105.29 700.662H164v70.143h-58.71v-70.143z"/></clipPath><clipPath id="f"><path d="M105.29 696.673H164v74.132h-58.71v-74.132z"/></clipPath><clipPath id="a"><path d="M57.384 299.073h127.44v-127.44H57.384v127.44z"/></clipPath><clipPath id="b"><path d="M67.174 185.96h125.64V60.32H67.175v125.64z"/></clipPath><clipPath id="c"><path d="M399.222 792.726h130.32v-130.32h-130.32v130.32z"/></clipPath></defs><g clip-path="url(#d)" transform="matrix(1.3 0 0 -1.3 -131.6 963.5)"><path d="M105.42 770.677V741.69c0-16.805 7.608-26.975 13.99-32.547 6.963-6.078 14.274-8.353 15.236-8.353.962 0 8.273 2.275 15.235 8.353 6.384 5.572 13.992 15.742 13.992 32.547v28.987H105.42z" fill-rule="evenodd"/></g><g clip-path="url(#e)" transform="matrix(1.3 0 0 -1.3 -131.6 963.5)"><path d="M105.42 770.677V741.69c0-16.805 7.608-26.975 13.99-32.547 6.963-6.078 14.274-8.353 15.236-8.353.962 0 8.273 2.275 15.235 8.353 6.384 5.572 13.992 15.742 13.992 32.547v28.987H105.42z" fill="none" stroke="#000" stroke-width=".257"/><path d="M106.17 769.923V741.69c0-31.75 27.13-40.147 28.476-40.147s28.476 8.398 28.476 40.147v28.233H106.17z" fill="#fcba2f" fill-rule="evenodd"/><path d="M106.17 769.923V741.69c0-31.75 27.13-40.147 28.476-40.147s28.476 8.398 28.476 40.147v28.233H106.17z" fill="none" stroke="#000" stroke-width=".257"/></g><g clip-path="url(#f)" transform="matrix(1.3 0 0 -1.3 -131.6 963.5)"><path d="M137.344 738.875h21.152c.498-.51.655-1.02 0-2.12 1.858 0 1.593 3.24 1.593 3.24s1.39.28 1.39 1.49-1.39 1.492-1.39 1.492.264 3.24-1.594 3.24c.655-1.102.498-1.61 0-2.122h-21.15v19.76c1.6 1.402 1.072.58 2.595 0 0 3.04-3.598 2.607-3.598 2.607s-.717 2.274-1.696 2.274c-.98 0-1.696-2.274-1.696-2.274s-3.6.434-3.6-2.606c1.523.58.994 1.4 2.596 0v-19.76h-21.15c-.5.51-.657 1.02 0 2.12-1.86 0-1.594-3.24-1.594-3.24s-1.39-.28-1.39-1.49 1.39-1.492 1.39-1.492-.266-3.24 1.593-3.24c-.656 1.102-.498 1.61 0 2.12h21.15V708.64c-1.6-1.4-1.072-.58-2.595 0 0-3.04 3.6-2.606 3.6-2.606s.716-2.274 1.696-2.274 1.696 2.274 1.696 2.274 3.6-.433 3.6 2.606c-1.524-.578-.995-1.4-2.597 0v30.237M113.11 762.243c-1.078.178-1.515.076-2.58-.11.692.732 2.287 1.023 2.887 1.05-.204-.242-.22-.62-.308-.94" fill="#a82c31"/><path d="M120.634 750.905c-.27-.326-.472-.708-.69-1.073-.193-.32-.173-.67-.424-.936-.115-.122-.228-.373-.19-.526.043-.17.514-.2.66-.2.15.002.283-.068.42-.127.475-.212.332-.338.034-.287-.1.017-.197.1-.302.083-.117-.02-.186-.1-.328-.11-.218-.014-.36-.095-.58-.08-.13.01-.374.14-.49.062-.105-.072-.22-.102-.34-.14-.088-.028-.128-.07-.228-.08-.188-.018-.517.045-.678-.066-.2-.137-.225-.312-.452-.236-.143.048.03.402.11.448.087.052.175.102.265.15.114.058.26.002.356.05.025.015.058.048.078.072-.31.08-.62.238-.94.238-.206 0-.29-.07-.423-.246-.058-.076-.362-.292-.362-.04 0 .262.406.713.635.746.356.05.623-.2.957-.215.335-.013.707-.07.897.3.165.32.406.568.62.852.218.288.24.2.433.538.097.166.345.723.44.873.048.077.428-.05.524-.05" fill="#a82c31"/><path d="M121.508 751.536c-.1-.326-.094-1.01-.22-1.36-.13-.364-.246-.334-.34-.68-.195-.726-1.693.293-1.755-.546.393-.03.375.196 1.212-.05.06-.018.18.047.172-.075-.005-.068-.16-.097-.206-.1-.195-.008-.393-.024-.588-.05-.186-.027-.336-.054-.477-.19-.16-.152.49-.018.554-.017.387.01.628-.093.975.05.263.11.848.062 1.118.068.196.006.285.235.45.275.134.033.448-.21.527-.125.183.195-.615.435-.81.435-.184 0-.348-.03-.53.017-.24.064-.19.252-.14.46.17.654.412 1.24.495 1.924-.146.01-.113.108-.27.116 0-.02-.167-.13-.167-.15" fill="#a82c31"/><path d="M112.79 762.273c.824-.322 1.024-1.57 1.1-2.34.044-.43-.032-.89-.043-1.32-.012-.465-.015-.93-.024-1.394-.01-.436.147-.848.247-1.27.098-.407.46-1.012.697-1.34.51-.708 1.03-1.4 1.815-1.796 1.192-.6 2.786-.512 3.46-1.68.098-.17.007-.23.223-.23.2 0 .362-.17.385.06.034.35-.174.172-.293.526-.047.138.18.304.287.21.102-.088.3-.222.433-.193.323.068.475.536.43.05.053.027.4-.136.436-.01.028.106.125.092.186.124.293.157.89.15 1.204.11.46-.058 1.606.203 2.65.044.394-.06.935-.303 1.533-.507.773-.238 2.253-.764 1.94-.35-.187.248-.594.412-.858.562-.312.178-.633.343-.952.505-.028.014-.44.235-.278.228.193-.01.332-.043.516-.1.378-.117.686-.2 1.076-.223.02.16-.165.323-.305.35.37.006.76.046 1.126 0-.547.653-1.276 1.014-2.013 1.373-.83.404-1.263.582-2.114 1.003-.33.163-.79.523-1.063.544-.463.035 1.478-.64.6.243-.594.597-2.966 1.772-3.65 2.245-.384.266-.756.565-1.176.765-.43.207-.864.41-1.3.607-.8.366-1.548.77-1.98 1.6-.2.382-.28.876-.39 1.295-.112.416-.316.847-.523 1.218-.402.724-1.603.77-2.28.57-.31-.09-.536-.337-.767-.55-.26-.237-.202-.59-.282-.938"/><path d="M141.88 762.243c-1.077.178-1.513.076-2.578-.11.69.732 2.287 1.023 2.887 1.05-.205-.242-.222-.62-.31-.94M149.405 750.905c-.27-.326-.472-.708-.69-1.073-.193-.32-.173-.67-.424-.936-.113-.122-.227-.373-.188-.526.042-.17.513-.2.66-.2.15.002.283-.068.417-.127.476-.212.333-.338.035-.287-.1.017-.197.1-.302.083-.117-.02-.186-.1-.328-.11-.218-.014-.36-.095-.58-.08-.13.01-.374.14-.49.062-.105-.072-.22-.102-.34-.14-.088-.028-.128-.07-.228-.08-.188-.018-.517.045-.678-.066-.202-.137-.226-.312-.453-.236-.143.048.03.402.11.448.087.052.175.102.265.15.114.058.26.002.355.05.026.015.058.048.078.072-.31.08-.62.238-.94.238-.206 0-.29-.07-.423-.246-.058-.076-.363-.292-.363-.04 0 .262.405.713.634.746.356.05.624-.2.957-.215.336-.013.708-.07.9.3.163.32.404.568.62.852.216.288.237.2.43.538.098.166.346.723.44.873.05.077.43-.05.525-.05" fill="#a82c31"/><path d="M150.28 751.536c-.1-.326-.094-1.01-.22-1.36-.13-.364-.246-.334-.34-.68-.195-.726-1.693.293-1.755-.546.393-.03.375.196 1.212-.05.06-.018.18.047.172-.075-.006-.068-.162-.097-.207-.1-.197-.008-.394-.024-.59-.05-.185-.027-.335-.054-.475-.19-.16-.152.488-.018.553-.017.39.01.63-.093.977.05.263.11.848.062 1.118.068.196.006.285.235.45.275.134.033.447-.21.526-.125.185.195-.613.435-.808.435-.184 0-.348-.03-.53.017-.24.064-.19.252-.138.46.168.654.41 1.24.492 1.924-.145.01-.113.108-.27.116 0-.02-.166-.13-.166-.15" fill="#a82c31"/><path d="M141.563 762.273c.823-.322 1.023-1.57 1.1-2.34.042-.43-.034-.89-.044-1.32-.013-.465-.017-.93-.026-1.394-.01-.436.147-.848.248-1.27.097-.407.46-1.012.696-1.34.51-.708 1.03-1.4 1.814-1.796 1.193-.6 2.787-.512 3.46-1.68.1-.17.008-.23.224-.23.2 0 .362-.17.385.06.035.35-.173.172-.292.526-.047.138.18.304.287.21.102-.088.3-.222.433-.193.323.068.475.536.43.05.053.027.4-.136.436-.01.028.106.124.092.186.124.294.157.89.15 1.206.11.46-.058 1.605.203 2.648.044.395-.06.936-.303 1.534-.507.772-.238 2.254-.764 1.94-.35-.187.248-.593.412-.858.562-.31.178-.632.343-.95.505-.03.014-.442.235-.28.228.194-.01.333-.043.517-.1.378-.117.686-.2 1.076-.223.02.16-.165.323-.305.35.37.006.76.046 1.126 0-.547.653-1.276 1.014-2.013 1.373-.83.404-1.262.582-2.113 1.003-.33.163-.788.523-1.063.544-.463.035 1.478-.64.6.243-.594.597-2.966 1.772-3.65 2.245-.385.266-.755.565-1.176.765-.43.207-.864.41-1.3.607-.8.366-1.548.77-1.98 1.6-.2.382-.278.876-.39 1.295-.11.416-.316.847-.523 1.218-.402.724-1.603.77-2.278.57-.312-.09-.538-.337-.77-.55-.258-.237-.2-.59-.28-.938"/><path d="M113.11 734.46c-1.078.18-1.515.077-2.58-.11.692.732 2.287 1.024 2.887 1.05-.204-.24-.22-.62-.308-.94M120.634 723.124c-.27-.326-.472-.708-.69-1.073-.193-.318-.173-.67-.424-.935-.115-.12-.228-.372-.19-.526.043-.17.514-.2.66-.2.15 0 .283-.07.42-.13.475-.21.332-.337.034-.286-.1.017-.197.1-.302.083-.117-.02-.186-.1-.328-.108-.218-.015-.36-.096-.58-.08-.13.008-.374.138-.49.06-.105-.07-.22-.1-.34-.14-.088-.027-.128-.068-.228-.078-.188-.02-.517.043-.678-.068-.2-.137-.225-.312-.452-.236-.143.048.03.402.11.448.087.052.175.102.265.15.114.058.26.002.356.05.025.015.058.048.078.072-.31.08-.62.238-.94.238-.206 0-.29-.07-.423-.245-.058-.075-.362-.292-.362-.04 0 .262.406.714.635.747.356.05.623-.202.957-.216.335-.012.707-.07.897.3.165.32.406.57.62.853.218.288.24.2.433.54.097.165.345.722.44.87.048.078.428-.05.524-.05" fill="#a82c31"/><path d="M121.508 723.754c-.1-.326-.094-1.01-.22-1.36-.13-.364-.246-.334-.34-.68-.195-.726-1.693.292-1.755-.546.393-.03.375.196 1.212-.05.06-.02.18.047.172-.075-.005-.068-.16-.097-.206-.1-.195-.008-.393-.025-.588-.05-.186-.027-.336-.054-.477-.19-.16-.152.49-.018.554-.017.387.01.628-.093.975.05.263.11.848.062 1.118.068.196.006.285.235.45.275.134.03.448-.21.527-.127.183.195-.615.434-.81.434-.184 0-.348-.03-.53.018-.24.064-.19.25-.14.46.17.654.412 1.24.495 1.924-.146.007-.113.106-.27.114 0-.02-.167-.13-.167-.15" fill="#a82c31"/><path d="M112.79 734.492c.824-.322 1.024-1.57 1.1-2.34.044-.43-.032-.89-.043-1.32-.012-.465-.015-.93-.024-1.394-.01-.435.147-.847.247-1.27.098-.406.46-1.01.697-1.34.51-.707 1.03-1.4 1.815-1.795 1.192-.6 2.786-.512 3.46-1.68.098-.17.007-.23.223-.23.2 0 .362-.17.385.06.034.35-.174.173-.293.525-.047.14.18.304.287.21.102-.087.3-.22.433-.192.323.068.475.536.43.05.053.027.4-.136.436-.01.028.106.125.092.186.124.293.156.89.15 1.204.108.46-.057 1.606.204 2.65.045.394-.06.935-.303 1.533-.508.773-.237 2.253-.763 1.94-.35-.187.25-.594.413-.858.563-.312.18-.633.343-.952.506-.028.014-.44.235-.278.228.193-.01.332-.043.516-.1.378-.117.686-.2 1.076-.223.02.16-.165.322-.305.348.37.007.76.047 1.126 0-.547.654-1.276 1.015-2.013 1.373-.83.406-1.263.584-2.114 1.005-.33.163-.79.523-1.063.544-.463.034 1.478-.64.6.242-.594.598-2.966 1.772-3.65 2.245-.384.266-.756.565-1.176.765-.43.207-.864.41-1.3.607-.8.364-1.548.768-1.98 1.598-.2.383-.28.878-.39 1.297-.112.415-.316.846-.523 1.216-.402.726-1.603.773-2.28.573-.31-.09-.536-.338-.767-.55-.26-.238-.202-.593-.282-.94"/><path d="M141.88 734.46c-1.076.18-1.513.077-2.578-.11.692.732 2.287 1.024 2.887 1.05-.205-.24-.222-.62-.31-.94M149.405 723.124c-.27-.326-.47-.708-.69-1.073-.193-.318-.173-.67-.424-.935-.113-.12-.227-.372-.188-.526.042-.17.513-.2.66-.2.15 0 .283-.07.418-.13.476-.21.333-.337.035-.286-.1.017-.197.1-.302.083-.117-.02-.185-.1-.328-.108-.218-.015-.36-.096-.58-.08-.13.008-.374.138-.49.06-.104-.07-.22-.1-.34-.14-.088-.027-.128-.068-.228-.078-.188-.02-.517.043-.678-.068-.202-.137-.226-.312-.453-.236-.143.048.03.402.11.448.087.052.175.102.265.15.114.058.26.002.355.05.026.015.058.048.078.072-.31.08-.62.238-.94.238-.205 0-.29-.07-.423-.245-.058-.075-.363-.292-.363-.04 0 .262.405.714.634.747.356.05.624-.202.957-.216.336-.012.708-.07.9.3.163.32.404.57.62.853.216.288.238.2.432.54.096.165.344.722.438.87.05.078.43-.05.525-.05" fill="#a82c31"/><path d="M150.28 723.754c-.1-.326-.094-1.01-.22-1.36-.13-.364-.246-.334-.34-.68-.194-.726-1.693.292-1.755-.546.393-.03.375.196 1.212-.05.06-.02.18.047.172-.075-.006-.068-.16-.097-.207-.1-.197-.008-.394-.025-.59-.05-.185-.027-.335-.054-.475-.19-.16-.152.488-.018.553-.017.39.01.63-.093.977.05.263.11.848.062 1.118.068.196.006.285.235.45.275.134.03.448-.21.526-.127.185.195-.613.434-.807.434-.185 0-.35-.03-.53.018-.24.064-.192.25-.14.46.17.654.41 1.24.494 1.924-.146.007-.113.106-.27.114 0-.02-.167-.13-.167-.15" fill="#a82c31"/><path d="M141.563 734.492c.823-.322 1.023-1.57 1.1-2.34.042-.43-.033-.89-.044-1.32-.013-.465-.017-.93-.026-1.394-.01-.435.147-.847.248-1.27.097-.406.46-1.01.696-1.34.51-.707 1.03-1.4 1.815-1.795 1.192-.6 2.786-.512 3.46-1.68.1-.17.007-.23.223-.23.2 0 .363-.17.385.06.035.35-.173.173-.292.525-.047.14.18.304.288.21.1-.087.3-.22.432-.192.323.068.475.536.43.05.053.027.4-.136.436-.01.028.106.125.092.186.124.294.156.89.15 1.206.108.46-.057 1.605.204 2.648.045.395-.06.936-.303 1.534-.508.773-.237 2.254-.763 1.942-.35-.19.25-.595.413-.86.563-.31.18-.632.343-.95.506-.03.014-.442.235-.28.228.194-.01.333-.043.517-.1.378-.117.686-.2 1.077-.223.02.16-.166.322-.306.348.37.007.76.047 1.126 0-.547.654-1.276 1.015-2.013 1.373-.83.406-1.262.584-2.112 1.005-.33.163-.79.523-1.064.544-.463.034 1.478-.64.6.242-.594.598-2.966 1.772-3.65 2.245-.384.266-.755.565-1.176.765-.43.207-.864.41-1.3.607-.8.364-1.548.768-1.98 1.598-.2.383-.278.878-.39 1.297-.11.415-.316.846-.523 1.216-.402.726-1.603.773-2.278.573-.312-.09-.538-.338-.77-.55-.258-.238-.2-.593-.28-.94"/></g></svg>