<!DOCTYPE svg PUBLIC "-//W3C//DTD SVG 1.1//EN" "http://www.w3.org/Graphics/SVG/1.1/DTD/svg11.dtd" [
	<!ENTITY ns_flows "http://ns.adobe.com/Flows/1.0/">
]><svg xmlns="http://www.w3.org/2000/svg" xmlns:xlink="http://www.w3.org/1999/xlink" width="524" height="667" viewBox="0 0 524 667"><linearGradient id="a" gradientUnits="userSpaceOnUse" x1="37.789" y1="515.89" x2="92.683" y2="536.962"><stop offset="0" stop-color="#8B5E3C"/><stop offset=".497" stop-color="#FDC060"/></linearGradient><linearGradient id="b" gradientUnits="userSpaceOnUse" x1="430.929" y1="536.961" x2="485.824" y2="515.889"><stop offset=".503" stop-color="#FDC060"/><stop offset="1" stop-color="#8B5E3C"/></linearGradient><linearGradient id="c" gradientUnits="userSpaceOnUse" x1="1.5" y1="461.714" x2="107.092" y2="461.714"><stop offset="0" stop-color="#BCBEC0"/><stop offset=".333" stop-color="#E6E7E8"/></linearGradient><linearGradient id="d" gradientUnits="userSpaceOnUse" x1="416.52" y1="461.714" x2="522.112" y2="461.714"><stop offset=".632" stop-color="#E6E7E8"/><stop offset=".687" stop-color="#DBDCDD"/><stop offset=".793" stop-color="#CACBCD"/><stop offset=".898" stop-color="#BFC1C3"/><stop offset="1" stop-color="#BCBEC0"/></linearGradient><defs><path id="e" d="M261.113 3.5H10.093v258.714c0 161.08 140 299 251.713 341 118.286-39 251.714-175.92 251.714-337V3.5H261.113z"/></defs><use xlink:href="#e" overflow="visible" fill="#282561"/><clipPath id="f"><use xlink:href="#e" overflow="visible"/></clipPath><radialGradient id="g" cx="261.806" cy="250.477" r="249.357" gradientUnits="userSpaceOnUse"><stop offset=".632" stop-color="#FFF"/><stop offset=".731" stop-color="#FAFAFA"/><stop offset="1" stop-color="#F6F6F6"/></radialGradient><path clip-path="url(#f)" fill="url(#g)" stroke="#000" stroke-width="5" stroke-miterlimit="10" d="M475.48 3.5L262.756 235.105 50.03 3.5H10.09v50.442l209.53 228.125L69.998 444.97c12.06 17.953 25.47 34.884 39.792 50.597l152.964-166.54 154.7 168.43c14.302-15.793 27.577-32.863 39.416-51.007L305.888 282.066 513.52 56.01V3.5h-38.04z"/><g clip-path="url(#f)"><g stroke="#000" stroke-miterlimit="10"><path d="M271.965 303.773c-.864-1.73-10.238-32.72-10.396-32.213-.158-.506-9.532 30.484-10.397 32.213-1 2 6.75-2.5 7.25-4.75s2.854 18.296 3.146 17.788c.29.51 2.645-20.037 3.145-17.787s8.25 6.75 7.25 4.75z"/><circle cx="252.804" cy="264.398" r="6.375"/><circle cx="261.57" cy="252.648" r="6.375"/><circle cx="270.808" cy="264.398" r="6.375"/></g><g stroke="#000" stroke-miterlimit="10"><path d="M207.132 378.632c-.864-1.73-10.238-32.72-10.396-32.213-.157-.507-9.53 30.483-10.396 32.212-1 2 6.75-2.5 7.25-4.75s2.854 18.296 3.146 17.787c.292.508 2.646-20.04 3.146-17.788.5 2.25 8.25 6.75 7.25 4.75z"/><circle cx="187.971" cy="339.256" r="6.375"/><circle cx="196.737" cy="327.506" r="6.375"/><circle cx="205.975" cy="339.256" r="6.375"/><g><path d="M141.384 449.18c-.864-1.73-10.238-32.72-10.396-32.214-.157-.506-9.53 30.484-10.396 32.213-1 2 6.75-2.5 7.25-4.75s2.854 18.296 3.146 17.787c.292.51 2.646-20.038 3.146-17.788s8.25 6.75 7.25 4.75z"/><circle cx="122.223" cy="409.804" r="6.375"/><circle cx="130.989" cy="398.054" r="6.375"/><circle cx="140.227" cy="409.804" r="6.375"/></g></g><g stroke="#000" stroke-miterlimit="10"><path d="M320.065 378.632c.865-1.73 10.238-32.72 10.396-32.213.157-.507 9.532 30.483 10.396 32.212 1 2-6.75-2.5-7.25-4.75s-2.854 18.296-3.145 17.787c-.292.508-2.645-20.04-3.145-17.788-.5 2.25-8.25 6.75-7.25 4.75z"/><circle cx="339.227" cy="339.256" r="6.375"/><circle cx="330.461" cy="327.506" r="6.375"/><circle cx="321.223" cy="339.256" r="6.375"/><g><path d="M385.814 449.18c.864-1.73 10.238-32.72 10.396-32.214.157-.506 9.53 30.484 10.396 32.213 1 2-6.75-2.5-7.25-4.75s-2.854 18.296-3.146 17.787c-.292.51-2.646-20.038-3.146-17.788s-8.25 6.75-7.25 4.75z"/><circle cx="404.975" cy="409.804" r="6.375"/><circle cx="396.209" cy="398.054" r="6.375"/><circle cx="386.971" cy="409.804" r="6.375"/></g></g><g stroke="#000" stroke-miterlimit="10"><path d="M211.965 237.773c-.864-1.73-10.238-32.72-10.396-32.213-.158-.506-9.532 30.484-10.397 32.213-1 2 6.75-2.5 7.25-4.75s2.854 18.296 3.146 17.788c.29.51 2.645-20.037 3.145-17.787s8.25 6.75 7.25 4.75z"/><circle cx="192.804" cy="198.398" r="6.375"/><circle cx="201.57" cy="186.648" r="6.375"/><circle cx="210.808" cy="198.398" r="6.375"/><g><path d="M69.965 83.773c-.864-1.73-10.238-32.72-10.396-32.213-.158-.506-9.532 30.484-10.397 32.213-1 2 6.75-2.5 7.25-4.75S59.277 97.32 59.57 96.81c.29.51 2.645-20.037 3.145-17.787s8.25 6.75 7.25 4.75z"/><circle cx="50.804" cy="44.398" r="6.375"/><circle cx="59.57" cy="32.648" r="6.375"/><circle cx="68.808" cy="44.398" r="6.375"/></g><g><path d="M139.965 160.773c-.864-1.73-10.238-32.72-10.396-32.213-.158-.506-9.532 30.484-10.397 32.213-1 2 6.75-2.5 7.25-4.75s2.854 18.296 3.146 17.788c.29.51 2.645-20.037 3.145-17.787s8.25 6.75 7.25 4.75z"/><circle cx="120.804" cy="121.398" r="6.375"/><circle cx="129.57" cy="109.648" r="6.375"/><circle cx="138.808" cy="121.398" r="6.375"/></g></g><g stroke="#000" stroke-miterlimit="10"><path d="M313.647 236.773c.864-1.73 10.238-32.72 10.396-32.213.157-.506 9.53 30.484 10.396 32.213 1 2-6.75-2.5-7.25-4.75s-2.855 18.296-3.147 17.788c-.292.51-2.646-20.037-3.146-17.787s-8.25 6.75-7.25 4.75z"/><circle cx="332.808" cy="197.398" r="6.375"/><circle cx="324.042" cy="185.648" r="6.375"/><circle cx="314.804" cy="197.398" r="6.375"/><g><path d="M455.647 83.773c.864-1.73 10.238-32.72 10.396-32.213.157-.506 9.53 30.484 10.396 32.213 1 2-6.75-2.5-7.25-4.75s-2.855 18.296-3.147 17.788c-.292.51-2.646-20.037-3.146-17.787s-8.25 6.75-7.25 4.75z"/><circle cx="474.808" cy="44.398" r="6.375"/><circle cx="466.042" cy="32.648" r="6.375"/><circle cx="456.804" cy="44.398" r="6.375"/></g><g><path d="M385.647 160.773c.864-1.73 10.238-32.72 10.396-32.213.157-.506 9.53 30.484 10.396 32.213 1 2-6.75-2.5-7.25-4.75s-2.855 18.296-3.147 17.788c-.292.51-2.646-20.037-3.146-17.787s-8.25 6.75-7.25 4.75z"/><circle cx="404.808" cy="121.398" r="6.375"/><circle cx="396.042" cy="109.648" r="6.375"/><circle cx="386.804" cy="121.398" r="6.375"/></g></g></g><g clip-path="url(#f)"><path fill="#CC8D2A" stroke="#000" stroke-width="4" stroke-miterlimit="10" d="M276.298 53.214c0-14.978-5.626-37.93-14.227-37.997v-.003h-.038v.003c-8.602.068-14.228 23.02-14.228 37.997 0 15 10.533 45.333 10.533 74s-6.77 31.333-6.77 48c0 16.644 5.94 16.002 10.483 16 4.542.002 10.484.644 10.484-16 0-16.667-6.77-19.333-6.77-48s10.534-59 10.534-74z"/><path fill="#CC8D2A" stroke="#000" stroke-width="4" stroke-miterlimit="10" d="M246.14 134.214c0-12.667-5-30.998-20.334-30.998s-19.333 21.332-19.333 21.332-14.667-8.667-14.667-30.667 19.42-25.332 26.753-25.332 35.913 19.85 35.913 53.333-9.334 42.668-19.334 42.668-12-8-12-8 10 4 14 0 9-9.668 9-22.334zM277.472 134.214c0-12.667 5-30.998 20.334-30.998s19.333 21.332 19.333 21.332 14.666-8.667 14.666-30.667-19.42-25.332-26.754-25.332c-7.332 0-35.913 19.85-35.913 53.333s9.332 42.668 19.332 42.668 12-8 12-8-10 4-14 0-9-9.668-9-22.334z"/><path fill="#CC8D2A" d="M264.812 119.052c-.775-.107-1.678-.17-2.76-.17-.2 0-.386.012-.583.014-.198-.002-.384-.015-.583-.015-1.082 0-1.984.065-2.76.172-12.014.97-18.988 6.27-18.988 10.495 0 4.667 3.333 7.65 3.333 7.65s-1.127-2.798 2.873-5.507c3.487-2.362 13.592-2.52 16.123-2.52 2.53 0 12.635.16 16.123 2.52 4 2.708 2.873 5.507 2.873 5.507s3.333-2.983 3.333-7.65c0-4.223-6.974-9.524-18.988-10.495z"/><path d="M244.748 141.984l-3.608-3.296c-.163-.146-4-3.643-4-9.14 0-5.23 7.278-11.378 20.77-12.484 1.022-.138 2.18-.217 3.373-.173l.21.007.164-.006c.13-.004.26-.008.396-.008 1.094 0 2.068.06 2.977.183 13.492 1.105 20.77 7.253 20.77 12.484 0 5.496-3.835 8.993-3.998 9.14l-3.155 2.823-.053-5.026c.062-.286.183-1.58-2.12-3.14-2.213-1.497-9.13-2.172-15.005-2.177-5.872.004-12.79.68-15 2.177-2.467 1.67-2.154 3.035-2.11 3.185l.388 5.452zm16.14-21.103c-.933 0-1.746.05-2.486.153l-.113.013c-11.044.893-17.15 5.593-17.15 8.5 0 1.06.22 2.02.535 2.85.584-.783 1.405-1.586 2.55-2.362 3.806-2.577 13.327-2.862 17.243-2.865 3.92.002 13.44.287 17.247 2.864 1.146.775 1.966 1.578 2.55 2.362.314-.83.535-1.79.535-2.85 0-2.907-6.106-7.608-17.148-8.5l-.113-.013c-.74-.103-1.555-.152-2.486-.152l-.56.016-.607-.015z"/><g><path fill="#CC8D2A" stroke="#000" stroke-width="4" stroke-miterlimit="10" d="M276.298 422.214c0-14.978-5.626-37.93-14.227-37.997v-.003l-.02.002-.018-.002v.003c-8.602.068-14.228 23.02-14.228 37.997 0 15 10.533 45.333 10.533 74s-6.77 31.333-6.77 48c0 16.645 5.94 16.002 10.483 16 4.542.002 10.484.645 10.484-16 0-16.667-6.77-19.333-6.77-48s10.534-59 10.534-74z"/><path fill="#CC8D2A" stroke="#000" stroke-width="4" stroke-miterlimit="10" d="M246.14 503.214c0-12.666-5-30.998-20.334-30.998s-19.333 21.332-19.333 21.332-14.667-8.667-14.667-30.667 19.42-25.332 26.753-25.332 35.913 19.85 35.913 53.333-9.334 42.668-19.334 42.668-12-8-12-8 10 4 14 0 9-9.668 9-22.334zM277.472 503.214c0-12.666 5-30.998 20.334-30.998s19.333 21.332 19.333 21.332 14.666-8.667 14.666-30.667-19.42-25.332-26.754-25.332c-7.332 0-35.913 19.85-35.913 53.333s9.332 42.668 19.332 42.668 12-8 12-8-10 4-14 0-9-9.668-9-22.334z"/><path fill="#CC8D2A" d="M264.812 488.052c-.775-.107-1.678-.17-2.76-.17-.2 0-.386.012-.583.014-.198-.002-.384-.015-.583-.015-1.082 0-1.984.064-2.76.172-12.014.972-18.988 6.27-18.988 10.496 0 4.666 3.333 7.65 3.333 7.65s-1.127-2.8 2.873-5.508c3.487-2.36 13.592-2.52 16.123-2.52 2.53 0 12.635.16 16.123 2.52 4 2.71 2.873 5.507 2.873 5.507s3.333-2.983 3.333-7.65c0-4.224-6.974-9.524-18.988-10.495z"/><path d="M244.748 510.983l-3.608-3.296c-.163-.146-4-3.643-4-9.14 0-5.23 7.278-11.38 20.77-12.484 1.022-.14 2.18-.217 3.373-.174l.21.005.164-.006c.13-.005.26-.01.396-.01 1.094 0 2.068.06 2.977.183 13.492 1.105 20.77 7.253 20.77 12.484 0 5.496-3.835 8.994-3.998 9.14l-3.155 2.824-.053-5.025c.062-.285.183-1.58-2.12-3.14-2.213-1.497-9.13-2.173-15.005-2.177-5.872.004-12.79.68-15 2.178-2.467 1.67-2.154 3.034-2.11 3.184l.388 5.453zm16.14-21.102c-.933 0-1.746.05-2.486.153l-.113.013c-11.044.893-17.15 5.594-17.15 8.502 0 1.06.22 2.02.535 2.85.584-.785 1.405-1.588 2.55-2.363 3.806-2.577 13.327-2.862 17.243-2.865 3.92.003 13.44.288 17.247 2.865 1.146.775 1.966 1.578 2.55 2.362.314-.83.535-1.79.535-2.85 0-2.907-6.106-7.608-17.148-8.5l-.113-.014c-.74-.103-1.555-.152-2.486-.152l-.56.016-.607-.015z"/></g><g><path fill="#CC8D2A" stroke="#000" stroke-width="4" stroke-miterlimit="10" d="M111.52 218.714c0-14.978-5.627-37.93-14.228-37.997v-.003h-.04v.003c-8.6.068-14.227 23.02-14.227 37.997 0 15 10.533 45.333 10.533 74s-6.77 31.333-6.77 48c0 16.644 5.94 16.002 10.483 16 4.543.002 10.485.644 10.485-16 0-16.667-6.77-19.333-6.77-48s10.534-59 10.534-74z"/><path fill="#CC8D2A" stroke="#000" stroke-width="4" stroke-miterlimit="10" d="M81.36 299.714c0-12.667-5-30.998-20.333-30.998s-19.333 21.332-19.333 21.332-14.667-8.667-14.667-30.667 19.42-25.332 26.753-25.332 35.914 19.85 35.914 53.333S80.36 330.05 70.36 330.05s-12-8-12-8 10 4 14 0 9-9.668 9-22.334zM112.693 299.714c0-12.667 5-30.998 20.334-30.998s19.333 21.332 19.333 21.332 14.667-8.667 14.667-30.667-19.42-25.332-26.754-25.332c-7.332 0-35.913 19.85-35.913 53.333s9.333 42.668 19.333 42.668 12-8 12-8-10 4-14 0-9-9.668-9-22.334z"/><path fill="#CC8D2A" d="M100.033 284.552c-.775-.107-1.678-.17-2.76-.17-.2 0-.386.012-.583.014-.197-.002-.383-.015-.582-.015-1.082 0-1.984.065-2.76.172-12.014.97-18.988 6.27-18.988 10.495 0 4.667 3.334 7.65 3.334 7.65s-1.127-2.798 2.873-5.507c3.487-2.362 13.592-2.52 16.123-2.52 2.53 0 12.636.16 16.124 2.52 4 2.708 2.873 5.507 2.873 5.507s3.333-2.983 3.333-7.65c0-4.223-6.974-9.524-18.987-10.495z"/><path d="M79.968 307.484l-3.608-3.296c-.164-.146-4-3.643-4-9.14 0-5.23 7.28-11.378 20.77-12.484 1.022-.138 2.18-.217 3.373-.173l.21.007.164-.006c.13-.004.26-.008.396-.008 1.094 0 2.068.06 2.977.183 13.492 1.105 20.77 7.253 20.77 12.484 0 5.496-3.835 8.993-3.998 9.14l-3.155 2.823-.053-5.026c.062-.286.183-1.58-2.12-3.14-2.213-1.497-9.13-2.172-15.005-2.177-5.872.004-12.79.68-15 2.177-2.467 1.67-2.154 3.035-2.11 3.185l.388 5.452zm16.14-21.103c-.932 0-1.745.05-2.485.153l-.113.013c-11.042.893-17.15 5.593-17.15 8.5 0 1.06.222 2.02.537 2.85.583-.783 1.405-1.586 2.55-2.362 3.806-2.577 13.327-2.862 17.243-2.865 3.92.002 13.44.287 17.247 2.864 1.146.775 1.966 1.578 2.55 2.362.314-.83.535-1.79.535-2.85 0-2.907-6.106-7.608-17.148-8.5l-.113-.013c-.74-.103-1.553-.152-2.484-.152l-.56.016-.608-.015z"/><g><path fill="#CC8D2A" stroke="#000" stroke-width="4" stroke-miterlimit="10" d="M441.077 218.714c0-14.978-5.625-37.93-14.227-37.997v-.003h-.038v.003c-8.602.068-14.23 23.02-14.23 37.997 0 15 10.534 45.333 10.534 74s-6.77 31.333-6.77 48c0 16.644 5.942 16.002 10.483 16 4.542.002 10.483.644 10.483-16 0-16.667-6.77-19.333-6.77-48s10.534-59 10.534-74z"/><path fill="#CC8D2A" stroke="#000" stroke-width="4" stroke-miterlimit="10" d="M410.918 299.714c0-12.667-5-30.998-20.334-30.998-15.332 0-19.332 21.332-19.332 21.332s-14.668-8.667-14.668-30.667 19.42-25.332 26.754-25.332c7.332 0 35.914 19.85 35.914 53.333s-9.334 42.668-19.334 42.668-12-8-12-8 10 4 14 0 9-9.668 9-22.334zM442.25 299.714c0-12.667 5.002-30.998 20.334-30.998 15.334 0 19.334 21.332 19.334 21.332s14.666-8.667 14.666-30.667-19.42-25.332-26.754-25.332c-7.332 0-35.912 19.85-35.912 53.333s9.332 42.668 19.332 42.668 12-8 12-8-10 4-14 0-9-9.668-9-22.334z"/><path fill="#CC8D2A" d="M429.59 284.552c-.775-.107-1.678-.17-2.76-.17-.2 0-.385.012-.582.014-.197-.002-.383-.015-.582-.015-1.082 0-1.984.065-2.76.172-12.014.97-18.988 6.27-18.988 10.495 0 4.667 3.334 7.65 3.334 7.65s-1.127-2.798 2.873-5.507c3.486-2.362 13.592-2.52 16.123-2.52 2.53 0 12.635.16 16.123 2.52 4 2.708 2.874 5.507 2.874 5.507s3.334-2.983 3.334-7.65c0-4.223-6.974-9.524-18.988-10.495z"/><path d="M409.526 307.484l-3.607-3.296c-.165-.146-4-3.643-4-9.14 0-5.23 7.277-11.378 20.77-12.484 1.02-.138 2.18-.217 3.37-.173l.212.007.164-.006c.13-.004.26-.008.395-.008 1.095 0 2.07.06 2.978.183 13.492 1.105 20.77 7.253 20.77 12.484 0 5.496-3.835 8.993-4 9.14l-3.153 2.823-.053-5.026c.06-.286.182-1.58-2.12-3.14-2.214-1.497-9.13-2.172-15.005-2.177-5.87.004-12.79.68-15 2.177-2.466 1.67-2.153 3.035-2.11 3.185l.39 5.452zm16.14-21.103c-.93 0-1.745.05-2.485.153l-.112.013c-11.042.893-17.148 5.593-17.148 8.5 0 1.06.22 2.02.535 2.85.584-.783 1.404-1.586 2.55-2.362 3.806-2.577 13.327-2.862 17.243-2.865 3.92.002 13.44.287 17.246 2.864 1.146.775 1.967 1.578 2.55 2.362.315-.83.536-1.79.536-2.85 0-2.907-6.107-7.608-17.148-8.5l-.113-.013c-.74-.103-1.556-.152-2.487-.152l-.56.016-.606-.015z"/></g></g></g><use xlink:href="#e" overflow="visible" fill="none" stroke="#000" stroke-width="7" stroke-miterlimit="10"/><radialGradient id="h" cx="261.806" cy="576.108" r="180.594" gradientUnits="userSpaceOnUse"><stop offset=".632" stop-color="#FFF"/><stop offset=".705" stop-color="#F4F5F5"/><stop offset=".855" stop-color="#EAEBEB"/><stop offset="1" stop-color="#E6E7E8"/></radialGradient></svg>