<!DOCTYPE svg PUBLIC "-//W3C//DTD SVG 1.1//EN" "http://www.w3.org/Graphics/SVG/1.1/DTD/svg11.dtd" [
	<!ENTITY ns_flows "http://ns.adobe.com/Flows/1.0/">
]><svg xmlns="http://www.w3.org/2000/svg" xmlns:xlink="http://www.w3.org/1999/xlink" width="524" height="659" viewBox="0 0 524 659"><linearGradient id="a" gradientUnits="userSpaceOnUse" x1="37.789" y1="515.304" x2="92.683" y2="536.376"><stop offset="0" stop-color="#8B5E3C"/><stop offset=".497" stop-color="#FDC060"/></linearGradient><linearGradient id="b" gradientUnits="userSpaceOnUse" x1="430.929" y1="536.375" x2="485.824" y2="515.303"><stop offset=".503" stop-color="#FDC060"/><stop offset="1" stop-color="#8B5E3C"/></linearGradient><linearGradient id="c" gradientUnits="userSpaceOnUse" x1="1.5" y1="461.128" x2="107.092" y2="461.128"><stop offset="0" stop-color="#BCBEC0"/><stop offset=".333" stop-color="#E6E7E8"/></linearGradient><linearGradient id="d" gradientUnits="userSpaceOnUse" x1="416.52" y1="461.128" x2="522.112" y2="461.128"><stop offset=".632" stop-color="#E6E7E8"/><stop offset=".687" stop-color="#DBDCDD"/><stop offset=".793" stop-color="#CACBCD"/><stop offset=".898" stop-color="#BFC1C3"/><stop offset="1" stop-color="#BCBEC0"/></linearGradient><defs><path id="e" d="M261.113 3.5H10.093v258.714c0 161.08 140 299 251.713 341 118.286-39 251.714-175.92 251.714-337V3.5H261.113z"/></defs><radialGradient id="f" cx="261.806" cy="303.357" r="276.834" gradientUnits="userSpaceOnUse"><stop offset=".217" stop-color="#008CC1"/><stop offset=".75" stop-color="#084CA1"/></radialGradient><use xlink:href="#e" overflow="visible" fill="url(#f)"/><clipPath id="g"><use xlink:href="#e" overflow="visible"/></clipPath><linearGradient id="h" gradientUnits="userSpaceOnUse" x1="261.807" y1="320.628" x2="261.807" y2="200.628"><stop offset="0" stop-color="#F9A01B"/><stop offset=".145" stop-color="#FCB22E"/><stop offset=".349" stop-color="#FFC645"/><stop offset=".557" stop-color="#FFD457"/><stop offset=".772" stop-color="#FFDD62"/><stop offset="1" stop-color="#FFE065"/></linearGradient><path clip-path="url(#g)" fill="url(#h)" stroke="#000" stroke-miterlimit="10" d="M10.092 200.628H513.52v120H10.092z"/><g clip-path="url(#g)"><radialGradient id="i" cx="261.807" cy="460.751" r="87.284" gradientUnits="userSpaceOnUse"><stop offset=".279" stop-color="#C9CACC"/><stop offset=".75" stop-color="#FFF"/></radialGradient><path fill="url(#i)" stroke="#000" stroke-width="3" stroke-linecap="round" stroke-miterlimit="10" d="M255.13 468.415c0-5.453-6.362-3.97-6.362-.455 0 3.796 3.077 6.872 6.87 6.872 4.1 0 7.42-3.323 7.42-7.42 0-4.427-3.587-8.015-8.013-8.015-4.78 0-8.655 3.875-8.655 8.655 0 5.162 4.186 9.348 9.348 9.348 5.575 0 10.095-4.52 10.095-10.096 0-6.02-4.88-10.903-10.902-10.903-6.502 0-11.774 5.273-11.774 11.776 0 7.024 5.693 12.717 12.717 12.717 7.586 0 13.734-6.148 13.734-13.734 0-8.19-6.64-14.833-14.833-14.833-8.848 0-16.02 7.172-16.02 16.02 0 9.555 7.746 17.3 17.3 17.3 10.322 0 18.688-8.364 18.688-18.685 0-11.145-9.035-20.18-20.18-20.18-12.038 0-21.796 9.758-21.796 21.794 0 13 10.54 23.538 23.54 23.538 14.04 0 25.42-11.38 25.42-25.42 0-15.164-12.29-27.456-27.455-27.456-16.375 0-29.65 13.275-29.65 29.65 0 17.688 14.337 32.024 32.023 32.024 19.1 0 34.585-15.483 34.585-34.585 0-20.63-16.723-37.352-37.353-37.352-22.278 0-40.34 18.06-40.34 40.34 0 24.062 19.507 43.566 43.567 43.566 25.986 0 47.053-21.064 47.053-47.052 0-28.064-22.75-50.817-50.815-50.817-30.312 0-54.885 24.573-54.885 54.884 0 32.736 26.54 59.273 59.274 59.273 35.353 0 64.014-28.66 64.014-64.016 0-38.18-30.953-69.134-69.136-69.134-41.238 0-74.667 33.43-74.667 74.667 0 44.536 36.105 80.64 80.64 80.64 48.1 0 87.093-38.99 87.093-87.092 0-51.945-42.112-94.057-94.06-94.057"/><path d="M232.293 389.443c-.37-2.474-25.36-.67-31.777-1.51-6.418-.84-9.98-3.92-10.17-3.465-.19.455 2.612 1.947 2.612 3.924 0 1.978-2.07 3.566-1.78 3.597.293.03 4.005-1.884 8.992-2.33 4.987-.444 32.494 2.258 32.123-.217z"/><path fill="#FFF" stroke="#000" stroke-width="3" stroke-linecap="round" stroke-linejoin="round" stroke-miterlimit="10" d="M252.145 370.177s-25.544-5.214-31.97-5.214c-6.43 0-11.396 2.998-13.45 2.998-2.056 0-5.653-1.455-8.908-1.455s-10.106 0-10.106 4.454c0 2.507-1.005 7.877 15.247 7.877 11.99 0 8.735 10.106 24.494 10.106-13.83 0-4.323 7.537-32.802 7.537-3.345 0 2.27 6.08 8.137 6.08 3.34 0 18.843-6.22 24.24-6.22h12.502c3.855 0 9.3-.512 14.78-.512"/><path d="M191.737 372.327c-.13 3.127 2.997-1.027 7.793-1.584-3.083-.727-7.665-.6-7.793 1.584z"/><path fill="#FFF" d="M213.49 373.355s3.02-2.313 6.424-2.313 7.195 1.993 8.35 1.993c1.158 0-3.853 3.146-7.385 3.146-3.536.002-7.39-2.825-7.39-2.825z"/><path fill="none" stroke="#000" stroke-width="3" stroke-linecap="round" stroke-linejoin="round" stroke-miterlimit="10" d="M210.964 374.727s5.055-3.684 8.95-3.684c3.895 0 5.395 1.843 12.846 1.843-7.45 0-8.264 3.296-11.646 3.296-3.384 0-6.682-2.91-7.15-2.91-.474 0-3 1.455-3 1.455zM219.914 371.042c0 .835.857 4.112 1.2 5.14"/></g><g clip-path="url(#g)"><path fill="#F4F4F0" d="M366.984 133.104s1.852 7.053 0 10.852c-1.684 3.457-5.133 6.195-8.738 7.534-3.016 1.12-7.545.067-10.248 1.808-2.043 1.315-3.19 4.21-3.014 6.632.12 1.667 1.244 3.42 2.71 4.22 1.942 1.06 6.632 0 6.632 0s-3.81 4.04-6.932 4.822c-2.676.672-6.004.242-8.137-1.508-2.094-1.715-3.617-6.328-3.617-6.328l-2.11 3.014s-1.493-4.807-1.206-7.234c.332-2.816 1.223-4.716 3.316-6.63 2.18-1.995 6.08-2.138 8.44-3.92 2.022-1.527 4.218-6.328 4.218-6.328l18.686-6.934z"/><path fill="none" stroke="#808285" d="M366.984 133.104s1.852 7.053 0 10.852c-1.684 3.457-5.133 6.195-8.738 7.534-3.016 1.12-7.545.067-10.248 1.808-2.043 1.315-3.19 4.21-3.014 6.632.12 1.667 1.244 3.42 2.71 4.22 1.942 1.06 6.632 0 6.632 0s-3.81 4.04-6.932 4.822c-2.676.672-6.004.242-8.137-1.508-2.094-1.715-3.617-6.328-3.617-6.328l-2.11 3.014s-1.493-4.807-1.206-7.234c.332-2.816 1.223-4.716 3.316-6.63 2.18-1.995 6.08-2.138 8.44-3.92 2.022-1.527 4.218-6.328 4.218-6.328l18.686-6.934z"/><path fill="#D5D5D0" d="M364.718 136.786s-1.068 6.406-2.963 8.89c-1.082 1.415-2.816 2.243-4.445 2.964-4.035 1.784-9.617.197-12.84 3.21-2.15 2.007-3.137 5.483-2.717 8.395.31 2.17 3.703 5.433 3.703 5.433s-3.42-.02-4.69-.987c-2.14-1.628-3.706-7.16-3.706-7.16l-2.47 1.234s.845-4.187 2.224-5.68c2.422-2.624 7.127-2.146 9.63-4.692 1.91-1.943 3.458-7.408 3.458-7.408l14.816-4.198z"/><path fill="#FCFDFB" d="M370.94 72.812s-5.704-4.97-6.93-9.568c-2.546-9.556 2.423-13.504.66-19.796-2.25-8.032-8.58-11.22-8.58-11.22 9.24-4.662 20.308 1.496 26.466 9.364 0 0 1.887-8.056 5.28-11.547 4.88-5.023 13.196-4.62 13.196-4.62-1.824 3.52-1.832 7.948 1.57 11.467 0 0 5.008-.443 8.328-5.815 1.113-1.8.66-6.93.66-6.93 7.744 1.273 15.252 4.46 13.197 20.458 0 0 4.96-4.18 6.27-7.26 1.033-2.43.99-7.917.99-7.917s7.7 3.732 12.867 11.218c1.875 2.717 3.23 10.838 3.23 10.838 11.057-4.726 16.73-3.65 23.096 7.802 0 0-2.998.006-4.29.66-1.94.984-4.618 4.62-4.618 4.62s4.758-.787 6.93 0c2.422.877 5.938 4.95 5.938 4.95s-3.26-.1-4.62.658c-3 1.675-6.6 7.92-6.6 7.92s8.27 2.786 11.552 6.067c6.225 6.22 6.268 14.72 6.268 14.72s-3.232-1.01-4.62-.33c-1.423.697-2.638 3.96-2.638 3.96s5.422.46 7.324 2.902c3.25 4.167.74 12.263 2.375 17.287.98 3.016 5.147 6.203 5.147 6.203s-3.916 1.02-6.334.792c-1.596-.15-5.543-1.45-5.543-1.45 12.258 23.023-4.305 43.975-17.004 46.375-2.85-56.945-17.83-112.005-89.567-101.808z"/><path fill="none" stroke="#939598" d="M370.94 72.812s-5.704-4.97-6.93-9.568c-2.546-9.556 2.423-13.504.66-19.796-2.25-8.032-8.58-11.22-8.58-11.22 9.24-4.662 20.308 1.496 26.466 9.364 0 0 1.887-8.056 5.28-11.547 4.88-5.023 13.196-4.62 13.196-4.62-1.824 3.52-1.832 7.948 1.57 11.467 0 0 5.008-.443 8.328-5.815 1.113-1.8.66-6.93.66-6.93 7.744 1.273 15.252 4.46 13.197 20.458 0 0 4.96-4.18 6.27-7.26 1.033-2.43.99-7.917.99-7.917s7.7 3.732 12.867 11.218c1.875 2.717 3.23 10.838 3.23 10.838 11.057-4.726 16.73-3.65 23.096 7.802 0 0-2.998.006-4.29.66-1.94.984-4.618 4.62-4.618 4.62s4.758-.787 6.93 0c2.422.877 5.938 4.95 5.938 4.95s-3.26-.1-4.62.658c-3 1.675-6.6 7.92-6.6 7.92s8.27 2.786 11.552 6.067c6.225 6.22 6.268 14.72 6.268 14.72s-3.232-1.01-4.62-.33c-1.423.697-2.638 3.96-2.638 3.96s5.422.46 7.324 2.902c3.25 4.167.74 12.263 2.375 17.287.98 3.016 5.147 6.203 5.147 6.203s-3.916 1.02-6.334.792c-1.596-.15-5.543-1.45-5.543-1.45 12.258 23.023-4.305 43.975-17.004 46.375-2.85-56.945-17.83-112.005-89.567-101.808z"/><path fill="#F4F4F0" d="M415.455 29.134c-.072 1.186-.273 2.458-1.234 4.012-4.188 6.777-12.892 12.5-12.892 12.5-1.152.1-.707-5.237-1.508-6.07-2.69-2.785-3.736-6.198-3.703-9.516-1.95.486-4.078 1.26-5.502 2.726-.914.94-2.22 3.496-3.035 5.708-.814 2.213-1.285 3.96-1.285 3.96-.338 1.398-1.514 2.56-2.916 2.877-1.403.32-2.966-.218-3.874-1.333-2.688-3.434-6.56-6.6-10.492-8.23-1.547-.64-3.043-.857-4.525-1.028 1.573 2.022 3.06 4.45 3.958 7.662 1.195 4.264.053 7.782-.617 10.595-.667 2.813-1.126 5.217-.05 9.258.318 1.196 1.7 3.333 3.086 4.937.807.936 1.057 1.076 1.543 1.543 35.65-4.484 58.837 7.38 72.362 27.67 12.94 19.414 17.47 45.798 19.182 72.723 3.938-2.196 8.252-6.254 10.955-11.674 3.716-7.45 4.733-16.975-.823-27.412-.727-1.365-6.23-7.857-5.227-9.035 1-1.178 8.443 3.033 9.906 3.53 0 0 .906.3 2.006.618.213.063.287.043.514.104-.236-.48-.59-.837-.77-1.39 6.075-20.59-16.88-19.307-15.786-24.443 0 0 6.53.714 7.146-.45.617-1.163 1.127-2.696 3.6-3.908.684-.335 1.15-.305 1.697-.412-.67-2.357-1.914-5.313-4.373-7.766-.88-.883-3.572-2.42-5.86-3.446s-4.167-1.646-4.167-1.646c-.973-.314-3.205.402-3.652-.51-.565-1.154.84-4.033 1.493-5.148 0 0 1.02-1.704 2.416-3.65 1.022-1.424 2.272-2.927 3.856-4.27-.543-.04-.87-.104-1.645-.05-1.26.083-.097-.477-4.368.255-1.525.262-4.64 3.037-9.85 5.24.076-5.433 7.217-10.178 8.148-11.41 0 0 .762-1.037 1.8-2.212.952-1.075 2.128-2.243 3.858-3.24-8.893-10.063-17.68 5.665-25.607 9.384 3.167-10.016 5.35-16.163 2.517-23.323-1.297-3.283-4.45-5.092-6.582-6.737-.168.932-.094 1.787-.516 2.777-1.1 2.586-2.93 4.396-4.476 5.966-1.543 1.57-2.88 2.726-2.88 2.726-1.188 1.022-6.194 5.177-8.745 5.892-.495-3.398 2.144-7.836 2.366-9.39.95-7.376-.297-10.805-1.953-12.703-.866-.994-2.078-1.71-3.498-2.266z"/><path fill="#D5D5D0" d="M374.734 67.483s.352-6.932 0-10.372c-.416-4.072-2.488-12.03-2.488-12.03s4.484 7.433 6.637 11.202c1.566 2.74 4.564 8.296 4.564 8.296s12.238-4.174 17.424-7.882c5.095-3.642 9.653-8.313 12.862-13.69 1.344-2.253 2.488-7.468 2.488-7.468s.563 6.686 0 9.957c-1.193 6.94-7.053 19.914-7.053 19.914s14.457-5.22 20.328-9.957c2.605-2.103 5.125-4.72 6.223-7.882.635-1.828 0-5.808 0-5.808s2.627 5.413 2.49 8.297c-.19 4.026-3.11 7.44-4.564 11.2-1.594 4.12-4.563 12.445-4.563 12.445l7.054.416s9.947-12.274 17.01-14.935c1.81-.683 5.807 0 5.807 0s-4.524 2.01-6.222 3.734c-5.61 5.692-12.03 20.74-12.03 20.74s8.58-6.022 13.276-8.296c1.85-.896 5.807-2.074 5.807-2.074s-4.083 3.68-5.806 5.81c-2.078 2.562-5.395 8.296-5.395 8.296s9.128-2.398 13.274-.83c3.477 1.314 7.883 7.883 7.883 7.883s-5.324-3.155-8.3-3.32c-4.15-.23-12.028 3.32-12.028 3.32s18.21 8.167 24.06 15.764c1.602 2.08 2.49 7.467 2.49 7.467s-4.17-4.988-7.053-6.22c-4.467-1.913-14.52-1.246-14.52-1.246s13.146 16.776 17.01 26.55c1.395 3.532 3.848 7.846 2.072 11.203-2.4 4.543-14.105 6.223-14.105 6.223-7.535-68.25-43.15-83.064-84.63-86.707z"/><path fill="#E5E5E1" d="M324.95 138.452c8.138 10.456 16.146 2.203 22.517-3.053 5.566-4.592 21.85-6.124 21.85-6.124l-5.445-8.63s-14.77.035-19.766 5.624c-5.827 6.522-9.614 14.565-19.155 12.182z"/><path fill="#F4F4F0" d="M324.824 138.296s3.695 3.18 5.967 3.523c2.147.324 4.567-.155 6.444-1.062 4.41-2.13 8.605-8.36 13.012-10.498 5.78-2.805 17.777-3.266 17.777-3.266l-4.176-6.338s-5.352.168-7.953.607c-2.504.424-4.994.98-7.33 1.947-1.184.488-2.346 1.083-3.348 1.936-2.045 1.74-3.506 4.313-5.32 6.39-1.324 1.515-2.54 3.208-4.063 4.43-1.232.983-2.592 1.792-4.047 2.284-1.18.4-2.453.527-3.725.52-1.066-.007-3.236-.474-3.236-.474z"/><path fill="#FCFDFB" d="M365.468 123.456l-1.598-2.81s-5.656-.6-11.06.663c-3.485.814-6.747 2.767-8.706 4.96-5.826 6.52-9.613 14.564-19.154 12.182 0 0 5.81 3.028 8.69 2.074 5.7-1.885 9.845-10.563 15.222-13.3 5.257-2.676 16.606-3.77 16.606-3.77z"/><path fill="none" stroke="#6B6B6B" stroke-width="2.441" d="M324.95 138.452c8.138 10.456 16.146 2.203 22.517-3.053 5.566-4.592 21.85-6.124 21.85-6.124l-5.445-8.63c.004-.003-13.57-1.724-19.766 5.624-5.67 6.727-9.614 14.565-19.155 12.182z"/><path fill="#FCFDFB" d="M285.57 11.726c-.217.27 2.572 3.246 3.105 3.99-.176 1.273.148 2.322 2.176 2.67.05 2.006.847 3.397 3.245 3.476.514 3.88 2.662 3.65 4.182 4.173.262 2.766 1.293 4.696 4.986 4.764.48 4.672 3.063 4.86 5.658 5.25.663 3.48 2.58 5.56 6.2 5.628.756 3.838 3.18 5.56 6.607 5.902.848 3.775 3.496 5.37 6.885 6.07.986 3.127 2.238 5.782 7.03 6.128 1.48 5.892 4.52 5.048 7.044 6.084 1.36 6.39 4.53 4.93 6.924 5.932.645 6.308 4.223 5.214 6.674 5.673.555 5.63 3.875 4.758 6.29 5.31-.017 5.772 3.323 4.778 5.776 4.84-1.063 6.54 4.717 5.036 5.13 4.26l5.015-6.31 5.014-6.31c.663-.58.82-6.548-5.312-4.036-.613-2.374-.398-5.853-6.02-4.532-1.082-2.227-.982-5.66-6.592-4.928-1.002-2.283-.744-6.018-7.035-5.22-1.515-2.103-.81-5.523-7.34-5.404-1.58-2.226-1.446-5.375-7.52-5.486-1.42-4.59-4.29-5.21-7.56-5.464-1.447-3.145-3.598-5.363-7.467-5.336-1.11-3.263-3.334-5.235-7.242-5.104-.886-3.51-3.343-4.908-6.884-4.767-.965-2.442-1.732-4.916-6.393-4.327-.9-3.583-3.014-4.15-5.768-3.78-.852-1.362-1.115-3.507-5.01-3.13-.617-2.32-2.154-2.78-4.117-2.376-.8-1.896-1.895-1.975-3.094-1.516-.842-.35-4.37-2.394-4.584-2.124z"/><path fill="#E5E5E1" d="M285.57 11.726c-.217.27 2.572 3.246 3.105 3.99-.176 1.273.148 2.322 2.176 2.67.05 2.006.847 3.397 3.245 3.476.514 3.88 2.662 3.65 4.182 4.173.262 2.766 1.293 4.696 4.986 4.764.48 4.672 3.063 4.86 5.658 5.25.663 3.48 2.58 5.56 6.2 5.628.756 3.838 3.18 5.56 6.607 5.902.848 3.775 3.496 5.37 6.885 6.07.986 3.127 2.238 5.782 7.03 6.128 1.48 5.892 4.52 5.048 7.044 6.084 1.36 6.39 4.53 4.93 6.924 5.932.645 6.308 4.223 5.214 6.674 5.673.555 5.63 3.875 4.758 6.29 5.31-.017 5.772 3.323 4.778 5.776 4.84-1.063 6.54 4.717 5.036 5.13 4.26l2.507-3.154c-21.675-18.563-64.206-52.16-90.417-76.997z"/><path fill="#E5E5E1" d="M285.57 11.726l95.432 70.683 2.508-3.155c.664-.578.822-6.547-5.31-4.035-.612-2.375-.4-5.854-6.02-4.533-1.083-2.23-.98-5.66-6.593-4.928-1.002-2.285-.744-6.02-7.035-5.22-1.516-2.105-.81-5.525-7.342-5.405-1.58-2.226-1.445-5.375-7.518-5.486-1.42-4.59-4.29-5.212-7.56-5.465-1.448-3.145-3.6-5.363-7.468-5.336-1.11-3.264-3.334-5.236-7.242-5.105-.885-3.51-3.344-4.908-6.885-4.767-.965-2.44-1.732-4.915-6.393-4.326-.9-3.583-3.014-4.15-5.768-3.78-.852-1.363-1.115-3.507-5.01-3.13-.617-2.32-2.152-2.78-4.117-2.376-.8-1.896-1.896-1.975-3.095-1.516-.843-.35-4.37-2.394-4.585-2.124z"/><path fill="#FCFDFB" d="M302.054 20.814L294.1 21.9l-2.233-1.255-.965-2.33 6.935-.33 3.02.53M313.917 28.8l-11.164 1.825-3.416-1.273-.927-3.685 9.713-.72 4.494.276M329.35 38.84l-15.212 2.937-3.668-1.983-1.44-3.935 13.843-2.064 3.804 1.715 2.672 3.33M343.6 49.677l-15.556 3.754s-2.664-1.458-3.744-2.5c-.975-.942-2.37-3.3-2.37-3.3l14.792-3.167s2.94.98 4.146 1.907c1.133.87 2.733 3.307 2.733 3.307zM358.474 60.723l-16.582 4.743s-3.416-.604-4.508-1.678c-.984-.97-1.68-4.29-1.68-4.29l15.748-4.076s3.594.246 4.824 1.19c1.157.887 2.198 4.11 2.198 4.11zM372.072 70.853L355.39 76.92s-3.13.094-4.125-.92c-.896-.913-1.523-4.7-1.523-4.7l15.81-5.326s3.41.12 4.552.99c1.073.817 1.968 3.89 1.968 3.89zM383.9 79.592l-16.584 7.75s-2.543.073-3.395-.845c-.77-.83-1.46-4.24-1.46-4.24l15.678-6.918s3.99-.794 4.996-.034c.948.715.766 4.286.766 4.286z"/><path fill="none" stroke="#6D6E71" stroke-width="2.155" d="M285.57 11.726c-.217.27 2.572 3.246 3.105 3.99-.176 1.273.148 2.322 2.176 2.67.05 2.006.847 3.397 3.245 3.476.514 3.88 2.662 3.65 4.182 4.173.262 2.766 1.293 4.696 4.986 4.764.48 4.672 3.063 4.86 5.658 5.25.663 3.48 2.58 5.56 6.2 5.628.756 3.838 3.18 5.56 6.607 5.902.848 3.775 3.496 5.37 6.885 6.07.986 3.127 2.238 5.782 7.03 6.128 1.48 5.892 4.52 5.048 7.044 6.084 1.36 6.39 4.53 4.93 6.924 5.932.645 6.308 4.223 5.214 6.674 5.673.555 5.63 3.875 4.758 6.29 5.31-.017 5.772 3.323 4.778 5.776 4.84-1.063 6.54 4.717 5.036 5.13 4.26l5.015-6.31 5.014-6.31c.663-.58.82-6.548-5.312-4.036-.613-2.374-.398-5.853-6.02-4.532-1.082-2.227-.982-5.66-6.592-4.928-1.002-2.283-.744-6.018-7.035-5.22-1.515-2.103-.81-5.523-7.34-5.404-1.58-2.226-1.446-5.375-7.52-5.486-1.42-4.59-4.29-5.21-7.56-5.464-1.447-3.145-3.598-5.363-7.467-5.336-1.11-3.263-3.334-5.235-7.242-5.104-.886-3.51-3.343-4.908-6.884-4.767-.965-2.442-1.732-4.916-6.393-4.327-.9-3.583-3.014-4.15-5.768-3.78-.852-1.362-1.115-3.507-5.01-3.13-.617-2.32-2.154-2.78-4.117-2.376-.8-1.896-1.895-1.975-3.094-1.516-.842-.35-4.37-2.394-4.584-2.124z"/><path fill="#D5D5D0" d="M466.82 123.133c-1.824-17.856-12.25-39.093-28.74-52.01-7.898-6.19-17.037-10.925-27.004-13.36-1.697-2.71-3.053-5.73-5.71-7.47-7.235-4.73-14.65-8.48-18.26-12.266-6.272-6.574-8.733-10.848-10.92-16.356-1.376 12.696-1.407 25.256 7.77 36.897 0 0-13.11 1.263-18.663 3.653-8.28 3.565-16.908 8.837-23.525 15.987-3.025 3.268-1.213 6.82-3.38 10.713-3.82 6.434-12.716 15.625-17.84 21.2 0 0-3.905 2.074-5.044 3.98-.926 1.55-1.057 3.95 0 5.413.834 1.158 2.498 3.312 3.033 4.846.617 1.767.426 5.69 1.027 7.464 1.03 3.05 6.07 3.973 6.07 3.973s8.713-2.637 11.768-8.033c1.047-1.85.783-7.742 2.34-9.19 3.088-2.88 8.756-2.573 12.633-.904 1.963.847 3.342 2.95 4.06 4.964 1.112 3.115.696 6.764-1.642 9.104-2.02 2.02-5.027 1.527-7.545 2.876-3.348 1.79-5.7 7.42-5.7 7.42s5.575 2.75 8.57 2.707c7.8-.108 13.337-1.4 18.245-7.463 2.287-2.827 1.945-7.62 3.984-10.623 2.836-4.176 7.72-6.947 12.512-8.53 3.57-1.183 11.278-.453 11.278-.453s.697 7.787-.3 11.48c-4.497 16.634-16.026 27.73-22.46 43.714-.63 1.567-1.236 3.25-1.834 4.973h98.94c-3.598-17.577-2.48-43.115-3.664-54.704z"/><path fill="#E5E5E1" d="M319.564 131.823c-.602-1.773-.412-5.697-1.027-7.465-.535-1.534-2.2-3.688-3.033-4.846-1.057-1.463-.926-3.863 0-5.413 1.14-1.907 5.043-3.98 5.043-3.98 5.125-5.576 14.02-14.768 17.842-21.2 2.165-3.893.353-7.446 3.378-10.714 6.617-7.15 15.244-12.422 23.525-15.987 5.553-2.392 18.664-3.655 18.664-3.655-1.2-1.52 1.615 1.74 4.44 4.124 2.4 2.028 3.063 2.733 4.286 1.938 1.924-1.252 1.55-2.787.71-4.53-.896-1.853-7.933-7.684-9.153-9.914-6.004-10.96-8.8-21.615-8.053-28.514 2.186 5.508 4.646 9.782 10.918 16.356 3.61 3.787 11.025 7.536 18.258 12.267 2.66 1.74 4.016 4.76 5.713 7.47 9.967 2.434 19.105 7.17 27.004 13.358 16.49 12.92 23.602 33.74 25.428 51.597.844 8.275-.52 22.628-.3 38.6 0 0-9.788 8.392-17.782 7.455-6.984-.818-18.02-9.735-18.02-9.735s-13.496 6.19-20.92 6.42c-8.797.274-25.31-7.526-25.31-7.526 5.624-9.183 11.685-17.77 14.66-28.78 0 0 3.065-1.537 3.606-2.632 2.76-5.58 2.07-6.835 2.07-6.835s5.92-1.988 8.7-4.35c3.444-2.926 7.132-8.066 8.907-12.22 1.667-3.907 2.368-7.364 2.07-11.602-.18-2.572-1.503-6.53-2.9-8.698-1.51-2.35-6.007-5.18-6.007-5.18s1.277 7.142 1.244 10.98c-.03 3.428-.36 6.977-1.658 10.15-1.405 3.44-3.583 6.714-6.42 9.113-2.69 2.27-6.112 3.715-9.53 4.557-5.568 1.37-11.043 1.007-16.777 1.035-2.625.014-7.87-.207-7.87-.207l5.282 4.39c-2.416.573-3.492 2.488-4.87 4.103-2.294-4.16-5.02-5.077-9.733-5.386 0 0 4.02 8.45 3.73 13.05-.17 2.618-1.597 5.258-3.522 7.042-2.68 2.482-5.785 3.223-9.322 4.142-3.584.932-11.03 1.336-11.03 1.336s2.093-5.537 5.438-7.327c2.52-1.348 5.525-.853 7.547-2.875 2.338-2.34 2.754-5.988 1.643-9.104-.72-2.013-1.092-7.136-3.055-7.98-2.616-1.13-4.85-3.165-8.17-3.165-3.01 0-6.235 3.583-8.374 5.703-2.71 2.687.23 7.06-2.627 9.592-1.24 1.098-4.497 4.497-7.355 5.373-3.842 1.178-7.29-.33-7.29-.33z"/><path fill="#F4F4F0" d="M404.097 122.782s4.887-2.246 7.666-4.608c3.443-2.925 8.684-10.133 10.46-14.288 1.667-3.906 1.333-8.91 1.036-13.148-.183-2.573-2.022-7.822-3.417-9.992-1.514-2.348-11.174-10.086-11.174-10.086s2.308 12.05 2.274 15.887c-.03 3.427-.36 6.976-1.656 10.148-1.406 3.44-3.582 6.715-6.422 9.114-2.69 2.27-3.785 3.457-7.203 4.297-5.568 1.37-11.043 1.008-16.777 1.037-2.625.012-13.04-1.24-13.04-1.24l9.16 6.713c-2.417.574-1.427 1.197-2.802 2.813-2.295-4.16-7.865-5.853-12.578-6.16 0 0 4.8 11.292 4.504 15.89-.168 2.62-1.338 3.968-3.262 5.75-2.682 2.485-5.785 3.226-9.322 4.144-3.584.932-9.74 2.887-9.74 2.887s2.094-5.536 5.44-7.326c2.52-1.35 5.524-.854 7.546-2.876 2.338-2.34 5.338-5.47 4.225-8.588-.717-2.013-3.674-10.236-5.637-11.08-2.615-1.13-4.85-3.166-8.17-3.166-1.93 0-4.227.895-6.19 2.51-.554.454-2.99.22-5.374.625-2.37.4-4.69 2.024-5.074 2.403-.846 1.098-.875 3.92.26 4.953 1.113 1.014 3.29.373 3.78 1.37 1.358 2.778-.046 4.397-1.913 5.99-3.376 2.877-6.333 4.1-8.49 3.637-2.075-.444-3.41-2.446-3.673-6.032-.535-1.533-2.2-3.687-3.033-4.845-1.057-1.463-.926-3.863 0-5.413 1.14-1.906 5.043-3.98 5.043-3.98 5.125-5.575 14.02-14.767 17.842-21.2 2.165-3.892.353-7.445 3.378-10.713 6.62-7.15 15.244-12.423 23.525-15.988 5.553-2.39 18.664-3.653 18.664-3.653 3.785 2.212 6.014 6.446 9.057 6.27 1.168-.07 5.918-1.897 5.445-4.154-.683-3.252-11.183-10.23-14.886-16.078-4.848-7.656-3.432-14.755-7.387-22.934 2.186 5.508 4.646 9.782 10.918 16.356 3.61 3.787 11.027 7.536 18.26 12.267 2.658 1.74 4.014 4.76 5.713 7.47 9.967 2.434 19.104 7.17 27.002 13.358 16.49 12.918 20.244 33.74 22.07 51.596.846 8.276-.52 19.827-.3 35.8 0 0-6.43 8.39-14.423 7.455-6.986-.818-18.02-9.735-18.02-9.735s-13.497 6.19-20.92 6.42c-8.798.274-18.112-5.772-18.112-5.772 8.736-9.54 12.385-19.6 15.725-34.102h-.003z"/><path fill="#FCFDFB" d="M411.683 69.03c27.896 11.04 21.145 49.038-1.166 54.92-3.008 12.727-6.725 22.455-13.99 31.37 2.813 1.52 8.258 4.243 14.04 4.064 3.032-.095 4.097-.957 8.282-2.497 4.187-1.54 7.456-3.034 7.456-3.034.873-.407 1.97-.284 2.727.31 0 0 2.662 2.166 6.172 4.422 3.508 2.257 7.988 4.484 10.543 4.783 5.62.658 7.854-5.125 8.586-5.966-.135-15.44 1.078-26.884.31-34.407-1.812-17.7-2.59-35.722-18.153-47.914-7.632-5.978-12.347-9.507-21.917-11.844-.232 2.573-.874 3.222-2.89 5.794zm-10.53-10.82c.552 1.073.474 3.133.052 4.265-.38 1.026-2.12 2.506-2.12 2.506l-3.37.675-9.172-3.47 7.996 5.78s4.02 1.825 5.972 1.735c1.893-.088 3.97-.318 5.492-1.445 1.574-1.17 2.598-3.11 3.082-5.01.336-1.32.723-2.988-.502-5.713-1.42-3.155-2.828-5.462-4.648-6.653-7.074-4.627-14.465-9.153-18.72-13.615-3.122-3.27-7.26-10.19-9.024-12.863.475 9.23 6.076 16.924 11.965 22.388 5.32 4.94 10.82 7.188 12.997 11.42zm-19.646 5.523c-2.475.47-5.186-.13-7.576.24-3.892.602-8.56 1.606-10.8 2.572-8.03 3.455-16.4 7.63-22.682 14.416-1.01 1.093-1.11 2.255-1.285 3.922-.176 1.67-.244 4.065-1.646 6.583l-.05.05c-4.173 7.026-11.476 14.9-16.552 20.422-.21.21-.453.386-.72.515 0 0-.862.465-1.85 1.13-.99.667-2.15 1.647-2.16 1.853l-.155 2.52c.752 1.492 2.25 2.89 2.88 4.148 1.92 3.842 1.58 5.74 3.064 5.9 1.197.13 5.7-.64 7.24-4.283.408-.965.428-1.676.885-2.96-1.855-6.724.43-8.453 5.886-9.6.842-.76 1.805-1.566 2.838-2.308 1.818-1.306 3.83-2.572 6.377-2.572 4.38 0 7.075 2.592 9.208 3.344 5.936 2.09 7.52-3.525 11.725-2.367 3.846 1.06 2.588.35 5.504.67 2.916.32 6.39.62 7.252.617 25.837-.004 30.333-18.08 23.632-34.033-10.183 1.417-19.483-8.972-21.015-10.777zm-20.363 63.686c-.236.58-.41 1.2-.72 1.696-1.138 1.824-2.624 3.29-3.806 4.474-1.54 1.54-3.404 2.09-4.834 2.417-1.432.328-2.527.516-3.293.926-.093.05-.204.29-.308.36 1.197-.35 1.658-.507 2.676-.77 3.582-.932 6.115-1.54 8.23-3.498 1.82-1.688 2.294-2.097 2.415-4.012.016-.23-.308-1.194-.36-1.594z"/><path fill="#F4F4F0" d="M344.48 80.733s5.025 2.75 6.016 1.68c8.857-9.57 16.88-10.733 29.602-7.036l-3.297 3.15c6.126 14.272-13.67 22.056-22.974 15.745-2.9 3.855-7.85 2.918-12.432 2.962 1.492-1.022 6.857-1.924 7.184-5.044.367-3.53-4.115-5.346-4.143-7.402-.03-2.236.33-2.953.045-4.055z"/><path fill="#E5E5E1" d="M348.425 84.37l3.78.147 6.907-5.525 8.434-2.545 9.742-.436-2.035 2.036C380.5 92.04 358.4 100.83 352.35 87.28c-3.603.06-5.99-.93-6.614-4.582l2.69 1.673z"/><path fill="#928A70" d="M371.615 75.356c-5.836-.146-10.643 1.306-14.13 3.765-1.35.953-2.23 1.778-3.048 2.666s-1.58 1.592-2.984 1.954c-3.08.85-4.395-1.39-5.707-1.183 0 0 .346 1.066 1.285 1.902.94.835 2.573 1.458 4.835.874 1.764-.455 2.852-1.44 3.754-2.418s1.618-1.945 2.726-2.726c4.6-4.087 16.232-2.858 19.39-4.27-2.143-.345-4.176-.513-6.12-.564z"/><path fill="#D5D5D0" d="M333.14 120.126s-1.225-1.398-1.602-2.533c-.355-1.075.055-2.38.668-3.334.947-1.473 4.533-2.934 4.533-2.934s-4.507-.146-5.868.534c-1.21.604-2.172 1.736-2.8 2.933-.507.964-.808 2.12-.667 3.2.115.887.484 1.865 1.2 2.4.614.46 1.5.442 2.267.4.788-.044 2.268-.667 2.268-.667z"/><path fill="#928A70" d="M370.707 112.95s9.863 3.897 16.152 4.594c3.134.347 8.42.344 11.622-.67 8-2.53 11.494-6.674 15.873-13.587 3.113-4.917 3.893-11.408 3.125-17.017-.666-4.854-6.424-10.517-6.424-10.517 2.205 3.67 4.113 6.647 4.873 10.29 1.048 5.03.153 10.71-2.944 15.66-4.29 6.853-7.555 10.942-15.068 13.32-2.547.805-8.012 1.023-10.852.564l-16.36-2.636z"/><path fill="#FFF" d="M354.757 86.228c1.51 3.68 7.264 5.953 12.656 3.736s7.563-6.594 6.055-10.273c-1.512-3.68-5.725-4.28-11.115-2.063-5.393 2.216-9.105 4.92-7.596 8.6z"/><path fill="#635020" d="M360.92 79.82c2.245-.923 4.985.124 5.923 2.412.94 2.287-.207 5.075-2.47 6.005-2.263.93-4.923-.313-5.855-2.583s.155-4.91 2.4-5.835z"/><path fill="#2C2513" d="M361.382 82.023c1.19-.49 2.553.038 3.02 1.182.47 1.143-.14 2.624-1.27 3.09-1.13.464-2.457-.147-2.95-1.355-.495-1.205.007-2.425 1.2-2.917z"/><path fill="#FFF" d="M360.185 82.228c.662-.272 1.264-.012 1.486.53.208.503-.136 1.34-.634 1.544-.537.22-1.143-.03-1.416-.7-.29-.708-.134-1.087.565-1.374z"/><path fill="#A7A391" d="M369.527 75.474c-2.186-.38-4.752.08-7.56 1.234-2.753 1.13-5.1 2.375-6.687 3.96s-2.334 3.732-1.44 5.915c1.792 4.36 8.1 6.72 13.94 4.32 2.864-1.178 4.962-2.98 6.12-5.04 1.156-2.062 1.332-4.412.463-6.532-.87-2.12-2.65-3.476-4.836-3.856zm-.31 1.954c1.647.286 2.704 1.063 3.345 2.623.64 1.56.488 3.234-.412 4.836-.898 1.602-2.563 3.127-5.092 4.166-4.943 2.03-10.135-.193-11.365-3.19-.613-1.497-.266-2.563.977-3.805s3.43-2.413 6.068-3.497c2.584-1.063 4.836-1.418 6.48-1.132z"/><path fill="#928A70" d="M376.568 23.004l-.967 3.31c1.417 10.733 5.72 18.78 10.528 23.496 2.404 2.358 4.78 4.138 6.686 5.503s3.393 2.45 3.754 2.932c1.094 1.46 1.143 2.54.875 3.446-.268.908-.94 1.638-1.492 2.007-1.097.733-2.138.91-3.187.77-1.05-.138-2.14-.628-3.19-1.337-2.097-1.417-4.005-3.705-5.347-5.188l-1.234 1.177c1.305 1.44 3.283 3.797 5.656 5.4 1.188.8 2.508 1.41 3.908 1.593 1.402.186 2.867-.09 4.27-1.027.834-.558 1.803-1.55 2.21-2.932.41-1.382.155-3.152-1.18-4.938-.767-1.02-2.183-1.89-4.065-3.24-1.88-1.35-4.167-3.082-6.478-5.35-4.623-4.533-9.38-15.282-10.744-25.622zM328.24 121.375c.94.76 2.506.518 3.27.283.762-.233 1.336-.617 1.336-.617 1.424-1.527-.295-2.34-1.13-1.8 0 0-.343.214-.823.36-.48.148-.957.162-1.13.052-.745-.474-.99-.9-1.134-1.39s-.16-1.154.052-2.107c.338-1.52 1.676-2.774 3.29-3.446 3.66-1.523 5.71-1.44 5.71-1.44-2.29-.872-4.605-.76-6.545-.034-1.842.688-3.346 1.93-4.17 3.404-1.176 2.107-1.344 4.614 1.273 6.735zM362.677 116.57c1.063 1.563 2.756 3.258 3.754 4.162.823.835 1.763 1.896 2.16 2.57.427.73.94 2.145 1.286 3.345.346 1.2.566 2.21.566 2.21l1.594-.358s-.205-1.013-.566-2.265c-.36-1.25-.842-2.73-1.44-3.754-.567-.97-1.556-2.007-2.417-2.88-1.31-1.65-2.895-2.258-4.936-3.03z"/><path fill="none" stroke="#8A826A" stroke-width=".95" d="M466.82 123.133c-1.824-17.856-12.25-39.093-28.74-52.01-7.898-6.19-17.037-10.925-27.004-13.36-1.697-2.71-3.053-5.73-5.71-7.47-7.235-4.73-14.65-8.48-18.26-12.266-6.272-6.574-7.882-10.848-10.92-16.356-1.376 12.696-1.407 25.256 7.77 36.897 0 0-13.11 1.263-18.663 3.653-8.28 3.565-16.908 8.837-23.525 15.987-3.025 3.268-1.213 6.82-3.38 10.713-3.82 6.434-12.716 15.625-17.84 21.2 0 0-3.905 2.074-5.044 3.98-.926 1.55-1.057 3.95 0 5.413.834 1.158 2.498 3.312 3.033 4.846.617 1.767.426 5.69 1.027 7.464 1.03 3.05 6.07 3.973 6.07 3.973s8.713-2.637 11.768-8.033c1.047-1.85.783-7.742 2.34-9.19 3.088-2.88 8.756-2.573 12.633-.904 1.963.847 3.342 2.95 4.06 4.964 1.112 3.115.696 6.764-1.642 9.104-2.02 2.02-5.027 1.527-7.545 2.876-3.348 1.79-5.7 7.42-5.7 7.42s5.575 2.75 8.57 2.707c7.8-.108 13.337-1.4 18.245-7.463 2.287-2.827 1.945-7.62 3.984-10.623 2.836-4.176 7.72-6.947 12.512-8.53 3.57-1.183 11.278-.453 11.278-.453s.697 7.787-.3 11.48c-4.497 16.634-16.026 27.73-22.46 43.714-.63 1.567-1.236 3.25-1.834 4.973h98.94c-3.598-17.577-2.48-43.115-3.664-54.704z"/><g><path fill="#F4F4F0" d="M106.918 133.104s1.852 7.053 0 10.852c-1.684 3.457-5.133 6.195-8.738 7.534-3.016 1.12-7.545.067-10.248 1.808-2.043 1.315-3.19 4.21-3.014 6.632.12 1.667 1.244 3.42 2.71 4.22 1.942 1.06 6.632 0 6.632 0s-3.81 4.04-6.932 4.822c-2.676.672-6.004.242-8.137-1.508-2.093-1.715-3.616-6.328-3.616-6.328l-2.11 3.014s-1.493-4.807-1.206-7.234c.332-2.816 1.223-4.716 3.316-6.63 2.18-1.995 6.08-2.138 8.44-3.92 2.022-1.527 4.218-6.328 4.218-6.328l18.686-6.934z"/><path fill="none" stroke="#808285" d="M106.918 133.104s1.852 7.053 0 10.852c-1.684 3.457-5.133 6.195-8.738 7.534-3.016 1.12-7.545.067-10.248 1.808-2.043 1.315-3.19 4.21-3.014 6.632.12 1.667 1.244 3.42 2.71 4.22 1.942 1.06 6.632 0 6.632 0s-3.81 4.04-6.932 4.822c-2.676.672-6.004.242-8.137-1.508-2.093-1.715-3.616-6.328-3.616-6.328l-2.11 3.014s-1.493-4.807-1.206-7.234c.332-2.816 1.223-4.716 3.316-6.63 2.18-1.995 6.08-2.138 8.44-3.92 2.022-1.527 4.218-6.328 4.218-6.328l18.686-6.934z"/><path fill="#D5D5D0" d="M104.653 136.786s-1.068 6.406-2.963 8.89c-1.082 1.415-2.816 2.243-4.445 2.964-4.035 1.784-9.617.197-12.84 3.21-2.15 2.007-3.137 5.483-2.717 8.395.31 2.17 3.703 5.433 3.703 5.433s-3.42-.02-4.69-.987c-2.14-1.628-3.705-7.16-3.705-7.16l-2.47 1.234s.845-4.187 2.224-5.68c2.42-2.624 7.126-2.146 9.63-4.692 1.91-1.943 3.457-7.408 3.457-7.408l14.816-4.198z"/><path fill="#FCFDFB" d="M110.874 72.812s-5.703-4.97-6.928-9.568c-2.547-9.556 2.422-13.504.66-19.796-2.25-8.032-8.58-11.22-8.58-11.22 9.238-4.662 20.307 1.496 26.465 9.364 0 0 1.888-8.056 5.28-11.547 4.88-5.023 13.197-4.62 13.197-4.62-1.824 3.52-1.832 7.948 1.57 11.467 0 0 5.008-.443 8.328-5.815 1.113-1.8.66-6.93.66-6.93 7.744 1.273 15.252 4.46 13.197 20.458 0 0 4.96-4.18 6.27-7.26 1.033-2.43.99-7.917.99-7.917s7.7 3.732 12.867 11.218c1.874 2.717 3.23 10.838 3.23 10.838 11.056-4.726 16.73-3.65 23.095 7.802 0 0-2.998.006-4.29.66-1.94.984-4.618 4.62-4.618 4.62s4.758-.787 6.93 0c2.422.877 5.938 4.95 5.938 4.95s-3.26-.1-4.62.658c-3 1.675-6.6 7.92-6.6 7.92s8.27 2.786 11.552 6.067c6.225 6.22 6.268 14.72 6.268 14.72s-3.232-1.01-4.62-.33c-1.423.697-2.638 3.96-2.638 3.96s5.422.46 7.324 2.902c3.25 4.167.74 12.263 2.376 17.287.98 3.016 5.146 6.203 5.146 6.203s-3.916 1.02-6.334.792c-1.596-.15-5.543-1.45-5.543-1.45 12.258 23.023-4.305 43.975-17.004 46.375-2.85-56.945-17.83-112.005-89.566-101.808z"/><path fill="none" stroke="#939598" d="M110.874 72.812s-5.703-4.97-6.928-9.568c-2.547-9.556 2.422-13.504.66-19.796-2.25-8.032-8.58-11.22-8.58-11.22 9.238-4.662 20.307 1.496 26.465 9.364 0 0 1.888-8.056 5.28-11.547 4.88-5.023 13.197-4.62 13.197-4.62-1.824 3.52-1.832 7.948 1.57 11.467 0 0 5.008-.443 8.328-5.815 1.113-1.8.66-6.93.66-6.93 7.744 1.273 15.252 4.46 13.197 20.458 0 0 4.96-4.18 6.27-7.26 1.033-2.43.99-7.917.99-7.917s7.7 3.732 12.867 11.218c1.874 2.717 3.23 10.838 3.23 10.838 11.056-4.726 16.73-3.65 23.095 7.802 0 0-2.998.006-4.29.66-1.94.984-4.618 4.62-4.618 4.62s4.758-.787 6.93 0c2.422.877 5.938 4.95 5.938 4.95s-3.26-.1-4.62.658c-3 1.675-6.6 7.92-6.6 7.92s8.27 2.786 11.552 6.067c6.225 6.22 6.268 14.72 6.268 14.72s-3.232-1.01-4.62-.33c-1.423.697-2.638 3.96-2.638 3.96s5.422.46 7.324 2.902c3.25 4.167.74 12.263 2.376 17.287.98 3.016 5.146 6.203 5.146 6.203s-3.916 1.02-6.334.792c-1.596-.15-5.543-1.45-5.543-1.45 12.258 23.023-4.305 43.975-17.004 46.375-2.85-56.945-17.83-112.005-89.566-101.808z"/><path fill="#F4F4F0" d="M155.39 29.134c-.073 1.186-.274 2.458-1.235 4.012-4.19 6.777-12.893 12.5-12.893 12.5-1.152.1-.707-5.237-1.508-6.07-2.69-2.785-3.736-6.198-3.703-9.516-1.948.486-4.077 1.26-5.5 2.726-.915.94-2.22 3.496-3.036 5.708-.814 2.213-1.285 3.96-1.285 3.96-.34 1.398-1.515 2.56-2.917 2.877-1.402.32-2.965-.218-3.873-1.333-2.688-3.434-6.56-6.6-10.492-8.23-1.547-.64-3.043-.857-4.525-1.028 1.574 2.022 3.06 4.45 3.96 7.662 1.194 4.264.052 7.782-.618 10.595-.668 2.813-1.127 5.217-.05 9.258.317 1.196 1.698 3.333 3.085 4.937.807.936 1.057 1.076 1.543 1.543 35.652-4.484 58.838 7.38 72.363 27.67 12.94 19.414 17.47 45.798 19.182 72.723 3.938-2.196 8.252-6.254 10.955-11.674 3.717-7.45 4.734-16.975-.822-27.412-.726-1.365-6.23-7.857-5.226-9.035 1-1.178 8.443 3.033 9.906 3.53 0 0 .906.3 2.006.618.213.063.287.043.514.104-.236-.48-.59-.837-.77-1.39 6.075-20.59-16.88-19.307-15.786-24.443 0 0 6.53.714 7.146-.45.617-1.163 1.127-2.696 3.6-3.908.684-.335 1.15-.305 1.697-.412-.67-2.357-1.914-5.313-4.373-7.766-.88-.883-3.572-2.42-5.86-3.446s-4.167-1.646-4.167-1.646c-.973-.314-3.205.402-3.652-.51-.566-1.154.84-4.033 1.492-5.148 0 0 1.02-1.704 2.416-3.65 1.023-1.424 2.273-2.927 3.857-4.27-.543-.04-.87-.104-1.645-.05-1.26.083-.098-.477-4.37.255-1.524.262-4.64 3.037-9.85 5.24.077-5.433 7.218-10.178 8.15-11.41 0 0 .76-1.037 1.8-2.212.95-1.075 2.127-2.243 3.857-3.24-8.893-10.063-17.68 5.665-25.607 9.384 3.166-10.016 5.348-16.163 2.516-23.323-1.296-3.283-4.45-5.092-6.58-6.737-.17.932-.095 1.787-.517 2.777-1.098 2.586-2.93 4.396-4.475 5.966-1.543 1.57-2.88 2.726-2.88 2.726-1.188 1.022-6.194 5.177-8.745 5.892-.494-3.398 2.145-7.836 2.367-9.39.95-7.376-.297-10.805-1.953-12.703-.865-.994-2.078-1.71-3.498-2.266z"/><path fill="#D5D5D0" d="M114.668 67.483s.352-6.932 0-10.372c-.416-4.072-2.488-12.03-2.488-12.03s4.484 7.433 6.637 11.202c1.566 2.74 4.564 8.296 4.564 8.296s12.24-4.174 17.425-7.882c5.094-3.642 9.652-8.313 12.86-13.69 1.345-2.253 2.49-7.468 2.49-7.468s.562 6.686 0 9.957c-1.194 6.94-7.054 19.914-7.054 19.914s14.458-5.22 20.33-9.957c2.604-2.103 5.124-4.72 6.222-7.882.635-1.828 0-5.808 0-5.808s2.627 5.413 2.49 8.297c-.19 4.026-3.11 7.44-4.564 11.2-1.594 4.12-4.563 12.445-4.563 12.445l7.053.416s9.947-12.274 17.01-14.935c1.81-.683 5.807 0 5.807 0s-4.525 2.01-6.223 3.734c-5.61 5.692-12.03 20.74-12.03 20.74s8.58-6.022 13.276-8.296c1.85-.896 5.807-2.074 5.807-2.074s-4.084 3.68-5.807 5.81c-2.078 2.562-5.395 8.296-5.395 8.296s9.13-2.398 13.275-.83c3.477 1.314 7.883 7.883 7.883 7.883s-5.323-3.155-8.298-3.32c-4.152-.23-12.03 3.32-12.03 3.32s18.212 8.167 24.062 15.764c1.602 2.08 2.49 7.467 2.49 7.467s-4.17-4.988-7.053-6.22c-4.466-1.913-14.52-1.246-14.52-1.246s13.147 16.776 17.01 26.55c1.396 3.532 3.85 7.846 2.073 11.203-2.4 4.543-14.104 6.223-14.104 6.223-7.536-68.25-43.15-83.064-84.632-86.707z"/><path fill="#E5E5E1" d="M64.885 138.452c8.137 10.456 16.145 2.203 22.516-3.053 5.567-4.592 21.85-6.124 21.85-6.124l-5.444-8.63s-14.77.035-19.766 5.624c-5.827 6.522-9.614 14.565-19.155 12.182z"/><path fill="#F4F4F0" d="M64.758 138.296s3.695 3.18 5.967 3.523c2.146.324 4.566-.155 6.443-1.062 4.41-2.13 8.605-8.36 13.012-10.498 5.78-2.805 17.777-3.266 17.777-3.266l-4.176-6.338s-5.35.168-7.952.607c-2.504.424-4.994.98-7.33 1.947-1.184.488-2.346 1.083-3.348 1.936-2.045 1.74-3.506 4.313-5.32 6.39-1.324 1.515-2.54 3.208-4.063 4.43-1.232.983-2.592 1.792-4.047 2.284-1.18.4-2.453.527-3.725.52-1.067-.007-3.237-.474-3.237-.474z"/><path fill="#FCFDFB" d="M105.403 123.456l-1.598-2.81s-5.656-.6-11.06.663c-3.485.814-6.747 2.767-8.706 4.96-5.827 6.52-9.614 14.564-19.155 12.182 0 0 5.81 3.028 8.69 2.074 5.7-1.885 9.845-10.563 15.222-13.3 5.256-2.676 16.606-3.77 16.606-3.77z"/><path fill="none" stroke="#6B6B6B" stroke-width="2.441" d="M64.885 138.452c8.137 10.456 16.145 2.203 22.516-3.053 5.567-4.592 21.85-6.124 21.85-6.124l-5.444-8.63c.004-.003-13.57-1.724-19.766 5.624-5.67 6.727-9.614 14.565-19.155 12.182z"/><path fill="#FCFDFB" d="M25.504 11.726c-.217.27 2.572 3.246 3.105 3.99-.177 1.273.147 2.322 2.175 2.67.05 2.006.846 3.397 3.244 3.476.513 3.88 2.66 3.65 4.18 4.173.263 2.766 1.294 4.696 4.987 4.764.48 4.672 3.063 4.86 5.658 5.25.662 3.48 2.58 5.56 6.2 5.628.755 3.838 3.18 5.56 6.606 5.902.85 3.775 3.497 5.37 6.886 6.07.986 3.127 2.238 5.782 7.03 6.128 1.48 5.892 4.52 5.048 7.044 6.084 1.36 6.39 4.53 4.93 6.924 5.932.645 6.308 4.223 5.214 6.674 5.673.555 5.63 3.875 4.758 6.29 5.31-.017 5.772 3.323 4.778 5.776 4.84-1.063 6.54 4.717 5.036 5.13 4.26l5.015-6.31 5.013-6.31c.664-.58.822-6.548-5.31-4.036-.614-2.374-.4-5.853-6.02-4.532-1.083-2.227-.983-5.66-6.593-4.928-1.002-2.283-.744-6.018-7.035-5.22-1.516-2.103-.81-5.523-7.342-5.404-1.58-2.226-1.445-5.375-7.518-5.486-1.42-4.59-4.29-5.21-7.56-5.464-1.448-3.145-3.6-5.363-7.468-5.336-1.11-3.263-3.334-5.235-7.242-5.104-.887-3.51-3.344-4.908-6.885-4.767-.965-2.442-1.732-4.916-6.393-4.327-.9-3.583-3.014-4.15-5.768-3.78-.853-1.362-1.116-3.507-5.01-3.13-.618-2.32-2.155-2.78-4.118-2.376-.8-1.896-1.895-1.975-3.094-1.516-.84-.35-4.37-2.394-4.584-2.124z"/><path fill="#E5E5E1" d="M25.504 11.726c-.217.27 2.572 3.246 3.105 3.99-.177 1.273.147 2.322 2.175 2.67.05 2.006.846 3.397 3.244 3.476.513 3.88 2.66 3.65 4.18 4.173.263 2.766 1.294 4.696 4.987 4.764.48 4.672 3.063 4.86 5.658 5.25.662 3.48 2.58 5.56 6.2 5.628.755 3.838 3.18 5.56 6.606 5.902.85 3.775 3.497 5.37 6.886 6.07.986 3.127 2.238 5.782 7.03 6.128 1.48 5.892 4.52 5.048 7.044 6.084 1.36 6.39 4.53 4.93 6.924 5.932.645 6.308 4.223 5.214 6.674 5.673.555 5.63 3.875 4.758 6.29 5.31-.017 5.772 3.323 4.778 5.776 4.84-1.063 6.54 4.717 5.036 5.13 4.26l2.507-3.154C94.248 70.16 51.716 36.563 25.505 11.726z"/><path fill="#E5E5E1" d="M25.504 11.726l95.432 70.683 2.508-3.155c.664-.578.822-6.547-5.31-4.035-.612-2.375-.4-5.854-6.02-4.533-1.083-2.23-.98-5.66-6.593-4.928-1-2.285-.743-6.02-7.034-5.22-1.516-2.105-.81-5.525-7.342-5.405-1.58-2.226-1.445-5.375-7.518-5.486-1.42-4.59-4.29-5.212-7.56-5.465-1.448-3.145-3.6-5.363-7.468-5.336-1.11-3.264-3.334-5.236-7.242-5.105-.885-3.51-3.344-4.908-6.885-4.767-.964-2.44-1.73-4.915-6.392-4.326-.9-3.583-3.014-4.15-5.768-3.78-.852-1.363-1.115-3.507-5.01-3.13-.617-2.32-2.152-2.78-4.117-2.376-.8-1.896-1.895-1.975-3.094-1.516-.843-.35-4.37-2.394-4.586-2.124z"/><path fill="#FCFDFB" d="M41.99 20.814L34.035 21.9 31.8 20.644l-.964-2.33 6.936-.33 3.02.53M53.852 28.8l-11.164 1.825-3.416-1.273-.928-3.685 9.713-.72 4.494.276M69.286 38.84l-15.213 2.937-3.668-1.983-1.442-3.935 13.844-2.064 3.805 1.715 2.672 3.33M83.536 49.677L67.98 53.43s-2.665-1.458-3.745-2.5c-.975-.942-2.37-3.3-2.37-3.3l14.792-3.167s2.94.98 4.146 1.907c1.133.87 2.733 3.307 2.733 3.307zM98.41 60.723l-16.583 4.743s-3.416-.604-4.508-1.678c-.985-.97-1.68-4.29-1.68-4.29l15.747-4.076s3.594.246 4.824 1.19c1.158.887 2.2 4.11 2.2 4.11zM112.006 70.853L95.324 76.92s-3.13.094-4.125-.92c-.897-.913-1.524-4.7-1.524-4.7l15.81-5.326s3.41.12 4.552.99c1.074.817 1.968 3.89 1.968 3.89zM123.834 79.592l-16.584 7.75s-2.543.073-3.395-.845c-.77-.83-1.46-4.24-1.46-4.24l15.677-6.918s3.99-.794 4.996-.034c.948.715.766 4.286.766 4.286z"/><path fill="none" stroke="#6D6E71" stroke-width="2.155" d="M25.504 11.726c-.217.27 2.572 3.246 3.105 3.99-.177 1.273.147 2.322 2.175 2.67.05 2.006.846 3.397 3.244 3.476.513 3.88 2.66 3.65 4.18 4.173.263 2.766 1.294 4.696 4.987 4.764.48 4.672 3.063 4.86 5.658 5.25.662 3.48 2.58 5.56 6.2 5.628.755 3.838 3.18 5.56 6.606 5.902.85 3.775 3.497 5.37 6.886 6.07.986 3.127 2.238 5.782 7.03 6.128 1.48 5.892 4.52 5.048 7.044 6.084 1.36 6.39 4.53 4.93 6.924 5.932.645 6.308 4.223 5.214 6.674 5.673.555 5.63 3.875 4.758 6.29 5.31-.017 5.772 3.323 4.778 5.776 4.84-1.063 6.54 4.717 5.036 5.13 4.26l5.015-6.31 5.013-6.31c.664-.58.822-6.548-5.31-4.036-.614-2.374-.4-5.853-6.02-4.532-1.083-2.227-.983-5.66-6.593-4.928-1.002-2.283-.744-6.018-7.035-5.22-1.516-2.103-.81-5.523-7.342-5.404-1.58-2.226-1.445-5.375-7.518-5.486-1.42-4.59-4.29-5.21-7.56-5.464-1.448-3.145-3.6-5.363-7.468-5.336-1.11-3.263-3.334-5.235-7.242-5.104-.887-3.51-3.344-4.908-6.885-4.767-.965-2.442-1.732-4.916-6.393-4.327-.9-3.583-3.014-4.15-5.768-3.78-.853-1.362-1.116-3.507-5.01-3.13-.618-2.32-2.155-2.78-4.118-2.376-.8-1.896-1.895-1.975-3.094-1.516-.84-.35-4.37-2.394-4.584-2.124z"/><path fill="#D5D5D0" d="M206.754 123.133c-1.824-17.856-12.25-39.093-28.74-52.01-7.898-6.19-17.037-10.925-27.004-13.36-1.697-2.71-3.053-5.73-5.71-7.47-7.235-4.73-14.65-8.48-18.26-12.266-6.272-6.574-8.733-10.848-10.92-16.356-1.376 12.696-1.407 25.256 7.77 36.897 0 0-13.11 1.263-18.663 3.653-8.28 3.565-16.908 8.837-23.525 15.987-3.025 3.268-1.213 6.82-3.38 10.713-3.82 6.434-12.716 15.625-17.84 21.2 0 0-3.905 2.074-5.044 3.98-.926 1.55-1.057 3.95 0 5.413.834 1.158 2.498 3.312 3.033 4.846.618 1.767.427 5.69 1.028 7.464 1.03 3.05 6.07 3.973 6.07 3.973s8.713-2.637 11.768-8.033c1.047-1.85.783-7.742 2.34-9.19 3.088-2.88 8.756-2.573 12.633-.904 1.962.847 3.34 2.95 4.06 4.964 1.11 3.115.695 6.764-1.643 9.104-2.02 2.02-5.027 1.527-7.545 2.876-3.348 1.79-5.7 7.42-5.7 7.42s5.575 2.75 8.57 2.707c7.8-.108 13.337-1.4 18.245-7.463 2.287-2.827 1.945-7.62 3.984-10.623 2.837-4.176 7.72-6.947 12.513-8.53 3.572-1.183 11.28-.453 11.28-.453s.696 7.787-.302 11.48c-4.495 16.634-16.024 27.73-22.458 43.714-.63 1.567-1.236 3.25-1.834 4.973h98.94c-3.597-17.577-2.478-43.115-3.664-54.704z"/><path fill="#E5E5E1" d="M59.5 131.823c-.603-1.773-.413-5.697-1.028-7.465-.535-1.534-2.2-3.688-3.033-4.846-1.058-1.463-.927-3.863 0-5.413 1.138-1.907 5.042-3.98 5.042-3.98 5.125-5.576 14.02-14.768 17.842-21.2 2.166-3.893.354-7.446 3.38-10.714 6.616-7.15 15.243-12.422 23.524-15.987 5.553-2.392 18.664-3.655 18.664-3.655-1.2-1.52 1.615 1.74 4.44 4.124 2.4 2.028 3.063 2.733 4.286 1.938 1.924-1.252 1.55-2.787.71-4.53-.896-1.853-7.933-7.684-9.153-9.914-6.004-10.96-8.8-21.615-8.053-28.514 2.186 5.508 4.646 9.782 10.918 16.356 3.61 3.787 11.025 7.536 18.258 12.267 2.66 1.74 4.016 4.76 5.713 7.47 9.968 2.434 19.106 7.17 27.005 13.358 16.49 12.92 23.602 33.74 25.428 51.597.844 8.275-.52 22.628-.3 38.6 0 0-9.788 8.392-17.782 7.455-6.983-.818-18.02-9.735-18.02-9.735s-13.495 6.19-20.92 6.42c-8.796.274-25.308-7.526-25.308-7.526 5.623-9.183 11.684-17.77 14.66-28.78 0 0 3.064-1.537 3.605-2.632 2.76-5.58 2.07-6.835 2.07-6.835s5.92-1.988 8.7-4.35c3.444-2.926 7.132-8.066 8.907-12.22 1.668-3.907 2.37-7.364 2.072-11.602-.182-2.572-1.504-6.53-2.9-8.698-1.512-2.35-6.008-5.18-6.008-5.18s1.277 7.142 1.244 10.98c-.03 3.428-.36 6.977-1.658 10.15-1.404 3.44-3.582 6.714-6.42 9.113-2.69 2.27-6.11 3.715-9.53 4.557-5.567 1.37-11.042 1.007-16.776 1.035-2.625.014-7.87-.207-7.87-.207l5.282 4.39c-2.416.573-3.492 2.488-4.87 4.103-2.294-4.16-5.02-5.077-9.733-5.386 0 0 4.02 8.45 3.73 13.05-.17 2.618-1.597 5.258-3.522 7.042-2.68 2.482-5.785 3.223-9.322 4.142-3.584.932-11.03 1.336-11.03 1.336s2.093-5.537 5.438-7.327c2.52-1.348 5.526-.853 7.548-2.875 2.338-2.34 2.754-5.988 1.643-9.104-.718-2.013-1.09-7.136-3.054-7.98-2.617-1.13-4.852-3.165-8.17-3.165-3.01 0-6.236 3.583-8.375 5.703-2.71 2.687.23 7.06-2.626 9.592-1.238 1.098-4.496 4.497-7.354 5.373-3.842 1.178-7.29-.33-7.29-.33z"/><path fill="#F4F4F0" d="M144.032 122.782s4.887-2.246 7.666-4.608c3.443-2.925 8.684-10.133 10.46-14.288 1.667-3.906 1.333-8.91 1.036-13.148-.182-2.573-2.02-7.822-3.416-9.992-1.514-2.348-11.174-10.086-11.174-10.086s2.31 12.05 2.275 15.887c-.03 3.427-.362 6.976-1.657 10.148-1.406 3.44-3.582 6.715-6.422 9.114-2.688 2.27-3.784 3.457-7.202 4.297-5.568 1.37-11.043 1.008-16.777 1.037-2.624.012-13.038-1.24-13.038-1.24l9.16 6.713c-2.418.574-1.428 1.197-2.803 2.813-2.296-4.16-7.866-5.853-12.58-6.16 0 0 4.8 11.292 4.505 15.89-.168 2.62-1.338 3.968-3.262 5.75-2.682 2.485-5.785 3.226-9.322 4.144-3.583.932-9.74 2.887-9.74 2.887s2.095-5.536 5.442-7.326c2.518-1.35 5.523-.854 7.545-2.876 2.338-2.34 5.338-5.47 4.225-8.588-.717-2.013-3.674-10.236-5.637-11.08-2.615-1.13-4.85-3.166-8.17-3.166-1.93 0-4.227.895-6.19 2.51-.554.454-2.99.22-5.374.625-2.368.4-4.69 2.024-5.073 2.403-.846 1.098-.875 3.92.26 4.953 1.113 1.014 3.29.373 3.78 1.37 1.358 2.778-.046 4.397-1.913 5.99-3.375 2.877-6.332 4.1-8.49 3.637-2.074-.444-3.41-2.446-3.672-6.032-.535-1.533-2.2-3.687-3.033-4.845-1.058-1.463-.927-3.863 0-5.413 1.138-1.906 5.042-3.98 5.042-3.98 5.125-5.575 14.02-14.767 17.842-21.2 2.166-3.892.354-7.445 3.38-10.713 6.618-7.15 15.243-12.423 23.524-15.988 5.553-2.39 18.664-3.653 18.664-3.653 3.785 2.212 6.014 6.446 9.057 6.27 1.167-.07 5.917-1.897 5.444-4.154-.682-3.252-11.182-10.23-14.885-16.078-4.85-7.656-3.433-14.755-7.388-22.934 2.186 5.508 4.646 9.782 10.918 16.356 3.61 3.787 11.027 7.536 18.26 12.267 2.658 1.74 4.014 4.76 5.713 7.47 9.967 2.434 19.104 7.17 27.002 13.358 16.49 12.918 20.244 33.74 22.07 51.596.846 8.276-.52 19.827-.3 35.8 0 0-6.43 8.39-14.423 7.455-6.986-.818-18.02-9.735-18.02-9.735s-13.497 6.19-20.92 6.42c-8.798.274-18.112-5.772-18.112-5.772 8.736-9.54 12.385-19.6 15.725-34.102h-.003z"/><path fill="#FCFDFB" d="M151.618 69.03c27.896 11.04 21.145 49.038-1.166 54.92-3.008 12.727-6.725 22.455-13.99 31.37 2.813 1.52 8.258 4.243 14.04 4.064 3.032-.095 4.097-.957 8.282-2.497 4.188-1.54 7.457-3.034 7.457-3.034.874-.407 1.97-.284 2.728.31 0 0 2.662 2.166 6.172 4.422 3.508 2.257 7.988 4.484 10.543 4.783 5.62.658 7.854-5.125 8.586-5.966-.136-15.44 1.077-26.884.308-34.407-1.81-17.7-2.588-35.722-18.152-47.914-7.633-5.978-12.348-9.507-21.918-11.844-.232 2.573-.875 3.222-2.89 5.794zm-10.53-10.82c.55 1.073.473 3.133.05 4.265-.38 1.026-2.118 2.506-2.118 2.506l-3.37.675-9.173-3.47 7.996 5.78s4.02 1.825 5.973 1.735c1.893-.088 3.97-.318 5.492-1.445 1.574-1.17 2.598-3.11 3.082-5.01.336-1.32.723-2.988-.502-5.713-1.42-3.155-2.828-5.462-4.648-6.653-7.074-4.627-14.465-9.153-18.72-13.615-3.122-3.27-7.26-10.19-9.024-12.863.475 9.23 6.076 16.924 11.965 22.388 5.32 4.94 10.823 7.188 12.998 11.42zm-19.646 5.523c-2.475.47-5.186-.13-7.576.24-3.893.602-8.56 1.606-10.8 2.572-8.03 3.455-16.4 7.63-22.683 14.416-1.01 1.093-1.11 2.255-1.285 3.922-.176 1.67-.244 4.065-1.646 6.583l-.05.05c-4.173 7.026-11.476 14.9-16.552 20.422-.21.21-.453.386-.72.515 0 0-.862.465-1.85 1.13-.99.667-2.15 1.647-2.16 1.853l-.155 2.52c.752 1.492 2.25 2.89 2.88 4.148 1.92 3.842 1.58 5.74 3.064 5.9 1.196.13 5.7-.64 7.24-4.283.407-.965.427-1.676.884-2.96-1.854-6.724.432-8.453 5.887-9.6.843-.76 1.806-1.566 2.84-2.308 1.817-1.306 3.83-2.572 6.376-2.572 4.38 0 7.074 2.592 9.207 3.344 5.936 2.09 7.52-3.525 11.725-2.367 3.846 1.06 2.588.35 5.504.67 2.916.32 6.39.62 7.252.617 25.838-.004 30.334-18.08 23.633-34.033-10.183 1.417-19.484-8.972-21.015-10.777zM101.08 127.42c-.237.58-.41 1.2-.722 1.696-1.137 1.824-2.623 3.29-3.805 4.474-1.54 1.54-3.404 2.09-4.834 2.417-1.433.328-2.528.516-3.294.926-.094.05-.205.29-.31.36 1.198-.35 1.66-.507 2.677-.77 3.582-.932 6.115-1.54 8.23-3.498 1.82-1.688 2.294-2.097 2.415-4.012.016-.23-.31-1.194-.36-1.594z"/><path fill="#F4F4F0" d="M84.415 80.733s5.025 2.75 6.016 1.68c8.858-9.57 16.882-10.733 29.603-7.036l-3.297 3.15c6.125 14.272-13.672 22.056-22.975 15.745-2.9 3.855-7.85 2.918-12.43 2.962 1.49-1.022 6.856-1.924 7.183-5.044.367-3.53-4.115-5.346-4.143-7.402-.032-2.236.33-2.953.045-4.055z"/><path fill="#E5E5E1" d="M88.36 84.37l3.78.147 6.907-5.525 8.434-2.545 9.743-.436-2.035 2.036c5.248 13.993-16.852 22.784-22.902 9.233-3.604.06-5.992-.93-6.615-4.582l2.69 1.673z"/><path fill="#928A70" d="M111.55 75.356c-5.837-.146-10.644 1.306-14.13 3.765-1.352.953-2.23 1.778-3.05 2.666s-1.58 1.592-2.983 1.954c-3.08.85-4.395-1.39-5.707-1.183 0 0 .346 1.066 1.285 1.902.938.835 2.572 1.458 4.834.874 1.763-.455 2.85-1.44 3.753-2.418s1.62-1.945 2.727-2.726c4.6-4.087 16.232-2.858 19.39-4.27-2.142-.345-4.175-.513-6.12-.564z"/><path fill="#D5D5D0" d="M73.075 120.126s-1.225-1.398-1.602-2.533c-.355-1.075.055-2.38.668-3.334.948-1.473 4.534-2.934 4.534-2.934s-4.506-.146-5.867.534c-1.21.604-2.172 1.736-2.8 2.933-.507.964-.808 2.12-.667 3.2.115.887.484 1.865 1.2 2.4.614.46 1.5.442 2.267.4.787-.044 2.268-.667 2.268-.667z"/><path fill="#928A70" d="M110.64 112.95s9.864 3.897 16.153 4.594c3.135.347 8.422.344 11.623-.67 8-2.53 11.494-6.674 15.873-13.587 3.112-4.917 3.892-11.408 3.124-17.017-.666-4.854-6.424-10.517-6.424-10.517 2.205 3.67 4.113 6.647 4.873 10.29 1.05 5.03.154 10.71-2.943 15.66-4.29 6.853-7.555 10.942-15.068 13.32-2.547.805-8.012 1.023-10.852.564l-16.36-2.636z"/><path fill="#FFF" d="M94.692 86.228c1.51 3.68 7.264 5.953 12.656 3.736s7.563-6.594 6.055-10.273c-1.512-3.68-5.725-4.28-11.115-2.063-5.393 2.216-9.106 4.92-7.596 8.6z"/><path fill="#635020" d="M100.854 79.82c2.246-.923 4.986.124 5.924 2.412.94 2.287-.207 5.075-2.47 6.005-2.263.93-4.923-.313-5.855-2.583s.155-4.91 2.4-5.835z"/><path fill="#2C2513" d="M101.317 82.023c1.19-.49 2.553.038 3.02 1.182.47 1.143-.14 2.624-1.27 3.09-1.13.464-2.457-.147-2.95-1.355-.495-1.205.007-2.425 1.2-2.917z"/><path fill="#FFF" d="M100.12 82.228c.662-.272 1.264-.012 1.486.53.207.503-.137 1.34-.635 1.544-.536.22-1.142-.03-1.415-.7-.29-.708-.135-1.087.565-1.374z"/><path fill="#A7A391" d="M109.46 75.474c-2.185-.38-4.75.08-7.56 1.234-2.752 1.13-5.1 2.375-6.686 3.96s-2.334 3.732-1.44 5.915c1.792 4.36 8.1 6.72 13.94 4.32 2.864-1.178 4.962-2.98 6.12-5.04 1.156-2.062 1.332-4.412.463-6.532-.87-2.12-2.65-3.476-4.836-3.856zm-.307 1.954c1.646.286 2.703 1.063 3.344 2.623.64 1.56.488 3.234-.412 4.836-.898 1.602-2.563 3.127-5.092 4.166-4.943 2.03-10.135-.193-11.365-3.19-.613-1.497-.266-2.563.977-3.805s3.43-2.413 6.068-3.497c2.583-1.063 4.835-1.418 6.48-1.132z"/><path fill="#928A70" d="M116.502 23.004l-.967 3.31c1.416 10.733 5.72 18.78 10.527 23.496 2.404 2.358 4.78 4.138 6.686 5.503s3.393 2.45 3.754 2.932c1.094 1.46 1.143 2.54.875 3.446-.268.908-.94 1.638-1.492 2.007-1.098.733-2.14.91-3.188.77-1.05-.138-2.14-.628-3.19-1.337-2.097-1.417-4.005-3.705-5.347-5.188l-1.234 1.177c1.305 1.44 3.283 3.797 5.656 5.4 1.188.8 2.508 1.41 3.908 1.593 1.402.186 2.867-.09 4.27-1.027.834-.558 1.803-1.55 2.21-2.932.41-1.382.155-3.152-1.18-4.938-.767-1.02-2.183-1.89-4.065-3.24-1.88-1.35-4.168-3.082-6.48-5.35-4.62-4.533-9.38-15.282-10.743-25.622zM68.174 121.375c.94.76 2.506.518 3.27.283.762-.233 1.336-.617 1.336-.617 1.424-1.527-.295-2.34-1.13-1.8 0 0-.343.214-.823.36-.48.148-.957.162-1.13.052-.745-.474-.99-.9-1.134-1.39s-.16-1.154.053-2.107c.338-1.52 1.676-2.774 3.29-3.446 3.66-1.523 5.71-1.44 5.71-1.44-2.29-.872-4.605-.76-6.545-.034-1.84.688-3.345 1.93-4.17 3.404-1.175 2.107-1.343 4.614 1.274 6.735zM102.612 116.57c1.063 1.563 2.756 3.258 3.754 4.162.822.835 1.762 1.896 2.16 2.57.426.73.94 2.145 1.285 3.345.347 1.2.567 2.21.567 2.21l1.594-.358s-.204-1.013-.565-2.265c-.36-1.25-.842-2.73-1.44-3.754-.567-.97-1.556-2.007-2.417-2.88-1.31-1.65-2.895-2.258-4.936-3.03z"/><path fill="none" stroke="#8A826A" stroke-width=".95" d="M206.754 123.133c-1.824-17.856-12.25-39.093-28.74-52.01-7.898-6.19-17.037-10.925-27.004-13.36-1.697-2.71-3.053-5.73-5.71-7.47-7.235-4.73-14.65-8.48-18.26-12.266-6.272-6.574-7.882-10.848-10.92-16.356-1.376 12.696-1.407 25.256 7.77 36.897 0 0-13.11 1.263-18.663 3.653-8.28 3.565-16.908 8.837-23.525 15.987-3.025 3.268-1.213 6.82-3.38 10.713-3.82 6.434-12.716 15.625-17.84 21.2 0 0-3.905 2.074-5.044 3.98-.926 1.55-1.057 3.95 0 5.413.834 1.158 2.498 3.312 3.033 4.846.618 1.767.427 5.69 1.028 7.464 1.03 3.05 6.07 3.973 6.07 3.973s8.713-2.637 11.768-8.033c1.047-1.85.783-7.742 2.34-9.19 3.088-2.88 8.756-2.573 12.633-.904 1.962.847 3.34 2.95 4.06 4.964 1.11 3.115.695 6.764-1.643 9.104-2.02 2.02-5.027 1.527-7.545 2.876-3.348 1.79-5.7 7.42-5.7 7.42s5.575 2.75 8.57 2.707c7.8-.108 13.337-1.4 18.245-7.463 2.287-2.827 1.945-7.62 3.984-10.623 2.837-4.176 7.72-6.947 12.513-8.53 3.572-1.183 11.28-.453 11.28-.453s.696 7.787-.302 11.48c-4.495 16.634-16.024 27.73-22.458 43.714-.63 1.567-1.236 3.25-1.834 4.973h98.94c-3.597-17.577-2.478-43.115-3.664-54.704z"/></g></g><g clip-path="url(#g)"><radialGradient id="m" cx="425.793" cy="259.479" r="48.568" gradientUnits="userSpaceOnUse"><stop offset=".193" stop-color="#ED1C24"/><stop offset="1" stop-color="#9F1D20"/></radialGradient><path fill="url(#m)" stroke="#000" stroke-miterlimit="10" d="M457.293 278.684c-7.332-4.99-4.83-7.03-8.21-12.008-3.358-4.94-8.442-7.105-8.522-7.14.085-.174 2.583-5.362 6.003-7.03 3.48-1.7 5.938-.168 14.08-5.565 8.143-5.397 7.438-16.185 7.438-16.185s-1.89 7.248-9.88 11.092c-7.994 3.844-8.504.657-14.508 1.088s-10.455 3.8-10.455 3.8h-.012l-.004-.01h-.03l-.016-.026s.72-5.536-1.883-10.964c-2.6-5.428-5.62-4.29-6.243-13.138-.623-8.847 4.734-14.08 4.734-14.08s-9.718 4.735-10.368 14.482c-.652 9.747 1.896 11.124 2.146 14.986.248 3.863-3.145 8.713-3.145 8.713l-.016.026h-.03l-.007.01h-.012s-4.45-3.37-10.453-3.8-6.514 2.755-14.506-1.09-9.882-11.09-9.882-11.09-.707 10.787 7.438 16.185c8.143 5.398 10.602 3.867 14.08 5.565 3.42 1.67 5.918 6.857 6 7.03-.08.035-5.164 2.2-8.52 7.14-3.383 4.98-.88 7.02-8.21 12.01-7.333 4.988-14.554 2.99-14.554 2.99s8.984 6.018 17.734 1.676c8.752-4.34 8.658-7.236 11.87-9.395 3.065-2.06 8.562-1.707 9.064-1.67-.03.238-.66 5.633 1.883 10.94 2.604 5.428 5.623 4.29 6.246 13.138.622 8.847-4.735 14.08-4.735 14.08s9.72-4.735 10.37-14.482c.65-9.746-1.897-11.123-2.147-14.985-.242-3.758 2.953-8.436 3.127-8.688.307-.024 5.957-.43 9.082 1.67 3.213 2.158 3.12 5.054 11.87 9.395 8.753 4.342 17.733-1.675 17.733-1.675s-7.215 1.995-14.547-2.993z"/><g fill="none" stroke="#BE1E2D" stroke-width=".991" stroke-miterlimit="10"><path d="M379.745 281.676s11.264 3.247 17.367-.883c6.102-4.13 7.12-6.837 10.734-11.776 3.613-4.94 17.947-9.537 17.947-9.537M429.782 208.517s-8.473 8.1-7.975 15.45c.5 7.353 2.326 9.594 4.777 15.203 2.45 5.608-.79 20.31-.79 20.31M383.51 230.754s2.834 11.373 9.467 14.584c6.63 3.212 9.482 2.736 15.568 3.388 6.086.65 17.248 10.753 17.248 10.753M471.842 281.676s-11.262 3.247-17.363-.883c-6.105-4.13-7.122-6.837-10.735-11.776-3.613-4.94-17.95-9.537-17.95-9.537"/><path d="M468.08 230.754s-2.835 11.373-9.466 14.584c-6.633 3.212-9.486 2.736-15.57 3.388-6.086.65-17.25 10.753-17.25 10.753M421.807 310.443s8.473-8.1 7.975-15.45c-.498-7.353-2.326-9.595-4.775-15.203-2.45-5.608.787-20.31.787-20.31"/></g><g><radialGradient id="n" cx="261.806" cy="259.479" r="48.568" gradientUnits="userSpaceOnUse"><stop offset=".193" stop-color="#ED1C24"/><stop offset="1" stop-color="#9F1D20"/></radialGradient><path fill="url(#n)" stroke="#000" stroke-miterlimit="10" d="M293.305 278.684c-7.332-4.99-4.83-7.03-8.21-12.008-3.358-4.94-8.442-7.105-8.522-7.14.084-.174 2.582-5.362 6.002-7.03 3.48-1.7 5.938-.168 14.08-5.565 8.143-5.397 7.438-16.185 7.438-16.185s-1.89 7.248-9.88 11.092c-7.995 3.844-8.505.657-14.51 1.088s-10.454 3.8-10.454 3.8h-.013l-.004-.01h-.03l-.017-.026s.72-5.536-1.883-10.964c-2.6-5.428-5.62-4.29-6.243-13.138-.623-8.847 4.733-14.08 4.733-14.08s-9.718 4.735-10.37 14.482c-.65 9.747 1.898 11.124 2.147 14.986s-3.144 8.713-3.144 8.713l-.016.026h-.03l-.007.01h-.012s-4.448-3.37-10.452-3.8-6.514 2.755-14.506-1.09-9.882-11.09-9.882-11.09-.706 10.787 7.438 16.185c8.143 5.398 10.602 3.867 14.08 5.565 3.42 1.67 5.918 6.857 6 7.03-.08.035-5.164 2.2-8.52 7.14-3.382 4.98-.88 7.02-8.21 12.01-7.333 4.988-14.553 2.99-14.553 2.99s8.983 6.018 17.734 1.676c8.75-4.34 8.657-7.236 11.87-9.395 3.064-2.06 8.56-1.707 9.062-1.67-.03.238-.66 5.633 1.884 10.94 2.603 5.428 5.623 4.29 6.246 13.138.623 8.847-4.735 14.08-4.735 14.08s9.72-4.735 10.37-14.482c.65-9.746-1.897-11.123-2.147-14.985-.242-3.758 2.953-8.436 3.127-8.688.307-.024 5.957-.43 9.082 1.67 3.212 2.158 3.12 5.054 11.87 9.395 8.752 4.342 17.732-1.675 17.732-1.675s-7.215 1.995-14.547-2.993z"/><g fill="none" stroke="#BE1E2D" stroke-width=".991" stroke-miterlimit="10"><path d="M215.757 281.676s11.263 3.247 17.366-.883 7.12-6.837 10.734-11.776c3.613-4.94 17.948-9.537 17.948-9.537M265.793 208.517s-8.472 8.1-7.974 15.45c.498 7.353 2.325 9.594 4.776 15.203 2.45 5.608-.79 20.31-.79 20.31"/><path d="M219.522 230.754s2.835 11.373 9.467 14.584c6.63 3.212 9.482 2.736 15.568 3.388 6.086.65 17.248 10.753 17.248 10.753M307.854 281.676s-11.262 3.247-17.363-.883c-6.103-4.13-7.12-6.837-10.733-11.776-3.613-4.94-17.95-9.537-17.95-9.537M304.092 230.754s-2.836 11.373-9.467 14.584c-6.633 3.212-9.486 2.736-15.57 3.388-6.086.65-17.25 10.753-17.25 10.753M257.82 310.443s8.472-8.1 7.974-15.45c-.498-7.353-2.326-9.595-4.775-15.203-2.452-5.608.787-20.31.787-20.31"/></g></g><g><radialGradient id="o" cx="97.818" cy="259.479" r="48.568" gradientUnits="userSpaceOnUse"><stop offset=".193" stop-color="#ED1C24"/><stop offset="1" stop-color="#9F1D20"/></radialGradient><path fill="url(#o)" stroke="#000" stroke-miterlimit="10" d="M129.318 278.684c-7.332-4.99-4.83-7.03-8.212-12.008-3.356-4.94-8.44-7.105-8.52-7.14.082-.174 2.58-5.362 6-7.03 3.48-1.7 5.938-.168 14.08-5.565 8.143-5.397 7.438-16.185 7.438-16.185s-1.89 7.248-9.88 11.092c-7.994 3.844-8.504.657-14.508 1.088s-10.455 3.8-10.455 3.8h-.01l-.006-.01h-.03l-.016-.026s.72-5.536-1.883-10.964c-2.6-5.428-5.62-4.29-6.244-13.138-.622-8.847 4.735-14.08 4.735-14.08s-9.72 4.735-10.37 14.482c-.65 9.747 1.897 11.124 2.146 14.986s-3.143 8.713-3.143 8.713l-.016.026h-.03l-.006.01h-.012s-4.45-3.37-10.453-3.8-6.515 2.755-14.507-1.09-9.882-11.09-9.882-11.09-.705 10.787 7.44 16.185c8.142 5.398 10.6 3.867 14.08 5.565 3.42 1.67 5.917 6.857 6 7.03-.08.035-5.165 2.2-8.52 7.14-3.383 4.98-.88 7.02-8.212 12.01-7.332 4.988-14.552 2.99-14.552 2.99s8.983 6.018 17.734 1.676c8.75-4.34 8.658-7.236 11.87-9.395 3.065-2.06 8.562-1.707 9.063-1.67-.03.238-.66 5.633 1.884 10.94 2.603 5.428 5.623 4.29 6.246 13.138.623 8.847-4.735 14.08-4.735 14.08s9.72-4.735 10.37-14.482c.65-9.746-1.896-11.123-2.146-14.985-.242-3.758 2.952-8.436 3.127-8.688.305-.024 5.955-.43 9.08 1.67 3.213 2.158 3.12 5.054 11.872 9.395 8.752 4.342 17.732-1.675 17.732-1.675s-7.215 1.995-14.546-2.993z"/><g fill="none" stroke="#BE1E2D" stroke-width=".991" stroke-miterlimit="10"><path d="M51.77 281.676s11.263 3.247 17.366-.883 7.12-6.837 10.734-11.776c3.613-4.94 17.948-9.537 17.948-9.537M101.807 208.517s-8.473 8.1-7.975 15.45c.5 7.353 2.326 9.594 4.777 15.203 2.448 5.608-.79 20.31-.79 20.31M55.534 230.754S58.37 242.127 65 245.338c6.632 3.212 9.484 2.736 15.57 3.388 6.086.65 17.248 10.753 17.248 10.753M143.867 281.676s-11.262 3.247-17.364-.883-7.12-6.837-10.733-11.776c-3.614-4.94-17.95-9.537-17.95-9.537"/><path d="M140.104 230.754s-2.835 11.373-9.466 14.584c-6.633 3.212-9.486 2.736-15.57 3.388-6.086.65-17.25 10.753-17.25 10.753M93.83 310.443s8.475-8.1 7.976-15.45c-.498-7.353-2.326-9.595-4.775-15.203-2.45-5.608.79-20.31.79-20.31"/></g></g></g><use xlink:href="#e" overflow="visible" fill="none" stroke="#000" stroke-width="7" stroke-miterlimit="10"/><radialGradient id="p" cx="261.806" cy="575.523" r="180.594" gradientUnits="userSpaceOnUse"><stop offset=".632" stop-color="#FFF"/><stop offset=".705" stop-color="#F4F5F5"/><stop offset=".855" stop-color="#EAEBEB"/><stop offset="1" stop-color="#E6E7E8"/></radialGradient></svg>