<?xml version="1.0" encoding="utf-8"?>
<!-- Generator: Adobe Illustrator 15.0.2, SVG Export Plug-In  -->
<!DOCTYPE svg PUBLIC "-//W3C//DTD SVG 1.1//EN" "http://www.w3.org/Graphics/SVG/1.1/DTD/svg11.dtd" [
	<!ENTITY ns_flows "http://ns.adobe.com/Flows/1.0/">
]>
<svg version="1.1"
	 xmlns="http://www.w3.org/2000/svg" xmlns:xlink="http://www.w3.org/1999/xlink" xmlns:a="http://ns.adobe.com/AdobeSVGViewerExtensions/3.0/"
	 x="0px" y="0px" width="524px" height="667px" viewBox="0 0 524 667" enable-background="new 0 0 524 667" xml:space="preserve">
<defs>
</defs>
<linearGradient id="SVGID_2_" gradientUnits="userSpaceOnUse" x1="37.7886" y1="515.8896" x2="92.6829" y2="536.9616">
	<stop  offset="0" style="stop-color:#8B5E3C"/>
	<stop  offset="0.497" style="stop-color:#FDC060"/>
</linearGradient>
<path display="none" fill="url(#SVGID_2_)" stroke="#000000" stroke-width="3" stroke-miterlimit="10" d="M109.092,494.214l-72,70
	c0,0-13.53,0.171-11-15c2.529-15.171,23-55,23-55s1-8,21-9S109.092,494.214,109.092,494.214z"/>
<linearGradient id="SVGID_3_" gradientUnits="userSpaceOnUse" x1="430.9292" y1="536.9609" x2="485.8235" y2="515.889">
	<stop  offset="0.503" style="stop-color:#FDC060"/>
	<stop  offset="1" style="stop-color:#8B5E3C"/>
</linearGradient>
<path display="none" fill="url(#SVGID_3_)" stroke="#000000" stroke-width="3" stroke-miterlimit="10" d="M414.52,494.214l72,70
	c0,0,13.529,0.171,11-15s-23-55-23-55s-1-8-21-9S414.52,494.214,414.52,494.214z"/>
<linearGradient id="SVGID_4_" gradientUnits="userSpaceOnUse" x1="1.5" y1="461.7139" x2="107.0923" y2="461.7139">
	<stop  offset="0" style="stop-color:#BCBEC0"/>
	<stop  offset="0.3333" style="stop-color:#E6E7E8"/>
</linearGradient>
<path display="none" fill="url(#SVGID_4_)" stroke="#000000" stroke-width="3" stroke-miterlimit="10" d="M2.092,457.214
	c0-18,7.316-28,35-28s51,8,51,8l19,57c0,0-71.883-16.141-90.941-9.07S2.092,457.214,2.092,457.214z"/>
<linearGradient id="SVGID_5_" gradientUnits="userSpaceOnUse" x1="416.52" y1="461.7139" x2="522.1118" y2="461.7139">
	<stop  offset="0.6316" style="stop-color:#E6E7E8"/>
	<stop  offset="0.6867" style="stop-color:#DBDCDD"/>
	<stop  offset="0.7932" style="stop-color:#CACBCD"/>
	<stop  offset="0.8984" style="stop-color:#BFC1C3"/>
	<stop  offset="1" style="stop-color:#BCBEC0"/>
</linearGradient>
<path display="none" fill="url(#SVGID_5_)" stroke="#000000" stroke-width="3" stroke-miterlimit="10" d="M521.52,457.214
	c0-18-7.316-28-35-28s-51,8-51,8l-19,57c0,0,71.883-16.141,90.941-9.07S521.52,457.214,521.52,457.214z"/>
<path display="none" fill="#FBB040" stroke="#000000" stroke-width="3" stroke-miterlimit="10" d="M2.092,457.214c0,0,8,6,23,6
	c9.731,10.067,11,32,11,58.345c-25-1.345-34-19.345-34-48.345S2.092,457.214,2.092,457.214z"/>
<path display="none" fill="#FBB040" stroke="#000000" stroke-width="3" stroke-miterlimit="10" d="M521.52,457.214c0,0-8,6-23,6
	c-9.731,10.067-11,32-11,58.345c25-1.345,34-19.345,34-48.345S521.52,457.214,521.52,457.214z"/>
<g>
	<defs>
		<path id="SVGID_1_" d="M261.113,3.5H10.092c0,0,0,138.937,0,258.714c0,161.081,140,299,251.714,341
			c118.286-39,251.714-175.92,251.714-337c0-119.778,0-262.714,0-262.714H261.113z"/>
	</defs>
	<use xlink:href="#SVGID_1_"  overflow="visible" fill="#282561"/>
	<clipPath id="SVGID_6_">
		<use xlink:href="#SVGID_1_"  overflow="visible"/>
	</clipPath>
	<radialGradient id="SVGID_7_" cx="261.8062" cy="250.4775" r="249.3569" gradientUnits="userSpaceOnUse">
		<stop  offset="0.6316" style="stop-color:#FFFFFF"/>
		<stop  offset="0.7305" style="stop-color:#FAFAFA"/>
		<stop  offset="1" style="stop-color:#F6F6F6"/>
	</radialGradient>
	<path clip-path="url(#SVGID_6_)" fill="url(#SVGID_7_)" stroke="#000000" stroke-width="5" stroke-miterlimit="10" d="M475.481,3.5
		L262.755,235.105L50.029,3.5H10.092c0,0,0,19.609,0,50.442l209.529,228.125L69.999,444.969
		c12.062,17.954,25.472,34.885,39.793,50.598l152.964-166.539l154.699,168.428c14.303-15.792,27.578-32.862,39.417-51.006
		L305.888,282.066L513.52,56.009c0-31.99,0-52.509,0-52.509H475.481z"/>
	<g clip-path="url(#SVGID_6_)">
		<g>
			<g>
				<path stroke="#000000" stroke-miterlimit="10" d="M271.965,303.773c-0.864-1.729-10.238-32.719-10.396-32.213
					c-0.157-0.506-9.531,30.484-10.396,32.213c-1,2,6.75-2.5,7.25-4.75s2.854,18.296,3.146,17.788
					c0.292,0.508,2.646-20.038,3.146-17.788S272.965,305.773,271.965,303.773z"/>
				<circle stroke="#000000" stroke-miterlimit="10" cx="252.804" cy="264.398" r="6.375"/>
				<circle stroke="#000000" stroke-miterlimit="10" cx="261.57" cy="252.648" r="6.375"/>
				<circle stroke="#000000" stroke-miterlimit="10" cx="270.808" cy="264.398" r="6.375"/>
			</g>
		</g>
		<g>
			<g>
				<path stroke="#000000" stroke-miterlimit="10" d="M207.132,378.632c-0.864-1.729-10.238-32.72-10.396-32.213
					c-0.157-0.506-9.531,30.484-10.396,32.213c-1,2,6.75-2.5,7.25-4.75c0.5-2.25,2.854,18.296,3.146,17.787
					c0.292,0.509,2.646-20.038,3.146-17.787C200.382,376.132,208.132,380.632,207.132,378.632z"/>
				<circle stroke="#000000" stroke-miterlimit="10" cx="187.971" cy="339.256" r="6.375"/>
				<circle stroke="#000000" stroke-miterlimit="10" cx="196.737" cy="327.506" r="6.375"/>
				<circle stroke="#000000" stroke-miterlimit="10" cx="205.975" cy="339.256" r="6.375"/>
			</g>
			<g>
				<path stroke="#000000" stroke-miterlimit="10" d="M141.384,449.179c-0.864-1.729-10.238-32.719-10.396-32.213
					c-0.157-0.506-9.531,30.484-10.396,32.213c-1,2,6.75-2.5,7.25-4.75s2.854,18.297,3.146,17.788
					c0.292,0.509,2.646-20.038,3.146-17.788S142.384,451.179,141.384,449.179z"/>
				<circle stroke="#000000" stroke-miterlimit="10" cx="122.223" cy="409.804" r="6.375"/>
				<circle stroke="#000000" stroke-miterlimit="10" cx="130.989" cy="398.054" r="6.375"/>
				<circle stroke="#000000" stroke-miterlimit="10" cx="140.227" cy="409.804" r="6.375"/>
			</g>
		</g>
		<g>
			<g>
				<path stroke="#000000" stroke-miterlimit="10" d="M320.065,378.632c0.865-1.729,10.238-32.72,10.396-32.213
					c0.156-0.506,9.531,30.484,10.395,32.213c1,2-6.75-2.5-7.25-4.75c-0.5-2.25-2.854,18.296-3.145,17.787
					c-0.293,0.509-2.646-20.038-3.146-17.787C326.815,376.132,319.065,380.632,320.065,378.632z"/>
				<circle stroke="#000000" stroke-miterlimit="10" cx="339.227" cy="339.256" r="6.375"/>
				<circle stroke="#000000" stroke-miterlimit="10" cx="330.461" cy="327.506" r="6.375"/>
				<circle stroke="#000000" stroke-miterlimit="10" cx="321.223" cy="339.256" r="6.375"/>
			</g>
			<g>
				<path stroke="#000000" stroke-miterlimit="10" d="M385.814,449.179c0.864-1.729,10.238-32.719,10.396-32.213
					c0.157-0.506,9.531,30.484,10.396,32.213c1,2-6.75-2.5-7.25-4.75s-2.854,18.297-3.146,17.788
					c-0.292,0.509-2.646-20.038-3.146-17.788S384.814,451.179,385.814,449.179z"/>
				<circle stroke="#000000" stroke-miterlimit="10" cx="404.975" cy="409.804" r="6.375"/>
				<circle stroke="#000000" stroke-miterlimit="10" cx="396.209" cy="398.054" r="6.375"/>
				<circle stroke="#000000" stroke-miterlimit="10" cx="386.971" cy="409.804" r="6.375"/>
			</g>
		</g>
		<g>
			<g>
				<path stroke="#000000" stroke-miterlimit="10" d="M211.965,237.773c-0.864-1.729-10.238-32.719-10.396-32.213
					c-0.157-0.506-9.531,30.484-10.396,32.213c-1,2,6.75-2.5,7.25-4.75s2.854,18.296,3.146,17.788
					c0.292,0.508,2.646-20.038,3.146-17.788S212.965,239.773,211.965,237.773z"/>
				<circle stroke="#000000" stroke-miterlimit="10" cx="192.804" cy="198.398" r="6.375"/>
				<circle stroke="#000000" stroke-miterlimit="10" cx="201.57" cy="186.648" r="6.375"/>
				<circle stroke="#000000" stroke-miterlimit="10" cx="210.808" cy="198.398" r="6.375"/>
			</g>
			<g>
				<path stroke="#000000" stroke-miterlimit="10" d="M69.965,83.773c-0.864-1.729-10.238-32.719-10.396-32.213
					c-0.157-0.506-9.531,30.484-10.396,32.213c-1,2,6.75-2.5,7.25-4.75s2.854,18.296,3.146,17.788
					c0.292,0.508,2.646-20.038,3.146-17.788S70.965,85.773,69.965,83.773z"/>
				<circle stroke="#000000" stroke-miterlimit="10" cx="50.804" cy="44.398" r="6.375"/>
				<circle stroke="#000000" stroke-miterlimit="10" cx="59.57" cy="32.648" r="6.375"/>
				<circle stroke="#000000" stroke-miterlimit="10" cx="68.808" cy="44.398" r="6.375"/>
			</g>
			<g>
				<path stroke="#000000" stroke-miterlimit="10" d="M139.965,160.773c-0.864-1.729-10.238-32.719-10.396-32.213
					c-0.157-0.506-9.531,30.484-10.396,32.213c-1,2,6.75-2.5,7.25-4.75s2.854,18.296,3.146,17.788
					c0.292,0.508,2.646-20.038,3.146-17.788S140.965,162.773,139.965,160.773z"/>
				<circle stroke="#000000" stroke-miterlimit="10" cx="120.804" cy="121.398" r="6.375"/>
				<circle stroke="#000000" stroke-miterlimit="10" cx="129.57" cy="109.648" r="6.375"/>
				<circle stroke="#000000" stroke-miterlimit="10" cx="138.808" cy="121.398" r="6.375"/>
			</g>
		</g>
		<g>
			<g>
				<path stroke="#000000" stroke-miterlimit="10" d="M313.647,236.773c0.864-1.729,10.238-32.719,10.396-32.213
					c0.157-0.506,9.531,30.484,10.396,32.213c1,2-6.75-2.5-7.25-4.75s-2.854,18.296-3.146,17.788
					c-0.292,0.508-2.646-20.038-3.146-17.788S312.647,238.773,313.647,236.773z"/>
				<circle stroke="#000000" stroke-miterlimit="10" cx="332.808" cy="197.398" r="6.375"/>
				<circle stroke="#000000" stroke-miterlimit="10" cx="324.042" cy="185.648" r="6.375"/>
				<circle stroke="#000000" stroke-miterlimit="10" cx="314.804" cy="197.398" r="6.375"/>
			</g>
			<g>
				<path stroke="#000000" stroke-miterlimit="10" d="M455.647,83.773c0.864-1.729,10.238-32.719,10.396-32.213
					c0.157-0.506,9.531,30.484,10.396,32.213c1,2-6.75-2.5-7.25-4.75s-2.854,18.296-3.146,17.788
					c-0.292,0.508-2.646-20.038-3.146-17.788S454.647,85.773,455.647,83.773z"/>
				<circle stroke="#000000" stroke-miterlimit="10" cx="474.808" cy="44.398" r="6.375"/>
				<circle stroke="#000000" stroke-miterlimit="10" cx="466.042" cy="32.648" r="6.375"/>
				<circle stroke="#000000" stroke-miterlimit="10" cx="456.804" cy="44.398" r="6.375"/>
			</g>
			<g>
				<path stroke="#000000" stroke-miterlimit="10" d="M385.647,160.773c0.864-1.729,10.238-32.719,10.396-32.213
					c0.157-0.506,9.531,30.484,10.396,32.213c1,2-6.75-2.5-7.25-4.75s-2.854,18.296-3.146,17.788
					c-0.292,0.508-2.646-20.038-3.146-17.788S384.647,162.773,385.647,160.773z"/>
				<circle stroke="#000000" stroke-miterlimit="10" cx="404.808" cy="121.398" r="6.375"/>
				<circle stroke="#000000" stroke-miterlimit="10" cx="396.042" cy="109.648" r="6.375"/>
				<circle stroke="#000000" stroke-miterlimit="10" cx="386.804" cy="121.398" r="6.375"/>
			</g>
		</g>
	</g>
	<g clip-path="url(#SVGID_6_)">
		<g>
			<path fill="#CC8D2A" stroke="#000000" stroke-width="4" stroke-miterlimit="10" d="M276.298,53.214
				c0-14.978-5.626-37.929-14.227-37.997v-0.003c-0.007,0-0.013,0.001-0.02,0.001c-0.006,0-0.012-0.001-0.019-0.001v0.003
				c-8.602,0.068-14.228,23.02-14.228,37.997c0,15,10.533,45.333,10.533,74s-6.771,31.333-6.771,48c0,16.644,5.942,16.002,10.484,16
				c4.542,0.002,10.484,0.644,10.484-16c0-16.667-6.771-19.333-6.771-48S276.298,68.214,276.298,53.214z"/>
			<path fill="#CC8D2A" stroke="#000000" stroke-width="4" stroke-miterlimit="10" d="M246.139,134.214
				c0-12.667-5-30.998-20.333-30.998s-19.333,21.332-19.333,21.332s-14.667-8.667-14.667-30.667s19.42-25.333,26.753-25.333
				s35.914,19.85,35.914,53.333s-9.334,42.667-19.334,42.667s-12-8-12-8s10,4,14,0S246.139,146.88,246.139,134.214z"/>
			<path fill="#CC8D2A" stroke="#000000" stroke-width="4" stroke-miterlimit="10" d="M277.472,134.214
				c0-12.667,5.001-30.998,20.334-30.998s19.333,21.332,19.333,21.332s14.667-8.667,14.667-30.667s-19.42-25.333-26.754-25.333
				c-7.332,0-35.913,19.85-35.913,53.333s9.333,42.667,19.333,42.667s12-8,12-8s-10,4-14,0S277.472,146.88,277.472,134.214z"/>
			<g>
				<path fill="#CC8D2A" d="M264.812,119.052c-0.775-0.107-1.678-0.171-2.76-0.171c-0.199,0-0.386,0.013-0.583,0.015
					c-0.197-0.002-0.383-0.015-0.582-0.015c-1.082,0-1.984,0.064-2.76,0.171c-12.014,0.971-18.988,6.271-18.988,10.495
					c0,4.667,3.334,7.65,3.334,7.65s-1.127-2.798,2.873-5.507c3.487-2.362,13.592-2.52,16.123-2.521
					c2.531,0.002,12.636,0.16,16.124,2.521c4,2.708,2.873,5.507,2.873,5.507s3.333-2.983,3.333-7.65
					C283.799,125.324,276.826,120.023,264.812,119.052z"/>
				<path d="M244.748,141.984l-3.608-3.296c-0.163-0.146-4-3.643-4-9.14c0-5.231,7.278-11.378,20.771-12.484
					c1.021-0.138,2.18-0.217,3.372-0.173l0.211,0.006l0.163-0.006c0.13-0.005,0.261-0.009,0.396-0.009
					c1.094,0,2.068,0.06,2.977,0.183c13.492,1.105,20.771,7.253,20.771,12.484c0,5.497-3.836,8.994-3.999,9.14l-3.155,2.824
					l-0.053-5.026c0.062-0.286,0.183-1.58-2.12-3.139c-2.213-1.498-9.13-2.173-15.005-2.178c-5.871,0.004-12.788,0.68-15,2.177
					c-2.466,1.67-2.153,3.035-2.109,3.185L244.748,141.984z M260.887,120.881c-0.932,0-1.745,0.05-2.485,0.152l-0.113,0.013
					c-11.043,0.893-17.149,5.593-17.149,8.501c0,1.06,0.221,2.02,0.535,2.85c0.584-0.784,1.405-1.587,2.55-2.363
					c3.806-2.577,13.327-2.862,17.243-2.865c3.92,0.003,13.441,0.288,17.247,2.865c1.146,0.775,1.966,1.578,2.55,2.362
					c0.314-0.83,0.535-1.79,0.535-2.849c0-2.908-6.106-7.609-17.148-8.501l-0.113-0.013c-0.74-0.103-1.554-0.152-2.485-0.152
					l-0.559,0.015L260.887,120.881z"/>
			</g>
		</g>
		<g>
			<path fill="#CC8D2A" stroke="#000000" stroke-width="4" stroke-miterlimit="10" d="M276.298,422.214
				c0-14.978-5.626-37.929-14.227-37.997v-0.003c-0.007,0-0.013,0.002-0.02,0.002c-0.006,0-0.012-0.002-0.019-0.002v0.003
				c-8.602,0.068-14.228,23.02-14.228,37.997c0,15,10.533,45.333,10.533,74s-6.771,31.333-6.771,48c0,16.645,5.942,16.002,10.484,16
				c4.542,0.002,10.484,0.645,10.484-16c0-16.667-6.771-19.333-6.771-48S276.298,437.214,276.298,422.214z"/>
			<path fill="#CC8D2A" stroke="#000000" stroke-width="4" stroke-miterlimit="10" d="M246.139,503.214
				c0-12.666-5-30.998-20.333-30.998s-19.333,21.332-19.333,21.332s-14.667-8.667-14.667-30.667s19.42-25.333,26.753-25.333
				s35.914,19.85,35.914,53.333s-9.334,42.667-19.334,42.667s-12-8-12-8s10,4,14,0S246.139,515.88,246.139,503.214z"/>
			<path fill="#CC8D2A" stroke="#000000" stroke-width="4" stroke-miterlimit="10" d="M277.472,503.214
				c0-12.666,5.001-30.998,20.334-30.998s19.333,21.332,19.333,21.332s14.667-8.667,14.667-30.667s-19.42-25.333-26.754-25.333
				c-7.332,0-35.913,19.85-35.913,53.333s9.333,42.667,19.333,42.667s12-8,12-8s-10,4-14,0S277.472,515.88,277.472,503.214z"/>
			<g>
				<path fill="#CC8D2A" d="M264.812,488.052c-0.775-0.107-1.678-0.171-2.76-0.171c-0.199,0-0.386,0.013-0.583,0.015
					c-0.197-0.002-0.383-0.015-0.582-0.015c-1.082,0-1.984,0.063-2.76,0.171c-12.014,0.972-18.988,6.271-18.988,10.496
					c0,4.666,3.334,7.649,3.334,7.649s-1.127-2.798,2.873-5.507c3.487-2.361,13.592-2.52,16.123-2.521
					c2.531,0.002,12.636,0.16,16.124,2.521c4,2.709,2.873,5.507,2.873,5.507s3.333-2.983,3.333-7.649
					C283.799,494.323,276.826,489.023,264.812,488.052z"/>
				<path d="M244.748,510.983l-3.608-3.296c-0.163-0.146-4-3.643-4-9.14c0-5.231,7.278-11.379,20.771-12.484
					c1.021-0.139,2.18-0.217,3.372-0.174l0.211,0.006l0.163-0.006c0.13-0.004,0.261-0.009,0.396-0.009
					c1.094,0,2.068,0.06,2.977,0.183c13.492,1.105,20.771,7.253,20.771,12.484c0,5.496-3.836,8.994-3.999,9.14l-3.155,2.824
					l-0.053-5.026c0.062-0.285,0.183-1.579-2.12-3.139c-2.213-1.498-9.13-2.174-15.005-2.178c-5.871,0.004-12.788,0.68-15,2.178
					c-2.466,1.67-2.153,3.034-2.109,3.184L244.748,510.983z M260.887,489.881c-0.932,0-1.745,0.05-2.485,0.152l-0.113,0.013
					c-11.043,0.893-17.149,5.594-17.149,8.502c0,1.06,0.221,2.02,0.535,2.85c0.584-0.785,1.405-1.588,2.55-2.363
					c3.806-2.577,13.327-2.862,17.243-2.865c3.92,0.003,13.441,0.288,17.247,2.865c1.146,0.775,1.966,1.578,2.55,2.362
					c0.314-0.83,0.535-1.79,0.535-2.849c0-2.908-6.106-7.609-17.148-8.502l-0.113-0.013c-0.74-0.103-1.554-0.152-2.485-0.152
					l-0.559,0.015L260.887,489.881z"/>
			</g>
		</g>
		<g>
			<g>
				<path fill="#CC8D2A" stroke="#000000" stroke-width="4" stroke-miterlimit="10" d="M111.519,218.714
					c0-14.978-5.626-37.929-14.227-37.997v-0.003c-0.007,0-0.013,0.001-0.02,0.001c-0.006,0-0.012-0.001-0.019-0.001v0.003
					c-8.602,0.068-14.228,23.02-14.228,37.997c0,15,10.533,45.333,10.533,74s-6.771,31.333-6.771,48
					c0,16.644,5.942,16.002,10.484,16c4.542,0.002,10.484,0.644,10.484-16c0-16.667-6.771-19.333-6.771-48
					S111.519,233.714,111.519,218.714z"/>
				<path fill="#CC8D2A" stroke="#000000" stroke-width="4" stroke-miterlimit="10" d="M81.36,299.714
					c0-12.667-5-30.998-20.333-30.998s-19.333,21.332-19.333,21.332s-14.667-8.667-14.667-30.667s19.42-25.333,26.753-25.333
					s35.914,19.85,35.914,53.333s-9.334,42.667-19.334,42.667s-12-8-12-8s10,4,14,0S81.36,312.38,81.36,299.714z"/>
				<path fill="#CC8D2A" stroke="#000000" stroke-width="4" stroke-miterlimit="10" d="M112.693,299.714
					c0-12.667,5.001-30.998,20.334-30.998s19.333,21.332,19.333,21.332s14.667-8.667,14.667-30.667s-19.42-25.333-26.754-25.333
					c-7.332,0-35.913,19.85-35.913,53.333s9.333,42.667,19.333,42.667s12-8,12-8s-10,4-14,0S112.693,312.38,112.693,299.714z"/>
				<g>
					<path fill="#CC8D2A" d="M100.033,284.552c-0.775-0.107-1.678-0.171-2.76-0.171c-0.199,0-0.386,0.013-0.583,0.015
						c-0.197-0.002-0.383-0.015-0.582-0.015c-1.082,0-1.984,0.064-2.76,0.171c-12.014,0.971-18.988,6.271-18.988,10.495
						c0,4.667,3.334,7.65,3.334,7.65s-1.127-2.798,2.873-5.507c3.487-2.362,13.592-2.52,16.123-2.521
						c2.531,0.002,12.636,0.16,16.124,2.521c4,2.708,2.873,5.507,2.873,5.507s3.333-2.983,3.333-7.65
						C119.02,290.824,112.046,285.523,100.033,284.552z"/>
					<path d="M79.968,307.484l-3.608-3.296c-0.164-0.146-4-3.643-4-9.14c0-5.231,7.279-11.378,20.771-12.484
						c1.021-0.138,2.18-0.217,3.372-0.173l0.211,0.006l0.163-0.006c0.13-0.005,0.261-0.009,0.396-0.009
						c1.094,0,2.068,0.06,2.977,0.183c13.492,1.105,20.771,7.253,20.771,12.484c0,5.497-3.836,8.994-3.999,9.14l-3.155,2.824
						l-0.053-5.026c0.062-0.286,0.183-1.58-2.12-3.139c-2.213-1.498-9.13-2.173-15.005-2.178c-5.871,0.004-12.788,0.68-15,2.177
						c-2.466,1.67-2.153,3.035-2.11,3.185L79.968,307.484z M96.108,286.381c-0.932,0-1.745,0.05-2.485,0.152l-0.113,0.013
						c-11.042,0.893-17.149,5.593-17.149,8.501c0,1.06,0.221,2.02,0.536,2.85c0.583-0.784,1.405-1.587,2.55-2.363
						c3.806-2.577,13.327-2.862,17.243-2.865c3.92,0.003,13.441,0.288,17.247,2.865c1.146,0.775,1.966,1.578,2.55,2.362
						c0.314-0.83,0.535-1.79,0.535-2.849c0-2.908-6.106-7.609-17.148-8.501l-0.113-0.013c-0.74-0.103-1.554-0.152-2.485-0.152
						l-0.559,0.015L96.108,286.381z"/>
				</g>
			</g>
			<g>
				<path fill="#CC8D2A" stroke="#000000" stroke-width="4" stroke-miterlimit="10" d="M441.077,218.714
					c0-14.978-5.625-37.929-14.227-37.997v-0.003c-0.006,0-0.012,0.001-0.02,0.001c-0.006,0-0.012-0.001-0.018-0.001v0.003
					c-8.602,0.068-14.229,23.02-14.229,37.997c0,15,10.533,45.333,10.533,74s-6.771,31.333-6.771,48
					c0,16.644,5.943,16.002,10.484,16c4.543,0.002,10.484,0.644,10.484-16c0-16.667-6.771-19.333-6.771-48
					S441.077,233.714,441.077,218.714z"/>
				<path fill="#CC8D2A" stroke="#000000" stroke-width="4" stroke-miterlimit="10" d="M410.918,299.714
					c0-12.667-5-30.998-20.334-30.998c-15.332,0-19.332,21.332-19.332,21.332s-14.668-8.667-14.668-30.667
					s19.42-25.333,26.754-25.333c7.332,0,35.914,19.85,35.914,53.333s-9.334,42.667-19.334,42.667s-12-8-12-8s10,4,14,0
					S410.918,312.38,410.918,299.714z"/>
				<path fill="#CC8D2A" stroke="#000000" stroke-width="4" stroke-miterlimit="10" d="M442.25,299.714
					c0-12.667,5.002-30.998,20.334-30.998c15.334,0,19.334,21.332,19.334,21.332s14.666-8.667,14.666-30.667
					s-19.42-25.333-26.754-25.333c-7.332,0-35.912,19.85-35.912,53.333s9.332,42.667,19.332,42.667s12-8,12-8s-10,4-14,0
					S442.25,312.38,442.25,299.714z"/>
				<g>
					<path fill="#CC8D2A" d="M429.59,284.552c-0.775-0.107-1.678-0.171-2.76-0.171c-0.199,0-0.385,0.013-0.582,0.015
						c-0.197-0.002-0.383-0.015-0.582-0.015c-1.082,0-1.984,0.064-2.76,0.171c-12.014,0.971-18.988,6.271-18.988,10.495
						c0,4.667,3.334,7.65,3.334,7.65s-1.127-2.798,2.873-5.507c3.486-2.362,13.592-2.52,16.123-2.521
						c2.531,0.002,12.635,0.16,16.123,2.521c4,2.708,2.873,5.507,2.873,5.507s3.334-2.983,3.334-7.65
						C448.579,290.824,441.604,285.523,429.59,284.552z"/>
					<path d="M409.526,307.484l-3.607-3.296c-0.164-0.146-4-3.643-4-9.14c0-5.231,7.278-11.378,20.771-12.484
						c1.02-0.138,2.18-0.217,3.371-0.173l0.211,0.006l0.164-0.006c0.129-0.005,0.26-0.009,0.395-0.009
						c1.094,0,2.068,0.06,2.977,0.183c13.492,1.105,20.771,7.253,20.771,12.484c0,5.497-3.836,8.994-4,9.14l-3.154,2.824
						l-0.053-5.026c0.061-0.286,0.182-1.58-2.121-3.139c-2.213-1.498-9.129-2.173-15.004-2.178c-5.871,0.004-12.789,0.68-15,2.177
						c-2.466,1.67-2.153,3.035-2.109,3.185L409.526,307.484z M425.667,286.381c-0.932,0-1.746,0.05-2.486,0.152l-0.113,0.013
						c-11.042,0.893-17.148,5.593-17.148,8.501c0,1.06,0.221,2.02,0.535,2.85c0.584-0.784,1.404-1.587,2.55-2.363
						c3.806-2.577,13.327-2.862,17.243-2.865c3.92,0.003,13.441,0.288,17.246,2.865c1.146,0.775,1.967,1.578,2.551,2.362
						c0.314-0.83,0.535-1.79,0.535-2.849c0-2.908-6.107-7.609-17.148-8.501l-0.113-0.013c-0.74-0.103-1.555-0.152-2.486-0.152
						l-0.559,0.015L425.667,286.381z"/>
				</g>
			</g>
		</g>
	</g>
	<use xlink:href="#SVGID_1_"  overflow="visible" fill="none" stroke="#000000" stroke-width="7" stroke-miterlimit="10"/>
</g>
<radialGradient id="SVGID_8_" cx="261.8062" cy="576.1084" r="180.5935" gradientUnits="userSpaceOnUse">
	<stop  offset="0.6316" style="stop-color:#FFFFFF"/>
	<stop  offset="0.7049" style="stop-color:#F4F5F5"/>
	<stop  offset="0.8549" style="stop-color:#EAEBEB"/>
	<stop  offset="1" style="stop-color:#E6E7E8"/>
</radialGradient>
<path display="none" fill="url(#SVGID_8_)" stroke="#000000" stroke-width="3" stroke-miterlimit="10" d="M474.52,494.214
	c0,0-35,101-212.714,101s-212.714-101-212.714-101s-32,43-29,61S84.52,658.002,261.806,658.002S500.52,573.214,503.52,555.214
	S474.52,494.214,474.52,494.214z"/>
<g display="none">
	<path fill="none" d="M20.092,555.214c3,18,64.428,102.788,241.714,102.788S500.52,573.214,503.52,555.214"/>
	<path display="inline" d="M36.354,563.621l4.926-0.854c-1.247,3.154-1.034,5.575,0.639,7.262c1.118,1.128,2.766,1.467,4.944,1.018
		c2.177-0.449,4.524-1.611,7.041-3.487l21.582-16.076c-0.373-0.589-0.658-0.982-0.855-1.182c-1.542-1.554-3.61-2.078-6.205-1.571
		c-2.596,0.507-5.056,1.913-7.382,4.22l-4.628-0.88c3.709-3.303,7.566-5.089,11.571-5.357s7.426,1.027,10.264,3.89l1.354,1.364
		c-2.541,4.456-5.008,9.45-7.402,14.983l-2.714,6.273c-1.847,4.332-3.436,7.74-4.766,10.226l13.143-9.793
		c4.528-3.382,8.569-5.454,12.124-6.217c3.554-0.762,6.309-0.157,8.264,1.813c0.695,0.701,1.19,1.573,1.486,2.614l-3.706,1.646
		c0.093-1.767-0.245-3.038-1.016-3.814c-2.03-2.047-5.892-0.943-11.583,3.312l-17.125,12.756l-6.563,5.185l-2.682-0.949
		c1.164-1.831,2.98-5.607,5.452-11.329l5.197-12.063c1.391-3.223,2.696-6.04,3.916-8.452l-8.746,6.532
		c-5.537,4.119-10.409,6.663-14.616,7.631c-4.208,0.968-7.462,0.29-9.765-2.031C36.884,568.66,36.168,566.438,36.354,563.621z"/>
	<path display="inline" d="M77.966,604.27c-2.775-1.754-4.208-4.354-4.296-7.797c-0.089-3.444,1.176-7.239,3.796-11.385
		c3.93-6.218,8.906-10.712,14.928-13.482s11.052-2.879,15.091-0.326c2.752,1.739,4.18,4.309,4.283,7.705
		c0.103,3.398-1.136,7.138-3.716,11.22c-4.1,6.487-9.102,11.109-15.004,13.866S82.118,606.894,77.966,604.27z M79.646,603.072
		c2.933,1.854,6.823,1.269,11.67-1.758c4.847-3.025,9.197-7.583,13.051-13.673c4.876-7.723,5.404-12.792,1.583-15.207
		c-2.933-1.854-6.814-1.296-11.642,1.676s-9.144,7.462-12.947,13.473C76.374,595.479,75.802,600.644,79.646,603.072z"/>
	<path display="inline" d="M111.746,621.635l3.06-6.659c5.839-13.279,9.031-22.876,9.577-28.791
		c0.568-6.231-0.467-9.928-3.106-11.089c-2.382-1.047-5.428,0.159-9.136,3.62l-0.63-1.105c5.312-4.719,9.574-6.371,12.788-4.958
		c7.672,3.373,6.08,17.406-4.777,42.096l11.533-10.295c6.987-6.23,10.911-10.322,11.77-12.275c0.286-0.651-0.121-1.219-1.222-1.703
		l-1.468-0.646l0.91-1.471l7.889,3.469l-0.928,1.463l-1.522-0.67l-32.528,29.219L111.746,621.635z"/>
	<path display="inline" d="M125.622,624.467l3.692-2.872c0.422,2.982,1.617,4.771,3.584,5.367c1.878,0.567,3.976,0.005,6.294-1.689
		c2.318-1.693,5.473-4.988,9.463-9.882l14.315-17.518c-1.322-0.654-2.481-1.133-3.478-1.435c-2.67-0.808-5.013-0.493-7.03,0.941
		c-2.017,1.436-3.552,3.893-4.604,7.372l-4.545,1.473c1.263-3.298,2.777-5.883,4.543-7.757c1.957-2.09,3.917-3.405,5.879-3.947
		c1.962-0.541,4.555-0.491,7.777,0.151c0.642,0.135,1.617,0.322,2.925,0.562l4.21,0.188l-2.46,9.03l-4.511,18.919
		c-1.052,4.397-1.552,7.354-1.5,8.866c0.051,1.513,0.684,2.452,1.897,2.819c0.217,0.065,0.98,0.238,2.291,0.517l-0.786,1.698
		l-9.413-0.618l3.223-13.486l-10.443-3.159c-3.503,4.298-6.453,7.155-8.847,8.572c-2.395,1.416-4.838,1.748-7.329,0.994
		C128.406,628.858,126.69,627.156,125.622,624.467z M148.371,618.267l9.485,2.87l4.886-20.573L148.371,618.267z"/>
	<path display="inline" d="M205.616,644.99l3.333-3.893l0.339,0.031c2.02,0.186,3.466-0.272,4.339-1.376
		c0.872-1.103,1.771-3.621,2.696-7.556l5.979-25.2c-2.738-0.252-5.045,0.574-6.923,2.478c-1.877,1.904-2.969,4.516-3.274,7.833
		l-0.057,0.615l-4.109,2.272c0.852-5.617,2.818-9.646,5.898-12.089c3.08-2.441,7.397-3.407,12.952-2.896l11.722,1.079l-2.503,7.749
		l-1.256-0.116c0.173-0.717,0.287-1.364,0.34-1.942c0.135-1.472-0.373-2.543-1.524-3.213s-3.315-1.151-6.491-1.443l-0.618-0.058
		l-3.836,16.339l8.891,0.818l-2.298,2.691c-2.968-0.817-4.996-1.276-6.085-1.377l-0.997-0.092l-0.696,2.976
		c-0.777,3.345-1.732,5.964-2.864,7.858c-1.133,1.895-2.839,3.722-5.119,5.482l9.52,1.411l2.085,0.276
		c2.166,0.199,4.288-0.648,6.366-2.544l-0.525,2.208c-2.659,3.12-5.026,4.584-7.099,4.393l-0.914-0.112L205.616,644.99z"/>
	<path display="inline" d="M238.221,647.522l3.093-4.06l0.297,0.122c0.159,0.043,0.545,0.073,1.159,0.093
		c1.48,0.047,2.601-0.657,3.362-2.112c0.76-1.455,1.515-4.325,2.265-8.608l3.894-22.405l-5.062-0.16
		c-5.136-0.163-7.794,2.6-7.974,8.287c-0.021,0.673,0.013,1.508,0.101,2.503l-4.248,2.59c0.734-5.482,2.573-9.787,5.517-12.915
		c2.943-3.128,6.569-4.623,10.878-4.487l8.483,0.269c3.829,0.121,6.375-0.153,7.638-0.825c1.264-0.672,2.153-2.226,2.672-4.663
		l3.056-1.616c-1.045,3.45-2.935,6.209-5.671,8.275c-2.735,2.067-5.798,3.047-9.187,2.939l-2-0.063l-3.401,19.472
		c-0.605,3.502-1.423,6.252-2.455,8.251c-1.032,1.999-2.61,3.892-4.736,5.679l7.716,0.469l-2.913,4.065L238.221,647.522z"/>
	<path display="inline" d="M319.808,645.352l-0.727-7.293c-1.675-14.408-3.771-24.303-6.291-29.682
		c-2.661-5.664-5.423-8.33-8.286-7.998c-2.585,0.301-4.603,2.882-6.054,7.742l-1.102-0.636c2.198-6.756,5.04-10.337,8.526-10.742
		c8.325-0.967,14.045,11.945,17.158,38.736l4.747-14.712c2.879-8.908,4.195-14.423,3.949-16.542c-0.082-0.707-0.72-0.99-1.915-0.852
		l-1.592,0.185l0.041-1.729l8.561-0.995l-0.062,1.731l-1.652,0.192l-13.296,41.653L319.808,645.352z"/>
	<path display="inline" d="M339.701,641.886l2.075-4.687l0.333-0.067c1.988-0.401,3.242-1.257,3.761-2.563s0.656-3.978,0.412-8.012
		L344.77,600.7c-2.694,0.545-4.668,2-5.919,4.362c-1.251,2.363-1.547,5.178-0.887,8.443l0.123,0.605l-3.284,3.356
		c-0.797-5.625-0.071-10.049,2.177-13.272c2.249-3.224,6.107-5.389,11.575-6.494l11.538-2.333l-0.172,8.141l-1.236,0.25
		c-0.04-0.736-0.117-1.39-0.232-1.958c-0.293-1.449-1.087-2.329-2.382-2.641c-1.296-0.311-3.507-0.15-6.633,0.482l-0.608,0.123
		l1.019,16.751l8.751-1.77l-1.428,3.238c-3.077,0.069-5.152,0.212-6.225,0.429l-0.981,0.198l0.188,3.051
		c0.216,3.427,0.054,6.21-0.487,8.35s-1.65,4.381-3.328,6.722l9.524-1.383l2.077-0.334c2.132-0.432,3.921-1.853,5.367-4.265
		l0.131,2.265c-1.651,3.753-3.497,5.835-5.538,6.247l-0.908,0.155L339.701,641.886z"/>
	<path display="inline" d="M372.917,634.47l1.66-4.826l0.32,0.022c0.164-0.009,0.54-0.102,1.129-0.275
		c1.421-0.421,2.264-1.441,2.528-3.063c0.265-1.62,0.08-4.581-0.555-8.884l-3.343-22.494l-4.856,1.438
		c-4.927,1.46-6.582,4.917-4.966,10.373c0.191,0.646,0.485,1.428,0.883,2.345l-3.22,3.794c-1.025-5.436-0.632-10.101,1.179-13.995
		c1.812-3.894,4.784-6.453,8.918-7.678l8.139-2.41c3.672-1.088,6.003-2.149,6.991-3.184s1.345-2.79,1.07-5.266l2.394-2.495
		c0.093,3.604-0.835,6.816-2.783,9.638c-1.948,2.822-4.547,4.715-7.797,5.677l-1.92,0.569l2.89,19.554
		c0.525,3.514,0.613,6.382,0.263,8.604c-0.352,2.223-1.256,4.516-2.713,6.88l7.474-1.979l-1.488,4.774L372.917,634.47z"/>
	<path display="inline" d="M402.772,624.825l1.046-5.018l0.313-0.136c1.859-0.81,2.905-1.908,3.139-3.295s-0.192-4.027-1.277-7.921
		l-6.9-24.964c-2.521,1.099-4.146,2.935-4.873,5.507c-0.728,2.573-0.427,5.388,0.904,8.441l0.246,0.566l-2.506,3.971
		c-1.96-5.332-2.178-9.811-0.655-13.435c1.521-3.623,4.84-6.549,9.955-8.777l10.792-4.701l1.539,7.996l-1.156,0.504
		c-0.193-0.712-0.406-1.334-0.638-1.866c-0.591-1.355-1.552-2.05-2.883-2.082c-1.332-0.032-3.46,0.589-6.385,1.862l-0.568,0.248
		l4.509,16.165l8.186-3.565l-0.718,3.466c-2.993,0.713-4.992,1.288-5.995,1.725l-0.918,0.4l0.823,2.943
		c0.931,3.305,1.355,6.06,1.275,8.266s-0.694,4.629-1.844,7.27l9.022-3.349l1.96-0.763c1.994-0.869,3.445-2.634,4.354-5.296
		l0.604,2.188c-0.827,4.015-2.196,6.438-4.104,7.27l-0.855,0.342L402.772,624.825z"/>
	<path display="inline" d="M435.495,609.67l0.21-5.1l0.218-0.142c0.056-0.037,0.188-0.09,0.397-0.159
		c0.221-0.077,0.449-0.192,0.684-0.346c1.14-0.744,1.645-1.906,1.514-3.486c-0.131-1.579-0.916-3.911-2.354-6.995l-11.187-23.912
		c-2.303,1.503-3.598,3.585-3.885,6.246s0.481,5.389,2.306,8.183l0.338,0.518l-1.808,4.336c-2.854-5.03-3.823-9.439-2.908-13.226
		c0.915-3.787,3.787-7.257,8.614-10.408c3.767-2.458,6.734-3.674,8.904-3.647c2.169,0.027,4.078,1.304,5.727,3.83
		c2.725,4.173,2.875,9.153,0.453,14.94l10.201,6.837c3.628,2.433,5.788,3.423,6.481,2.97c0.76-0.496,1.218-2.772,1.374-6.831
		l1.139,2.441c-0.146,5.124-0.799,8.065-1.961,8.824c-1.509,0.985-4.714-0.286-9.615-3.815l-10.142-7.295l-3.168,2.068l1.079,2.313
		c2.38,5.085,2.929,9.979,1.647,14.683l6.678-4.091l-0.042,4.99L435.495,609.67z M436.292,583.936l4.442-2.899
		c1.679-4.096,1.099-8.317-1.74-12.665c-2.612-4.003-5.965-4.669-10.055-1.999l-0.654,0.427L436.292,583.936z"/>
	<path display="inline" d="M465.815,586.666l-1.027-4.563c2.879,0.888,5.006,0.568,6.382-0.959c1.313-1.457,1.697-3.595,1.151-6.414
		c-0.546-2.818-2.185-7.075-4.914-12.77l-9.759-20.41c-1.155,0.918-2.081,1.763-2.777,2.536c-1.868,2.072-2.581,4.327-2.141,6.763
		s2.01,4.87,4.711,7.304l-0.602,4.74c-2.447-2.546-4.143-5.017-5.086-7.413c-1.058-2.66-1.414-4.993-1.069-7
		c0.346-2.007,1.494-4.331,3.446-6.973c0.396-0.523,0.981-1.326,1.754-2.408l1.962-3.73l7.124,6.07l15.199,12.135
		c3.532,2.824,5.994,4.534,7.385,5.132c1.39,0.598,2.51,0.425,3.358-0.517c0.152-0.169,0.633-0.786,1.443-1.853l1.202,1.434
		l-4.566,8.254l-10.832-8.656l-7.305,8.104c2.398,5.001,3.729,8.885,3.991,11.655c0.263,2.77-0.477,5.122-2.219,7.055
		C470.974,586.017,468.704,586.845,465.815,586.666z M469.888,563.441l6.635-7.361l-16.537-13.178L469.888,563.441z"/>
</g>
</svg>
