<?xml version="1.0" encoding="utf-8"?>
<!-- Generator: Adobe Illustrator 15.0.2, SVG Export Plug-In  -->
<!DOCTYPE svg PUBLIC "-//W3C//DTD SVG 1.1//EN" "http://www.w3.org/Graphics/SVG/1.1/DTD/svg11.dtd" [
	<!ENTITY ns_flows "http://ns.adobe.com/Flows/1.0/">
]>
<svg version="1.1"
	 xmlns="http://www.w3.org/2000/svg" xmlns:xlink="http://www.w3.org/1999/xlink" xmlns:a="http://ns.adobe.com/AdobeSVGViewerExtensions/3.0/"
	 x="0px" y="0px" width="524px" height="659px" viewBox="0 0 524 659" enable-background="new 0 0 524 659" xml:space="preserve">
<defs>
</defs>
<linearGradient id="SVGID_4_" gradientUnits="userSpaceOnUse" x1="37.7891" y1="515.3037" x2="92.6834" y2="536.3757">
	<stop  offset="0" style="stop-color:#8B5E3C"/>
	<stop  offset="0.497" style="stop-color:#FDC060"/>
</linearGradient>
<path display="none" fill="url(#SVGID_4_)" stroke="#000000" stroke-width="3" stroke-miterlimit="10" d="M109.092,493.628l-72,70
	c0,0-13.529,0.171-11-15c2.53-15.171,23-55,23-55s1-8,21-9S109.092,493.628,109.092,493.628z"/>
<linearGradient id="SVGID_5_" gradientUnits="userSpaceOnUse" x1="430.9292" y1="536.375" x2="485.824" y2="515.3029">
	<stop  offset="0.503" style="stop-color:#FDC060"/>
	<stop  offset="1" style="stop-color:#8B5E3C"/>
</linearGradient>
<path display="none" fill="url(#SVGID_5_)" stroke="#000000" stroke-width="3" stroke-miterlimit="10" d="M414.52,493.628l72,70
	c0,0,13.529,0.171,11-15s-23-55-23-55s-1-8-21-9S414.52,493.628,414.52,493.628z"/>
<linearGradient id="SVGID_6_" gradientUnits="userSpaceOnUse" x1="1.5" y1="461.1279" x2="107.0923" y2="461.1279">
	<stop  offset="0" style="stop-color:#BCBEC0"/>
	<stop  offset="0.3333" style="stop-color:#E6E7E8"/>
</linearGradient>
<path display="none" fill="url(#SVGID_6_)" stroke="#000000" stroke-width="3" stroke-miterlimit="10" d="M2.092,456.628
	c0-18,7.316-28,35-28s51,8,51,8l19,57c0,0-71.883-16.141-90.941-9.07S2.092,456.628,2.092,456.628z"/>
<linearGradient id="SVGID_7_" gradientUnits="userSpaceOnUse" x1="416.52" y1="461.1279" x2="522.1118" y2="461.1279">
	<stop  offset="0.6316" style="stop-color:#E6E7E8"/>
	<stop  offset="0.6867" style="stop-color:#DBDCDD"/>
	<stop  offset="0.7932" style="stop-color:#CACBCD"/>
	<stop  offset="0.8984" style="stop-color:#BFC1C3"/>
	<stop  offset="1" style="stop-color:#BCBEC0"/>
</linearGradient>
<path display="none" fill="url(#SVGID_7_)" stroke="#000000" stroke-width="3" stroke-miterlimit="10" d="M521.52,456.628
	c0-18-7.316-28-35-28s-51,8-51,8l-19,57c0,0,71.883-16.141,90.941-9.07S521.52,456.628,521.52,456.628z"/>
<path display="none" fill="#FBB040" stroke="#000000" stroke-width="3" stroke-miterlimit="10" d="M2.092,456.628c0,0,8,6,23,6
	c9.731,10.067,11,32,11,58.345c-25-1.345-34-19.345-34-48.345S2.092,456.628,2.092,456.628z"/>
<path display="none" fill="#FBB040" stroke="#000000" stroke-width="3" stroke-miterlimit="10" d="M521.52,456.628c0,0-8,6-23,6
	c-9.73,10.067-11,32-11,58.345c25-1.345,34-19.345,34-48.345S521.52,456.628,521.52,456.628z"/>
<g>
	<defs>
		<path id="SVGID_3_" d="M261.113,3.5H10.092c0,0,0,138.937,0,258.714c0,161.081,140,299,251.714,341
			c118.286-39,251.714-175.92,251.714-337c0-119.778,0-262.714,0-262.714H261.113z"/>
	</defs>
	<radialGradient id="SVGID_8_" cx="261.8062" cy="303.3569" r="276.8339" gradientUnits="userSpaceOnUse">
		<stop  offset="0.2172" style="stop-color:#008CC1"/>
		<stop  offset="0.75" style="stop-color:#084CA1"/>
	</radialGradient>
	<use xlink:href="#SVGID_3_"  overflow="visible" fill="url(#SVGID_8_)"/>
	<clipPath id="SVGID_9_">
		<use xlink:href="#SVGID_3_"  overflow="visible"/>
	</clipPath>
	<linearGradient id="SVGID_10_" gradientUnits="userSpaceOnUse" x1="261.8066" y1="320.6279" x2="261.8066" y2="200.6279">
		<stop  offset="0" style="stop-color:#F9A01B"/>
		<stop  offset="0.1447" style="stop-color:#FCB22E"/>
		<stop  offset="0.3487" style="stop-color:#FFC645"/>
		<stop  offset="0.5575" style="stop-color:#FFD457"/>
		<stop  offset="0.7717" style="stop-color:#FFDD62"/>
		<stop  offset="1" style="stop-color:#FFE065"/>
	</linearGradient>
	
		<rect x="10.092" y="200.628" clip-path="url(#SVGID_9_)" fill="url(#SVGID_10_)" stroke="#000000" stroke-miterlimit="10" width="503.428" height="120"/>
	<g clip-path="url(#SVGID_9_)">
		<radialGradient id="SVGID_11_" cx="261.8066" cy="460.751" r="87.2844" gradientUnits="userSpaceOnUse">
			<stop  offset="0.2787" style="stop-color:#C9CACC"/>
			<stop  offset="0.75" style="stop-color:#FFFFFF"/>
		</radialGradient>
		<path fill="url(#SVGID_11_)" stroke="#000000" stroke-width="3" stroke-linecap="round" stroke-miterlimit="10" d="
			M255.129,468.415c0-5.453-6.361-3.969-6.361-0.455c0,3.796,3.077,6.872,6.871,6.872c4.098,0,7.42-3.323,7.42-7.421
			c0-4.426-3.588-8.014-8.014-8.014c-4.779,0-8.655,3.875-8.655,8.655c0,5.162,4.186,9.348,9.348,9.348
			c5.575,0,10.095-4.521,10.095-10.096c0-6.021-4.881-10.903-10.902-10.903c-6.503,0-11.775,5.272-11.775,11.775
			c0,7.024,5.693,12.717,12.717,12.717c7.586,0,13.734-6.148,13.734-13.734c0-8.19-6.641-14.832-14.833-14.832
			c-8.848,0-16.02,7.172-16.02,16.02c0,9.555,7.746,17.301,17.301,17.301c10.321,0,18.687-8.365,18.687-18.686
			c0-11.145-9.035-20.18-20.181-20.18c-12.037,0-21.795,9.758-21.795,21.794c0,12.999,10.539,23.538,23.539,23.538
			c14.04,0,25.421-11.381,25.421-25.421c0-15.163-12.291-27.455-27.455-27.455c-16.376,0-29.651,13.275-29.651,29.651
			c0,17.687,14.337,32.023,32.023,32.023c19.101,0,34.585-15.483,34.585-34.585c0-20.63-16.723-37.352-37.353-37.352
			c-22.278,0-40.34,18.06-40.34,40.34c0,24.062,19.507,43.566,43.567,43.566c25.986,0,47.053-21.065,47.053-47.053
			c0-28.064-22.751-50.817-50.815-50.817c-30.312,0-54.885,24.572-54.885,54.883c0,32.736,26.539,59.273,59.274,59.273
			c35.354,0,64.015-28.66,64.015-64.016c0-38.182-30.953-69.135-69.136-69.135c-41.238,0-74.667,33.429-74.667,74.667
			c0,44.536,36.104,80.64,80.64,80.64c48.1,0,87.092-38.991,87.092-87.092c0-51.946-42.112-94.058-94.059-94.058"/>
		<g>
			<path d="M232.293,389.443c-0.37-2.474-25.361-0.669-31.777-1.509c-6.418-0.84-9.979-3.922-10.169-3.466
				c-0.19,0.455,2.611,1.947,2.611,3.924c0,1.978-2.071,3.566-1.78,3.597c0.293,0.031,4.005-1.883,8.992-2.329
				C205.157,389.216,232.664,391.918,232.293,389.443z"/>
			<g>
				
					<path fill="#FFFFFF" stroke="#000000" stroke-width="3" stroke-linecap="round" stroke-linejoin="round" stroke-miterlimit="10" d="
					M252.145,370.177c0,0-25.544-5.214-31.971-5.214c-6.428,0-11.395,2.998-13.45,2.998c-2.055,0-5.652-1.456-8.907-1.456
					s-10.106,0-10.106,4.454c0,2.508-1.006,7.878,15.246,7.878c11.99,0,8.735,10.106,24.494,10.106
					c-13.831,0-4.324,7.537-32.803,7.537c-3.345,0,2.27,6.08,8.137,6.08c3.34,0,18.843-6.22,24.239-6.22c5.396,0,8.649,0,12.503,0
					c3.855,0,9.299-0.512,14.779-0.512"/>
				<g>
					<path d="M191.737,372.327c-0.129,3.127,2.997-1.027,7.793-1.584C196.447,370.016,191.865,370.144,191.737,372.327z"/>
					<g>
						<path fill="#FFFFFF" d="M213.49,373.355c0,0,3.02-2.313,6.424-2.313s7.195,1.993,8.351,1.993c1.157,0-3.854,3.146-7.386,3.146
							C217.344,376.182,213.49,373.355,213.49,373.355z"/>
						
							<path fill="none" stroke="#000000" stroke-width="3" stroke-linecap="round" stroke-linejoin="round" stroke-miterlimit="10" d="
							M210.964,374.727c0,0,5.055-3.684,8.949-3.684c3.896,0,5.396,1.843,12.847,1.843c-7.45,0-8.264,3.296-11.646,3.296
							c-3.384,0-6.682-2.911-7.151-2.911C213.49,373.271,210.964,374.727,210.964,374.727z"/>
						
							<path fill="none" stroke="#000000" stroke-width="3" stroke-linecap="round" stroke-linejoin="round" stroke-miterlimit="10" d="
							M219.914,371.042c0,0.835,0.857,4.112,1.2,5.139"/>
					</g>
				</g>
			</g>
		</g>
	</g>
	<g clip-path="url(#SVGID_9_)">
		<g>
			<path fill="#F4F4F0" d="M366.984,133.104c0,0,1.852,7.053,0,10.852c-1.684,3.457-5.133,6.195-8.738,7.534
				c-3.016,1.12-7.545,0.067-10.248,1.808c-2.043,1.315-3.191,4.21-3.014,6.632c0.119,1.667,1.244,3.419,2.711,4.22
				c1.941,1.059,6.631,0,6.631,0s-3.811,4.039-6.932,4.822c-2.676,0.672-6.004,0.242-8.137-1.508
				c-2.094-1.715-3.617-6.328-3.617-6.328l-2.111,3.014c0,0-1.492-4.807-1.205-7.234c0.332-2.816,1.223-4.716,3.316-6.631
				c2.18-1.994,6.08-2.137,8.439-3.918c2.023-1.528,4.219-6.329,4.219-6.329L366.984,133.104z"/>
			<path fill="none" stroke="#808285" d="M366.984,133.104c0,0,1.852,7.053,0,10.852c-1.684,3.457-5.133,6.195-8.738,7.534
				c-3.016,1.12-7.545,0.067-10.248,1.808c-2.043,1.315-3.191,4.21-3.014,6.632c0.119,1.667,1.244,3.419,2.711,4.22
				c1.941,1.059,6.631,0,6.631,0s-3.811,4.039-6.932,4.822c-2.676,0.672-6.004,0.242-8.137-1.508
				c-2.094-1.715-3.617-6.328-3.617-6.328l-2.111,3.014c0,0-1.492-4.807-1.205-7.234c0.332-2.816,1.223-4.716,3.316-6.631
				c2.18-1.994,6.08-2.137,8.439-3.918c2.023-1.528,4.219-6.329,4.219-6.329L366.984,133.104z"/>
			<path fill="#D5D5D0" d="M364.718,136.786c0,0-1.068,6.406-2.963,8.889c-1.082,1.416-2.816,2.244-4.445,2.965
				c-4.035,1.784-9.617,0.197-12.84,3.209c-2.15,2.008-3.137,5.484-2.717,8.396c0.311,2.17,3.703,5.433,3.703,5.433
				s-3.42-0.021-4.691-0.987c-2.139-1.629-3.705-7.162-3.705-7.162l-2.469,1.235c0,0,0.844-4.187,2.223-5.68
				c2.422-2.624,7.127-2.146,9.631-4.692c1.91-1.943,3.457-7.408,3.457-7.408L364.718,136.786z"/>
			<path fill="#FCFDFB" d="M370.939,72.812c0,0-5.703-4.969-6.928-9.568c-2.547-9.556,2.422-13.504,0.66-19.796
				c-2.25-8.032-8.58-11.219-8.58-11.219c9.238-4.663,20.307,1.495,26.465,9.363c0,0,1.887-8.056,5.279-11.547
				c4.881-5.023,13.197-4.62,13.197-4.62c-1.824,3.52-1.832,7.948,1.57,11.467c0,0,5.008-0.443,8.328-5.815
				c1.113-1.799,0.66-6.929,0.66-6.929c7.744,1.272,15.252,4.458,13.197,20.457c0,0,4.961-4.18,6.27-7.259
				c1.033-2.431,0.99-7.918,0.99-7.918s7.701,3.732,12.867,11.218c1.875,2.717,3.23,10.838,3.23,10.838
				c11.057-4.726,16.73-3.649,23.096,7.802c0,0-2.998,0.006-4.289,0.66c-1.941,0.984-4.619,4.62-4.619,4.62s4.758-0.787,6.93,0
				c2.422,0.877,5.938,4.949,5.938,4.949s-3.26-0.099-4.619,0.659c-3,1.675-6.6,7.919-6.6,7.919s8.268,2.787,11.551,6.068
				c6.225,6.219,6.268,14.718,6.268,14.718s-3.232-1.01-4.619-0.329c-1.424,0.697-2.639,3.959-2.639,3.959s5.422,0.461,7.324,2.903
				c3.25,4.167,0.74,12.263,2.375,17.287c0.98,3.017,5.146,6.204,5.146,6.204s-3.916,1.02-6.334,0.792
				c-1.596-0.149-5.543-1.451-5.543-1.451c12.258,23.024-4.305,43.976-17.004,46.376C457.656,117.675,442.675,62.615,370.939,72.812
				z"/>
			<path fill="none" stroke="#939598" d="M370.939,72.812c0,0-5.703-4.969-6.928-9.568c-2.547-9.556,2.422-13.504,0.66-19.796
				c-2.25-8.032-8.58-11.219-8.58-11.219c9.238-4.663,20.307,1.495,26.465,9.363c0,0,1.887-8.056,5.279-11.547
				c4.881-5.023,13.197-4.62,13.197-4.62c-1.824,3.52-1.832,7.948,1.57,11.467c0,0,5.008-0.443,8.328-5.815
				c1.113-1.799,0.66-6.929,0.66-6.929c7.744,1.272,15.252,4.458,13.197,20.457c0,0,4.961-4.18,6.27-7.259
				c1.033-2.431,0.99-7.918,0.99-7.918s7.701,3.732,12.867,11.218c1.875,2.717,3.23,10.838,3.23,10.838
				c11.057-4.726,16.73-3.649,23.096,7.802c0,0-2.998,0.006-4.289,0.66c-1.941,0.984-4.619,4.62-4.619,4.62s4.758-0.787,6.93,0
				c2.422,0.877,5.938,4.949,5.938,4.949s-3.26-0.099-4.619,0.659c-3,1.675-6.6,7.919-6.6,7.919s8.268,2.787,11.551,6.068
				c6.225,6.219,6.268,14.718,6.268,14.718s-3.232-1.01-4.619-0.329c-1.424,0.697-2.639,3.959-2.639,3.959s5.422,0.461,7.324,2.903
				c3.25,4.167,0.74,12.263,2.375,17.287c0.98,3.017,5.146,6.204,5.146,6.204s-3.916,1.02-6.334,0.792
				c-1.596-0.149-5.543-1.451-5.543-1.451c12.258,23.024-4.305,43.976-17.004,46.376C457.656,117.675,442.675,62.615,370.939,72.812
				z"/>
			<path fill="#F4F4F0" d="M415.455,29.134c-0.072,1.186-0.273,2.458-1.234,4.012c-4.189,6.777-12.893,12.501-12.893,12.501
				c-1.152,0.099-0.707-5.238-1.508-6.072c-2.689-2.784-3.736-6.197-3.703-9.515c-1.949,0.486-4.078,1.26-5.502,2.726
				c-0.914,0.939-2.219,3.496-3.035,5.708c-0.814,2.213-1.285,3.96-1.285,3.96c-0.338,1.398-1.514,2.559-2.916,2.877
				c-1.402,0.319-2.965-0.219-3.873-1.334c-2.688-3.434-6.561-6.601-10.492-8.229c-1.547-0.641-3.043-0.858-4.525-1.029
				c1.574,2.023,3.061,4.451,3.959,7.663c1.195,4.264,0.053,7.782-0.617,10.595c-0.668,2.813-1.127,5.217-0.051,9.258
				c0.318,1.196,1.699,3.333,3.086,4.937c0.807,0.936,1.057,1.076,1.543,1.543c35.652-4.484,58.838,7.379,72.363,27.67
				c12.939,19.414,17.469,45.798,19.182,72.723c3.938-2.196,8.252-6.254,10.955-11.674c3.717-7.449,4.734-16.975-0.822-27.412
				c-0.727-1.365-6.23-7.857-5.227-9.035c1-1.178,8.443,3.033,9.906,3.531c0,0,0.906,0.299,2.006,0.617
				c0.213,0.063,0.287,0.043,0.514,0.104c-0.236-0.479-0.59-0.836-0.771-1.389c6.076-20.589-16.879-19.307-15.785-24.443
				c0,0,6.531,0.714,7.146-0.449c0.617-1.164,1.127-2.697,3.6-3.909c0.684-0.334,1.15-0.304,1.697-0.411
				c-0.67-2.357-1.914-5.313-4.373-7.766c-0.879-0.883-3.572-2.42-5.861-3.446s-4.166-1.646-4.166-1.646
				c-0.973-0.314-3.205,0.402-3.652-0.511c-0.566-1.153,0.84-4.032,1.492-5.147c0,0,1.021-1.704,2.416-3.651
				c1.023-1.423,2.273-2.926,3.857-4.269c-0.543-0.041-0.869-0.104-1.645-0.051c-1.26,0.084-0.098-0.476-4.369,0.256
				c-1.525,0.262-4.641,3.037-9.85,5.24c0.076-5.433,7.217-10.178,8.148-11.411c0,0,0.762-1.036,1.801-2.211
				c0.951-1.075,2.127-2.243,3.857-3.24c-8.893-10.063-17.68,5.665-25.607,9.384c3.166-10.015,5.348-16.162,2.516-23.322
				c-1.297-3.283-4.451-5.092-6.582-6.737c-0.168,0.932-0.094,1.787-0.516,2.777c-1.098,2.586-2.93,4.396-4.475,5.966
				c-1.543,1.569-2.879,2.726-2.879,2.726c-1.189,1.023-6.195,5.178-8.746,5.893c-0.494-3.398,2.145-7.836,2.367-9.39
				c0.949-7.376-0.297-10.805-1.953-12.703C418.087,30.406,416.875,29.691,415.455,29.134z"/>
			<path fill="#D5D5D0" d="M374.734,67.483c0,0,0.352-6.932,0-10.372c-0.416-4.073-2.488-12.031-2.488-12.031
				s4.484,7.433,6.637,11.202c1.566,2.741,4.564,8.296,4.564,8.296s12.238-4.174,17.424-7.882c5.094-3.642,9.652-8.313,12.861-13.69
				c1.344-2.253,2.488-7.468,2.488-7.468s0.563,6.686,0,9.957c-1.193,6.941-7.053,19.914-7.053,19.914s14.457-5.218,20.328-9.956
				c2.605-2.103,5.125-4.72,6.223-7.882c0.635-1.829,0-5.809,0-5.809s2.627,5.413,2.49,8.297c-0.191,4.027-3.109,7.441-4.564,11.201
				c-1.594,4.121-4.563,12.445-4.563,12.445l7.053,0.416c0,0,9.947-12.275,17.01-14.936c1.811-0.683,5.807,0,5.807,0
				s-4.525,2.011-6.223,3.734c-5.609,5.693-12.029,20.742-12.029,20.742s8.578-6.023,13.275-8.297
				c1.85-0.896,5.807-2.074,5.807-2.074s-4.084,3.68-5.807,5.809c-2.078,2.563-5.395,8.297-5.395,8.297s9.129-2.398,13.275-0.83
				c3.477,1.314,7.883,7.883,7.883,7.883s-5.324-3.154-8.299-3.319c-4.152-0.231-12.029,3.319-12.029,3.319
				s18.211,8.168,24.061,15.765c1.602,2.079,2.49,7.467,2.49,7.467s-4.17-4.989-7.053-6.222c-4.467-1.912-14.52-1.245-14.52-1.245
				s13.146,16.776,17.01,26.551c1.395,3.531,3.848,7.845,2.072,11.202c-2.4,4.543-14.104,6.223-14.104,6.223
				C451.83,85.94,416.216,71.126,374.734,67.483z"/>
			<path fill="#E5E5E1" d="M324.951,138.452c8.137,10.456,16.145,2.203,22.516-3.053c5.566-4.591,21.85-6.123,21.85-6.123
				l-5.445-8.629c0,0-14.771,0.034-19.766,5.623C338.279,132.792,334.492,140.835,324.951,138.452z"/>
			<path fill="#F4F4F0" d="M324.824,138.296c0,0,3.695,3.18,5.967,3.523c2.146,0.325,4.566-0.154,6.443-1.061
				c4.41-2.129,8.605-8.36,13.012-10.498c5.781-2.805,17.777-3.266,17.777-3.266l-4.176-6.338c0,0-5.352,0.168-7.953,0.607
				c-2.504,0.424-4.994,0.979-7.33,1.947c-1.184,0.488-2.346,1.083-3.348,1.936c-2.045,1.741-3.506,4.313-5.32,6.389
				c-1.324,1.516-2.539,3.209-4.063,4.43c-1.232,0.984-2.592,1.793-4.047,2.285c-1.18,0.4-2.453,0.527-3.725,0.52
				C326.994,138.763,324.824,138.296,324.824,138.296z"/>
			<path fill="#FCFDFB" d="M365.468,123.456l-1.598-2.809c0,0-5.656-0.602-11.059,0.662c-3.486,0.815-6.748,2.768-8.707,4.961
				c-5.826,6.521-9.613,14.564-19.154,12.182c0,0,5.809,3.028,8.691,2.074c5.699-1.885,9.844-10.563,15.221-13.301
				C354.119,124.55,365.468,123.456,365.468,123.456z"/>
			<path fill="none" stroke="#6B6B6B" stroke-width="2.441" d="M324.951,138.452c8.137,10.456,16.145,2.203,22.516-3.053
				c5.566-4.591,21.85-6.123,21.85-6.123l-5.445-8.629c0.004-0.004-13.57-1.725-19.766,5.623
				C338.435,132.997,334.492,140.835,324.951,138.452z"/>
			<path fill="#FCFDFB" d="M285.57,11.726c-0.217,0.271,2.572,3.246,3.105,3.99c-0.176,1.273,0.148,2.322,2.176,2.671
				c0.049,2.005,0.846,3.396,3.244,3.475c0.514,3.879,2.662,3.651,4.182,4.173c0.262,2.766,1.293,4.696,4.986,4.764
				c0.479,4.673,3.063,4.861,5.658,5.25c0.662,3.481,2.58,5.56,6.199,5.629c0.756,3.838,3.18,5.56,6.607,5.902
				c0.848,3.775,3.496,5.37,6.885,6.069c0.986,3.128,2.238,5.783,7.031,6.129c1.48,5.892,4.518,5.048,7.043,6.084
				c1.359,6.391,4.531,4.931,6.924,5.932c0.645,6.308,4.223,5.214,6.674,5.673c0.555,5.631,3.875,4.758,6.291,5.311
				c-0.018,5.771,3.322,4.777,5.775,4.838c-1.063,6.542,4.717,5.037,5.129,4.262l5.016-6.311l5.014-6.311
				c0.664-0.578,0.822-6.547-5.311-4.035c-0.613-2.375-0.398-5.854-6.02-4.533c-1.082-2.227-0.982-5.66-6.592-4.928
				c-1.002-2.283-0.744-6.018-7.035-5.219c-1.516-2.104-0.811-5.524-7.342-5.405c-1.58-2.226-1.445-5.375-7.518-5.486
				c-1.42-4.59-4.291-5.211-7.561-5.464c-1.447-3.145-3.598-5.363-7.467-5.336c-1.109-3.263-3.334-5.235-7.242-5.104
				c-0.887-3.509-3.344-4.908-6.885-4.767c-0.965-2.441-1.732-4.915-6.393-4.326c-0.9-3.583-3.014-4.15-5.768-3.78
				c-0.852-1.362-1.115-3.507-5.01-3.131c-0.617-2.319-2.154-2.78-4.117-2.375c-0.799-1.896-1.895-1.975-3.094-1.516
				C289.312,13.5,285.785,11.456,285.57,11.726z"/>
			<path fill="#E5E5E1" d="M285.57,11.726c-0.217,0.271,2.572,3.246,3.105,3.99c-0.176,1.273,0.148,2.322,2.176,2.671
				c0.049,2.005,0.846,3.396,3.244,3.475c0.514,3.879,2.662,3.651,4.182,4.173c0.262,2.766,1.293,4.696,4.986,4.764
				c0.479,4.673,3.063,4.861,5.658,5.25c0.662,3.481,2.58,5.56,6.199,5.629c0.756,3.838,3.18,5.56,6.607,5.902
				c0.848,3.775,3.496,5.37,6.885,6.069c0.986,3.128,2.238,5.783,7.031,6.129c1.48,5.892,4.518,5.048,7.043,6.084
				c1.359,6.391,4.531,4.931,6.924,5.932c0.645,6.308,4.223,5.214,6.674,5.673c0.555,5.631,3.875,4.758,6.291,5.311
				c-0.018,5.771,3.322,4.777,5.775,4.838c-1.063,6.542,4.717,5.037,5.129,4.262l2.508-3.155
				C354.312,70.16,311.781,36.563,285.57,11.726z"/>
			<path fill="#E5E5E1" d="M285.57,11.726l95.432,70.683l2.508-3.154c0.664-0.578,0.822-6.547-5.311-4.035
				c-0.611-2.375-0.398-5.854-6.018-4.533c-1.084-2.229-0.982-5.66-6.594-4.928c-1.002-2.284-0.744-6.018-7.035-5.219
				c-1.516-2.105-0.811-5.525-7.342-5.405c-1.58-2.226-1.445-5.375-7.518-5.486c-1.42-4.59-4.291-5.211-7.561-5.464
				c-1.447-3.145-3.598-5.363-7.467-5.336c-1.109-3.263-3.334-5.235-7.242-5.104c-0.885-3.509-3.344-4.908-6.885-4.767
				c-0.965-2.441-1.732-4.915-6.393-4.326c-0.9-3.583-3.014-4.15-5.768-3.781c-0.852-1.362-1.115-3.506-5.01-3.13
				c-0.617-2.319-2.152-2.78-4.117-2.375c-0.799-1.896-1.895-1.975-3.094-1.516C289.312,13.5,285.785,11.456,285.57,11.726z"/>
			<polygon fill="#FCFDFB" points="302.054,20.814 294.101,21.899 291.867,20.645 290.902,18.314 297.837,17.985 300.857,18.516 			
				"/>
			<polygon fill="#FCFDFB" points="313.917,28.801 302.753,30.625 299.337,29.352 298.41,25.667 308.123,24.948 312.617,25.223 			
				"/>
			<polygon fill="#FCFDFB" points="329.351,38.84 314.138,41.777 310.47,39.794 309.029,35.859 322.873,33.796 326.677,35.511 
				329.349,38.84 			"/>
			<path fill="#FCFDFB" d="M343.601,49.677l-15.557,3.754c0,0-2.664-1.459-3.744-2.502c-0.975-0.941-2.371-3.3-2.371-3.3
				l14.793-3.166c0,0,2.939,0.979,4.146,1.907C342.001,47.241,343.601,49.677,343.601,49.677z"/>
			<path fill="#FCFDFB" d="M358.474,60.723l-16.582,4.743c0,0-3.416-0.604-4.508-1.678c-0.984-0.969-1.68-4.289-1.68-4.289
				l15.748-4.077c0,0,3.594,0.246,4.824,1.189C357.433,57.499,358.474,60.723,358.474,60.723z"/>
			<path fill="#FCFDFB" d="M372.072,70.853l-16.682,6.068c0,0-3.131,0.093-4.125-0.92c-0.896-0.914-1.523-4.701-1.523-4.701
				l15.809-5.326c0,0,3.412,0.12,4.553,0.99C371.177,67.781,372.072,70.853,372.072,70.853z"/>
			<path fill="#FCFDFB" d="M383.9,79.592l-16.584,7.749c0,0-2.543,0.074-3.395-0.844c-0.77-0.83-1.461-4.241-1.461-4.241
				l15.678-6.917c0,0,3.99-0.793,4.996-0.033C384.082,76.021,383.9,79.592,383.9,79.592z"/>
			<path fill="none" stroke="#6D6E71" stroke-width="2.1547" d="M285.57,11.726c-0.217,0.271,2.572,3.246,3.105,3.99
				c-0.176,1.273,0.148,2.322,2.176,2.671c0.049,2.005,0.846,3.396,3.244,3.475c0.514,3.879,2.662,3.651,4.182,4.173
				c0.262,2.766,1.293,4.696,4.986,4.764c0.479,4.673,3.063,4.861,5.658,5.25c0.662,3.481,2.58,5.56,6.199,5.629
				c0.756,3.838,3.18,5.56,6.607,5.902c0.848,3.775,3.496,5.37,6.885,6.069c0.986,3.128,2.238,5.783,7.031,6.129
				c1.48,5.892,4.518,5.048,7.043,6.084c1.359,6.391,4.531,4.931,6.924,5.932c0.645,6.308,4.223,5.214,6.674,5.673
				c0.555,5.631,3.875,4.758,6.291,5.311c-0.018,5.771,3.322,4.777,5.775,4.838c-1.063,6.542,4.717,5.037,5.129,4.262l5.016-6.311
				l5.014-6.311c0.664-0.578,0.822-6.547-5.311-4.035c-0.613-2.375-0.398-5.854-6.02-4.533c-1.082-2.227-0.982-5.66-6.592-4.928
				c-1.002-2.283-0.744-6.018-7.035-5.219c-1.516-2.104-0.811-5.524-7.342-5.405c-1.58-2.226-1.445-5.375-7.518-5.486
				c-1.42-4.59-4.291-5.211-7.561-5.464c-1.447-3.145-3.598-5.363-7.467-5.336c-1.109-3.263-3.334-5.235-7.242-5.104
				c-0.887-3.509-3.344-4.908-6.885-4.767c-0.965-2.441-1.732-4.915-6.393-4.326c-0.9-3.583-3.014-4.15-5.768-3.78
				c-0.852-1.362-1.115-3.507-5.01-3.131c-0.617-2.319-2.154-2.78-4.117-2.375c-0.799-1.896-1.895-1.975-3.094-1.516
				C289.312,13.5,285.785,11.456,285.57,11.726z"/>
			<path fill="#D5D5D0" d="M466.82,123.133c-1.824-17.856-12.25-39.093-28.74-52.011c-7.898-6.188-17.037-10.924-27.004-13.359
				c-1.697-2.709-3.053-5.729-5.711-7.469c-7.234-4.731-14.648-8.48-18.26-12.267c-6.271-6.574-8.732-10.848-10.918-16.356
				c-1.377,12.695-1.408,25.255,7.77,36.896c0,0-13.111,1.263-18.664,3.653c-8.281,3.565-16.908,8.837-23.525,15.987
				c-3.025,3.268-1.213,6.821-3.379,10.713c-3.822,6.434-12.717,15.625-17.842,21.201c0,0-3.904,2.073-5.043,3.979
				c-0.926,1.55-1.057,3.95,0,5.413c0.834,1.158,2.498,3.312,3.033,4.846c0.617,1.768,0.426,5.691,1.027,7.465
				c1.031,3.049,6.07,3.973,6.07,3.973s8.713-2.637,11.768-8.033c1.047-1.85,0.783-7.742,2.34-9.191
				c3.088-2.879,8.756-2.572,12.633-0.903c1.963,0.847,3.342,2.95,4.061,4.964c1.111,3.115,0.695,6.764-1.643,9.104
				c-2.021,2.021-5.027,1.527-7.545,2.876c-3.348,1.79-5.701,7.421-5.701,7.421s5.576,2.748,8.572,2.706
				c7.799-0.109,13.336-1.402,18.244-7.464c2.287-2.827,1.945-7.621,3.984-10.623c2.836-4.176,7.719-6.947,12.512-8.531
				c3.572-1.182,11.279-0.452,11.279-0.452s0.697,7.786-0.301,11.48c-4.496,16.633-16.025,27.729-22.459,43.713
				c-0.631,1.567-1.236,3.249-1.834,4.973h98.941C466.886,160.26,468.005,134.722,466.82,123.133z"/>
			<path fill="#E5E5E1" d="M319.564,131.823c-0.602-1.773-0.412-5.697-1.027-7.465c-0.535-1.534-2.199-3.688-3.033-4.846
				c-1.057-1.463-0.926-3.863,0-5.413c1.139-1.906,5.043-3.979,5.043-3.979c5.125-5.576,14.02-14.768,17.842-21.201
				c2.166-3.892,0.354-7.445,3.379-10.713c6.617-7.15,15.244-12.422,23.525-15.987c5.553-2.391,18.664-3.654,18.664-3.654
				c-1.201-1.521,1.615,1.74,4.439,4.124c2.402,2.029,3.064,2.734,4.287,1.939c1.924-1.252,1.549-2.787,0.709-4.529
				c-0.895-1.854-7.932-7.685-9.152-9.915c-6.004-10.96-8.801-21.615-8.053-28.514c2.186,5.508,4.646,9.782,10.918,16.356
				c3.611,3.787,11.025,7.536,18.258,12.267c2.66,1.74,4.016,4.76,5.713,7.469c9.967,2.435,19.105,7.172,27.004,13.359
				c16.49,12.918,23.602,33.74,25.428,51.596c0.844,8.275-0.521,22.628-0.301,38.6c0,0-9.787,8.392-17.781,7.455
				c-6.984-0.818-18.02-9.735-18.02-9.735s-13.496,6.19-20.92,6.421c-8.797,0.273-25.309-7.527-25.309-7.527
				c5.623-9.184,11.684-17.77,14.66-28.782c0,0,3.064-1.536,3.605-2.631c2.76-5.579,2.07-6.835,2.07-6.835s5.92-1.988,8.701-4.351
				c3.443-2.925,7.131-8.065,8.906-12.22c1.668-3.906,2.369-7.363,2.072-11.601c-0.182-2.573-1.504-6.53-2.9-8.699
				c-1.512-2.349-6.008-5.179-6.008-5.179s1.277,7.141,1.244,10.979c-0.031,3.428-0.361,6.977-1.658,10.149
				c-1.404,3.44-3.582,6.715-6.42,9.114c-2.689,2.271-6.111,3.715-9.529,4.557c-5.568,1.369-11.043,1.007-16.777,1.035
				c-2.625,0.014-7.871-0.207-7.871-0.207l5.283,4.389c-2.416,0.574-3.492,2.489-4.869,4.104c-2.295-4.161-5.021-5.077-9.734-5.386
				c0,0,4.021,8.451,3.729,13.049c-0.168,2.619-1.596,5.259-3.521,7.043c-2.68,2.483-5.785,3.224-9.322,4.143
				c-3.584,0.932-11.031,1.336-11.031,1.336s2.094-5.537,5.439-7.327c2.52-1.349,5.525-0.854,7.547-2.876
				c2.338-2.34,2.754-5.988,1.643-9.104c-0.719-2.014-1.092-7.137-3.055-7.982c-2.617-1.128-4.852-3.164-8.17-3.164
				c-3.01,0-6.236,3.583-8.375,5.703c-2.711,2.687,0.229,7.06-2.627,9.592c-1.238,1.098-4.496,4.497-7.354,5.373
				C323.013,133.331,319.564,131.823,319.564,131.823z"/>
			<path fill="#F4F4F0" d="M404.097,122.782c0,0,4.887-2.246,7.666-4.608c3.443-2.925,8.684-10.133,10.459-14.288
				c1.668-3.906,1.334-8.911,1.037-13.148c-0.182-2.573-2.021-7.822-3.416-9.992c-1.514-2.348-11.174-10.086-11.174-10.086
				s2.309,12.049,2.275,15.887c-0.029,3.427-0.361,6.976-1.656,10.148c-1.406,3.441-3.582,6.715-6.422,9.114
				c-2.689,2.272-3.785,3.458-7.203,4.298c-5.568,1.37-11.043,1.008-16.777,1.037c-2.625,0.012-13.039-1.241-13.039-1.241
				l9.16,6.714c-2.418,0.574-1.428,1.197-2.803,2.813c-2.295-4.16-7.865-5.853-12.578-6.161c0,0,4.799,11.293,4.504,15.892
				c-0.168,2.619-1.338,3.967-3.262,5.75c-2.682,2.484-5.785,3.225-9.322,4.143c-3.584,0.932-9.74,2.887-9.74,2.887
				s2.094-5.537,5.441-7.327c2.518-1.349,5.523-0.854,7.545-2.876c2.338-2.34,5.338-5.471,4.225-8.588
				c-0.717-2.013-3.674-10.236-5.637-11.081c-2.615-1.128-4.85-3.165-8.17-3.165c-1.93,0-4.227,0.895-6.191,2.51
				c-0.553,0.454-2.988,0.219-5.373,0.625c-2.369,0.402-4.691,2.025-5.074,2.404c-0.846,1.098-0.875,3.92,0.26,4.953
				c1.113,1.014,3.291,0.373,3.779,1.369c1.359,2.779-0.045,4.398-1.912,5.991c-3.375,2.877-6.332,4.1-8.49,3.637
				c-2.074-0.444-3.41-2.446-3.672-6.032c-0.535-1.534-2.199-3.688-3.033-4.846c-1.057-1.463-0.926-3.863,0-5.413
				c1.139-1.906,5.043-3.979,5.043-3.979c5.125-5.576,14.02-14.768,17.842-21.201c2.166-3.892,0.354-7.445,3.379-10.713
				c6.619-7.15,15.244-12.422,23.525-15.987c5.553-2.391,18.664-3.653,18.664-3.653c3.785,2.213,6.014,6.447,9.057,6.27
				c1.168-0.068,5.918-1.896,5.445-4.153c-0.682-3.252-11.182-10.23-14.885-16.078c-4.848-7.656-3.432-14.755-7.387-22.934
				c2.186,5.508,4.646,9.782,10.918,16.356c3.611,3.787,11.027,7.536,18.26,12.267c2.658,1.74,4.014,4.76,5.713,7.469
				c9.967,2.435,19.104,7.172,27.002,13.359c16.49,12.918,20.244,33.74,22.07,51.596c0.846,8.275-0.521,19.826-0.301,35.799
				c0,0-6.43,8.391-14.422,7.455c-6.986-0.818-18.021-9.735-18.021-9.735s-13.496,6.19-20.92,6.421
				c-8.797,0.273-18.111-5.773-18.111-5.773c8.736-9.539,12.385-19.601,15.725-34.102H404.097z"/>
			<path fill="#FCFDFB" d="M411.683,69.03c27.896,11.039,21.145,49.038-1.166,54.919c-3.008,12.728-6.725,22.456-13.99,31.372
				c2.813,1.52,8.258,4.242,14.041,4.063c3.031-0.095,4.096-0.957,8.281-2.497c4.188-1.539,7.457-3.034,7.457-3.034
				c0.873-0.407,1.969-0.284,2.727,0.309c0,0,2.662,2.167,6.172,4.423c3.508,2.257,7.988,4.484,10.543,4.783
				c5.621,0.658,7.854-5.125,8.586-5.966c-0.135-15.44,1.078-26.884,0.309-34.407c-1.811-17.7-2.588-35.722-18.152-47.914
				c-7.633-5.979-12.348-9.508-21.918-11.845C414.341,65.809,413.699,66.458,411.683,69.03z M401.154,58.209
				c0.551,1.074,0.473,3.134,0.051,4.266c-0.381,1.026-2.119,2.506-2.119,2.506l-3.371,0.674l-9.172-3.47l7.996,5.781
				c0,0,4.021,1.824,5.973,1.734c1.893-0.088,3.971-0.318,5.492-1.445c1.574-1.169,2.598-3.11,3.082-5.011
				c0.336-1.318,0.723-2.987-0.502-5.712c-1.42-3.155-2.828-5.462-4.648-6.653c-7.074-4.626-14.465-9.152-18.721-13.614
				c-3.121-3.271-7.258-10.191-9.023-12.863c0.475,9.229,6.076,16.924,11.965,22.388C393.476,51.729,398.978,53.978,401.154,58.209z
				 M381.507,63.733c-2.475,0.471-5.186-0.129-7.576,0.24c-3.893,0.602-8.561,1.606-10.801,2.572
				c-8.029,3.455-16.4,7.631-22.682,14.416c-1.01,1.092-1.109,2.254-1.285,3.921c-0.176,1.669-0.244,4.065-1.646,6.583l-0.051,0.051
				c-4.172,7.025-11.475,14.898-16.551,20.421c-0.209,0.211-0.453,0.386-0.719,0.515c0,0-0.863,0.465-1.852,1.131
				c-0.99,0.666-2.148,1.646-2.16,1.852l-0.154,2.521c0.752,1.491,2.25,2.888,2.881,4.147c1.918,3.842,1.58,5.74,3.063,5.9
				c1.197,0.129,5.701-0.641,7.24-4.283c0.408-0.965,0.428-1.676,0.885-2.959c-1.854-6.725,0.432-8.454,5.887-9.602
				c0.842-0.76,1.805-1.565,2.838-2.307c1.818-1.306,3.83-2.572,6.377-2.572c4.379,0,7.074,2.592,9.207,3.344
				c5.936,2.089,7.52-3.525,11.725-2.367c3.846,1.061,2.588,0.349,5.504,0.67c2.916,0.32,6.391,0.621,7.252,0.617
				c25.838-0.004,30.334-18.081,23.633-34.033C392.339,75.927,383.039,65.538,381.507,63.733z M361.144,127.419
				c-0.236,0.582-0.41,1.201-0.721,1.697c-1.137,1.824-2.623,3.291-3.805,4.474c-1.539,1.539-3.404,2.091-4.834,2.417
				c-1.432,0.328-2.527,0.516-3.293,0.926c-0.094,0.051-0.205,0.289-0.309,0.36c1.197-0.35,1.658-0.507,2.676-0.771
				c3.582-0.931,6.115-1.539,8.229-3.497c1.82-1.688,2.295-2.097,2.416-4.012C361.519,128.782,361.195,127.819,361.144,127.419z"/>
			<path fill="#F4F4F0" d="M344.48,80.733c0,0,5.025,2.751,6.016,1.681c8.857-9.572,16.881-10.734,29.602-7.037l-3.297,3.151
				c6.125,14.271-13.672,22.055-22.975,15.744c-2.9,3.855-7.85,2.918-12.432,2.962c1.492-1.022,6.857-1.924,7.184-5.044
				c0.367-3.529-4.115-5.346-4.143-7.402C344.404,82.552,344.765,81.835,344.48,80.733z"/>
			<path fill="#E5E5E1" d="M348.425,84.371l3.781,0.146l6.906-5.525l8.434-2.545l9.742-0.436l-2.035,2.035
				c5.248,13.993-16.852,22.784-22.902,9.233c-3.604,0.06-5.992-0.929-6.615-4.581L348.425,84.371z"/>
			<path fill="#928A70" d="M371.615,75.356c-5.836-0.146-10.643,1.306-14.129,3.765c-1.352,0.952-2.23,1.777-3.049,2.665
				s-1.58,1.592-2.984,1.954c-3.08,0.849-4.395-1.391-5.707-1.183c0,0,0.346,1.066,1.285,1.902c0.938,0.836,2.572,1.459,4.834,0.875
				c1.764-0.455,2.852-1.439,3.754-2.418s1.619-1.945,2.727-2.726c4.6-4.087,16.232-2.858,19.389-4.269
				C375.593,75.575,373.56,75.407,371.615,75.356z"/>
			<path fill="#D5D5D0" d="M333.14,120.126c0,0-1.225-1.398-1.602-2.533c-0.355-1.075,0.055-2.381,0.668-3.334
				c0.947-1.472,4.533-2.933,4.533-2.933s-4.506-0.146-5.867,0.534c-1.209,0.604-2.172,1.736-2.801,2.933
				c-0.506,0.964-0.807,2.12-0.666,3.2c0.115,0.887,0.484,1.865,1.201,2.4c0.613,0.459,1.5,0.442,2.266,0.4
				C331.66,120.749,333.14,120.126,333.14,120.126z"/>
			<path fill="#928A70" d="M370.707,112.951c0,0,9.863,3.896,16.152,4.593c3.135,0.347,8.422,0.344,11.623-0.669
				c8-2.53,11.494-6.675,15.873-13.588c3.113-4.917,3.893-11.408,3.125-17.017c-0.666-4.854-6.424-10.517-6.424-10.517
				c2.205,3.669,4.113,6.647,4.873,10.289c1.049,5.032,0.154,10.71-2.943,15.66c-4.289,6.854-7.555,10.943-15.068,13.32
				c-2.547,0.806-8.012,1.024-10.852,0.565L370.707,112.951z"/>
			<path fill="#FFFFFF" d="M354.757,86.228c1.51,3.679,7.264,5.953,12.656,3.736s7.563-6.594,6.055-10.273
				c-1.512-3.68-5.725-4.281-11.115-2.064C356.96,79.843,353.248,82.548,354.757,86.228z"/>
			<path fill="#635020" d="M360.919,79.819c2.246-0.922,4.986,0.125,5.924,2.413c0.939,2.287-0.207,5.075-2.471,6.005
				c-2.262,0.93-4.922-0.313-5.854-2.583S358.673,80.743,360.919,79.819z"/>
			<path fill="#2C2513" d="M361.382,82.023c1.191-0.49,2.553,0.038,3.021,1.182c0.469,1.143-0.141,2.624-1.271,3.089
				c-1.129,0.465-2.457-0.146-2.951-1.354C359.687,83.735,360.189,82.515,361.382,82.023z"/>
			<path fill="#FFFFFF" d="M360.185,82.228c0.662-0.272,1.264-0.012,1.486,0.529c0.207,0.504-0.137,1.34-0.635,1.545
				c-0.537,0.221-1.143-0.031-1.416-0.701C359.33,82.894,359.486,82.515,360.185,82.228z"/>
			<path fill="#A7A391" d="M369.527,75.474c-2.186-0.381-4.752,0.079-7.561,1.234c-2.752,1.131-5.1,2.375-6.686,3.96
				s-2.334,3.732-1.439,5.915c1.791,4.361,8.098,6.72,13.938,4.319c2.865-1.177,4.963-2.979,6.121-5.04
				c1.156-2.061,1.332-4.411,0.463-6.531C373.492,77.21,371.712,75.854,369.527,75.474z M369.218,77.428
				c1.646,0.286,2.703,1.063,3.344,2.623c0.639,1.56,0.488,3.233-0.412,4.835c-0.898,1.602-2.563,3.127-5.092,4.166
				c-4.943,2.031-10.135-0.193-11.365-3.189c-0.613-1.498-0.266-2.564,0.977-3.806s3.43-2.413,6.068-3.497
				C365.322,77.497,367.574,77.142,369.218,77.428z"/>
			<path fill="#928A70" d="M376.568,23.004l-0.967,3.309c1.416,10.734,5.719,18.781,10.527,23.497
				c2.404,2.358,4.781,4.138,6.686,5.503s3.393,2.449,3.754,2.932c1.094,1.46,1.143,2.54,0.875,3.446
				c-0.268,0.907-0.939,1.637-1.492,2.006c-1.098,0.733-2.139,0.91-3.188,0.771c-1.051-0.139-2.139-0.629-3.189-1.338
				c-2.098-1.417-4.006-3.705-5.348-5.188l-1.234,1.177c1.305,1.441,3.283,3.798,5.656,5.4c1.188,0.801,2.508,1.41,3.908,1.594
				c1.402,0.186,2.867-0.09,4.27-1.027c0.834-0.558,1.803-1.549,2.211-2.932c0.41-1.382,0.154-3.152-1.182-4.938
				c-0.766-1.021-2.182-1.89-4.064-3.24c-1.881-1.35-4.168-3.082-6.479-5.349C382.689,44.093,377.931,33.344,376.568,23.004z"/>
			<path fill="#928A70" d="M328.24,121.375c0.939,0.76,2.506,0.518,3.27,0.283c0.762-0.233,1.336-0.617,1.336-0.617
				c1.424-1.528-0.295-2.341-1.131-1.8c0,0-0.342,0.213-0.822,0.359c-0.48,0.148-0.957,0.162-1.131,0.052
				c-0.744-0.474-0.99-0.899-1.133-1.389s-0.16-1.155,0.053-2.108c0.338-1.52,1.676-2.774,3.291-3.446
				c3.66-1.522,5.709-1.44,5.709-1.44c-2.291-0.871-4.605-0.758-6.545-0.033c-1.842,0.688-3.346,1.93-4.17,3.404
				C325.791,116.747,325.623,119.254,328.24,121.375z"/>
			<path fill="#928A70" d="M362.677,116.569c1.063,1.564,2.756,3.259,3.754,4.163c0.822,0.835,1.762,1.896,2.16,2.571
				c0.426,0.73,0.939,2.144,1.285,3.344c0.346,1.199,0.566,2.211,0.566,2.211l1.594-0.359c0,0-0.205-1.012-0.566-2.264
				c-0.361-1.251-0.842-2.731-1.439-3.754c-0.568-0.971-1.557-2.008-2.418-2.881C366.302,117.95,364.718,117.342,362.677,116.569z"
				/>
			<path fill="none" stroke="#8A826A" stroke-width="0.95" d="M466.82,123.133c-1.824-17.856-12.25-39.093-28.74-52.011
				c-7.898-6.188-17.037-10.924-27.004-13.359c-1.697-2.709-3.053-5.729-5.711-7.469c-7.234-4.731-14.648-8.48-18.26-12.267
				c-6.271-6.574-7.881-10.848-10.918-16.356c-1.377,12.695-1.408,25.255,7.77,36.896c0,0-13.111,1.263-18.664,3.653
				c-8.281,3.565-16.908,8.837-23.525,15.987c-3.025,3.268-1.213,6.821-3.379,10.713c-3.822,6.434-12.717,15.625-17.842,21.201
				c0,0-3.904,2.073-5.043,3.979c-0.926,1.55-1.057,3.95,0,5.413c0.834,1.158,2.498,3.312,3.033,4.846
				c0.617,1.768,0.426,5.691,1.027,7.465c1.031,3.049,6.07,3.973,6.07,3.973s8.713-2.637,11.768-8.033
				c1.047-1.85,0.783-7.742,2.34-9.191c3.088-2.879,8.756-2.572,12.633-0.903c1.963,0.847,3.342,2.95,4.061,4.964
				c1.111,3.115,0.695,6.764-1.643,9.104c-2.021,2.021-5.027,1.527-7.545,2.876c-3.348,1.79-5.701,7.421-5.701,7.421
				s5.576,2.748,8.572,2.706c7.799-0.109,13.336-1.402,18.244-7.464c2.287-2.827,1.945-7.621,3.984-10.623
				c2.836-4.176,7.719-6.947,12.512-8.531c3.572-1.182,11.279-0.452,11.279-0.452s0.697,7.786-0.301,11.48
				c-4.496,16.633-16.025,27.729-22.459,43.713c-0.631,1.567-1.236,3.249-1.834,4.973h98.941
				C466.886,160.26,468.005,134.722,466.82,123.133z"/>
		</g>
		<g>
			<path fill="#F4F4F0" d="M106.918,133.104c0,0,1.852,7.053,0,10.852c-1.684,3.457-5.133,6.195-8.738,7.534
				c-3.016,1.12-7.545,0.067-10.248,1.808c-2.043,1.315-3.191,4.21-3.014,6.632c0.119,1.667,1.244,3.419,2.711,4.22
				c1.941,1.059,6.631,0,6.631,0s-3.811,4.039-6.932,4.822c-2.676,0.672-6.004,0.242-8.137-1.508
				c-2.094-1.715-3.617-6.328-3.617-6.328l-2.111,3.014c0,0-1.492-4.807-1.205-7.234c0.332-2.816,1.223-4.716,3.316-6.631
				c2.18-1.994,6.08-2.137,8.439-3.918c2.023-1.528,4.219-6.329,4.219-6.329L106.918,133.104z"/>
			<path fill="none" stroke="#808285" d="M106.918,133.104c0,0,1.852,7.053,0,10.852c-1.684,3.457-5.133,6.195-8.738,7.534
				c-3.016,1.12-7.545,0.067-10.248,1.808c-2.043,1.315-3.191,4.21-3.014,6.632c0.119,1.667,1.244,3.419,2.711,4.22
				c1.941,1.059,6.631,0,6.631,0s-3.811,4.039-6.932,4.822c-2.676,0.672-6.004,0.242-8.137-1.508
				c-2.094-1.715-3.617-6.328-3.617-6.328l-2.111,3.014c0,0-1.492-4.807-1.205-7.234c0.332-2.816,1.223-4.716,3.316-6.631
				c2.18-1.994,6.08-2.137,8.439-3.918c2.023-1.528,4.219-6.329,4.219-6.329L106.918,133.104z"/>
			<path fill="#D5D5D0" d="M104.653,136.786c0,0-1.068,6.406-2.963,8.889c-1.082,1.416-2.816,2.244-4.445,2.965
				c-4.035,1.784-9.617,0.197-12.84,3.209c-2.15,2.008-3.137,5.484-2.717,8.396c0.311,2.17,3.703,5.433,3.703,5.433
				s-3.42-0.021-4.691-0.987c-2.139-1.629-3.705-7.162-3.705-7.162l-2.469,1.235c0,0,0.844-4.187,2.223-5.68
				c2.422-2.624,7.127-2.146,9.631-4.692c1.91-1.943,3.457-7.408,3.457-7.408L104.653,136.786z"/>
			<path fill="#FCFDFB" d="M110.874,72.812c0,0-5.703-4.969-6.928-9.568c-2.547-9.556,2.422-13.504,0.66-19.796
				c-2.25-8.032-8.58-11.219-8.58-11.219c9.238-4.663,20.307,1.495,26.465,9.363c0,0,1.887-8.056,5.279-11.547
				c4.881-5.023,13.197-4.62,13.197-4.62c-1.824,3.52-1.832,7.948,1.57,11.467c0,0,5.008-0.443,8.328-5.815
				c1.113-1.799,0.66-6.929,0.66-6.929c7.744,1.272,15.252,4.458,13.197,20.457c0,0,4.961-4.18,6.27-7.259
				c1.033-2.431,0.99-7.918,0.99-7.918s7.701,3.732,12.867,11.218c1.875,2.717,3.23,10.838,3.23,10.838
				c11.057-4.726,16.73-3.649,23.096,7.802c0,0-2.998,0.006-4.289,0.66c-1.941,0.984-4.619,4.62-4.619,4.62s4.758-0.787,6.93,0
				c2.422,0.877,5.938,4.949,5.938,4.949s-3.26-0.099-4.619,0.659c-3,1.675-6.6,7.919-6.6,7.919s8.268,2.787,11.551,6.068
				c6.225,6.219,6.268,14.718,6.268,14.718s-3.232-1.01-4.619-0.329c-1.424,0.697-2.639,3.959-2.639,3.959s5.422,0.461,7.324,2.903
				c3.25,4.167,0.74,12.263,2.375,17.287c0.98,3.017,5.146,6.204,5.146,6.204s-3.916,1.02-6.334,0.792
				c-1.596-0.149-5.543-1.451-5.543-1.451c12.258,23.024-4.305,43.976-17.004,46.376C197.59,117.675,182.61,62.615,110.874,72.812z"
				/>
			<path fill="none" stroke="#939598" d="M110.874,72.812c0,0-5.703-4.969-6.928-9.568c-2.547-9.556,2.422-13.504,0.66-19.796
				c-2.25-8.032-8.58-11.219-8.58-11.219c9.238-4.663,20.307,1.495,26.465,9.363c0,0,1.887-8.056,5.279-11.547
				c4.881-5.023,13.197-4.62,13.197-4.62c-1.824,3.52-1.832,7.948,1.57,11.467c0,0,5.008-0.443,8.328-5.815
				c1.113-1.799,0.66-6.929,0.66-6.929c7.744,1.272,15.252,4.458,13.197,20.457c0,0,4.961-4.18,6.27-7.259
				c1.033-2.431,0.99-7.918,0.99-7.918s7.701,3.732,12.867,11.218c1.875,2.717,3.23,10.838,3.23,10.838
				c11.057-4.726,16.73-3.649,23.096,7.802c0,0-2.998,0.006-4.289,0.66c-1.941,0.984-4.619,4.62-4.619,4.62s4.758-0.787,6.93,0
				c2.422,0.877,5.938,4.949,5.938,4.949s-3.26-0.099-4.619,0.659c-3,1.675-6.6,7.919-6.6,7.919s8.268,2.787,11.551,6.068
				c6.225,6.219,6.268,14.718,6.268,14.718s-3.232-1.01-4.619-0.329c-1.424,0.697-2.639,3.959-2.639,3.959s5.422,0.461,7.324,2.903
				c3.25,4.167,0.74,12.263,2.375,17.287c0.98,3.017,5.146,6.204,5.146,6.204s-3.916,1.02-6.334,0.792
				c-1.596-0.149-5.543-1.451-5.543-1.451c12.258,23.024-4.305,43.976-17.004,46.376C197.59,117.675,182.61,62.615,110.874,72.812z"
				/>
			<path fill="#F4F4F0" d="M155.389,29.134c-0.072,1.186-0.273,2.458-1.234,4.012c-4.189,6.777-12.893,12.501-12.893,12.501
				c-1.152,0.099-0.707-5.238-1.508-6.072c-2.689-2.784-3.736-6.197-3.703-9.515c-1.949,0.486-4.078,1.26-5.502,2.726
				c-0.914,0.939-2.219,3.496-3.035,5.708c-0.814,2.213-1.285,3.96-1.285,3.96c-0.338,1.398-1.514,2.559-2.916,2.877
				c-1.402,0.319-2.965-0.219-3.873-1.334c-2.688-3.434-6.561-6.601-10.492-8.229c-1.547-0.641-3.043-0.858-4.525-1.029
				c1.574,2.023,3.061,4.451,3.959,7.663c1.195,4.264,0.053,7.782-0.617,10.595c-0.668,2.813-1.127,5.217-0.051,9.258
				c0.318,1.196,1.699,3.333,3.086,4.937c0.807,0.936,1.057,1.076,1.543,1.543c35.652-4.484,58.838,7.379,72.363,27.67
				c12.939,19.414,17.469,45.798,19.182,72.723c3.938-2.196,8.252-6.254,10.955-11.674c3.717-7.449,4.734-16.975-0.822-27.412
				c-0.727-1.365-6.23-7.857-5.227-9.035c1-1.178,8.443,3.033,9.906,3.531c0,0,0.906,0.299,2.006,0.617
				c0.213,0.063,0.287,0.043,0.514,0.104c-0.236-0.479-0.59-0.836-0.771-1.389c6.076-20.589-16.879-19.307-15.785-24.443
				c0,0,6.531,0.714,7.146-0.449c0.617-1.164,1.127-2.697,3.6-3.909c0.684-0.334,1.15-0.304,1.697-0.411
				c-0.67-2.357-1.914-5.313-4.373-7.766c-0.879-0.883-3.572-2.42-5.861-3.446s-4.166-1.646-4.166-1.646
				c-0.973-0.314-3.205,0.402-3.652-0.511c-0.566-1.153,0.84-4.032,1.492-5.147c0,0,1.021-1.704,2.416-3.651
				c1.023-1.423,2.273-2.926,3.857-4.269c-0.543-0.041-0.869-0.104-1.645-0.051c-1.26,0.084-0.098-0.476-4.369,0.256
				c-1.525,0.262-4.641,3.037-9.85,5.24c0.076-5.433,7.217-10.178,8.148-11.411c0,0,0.762-1.036,1.801-2.211
				c0.951-1.075,2.127-2.243,3.857-3.24c-8.893-10.063-17.68,5.665-25.607,9.384c3.166-10.015,5.348-16.162,2.516-23.322
				c-1.297-3.283-4.451-5.092-6.582-6.737c-0.168,0.932-0.094,1.787-0.516,2.777c-1.098,2.586-2.93,4.396-4.475,5.966
				c-1.543,1.569-2.879,2.726-2.879,2.726c-1.189,1.023-6.195,5.178-8.746,5.893c-0.494-3.398,2.145-7.836,2.367-9.39
				c0.949-7.376-0.297-10.805-1.953-12.703C158.022,30.406,156.809,29.691,155.389,29.134z"/>
			<path fill="#D5D5D0" d="M114.668,67.483c0,0,0.352-6.932,0-10.372c-0.416-4.073-2.488-12.031-2.488-12.031
				s4.484,7.433,6.637,11.202c1.566,2.741,4.564,8.296,4.564,8.296s12.238-4.174,17.424-7.882c5.094-3.642,9.652-8.313,12.861-13.69
				c1.344-2.253,2.488-7.468,2.488-7.468s0.563,6.686,0,9.957c-1.193,6.941-7.053,19.914-7.053,19.914s14.457-5.218,20.328-9.956
				c2.605-2.103,5.125-4.72,6.223-7.882c0.635-1.829,0-5.809,0-5.809s2.627,5.413,2.49,8.297c-0.191,4.027-3.109,7.441-4.564,11.201
				c-1.594,4.121-4.563,12.445-4.563,12.445l7.053,0.416c0,0,9.947-12.275,17.01-14.936c1.811-0.683,5.807,0,5.807,0
				s-4.525,2.011-6.223,3.734c-5.609,5.693-12.029,20.742-12.029,20.742s8.578-6.023,13.275-8.297
				c1.85-0.896,5.807-2.074,5.807-2.074s-4.084,3.68-5.807,5.809c-2.078,2.563-5.395,8.297-5.395,8.297s9.129-2.398,13.275-0.83
				c3.477,1.314,7.883,7.883,7.883,7.883s-5.324-3.154-8.299-3.319c-4.152-0.231-12.029,3.319-12.029,3.319
				s18.211,8.168,24.061,15.765c1.602,2.079,2.49,7.467,2.49,7.467s-4.17-4.989-7.053-6.222c-4.467-1.912-14.52-1.245-14.52-1.245
				s13.146,16.776,17.01,26.551c1.395,3.531,3.848,7.845,2.072,11.202c-2.4,4.543-14.104,6.223-14.104,6.223
				C191.764,85.94,156.151,71.126,114.668,67.483z"/>
			<path fill="#E5E5E1" d="M64.885,138.452c8.137,10.456,16.145,2.203,22.516-3.053c5.566-4.591,21.85-6.123,21.85-6.123
				l-5.445-8.629c0,0-14.771,0.034-19.766,5.623C78.213,132.792,74.426,140.835,64.885,138.452z"/>
			<path fill="#F4F4F0" d="M64.758,138.296c0,0,3.695,3.18,5.967,3.523c2.146,0.325,4.566-0.154,6.443-1.061
				c4.41-2.129,8.605-8.36,13.012-10.498c5.781-2.805,17.777-3.266,17.777-3.266l-4.176-6.338c0,0-5.352,0.168-7.953,0.607
				c-2.504,0.424-4.994,0.979-7.33,1.947c-1.184,0.488-2.346,1.083-3.348,1.936c-2.045,1.741-3.506,4.313-5.32,6.389
				c-1.324,1.516-2.539,3.209-4.063,4.43c-1.232,0.984-2.592,1.793-4.047,2.285c-1.18,0.4-2.453,0.527-3.725,0.52
				C66.928,138.763,64.758,138.296,64.758,138.296z"/>
			<path fill="#FCFDFB" d="M105.403,123.456l-1.598-2.809c0,0-5.656-0.602-11.059,0.662c-3.486,0.815-6.748,2.768-8.707,4.961
				c-5.826,6.521-9.613,14.564-19.154,12.182c0,0,5.809,3.028,8.691,2.074c5.699-1.885,9.844-10.563,15.221-13.301
				C94.053,124.55,105.403,123.456,105.403,123.456z"/>
			<path fill="none" stroke="#6B6B6B" stroke-width="2.441" d="M64.885,138.452c8.137,10.456,16.145,2.203,22.516-3.053
				c5.566-4.591,21.85-6.123,21.85-6.123l-5.445-8.629c0.004-0.004-13.57-1.725-19.766,5.623
				C78.37,132.997,74.426,140.835,64.885,138.452z"/>
			<path fill="#FCFDFB" d="M25.504,11.726c-0.217,0.271,2.572,3.246,3.105,3.99c-0.176,1.273,0.148,2.322,2.176,2.671
				c0.049,2.005,0.846,3.396,3.244,3.475c0.514,3.879,2.662,3.651,4.182,4.173c0.262,2.766,1.293,4.696,4.986,4.764
				c0.479,4.673,3.063,4.861,5.658,5.25c0.662,3.481,2.58,5.56,6.199,5.629c0.756,3.838,3.18,5.56,6.607,5.902
				c0.848,3.775,3.496,5.37,6.885,6.069c0.986,3.128,2.238,5.783,7.031,6.129c1.48,5.892,4.518,5.048,7.043,6.084
				c1.359,6.391,4.531,4.931,6.924,5.932c0.645,6.308,4.223,5.214,6.674,5.673c0.555,5.631,3.875,4.758,6.291,5.311
				c-0.018,5.771,3.322,4.777,5.775,4.838c-1.063,6.542,4.717,5.037,5.129,4.262l5.016-6.311l5.014-6.311
				c0.664-0.578,0.822-6.547-5.311-4.035c-0.613-2.375-0.398-5.854-6.02-4.533c-1.082-2.227-0.982-5.66-6.592-4.928
				c-1.002-2.283-0.744-6.018-7.035-5.219c-1.516-2.104-0.811-5.524-7.342-5.405c-1.58-2.226-1.445-5.375-7.518-5.486
				c-1.42-4.59-4.291-5.211-7.561-5.464c-1.447-3.145-3.598-5.363-7.467-5.336c-1.109-3.263-3.334-5.235-7.242-5.104
				c-0.887-3.509-3.344-4.908-6.885-4.767c-0.965-2.441-1.732-4.915-6.393-4.326c-0.9-3.583-3.014-4.15-5.768-3.78
				c-0.852-1.362-1.115-3.507-5.01-3.131c-0.617-2.319-2.154-2.78-4.117-2.375c-0.799-1.896-1.895-1.975-3.094-1.516
				C29.247,13.5,25.719,11.456,25.504,11.726z"/>
			<path fill="#E5E5E1" d="M25.504,11.726c-0.217,0.271,2.572,3.246,3.105,3.99c-0.176,1.273,0.148,2.322,2.176,2.671
				c0.049,2.005,0.846,3.396,3.244,3.475c0.514,3.879,2.662,3.651,4.182,4.173c0.262,2.766,1.293,4.696,4.986,4.764
				c0.479,4.673,3.063,4.861,5.658,5.25c0.662,3.481,2.58,5.56,6.199,5.629c0.756,3.838,3.18,5.56,6.607,5.902
				c0.848,3.775,3.496,5.37,6.885,6.069c0.986,3.128,2.238,5.783,7.031,6.129c1.48,5.892,4.518,5.048,7.043,6.084
				c1.359,6.391,4.531,4.931,6.924,5.932c0.645,6.308,4.223,5.214,6.674,5.673c0.555,5.631,3.875,4.758,6.291,5.311
				c-0.018,5.771,3.322,4.777,5.775,4.838c-1.063,6.542,4.717,5.037,5.129,4.262l2.508-3.155
				C94.247,70.16,51.715,36.563,25.504,11.726z"/>
			<path fill="#E5E5E1" d="M25.504,11.726l95.432,70.683l2.508-3.154c0.664-0.578,0.822-6.547-5.311-4.035
				c-0.611-2.375-0.398-5.854-6.018-4.533c-1.084-2.229-0.982-5.66-6.594-4.928c-1.002-2.284-0.744-6.018-7.035-5.219
				c-1.516-2.105-0.811-5.525-7.342-5.405c-1.58-2.226-1.445-5.375-7.518-5.486c-1.42-4.59-4.291-5.211-7.561-5.464
				c-1.447-3.145-3.598-5.363-7.467-5.336c-1.109-3.263-3.334-5.235-7.242-5.104c-0.885-3.509-3.344-4.908-6.885-4.767
				c-0.965-2.441-1.732-4.915-6.393-4.326c-0.9-3.583-3.014-4.15-5.768-3.781c-0.852-1.362-1.115-3.506-5.01-3.13
				c-0.617-2.319-2.152-2.78-4.117-2.375c-0.799-1.896-1.895-1.975-3.094-1.516C29.247,13.5,25.719,11.456,25.504,11.726z"/>
			<polygon fill="#FCFDFB" points="41.989,20.814 34.036,21.899 31.801,20.645 30.836,18.314 37.772,17.985 40.792,18.516 			"/>
			<polygon fill="#FCFDFB" points="53.852,28.801 42.688,30.625 39.272,29.352 38.344,25.667 48.057,24.948 52.551,25.223 			"/>
			<polygon fill="#FCFDFB" points="69.286,38.84 54.073,41.777 50.405,39.794 48.963,35.859 62.807,33.796 66.612,35.511 
				69.284,38.84 			"/>
			<path fill="#FCFDFB" d="M83.536,49.677l-15.557,3.754c0,0-2.664-1.459-3.744-2.502c-0.975-0.941-2.371-3.3-2.371-3.3
				l14.793-3.166c0,0,2.939,0.979,4.146,1.907C81.936,47.241,83.536,49.677,83.536,49.677z"/>
			<path fill="#FCFDFB" d="M98.409,60.723l-16.582,4.743c0,0-3.416-0.604-4.508-1.678c-0.984-0.969-1.68-4.289-1.68-4.289
				l15.748-4.077c0,0,3.594,0.246,4.824,1.189C97.368,57.499,98.409,60.723,98.409,60.723z"/>
			<path fill="#FCFDFB" d="M112.006,70.853l-16.682,6.068c0,0-3.131,0.093-4.125-0.92c-0.896-0.914-1.523-4.701-1.523-4.701
				l15.809-5.326c0,0,3.412,0.12,4.553,0.99C111.112,67.781,112.006,70.853,112.006,70.853z"/>
			<path fill="#FCFDFB" d="M123.834,79.592l-16.584,7.749c0,0-2.543,0.074-3.395-0.844c-0.77-0.83-1.461-4.241-1.461-4.241
				l15.678-6.917c0,0,3.99-0.793,4.996-0.033C124.016,76.021,123.834,79.592,123.834,79.592z"/>
			<path fill="none" stroke="#6D6E71" stroke-width="2.1547" d="M25.504,11.726c-0.217,0.271,2.572,3.246,3.105,3.99
				c-0.176,1.273,0.148,2.322,2.176,2.671c0.049,2.005,0.846,3.396,3.244,3.475c0.514,3.879,2.662,3.651,4.182,4.173
				c0.262,2.766,1.293,4.696,4.986,4.764c0.479,4.673,3.063,4.861,5.658,5.25c0.662,3.481,2.58,5.56,6.199,5.629
				c0.756,3.838,3.18,5.56,6.607,5.902c0.848,3.775,3.496,5.37,6.885,6.069c0.986,3.128,2.238,5.783,7.031,6.129
				c1.48,5.892,4.518,5.048,7.043,6.084c1.359,6.391,4.531,4.931,6.924,5.932c0.645,6.308,4.223,5.214,6.674,5.673
				c0.555,5.631,3.875,4.758,6.291,5.311c-0.018,5.771,3.322,4.777,5.775,4.838c-1.063,6.542,4.717,5.037,5.129,4.262l5.016-6.311
				l5.014-6.311c0.664-0.578,0.822-6.547-5.311-4.035c-0.613-2.375-0.398-5.854-6.02-4.533c-1.082-2.227-0.982-5.66-6.592-4.928
				c-1.002-2.283-0.744-6.018-7.035-5.219c-1.516-2.104-0.811-5.524-7.342-5.405c-1.58-2.226-1.445-5.375-7.518-5.486
				c-1.42-4.59-4.291-5.211-7.561-5.464c-1.447-3.145-3.598-5.363-7.467-5.336c-1.109-3.263-3.334-5.235-7.242-5.104
				c-0.887-3.509-3.344-4.908-6.885-4.767c-0.965-2.441-1.732-4.915-6.393-4.326c-0.9-3.583-3.014-4.15-5.768-3.78
				c-0.852-1.362-1.115-3.507-5.01-3.131c-0.617-2.319-2.154-2.78-4.117-2.375c-0.799-1.896-1.895-1.975-3.094-1.516
				C29.247,13.5,25.719,11.456,25.504,11.726z"/>
			<path fill="#D5D5D0" d="M206.754,123.133c-1.824-17.856-12.25-39.093-28.74-52.011c-7.898-6.188-17.037-10.924-27.004-13.359
				c-1.697-2.709-3.053-5.729-5.711-7.469c-7.234-4.731-14.648-8.48-18.26-12.267c-6.271-6.574-8.732-10.848-10.918-16.356
				c-1.377,12.695-1.408,25.255,7.77,36.896c0,0-13.111,1.263-18.664,3.653c-8.281,3.565-16.908,8.837-23.525,15.987
				c-3.025,3.268-1.213,6.821-3.379,10.713c-3.822,6.434-12.717,15.625-17.842,21.201c0,0-3.904,2.073-5.043,3.979
				c-0.926,1.55-1.057,3.95,0,5.413c0.834,1.158,2.498,3.312,3.033,4.846c0.617,1.768,0.426,5.691,1.027,7.465
				c1.031,3.049,6.07,3.973,6.07,3.973s8.713-2.637,11.768-8.033c1.047-1.85,0.783-7.742,2.34-9.191
				c3.088-2.879,8.756-2.572,12.633-0.903c1.963,0.847,3.342,2.95,4.061,4.964c1.111,3.115,0.695,6.764-1.643,9.104
				c-2.021,2.021-5.027,1.527-7.545,2.876c-3.348,1.79-5.701,7.421-5.701,7.421s5.576,2.748,8.572,2.706
				c7.799-0.109,13.336-1.402,18.244-7.464c2.287-2.827,1.945-7.621,3.984-10.623c2.836-4.176,7.719-6.947,12.512-8.531
				c3.572-1.182,11.279-0.452,11.279-0.452s0.697,7.786-0.301,11.48c-4.496,16.633-16.025,27.729-22.459,43.713
				c-0.631,1.567-1.236,3.249-1.834,4.973h98.941C206.821,160.26,207.94,134.722,206.754,123.133z"/>
			<path fill="#E5E5E1" d="M59.499,131.823c-0.602-1.773-0.412-5.697-1.027-7.465c-0.535-1.534-2.199-3.688-3.033-4.846
				c-1.057-1.463-0.926-3.863,0-5.413c1.139-1.906,5.043-3.979,5.043-3.979c5.125-5.576,14.02-14.768,17.842-21.201
				c2.166-3.892,0.354-7.445,3.379-10.713c6.617-7.15,15.244-12.422,23.525-15.987c5.553-2.391,18.664-3.654,18.664-3.654
				c-1.201-1.521,1.615,1.74,4.439,4.124c2.402,2.029,3.064,2.734,4.287,1.939c1.924-1.252,1.549-2.787,0.709-4.529
				c-0.895-1.854-7.932-7.685-9.152-9.915c-6.004-10.96-8.801-21.615-8.053-28.514c2.186,5.508,4.646,9.782,10.918,16.356
				c3.611,3.787,11.025,7.536,18.258,12.267c2.66,1.74,4.016,4.76,5.713,7.469c9.967,2.435,19.105,7.172,27.004,13.359
				c16.49,12.918,23.602,33.74,25.428,51.596c0.844,8.275-0.521,22.628-0.301,38.6c0,0-9.787,8.392-17.781,7.455
				c-6.984-0.818-18.02-9.735-18.02-9.735s-13.496,6.19-20.92,6.421c-8.797,0.273-25.309-7.527-25.309-7.527
				c5.623-9.184,11.684-17.77,14.66-28.782c0,0,3.064-1.536,3.605-2.631c2.76-5.579,2.07-6.835,2.07-6.835s5.92-1.988,8.701-4.351
				c3.443-2.925,7.131-8.065,8.906-12.22c1.668-3.906,2.369-7.363,2.072-11.601c-0.182-2.573-1.504-6.53-2.9-8.699
				c-1.512-2.349-6.008-5.179-6.008-5.179s1.277,7.141,1.244,10.979c-0.031,3.428-0.361,6.977-1.658,10.149
				c-1.404,3.44-3.582,6.715-6.42,9.114c-2.689,2.271-6.111,3.715-9.529,4.557c-5.568,1.369-11.043,1.007-16.777,1.035
				c-2.625,0.014-7.871-0.207-7.871-0.207l5.283,4.389c-2.416,0.574-3.492,2.489-4.869,4.104c-2.295-4.161-5.021-5.077-9.734-5.386
				c0,0,4.021,8.451,3.729,13.049c-0.168,2.619-1.596,5.259-3.521,7.043c-2.68,2.483-5.785,3.224-9.322,4.143
				c-3.584,0.932-11.031,1.336-11.031,1.336s2.094-5.537,5.439-7.327c2.52-1.349,5.525-0.854,7.547-2.876
				c2.338-2.34,2.754-5.988,1.643-9.104c-0.719-2.014-1.092-7.137-3.055-7.982c-2.617-1.128-4.852-3.164-8.17-3.164
				c-3.01,0-6.236,3.583-8.375,5.703c-2.711,2.687,0.229,7.06-2.627,9.592c-1.238,1.098-4.496,4.497-7.354,5.373
				C62.948,133.331,59.499,131.823,59.499,131.823z"/>
			<path fill="#F4F4F0" d="M144.032,122.782c0,0,4.887-2.246,7.666-4.608c3.443-2.925,8.684-10.133,10.459-14.288
				c1.668-3.906,1.334-8.911,1.037-13.148c-0.182-2.573-2.021-7.822-3.416-9.992c-1.514-2.348-11.174-10.086-11.174-10.086
				s2.309,12.049,2.275,15.887c-0.029,3.427-0.361,6.976-1.656,10.148c-1.406,3.441-3.582,6.715-6.422,9.114
				c-2.689,2.272-3.785,3.458-7.203,4.298c-5.568,1.37-11.043,1.008-16.777,1.037c-2.625,0.012-13.039-1.241-13.039-1.241
				l9.16,6.714c-2.418,0.574-1.428,1.197-2.803,2.813c-2.295-4.16-7.865-5.853-12.578-6.161c0,0,4.799,11.293,4.504,15.892
				c-0.168,2.619-1.338,3.967-3.262,5.75c-2.682,2.484-5.785,3.225-9.322,4.143c-3.584,0.932-9.74,2.887-9.74,2.887
				s2.094-5.537,5.441-7.327c2.518-1.349,5.523-0.854,7.545-2.876c2.338-2.34,5.338-5.471,4.225-8.588
				c-0.717-2.013-3.674-10.236-5.637-11.081c-2.615-1.128-4.85-3.165-8.17-3.165c-1.93,0-4.227,0.895-6.191,2.51
				c-0.553,0.454-2.988,0.219-5.373,0.625c-2.369,0.402-4.691,2.025-5.074,2.404c-0.846,1.098-0.875,3.92,0.26,4.953
				c1.113,1.014,3.291,0.373,3.779,1.369c1.359,2.779-0.045,4.398-1.912,5.991c-3.375,2.877-6.332,4.1-8.49,3.637
				c-2.074-0.444-3.41-2.446-3.672-6.032c-0.535-1.534-2.199-3.688-3.033-4.846c-1.057-1.463-0.926-3.863,0-5.413
				c1.139-1.906,5.043-3.979,5.043-3.979c5.125-5.576,14.02-14.768,17.842-21.201c2.166-3.892,0.354-7.445,3.379-10.713
				c6.619-7.15,15.244-12.422,23.525-15.987c5.553-2.391,18.664-3.653,18.664-3.653c3.785,2.213,6.014,6.447,9.057,6.27
				c1.168-0.068,5.918-1.896,5.445-4.153c-0.682-3.252-11.182-10.23-14.885-16.078c-4.848-7.656-3.432-14.755-7.387-22.934
				c2.186,5.508,4.646,9.782,10.918,16.356c3.611,3.787,11.027,7.536,18.26,12.267c2.658,1.74,4.014,4.76,5.713,7.469
				c9.967,2.435,19.104,7.172,27.002,13.359c16.49,12.918,20.244,33.74,22.07,51.596c0.846,8.275-0.521,19.826-0.301,35.799
				c0,0-6.43,8.391-14.422,7.455c-6.986-0.818-18.021-9.735-18.021-9.735s-13.496,6.19-20.92,6.421
				c-8.797,0.273-18.111-5.773-18.111-5.773c8.736-9.539,12.385-19.601,15.725-34.102H144.032z"/>
			<path fill="#FCFDFB" d="M151.618,69.03c27.896,11.039,21.145,49.038-1.166,54.919c-3.008,12.728-6.725,22.456-13.99,31.372
				c2.813,1.52,8.258,4.242,14.041,4.063c3.031-0.095,4.096-0.957,8.281-2.497c4.188-1.539,7.457-3.034,7.457-3.034
				c0.873-0.407,1.969-0.284,2.727,0.309c0,0,2.662,2.167,6.172,4.423c3.508,2.257,7.988,4.484,10.543,4.783
				c5.621,0.658,7.854-5.125,8.586-5.966c-0.135-15.44,1.078-26.884,0.309-34.407c-1.811-17.7-2.588-35.722-18.152-47.914
				c-7.633-5.979-12.348-9.508-21.918-11.845C154.276,65.809,153.633,66.458,151.618,69.03z M141.088,58.209
				c0.551,1.074,0.473,3.134,0.051,4.266c-0.381,1.026-2.119,2.506-2.119,2.506l-3.371,0.674l-9.172-3.47l7.996,5.781
				c0,0,4.021,1.824,5.973,1.734c1.893-0.088,3.971-0.318,5.492-1.445c1.574-1.169,2.598-3.11,3.082-5.011
				c0.336-1.318,0.723-2.987-0.502-5.712c-1.42-3.155-2.828-5.462-4.648-6.653c-7.074-4.626-14.465-9.152-18.721-13.614
				c-3.121-3.271-7.258-10.191-9.023-12.863c0.475,9.229,6.076,16.924,11.965,22.388C133.411,51.729,138.913,53.978,141.088,58.209z
				 M121.442,63.733c-2.475,0.471-5.186-0.129-7.576,0.24c-3.893,0.602-8.561,1.606-10.801,2.572
				c-8.029,3.455-16.4,7.631-22.682,14.416c-1.01,1.092-1.109,2.254-1.285,3.921c-0.176,1.669-0.244,4.065-1.646,6.583l-0.051,0.051
				c-4.172,7.025-11.475,14.898-16.551,20.421c-0.209,0.211-0.453,0.386-0.719,0.515c0,0-0.863,0.465-1.852,1.131
				c-0.99,0.666-2.148,1.646-2.16,1.852l-0.154,2.521c0.752,1.491,2.25,2.888,2.881,4.147c1.918,3.842,1.58,5.74,3.063,5.9
				c1.197,0.129,5.701-0.641,7.24-4.283c0.408-0.965,0.428-1.676,0.885-2.959c-1.854-6.725,0.432-8.454,5.887-9.602
				c0.842-0.76,1.805-1.565,2.838-2.307c1.818-1.306,3.83-2.572,6.377-2.572c4.379,0,7.074,2.592,9.207,3.344
				c5.936,2.089,7.52-3.525,11.725-2.367c3.846,1.061,2.588,0.349,5.504,0.67c2.916,0.32,6.391,0.621,7.252,0.617
				c25.838-0.004,30.334-18.081,23.633-34.033C132.274,75.927,122.973,65.538,121.442,63.733z M101.079,127.419
				c-0.236,0.582-0.41,1.201-0.721,1.697c-1.137,1.824-2.623,3.291-3.805,4.474c-1.539,1.539-3.404,2.091-4.834,2.417
				c-1.432,0.328-2.527,0.516-3.293,0.926c-0.094,0.051-0.205,0.289-0.309,0.36c1.197-0.35,1.658-0.507,2.676-0.771
				c3.582-0.931,6.115-1.539,8.229-3.497c1.82-1.688,2.295-2.097,2.416-4.012C101.454,128.782,101.129,127.819,101.079,127.419z"/>
			<path fill="#F4F4F0" d="M84.415,80.733c0,0,5.025,2.751,6.016,1.681c8.857-9.572,16.881-10.734,29.602-7.037l-3.297,3.151
				c6.125,14.271-13.672,22.055-22.975,15.744c-2.9,3.855-7.85,2.918-12.432,2.962c1.492-1.022,6.857-1.924,7.184-5.044
				c0.367-3.529-4.115-5.346-4.143-7.402C84.338,82.552,84.7,81.835,84.415,80.733z"/>
			<path fill="#E5E5E1" d="M88.36,84.371l3.781,0.146l6.906-5.525l8.434-2.545l9.742-0.436l-2.035,2.035
				c5.248,13.993-16.852,22.784-22.902,9.233c-3.604,0.06-5.992-0.929-6.615-4.581L88.36,84.371z"/>
			<path fill="#928A70" d="M111.549,75.356c-5.836-0.146-10.643,1.306-14.129,3.765c-1.352,0.952-2.23,1.777-3.049,2.665
				s-1.58,1.592-2.984,1.954c-3.08,0.849-4.395-1.391-5.707-1.183c0,0,0.346,1.066,1.285,1.902c0.938,0.836,2.572,1.459,4.834,0.875
				c1.764-0.455,2.852-1.439,3.754-2.418s1.619-1.945,2.727-2.726c4.6-4.087,16.232-2.858,19.389-4.269
				C115.528,75.575,113.495,75.407,111.549,75.356z"/>
			<path fill="#D5D5D0" d="M73.075,120.126c0,0-1.225-1.398-1.602-2.533c-0.355-1.075,0.055-2.381,0.668-3.334
				c0.947-1.472,4.533-2.933,4.533-2.933s-4.506-0.146-5.867,0.534c-1.209,0.604-2.172,1.736-2.801,2.933
				c-0.506,0.964-0.807,2.12-0.666,3.2c0.115,0.887,0.484,1.865,1.201,2.4c0.613,0.459,1.5,0.442,2.266,0.4
				C71.594,120.749,73.075,120.126,73.075,120.126z"/>
			<path fill="#928A70" d="M110.641,112.951c0,0,9.863,3.896,16.152,4.593c3.135,0.347,8.422,0.344,11.623-0.669
				c8-2.53,11.494-6.675,15.873-13.588c3.113-4.917,3.893-11.408,3.125-17.017c-0.666-4.854-6.424-10.517-6.424-10.517
				c2.205,3.669,4.113,6.647,4.873,10.289c1.049,5.032,0.154,10.71-2.943,15.66c-4.289,6.854-7.555,10.943-15.068,13.32
				c-2.547,0.806-8.012,1.024-10.852,0.565L110.641,112.951z"/>
			<path fill="#FFFFFF" d="M94.692,86.228c1.51,3.679,7.264,5.953,12.656,3.736s7.563-6.594,6.055-10.273
				c-1.512-3.68-5.725-4.281-11.115-2.064C96.895,79.843,93.182,82.548,94.692,86.228z"/>
			<path fill="#635020" d="M100.854,79.819c2.246-0.922,4.986,0.125,5.924,2.413c0.939,2.287-0.207,5.075-2.471,6.005
				c-2.262,0.93-4.922-0.313-5.854-2.583S98.608,80.743,100.854,79.819z"/>
			<path fill="#2C2513" d="M101.317,82.023c1.191-0.49,2.553,0.038,3.021,1.182c0.469,1.143-0.141,2.624-1.271,3.089
				c-1.129,0.465-2.457-0.146-2.951-1.354C99.622,83.735,100.124,82.515,101.317,82.023z"/>
			<path fill="#FFFFFF" d="M100.12,82.228c0.662-0.272,1.264-0.012,1.486,0.529c0.207,0.504-0.137,1.34-0.635,1.545
				c-0.537,0.221-1.143-0.031-1.416-0.701C99.264,82.894,99.42,82.515,100.12,82.228z"/>
			<path fill="#A7A391" d="M109.461,75.474c-2.186-0.381-4.752,0.079-7.561,1.234c-2.752,1.131-5.1,2.375-6.686,3.96
				s-2.334,3.732-1.439,5.915c1.791,4.361,8.098,6.72,13.938,4.319c2.865-1.177,4.963-2.979,6.121-5.04
				c1.156-2.061,1.332-4.411,0.463-6.531C113.426,77.21,111.647,75.854,109.461,75.474z M109.153,77.428
				c1.646,0.286,2.703,1.063,3.344,2.623c0.639,1.56,0.488,3.233-0.412,4.835c-0.898,1.602-2.563,3.127-5.092,4.166
				c-4.943,2.031-10.135-0.193-11.365-3.189c-0.613-1.498-0.266-2.564,0.977-3.806s3.43-2.413,6.068-3.497
				C105.256,77.497,107.508,77.142,109.153,77.428z"/>
			<path fill="#928A70" d="M116.502,23.004l-0.967,3.309c1.416,10.734,5.719,18.781,10.527,23.497
				c2.404,2.358,4.781,4.138,6.686,5.503s3.393,2.449,3.754,2.932c1.094,1.46,1.143,2.54,0.875,3.446
				c-0.268,0.907-0.939,1.637-1.492,2.006c-1.098,0.733-2.139,0.91-3.188,0.771c-1.051-0.139-2.139-0.629-3.189-1.338
				c-2.098-1.417-4.006-3.705-5.348-5.188l-1.234,1.177c1.305,1.441,3.283,3.798,5.656,5.4c1.188,0.801,2.508,1.41,3.908,1.594
				c1.402,0.186,2.867-0.09,4.27-1.027c0.834-0.558,1.803-1.549,2.211-2.932c0.41-1.382,0.154-3.152-1.182-4.938
				c-0.766-1.021-2.182-1.89-4.064-3.24c-1.881-1.35-4.168-3.082-6.479-5.349C122.624,44.093,117.866,33.344,116.502,23.004z"/>
			<path fill="#928A70" d="M68.174,121.375c0.939,0.76,2.506,0.518,3.27,0.283c0.762-0.233,1.336-0.617,1.336-0.617
				c1.424-1.528-0.295-2.341-1.131-1.8c0,0-0.342,0.213-0.822,0.359c-0.48,0.148-0.957,0.162-1.131,0.052
				c-0.744-0.474-0.99-0.899-1.133-1.389s-0.16-1.155,0.053-2.108c0.338-1.52,1.676-2.774,3.291-3.446
				c3.66-1.522,5.709-1.44,5.709-1.44c-2.291-0.871-4.605-0.758-6.545-0.033c-1.842,0.688-3.346,1.93-4.17,3.404
				C65.725,116.747,65.557,119.254,68.174,121.375z"/>
			<path fill="#928A70" d="M102.612,116.569c1.063,1.564,2.756,3.259,3.754,4.163c0.822,0.835,1.762,1.896,2.16,2.571
				c0.426,0.73,0.939,2.144,1.285,3.344c0.346,1.199,0.566,2.211,0.566,2.211l1.594-0.359c0,0-0.205-1.012-0.566-2.264
				c-0.361-1.251-0.842-2.731-1.439-3.754c-0.568-0.971-1.557-2.008-2.418-2.881C106.237,117.95,104.653,117.342,102.612,116.569z"
				/>
			<path fill="none" stroke="#8A826A" stroke-width="0.95" d="M206.754,123.133c-1.824-17.856-12.25-39.093-28.74-52.011
				c-7.898-6.188-17.037-10.924-27.004-13.359c-1.697-2.709-3.053-5.729-5.711-7.469c-7.234-4.731-14.648-8.48-18.26-12.267
				c-6.271-6.574-7.881-10.848-10.918-16.356c-1.377,12.695-1.408,25.255,7.77,36.896c0,0-13.111,1.263-18.664,3.653
				c-8.281,3.565-16.908,8.837-23.525,15.987c-3.025,3.268-1.213,6.821-3.379,10.713c-3.822,6.434-12.717,15.625-17.842,21.201
				c0,0-3.904,2.073-5.043,3.979c-0.926,1.55-1.057,3.95,0,5.413c0.834,1.158,2.498,3.312,3.033,4.846
				c0.617,1.768,0.426,5.691,1.027,7.465c1.031,3.049,6.07,3.973,6.07,3.973s8.713-2.637,11.768-8.033
				c1.047-1.85,0.783-7.742,2.34-9.191c3.088-2.879,8.756-2.572,12.633-0.903c1.963,0.847,3.342,2.95,4.061,4.964
				c1.111,3.115,0.695,6.764-1.643,9.104c-2.021,2.021-5.027,1.527-7.545,2.876c-3.348,1.79-5.701,7.421-5.701,7.421
				s5.576,2.748,8.572,2.706c7.799-0.109,13.336-1.402,18.244-7.464c2.287-2.827,1.945-7.621,3.984-10.623
				c2.836-4.176,7.719-6.947,12.512-8.531c3.572-1.182,11.279-0.452,11.279-0.452s0.697,7.786-0.301,11.48
				c-4.496,16.633-16.025,27.729-22.459,43.713c-0.631,1.567-1.236,3.249-1.834,4.973h98.941
				C206.821,160.26,207.94,134.722,206.754,123.133z"/>
		</g>
	</g>
	<g display="none" clip-path="url(#SVGID_9_)">
		<radialGradient id="SVGID_12_" cx="91.3062" cy="260.8008" r="53.3504" gradientUnits="userSpaceOnUse">
			<stop  offset="0.1926" style="stop-color:#ED1C24"/>
			<stop  offset="1" style="stop-color:#9F1D20"/>
		</radialGradient>
		<path fill="url(#SVGID_12_)" stroke="#000000" stroke-miterlimit="10" d="M145.656,250.195
			c-15.279-13.841-45.895-1.389-47.912-0.546c-0.018-2.514-0.024-35.96,11.607-41.18c-19.655,6.32-24.164,39.142-24.431,41.226
			h-0.027l-0.002,0.004c-1.674-0.947-31.22-17.864-29.911-30.671c-4.332,20.082,21.56,40.297,23.461,41.75
			c-2.03,1.192-31.12,18.032-41.484,10.548c15.297,13.858,45.964,1.362,47.916,0.545l0.021,0.036
			c0.017,2.055,0.113,35.966-11.607,41.226c19.642-6.316,24.158-39.102,24.431-41.226h0.002l0.005-0.007
			c1.936,1.098,31.192,17.917,29.891,30.661c4.357-20.196-21.853-40.526-23.491-41.774l-0.006-0.012
			C105.561,259.924,135.177,242.629,145.656,250.195z"/>
		<radialGradient id="SVGID_13_" cx="257.4727" cy="260.8008" r="53.3501" gradientUnits="userSpaceOnUse">
			<stop  offset="0.1926" style="stop-color:#ED1C24"/>
			<stop  offset="1" style="stop-color:#9F1D20"/>
		</radialGradient>
		<path fill="url(#SVGID_13_)" stroke="#000000" stroke-miterlimit="10" d="M311.822,250.195
			c-15.278-13.841-45.894-1.389-47.911-0.546c-0.018-2.514-0.024-35.96,11.607-41.18c-19.655,6.32-24.164,39.142-24.431,41.226
			h-0.027l-0.002,0.004c-1.674-0.947-31.22-17.864-29.911-30.671c-4.332,20.082,21.56,40.297,23.461,41.75
			c-2.03,1.192-31.12,18.032-41.484,10.548c15.297,13.858,45.964,1.362,47.916,0.545l0.021,0.036
			c0.017,2.055,0.113,35.966-11.607,41.226c19.642-6.316,24.158-39.102,24.431-41.226h0.002l0.005-0.007
			c1.936,1.098,31.192,17.917,29.891,30.661c4.357-20.196-21.853-40.526-23.491-41.774l-0.006-0.012
			C271.728,259.924,301.343,242.629,311.822,250.195z"/>
		<radialGradient id="SVGID_14_" cx="423.6392" cy="260.8008" r="53.3504" gradientUnits="userSpaceOnUse">
			<stop  offset="0.1926" style="stop-color:#ED1C24"/>
			<stop  offset="1" style="stop-color:#9F1D20"/>
		</radialGradient>
		<path fill="url(#SVGID_14_)" stroke="#000000" stroke-miterlimit="10" d="M477.989,250.195
			c-15.278-13.841-45.895-1.389-47.912-0.546c-0.018-2.514-0.023-35.96,11.607-41.18c-19.654,6.32-24.163,39.142-24.43,41.226
			h-0.027l-0.002,0.004c-1.674-0.947-31.22-17.864-29.911-30.671c-4.333,20.082,21.56,40.297,23.461,41.75
			c-2.03,1.192-31.12,18.032-41.485,10.548c15.298,13.858,45.965,1.362,47.916,0.545l0.021,0.036
			c0.017,2.055,0.113,35.966-11.607,41.226c19.642-6.316,24.158-39.102,24.431-41.226h0.002l0.005-0.007
			c1.936,1.098,31.192,17.917,29.891,30.661c4.357-20.196-21.854-40.526-23.491-41.774l-0.007-0.012
			C437.895,259.924,467.51,242.629,477.989,250.195z"/>
	</g>
	<g clip-path="url(#SVGID_9_)">
		<g>
			<radialGradient id="SVGID_15_" cx="425.7935" cy="259.4795" r="48.5683" gradientUnits="userSpaceOnUse">
				<stop  offset="0.1926" style="stop-color:#ED1C24"/>
				<stop  offset="1" style="stop-color:#9F1D20"/>
			</radialGradient>
			<path fill="url(#SVGID_15_)" stroke="#000000" stroke-miterlimit="10" d="M457.293,278.684c-7.332-4.99-4.83-7.029-8.211-12.008
				c-3.357-4.94-8.441-7.105-8.521-7.14c0.084-0.174,2.582-5.362,6.002-7.031c3.479-1.699,5.938-0.167,14.08-5.564
				c8.143-5.398,7.438-16.186,7.438-16.186s-1.891,7.248-9.881,11.092c-7.994,3.844-8.504,0.657-14.508,1.088
				s-10.455,3.8-10.455,3.8h-0.012l-0.004-0.009h-0.031l-0.016-0.027c0,0,0.721-5.535-1.883-10.963
				c-2.6-5.428-5.621-4.291-6.244-13.138c-0.623-8.847,4.734-14.08,4.734-14.08s-9.719,4.735-10.369,14.482
				c-0.652,9.747,1.896,11.124,2.146,14.986c0.248,3.863-3.145,8.713-3.145,8.713l0,0l-0.016,0.027h-0.031l-0.006,0.009h-0.012
				c0,0-4.449-3.369-10.453-3.8s-6.514,2.756-14.506-1.088s-9.881-11.092-9.881-11.092s-0.707,10.788,7.438,16.186
				c8.143,5.397,10.602,3.866,14.08,5.564c3.42,1.669,5.918,6.857,6,7.031c-0.08,0.034-5.164,2.199-8.52,7.14
				c-3.383,4.979-0.879,7.018-8.211,12.008c-7.332,4.989-14.553,2.992-14.553,2.992s8.984,6.017,17.734,1.675
				c8.752-4.341,8.658-7.237,11.871-9.396c3.064-2.059,8.561-1.707,9.063-1.671c-0.031,0.239-0.66,5.634,1.883,10.941
				c2.604,5.428,5.623,4.291,6.246,13.138c0.623,8.847-4.734,14.08-4.734,14.08s9.719-4.735,10.369-14.482
				c0.652-9.747-1.896-11.124-2.146-14.986c-0.242-3.758,2.953-8.436,3.127-8.688c0.307-0.024,5.957-0.43,9.082,1.669
				c3.213,2.159,3.121,5.055,11.871,9.396c8.752,4.342,17.732-1.675,17.732-1.675S464.625,283.672,457.293,278.684z"/>
			<g>
				<path fill="none" stroke="#BE1E2D" stroke-width="0.9906" stroke-miterlimit="10" d="M379.745,281.676
					c0,0,11.264,3.247,17.367-0.883c6.102-4.129,7.119-6.837,10.734-11.776c3.613-4.939,17.947-9.537,17.947-9.537"/>
				<path fill="none" stroke="#BE1E2D" stroke-width="0.9906" stroke-miterlimit="10" d="M429.782,208.517
					c0,0-8.473,8.099-7.975,15.451c0.5,7.352,2.326,9.593,4.777,15.202c2.449,5.608-0.789,20.311-0.789,20.311"/>
				<path fill="none" stroke="#BE1E2D" stroke-width="0.9906" stroke-miterlimit="10" d="M383.51,230.754
					c0,0,2.834,11.373,9.467,14.584c6.631,3.212,9.482,2.736,15.568,3.388c6.086,0.651,17.248,10.753,17.248,10.753"/>
				<path fill="none" stroke="#BE1E2D" stroke-width="0.9906" stroke-miterlimit="10" d="M471.842,281.676
					c0,0-11.262,3.247-17.363-0.883c-6.104-4.129-7.121-6.837-10.734-11.776c-3.613-4.939-17.951-9.537-17.951-9.537"/>
				<path fill="none" stroke="#BE1E2D" stroke-width="0.9906" stroke-miterlimit="10" d="M468.081,230.754
					c0,0-2.836,11.373-9.467,14.584c-6.633,3.212-9.486,2.736-15.57,3.388c-6.086,0.651-17.25,10.753-17.25,10.753"/>
				<path fill="none" stroke="#BE1E2D" stroke-width="0.9906" stroke-miterlimit="10" d="M421.807,310.443
					c0,0,8.473-8.099,7.975-15.451c-0.498-7.352-2.326-9.594-4.775-15.202c-2.451-5.608,0.787-20.31,0.787-20.31"/>
			</g>
		</g>
		<g>
			<radialGradient id="SVGID_16_" cx="261.8057" cy="259.4795" r="48.5681" gradientUnits="userSpaceOnUse">
				<stop  offset="0.1926" style="stop-color:#ED1C24"/>
				<stop  offset="1" style="stop-color:#9F1D20"/>
			</radialGradient>
			<path fill="url(#SVGID_16_)" stroke="#000000" stroke-miterlimit="10" d="M293.305,278.684c-7.332-4.99-4.83-7.029-8.211-12.008
				c-3.357-4.94-8.441-7.105-8.521-7.14c0.084-0.174,2.582-5.362,6.002-7.031c3.479-1.699,5.938-0.167,14.08-5.564
				c8.143-5.398,7.438-16.186,7.438-16.186s-1.891,7.248-9.881,11.092c-7.994,3.844-8.504,0.657-14.508,1.088
				s-10.455,3.8-10.455,3.8h-0.012l-0.004-0.009h-0.031l-0.016-0.027c0,0,0.721-5.535-1.883-10.963
				c-2.6-5.428-5.62-4.291-6.243-13.138c-0.623-8.847,4.733-14.08,4.733-14.08s-9.718,4.735-10.369,14.482
				c-0.651,9.747,1.897,11.124,2.146,14.986s-3.144,8.713-3.144,8.713l0,0l-0.016,0.027h-0.031l-0.006,0.009h-0.012
				c0,0-4.449-3.369-10.453-3.8s-6.514,2.756-14.506-1.088s-9.882-11.092-9.882-11.092s-0.706,10.788,7.438,16.186
				c8.143,5.397,10.602,3.866,14.08,5.564c3.42,1.669,5.918,6.857,6.001,7.031c-0.08,0.034-5.165,2.199-8.521,7.14
				c-3.382,4.979-0.879,7.018-8.211,12.008c-7.332,4.989-14.552,2.992-14.552,2.992s8.983,6.017,17.734,1.675
				c8.751-4.341,8.658-7.237,11.871-9.396c3.064-2.059,8.561-1.707,9.062-1.671c-0.03,0.239-0.659,5.634,1.884,10.941
				c2.603,5.428,5.623,4.291,6.246,13.138c0.623,8.847-4.735,14.08-4.735,14.08s9.719-4.735,10.369-14.482
				c0.652-9.747-1.896-11.124-2.146-14.986c-0.242-3.758,2.953-8.436,3.127-8.688c0.307-0.024,5.957-0.43,9.082,1.669
				c3.213,2.159,3.121,5.055,11.871,9.396c8.752,4.342,17.732-1.675,17.732-1.675S300.637,283.672,293.305,278.684z"/>
			<g>
				<path fill="none" stroke="#BE1E2D" stroke-width="0.9906" stroke-miterlimit="10" d="M215.757,281.676
					c0,0,11.263,3.247,17.366-0.883c6.103-4.129,7.12-6.837,10.734-11.776c3.613-4.939,17.948-9.537,17.948-9.537"/>
				<path fill="none" stroke="#BE1E2D" stroke-width="0.9906" stroke-miterlimit="10" d="M265.793,208.517
					c0,0-8.472,8.099-7.974,15.451c0.499,7.352,2.326,9.593,4.777,15.202c2.449,5.608-0.79,20.311-0.79,20.311"/>
				<path fill="none" stroke="#BE1E2D" stroke-width="0.9906" stroke-miterlimit="10" d="M219.522,230.754
					c0,0,2.835,11.373,9.467,14.584c6.631,3.212,9.483,2.736,15.569,3.388c6.086,0.651,17.248,10.753,17.248,10.753"/>
				<path fill="none" stroke="#BE1E2D" stroke-width="0.9906" stroke-miterlimit="10" d="M307.854,281.676
					c0,0-11.262,3.247-17.363-0.883c-6.104-4.129-7.121-6.837-10.734-11.776c-3.613-4.939-17.95-9.537-17.95-9.537"/>
				<path fill="none" stroke="#BE1E2D" stroke-width="0.9906" stroke-miterlimit="10" d="M304.092,230.754
					c0,0-2.836,11.373-9.467,14.584c-6.633,3.212-9.486,2.736-15.57,3.388c-6.086,0.651-17.249,10.753-17.249,10.753"/>
				<path fill="none" stroke="#BE1E2D" stroke-width="0.9906" stroke-miterlimit="10" d="M257.819,310.443
					c0,0,8.473-8.099,7.975-15.451c-0.498-7.352-2.326-9.594-4.775-15.202c-2.451-5.608,0.788-20.31,0.788-20.31"/>
			</g>
		</g>
		<g>
			<radialGradient id="SVGID_17_" cx="97.8184" cy="259.4795" r="48.5683" gradientUnits="userSpaceOnUse">
				<stop  offset="0.1926" style="stop-color:#ED1C24"/>
				<stop  offset="1" style="stop-color:#9F1D20"/>
			</radialGradient>
			<path fill="url(#SVGID_17_)" stroke="#000000" stroke-miterlimit="10" d="M129.318,278.684c-7.332-4.99-4.83-7.029-8.212-12.008
				c-3.356-4.94-8.44-7.105-8.521-7.14c0.083-0.174,2.582-5.362,6.001-7.031c3.479-1.699,5.938-0.167,14.08-5.564
				c8.143-5.398,7.438-16.186,7.438-16.186s-1.89,7.248-9.881,11.092c-7.993,3.844-8.503,0.657-14.507,1.088s-10.455,3.8-10.455,3.8
				h-0.012l-0.005-0.009h-0.03l-0.016-0.027c0,0,0.72-5.535-1.883-10.963c-2.601-5.428-5.621-4.291-6.244-13.138
				c-0.623-8.847,4.734-14.08,4.734-14.08s-9.719,4.735-10.37,14.482c-0.651,9.747,1.897,11.124,2.146,14.986
				s-3.144,8.713-3.144,8.713l0,0l-0.016,0.027h-0.031l-0.006,0.009h-0.012c0,0-4.449-3.369-10.453-3.8s-6.514,2.756-14.506-1.088
				s-9.882-11.092-9.882-11.092s-0.706,10.788,7.438,16.186c8.143,5.397,10.602,3.866,14.08,5.564
				c3.42,1.669,5.918,6.857,6.001,7.031c-0.08,0.034-5.165,2.199-8.521,7.14c-3.382,4.979-0.879,7.018-8.211,12.008
				c-7.332,4.989-14.552,2.992-14.552,2.992s8.983,6.017,17.734,1.675c8.751-4.341,8.658-7.237,11.871-9.396
				c3.064-2.059,8.561-1.707,9.062-1.671c-0.03,0.239-0.659,5.634,1.884,10.941c2.603,5.428,5.623,4.291,6.246,13.138
				c0.623,8.847-4.735,14.08-4.735,14.08s9.72-4.735,10.37-14.482c0.651-9.747-1.896-11.124-2.146-14.986
				c-0.242-3.758,2.952-8.436,3.127-8.688c0.306-0.024,5.956-0.43,9.081,1.669c3.213,2.159,3.121,5.055,11.872,9.396
				c8.752,4.342,17.732-1.675,17.732-1.675S136.649,283.672,129.318,278.684z"/>
			<g>
				<path fill="none" stroke="#BE1E2D" stroke-width="0.9906" stroke-miterlimit="10" d="M51.77,281.676
					c0,0,11.263,3.247,17.366-0.883c6.103-4.129,7.12-6.837,10.734-11.776c3.613-4.939,17.948-9.537,17.948-9.537"/>
				<path fill="none" stroke="#BE1E2D" stroke-width="0.9906" stroke-miterlimit="10" d="M101.807,208.517
					c0,0-8.473,8.099-7.975,15.451c0.499,7.352,2.326,9.593,4.777,15.202c2.449,5.608-0.79,20.311-0.79,20.311"/>
				<path fill="none" stroke="#BE1E2D" stroke-width="0.9906" stroke-miterlimit="10" d="M55.534,230.754
					c0,0,2.835,11.373,9.467,14.584c6.631,3.212,9.483,2.736,15.569,3.388c6.086,0.651,17.248,10.753,17.248,10.753"/>
				<path fill="none" stroke="#BE1E2D" stroke-width="0.9906" stroke-miterlimit="10" d="M143.867,281.676
					c0,0-11.262,3.247-17.364-0.883s-7.12-6.837-10.733-11.776c-3.614-4.939-17.951-9.537-17.951-9.537"/>
				<path fill="none" stroke="#BE1E2D" stroke-width="0.9906" stroke-miterlimit="10" d="M140.104,230.754
					c0,0-2.835,11.373-9.466,14.584c-6.633,3.212-9.486,2.736-15.57,3.388c-6.086,0.651-17.25,10.753-17.25,10.753"/>
				<path fill="none" stroke="#BE1E2D" stroke-width="0.9906" stroke-miterlimit="10" d="M93.831,310.443
					c0,0,8.474-8.099,7.975-15.451c-0.498-7.352-2.326-9.594-4.775-15.202c-2.451-5.608,0.788-20.31,0.788-20.31"/>
			</g>
		</g>
	</g>
	<use xlink:href="#SVGID_3_"  overflow="visible" fill="none" stroke="#000000" stroke-width="7" stroke-miterlimit="10"/>
</g>
<radialGradient id="SVGID_18_" cx="261.8062" cy="575.5225" r="180.5935" gradientUnits="userSpaceOnUse">
	<stop  offset="0.6316" style="stop-color:#FFFFFF"/>
	<stop  offset="0.7049" style="stop-color:#F4F5F5"/>
	<stop  offset="0.8549" style="stop-color:#EAEBEB"/>
	<stop  offset="1" style="stop-color:#E6E7E8"/>
</radialGradient>
<path display="none" fill="url(#SVGID_18_)" stroke="#000000" stroke-width="3" stroke-miterlimit="10" d="M474.52,493.628
	c0,0-35,101-212.714,101s-212.714-101-212.714-101s-32,43-29,61S84.52,657.416,261.806,657.416S500.52,572.628,503.52,554.628
	S474.52,493.628,474.52,493.628z"/>
<g display="none">
	<path fill="none" d="M20.093,554.628c3,18,64.428,102.788,241.714,102.788c177.286,0,238.713-84.788,241.713-102.788"/>
	<path display="inline" d="M46.122,561.705l4.165-0.862c-0.928,2.701-0.634,4.756,0.879,6.163c0.993,0.923,2.407,1.164,4.243,0.725
		c1.836-0.44,3.776-1.481,5.82-3.123l17.64-14.192c-0.343-0.49-0.599-0.814-0.767-0.971c-1.388-1.29-3.173-1.688-5.356-1.196
		c-2.184,0.493-4.211,1.747-6.085,3.763l-3.973-0.635c3.164-3.049,6.424-4.676,9.783-4.881s6.472,1.025,9.34,3.691l1.022,0.95
		c-3.958,7.377-8.49,14.53-13.599,21.459l25.282-10.598l3.101,2.078l-6.113,4.653l-15.176,12.2
		c-1.344,1.091-2.363,2.011-3.059,2.759c-0.942,1.014-0.963,1.938-0.063,2.775c0.446,0.414,1.102,0.906,1.968,1.476l-1.192,0.953
		l-7.806-4.102l24.175-19.451L64.12,576.247l-1.557-0.932l0.466-0.501c4.186-4.502,8.58-10.84,13.183-19.012l-7.586,6.085
		c-9.344,7.521-16.136,9.312-20.375,5.37C46.77,565.882,46.061,564.03,46.122,561.705z"/>
	<path display="inline" d="M95.245,587.574l-0.264-0.166c-3.203,2.646-6.241,4.534-9.114,5.668
		c-2.873,1.134-4.983,1.274-6.332,0.423c-2.047-1.292-1.963-3.693,0.252-7.203c2.442-3.869,5.96-6.947,10.555-9.234
		c4.756-2.371,8.814-2.496,12.174-0.375c1.389,0.876,2.79,1.872,4.205,2.988l-4.775,5.241l-7.632,8.96
		c-1.197,1.401-1.938,2.328-2.223,2.78c-0.529,0.838-0.507,1.438,0.066,1.799c0.971,0.613,3.341,0.063,7.11-1.647l-1.433,1.689
		c-4.103,1.779-7.001,2.135-8.694,1.066c-1.411-0.891-1.482-2.34-0.215-4.348c0.419-0.664,1.25-1.721,2.492-3.168L95.245,587.574z
		 M101.452,580.336c-0.753-1.517-1.727-2.651-2.921-3.405c-1.767-1.115-4.145-0.478-7.133,1.912c-3.525,2.832-6.199,5.69-8.02,8.575
		c-1.318,2.088-1.53,3.413-0.637,3.977c0.834,0.527,2.792,0.085,5.875-1.325c3.082-1.41,6.188-3.284,9.319-5.622L101.452,580.336z"
		/>
	<path display="inline" d="M98.487,604.452l4.308-5.986l6.588-9.756c1.024-1.514,1.656-2.518,1.896-3.014
		c0.424-0.877,0.331-1.464-0.279-1.759c-1.014-0.489-3.306,0.322-6.877,2.435l1.222-1.816c3.868-2.25,6.706-2.938,8.516-2.064
		c1.489,0.719,1.721,2.141,0.695,4.265c-0.349,0.722-1.049,1.867-2.101,3.438l-3.294,4.878l0.232,0.112
		c3.043-2.999,5.911-5.207,8.604-6.622c2.692-1.414,4.741-1.782,6.148-1.103c1.696,0.819,1.921,2.518,0.677,5.094
		c-0.404,0.836-0.984,1.813-1.741,2.931l-6.511,9.637c-1.032,1.527-1.663,2.531-1.896,3.013c-0.431,0.892-0.341,1.485,0.269,1.78
		c1.034,0.499,3.332-0.31,6.893-2.427l-1.248,1.83c-3.861,2.236-6.696,2.917-8.505,2.043c-1.489-0.719-1.718-2.146-0.687-4.282
		c0.342-0.707,1.046-1.85,2.115-3.427l6.526-9.668c0.514-0.746,0.904-1.396,1.17-1.946c0.553-1.146,0.52-1.869-0.101-2.169
		c-1.975-0.954-6.784,2.005-14.427,8.877l-4.795,7.034L98.487,604.452z"/>
	<path display="inline" d="M121.765,615.119l3.692-6.385l5.587-10.361c0.869-1.607,1.398-2.67,1.587-3.187
		c0.335-0.915,0.184-1.49-0.452-1.723c-1.057-0.387-3.258,0.648-6.602,3.105l1.036-1.929c3.625-2.624,6.381-3.591,8.269-2.9
		c1.553,0.568,1.925,1.96,1.115,4.175c-0.275,0.753-0.859,1.963-1.75,3.629l-2.793,5.182l0.243,0.088
		c2.73-3.286,5.365-5.768,7.903-7.442s4.541-2.244,6.008-1.708c1.769,0.646,2.162,2.314,1.179,5.001
		c-0.318,0.872-0.799,1.901-1.441,3.09l-5.522,10.234c-0.875,1.623-1.403,2.685-1.587,3.187c-0.34,0.931-0.192,1.512,0.444,1.744
		c1.078,0.395,3.284-0.638,6.617-3.098l-1.06,1.944c-3.62,2.608-6.374,3.567-8.261,2.877c-1.553-0.567-1.922-1.965-1.108-4.192
		c0.27-0.738,0.857-1.944,1.764-3.62l5.534-10.269c0.437-0.793,0.761-1.478,0.971-2.053c0.437-1.194,0.332-1.911-0.315-2.147
		c-2.06-0.753-6.552,2.668-13.475,10.265l-4.073,7.476L121.765,615.119z"/>
	<path display="inline" d="M161.332,620.738l-0.739,1.679c-4.459,2.374-7.928,3.214-10.404,2.519c-1.57-0.44-2.633-1.551-3.189-3.33
		c-0.556-1.78-0.499-3.864,0.171-6.254c1.197-4.266,3.517-7.941,6.96-11.03c3.443-3.088,6.519-4.252,9.228-3.492
		c0.984,0.276,1.653,0.954,2.006,2.031s0.327,2.342-0.08,3.793c-0.814,2.902-2.599,5.093-5.351,6.57
		c-2.753,1.478-5.633,1.794-8.641,0.95l-0.303,1.018c-1.241,4.42-0.678,6.962,1.688,7.626
		C154.725,623.392,157.608,622.698,161.332,620.738z M151.715,612.798c2.553,0.423,4.734,0.092,6.541-0.993
		c1.808-1.085,3.041-2.801,3.699-5.147c0.65-2.315,0.361-3.646-0.866-3.99c-1.327-0.373-2.949,0.475-4.864,2.542
		C154.309,607.275,152.806,609.806,151.715,612.798z"/>
	<path display="inline" d="M164.983,628.464l2.788-6.82l4.081-10.902c0.416-1.1,0.713-2.063,0.894-2.892
		c0.287-1.32,0.094-2.054-0.58-2.2c-1.189-0.259-3.267,1.106-6.232,4.096l0.749-1.983c3.424-3.261,6.089-4.684,7.998-4.269
		c1.616,0.352,2.148,1.794,1.598,4.327c-0.244,1.121-0.615,2.342-1.114,3.664l-2.015,5.374l0.219,0.048
		c2.171-3.554,4.434-6.352,6.788-8.393c2.354-2.041,4.288-2.897,5.803-2.567c0.785,0.171,1.434,0.563,1.947,1.179l-3.145,3.677
		c-0.532-0.743-1.028-1.164-1.488-1.265c-2.188-0.476-6.057,3.288-11.605,11.291l-3.056,8.136L164.983,628.464z"/>
	<path display="inline" d="M179.803,630.5l2.775-2.758c1.218,1.723,2.59,2.713,4.116,2.972c0.938,0.159,1.786-0.043,2.544-0.608
		c0.758-0.564,1.222-1.343,1.391-2.335c0.187-1.101-0.198-2.713-1.153-4.837l-1.151-2.588c-1.121-2.519-1.553-4.537-1.295-6.057
		c0.358-2.107,1.406-3.855,3.145-5.243c1.738-1.387,3.547-1.921,5.427-1.602c1.03,0.175,2.135,0.666,3.314,1.472l-1.62,5.012
		l-1.087-0.185l0.118-0.387c0.046-0.136,0.085-0.296,0.117-0.482c0.355-2.093-0.449-3.306-2.414-3.64
		c-2.202-0.374-3.508,0.648-3.919,3.066c-0.208,1.225,0.172,2.964,1.141,5.217l1.033,2.353c1.12,2.599,1.552,4.649,1.296,6.153
		c-0.353,2.077-1.472,3.793-3.356,5.147s-3.851,1.857-5.9,1.509C182.888,632.436,181.38,631.709,179.803,630.5z"/>
	<path display="inline" d="M230.592,635.661l2.544-3.408c1.099,2.636,2.681,3.979,4.748,4.026c1.354,0.032,2.573-0.726,3.654-2.273
		c1.081-1.547,1.842-3.613,2.281-6.198l3.778-22.322c-0.583-0.14-0.989-0.212-1.218-0.218c-1.895-0.044-3.495,0.843-4.801,2.66
		c-1.306,1.817-1.991,4.102-2.056,6.852l-3.393,2.162c0.343-4.38,1.703-7.761,4.079-10.143c2.376-2.383,5.521-3.528,9.437-3.437
		l1.395,0.032c1.935,8.146,3.291,16.504,4.066,25.078l11.881-24.705l3.699-0.504l-1.486,7.538l-3.256,19.197
		c-0.281,1.708-0.434,3.072-0.459,4.095c-0.031,1.383,0.566,2.089,1.795,2.117c0.609,0.015,1.426-0.053,2.451-0.202l-0.258,1.504
		l-8.563,2.112l5.178-30.595l-12.384,25.566l-1.782,0.336l0.016-0.684c0.144-6.146-0.775-13.803-2.754-22.971l-1.637,9.586
		c-1.999,11.828-5.892,17.674-11.679,17.538C233.849,638.355,232.09,637.441,230.592,635.661z"/>
	<path display="inline" d="M285.848,625.065l-0.311,0.012c-1.146,3.992-2.584,7.269-4.314,9.827
		c-1.729,2.559-3.391,3.868-4.984,3.928c-2.42,0.092-3.707-1.937-3.863-6.085c-0.172-4.571,0.99-9.1,3.488-13.583
		c2.582-4.645,5.859-7.042,9.83-7.191c1.641-0.062,3.361-0.032,5.158,0.089l-0.977,7.022l-1.23,11.705
		c-0.195,1.833-0.283,3.017-0.264,3.55c0.037,0.99,0.395,1.473,1.072,1.447c1.146-0.044,2.793-1.836,4.934-5.379l-0.227,2.204
		c-2.379,3.787-4.568,5.718-6.57,5.793c-1.666,0.063-2.545-1.092-2.635-3.464c-0.029-0.785,0.059-2.126,0.266-4.022L285.848,625.065
		z M286.877,615.586c-1.479-0.825-2.924-1.211-4.334-1.158c-2.088,0.079-3.689,1.948-4.803,5.609
		c-1.309,4.329-1.898,8.198-1.77,11.607c0.094,2.467,0.668,3.68,1.723,3.641c0.986-0.037,2.352-1.509,4.098-4.415
		c1.744-2.905,3.248-6.207,4.51-9.905L286.877,615.586z"/>
	<path display="inline" d="M296.272,637.606l0.639-7.348l0.936-16.439c0.328-5.742,1.496-10.291,3.504-13.646
		c2.006-3.355,4.646-5.176,7.918-5.461c1.133-0.099,2.176-0.024,3.133,0.224l-2.059,3.564c-1.41-0.713-2.592-1.028-3.541-0.945
		c-1.521,0.133-2.713,0.955-3.572,2.466c-0.5,0.881-0.857,1.961-1.074,3.242c-0.217,1.282-0.479,3.917-0.789,7.905l-0.803,10.415
		l0.207-0.018c0.793-3.32,1.98-6.056,3.563-8.206s3.248-3.302,5-3.455c1.932-0.168,3.012,1.024,3.234,3.577
		c0.232,2.663-0.363,4.964-1.785,6.902c-1.422,1.939-3.563,3.365-6.422,4.277c3.787,5.888,6.465,8.763,8.033,8.626
		c0.994-0.087,2.154-1.143,3.475-3.168l-0.094,1.689c-2.023,3.112-3.715,4.728-5.076,4.847c-1.098,0.096-2.27-0.548-3.514-1.931
		c-1.246-1.383-3.455-4.484-6.631-9.305l-0.666,11.587L296.272,637.606z M300.627,624.087l-0.008,0.309l0.582-0.051
		c2.402-0.21,4.402-1.283,5.996-3.222c1.596-1.938,2.287-4.121,2.074-6.55c-0.133-1.534-0.646-2.264-1.539-2.186
		C305.799,612.557,303.43,616.456,300.627,624.087z"/>
	<path display="inline" d="M321.145,650.034l1.889-3.604c1.254,0.742,2.523,1.022,3.809,0.839c1.58-0.225,2.701-1.17,3.363-2.837
		c0.662-1.666,1.061-4.582,1.199-8.746l0.521-15.296l-0.223,0.031c-0.803,3.895-1.723,7.126-2.762,9.695
		c-1.037,2.569-1.955,3.911-2.75,4.024c-0.83,0.118-1.539-0.404-2.129-1.567c-0.59-1.162-1.273-3.38-2.051-6.652l-2.111-8.966
		c-0.785-3.318-1.543-4.926-2.27-4.822c-0.705,0.101-1.654,1.625-2.848,4.573l0.002-2.43c1.324-3.491,2.783-5.351,4.375-5.577
		c0.91-0.13,1.637,0.339,2.184,1.404c0.545,1.065,1.246,3.372,2.098,6.919l1.826,7.697c0.658,2.749,1.289,4.08,1.891,3.995
		c0.705-0.101,1.508-1.589,2.41-4.465c0.156-0.53,1.014-3.598,2.57-9.203l0.234-7.656l3.592-0.797l-0.48,7.501l-0.623,17.025
		c-0.213,5.763-1.213,10.281-3.004,13.553c-1.791,3.272-4.289,5.137-7.496,5.593C323.145,650.44,322.073,650.362,321.145,650.034z"
		/>
	<path display="inline" d="M341.694,607.357l-3.871,0.759l0.83-1.941l2.941-0.577l-0.32-6.738l3.271-1.843l0.396,7.925l6.373-1.249
		l-0.986,2.309c-1.496,0.069-2.809,0.214-3.936,0.435l-1.369,0.269l0.809,16.304c0.084,1.683,0.191,2.855,0.322,3.519
		c0.238,1.219,0.752,1.751,1.541,1.596c1.217-0.238,2.637-1.799,4.262-4.681l0.111,2.189c-1.605,3.391-3.416,5.284-5.434,5.68
		c-1.916,0.375-3.158-0.887-3.727-3.788c-0.203-1.033-0.348-2.431-0.436-4.192L341.694,607.357z"/>
	<path display="inline" d="M356.424,629.05l-0.549-7.354l-1.717-16.377c-0.596-5.72-0.172-10.396,1.27-14.031
		c1.443-3.634,3.756-5.854,6.939-6.661c1.104-0.279,2.145-0.373,3.129-0.281l-1.461,3.849c-1.506-0.478-2.723-0.6-3.646-0.365
		c-1.77,0.448-2.877,1.667-3.32,3.653c-0.445,1.987-0.396,5.541,0.143,10.662l1.344,12.876l0.268-0.067
		c0.391-4.255,1.164-7.792,2.322-10.609c1.158-2.818,2.488-4.418,3.99-4.799c1.838-0.465,3.107,0.689,3.811,3.463
		c0.232,0.914,0.416,2.036,0.551,3.364l1.207,11.566c0.188,1.817,0.35,2.993,0.484,3.526c0.244,0.96,0.695,1.357,1.354,1.19
		c1.117-0.283,2.355-2.381,3.715-6.295l0.238,2.203c-1.533,4.2-3.271,6.547-5.213,7.038c-1.605,0.407-2.699-0.539-3.283-2.838
		c-0.191-0.761-0.393-2.088-0.6-3.979l-1.199-11.605c-0.098-0.899-0.221-1.646-0.371-2.239c-0.313-1.233-0.803-1.766-1.471-1.596
		c-2.115,0.536-3.896,5.896-5.344,16.081l0.863,8.459L356.424,629.05z"/>
	<path display="inline" d="M410.014,609.76l0.506-4.223c2.268,1.738,4.309,2.112,6.123,1.124c1.191-0.647,1.869-1.912,2.035-3.792
		c0.166-1.881-0.205-4.051-1.111-6.511l-7.852-21.235c-0.574,0.17-0.963,0.31-1.164,0.419c-1.664,0.906-2.609,2.473-2.836,4.699
		s0.318,4.548,1.633,6.965l-1.863,3.565c-1.887-3.969-2.393-7.577-1.52-10.827c0.871-3.249,3.027-5.81,6.469-7.683l1.225-0.667
		c5.736,6.097,11.078,12.668,16.025,19.713l-2.014-27.339l2.955-2.28l2.469,7.275l6.746,18.266c0.607,1.621,1.156,2.88,1.645,3.777
		c0.66,1.216,1.531,1.529,2.611,0.942c0.533-0.291,1.209-0.757,2.023-1.397l0.525,1.433l-6.369,6.099l-10.762-29.104l2.008,28.336
		l-1.377,1.18l-0.328-0.601c-2.939-5.399-7.551-11.58-13.838-18.541l3.359,9.127c4.162,11.25,3.701,18.259-1.383,21.025
		C414.18,610.473,412.2,610.557,410.014,609.76z"/>
	<path display="inline" d="M450.743,571.888l-0.246,0.191c1.402,3.91,2.148,7.408,2.24,10.495c0.092,3.088-0.49,5.121-1.748,6.101
		c-1.91,1.488-4.141,0.594-6.691-2.681c-2.811-3.609-4.514-7.964-5.107-13.062c-0.617-5.278,0.643-9.139,3.777-11.58
		c1.295-1.009,2.709-1.989,4.238-2.941l3.311,6.27l5.84,10.219c0.912,1.602,1.533,2.613,1.861,3.034
		c0.607,0.782,1.18,0.965,1.715,0.548c0.906-0.705,1.193-3.121,0.861-7.247l1.104,1.921c0.281,4.463-0.367,7.31-1.945,8.54
		c-1.316,1.024-2.705,0.601-4.164-1.272c-0.482-0.62-1.193-1.76-2.135-3.418L450.743,571.888z M446.04,563.594
		c-1.682,0.194-3.08,0.725-4.195,1.592c-1.648,1.284-1.855,3.737-0.621,7.359c1.469,4.277,3.252,7.762,5.348,10.453
		c1.518,1.947,2.691,2.597,3.525,1.948c0.777-0.606,1.027-2.599,0.744-5.977c-0.281-3.378-0.99-6.936-2.127-10.674L446.04,563.594z"
		/>
	<path display="inline" d="M467.823,574.336l-4.533-5.816l-7.51-9.065c-1.164-1.408-1.951-2.297-2.359-2.666
		c-0.723-0.654-1.313-0.729-1.766-0.227c-0.756,0.835-0.621,3.263,0.402,7.284l-1.4-1.684c-1.072-4.345-0.934-7.263,0.414-8.753
		c1.107-1.227,2.537-1.05,4.287,0.532c0.596,0.537,1.498,1.532,2.709,2.982l3.754,4.532l0.174-0.191
		c-2.023-3.764-3.334-7.137-3.936-10.118c-0.6-2.981-0.377-5.051,0.67-6.21c1.264-1.396,2.957-1.136,5.078,0.783
		c0.689,0.622,1.463,1.454,2.324,2.494l7.416,8.958c1.176,1.419,1.963,2.308,2.359,2.666c0.734,0.665,1.328,0.745,1.783,0.243
		c0.77-0.853,0.641-3.284-0.391-7.297l1.406,1.712c1.061,4.334,0.916,7.246-0.432,8.736c-1.109,1.228-2.543,1.045-4.303-0.545
		c-0.582-0.527-1.48-1.524-2.693-2.993l-7.443-8.981c-0.572-0.702-1.084-1.259-1.539-1.67c-0.943-0.854-1.646-1.024-2.109-0.514
		c-1.471,1.628,0.018,7.075,4.461,16.342l5.402,6.579L467.823,574.336z"/>
</g>
</svg>
