<!DOCTYPE svg PUBLIC "-//W3C//DTD SVG 1.1//EN" "http://www.w3.org/Graphics/SVG/1.1/DTD/svg11.dtd" [
	<!ENTITY ns_flows "http://ns.adobe.com/Flows/1.0/">
]><svg xmlns="http://www.w3.org/2000/svg" xmlns:xlink="http://www.w3.org/1999/xlink" width="524" height="659" viewBox="0 -0.5 524 659"><linearGradient id="a" gradientUnits="userSpaceOnUse" x1="37.789" y1="515.304" x2="92.683" y2="536.376"><stop offset="0" stop-color="#8B5E3C"/><stop offset=".497" stop-color="#FDC060"/></linearGradient><linearGradient id="b" gradientUnits="userSpaceOnUse" x1="430.929" y1="536.376" x2="485.824" y2="515.304"><stop offset=".503" stop-color="#FDC060"/><stop offset="1" stop-color="#8B5E3C"/></linearGradient><linearGradient id="c" gradientUnits="userSpaceOnUse" x1="1.5" y1="461.128" x2="107.092" y2="461.128"><stop offset="0" stop-color="#BCBEC0"/><stop offset=".333" stop-color="#E6E7E8"/></linearGradient><linearGradient id="d" gradientUnits="userSpaceOnUse" x1="416.52" y1="461.128" x2="522.112" y2="461.128"><stop offset=".632" stop-color="#E6E7E8"/><stop offset=".687" stop-color="#DBDCDD"/><stop offset=".793" stop-color="#CACBCD"/><stop offset=".898" stop-color="#BFC1C3"/><stop offset="1" stop-color="#BCBEC0"/></linearGradient><defs><path id="e" d="M261.113 3.5H10.093v258.714c0 161.08 140 299 251.713 341 118.286-39 251.714-175.92 251.714-337V3.5H261.113z"/></defs><linearGradient id="f" gradientUnits="userSpaceOnUse" x1="261.806" y1="603.214" x2="261.806" y2="3.501"><stop offset="0"/><stop offset="1" stop-color="#414042"/></linearGradient><use xlink:href="#e" overflow="visible" fill="url(#f)"/><clipPath id="g"><use xlink:href="#e" overflow="visible"/></clipPath><linearGradient id="h" gradientUnits="userSpaceOnUse" x1="111.335" y1="299.357" x2="412.277" y2="299.357"><stop offset="0" stop-color="#D51920"/><stop offset="1" stop-color="#B11116"/></linearGradient><path clip-path="url(#g)" fill="url(#h)" stroke="#D1D3D4" stroke-width=".985" stroke-miterlimit="10" d="M261.39 98.62H111.336v173.194c0 107.834 83.69 200.163 150.47 228.28 70.71-26.108 150.472-117.77 150.472-225.602V98.62H261.39z"/><radialGradient id="i" cx="261.825" cy="162.628" r="48" gradientUnits="userSpaceOnUse"><stop offset="0" stop-color="#F4D036"/><stop offset=".049" stop-color="#F4CE35"/><stop offset=".094" stop-color="#F4CF35"/><stop offset="1" stop-color="#F7941E"/></radialGradient><path clip-path="url(#g)" fill="url(#i)" stroke="#000" stroke-width=".764" stroke-miterlimit="10" d="M261.825 114.628c-26.51 0-48 21.49-48 48s21.49 48 48 48 48-21.49 48-48-21.49-48-48-48zm0 78c-16.568 0-30-13.432-30-30s13.432-30 30-30 30 13.432 30 30-13.432 30-30 30z"/><g clip-path="url(#g)"><radialGradient id="j" cx="261.806" cy="552.743" r="39.121" gradientUnits="userSpaceOnUse"><stop offset=".193" stop-color="#F7941E"/><stop offset="1" stop-color="#F4D036"/></radialGradient><path fill="url(#j)" stroke="#000" stroke-width=".764" stroke-miterlimit="10" d="M287.18 568.21c-5.907-4.018-3.892-5.66-6.615-9.67-2.704-3.98-6.8-5.724-6.863-5.752.066-.14 2.078-4.32 4.834-5.663 2.8-1.368 4.78-.135 11.34-4.48 6.56-4.35 5.99-13.04 5.99-13.04s-1.52 5.838-7.958 8.935c-6.438 3.096-6.85.53-11.685.876-4.837.35-8.422 3.062-8.422 3.062h-.008l-.004-.008h-.024l-.014-.02s.58-4.46-1.516-8.832c-2.095-4.373-4.528-3.456-5.03-10.583-.5-7.126 3.814-11.34 3.814-11.34s-7.827 3.813-8.353 11.665c-.525 7.85 1.528 8.96 1.73 12.07.198 3.11-2.532 7.02-2.532 7.02l-.014.02h-.026l-.005.008h-.01s-3.585-2.713-8.42-3.062c-4.837-.347-5.247 2.22-11.685-.876-6.438-3.097-7.96-8.935-7.96-8.935s-.568 8.69 5.99 13.04c6.56 4.346 8.54 3.112 11.342 4.48 2.755 1.344 4.767 5.522 4.834 5.663-.063.028-4.16 1.77-6.862 5.752-2.725 4.01-.708 5.652-6.614 9.67-5.905 4.02-11.722 2.412-11.722 2.412s7.236 4.846 14.287 1.35c7.046-3.498 6.972-5.83 9.56-7.57 2.47-1.656 6.896-1.375 7.3-1.344-.025.19-.532 4.536 1.518 8.812 2.096 4.372 4.527 3.457 5.03 10.582.502 7.126-3.815 11.342-3.815 11.342s7.83-3.813 8.354-11.665c.523-7.853-1.528-8.96-1.73-12.072-.194-3.027 2.378-6.796 2.52-7 .245-.02 4.796-.346 7.313 1.345 2.59 1.74 2.515 4.072 9.563 7.57 7.05 3.496 14.285-1.35 14.285-1.35s-5.815 1.606-11.72-2.412z"/><g fill="none" stroke="#FBB040" stroke-miterlimit="10"><path d="M224.713 570.622s9.072 2.614 13.99-.712c4.915-3.325 5.735-5.507 8.645-9.485 2.91-3.98 14.458-7.683 14.458-7.683M265.018 511.692s-6.824 6.523-6.424 12.445c.403 5.922 1.875 7.73 3.85 12.245 1.972 4.518-.637 16.36-.637 16.36M227.747 529.604s2.282 9.16 7.625 11.748c5.342 2.586 7.64 2.202 12.542 2.73 4.902.522 13.893 8.66 13.893 8.66"/><path d="M298.9 570.622s-9.074 2.614-13.988-.712c-4.916-3.325-5.736-5.507-8.646-9.485-2.912-3.98-14.46-7.683-14.46-7.683M295.867 529.604s-2.283 9.16-7.624 11.748c-5.343 2.586-7.64 2.202-12.542 2.73-4.9.522-13.894 8.66-13.894 8.66"/><path d="M258.593 593.793s6.826-6.523 6.425-12.444c-.4-5.923-1.874-7.73-3.847-12.248-1.975-4.517.636-16.36.636-16.36"/></g><radialGradient id="k" cx="425.873" cy="407.075" r="39.122" gradientUnits="userSpaceOnUse"><stop offset=".193" stop-color="#F7941E"/><stop offset="1" stop-color="#F4D036"/></radialGradient><path fill="url(#k)" stroke="#000" stroke-width=".764" stroke-miterlimit="10" d="M451.247 422.544c-5.906-4.02-3.89-5.662-6.614-9.67-2.704-3.982-6.8-5.725-6.863-5.753.066-.14 2.078-4.318 4.834-5.662 2.8-1.368 4.78-.135 11.34-4.48 6.56-4.35 5.99-13.04 5.99-13.04s-1.52 5.838-7.958 8.935c-6.438 3.096-6.85.53-11.685.876-4.836.348-8.42 3.06-8.42 3.06h-.01l-.004-.007h-.024l-.014-.02s.58-4.46-1.516-8.832c-2.095-4.372-4.528-3.455-5.03-10.582-.5-7.125 3.814-11.34 3.814-11.34s-7.827 3.813-8.353 11.665c-.525 7.85 1.528 8.96 1.73 12.072.198 3.11-2.532 7.018-2.532 7.018l-.013.02h-.025l-.005.01h-.01s-3.584-2.714-8.42-3.063c-4.836-.347-5.246 2.22-11.684-.876-6.438-3.097-7.96-8.935-7.96-8.935s-.568 8.688 5.99 13.038c6.56 4.347 8.54 3.113 11.342 4.48 2.755 1.345 4.767 5.523 4.834 5.664-.065.028-4.16 1.77-6.864 5.752-2.725 4.01-.708 5.652-6.614 9.67-5.905 4.02-11.722 2.412-11.722 2.412s7.236 4.846 14.287 1.35c7.047-3.498 6.973-5.83 9.56-7.57 2.47-1.656 6.897-1.375 7.3-1.344-.024.19-.53 4.536 1.52 8.812 2.095 4.372 4.526 3.457 5.03 10.582.5 7.126-3.816 11.342-3.816 11.342s7.83-3.813 8.355-11.665c.523-7.852-1.528-8.96-1.73-12.07-.194-3.028 2.378-6.797 2.52-7 .245-.02 4.796-.347 7.313 1.344 2.59 1.74 2.515 4.072 9.563 7.57 7.052 3.496 14.286-1.35 14.286-1.35s-5.815 1.605-11.72-2.413z"/><g fill="none" stroke="#FBB040" stroke-miterlimit="10"><path d="M388.78 424.955s9.073 2.614 13.99-.712c4.916-3.325 5.736-5.507 8.646-9.485 2.91-3.98 14.458-7.683 14.458-7.683M429.085 366.025s-6.824 6.523-6.424 12.445c.404 5.922 1.876 7.73 3.85 12.245 1.973 4.518-.636 16.36-.636 16.36"/><path d="M391.814 383.938s2.282 9.16 7.625 11.748c5.34 2.586 7.64 2.202 12.54 2.73 4.903.522 13.894 8.66 13.894 8.66M462.966 424.955s-9.073 2.614-13.987-.712c-4.917-3.325-5.737-5.507-8.647-9.485-2.912-3.98-14.46-7.683-14.46-7.683"/><path d="M459.934 383.938s-2.283 9.16-7.624 11.748c-5.343 2.586-7.64 2.202-12.542 2.73-4.902.522-13.895 8.66-13.895 8.66"/><path d="M422.66 448.126s6.827-6.523 6.426-12.444c-.4-5.922-1.874-7.73-3.847-12.247-1.977-4.517.634-16.36.634-16.36"/></g><g><radialGradient id="l" cx="100.823" cy="407.075" r="39.122" gradientUnits="userSpaceOnUse"><stop offset=".193" stop-color="#F7941E"/><stop offset="1" stop-color="#F4D036"/></radialGradient><path fill="url(#l)" stroke="#000" stroke-width=".764" stroke-miterlimit="10" d="M126.196 422.544c-5.906-4.02-3.89-5.662-6.614-9.67-2.704-3.982-6.8-5.725-6.863-5.753.065-.14 2.077-4.318 4.833-5.662 2.8-1.368 4.78-.135 11.34-4.48 6.56-4.35 5.99-13.04 5.99-13.04s-1.52 5.838-7.958 8.935c-6.438 3.096-6.85.53-11.685.876-4.837.348-8.422 3.06-8.422 3.06h-.01l-.003-.007h-.024l-.013-.02s.58-4.46-1.516-8.832c-2.094-4.372-4.527-3.455-5.028-10.582-.502-7.125 3.813-11.34 3.813-11.34s-7.827 3.813-8.353 11.665c-.525 7.85 1.528 8.96 1.73 12.072.198 3.11-2.532 7.018-2.532 7.018l-.014.02h-.025l-.004.01h-.01s-3.584-2.714-8.42-3.063c-4.836-.347-5.246 2.22-11.684-.876-6.438-3.097-7.96-8.935-7.96-8.935s-.568 8.688 5.99 13.038c6.56 4.347 8.54 3.113 11.342 4.48 2.755 1.345 4.767 5.523 4.834 5.664-.064.028-4.16 1.77-6.863 5.752-2.725 4.01-.708 5.652-6.614 9.67-5.904 4.02-11.72 2.412-11.72 2.412s7.235 4.846 14.286 1.35c7.047-3.498 6.973-5.83 9.56-7.57 2.47-1.656 6.897-1.375 7.3-1.344-.024.19-.53 4.536 1.52 8.812 2.095 4.372 4.526 3.457 5.03 10.582.5 7.126-3.816 11.342-3.816 11.342s7.83-3.813 8.354-11.665c.523-7.852-1.528-8.96-1.73-12.07-.194-3.028 2.378-6.797 2.52-7 .245-.02 4.796-.347 7.313 1.344 2.59 1.74 2.515 4.072 9.563 7.57 7.05 3.496 14.285-1.35 14.285-1.35s-5.814 1.605-11.72-2.413z"/><g fill="none" stroke="#FBB040" stroke-miterlimit="10"><path d="M63.73 424.955s9.072 2.614 13.99-.712c4.915-3.325 5.735-5.507 8.645-9.485 2.91-3.98 14.458-7.683 14.458-7.683M104.035 366.025s-6.824 6.523-6.424 12.445c.404 5.922 1.876 7.73 3.85 12.245 1.973 4.518-.636 16.36-.636 16.36"/><path d="M66.764 383.938s2.282 9.16 7.625 11.748c5.34 2.586 7.64 2.202 12.54 2.73 4.903.522 13.894 8.66 13.894 8.66M137.916 424.955s-9.073 2.614-13.987-.712c-4.917-3.325-5.737-5.507-8.647-9.485-2.912-3.98-14.46-7.683-14.46-7.683"/><path d="M134.884 383.938s-2.283 9.16-7.624 11.748c-5.343 2.586-7.64 2.202-12.542 2.73-4.902.522-13.895 8.66-13.895 8.66"/><path d="M97.61 448.126s6.826-6.523 6.425-12.444c-.4-5.922-1.874-7.73-3.847-12.247-1.976-4.517.635-16.36.635-16.36"/></g></g><g><radialGradient id="m" cx="59.769" cy="240.515" r="39.121" gradientUnits="userSpaceOnUse"><stop offset=".193" stop-color="#F7941E"/><stop offset="1" stop-color="#F4D036"/></radialGradient><path fill="url(#m)" stroke="#000" stroke-width=".764" stroke-miterlimit="10" d="M85.142 255.984c-5.906-4.02-3.89-5.662-6.615-9.672-2.704-3.98-6.8-5.724-6.863-5.75.067-.142 2.08-4.32 4.834-5.665 2.802-1.368 4.782-.135 11.342-4.482 6.56-4.348 5.99-13.038 5.99-13.038s-1.52 5.837-7.96 8.934c-6.437 3.097-6.848.53-11.684.878-4.837.347-8.422 3.062-8.422 3.062h-.01l-.004-.007h-.024l-.013-.022s.58-4.457-1.516-8.83c-2.095-4.373-4.528-3.457-5.03-10.584-.502-7.126 3.813-11.34 3.813-11.34s-7.828 3.813-8.353 11.664c-.525 7.852 1.528 8.96 1.73 12.072s-2.532 7.018-2.532 7.018l-.014.022h-.023l-.005.007h-.01s-3.584-2.715-8.42-3.063-5.247 2.22-11.685-.877c-6.438-3.097-7.96-8.934-7.96-8.934s-.568 8.69 5.99 13.038c6.56 4.347 8.54 3.114 11.343 4.482 2.755 1.344 4.767 5.523 4.834 5.664-.065.027-4.16 1.77-6.863 5.75-2.724 4.01-.708 5.653-6.613 9.673-5.906 4.018-11.722 2.41-11.722 2.41s7.236 4.847 14.285 1.35c7.05-3.498 6.975-5.83 9.562-7.57 2.47-1.657 6.896-1.374 7.3-1.345-.024.192-.53 4.537 1.517 8.813 2.096 4.373 4.53 3.458 5.03 10.584.502 7.125-3.813 11.34-3.813 11.34s7.83-3.813 8.353-11.665c.524-7.852-1.527-8.96-1.73-12.072-.194-3.027 2.38-6.796 2.52-7 .246-.02 4.797-.346 7.314 1.346 2.588 1.74 2.514 4.072 9.563 7.568 7.05 3.498 14.283-1.35 14.283-1.35s-5.814 1.61-11.718-2.408z"/><g fill="none" stroke="#FBB040" stroke-miterlimit="10"><path d="M22.676 258.394s9.072 2.615 13.99-.71c4.914-3.328 5.733-5.508 8.645-9.487 2.912-3.978 14.458-7.682 14.458-7.682"/><path d="M62.98 199.465s-6.823 6.523-6.423 12.446c.402 5.922 1.875 7.73 3.85 12.246s-.638 16.36-.638 16.36M25.71 217.377s2.282 9.16 7.624 11.748c5.342 2.586 7.64 2.203 12.54 2.73 4.902.523 13.894 8.66 13.894 8.66"/><path d="M96.86 258.394s-9.07 2.615-13.986-.71c-4.915-3.328-5.735-5.508-8.646-9.487-2.91-3.978-14.46-7.682-14.46-7.682M93.83 217.377s-2.284 9.16-7.624 11.748c-5.344 2.586-7.642 2.203-12.542 2.73-4.902.523-13.896 8.66-13.896 8.66"/><path d="M56.557 281.565s6.825-6.523 6.423-12.445c-.4-5.922-1.874-7.728-3.847-12.245-1.975-4.517.635-16.36.635-16.36"/></g><g><radialGradient id="n" cx="463.842" cy="240.515" r="39.122" gradientUnits="userSpaceOnUse"><stop offset=".193" stop-color="#F7941E"/><stop offset="1" stop-color="#F4D036"/></radialGradient><path fill="url(#n)" stroke="#000" stroke-width=".764" stroke-miterlimit="10" d="M489.215 255.984c-5.905-4.02-3.89-5.662-6.614-9.672-2.703-3.98-6.798-5.724-6.862-5.75.066-.142 2.078-4.32 4.834-5.665 2.8-1.368 4.78-.135 11.34-4.482 6.56-4.348 5.99-13.038 5.99-13.038s-1.52 5.837-7.958 8.934c-6.438 3.097-6.85.53-11.685.878-4.838.347-8.423 3.062-8.423 3.062h-.01l-.003-.007h-.024l-.014-.022s.58-4.457-1.517-8.83c-2.095-4.373-4.528-3.457-5.03-10.584-.5-7.126 3.814-11.34 3.814-11.34s-7.827 3.813-8.353 11.664c-.524 7.852 1.53 8.96 1.73 12.072s-2.53 7.018-2.53 7.018l-.014.022h-.025l-.004.007h-.01s-3.584-2.715-8.42-3.063-5.246 2.22-11.684-.877c-6.438-3.097-7.96-8.934-7.96-8.934s-.568 8.69 5.99 13.038c6.56 4.347 8.54 3.114 11.342 4.482 2.755 1.344 4.767 5.523 4.834 5.664-.064.027-4.16 1.77-6.863 5.75-2.725 4.01-.708 5.653-6.614 9.673-5.904 4.018-11.72 2.41-11.72 2.41s7.235 4.847 14.286 1.35c7.047-3.498 6.973-5.83 9.56-7.57 2.47-1.657 6.897-1.374 7.3-1.345-.024.192-.53 4.537 1.518 8.813 2.096 4.373 4.528 3.458 5.03 10.584.503 7.125-3.814 11.34-3.814 11.34s7.83-3.813 8.354-11.665c.523-7.852-1.528-8.96-1.73-12.072-.194-3.027 2.378-6.796 2.52-7 .245-.02 4.796-.346 7.313 1.346 2.59 1.74 2.515 4.072 9.563 7.568 7.05 3.498 14.285-1.35 14.285-1.35s-5.815 1.61-11.72-2.408z"/><g fill="none" stroke="#FBB040" stroke-miterlimit="10"><path d="M426.75 258.394s9.072 2.615 13.99-.71c4.915-3.328 5.735-5.508 8.645-9.487 2.91-3.978 14.457-7.682 14.457-7.682M467.054 199.465s-6.824 6.523-6.424 12.446c.402 5.922 1.875 7.73 3.85 12.246 1.972 4.517-.637 16.36-.637 16.36M429.783 217.377s2.282 9.16 7.625 11.748c5.342 2.586 7.64 2.203 12.542 2.73 4.902.523 13.892 8.66 13.892 8.66"/><path d="M500.935 258.394s-9.073 2.615-13.988-.71c-4.915-3.328-5.735-5.508-8.645-9.487-2.912-3.978-14.46-7.682-14.46-7.682M497.903 217.377s-2.283 9.16-7.624 11.748c-5.344 2.586-7.643 2.203-12.543 2.73-4.902.523-13.896 8.66-13.896 8.66M460.63 281.565s6.825-6.523 6.424-12.445c-.4-5.922-1.874-7.728-3.847-12.245-1.976-4.517.634-16.36.634-16.36"/></g></g></g><g><radialGradient id="o" cx="261.806" cy="50.122" r="39.122" gradientUnits="userSpaceOnUse"><stop offset=".193" stop-color="#F7941E"/><stop offset="1" stop-color="#F4D036"/></radialGradient><path fill="url(#o)" stroke="#000" stroke-width=".764" stroke-miterlimit="10" d="M287.178 65.59c-5.906-4.02-3.89-5.662-6.613-9.67-2.705-3.982-6.8-5.725-6.863-5.753.066-.14 2.078-4.32 4.834-5.663 2.8-1.368 4.78-.135 11.34-4.48 6.56-4.35 5.99-13.04 5.99-13.04s-1.52 5.838-7.96 8.935c-6.437 3.095-6.847.528-11.683.875-4.838.35-8.422 3.062-8.422 3.062h-.01l-.003-.008h-.023l-.014-.022s.58-4.46-1.516-8.83c-2.096-4.374-4.53-3.457-5.03-10.584-.5-7.126 3.814-11.34 3.814-11.34s-7.828 3.813-8.354 11.665c-.525 7.85 1.53 8.958 1.73 12.07.2 3.11-2.53 7.018-2.53 7.018l-.015.02h-.026l-.006.01h-.008s-3.586-2.714-8.42-3.063c-4.837-.347-5.247 2.22-11.685-.876-6.438-3.098-7.96-8.936-7.96-8.936s-.568 8.69 5.99 13.04c6.56 4.346 8.54 3.112 11.342 4.48 2.755 1.344 4.767 5.522 4.834 5.663-.063.028-4.16 1.77-6.862 5.752-2.725 4.008-.708 5.65-6.614 9.67-5.905 4.018-11.722 2.41-11.722 2.41s7.236 4.847 14.287 1.35c7.046-3.497 6.972-5.83 9.56-7.57 2.47-1.655 6.897-1.374 7.3-1.343-.026.19-.532 4.536 1.517 8.812 2.096 4.37 4.527 3.456 5.03 10.58.503 7.127-3.815 11.343-3.815 11.343s7.83-3.813 8.355-11.665c.523-7.852-1.53-8.96-1.73-12.07-.194-3.028 2.378-6.797 2.52-7 .245-.02 4.796-.347 7.313 1.344 2.588 1.74 2.514 4.072 9.563 7.57 7.05 3.496 14.285-1.35 14.285-1.35s-5.815 1.606-11.72-2.412z"/><g fill="none" stroke="#FBB040" stroke-miterlimit="10"><path d="M224.713 68s9.072 2.615 13.99-.71c4.915-3.326 5.735-5.508 8.645-9.486 2.91-3.98 14.458-7.683 14.458-7.683M265.018 9.072s-6.824 6.523-6.424 12.445c.402 5.922 1.875 7.73 3.848 12.245 1.973 4.518-.635 16.36-.635 16.36"/><path d="M227.746 26.984s2.282 9.16 7.625 11.748c5.343 2.586 7.64 2.202 12.543 2.73 4.902.522 13.892 8.66 13.892 8.66M298.9 68s-9.075 2.615-13.99-.71c-4.915-3.326-5.735-5.508-8.644-9.486-2.912-3.98-14.46-7.683-14.46-7.683"/><path d="M295.866 26.984s-2.283 9.16-7.623 11.748c-5.344 2.586-7.64 2.202-12.543 2.73-4.902.522-13.895 8.66-13.895 8.66M258.592 91.172s6.826-6.523 6.426-12.444c-.402-5.922-1.875-7.73-3.848-12.247-1.975-4.516.635-16.358.635-16.358"/></g><g><radialGradient id="p" cx="463.843" cy="50.122" r="39.122" gradientUnits="userSpaceOnUse"><stop offset=".193" stop-color="#F7941E"/><stop offset="1" stop-color="#F4D036"/></radialGradient><path fill="url(#p)" stroke="#000" stroke-width=".764" stroke-miterlimit="10" d="M489.215 65.59c-5.906-4.02-3.89-5.662-6.613-9.67-2.705-3.982-6.8-5.725-6.863-5.753.065-.14 2.077-4.32 4.833-5.663 2.8-1.368 4.78-.135 11.34-4.48 6.56-4.35 5.99-13.04 5.99-13.04s-1.52 5.838-7.96 8.935c-6.437 3.095-6.847.528-11.683.875-4.838.35-8.422 3.062-8.422 3.062h-.01l-.004-.008h-.023l-.013-.022s.58-4.46-1.516-8.83c-2.095-4.374-4.528-3.457-5.028-10.584-.502-7.126 3.813-11.34 3.813-11.34s-7.828 3.813-8.354 11.665c-.524 7.85 1.53 8.958 1.73 12.07.2 3.11-2.53 7.018-2.53 7.018l-.014.02h-.025l-.005.01h-.008s-3.586-2.714-8.422-3.063c-4.836-.347-5.246 2.22-11.684-.876-6.437-3.098-7.958-8.936-7.958-8.936s-.568 8.69 5.99 13.04c6.56 4.346 8.54 3.112 11.342 4.48 2.754 1.344 4.766 5.522 4.834 5.663-.064.028-4.16 1.77-6.863 5.752-2.725 4.008-.71 5.65-6.615 9.67-5.904 4.018-11.72 2.41-11.72 2.41s7.235 4.847 14.286 1.35c7.047-3.497 6.973-5.83 9.56-7.57 2.47-1.655 6.897-1.374 7.3-1.343-.025.19-.53 4.536 1.518 8.812 2.096 4.37 4.527 3.456 5.03 10.58.503 7.127-3.815 11.343-3.815 11.343s7.83-3.813 8.354-11.665c.523-7.852-1.53-8.96-1.73-12.07-.194-3.028 2.378-6.797 2.52-7 .245-.02 4.796-.347 7.313 1.344 2.588 1.74 2.514 4.072 9.563 7.57 7.05 3.496 14.285-1.35 14.285-1.35s-5.815 1.606-11.72-2.412z"/><g fill="none" stroke="#FBB040" stroke-miterlimit="10"><path d="M426.75 68s9.072 2.615 13.99-.71c4.914-3.326 5.734-5.508 8.645-9.486s14.457-7.683 14.457-7.683M467.055 9.072s-6.824 6.523-6.424 12.445c.403 5.922 1.876 7.73 3.85 12.245 1.972 4.518-.636 16.36-.636 16.36"/><path d="M429.784 26.984s2.28 9.16 7.625 11.748c5.34 2.586 7.638 2.202 12.54 2.73 4.902.522 13.893 8.66 13.893 8.66M500.936 68s-9.074 2.615-13.988-.71c-4.916-3.326-5.736-5.508-8.645-9.486-2.912-3.98-14.46-7.683-14.46-7.683"/><path d="M497.903 26.984s-2.283 9.16-7.623 11.748c-5.344 2.586-7.64 2.202-12.543 2.73-4.902.522-13.895 8.66-13.895 8.66M460.63 91.172s6.825-6.523 6.425-12.444c-.402-5.922-1.875-7.73-3.848-12.247-1.975-4.516.635-16.358.635-16.358"/></g></g><g><radialGradient id="q" cx="59.769" cy="50.122" r="39.122" gradientUnits="userSpaceOnUse"><stop offset=".193" stop-color="#F7941E"/><stop offset="1" stop-color="#F4D036"/></radialGradient><path fill="url(#q)" stroke="#000" stroke-width=".764" stroke-miterlimit="10" d="M85.142 65.59c-5.906-4.02-3.89-5.662-6.614-9.67-2.704-3.982-6.8-5.725-6.863-5.753.066-.14 2.078-4.32 4.834-5.663 2.8-1.368 4.78-.135 11.34-4.48 6.56-4.35 5.99-13.04 5.99-13.04s-1.52 5.838-7.96 8.935c-6.437 3.095-6.848.528-11.684.875-4.837.35-8.422 3.062-8.422 3.062h-.01l-.003-.008h-.023l-.014-.022s.58-4.46-1.516-8.83c-2.095-4.374-4.528-3.457-5.03-10.584-.5-7.126 3.814-11.34 3.814-11.34s-7.826 3.813-8.352 11.665c-.525 7.85 1.528 8.958 1.73 12.07.198 3.11-2.532 7.018-2.532 7.018l-.014.02h-.025l-.005.01h-.01s-3.584-2.714-8.42-3.063c-4.836-.347-5.246 2.22-11.684-.876-6.438-3.098-7.96-8.936-7.96-8.936s-.568 8.69 5.99 13.04c6.56 4.346 8.54 3.112 11.342 4.48 2.755 1.344 4.767 5.522 4.834 5.663-.064.028-4.16 1.77-6.863 5.752-2.724 4.008-.707 5.65-6.613 9.67C28.492 69.608 22.675 68 22.675 68s7.236 4.847 14.287 1.35c7.047-3.497 6.973-5.83 9.56-7.57 2.47-1.655 6.897-1.374 7.3-1.343-.024.19-.53 4.536 1.52 8.812 2.095 4.37 4.526 3.456 5.03 10.58.5 7.127-3.816 11.343-3.816 11.343s7.83-3.813 8.354-11.665c.523-7.852-1.528-8.96-1.73-12.07-.194-3.028 2.378-6.797 2.52-7 .245-.02 4.796-.347 7.313 1.344 2.59 1.74 2.515 4.072 9.563 7.57C89.626 72.847 96.86 68 96.86 68s-5.814 1.606-11.718-2.412z"/><g fill="none" stroke="#FBB040" stroke-miterlimit="10"><path d="M22.676 68s9.072 2.615 13.99-.71c4.915-3.326 5.735-5.508 8.645-9.486 2.912-3.98 14.46-7.683 14.46-7.683"/><path d="M62.98 9.072s-6.823 6.523-6.423 12.445c.403 5.922 1.875 7.73 3.85 12.245 1.972 4.518-.637 16.36-.637 16.36M25.71 26.984s2.28 9.16 7.624 11.748c5.342 2.586 7.64 2.202 12.542 2.73 4.902.522 13.893 8.66 13.893 8.66"/><path d="M96.862 68s-9.073 2.615-13.987-.71c-4.916-3.326-5.736-5.508-8.646-9.486-2.913-3.98-14.46-7.683-14.46-7.683"/><path d="M93.83 26.984s-2.283 9.16-7.624 11.748c-5.343 2.586-7.64 2.202-12.542 2.73-4.902.522-13.895 8.66-13.895 8.66M56.556 91.172s6.826-6.523 6.425-12.444c-.4-5.922-1.873-7.728-3.846-12.247-1.976-4.516.635-16.358.635-16.358"/></g></g></g></g><g clip-path="url(#g)"><linearGradient id="z" gradientUnits="userSpaceOnUse" x1="101.592" y1="186.5" x2="101.592" y2="3.5"><stop offset="0" stop-color="#D1D3D4"/><stop offset=".807" stop-color="#FFF"/></linearGradient><path fill="url(#z)" stroke="#000" stroke-width="2" stroke-miterlimit="10" d="M10.092 3.5h183v183h-183z"/><g stroke="#000" stroke-width=".357" stroke-miterlimit="10"><path d="M70.61 179.08c-.31-.618-3.654-11.68-3.71-11.5-.056-.18-3.402 10.88-3.71 11.5-.357.713 2.41-.893 2.588-1.696.18-.803 1.02 6.53 1.123 6.35.105.18.945-7.152 1.124-6.35.177.804 2.943 2.41 2.586 1.695z"/><circle cx="63.771" cy="165.025" r="2.275"/><circle cx="66.9" cy="160.832" r="2.276"/><circle cx="70.197" cy="165.025" r="2.275"/><path d="M31.11 129.58c-.31-.618-3.654-11.68-3.71-11.5-.056-.18-3.402 10.88-3.71 11.5-.357.713 2.41-.893 2.588-1.696.18-.803 1.02 6.53 1.123 6.35.105.18.945-7.152 1.124-6.35.177.804 2.943 2.41 2.586 1.695z"/><circle cx="24.271" cy="115.525" r="2.275"/><circle cx="27.4" cy="111.332" r="2.276"/><circle cx="30.697" cy="115.525" r="2.275"/><path d="M31.02 173.864c-.31-.617-3.654-11.678-3.71-11.498-.056-.18-3.402 10.88-3.71 11.498-.357.714 2.41-.892 2.588-1.695.18-.804 1.02 6.53 1.123 6.35.105.18.945-7.153 1.124-6.35.177.802 2.942 2.408 2.586 1.694z"/><circle cx="24.181" cy="159.81" r="2.275"/><circle cx="27.309" cy="155.616" r="2.276"/><circle cx="30.607" cy="159.81" r="2.275"/><path d="M161.11 176.08c-.31-.618-3.654-11.68-3.71-11.5-.056-.18-3.402 10.88-3.71 11.5-.357.713 2.41-.893 2.588-1.696.18-.803 1.02 6.53 1.123 6.35.105.18.945-7.152 1.124-6.35.177.804 2.943 2.41 2.586 1.695z"/><circle cx="154.271" cy="162.025" r="2.275"/><circle cx="157.4" cy="157.832" r="2.276"/><circle cx="160.697" cy="162.025" r="2.275"/><g><path d="M184.61 126.33c-.31-.618-3.654-11.68-3.71-11.5-.056-.18-3.402 10.88-3.71 11.5-.357.713 2.41-.893 2.588-1.696.18-.803 1.02 6.53 1.123 6.35.105.18.945-7.152 1.124-6.35.177.804 2.943 2.41 2.586 1.695z"/><circle cx="177.771" cy="112.275" r="2.275"/><circle cx="180.9" cy="108.082" r="2.276"/><circle cx="184.197" cy="112.275" r="2.275"/></g><g><path d="M37.11 67.08c-.31-.618-3.654-11.68-3.71-11.5-.056-.18-3.402 10.88-3.71 11.5-.357.713 2.41-.893 2.588-1.696.18-.803 1.02 6.53 1.123 6.35.105.18.945-7.152 1.124-6.35.177.804 2.943 2.41 2.586 1.695z"/><circle cx="30.271" cy="53.025" r="2.275"/><circle cx="33.4" cy="48.832" r="2.276"/><circle cx="36.697" cy="53.025" r="2.275"/></g><g><path d="M73.365 29.313c-.31-.617-3.654-11.678-3.71-11.498-.056-.18-3.402 10.88-3.71 11.498-.357.714 2.41-.892 2.588-1.695.18-.803 1.02 6.53 1.123 6.35.104.18.944-7.152 1.123-6.35.177.803 2.942 2.41 2.585 1.695z"/><circle cx="66.526" cy="15.259" r="2.275"/><circle cx="69.655" cy="11.065" r="2.276"/><circle cx="72.953" cy="15.259" r="2.275"/></g><g><path d="M28.36 30.83c-.31-.618-3.654-11.68-3.71-11.5-.056-.18-3.402 10.88-3.71 11.5-.357.713 2.41-.893 2.588-1.696.18-.803 1.02 6.53 1.123 6.35.105.18.945-7.152 1.124-6.35.177.804 2.943 2.41 2.586 1.695z"/><circle cx="21.521" cy="16.775" r="2.275"/><circle cx="24.65" cy="12.582" r="2.276"/><circle cx="27.947" cy="16.775" r="2.275"/></g><g><path d="M184.43 30.62c-.308-.617-3.653-11.678-3.71-11.498-.055-.18-3.4 10.88-3.71 11.498-.356.714 2.41-.892 2.59-1.695.178-.803 1.018 6.53 1.122 6.35.104.18.944-7.152 1.123-6.35.177.803 2.943 2.41 2.586 1.695z"/><circle cx="177.592" cy="16.566" r="2.275"/><circle cx="180.72" cy="12.372" r="2.276"/><circle cx="184.018" cy="16.566" r="2.275"/></g><g><path d="M185.98 88.776c-.31-.617-3.654-11.678-3.71-11.498-.056-.18-3.402 10.88-3.71 11.498-.357.714 2.41-.892 2.588-1.695.18-.802 1.02 6.532 1.123 6.35.105.182.945-7.15 1.124-6.35.177.805 2.943 2.41 2.586 1.696z"/><circle cx="179.141" cy="74.723" r="2.275"/><circle cx="182.27" cy="70.529" r="2.276"/><circle cx="185.567" cy="74.723" r="2.275"/></g><g><path d="M135.154 29.285c-.31-.617-3.654-11.678-3.71-11.498-.056-.18-3.402 10.88-3.71 11.498-.357.714 2.41-.892 2.588-1.695.18-.803 1.02 6.53 1.123 6.35.104.18.944-7.152 1.123-6.35.178.803 2.943 2.41 2.586 1.695z"/><circle cx="128.315" cy="15.231" r="2.275"/><circle cx="131.444" cy="11.037" r="2.276"/><circle cx="134.742" cy="15.231" r="2.275"/></g><g><path d="M184.11 165.58c-.31-.618-3.654-11.68-3.71-11.5-.056-.18-3.402 10.88-3.71 11.5-.357.713 2.41-.893 2.588-1.696.18-.803 1.02 6.53 1.123 6.35.105.18.945-7.152 1.124-6.35.177.804 2.943 2.41 2.586 1.695z"/><circle cx="177.271" cy="151.525" r="2.275"/><circle cx="180.4" cy="147.332" r="2.276"/><circle cx="183.697" cy="151.525" r="2.275"/></g><g><path d="M92.86 172.33c-.31-.618-3.654-11.68-3.71-11.5-.056-.18-3.402 10.88-3.71 11.5-.357.713 2.41-.893 2.588-1.696.18-.803 1.02 6.53 1.123 6.35.105.18.945-7.152 1.124-6.35.177.804 2.943 2.41 2.586 1.695z"/><circle cx="86.021" cy="158.275" r="2.275"/><circle cx="89.15" cy="154.082" r="2.276"/><circle cx="92.447" cy="158.275" r="2.275"/></g><g><path d="M51.635 166.32c-.31-.616-3.654-11.677-3.71-11.497-.056-.18-3.402 10.88-3.71 11.498-.357.715 2.41-.89 2.588-1.694.18-.803 1.02 6.53 1.123 6.35.104.18.944-7.152 1.123-6.35.177.804 2.942 2.41 2.585 1.695z"/><circle cx="44.796" cy="152.268" r="2.275"/><circle cx="47.925" cy="148.074" r="2.276"/><circle cx="51.223" cy="152.268" r="2.275"/></g></g><linearGradient id="A" gradientUnits="userSpaceOnUse" x1="-68.042" y1="-27.03" x2="-67.242" y2="-27.03" gradientTransform="matrix(14.4 0 0 -14.4 1036.5 -267.9)"><stop offset="0" stop-color="#6D6E71"/><stop offset="1"/></linearGradient><path fill="url(#A)" d="M68.797 124.828s-4.528-3.466-4.477-5.352c.017-.586.69-.818.912-1.36.262-.643.36-1.32-.063-1.873-.67-.872-2.415-.653-3.487-.41-1.433.324-3.838 2.537-3.838 2.537l-.56 3.63 5.08 4.587 6.432-1.76z"/><path fill="none" stroke="#010101" stroke-width="1.2" d="M68.797 124.828s-4.528-3.466-4.477-5.352c.017-.586.69-.818.912-1.36.262-.643.36-1.32-.063-1.873-.67-.872-2.415-.653-3.487-.41-1.433.324-3.838 2.537-3.838 2.537l-.56 3.63 5.08 4.587 6.432-1.76z"/><linearGradient id="B" gradientUnits="userSpaceOnUse" x1="-50.664" y1="-41.125" x2="-49.864" y2="-41.125" gradientTransform="matrix(104.5 0 0 -104.5 5342.9 -4176.7)"><stop offset="0" stop-color="#6D6E71"/><stop offset="1"/></linearGradient><path fill="url(#B)" d="M121.306 134.753s-15.055-2.52-21.56-2.38c-1.554.034-3.758.04-5.117.79-1.192.66-2.37 2.21-2.97 3.43-.668 1.354-1.654 3.562-1.013 4.93.586 1.248 4.054 2.165 4.054 2.165s-3.3 1.026-4.66.644c-1-.283-2.115-1.33-2.686-2.2-.43-.656-.71-2.512-.71-2.512s-1.312 1.295-2.124 1.466c-1.082.228-3.43-.207-3.43-.207s1.036-.92 1.426-1.316c.663-.678 1.29-1.625 1.517-2.545.138-.557-.49-1.846-.49-1.846s-.308 1.13-.555 1.564c-.528.923-1.422 2.087-2.283 2.712-.484.354-1.465.294-1.852.753-.518.614-.89.898-.707 1.68.14.598.346 1.376.922 1.592.375.14 1.22.52 1.576.34.298-.154 1.035-.41 1.035-.41s-.44 1.165-1.238 1.85c-.434.373-1.16.41-1.548.487-.202.04-.983.33-1.78-.148-.775-.466-1.424-1.306-1.534-1.472 0 0-1.13-1.322-1.325-2.02-.3-1.07-.17-2.63.126-3.7.166-.597.86-1.205 1-1.808.112-.5-.24-1.214-.1-1.708.154-.547.128-.522.128-.522s.292.436-.208 1.242c-.553.893-2.094 3.175-2.094 3.175l-1.422-2.066-.19-2.09s-.08-.705.132-.858c.225-.163.663.264.916.15.627-.284.555-1.565.555-1.565s-.008 1.262-.646 1.546c-.23.105-.65-.28-.84-.112-.688.614-.202 1.642.058 3.07.19 1.04.695 2.07.375 2.695-.29.564-1.856 1.015-1.856 1.015l-4.694-1.664s-1.408-1.35-1.535-2.127c-.204-1.255.544-4.52.544-4.52l-.326-.07-2.005 1.93s.074 2.9-.85 3.397c-.66.353-2.348-.83-2.348-.83l-4.258-3.89s-.246-1.537.04-2.098c.43-.85 2.528-1.922 2.528-1.922l-2.08-1.09s-2.605 1.345-3.692.98c-.53-.176-.928-.953-1.155-1.465-.436-.99-.59-3.555-.59-3.555l3.923-6.094s1.486-.18 1.966.167c1.013.734 1.634 3.837 1.634 3.837s3.79 2.147 5.6 2.338c1.92.2 4.396-1.06 6.322-1.194 1.296-.09 3.066-.105 4.327.214.46.116 1.06.383 1.43.683.785.635 1.563 1.782 2.05 2.665.47.85.563 2.245 1.124 3.04.292.41 1.293 1.074 1.293 1.074s-1.855-2.934-2.545-4.25c-.85-1.622-1.417-4.097-2.52-5.56-.337-.446-1.2-.694-1.42-1.208-.42-.977-.247-2.572.197-3.54.07-.15.397-.218.4-.385.013-.613-1.127-.93-1.416-1.47-.647-1.215-1.04-3.108-.966-4.482.064-1.194.39-2.957 1.252-3.783.684-.655 2.09-.866 3.035-.86 1.348.005 4.308 1.262 4.308 1.262s-2.256.323-3.035.86c-.558.385-1.233 1.146-1.347 1.814-.063.368.187.864.372 1.188.8 1.405 3.6 4.006 3.6 4.006s3.385-.94 4.876-1.09c1.88-.19 4.43-.173 6.297.12 1.01.158 2.317.594 3.264.98 1.142.465 2.412 1.796 3.64 1.905.743.067 1.687-.455 2.375-.742.748-.313 1.81-.695 2.385-1.267.52-.518 21.646-7.44 15.6-11.538l-12.605-8.546 19.302 11.923 8.86 13.31-12.036 15.736z"/><path fill="none" stroke="#010101" stroke-width="1.2" d="M121.306 134.753s-15.055-2.52-21.56-2.38c-1.554.034-3.758.04-5.117.79-1.192.66-2.37 2.21-2.97 3.43-.668 1.354-1.654 3.562-1.013 4.93.586 1.248 4.054 2.165 4.054 2.165s-3.3 1.026-4.66.644c-1-.283-2.115-1.33-2.686-2.2-.43-.656-.71-2.512-.71-2.512s-1.312 1.295-2.124 1.466c-1.082.228-3.43-.207-3.43-.207s1.036-.92 1.426-1.316c.663-.678 1.29-1.625 1.517-2.545.138-.557-.49-1.846-.49-1.846s-.308 1.13-.555 1.564c-.528.923-1.422 2.087-2.283 2.712-.484.354-1.465.294-1.852.753-.518.614-.89.898-.707 1.68.14.598.346 1.376.922 1.592.375.14 1.22.52 1.576.34.298-.154 1.035-.41 1.035-.41s-.44 1.165-1.238 1.85c-.434.373-1.16.41-1.548.487-.202.04-.983.33-1.78-.148-.775-.466-1.424-1.306-1.534-1.472 0 0-1.13-1.322-1.325-2.02-.3-1.07-.17-2.63.126-3.7.166-.597.86-1.205 1-1.808.112-.5-.24-1.214-.1-1.708.154-.547.128-.522.128-.522s.292.436-.208 1.242c-.553.893-2.094 3.175-2.094 3.175l-1.422-2.066-.19-2.09s-.08-.705.132-.858c.225-.163.663.264.916.15.627-.284.555-1.565.555-1.565s-.008 1.262-.646 1.546c-.23.105-.65-.28-.84-.112-.688.614-.202 1.642.058 3.07.19 1.04.695 2.07.375 2.695-.29.564-1.856 1.015-1.856 1.015l-4.694-1.664s-1.408-1.35-1.535-2.127c-.204-1.255.544-4.52.544-4.52l-.326-.07-2.005 1.93s.074 2.9-.85 3.397c-.66.353-2.348-.83-2.348-.83l-4.258-3.89s-.246-1.537.04-2.098c.43-.85 2.528-1.922 2.528-1.922l-2.08-1.09s-2.605 1.345-3.692.98c-.53-.176-.928-.953-1.155-1.465-.436-.99-.59-3.555-.59-3.555l3.923-6.094s1.486-.18 1.966.167c1.013.734 1.634 3.837 1.634 3.837s3.79 2.147 5.6 2.338c1.92.2 4.396-1.06 6.322-1.194 1.296-.09 3.066-.105 4.327.214.46.116 1.06.383 1.43.683.785.635 1.563 1.782 2.05 2.665.47.85.563 2.245 1.124 3.04.292.41 1.293 1.074 1.293 1.074s-1.855-2.934-2.545-4.25c-.85-1.622-1.417-4.097-2.52-5.56-.337-.446-1.2-.694-1.42-1.208-.42-.977-.247-2.572.197-3.54.07-.15.397-.218.4-.385.013-.613-1.127-.93-1.416-1.47-.647-1.215-1.04-3.108-.966-4.482.064-1.194.39-2.957 1.252-3.783.684-.655 2.09-.866 3.035-.86 1.348.005 4.308 1.262 4.308 1.262s-2.256.323-3.035.86c-.558.385-1.233 1.146-1.347 1.814-.063.368.187.864.372 1.188.8 1.405 3.6 4.006 3.6 4.006s3.385-.94 4.876-1.09c1.88-.19 4.43-.173 6.297.12 1.01.158 2.317.594 3.264.98 1.142.465 2.412 1.796 3.64 1.905.743.067 1.687-.455 2.375-.742.748-.313 1.81-.695 2.385-1.267.52-.518 21.646-7.44 15.6-11.538l-12.605-8.546 19.302 11.923 8.86 13.31-12.036 15.736z"/><path fill="none" stroke="#010101" d="M73.69 115.13s1.285.715 1.885.888c.55.16 1.898.233 1.898.233M79.525 118.784s-1.13-.767-1.69-.82c-.632-.06-1.55.152-2.044.553-.524.427-1.02 2.014-1.02 2.014M79.89 120.366s-1.33-.394-1.835-.166c-.746.336-1.284 1.45-1.616 2.2-.18.403-.29 1.438-.29 1.438M81.356 122.558s-1.542-.072-2.103.224c-.52.273-1.03.95-1.275 1.484-.32.705-.376 2.552-.376 2.552M64.12 132.075s1.252-.98 1.73-1.28c.648-.41 2.558-.017 2.558-.017M57.95 128.612s.763-.793 1.2-.896c.6-.143 2.026.367 2.026.367"/><path fill="#ED1C24" d="M58.986 118.438c-.594-.505-.83-1.644-1.365-2.21-.806-.854-3.208-2.245-3.208-2.245s2.05-.286 2.914-.14c1.045.178 2.52.583 3.276 1.324.582.57 1.135 1.685 1.068 2.496-.043.528-.445 1.327-.95 1.487-.537.17-1.306-.35-1.734-.712z"/><path fill="none" stroke="#010101" d="M58.986 118.438c-.594-.505-.83-1.644-1.365-2.21-.806-.854-3.208-2.245-3.208-2.245s2.05-.286 2.914-.14c1.045.178 2.52.583 3.276 1.324.582.57 1.135 1.685 1.068 2.496-.043.528-.445 1.327-.95 1.487-.537.17-1.306-.35-1.734-.712z"/><path fill="#ED1C24" d="M52.888 120.023c.426.416.826 1.147.984 1.725.162.592.374 1.526.042 2.065-.212.344-.81.536-1.206.594-.282.04-.666-.055-.92-.166-.54-.233-.984-1.024-1.556-1.174-.5-.13-1.248.016-1.738.217-.695.285-1.065.358-1.557.932-.376.44-1.143 2.153-1.143 2.153s-.72-2.04-.642-2.862c.115-1.203.598-2.353 1.522-3.167.583-.515 1.643-.822 2.4-.935.936-.14 2.22-.018 3.112.242.23.067.53.21.702.376z"/><path fill="none" stroke="#010101" d="M52.888 120.023c.426.416.826 1.147.984 1.725.162.592.374 1.526.042 2.065-.212.344-.81.536-1.206.594-.282.04-.666-.055-.92-.166-.54-.233-.984-1.024-1.556-1.174-.5-.13-1.248.016-1.738.217-.695.285-1.065.358-1.557.932-.376.44-1.143 2.153-1.143 2.153s-.72-2.04-.642-2.862c.115-1.203.598-2.353 1.522-3.167.583-.515 1.643-.822 2.4-.935.936-.14 2.22-.018 3.112.242.23.067.53.21.702.376z"/><path fill="#ED1C24" d="M56.872 132.46c.345-.027.83.174 1.077.417.61.597 1.26 1.797 1.083 2.633-.133.634-1.004 1.158-1.556 1.5-.82.507-2.07.97-3.028 1.077-.887.1-2.953-.352-2.953-.352s1.784-1.102 2.35-1.78c.526-.63.67-1.845 1.23-2.44.428-.46 1.173-1.004 1.795-1.054z"/><path fill="none" stroke="#010101" d="M56.872 132.46c.345-.027.83.174 1.077.417.61.597 1.26 1.797 1.083 2.633-.133.634-1.004 1.158-1.556 1.5-.82.507-2.07.97-3.028 1.077-.887.1-2.953-.352-2.953-.352s1.784-1.102 2.35-1.78c.526-.63.67-1.845 1.23-2.44.428-.46 1.173-1.004 1.795-1.054z"/><path fill="#ED1C24" d="M68.16 137.753c.767-.128 1.707.768 2.194 1.372.417.517.517 1.023.46 1.686-.072.87-.744 1.993-1.427 2.537-.425.338-1.193.5-1.735.51-.64.01-1.204.158-1.773-.13-.657-.337-1.894-1.565-1.894-1.565s1.608-.016 2.176-.355c.618-.367 1.28-1.2 1.466-1.894.1-.376-.278-.91-.173-1.286.09-.325.373-.82.706-.874z"/><path fill="none" stroke="#010101" d="M68.16 137.753c.767-.128 1.707.768 2.194 1.372.417.517.517 1.023.46 1.686-.072.87-.744 1.993-1.427 2.537-.425.338-1.193.5-1.735.51-.64.01-1.204.158-1.773-.13-.657-.337-1.894-1.565-1.894-1.565s1.608-.016 2.176-.355c.618-.367 1.28-1.2 1.466-1.894.1-.376-.278-.91-.173-1.286.09-.325.373-.82.706-.874z"/><linearGradient id="C" gradientUnits="userSpaceOnUse" x1="-69.069" y1="-27.81" x2="-68.269" y2="-27.81" gradientTransform="matrix(13.6 0 0 -13.6 988 -351.4)"><stop offset="0" stop-color="#6D6E71"/><stop offset="1"/></linearGradient><path fill="url(#C)" d="M52.533 33.185s1.028-4.812 2.592-5.992c.476-.358 1.207.066 1.97-.258.82-.35 2.664-.992 2.82-1.87.16-.9-1.18-2.807-1.18-2.807s-2.84-2-4.256-2.062c-1.545-.07-4.818 1.825-4.818 1.825l-.61 4.2 3.48 6.965z"/><path fill="none" stroke="#010101" stroke-width="1.2" d="M52.533 33.185s1.028-4.812 2.592-5.992c.476-.358 1.207.066 1.97-.258.82-.35 2.664-.992 2.82-1.87.16-.9-1.18-2.807-1.18-2.807s-2.84-2-4.256-2.062c-1.545-.07-4.818 1.825-4.818 1.825l-.61 4.2 3.48 6.965z"/><linearGradient id="D" gradientUnits="userSpaceOnUse" x1="-51.197" y1="-40.873" x2="-50.397" y2="-40.873" gradientTransform="matrix(86.9 0 0 -86.9 4488.7 -3500.9)"><stop offset="0" stop-color="#6D6E71"/><stop offset="1"/></linearGradient><path fill="url(#D)" d="M109.53 55.958S99.437 80.65 80.24 81.825c-3.53.215-8.332-1.244-11.392-3.014-1.544-.89-4.184-4.22-4.184-4.22s-2.823 1.75-3.246 3.01c-.31.924.17 2.31.566 3.2.428.966 2.154 2.783 2.154 2.783s-3.185-.64-4.205-1.51c-1.076-.917-1.862-2.775-2.278-4.126-.38-1.237-.325-2.452.207-3.633.387-.86 1.634-2.644 1.634-2.644s-2.205-2.827-3.064-4.234c-.755-1.234-2.048-4.364-2.048-4.364s-1.154.378-1.563.686c-.365.276-.812.747-.974 1.175-.23.61-.458 1.648-.07 2.174.41.557 2.224.608 2.224.608s-.737 1.098-1.245 1.2c-1.065.21-2.678-.482-3.374-1.316-1.042-1.25-1.297-3.72-1.032-5.326.16-.975.96-2.136 1.633-2.86.692-.743 2.808-1.885 2.808-1.885s-1.747-1.605-2.13-2.515c-.28-.672.036-1.738-.222-2.42-.334-.882-1.73-1.602-1.86-2.537-.38-2.762 3.262-8.703 3.262-8.703s-2.082 5.105-4.047 6.064c-.884.432-3.273-.24-3.273-.24l-2.353-4.933s.057-1.807.608-2.224c1.297-.983 5.424.04 5.424.04l-3.593-.75-.372-4.03 2.833-1.618s-3.23 2.09-4.713 1.79c-.844-.17-2.08-1.976-2.08-1.976l.435-4.105s.7-1.923 1.44-2.03c1.982-.29 5.257 4.122 5.257 4.122l-3.28-3.22.928-1.712 3.228 2.683-3.253-2.952-.005-2.98 1.075-.1s-2.067-.33-2.526-.94c-.538-.717-.824-1.784-.42-2.582.625-1.234 4.044-2.18 4.044-2.18s3.203-.423 4.097.344c.76.653 1.095 1.613 1.056 2.613-.033.834-1.308 2.47-1.308 2.47s1.41 4.778 2.42 6.642c1.177 2.174 3.22 4.82 4.945 6.59 1.64 1.682 4.506 3.168 6.14 4.855 2.5 2.583 5.338 8.284 7.262 11.323 2.444 3.862 8.748 7.545 8.748 7.545l29.228-8.037-.25 4.13z"/><path fill="none" stroke="#010101" stroke-width="1.2" d="M109.53 55.958S99.437 80.65 80.24 81.825c-3.53.215-8.332-1.244-11.392-3.014-1.544-.89-4.184-4.22-4.184-4.22s-2.823 1.75-3.246 3.01c-.31.924.17 2.31.566 3.2.428.966 2.154 2.783 2.154 2.783s-3.185-.64-4.205-1.51c-1.076-.917-1.862-2.775-2.278-4.126-.38-1.237-.325-2.452.207-3.633.387-.86 1.634-2.644 1.634-2.644s-2.205-2.827-3.064-4.234c-.755-1.234-2.048-4.364-2.048-4.364s-1.154.378-1.563.686c-.365.276-.812.747-.974 1.175-.23.61-.458 1.648-.07 2.174.41.557 2.224.608 2.224.608s-.737 1.098-1.245 1.2c-1.065.21-2.678-.482-3.374-1.316-1.042-1.25-1.297-3.72-1.032-5.326.16-.975.96-2.136 1.633-2.86.692-.743 2.808-1.885 2.808-1.885s-1.747-1.605-2.13-2.515c-.28-.672.036-1.738-.222-2.42-.334-.882-1.73-1.602-1.86-2.537-.38-2.762 3.262-8.703 3.262-8.703s-2.082 5.105-4.047 6.064c-.884.432-3.273-.24-3.273-.24l-2.353-4.933s.057-1.807.608-2.224c1.297-.983 5.424.04 5.424.04l-3.593-.75-.372-4.03 2.833-1.618s-3.23 2.09-4.713 1.79c-.844-.17-2.08-1.976-2.08-1.976l.435-4.105s.7-1.923 1.44-2.03c1.982-.29 5.257 4.122 5.257 4.122l-3.28-3.22.928-1.712 3.228 2.683-3.253-2.952-.005-2.98 1.075-.1s-2.067-.33-2.526-.94c-.538-.717-.824-1.784-.42-2.582.625-1.234 4.044-2.18 4.044-2.18s3.203-.423 4.097.344c.76.653 1.095 1.613 1.056 2.613-.033.834-1.308 2.47-1.308 2.47s1.41 4.778 2.42 6.642c1.177 2.174 3.22 4.82 4.945 6.59 1.64 1.682 4.506 3.168 6.14 4.855 2.5 2.583 5.338 8.284 7.262 11.323 2.444 3.862 8.748 7.545 8.748 7.545l29.228-8.037-.25 4.13z"/><path fill="none" stroke="#010101" d="M59.47 72.04s1.436-1.662 1.956-2.354c.423-.564 1.026-1.302 1.578-1.74.333-.266 1.24-.695 1.24-.695M54.297 63.1s1.244-.607 1.815-.748c.84-.206 2.096.116 2.874-.265.936-.46 1.794-1.67 2.374-2.537.388-.58.963-2.118.963-2.118M52.488 57.616s2.11-.18 2.94-1.005M52.472 45.928s1.71 6.245 4.04 7.947c1.646 1.2 5.118 1.52 5.118 1.52"/><path fill="#ED1C24" d="M54.667 22.263c.11.606.54 1.41 1.037 1.776.38.28 1.084.507 1.53.357.6-.202 1.164-.47 1.357-1.07.527-1.634.598-3.67-.107-5.235-.534-1.185-1.827-2.606-3.033-3.09-.555-.224-1.077-.412-1.644-.224-.57.19-1.913.926-1.913.926s1.35.35 1.814.707c.517.398 1.04 1.15 1.285 1.755.31.76.01 1.374-.004 2.194-.007.578-.425 1.332-.32 1.903z"/><path fill="none" stroke="#010101" d="M54.667 22.263c.11.606.54 1.41 1.037 1.776.38.28 1.084.507 1.53.357.6-.202 1.164-.47 1.357-1.07.527-1.634.598-3.67-.107-5.235-.534-1.185-1.827-2.606-3.033-3.09-.555-.224-1.077-.412-1.644-.224-.57.19-1.913.926-1.913.926s1.35.35 1.814.707c.517.398 1.04 1.15 1.285 1.755.31.76.01 1.374-.004 2.194-.007.578-.425 1.332-.32 1.903z"/><path fill="#ED1C24" d="M39.46 17.6s.135-2.145.974-2.96c.847-.823 2.423-1.508 3.6-1.582.802-.05 1.918.29 2.568.762 1.24.905 2.326 2.26 2.718 3.745.164.623.324 1.405.06 1.992-.305.675-1.03 1.083-1.766 1.162-.527.055-1.318-.613-1.712-.966-1.018-.912-1.016-2.863-2.2-3.543-.37-.21-.972-.27-1.397-.245-.38.022-.85.253-1.215.362-.547.162-1.63 1.274-1.63 1.274z"/><path fill="none" stroke="#010101" d="M39.46 17.6s.135-2.145.974-2.96c.847-.823 2.423-1.508 3.6-1.582.802-.05 1.918.29 2.568.762 1.24.905 2.326 2.26 2.718 3.745.164.623.324 1.405.06 1.992-.305.675-1.03 1.083-1.766 1.162-.527.055-1.318-.613-1.712-.966-1.018-.912-1.016-2.863-2.2-3.543-.37-.21-.972-.27-1.397-.245-.38.022-.85.253-1.215.362-.547.162-1.63 1.274-1.63 1.274z"/><path fill="#ED1C24" d="M41.09 32.56c.375-.107.99-.16 1.204-.486.308-.47.214-1.373-.048-1.87-.37-.7-.745-1.274-1.51-1.483-.432-.118-2.284.434-2.69.625-1.007.47-1.62 1.04-2.056 2.063-.398.93-.454 2.442-.063 3.376.306.732 1.232 1.42 1.916 1.822.42.246 1.543.48 1.543.48s-.876-1.938-.758-2.8c.07-.504.446-1.167.865-1.454.4-.276 1.13-.142 1.597-.273z"/><path fill="none" stroke="#010101" d="M41.09 32.56c.375-.107.99-.16 1.204-.486.308-.47.214-1.373-.048-1.87-.37-.7-.745-1.274-1.51-1.483-.432-.118-2.284.434-2.69.625-1.007.47-1.62 1.04-2.056 2.063-.398.93-.454 2.442-.063 3.376.306.732 1.232 1.42 1.916 1.822.42.246 1.543.48 1.543.48s-.876-1.938-.758-2.8c.07-.504.446-1.167.865-1.454.4-.276 1.13-.142 1.597-.273z"/><path fill="#ED1C24" d="M42.996 42.372c.467-.416 1.56.033 2.037.436.505.427.894 1.393.813 2.048-.09.735-.848 1.56-1.438 2.005-.83.63-2.224 1.245-3.262 1.176-1.105-.072-2.548-.862-3.278-1.695-.787-.897-1.303-2.552-1.344-3.745-.018-.52.47-1.667.47-1.667s.63 1.668 1.196 2.137c.785.648 2.203 1.066 3.22 1.075.534.007 1.306-1.52 1.586-1.768z"/><path fill="none" stroke="#010101" d="M42.996 42.372c.467-.416 1.56.033 2.037.436.505.427.894 1.393.813 2.048-.09.735-.848 1.56-1.438 2.005-.83.63-2.224 1.245-3.262 1.176-1.105-.072-2.548-.862-3.278-1.695-.787-.897-1.303-2.552-1.344-3.745-.018-.52.47-1.667.47-1.667s.63 1.668 1.196 2.137c.785.648 2.203 1.066 3.22 1.075.534.007 1.306-1.52 1.586-1.768z"/><linearGradient id="E" gradientUnits="userSpaceOnUse" x1="-66.069" y1="-28.922" x2="-65.269" y2="-28.922" gradientTransform="matrix(15.6 0 0 -15.6 1060.2 -368.4)"><stop offset="0" stop-color="#6D6E71"/><stop offset="1"/></linearGradient><path fill="url(#E)" d="M35.622 77.386c.52-.068 1.26.006 1.73.24.37.187.78.62.976.987.523.983.29 2.617.73 3.64.72 1.662 3.497 4.92 3.497 4.92l-6.957.515-5.517-4.645.677-2.507s1.163-1.402 1.798-1.838c.826-.565 2.075-1.18 3.067-1.312z"/><path fill="none" stroke="#010101" stroke-width="1.2" d="M35.622 77.386c.52-.068 1.26.006 1.73.24.37.187.78.62.976.987.523.983.29 2.617.73 3.64.72 1.662 3.497 4.92 3.497 4.92l-6.957.515-5.517-4.645.677-2.507s1.163-1.402 1.798-1.838c.826-.565 2.075-1.18 3.067-1.312z"/><linearGradient id="F" gradientUnits="userSpaceOnUse" x1="-50.626" y1="-41.198" x2="-49.826" y2="-41.198" gradientTransform="matrix(103.8 0 0 -103.8 5282 -4192.6)"><stop offset="0" stop-color="#6D6E71"/><stop offset="1"/></linearGradient><path fill="url(#F)" d="M98.93 67.484L72.02 71.63 44.032 82.698l-7.847 3.267-2.08-1.402s-1.458-2.944-2.593-3.668c-.76-.485-2.957-.537-2.957-.537L26.09 86.61s.253 1.592.684 2.092c.456.532 2.083 1.055 2.083 1.055l2.267-.858c.28-.277 6.527.418 7.593 1.02.257.146.82-.422.7-.69-.132-.296-1.136.127-1.97.1-1.085-.035-1.685.292-2.178.24-1.894-.208-1.938.015-3.285.9-.584.384-1.055 2.083-1.055 2.083l4.842 6.29s2.73.784 3.653.19c1.086-.694.875-2.917 1.586-3.993.53-.802 1.496-2.813 2.275-2.25.74.532-1.585.93-2.39 2.175-.99 1.533-.6 3.9-.6 3.9l2.077 2.447s4.545.442 6.267-.317c.27-.12.657-.4.7-.692.085-.61.796-2.394.283-3.167-.633-.953-1.85-1.525-1.85-1.525s-.3.11.09.037c.87-.164 1.84 1.525 1.84 1.525l4.19-3.11s.238 1.044.148 1.483c-.152.745-1.223 2.22-1.223 2.22s2.577-.303 3.894-1.01c.976-.524 2.837-1.69 3.337-2.676.333-.66.82-1.27.82-1.27s.16 2.26-.31 3.534c-.28.765-1.36 1.83-1.36 1.83s1.482.085 2.753-.187c1.16-.248 2.1-.848 2.405-.973.06-.024 1.512-.725 2.508-2.426.94-1.604.44-1.546 1.556-2.113.285-.147.363 1.248.02 2.68-.302 1.273-1.015 2.593-1 2.63 1.406-.168 5.562-1.327 7.258-2.483 2.842-1.94 4.02-6.317 4.593-6.053 2.472 1.144 8.84 1.306 10.82 3.177 1.902 1.795 6.677-1.23 9.066-.164 3.83 1.71 9.966-17.48 9.966-17.48l-4.297-7.27-5.915-.03z"/><path fill="none" stroke="#010101" stroke-width="1.2" d="M98.93 67.484L72.02 71.63 44.032 82.698l-7.847 3.267-2.08-1.402s-1.458-2.944-2.593-3.668c-.76-.485-2.957-.537-2.957-.537L26.09 86.61s.253 1.592.684 2.092c.456.532 2.083 1.055 2.083 1.055l2.267-.858c.28-.277 6.527.418 7.593 1.02.257.146.82-.422.7-.69-.132-.296-1.136.127-1.97.1-1.085-.035-1.685.292-2.178.24-1.894-.208-1.938.015-3.285.9-.584.384-1.055 2.083-1.055 2.083l4.842 6.29s2.73.784 3.653.19c1.086-.694.875-2.917 1.586-3.993.53-.802 1.496-2.813 2.275-2.25.74.532-1.585.93-2.39 2.175-.99 1.533-.6 3.9-.6 3.9l2.077 2.447s4.545.442 6.267-.317c.27-.12.657-.4.7-.692.085-.61.796-2.394.283-3.167-.633-.953-1.85-1.525-1.85-1.525s-.3.11.09.037c.87-.164 1.84 1.525 1.84 1.525l4.19-3.11s.238 1.044.148 1.483c-.152.745-1.223 2.22-1.223 2.22s2.577-.303 3.894-1.01c.976-.524 2.837-1.69 3.337-2.676.333-.66.82-1.27.82-1.27s.16 2.26-.31 3.534c-.28.765-1.36 1.83-1.36 1.83s1.482.085 2.753-.187c1.16-.248 2.1-.848 2.405-.973.06-.024 1.512-.725 2.508-2.426.94-1.604.44-1.546 1.556-2.113.285-.147.363 1.248.02 2.68-.302 1.273-1.015 2.593-1 2.63 1.406-.168 5.562-1.327 7.258-2.483 2.842-1.94 4.02-6.317 4.593-6.053 2.472 1.144 8.84 1.306 10.82 3.177 1.902 1.795 6.677-1.23 9.066-.164 3.83 1.71 9.966-17.48 9.966-17.48l-4.297-7.27-5.915-.03z"/><path fill="#ED1C24" d="M36.574 79.592c.083-1.147-.398-2.344-1.234-3.133-.72-.68-2.14-.948-3.122-1.06-1.016-.113-2.494-.144-3.388.35-.468.258-.747.575-.892 1.09-.136.485-.215 1.562-.215 1.562s.865-.64 1.305-.67c.66-.044 1.505.412 2.08.74.6.34 1.198 1.077 1.765 1.468.398.273.93.686 1.403.79.506.11 1.283.128 1.72-.15.29-.183.552-.645.578-.988z"/><path fill="none" stroke="#010101" d="M36.574 79.592c.083-1.147-.398-2.344-1.234-3.133-.72-.68-2.14-.948-3.122-1.06-1.016-.113-2.494-.144-3.388.35-.468.258-.747.575-.892 1.09-.136.485-.215 1.562-.215 1.562s.865-.64 1.305-.67c.66-.044 1.505.412 2.08.74.6.34 1.198 1.077 1.765 1.468.398.273.93.686 1.403.79.506.11 1.283.128 1.72-.15.29-.183.552-.645.578-.988z"/><path fill="#ED1C24" d="M31.133 83.837c-.166.597-.835 1.285-1.414 1.505-.514.194-1.324.06-1.824-.166-.644-.292-1.055-1.36-1.71-1.624-.784-.316-1.997-.22-2.815-.014-.535.134-1.226.49-1.618.876-.508.5-1.157 2.08-1.157 2.08s-.4-3.033.125-4.17c.417-.904 1.573-1.776 2.46-2.227.798-.406 2.026-.622 2.92-.61.834.01 1.974.24 2.707.638.7.38 1.53 1.14 1.92 1.833.28.504.56 1.325.406 1.88z"/><path fill="none" stroke="#010101" d="M31.133 83.837c-.166.597-.835 1.285-1.414 1.505-.514.194-1.324.06-1.824-.166-.644-.292-1.055-1.36-1.71-1.624-.784-.316-1.997-.22-2.815-.014-.535.134-1.226.49-1.618.876-.508.5-1.157 2.08-1.157 2.08s-.4-3.033.125-4.17c.417-.904 1.573-1.776 2.46-2.227.798-.406 2.026-.622 2.92-.61.834.01 1.974.24 2.707.638.7.38 1.53 1.14 1.92 1.833.28.504.56 1.325.406 1.88z"/><path fill="#ED1C24" d="M35.24 95.947c.522-.637.477-1.528.065-2.24-.455-.785-1.486-1.802-2.387-1.888-.652-.064-1.29.82-1.83 1.188-.668.453-1.614.994-2.197 1.553-.594.57-1.324 1.434-1.677 2.18-.212.45-.47 1.127-.373 1.613.142.703 1.397 1.936 1.397 1.936s-.25-1.647.063-2.242c.28-.534 1.06-.967 1.622-1.19.908-.36 2.256-.363 3.232-.4.782-.03 1.592.094 2.087-.51z"/><path fill="none" stroke="#010101" d="M35.24 95.947c.522-.637.477-1.528.065-2.24-.455-.785-1.486-1.802-2.387-1.888-.652-.064-1.29.82-1.83 1.188-.668.453-1.614.994-2.197 1.553-.594.57-1.324 1.434-1.677 2.18-.212.45-.47 1.127-.373 1.613.142.703 1.397 1.936 1.397 1.936s-.25-1.647.063-2.242c.28-.534 1.06-.967 1.622-1.19.908-.36 2.256-.363 3.232-.4.782-.03 1.592.094 2.087-.51z"/><path fill="#ED1C24" d="M46.42 100.432c.29.905.542 1.858.247 2.763-.322.987-1.49 2.065-2.46 2.436-.615.235-1.285.376-1.93.252-.68-.13-2.185-.74-2.185-.74s1.142-.59 1.57-.93c.5-.402 1.244-.955 1.465-1.557.286-.78-.49-2.01-.143-2.763.216-.465.852-.976 1.36-1.036.543-.063 1.27.36 1.663.74.203.194.33.57.414.836z"/><path fill="none" stroke="#010101" d="M46.42 100.432c.29.905.542 1.858.247 2.763-.322.987-1.49 2.065-2.46 2.436-.615.235-1.285.376-1.93.252-.68-.13-2.185-.74-2.185-.74s1.142-.59 1.57-.93c.5-.402 1.244-.955 1.465-1.557.286-.78-.49-2.01-.143-2.763.216-.465.852-.976 1.36-1.036.543-.063 1.27.36 1.663.74.203.194.33.57.414.836z"/><linearGradient id="G" gradientUnits="userSpaceOnUse" x1="-60.605" y1="-33.554" x2="-59.804" y2="-33.554" gradientTransform="matrix(23.8 0 0 -23.8 1551.2 -683.6)"><stop offset="0" stop-color="#6D6E71"/><stop offset="1"/></linearGradient><path fill="url(#G)" d="M116.917 107.166c-1.755-.422-4.246.036-6 .464-.953.232-3.01 1.278-3.01 1.278s2.303 1.26 3.334 1.706c2.043.884 5.1 1.32 6.985 2.502 1.67 1.047 3.457 3.067 4.69 4.607 1.4 1.75 3.94 6.35 3.94 6.35s.634-8.616-1.23-11.566c-1.635-2.59-5.728-4.623-8.708-5.34z"/><path fill="none" stroke="#010101" stroke-width="1.2" d="M116.917 107.166c-1.755-.422-4.246.036-6 .464-.953.232-3.01 1.278-3.01 1.278s2.303 1.26 3.334 1.706c2.043.884 5.1 1.32 6.985 2.502 1.67 1.047 3.457 3.067 4.69 4.607 1.4 1.75 3.94 6.35 3.94 6.35s.634-8.616-1.23-11.566c-1.635-2.59-5.728-4.623-8.708-5.34z"/><linearGradient id="H" gradientUnits="userSpaceOnUse" x1="-72.74" y1="-23.392" x2="-71.94" y2="-23.392" gradientTransform="matrix(12.2 0 0 -12.2 996.3 -129.8)"><stop offset="0" stop-color="#6D6E71"/><stop offset="1"/></linearGradient><path fill="url(#H)" d="M118.942 160.028s-2.913-2.15-3.392-3.54c-.328-.954.68-2.396.34-3.345-.328-.914-1.384-1.956-2.3-2.27-.69-.24-2.41.278-2.41.278l-1.994 4.58 1.438 1.845 2.928 2.628 5.39-.175z"/><path fill="none" stroke="#010101" stroke-width="1.2" d="M118.942 160.028s-2.913-2.15-3.392-3.54c-.328-.954.68-2.396.34-3.345-.328-.914-1.384-1.956-2.3-2.27-.69-.24-2.41.278-2.41.278l-1.994 4.58 1.438 1.845 2.928 2.628 5.39-.175z"/><linearGradient id="I" gradientUnits="userSpaceOnUse" x1="-50.8" y1="-41.065" x2="-50" y2="-41.065" gradientTransform="matrix(101.6 0 0 -101.6 5235.2 -4054.3)"><stop offset="0" stop-color="#6D6E71"/><stop offset="1"/></linearGradient><path fill="url(#I)" d="M83.364 63.88s-11.89 23.784-9.836 25.572c1.973 1.72 13.293 4.68 15.724 5.648 3.896 1.553 12.257 6.28 16.206 7.692 2.97 1.06 6.995 3.417 9.718 5.008 3.008 1.756 7.37 4.164 9.133 7.167 1.09 1.86 1.656 5.01 1.12 7.1-.814 3.16-4.706 5.705-6.9 8.117-.367.403-1.562.27-2.656 1.602-1.14 1.384-2.184 4.227-2.878 4.26-1.216.058-3.372-1.292-3.372-1.292s.18 1.592 1.11 2.748c.743.92 2.217 1.46 2.626 1.455 1.016-.01 2.398-.604 2.71-.716 1.6-.574 3.86-4.14 3.86-4.14s-4.197 4.626-4.276 7.116c-.035 1.097.905 1.98.722 3.064-.197 1.167-.52 2.42-1.7 2.525-1.715.155-3.987-.53-3.987-.53s.995 1.784 2.615 2.668c1.008.55 2.25.648 3.327.25 2.38-.883 5.19-3.177 6.605-5.283.83-1.233 1.4-4.75 1.4-4.75s-2.545 5.276-1.998 7.558c.38 1.586 2.65 3.427 2.65 3.427s-2.863.99-4.207 1.852c-2.12 1.36-5.166 6.625-5.166 6.625s-3.244-1.234-4.427-2.108c-.775-.572-1.25-2.094-2.173-2.363-.67-.192-2.243.603-2.243.603l-1.675 6.85s.862 1.94 1.644 2.207c1.314.447 2.992-1.114 4.457-1.25 1.45-.132 4.397.415 4.397.415l-5.288 3.147-.275 2.098 4.14 3.86s2.732-.338 3.443-1.165c.974-1.134.872-4.908.872-4.908s.98 1.104 1.23 1.89c.314.98-.196 2.776-.196 2.776l1.98 1.847 4.02.38s1.747-1.174 1.845-1.98c.173-1.423-2.32-4.18-2.32-4.18l4.414-.595.754-3.334s1.285 4.33 2.798 5.3c.97.623 2.752.602 3.838.213.906-.325 2.36-2.172 2.36-2.172s-1.713.644-2.42.434c-.638-.188-1.617-.845-1.62-1.51-.01-1.257 3.032-2.893 3.032-2.893s2.63 1.492 3.888 1.606c.896.08 2.31.02 2.938-.625.672-.69.586-3.155.586-3.155s-.79 1.22-1.53 1.28c-.75.064-2.147-.282-2.464-.965-.604-1.3.705-4.727.705-4.727s2.792.827 4.047.22c.497-.24 1.364-1.2 1.473-2.067.166-1.302-.08-1.938-.08-1.938s-.766 1.612-1.69 1.563c-.932-.05-2.202-.603-2.83-1.293-1.07-1.172-1.76-3.403-1.744-4.99.02-1.917 1.024-3.74 1.683-5.542.193-.528.644-1.46.644-1.46s2.067 1.675 3.207 2.02c.8.245 2.643-.073 3.328-.55 1.022-.718 1.873-2.65 1.56-3.86-.262-1.002-1.806-1.827-1.806-1.827s.136 1.62.023 2.333c-.08.507-1.395.815-1.89.954-.402.112-.933-.413-1.17-.756-1.178-1.702-1.126-4.394-.887-6.45.17-1.46 2.108-4.426 2.108-4.426s3.063 2.458 4.632 2.972c1.145.375 1.69-1.612 1.1-3.383-.722-2.155-2.76-4.22-2.76-4.22s-5.923-5.57-7.137-7.3c-3.29-4.698-4.37-9-8.065-13.387-1.428-1.695-3.874-4.374-5.455-5.927-2.686-2.64-7.257-6.348-9.75-9.172-4.22-4.776-13.733-15.66-13.733-15.66l-4.584-7.094-19.49-.47z"/><path fill="none" stroke="#010101" stroke-width="1.2" d="M83.364 63.88s-11.89 23.784-9.836 25.572c1.973 1.72 13.293 4.68 15.724 5.648 3.896 1.553 12.257 6.28 16.206 7.692 2.97 1.06 6.995 3.417 9.718 5.008 3.008 1.756 7.37 4.164 9.133 7.167 1.09 1.86 1.656 5.01 1.12 7.1-.814 3.16-4.706 5.705-6.9 8.117-.367.403-1.562.27-2.656 1.602-1.14 1.384-2.184 4.227-2.878 4.26-1.216.058-3.372-1.292-3.372-1.292s.18 1.592 1.11 2.748c.743.92 2.217 1.46 2.626 1.455 1.016-.01 2.398-.604 2.71-.716 1.6-.574 3.86-4.14 3.86-4.14s-4.197 4.626-4.276 7.116c-.035 1.097.905 1.98.722 3.064-.197 1.167-.52 2.42-1.7 2.525-1.715.155-3.987-.53-3.987-.53s.995 1.784 2.615 2.668c1.008.55 2.25.648 3.327.25 2.38-.883 5.19-3.177 6.605-5.283.83-1.233 1.4-4.75 1.4-4.75s-2.545 5.276-1.998 7.558c.38 1.586 2.65 3.427 2.65 3.427s-2.863.99-4.207 1.852c-2.12 1.36-5.166 6.625-5.166 6.625s-3.244-1.234-4.427-2.108c-.775-.572-1.25-2.094-2.173-2.363-.67-.192-2.243.603-2.243.603l-1.675 6.85s.862 1.94 1.644 2.207c1.314.447 2.992-1.114 4.457-1.25 1.45-.132 4.397.415 4.397.415l-5.288 3.147-.275 2.098 4.14 3.86s2.732-.338 3.443-1.165c.974-1.134.872-4.908.872-4.908s.98 1.104 1.23 1.89c.314.98-.196 2.776-.196 2.776l1.98 1.847 4.02.38s1.747-1.174 1.845-1.98c.173-1.423-2.32-4.18-2.32-4.18l4.414-.595.754-3.334s1.285 4.33 2.798 5.3c.97.623 2.752.602 3.838.213.906-.325 2.36-2.172 2.36-2.172s-1.713.644-2.42.434c-.638-.188-1.617-.845-1.62-1.51-.01-1.257 3.032-2.893 3.032-2.893s2.63 1.492 3.888 1.606c.896.08 2.31.02 2.938-.625.672-.69.586-3.155.586-3.155s-.79 1.22-1.53 1.28c-.75.064-2.147-.282-2.464-.965-.604-1.3.705-4.727.705-4.727s2.792.827 4.047.22c.497-.24 1.364-1.2 1.473-2.067.166-1.302-.08-1.938-.08-1.938s-.766 1.612-1.69 1.563c-.932-.05-2.202-.603-2.83-1.293-1.07-1.172-1.76-3.403-1.744-4.99.02-1.917 1.024-3.74 1.683-5.542.193-.528.644-1.46.644-1.46s2.067 1.675 3.207 2.02c.8.245 2.643-.073 3.328-.55 1.022-.718 1.873-2.65 1.56-3.86-.262-1.002-1.806-1.827-1.806-1.827s.136 1.62.023 2.333c-.08.507-1.395.815-1.89.954-.402.112-.933-.413-1.17-.756-1.178-1.702-1.126-4.394-.887-6.45.17-1.46 2.108-4.426 2.108-4.426s3.063 2.458 4.632 2.972c1.145.375 1.69-1.612 1.1-3.383-.722-2.155-2.76-4.22-2.76-4.22s-5.923-5.57-7.137-7.3c-3.29-4.698-4.37-9-8.065-13.387-1.428-1.695-3.874-4.374-5.455-5.927-2.686-2.64-7.257-6.348-9.75-9.172-4.22-4.776-13.733-15.66-13.733-15.66l-4.584-7.094-19.49-.47z"/><path fill="none" stroke="#010101" d="M148.73 127.815s-1.12-2.717-1.893-3.91c-.684-1.05-2.362-1.807-3.06-2.85-.583-.876-1.224-3.287-1.224-3.287M138.906 121.874s1.654 2.223 1.875 3.356c.334 1.708-.974 3.77-.99 5.51-.008 1.14.32 2.417.137 3.322-.156.772-.92 2.458-.92 2.458s1.812-.896 2.466-1.642c.252-.288 1.886-2.063 1.886-2.063s-.575 4.153-.074 5.828c.15.5.976 1.445.976 1.445M139.52 151.013s.578 2.023 1.04 2.786c.39.646 1.685 1.874 1.685 1.874M137.328 163.006s1.04-2.134 1.197-3.126c.175-1.1.146-2.64-.183-3.703-.122-.397-.72-1.177-.72-1.177M134.052 156.013s1.075 2.14 1 3.153c-.113 1.496-1.27 3.266-1.664 4.71-.2.73-.53 1.718-.488 2.475.032.585.588 1.86.588 1.86M130.337 163.356s.68-3.685.782-4.522c.085-.702-.283-2.082-.283-2.082M115.675 83.786l-2.73 3.965M117.558 85.725l-2.37 2.934M118.945 87.797l-1.255 2.276M120.447 89.444l-1.345 2.158M131.663 150.352l-2.323.513-3.61-.606s-.164.848-.01 1.39c.097.348.526.94.854 1.09.612.278 1.53.567 2.194.467.333-.05.98-.548.98-.548M129.13 137.517s-1.435 2.156-1.506 3.222c-.066.993.506 2.297.99 3.166.418.747.855 1.414 1.646 1.737.695.285 2.72.222 2.72.222s-1.746 1.102-2.6 1.183c-1.124.105-2.697-.297-3.656-.892-.625-.39-1.232-1.23-1.58-1.88-.466-.875-.92-3.17-.92-3.17M121.292 137.828s-1.673 1.95-1.865 3.022c-.15.837.266 1.965.168 2.81-.09.793-.29 1.618-.622 2.345-.354.778-1.805 3.02-1.805 3.02"/><path fill="none" stroke="#010101" d="M144.664 125.455s.222 2.75.002 3.9c-.235 1.233-1.544 3.888-1.544 3.888M101.195 94.428s1.78 1.536 2.346 2.254c.33.418 1.764 2.516 1.764 2.516M105.745 96.42s2.41 2.272 3.174 3.256c.4.52 1.296 2.306 1.296 2.306M110 98.356s1.777 2.242 2.42 3.283c.462.748 1.332 2.61 1.332 2.61M114.617 101.12s1.247 1.52 1.675 2.245c.398.676.916 1.615 1.08 2.383.158.747-.02 2.543-.02 2.543"/><path fill="#ED1C24" d="M112.567 152.706c-.025-.806-.98-1.664-1.638-2.13-.774-.55-1.177-.713-2.115-.855-.818-.124-2.002-.29-2.76.046-.807.358-2.007 2.153-2.007 2.153s2.612-.436 3.69-.183c1.174.275 1.492 1.398 2.618 1.827.407.156 1.013.477 1.417.316.397-.158.808-.75.794-1.174z"/><path fill="none" stroke="#010101" d="M112.567 152.706c-.025-.806-.98-1.664-1.638-2.13-.774-.55-1.177-.713-2.115-.855-.818-.124-2.002-.29-2.76.046-.807.358-2.007 2.153-2.007 2.153s2.612-.436 3.69-.183c1.174.275 1.492 1.398 2.618 1.827.407.156 1.013.477 1.417.316.397-.158.808-.75.794-1.174z"/><path fill="#ED1C24" d="M107.746 156.32c.574.58.982.71.99 1.526.01.714-.437 1.794-1.07 2.122-.38.197-.998-.108-1.413-.21-.7-.176-1.547-.772-2.268-.807-.605-.03-1.44.18-1.96.487-.42.247-.86.766-1.105 1.185-.26.443-.142.97-.26 1.467-.038.155-.92-.86-1.146-1.47-.233-.63-.307-1.587-.13-2.236.25-.928.988-1.39 1.698-2.04.67-.61 1.64-.562 2.525-.765.902-.207 2.19-.1 3.078.152.35.1.806.33 1.06.588z"/><path fill="none" stroke="#010101" d="M107.746 156.32c.574.58.982.71.99 1.526.01.714-.437 1.794-1.07 2.122-.38.197-.998-.108-1.413-.21-.7-.176-1.547-.772-2.268-.807-.605-.03-1.44.18-1.96.487-.42.247-.86.766-1.105 1.185-.26.443-.142.97-.26 1.467-.038.155-.92-.86-1.146-1.47-.233-.63-.307-1.587-.13-2.236.25-.928.988-1.39 1.698-2.04.67-.61 1.64-.562 2.525-.765.902-.207 2.19-.1 3.078.152.35.1.806.33 1.06.588z"/><path fill="#ED1C24" d="M111.646 168.005s1.482.39 2.006.764c.29.206.458.363.546.708.187.73.005 1.894-.487 2.466-.662.772-2.21.87-3.187 1.153-.67.194-2.06.697-2.06.697s1.384-3.994 1.858-4.638c.57-.772 1.243-1.118 1.326-1.15z"/><path fill="none" stroke="#010101" d="M111.646 168.005s1.482.39 2.006.764c.29.206.458.363.546.708.187.73.005 1.894-.487 2.466-.662.772-2.21.87-3.187 1.153-.67.194-2.06.697-2.06.697s1.384-3.994 1.858-4.638c.57-.772 1.243-1.118 1.326-1.15z"/><path fill="#ED1C24" d="M125.453 171.114c.48.222 1.03.77 1.242 1.258.26.603.335 1.583.077 2.184-.36.836-1.462 1.595-2.273 2.008-1.077.547-3.93.867-3.93.867s1.34-1.37 1.804-2.04c.286-.417.733-.985.78-1.487.06-.61-.727-1.36-.588-1.96.09-.385.533-.823.903-.968.553-.22 1.44-.11 1.983.14z"/><path fill="none" stroke="#010101" d="M125.453 171.114c.48.222 1.03.77 1.242 1.258.26.603.335 1.583.077 2.184-.36.836-1.462 1.595-2.273 2.008-1.077.547-3.93.867-3.93.867s1.34-1.37 1.804-2.04c.286-.417.733-.985.78-1.487.06-.61-.727-1.36-.588-1.96.09-.385.533-.823.903-.968.553-.22 1.44-.11 1.983.14z"/><path fill="none" stroke="#010101" stroke-width=".64" d="M150.126 128.616l-2.367-3.113"/><linearGradient id="J" gradientUnits="userSpaceOnUse" x1="-53.852" y1="-39.079" x2="-53.052" y2="-39.079" gradientTransform="matrix(52 0 0 -52 2932.5 -1957.1)"><stop offset="0" stop-color="#6D6E71"/><stop offset="1"/></linearGradient><path fill="url(#J)" d="M152.638 124.14s1.496 1.316 3.284 1.287c1.552-.027 3.492-1.514 4.344-2.81.513-.78 1.103-5.975.767-7.157-.435-1.536-1.96-3.66-3.067-4.345-1.106-.685-2.348-.77-3.322-.51-.475.125-.924.682-1.278 1.02-.267.257-.79.562-.81.932-.013.216.257.44.41.594.565.564 2.192 1.508 2.192 1.508s-2.025.98-2.923.822c-.813-.142-1.86-.864-2.237-1.598-.49-.95-.38-2.563 0-3.563.336-.89 1.293-1.872 2.1-2.376.87-.542 3.29-.914 3.29-.914s-3.72.5-5.252.137c-1.3-.308-2.934-1.208-3.927-2.1-.507-.455-1.123-1.21-1.28-1.873-.192-.807-.038-2.016.365-2.74.396-.715 1.308-1.54 2.102-1.736.775-.19 1.916.143 2.603.548.577.34 1.46 1.69 1.46 1.69s-1.315-.244-1.826-.045c-.406.157-1.04.57-1.05 1.006-.018.64.922 1.208 1.46 1.552.62.396 2.33.776 2.33.776l2.878-.09 2.283.32s-2.69-5.75-3.814-7.923c-.64-1.24-1.61-4.454-2.01-5.792-.528-1.775-.395-1.975-.98-3.733-.674-2.025-1.88-4.788-3.47-6.21-.92-.824-2.95-1.712-4.142-2.037-1-.27-2.056-.21-3.076-.02-.784.147-1.877.622-2.33 1.28-.516.75-.716 2.154-.41 3.014.1.283.473.53.73.686.533.323 1.343.62 1.963.685.88.094 2.122.007 2.924-.366.22-.102.593-.548.593-.548s-.553 2.136-1.188 2.786c-.674.688-1.966 1.223-2.924 1.323-1.073.11-2.602-.2-3.515-.777-1.172-.74-2.462-2.317-2.832-3.653-.427-1.544-.13-3.896.64-5.298.665-1.212 2.285-2.396 3.562-2.923.802-.33 2.878-.274 2.878-.274l1.233.41s-1.518-.435-2.147-.684c-.678-.27-1.643-.57-2.193-1.05-1.087-.95-2.317-2.615-2.648-4.02-.213-.9.057-2.19.365-3.06.386-1.098 1.146-2.564 2.055-3.29.92-.73 2.527-1.23 3.7-1.28.72-.03 1.736.186 2.33.595.784.542 1.702 1.658 1.827 2.603.056.435-.503 1.37-.503 1.37s-1.013-1.3-1.644-1.552c-.65-.258-1.693-.288-2.33 0-.398.18-.786.695-.96 1.097-.332.77-.613 2.02-.272 2.786.374.843 1.64 1.42 2.466 1.828.806.397 2.877.823 2.877.823l3.015 2.24s-.484-3.96-.457-5.665c.023-1.46.23-3.415.55-4.84.425-1.91 1.252-4.406 2.1-6.168 1.247-2.592 3.99-5.455 5.16-8.084.4-.896.775-2.176.87-3.15.116-1.23.07-2.938-.32-4.11-.25-.755-.934-1.608-1.417-2.24-.53-.692-1.16-1.803-1.963-2.146-.555-.237-1.46-.156-2.01.045-.548.202-1.167.737-1.46 1.188-.295.45-.59 1.233-.458 1.644.132.41 1.136 1.358 1.468 1.256.33-.103 2.688-.617 2.688-.617s-.658 1.978-1.416 2.558c-.757.58-2.875.685-4.29.505-1.413-.18-3.213-1.63-4.388-2.56-1.175-.927-2.205-1.918-2.603-2.923-.4-1.004-.33-2.43-.093-3.288.236-.858.79-1.748 1.417-2.238.478-.374 1.918-.64 1.918-.64s-2.248-.883-3.015-1.552c-.808-.705-1.744-1.896-2.055-2.923-.355-1.166-.423-2.957.09-4.063.717-1.54 2.153-3.352 3.61-4.223 1.017-.607 3.154-1.53 4.337-1.55.835-.017 2.05.942 2.648 1.525.583.567 1.06 1.755.913 2.557-.11.603-1.323 1.553-1.323 1.553s.322-1.59 0-2.146c-.26-.452-.986-.894-1.508-.868-.707.034-1.637.72-1.92 1.37-.208.482.013 1.257.23 1.735.522 1.162 2.786 3.2 2.786 3.2l4.75 1.37 3.06 2.01.867 1.232 1.553-3.608s2.93-2.97 4.52-3.7c.862-.395 2.176-.715 3.107-.548.906.164 2.002.898 2.65 1.553.465.47 1.187 1.262 1.095 1.918-.104.74-1.78 1.736-1.78 1.736s.386-1.514.044-2.01c-.346-.504-1.308-.723-1.918-.685-.612.037-1.352.525-1.828.912-.583.474-1.223 1.29-1.552 1.964-.358.735-.68 1.832-.64 2.65.06 1.215.89 2.698 1.325 3.835.63 1.654 1.893 3.712 2.283 5.437.193.856.24 2.052.137 2.923-.063.538-.502 1.734-.502 1.734l-1.037 2.06s2.642-2.45 4.07-2.906c1.08-.345 2.762-.5 3.777 0 1.245.617 2.305 2.387 2.81 3.68.232.6.34 1.507.193 2.132-.164.698-.77 1.51-1.26 2.034-.34.364-1.355.97-1.355.97s.924-2.154.775-3.1c-.13-.814-.718-1.957-1.453-2.326-.938-.47-2.613-.292-3.487.29-.736.492-1.147 1.757-1.356 2.617-.24.987.285 2.413 0 3.39-.318 1.09-1.284 2.343-2.034 3.196-1.048 1.195-3.006 2.21-4.068 3.392-.84.934-3.694 5.095-4.068 5.908-.462 1.006-1.01 2.486-.872 3.584.062.49.775 1.453.775 1.453s.573-1.613 1.065-2.13c1.058-1.113 3.04-1.924 4.456-2.52 1.06-.445 2.936-.19 3.68-1.066.626-.734.77-2.308.388-3.194-.27-.63-1.365-1.28-1.84-1.356-.475-.075-.872.29-.872.29s1.188-1.504 1.938-1.646c.966-.183 2.442.334 3.1 1.065.52.576 1.103 1.59 1.217 2.358.12.807-.14 2.114-.443 2.87-.322.804-1.56 1.292-2.13 1.94-.4.452-1.32 1.062-1.163 1.646.2.74 1.668.668 2.325 1.065 1.098.663 2.547 1.644 3.39 2.615.5.58 1.078 1.48 1.258 2.227.327 1.357.207 3.312-.194 4.65-.243.81-.78 1.905-1.453 2.42-.334.26-.933.36-1.354.39-.82.055-2.028.066-2.712-.39-.565-.374-1.163-1.937-1.163-1.937l-.29-.678s1.99 1.21 2.906 1.066c.51-.082 1.19-.575 1.356-1.066.22-.655-.097-1.736-.58-2.228-.615-.623-1.95-.625-2.81-.776-.7-.122-1.615-.443-2.36-.18-.885.313-2.107.668-2.906 1.163-.594.367-1.244 1.06-1.743 1.55-.367.36-.98.778-1.162 1.26-.59 1.546-.252 4.83-.062 6.475.126 1.093.412 2.545.775 3.583.994 2.847 1.895 4.46 3.022 7.258.935 2.317 3.208 7.306 3.95 9.694.326 1.043.88 2.408 1.067 3.486.217 1.262.155 2.983.194 4.262.06 2.033.45 4.016-.063 5.984-.322 1.233-1.247 3.426-1.972 4.476-.808 1.172-1.826 2.875-3 3.682-1.085.742-2.855 1.26-4.166 1.356-1.03.074-2.62-.064-3.583-.438-1.45-.564-4.454-2.76-4.454-2.76"/><path fill="none" stroke="#010101" stroke-width="1.2" d="M152.638 124.14s1.496 1.316 3.284 1.287c1.552-.027 3.492-1.514 4.344-2.81.513-.78 1.103-5.975.767-7.157-.435-1.536-1.96-3.66-3.067-4.345-1.106-.685-2.348-.77-3.322-.51-.475.125-.924.682-1.278 1.02-.267.257-.79.562-.81.932-.013.216.257.44.41.594.565.564 2.192 1.508 2.192 1.508s-2.025.98-2.923.822c-.813-.142-1.86-.864-2.237-1.598-.49-.95-.38-2.563 0-3.563.336-.89 1.293-1.872 2.1-2.376.87-.542 3.29-.914 3.29-.914s-3.72.5-5.252.137c-1.3-.308-2.934-1.208-3.927-2.1-.507-.455-1.123-1.21-1.28-1.873-.192-.807-.038-2.016.365-2.74.396-.715 1.308-1.54 2.102-1.736.775-.19 1.916.143 2.603.548.577.34 1.46 1.69 1.46 1.69s-1.315-.244-1.826-.045c-.406.157-1.04.57-1.05 1.006-.018.64.922 1.208 1.46 1.552.62.396 2.33.776 2.33.776l2.878-.09 2.283.32s-2.69-5.75-3.814-7.923c-.64-1.24-1.61-4.454-2.01-5.792-.528-1.775-.395-1.975-.98-3.733-.674-2.025-1.88-4.788-3.47-6.21-.92-.824-2.95-1.712-4.142-2.037-1-.27-2.056-.21-3.076-.02-.784.147-1.877.622-2.33 1.28-.516.75-.716 2.154-.41 3.014.1.283.473.53.73.686.533.323 1.343.62 1.963.685.88.094 2.122.007 2.924-.366.22-.102.593-.548.593-.548s-.553 2.136-1.188 2.786c-.674.688-1.966 1.223-2.924 1.323-1.073.11-2.602-.2-3.515-.777-1.172-.74-2.462-2.317-2.832-3.653-.427-1.544-.13-3.896.64-5.298.665-1.212 2.285-2.396 3.562-2.923.802-.33 2.878-.274 2.878-.274l1.233.41s-1.518-.435-2.147-.684c-.678-.27-1.643-.57-2.193-1.05-1.087-.95-2.317-2.615-2.648-4.02-.213-.9.057-2.19.365-3.06.386-1.098 1.146-2.564 2.055-3.29.92-.73 2.527-1.23 3.7-1.28.72-.03 1.736.186 2.33.595.784.542 1.702 1.658 1.827 2.603.056.435-.503 1.37-.503 1.37s-1.013-1.3-1.644-1.552c-.65-.258-1.693-.288-2.33 0-.398.18-.786.695-.96 1.097-.332.77-.613 2.02-.272 2.786.374.843 1.64 1.42 2.466 1.828.806.397 2.877.823 2.877.823l3.015 2.24s-.484-3.96-.457-5.665c.023-1.46.23-3.415.55-4.84.425-1.91 1.252-4.406 2.1-6.168 1.247-2.592 3.99-5.455 5.16-8.084.4-.896.775-2.176.87-3.15.116-1.23.07-2.938-.32-4.11-.25-.755-.934-1.608-1.417-2.24-.53-.692-1.16-1.803-1.963-2.146-.555-.237-1.46-.156-2.01.045-.548.202-1.167.737-1.46 1.188-.295.45-.59 1.233-.458 1.644.132.41 1.136 1.358 1.468 1.256.33-.103 2.688-.617 2.688-.617s-.658 1.978-1.416 2.558c-.757.58-2.875.685-4.29.505-1.413-.18-3.213-1.63-4.388-2.56-1.175-.927-2.205-1.918-2.603-2.923-.4-1.004-.33-2.43-.093-3.288.236-.858.79-1.748 1.417-2.238.478-.374 1.918-.64 1.918-.64s-2.248-.883-3.015-1.552c-.808-.705-1.744-1.896-2.055-2.923-.355-1.166-.423-2.957.09-4.063.717-1.54 2.153-3.352 3.61-4.223 1.017-.607 3.154-1.53 4.337-1.55.835-.017 2.05.942 2.648 1.525.583.567 1.06 1.755.913 2.557-.11.603-1.323 1.553-1.323 1.553s.322-1.59 0-2.146c-.26-.452-.986-.894-1.508-.868-.707.034-1.637.72-1.92 1.37-.208.482.013 1.257.23 1.735.522 1.162 2.786 3.2 2.786 3.2l4.75 1.37 3.06 2.01.867 1.232 1.553-3.608s2.93-2.97 4.52-3.7c.862-.395 2.176-.715 3.107-.548.906.164 2.002.898 2.65 1.553.465.47 1.187 1.262 1.095 1.918-.104.74-1.78 1.736-1.78 1.736s.386-1.514.044-2.01c-.346-.504-1.308-.723-1.918-.685-.612.037-1.352.525-1.828.912-.583.474-1.223 1.29-1.552 1.964-.358.735-.68 1.832-.64 2.65.06 1.215.89 2.698 1.325 3.835.63 1.654 1.893 3.712 2.283 5.437.193.856.24 2.052.137 2.923-.063.538-.502 1.734-.502 1.734l-1.037 2.06s2.642-2.45 4.07-2.906c1.08-.345 2.762-.5 3.777 0 1.245.617 2.305 2.387 2.81 3.68.232.6.34 1.507.193 2.132-.164.698-.77 1.51-1.26 2.034-.34.364-1.355.97-1.355.97s.924-2.154.775-3.1c-.13-.814-.718-1.957-1.453-2.326-.938-.47-2.613-.292-3.487.29-.736.492-1.147 1.757-1.356 2.617-.24.987.285 2.413 0 3.39-.318 1.09-1.284 2.343-2.034 3.196-1.048 1.195-3.006 2.21-4.068 3.392-.84.934-3.694 5.095-4.068 5.908-.462 1.006-1.01 2.486-.872 3.584.062.49.775 1.453.775 1.453s.573-1.613 1.065-2.13c1.058-1.113 3.04-1.924 4.456-2.52 1.06-.445 2.936-.19 3.68-1.066.626-.734.77-2.308.388-3.194-.27-.63-1.365-1.28-1.84-1.356-.475-.075-.872.29-.872.29s1.188-1.504 1.938-1.646c.966-.183 2.442.334 3.1 1.065.52.576 1.103 1.59 1.217 2.358.12.807-.14 2.114-.443 2.87-.322.804-1.56 1.292-2.13 1.94-.4.452-1.32 1.062-1.163 1.646.2.74 1.668.668 2.325 1.065 1.098.663 2.547 1.644 3.39 2.615.5.58 1.078 1.48 1.258 2.227.327 1.357.207 3.312-.194 4.65-.243.81-.78 1.905-1.453 2.42-.334.26-.933.36-1.354.39-.82.055-2.028.066-2.712-.39-.565-.374-1.163-1.937-1.163-1.937l-.29-.678s1.99 1.21 2.906 1.066c.51-.082 1.19-.575 1.356-1.066.22-.655-.097-1.736-.58-2.228-.615-.623-1.95-.625-2.81-.776-.7-.122-1.615-.443-2.36-.18-.885.313-2.107.668-2.906 1.163-.594.367-1.244 1.06-1.743 1.55-.367.36-.98.778-1.162 1.26-.59 1.546-.252 4.83-.062 6.475.126 1.093.412 2.545.775 3.583.994 2.847 1.895 4.46 3.022 7.258.935 2.317 3.208 7.306 3.95 9.694.326 1.043.88 2.408 1.067 3.486.217 1.262.155 2.983.194 4.262.06 2.033.45 4.016-.063 5.984-.322 1.233-1.247 3.426-1.972 4.476-.808 1.172-1.826 2.875-3 3.682-1.085.742-2.855 1.26-4.166 1.356-1.03.074-2.62-.064-3.583-.438-1.45-.564-4.454-2.76-4.454-2.76"/><path fill="none" stroke="#010101" d="M141.277 19.338s-.955 3.194-.768 4.307c.225 1.34.705 3.167 1.484 4.28.62.886 1.85 1.755 2.797 2.272 1.55.847 5.593 1.835 5.593 1.835"/><linearGradient id="K" gradientUnits="userSpaceOnUse" x1="-104.518" y1="-4.509" x2="-103.717" y2="-4.509" gradientTransform="matrix(5.5 0 0 -5.5 718.4 13.6)"><stop offset="0" stop-color="#6D6E71"/><stop offset="1"/></linearGradient><path fill="url(#K)" d="M147.325 34.83s-2.306 1.21-3.06 2.01c-.54.573-1.153 1.5-1.31 2.272-.174.854.35 2.883.35 2.883"/><path fill="none" stroke="#010101" d="M147.325 34.83s-2.306 1.21-3.06 2.01c-.54.573-1.153 1.5-1.31 2.272-.174.854.35 2.883.35 2.883"/><linearGradient id="L" gradientUnits="userSpaceOnUse" x1="-86.89" y1="-16.495" x2="-86.09" y2="-16.495" gradientTransform="matrix(8.1 0 0 -8.1 859.9 -82.5)"><stop offset="0" stop-color="#6D6E71"/><stop offset="1"/></linearGradient><path fill="url(#L)" d="M163.928 46.89s-1.956 3.96-3.146 5.417c-.4.488-1.07 1.014-1.573 1.397-.498.38-1.75 1.137-1.75 1.137"/><path fill="none" stroke="#010101" d="M163.928 46.89s-1.956 3.96-3.146 5.417c-.4.488-1.07 1.014-1.573 1.397-.498.38-1.75 1.137-1.75 1.137"/><linearGradient id="M" gradientUnits="userSpaceOnUse" x1="-92.234" y1="-12.457" x2="-91.434" y2="-12.457" gradientTransform="matrix(7.1 0 0 -7.1 810.9 -28.7)"><stop offset="0" stop-color="#6D6E71"/><stop offset="1"/></linearGradient><path fill="url(#M)" d="M161.656 59.036s-1.767-.52-2.534-.438c-.62.068-1.42.417-1.923.787-.466.342-1.224 1.484-1.224 1.484"/><path fill="none" stroke="#010101" d="M161.656 59.036s-1.767-.52-2.534-.438c-.62.068-1.42.417-1.923.787-.466.342-1.224 1.484-1.224 1.484M172.317 78.872s-2.216-2.547-3.408-3.408c-1.214-.875-3.142-1.742-4.632-1.834-1.676-.105-3.955.576-5.42 1.398-.985.55-1.972 1.76-2.707 2.62-.77.9-2.27 3.234-2.27 3.234"/><linearGradient id="N" gradientUnits="userSpaceOnUse" x1="-138.023" y1="22.802" x2="-137.222" y2="22.802" gradientTransform="matrix(3.5 0 0 -3.5 640 186.6)"><stop offset="0" stop-color="#6D6E71"/><stop offset="1"/></linearGradient><path fill="url(#N)" d="M157.46 104.302s1.58 1.986 2.012 2.797c.337.635.786 2.27.786 2.27"/><path fill="none" stroke="#010101" d="M157.46 104.302s1.58 1.986 2.012 2.797c.337.635.786 2.27.786 2.27"/><path fill="#EF3733" d="M93.74 44.97s-3.81-2.305-5.69-2.54c-1.338-.166-3.18-.175-4.504.064-1.9.342-4.698 2.442-6.617 2.692-.904.117-1.66.223-2.307-.342-1.158-1.013-.273-3.014-.988-4.305-.348-.63-1.22-1.285-1.922-1.62-.87-.414-2.23-.756-3.213-.658-.612.063-1.84.798-1.84.798s1.618.803 2.015 1.378c.87 1.263.216 3.53.992 4.837.305.516 1.038 1.014 1.557 1.377.53.372 1.27.89 1.925 1.055 1.455.37 3.57.298 5.052.02 1.81-.34 3.808-2.347 5.616-2.686 1.375-.257 3.3.25 4.684.473 1.013.163 3.212 1.06 3.212 1.06l2.027-1.603z"/><path fill="none" stroke="#010101" d="M93.74 44.97s-3.81-2.305-5.69-2.54c-1.338-.166-3.18-.175-4.504.064-1.9.342-4.698 2.442-6.617 2.692-.904.117-1.66.223-2.307-.342-1.158-1.013-.273-3.014-.988-4.305-.348-.63-1.22-1.285-1.922-1.62-.87-.414-2.23-.756-3.213-.658-.612.063-1.84.798-1.84.798s1.618.803 2.015 1.378c.87 1.263.216 3.53.992 4.837.305.516 1.038 1.014 1.557 1.377.53.372 1.27.89 1.925 1.055 1.455.37 3.57.298 5.052.02 1.81-.34 3.808-2.347 5.616-2.686 1.375-.257 3.3.25 4.684.473 1.013.163 3.212 1.06 3.212 1.06l2.027-1.603z"/><path fill="#FFF" d="M80.53 37.394c.183-.583.348-.39.925-.592.582-.203.57-.313 1.03.096.418.37.536.232.598.786.164 1.43-.02 2.863-.572 4.194-.234.565-.874 1.292-.874 1.292s-.464-.553-.675-1.23c-.447-1.44-.882-3.112-.43-4.546z"/><path fill="none" stroke="#010101" d="M80.53 37.394c.183-.583.348-.39.925-.592.582-.203.57-.313 1.03.096.418.37.536.232.598.786.164 1.43-.02 2.863-.572 4.194-.234.565-.874 1.292-.874 1.292s-.464-.553-.675-1.23c-.447-1.44-.882-3.112-.43-4.546z"/><path fill="#FFF" d="M81.245 48.38c-.02.61.2.482.68.864.482.383.435.484 1.004.25.516-.212.58-.043.822-.545.627-1.298.925-2.712.842-4.15-.035-.61-.4-1.507-.4-1.507s-.62.37-1.043.94c-.896 1.207-1.858 2.643-1.905 4.147z"/><path fill="none" stroke="#010101" d="M81.245 48.38c-.02.61.2.482.68.864.482.383.435.484 1.004.25.516-.212.58-.043.822-.545.627-1.298.925-2.712.842-4.15-.035-.61-.4-1.507-.4-1.507s-.62.37-1.043.94c-.896 1.207-1.858 2.643-1.905 4.147z"/><linearGradient id="O" gradientUnits="userSpaceOnUse" x1="-51.648" y1="-40.513" x2="-50.848" y2="-40.513" gradientTransform="matrix(77.9 0 0 -77.9 4088.9 -3085.1)"><stop offset="0" stop-color="#6D6E71"/><stop offset="1"/></linearGradient><path fill="url(#O)" d="M100.417 46.43s-5.843 6.025-8.853 7.944c-2.854 1.822-7.528 2.608-10.376 4.44-2.876 1.846-6.362 4.944-8.43 7.665-1.422 1.868-2.648 4.81-3.53 6.985-.805 1.996 1.12 4.78.29 5.03-1.09.33-3.055 1.72-4.33 3.89-.894 1.52-1.292 3.868-1.493 4.588-.276.984-.09 2.564.546 3.363.707.884 3.496 1.414 3.496 1.414s-1.237-2.152-.968-3.084c.215-.744 1.215-1.487 1.966-1.672 1.128-.276 2.54.2 2.54.2s-1.073 3.357-.718 4.758c.273 1.074 1.856 1.903 2.228 2.948.352.99.42 2.492.126 3.5-.5 1.71-3.38 4.887-3.38 4.887s4.445-1.348 5.89-2.637c1.238-1.102 2.486-3.125 2.82-4.75.316-1.535-1.176-3.694-.68-5.182.63-1.888 4.64-4.74 4.64-4.74s.178 3.466.54 4.9c.245.97 1.48 2.114 1.248 3.084-.313 1.303-2.775 1.728-3.372 2.927-.6 1.205-.522 3.15-.297 4.478.158.945.61 2.227 1.247 2.945.962 1.083 2.792 2.022 4.19 2.396.487.13 1.68.006 1.68.006s-2.836-1.825-3.348-3.094c-.284-.703-.173-1.834.15-2.52.392-.833 1.54-1.5 2.247-2.09 1.01-.848 2.672-1.63 3.51-2.647.86-1.044 1.63-2.744 1.977-4.052.366-1.383.3-4.76.3-4.76s-.12 2.58.557 3.79c.41.724 2.043 1.968 2.498 2.664.37.568.9 1.428.83 2.104-.085.847-1.106 1.648-1.55 2.375-.4.658-1.268 2.234-1.268 2.234s3.77-1.73 5.05-2.92c1.154-1.07 2.688-2.78 2.96-4.328.14-.813-.44-1.876-.69-2.663-.178-.558-.524-1.264-.694-1.823-.16-.537-.586-1.29-.413-1.822.295-.906 2.39-2.09 2.39-2.09s-.52 1.757-.432 2.52c.15 1.27 1.665 3.926 1.665 3.926s.186-2.388.853-3.076c1.165-1.203 3.86-.852 5.327-1.66 1.696-.933 4.578-3.818 5.776-5.34.26-.328 2.564 2.703 4.01 1.603 2.31-1.76 4.052-3.906 5.79-7.374 1.342-2.672-.313-6.502-.18-9.955.144-3.736 1.265-8.445 1.164-8.78-.59-1.94-2.982-4.26-2.982-4.26l-.664-9.102-4.598-5.478-19.762 5.38 2.51 2.952z"/><path fill="none" stroke="#010101" stroke-width="1.2" d="M100.417 46.43s-5.843 6.025-8.853 7.944c-2.854 1.822-7.528 2.608-10.376 4.44-2.876 1.846-6.362 4.944-8.43 7.665-1.422 1.868-2.648 4.81-3.53 6.985-.805 1.996 1.12 4.78.29 5.03-1.09.33-3.055 1.72-4.33 3.89-.894 1.52-1.292 3.868-1.493 4.588-.276.984-.09 2.564.546 3.363.707.884 3.496 1.414 3.496 1.414s-1.237-2.152-.968-3.084c.215-.744 1.215-1.487 1.966-1.672 1.128-.276 2.54.2 2.54.2s-1.073 3.357-.718 4.758c.273 1.074 1.856 1.903 2.228 2.948.352.99.42 2.492.126 3.5-.5 1.71-3.38 4.887-3.38 4.887s4.445-1.348 5.89-2.637c1.238-1.102 2.486-3.125 2.82-4.75.316-1.535-1.176-3.694-.68-5.182.63-1.888 4.64-4.74 4.64-4.74s.178 3.466.54 4.9c.245.97 1.48 2.114 1.248 3.084-.313 1.303-2.775 1.728-3.372 2.927-.6 1.205-.522 3.15-.297 4.478.158.945.61 2.227 1.247 2.945.962 1.083 2.792 2.022 4.19 2.396.487.13 1.68.006 1.68.006s-2.836-1.825-3.348-3.094c-.284-.703-.173-1.834.15-2.52.392-.833 1.54-1.5 2.247-2.09 1.01-.848 2.672-1.63 3.51-2.647.86-1.044 1.63-2.744 1.977-4.052.366-1.383.3-4.76.3-4.76s-.12 2.58.557 3.79c.41.724 2.043 1.968 2.498 2.664.37.568.9 1.428.83 2.104-.085.847-1.106 1.648-1.55 2.375-.4.658-1.268 2.234-1.268 2.234s3.77-1.73 5.05-2.92c1.154-1.07 2.688-2.78 2.96-4.328.14-.813-.44-1.876-.69-2.663-.178-.558-.524-1.264-.694-1.823-.16-.537-.586-1.29-.413-1.822.295-.906 2.39-2.09 2.39-2.09s-.52 1.757-.432 2.52c.15 1.27 1.665 3.926 1.665 3.926s.186-2.388.853-3.076c1.165-1.203 3.86-.852 5.327-1.66 1.696-.933 4.578-3.818 5.776-5.34.26-.328 2.564 2.703 4.01 1.603 2.31-1.76 4.052-3.906 5.79-7.374 1.342-2.672-.313-6.502-.18-9.955.144-3.736 1.265-8.445 1.164-8.78-.59-1.94-2.982-4.26-2.982-4.26l-.664-9.102-4.598-5.478-19.762 5.38 2.51 2.952z"/><linearGradient id="P" gradientUnits="userSpaceOnUse" x1="-52.03" y1="-40.349" x2="-51.23" y2="-40.349" gradientTransform="matrix(71.4 0 0 -71.4 3792.6 -2837.4)"><stop offset="0" stop-color="#6D6E71"/><stop offset="1"/></linearGradient><path fill="url(#P)" d="M116.97 24.708s1.063-1.382 1.387-2.56c.198-.718.066-2.825-.054-3.872-.113-.98-.44-1.37-.44-1.37s-.2 1.2-.478 1.817c-.468 1.04-2.365 2.972-2.365 2.972s.328-1.378.29-1.976c-.118-1.846-1.67-5.935-1.67-5.935s-.717 3.995-1.714 5.356c-.86 1.177-1.995.786-3.374 1.257-3.45 1.18-9.718.245-13.656 1.81-1.624.643-4.958 2.932-4.958 2.932s-4.146 1.404-6.445.976c-.845-.158-1.83-.935-2.675-.777-1.5.28-2.703.245-3.957.62-1.576.476-1.675 3.785-1.167 5.353.17.525.878 1 1.014 1.534.227.894-.537 2.178-.268 3.06.317 1.04 1.303 2.345 2.283 2.815 1.346.644 3.432.11 4.848-.364 1.554-.52 3.232-.374 4.088-1.77.345-.562 1.414-2.67 1.414-2.67s2.478 1.806 3.047 3.327c.496 1.325.46 3.438-.147 4.717-.895 1.886-3.298 3.822-5.247 4.57-1.75.672-4.528-.642-6.25.102-1.365.59-2.718 1.13-3.197 2.54-.312.91-.51 2.833.112 3.57.72.85 2.248.063 2.8 1.03.314.548.246 2.68.246 2.68s2.48-1.598 3.07-2.666c.375-.678.394-2.55.394-2.55s6.066.433 8.67.418c1.802-.01 4.89.44 6.505-.357 1.265-.626 2.272-2.18 2.565-3.56.108-.51-.504-1.66-.504-1.66s.93-.568 1.404-.123c1.175 1.103 1.612 2.477 1.64 4.087.053 2.832-.318 7.017-1.567 9.56-.733 1.49-2.04 3.447-3.474 4.853-.582.57-1.185 1.052-1.78 1.373-1.447.783-3.835.77-5.235 1.638-.942.584-2.038 1.69-2.56 2.667-.426.794-.704 2.033-.65 2.932.068 1.135 1.26 3.575 1.26 3.575l1-2.904 5.02-2.385s6.62-1.448 9.035-2.972c2.663-1.68 2.73-2.64 2.73-2.64s-.607 3.624-3.75 6.445c-.98.883-3.817 2.19-3.817 2.19s5.392-.372 7.423-1.374c2.405-1.187 5.07-3.812 6.64-5.986 1.418-1.967 3.64-8.695 3.64-8.695s-1.685-6.325-2.966-9.347c-.697-1.644-3.188-5.024-3.188-5.024s2.43 3.48 3.18 5.127c1.666 3.647 3.966 12.766 3.966 12.766s1.935-5.834 2.24-8.435c.222-1.912.32-4.555-.176-6.416-.422-1.587-2.587-4.822-2.587-4.822s2.04 3.373 2.564 4.966c.594 1.81-.04 4.676 1 6.275 1.207 1.862 3.978 4.003 6.197 4.035.918.014 2.013-.898 2.612-1.593.81-.938 1.755-2.57 1.618-3.802-.09-.814-1.595-2.213-1.595-2.213s-.747 1.94-1.276 2.53c-.46.51-1.335.308-1.917-.055-.52-.325-.44-1.906-.535-2.512-.466-2.993 1.38-6.508.346-8.94-.35-.83-1.507-3.04-2.536-3.704-.672-.435-3.246-1.59-3.246-1.59s1.72-1.096 2.213-1.794c1.062-1.51 1.716-3.987 2.03-5.806.223-1.305.016-4.41.016-4.41s-4.086.118-5.815.377c-.996.15-3.27.775-3.27.775z"/><path fill="none" stroke="#010101" stroke-width="1.2" d="M116.97 24.708s1.063-1.382 1.387-2.56c.198-.718.066-2.825-.054-3.872-.113-.98-.44-1.37-.44-1.37s-.2 1.2-.478 1.817c-.468 1.04-2.365 2.972-2.365 2.972s.328-1.378.29-1.976c-.118-1.846-1.67-5.935-1.67-5.935s-.717 3.995-1.714 5.356c-.86 1.177-1.995.786-3.374 1.257-3.45 1.18-9.718.245-13.656 1.81-1.624.643-4.958 2.932-4.958 2.932s-4.146 1.404-6.445.976c-.845-.158-1.83-.935-2.675-.777-1.5.28-2.703.245-3.957.62-1.576.476-1.675 3.785-1.167 5.353.17.525.878 1 1.014 1.534.227.894-.537 2.178-.268 3.06.317 1.04 1.303 2.345 2.283 2.815 1.346.644 3.432.11 4.848-.364 1.554-.52 3.232-.374 4.088-1.77.345-.562 1.414-2.67 1.414-2.67s2.478 1.806 3.047 3.327c.496 1.325.46 3.438-.147 4.717-.895 1.886-3.298 3.822-5.247 4.57-1.75.672-4.528-.642-6.25.102-1.365.59-2.718 1.13-3.197 2.54-.312.91-.51 2.833.112 3.57.72.85 2.248.063 2.8 1.03.314.548.246 2.68.246 2.68s2.48-1.598 3.07-2.666c.375-.678.394-2.55.394-2.55s6.066.433 8.67.418c1.802-.01 4.89.44 6.505-.357 1.265-.626 2.272-2.18 2.565-3.56.108-.51-.504-1.66-.504-1.66s.93-.568 1.404-.123c1.175 1.103 1.612 2.477 1.64 4.087.053 2.832-.318 7.017-1.567 9.56-.733 1.49-2.04 3.447-3.474 4.853-.582.57-1.185 1.052-1.78 1.373-1.447.783-3.835.77-5.235 1.638-.942.584-2.038 1.69-2.56 2.667-.426.794-.704 2.033-.65 2.932.068 1.135 1.26 3.575 1.26 3.575l1-2.904 5.02-2.385s6.62-1.448 9.035-2.972c2.663-1.68 2.73-2.64 2.73-2.64s-.607 3.624-3.75 6.445c-.98.883-3.817 2.19-3.817 2.19s5.392-.372 7.423-1.374c2.405-1.187 5.07-3.812 6.64-5.986 1.418-1.967 3.64-8.695 3.64-8.695s-1.685-6.325-2.966-9.347c-.697-1.644-3.188-5.024-3.188-5.024s2.43 3.48 3.18 5.127c1.666 3.647 3.966 12.766 3.966 12.766s1.935-5.834 2.24-8.435c.222-1.912.32-4.555-.176-6.416-.422-1.587-2.587-4.822-2.587-4.822s2.04 3.373 2.564 4.966c.594 1.81-.04 4.676 1 6.275 1.207 1.862 3.978 4.003 6.197 4.035.918.014 2.013-.898 2.612-1.593.81-.938 1.755-2.57 1.618-3.802-.09-.814-1.595-2.213-1.595-2.213s-.747 1.94-1.276 2.53c-.46.51-1.335.308-1.917-.055-.52-.325-.44-1.906-.535-2.512-.466-2.993 1.38-6.508.346-8.94-.35-.83-1.507-3.04-2.536-3.704-.672-.435-3.246-1.59-3.246-1.59s1.72-1.096 2.213-1.794c1.062-1.51 1.716-3.987 2.03-5.806.223-1.305.016-4.41.016-4.41s-4.086.118-5.815.377c-.996.15-3.27.775-3.27.775z"/><ellipse transform="rotate(-156.1 99.3 30.7)" fill="#FFF" cx="99.345" cy="30.701" rx="5.002" ry="2.945"/><ellipse transform="rotate(-156.1 99.3 30.7)" fill="none" stroke="#010101" cx="99.345" cy="30.701" rx="5.002" ry="2.945"/><path fill="#FFF" d="M101.227 29.642c-.006 1.77-1.445 3.197-3.214 3.192-1.77-.006-3.2-1.445-3.192-3.214v-.004c.007-1.77 1.446-3.2 3.215-3.192 1.77.006 3.197 1.445 3.192 3.214v.004z"/><path fill="none" stroke="#010101" d="M101.227 29.642c-.006 1.77-1.445 3.197-3.214 3.192-1.77-.006-3.2-1.445-3.192-3.214v-.004c.007-1.77 1.446-3.2 3.215-3.192 1.77.006 3.197 1.445 3.192 3.214v.004z"/><path fill="#010101" d="M98.298 26.874c-.242 0-.458.036-.676.06-.434.05-.8.123-.8.123l.307 1.363s.298-.057.65-.098c.352-.04.792.02.725-.01l.273.377c.07.227.025 1.082-.09 1.312-.042.08-.37.366-.39.374.105-.034-.24-.006-.5-.053-.258-.047-.475-.102-.475-.102s-.708-.086-.81.145c-.134.306.403 1.04.403 1.04s.278.068.61.128c.335.06.675.167 1.176.004.598-.193.966-.57 1.216-1.07.336-.67.42-1.45.197-2.187-.16-.522-.438-.97-1.033-1.24-.28-.13-.543-.164-.784-.166z"/><linearGradient id="Q" gradientUnits="userSpaceOnUse" x1="-69.018" y1="-28.401" x2="-68.217" y2="-28.401" gradientTransform="matrix(14.2 0 0 -14.2 1071.6 -374)"><stop offset="0" stop-color="#6D6E71"/><stop offset="1"/></linearGradient><path fill="url(#Q)" d="M97.726 24.725s-1.105.167-1.563.348c-.898.355-1.804 1.163-1.924 2.12-.064.5.128.93.49 1.28.39.38 1.018.335 1.56.362.794.04 1.78-.583 2.557-.488 1.115.14 2.56.828 3.398 1.575.393.35.477 1.206.916 1.494.397.26 1.14.43 1.562.22.435-.217.663-.946.787-1.417.058-.228.066-.557.002-.78-.098-.34-.39-.74-.635-.997-.305-.32-1.202-.856-1.202-.856"/><path fill="none" stroke="#010101" d="M97.726 24.725s-1.105.167-1.563.348c-.898.355-1.804 1.163-1.924 2.12-.064.5.128.93.49 1.28.39.38 1.018.335 1.56.362.794.04 1.78-.583 2.557-.488 1.115.14 2.56.828 3.398 1.575.393.35.477 1.206.916 1.494.397.26 1.14.43 1.562.22.435-.217.663-.946.787-1.417.058-.228.066-.557.002-.78-.098-.34-.39-.74-.635-.997-.305-.32-1.202-.856-1.202-.856M77.37 31.75s1.952-2.58 2.846-2.945c.892-.366 1.227-.313 1.4.005.175.318.12.818-.544 1.47-.663.65-3.7 1.47-3.7 1.47z"/><path fill="#010101" d="M116.785 29.32s1.098-1.75 1.837-2.178c1.168-.675 4.423-.795 4.423-.795s.54 2.832-.217 3.606c-.375.383-1.398-.23-1.78.146-.5.494.294 1.844-.212 2.335-.34.33-1.575.095-1.575.095s.03-2.002-.497-2.594c-.414-.463-1.978-.617-1.978-.617z"/><path fill="none" stroke="#010101" d="M116.785 29.32s1.098-1.75 1.837-2.178c1.168-.675 4.423-.795 4.423-.795s.54 2.832-.217 3.606c-.375.383-1.398-.23-1.78.146-.5.494.294 1.844-.212 2.335-.34.33-1.575.095-1.575.095s.03-2.002-.497-2.594c-.414-.463-1.978-.617-1.978-.617zM113.82 30.34s-2.21 4.413-3.68 5.89c-.774.778-2.047 1.63-3.1 1.955-2.015.622-7.267.96-7.267.96l-.328.415s5.91-1.504 7.59.03c.626.57.624 2.042.27 2.814-.3.66-1.116 1.576-1.738 1.948-.972.58-3.537 1.28-3.537 1.28M112.044 52.823s.315 3.385-.02 4.778c-.53 2.203-1.51 4.103-2.653 6.056-.46.786-1.695 2.522-1.695 2.522M76.508 81.356s-2.54 1.693-3.465 2.71c-.683.75-1.715 3.012-1.715 3.012M102.67 77.244s-4.9 1.533-6.93 2.906c-.942.635-1.79 1.985-2.28 3.008-.768 1.6-1.235 4.575-1.235 4.575M102.092 84.87s2.79-2.72 3.934-3.678c1.543-1.29 4.5-1.97 5.638-3.63.73-1.067.86-4.215.86-4.215M76.002 67.017s-.232 3.844-.865 5.338c-.314.74-1.072 2.06-1.88 2.977-1.612 1.83-3.565 3.2-3.565 3.2M82.02 86.85s.904-3.573 1.654-5.05c.49-.963 2.26-2.802 2.26-2.802"/></g><use xlink:href="#e" overflow="visible" fill="none" stroke="#D1D3D4" stroke-width="7" stroke-miterlimit="10"/><radialGradient id="R" cx="261.806" cy="575.523" r="180.594" gradientUnits="userSpaceOnUse"><stop offset=".632" stop-color="#FFF"/><stop offset=".705" stop-color="#F4F5F5"/><stop offset=".855" stop-color="#EAEBEB"/><stop offset="1" stop-color="#E6E7E8"/></radialGradient></svg>