<?xml version="1.0" encoding="utf-8"?>
<!-- Generator: Adobe Illustrator 15.0.2, SVG Export Plug-In  -->
<!DOCTYPE svg PUBLIC "-//W3C//DTD SVG 1.1//EN" "http://www.w3.org/Graphics/SVG/1.1/DTD/svg11.dtd" [
	<!ENTITY ns_flows "http://ns.adobe.com/Flows/1.0/">
]>
<svg version="1.1"
	 xmlns="http://www.w3.org/2000/svg" xmlns:xlink="http://www.w3.org/1999/xlink" xmlns:a="http://ns.adobe.com/AdobeSVGViewerExtensions/3.0/"
	 x="0px" y="0px" width="524px" height="659px" viewBox="53.386 -0.5 524 659" enable-background="new 53.386 -0.5 524 659"
	 xml:space="preserve">
<defs>
</defs>
<linearGradient id="SVGID_5_" gradientUnits="userSpaceOnUse" x1="91.1743" y1="515.3037" x2="146.0687" y2="536.3757">
	<stop  offset="0" style="stop-color:#8B5E3C"/>
	<stop  offset="0.497" style="stop-color:#FDC060"/>
</linearGradient>
<path display="none" fill="url(#SVGID_5_)" stroke="#000000" stroke-width="3" stroke-miterlimit="10" d="M162.478,493.628l-72,70
	c0,0-13.53,0.171-11-15c2.529-15.171,23-55,23-55s1-8,21-9S162.478,493.628,162.478,493.628z"/>
<linearGradient id="SVGID_6_" gradientUnits="userSpaceOnUse" x1="484.3149" y1="536.376" x2="539.2093" y2="515.304">
	<stop  offset="0.503" style="stop-color:#FDC060"/>
	<stop  offset="1" style="stop-color:#8B5E3C"/>
</linearGradient>
<path display="none" fill="url(#SVGID_6_)" stroke="#000000" stroke-width="3" stroke-miterlimit="10" d="M467.906,493.628l72,70
	c0,0,13.529,0.171,11-15s-23-55-23-55s-1-8-21-9S467.906,493.628,467.906,493.628z"/>
<linearGradient id="SVGID_7_" gradientUnits="userSpaceOnUse" x1="54.8857" y1="461.1279" x2="160.478" y2="461.1279">
	<stop  offset="0" style="stop-color:#BCBEC0"/>
	<stop  offset="0.3333" style="stop-color:#E6E7E8"/>
</linearGradient>
<path display="none" fill="url(#SVGID_7_)" stroke="#000000" stroke-width="3" stroke-miterlimit="10" d="M55.478,456.628
	c0-18,7.316-28,35-28s51,8,51,8l19,57c0,0-71.883-16.141-90.941-9.07S55.478,456.628,55.478,456.628z"/>
<linearGradient id="SVGID_8_" gradientUnits="userSpaceOnUse" x1="469.9058" y1="461.1279" x2="575.4976" y2="461.1279">
	<stop  offset="0.6316" style="stop-color:#E6E7E8"/>
	<stop  offset="0.6867" style="stop-color:#DBDCDD"/>
	<stop  offset="0.7932" style="stop-color:#CACBCD"/>
	<stop  offset="0.8984" style="stop-color:#BFC1C3"/>
	<stop  offset="1" style="stop-color:#BCBEC0"/>
</linearGradient>
<path display="none" fill="url(#SVGID_8_)" stroke="#000000" stroke-width="3" stroke-miterlimit="10" d="M574.906,456.628
	c0-18-7.316-28-35-28s-51,8-51,8l-19,57c0,0,71.883-16.141,90.941-9.07S574.906,456.628,574.906,456.628z"/>
<path display="none" fill="#FBB040" stroke="#000000" stroke-width="3" stroke-miterlimit="10" d="M55.478,456.628c0,0,8,6,23,6
	c9.731,10.067,11,32,11,58.345c-25-1.345-34-19.345-34-48.345S55.478,456.628,55.478,456.628z"/>
<path display="none" fill="#FBB040" stroke="#000000" stroke-width="3" stroke-miterlimit="10" d="M574.906,456.628c0,0-8,6-23,6
	c-9.731,10.067-11,32-11,58.345c25-1.345,34-19.345,34-48.345S574.906,456.628,574.906,456.628z"/>
<g>
	<defs>
		<path id="SVGID_2_" d="M314.749,3.5H63.728c0,0,0,138.937,0,258.714c0,161.081,140,299,251.714,341
			c118.286-39,251.714-175.92,251.714-337c0-119.778,0-262.714,0-262.714H314.749z"/>
	</defs>
	<linearGradient id="SVGID_9_" gradientUnits="userSpaceOnUse" x1="63.728" y1="303.3569" x2="567.1558" y2="303.3569">
		<stop  offset="0" style="stop-color:#2E3192"/>
		<stop  offset="1" style="stop-color:#00AEEF"/>
	</linearGradient>
	<use xlink:href="#SVGID_2_"  overflow="visible" fill="url(#SVGID_9_)"/>
	<clipPath id="SVGID_10_">
		<use xlink:href="#SVGID_2_"  overflow="visible"/>
	</clipPath>
	<g clip-path="url(#SVGID_10_)">
		<defs>
			<rect id="SVGID_4_" x="315.442" y="3.5" width="251.714" height="655.416"/>
		</defs>
		<linearGradient id="SVGID_11_" gradientUnits="userSpaceOnUse" x1="315.4419" y1="331.208" x2="567.1558" y2="331.208">
			<stop  offset="0" style="stop-color:#2E3192"/>
			<stop  offset="1" style="stop-color:#00AEEF"/>
		</linearGradient>
		<use xlink:href="#SVGID_4_"  overflow="visible" fill="url(#SVGID_11_)"/>
		<clipPath id="SVGID_12_">
			<use xlink:href="#SVGID_4_"  overflow="visible"/>
		</clipPath>
		<g clip-path="url(#SVGID_12_)">
			<g id="g3970_7_" transform="translate(-4.9591093,2.6513494)">
				<path fill="#010101" d="M523.99,72.304c14.581-6.573,16.043-21.167,23.281-29.219c-9.772,0.815-11.995,9.118-26.25,9.375
					c-19.368,0.349-37.58-8.28-47.563,4.5c-12.131-5.578-33.801-14.153-52.125-14.406c-14.251-0.197-26.487,4.624-30.625,19.844
					c-17.146-1.934-27.32,7.759-36.656,18.844c-14.992,18.006-12.408,34.517,1.469,49.031c2.296-18.099,17.601-30.781,30.344-20.063
					c-12.275,6.605-19.851,14.706-22.906,21.313c6.854-2.355,13.8-8.232,21.813-7.688c-7.932,3.959-13.369,10.427-17.344,18.344
					c21.455-6.26,43.084-7.384,61.906,3.469c-12.165,30.706-31.175,43.76-51.584,51.797l4.095,5.91c0,0,9.505,11.961,42.339-8.372
					c-10.982,19.668,4.555,14.966,18.499,1.333c-3.166,15.667,3.501,18.167,17.334,6c-5.333,17.333,3.206,23.577,18.5,4.533
					c-1.001,4.142,6.621,24.866,17-0.533c-0.079,8.998,5.667,20.833,7,0.667c1.272,3.909,3.162,11.562,5.493,18.095
					c0.561-3.946,0.729-8.154,0.605-12.555l7.938,1c-0.336-8.922-0.52-17.772-2.969-27.75c7.496,2.295,11.892-2.673,16.188-7.844
					c-9.237-5.624-10.525-7.094-12.406-14.844c5.908-0.109,11.611,0.646,15.469-1c-17.728-12.887-14.526-19.889-19.75-24.875
					c5.863-1.403,9.736-0.877,15.375-8.406c-10.976-2.074-10.337-17.876-19.344-25.281c1.934-1.676,21.144-0.127,32.25-10.625
					c12.262-11.591,6.755-18.728,21.75-28C548.579,60.322,532.881,78.486,523.99,72.304z"/>
				<path fill="#FFFFFF" d="M440.646,98.023c3.924-0.35,8.011-2.883,8.469-7.625c0.262-5.271-3.013-7.009-7.813-7.219
					c5.433,11.701-7.51,13.558-9.125,0.656c-4.771-0.114-8.829,0.045-9.719,3.813C422.815,90.952,435.211,99.507,440.646,98.023z"/>
				<g>
					<linearGradient id="SVGID_13_" gradientUnits="userSpaceOnUse" x1="350.0153" y1="93.2979" x2="430.4987" y2="93.2979">
						<stop  offset="0" style="stop-color:#F9ED32"/>
						<stop  offset="1" style="stop-color:#FBB040"/>
					</linearGradient>
					<path fill="url(#SVGID_13_)" d="M393.527,110.851c12.463-2.243,24.932-0.879,36.972,2.466
						c-2.709-13.522-9.467-26.827-21.435-30.159c-11.595-3.902-14.841-9.616-17.431-16.092
						c-26.108-2.31-52.647,33.272-36.892,52.571C359.658,98.953,385.115,94.164,393.527,110.851z"/>
					<linearGradient id="SVGID_14_" gradientUnits="userSpaceOnUse" x1="375.899" y1="129.9356" x2="435.4996" y2="129.9356">
						<stop  offset="0" style="stop-color:#F9ED32"/>
						<stop  offset="1" style="stop-color:#FBB040"/>
					</linearGradient>
					<path fill="url(#SVGID_14_)" d="M426.706,139.29c7.724,3.326,11.973-10.073,5.928-16.724
						c-21.844-7.882-46.118,4.42-56.734,14.818C395.418,130.154,411.562,130.431,426.706,139.29z"/>
				</g>
				<g>
					<linearGradient id="SVGID_15_" gradientUnits="userSpaceOnUse" x1="407.8912" y1="177.1406" x2="440.6676" y2="177.1406">
						<stop  offset="0" style="stop-color:#F9ED32"/>
						<stop  offset="1" style="stop-color:#FBB040"/>
					</linearGradient>
					<path fill="url(#SVGID_15_)" d="M440.668,166.142c-4.903,0.501-9.61,3.321-15.567,1.187
						c-4.126,7.546-9.474,14.588-17.209,20.354C421.02,189.854,433.914,184.529,440.668,166.142z"/>
					<linearGradient id="SVGID_16_" gradientUnits="userSpaceOnUse" x1="381.8473" y1="199.502" x2="510.4791" y2="199.502">
						<stop  offset="0" style="stop-color:#F9ED32"/>
						<stop  offset="1" style="stop-color:#FBB040"/>
					</linearGradient>
					<path fill="url(#SVGID_16_)" d="M381.847,203.357c0.051,0.065,9.592,11.903,42.336-8.375
						c-10.982,19.668,4.555,14.966,18.499,1.333c-3.166,15.667,3.501,18.167,17.334,6c-5.333,17.333,3.206,23.577,18.5,4.533
						c-1.001,4.142,6.621,24.866,17-0.533c-0.079,8.998,5.667,20.833,7,0.667c0.147,0.454,0.305,0.963,0.469,1.511
						c0.023-1.504,0.056-2.999,0.116-4.466l7.073,3.722c1.385-10.447-2.093-25.851-7.406-27.489
						c-1.408,9.353-10.274,8.692-15.712,5.237l-0.892,18.158l-3.164-10.981c-8.638,19.771-18.944,12.579-23.823-4.095
						c-2.744,4.453-5.713,11.604-8.003,10.608c-0.671-3.131,2.935-6.781,4.839-12.098c-10.742,6.707-18.906,7.49-20.101-3.908
						c-9.963,5.221-19.894,11.1-30.337,6.7C396.827,194.122,388.141,198.381,381.847,203.357z"/>
					<linearGradient id="SVGID_17_" gradientUnits="userSpaceOnUse" x1="478.8375" y1="61.8194" x2="537.3629" y2="61.8194">
						<stop  offset="0" style="stop-color:#F9ED32"/>
						<stop  offset="1" style="stop-color:#FBB040"/>
					</linearGradient>
					<path fill="url(#SVGID_17_)" d="M492.25,71.138c15.964-1.923,33.041,3.607,45.113-18.638
						c-23.109,12.481-52.368-6.383-58.525,6.618c4.976,3.536,11.619,1.548,17.244,4.007
						C494.412,65.854,493.019,68.409,492.25,71.138z"/>
					<linearGradient id="SVGID_18_" gradientUnits="userSpaceOnUse" x1="396.8346" y1="106.8618" x2="552.028" y2="106.8618">
						<stop  offset="0" style="stop-color:#F9ED32"/>
						<stop  offset="1" style="stop-color:#FBB040"/>
					</linearGradient>
					<path fill="url(#SVGID_18_)" d="M396.857,67.512c4.494,12.929,17.828,15.756,28.578,11.855
						c9.209-3.318,15.985-3.739,22.439-0.424c8.016,4.827,16.564,9.121,22.439,16.089c-6.017-2.366-11.412-3.49-16.3-3.599
						c-4.901,14.619-13.951,12.643-23.286,9.526c1.156,7.847,8.543,13.264,11.854,20.745h-3.387
						c2.784,21.621-6.072,29.483-11.644,41.704c12.114,2.548,21.684-5.809,29.849-22.439c2.724,10.079,5.774,18.708,14.607,24.345
						c12.136-7.461,11.73-19.046,14.183-30.272c9.438,8.58,11.613,23.763,32.178,22.228c-7.105-8.866-10.03-21.076-14.606-31.965
						c4.977,5.38,10.559,8.19,17.782,4.021c-10.089-3.106-7.146-19.246-17.359-22.228c-10.098,1.935-21.132,5.931-25.826-4.022
						c9.946,1.97,19.28,2.638,24.768-4.868c29.514-3.3,37.523-6.933,48.901-29.214c-33.807,19.567-60.995-0.77-68.8,15.454
						c-0.602,1.251-2.402-1.013-3.176,0.211l3.811-6.774l-9.314-0.635c5.55-2.393,15.823-3.331,13.548-10.796
						c-21.795-2.841-40.186-16.302-63.508-17.994C411.422,47.917,396.162,51.45,396.857,67.512z"/>
					<linearGradient id="SVGID_19_" gradientUnits="userSpaceOnUse" x1="479.2701" y1="167.4902" x2="502.1246" y2="167.4902">
						<stop  offset="0" style="stop-color:#F9ED32"/>
						<stop  offset="1" style="stop-color:#FBB040"/>
					</linearGradient>
					<path fill="url(#SVGID_19_)" d="M490.962,163.467l-0.156,0.313c-1.38-0.574-0.862-13.028-5.021-12.969
						c-1.734,4.274-3.282,7.903-6.38,11.087c-1.424,13.888,8.773,20.643,16.106,23.113c8.235-4.729,6.576-17.105,6.275-27.088
						c-2.44-3.005-7.81-8.186-11.714-7.948C492.875,161.207,492.607,164.188,490.962,163.467z"/>
					<linearGradient id="SVGID_20_" gradientUnits="userSpaceOnUse" x1="377.1696" y1="116.6699" x2="427.7643" y2="116.6699">
						<stop  offset="0" style="stop-color:#F9ED32"/>
						<stop  offset="1" style="stop-color:#FBB040"/>
					</linearGradient>
					<path fill="url(#SVGID_20_)" d="M427.764,117.697c-2.312-8.783-45.391-7.848-50.595,3.811
						C392.848,115.18,410.471,116.682,427.764,117.697z"/>
					<linearGradient id="SVGID_21_" gradientUnits="userSpaceOnUse" x1="504.6461" y1="170.0025" x2="521.1969" y2="170.0025">
						<stop  offset="0" style="stop-color:#F9ED32"/>
						<stop  offset="1" style="stop-color:#FBB040"/>
					</linearGradient>
					<path fill="url(#SVGID_21_)" d="M519.944,176.479c-9.896-4.407-1.936-17.402-14.706-17.195
						c-2.158,21.594,1.266,22.217,15.688,21.127C521.685,179.376,520.685,176.809,519.944,176.479z"/>
					<linearGradient id="SVGID_22_" gradientUnits="userSpaceOnUse" x1="440.6725" y1="171.7017" x2="463.1217" y2="171.7017">
						<stop  offset="0" style="stop-color:#F9ED32"/>
						<stop  offset="1" style="stop-color:#FBB040"/>
					</linearGradient>
					<path fill="url(#SVGID_22_)" d="M442.357,189.454c15.219-1.544,29.206-22.79,14.602-35.178
						c-1.364,4.683-1.77,8.555-3.097,9.734c-0.411-2.034,0.406-4.353,0.511-10.061C443.394,157.593,437.579,177.425,442.357,189.454
						z"/>
					<linearGradient id="SVGID_23_" gradientUnits="userSpaceOnUse" x1="463.0094" y1="184.6983" x2="480.5446" y2="184.6983">
						<stop  offset="0" style="stop-color:#F9ED32"/>
						<stop  offset="1" style="stop-color:#FBB040"/>
					</linearGradient>
					<path fill="url(#SVGID_23_)" d="M473.025,183.548l-1.778-0.419c-0.549-5.518,0.786-14.53-3.032-15.27
						c-6.411,1.943-8.599,28.163,3.451,33.781c10.459-6.132,11.352-25.766,4.393-33.886
						C472.089,168.47,473.775,177.882,473.025,183.548z"/>
				</g>
			</g>
		</g>
		<g clip-path="url(#SVGID_12_)">
			<g id="g3970_6_" transform="translate(-4.9591093,2.6513494)">
				<path fill="#010101" d="M390.63,402.305c14.581-6.574,16.043-21.168,23.281-29.219c-9.772,0.815-11.995,9.118-26.25,9.375
					c-19.368,0.348-37.58-8.281-47.563,4.5c-12.131-5.578-33.801-14.154-52.125-14.407c-14.251-0.197-26.487,4.624-30.625,19.844
					c-17.146-1.934-27.32,7.758-36.656,18.844c-14.992,18.006-12.408,34.516,1.469,49.031c2.296-18.1,17.601-30.781,30.344-20.063
					c-12.275,6.605-19.851,14.705-22.906,21.313c6.854-2.355,13.8-8.232,21.813-7.688c-7.932,3.959-13.369,10.426-17.344,18.344
					c21.455-6.26,43.084-7.385,61.906,3.469c-12.165,30.705-31.175,43.76-51.584,51.797l4.095,5.909c0,0,9.505,11.962,42.339-8.372
					c-10.982,19.668,4.555,14.967,18.499,1.334c-3.166,15.666,3.501,18.166,17.334,6c-5.333,17.333,3.206,23.576,18.5,4.533
					c-1.001,4.143,6.621,24.866,17-0.533c-0.079,8.998,5.667,20.833,7,0.666c1.272,3.909,3.162,11.563,5.493,18.096
					c0.561-3.947,0.729-8.154,0.605-12.555l7.938,1c-0.336-8.922-0.52-17.773-2.969-27.75c7.496,2.295,11.892-2.674,16.188-7.844
					c-9.237-5.625-10.525-7.094-12.406-14.844c5.908-0.109,11.611,0.646,15.469-1c-17.728-12.887-14.526-19.889-19.75-24.875
					c5.863-1.404,9.736-0.877,15.375-8.406c-10.976-2.074-10.337-17.877-19.344-25.281c1.934-1.676,21.144-0.127,32.25-10.625
					c12.262-11.592,6.755-18.729,21.75-28C415.218,390.322,399.521,408.486,390.63,402.305z"/>
				<path fill="#FFFFFF" d="M307.286,428.023c3.924-0.35,8.011-2.883,8.469-7.625c0.262-5.271-3.013-7.01-7.813-7.219
					c5.433,11.701-7.51,13.557-9.125,0.656c-4.771-0.115-8.829,0.045-9.719,3.813C289.455,420.951,301.85,429.508,307.286,428.023z"
					/>
				<g>
					<linearGradient id="SVGID_24_" gradientUnits="userSpaceOnUse" x1="216.6549" y1="423.2979" x2="297.1383" y2="423.2979">
						<stop  offset="0" style="stop-color:#F9ED32"/>
						<stop  offset="1" style="stop-color:#FBB040"/>
					</linearGradient>
					<path fill="url(#SVGID_24_)" d="M260.167,440.852c12.463-2.244,24.932-0.879,36.972,2.465
						c-2.709-13.521-9.467-26.826-21.435-30.158c-11.595-3.902-14.841-9.617-17.431-16.092
						c-26.108-2.311-52.647,33.271-36.892,52.57C226.297,428.953,251.755,424.164,260.167,440.852z"/>
					<linearGradient id="SVGID_25_" gradientUnits="userSpaceOnUse" x1="242.5387" y1="459.9356" x2="302.1398" y2="459.9356">
						<stop  offset="0" style="stop-color:#F9ED32"/>
						<stop  offset="1" style="stop-color:#FBB040"/>
					</linearGradient>
					<path fill="url(#SVGID_25_)" d="M293.345,469.289c7.724,3.326,11.973-10.072,5.928-16.723
						c-21.844-7.883-46.118,4.42-56.734,14.818C262.057,460.154,278.202,460.432,293.345,469.289z"/>
				</g>
				<g>
					<linearGradient id="SVGID_26_" gradientUnits="userSpaceOnUse" x1="274.5309" y1="507.1407" x2="307.3073" y2="507.1407">
						<stop  offset="0" style="stop-color:#F9ED32"/>
						<stop  offset="1" style="stop-color:#FBB040"/>
					</linearGradient>
					<path fill="url(#SVGID_26_)" d="M307.307,496.143c-4.903,0.5-9.61,3.32-15.567,1.186c-4.126,7.547-9.474,14.588-17.209,20.355
						C287.66,519.854,300.553,514.529,307.307,496.143z"/>
					<linearGradient id="SVGID_27_" gradientUnits="userSpaceOnUse" x1="248.4869" y1="529.502" x2="377.1188" y2="529.502">
						<stop  offset="0" style="stop-color:#F9ED32"/>
						<stop  offset="1" style="stop-color:#FBB040"/>
					</linearGradient>
					<path fill="url(#SVGID_27_)" d="M248.487,533.357c0.051,0.064,9.592,11.902,42.336-8.375
						c-10.982,19.668,4.555,14.967,18.499,1.334c-3.166,15.666,3.501,18.166,17.334,6c-5.333,17.333,3.206,23.576,18.5,4.533
						c-1.001,4.143,6.621,24.866,17-0.533c-0.079,8.998,5.667,20.833,7,0.666c0.147,0.455,0.305,0.963,0.469,1.512
						c0.023-1.504,0.056-3,0.116-4.467l7.073,3.723c1.385-10.447-2.093-25.852-7.406-27.49c-1.408,9.353-10.274,8.693-15.712,5.238
						l-0.892,18.158l-3.164-10.982c-8.638,19.771-18.944,12.58-23.823-4.094c-2.744,4.453-5.713,11.604-8.003,10.607
						c-0.671-3.131,2.935-6.781,4.839-12.098c-10.742,6.707-18.906,7.49-20.101-3.908c-9.963,5.221-19.894,11.1-30.337,6.701
						C263.466,524.122,254.781,528.381,248.487,533.357z"/>
					<linearGradient id="SVGID_28_" gradientUnits="userSpaceOnUse" x1="345.4772" y1="391.8194" x2="404.0026" y2="391.8194">
						<stop  offset="0" style="stop-color:#F9ED32"/>
						<stop  offset="1" style="stop-color:#FBB040"/>
					</linearGradient>
					<path fill="url(#SVGID_28_)" d="M358.889,401.139c15.964-1.924,33.041,3.607,45.113-18.639
						c-23.109,12.482-52.368-6.383-58.525,6.619c4.976,3.535,11.619,1.547,17.244,4.006
						C361.051,395.854,359.659,398.408,358.889,401.139z"/>
					<linearGradient id="SVGID_29_" gradientUnits="userSpaceOnUse" x1="263.4738" y1="436.8614" x2="418.6676" y2="436.8614">
						<stop  offset="0" style="stop-color:#F9ED32"/>
						<stop  offset="1" style="stop-color:#FBB040"/>
					</linearGradient>
					<path fill="url(#SVGID_29_)" d="M263.497,397.512c4.494,12.93,17.828,15.756,28.578,11.855
						c9.209-3.318,15.985-3.738,22.439-0.424c8.016,4.828,16.564,9.121,22.439,16.09c-6.017-2.367-11.412-3.49-16.3-3.6
						c-4.901,14.619-13.951,12.643-23.286,9.527c1.156,7.846,8.543,13.264,11.854,20.744h-3.387
						c2.784,21.621-6.072,29.484-11.644,41.705c12.114,2.547,21.684-5.809,29.849-22.439c2.724,10.078,5.774,18.707,14.607,24.344
						c12.136-7.461,11.73-19.045,14.183-30.271c9.438,8.58,11.613,23.762,32.178,22.227c-7.105-8.865-10.03-21.076-14.606-31.965
						c4.977,5.381,10.559,8.191,17.782,4.021c-10.089-3.105-7.146-19.246-17.359-22.227c-10.098,1.934-21.132,5.93-25.826-4.023
						c9.946,1.971,19.28,2.639,24.768-4.867c29.514-3.301,37.523-6.934,48.901-29.215c-33.807,19.568-60.995-0.77-68.8,15.455
						c-0.602,1.25-2.402-1.014-3.176,0.211l3.811-6.775l-9.314-0.635c5.55-2.393,15.823-3.33,13.548-10.795
						c-21.795-2.842-40.186-16.303-63.508-17.994C278.061,377.918,262.801,381.449,263.497,397.512z"/>
					<linearGradient id="SVGID_30_" gradientUnits="userSpaceOnUse" x1="345.9098" y1="497.4903" x2="368.7643" y2="497.4903">
						<stop  offset="0" style="stop-color:#F9ED32"/>
						<stop  offset="1" style="stop-color:#FBB040"/>
					</linearGradient>
					<path fill="url(#SVGID_30_)" d="M357.601,493.467l-0.156,0.314c-1.38-0.574-0.862-13.029-5.021-12.969
						c-1.734,4.273-3.282,7.902-6.38,11.086c-1.424,13.889,8.773,20.643,16.106,23.113c8.235-4.728,6.576-17.105,6.275-27.088
						c-2.44-3.004-7.81-8.186-11.714-7.947C359.514,491.207,359.247,494.188,357.601,493.467z"/>
					<linearGradient id="SVGID_31_" gradientUnits="userSpaceOnUse" x1="243.8092" y1="446.6709" x2="294.4039" y2="446.6709">
						<stop  offset="0" style="stop-color:#F9ED32"/>
						<stop  offset="1" style="stop-color:#FBB040"/>
					</linearGradient>
					<path fill="url(#SVGID_31_)" d="M294.404,447.697c-2.312-8.783-45.391-7.848-50.595,3.811
						C259.488,445.18,277.111,446.682,294.404,447.697z"/>
					<linearGradient id="SVGID_32_" gradientUnits="userSpaceOnUse" x1="371.2858" y1="500.002" x2="387.8365" y2="500.002">
						<stop  offset="0" style="stop-color:#F9ED32"/>
						<stop  offset="1" style="stop-color:#FBB040"/>
					</linearGradient>
					<path fill="url(#SVGID_32_)" d="M386.584,506.479c-9.896-4.406-1.936-17.402-14.706-17.195
						c-2.158,21.594,1.266,22.217,15.688,21.127C388.325,509.377,387.325,506.809,386.584,506.479z"/>
					<linearGradient id="SVGID_33_" gradientUnits="userSpaceOnUse" x1="307.3116" y1="501.7012" x2="329.7614" y2="501.7012">
						<stop  offset="0" style="stop-color:#F9ED32"/>
						<stop  offset="1" style="stop-color:#FBB040"/>
					</linearGradient>
					<path fill="url(#SVGID_33_)" d="M308.997,519.453c15.219-1.543,29.206-22.789,14.602-35.178
						c-1.364,4.684-1.77,8.555-3.097,9.734c-0.411-2.033,0.406-4.352,0.511-10.061C310.034,487.594,304.218,507.426,308.997,519.453
						z"/>
					<linearGradient id="SVGID_34_" gradientUnits="userSpaceOnUse" x1="329.649" y1="514.6982" x2="347.1842" y2="514.6982">
						<stop  offset="0" style="stop-color:#F9ED32"/>
						<stop  offset="1" style="stop-color:#FBB040"/>
					</linearGradient>
					<path fill="url(#SVGID_34_)" d="M339.665,513.549l-1.778-0.42c-0.549-5.518,0.786-14.529-3.032-15.27
						c-6.411,1.943-8.599,28.164,3.451,33.781c10.459-6.131,11.352-25.766,4.393-33.885
						C338.729,498.471,340.415,507.883,339.665,513.549z"/>
				</g>
			</g>
		</g>
		<linearGradient id="SVGID_35_" gradientUnits="userSpaceOnUse" x1="3.0166" y1="336.4619" x2="627.8667" y2="336.4619">
			<stop  offset="0" style="stop-color:#F9ED32"/>
			<stop  offset="1" style="stop-color:#FBB040"/>
		</linearGradient>
		<polygon clip-path="url(#SVGID_12_)" fill="url(#SVGID_35_)" stroke="#000000" stroke-width="4" stroke-miterlimit="10" points="
			627.867,429.96 315.443,177.928 3.017,429.96 70.214,494.996 315.443,297.172 560.671,494.996 		"/>
		<g clip-path="url(#SVGID_12_)">
			<g>
				<linearGradient id="SVGID_36_" gradientUnits="userSpaceOnUse" x1="359.2593" y1="278.9858" x2="375.5093" y2="278.9858">
					<stop  offset="0" style="stop-color:#00AEEF"/>
					<stop  offset="1" style="stop-color:#2E3192"/>
				</linearGradient>
				<path fill="url(#SVGID_36_)" stroke="#000000" stroke-width="2" stroke-miterlimit="10" d="M359.259,250.469
					c0-8.542,3.209-21.631,8.115-21.67v-0.001c0.004,0,0.006,0.001,0.01,0.001s0.008-0.001,0.012-0.001v0.001
					c4.904,0.039,8.113,13.128,8.113,21.67c0,8.555-6.008,25.854-6.008,42.203c0,16.35,3.863,17.87,3.863,27.376
					c0,9.492-3.389,9.126-5.98,9.125c-2.59,0.001-5.979,0.367-5.979-9.125c0-9.506,3.861-11.026,3.861-27.376
					C365.267,276.323,359.259,259.023,359.259,250.469z"/>
				<linearGradient id="SVGID_37_" gradientUnits="userSpaceOnUse" x1="371.7065" y1="286.5889" x2="407.4468" y2="286.5889">
					<stop  offset="0" style="stop-color:#00AEEF"/>
					<stop  offset="1" style="stop-color:#2E3192"/>
				</linearGradient>
				<path fill="url(#SVGID_37_)" stroke="#000000" stroke-width="2" stroke-miterlimit="10" d="M376.46,296.665
					c0-7.224,2.852-17.679,11.596-17.679c8.746,0,11.027,12.166,11.027,12.166s8.363-4.943,8.363-17.49
					c0-12.547-11.074-14.448-15.258-14.448c-4.182,0-20.482,11.321-20.482,30.417s5.324,24.333,11.027,24.333
					s6.844-4.563,6.844-4.563s-5.703,2.281-7.984,0S376.46,303.888,376.46,296.665z"/>
				<linearGradient id="SVGID_38_" gradientUnits="userSpaceOnUse" x1="327.603" y1="286.5889" x2="363.3433" y2="286.5889">
					<stop  offset="0" style="stop-color:#00AEEF"/>
					<stop  offset="1" style="stop-color:#2E3192"/>
				</linearGradient>
				<path fill="url(#SVGID_38_)" stroke="#000000" stroke-width="2" stroke-miterlimit="10" d="M358.591,296.665
					c0-7.224-2.854-17.679-11.598-17.679s-11.025,12.166-11.025,12.166s-8.365-4.943-8.365-17.49
					c0-12.547,11.076-14.448,15.258-14.448s20.482,11.321,20.482,30.417s-5.322,24.333-11.025,24.333s-6.846-4.563-6.846-4.563
					s5.705,2.281,7.986,0S358.591,303.888,358.591,296.665z"/>
				<linearGradient id="SVGID_39_" gradientUnits="userSpaceOnUse" x1="354.9819" y1="293.1426" x2="380.4526" y2="293.1426">
					<stop  offset="0" style="stop-color:#00AEEF"/>
					<stop  offset="1" style="stop-color:#2E3192"/>
				</linearGradient>
				<path fill="url(#SVGID_39_)" stroke="#000000" stroke-width="2" stroke-miterlimit="10" d="M365.81,288.018
					c0.443-0.062,0.957-0.098,1.574-0.098c0.113,0,0.221,0.007,0.332,0.008c0.113-0.001,0.219-0.008,0.332-0.008
					c0.619,0,1.133,0.036,1.574,0.098c6.852,0.554,10.83,3.577,10.83,5.986c0,2.661-1.902,4.362-1.902,4.362s0.645-1.595-1.639-3.14
					c-1.988-1.347-7.752-1.437-9.195-1.438c-1.443,0.001-7.205,0.091-9.195,1.438c-2.281,1.545-1.639,3.14-1.639,3.14
					s-1.9-1.701-1.9-4.362C354.982,291.594,358.958,288.571,365.81,288.018z"/>
			</g>
			<g>
				<linearGradient id="SVGID_40_" gradientUnits="userSpaceOnUse" x1="445.2593" y1="348.5547" x2="461.5093" y2="348.5547">
					<stop  offset="0" style="stop-color:#00AEEF"/>
					<stop  offset="1" style="stop-color:#2E3192"/>
				</linearGradient>
				<path fill="url(#SVGID_40_)" stroke="#000000" stroke-width="2" stroke-miterlimit="10" d="M445.259,320.038
					c0-8.542,3.209-21.631,8.115-21.67v-0.001c0.004,0,0.006,0.001,0.01,0.001s0.008-0.001,0.012-0.001v0.001
					c4.904,0.039,8.113,13.128,8.113,21.67c0,8.555-6.008,25.854-6.008,42.203c0,16.35,3.863,17.87,3.863,27.375
					c0,9.492-3.389,9.127-5.98,9.125c-2.59,0.002-5.979,0.367-5.979-9.125c0-9.506,3.861-11.025,3.861-27.375
					C451.267,345.892,445.259,328.592,445.259,320.038z"/>
				<linearGradient id="SVGID_41_" gradientUnits="userSpaceOnUse" x1="457.7065" y1="356.1582" x2="493.4468" y2="356.1582">
					<stop  offset="0" style="stop-color:#00AEEF"/>
					<stop  offset="1" style="stop-color:#2E3192"/>
				</linearGradient>
				<path fill="url(#SVGID_41_)" stroke="#000000" stroke-width="2" stroke-miterlimit="10" d="M462.46,366.233
					c0-7.224,2.852-17.679,11.596-17.679c8.746,0,11.027,12.166,11.027,12.166s8.363-4.943,8.363-17.49
					c0-12.547-11.074-14.448-15.258-14.448c-4.182,0-20.482,11.321-20.482,30.417s5.324,24.333,11.027,24.333
					s6.844-4.563,6.844-4.563s-5.703,2.281-7.984,0S462.46,373.457,462.46,366.233z"/>
				<linearGradient id="SVGID_42_" gradientUnits="userSpaceOnUse" x1="413.603" y1="356.1582" x2="449.3433" y2="356.1582">
					<stop  offset="0" style="stop-color:#00AEEF"/>
					<stop  offset="1" style="stop-color:#2E3192"/>
				</linearGradient>
				<path fill="url(#SVGID_42_)" stroke="#000000" stroke-width="2" stroke-miterlimit="10" d="M444.591,366.233
					c0-7.224-2.854-17.679-11.598-17.679s-11.025,12.166-11.025,12.166s-8.365-4.943-8.365-17.49
					c0-12.547,11.076-14.448,15.258-14.448s20.482,11.321,20.482,30.417s-5.322,24.333-11.025,24.333s-6.846-4.563-6.846-4.563
					s5.705,2.281,7.986,0S444.591,373.457,444.591,366.233z"/>
				<linearGradient id="SVGID_43_" gradientUnits="userSpaceOnUse" x1="440.9819" y1="362.7119" x2="466.4526" y2="362.7119">
					<stop  offset="0" style="stop-color:#00AEEF"/>
					<stop  offset="1" style="stop-color:#2E3192"/>
				</linearGradient>
				<path fill="url(#SVGID_43_)" stroke="#000000" stroke-width="2" stroke-miterlimit="10" d="M451.81,357.586
					c0.443-0.062,0.957-0.098,1.574-0.098c0.113,0,0.221,0.007,0.332,0.008c0.113-0.001,0.219-0.008,0.332-0.008
					c0.619,0,1.133,0.036,1.574,0.098c6.852,0.554,10.83,3.577,10.83,5.986c0,2.661-1.902,4.362-1.902,4.362s0.645-1.595-1.639-3.14
					c-1.988-1.347-7.752-1.437-9.195-1.438c-1.443,0.001-7.205,0.091-9.195,1.438c-2.281,1.545-1.639,3.14-1.639,3.14
					s-1.9-1.701-1.9-4.362C440.982,361.163,444.958,358.14,451.81,357.586z"/>
			</g>
		</g>
	</g>
	<g clip-path="url(#SVGID_10_)">
		<defs>
			<rect id="SVGID_3_" x="63.728" y="3.5" width="251.714" height="655.416"/>
		</defs>
		<linearGradient id="SVGID_44_" gradientUnits="userSpaceOnUse" x1="63.728" y1="331.207" x2="315.4419" y2="331.207">
			<stop  offset="0" style="stop-color:#F9ED32"/>
			<stop  offset="1" style="stop-color:#FBB040"/>
		</linearGradient>
		<use xlink:href="#SVGID_3_"  overflow="visible" fill="url(#SVGID_44_)"/>
		<clipPath id="SVGID_45_">
			<use xlink:href="#SVGID_3_"  overflow="visible"/>
		</clipPath>
		<g clip-path="url(#SVGID_45_)">
			<g id="g3970_5_" transform="translate(-4.9591093,2.6513494)">
				<path fill="#010101" d="M263.656,72.304c14.581-6.573,16.043-21.167,23.281-29.219c-9.772,0.815-11.995,9.118-26.25,9.375
					c-19.368,0.349-37.58-8.28-47.563,4.5C200.994,51.382,179.324,42.807,161,42.554c-14.251-0.197-26.487,4.624-30.625,19.844
					c-17.146-1.934-27.32,7.759-36.656,18.844c-14.992,18.006-12.408,34.517,1.469,49.031c2.296-18.099,17.601-30.781,30.344-20.063
					c-12.275,6.605-19.851,14.706-22.906,21.313c6.854-2.355,13.8-8.232,21.813-7.688c-7.932,3.959-13.369,10.427-17.344,18.344
					c21.455-6.26,43.084-7.384,61.906,3.469c-12.165,30.706-31.175,43.76-51.584,51.797l4.095,5.91c0,0,9.505,11.961,42.339-8.372
					c-10.982,19.668,4.555,14.966,18.499,1.333c-3.166,15.667,3.501,18.167,17.334,6c-5.333,17.333,3.206,23.577,18.5,4.533
					c-1.001,4.142,6.621,24.866,17-0.533c-0.079,8.998,5.667,20.833,7,0.667c1.272,3.909,3.162,11.562,5.493,18.095
					c0.561-3.946,0.729-8.154,0.605-12.555l7.938,1c-0.336-8.922-0.52-17.772-2.969-27.75c7.496,2.295,11.892-2.673,16.188-7.844
					c-9.237-5.624-10.525-7.094-12.406-14.844c5.908-0.109,11.611,0.646,15.469-1c-17.728-12.887-14.526-19.889-19.75-24.875
					c5.863-1.403,9.736-0.877,15.375-8.406c-10.976-2.074-10.337-17.876-19.344-25.281c1.934-1.676,21.144-0.127,32.25-10.625
					c12.262-11.591,6.755-18.728,21.75-28C288.245,60.322,272.548,78.486,263.656,72.304z"/>
				<path fill="#FFFFFF" d="M180.313,98.023c3.924-0.35,8.011-2.883,8.469-7.625c0.262-5.271-3.013-7.009-7.813-7.219
					c5.433,11.701-7.51,13.558-9.125,0.656c-4.771-0.114-8.829,0.045-9.719,3.813C162.482,90.952,174.877,99.507,180.313,98.023z"/>
				<g>
					<linearGradient id="SVGID_46_" gradientUnits="userSpaceOnUse" x1="89.6818" y1="93.2979" x2="170.1652" y2="93.2979">
						<stop  offset="0" style="stop-color:#2E3192"/>
						<stop  offset="1" style="stop-color:#00AEEF"/>
					</linearGradient>
					<path fill="url(#SVGID_46_)" d="M133.193,110.851c12.463-2.243,24.932-0.879,36.972,2.466
						c-2.709-13.522-9.467-26.827-21.435-30.159c-11.595-3.902-14.841-9.616-17.431-16.092
						c-26.108-2.31-52.647,33.272-36.892,52.571C99.324,98.953,124.781,94.164,133.193,110.851z"/>
					<linearGradient id="SVGID_47_" gradientUnits="userSpaceOnUse" x1="115.5656" y1="129.9356" x2="175.1666" y2="129.9356">
						<stop  offset="0" style="stop-color:#2E3192"/>
						<stop  offset="1" style="stop-color:#00AEEF"/>
					</linearGradient>
					<path fill="url(#SVGID_47_)" d="M166.372,139.29c7.724,3.326,11.973-10.073,5.928-16.724
						c-21.844-7.882-46.118,4.42-56.734,14.818C135.084,130.154,151.229,130.431,166.372,139.29z"/>
				</g>
				<g>
					<linearGradient id="SVGID_48_" gradientUnits="userSpaceOnUse" x1="147.5577" y1="177.1406" x2="180.3341" y2="177.1406">
						<stop  offset="0" style="stop-color:#2E3192"/>
						<stop  offset="1" style="stop-color:#00AEEF"/>
					</linearGradient>
					<path fill="url(#SVGID_48_)" d="M180.334,166.142c-4.903,0.501-9.61,3.321-15.567,1.187
						c-4.126,7.546-9.474,14.588-17.209,20.354C160.687,189.854,173.58,184.529,180.334,166.142z"/>
					<linearGradient id="SVGID_49_" gradientUnits="userSpaceOnUse" x1="121.5138" y1="199.502" x2="250.1461" y2="199.502">
						<stop  offset="0" style="stop-color:#2E3192"/>
						<stop  offset="1" style="stop-color:#00AEEF"/>
					</linearGradient>
					<path fill="url(#SVGID_49_)" d="M121.514,203.357c0.051,0.065,9.592,11.903,42.336-8.375
						c-10.982,19.668,4.555,14.966,18.499,1.333c-3.166,15.667,3.501,18.167,17.334,6c-5.333,17.333,3.206,23.577,18.5,4.533
						c-1.001,4.142,6.621,24.866,17-0.533c-0.079,8.998,5.667,20.833,7,0.667c0.147,0.454,0.305,0.963,0.469,1.511
						c0.023-1.504,0.056-2.999,0.116-4.466l7.073,3.722c1.385-10.447-2.093-25.851-7.406-27.489
						c-1.408,9.353-10.274,8.692-15.712,5.237l-0.892,18.158l-3.164-10.981c-8.638,19.771-18.944,12.579-23.823-4.095
						c-2.744,4.453-5.713,11.604-8.003,10.608c-0.671-3.131,2.935-6.781,4.839-12.098c-10.742,6.707-18.906,7.49-20.101-3.908
						c-9.963,5.221-19.894,11.1-30.337,6.7C136.493,194.122,127.808,198.381,121.514,203.357z"/>
					<linearGradient id="SVGID_50_" gradientUnits="userSpaceOnUse" x1="218.504" y1="61.8194" x2="277.0294" y2="61.8194">
						<stop  offset="0" style="stop-color:#2E3192"/>
						<stop  offset="1" style="stop-color:#00AEEF"/>
					</linearGradient>
					<path fill="url(#SVGID_50_)" d="M231.916,71.138c15.964-1.923,33.041,3.607,45.113-18.638
						c-23.109,12.481-52.368-6.383-58.525,6.618c4.976,3.536,11.619,1.548,17.244,4.007
						C234.078,65.854,232.686,68.409,231.916,71.138z"/>
					<linearGradient id="SVGID_51_" gradientUnits="userSpaceOnUse" x1="136.5006" y1="106.8618" x2="291.6945" y2="106.8618">
						<stop  offset="0" style="stop-color:#2E3192"/>
						<stop  offset="1" style="stop-color:#00AEEF"/>
					</linearGradient>
					<path fill="url(#SVGID_51_)" d="M136.524,67.512c4.494,12.929,17.828,15.756,28.578,11.855
						c9.209-3.318,15.985-3.739,22.439-0.424c8.016,4.827,16.564,9.121,22.439,16.089c-6.017-2.366-11.412-3.49-16.3-3.599
						c-4.901,14.619-13.951,12.643-23.286,9.526c1.156,7.847,8.543,13.264,11.854,20.745h-3.387
						c2.784,21.621-6.072,29.483-11.644,41.704c12.114,2.548,21.684-5.809,29.849-22.439c2.724,10.079,5.774,18.708,14.607,24.345
						c12.136-7.461,11.73-19.046,14.183-30.272c9.438,8.58,11.613,23.763,32.178,22.228c-7.105-8.866-10.03-21.076-14.606-31.965
						c4.977,5.38,10.559,8.19,17.782,4.021c-10.089-3.106-7.146-19.246-17.359-22.228c-10.098,1.935-21.132,5.931-25.826-4.022
						c9.946,1.97,19.28,2.638,24.768-4.868c29.514-3.3,37.523-6.933,48.901-29.214c-33.807,19.567-60.995-0.77-68.8,15.454
						c-0.602,1.251-2.402-1.013-3.176,0.211l3.811-6.774l-9.314-0.635c5.55-2.393,15.823-3.331,13.548-10.796
						c-21.795-2.841-40.186-16.302-63.508-17.994C151.088,47.917,135.828,51.45,136.524,67.512z"/>
					<linearGradient id="SVGID_52_" gradientUnits="userSpaceOnUse" x1="218.9371" y1="167.4902" x2="241.7906" y2="167.4902">
						<stop  offset="0" style="stop-color:#2E3192"/>
						<stop  offset="1" style="stop-color:#00AEEF"/>
					</linearGradient>
					<path fill="url(#SVGID_52_)" d="M230.628,163.467l-0.156,0.313c-1.38-0.574-0.862-13.028-5.021-12.969
						c-1.734,4.274-3.282,7.903-6.38,11.087c-1.424,13.888,8.773,20.643,16.106,23.113c8.235-4.729,6.576-17.105,6.275-27.088
						c-2.44-3.005-7.81-8.186-11.714-7.948C232.541,161.207,232.274,164.188,230.628,163.467z"/>
					<linearGradient id="SVGID_53_" gradientUnits="userSpaceOnUse" x1="116.8361" y1="116.6699" x2="167.4308" y2="116.6699">
						<stop  offset="0" style="stop-color:#2E3192"/>
						<stop  offset="1" style="stop-color:#00AEEF"/>
					</linearGradient>
					<path fill="url(#SVGID_53_)" d="M167.431,117.697c-2.312-8.783-45.391-7.848-50.595,3.811
						C132.515,115.18,150.138,116.682,167.431,117.697z"/>
					<linearGradient id="SVGID_54_" gradientUnits="userSpaceOnUse" x1="244.3131" y1="170.0025" x2="260.8634" y2="170.0025">
						<stop  offset="0" style="stop-color:#2E3192"/>
						<stop  offset="1" style="stop-color:#00AEEF"/>
					</linearGradient>
					<path fill="url(#SVGID_54_)" d="M259.61,176.479c-9.896-4.407-1.936-17.402-14.706-17.195
						c-2.158,21.594,1.266,22.217,15.688,21.127C261.352,179.376,260.352,176.809,259.61,176.479z"/>
					<linearGradient id="SVGID_55_" gradientUnits="userSpaceOnUse" x1="180.3385" y1="171.7017" x2="202.7882" y2="171.7017">
						<stop  offset="0" style="stop-color:#2E3192"/>
						<stop  offset="1" style="stop-color:#00AEEF"/>
					</linearGradient>
					<path fill="url(#SVGID_55_)" d="M182.024,189.454c15.219-1.544,29.206-22.79,14.602-35.178
						c-1.364,4.683-1.77,8.555-3.097,9.734c-0.411-2.034,0.406-4.353,0.511-10.061C183.061,157.593,177.245,177.425,182.024,189.454
						z"/>
					<linearGradient id="SVGID_56_" gradientUnits="userSpaceOnUse" x1="202.6754" y1="184.6983" x2="220.2111" y2="184.6983">
						<stop  offset="0" style="stop-color:#2E3192"/>
						<stop  offset="1" style="stop-color:#00AEEF"/>
					</linearGradient>
					<path fill="url(#SVGID_56_)" d="M212.692,183.548l-1.778-0.419c-0.549-5.518,0.786-14.53-3.032-15.27
						c-6.411,1.943-8.599,28.163,3.451,33.781c10.459-6.132,11.352-25.766,4.393-33.886
						C211.756,168.47,213.442,177.882,212.692,183.548z"/>
				</g>
			</g>
		</g>
		<g clip-path="url(#SVGID_45_)">
			<g id="g3970_4_" transform="translate(-4.9591093,2.6513494)">
				<path fill="#010101" d="M390.63,402.304c14.58-6.572,16.043-21.166,23.281-29.218c-9.773,0.815-11.996,9.119-26.25,9.375
					c-19.369,0.35-37.58-8.28-47.563,4.5c-12.131-5.578-33.801-14.153-52.125-14.406c-14.251-0.197-26.487,4.625-30.625,19.843
					c-17.146-1.934-27.32,7.76-36.656,18.844c-14.992,18.006-12.408,34.518,1.469,49.031c2.296-18.098,17.601-30.781,30.344-20.063
					c-12.275,6.605-19.851,14.707-22.906,21.313c6.854-2.355,13.8-8.232,21.813-7.688c-7.932,3.959-13.369,10.428-17.344,18.344
					c21.455-6.26,43.084-7.383,61.906,3.469c-12.165,30.707-31.175,43.761-51.584,51.797l4.095,5.91c0,0,9.505,11.961,42.339-8.371
					c-10.982,19.668,4.555,14.965,18.499,1.332c-3.166,15.668,3.502,18.168,17.334,6.001c-5.332,17.333,3.207,23.577,18.5,4.533
					c-1,4.142,6.621,24.866,17-0.533c-0.078,8.997,5.668,20.833,7,0.667c1.273,3.908,3.162,11.561,5.494,18.094
					c0.561-3.945,0.729-8.153,0.605-12.555l7.938,1c-0.336-8.922-0.52-17.771-2.969-27.75c7.496,2.295,11.891-2.672,16.188-7.844
					c-9.238-5.623-10.525-7.094-12.406-14.844c5.908-0.109,11.611,0.646,15.469-1c-17.729-12.887-14.527-19.889-19.75-24.875
					c5.863-1.402,9.736-0.877,15.375-8.406c-10.977-2.074-10.338-17.875-19.344-25.281c1.934-1.676,21.143-0.127,32.25-10.625
					c12.262-11.59,6.754-18.727,21.75-28C415.217,390.321,399.52,408.485,390.63,402.304z"/>
				<path fill="#FFFFFF" d="M307.285,428.022c3.924-0.35,8.01-2.883,8.469-7.625c0.262-5.271-3.014-7.008-7.813-7.219
					c5.432,11.701-7.51,13.559-9.125,0.656c-4.771-0.113-8.829,0.045-9.719,3.813C289.454,420.952,301.85,429.507,307.285,428.022z"
					/>
				<g>
					<linearGradient id="SVGID_57_" gradientUnits="userSpaceOnUse" x1="216.6544" y1="423.2979" x2="297.1378" y2="423.2979">
						<stop  offset="0" style="stop-color:#2E3192"/>
						<stop  offset="1" style="stop-color:#00AEEF"/>
					</linearGradient>
					<path fill="url(#SVGID_57_)" d="M260.166,440.851c12.463-2.242,24.932-0.879,36.972,2.467
						c-2.709-13.523-9.467-26.828-21.435-30.16c-11.595-3.902-14.841-9.615-17.431-16.092
						c-26.108-2.309-52.647,33.273-36.892,52.572C226.297,428.952,251.754,424.163,260.166,440.851z"/>
					<linearGradient id="SVGID_58_" gradientUnits="userSpaceOnUse" x1="242.5382" y1="459.9356" x2="302.1393" y2="459.9356">
						<stop  offset="0" style="stop-color:#2E3192"/>
						<stop  offset="1" style="stop-color:#00AEEF"/>
					</linearGradient>
					<path fill="url(#SVGID_58_)" d="M293.345,469.29c7.724,3.326,11.973-10.074,5.928-16.725
						c-21.844-7.881-46.118,4.42-56.734,14.818C262.057,460.153,278.201,460.431,293.345,469.29z"/>
				</g>
				<g>
					<linearGradient id="SVGID_59_" gradientUnits="userSpaceOnUse" x1="274.5304" y1="507.1407" x2="307.3068" y2="507.1407">
						<stop  offset="0" style="stop-color:#2E3192"/>
						<stop  offset="1" style="stop-color:#00AEEF"/>
					</linearGradient>
					<path fill="url(#SVGID_59_)" d="M307.307,496.142c-4.903,0.502-9.61,3.322-15.567,1.188
						c-4.126,7.545-9.474,14.588-17.209,20.353C287.659,519.854,300.553,514.528,307.307,496.142z"/>
					<linearGradient id="SVGID_60_" gradientUnits="userSpaceOnUse" x1="248.4865" y1="529.502" x2="377.1188" y2="529.502">
						<stop  offset="0" style="stop-color:#2E3192"/>
						<stop  offset="1" style="stop-color:#00AEEF"/>
					</linearGradient>
					<path fill="url(#SVGID_60_)" d="M248.486,533.357c0.051,0.065,9.592,11.903,42.336-8.374
						c-10.982,19.668,4.555,14.965,18.499,1.332c-3.166,15.668,3.502,18.168,17.334,6.001c-5.332,17.333,3.207,23.577,18.5,4.533
						c-1,4.142,6.621,24.866,17-0.533c-0.078,8.997,5.668,20.833,7,0.667c0.148,0.453,0.305,0.963,0.469,1.51
						c0.023-1.504,0.057-2.998,0.117-4.465l7.072,3.721c1.385-10.447-2.092-25.85-7.406-27.488
						c-1.408,9.352-10.273,8.691-15.711,5.236l-0.893,18.158l-3.164-10.98c-8.637,19.77-18.943,12.578-23.822-4.096
						c-2.744,4.453-5.713,11.605-8.004,10.609c-0.67-3.131,2.936-6.781,4.84-12.098c-10.742,6.707-18.907,7.49-20.101-3.908
						c-9.963,5.221-19.894,11.1-30.337,6.699C263.466,524.122,254.78,528.382,248.486,533.357z"/>
					<linearGradient id="SVGID_61_" gradientUnits="userSpaceOnUse" x1="345.4772" y1="391.8194" x2="404.0026" y2="391.8194">
						<stop  offset="0" style="stop-color:#2E3192"/>
						<stop  offset="1" style="stop-color:#00AEEF"/>
					</linearGradient>
					<path fill="url(#SVGID_61_)" d="M358.889,401.138c15.963-1.922,33.041,3.607,45.113-18.637
						c-23.109,12.48-52.369-6.383-58.525,6.617c4.975,3.537,11.619,1.549,17.244,4.008
						C361.051,395.855,359.659,398.409,358.889,401.138z"/>
					<linearGradient id="SVGID_62_" gradientUnits="userSpaceOnUse" x1="263.4733" y1="436.8614" x2="418.6666" y2="436.8614">
						<stop  offset="0" style="stop-color:#2E3192"/>
						<stop  offset="1" style="stop-color:#00AEEF"/>
					</linearGradient>
					<path fill="url(#SVGID_62_)" d="M263.496,397.513c4.494,12.928,17.828,15.756,28.578,11.855
						c9.209-3.318,15.985-3.74,22.44-0.424c8.016,4.826,16.564,9.121,22.439,16.088c-6.018-2.365-11.412-3.49-16.301-3.598
						c-4.9,14.619-13.951,12.643-23.286,9.525c1.156,7.848,8.543,13.264,11.854,20.746h-3.386
						c2.784,21.621-6.072,29.482-11.644,41.703c12.114,2.549,21.684-5.809,29.848-22.439c2.725,10.08,5.775,18.709,14.607,24.346
						c12.137-7.461,11.73-19.047,14.184-30.273c9.438,8.58,11.613,23.764,32.178,22.229c-7.105-8.867-10.031-21.076-14.607-31.965
						c4.977,5.379,10.559,8.189,17.783,4.021c-10.09-3.107-7.146-19.246-17.359-22.229c-10.098,1.936-21.133,5.932-25.826-4.021
						c9.945,1.969,19.279,2.637,24.768-4.869c29.514-3.299,37.523-6.932,48.9-29.213c-33.807,19.566-60.994-0.77-68.799,15.453
						c-0.602,1.252-2.402-1.012-3.176,0.211l3.811-6.773l-9.314-0.635c5.549-2.393,15.822-3.332,13.547-10.797
						c-21.795-2.84-40.186-16.301-63.507-17.994C278.061,377.917,262.801,381.45,263.496,397.513z"/>
					<linearGradient id="SVGID_63_" gradientUnits="userSpaceOnUse" x1="345.9088" y1="497.4903" x2="368.7633" y2="497.4903">
						<stop  offset="0" style="stop-color:#2E3192"/>
						<stop  offset="1" style="stop-color:#00AEEF"/>
					</linearGradient>
					<path fill="url(#SVGID_63_)" d="M357.6,493.468l-0.156,0.313c-1.379-0.574-0.861-13.027-5.02-12.969
						c-1.734,4.275-3.283,7.904-6.381,11.088c-1.424,13.887,8.773,20.643,16.107,23.113c8.234-4.728,6.576-17.105,6.275-27.088
						c-2.441-3.006-7.811-8.186-11.715-7.949C359.514,491.206,359.247,494.189,357.6,493.468z"/>
					<linearGradient id="SVGID_64_" gradientUnits="userSpaceOnUse" x1="243.8087" y1="446.67" x2="294.4034" y2="446.67">
						<stop  offset="0" style="stop-color:#2E3192"/>
						<stop  offset="1" style="stop-color:#00AEEF"/>
					</linearGradient>
					<path fill="url(#SVGID_64_)" d="M294.403,447.696c-2.312-8.783-45.391-7.848-50.595,3.811
						C259.487,445.181,277.11,446.683,294.403,447.696z"/>
					<linearGradient id="SVGID_65_" gradientUnits="userSpaceOnUse" x1="371.2858" y1="500.003" x2="387.8365" y2="500.003">
						<stop  offset="0" style="stop-color:#2E3192"/>
						<stop  offset="1" style="stop-color:#00AEEF"/>
					</linearGradient>
					<path fill="url(#SVGID_65_)" d="M386.583,506.48c-9.895-4.408-1.936-17.402-14.705-17.195
						c-2.158,21.594,1.266,22.217,15.688,21.127C388.325,509.376,387.325,506.81,386.583,506.48z"/>
					<linearGradient id="SVGID_66_" gradientUnits="userSpaceOnUse" x1="307.3116" y1="501.7022" x2="329.7614" y2="501.7022">
						<stop  offset="0" style="stop-color:#2E3192"/>
						<stop  offset="1" style="stop-color:#00AEEF"/>
					</linearGradient>
					<path fill="url(#SVGID_66_)" d="M308.996,519.454c15.219-1.545,29.206-22.791,14.602-35.178
						c-1.365,4.682-1.77,8.555-3.098,9.734c-0.41-2.035,0.406-4.354,0.512-10.061C310.034,487.593,304.218,507.425,308.996,519.454z
						"/>
					<linearGradient id="SVGID_67_" gradientUnits="userSpaceOnUse" x1="329.6481" y1="514.6982" x2="347.1842" y2="514.6982">
						<stop  offset="0" style="stop-color:#2E3192"/>
						<stop  offset="1" style="stop-color:#00AEEF"/>
					</linearGradient>
					<path fill="url(#SVGID_67_)" d="M339.665,513.548l-1.779-0.418c-0.549-5.518,0.787-14.531-3.031-15.27
						c-6.412,1.943-8.6,28.162,3.451,33.781c10.459-6.133,11.352-25.766,4.393-33.887
						C338.729,498.47,340.415,507.882,339.665,513.548z"/>
				</g>
			</g>
		</g>
		<linearGradient id="SVGID_68_" gradientUnits="userSpaceOnUse" x1="3.0166" y1="336.4619" x2="627.8667" y2="336.4619">
			<stop  offset="0" style="stop-color:#2E3192"/>
			<stop  offset="1" style="stop-color:#00AEEF"/>
		</linearGradient>
		<polygon clip-path="url(#SVGID_45_)" fill="url(#SVGID_68_)" stroke="#000000" stroke-width="4" stroke-miterlimit="10" points="
			627.867,429.96 315.443,177.928 3.017,429.96 70.214,494.996 315.443,297.172 560.671,494.996 		"/>
		<g clip-path="url(#SVGID_45_)">
			<g>
				
					<linearGradient id="SVGID_69_" gradientUnits="userSpaceOnUse" x1="258.7715" y1="278.9858" x2="273.1694" y2="278.9858" gradientTransform="matrix(1.1286 0 0 1 -37.1764 0)">
					<stop  offset="0" style="stop-color:#F9ED32"/>
					<stop  offset="1" style="stop-color:#FBB040"/>
				</linearGradient>
				<path fill="url(#SVGID_69_)" stroke="#000000" stroke-width="2" stroke-miterlimit="10" d="M271.123,250.469
					c0-8.542-3.208-21.631-8.114-21.67v-0.001c-0.004,0-0.007,0.001-0.011,0.001c-0.003,0-0.007-0.001-0.011-0.001v0.001
					c-4.905,0.039-8.114,13.128-8.114,21.67c0,8.555,6.007,25.854,6.007,42.203c0,16.35-3.862,17.87-3.862,27.376
					c0,9.492,3.389,9.126,5.979,9.125c2.59,0.001,5.979,0.367,5.979-9.125c0-9.506-3.862-11.026-3.862-27.376
					C265.116,276.323,271.123,259.023,271.123,250.469z"/>
				<linearGradient id="SVGID_70_" gradientUnits="userSpaceOnUse" x1="222.936" y1="286.5889" x2="258.6758" y2="286.5889">
					<stop  offset="0" style="stop-color:#F9ED32"/>
					<stop  offset="1" style="stop-color:#FBB040"/>
				</linearGradient>
				<path fill="url(#SVGID_70_)" stroke="#000000" stroke-width="2" stroke-miterlimit="10" d="M253.923,296.665
					c0-7.224-2.852-17.679-11.597-17.679c-8.745,0-11.026,12.166-11.026,12.166s-8.364-4.943-8.364-17.49
					c0-12.547,11.075-14.448,15.258-14.448c4.181,0,20.481,11.321,20.481,30.417s-5.323,24.333-11.026,24.333
					s-6.844-4.563-6.844-4.563s5.704,2.281,7.985,0S253.923,303.888,253.923,296.665z"/>
				
					<linearGradient id="SVGID_71_" gradientUnits="userSpaceOnUse" x1="228.8442" y1="286.5889" x2="264.585" y2="286.5889" gradientTransform="matrix(-1 0 0 1 531.625 0)">
					<stop  offset="0" style="stop-color:#F9ED32"/>
					<stop  offset="1" style="stop-color:#FBB040"/>
				</linearGradient>
				<path fill="url(#SVGID_71_)" stroke="#000000" stroke-width="2" stroke-miterlimit="10" d="M271.792,296.665
					c0-7.224,2.853-17.679,11.597-17.679s11.026,12.166,11.026,12.166s8.365-4.943,8.365-17.49
					c0-12.547-11.077-14.448-15.259-14.448s-20.482,11.321-20.482,30.417s5.323,24.333,11.026,24.333s6.844-4.563,6.844-4.563
					s-5.704,2.281-7.985,0S271.792,303.888,271.792,296.665z"/>
				<linearGradient id="SVGID_72_" gradientUnits="userSpaceOnUse" x1="249.9312" y1="293.1426" x2="275.4009" y2="293.1426">
					<stop  offset="0" style="stop-color:#F9ED32"/>
					<stop  offset="1" style="stop-color:#FBB040"/>
				</linearGradient>
				<path fill="url(#SVGID_72_)" stroke="#000000" stroke-width="2" stroke-miterlimit="10" d="M264.572,288.018
					c-0.442-0.062-0.957-0.098-1.574-0.098c-0.114,0-0.22,0.007-0.332,0.008c-0.112-0.001-0.219-0.008-0.333-0.008
					c-0.618,0-1.132,0.036-1.574,0.098c-6.851,0.554-10.829,3.577-10.829,5.986c0,2.661,1.901,4.362,1.901,4.362
					s-0.643-1.595,1.639-3.14c1.989-1.347,7.752-1.437,9.196-1.438c1.443,0.001,7.206,0.091,9.195,1.438
					c2.282,1.545,1.639,3.14,1.639,3.14s1.901-1.701,1.901-4.362C275.401,291.594,271.424,288.571,264.572,288.018z"/>
			</g>
			<g>
				
					<linearGradient id="SVGID_73_" gradientUnits="userSpaceOnUse" x1="182.5708" y1="348.5547" x2="196.9688" y2="348.5547" gradientTransform="matrix(1.1286 0 0 1 -37.1764 0)">
					<stop  offset="0" style="stop-color:#F9ED32"/>
					<stop  offset="1" style="stop-color:#FBB040"/>
				</linearGradient>
				<path fill="url(#SVGID_73_)" stroke="#000000" stroke-width="2" stroke-miterlimit="10" d="M185.123,320.038
					c0-8.542-3.208-21.631-8.114-21.67v-0.001c-0.004,0-0.007,0.001-0.011,0.001c-0.003,0-0.007-0.001-0.011-0.001v0.001
					c-4.905,0.039-8.114,13.128-8.114,21.67c0,8.555,6.007,25.854,6.007,42.203c0,16.35-3.862,17.87-3.862,27.375
					c0,9.492,3.389,9.127,5.979,9.125c2.59,0.002,5.979,0.367,5.979-9.125c0-9.506-3.862-11.025-3.862-27.375
					C179.116,345.892,185.123,328.592,185.123,320.038z"/>
				<linearGradient id="SVGID_74_" gradientUnits="userSpaceOnUse" x1="136.936" y1="356.1582" x2="172.6758" y2="356.1582">
					<stop  offset="0" style="stop-color:#F9ED32"/>
					<stop  offset="1" style="stop-color:#FBB040"/>
				</linearGradient>
				<path fill="url(#SVGID_74_)" stroke="#000000" stroke-width="2" stroke-miterlimit="10" d="M167.923,366.233
					c0-7.224-2.852-17.679-11.597-17.679c-8.745,0-11.026,12.166-11.026,12.166s-8.364-4.943-8.364-17.49
					c0-12.547,11.075-14.448,15.258-14.448c4.181,0,20.481,11.321,20.481,30.417s-5.323,24.333-11.026,24.333
					s-6.844-4.563-6.844-4.563s5.704,2.281,7.985,0S167.923,373.457,167.923,366.233z"/>
				
					<linearGradient id="SVGID_75_" gradientUnits="userSpaceOnUse" x1="314.8442" y1="356.1582" x2="350.5854" y2="356.1582" gradientTransform="matrix(-1 0 0 1 531.625 0)">
					<stop  offset="0" style="stop-color:#F9ED32"/>
					<stop  offset="1" style="stop-color:#FBB040"/>
				</linearGradient>
				<path fill="url(#SVGID_75_)" stroke="#000000" stroke-width="2" stroke-miterlimit="10" d="M185.792,366.233
					c0-7.224,2.853-17.679,11.597-17.679s11.026,12.166,11.026,12.166s8.365-4.943,8.365-17.49
					c0-12.547-11.077-14.448-15.259-14.448S181.04,340.104,181.04,359.2s5.323,24.333,11.026,24.333s6.844-4.563,6.844-4.563
					s-5.704,2.281-7.985,0S185.792,373.457,185.792,366.233z"/>
				<linearGradient id="SVGID_76_" gradientUnits="userSpaceOnUse" x1="163.9312" y1="362.7119" x2="189.4009" y2="362.7119">
					<stop  offset="0" style="stop-color:#F9ED32"/>
					<stop  offset="1" style="stop-color:#FBB040"/>
				</linearGradient>
				<path fill="url(#SVGID_76_)" stroke="#000000" stroke-width="2" stroke-miterlimit="10" d="M178.572,357.586
					c-0.442-0.062-0.957-0.098-1.574-0.098c-0.114,0-0.22,0.007-0.332,0.008c-0.112-0.001-0.219-0.008-0.333-0.008
					c-0.618,0-1.132,0.036-1.574,0.098c-6.851,0.554-10.829,3.577-10.829,5.986c0,2.661,1.901,4.362,1.901,4.362
					s-0.643-1.595,1.639-3.14c1.989-1.347,7.752-1.437,9.196-1.438c1.443,0.001,7.206,0.091,9.195,1.438
					c2.282,1.545,1.639,3.14,1.639,3.14s1.901-1.701,1.901-4.362C189.401,361.163,185.424,358.14,178.572,357.586z"/>
			</g>
		</g>
	</g>
	<use xlink:href="#SVGID_2_"  overflow="visible" fill="none" stroke="#000000" stroke-width="7" stroke-miterlimit="10"/>
</g>
<radialGradient id="SVGID_77_" cx="315.1919" cy="575.5225" r="180.5935" gradientUnits="userSpaceOnUse">
	<stop  offset="0.6316" style="stop-color:#FFFFFF"/>
	<stop  offset="0.7049" style="stop-color:#F4F5F5"/>
	<stop  offset="0.8549" style="stop-color:#EAEBEB"/>
	<stop  offset="1" style="stop-color:#E6E7E8"/>
</radialGradient>
<path display="none" fill="url(#SVGID_77_)" stroke="#000000" stroke-width="3" stroke-miterlimit="10" d="M527.906,493.628
	c0,0-35,101-212.714,101s-212.714-101-212.714-101s-32,43-29,61s64.428,102.788,241.714,102.788s238.714-84.788,241.714-102.788
	S527.906,493.628,527.906,493.628z"/>
<g display="none">
	<path fill="none" d="M73.478,554.628c3,18,64.428,102.788,241.714,102.788s238.714-84.788,241.714-102.788"/>
	<path display="inline" d="M111.556,557.796l1.968-0.403l1.307,1.382l10.12-7.123c-0.281-0.464-0.494-0.771-0.636-0.922
		c-1.142-1.208-2.714-1.67-4.716-1.386c-2.002,0.285-3.851,1.229-5.546,2.831l-0.217,0.205l-3.55-0.805
		c6.417-5.409,12.402-5.177,17.956,0.697l0.579,0.612l-11.74,8.269l6.607,6.987l5.268-3.715c3.463-2.445,6.696-3.861,9.698-4.247
		c3.002-0.386,5.338,0.304,7.009,2.07c0.657,0.695,1.113,1.437,1.369,2.225l-3.231,1.21c0.174-1.638-0.038-2.773-0.638-3.408
		c-0.757-0.8-1.822-1.005-3.195-0.614c-1.374,0.391-3.327,1.461-5.86,3.213l-13.311,9.153c-2.855,1.971-4.686,3.337-5.492,4.099
		c-1.064,1.007-1.197,1.933-0.397,2.778c0.35,0.37,0.906,0.845,1.669,1.425l-1.116,0.776l-6.788-4.415l13.603-9.559l-6.606-6.987
		l-2.102,1.473c-3.333,2.336-6.61,3.646-9.833,3.935c-3.223,0.287-5.727-0.514-7.511-2.4c-1.321-1.397-1.842-3.128-1.563-5.193
		l3.732-0.525c-1.02,2.337-0.874,4.2,0.44,5.59c1.892,2,5.343,1.24,10.353-2.281l4.235-2.975L111.556,557.796z"/>
	<path display="inline" d="M132.693,597.266l4.582-4.81c-4.404,2.253-7.684,2.618-9.839,1.095c-1.502-1.061-2.191-2.624-2.069-4.688
		c0.123-2.064,1.034-4.299,2.733-6.703c1.059-1.499,3.043-3.763,5.954-6.793c2.911-3.029,5.764-5.803,8.561-8.32
		c-0.367-0.398-0.635-0.658-0.805-0.778c-1.4-0.989-3.049-1.131-4.947-0.426c-1.898,0.706-3.565,2.075-5.002,4.107l-3.639-0.089
		c5.208-6.579,11.071-7.565,17.588-2.961l0.917,0.647c-3.12,2.777-6.236,5.783-9.349,9.019c-3.113,3.234-5.281,5.718-6.504,7.448
		c-1.33,1.882-2.099,3.547-2.307,4.993c-0.208,1.447,0.176,2.516,1.152,3.205c1.026,0.726,2.467,0.838,4.323,0.337
		c1.855-0.501,3.911-1.564,6.168-3.192l15.008-15.81l3.197,1.605l-4.92,4.91l-10.637,11.191c-1.948,2.055-3.16,3.419-3.636,4.093
		c-0.887,1.255-0.766,2.281,0.363,3.078c0.399,0.282,0.949,0.584,1.651,0.905l-0.954,0.998L132.693,597.266z"/>
	<path display="inline" d="M142.805,600.879l3.374-1.85c-0.086,2.582,0.712,4.281,2.395,5.098c1.103,0.535,2.391,0.369,3.862-0.498
		c1.471-0.867,2.874-2.282,4.207-4.244l11.497-16.954c-0.427-0.333-0.734-0.545-0.921-0.636c-1.542-0.748-3.193-0.62-4.951,0.385
		c-1.758,1.006-3.18,2.628-4.266,4.868l-3.605,0.504c1.928-3.476,4.317-5.747,7.168-6.815c2.851-1.068,5.87-0.829,9.058,0.718
		l1.136,0.551c-1.468,7.431-3.493,14.82-6.075,22.168l19.061-15.87l3.234,0.976l-4.055,5.646l-9.894,14.576
		c-0.873,1.301-1.511,2.366-1.915,3.198c-0.546,1.126-0.319,1.932,0.681,2.417c0.496,0.24,1.193,0.492,2.094,0.755l-0.778,1.141
		l-7.84-1.479l15.756-23.235l-19.798,16.39l-1.593-0.394l0.27-0.557c2.427-5.005,4.548-11.651,6.363-19.941l-4.949,7.275
		c-6.089,8.983-11.49,12.332-16.202,10.047C144.473,604.32,143.368,602.906,142.805,600.879z"/>
	<path display="inline" d="M176.787,617.014l2.912-2.09c0.281,2.282,1.181,3.676,2.7,4.181c1.449,0.482,3.087,0.108,4.914-1.12
		c1.827-1.229,4.328-3.654,7.503-7.275l11.39-12.961c-1.017-0.533-1.909-0.928-2.678-1.184c-2.061-0.686-3.885-0.508-5.474,0.532
		c-1.588,1.039-2.819,2.87-3.69,5.491l-3.553,1.002c1.032-2.478,2.249-4.406,3.649-5.787c1.552-1.539,3.095-2.489,4.627-2.851
		c1.533-0.36,3.545-0.254,6.037,0.32c0.497,0.12,1.251,0.288,2.263,0.505l3.266,0.253l-2.052,6.812l-3.799,14.286
		c-0.885,3.321-1.32,5.558-1.304,6.711c0.016,1.153,0.492,1.886,1.429,2.197c0.167,0.056,0.758,0.207,1.771,0.453l-0.637,1.272
		l-7.3-0.719l2.713-10.184l-8.06-2.681c-2.788,3.181-5.123,5.278-7.004,6.294c-1.882,1.016-3.784,1.204-5.707,0.564
		C178.88,620.431,177.575,619.09,176.787,617.014z M194.55,612.892l7.321,2.436l4.116-15.536L194.55,612.892z"/>
	<path display="inline" d="M207.721,626.848l2.844-2.565c0.529,2.534,1.697,3.999,3.504,4.396c1.208,0.265,2.425-0.192,3.652-1.373
		c1.227-1.18,2.261-2.886,3.102-5.119l7.217-19.148c-0.494-0.224-0.847-0.36-1.06-0.406c-1.665-0.365-3.234,0.146-4.709,1.533
		s-2.479,3.298-3.012,5.729l-3.388,1.332c1.01-3.638,2.762-6.363,5.256-8.175c2.493-1.813,5.272-2.383,8.337-1.71l1.461,0.32
		c0.241,3.897,0.758,8.11,1.551,12.64l0.9,5.134c0.639,3.534,1.054,6.37,1.245,8.509l4.394-11.662
		c1.51-4.023,3.261-7.008,5.251-8.952s4.041-2.685,6.152-2.222c0.751,0.165,1.444,0.521,2.08,1.067l-1.713,2.573
		c-0.69-1.17-1.451-1.847-2.283-2.029c-2.192-0.481-4.237,1.809-6.134,6.868l-5.727,15.192l-2.069,6.013l-2.15,0.489
		c-0.021-1.649-0.443-4.815-1.267-9.496l-1.746-9.864c-0.464-2.636-0.813-4.977-1.044-7.022l-2.917,7.771
		c-1.854,4.909-3.944,8.535-6.272,10.879c-2.328,2.344-4.735,3.243-7.222,2.697C210.208,629.862,208.797,628.73,207.721,626.848z"/>
	<path display="inline" d="M240.131,635.598l2.777-2.779l1.033,0.154c1.171,0.174,2.115-0.221,2.832-1.186s1.524-2.955,2.425-5.971
		l5.078-16.848l-4.178-0.622l2.7-2.791l10.036,1.495l-2.809,2.774l-2.513-0.374l-4.399,14.618c-1.349,4.474-3.59,7.671-6.723,9.592
		l5.965,1.104l-2.685,2.793L240.131,635.598z"/>
	<path display="inline" d="M276.727,638.195l2.369-3.01c0.951,2.407,2.35,3.652,4.198,3.737c1.235,0.056,2.357-0.602,3.367-1.973
		c1.009-1.37,1.738-3.228,2.188-5.571l3.865-20.094c-0.524-0.138-0.895-0.212-1.113-0.222c-1.702-0.078-3.163,0.692-4.38,2.31
		c-1.218,1.618-1.883,3.67-1.997,6.157l-3.113,1.887c0.379-3.756,1.644-6.738,3.794-8.947c2.149-2.209,4.792-3.242,7.927-3.099
		l1.495,0.067c0.898,3.801,2.122,7.865,3.672,12.193l1.757,4.907c1.229,3.375,2.119,6.1,2.67,8.175l2.352-12.238
		c0.807-4.222,2.025-7.459,3.658-9.713c1.631-2.254,3.526-3.331,5.686-3.232c0.769,0.034,1.512,0.269,2.23,0.699l-1.252,2.827
		c-0.879-1.037-1.744-1.575-2.595-1.614c-2.242-0.102-3.869,2.501-4.881,7.809l-3.067,15.944l-1.02,6.276l-2.036,0.847
		c-0.3-1.622-1.253-4.671-2.859-9.144l-3.393-9.426c-0.905-2.519-1.645-4.767-2.22-6.744l-1.558,8.153
		c-0.994,5.152-2.44,9.08-4.336,11.785c-1.897,2.704-4.117,3.998-6.66,3.883C279.689,640.744,278.107,639.868,276.727,638.195z"/>
	<path display="inline" d="M310.089,641.48l2.307-3.18l1.045-0.011c1.185-0.011,2.055-0.549,2.61-1.614s1.043-3.158,1.46-6.277
		l2.373-17.436l-4.224,0.041l2.229-3.18l10.146-0.098l-2.338,3.181l-2.541,0.024l-2.052,15.128
		c-0.632,4.63-2.344,8.139-5.137,10.526l6.064,0.155l-2.214,3.18L310.089,641.48z"/>
	<path display="inline" d="M323.899,641.451l2.096-3.237l0.903-0.033c1.235-0.046,2.12-0.569,2.655-1.571s0.958-2.918,1.27-5.748
		l1.187-10.976c0.348-3.244,1.324-5.946,2.929-8.104c1.605-2.159,3.477-3.278,5.616-3.357c0.955-0.035,2.078,0.394,3.369,1.285
		l-0.583,5.338l-0.996,0.037c0.018-0.37,0.021-0.677,0.013-0.919c-0.098-2.644-1.144-3.929-3.137-3.855
		c-1.963,0.072-3.191,2.417-3.687,7.033l-1.071,9.861c-0.317,2.958-0.828,5.24-1.533,6.847s-1.84,3.05-3.404,4.332l8.714-0.129
		c2.503-0.093,4.675-0.97,6.516-2.633l-0.174,1.608c-1.39,1.816-2.44,2.983-3.154,3.501s-1.673,0.798-2.878,0.843L323.899,641.451z"
		/>
	<path display="inline" d="M367.426,637.124l1.666-3.174c1.274,1.914,2.704,2.757,4.287,2.527c1.512-0.219,2.809-1.286,3.892-3.204
		c1.082-1.917,2.23-5.206,3.446-9.866l4.372-16.691c-1.147-0.021-2.122,0.026-2.924,0.143c-2.149,0.311-3.701,1.287-4.655,2.929
		s-1.233,3.829-0.838,6.563l-2.727,2.488c-0.188-2.677,0.035-4.946,0.669-6.809c0.697-2.071,1.65-3.612,2.858-4.622
		c1.208-1.009,3.055-1.815,5.54-2.42c0.497-0.115,1.247-0.303,2.249-0.563l3.033-1.237l1.219,7.008l3.008,14.474
		c0.696,3.365,1.311,5.561,1.842,6.584c0.531,1.022,1.285,1.464,2.263,1.322c0.175-0.025,0.771-0.154,1.786-0.388l0.001,1.423
		l-6.848,2.63l-2.139-10.32l-8.407,1.217c-1.066,4.093-2.213,7.015-3.44,8.766c-1.227,1.752-2.843,2.772-4.848,3.063
		C370.829,639.24,369.061,638.626,367.426,637.124z M381.458,625.478l7.636-1.104l-3.284-15.733L381.458,625.478z"/>
	<path display="inline" d="M399.318,634.058l1.473-3.563l0.883-0.197c1.206-0.27,1.981-0.945,2.326-2.027
		c0.344-1.082,0.412-3.043,0.204-5.883l-0.827-11.009c-0.247-3.254,0.223-6.088,1.408-8.502c1.187-2.415,2.823-3.854,4.913-4.321
		c0.933-0.208,2.115,0.009,3.547,0.651l0.396,5.355l-0.974,0.218c-0.051-0.368-0.102-0.67-0.154-0.906
		c-0.576-2.582-1.838-3.656-3.785-3.222c-1.917,0.428-2.699,2.956-2.348,7.585l0.738,9.893c0.225,2.967,0.137,5.304-0.265,7.012
		c-0.401,1.707-1.255,3.333-2.561,4.878l8.545-1.71c2.444-0.545,4.421-1.803,5.93-3.771l0.12,1.612
		c-1.035,2.039-1.857,3.377-2.465,4.016c-0.608,0.639-1.501,1.089-2.677,1.352L399.318,634.058z"/>
	<path display="inline" d="M420.257,629.282l1.396-3.673l1.005-0.282c1.141-0.32,1.84-1.067,2.099-2.241
		c0.258-1.173,0.181-3.32-0.231-6.44l-2.266-17.449l-4.066,1.143l1.321-3.651l9.768-2.746l-1.426,3.682l-2.446,0.688l1.973,15.139
		c0.601,4.633-0.135,8.468-2.207,11.503l5.895-1.436l-1.306,3.647L420.257,629.282z"/>
	<path display="inline" d="M436.291,624.747l1.138-3.758l0.251-0.087c1.492-0.518,2.373-1.298,2.645-2.34
		c0.271-1.041,0.114-3.071-0.471-6.088l-3.708-19.342c-2.021,0.702-3.398,2.012-4.13,3.929c-0.731,1.918-0.683,4.073,0.147,6.465
		l0.153,0.443l-2.199,2.887c-1.167-4.157-1.043-7.573,0.372-10.247c1.415-2.675,4.174-4.724,8.277-6.146l8.658-3.004l0.669,6.159
		l-0.928,0.322c-0.104-0.552-0.228-1.035-0.372-1.452c-0.368-1.062-1.066-1.64-2.095-1.735c-1.028-0.095-2.716,0.265-5.062,1.079
		l-0.457,0.158l2.433,12.526l6.567-2.278l-0.782,2.597c-2.363,0.384-3.948,0.716-4.753,0.995l-0.736,0.255l0.445,2.281
		c0.504,2.562,0.652,4.679,0.446,6.351c-0.206,1.673-0.841,3.482-1.902,5.43l7.2-2.07l1.567-0.476c1.6-0.555,2.838-1.82,3.715-3.796
		l0.324,1.694c-0.903,3.009-2.121,4.778-3.652,5.31l-0.684,0.215L436.291,624.747z"/>
	<path display="inline" d="M456.182,615.879l0.683-3.769c1.968,1.682,3.788,2.127,5.46,1.336c1.117-0.528,1.802-1.635,2.051-3.318
		c0.25-1.684,0.025-3.666-0.675-5.948l-5.994-19.564c-0.528,0.124-0.891,0.232-1.088,0.325c-1.541,0.729-2.47,2.093-2.788,4.093
		c-0.319,2,0.054,4.125,1.118,6.375l-1.867,3.125c-1.424-3.496-1.703-6.724-0.838-9.683c0.865-2.958,2.716-5.108,5.553-6.45
		l1.353-0.64c2.573,2.938,5.559,5.956,8.955,9.055l3.851,3.513c2.667,2.405,4.729,4.396,6.188,5.973l-3.653-11.915
		c-1.264-4.107-1.703-7.539-1.316-10.295c0.387-2.755,1.557-4.595,3.51-5.519c0.695-0.329,1.462-0.471,2.299-0.427l0.217,3.084
		c-1.262-0.505-2.277-0.575-3.048-0.211c-2.028,0.96-2.247,4.021-0.655,9.186l4.756,15.524l2.038,6.022l-1.402,1.702
		c-1.025-1.293-3.295-3.54-6.809-6.741l-7.411-6.738c-1.979-1.803-3.686-3.442-5.12-4.92l2.441,7.933
		c1.534,5.019,2.097,9.167,1.688,12.444c-0.409,3.278-1.765,5.461-4.066,6.549C459.994,616.744,458.184,616.711,456.182,615.879z"/>
	<path display="inline" d="M506.448,591.197l-2.894-5.979c0.563,4.915-0.248,8.113-2.431,9.597c-1.521,1.033-3.227,1.13-5.117,0.29
		c-1.89-0.841-3.661-2.479-5.316-4.914c-1.031-1.519-2.454-4.172-4.268-7.961c-1.814-3.789-3.409-7.436-4.783-10.938
		c-0.503,0.204-0.84,0.364-1.012,0.481c-1.418,0.963-2.13,2.457-2.137,4.482c-0.006,2.024,0.69,4.066,2.089,6.126l-1.361,3.376
		c-4.33-7.188-3.195-13.023,3.406-17.508l0.928-0.631c1.504,3.896,3.224,7.87,5.159,11.921s3.499,6.953,4.689,8.706
		c1.295,1.906,2.583,3.211,3.865,3.914c1.281,0.703,2.416,0.719,3.404,0.047c1.04-0.706,1.651-2.016,1.835-3.929
		c0.183-1.912-0.092-4.211-0.822-6.896l-9.531-19.604l2.627-2.43l2.869,6.332l6.741,13.89c1.239,2.546,2.092,4.16,2.555,4.843
		c0.863,1.271,1.866,1.518,3.01,0.741c0.404-0.274,0.88-0.684,1.427-1.228l0.601,1.243L506.448,591.197z"/>
	<path display="inline" d="M513.764,583.184l-0.762-3.771c2.439,0.851,4.3,0.595,5.579-0.77c0.839-0.894,1.063-2.173,0.674-3.836
		c-0.391-1.662-1.324-3.422-2.801-5.278l-12.766-16.02c-0.446,0.309-0.74,0.539-0.882,0.69c-1.174,1.25-1.542,2.863-1.105,4.841
		c0.438,1.978,1.563,3.817,3.378,5.521l-0.591,3.592c-2.744-2.875-4.202-5.832-4.374-8.872c-0.172-3.039,0.955-5.851,3.38-8.435
		l0.863-0.92c6.658,3.611,13.11,7.743,19.357,12.395l-9.48-22.919l1.894-2.797l4.184,5.551l10.974,13.782
		c0.981,1.22,1.81,2.146,2.483,2.779c0.913,0.856,1.749,0.879,2.511,0.068c0.376-0.401,0.824-0.992,1.343-1.774l0.857,1.082
		l-3.744,7.046l-17.496-21.955l9.758,23.777l-0.85,1.404l-0.451-0.424c-4.056-3.806-9.771-7.809-17.146-12.008l5.474,6.89
		c6.766,8.486,8.356,14.639,4.772,18.457C517.546,582.615,515.869,583.249,513.764,583.184z"/>
</g>
</svg>
