<!DOCTYPE svg PUBLIC "-//W3C//DTD SVG 1.1//EN" "http://www.w3.org/Graphics/SVG/1.1/DTD/svg11.dtd" [
	<!ENTITY ns_flows "http://ns.adobe.com/Flows/1.0/">
]><svg xmlns="http://www.w3.org/2000/svg" xmlns:xlink="http://www.w3.org/1999/xlink" width="524" height="659" viewBox="53.386 -0.5 524 659"><linearGradient id="a" gradientUnits="userSpaceOnUse" x1="91.174" y1="515.304" x2="146.069" y2="536.376"><stop offset="0" stop-color="#8B5E3C"/><stop offset=".497" stop-color="#FDC060"/></linearGradient><linearGradient id="b" gradientUnits="userSpaceOnUse" x1="484.315" y1="536.376" x2="539.209" y2="515.304"><stop offset=".503" stop-color="#FDC060"/><stop offset="1" stop-color="#8B5E3C"/></linearGradient><linearGradient id="c" gradientUnits="userSpaceOnUse" x1="54.886" y1="461.128" x2="160.478" y2="461.128"><stop offset="0" stop-color="#BCBEC0"/><stop offset=".333" stop-color="#E6E7E8"/></linearGradient><linearGradient id="d" gradientUnits="userSpaceOnUse" x1="469.906" y1="461.128" x2="575.498" y2="461.128"><stop offset=".632" stop-color="#E6E7E8"/><stop offset=".687" stop-color="#DBDCDD"/><stop offset=".793" stop-color="#CACBCD"/><stop offset=".898" stop-color="#BFC1C3"/><stop offset="1" stop-color="#BCBEC0"/></linearGradient><defs><path id="e" d="M314.75 3.5H63.727v258.714c0 161.08 140 299 251.714 341 118.286-39 251.714-175.92 251.714-337V3.5H314.75z"/></defs><linearGradient id="f" gradientUnits="userSpaceOnUse" x1="63.728" y1="303.357" x2="567.156" y2="303.357"><stop offset="0" stop-color="#2E3192"/><stop offset="1" stop-color="#00AEEF"/></linearGradient><use xlink:href="#e" overflow="visible" fill="url(#f)"/><clipPath id="g"><use xlink:href="#e" overflow="visible"/></clipPath><g clip-path="url(#g)"><defs><path id="h" d="M315.442 3.5h251.714v655.416H315.442z"/></defs><linearGradient id="i" gradientUnits="userSpaceOnUse" x1="315.442" y1="331.208" x2="567.156" y2="331.208"><stop offset="0" stop-color="#2E3192"/><stop offset="1" stop-color="#00AEEF"/></linearGradient><use xlink:href="#h" overflow="visible" fill="url(#i)"/><clipPath id="j"><use xlink:href="#h" overflow="visible"/></clipPath><g clip-path="url(#j)"><path fill="#010101" d="M519.03 74.955c14.582-6.573 16.044-21.167 23.282-29.22-9.772.816-11.995 9.12-26.25 9.376-19.368.35-37.58-8.28-47.563 4.5-12.132-5.577-33.802-14.152-52.126-14.405-14.25-.197-26.487 4.624-30.625 19.844-17.147-1.935-27.32 7.758-36.657 18.843-14.992 18.006-12.408 34.517 1.47 49.03 2.295-18.098 17.6-30.78 30.343-20.062-12.275 6.606-19.85 14.707-22.906 21.314 6.854-2.355 13.8-8.232 21.813-7.688-7.932 3.96-13.37 10.427-17.344 18.344 21.454-6.26 43.083-7.384 61.905 3.47-12.165 30.705-31.175 43.76-51.584 51.796l4.096 5.91s9.505 11.96 42.34-8.372c-10.983 19.668 4.554 14.966 18.498 1.333-3.166 15.667 3.5 18.167 17.334 6-5.333 17.333 3.206 23.577 18.5 4.533-1 4.142 6.62 24.866 17-.533-.08 8.998 5.667 20.833 7 .667 1.272 3.91 3.162 11.562 5.493 18.095.562-3.947.73-8.155.606-12.556l7.938 1c-.336-8.922-.52-17.772-2.97-27.75 7.497 2.295 11.893-2.673 16.19-7.844-9.238-5.624-10.526-7.094-12.407-14.844 5.908-.11 11.61.646 15.47-1-17.73-12.887-14.527-19.89-19.75-24.875 5.862-1.402 9.735-.876 15.374-8.405-10.975-2.074-10.336-17.876-19.343-25.28 1.934-1.677 21.144-.128 32.25-10.626 12.262-11.592 6.755-18.73 21.75-28-14.537-4.577-30.235 13.587-39.126 7.405z"/><path fill="#FFF" d="M435.687 100.674c3.924-.35 8.01-2.883 8.47-7.625.26-5.272-3.014-7.01-7.814-7.22 5.433 11.7-7.51 13.558-9.125.656-4.77-.114-8.83.045-9.72 3.813.358 3.303 12.754 11.858 18.19 10.374z"/><g transform="translate(-5 2.6)"><linearGradient id="k" gradientUnits="userSpaceOnUse" x1="350.015" y1="93.298" x2="430.499" y2="93.298"><stop offset="0" stop-color="#F9ED32"/><stop offset="1" stop-color="#FBB040"/></linearGradient><path fill="url(#k)" d="M393.527 110.85c12.463-2.242 24.932-.878 36.972 2.467-2.71-13.522-9.468-26.827-21.436-30.16-11.595-3.9-14.84-9.615-17.43-16.09-26.11-2.31-52.648 33.27-36.893 52.57 4.918-20.684 30.375-25.473 38.787-8.786z"/><linearGradient id="l" gradientUnits="userSpaceOnUse" x1="375.899" y1="129.936" x2="435.5" y2="129.936"><stop offset="0" stop-color="#F9ED32"/><stop offset="1" stop-color="#FBB040"/></linearGradient><path fill="url(#l)" d="M426.706 139.29c7.724 3.326 11.973-10.073 5.928-16.724-21.844-7.882-46.118 4.42-56.734 14.818 19.518-7.23 35.662-6.953 50.806 1.906z"/></g><g transform="translate(-5 2.6)"><linearGradient id="m" gradientUnits="userSpaceOnUse" x1="407.891" y1="177.141" x2="440.668" y2="177.141"><stop offset="0" stop-color="#F9ED32"/><stop offset="1" stop-color="#FBB040"/></linearGradient><path fill="url(#m)" d="M440.668 166.142c-4.903.5-9.61 3.32-15.567 1.187-4.125 7.545-9.473 14.587-17.208 20.353 13.128 2.17 26.022-3.154 32.776-21.54z"/><linearGradient id="n" gradientUnits="userSpaceOnUse" x1="381.847" y1="199.502" x2="510.479" y2="199.502"><stop offset="0" stop-color="#F9ED32"/><stop offset="1" stop-color="#FBB040"/></linearGradient><path fill="url(#n)" d="M381.847 203.357c.05.065 9.592 11.903 42.336-8.375-10.982 19.668 4.555 14.966 18.5 1.333-3.167 15.667 3.5 18.167 17.333 6-5.333 17.333 3.206 23.577 18.5 4.533-1 4.142 6.62 24.866 17-.533-.08 8.998 5.667 20.833 7 .667.147.454.305.963.47 1.51.022-1.503.055-2.998.115-4.465l7.074 3.722c1.385-10.448-2.093-25.852-7.406-27.49-1.408 9.353-10.274 8.692-15.712 5.237l-.892 18.158-3.164-10.98c-8.638 19.77-18.944 12.578-23.823-4.096-2.744 4.452-5.713 11.603-8.003 10.607-.67-3.13 2.935-6.78 4.84-12.098-10.743 6.706-18.907 7.49-20.102-3.91-9.963 5.222-19.894 11.1-30.337 6.7-8.748 4.242-17.434 8.5-23.728 13.477z"/><linearGradient id="o" gradientUnits="userSpaceOnUse" x1="478.837" y1="61.819" x2="537.363" y2="61.819"><stop offset="0" stop-color="#F9ED32"/><stop offset="1" stop-color="#FBB040"/></linearGradient><path fill="url(#o)" d="M492.25 71.138c15.964-1.923 33.04 3.607 45.113-18.638-23.11 12.48-52.368-6.383-58.525 6.618 4.976 3.536 11.62 1.548 17.244 4.007-1.67 2.73-3.063 5.284-3.832 8.013z"/><linearGradient id="p" gradientUnits="userSpaceOnUse" x1="396.835" y1="106.862" x2="552.028" y2="106.862"><stop offset="0" stop-color="#F9ED32"/><stop offset="1" stop-color="#FBB040"/></linearGradient><path fill="url(#p)" d="M396.857 67.512c4.494 12.93 17.828 15.756 28.578 11.855 9.21-3.318 15.985-3.74 22.44-.424 8.015 4.827 16.563 9.12 22.438 16.09-6.017-2.367-11.412-3.49-16.3-3.6-4.9 14.62-13.95 12.643-23.286 9.526 1.156 7.846 8.543 13.263 11.854 20.744h-3.386c2.784 21.62-6.072 29.483-11.644 41.704 12.114 2.548 21.684-5.81 29.85-22.44 2.723 10.08 5.773 18.71 14.606 24.346 12.136-7.46 11.73-19.046 14.183-30.272 9.437 8.58 11.612 23.763 32.177 22.228-7.105-8.866-10.03-21.076-14.606-31.965 4.978 5.38 10.56 8.19 17.783 4.02-10.09-3.105-7.146-19.245-17.36-22.227-10.097 1.935-21.13 5.93-25.825-4.022 9.946 1.97 19.28 2.638 24.768-4.868 29.514-3.3 37.523-6.933 48.9-29.214-33.806 19.567-60.994-.77-68.8 15.454-.6 1.25-2.4-1.013-3.175.21l3.812-6.773-9.314-.635c5.55-2.393 15.823-3.33 13.548-10.796-21.795-2.84-40.186-16.302-63.508-17.994-13.166-.543-28.426 2.99-27.73 19.052z"/><linearGradient id="q" gradientUnits="userSpaceOnUse" x1="479.27" y1="167.49" x2="502.125" y2="167.49"><stop offset="0" stop-color="#F9ED32"/><stop offset="1" stop-color="#FBB040"/></linearGradient><path fill="url(#q)" d="M490.962 163.467l-.156.313c-1.38-.574-.862-13.028-5.02-12.97-1.735 4.275-3.283 7.904-6.38 11.088-1.425 13.888 8.772 20.643 16.105 23.113 8.236-4.728 6.577-17.104 6.276-27.087-2.44-3.005-7.81-8.186-11.714-7.948 2.803 11.232 2.535 14.213.89 13.492z"/><linearGradient id="r" gradientUnits="userSpaceOnUse" x1="377.17" y1="116.67" x2="427.764" y2="116.67"><stop offset="0" stop-color="#F9ED32"/><stop offset="1" stop-color="#FBB040"/></linearGradient><path fill="url(#r)" d="M427.764 117.697c-2.312-8.783-45.39-7.848-50.595 3.81 15.678-6.327 33.3-4.825 50.594-3.81z"/><linearGradient id="s" gradientUnits="userSpaceOnUse" x1="504.646" y1="170.002" x2="521.197" y2="170.002"><stop offset="0" stop-color="#F9ED32"/><stop offset="1" stop-color="#FBB040"/></linearGradient><path fill="url(#s)" d="M519.944 176.48c-9.896-4.408-1.936-17.403-14.706-17.196-2.158 21.594 1.266 22.217 15.688 21.127.76-1.034-.24-3.6-.982-3.93z"/><linearGradient id="t" gradientUnits="userSpaceOnUse" x1="440.673" y1="171.702" x2="463.122" y2="171.702"><stop offset="0" stop-color="#F9ED32"/><stop offset="1" stop-color="#FBB040"/></linearGradient><path fill="url(#t)" d="M442.357 189.454c15.22-1.544 29.206-22.79 14.602-35.178-1.365 4.683-1.77 8.555-3.098 9.734-.41-2.034.406-4.353.51-10.06-10.978 3.643-16.793 23.475-12.015 35.504z"/><linearGradient id="u" gradientUnits="userSpaceOnUse" x1="463.009" y1="184.698" x2="480.545" y2="184.698"><stop offset="0" stop-color="#F9ED32"/><stop offset="1" stop-color="#FBB040"/></linearGradient><path fill="url(#u)" d="M473.025 183.548l-1.778-.42c-.55-5.517.786-14.53-3.032-15.27-6.41 1.944-8.6 28.164 3.45 33.782 10.46-6.132 11.353-25.766 4.394-33.886-3.97.716-2.285 10.128-3.035 15.794z"/></g></g><g clip-path="url(#j)"><path fill="#010101" d="M385.67 404.956c14.582-6.574 16.044-21.168 23.282-29.22-9.772.816-11.995 9.12-26.25 9.376-19.368.348-37.58-8.28-47.563 4.5-12.132-5.578-33.802-14.154-52.126-14.407-14.25-.197-26.487 4.624-30.625 19.844-17.147-1.935-27.32 7.757-36.657 18.843-14.992 18.006-12.408 34.516 1.47 49.03 2.295-18.1 17.6-30.78 30.343-20.062-12.275 6.606-19.85 14.706-22.906 21.314 6.854-2.355 13.8-8.232 21.813-7.688-7.932 3.96-13.37 10.426-17.344 18.344 21.454-6.26 43.083-7.385 61.905 3.47-12.165 30.704-31.175 43.76-51.584 51.796l4.096 5.91s9.505 11.96 42.34-8.373c-10.983 19.668 4.554 14.967 18.498 1.334-3.166 15.666 3.5 18.166 17.334 6-5.333 17.333 3.206 23.576 18.5 4.533-1 4.143 6.62 24.866 17-.533-.08 8.998 5.667 20.833 7 .666 1.272 3.91 3.162 11.563 5.493 18.096.562-3.948.73-8.155.606-12.556l7.938 1c-.336-8.922-.52-17.773-2.97-27.75 7.497 2.295 11.893-2.674 16.19-7.844-9.238-5.625-10.526-7.094-12.407-14.844 5.908-.11 11.61.646 15.47-1-17.73-12.887-14.527-19.89-19.75-24.875 5.862-1.403 9.735-.876 15.374-8.405-10.975-2.074-10.336-17.877-19.343-25.28 1.934-1.677 21.144-.128 32.25-10.626 12.262-11.593 6.755-18.73 21.75-28-14.538-4.577-30.235 13.587-39.126 7.406z"/><path fill="#FFF" d="M302.327 430.674c3.924-.35 8.01-2.883 8.47-7.625.26-5.272-3.014-7.01-7.814-7.22 5.433 11.7-7.51 13.557-9.125.656-4.77-.115-8.83.045-9.72 3.813.358 3.302 12.753 11.86 18.19 10.374z"/><g transform="translate(-5 2.6)"><linearGradient id="v" gradientUnits="userSpaceOnUse" x1="216.655" y1="423.298" x2="297.138" y2="423.298"><stop offset="0" stop-color="#F9ED32"/><stop offset="1" stop-color="#FBB040"/></linearGradient><path fill="url(#v)" d="M260.167 440.852c12.463-2.244 24.932-.88 36.972 2.465-2.71-13.52-9.468-26.826-21.436-30.158-11.595-3.903-14.84-9.618-17.43-16.093-26.11-2.31-52.648 33.27-36.893 52.57 4.917-20.684 30.375-25.473 38.787-8.785z"/><linearGradient id="w" gradientUnits="userSpaceOnUse" x1="242.539" y1="459.936" x2="302.14" y2="459.936"><stop offset="0" stop-color="#F9ED32"/><stop offset="1" stop-color="#FBB040"/></linearGradient><path fill="url(#w)" d="M293.345 469.29c7.724 3.325 11.973-10.073 5.928-16.724-21.844-7.883-46.118 4.42-56.734 14.818 19.517-7.23 35.662-6.952 50.805 1.905z"/></g><g transform="translate(-5 2.6)"><linearGradient id="x" gradientUnits="userSpaceOnUse" x1="274.531" y1="507.141" x2="307.307" y2="507.141"><stop offset="0" stop-color="#F9ED32"/><stop offset="1" stop-color="#FBB040"/></linearGradient><path fill="url(#x)" d="M307.307 496.143c-4.903.5-9.61 3.32-15.567 1.186-4.126 7.546-9.474 14.587-17.21 20.354 13.13 2.17 26.023-3.155 32.777-21.54z"/><linearGradient id="y" gradientUnits="userSpaceOnUse" x1="248.487" y1="529.502" x2="377.119" y2="529.502"><stop offset="0" stop-color="#F9ED32"/><stop offset="1" stop-color="#FBB040"/></linearGradient><path fill="url(#y)" d="M248.487 533.357c.05.064 9.592 11.902 42.336-8.375-10.982 19.668 4.555 14.967 18.5 1.334-3.167 15.666 3.5 18.166 17.333 6-5.333 17.333 3.206 23.576 18.5 4.533-1 4.142 6.62 24.865 17-.534-.08 8.998 5.667 20.833 7 .666.147.455.305.963.47 1.512.022-1.504.055-3 .115-4.467l7.074 3.723c1.385-10.447-2.093-25.852-7.406-27.49-1.408 9.353-10.274 8.693-15.712 5.238l-.892 18.158-3.164-10.982c-8.638 19.77-18.944 12.58-23.823-4.094-2.744 4.453-5.713 11.604-8.003 10.607-.67-3.13 2.935-6.78 4.84-12.098-10.743 6.706-18.907 7.49-20.102-3.91-9.963 5.222-19.894 11.1-30.337 6.702-8.75 4.24-17.434 8.5-23.728 13.475z"/><linearGradient id="z" gradientUnits="userSpaceOnUse" x1="345.477" y1="391.819" x2="404.003" y2="391.819"><stop offset="0" stop-color="#F9ED32"/><stop offset="1" stop-color="#FBB040"/></linearGradient><path fill="url(#z)" d="M358.89 401.14c15.963-1.925 33.04 3.606 45.112-18.64-23.11 12.482-52.368-6.383-58.525 6.62 4.976 3.534 11.62 1.546 17.244 4.005-1.67 2.73-3.06 5.283-3.83 8.014z"/><linearGradient id="A" gradientUnits="userSpaceOnUse" x1="263.474" y1="436.861" x2="418.668" y2="436.861"><stop offset="0" stop-color="#F9ED32"/><stop offset="1" stop-color="#FBB040"/></linearGradient><path fill="url(#A)" d="M263.497 397.512c4.494 12.93 17.828 15.756 28.578 11.855 9.21-3.318 15.985-3.738 22.44-.424 8.015 4.828 16.563 9.12 22.438 16.09-6.017-2.367-11.412-3.49-16.3-3.6-4.9 14.62-13.95 12.643-23.286 9.527 1.156 7.846 8.543 13.264 11.854 20.744h-3.386c2.784 21.62-6.072 29.484-11.644 41.705 12.114 2.546 21.684-5.81 29.85-22.44 2.723 10.078 5.773 18.707 14.606 24.344 12.136-7.46 11.73-19.045 14.183-30.27 9.437 8.58 11.612 23.76 32.177 22.226-7.105-8.865-10.03-21.076-14.606-31.965 4.978 5.38 10.56 8.19 17.783 4.02-10.09-3.104-7.146-19.245-17.36-22.226-10.097 1.933-21.13 5.93-25.825-4.024 9.946 1.97 19.28 2.64 24.768-4.867 29.514-3.302 37.523-6.935 48.9-29.216-33.806 19.568-60.994-.77-68.8 15.455-.6 1.25-2.4-1.015-3.175.21l3.812-6.775-9.314-.635c5.55-2.393 15.823-3.33 13.548-10.795-21.795-2.842-40.186-16.303-63.508-17.994-13.167-.542-28.427 2.99-27.73 19.052z"/><linearGradient id="B" gradientUnits="userSpaceOnUse" x1="345.91" y1="497.49" x2="368.764" y2="497.49"><stop offset="0" stop-color="#F9ED32"/><stop offset="1" stop-color="#FBB040"/></linearGradient><path fill="url(#B)" d="M357.6 493.467l-.155.314c-1.38-.573-.862-13.028-5.02-12.968-1.735 4.273-3.283 7.902-6.38 11.086-1.425 13.89 8.772 20.643 16.105 23.113 8.235-4.727 6.576-17.104 6.275-27.087-2.44-3.004-7.81-8.186-11.714-7.947 2.804 11.23 2.537 14.212.89 13.49z"/><linearGradient id="C" gradientUnits="userSpaceOnUse" x1="243.809" y1="446.671" x2="294.404" y2="446.671"><stop offset="0" stop-color="#F9ED32"/><stop offset="1" stop-color="#FBB040"/></linearGradient><path fill="url(#C)" d="M294.404 447.697c-2.312-8.783-45.39-7.848-50.595 3.81 15.678-6.327 33.3-4.825 50.594-3.81z"/><linearGradient id="D" gradientUnits="userSpaceOnUse" x1="371.286" y1="500.002" x2="387.837" y2="500.002"><stop offset="0" stop-color="#F9ED32"/><stop offset="1" stop-color="#FBB040"/></linearGradient><path fill="url(#D)" d="M386.584 506.48c-9.896-4.407-1.936-17.403-14.706-17.196-2.158 21.594 1.266 22.217 15.688 21.127.76-1.033-.24-3.6-.982-3.93z"/><linearGradient id="E" gradientUnits="userSpaceOnUse" x1="307.312" y1="501.701" x2="329.761" y2="501.701"><stop offset="0" stop-color="#F9ED32"/><stop offset="1" stop-color="#FBB040"/></linearGradient><path fill="url(#E)" d="M308.997 519.453c15.22-1.543 29.206-22.79 14.602-35.178-1.365 4.684-1.77 8.555-3.098 9.734-.41-2.034.406-4.353.51-10.062-10.978 3.646-16.794 23.478-12.015 35.505z"/><linearGradient id="F" gradientUnits="userSpaceOnUse" x1="329.649" y1="514.698" x2="347.184" y2="514.698"><stop offset="0" stop-color="#F9ED32"/><stop offset="1" stop-color="#FBB040"/></linearGradient><path fill="url(#F)" d="M339.665 513.55l-1.778-.42c-.55-5.52.786-14.53-3.032-15.27-6.41 1.942-8.6 28.163 3.45 33.78 10.46-6.13 11.353-25.766 4.394-33.885-3.97.716-2.285 10.128-3.035 15.794z"/></g></g><linearGradient id="G" gradientUnits="userSpaceOnUse" x1="3.017" y1="336.462" x2="627.867" y2="336.462"><stop offset="0" stop-color="#F9ED32"/><stop offset="1" stop-color="#FBB040"/></linearGradient><path clip-path="url(#j)" fill="url(#G)" stroke="#000" stroke-width="4" stroke-miterlimit="10" d="M627.867 429.96L315.443 177.928 3.017 429.96l67.197 65.036 245.23-197.824L560.67 494.996z"/><g clip-path="url(#j)"><linearGradient id="H" gradientUnits="userSpaceOnUse" x1="359.259" y1="278.986" x2="375.509" y2="278.986"><stop offset="0" stop-color="#00AEEF"/><stop offset="1" stop-color="#2E3192"/></linearGradient><path fill="url(#H)" stroke="#000" stroke-width="2" stroke-miterlimit="10" d="M359.26 250.47c0-8.543 3.208-21.632 8.114-21.67v-.002h.022c4.904.04 8.113 13.13 8.113 21.67 0 8.556-6.01 25.855-6.01 42.204 0 16.35 3.864 17.87 3.864 27.376 0 9.492-3.39 9.126-5.98 9.125-2.59 0-5.98.367-5.98-9.125 0-9.506 3.862-11.026 3.862-27.376s-6.007-33.65-6.007-42.203z"/><linearGradient id="I" gradientUnits="userSpaceOnUse" x1="371.707" y1="286.589" x2="407.447" y2="286.589"><stop offset="0" stop-color="#00AEEF"/><stop offset="1" stop-color="#2E3192"/></linearGradient><path fill="url(#I)" stroke="#000" stroke-width="2" stroke-miterlimit="10" d="M376.46 296.665c0-7.224 2.852-17.68 11.596-17.68 8.746 0 11.027 12.167 11.027 12.167s8.363-4.943 8.363-17.49c0-12.547-11.074-14.448-15.258-14.448-4.182 0-20.482 11.32-20.482 30.417s5.324 24.334 11.027 24.334 6.844-4.563 6.844-4.563-5.703 2.282-7.984 0-5.133-5.512-5.133-12.735z"/><linearGradient id="J" gradientUnits="userSpaceOnUse" x1="327.603" y1="286.589" x2="363.343" y2="286.589"><stop offset="0" stop-color="#00AEEF"/><stop offset="1" stop-color="#2E3192"/></linearGradient><path fill="url(#J)" stroke="#000" stroke-width="2" stroke-miterlimit="10" d="M358.59 296.665c0-7.224-2.853-17.68-11.597-17.68s-11.025 12.167-11.025 12.167-8.365-4.943-8.365-17.49c0-12.547 11.076-14.448 15.258-14.448s20.483 11.32 20.483 30.417-5.322 24.334-11.025 24.334-6.846-4.563-6.846-4.563 5.705 2.282 7.986 0 5.133-5.512 5.133-12.735z"/><linearGradient id="K" gradientUnits="userSpaceOnUse" x1="354.982" y1="293.143" x2="380.453" y2="293.143"><stop offset="0" stop-color="#00AEEF"/><stop offset="1" stop-color="#2E3192"/></linearGradient><path fill="url(#K)" stroke="#000" stroke-width="2" stroke-miterlimit="10" d="M365.81 288.018c.443-.062.957-.098 1.574-.098.113 0 .22.007.332.008.113 0 .22-.008.332-.008.62 0 1.133.036 1.574.098 6.852.554 10.83 3.577 10.83 5.986 0 2.66-1.902 4.362-1.902 4.362s.645-1.595-1.64-3.14c-1.987-1.347-7.75-1.437-9.194-1.438-1.443 0-7.205.09-9.195 1.438-2.28 1.545-1.638 3.14-1.638 3.14s-1.9-1.7-1.9-4.362c0-2.41 3.976-5.433 10.828-5.986z"/><g><linearGradient id="L" gradientUnits="userSpaceOnUse" x1="445.259" y1="348.555" x2="461.509" y2="348.555"><stop offset="0" stop-color="#00AEEF"/><stop offset="1" stop-color="#2E3192"/></linearGradient><path fill="url(#L)" stroke="#000" stroke-width="2" stroke-miterlimit="10" d="M445.26 320.038c0-8.542 3.208-21.63 8.114-21.67h.022c4.904.04 8.113 13.128 8.113 21.67 0 8.555-6.01 25.854-6.01 42.203 0 16.35 3.864 17.87 3.864 27.376 0 9.492-3.39 9.127-5.98 9.125-2.59.003-5.98.368-5.98-9.124 0-9.506 3.862-11.025 3.862-27.375 0-16.348-6.007-33.648-6.007-42.202z"/><linearGradient id="M" gradientUnits="userSpaceOnUse" x1="457.707" y1="356.158" x2="493.447" y2="356.158"><stop offset="0" stop-color="#00AEEF"/><stop offset="1" stop-color="#2E3192"/></linearGradient><path fill="url(#M)" stroke="#000" stroke-width="2" stroke-miterlimit="10" d="M462.46 366.233c0-7.224 2.852-17.68 11.596-17.68 8.746 0 11.027 12.167 11.027 12.167s8.363-4.943 8.363-17.49c0-12.547-11.074-14.448-15.258-14.448-4.182 0-20.482 11.32-20.482 30.417s5.324 24.332 11.027 24.332 6.844-4.563 6.844-4.563-5.703 2.28-7.984 0-5.133-5.513-5.133-12.737z"/><linearGradient id="N" gradientUnits="userSpaceOnUse" x1="413.603" y1="356.158" x2="449.343" y2="356.158"><stop offset="0" stop-color="#00AEEF"/><stop offset="1" stop-color="#2E3192"/></linearGradient><path fill="url(#N)" stroke="#000" stroke-width="2" stroke-miterlimit="10" d="M444.59 366.233c0-7.224-2.853-17.68-11.597-17.68s-11.025 12.167-11.025 12.167-8.365-4.943-8.365-17.49c0-12.547 11.076-14.448 15.258-14.448s20.483 11.32 20.483 30.417-5.322 24.332-11.025 24.332-6.846-4.563-6.846-4.563 5.705 2.28 7.986 0 5.133-5.513 5.133-12.737z"/><linearGradient id="O" gradientUnits="userSpaceOnUse" x1="440.982" y1="362.712" x2="466.453" y2="362.712"><stop offset="0" stop-color="#00AEEF"/><stop offset="1" stop-color="#2E3192"/></linearGradient><path fill="url(#O)" stroke="#000" stroke-width="2" stroke-miterlimit="10" d="M451.81 357.586c.443-.062.957-.098 1.574-.098.113 0 .22.007.332.008.113 0 .22-.008.332-.008.62 0 1.133.036 1.574.098 6.852.554 10.83 3.577 10.83 5.986 0 2.66-1.902 4.362-1.902 4.362s.645-1.595-1.64-3.14c-1.987-1.347-7.75-1.437-9.194-1.438-1.443 0-7.205.09-9.195 1.438-2.28 1.545-1.638 3.14-1.638 3.14s-1.9-1.7-1.9-4.362c0-2.41 3.976-5.432 10.828-5.986z"/></g></g></g><g clip-path="url(#g)"><defs><path id="P" d="M63.728 3.5h251.714v655.416H63.728z"/></defs><linearGradient id="Q" gradientUnits="userSpaceOnUse" x1="63.728" y1="331.207" x2="315.442" y2="331.207"><stop offset="0" stop-color="#F9ED32"/><stop offset="1" stop-color="#FBB040"/></linearGradient><use xlink:href="#P" overflow="visible" fill="url(#Q)"/><clipPath id="R"><use xlink:href="#P" overflow="visible"/></clipPath><g clip-path="url(#R)"><path fill="#010101" d="M258.697 74.955c14.58-6.573 16.043-21.167 23.28-29.22-9.77.816-11.994 9.12-26.25 9.376-19.367.35-37.58-8.28-47.562 4.5-12.13-5.577-33.8-14.152-52.124-14.405-14.25-.197-26.486 4.624-30.624 19.844-17.146-1.935-27.32 7.758-36.656 18.843-14.992 18.006-12.408 34.517 1.47 49.03 2.295-18.098 17.6-30.78 30.343-20.062-12.275 6.606-19.85 14.707-22.906 21.314 6.854-2.355 13.8-8.232 21.813-7.688-7.932 3.96-13.37 10.427-17.344 18.344 21.455-6.26 43.084-7.384 61.906 3.47-12.165 30.705-31.175 43.76-51.584 51.796l4.095 5.91s9.505 11.96 42.34-8.372c-10.983 19.668 4.554 14.966 18.498 1.333-3.165 15.667 3.502 18.167 17.335 6-5.333 17.333 3.206 23.577 18.5 4.533-1 4.142 6.62 24.866 17-.533-.08 8.998 5.667 20.833 7 .667 1.272 3.91 3.162 11.562 5.493 18.095.56-3.947.73-8.155.605-12.556l7.938 1c-.335-8.922-.52-17.772-2.968-27.75 7.496 2.295 11.892-2.673 16.188-7.844-9.237-5.624-10.525-7.094-12.406-14.844 5.908-.11 11.61.646 15.47-1-17.73-12.887-14.527-19.89-19.75-24.875 5.862-1.402 9.735-.876 15.374-8.405-10.976-2.074-10.337-17.876-19.344-25.28 1.934-1.677 21.144-.128 32.25-10.626 12.262-11.592 6.755-18.73 21.75-28-14.538-4.577-30.235 13.587-39.127 7.405z"/><path fill="#FFF" d="M175.354 100.674c3.924-.35 8.01-2.883 8.47-7.625.26-5.272-3.014-7.01-7.814-7.22 5.433 11.7-7.51 13.558-9.125.656-4.77-.114-8.83.045-9.72 3.813.358 3.303 12.753 11.858 18.19 10.374z"/><g transform="translate(-5 2.6)"><linearGradient id="S" gradientUnits="userSpaceOnUse" x1="89.682" y1="93.298" x2="170.165" y2="93.298"><stop offset="0" stop-color="#2E3192"/><stop offset="1" stop-color="#00AEEF"/></linearGradient><path fill="url(#S)" d="M133.193 110.85c12.463-2.242 24.932-.878 36.972 2.467-2.71-13.522-9.467-26.827-21.435-30.16-11.595-3.9-14.84-9.615-17.43-16.09-26.11-2.31-52.648 33.27-36.893 52.57 4.917-20.684 30.374-25.473 38.786-8.786z"/><linearGradient id="T" gradientUnits="userSpaceOnUse" x1="115.566" y1="129.936" x2="175.167" y2="129.936"><stop offset="0" stop-color="#2E3192"/><stop offset="1" stop-color="#00AEEF"/></linearGradient><path fill="url(#T)" d="M166.372 139.29c7.724 3.326 11.973-10.073 5.928-16.724-21.844-7.882-46.118 4.42-56.734 14.818 19.518-7.23 35.663-6.953 50.806 1.906z"/></g><g transform="translate(-5 2.6)"><linearGradient id="U" gradientUnits="userSpaceOnUse" x1="147.558" y1="177.141" x2="180.334" y2="177.141"><stop offset="0" stop-color="#2E3192"/><stop offset="1" stop-color="#00AEEF"/></linearGradient><path fill="url(#U)" d="M180.334 166.142c-4.903.5-9.61 3.32-15.567 1.187-4.126 7.545-9.474 14.587-17.21 20.353 13.13 2.17 26.023-3.154 32.777-21.54z"/><linearGradient id="V" gradientUnits="userSpaceOnUse" x1="121.514" y1="199.502" x2="250.146" y2="199.502"><stop offset="0" stop-color="#2E3192"/><stop offset="1" stop-color="#00AEEF"/></linearGradient><path fill="url(#V)" d="M121.514 203.357c.05.065 9.592 11.903 42.336-8.375-10.982 19.668 4.555 14.966 18.5 1.333-3.167 15.667 3.5 18.167 17.333 6-5.333 17.333 3.206 23.577 18.5 4.533-1 4.142 6.62 24.866 17-.533-.08 8.998 5.667 20.833 7 .667.147.454.305.963.47 1.51.022-1.503.055-2.998.115-4.465l7.073 3.722c1.386-10.448-2.092-25.852-7.405-27.49-1.408 9.353-10.274 8.692-15.712 5.237l-.892 18.158-3.163-10.98c-8.638 19.77-18.944 12.578-23.823-4.096-2.744 4.452-5.713 11.603-8.003 10.607-.67-3.13 2.936-6.78 4.84-12.098-10.742 6.706-18.906 7.49-20.1-3.91-9.964 5.222-19.895 11.1-30.338 6.7-8.75 4.242-17.434 8.5-23.728 13.477z"/><linearGradient id="W" gradientUnits="userSpaceOnUse" x1="218.504" y1="61.819" x2="277.029" y2="61.819"><stop offset="0" stop-color="#2E3192"/><stop offset="1" stop-color="#00AEEF"/></linearGradient><path fill="url(#W)" d="M231.916 71.138c15.964-1.923 33.04 3.607 45.113-18.638-23.11 12.48-52.37-6.383-58.526 6.618 4.976 3.536 11.62 1.548 17.244 4.007-1.67 2.73-3.062 5.284-3.832 8.013z"/><linearGradient id="X" gradientUnits="userSpaceOnUse" x1="136.501" y1="106.862" x2="291.695" y2="106.862"><stop offset="0" stop-color="#2E3192"/><stop offset="1" stop-color="#00AEEF"/></linearGradient><path fill="url(#X)" d="M136.524 67.512c4.494 12.93 17.828 15.756 28.578 11.855 9.21-3.318 15.985-3.74 22.44-.424 8.015 4.827 16.563 9.12 22.438 16.09-6.017-2.367-11.412-3.49-16.3-3.6-4.9 14.62-13.95 12.643-23.286 9.526 1.156 7.846 8.543 13.263 11.854 20.744h-3.387c2.785 21.62-6.07 29.483-11.643 41.704 12.114 2.548 21.684-5.81 29.85-22.44 2.723 10.08 5.773 18.71 14.606 24.346 12.136-7.46 11.73-19.046 14.183-30.272 9.438 8.58 11.613 23.763 32.178 22.228-7.105-8.866-10.03-21.076-14.606-31.965 4.977 5.38 10.56 8.19 17.782 4.02-10.09-3.105-7.146-19.245-17.36-22.227-10.097 1.935-21.13 5.93-25.825-4.022 9.946 1.97 19.28 2.638 24.768-4.868 29.514-3.3 37.523-6.933 48.9-29.214-33.806 19.567-60.994-.77-68.8 15.454-.6 1.25-2.4-1.013-3.175.21l3.81-6.773-9.313-.635c5.55-2.393 15.823-3.33 13.548-10.796-21.795-2.84-40.186-16.302-63.508-17.994-13.167-.543-28.427 2.99-27.73 19.052z"/><linearGradient id="Y" gradientUnits="userSpaceOnUse" x1="218.937" y1="167.49" x2="241.791" y2="167.49"><stop offset="0" stop-color="#2E3192"/><stop offset="1" stop-color="#00AEEF"/></linearGradient><path fill="url(#Y)" d="M230.628 163.467l-.156.313c-1.38-.574-.862-13.028-5.02-12.97-1.735 4.275-3.283 7.904-6.38 11.088-1.425 13.888 8.772 20.643 16.105 23.113 8.235-4.728 6.576-17.104 6.275-27.087-2.44-3.005-7.81-8.186-11.714-7.948 2.803 11.232 2.536 14.213.89 13.492z"/><linearGradient id="Z" gradientUnits="userSpaceOnUse" x1="116.836" y1="116.67" x2="167.431" y2="116.67"><stop offset="0" stop-color="#2E3192"/><stop offset="1" stop-color="#00AEEF"/></linearGradient><path fill="url(#Z)" d="M167.43 117.697c-2.31-8.783-45.39-7.848-50.594 3.81 15.68-6.327 33.302-4.825 50.595-3.81z"/><linearGradient id="aa" gradientUnits="userSpaceOnUse" x1="244.313" y1="170.002" x2="260.863" y2="170.002"><stop offset="0" stop-color="#2E3192"/><stop offset="1" stop-color="#00AEEF"/></linearGradient><path fill="url(#aa)" d="M259.61 176.48c-9.896-4.408-1.936-17.403-14.706-17.196-2.158 21.594 1.266 22.217 15.688 21.127.76-1.034-.24-3.6-.982-3.93z"/><linearGradient id="ab" gradientUnits="userSpaceOnUse" x1="180.339" y1="171.702" x2="202.788" y2="171.702"><stop offset="0" stop-color="#2E3192"/><stop offset="1" stop-color="#00AEEF"/></linearGradient><path fill="url(#ab)" d="M182.024 189.454c15.22-1.544 29.206-22.79 14.602-35.178-1.364 4.683-1.77 8.555-3.097 9.734-.412-2.034.405-4.353.51-10.06-10.98 3.643-16.795 23.475-12.016 35.504z"/><linearGradient id="ac" gradientUnits="userSpaceOnUse" x1="202.675" y1="184.698" x2="220.211" y2="184.698"><stop offset="0" stop-color="#2E3192"/><stop offset="1" stop-color="#00AEEF"/></linearGradient><path fill="url(#ac)" d="M212.692 183.548l-1.778-.42c-.55-5.517.786-14.53-3.032-15.27-6.41 1.944-8.6 28.164 3.45 33.782 10.46-6.132 11.353-25.766 4.394-33.886-3.97.716-2.284 10.128-3.034 15.794z"/></g></g><g clip-path="url(#R)"><path fill="#010101" d="M385.67 404.955c14.58-6.572 16.044-21.166 23.282-29.218-9.773.815-11.996 9.12-26.25 9.375-19.37.35-37.58-8.28-47.563 4.5-12.132-5.578-33.802-14.153-52.126-14.406-14.25-.197-26.487 4.625-30.625 19.843-17.147-1.935-27.32 7.76-36.657 18.843-14.992 18.006-12.408 34.518 1.47 49.03 2.295-18.097 17.6-30.78 30.343-20.062-12.275 6.606-19.85 14.708-22.906 21.314 6.854-2.355 13.8-8.232 21.813-7.688-7.932 3.96-13.37 10.428-17.344 18.344 21.454-6.26 43.083-7.383 61.905 3.47-12.165 30.706-31.175 43.76-51.584 51.796l4.096 5.91s9.505 11.96 42.34-8.37c-10.983 19.667 4.554 14.964 18.498 1.33-3.166 15.67 3.502 18.17 17.334 6.002-5.332 17.333 3.207 23.577 18.5 4.533-1 4.143 6.62 24.867 17-.532-.078 8.997 5.668 20.833 7 .667 1.273 3.908 3.162 11.56 5.494 18.094.56-3.946.73-8.154.605-12.556l7.938 1c-.336-8.922-.52-17.77-2.97-27.75 7.497 2.295 11.892-2.672 16.19-7.844-9.24-5.623-10.526-7.094-12.407-14.844 5.908-.11 11.61.646 15.47-1-17.73-12.887-14.528-19.89-19.75-24.875 5.862-1.4 9.735-.876 15.374-8.405-10.977-2.074-10.338-17.875-19.344-25.28 1.934-1.677 21.143-.128 32.25-10.626 12.262-11.59 6.754-18.728 21.75-28-14.54-4.578-30.237 13.586-39.127 7.405z"/><path fill="#FFF" d="M302.326 430.673c3.924-.35 8.01-2.883 8.47-7.625.26-5.27-3.015-7.008-7.814-7.22 5.432 11.702-7.51 13.56-9.125.657-4.77-.113-8.83.045-9.72 3.813.358 3.305 12.754 11.86 18.19 10.375z"/><g transform="translate(-5 2.6)"><linearGradient id="ad" gradientUnits="userSpaceOnUse" x1="216.654" y1="423.298" x2="297.138" y2="423.298"><stop offset="0" stop-color="#2E3192"/><stop offset="1" stop-color="#00AEEF"/></linearGradient><path fill="url(#ad)" d="M260.166 440.85c12.463-2.24 24.932-.878 36.972 2.468-2.71-13.523-9.467-26.828-21.435-30.16-11.595-3.902-14.84-9.615-17.43-16.092-26.11-2.31-52.648 33.273-36.893 52.572 4.917-20.686 30.374-25.475 38.786-8.787z"/><linearGradient id="ae" gradientUnits="userSpaceOnUse" x1="242.538" y1="459.936" x2="302.139" y2="459.936"><stop offset="0" stop-color="#2E3192"/><stop offset="1" stop-color="#00AEEF"/></linearGradient><path fill="url(#ae)" d="M293.345 469.29c7.724 3.326 11.973-10.074 5.928-16.725-21.844-7.88-46.118 4.42-56.734 14.818 19.517-7.23 35.66-6.952 50.805 1.907z"/></g><g transform="translate(-5 2.6)"><linearGradient id="af" gradientUnits="userSpaceOnUse" x1="274.53" y1="507.141" x2="307.307" y2="507.141"><stop offset="0" stop-color="#2E3192"/><stop offset="1" stop-color="#00AEEF"/></linearGradient><path fill="url(#af)" d="M307.307 496.142c-4.903.502-9.61 3.322-15.567 1.188-4.126 7.545-9.474 14.588-17.21 20.353 13.13 2.17 26.023-3.155 32.777-21.54z"/><linearGradient id="ag" gradientUnits="userSpaceOnUse" x1="248.487" y1="529.502" x2="377.119" y2="529.502"><stop offset="0" stop-color="#2E3192"/><stop offset="1" stop-color="#00AEEF"/></linearGradient><path fill="url(#ag)" d="M248.486 533.357c.05.065 9.592 11.903 42.336-8.374-10.982 19.668 4.555 14.965 18.5 1.332-3.167 15.668 3.5 18.168 17.333 6-5.332 17.334 3.207 23.578 18.5 4.534-1 4.14 6.62 24.865 17-.534-.078 8.997 5.668 20.833 7 .667.148.453.305.963.47 1.51.022-1.504.056-2.998.116-4.465l7.073 3.72c1.385-10.446-2.092-25.85-7.406-27.487-1.408 9.353-10.273 8.692-15.71 5.237l-.894 18.158-3.164-10.98c-8.638 19.77-18.944 12.578-23.823-4.096-2.744 4.452-5.713 11.604-8.004 10.608-.67-3.13 2.936-6.78 4.84-12.098-10.742 6.707-18.907 7.49-20.1-3.908-9.964 5.22-19.895 11.1-30.338 6.7-8.75 4.24-17.435 8.5-23.73 13.475z"/><linearGradient id="ah" gradientUnits="userSpaceOnUse" x1="345.477" y1="391.819" x2="404.003" y2="391.819"><stop offset="0" stop-color="#2E3192"/><stop offset="1" stop-color="#00AEEF"/></linearGradient><path fill="url(#ah)" d="M358.89 401.138c15.962-1.922 33.04 3.607 45.112-18.637-23.11 12.48-52.37-6.382-58.525 6.618 4.975 3.537 11.62 1.55 17.244 4.008-1.67 2.73-3.06 5.283-3.83 8.012z"/><linearGradient id="ai" gradientUnits="userSpaceOnUse" x1="263.473" y1="436.861" x2="418.667" y2="436.861"><stop offset="0" stop-color="#2E3192"/><stop offset="1" stop-color="#00AEEF"/></linearGradient><path fill="url(#ai)" d="M263.496 397.513c4.494 12.928 17.828 15.756 28.578 11.855 9.21-3.318 15.985-3.74 22.44-.424 8.016 4.826 16.564 9.12 22.44 16.088-6.02-2.365-11.413-3.49-16.302-3.598-4.9 14.62-13.95 12.643-23.286 9.525 1.156 7.847 8.543 13.263 11.854 20.745h-3.386c2.784 21.62-6.072 29.482-11.644 41.703 12.114 2.55 21.684-5.81 29.848-22.44 2.725 10.08 5.775 18.71 14.607 24.347 12.137-7.46 11.73-19.047 14.184-30.273 9.437 8.58 11.612 23.764 32.177 22.23-7.105-8.868-10.03-21.077-14.607-31.966 4.977 5.38 10.56 8.19 17.783 4.02-10.09-3.106-7.146-19.245-17.36-22.228-10.097 1.936-21.132 5.932-25.825-4.02 9.945 1.968 19.28 2.636 24.768-4.87 29.514-3.3 37.523-6.932 48.9-29.213-33.807 19.566-60.994-.77-68.8 15.453-.6 1.252-2.4-1.012-3.175.21l3.812-6.772-9.314-.635c5.55-2.392 15.822-3.33 13.547-10.796-21.795-2.84-40.186-16.3-63.507-17.994-13.167-.543-28.427 2.99-27.732 19.053z"/><linearGradient id="aj" gradientUnits="userSpaceOnUse" x1="345.909" y1="497.49" x2="368.763" y2="497.49"><stop offset="0" stop-color="#2E3192"/><stop offset="1" stop-color="#00AEEF"/></linearGradient><path fill="url(#aj)" d="M357.6 493.468l-.156.313c-1.38-.573-.86-13.026-5.02-12.968-1.734 4.275-3.283 7.904-6.38 11.088-1.425 13.887 8.772 20.643 16.106 23.113 8.234-4.728 6.576-17.105 6.275-27.088-2.44-3.006-7.81-8.186-11.715-7.95 2.804 11.23 2.537 14.214.89 13.493z"/><linearGradient id="ak" gradientUnits="userSpaceOnUse" x1="243.809" y1="446.67" x2="294.403" y2="446.67"><stop offset="0" stop-color="#2E3192"/><stop offset="1" stop-color="#00AEEF"/></linearGradient><path fill="url(#ak)" d="M294.403 447.696c-2.312-8.783-45.39-7.848-50.595 3.81 15.68-6.325 33.302-4.823 50.595-3.81z"/><linearGradient id="al" gradientUnits="userSpaceOnUse" x1="371.286" y1="500.003" x2="387.837" y2="500.003"><stop offset="0" stop-color="#2E3192"/><stop offset="1" stop-color="#00AEEF"/></linearGradient><path fill="url(#al)" d="M386.583 506.48c-9.895-4.408-1.936-17.402-14.705-17.195-2.158 21.594 1.266 22.217 15.688 21.127.76-1.036-.24-3.602-.983-3.932z"/><linearGradient id="am" gradientUnits="userSpaceOnUse" x1="307.312" y1="501.702" x2="329.761" y2="501.702"><stop offset="0" stop-color="#2E3192"/><stop offset="1" stop-color="#00AEEF"/></linearGradient><path fill="url(#am)" d="M308.996 519.454c15.22-1.545 29.206-22.79 14.602-35.178-1.365 4.682-1.77 8.555-3.098 9.734-.41-2.035.406-4.354.512-10.06-10.978 3.643-16.794 23.475-12.016 35.504z"/><linearGradient id="an" gradientUnits="userSpaceOnUse" x1="329.648" y1="514.698" x2="347.184" y2="514.698"><stop offset="0" stop-color="#2E3192"/><stop offset="1" stop-color="#00AEEF"/></linearGradient><path fill="url(#an)" d="M339.665 513.548l-1.78-.418c-.548-5.518.788-14.53-3.03-15.27-6.412 1.943-8.6 28.162 3.45 33.78 10.46-6.132 11.353-25.765 4.394-33.886-3.97.716-2.285 10.128-3.035 15.794z"/></g></g><linearGradient id="ao" gradientUnits="userSpaceOnUse" x1="3.017" y1="336.462" x2="627.867" y2="336.462"><stop offset="0" stop-color="#2E3192"/><stop offset="1" stop-color="#00AEEF"/></linearGradient><path clip-path="url(#R)" fill="url(#ao)" stroke="#000" stroke-width="4" stroke-miterlimit="10" d="M627.867 429.96L315.443 177.928 3.017 429.96l67.197 65.036 245.23-197.824L560.67 494.996z"/><g clip-path="url(#R)"><linearGradient id="ap" gradientUnits="userSpaceOnUse" x1="258.772" y1="278.986" x2="273.169" y2="278.986" gradientTransform="matrix(1.1 0 0 1 -37.2 0)"><stop offset="0" stop-color="#F9ED32"/><stop offset="1" stop-color="#FBB040"/></linearGradient><path fill="url(#ap)" stroke="#000" stroke-width="2" stroke-miterlimit="10" d="M271.123 250.47c0-8.543-3.208-21.632-8.114-21.67v-.002h-.022c-4.906.04-8.115 13.13-8.115 21.67 0 8.556 6.007 25.855 6.007 42.204 0 16.35-3.862 17.87-3.862 27.376 0 9.492 3.39 9.126 5.98 9.125 2.59 0 5.978.367 5.978-9.125 0-9.506-3.862-11.026-3.862-27.376.002-16.35 6.01-33.65 6.01-42.203z"/><linearGradient id="aq" gradientUnits="userSpaceOnUse" x1="222.936" y1="286.589" x2="258.676" y2="286.589"><stop offset="0" stop-color="#F9ED32"/><stop offset="1" stop-color="#FBB040"/></linearGradient><path fill="url(#aq)" stroke="#000" stroke-width="2" stroke-miterlimit="10" d="M253.923 296.665c0-7.224-2.852-17.68-11.597-17.68S231.3 291.153 231.3 291.153s-8.364-4.943-8.364-17.49c0-12.547 11.075-14.448 15.258-14.448 4.18 0 20.48 11.32 20.48 30.417s-5.322 24.334-11.025 24.334-6.845-4.563-6.845-4.563 5.704 2.282 7.985 0 5.133-5.512 5.133-12.735z"/><linearGradient id="ar" gradientUnits="userSpaceOnUse" x1="228.844" y1="286.589" x2="264.585" y2="286.589" gradientTransform="matrix(-1 0 0 1 531.6 0)"><stop offset="0" stop-color="#F9ED32"/><stop offset="1" stop-color="#FBB040"/></linearGradient><path fill="url(#ar)" stroke="#000" stroke-width="2" stroke-miterlimit="10" d="M271.792 296.665c0-7.224 2.853-17.68 11.597-17.68s11.025 12.167 11.025 12.167 8.365-4.943 8.365-17.49c0-12.547-11.077-14.448-15.26-14.448s-20.48 11.32-20.48 30.417 5.322 24.334 11.025 24.334 6.844-4.563 6.844-4.563-5.705 2.282-7.986 0-5.132-5.512-5.132-12.735z"/><linearGradient id="as" gradientUnits="userSpaceOnUse" x1="249.931" y1="293.143" x2="275.401" y2="293.143"><stop offset="0" stop-color="#F9ED32"/><stop offset="1" stop-color="#FBB040"/></linearGradient><path fill="url(#as)" stroke="#000" stroke-width="2" stroke-miterlimit="10" d="M264.572 288.018c-.442-.062-.957-.098-1.574-.098-.114 0-.22.007-.332.008-.112 0-.22-.008-.333-.008-.618 0-1.132.036-1.574.098-6.852.554-10.83 3.577-10.83 5.986 0 2.66 1.9 4.362 1.9 4.362s-.642-1.595 1.64-3.14c1.99-1.347 7.752-1.437 9.196-1.438 1.443 0 7.206.09 9.195 1.438 2.283 1.545 1.64 3.14 1.64 3.14s1.9-1.7 1.9-4.362c0-2.41-3.976-5.433-10.828-5.986z"/><g><linearGradient id="at" gradientUnits="userSpaceOnUse" x1="182.571" y1="348.555" x2="196.969" y2="348.555" gradientTransform="matrix(1.1 0 0 1 -37.2 0)"><stop offset="0" stop-color="#F9ED32"/><stop offset="1" stop-color="#FBB040"/></linearGradient><path fill="url(#at)" stroke="#000" stroke-width="2" stroke-miterlimit="10" d="M185.123 320.038c0-8.542-3.208-21.63-8.114-21.67h-.022c-4.906.04-8.115 13.128-8.115 21.67 0 8.555 6.007 25.854 6.007 42.203 0 16.35-3.862 17.87-3.862 27.376 0 9.492 3.39 9.127 5.98 9.125 2.59.003 5.978.368 5.978-9.124 0-9.506-3.862-11.025-3.862-27.375.002-16.348 6.01-33.648 6.01-42.202z"/><linearGradient id="au" gradientUnits="userSpaceOnUse" x1="136.936" y1="356.158" x2="172.676" y2="356.158"><stop offset="0" stop-color="#F9ED32"/><stop offset="1" stop-color="#FBB040"/></linearGradient><path fill="url(#au)" stroke="#000" stroke-width="2" stroke-miterlimit="10" d="M167.923 366.233c0-7.224-2.852-17.68-11.597-17.68S145.3 360.72 145.3 360.72s-8.364-4.943-8.364-17.49c0-12.547 11.075-14.448 15.258-14.448 4.18 0 20.48 11.32 20.48 30.417s-5.322 24.332-11.025 24.332-6.845-4.563-6.845-4.563 5.704 2.28 7.985 0 5.133-5.513 5.133-12.737z"/><linearGradient id="av" gradientUnits="userSpaceOnUse" x1="314.844" y1="356.158" x2="350.585" y2="356.158" gradientTransform="matrix(-1 0 0 1 531.6 0)"><stop offset="0" stop-color="#F9ED32"/><stop offset="1" stop-color="#FBB040"/></linearGradient><path fill="url(#av)" stroke="#000" stroke-width="2" stroke-miterlimit="10" d="M185.792 366.233c0-7.224 2.853-17.68 11.597-17.68s11.025 12.167 11.025 12.167 8.365-4.943 8.365-17.49c0-12.547-11.077-14.448-15.26-14.448s-20.48 11.322-20.48 30.418 5.323 24.333 11.026 24.333 6.844-4.563 6.844-4.563-5.704 2.28-7.985 0-5.133-5.513-5.133-12.737z"/><linearGradient id="aw" gradientUnits="userSpaceOnUse" x1="163.931" y1="362.712" x2="189.401" y2="362.712"><stop offset="0" stop-color="#F9ED32"/><stop offset="1" stop-color="#FBB040"/></linearGradient><path fill="url(#aw)" stroke="#000" stroke-width="2" stroke-miterlimit="10" d="M178.572 357.586c-.442-.062-.957-.098-1.574-.098-.114 0-.22.007-.332.008-.112 0-.22-.008-.333-.008-.618 0-1.132.036-1.574.098-6.852.554-10.83 3.577-10.83 5.986 0 2.66 1.9 4.362 1.9 4.362s-.642-1.595 1.64-3.14c1.99-1.347 7.752-1.437 9.196-1.438 1.443 0 7.206.09 9.195 1.438 2.283 1.545 1.64 3.14 1.64 3.14s1.9-1.7 1.9-4.362c0-2.41-3.976-5.432-10.828-5.986z"/></g></g></g><use xlink:href="#e" overflow="visible" fill="none" stroke="#000" stroke-width="7" stroke-miterlimit="10"/><radialGradient id="ax" cx="315.192" cy="575.523" r="180.594" gradientUnits="userSpaceOnUse"><stop offset=".632" stop-color="#FFF"/><stop offset=".705" stop-color="#F4F5F5"/><stop offset=".855" stop-color="#EAEBEB"/><stop offset="1" stop-color="#E6E7E8"/></radialGradient></svg>