<!DOCTYPE svg PUBLIC "-//W3C//DTD SVG 1.1//EN" "http://www.w3.org/Graphics/SVG/1.1/DTD/svg11.dtd" [
	<!ENTITY ns_flows "http://ns.adobe.com/Flows/1.0/">
]><svg xmlns="http://www.w3.org/2000/svg" xmlns:xlink="http://www.w3.org/1999/xlink" width="524" height="659" viewBox="0 0 524 659"><linearGradient id="a" gradientUnits="userSpaceOnUse" x1="37.789" y1="515.304" x2="92.683" y2="536.376"><stop offset="0" stop-color="#8B5E3C"/><stop offset=".497" stop-color="#FDC060"/></linearGradient><linearGradient id="b" gradientUnits="userSpaceOnUse" x1="430.929" y1="536.376" x2="485.824" y2="515.304"><stop offset=".503" stop-color="#FDC060"/><stop offset="1" stop-color="#8B5E3C"/></linearGradient><linearGradient id="c" gradientUnits="userSpaceOnUse" x1="1.5" y1="461.128" x2="107.092" y2="461.128"><stop offset="0" stop-color="#BCBEC0"/><stop offset=".333" stop-color="#E6E7E8"/></linearGradient><linearGradient id="d" gradientUnits="userSpaceOnUse" x1="416.52" y1="461.128" x2="522.112" y2="461.128"><stop offset=".632" stop-color="#E6E7E8"/><stop offset=".687" stop-color="#DBDCDD"/><stop offset=".793" stop-color="#CACBCD"/><stop offset=".898" stop-color="#BFC1C3"/><stop offset="1" stop-color="#BCBEC0"/></linearGradient><defs><path id="e" d="M261.113 3.5H10.093v258.714c0 161.08 140 299 251.713 341 118.286-39 251.714-175.92 251.714-337V3.5H261.113z"/></defs><linearGradient id="f" gradientUnits="userSpaceOnUse" x1="10.092" y1="303.357" x2="513.52" y2="303.357"><stop offset="0" stop-color="#1C75BC"/><stop offset="1" stop-color="#2657A7"/></linearGradient><use xlink:href="#e" overflow="visible" fill="url(#f)"/><clipPath id="g"><use xlink:href="#e" overflow="visible"/></clipPath><g clip-path="url(#g)"><path fill="#E3C920" d="M475.64 237.128H261.805v213.834s9.718-5.977 10.827-29.75c.856 17.1 25.3 24.787 32.12 7.166-20.35-7.437-28.993-32.98-28.993-78.386 0-9.54-.22-99.128-.22-99.128s89.59.22 99.13.22c45.407 0 70.95 8.643 78.386 28.992 17.62-6.82 9.934-31.264-7.166-32.12 23.774-1.11 29.75-10.828 29.75-10.828z"/><path fill="#FEE46F" d="M47.973 237.128h213.833v213.834s-9.718-5.977-10.827-29.75c-.857 17.1-25.3 24.787-32.122 7.166 20.35-7.437 28.994-32.98 28.994-78.386 0-9.54.22-99.128.22-99.128s-89.59.22-99.13.22c-45.407 0-70.95 8.643-78.385 28.992-17.622-6.82-9.934-31.264 7.166-32.12-23.774-1.11-29.75-10.828-29.75-10.828z"/><g><path fill="#FEE46F" d="M475.64 237.128H261.805V23.294s9.718 5.977 10.827 29.75c.856-17.1 25.3-24.788 32.12-7.166-20.35 7.437-28.993 32.978-28.993 78.386 0 9.54-.22 99.128-.22 99.128s89.59-.22 99.13-.22c45.407 0 70.95-8.643 78.386-28.992 17.62 6.82 9.934 31.264-7.166 32.12 23.774 1.11 29.75 10.828 29.75 10.828z"/><path fill="#FFF2AC" d="M47.973 237.128h213.833V23.294s-9.718 5.977-10.827 29.75c-.857-17.1-25.3-24.788-32.122-7.166 20.35 7.437 28.994 32.978 28.994 78.386 0 9.54.22 99.128.22 99.128s-89.59-.22-99.13-.22c-45.407 0-70.95-8.643-78.385-28.992-17.622 6.82-9.934 31.264 7.166 32.12-23.774 1.11-29.75 10.828-29.75 10.828z"/></g></g><g clip-path="url(#g)"><path fill="#E3C920" stroke="#A97C50" stroke-width="2" stroke-miterlimit="10" d="M363.282 161.128l15.642-37 57.5-4.272s-16.02 16.77-32.76 17.52-29.524 26.252-40.382 23.752z"/><path fill="#E3C920" d="M452.923 154.128c-17.5 0-30.486 2-47.993-15.5s-23.507-15.5-19.507-21.5 15-27-1.5-31.5c-8.23-2.244-13.597.61-16.54 5.216-2.826.05-9.46-.216-9.46-.216l6.73 8.972c-.167 2.466.102 4.91.77 7.028 0 0-9 6.5-10.5 13.5-.222 1.034-.4 2.22-.478 3.52-.45 7.495 2.43 18.735 19.478 25.98 1.808.768 3.506 1.43 5.115 2.013-.934 6.853-3.672 16.04-11.365 21.738 0 0 16.25-.75 22.25-9.75 4.5 10 10 15.5 20.5 16-7.135-9.513-8.456-16.042-9.693-22.823 4.566.922 9.065 2.218 14.693 5.323 14.5 8 24 19.5 26 21 .712-5.19 1.5-12.5-7-20 10-.5 16.5-1.5 18.5-9z"/><path fill="#FEE46F" d="M422.673 158.878s14.25.922 19.25-.75c0 0-29.25-5.02-31-10.77-.088-.29-.24-3.345-.426-3.692-1.81-1.47-3.66-3.133-5.567-5.038-17.507-17.5-23.507-15.5-19.507-21.5s15-27-1.5-31.5c-7.217-1.968-12.23-.014-15.34 3.602-1.777 5.4-3.258 11.733-3.75 14.712.138.93.322 1.84.59 2.686 0 0-9 6.5-10.5 13.5-.222 1.034-.4 2.22-.478 3.52-.04.68-.03 2.134-.03 2.134 5.008 11.096 13.646 15.88 23.258 21.815 1.768-2.197 1.5-4.97 1.5-4.97s5 3.75 4.25 11.5-3.875 13.126-3.875 13.126 8.125-6.375 10.125-6.875 6.89 6.774 11.5 10.328c3.233 2.49-7-12.713-6.5-18.963.374-4.677 20.248 2.688 31.875 14.01 6.178 4.53 6.413 5.138 9.375 8.126-3.75-6.502-4.148-9.63-13.25-15.002z"/><path fill="#FFF2AC" d="M358.87 112.824c-1.787 2.16-3.388 4.696-3.946 7.304-.222 1.034-.4 2.22-.478 3.52-.01.182-.02.42-.022.67.914 1.597 2.308 2.62 3.87 2.62 2.755 0 4.988-3.172 4.988-7.083 0-3.634-1.93-6.625-4.41-7.03z"/><path fill="none" stroke="#A97C50" stroke-width="2" stroke-miterlimit="10" d="M452.923 154.128c-17.5 0-30.486 2-47.993-15.5s-23.507-15.5-19.507-21.5 15-27-1.5-31.5c-8.23-2.244-13.597.61-16.54 5.216-2.826.05-9.46-.216-9.46-.216l6.73 8.972c-.167 2.466.102 4.91.77 7.028 0 0-9 6.5-10.5 13.5-.222 1.034-.4 2.22-.478 3.52-.45 7.495 2.43 18.735 19.478 25.98 1.808.768 3.506 1.43 5.115 2.013-.934 6.853-3.672 16.04-11.365 21.738 0 0 16.25-.75 22.25-9.75 4.5 10 10 15.5 20.5 16-7.135-9.513-8.456-16.042-9.693-22.823 4.566.922 9.065 2.218 14.693 5.323 14.5 8 24 19.5 26 21 .712-5.19 1.5-12.5-7-20 10-.5 16.5-1.5 18.5-9z"/><path fill="#E3C920" d="M367.673 124.628c-3.997 6.583 10.25 16.5 25.75 20.5s50.5 2.5 54 0-52.26-23.135-62.88-24.067-12.62-3.432-16.87 3.568z"/><path fill="#FEE46F" d="M443.436 141.854c-12.633-6.556-50.353-20.043-58.893-20.793-10.62-.932-12.62-3.432-16.87 3.568-2.792 4.598 2.42 10.445 11.45 14.842 5.91 2.88 19.045-.976 13.285-13.898 4.953 4.954 28.015 11.556 28.015 11.556l-22.255-3.4.938 2.774 26.817 5.076-26.5-2.2.75 1.887s17.522 3.28 21.75 3.363c7.994.155 18.026-.05 21.513-2.774z"/><ellipse transform="rotate(18.2 380.9 129.5)" fill="#FFF2AC" cx="380.892" cy="129.512" rx="10.75" ry="6.75"/><path fill="none" stroke="#A97C50" stroke-width="2" stroke-linecap="round" stroke-linejoin="round" stroke-miterlimit="10" d="M371.275 120.542c-1.2.678-2.294 1.932-3.602 4.086-3.997 6.583 10.25 16.5 25.75 20.5s50.5 2.5 54 0-52.26-23.135-62.88-24.067"/><ellipse fill="#A97C50" cx="376.041" cy="96.378" rx="2.509" ry="2.5"/><path fill="none" stroke="#A97C50" stroke-linecap="round" stroke-miterlimit="10" d="M386.173 92.878c2.75 2-.75 15-7 16.25s-9.96-1.145-8.75-3.145"/><g><path fill="#E3C920" stroke="#A97C50" stroke-width="2" stroke-miterlimit="10" d="M82.282 161.128l15.642-37 57.5-4.272s-16.02 16.77-32.76 17.52S93.14 163.63 82.282 161.13z"/><path fill="#E3C920" d="M171.923 154.128c-17.5 0-30.486 2-47.993-15.5s-23.507-15.5-19.507-21.5 15-27-1.5-31.5c-8.23-2.244-13.597.61-16.54 5.216-2.826.05-9.46-.216-9.46-.216l6.73 8.972c-.167 2.466.102 4.91.77 7.028 0 0-9 6.5-10.5 13.5-.222 1.034-.4 2.22-.478 3.52-.45 7.495 2.43 18.735 19.478 25.98 1.808.768 3.506 1.43 5.115 2.013-.934 6.853-3.672 16.04-11.365 21.738 0 0 16.25-.75 22.25-9.75 4.5 10 10 15.5 20.5 16-7.135-9.513-8.456-16.042-9.693-22.823 4.566.922 9.065 2.218 14.693 5.323 14.5 8 24 19.5 26 21 .712-5.19 1.5-12.5-7-20 10-.5 16.5-1.5 18.5-9z"/><path fill="#FEE46F" d="M141.673 158.878s14.25.922 19.25-.75c0 0-29.25-5.02-31-10.77-.088-.29-.24-3.345-.426-3.692-1.81-1.47-3.66-3.133-5.567-5.038-17.507-17.5-23.507-15.5-19.507-21.5s15-27-1.5-31.5c-7.217-1.968-12.23-.014-15.34 3.602-1.777 5.4-3.258 11.733-3.75 14.712.138.93.322 1.84.59 2.686 0 0-9 6.5-10.5 13.5-.222 1.034-.4 2.22-.478 3.52-.04.68-.03 2.134-.03 2.134 5.008 11.096 13.646 15.88 23.258 21.815 1.768-2.197 1.5-4.97 1.5-4.97s5 3.75 4.25 11.5-3.875 13.126-3.875 13.126 8.125-6.375 10.125-6.875 6.89 6.774 11.5 10.328c3.233 2.49-7-12.713-6.5-18.963.374-4.677 20.248 2.688 31.875 14.01 6.178 4.53 6.413 5.138 9.375 8.126-3.75-6.502-4.148-9.63-13.25-15.002z"/><path fill="#FFF2AC" d="M77.87 112.824c-1.787 2.16-3.388 4.696-3.946 7.304-.222 1.034-.4 2.22-.478 3.52-.01.182-.02.42-.022.67.914 1.597 2.308 2.62 3.87 2.62 2.755 0 4.988-3.172 4.988-7.083 0-3.634-1.93-6.625-4.41-7.03z"/><path fill="none" stroke="#A97C50" stroke-width="2" stroke-miterlimit="10" d="M171.923 154.128c-17.5 0-30.486 2-47.993-15.5s-23.507-15.5-19.507-21.5 15-27-1.5-31.5c-8.23-2.244-13.597.61-16.54 5.216-2.826.05-9.46-.216-9.46-.216l6.73 8.972c-.167 2.466.102 4.91.77 7.028 0 0-9 6.5-10.5 13.5-.222 1.034-.4 2.22-.478 3.52-.45 7.495 2.43 18.735 19.478 25.98 1.808.768 3.506 1.43 5.115 2.013-.934 6.853-3.672 16.04-11.365 21.738 0 0 16.25-.75 22.25-9.75 4.5 10 10 15.5 20.5 16-7.135-9.513-8.456-16.042-9.693-22.823 4.566.922 9.065 2.218 14.693 5.323 14.5 8 24 19.5 26 21 .712-5.19 1.5-12.5-7-20 10-.5 16.5-1.5 18.5-9z"/><path fill="#E3C920" d="M86.673 124.628c-3.997 6.583 10.25 16.5 25.75 20.5s50.5 2.5 54 0-52.26-23.135-62.88-24.067-12.62-3.432-16.87 3.568z"/><path fill="#FEE46F" d="M162.436 141.854c-12.633-6.556-50.353-20.043-58.893-20.793-10.62-.932-12.62-3.432-16.87 3.568-2.792 4.598 2.42 10.445 11.45 14.842 5.91 2.88 19.045-.976 13.285-13.898 4.953 4.954 28.015 11.556 28.015 11.556l-22.255-3.4.938 2.774 26.817 5.076-26.5-2.2.75 1.887s17.522 3.28 21.75 3.363c7.994.155 18.026-.05 21.513-2.774z"/><ellipse transform="rotate(18.2 99.9 129.5)" fill="#FFF2AC" cx="99.892" cy="129.512" rx="10.75" ry="6.75"/><path fill="none" stroke="#A97C50" stroke-width="2" stroke-linecap="round" stroke-linejoin="round" stroke-miterlimit="10" d="M90.275 120.542c-1.2.678-2.294 1.932-3.602 4.086-3.997 6.583 10.25 16.5 25.75 20.5s50.5 2.5 54 0-52.26-23.135-62.88-24.067"/><ellipse fill="#A97C50" cx="95.041" cy="96.378" rx="2.509" ry="2.5"/><path fill="none" stroke="#A97C50" stroke-linecap="round" stroke-miterlimit="10" d="M105.173 92.878c2.75 2-.75 15-7 16.25s-9.96-1.145-8.75-3.145"/></g><g><path fill="#E3C920" stroke="#A97C50" stroke-width="2" stroke-miterlimit="10" d="M363.282 381.128l15.642-37 57.5-4.272s-16.02 16.77-32.76 17.52-29.524 26.252-40.382 23.752z"/><path fill="#E3C920" d="M452.923 374.128c-17.5 0-30.486 2-47.993-15.5s-23.507-15.5-19.507-21.5 15-27-1.5-31.5c-8.23-2.244-13.597.61-16.54 5.216-2.826.05-9.46-.216-9.46-.216l6.73 8.972c-.167 2.466.102 4.91.77 7.028 0 0-9 6.5-10.5 13.5-.222 1.034-.4 2.22-.478 3.52-.45 7.495 2.43 18.736 19.478 25.98 1.808.768 3.506 1.432 5.115 2.014-.934 6.852-3.672 16.037-11.365 21.736 0 0 16.25-.75 22.25-9.75 4.5 10 10 15.5 20.5 16-7.135-9.514-8.456-16.042-9.693-22.822 4.566.922 9.065 2.217 14.693 5.322 14.5 8 24 19.5 26 21 .712-5.19 1.5-12.5-7-20 10-.5 16.5-1.5 18.5-9z"/><path fill="#FEE46F" d="M422.673 378.878s14.25.922 19.25-.75c0 0-29.25-5.02-31-10.77-.088-.29-.24-3.346-.426-3.692-1.81-1.47-3.66-3.133-5.567-5.038-17.507-17.5-23.507-15.5-19.507-21.5s15-27-1.5-31.5c-7.217-1.968-12.23-.014-15.34 3.602-1.777 5.4-3.258 11.733-3.75 14.712.138.93.322 1.84.59 2.686 0 0-9 6.5-10.5 13.5-.222 1.034-.4 2.22-.478 3.52-.04.68-.03 2.134-.03 2.134 5.008 11.096 13.646 15.88 23.258 21.815 1.768-2.197 1.5-4.97 1.5-4.97s5 3.75 4.25 11.5-3.875 13.126-3.875 13.126 8.125-6.375 10.125-6.875 6.89 6.774 11.5 10.328c3.233 2.49-7-12.713-6.5-18.963.374-4.678 20.248 2.688 31.875 14.01 6.178 4.53 6.413 5.138 9.375 8.125-3.75-6.5-4.148-9.63-13.25-15z"/><path fill="#FFF2AC" d="M358.87 332.824c-1.787 2.16-3.388 4.696-3.946 7.304-.222 1.034-.4 2.22-.478 3.52-.01.182-.02.42-.022.67.914 1.597 2.308 2.62 3.87 2.62 2.755 0 4.988-3.172 4.988-7.083 0-3.634-1.93-6.625-4.41-7.03z"/><path fill="none" stroke="#A97C50" stroke-width="2" stroke-miterlimit="10" d="M452.923 374.128c-17.5 0-30.486 2-47.993-15.5s-23.507-15.5-19.507-21.5 15-27-1.5-31.5c-8.23-2.244-13.597.61-16.54 5.216-2.826.05-9.46-.216-9.46-.216l6.73 8.972c-.167 2.466.102 4.91.77 7.028 0 0-9 6.5-10.5 13.5-.222 1.034-.4 2.22-.478 3.52-.45 7.495 2.43 18.736 19.478 25.98 1.808.768 3.506 1.432 5.115 2.014-.934 6.852-3.672 16.037-11.365 21.736 0 0 16.25-.75 22.25-9.75 4.5 10 10 15.5 20.5 16-7.135-9.514-8.456-16.042-9.693-22.822 4.566.922 9.065 2.217 14.693 5.322 14.5 8 24 19.5 26 21 .712-5.19 1.5-12.5-7-20 10-.5 16.5-1.5 18.5-9z"/><path fill="#E3C920" d="M367.673 344.628c-3.997 6.583 10.25 16.5 25.75 20.5s50.5 2.5 54 0-52.26-23.135-62.88-24.067-12.62-3.432-16.87 3.568z"/><path fill="#FEE46F" d="M443.436 361.854c-12.633-6.556-50.353-20.043-58.893-20.793-10.62-.932-12.62-3.432-16.87 3.568-2.792 4.598 2.42 10.445 11.45 14.842 5.91 2.878 19.045-.976 13.285-13.898 4.953 4.954 28.015 11.556 28.015 11.556l-22.255-3.4.938 2.774 26.817 5.076-26.5-2.2.75 1.887s17.522 3.28 21.75 3.363c7.994.155 18.026-.05 21.513-2.774z"/><ellipse transform="rotate(18.2 381 349.5)" fill="#FFF2AC" cx="380.892" cy="349.512" rx="10.75" ry="6.75"/><path fill="none" stroke="#A97C50" stroke-width="2" stroke-linecap="round" stroke-linejoin="round" stroke-miterlimit="10" d="M371.275 340.542c-1.2.678-2.294 1.932-3.602 4.086-3.997 6.583 10.25 16.5 25.75 20.5s50.5 2.5 54 0-52.26-23.135-62.88-24.067"/><ellipse fill="#A97C50" cx="376.041" cy="316.378" rx="2.509" ry="2.5"/><path fill="none" stroke="#A97C50" stroke-linecap="round" stroke-miterlimit="10" d="M386.173 312.878c2.75 2-.75 15-7 16.25s-9.96-1.145-8.75-3.145"/></g><g><path fill="#E3C920" stroke="#A97C50" stroke-width="2" stroke-miterlimit="10" d="M82.282 381.128l15.642-37 57.5-4.272s-16.02 16.77-32.76 17.52S93.14 383.63 82.282 381.13z"/><path fill="#E3C920" d="M171.923 374.128c-17.5 0-30.486 2-47.993-15.5s-23.507-15.5-19.507-21.5 15-27-1.5-31.5c-8.23-2.244-13.597.61-16.54 5.216-2.826.05-9.46-.216-9.46-.216l6.73 8.972c-.167 2.466.102 4.91.77 7.028 0 0-9 6.5-10.5 13.5-.222 1.034-.4 2.22-.478 3.52-.45 7.495 2.43 18.736 19.478 25.98 1.808.768 3.506 1.432 5.115 2.014-.934 6.852-3.672 16.037-11.365 21.736 0 0 16.25-.75 22.25-9.75 4.5 10 10 15.5 20.5 16-7.135-9.514-8.456-16.042-9.693-22.822 4.566.922 9.065 2.217 14.693 5.322 14.5 8 24 19.5 26 21 .712-5.19 1.5-12.5-7-20 10-.5 16.5-1.5 18.5-9z"/><path fill="#FEE46F" d="M141.673 378.878s14.25.922 19.25-.75c0 0-29.25-5.02-31-10.77-.088-.29-.24-3.346-.426-3.692-1.81-1.47-3.66-3.133-5.567-5.038-17.507-17.5-23.507-15.5-19.507-21.5s15-27-1.5-31.5c-7.217-1.968-12.23-.014-15.34 3.602-1.777 5.4-3.258 11.733-3.75 14.712.138.93.322 1.84.59 2.686 0 0-9 6.5-10.5 13.5-.222 1.034-.4 2.22-.478 3.52-.04.68-.03 2.134-.03 2.134 5.008 11.096 13.646 15.88 23.258 21.815 1.768-2.197 1.5-4.97 1.5-4.97s5 3.75 4.25 11.5-3.875 13.126-3.875 13.126 8.125-6.375 10.125-6.875 6.89 6.774 11.5 10.328c3.233 2.49-7-12.713-6.5-18.963.374-4.678 20.248 2.688 31.875 14.01 6.178 4.53 6.413 5.138 9.375 8.125-3.75-6.5-4.148-9.63-13.25-15z"/><path fill="#FFF2AC" d="M77.87 332.824c-1.787 2.16-3.388 4.696-3.946 7.304-.222 1.034-.4 2.22-.478 3.52-.01.182-.02.42-.022.67.914 1.597 2.308 2.62 3.87 2.62 2.755 0 4.988-3.172 4.988-7.083 0-3.634-1.93-6.625-4.41-7.03z"/><path fill="none" stroke="#A97C50" stroke-width="2" stroke-miterlimit="10" d="M171.923 374.128c-17.5 0-30.486 2-47.993-15.5s-23.507-15.5-19.507-21.5 15-27-1.5-31.5c-8.23-2.244-13.597.61-16.54 5.216-2.826.05-9.46-.216-9.46-.216l6.73 8.972c-.167 2.466.102 4.91.77 7.028 0 0-9 6.5-10.5 13.5-.222 1.034-.4 2.22-.478 3.52-.45 7.495 2.43 18.736 19.478 25.98 1.808.768 3.506 1.432 5.115 2.014-.934 6.852-3.672 16.037-11.365 21.736 0 0 16.25-.75 22.25-9.75 4.5 10 10 15.5 20.5 16-7.135-9.514-8.456-16.042-9.693-22.822 4.566.922 9.065 2.217 14.693 5.322 14.5 8 24 19.5 26 21 .712-5.19 1.5-12.5-7-20 10-.5 16.5-1.5 18.5-9z"/><path fill="#E3C920" d="M86.673 344.628c-3.997 6.583 10.25 16.5 25.75 20.5s50.5 2.5 54 0-52.26-23.135-62.88-24.067-12.62-3.432-16.87 3.568z"/><path fill="#FEE46F" d="M162.436 361.854c-12.633-6.556-50.353-20.043-58.893-20.793-10.62-.932-12.62-3.432-16.87 3.568-2.792 4.598 2.42 10.445 11.45 14.842 5.91 2.878 19.045-.976 13.285-13.898 4.953 4.954 28.015 11.556 28.015 11.556l-22.255-3.4.938 2.774 26.817 5.076-26.5-2.2.75 1.887s17.522 3.28 21.75 3.363c7.994.155 18.026-.05 21.513-2.774z"/><ellipse transform="rotate(18.2 100 349.5)" fill="#FFF2AC" cx="99.892" cy="349.512" rx="10.75" ry="6.75"/><path fill="none" stroke="#A97C50" stroke-width="2" stroke-linecap="round" stroke-linejoin="round" stroke-miterlimit="10" d="M90.275 340.542c-1.2.678-2.294 1.932-3.602 4.086-3.997 6.583 10.25 16.5 25.75 20.5s50.5 2.5 54 0-52.26-23.135-62.88-24.067"/><ellipse fill="#A97C50" cx="95.041" cy="316.378" rx="2.509" ry="2.5"/><path fill="none" stroke="#A97C50" stroke-linecap="round" stroke-miterlimit="10" d="M105.173 312.878c2.75 2-.75 15-7 16.25s-9.96-1.145-8.75-3.145"/></g><g><path fill="#E3C920" stroke="#A97C50" stroke-width="2" stroke-miterlimit="10" d="M221.424 543.795l15.642-37 57.5-4.272s-16.02 16.77-32.76 17.52c-16.74.752-29.523 26.252-40.382 23.752z"/><path fill="#E3C920" d="M311.066 536.795c-17.5 0-30.486 2-47.993-15.5s-23.507-15.5-19.507-21.5 15-27-1.5-31.5c-8.23-2.244-13.597.61-16.54 5.216-2.826.05-9.46-.215-9.46-.215l6.73 8.972c-.167 2.467.102 4.91.77 7.028 0 0-9 6.5-10.5 13.5-.222 1.034-.4 2.22-.478 3.52-.45 7.495 2.43 18.736 19.478 25.98 1.808.768 3.506 1.432 5.115 2.014-.933 6.85-3.67 16.036-11.364 21.735 0 0 16.25-.75 22.25-9.75 4.5 10 10 15.5 20.5 16-7.135-9.514-8.456-16.042-9.693-22.822 4.566.922 9.065 2.217 14.693 5.322 14.5 8 24 19.5 26 21 .712-5.19 1.5-12.5-7-20 10-.5 16.5-1.5 18.5-9z"/><path fill="#FEE46F" d="M280.816 541.545s14.25.922 19.25-.75c0 0-29.25-5.02-31-10.77-.088-.29-.24-3.346-.426-3.692-1.81-1.47-3.66-3.133-5.567-5.038-17.507-17.5-23.507-15.5-19.507-21.5s15-27-1.5-31.5c-7.217-1.968-12.23-.014-15.34 3.603-1.777 5.398-3.258 11.732-3.75 14.71.138.933.322 1.84.59 2.688 0 0-9 6.5-10.5 13.5-.222 1.034-.4 2.22-.478 3.52-.04.682-.03 2.134-.03 2.134 5.008 11.097 13.646 15.88 23.258 21.815 1.768-2.197 1.5-4.97 1.5-4.97s5 3.75 4.25 11.5-3.875 13.126-3.875 13.126 8.126-6.374 10.126-6.874 6.89 6.774 11.5 10.328c3.233 2.49-7-12.713-6.5-18.963.374-4.677 20.248 2.69 31.875 14.01 6.18 4.53 6.414 5.14 9.376 8.126-3.75-6.5-4.15-9.63-13.25-15z"/><path fill="#FFF2AC" d="M217.013 495.49c-1.788 2.16-3.39 4.696-3.947 7.305-.222 1.034-.4 2.22-.478 3.52-.01.183-.02.42-.022.67.914 1.6 2.308 2.62 3.87 2.62 2.755 0 4.988-3.17 4.988-7.082 0-3.635-1.928-6.626-4.41-7.032z"/><path fill="none" stroke="#A97C50" stroke-width="2" stroke-miterlimit="10" d="M311.066 536.795c-17.5 0-30.486 2-47.993-15.5s-23.507-15.5-19.507-21.5 15-27-1.5-31.5c-8.23-2.244-13.597.61-16.54 5.216-2.826.05-9.46-.215-9.46-.215l6.73 8.972c-.167 2.467.102 4.91.77 7.028 0 0-9 6.5-10.5 13.5-.222 1.034-.4 2.22-.478 3.52-.45 7.495 2.43 18.736 19.478 25.98 1.808.768 3.506 1.432 5.115 2.014-.933 6.85-3.67 16.036-11.364 21.735 0 0 16.25-.75 22.25-9.75 4.5 10 10 15.5 20.5 16-7.135-9.514-8.456-16.042-9.693-22.822 4.566.922 9.065 2.217 14.693 5.322 14.5 8 24 19.5 26 21 .712-5.19 1.5-12.5-7-20 10-.5 16.5-1.5 18.5-9z"/><path fill="#E3C920" d="M225.816 507.295c-3.997 6.583 10.25 16.5 25.75 20.5s50.5 2.5 54 0-52.26-23.135-62.88-24.067-12.62-3.433-16.87 3.567z"/><path fill="#FEE46F" d="M301.58 524.52c-12.634-6.555-50.354-20.042-58.894-20.792-10.62-.933-12.62-3.433-16.87 3.567-2.792 4.6 2.42 10.445 11.45 14.843 5.91 2.878 19.045-.977 13.285-13.898 4.954 4.953 28.016 11.556 28.016 11.556l-22.255-3.4.94 2.774 26.816 5.076-26.5-2.2.75 1.887s17.522 3.28 21.75 3.363c7.994.154 18.025-.05 21.513-2.775z"/><ellipse transform="rotate(18.2 239.1 512.2)" fill="#FFF2AC" cx="239.035" cy="512.179" rx="10.75" ry="6.75"/><path fill="none" stroke="#A97C50" stroke-width="2" stroke-linecap="round" stroke-linejoin="round" stroke-miterlimit="10" d="M229.417 503.208c-1.2.678-2.294 1.933-3.602 4.087-3.997 6.583 10.25 16.5 25.75 20.5s50.5 2.5 54 0-52.26-23.135-62.88-24.067"/><ellipse fill="#A97C50" cx="234.184" cy="479.045" rx="2.509" ry="2.5"/><path fill="none" stroke="#A97C50" stroke-linecap="round" stroke-miterlimit="10" d="M244.316 475.545c2.75 2-.75 15-7 16.25s-9.96-1.145-8.75-3.145"/></g></g><use xlink:href="#e" overflow="visible" fill="none" stroke="#000" stroke-width="7" stroke-miterlimit="10"/><radialGradient id="h" cx="261.806" cy="575.523" r="180.594" gradientUnits="userSpaceOnUse"><stop offset=".632" stop-color="#FFF"/><stop offset=".705" stop-color="#F4F5F5"/><stop offset=".855" stop-color="#EAEBEB"/><stop offset="1" stop-color="#E6E7E8"/></radialGradient></svg>