<!DOCTYPE svg PUBLIC "-//W3C//DTD SVG 1.1//EN" "http://www.w3.org/Graphics/SVG/1.1/DTD/svg11.dtd" [
	<!ENTITY ns_flows "http://ns.adobe.com/Flows/1.0/">
]><svg xmlns="http://www.w3.org/2000/svg" xmlns:xlink="http://www.w3.org/1999/xlink" width="524" height="659" viewBox="0 0 524 659"><linearGradient id="a" gradientUnits="userSpaceOnUse" x1="37.789" y1="515.304" x2="92.683" y2="536.376"><stop offset="0" stop-color="#8B5E3C"/><stop offset=".497" stop-color="#FDC060"/></linearGradient><linearGradient id="b" gradientUnits="userSpaceOnUse" x1="430.929" y1="536.376" x2="485.824" y2="515.304"><stop offset=".503" stop-color="#FDC060"/><stop offset="1" stop-color="#8B5E3C"/></linearGradient><linearGradient id="c" gradientUnits="userSpaceOnUse" x1="1.5" y1="461.128" x2="107.092" y2="461.128"><stop offset="0" stop-color="#BCBEC0"/><stop offset=".333" stop-color="#E6E7E8"/></linearGradient><linearGradient id="d" gradientUnits="userSpaceOnUse" x1="416.52" y1="461.128" x2="522.112" y2="461.128"><stop offset=".632" stop-color="#E6E7E8"/><stop offset=".687" stop-color="#DBDCDD"/><stop offset=".793" stop-color="#CACBCD"/><stop offset=".898" stop-color="#BFC1C3"/><stop offset="1" stop-color="#BCBEC0"/></linearGradient><defs><path id="e" d="M261.113 3.5H10.093v258.714c0 161.08 140 299 251.713 341 118.286-39 251.714-175.92 251.714-337V3.5H261.113z"/></defs><linearGradient id="f" gradientUnits="userSpaceOnUse" x1="10.092" y1="303.357" x2="513.52" y2="303.357"><stop offset="0" stop-color="#ED1C24"/><stop offset=".5" stop-color="#BE1E2D"/><stop offset=".58" stop-color="#C71E2B"/><stop offset=".835" stop-color="#E01D26"/><stop offset="1" stop-color="#ED1C24"/></linearGradient><use xlink:href="#e" overflow="visible" fill="url(#f)"/><clipPath id="g"><use xlink:href="#e" overflow="visible"/></clipPath><g clip-path="url(#g)"><defs><path id="h" d="M10.092 3.5h251.714v599.714H10.092z"/></defs><clipPath id="i"><use xlink:href="#h" overflow="visible"/></clipPath><g clip-path="url(#i)"><path fill="#447939" d="M61.724 371.823c15.484-10.935 32.553-8.473 48.037-12.67 5.615-13.724 10.98-27.45 24.812-41.174 13.05 13.9 20.4 27.8 27.978 41.702 14.78 2.344 29.562 2.307 44.343 8.446-7.322 12.846-10.7 25.69-28.506 38.535 2.055 16.013 6.317 32.025 3.167 48.038-20.03-1.36-32.096-9.093-45.397-15.836-15.013 5.982-17.28 11.966-45.398 17.948-7.077-16.364 2.086-32.73 3.167-49.093-11.062-10.47-26.29-16.422-32.203-35.897z"/><path fill="none" stroke="#315126" stroke-width="1.5" d="M61.724 371.823c15.484-10.935 32.553-8.473 48.037-12.67 5.615-13.724 10.98-27.45 24.812-41.174 13.05 13.9 20.4 27.8 27.978 41.702 14.78 2.344 29.562 2.307 44.343 8.446-7.322 12.846-10.7 25.69-28.506 38.535 2.055 16.013 6.317 32.025 3.167 48.038-20.03-1.36-32.096-9.093-45.397-15.836-15.013 5.982-17.28 11.966-45.398 17.948-7.077-16.364 2.086-32.73 3.167-49.093-11.062-10.47-26.29-16.422-32.203-35.897z"/><path fill="#508E40" d="M66.014 373.87c5.84 16.08 26.144 22.494 35.455 33.582-2.913 13.063-12.436 29.394-9.258 46.69 16.832-3.575 31.37-16.61 44.146-23.007 12.16 5.88 28.135 17.807 42.25 20.875 1.193-13.29-4.434-25.432-11.007-44.124 9.774-10.805 29.16-23.7 35.078-37.188-15.542-9.313-34.518-.23-47.85-2.09-8.04-12.167-3.07-25.292-20.82-44.215-13.677 8.48-12.065 33.59-19.696 46.273-13.59 2.06-33.88-8.178-48.298 3.204z"/><path fill="#226432" d="M133.346 324.628c-3.12 17.122-.846 42.562.227 63.103-1.973 1.747-5.323-2.888-7.843-2.143-15.023-5.367-33.884-6.695-59.086-12.114 14.856 9.154 38.36 11.17 57.917 17.65.746 1-.363 6.037.013 7.566-9.177 12.77-18.194 30.642-29.98 52.562 12.577-11.416 22.147-33.412 33.603-50.155 1.438-.262 2.53 6.83 7.75 3.808 11.752 17.042 34.313 36.595 42.364 46.938-12.215-22.627-33.655-38.518-42.997-51.43-.186-2.617 2.613-5.324 3.402-7.263 19.416-4.827 47.265-13.823 62.003-21.46-25.376 3.515-46.956 16.706-62.3 20.933-.897-16.614-2.96-43.376-5.072-67.995z"/><path fill="#FFF" d="M164.922 439.706c2.455 2.745 3.57 6.307 1.227 11.444-1.888 4.134-7.83 6.403-10.954 6.986-7.325 1.368-13.85-4.533-20.888-4.533s-13.563 5.9-20.888 4.533c-3.124-.583-9.067-2.853-10.953-6.986-2.346-5.138-1.13-8.61 1.226-11.444 2.398-2.888 5.902-5.177 8.175-7.767 2.29-2.613.31-7.67.09-7.04.3-.067-5.107-.565-6.98 2.36-1.855 2.904-3.08 6.906-5.187 10.013-2.068 3.05-5.064 5.183-10.653 4.358-4.494-.662-8.326-5.74-9.755-8.58-3.35-6.655.506-14.564-1.45-21.324-1.955-6.76-9.438-11.388-10.16-18.806-.308-3.16.22-9.5 3.667-12.462 4.283-3.682 7.957-3.478 11.334-2.003 3.44 1.5 6.613 4.232 9.732 5.695 3.146 1.475 7.452-1.833 6.506-1.688.53-.24-.948-5.07-4.547-5.54-3.283-.43-7.224-.746-10.688-1.745-3.403-.982-6.248-3.097-7.174-8.5-.745-4.346 2.737-9.422 4.896-11.6 5.064-5.11 13.435-3.956 19.013-7.81 5.577-3.856 7.552-12.162 14.1-15.078 2.79-1.245 8.73-2.682 12.467-.403 4.644 2.833 5.56 6.283 5.23 9.844-.337 3.628-1.875 7.383-2.272 10.704-.4 3.35 3.908 6.316 3.986 5.896 2.282-.492 4.558-2.877 4.557-5.896 0-3.32-1.935-7.076-2.27-10.703-.33-3.56.586-7.01 5.23-9.843 3.733-2.28 9.674-.84 12.466.402 6.548 2.916 8.522 11.22 14.1 15.076 5.578 3.855 13.948 2.7 19.013 7.81 2.158 2.18 5.64 7.255 4.895 11.6-.926 5.403-3.77 7.52-7.173 8.5-3.466 1-7.426 1.18-10.688 1.746-3.643.632-5.043 5.655-4.548 5.54-.946-.145 3.36 3.163 6.506 1.688 3.12-1.463 6.293-4.193 9.732-5.695 3.378-1.474 7.05-1.678 11.335 2.003 3.445 2.96 3.974 9.3 3.666 12.462-.722 7.418-8.204 12.047-10.16 18.806-1.955 6.76 1.9 14.67-1.45 21.325-1.43 2.84-5.26 7.918-9.755 8.58-5.587.825-8.584-1.308-10.652-4.357-2.106-3.106-3.33-7.108-5.188-10.012-1.872-2.926-7.19-2.746-6.98-2.36-1.36 2.446-1.603 4.84.09 7.04 2.304 2.996 5.658 4.953 8.172 7.766z"/><path fill="none" stroke="#E6E7E8" stroke-width=".578" d="M164.922 439.706c2.455 2.745 3.57 6.307 1.227 11.444-1.888 4.134-7.83 6.403-10.954 6.986-7.325 1.368-13.85-4.533-20.888-4.533s-13.563 5.9-20.888 4.533c-3.124-.583-9.067-2.853-10.953-6.986-2.346-5.138-1.13-8.61 1.226-11.444 2.398-2.888 5.902-5.177 8.175-7.767 2.29-2.613.31-7.67.09-7.04.3-.067-5.107-.565-6.98 2.36-1.855 2.904-3.08 6.906-5.187 10.013-2.068 3.05-5.064 5.183-10.653 4.358-4.494-.662-8.326-5.74-9.755-8.58-3.35-6.655.506-14.564-1.45-21.324-1.955-6.76-9.438-11.388-10.16-18.806-.308-3.16.22-9.5 3.667-12.462 4.283-3.682 7.957-3.478 11.334-2.003 3.44 1.5 6.613 4.232 9.732 5.695 3.146 1.475 7.452-1.833 6.506-1.688.53-.24-.948-5.07-4.547-5.54-3.283-.43-7.224-.746-10.688-1.745-3.403-.982-6.248-3.097-7.174-8.5-.745-4.346 2.737-9.422 4.896-11.6 5.064-5.11 13.435-3.956 19.013-7.81 5.577-3.856 7.552-12.162 14.1-15.078 2.79-1.245 8.73-2.682 12.467-.403 4.644 2.833 5.56 6.283 5.23 9.844-.337 3.628-1.875 7.383-2.272 10.704-.4 3.35 3.908 6.316 3.986 5.896 2.282-.492 4.558-2.877 4.557-5.896 0-3.32-1.935-7.076-2.27-10.703-.33-3.56.586-7.01 5.23-9.843 3.733-2.28 9.674-.84 12.466.402 6.548 2.916 8.522 11.22 14.1 15.076 5.578 3.855 13.948 2.7 19.013 7.81 2.158 2.18 5.64 7.255 4.895 11.6-.926 5.403-3.77 7.52-7.173 8.5-3.466 1-7.426 1.18-10.688 1.746-3.643.632-5.043 5.655-4.548 5.54-.946-.145 3.36 3.163 6.506 1.688 3.12-1.463 6.293-4.193 9.732-5.695 3.378-1.474 7.05-1.678 11.335 2.003 3.445 2.96 3.974 9.3 3.666 12.462-.722 7.418-8.204 12.047-10.16 18.806-1.955 6.76 1.9 14.67-1.45 21.325-1.43 2.84-5.26 7.918-9.755 8.58-5.587.825-8.584-1.308-10.652-4.357-2.106-3.106-3.33-7.108-5.188-10.012-1.872-2.926-7.19-2.746-6.98-2.36-1.36 2.446-1.603 4.84.09 7.04 2.304 2.996 5.658 4.953 8.172 7.766z"/><path fill="#E6E7E8" d="M158.71 358.42l-4.13-5.695-2.95-10.658-4.196-4.18-6.058-.772s4.39 14.54.81 22.208c-1.663 3.564-8.59 8.14-8.59 8.14s-6.4-4.112-7.895-8.197c-2.61-7.133.767-21.53.767-21.53l-3.784-1.04-5.137 2.983-4.926 16.72-3.12 2.48-3.66 1.97-6.182.944-9.114-.53-6.693 2.298-2.37 5.626s15.185-.314 21.604 5.196c2.985 2.562 5.527 10.463 5.527 10.463s-4.808 6.347-9.144 6.687c-7.573.595-21.403-7.82-21.403-7.82l-2.02 3.364 1.49 5.75 11.795 9.244 3.187 4.526.894 3.01v6.672l-3.926 8.242-.393 7.066 4.318 4.317s5.432-14.185 12.954-18.057c3.498-1.8 11.776-1.178 11.776-1.178s4.065 6.847 2.747 10.99c-2.303 7.24-15.31 16.88-15.31 16.88l2.356 3.14 5.89.785 14.13-10.205 5.758-.35 5.757.436 14.13 10.206 5.89-.784 3.296-2.576s-13.946-10.205-16.25-17.443c-1.318-4.146 2.75-10.992 2.75-10.992s8.276-.622 11.774 1.178c7.522 3.87 12.953 18.057 12.953 18.057s3.592-.72 4.318-2.623c.84-2.202 1.32-6.286.737-8.57-.753-2.95-3.224-5.7-3.643-8.716-.26-1.855-.472-5.26-.472-5.26l.705-4.044 1.962-3.49s10.075-5.842 12.926-10.375c1.055-1.677.833-5.75.833-5.75l-2.02-3.365s-13.832 8.416-21.404 7.82c-4.337-.34-9.147-6.686-9.147-6.686s2.543-7.902 5.528-10.464c6.42-5.51 21.607-5.196 21.607-5.196l-2.373-5.626-6.693-2.298-9.113.53-6.18-.944-2.866-2.516z"/><path fill="#A7A9AC" d="M110.84 450.196c-1.1.035-2.843-.144-3.877-.638-1.646-.787-2.28-2.292-2.78-3.707-.494-1.4.114-3.184.114-3.184 1.507.244 1.202 1.894 4.054 3.712 1.29.82 3.163 1.047 4.867.52 2.72-.843 5.124-1.607 7.354-3.48 2.23-1.87 4.476-3.923 7.414-5.27 2.05-.938 4.588-1.158 6.313-1.158s4.205.22 6.255 1.158c2.94 1.347 5.24 3.4 7.47 5.27 2.23 1.872 4.522 2.637 7.24 3.48 1.704.528 5.204.306 6.192-.865l2.843-3.366s.436 1.782-.06 3.185c-.5 1.415-.904 2.92-2.55 3.707-2.067.988-5.17.662-7.12.058-3.118-.968-5.5-2.854-7.76-4.75-2.26-1.895-4.392-4.3-7.01-5.5-1.615-.74-3.977-.984-5.5-.984-1.524 0-3.944.243-5.56.984-2.618 1.2-4.75 3.604-7.01 5.5s-4.64 3.782-7.76 4.75c-.973.3-2.024.542-3.126.578zM74.618 390.57c-.34-.976-.653-2.58-.466-3.632.3-1.675 1.567-2.63 2.788-3.442 1.21-.806 3.09-.724 3.09-.724.185 1.41-1.484 1.564-2.437 4.583-.43 1.364-.127 3.098.854 4.482 1.566 2.212 2.97 4.165 5.387 5.673 2.416 1.51 5.012 2.984 7.123 5.262 1.472 1.59 2.388 3.802 2.867 5.342.48 1.54.96 3.815.627 5.89-.477 2.975-1.81 5.563-2.985 8.04-1.177 2.477-1.274 4.72-1.328 7.368-.034 1.66 1.152 4.73 2.553 5.31l4.023 1.67s-1.59.85-3.076.77c-1.498-.08-3.057-.052-4.27-1.32-1.524-1.59-2.074-4.448-2.035-6.348.062-3.036 1.212-5.653 2.404-8.163 1.193-2.51 2.91-5.035 3.335-7.685.264-1.636-.158-3.81-.583-5.17-.424-1.363-1.33-3.462-2.49-4.715-1.88-2.028-4.782-3.31-7.232-4.84-2.45-1.53-4.924-3.17-6.72-5.707-.562-.793-1.087-1.67-1.427-2.644zM119.33 336.63c.815-.63 2.237-1.436 3.296-1.59 1.682-.248 2.99.653 4.147 1.554 1.147.893 1.664 2.704 1.664 2.704-1.28.62-1.954-.914-5.12-.863-1.43.023-2.978.86-3.98 2.23-1.603 2.184-3.01 4.133-3.678 6.903-.667 2.77-1.244 5.7-2.736 8.422-1.04 1.9-2.85 3.47-4.16 4.41-1.31.943-3.314 2.118-5.388 2.46-2.973.488-5.85.043-8.57-.29-2.724-.332-4.883.286-7.41 1.073-1.586.493-4.122 2.59-4.23 4.102l-.31 4.346s-1.31-1.24-1.706-2.673c-.397-1.447-.917-2.916-.1-4.467 1.028-1.95 3.564-3.376 5.38-3.94 2.9-.902 5.745-.64 8.503-.303 2.76.337 5.7 1.167 8.347.73 1.635-.268 3.563-1.357 4.72-2.19 1.158-.833 2.862-2.357 3.684-3.855 1.33-2.425 1.626-5.584 2.303-8.392.675-2.808 1.448-5.674 3.286-8.18.573-.784 1.24-1.558 2.056-2.19zM193.846 390.57c.34-.976.654-2.58.466-3.632-.298-1.675-1.566-2.63-2.787-3.442-1.21-.806-3.09-.724-3.09-.724-.186 1.41 1.484 1.564 2.437 4.583.43 1.364.127 3.098-.854 4.482-1.565 2.212-2.97 4.165-5.386 5.673-2.417 1.51-5.013 2.984-7.123 5.262-1.474 1.59-2.39 3.802-2.87 5.342-.478 1.54-.957 3.815-.625 5.89.477 2.975 1.81 5.563 2.985 8.04 1.177 2.477 1.275 4.72 1.33 7.368.033 1.66-1.154 4.73-2.554 5.31l-4.024 1.67s1.59.85 3.076.77c1.5-.08 3.056-.052 4.27-1.32 1.525-1.59 2.074-4.448 2.035-6.348-.062-3.036-1.21-5.653-2.404-8.163-1.193-2.51-2.91-5.035-3.336-7.685-.262-1.636.16-3.81.584-5.17.423-1.363 1.33-3.462 2.49-4.715 1.88-2.028 4.783-3.31 7.232-4.84s4.924-3.17 6.72-5.707c.562-.793 1.085-1.67 1.426-2.644zM149.135 336.63c-.816-.63-2.24-1.436-3.296-1.59-1.684-.248-2.992.653-4.15 1.554-1.146.893-1.662 2.704-1.662 2.704 1.278.62 1.953-.914 5.12-.863 1.43.023 2.977.86 3.98 2.23 1.603 2.184 3.01 4.133 3.676 6.903.667 2.77 1.244 5.7 2.737 8.422 1.042 1.9 2.85 3.47 4.16 4.41s3.315 2.118 5.388 2.46c2.973.488 5.85.043 8.572-.29 2.722-.332 4.88.286 7.41 1.073 1.585.493 4.12 2.59 4.23 4.102l.31 4.346s1.31-1.24 1.703-2.673c.398-1.447.918-2.916.1-4.467-1.027-1.95-3.562-3.376-5.377-3.94-2.9-.902-5.746-.64-8.506-.303-2.758.337-5.697 1.167-8.345.73-1.635-.268-3.563-1.357-4.72-2.19s-2.863-2.357-3.685-3.855c-1.328-2.425-1.626-5.584-2.302-8.392s-1.448-5.674-3.287-8.18c-.57-.784-1.238-1.558-2.055-2.19z"/><path fill="#D1D3D4" d="M153.117 456.624c-3.363-.02-5.653-1.39-8.753-2.722-3.1-1.332-6.99-2.612-9.838-2.664-3.158-.06-7.156 1.17-10.476 2.55-3.32 1.376-5.98 2.895-9.68 2.604-3.072-.24-5.555-1.513-7.934-3.302-1.625-1.223-2.78-3.358-2.78-3.358 2.174.225 3.6 4.407 10.83 4.807 3.14.17 6.31-1.005 9.614-2.376 3.305-1.372 6.73-2.273 10.425-2.205 3.36.062 6.576.874 9.672 2.204 3.097 1.33 6.105 2.186 8.92 2.606 3.68.55 7.66-1.91 11.64-4.344 0 0-.52.67-1.216 1.448s-1.525 1.668-2.315 2.2c-2.676 1.805-4.838 2.57-8.108 2.55zM81.007 430.735c-.935-3.23-.268-5.816.132-9.166.397-3.35.523-7.443-.233-10.19-.838-3.046-3.15-6.53-5.41-9.323-2.263-2.794-4.473-4.914-5.24-8.545-.64-3.016-.125-5.757.917-8.545.712-1.905 2.434-3.617 2.434-3.617.4 2.148-3.208 4.7-1.542 11.748.724 3.06 2.75 5.768 5 8.547 2.252 2.78 4.088 5.812 5.07 9.374.89 3.238 1.02 6.553.622 9.9-.398 3.346-.365 6.474.027 9.29.515 3.687 4 6.808 7.464 9.934 0 0-.792-.308-1.734-.755s-2.032-.993-2.767-1.6c-2.49-2.056-3.834-3.912-4.743-7.055zM80.188 360.542c1.927-1.772 4.092-2.062 6.458-2.54 5.02-1.016 9.587 1.03 13.95.48 1.772-.225 4.44-.696 6.014-1.752 1.403-.943 2.87-3.15 3.568-4.484 1.053-1.996 1.147-3.757 1.577-6.25.43-2.493.713-4.794 1.953-7.165 1.34-2.557 4.104-6.192 9.564-6.134l2.992 1.243s-.932-.162-2.064-.26c-1.133-.102-2.485-.066-2.965.108-2.47.906-4.51 3.43-6.018 5.977-1.14 1.926-1.593 4.317-2.02 6.796s-.974 4.7-2.215 7.054c-.937 1.776-2.284 3.14-3.756 4.13-1.714 1.15-3.73 1.857-5.854 2.124-5.04.637-9.77-1.208-14.043-.344-2.277.46-4.36 1.083-6.04 2.45-.91.74-1.91 2.295-2.316 3.463-.04.11-.058.67-.04 1.14.02.47.048.87.048.87-1.49-2.254-.204-5.61 1.206-6.905zM188.145 361.124c-1.927-1.772-4.093-2.062-6.46-2.54-5.02-1.016-9.586 1.03-13.95.48-1.77-.225-4.44-.696-6.012-1.752-1.404-.943-2.87-3.15-3.568-4.484-1.053-1.995-1.148-3.757-1.578-6.25-.43-2.492-.713-4.794-1.953-7.164-1.34-2.558-4.104-6.193-9.563-6.135l-2.992 1.242s.933-.16 2.065-.258c1.132-.102 2.485-.067 2.965.107 2.47.907 4.51 3.43 6.018 5.978 1.142 1.926 1.594 4.317 2.02 6.796.428 2.48.973 4.698 2.215 7.052.938 1.776 2.285 3.142 3.757 4.13 1.713 1.15 3.73 1.858 5.854 2.126 5.04.636 9.77-1.208 14.043-.344 2.276.46 4.36 1.083 6.04 2.45.91.74 1.91 2.295 2.315 3.463.04.112.058.67.04 1.14-.02.47-.048.87-.048.87 1.49-2.254.205-5.61-1.205-6.906zM197.586 390.04c-.42 2.583-1.945 4.148-3.512 5.986-3.32 3.9-8.176 5.11-11.268 8.238-1.256 1.27-3.063 3.288-3.648 5.09-.52 1.608-.312 4.25-.037 5.73.405 2.22 1.418 3.664 2.62 5.89 1.2 2.226 2.4 4.212 2.888 6.842.525 2.84.597 7.404-3.733 10.73l-3.12.87s.83-.446 1.782-1.07c.954-.618 1.996-1.482 2.266-1.915 1.384-2.238 1.43-5.482 1.043-8.416-.293-2.22-1.414-4.38-2.608-6.594-1.195-2.213-2.137-4.295-2.614-6.913-.36-1.977-.144-3.88.404-5.568.637-1.965 1.786-3.766 3.29-5.287 3.57-3.612 8.43-5.082 11.26-8.4 1.505-1.77 2.76-3.546 3.236-5.657.26-1.146.084-2.985-.318-4.155-.037-.11-.367-.562-.673-.92-.306-.358-.574-.654-.574-.654 2.564.852 3.626 4.284 3.317 6.176v-.003z"/><path fill="#447939" d="M95.734 406.077c8.23 5.812 17.3 4.503 25.53 6.732 2.982 7.293 5.833 14.588 13.184 21.882 6.936-7.39 10.843-14.775 14.87-22.163 7.854-1.246 15.71-1.227 23.563-4.49-3.89-6.825-5.686-13.652-15.147-20.478 1.092-8.51 3.357-17.02 1.683-25.53-10.645.724-17.057 4.833-24.126 8.417-7.98-3.18-9.183-6.36-24.126-9.54-3.76 8.697 1.108 17.394 1.683 26.09-5.878 5.564-13.97 8.727-17.113 19.077z"/><path fill="none" stroke="#315126" stroke-width=".578" d="M95.734 406.077c8.23 5.812 17.3 4.503 25.53 6.732 2.982 7.293 5.833 14.588 13.184 21.882 6.936-7.39 10.843-14.775 14.87-22.163 7.854-1.246 15.71-1.227 23.563-4.49-3.89-6.825-5.686-13.652-15.147-20.478 1.092-8.51 3.357-17.02 1.683-25.53-10.645.724-17.057 4.833-24.126 8.417-7.98-3.18-9.183-6.36-24.126-9.54-3.76 8.697 1.108 17.394 1.683 26.09-5.878 5.564-13.97 8.727-17.113 19.077z"/><path fill="#FFF" d="M146.234 374.178c1.207-1.376 3.07-2.593 4.344-4.127 1.252-1.505 1.898-3.35.652-6.082-1.003-2.196-4.162-3.402-5.82-3.712-3.894-.727-7.36 2.41-11.102 2.41s-7.208-3.138-11.102-2.41c-1.66.31-4.817 1.516-5.82 3.712-1.246 2.73-.6 4.576.65 6.083 1.275 1.535 3.14 2.752 4.346 4.128 1.218 1.388.165 4.075.047 3.74.16.036-2.714.3-3.71-1.254-.986-1.543-1.637-3.67-2.756-5.32-1.1-1.62-2.692-2.755-5.662-2.317-2.39.353-4.425 3.052-5.185 4.56-1.78 3.538.27 7.74-.77 11.333s-5.017 6.052-5.4 9.994c-.164 1.68.117 5.05 1.948 6.623 2.277 1.957 4.23 1.848 6.024 1.065 1.827-.8 3.513-2.25 5.17-3.027 4.29-.32 3.723 1.63 1.042 3.842-1.703.44-3.84.396-5.68.927-1.81.522-3.32 1.646-3.813 4.518-.397 2.31 1.453 5.007 2.602 6.165 2.69 2.715 7.14 2.103 10.104 4.15 2.964 2.05 4.014 6.463 7.493 8.013 1.482.66 4.64 1.425 6.625.214 2.468-1.506 2.955-3.34 2.78-5.23-.18-1.93-.997-3.924-1.21-5.69-.212-1.778 2.08-3.354 2.12-3.133 1.356.264 1.924 1.636 2.42 3.135-.21 1.766-1.027 3.76-1.206 5.688-.177 1.893.31 3.727 2.778 5.23 1.985 1.212 5.142.448 6.625-.213 3.48-1.55 4.53-5.964 7.494-8.013 2.964-2.048 7.412-1.436 10.104-4.15 1.147-1.158 2.998-3.855 2.603-6.165-.492-2.87-2.004-3.995-3.813-4.518-1.842-.53-3.977-.485-5.68-.927-3.138-2.33-2.86-3.843 1.04-3.842 1.658.777 3.345 2.23 5.173 3.027 1.794.782 3.747.892 6.023-1.065 1.832-1.574 2.112-4.942 1.95-6.623-.385-3.942-4.36-6.4-5.4-9.994-1.04-3.593 1.01-7.795-.77-11.333-.76-1.508-2.796-4.207-5.185-4.56-2.97-.438-4.562.696-5.66 2.317-1.12 1.65-1.77 3.777-2.758 5.32-.995 1.555-3.822 1.46-3.71 1.255-.894-1.36-.36-2.368.052-3.742z"/><path fill="none" stroke="#989898" stroke-width="1.088" d="M146.234 374.178c1.207-1.376 3.07-2.593 4.344-4.127 1.252-1.505 1.898-3.35.652-6.082-1.003-2.196-4.162-3.402-5.82-3.712-3.894-.727-7.36 2.41-11.102 2.41s-7.208-3.138-11.102-2.41c-1.66.31-4.817 1.516-5.82 3.712-1.246 2.73-.6 4.576.65 6.083 1.275 1.535 3.14 2.752 4.346 4.128 1.218 1.388.165 4.075.047 3.74.16.036-2.714.3-3.71-1.254-.986-1.543-1.637-3.67-2.756-5.32-1.1-1.62-2.692-2.755-5.662-2.317-2.39.353-4.425 3.052-5.185 4.56-1.78 3.538.27 7.74-.77 11.333s-5.017 6.052-5.4 9.994c-.164 1.68.117 5.05 1.948 6.623 2.277 1.957 4.23 1.848 6.024 1.065 1.827-.8 3.513-2.25 5.17-3.027 4.29-.32 3.723 1.63 1.042 3.842-1.703.44-3.84.396-5.68.927-1.81.522-3.32 1.646-3.813 4.518-.397 2.31 1.453 5.007 2.602 6.165 2.69 2.715 7.14 2.103 10.104 4.15 2.964 2.05 4.014 6.463 7.493 8.013 1.482.66 4.64 1.425 6.625.214 2.468-1.506 2.955-3.34 2.78-5.23-.18-1.93-.997-3.924-1.21-5.69-.212-1.778 2.08-3.354 2.12-3.133 1.356.264 1.924 1.636 2.42 3.135-.21 1.766-1.027 3.76-1.206 5.688-.177 1.893.31 3.727 2.778 5.23 1.985 1.212 5.142.448 6.625-.213 3.48-1.55 4.53-5.964 7.494-8.013 2.964-2.048 7.412-1.436 10.104-4.15 1.147-1.158 2.998-3.855 2.603-6.165-.492-2.87-2.004-3.995-3.813-4.518-1.842-.53-3.977-.485-5.68-.927-3.138-2.33-2.86-3.843 1.04-3.842 1.658.777 3.345 2.23 5.173 3.027 1.794.782 3.747.892 6.023-1.065 1.832-1.574 2.112-4.942 1.95-6.623-.385-3.942-4.36-6.4-5.4-9.994-1.04-3.593 1.01-7.795-.77-11.333-.76-1.508-2.796-4.207-5.185-4.56-2.97-.438-4.562.696-5.66 2.317-1.12 1.65-1.77 3.777-2.758 5.32-.995 1.555-3.822 1.46-3.71 1.255-.894-1.36-.36-2.368.052-3.742z"/><path fill="#989898" d="M121.837 364.476c-.586-.02-1.512.076-2.062.338-.874.418-1.212 1.218-1.478 1.97-.263.746.06 1.693.06 1.693.802-.13.64-1.006 2.155-1.973.685-.437 1.682-.557 2.586-.276 1.445.448 2.724.854 3.908 1.85 1.186.993 2.38 2.084 3.94 2.8 1.09.5 2.438.615 3.354.615s2.235-.116 3.324-.615c1.562-.716 2.785-1.807 3.97-2.8 1.187-.995 2.403-1.4 3.848-1.85.905-.28 2.766-.163 3.29.46l1.512 1.79s.23-.948-.032-1.694c-.265-.75-.48-1.55-1.354-1.97-1.1-.526-2.747-.353-3.784-.03-1.657.513-2.923 1.516-4.124 2.523-1.2 1.008-2.333 2.286-3.724 2.923-.86.394-2.114.523-2.925.523-.81 0-2.095-.13-2.953-.523-1.392-.637-2.523-1.915-3.725-2.923-1.2-1.007-2.467-2.01-4.124-2.524-.517-.16-1.076-.288-1.66-.307zM102.586 396.164c-.18.52-.348 1.37-.248 1.93.158.89.833 1.397 1.48 1.83.645.428 1.645.383 1.645.383.097-.75-.79-.83-1.297-2.436-.23-.723-.067-1.645.454-2.38.832-1.176 1.578-2.214 2.862-3.016 1.284-.803 2.664-1.585 3.786-2.797.782-.844 1.27-2.02 1.523-2.838.256-.82.51-2.028.334-3.132-.253-1.58-.962-2.955-1.587-4.27s-.678-2.51-.706-3.918c-.017-.88.613-2.513 1.357-2.822l2.14-.887s-.847-.45-1.636-.41c-.795.044-1.623.03-2.27.702-.81.846-1.1 2.364-1.08 3.374.032 1.615.644 3.005 1.277 4.338.635 1.334 1.547 2.677 1.773 4.084.14.87-.085 2.025-.31 2.75s-.708 1.838-1.325 2.504c-1 1.078-2.542 1.76-3.843 2.572-1.303.813-2.617 1.685-3.57 3.033-.297.423-.575.89-.756 1.407zM126.347 424.83c.434.335 1.19.763 1.752.845.893.13 1.59-.348 2.203-.826.61-.476.885-1.44.885-1.44-.68-.328-1.04.487-2.722.46-.76-.013-1.58-.457-2.115-1.185-.85-1.16-1.6-2.196-1.953-3.67s-.66-3.028-1.454-4.476c-.553-1.01-1.515-1.844-2.21-2.345-.696-.5-1.762-1.125-2.864-1.306-1.58-.262-3.11-.025-4.556.15s-2.595-.15-3.938-.57c-.842-.26-2.19-1.375-2.247-2.18l-.166-2.31s-.696.66-.905 1.423c-.214.768-.49 1.55-.055 2.374.546 1.036 1.895 1.794 2.858 2.094 1.54.48 3.054.342 4.52.162s3.028-.62 4.435-.39c.87.144 1.895.723 2.51 1.165.614.442 1.52 1.253 1.957 2.05.706 1.288.864 2.967 1.224 4.46.358 1.49.77 3.014 1.745 4.346.304.42.66.83 1.092 1.166zM165.95 396.164c.18.52.347 1.37.247 1.93-.16.89-.833 1.397-1.48 1.83-.645.428-1.644.383-1.644.383-.1-.75.79-.83 1.296-2.436.228-.723.066-1.645-.455-2.38-.832-1.176-1.578-2.214-2.862-3.016-1.284-.803-2.663-1.585-3.785-2.797-.782-.844-1.27-2.02-1.524-2.838-.255-.82-.51-2.028-.333-3.132.255-1.58.962-2.955 1.588-4.27.625-1.317.678-2.51.706-3.918.02-.88-.612-2.513-1.356-2.822l-2.14-.887s.847-.45 1.636-.41c.797.044 1.624.03 2.27.702.81.846 1.102 2.364 1.08 3.374-.032 1.615-.643 3.005-1.277 4.338-.633 1.334-1.546 2.677-1.77 4.084-.14.87.084 2.025.31 2.75.225.723.706 1.838 1.323 2.504 1 1.078 2.542 1.76 3.844 2.572s2.616 1.685 3.57 3.033c.296.423.574.89.755 1.407zM142.188 424.83c-.435.335-1.19.763-1.752.845-.895.13-1.59-.348-2.204-.826-.61-.476-.885-1.44-.885-1.44.68-.328 1.038.487 2.72.46.76-.013 1.584-.457 2.117-1.185.852-1.16 1.6-2.196 1.954-3.67.354-1.472.66-3.028 1.454-4.476.554-1.01 1.515-1.844 2.21-2.345.696-.5 1.762-1.125 2.864-1.306 1.58-.262 3.108-.025 4.555.15 1.448.178 2.596-.15 3.94-.57.84-.26 2.188-1.375 2.247-2.18l.164-2.31s.697.66.907 1.423c.21.768.487 1.55.053 2.374-.546 1.036-1.894 1.794-2.858 2.094-1.54.48-3.053.342-4.52.162-1.466-.18-3.028-.62-4.436-.39-.868.144-1.893.723-2.51 1.165-.614.442-1.52 1.253-1.956 2.05-.706 1.288-.864 2.967-1.223 4.46-.36 1.49-.77 3.014-1.747 4.346-.304.42-.658.83-1.092 1.166z"/><path fill="#CDCCCC" d="M144.303 361.06c-1.787.01-3.004.74-4.65 1.447-1.648.708-3.715 1.387-5.23 1.415-1.68.032-3.803-.622-5.566-1.354-1.764-.732-3.177-1.54-5.145-1.384-1.633.128-2.952.804-4.216 1.754-.864.65-1.478 1.786-1.478 1.786 1.154-.12 1.912-2.343 5.755-2.555 1.668-.092 3.354.532 5.11 1.26 1.756.73 3.576 1.21 5.54 1.173 1.785-.034 3.494-.465 5.14-1.172 1.646-.706 3.245-1.16 4.74-1.384 1.956-.293 4.07 1.015 6.186 2.31 0 0-.277-.357-.647-.77-.37-.415-.812-.888-1.23-1.17-1.422-.96-2.57-1.366-4.31-1.356zM105.982 374.818c-.497 1.717-.143 3.09.07 4.872s.278 3.955-.124 5.415c-.444 1.618-1.674 3.47-2.876 4.954-1.202 1.484-2.376 2.61-2.784 4.54-.34 1.604-.066 3.06.487 4.542.38 1.012 1.294 1.922 1.294 1.922.212-1.142-1.706-2.497-.82-6.243.385-1.625 1.46-3.063 2.657-4.54 1.196-1.48 2.172-3.09 2.693-4.983.474-1.72.543-3.482.33-5.26-.21-1.78-.192-3.442.016-4.94.273-1.958 2.127-3.617 3.967-5.28 0 0-.42.166-.922.403s-1.08.526-1.47.85c-1.32 1.092-2.036 2.078-2.518 3.748zM105.546 412.122c1.023.94 2.175 1.096 3.433 1.35 2.667.54 5.094-.547 7.412-.255.94.118 2.36.37 3.196.93.746.502 1.524 1.676 1.896 2.385.56 1.06.61 1.996.84 3.32.228 1.325.378 2.55 1.037 3.808.713 1.36 2.182 3.29 5.084 3.26l1.59-.66s-.495.087-1.098.14c-.602.053-1.32.034-1.575-.06-1.312-.48-2.395-1.82-3.197-3.176-.606-1.023-.847-2.294-1.073-3.61-.228-1.317-.517-2.498-1.177-3.75-.498-.942-1.214-1.668-1.996-2.193-.91-.61-1.982-.986-3.11-1.13-2.68-.337-5.19.644-7.463.185-1.21-.245-2.317-.576-3.21-1.303-.484-.394-1.015-1.22-1.23-1.84-.02-.06-.03-.356-.022-.606.01-.25.025-.462.025-.462-.792 1.195-.11 2.98.64 3.668zM162.918 411.813c-1.023.94-2.174 1.096-3.432 1.35-2.67.54-5.095-.548-7.414-.255-.94.12-2.36.37-3.195.93-.746.502-1.525 1.676-1.896 2.385-.56 1.06-.61 1.996-.837 3.32-.23 1.325-.38 2.55-1.038 3.808-.712 1.36-2.18 3.292-5.083 3.262l-1.59-.66s.495.085 1.097.137c.6.054 1.32.035 1.574-.058 1.313-.48 2.397-1.822 3.2-3.176.604-1.024.845-2.295 1.072-3.61.227-1.318.517-2.5 1.177-3.75.497-.943 1.213-1.67 1.995-2.194.91-.612 1.982-.987 3.11-1.13 2.68-.338 5.192.643 7.464.183 1.21-.244 2.317-.574 3.21-1.302.483-.394 1.014-1.22 1.23-1.84.02-.06.03-.356.02-.606s-.023-.462-.023-.462c.79 1.195.108 2.978-.642 3.668zM167.936 396.445c-.223-1.373-1.033-2.205-1.865-3.182-1.765-2.07-4.345-2.715-5.987-4.378-.667-.675-1.628-1.748-1.94-2.705-.276-.854-.164-2.26-.02-3.046.216-1.18.754-1.947 1.393-3.13s1.276-2.238 1.535-3.636c.28-1.508.318-3.935-1.983-5.703l-1.658-.462s.44.238.946.57c.507.33 1.06.788 1.204 1.018.735 1.19.76 2.915.554 4.474-.154 1.18-.75 2.328-1.386 3.503-.635 1.177-1.135 2.284-1.39 3.675-.19 1.05-.075 2.063.216 2.96.338 1.042.95 2 1.748 2.81 1.898 1.92 4.48 2.7 5.983 4.464.8.94 1.467 1.883 1.72 3.006.138.608.045 1.586-.168 2.208-.02.06-.195.3-.357.49-.163.19-.306.347-.305.347 1.362-.454 1.925-2.277 1.76-3.282z"/><circle fill="#E6E7E8" cx="133.894" cy="393.979" r="13.899"/><circle fill="none" stroke="#A7A9AC" stroke-width=".535" cx="133.894" cy="393.979" r="13.899"/><path fill="#F1F2F2" d="M133.915 403.586c-5.586 0-9.82-4.36-9.82-9.58s4.256-9.645 9.82-9.645c5.563 0 9.82 4.426 9.82 9.646 0 5.22-4.235 9.58-9.82 9.58z"/></g><linearGradient id="j" gradientUnits="userSpaceOnUse" x1="10.092" y1="261.687" x2="261.806" y2="261.687"><stop offset="0" stop-color="#FFF"/><stop offset=".297" stop-color="#FBFBFB"/><stop offset=".505" stop-color="#F2F2F3"/><stop offset=".686" stop-color="#E5E6E7"/><stop offset=".85" stop-color="#D3D4D6"/><stop offset="1" stop-color="#BCBEC0"/></linearGradient><path clip-path="url(#i)" fill="url(#j)" d="M10.092 422.2l126.29-200.618 125.424 199.246v-120.41L136.38 101.172 10.093 301.79"/><g clip-path="url(#i)"><path fill="#447939" d="M20.228 45.958c10.345-7.306 21.75-5.66 32.095-8.464 3.75-9.17 7.335-18.34 16.576-27.51 8.718 9.288 13.63 18.575 18.69 27.863 9.877 1.566 19.75 1.54 29.627 5.643-4.893 8.583-7.15 17.164-19.046 25.746 1.374 10.698 4.223 21.397 2.118 32.095-13.384-.91-21.444-6.075-30.332-10.58-10.03 3.996-11.544 7.994-30.33 11.99-4.73-10.933 1.394-21.866 2.115-32.8-7.388-6.994-17.56-10.97-21.512-23.982z"/><path fill="none" stroke="#315126" stroke-width="1.5" d="M20.228 45.958c10.345-7.306 21.75-5.66 32.095-8.464 3.75-9.17 7.335-18.34 16.576-27.51 8.718 9.288 13.63 18.575 18.69 27.863 9.877 1.566 19.75 1.54 29.627 5.643-4.893 8.583-7.15 17.164-19.046 25.746 1.374 10.698 4.223 21.397 2.118 32.095-13.384-.91-21.444-6.075-30.332-10.58-10.03 3.996-11.544 7.994-30.33 11.99-4.73-10.933 1.394-21.866 2.115-32.8-7.388-6.994-17.56-10.97-21.512-23.982z"/><path fill="#508E40" d="M23.094 47.326c3.9 10.744 17.467 15.03 23.688 22.437-1.946 8.728-8.308 19.64-6.185 31.195 11.245-2.39 20.958-11.1 29.494-15.372 8.124 3.928 18.8 11.897 28.23 13.947.797-8.88-2.963-16.992-7.355-29.48 6.53-7.22 19.482-15.835 23.436-24.846-10.383-6.222-23.06-.155-31.968-1.396-5.372-8.13-2.052-16.898-13.91-29.54-9.14 5.664-8.063 22.442-13.16 30.915-9.08 1.376-22.635-5.464-32.268 2.14z"/><path fill="#226432" d="M68.08 14.426c-2.085 11.44-.564 28.436.152 42.16-1.32 1.167-3.558-1.93-5.24-1.43-10.038-3.587-22.64-4.475-39.477-8.095 9.926 6.117 25.63 7.465 38.695 11.793.497.668-.243 4.033.008 5.055-6.13 8.532-12.156 20.473-20.03 35.12 8.403-7.628 14.797-22.324 22.45-33.51.962-.176 1.69 4.563 5.18 2.543 7.85 11.387 22.925 24.45 28.303 31.36-8.16-15.117-22.484-25.733-28.726-34.36-.124-1.75 1.745-3.558 2.272-4.852 12.973-3.226 31.58-9.236 41.426-14.338C96.138 48.217 81.72 57.03 71.47 59.855c-.6-11.1-1.978-28.98-3.39-45.43z"/><path fill="#FFF" d="M89.177 91.312c1.64 1.834 2.385 4.213.818 7.646-1.26 2.762-5.23 4.278-7.318 4.667-4.894.915-9.253-3.028-13.955-3.028-4.7 0-9.062 3.943-13.955 3.028-2.088-.39-6.06-1.906-7.318-4.667-1.567-3.433-.755-5.752.818-7.646 1.603-1.93 3.943-3.46 5.462-5.19 1.53-1.745.208-5.123.06-4.703.2-.045-3.412-.378-4.663 1.577-1.24 1.94-2.06 4.614-3.466 6.69-1.38 2.037-3.383 3.46-7.117 2.91-3.003-.442-5.563-3.835-6.517-5.73-2.238-4.448.337-9.732-.97-14.25-1.307-4.515-6.306-7.607-6.787-12.563-.207-2.112.145-6.347 2.448-8.326 2.862-2.46 5.316-2.323 7.573-1.338 2.3 1.003 4.42 2.827 6.503 3.805 2.103.985 4.98-1.225 4.347-1.128.354-.16-.633-3.387-3.038-3.7-2.193-.287-4.825-.5-7.14-1.167-2.274-.656-4.175-2.07-4.794-5.68-.497-2.903 1.83-6.294 3.27-7.75 3.385-3.414 8.977-2.643 12.704-5.218 3.726-2.576 5.045-8.125 9.42-10.073 1.865-.832 5.834-1.793 8.33-.27 3.102 1.893 3.714 4.197 3.494 6.577-.226 2.423-1.253 4.932-1.52 7.15-.267 2.238 2.612 4.22 2.664 3.94 1.525-.33 3.046-1.922 3.045-3.94-.002-2.217-1.294-4.727-1.518-7.15-.222-2.38.392-4.684 3.493-6.577 2.496-1.523 6.464-.562 8.33.27 4.374 1.947 5.693 7.496 9.42 10.072 3.727 2.576 9.32 1.804 12.703 5.218 1.442 1.456 3.768 4.847 3.27 7.75-.617 3.61-2.518 5.024-4.79 5.68-2.316.668-4.962.788-7.142 1.166-2.434.423-3.37 3.778-3.037 3.7-.633-.096 2.244 2.115 4.347 1.13 2.084-.98 4.204-2.803 6.502-3.806 2.256-.985 4.71-1.122 7.572 1.338 2.304 1.978 2.656 6.214 2.45 8.326-.482 4.956-5.48 8.05-6.787 12.564-1.307 4.517 1.268 9.8-.97 14.248-.954 1.896-3.515 5.29-6.517 5.732-3.733.55-5.736-.874-7.118-2.912-1.408-2.076-2.226-4.75-3.466-6.69-1.252-1.955-4.805-1.834-4.663-1.577-.91 1.634-1.07 3.234.06 4.703 1.543 2.002 3.784 3.31 5.464 5.19z"/><path fill="none" stroke="#E6E7E8" stroke-width=".578" d="M89.177 91.312c1.64 1.834 2.385 4.213.818 7.646-1.26 2.762-5.23 4.278-7.318 4.667-4.894.915-9.253-3.028-13.955-3.028-4.7 0-9.062 3.943-13.955 3.028-2.088-.39-6.06-1.906-7.318-4.667-1.567-3.433-.755-5.752.818-7.646 1.603-1.93 3.943-3.46 5.462-5.19 1.53-1.745.208-5.123.06-4.703.2-.045-3.412-.378-4.663 1.577-1.24 1.94-2.06 4.614-3.466 6.69-1.38 2.037-3.383 3.46-7.117 2.91-3.003-.442-5.563-3.835-6.517-5.73-2.238-4.448.337-9.732-.97-14.25-1.307-4.515-6.306-7.607-6.787-12.563-.207-2.112.145-6.347 2.448-8.326 2.862-2.46 5.316-2.323 7.573-1.338 2.3 1.003 4.42 2.827 6.503 3.805 2.103.985 4.98-1.225 4.347-1.128.354-.16-.633-3.387-3.038-3.7-2.193-.287-4.825-.5-7.14-1.167-2.274-.656-4.175-2.07-4.794-5.68-.497-2.903 1.83-6.294 3.27-7.75 3.385-3.414 8.977-2.643 12.704-5.218 3.726-2.576 5.045-8.125 9.42-10.073 1.865-.832 5.834-1.793 8.33-.27 3.102 1.893 3.714 4.197 3.494 6.577-.226 2.423-1.253 4.932-1.52 7.15-.267 2.238 2.612 4.22 2.664 3.94 1.525-.33 3.046-1.922 3.045-3.94-.002-2.217-1.294-4.727-1.518-7.15-.222-2.38.392-4.684 3.493-6.577 2.496-1.523 6.464-.562 8.33.27 4.374 1.947 5.693 7.496 9.42 10.072 3.727 2.576 9.32 1.804 12.703 5.218 1.442 1.456 3.768 4.847 3.27 7.75-.617 3.61-2.518 5.024-4.79 5.68-2.316.668-4.962.788-7.142 1.166-2.434.423-3.37 3.778-3.037 3.7-.633-.096 2.244 2.115 4.347 1.13 2.084-.98 4.204-2.803 6.502-3.806 2.256-.985 4.71-1.122 7.572 1.338 2.304 1.978 2.656 6.214 2.45 8.326-.482 4.956-5.48 8.05-6.787 12.564-1.307 4.517 1.268 9.8-.97 14.248-.954 1.896-3.515 5.29-6.517 5.732-3.733.55-5.736-.874-7.118-2.912-1.408-2.076-2.226-4.75-3.466-6.69-1.252-1.955-4.805-1.834-4.663-1.577-.91 1.634-1.07 3.234.06 4.703 1.543 2.002 3.784 3.31 5.464 5.19z"/><path fill="#E6E7E8" d="M85.027 37.003l-2.76-3.805-1.97-7.12-2.806-2.795-4.046-.515s2.933 9.715.54 14.837c-1.11 2.38-5.738 5.438-5.738 5.438s-4.275-2.748-5.274-5.477c-1.744-4.766.513-14.384.513-14.384l-2.53-.696-3.43 1.994-3.292 11.17-2.084 1.66-2.447 1.315-4.13.63-6.09-.353-4.472 1.536-1.584 3.76s10.146-.21 14.436 3.47c1.994 1.71 3.693 6.99 3.693 6.99s-3.214 4.24-6.11 4.468c-5.06.397-14.3-5.225-14.3-5.225l-1.35 2.25.996 3.84 7.88 6.177 2.13 3.024.598 2.01v4.46l-2.623 5.506-.263 4.72 2.886 2.885s3.628-9.476 8.653-12.062c2.34-1.203 7.87-.787 7.87-.787s2.715 4.576 1.835 7.344c-1.54 4.836-10.23 11.277-10.23 11.277l1.575 2.1 3.934.524 9.44-6.818 3.848-.233 3.846.29 9.44 6.82 3.936-.524 2.202-1.722S78.428 88.16 76.89 83.324c-.882-2.77 1.835-7.343 1.835-7.343s5.53-.415 7.868.788c5.025 2.586 8.654 12.063 8.654 12.063s2.4-.48 2.885-1.75c.562-1.473.882-4.2.492-5.728-.503-1.97-2.154-3.81-2.434-5.822-.172-1.24-.314-3.515-.314-3.515l.47-2.702 1.313-2.333s6.73-3.902 8.635-6.93c.704-1.12.556-3.843.556-3.843l-1.35-2.247s-9.24 5.623-14.3 5.225c-2.896-.226-6.11-4.467-6.11-4.467s1.7-5.28 3.693-6.99c4.29-3.682 14.436-3.472 14.436-3.472l-1.586-3.76-4.472-1.535-6.09.355-4.13-.63-1.915-1.682z"/><path fill="#A7A9AC" d="M53.043 98.32c-.734.024-1.9-.095-2.59-.425-1.1-.526-1.524-1.53-1.858-2.477-.33-.937.076-2.127.076-2.127 1.008.164.805 1.266 2.71 2.48.86.55 2.112.7 3.25.348 1.818-.563 3.425-1.074 4.914-2.324 1.49-1.25 2.99-2.622 4.953-3.52 1.37-.628 3.066-.775 4.22-.775 1.15 0 2.808.145 4.177.773 1.964.9 3.502 2.27 4.99 3.52 1.49 1.25 3.022 1.762 4.838 2.325 1.14.353 3.477.204 4.138-.578l1.9-2.25s.29 1.19-.04 2.127c-.335.946-.605 1.95-1.704 2.477-1.382.66-3.455.443-4.758.04-2.083-.647-3.675-1.908-5.186-3.174-1.51-1.267-2.933-2.874-4.68-3.675-1.08-.495-2.66-.658-3.677-.658-1.02 0-2.635.163-3.716.658-1.75.8-3.173 2.408-4.683 3.675-1.51 1.266-3.102 2.526-5.186 3.173-.648.202-1.35.363-2.087.388zM28.843 58.482c-.23-.65-.438-1.722-.313-2.426.2-1.12 1.048-1.758 1.863-2.3.808-.538 2.064-.483 2.064-.483.123.942-.992 1.045-1.63 3.063-.287.91-.084 2.07.572 2.994 1.045 1.48 1.982 2.783 3.597 3.79 1.615 1.01 3.35 1.995 4.76 3.516.982 1.063 1.595 2.54 1.916 3.57.32 1.028.64 2.548.418 3.934-.318 1.987-1.208 3.717-1.993 5.372-.787 1.654-.853 3.154-.89 4.923-.02 1.108.772 3.16 1.707 3.548l2.688 1.115s-1.063.568-2.056.516c-1-.054-2.042-.035-2.852-.882-1.02-1.064-1.386-2.973-1.36-4.242.04-2.028.81-3.777 1.605-5.454.797-1.677 1.944-3.365 2.228-5.135.176-1.092-.106-2.543-.39-3.454-.283-.91-.89-2.313-1.664-3.15-1.257-1.354-3.195-2.21-4.832-3.233-1.637-1.02-3.29-2.118-4.49-3.813-.372-.53-.722-1.116-.95-1.768zM58.715 22.445c.545-.42 1.495-.96 2.2-1.063 1.126-.165 2 .438 2.772 1.04.768.596 1.112 1.805 1.112 1.805-.856.415-1.306-.61-3.422-.577-.955.016-1.99.575-2.66 1.49-1.07 1.46-2.01 2.76-2.456 4.612-.445 1.85-.83 3.808-1.828 5.627-.695 1.268-1.904 2.316-2.78 2.946-.874.63-2.214 1.414-3.6 1.643-1.985.326-3.907.03-5.726-.193-1.82-.222-3.262.19-4.95.716-1.06.33-2.755 1.73-2.827 2.74l-.206 2.904s-.875-.83-1.14-1.787c-.266-.966-.612-1.948-.065-2.984.686-1.304 2.38-2.255 3.592-2.633 1.938-.603 3.84-.427 5.683-.202 1.843.226 3.807.78 5.575.49 1.093-.18 2.38-.907 3.154-1.464s1.912-1.575 2.46-2.576c.89-1.62 1.087-3.73 1.54-5.606.45-1.875.967-3.79 2.194-5.465.386-.526.83-1.043 1.377-1.465zM108.5 58.482c.23-.65.438-1.722.312-2.426-.2-1.12-1.047-1.758-1.862-2.3-.81-.538-2.064-.483-2.064-.483-.124.942.992 1.045 1.63 3.063.287.91.084 2.07-.57 2.994-1.048 1.48-1.985 2.783-3.6 3.79-1.614 1.01-3.35 1.995-4.76 3.516-.983 1.063-1.596 2.54-1.915 3.57-.32 1.028-.64 2.548-.418 3.934.318 1.987 1.208 3.717 1.995 5.372.785 1.654.852 3.154.888 4.923.022 1.108-.77 3.16-1.706 3.548l-2.69 1.115s1.064.568 2.057.516c1-.054 2.04-.035 2.852-.882 1.02-1.064 1.386-2.973 1.36-4.242-.042-2.028-.81-3.777-1.607-5.454-.797-1.677-1.944-3.365-2.23-5.135-.174-1.092.108-2.543.392-3.454s.89-2.313 1.665-3.15c1.255-1.354 3.194-2.21 4.83-3.233 1.637-1.02 3.29-2.118 4.49-3.813.373-.53.723-1.116.95-1.768zM78.63 22.445c-.547-.42-1.498-.96-2.203-1.063-1.124-.165-2 .438-2.772 1.04-.766.596-1.11 1.805-1.11 1.805.853.415 1.305-.61 3.42-.577.955.016 1.99.575 2.66 1.49 1.07 1.46 2.01 2.76 2.456 4.612.446 1.85.832 3.808 1.83 5.627.694 1.268 1.903 2.316 2.778 2.946.875.63 2.215 1.414 3.6 1.643 1.986.326 3.91.03 5.727-.193 1.818-.222 3.263.19 4.95.716 1.06.33 2.755 1.73 2.827 2.74l.207 2.904s.874-.83 1.137-1.787c.267-.966.614-1.948.067-2.984-.687-1.304-2.38-2.255-3.593-2.633-1.937-.603-3.838-.427-5.682-.202-1.843.226-3.807.78-5.575.49-1.093-.18-2.382-.907-3.154-1.464-.774-.557-1.913-1.575-2.462-2.576-.888-1.62-1.087-3.73-1.538-5.606-.452-1.875-.968-3.79-2.196-5.465-.384-.526-.83-1.043-1.375-1.465z"/><path fill="#D1D3D4" d="M81.29 102.615c-2.248-.012-3.777-.93-5.85-1.818-2.07-.89-4.67-1.746-6.57-1.78-2.11-.04-4.782.783-7 1.703s-3.995 1.935-6.467 1.74c-2.054-.16-3.712-1.01-5.302-2.205-1.084-.817-1.855-2.244-1.855-2.244 1.452.152 2.403 2.946 7.235 3.213 2.097.115 4.215-.67 6.423-1.586 2.208-.917 4.497-1.52 6.966-1.474 2.243.042 4.393.585 6.46 1.474 2.07.888 4.08 1.46 5.96 1.74 2.458.37 5.118-1.275 7.777-2.9 0 0-.348.447-.813.966-.466.52-1.02 1.115-1.548 1.47-1.788 1.204-3.232 1.714-5.417 1.702zM33.11 85.318c-.623-2.158-.177-3.886.09-6.124s.35-4.972-.155-6.808c-.56-2.035-2.104-4.364-3.615-6.23-1.512-1.866-2.988-3.282-3.502-5.708-.427-2.015-.082-3.846.613-5.71.477-1.27 1.627-2.416 1.627-2.416.268 1.436-2.143 3.14-1.03 7.85.484 2.043 1.837 3.853 3.342 5.71 1.503 1.858 2.73 3.883 3.386 6.263.595 2.165.684 4.38.416 6.615-.267 2.236-.244 4.326.018 6.208.345 2.463 2.674 4.548 4.987 6.637 0 0-.528-.205-1.158-.504-.63-.298-1.358-.662-1.85-1.067-1.663-1.375-2.562-2.615-3.17-4.715zM32.565 38.42c1.286-1.184 2.733-1.377 4.313-1.697 3.355-.678 6.406.69 9.32.32 1.185-.148 2.967-.463 4.018-1.168.938-.63 1.918-2.105 2.385-2.997.705-1.333.768-2.51 1.055-4.175.288-1.666.477-3.203 1.305-4.787.896-1.71 2.74-4.138 6.39-4.1l2 .83s-.623-.106-1.38-.17c-.757-.07-1.66-.046-1.98.07-1.65.606-3.013 2.292-4.02 3.994-.763 1.287-1.065 2.885-1.35 4.54-.286 1.657-.65 3.14-1.48 4.713-.626 1.187-1.526 2.098-2.51 2.76-1.145.768-2.492 1.24-3.91 1.42-3.367.425-6.526-.808-9.383-.23-1.52.308-2.913.723-4.035 1.636-.607.494-1.275 1.533-1.547 2.313-.026.075-.04.448-.026.762s.03.58.03.58c-.996-1.507-.138-3.748.805-4.615zM104.692 38.81c-1.287-1.184-2.734-1.377-4.314-1.697-3.355-.678-6.406.69-9.32.32-1.185-.148-2.968-.463-4.02-1.17-.937-.63-1.916-2.104-2.383-2.996-.703-1.333-.767-2.51-1.054-4.175-.286-1.666-.476-3.204-1.304-4.787-.896-1.71-2.742-4.138-6.39-4.1l-2 .83s.622-.107 1.38-.17c.757-.07 1.66-.046 1.98.07 1.65.605 3.013 2.292 4.02 3.994.764 1.286 1.065 2.883 1.35 4.54.286 1.656.65 3.14 1.48 4.71.626 1.188 1.526 2.1 2.51 2.76 1.144.77 2.492 1.24 3.91 1.42 3.367.425 6.526-.808 9.383-.23 1.52.308 2.91.723 4.033 1.636.61.495 1.275 1.534 1.548 2.314.027.075.04.448.027.762-.013.314-.03.58-.03.58.995-1.504.137-3.746-.805-4.612zM111 58.128c-.282 1.727-1.3 2.772-2.347 4-2.22 2.605-5.463 3.413-7.528 5.504-.84.848-2.047 2.197-2.437 3.4-.35 1.075-.21 2.84-.025 3.83.27 1.482.946 2.448 1.75 3.935s1.603 2.813 1.93 4.57c.35 1.898.398 4.948-2.495 7.17l-2.085.582s.557-.3 1.19-.717c.638-.413 1.335-.99 1.515-1.28.924-1.495.954-3.663.696-5.622-.195-1.483-.944-2.925-1.742-4.405-.8-1.48-1.428-2.87-1.746-4.62-.242-1.32-.097-2.592.27-3.72.425-1.312 1.193-2.514 2.2-3.53 2.384-2.415 5.63-3.397 7.52-5.614 1.007-1.18 1.845-2.368 2.163-3.778.173-.765.056-1.994-.214-2.776-.024-.075-.245-.376-.45-.615-.203-.24-.382-.437-.382-.437 1.713.57 2.422 2.862 2.217 4.126v-.002z"/><path fill="#447939" d="M42.95 68.844c5.5 3.883 11.56 3.01 17.057 4.498 1.994 4.873 3.898 9.747 8.81 14.62 4.634-4.937 7.244-9.87 9.935-14.807 5.248-.832 10.495-.82 15.744-3-2.6-4.56-3.8-9.122-10.122-13.682.73-5.686 2.243-11.372 1.124-17.057-7.11.483-11.396 3.228-16.118 5.623-5.33-2.126-6.136-4.25-16.12-6.374-2.512 5.812.74 11.622 1.124 17.432-3.927 3.718-9.335 5.83-11.433 12.746z"/><path fill="none" stroke="#315126" stroke-width=".578" d="M42.95 68.844c5.5 3.883 11.56 3.01 17.057 4.498 1.994 4.873 3.898 9.747 8.81 14.62 4.634-4.937 7.244-9.87 9.935-14.807 5.248-.832 10.495-.82 15.744-3-2.6-4.56-3.8-9.122-10.122-13.682.73-5.686 2.243-11.372 1.124-17.057-7.11.483-11.396 3.228-16.118 5.623-5.33-2.126-6.136-4.25-16.12-6.374-2.512 5.812.74 11.622 1.124 17.432-3.927 3.718-9.335 5.83-11.433 12.746z"/><path fill="#FFF" d="M76.69 47.532c.807-.92 2.052-1.733 2.902-2.758.837-1.006 1.27-2.24.436-4.064-.67-1.467-2.78-2.273-3.89-2.48-2.6-.486-4.917 1.61-7.416 1.61s-4.815-2.097-7.417-1.61c-1.107.207-3.22 1.013-3.89 2.48-.83 1.825-.4 3.058.437 4.064.852 1.025 2.096 1.838 2.902 2.758.813.927.11 2.722.03 2.5.11.023-1.812.2-2.477-.84-.66-1.03-1.094-2.45-1.842-3.554-.734-1.083-1.798-1.84-3.782-1.548-1.597.236-2.957 2.04-3.464 3.047-1.19 2.363.178 5.17-.516 7.572-.694 2.4-3.352 4.042-3.607 6.676-.11 1.123.078 3.373 1.3 4.425 1.522 1.31 2.828 1.235 4.026.713 1.222-.534 2.35-1.503 3.455-2.022 2.866-.213 2.486 1.09.695 2.567-1.138.295-2.564.265-3.794.62-1.21.35-2.22 1.1-2.55 3.018-.263 1.543.973 3.345 1.74 4.12 1.798 1.812 4.77 1.403 6.75 2.77 1.98 1.37 2.682 4.32 5.007 5.355.99.442 3.1.952 4.427.143 1.648-1.006 1.975-2.23 1.856-3.495-.12-1.288-.665-2.62-.806-3.8-.143-1.19 1.388-2.243 1.415-2.095.905.176 1.285 1.092 1.616 2.094-.14 1.18-.688 2.513-.807 3.8-.118 1.265.207 2.49 1.856 3.496 1.326.81 3.436.3 4.426-.143 2.325-1.036 3.026-3.984 5.007-5.354 1.98-1.368 4.95-.96 6.75-2.772.768-.774 2.003-2.576 1.738-4.12-.328-1.917-1.34-2.668-2.547-3.017-1.23-.355-2.656-.324-3.794-.62-2.097-1.557-1.91-2.567.695-2.566 1.108.52 2.235 1.49 3.456 2.023 1.2.522 2.504.596 4.025-.712 1.225-1.05 1.412-3.3 1.303-4.424-.256-2.634-2.913-4.277-3.607-6.677s.675-5.21-.516-7.573c-.507-1.008-1.867-2.81-3.463-3.047-1.984-.292-3.05.465-3.782 1.548-.75 1.103-1.184 2.524-1.843 3.555-.665 1.04-2.553.975-2.478.84-.595-.91-.24-1.584.036-2.5z"/><path fill="none" stroke="#989898" stroke-width="1.088" d="M76.69 47.532c.807-.92 2.052-1.733 2.902-2.758.837-1.006 1.27-2.24.436-4.064-.67-1.467-2.78-2.273-3.89-2.48-2.6-.486-4.917 1.61-7.416 1.61s-4.815-2.097-7.417-1.61c-1.107.207-3.22 1.013-3.89 2.48-.83 1.825-.4 3.058.437 4.064.852 1.025 2.096 1.838 2.902 2.758.813.927.11 2.722.03 2.5.11.023-1.812.2-2.477-.84-.66-1.03-1.094-2.45-1.842-3.554-.734-1.083-1.798-1.84-3.782-1.548-1.597.236-2.957 2.04-3.464 3.047-1.19 2.363.178 5.17-.516 7.572-.694 2.4-3.352 4.042-3.607 6.676-.11 1.123.078 3.373 1.3 4.425 1.522 1.31 2.828 1.235 4.026.713 1.222-.534 2.35-1.503 3.455-2.022 2.866-.213 2.486 1.09.695 2.567-1.138.295-2.564.265-3.794.62-1.21.35-2.22 1.1-2.55 3.018-.263 1.543.973 3.345 1.74 4.12 1.798 1.812 4.77 1.403 6.75 2.77 1.98 1.37 2.682 4.32 5.007 5.355.99.442 3.1.952 4.427.143 1.648-1.006 1.975-2.23 1.856-3.495-.12-1.288-.665-2.62-.806-3.8-.143-1.19 1.388-2.243 1.415-2.095.905.176 1.285 1.092 1.616 2.094-.14 1.18-.688 2.513-.807 3.8-.118 1.265.207 2.49 1.856 3.496 1.326.81 3.436.3 4.426-.143 2.325-1.036 3.026-3.984 5.007-5.354 1.98-1.368 4.95-.96 6.75-2.772.768-.774 2.003-2.576 1.738-4.12-.328-1.917-1.34-2.668-2.547-3.017-1.23-.355-2.656-.324-3.794-.62-2.097-1.557-1.91-2.567.695-2.566 1.108.52 2.235 1.49 3.456 2.023 1.2.522 2.504.596 4.025-.712 1.225-1.05 1.412-3.3 1.303-4.424-.256-2.634-2.913-4.277-3.607-6.677s.675-5.21-.516-7.573c-.507-1.008-1.867-2.81-3.463-3.047-1.984-.292-3.05.465-3.782 1.548-.75 1.103-1.184 2.524-1.843 3.555-.665 1.04-2.553.975-2.478.84-.595-.91-.24-1.584.036-2.5z"/><path fill="#989898" d="M60.39 41.05c-.392-.014-1.01.05-1.376.225-.585.28-.81.814-.988 1.316-.175.5.04 1.132.04 1.132.536-.086.428-.672 1.44-1.317.457-.292 1.123-.372 1.728-.185.965.3 1.82.57 2.61 1.235.793.664 1.59 1.394 2.633 1.872.728.333 1.63.41 2.24.41s1.495-.076 2.222-.41c1.044-.478 1.86-1.208 2.652-1.872s1.605-.935 2.57-1.235c.604-.188 1.848-.11 2.2.308l1.008 1.194s.154-.632-.02-1.13c-.18-.503-.322-1.038-.907-1.317-.733-.35-1.835-.235-2.528-.02-1.106.342-1.952 1.013-2.755 1.685-.803.673-1.56 1.527-2.488 1.953-.574.263-1.412.35-1.954.35-.54 0-1.4-.086-1.974-.35-.93-.426-1.686-1.28-2.488-1.953-.803-.672-1.648-1.343-2.755-1.686-.345-.106-.718-.19-1.11-.205zM47.53 62.22c-.122.347-.233.916-.166 1.29.105.595.556.934.988 1.223.43.287 1.1.256 1.1.256.063-.5-.53-.555-.867-1.628-.153-.484-.045-1.1.303-1.592.557-.785 1.055-1.478 1.913-2.014.858-.536 1.78-1.06 2.53-1.868.522-.564.85-1.35 1.02-1.896s.34-1.354.222-2.09c-.17-1.057-.644-1.976-1.06-2.855-.42-.88-.454-1.676-.473-2.617-.014-.59.407-1.68.904-1.885l1.43-.593s-.565-.302-1.093-.273c-.53.027-1.084.017-1.515.467-.54.565-.736 1.58-.723 2.254.02 1.08.43 2.008.854 2.9s1.034 1.787 1.185 2.728c.094.582-.056 1.354-.207 1.837-.15.483-.472 1.23-.884 1.673-.67.72-1.7 1.176-2.568 1.72-.87.54-1.75 1.124-2.387 2.025-.2.28-.385.592-.506.938zM63.404 81.372c.29.225.795.51 1.17.565.598.087 1.063-.232 1.474-.552.407-.318.59-.96.59-.96-.454-.22-.692.324-1.818.306-.507-.007-1.056-.304-1.412-.79-.57-.776-1.07-1.467-1.306-2.452-.237-.984-.44-2.024-.972-2.99-.37-.676-1.012-1.232-1.477-1.567s-1.178-.75-1.914-.872c-1.056-.174-2.077-.016-3.044.102-.966.118-1.733-.102-2.63-.38-.564-.176-1.465-.92-1.503-1.458l-.11-1.543s-.465.44-.604.95c-.144.512-.327 1.033-.036 1.585.364.692 1.265 1.198 1.91 1.398 1.028.32 2.04.228 3.02.108s2.022-.413 2.962-.26c.58.096 1.266.483 1.677.78.41.295 1.016.836 1.308 1.368.473.86.578 1.983.818 2.98.24.997.515 2.014 1.166 2.904.203.282.44.555.73.78zM89.862 62.22c.12.347.232.916.166 1.29-.105.595-.557.934-.99 1.223-.43.287-1.097.256-1.097.256-.065-.5.528-.555.866-1.628.153-.484.045-1.1-.304-1.592-.555-.785-1.053-1.478-1.912-2.014-.856-.536-1.78-1.06-2.528-1.868-.523-.564-.85-1.35-1.018-1.896-.172-.547-.342-1.354-.224-2.09.17-1.057.642-1.976 1.06-2.855.42-.88.453-1.676.473-2.617.012-.59-.41-1.68-.906-1.885l-1.43-.593s.566-.302 1.094-.273c.532.027 1.085.017 1.516.467.542.565.737 1.58.723 2.254-.022 1.08-.43 2.008-.855 2.9-.423.89-1.033 1.787-1.184 2.728-.093.582.058 1.354.208 1.837s.472 1.23.885 1.673c.667.72 1.698 1.176 2.567 1.72.87.54 1.75 1.124 2.386 2.025.2.28.386.592.506.938zM73.987 81.372c-.29.225-.795.51-1.17.565-.598.087-1.063-.232-1.473-.552-.407-.318-.592-.96-.592-.96.455-.22.694.324 1.818.306.508-.007 1.058-.304 1.415-.79.567-.776 1.067-1.467 1.305-2.452.235-.984.44-2.024.972-2.99.37-.676 1.01-1.232 1.477-1.567.464-.333 1.175-.75 1.912-.872 1.056-.174 2.077-.016 3.044.102.966.118 1.732-.102 2.63-.38.563-.176 1.463-.92 1.503-1.458l.108-1.543s.466.44.605.95c.14.512.326 1.033.035 1.585-.364.692-1.266 1.198-1.91 1.398-1.03.32-2.04.228-3.02.108-.98-.12-2.023-.413-2.962-.26-.58.096-1.266.483-1.678.78-.41.295-1.016.836-1.307 1.368-.47.86-.577 1.983-.816 2.98-.24.997-.515 2.014-1.167 2.904-.204.282-.44.555-.73.78z"/><path fill="#CDCCCC" d="M75.4 38.767c-1.193.007-2.007.494-3.107.967s-2.48.927-3.493.946c-1.12.02-2.54-.416-3.72-.905-1.178-.49-2.12-1.03-3.437-.925-1.09.085-1.972.537-2.816 1.172-.577.434-.987 1.193-.987 1.193.77-.08 1.277-1.565 3.846-1.707 1.114-.06 2.24.356 3.414.843 1.173.49 2.39.81 3.7.785 1.193-.022 2.335-.31 3.435-.784 1.1-.47 2.168-.775 3.167-.924 1.307-.196 2.72.678 4.133 1.542 0 0-.184-.238-.432-.514-.247-.276-.542-.593-.822-.782-.95-.64-1.718-.912-2.88-.905zM49.797 47.96c-.332 1.146-.095 2.064.047 3.254.14 1.19.186 2.643-.082 3.618-.298 1.08-1.12 2.32-1.923 3.31-.803.992-1.587 1.745-1.86 3.035-.228 1.07-.044 2.044.325 3.034.253.677.864 1.285.864 1.285.142-.763-1.14-1.668-.548-4.17.257-1.087.976-2.048 1.775-3.036.8-.99 1.45-2.064 1.8-3.33.315-1.15.363-2.327.22-3.515-.14-1.188-.13-2.3.012-3.3.182-1.308 1.42-2.416 2.648-3.527 0 0-.28.11-.615.27-.336.158-.722.35-.983.566-.883.73-1.36 1.39-1.683 2.505zM49.506 72.882c.684.63 1.453.732 2.293.902 1.782.36 3.403-.366 4.952-.17.63.078 1.577.247 2.136.62.498.336 1.02 1.12 1.267 1.594.374.708.408 1.333.56 2.218.153.885.254 1.703.694 2.544.475.908 1.456 2.2 3.395 2.178l1.063-.44s-.33.057-.732.09c-.402.037-.883.025-1.054-.037-.877-.322-1.6-1.217-2.136-2.122-.406-.684-.566-1.533-.718-2.413-.152-.88-.346-1.668-.786-2.504-.333-.63-.812-1.114-1.334-1.465-.608-.41-1.324-.66-2.078-.755-1.79-.225-3.468.43-4.985.123-.81-.164-1.55-.384-2.146-.87-.324-.263-.68-.814-.823-1.23-.013-.04-.02-.237-.014-.404s.017-.31.017-.31c-.53.8-.075 1.992.426 2.452zM87.838 72.676c-.684.63-1.453.732-2.293.9-1.784.362-3.404-.365-4.953-.17-.63.08-1.577.248-2.136.623-.498.333-1.02 1.118-1.268 1.592-.373.708-.407 1.334-.56 2.22-.153.884-.253 1.702-.693 2.542-.476.908-1.457 2.2-3.396 2.18l-1.064-.442s.33.057.732.09c.402.037.882.025 1.053-.037.878-.32 1.603-1.217 2.14-2.122.404-.685.563-1.534.716-2.413.15-.88.345-1.67.786-2.504.332-.63.81-1.115 1.333-1.467.608-.41 1.324-.66 2.078-.755 1.79-.226 3.47.43 4.986.122.808-.163 1.548-.384 2.145-.87.322-.263.678-.815.82-1.23.015-.04.022-.236.015-.403-.006-.167-.017-.31-.017-.31.53.8.075 1.99-.425 2.452zM91.19 62.41c-.148-.918-.69-1.474-1.246-2.127-1.18-1.384-2.902-1.814-4-2.925-.447-.45-1.09-1.168-1.296-1.808-.186-.57-.11-1.51-.013-2.035.143-.788.502-1.3.93-2.09.426-.79.852-1.496 1.024-2.43.186-1.008.21-2.63-1.326-3.81l-1.108-.31s.296.16.633.38c.338.22.707.526.804.68.49.795.508 1.946.37 2.99-.104.787-.502 1.554-.926 2.34-.425.785-.76 1.525-.93 2.454-.126.7-.05 1.377.145 1.977.227.696.636 1.336 1.17 1.877 1.267 1.283 2.99 1.804 3.996 2.983.534.627.98 1.258 1.148 2.008.092.407.03 1.06-.112 1.475-.014.04-.13.2-.24.327-.108.127-.203.232-.203.232.91-.302 1.287-1.52 1.177-2.19z"/><circle fill="#E6E7E8" cx="68.446" cy="60.761" r="9.287"/><circle fill="none" stroke="#A7A9AC" stroke-width=".535" cx="68.446" cy="60.761" r="9.287"/><path fill="#F1F2F2" d="M68.46 67.18c-3.732 0-6.563-2.914-6.563-6.4 0-3.49 2.845-6.445 6.562-6.445s6.56 2.956 6.56 6.444c0 3.486-2.83 6.4-6.56 6.4z"/></g><g clip-path="url(#i)"><path fill="#447939" d="M155.574 44.417c10.346-7.306 21.75-5.66 32.095-8.464 3.75-9.17 7.334-18.34 16.575-27.51 8.72 9.288 13.632 18.575 18.692 27.863 9.876 1.566 19.75 1.54 29.626 5.643-4.892 8.582-7.15 17.163-19.046 25.745 1.373 10.698 4.222 21.397 2.117 32.095-13.383-.91-21.444-6.076-30.332-10.582-10.03 3.997-11.544 7.995-30.33 11.992-4.73-10.934 1.394-21.867 2.115-32.8-7.388-6.995-17.562-10.97-21.513-23.983z"/><path fill="none" stroke="#315126" stroke-width="1.5" d="M155.574 44.417c10.346-7.306 21.75-5.66 32.095-8.464 3.75-9.17 7.334-18.34 16.575-27.51 8.72 9.288 13.632 18.575 18.692 27.863 9.876 1.566 19.75 1.54 29.626 5.643-4.892 8.582-7.15 17.163-19.046 25.745 1.373 10.698 4.222 21.397 2.117 32.095-13.383-.91-21.444-6.076-30.332-10.582-10.03 3.997-11.544 7.995-30.33 11.992-4.73-10.934 1.394-21.867 2.115-32.8-7.388-6.995-17.562-10.97-21.513-23.983z"/><path fill="#508E40" d="M158.44 45.785c3.9 10.744 17.468 15.03 23.688 22.437-1.945 8.728-8.308 19.64-6.185 31.195 11.245-2.39 20.958-11.1 29.495-15.372 8.123 3.928 18.797 11.897 28.227 13.947.8-8.88-2.96-16.992-7.354-29.48 6.53-7.22 19.483-15.835 23.437-24.846-10.384-6.222-23.062-.155-31.97-1.396-5.37-8.13-2.05-16.9-13.91-29.542-9.138 5.665-8.062 22.443-13.16 30.916-9.08 1.376-22.634-5.464-32.267 2.14z"/><path fill="#226432" d="M203.426 12.885c-2.085 11.44-.565 28.436.15 42.16-1.317 1.167-3.556-1.93-5.24-1.43C188.3 50.027 175.7 49.14 158.86 45.52c9.926 6.116 25.63 7.464 38.695 11.792.498.668-.243 4.033.008 5.055-6.13 8.532-12.156 20.473-20.03 35.12 8.403-7.628 14.798-22.324 22.45-33.51.962-.176 1.69 4.563 5.18 2.543 7.85 11.386 22.925 24.45 28.303 31.36-8.16-15.118-22.484-25.735-28.727-34.362-.124-1.75 1.745-3.558 2.272-4.852 12.973-3.226 31.578-9.236 41.426-14.338-16.955 2.348-31.373 11.16-41.623 13.986-.6-11.1-1.978-28.98-3.39-45.43z"/><path fill="#FFF" d="M224.523 89.77c1.64 1.835 2.385 4.214.818 7.647-1.26 2.762-5.23 4.278-7.317 4.667-4.893.915-9.253-3.028-13.955-3.028-4.7 0-9.06 3.943-13.955 3.028-2.088-.39-6.06-1.906-7.318-4.667-1.566-3.433-.754-5.752.82-7.646 1.602-1.928 3.942-3.458 5.46-5.188 1.532-1.746.21-5.124.062-4.704.2-.044-3.412-.377-4.664 1.578-1.24 1.94-2.06 4.614-3.465 6.69-1.383 2.037-3.385 3.46-7.12 2.91-3-.442-5.562-3.835-6.516-5.73-2.237-4.448.337-9.732-.97-14.25-1.307-4.515-6.305-7.607-6.787-12.563-.206-2.112.146-6.347 2.45-8.326 2.86-2.46 5.315-2.323 7.572-1.338 2.298 1.002 4.418 2.826 6.503 3.804 2.102.985 4.98-1.225 4.346-1.128.355-.16-.633-3.387-3.038-3.7-2.193-.287-4.825-.5-7.14-1.167-2.274-.657-4.175-2.07-4.793-5.68-.498-2.904 1.828-6.295 3.27-7.75 3.385-3.415 8.977-2.644 12.704-5.22 3.725-2.575 5.045-8.124 9.42-10.072 1.865-.83 5.833-1.792 8.33-.27 3.102 1.894 3.713 4.198 3.493 6.578-.226 2.423-1.253 4.932-1.52 7.15-.267 2.238 2.612 4.22 2.664 3.94 1.526-.33 3.046-1.922 3.045-3.94 0-2.217-1.294-4.727-1.518-7.15-.222-2.38.392-4.684 3.493-6.577 2.496-1.524 6.465-.563 8.33.268 4.375 1.948 5.693 7.497 9.42 10.073 3.727 2.577 9.32 1.805 12.703 5.22 1.442 1.455 3.768 4.846 3.27 7.75-.618 3.61-2.52 5.023-4.792 5.68-2.314.667-4.96.787-7.14 1.165-2.435.423-3.37 3.778-3.04 3.7-.632-.096 2.245 2.115 4.348 1.13 2.084-.98 4.204-2.803 6.502-3.806 2.256-.986 4.71-1.123 7.572 1.337 2.305 1.978 2.656 6.214 2.45 8.326-.48 4.956-5.48 8.05-6.787 12.564-1.307 4.517 1.27 9.8-.97 14.248-.953 1.896-3.514 5.29-6.517 5.732-3.733.55-5.736-.874-7.118-2.912-1.408-2.076-2.225-4.75-3.466-6.69-1.25-1.955-4.805-1.834-4.663-1.577-.91 1.635-1.072 3.235.058 4.704 1.544 2 3.784 3.31 5.465 5.19z"/><path fill="none" stroke="#E6E7E8" stroke-width=".578" d="M224.523 89.77c1.64 1.835 2.385 4.214.818 7.647-1.26 2.762-5.23 4.278-7.317 4.667-4.893.915-9.253-3.028-13.955-3.028-4.7 0-9.06 3.943-13.955 3.028-2.088-.39-6.06-1.906-7.318-4.667-1.566-3.433-.754-5.752.82-7.646 1.602-1.928 3.942-3.458 5.46-5.188 1.532-1.746.21-5.124.062-4.704.2-.044-3.412-.377-4.664 1.578-1.24 1.94-2.06 4.614-3.465 6.69-1.383 2.037-3.385 3.46-7.12 2.91-3-.442-5.562-3.835-6.516-5.73-2.237-4.448.337-9.732-.97-14.25-1.307-4.515-6.305-7.607-6.787-12.563-.206-2.112.146-6.347 2.45-8.326 2.86-2.46 5.315-2.323 7.572-1.338 2.298 1.002 4.418 2.826 6.503 3.804 2.102.985 4.98-1.225 4.346-1.128.355-.16-.633-3.387-3.038-3.7-2.193-.287-4.825-.5-7.14-1.167-2.274-.657-4.175-2.07-4.793-5.68-.498-2.904 1.828-6.295 3.27-7.75 3.385-3.415 8.977-2.644 12.704-5.22 3.725-2.575 5.045-8.124 9.42-10.072 1.865-.83 5.833-1.792 8.33-.27 3.102 1.894 3.713 4.198 3.493 6.578-.226 2.423-1.253 4.932-1.52 7.15-.267 2.238 2.612 4.22 2.664 3.94 1.526-.33 3.046-1.922 3.045-3.94 0-2.217-1.294-4.727-1.518-7.15-.222-2.38.392-4.684 3.493-6.577 2.496-1.524 6.465-.563 8.33.268 4.375 1.948 5.693 7.497 9.42 10.073 3.727 2.577 9.32 1.805 12.703 5.22 1.442 1.455 3.768 4.846 3.27 7.75-.618 3.61-2.52 5.023-4.792 5.68-2.314.667-4.96.787-7.14 1.165-2.435.423-3.37 3.778-3.04 3.7-.632-.096 2.245 2.115 4.348 1.13 2.084-.98 4.204-2.803 6.502-3.806 2.256-.986 4.71-1.123 7.572 1.337 2.305 1.978 2.656 6.214 2.45 8.326-.48 4.956-5.48 8.05-6.787 12.564-1.307 4.517 1.27 9.8-.97 14.248-.953 1.896-3.514 5.29-6.517 5.732-3.733.55-5.736-.874-7.118-2.912-1.408-2.076-2.225-4.75-3.466-6.69-1.25-1.955-4.805-1.834-4.663-1.577-.91 1.635-1.072 3.235.058 4.704 1.544 2 3.784 3.31 5.465 5.19z"/><path fill="#E6E7E8" d="M220.373 35.462l-2.76-3.805-1.97-7.12-2.806-2.795-4.047-.515s2.933 9.715.54 14.837c-1.11 2.38-5.737 5.438-5.737 5.438s-4.275-2.748-5.275-5.477c-1.744-4.766.513-14.384.513-14.384l-2.527-.695-3.433 1.994-3.29 11.17-2.085 1.66-2.446 1.314-4.13.63-6.09-.353-4.473 1.537-1.585 3.76s10.146-.21 14.437 3.47c1.992 1.71 3.69 6.99 3.69 6.99s-3.213 4.24-6.11 4.468c-5.06.397-14.3-5.225-14.3-5.225l-1.35 2.248.997 3.842 7.88 6.176 2.13 3.024.597 2.01v4.458l-2.623 5.507-.262 4.72 2.886 2.885s3.63-9.477 8.654-12.063c2.337-1.203 7.867-.787 7.867-.787s2.717 4.575 1.836 7.343C193.563 86.56 184.873 93 184.873 93l1.574 2.1 3.934.523 9.44-6.818 3.848-.233 3.847.29 9.44 6.82 3.935-.524 2.203-1.72s-9.32-6.82-10.857-11.655c-.882-2.77 1.836-7.343 1.836-7.343s5.53-.416 7.867.787c5.024 2.586 8.653 12.063 8.653 12.063s2.4-.48 2.885-1.752c.563-1.472.883-4.2.492-5.727-.502-1.97-2.154-3.808-2.434-5.82-.172-1.24-.314-3.516-.314-3.516l.47-2.702 1.314-2.333s6.73-3.903 8.635-6.932c.705-1.12.558-3.842.558-3.842l-1.352-2.248s-9.24 5.623-14.3 5.225c-2.896-.226-6.11-4.467-6.11-4.467s1.7-5.28 3.693-6.99c4.29-3.682 14.435-3.472 14.435-3.472l-1.585-3.76-4.472-1.535-6.09.353-4.13-.63-1.915-1.68z"/><path fill="#A7A9AC" d="M188.39 96.78c-.734.023-1.9-.096-2.59-.426-1.1-.526-1.525-1.53-1.86-2.477-.33-.937.077-2.127.077-2.127 1.008.163.804 1.265 2.71 2.48.86.548 2.112.7 3.25.347 1.817-.563 3.424-1.074 4.913-2.324 1.49-1.25 2.99-2.622 4.953-3.52 1.37-.628 3.066-.775 4.22-.775 1.15 0 2.808.146 4.177.774 1.965.9 3.502 2.27 4.992 3.52 1.49 1.25 3.02 1.762 4.836 2.325 1.14.353 3.477.204 4.138-.578l1.9-2.25s.29 1.19-.04 2.126c-.334.946-.605 1.95-1.704 2.477-1.382.66-3.454.443-4.757.04-2.084-.647-3.676-1.908-5.186-3.174-1.51-1.268-2.935-2.875-4.683-3.676-1.08-.495-2.658-.658-3.676-.658-1.018 0-2.634.163-3.714.658-1.75.8-3.173 2.408-4.683 3.675-1.51 1.265-3.1 2.525-5.185 3.172-.65.202-1.353.363-2.088.388zM164.19 56.94c-.23-.65-.44-1.72-.314-2.425.2-1.12 1.048-1.758 1.863-2.3.808-.538 2.063-.483 2.063-.483.123.942-.992 1.045-1.63 3.063-.286.91-.084 2.07.572 2.994 1.046 1.478 1.983 2.782 3.6 3.79 1.613 1.008 3.348 1.994 4.758 3.515.983 1.063 1.595 2.54 1.916 3.57.318 1.028.64 2.548.418 3.934-.32 1.986-1.21 3.716-1.995 5.37-.787 1.655-.853 3.155-.888 4.924-.023 1.108.77 3.16 1.705 3.548l2.69 1.115s-1.065.568-2.058.516c-1-.054-2.04-.035-2.852-.882-1.02-1.063-1.386-2.972-1.36-4.24.04-2.03.81-3.778 1.606-5.455.797-1.677 1.945-3.365 2.228-5.135.176-1.093-.106-2.544-.39-3.455s-.89-2.313-1.664-3.15c-1.256-1.354-3.195-2.21-4.832-3.233-1.637-1.02-3.29-2.118-4.488-3.813-.373-.532-.724-1.117-.95-1.77zM194.06 20.904c.547-.42 1.496-.96 2.203-1.063 1.124-.164 1.998.44 2.77 1.04.768.597 1.112 1.806 1.112 1.806-.855.415-1.305-.61-3.42-.577-.955.015-1.99.574-2.66 1.488-1.07 1.46-2.012 2.762-2.457 4.613-.445 1.852-.83 3.81-1.828 5.628-.695 1.27-1.904 2.317-2.78 2.947-.874.63-2.214 1.414-3.6 1.643-1.985.327-3.907.03-5.726-.192-1.82-.222-3.262.19-4.95.716-1.06.33-2.755 1.73-2.827 2.74l-.207 2.904s-.875-.83-1.14-1.787c-.265-.967-.612-1.95-.065-2.985.687-1.304 2.38-2.255 3.594-2.633 1.937-.603 3.837-.427 5.68-.202s3.808.78 5.577.49c1.092-.18 2.38-.908 3.154-1.465.773-.557 1.912-1.575 2.46-2.576.89-1.62 1.088-3.73 1.54-5.607.45-1.875.967-3.79 2.194-5.465.386-.525.83-1.042 1.377-1.464zM243.847 56.94c.228-.65.438-1.72.31-2.425-.198-1.12-1.046-1.758-1.86-2.3-.81-.538-2.065-.483-2.065-.483-.124.942.992 1.045 1.63 3.063.287.91.084 2.07-.57 2.994-1.047 1.478-1.984 2.782-3.6 3.79-1.614 1.008-3.35 1.994-4.76 3.515-.983 1.063-1.596 2.54-1.915 3.57-.32 1.028-.64 2.548-.42 3.934.32 1.986 1.21 3.716 1.997 5.37.785 1.655.85 3.155.887 4.924.024 1.108-.77 3.16-1.704 3.548l-2.69 1.115s1.064.568 2.058.516c1-.054 2.04-.035 2.852-.882 1.02-1.063 1.387-2.972 1.36-4.24-.042-2.03-.81-3.778-1.607-5.455-.797-1.677-1.945-3.365-2.23-5.135-.175-1.093.107-2.544.392-3.455.282-.91.888-2.313 1.664-3.15 1.256-1.354 3.194-2.21 4.83-3.233 1.637-1.02 3.29-2.118 4.49-3.813.373-.532.723-1.117.95-1.77zM213.976 20.904c-.547-.42-1.498-.96-2.203-1.063-1.124-.164-2 .44-2.77 1.04-.768.597-1.112 1.806-1.112 1.806.855.415 1.306-.61 3.422-.577.954.015 1.988.574 2.66 1.488 1.07 1.46 2.01 2.762 2.455 4.613.446 1.852.83 3.81 1.83 5.628.694 1.27 1.902 2.317 2.777 2.947.876.63 2.215 1.414 3.6 1.643 1.987.327 3.91.03 5.728-.192s3.262.19 4.95.716c1.06.33 2.754 1.73 2.826 2.74l.208 2.904s.875-.83 1.137-1.787c.268-.967.614-1.95.068-2.985-.687-1.304-2.38-2.255-3.593-2.633-1.938-.603-3.84-.427-5.683-.202-1.843.225-3.807.78-5.575.49-1.093-.18-2.382-.908-3.155-1.465s-1.912-1.575-2.46-2.576c-.888-1.62-1.087-3.73-1.538-5.607-.453-1.875-.97-3.79-2.197-5.465-.384-.525-.83-1.042-1.374-1.464z"/><path fill="#D1D3D4" d="M216.634 101.074c-2.246-.012-3.776-.93-5.848-1.818-2.07-.89-4.67-1.746-6.572-1.78-2.11-.04-4.78.783-7 1.703-2.217.92-3.994 1.934-6.465 1.74-2.056-.16-3.714-1.01-5.304-2.206-1.085-.817-1.856-2.244-1.856-2.244 1.452.15 2.403 2.945 7.235 3.212 2.097.115 4.215-.67 6.424-1.586 2.206-.917 4.495-1.52 6.964-1.474 2.244.042 4.395.585 6.462 1.474 2.068.888 4.08 1.46 5.958 1.74 2.46.37 5.12-1.275 7.778-2.9 0 0-.348.447-.812.966-.467.52-1.02 1.115-1.55 1.47-1.786 1.204-3.23 1.714-5.416 1.702zM168.457 83.777c-.624-2.158-.178-3.886.09-6.124s.35-4.972-.156-6.808c-.558-2.035-2.103-4.364-3.614-6.23-1.512-1.866-2.988-3.282-3.502-5.708-.427-2.015-.082-3.846.613-5.71.477-1.27 1.627-2.416 1.627-2.416.268 1.437-2.143 3.14-1.03 7.85.483 2.044 1.837 3.854 3.34 5.71 1.505 1.86 2.73 3.884 3.388 6.264.595 2.165.684 4.38.416 6.615-.266 2.235-.244 4.325.018 6.207.345 2.463 2.674 4.548 4.987 6.637 0 0-.528-.205-1.157-.504-.63-.3-1.358-.663-1.85-1.068-1.664-1.375-2.562-2.615-3.17-4.715zM167.91 36.88c1.287-1.185 2.734-1.378 4.314-1.698 3.355-.678 6.406.69 9.32.32 1.185-.148 2.967-.463 4.018-1.168.938-.63 1.918-2.105 2.385-2.997.704-1.333.767-2.51 1.054-4.175.29-1.666.478-3.203 1.307-4.787.895-1.71 2.74-4.138 6.39-4.1l2 .83s-.624-.106-1.38-.17c-.758-.07-1.66-.046-1.98.07-1.652.606-3.014 2.292-4.022 3.994-.762 1.286-1.064 2.884-1.35 4.54-.285 1.656-.65 3.14-1.48 4.712-.626 1.187-1.526 2.098-2.51 2.76-1.144.768-2.49 1.24-3.91 1.42-3.367.425-6.526-.808-9.382-.23-1.52.308-2.914.723-4.035 1.636-.608.495-1.275 1.534-1.548 2.314-.026.075-.038.448-.026.762.014.314.03.58.03.58-.994-1.507-.136-3.748.807-4.615zM240.04 37.27c-1.29-1.185-2.736-1.378-4.316-1.698-3.354-.678-6.406.69-9.32.32-1.185-.148-2.968-.463-4.02-1.17-.937-.63-1.916-2.104-2.382-2.996-.703-1.333-.768-2.51-1.055-4.175-.287-1.665-.477-3.203-1.305-4.786-.895-1.71-2.742-4.138-6.39-4.1l-2 .83s.622-.107 1.38-.17c.757-.07 1.66-.046 1.98.07 1.65.605 3.014 2.292 4.02 3.994.764 1.287 1.066 2.884 1.352 4.54.285 1.657.648 3.14 1.48 4.712.625 1.187 1.525 2.1 2.51 2.76 1.144.77 2.49 1.24 3.91 1.42 3.366.424 6.525-.81 9.382-.23 1.52.307 2.912.722 4.035 1.635.61.495 1.276 1.534 1.548 2.314.026.074.038.447.026.76-.013.315-.03.582-.03.582.993-1.505.136-3.747-.805-4.613zM246.346 56.587c-.282 1.727-1.3 2.772-2.347 4-2.22 2.605-5.464 3.413-7.53 5.504-.838.85-2.046 2.198-2.436 3.402-.35 1.074-.21 2.84-.025 3.828.27 1.483.945 2.45 1.748 3.936.804 1.487 1.604 2.813 1.93 4.57.35 1.898.4 4.948-2.494 7.17l-2.085.582s.556-.298 1.19-.716c.637-.413 1.334-.99 1.514-1.28.924-1.495.954-3.663.697-5.622-.195-1.484-.944-2.926-1.742-4.406-.8-1.48-1.428-2.87-1.746-4.62-.24-1.32-.097-2.592.27-3.72.425-1.312 1.193-2.514 2.2-3.53 2.384-2.415 5.63-3.397 7.52-5.614 1.007-1.182 1.846-2.37 2.164-3.78.173-.764.056-1.993-.213-2.775-.025-.075-.246-.376-.45-.615-.204-.24-.383-.438-.383-.438 1.714.57 2.423 2.862 2.217 4.126z"/><path fill="#447939" d="M178.296 67.303c5.498 3.883 11.56 3.01 17.057 4.498 1.994 4.874 3.897 9.748 8.81 14.62 4.633-4.936 7.243-9.87 9.935-14.806 5.248-.832 10.494-.82 15.743-3-2.598-4.56-3.8-9.122-10.12-13.682.73-5.686 2.243-11.372 1.124-17.057-7.11.483-11.396 3.228-16.12 5.623-5.33-2.125-6.134-4.25-16.118-6.373-2.512 5.81.742 11.62 1.125 17.43-3.928 3.72-9.334 5.833-11.434 12.748z"/><path fill="none" stroke="#315126" stroke-width=".578" d="M178.296 67.303c5.498 3.883 11.56 3.01 17.057 4.498 1.994 4.874 3.897 9.748 8.81 14.62 4.633-4.936 7.243-9.87 9.935-14.806 5.248-.832 10.494-.82 15.743-3-2.598-4.56-3.8-9.122-10.12-13.682.73-5.686 2.243-11.372 1.124-17.057-7.11.483-11.396 3.228-16.12 5.623-5.33-2.125-6.134-4.25-16.118-6.373-2.512 5.81.742 11.62 1.125 17.43-3.928 3.72-9.334 5.833-11.434 12.748z"/><path fill="#FFF" d="M212.037 45.99c.807-.92 2.05-1.732 2.902-2.757.835-1.006 1.267-2.24.435-4.064-.67-1.468-2.78-2.274-3.89-2.48-2.6-.487-4.917 1.608-7.417 1.608-2.498 0-4.814-2.096-7.416-1.61-1.108.208-3.22 1.014-3.89 2.48-.832 1.826-.4 3.06.437 4.065.85 1.025 2.095 1.838 2.9 2.758.814.928.11 2.723.032 2.5.107.024-1.813.2-2.48-.838-.657-1.03-1.093-2.452-1.84-3.555-.735-1.083-1.8-1.84-3.783-1.548-1.598.235-2.957 2.038-3.465 3.046-1.19 2.363.18 5.17-.515 7.572s-3.352 4.043-3.606 6.677c-.11 1.123.078 3.373 1.3 4.425 1.522 1.308 2.827 1.234 4.026.712 1.22-.534 2.348-1.503 3.455-2.022 2.865-.214 2.486 1.088.695 2.566-1.14.295-2.564.265-3.795.62-1.208.35-2.22 1.1-2.547 3.018-.265 1.543.97 3.345 1.738 4.12 1.8 1.812 4.77 1.403 6.75 2.77 1.98 1.37 2.682 4.32 5.008 5.355.99.44 3.1.95 4.426.142 1.648-1.006 1.975-2.23 1.857-3.495-.12-1.288-.666-2.62-.807-3.8-.143-1.19 1.388-2.243 1.415-2.095.906.176 1.286 1.092 1.617 2.094-.14 1.18-.687 2.513-.806 3.8-.118 1.265.207 2.49 1.856 3.496 1.326.81 3.436.3 4.427-.143 2.323-1.037 3.024-3.985 5.005-5.355 1.98-1.368 4.953-.96 6.752-2.772.767-.774 2.002-2.576 1.738-4.12-.328-1.917-1.34-2.668-2.548-3.017-1.23-.355-2.657-.324-3.794-.62-2.098-1.557-1.91-2.567.695-2.566 1.106.52 2.233 1.49 3.455 2.022 1.198.522 2.504.596 4.025-.712 1.223-1.052 1.41-3.302 1.3-4.425-.255-2.634-2.912-4.277-3.606-6.677-.693-2.4.675-5.208-.516-7.572-.506-1.008-1.867-2.81-3.463-3.047-1.984-.293-3.05.464-3.78 1.547-.75 1.103-1.185 2.524-1.845 3.555-.664 1.04-2.553.975-2.477.84-.595-.91-.24-1.584.037-2.5z"/><path fill="none" stroke="#989898" stroke-width="1.088" d="M212.037 45.99c.807-.92 2.05-1.732 2.902-2.757.835-1.006 1.267-2.24.435-4.064-.67-1.468-2.78-2.274-3.89-2.48-2.6-.487-4.917 1.608-7.417 1.608-2.498 0-4.814-2.096-7.416-1.61-1.108.208-3.22 1.014-3.89 2.48-.832 1.826-.4 3.06.437 4.065.85 1.025 2.095 1.838 2.9 2.758.814.928.11 2.723.032 2.5.107.024-1.813.2-2.48-.838-.657-1.03-1.093-2.452-1.84-3.555-.735-1.083-1.8-1.84-3.783-1.548-1.598.235-2.957 2.038-3.465 3.046-1.19 2.363.18 5.17-.515 7.572s-3.352 4.043-3.606 6.677c-.11 1.123.078 3.373 1.3 4.425 1.522 1.308 2.827 1.234 4.026.712 1.22-.534 2.348-1.503 3.455-2.022 2.865-.214 2.486 1.088.695 2.566-1.14.295-2.564.265-3.795.62-1.208.35-2.22 1.1-2.547 3.018-.265 1.543.97 3.345 1.738 4.12 1.8 1.812 4.77 1.403 6.75 2.77 1.98 1.37 2.682 4.32 5.008 5.355.99.44 3.1.95 4.426.142 1.648-1.006 1.975-2.23 1.857-3.495-.12-1.288-.666-2.62-.807-3.8-.143-1.19 1.388-2.243 1.415-2.095.906.176 1.286 1.092 1.617 2.094-.14 1.18-.687 2.513-.806 3.8-.118 1.265.207 2.49 1.856 3.496 1.326.81 3.436.3 4.427-.143 2.323-1.037 3.024-3.985 5.005-5.355 1.98-1.368 4.953-.96 6.752-2.772.767-.774 2.002-2.576 1.738-4.12-.328-1.917-1.34-2.668-2.548-3.017-1.23-.355-2.657-.324-3.794-.62-2.098-1.557-1.91-2.567.695-2.566 1.106.52 2.233 1.49 3.455 2.022 1.198.522 2.504.596 4.025-.712 1.223-1.052 1.41-3.302 1.3-4.425-.255-2.634-2.912-4.277-3.606-6.677-.693-2.4.675-5.208-.516-7.572-.506-1.008-1.867-2.81-3.463-3.047-1.984-.293-3.05.464-3.78 1.547-.75 1.103-1.185 2.524-1.845 3.555-.664 1.04-2.553.975-2.477.84-.595-.91-.24-1.584.037-2.5z"/><path fill="#989898" d="M195.736 39.508c-.39-.013-1.01.05-1.376.226-.585.28-.81.814-.988 1.316-.175.5.04 1.13.04 1.13.536-.085.428-.67 1.44-1.316.458-.292 1.123-.372 1.728-.185.965.3 1.82.57 2.61 1.234.793.664 1.59 1.394 2.634 1.872.727.333 1.63.41 2.24.41.613 0 1.494-.076 2.22-.41 1.046-.478 1.862-1.208 2.655-1.872.79-.664 1.603-.935 2.568-1.235.604-.19 1.85-.11 2.2.307l1.008 1.194s.154-.63-.02-1.13c-.18-.502-.322-1.037-.907-1.316-.734-.35-1.836-.235-2.53-.02-1.105.342-1.95 1.013-2.754 1.685-.802.672-1.56 1.526-2.487 1.952-.576.263-1.414.35-1.956.35-.54 0-1.4-.086-1.973-.35-.93-.426-1.685-1.28-2.488-1.953-.802-.673-1.647-1.344-2.755-1.687-.347-.106-.72-.192-1.11-.205zM182.875 60.68c-.12.346-.232.915-.165 1.29.106.594.556.933.99 1.222.43.287 1.097.256 1.097.256.064-.5-.527-.554-.865-1.627-.154-.483-.046-1.1.303-1.59.556-.786 1.055-1.48 1.912-2.015s1.78-1.06 2.53-1.868c.522-.564.848-1.35 1.018-1.896s.34-1.353.223-2.09c-.17-1.056-.644-1.975-1.06-2.854-.42-.88-.454-1.676-.473-2.617-.012-.59.408-1.68.906-1.886l1.43-.593s-.565-.3-1.093-.272c-.53.028-1.084.018-1.516.468-.54.565-.735 1.58-.722 2.254.02 1.08.43 2.007.854 2.898s1.034 1.788 1.186 2.73c.092.58-.058 1.353-.21 1.836-.15.483-.47 1.23-.883 1.673-.667.72-1.698 1.176-2.567 1.72-.87.54-1.75 1.124-2.387 2.025-.198.28-.384.592-.505.938zM198.75 79.83c.29.226.795.512 1.17.566.598.087 1.063-.232 1.474-.552.407-.318.59-.96.59-.96-.454-.22-.692.324-1.817.306-.508-.008-1.057-.305-1.413-.79-.57-.777-1.07-1.468-1.306-2.453-.237-.984-.44-2.024-.972-2.99-.37-.676-1.01-1.232-1.477-1.567-.466-.334-1.178-.75-1.914-.873-1.056-.174-2.076-.016-3.044.102-.966.117-1.733-.103-2.63-.382-.564-.175-1.465-.92-1.502-1.457l-.11-1.54s-.467.44-.606.95c-.142.513-.326 1.034-.035 1.586.363.692 1.264 1.198 1.908 1.398 1.03.32 2.04.228 3.02.108.98-.12 2.023-.414 2.963-.26.583.095 1.267.482 1.678.778.41.296 1.016.837 1.308 1.37.472.86.578 1.982.818 2.98.24.996.514 2.013 1.166 2.903.204.28.44.553.73.778zM225.208 60.68c.12.346.232.915.165 1.29-.105.594-.557.933-.99 1.222-.43.287-1.097.256-1.097.256-.066-.5.527-.554.865-1.627.154-.483.046-1.1-.302-1.59-.556-.786-1.054-1.48-1.912-2.015-.857-.536-1.78-1.06-2.53-1.868-.522-.564-.848-1.35-1.017-1.896-.173-.546-.343-1.353-.224-2.09.17-1.056.64-1.975 1.06-2.854.418-.88.452-1.676.472-2.617.012-.59-.41-1.68-.906-1.886l-1.428-.593s.564-.3 1.092-.272c.53.028 1.084.018 1.516.468.54.565.736 1.58.723 2.254-.022 1.08-.43 2.007-.854 2.898-.423.89-1.032 1.788-1.184 2.73-.093.58.057 1.353.208 1.836.15.483.47 1.23.884 1.673.667.72 1.698 1.176 2.567 1.72.87.54 1.75 1.124 2.387 2.025.2.28.385.592.506.938zM209.333 79.83c-.29.226-.795.512-1.17.566-.598.087-1.063-.232-1.474-.552-.408-.318-.592-.96-.592-.96.455-.22.693.324 1.817.306.508-.008 1.058-.305 1.415-.79.568-.777 1.068-1.468 1.305-2.453.236-.984.44-2.024.972-2.99.37-.676 1.01-1.232 1.477-1.567.465-.334 1.177-.75 1.913-.873 1.056-.174 2.077-.016 3.044.102.967.117 1.734-.103 2.632-.382.562-.175 1.462-.92 1.502-1.457l.11-1.542s.465.44.604.95c.142.513.326 1.034.035 1.586-.364.692-1.265 1.198-1.91 1.398-1.028.32-2.04.228-3.02.108-.98-.12-2.022-.414-2.962-.26-.58.095-1.265.482-1.677.778-.41.296-1.016.837-1.307 1.37-.47.86-.578 1.982-.816 2.98-.24.996-.516 2.013-1.168 2.903-.203.283-.438.556-.73.78z"/><path fill="#CDCCCC" d="M210.748 37.226c-1.195.007-2.008.494-3.11.967-1.1.473-2.48.927-3.492.946-1.12.02-2.54-.417-3.72-.906s-2.12-1.03-3.436-.925c-1.092.084-1.973.536-2.816 1.17-.578.435-.988 1.194-.988 1.194.77-.08 1.277-1.565 3.846-1.707 1.115-.06 2.24.356 3.414.843 1.173.488 2.39.808 3.7.784 1.194-.022 2.335-.31 3.435-.784 1.102-.472 2.17-.776 3.17-.925 1.306-.196 2.72.678 4.132 1.542 0 0-.185-.238-.432-.514-.248-.276-.543-.593-.823-.782-.952-.64-1.72-.91-2.88-.904zM185.143 46.418c-.332 1.147-.095 2.065.048 3.255.142 1.19.187 2.643-.082 3.618-.298 1.082-1.12 2.32-1.923 3.31-.802.993-1.586 1.746-1.86 3.036-.226 1.07-.042 2.044.327 3.034.252.676.863 1.284.863 1.284.143-.763-1.138-1.668-.547-4.17.257-1.087.977-2.048 1.775-3.036s1.45-2.063 1.8-3.33c.315-1.15.363-2.326.22-3.514-.14-1.188-.13-2.3.012-3.3.183-1.308 1.42-2.416 2.65-3.527 0 0-.282.11-.616.27-.336.158-.723.35-.984.566-.883.73-1.36 1.39-1.683 2.505zM184.853 71.34c.684.63 1.453.733 2.293.903 1.782.36 3.403-.366 4.953-.17.628.078 1.575.247 2.134.62.498.336 1.02 1.12 1.267 1.594.375.708.41 1.333.563 2.218.15.885.252 1.703.692 2.544.476.907 1.458 2.198 3.396 2.177l1.064-.44s-.33.057-.732.09c-.402.037-.883.025-1.053-.037-.878-.323-1.603-1.218-2.138-2.123-.406-.684-.566-1.533-.718-2.413-.15-.88-.345-1.668-.786-2.504-.333-.63-.81-1.115-1.334-1.466-.608-.41-1.324-.66-2.078-.755-1.79-.226-3.468.43-4.985.122-.81-.164-1.547-.384-2.145-.87-.323-.263-.678-.814-.822-1.23-.013-.04-.02-.237-.014-.404.007-.167.017-.31.017-.31-.53.8-.076 1.993.426 2.453zM223.184 71.135c-.684.63-1.453.732-2.293.9-1.783.362-3.403-.365-4.952-.17-.63.08-1.577.248-2.136.623-.498.334-1.018 1.12-1.268 1.593-.373.71-.406 1.335-.56 2.22-.153.885-.253 1.703-.692 2.543-.477.908-1.458 2.2-3.396 2.18l-1.063-.442s.33.058.732.092c.402.036.883.024 1.053-.038.877-.32 1.602-1.217 2.138-2.122.405-.685.565-1.534.717-2.413.15-.88.345-1.67.786-2.505.33-.63.81-1.115 1.332-1.467.608-.41 1.325-.66 2.08-.754 1.788-.226 3.467.43 4.984.122.81-.163 1.55-.384 2.146-.87.322-.263.678-.815.822-1.23.014-.04.02-.236.014-.403-.007-.167-.018-.31-.018-.31.53.8.075 1.99-.426 2.452zM226.537 60.868c-.15-.917-.69-1.473-1.247-2.126-1.18-1.384-2.902-1.814-4-2.925-.446-.45-1.09-1.168-1.296-1.808-.186-.572-.11-1.51-.013-2.036.145-.788.503-1.3.93-2.09.427-.79.853-1.496 1.025-2.43.187-1.008.213-2.63-1.325-3.81l-1.108-.31s.297.16.633.38c.34.22.71.526.805.68.49.795.508 1.946.37 2.99-.103.787-.5 1.554-.925 2.34-.426.785-.76 1.525-.93 2.454-.127.702-.05 1.378.145 1.978.227.696.635 1.336 1.168 1.877 1.268 1.283 2.992 1.804 3.998 2.983.534.627.98 1.258 1.148 2.008.092.407.03 1.06-.112 1.475-.014.04-.13.2-.24.326-.108.127-.203.232-.202.232.91-.3 1.286-1.52 1.177-2.19z"/><circle fill="#E6E7E8" cx="203.792" cy="59.22" r="9.287"/><circle fill="none" stroke="#A7A9AC" stroke-width=".535" cx="203.792" cy="59.22" r="9.287"/><path fill="#F1F2F2" d="M203.805 65.64c-3.73 0-6.562-2.915-6.562-6.402 0-3.488 2.845-6.444 6.562-6.444 3.718 0 6.562 2.956 6.562 6.444 0 3.487-2.83 6.4-6.562 6.4z"/></g><path clip-path="url(#i)" fill="none" stroke="#000" stroke-width="3" stroke-miterlimit="10" d="M10.092 3.5h251.714v599.714H10.092z"/></g><g clip-path="url(#g)"><defs><path id="k" d="M261.806 3.5H513.52v599.714H261.806z"/></defs><clipPath id="l"><use xlink:href="#k" overflow="visible"/></clipPath><g clip-path="url(#l)"><linearGradient id="m" gradientUnits="userSpaceOnUse" x1="261.806" y1="303.357" x2="513.52" y2="303.357"><stop offset="0" stop-color="#FECC94"/><stop offset=".097" stop-color="#FDC581"/><stop offset=".234" stop-color="#FDBD6C"/><stop offset=".383" stop-color="#FCB75A"/><stop offset=".546" stop-color="#FCB34B"/><stop offset=".733" stop-color="#FBB143"/><stop offset="1" stop-color="#FBB040"/></linearGradient><path fill="url(#m)" d="M288.275 3.5h-26.47v107.174l246.17 492.54h5.545v-149.04"/><path fill="none" d="M288.275 3.5h-26.47v107.174l246.17 492.54h5.545v-149.04"/></g><path clip-path="url(#l)" fill="none" stroke="#000" stroke-width="3" stroke-miterlimit="10" d="M261.806 3.5H513.52v599.714H261.806z"/><g clip-path="url(#l)"><linearGradient id="n" gradientUnits="userSpaceOnUse" x1="-45.295" y1="-45.45" x2="-44.295" y2="-45.45" gradientTransform="scale(33.9) rotate(-90 -34.7 .9)"><stop offset="0" stop-color="#A7A9AC"/><stop offset="1" stop-color="#FFF"/></linearGradient><path fill="url(#n)" d="M332.01 389.97s-28.956-12.024-36.963-23.113c-2.188-3.03-3.082-10.787-3.082-10.787l40.044 2.31 40.043-2.31s-.894 7.756-3.082 10.787c-8.006 11.088-36.96 23.114-36.96 23.114z"/><path fill="none" stroke="#7F1416" stroke-width=".177" d="M332.01 389.97s-28.956-12.024-36.963-23.113c-2.188-3.03-3.082-10.787-3.082-10.787l40.044 2.31 40.043-2.31s-.894 7.756-3.082 10.787c-8.006 11.088-36.96 23.114-36.96 23.114z"/><linearGradient id="o" gradientUnits="userSpaceOnUse" x1="-47.162" y1="-43.957" x2="-46.162" y2="-43.957" gradientTransform="scale(119.4) rotate(-90 -42.2 -1)"><stop offset="0" stop-color="#A7A9AC"/><stop offset="1" stop-color="#FFF"/></linearGradient><path fill="url(#o)" d="M317.403 460.803c-7.59.817-15.612 5.5-21.075-12.83-9.86 3.286-17.876 1.65-21.076-12.827 0 0 21.692-51.27 38.526-73.054 5.033-6.514 10-10.255 18.23-10.255s13.2 3.74 18.232 10.255c16.834 21.783 38.525 73.054 38.525 73.054-3.2 14.477-11.215 16.113-21.074 12.828-5.464 18.33-13.483 13.646-21.075 12.83-11.934 16.717-19.058 10.84-29.212 0z"/><path fill="none" stroke="#6D6E71" d="M317.403 460.803c-7.59.817-15.612 5.5-21.075-12.83-9.86 3.286-17.876 1.65-21.076-12.827 0 0 21.692-51.27 38.526-73.054 5.033-6.514 10-10.255 18.23-10.255s13.2 3.74 18.232 10.255c16.834 21.783 38.525 73.054 38.525 73.054-3.2 14.477-11.215 16.113-21.074 12.828-5.464 18.33-13.483 13.646-21.075 12.83-11.934 16.717-19.058 10.84-29.212 0z"/><linearGradient id="p" gradientUnits="userSpaceOnUse" x1="-46.84" y1="-44.222" x2="-45.84" y2="-44.222" gradientTransform="scale(82.8) rotate(-90 -41 -.5)"><stop offset="0" stop-color="#FFF"/><stop offset="1" stop-color="#A7A9AC"/></linearGradient><path fill="url(#p)" d="M281.902 435.078c2.277 7.962 5.337 9.612 11.935 4.938l29.217-80.244c-13.718 14.342-27.435 47.688-41.152 75.306z"/><linearGradient id="q" gradientUnits="userSpaceOnUse" x1="-47.097" y1="-44.015" x2="-46.097" y2="-44.015" gradientTransform="scale(109.4) rotate(-90 -41.9 -.9)"><stop offset="0" stop-color="#FFF"/><stop offset="1" stop-color="#A7A9AC"/></linearGradient><path fill="url(#q)" d="M323.032 458.037c5.354 7.704 14.213 8.952 18.3.447L332.38 354.97l-9.348 103.067z"/><linearGradient id="r" gradientUnits="userSpaceOnUse" x1="-46.998" y1="-44.085" x2="-45.998" y2="-44.085" gradientTransform="scale(98.1) rotate(-90 -41.6 -.7)"><stop offset="0" stop-color="#FFF"/><stop offset="1" stop-color="#A7A9AC"/></linearGradient><path fill="url(#r)" d="M301.743 447.337c3.85 7.333 7.5 10.547 13.006 4.628l13.548-94.978-26.555 90.35z"/><linearGradient id="s" gradientUnits="userSpaceOnUse" x1="-46.83" y1="-44.216" x2="-45.83" y2="-44.216" gradientTransform="scale(82.8) rotate(-90 -40.7 -.8)"><stop offset="0" stop-color="#FFF"/><stop offset="1" stop-color="#A7A9AC"/></linearGradient><path fill="url(#s)" d="M382.365 435.118c-2.276 7.962-5.337 9.612-11.933 4.938l-29.22-80.244c13.72 14.34 27.436 47.688 41.153 75.306z"/><linearGradient id="t" gradientUnits="userSpaceOnUse" x1="-46.999" y1="-44.085" x2="-45.999" y2="-44.085" gradientTransform="scale(98.1) rotate(-90 -41.4 -.9)"><stop offset="0" stop-color="#FFF"/><stop offset="1" stop-color="#A7A9AC"/></linearGradient><path fill="url(#t)" d="M362.524 447.378c-3.85 7.332-7.498 10.545-13.006 4.627l-13.547-94.978 26.554 90.35z"/><g><linearGradient id="u" gradientUnits="userSpaceOnUse" x1="-36.23" y1="-48.305" x2="-35.23" y2="-48.305" gradientTransform="scale(33.9) rotate(-90 -34.7 .9)"><stop offset="0" stop-color="#A7A9AC"/><stop offset="1" stop-color="#FFF"/></linearGradient><path fill="url(#u)" d="M428.81 82.664S399.857 70.64 391.85 59.55c-2.19-3.03-3.083-10.787-3.083-10.787l40.044 2.31 40.045-2.31s-.894 7.756-3.082 10.787c-8.007 11.09-36.962 23.114-36.962 23.114z"/><path fill="none" stroke="#7F1416" stroke-width=".177" d="M428.81 82.664S399.857 70.64 391.85 59.55c-2.19-3.03-3.083-10.787-3.083-10.787l40.044 2.31 40.045-2.31s-.894 7.756-3.082 10.787c-8.007 11.09-36.962 23.114-36.962 23.114z"/><linearGradient id="v" gradientUnits="userSpaceOnUse" x1="-44.588" y1="-44.768" x2="-43.588" y2="-44.768" gradientTransform="scale(119.4) rotate(-90 -42.2 -1)"><stop offset="0" stop-color="#A7A9AC"/><stop offset="1" stop-color="#FFF"/></linearGradient><path fill="url(#v)" d="M414.205 153.496c-7.59.817-15.612 5.5-21.075-12.83-9.86 3.286-17.876 1.65-21.076-12.827 0 0 21.692-51.272 38.526-73.055 5.033-6.514 10-10.255 18.23-10.255s13.2 3.74 18.232 10.255c16.834 21.783 38.525 73.054 38.525 73.054-3.2 14.476-11.215 16.112-21.074 12.827-5.465 18.33-13.484 13.646-21.076 12.83-11.934 16.717-19.058 10.84-29.212 0z"/><path fill="none" stroke="#6D6E71" d="M414.205 153.496c-7.59.817-15.612 5.5-21.075-12.83-9.86 3.286-17.876 1.65-21.076-12.827 0 0 21.692-51.272 38.526-73.055 5.033-6.514 10-10.255 18.23-10.255s13.2 3.74 18.232 10.255c16.834 21.783 38.525 73.054 38.525 73.054-3.2 14.476-11.215 16.112-21.074 12.827-5.465 18.33-13.484 13.646-21.076 12.83-11.934 16.717-19.058 10.84-29.212 0z"/><linearGradient id="w" gradientUnits="userSpaceOnUse" x1="-43.13" y1="-45.391" x2="-42.13" y2="-45.391" gradientTransform="scale(82.8) rotate(-90 -41 -.5)"><stop offset="0" stop-color="#FFF"/><stop offset="1" stop-color="#A7A9AC"/></linearGradient><path fill="url(#w)" d="M378.704 127.77c2.277 7.963 5.337 9.613 11.935 4.94l29.216-80.245c-13.718 14.343-27.436 47.688-41.152 75.306z"/><linearGradient id="x" gradientUnits="userSpaceOnUse" x1="-44.288" y1="-44.9" x2="-43.288" y2="-44.9" gradientTransform="scale(109.4) rotate(-90 -41.9 -.9)"><stop offset="0" stop-color="#FFF"/><stop offset="1" stop-color="#A7A9AC"/></linearGradient><path fill="url(#x)" d="M419.833 150.73c5.354 7.704 14.213 8.952 18.3.447l-8.952-103.513-9.347 103.066z"/><linearGradient id="y" gradientUnits="userSpaceOnUse" x1="-43.865" y1="-45.072" x2="-42.864" y2="-45.072" gradientTransform="scale(98.1) rotate(-90 -41.6 -.7)"><stop offset="0" stop-color="#FFF"/><stop offset="1" stop-color="#A7A9AC"/></linearGradient><path fill="url(#y)" d="M398.544 140.03c3.85 7.333 7.5 10.547 13.006 4.628L425.1 49.68l-26.556 90.35z"/><linearGradient id="z" gradientUnits="userSpaceOnUse" x1="-43.121" y1="-45.384" x2="-42.121" y2="-45.384" gradientTransform="scale(82.8) rotate(-90 -40.7 -.8)"><stop offset="0" stop-color="#FFF"/><stop offset="1" stop-color="#A7A9AC"/></linearGradient><path fill="url(#z)" d="M479.167 127.812c-2.276 7.962-5.337 9.612-11.933 4.938l-29.22-80.244c13.72 14.34 27.436 47.687 41.153 75.306z"/><linearGradient id="A" gradientUnits="userSpaceOnUse" x1="-43.865" y1="-45.072" x2="-42.865" y2="-45.072" gradientTransform="scale(98.1) rotate(-90 -41.4 -.9)"><stop offset="0" stop-color="#FFF"/><stop offset="1" stop-color="#A7A9AC"/></linearGradient><path fill="url(#A)" d="M459.326 140.07c-3.85 7.333-7.498 10.546-13.006 4.628L432.773 49.72l26.553 90.35z"/></g></g></g><use xlink:href="#e" overflow="visible" fill="none" stroke="#000" stroke-width="7" stroke-miterlimit="10"/><radialGradient id="B" cx="261.806" cy="575.523" r="180.594" gradientUnits="userSpaceOnUse"><stop offset=".632" stop-color="#FFF"/><stop offset=".705" stop-color="#F4F5F5"/><stop offset=".855" stop-color="#EAEBEB"/><stop offset="1" stop-color="#E6E7E8"/></radialGradient></svg>