<?xml version="1.0" encoding="utf-8"?>
<!-- Generator: Adobe Illustrator 15.0.0, SVG Export Plug-In  -->
<!DOCTYPE svg PUBLIC "-//W3C//DTD SVG 1.1//EN" "http://www.w3.org/Graphics/SVG/1.1/DTD/svg11.dtd" [
	<!ENTITY ns_flows "http://ns.adobe.com/Flows/1.0/">
]>
<svg version="1.1"
	 xmlns="http://www.w3.org/2000/svg" xmlns:xlink="http://www.w3.org/1999/xlink" xmlns:a="http://ns.adobe.com/AdobeSVGViewerExtensions/3.0/"
	 x="0px" y="0px" width="524px" height="659px" viewBox="0 0 524 659" enable-background="new 0 0 524 659" xml:space="preserve">
<defs>
</defs>
<linearGradient id="SVGID_3_" gradientUnits="userSpaceOnUse" x1="37.7886" y1="515.3037" x2="92.6829" y2="536.3757">
	<stop  offset="0" style="stop-color:#8B5E3C"/>
	<stop  offset="0.497" style="stop-color:#FDC060"/>
</linearGradient>
<path display="none" fill="url(#SVGID_3_)" stroke="#000000" stroke-width="3" stroke-miterlimit="10" d="M109.092,493.628l-72,70
	c0,0-13.53,0.171-11-15s23-55,23-55s1-8,21-9S109.092,493.628,109.092,493.628z"/>
<linearGradient id="SVGID_4_" gradientUnits="userSpaceOnUse" x1="430.9292" y1="536.376" x2="485.8235" y2="515.304">
	<stop  offset="0.503" style="stop-color:#FDC060"/>
	<stop  offset="1" style="stop-color:#8B5E3C"/>
</linearGradient>
<path display="none" fill="url(#SVGID_4_)" stroke="#000000" stroke-width="3" stroke-miterlimit="10" d="M414.52,493.628l72,70
	c0,0,13.529,0.171,11-15s-23-55-23-55s-1-8-21-9S414.52,493.628,414.52,493.628z"/>
<linearGradient id="SVGID_5_" gradientUnits="userSpaceOnUse" x1="1.5" y1="461.1279" x2="107.0923" y2="461.1279">
	<stop  offset="0" style="stop-color:#BCBEC0"/>
	<stop  offset="0.3333" style="stop-color:#E6E7E8"/>
</linearGradient>
<path display="none" fill="url(#SVGID_5_)" stroke="#000000" stroke-width="3" stroke-miterlimit="10" d="M2.092,456.628
	c0-18,7.316-28,35-28s51,8,51,8l19,57c0,0-71.883-16.141-90.941-9.07S2.092,456.628,2.092,456.628z"/>
<linearGradient id="SVGID_6_" gradientUnits="userSpaceOnUse" x1="416.52" y1="461.1279" x2="522.1118" y2="461.1279">
	<stop  offset="0.6316" style="stop-color:#E6E7E8"/>
	<stop  offset="0.6867" style="stop-color:#DBDCDD"/>
	<stop  offset="0.7932" style="stop-color:#CACBCD"/>
	<stop  offset="0.8984" style="stop-color:#BFC1C3"/>
	<stop  offset="1" style="stop-color:#BCBEC0"/>
</linearGradient>
<path display="none" fill="url(#SVGID_6_)" stroke="#000000" stroke-width="3" stroke-miterlimit="10" d="M521.52,456.628
	c0-18-7.316-28-35-28s-51,8-51,8l-19,57c0,0,71.883-16.141,90.941-9.07S521.52,456.628,521.52,456.628z"/>
<path display="none" fill="#FBB040" stroke="#000000" stroke-width="3" stroke-miterlimit="10" d="M2.092,456.628c0,0,8,6,23,6
	c9.731,10.067,11,32,11,58.345c-25-1.345-34-19.345-34-48.345S2.092,456.628,2.092,456.628z"/>
<path display="none" fill="#FBB040" stroke="#000000" stroke-width="3" stroke-miterlimit="10" d="M521.52,456.628c0,0-8,6-23,6
	c-9.731,10.067-11,32-11,58.345c25-1.345,34-19.345,34-48.345S521.52,456.628,521.52,456.628z"/>
<g>
	<defs>
		<path id="SVGID_2_" d="M261.113,3.5H10.092c0,0,0,138.937,0,258.714c0,161.081,140,299,251.714,341
			c118.286-39,251.714-175.92,251.714-337c0-119.778,0-262.714,0-262.714H261.113z"/>
	</defs>
	<use xlink:href="#SVGID_2_"  overflow="visible" fill="#FFFFFF"/>
	<clipPath id="SVGID_7_">
		<use xlink:href="#SVGID_2_"  overflow="visible"/>
	</clipPath>
	<polygon clip-path="url(#SVGID_7_)" fill="#ED1C24" points="10.092,520.529 264.923,395.215 513.52,517.464 513.52,455.06 
		264.923,332.811 10.092,458.125 	"/>
	<polygon clip-path="url(#SVGID_7_)" fill="#ED1C24" points="10.092,302.53 264.923,177.215 513.52,299.464 513.52,237.06 
		264.923,114.811 10.092,240.125 	"/>
	<g clip-path="url(#SVGID_7_)">
		<g>
			<path fill="#414042" stroke="#000000" stroke-width="2" stroke-miterlimit="10" d="M399.282,90.128l15.642-37l57.5-4.272
				c0,0-16.02,16.77-32.76,17.521S410.14,92.628,399.282,90.128z"/>
			<path fill="#414042" d="M488.923,83.128c-17.5,0-30.486,2-47.993-15.5s-23.507-15.5-19.507-21.5s15-27-1.5-31.5
				c-8.229-2.244-13.597,0.611-16.539,5.216c-2.827,0.049-9.461-0.216-9.461-0.216l6.729,8.972
				c-0.166,2.466,0.103,4.909,0.771,7.028c0,0-9,6.5-10.5,13.5c-0.222,1.034-0.399,2.22-0.478,3.519
				c-0.449,7.496,2.431,18.737,19.478,25.981c1.808,0.768,3.506,1.432,5.115,2.014c-0.934,6.852-3.672,16.037-11.365,21.736
				c0,0,16.25-0.75,22.25-9.75c4.5,10,10,15.5,20.5,16c-7.135-9.514-8.456-16.042-9.693-22.822
				c4.566,0.922,9.065,2.217,14.693,5.322c14.5,8,24,19.5,26,21c0.712-5.189,1.5-12.5-7-20
				C480.423,91.628,486.923,90.628,488.923,83.128z"/>
			<path fill="#58595B" d="M458.673,87.878c0,0,14.25,0.922,19.25-0.75c0,0-29.25-5.021-31-10.771
				c-0.088-0.288-0.24-3.345-0.426-3.691c-1.811-1.471-3.661-3.133-5.567-5.038c-17.507-17.5-23.507-15.5-19.507-21.5
				s15-27-1.5-31.5c-7.217-1.968-12.231-0.014-15.341,3.602c-1.776,5.399-3.257,11.733-3.749,14.712
				c0.138,0.931,0.322,1.839,0.59,2.686c0,0-9,6.5-10.5,13.5c-0.222,1.034-0.399,2.22-0.478,3.519
				c-0.041,0.682-0.03,2.135-0.03,2.135c5.008,11.096,13.646,15.88,23.258,21.815c1.768-2.197,1.5-4.969,1.5-4.969s5,3.75,4.25,11.5
				s-3.875,13.125-3.875,13.125s8.125-6.375,10.125-6.875s6.889,6.774,11.5,10.328c3.233,2.49-7-12.713-6.5-18.963
				c0.374-4.678,20.248,2.688,31.875,14.01c6.178,4.529,6.413,5.138,9.375,8.125C468.173,96.378,467.775,93.249,458.673,87.878z"/>
			<path fill="#6D6E71" d="M394.871,41.824c-1.788,2.159-3.389,4.696-3.947,7.304c-0.222,1.034-0.399,2.22-0.478,3.519
				c-0.011,0.183-0.019,0.421-0.022,0.671c0.914,1.597,2.308,2.619,3.87,2.619c2.755,0,4.988-3.171,4.988-7.082
				C399.282,45.221,397.353,42.23,394.871,41.824z"/>
			<path fill="none" stroke="#000000" stroke-width="2" stroke-miterlimit="10" d="M488.923,83.128c-17.5,0-30.486,2-47.993-15.5
				s-23.507-15.5-19.507-21.5s15-27-1.5-31.5c-8.229-2.244-13.597,0.611-16.539,5.216c-2.827,0.049-9.461-0.216-9.461-0.216
				l6.729,8.972c-0.166,2.466,0.103,4.909,0.771,7.028c0,0-9,6.5-10.5,13.5c-0.222,1.034-0.399,2.22-0.478,3.519
				c-0.449,7.496,2.431,18.737,19.478,25.981c1.808,0.768,3.506,1.432,5.115,2.014c-0.934,6.852-3.672,16.037-11.365,21.736
				c0,0,16.25-0.75,22.25-9.75c4.5,10,10,15.5,20.5,16c-7.135-9.514-8.456-16.042-9.693-22.822
				c4.566,0.922,9.065,2.217,14.693,5.322c14.5,8,24,19.5,26,21c0.712-5.189,1.5-12.5-7-20
				C480.423,91.628,486.923,90.628,488.923,83.128z"/>
			<path fill="#414042" d="M403.673,53.628c-3.997,6.583,10.25,16.5,25.75,20.5s50.5,2.5,54,0s-52.26-23.135-62.88-24.067
				S407.923,46.628,403.673,53.628z"/>
			<path fill="#58595B" d="M479.436,70.854c-12.633-6.556-50.353-20.043-58.893-20.793c-10.62-0.933-12.62-3.433-16.87,3.567
				c-2.792,4.598,2.42,10.445,11.449,14.842c5.912,2.878,19.046-0.976,13.286-13.898c4.953,4.954,28.015,11.556,28.015,11.556
				l-22.255-3.401l0.938,2.775l26.817,5.076l-26.5-2.2l0.75,1.887c0,0,17.522,3.281,21.75,3.363
				C465.917,73.783,475.949,73.579,479.436,70.854z"/>
			
				<ellipse transform="matrix(0.95 0.3121 -0.3121 0.95 39.0928 -127.204)" fill="#6D6E71" cx="416.892" cy="58.512" rx="10.75" ry="6.75"/>
			<path fill="none" stroke="#000000" stroke-width="2" stroke-linecap="round" stroke-linejoin="round" stroke-miterlimit="10" d="
				M407.275,49.542c-1.199,0.678-2.294,1.932-3.602,4.086c-3.997,6.583,10.25,16.5,25.75,20.5s50.5,2.5,54,0
				s-52.26-23.135-62.88-24.067"/>
			<ellipse cx="412.041" cy="25.378" rx="2.509" ry="2.5"/>
			<path fill="none" stroke="#000000" stroke-linecap="round" stroke-miterlimit="10" d="M422.173,21.878c2.75,2-0.75,15-7,16.25
				s-9.961-1.145-8.75-3.145"/>
		</g>
		<g>
			<path fill="#414042" stroke="#000000" stroke-width="2" stroke-miterlimit="10" d="M221.424,90.128l15.642-37l57.5-4.272
				c0,0-16.02,16.77-32.76,17.521S232.283,92.628,221.424,90.128z"/>
			<path fill="#414042" d="M311.066,83.128c-17.5,0-30.486,2-47.993-15.5s-23.507-15.5-19.507-21.5s15-27-1.5-31.5
				c-8.229-2.244-13.597,0.611-16.539,5.216c-2.827,0.049-9.461-0.216-9.461-0.216l6.729,8.972
				c-0.166,2.466,0.103,4.909,0.771,7.028c0,0-9,6.5-10.5,13.5c-0.222,1.034-0.399,2.22-0.478,3.519
				c-0.449,7.496,2.431,18.737,19.478,25.981c1.808,0.768,3.506,1.432,5.115,2.014c-0.934,6.852-3.672,16.037-11.365,21.736
				c0,0,16.25-0.75,22.25-9.75c4.5,10,10,15.5,20.5,16c-7.135-9.514-8.456-16.042-9.693-22.822
				c4.566,0.922,9.065,2.217,14.693,5.322c14.5,8,24,19.5,26,21c0.712-5.189,1.5-12.5-7-20
				C302.566,91.628,309.066,90.628,311.066,83.128z"/>
			<path fill="#58595B" d="M280.816,87.878c0,0,14.25,0.922,19.25-0.75c0,0-29.25-5.021-31-10.771
				c-0.088-0.288-0.24-3.345-0.426-3.691c-1.811-1.471-3.661-3.133-5.567-5.038c-17.507-17.5-23.507-15.5-19.507-21.5
				s15-27-1.5-31.5c-7.217-1.968-12.231-0.014-15.341,3.602c-1.776,5.399-3.257,11.733-3.749,14.712
				c0.138,0.931,0.322,1.839,0.59,2.686c0,0-9,6.5-10.5,13.5c-0.222,1.034-0.399,2.22-0.478,3.519
				c-0.041,0.682-0.03,2.135-0.03,2.135c5.008,11.096,13.646,15.88,23.258,21.815c1.768-2.197,1.5-4.969,1.5-4.969s5,3.75,4.25,11.5
				s-3.875,13.125-3.875,13.125s8.125-6.375,10.125-6.875s6.889,6.774,11.5,10.328c3.233,2.49-7-12.713-6.5-18.963
				c0.374-4.678,20.248,2.688,31.875,14.01c6.178,4.529,6.413,5.138,9.375,8.125C290.316,96.378,289.917,93.249,280.816,87.878z"/>
			<path fill="#6D6E71" d="M217.013,41.824c-1.788,2.159-3.389,4.696-3.947,7.304c-0.222,1.034-0.399,2.22-0.478,3.519
				c-0.011,0.183-0.019,0.421-0.022,0.671c0.914,1.597,2.308,2.619,3.87,2.619c2.755,0,4.988-3.171,4.988-7.082
				C221.424,45.221,219.496,42.23,217.013,41.824z"/>
			<path fill="none" stroke="#000000" stroke-width="2" stroke-miterlimit="10" d="M311.066,83.128c-17.5,0-30.486,2-47.993-15.5
				s-23.507-15.5-19.507-21.5s15-27-1.5-31.5c-8.229-2.244-13.597,0.611-16.539,5.216c-2.827,0.049-9.461-0.216-9.461-0.216
				l6.729,8.972c-0.166,2.466,0.103,4.909,0.771,7.028c0,0-9,6.5-10.5,13.5c-0.222,1.034-0.399,2.22-0.478,3.519
				c-0.449,7.496,2.431,18.737,19.478,25.981c1.808,0.768,3.506,1.432,5.115,2.014c-0.934,6.852-3.672,16.037-11.365,21.736
				c0,0,16.25-0.75,22.25-9.75c4.5,10,10,15.5,20.5,16c-7.135-9.514-8.456-16.042-9.693-22.822
				c4.566,0.922,9.065,2.217,14.693,5.322c14.5,8,24,19.5,26,21c0.712-5.189,1.5-12.5-7-20
				C302.566,91.628,309.066,90.628,311.066,83.128z"/>
			<path fill="#414042" d="M225.816,53.628c-3.997,6.583,10.25,16.5,25.75,20.5s50.5,2.5,54,0s-52.26-23.135-62.88-24.067
				S230.066,46.628,225.816,53.628z"/>
			<path fill="#58595B" d="M301.579,70.854c-12.633-6.556-50.353-20.043-58.893-20.793c-10.62-0.933-12.62-3.433-16.87,3.567
				c-2.792,4.598,2.42,10.445,11.449,14.842c5.912,2.878,19.046-0.976,13.286-13.898c4.953,4.954,28.015,11.556,28.015,11.556
				l-22.255-3.401l0.938,2.775l26.817,5.076l-26.5-2.2l0.75,1.887c0,0,17.522,3.281,21.75,3.363
				C288.06,73.783,298.091,73.579,301.579,70.854z"/>
			
				<ellipse transform="matrix(0.95 0.3121 -0.3121 0.95 30.2065 -71.6881)" fill="#6D6E71" cx="239.035" cy="58.512" rx="10.75" ry="6.75"/>
			<path fill="none" stroke="#000000" stroke-width="2" stroke-linecap="round" stroke-linejoin="round" stroke-miterlimit="10" d="
				M229.417,49.542c-1.199,0.678-2.294,1.932-3.602,4.086c-3.997,6.583,10.25,16.5,25.75,20.5s50.5,2.5,54,0
				s-52.26-23.135-62.88-24.067"/>
			<ellipse cx="234.184" cy="25.378" rx="2.509" ry="2.5"/>
			<path fill="none" stroke="#000000" stroke-linecap="round" stroke-miterlimit="10" d="M244.316,21.878c2.75,2-0.75,15-7,16.25
				s-9.961-1.145-8.75-3.145"/>
		</g>
		<g>
			<path fill="#414042" stroke="#000000" stroke-width="2" stroke-miterlimit="10" d="M221.424,511.698l15.642-37l57.5-4.271
				c0,0-16.02,16.77-32.76,17.521S232.283,514.198,221.424,511.698z"/>
			<path fill="#414042" d="M311.066,504.698c-17.5,0-30.486,2-47.993-15.5s-23.507-15.5-19.507-21.5s15-27-1.5-31.5
				c-8.229-2.244-13.597,0.611-16.539,5.217c-2.827,0.049-9.461-0.217-9.461-0.217l6.729,8.973
				c-0.166,2.466,0.103,4.908,0.771,7.027c0,0-9,6.5-10.5,13.5c-0.222,1.034-0.399,2.221-0.478,3.52
				c-0.449,7.496,2.431,18.736,19.478,25.98c1.808,0.768,3.506,1.432,5.115,2.014c-0.934,6.852-3.672,16.037-11.365,21.736
				c0,0,16.25-0.75,22.25-9.75c4.5,10,10,15.5,20.5,16c-7.135-9.514-8.456-16.041-9.693-22.822
				c4.566,0.922,9.065,2.217,14.693,5.322c14.5,8,24,19.5,26,21c0.712-5.189,1.5-12.5-7-20
				C302.566,513.198,309.066,512.198,311.066,504.698z"/>
			<path fill="#58595B" d="M280.816,509.448c0,0,14.25,0.922,19.25-0.75c0,0-29.25-5.02-31-10.77
				c-0.088-0.289-0.24-3.346-0.426-3.691c-1.811-1.471-3.661-3.133-5.567-5.039c-17.507-17.5-23.507-15.5-19.507-21.5
				s15-27-1.5-31.5c-7.217-1.967-12.231-0.014-15.341,3.603c-1.776,5.399-3.257,11.733-3.749,14.712
				c0.138,0.932,0.322,1.84,0.59,2.686c0,0-9,6.5-10.5,13.5c-0.222,1.034-0.399,2.221-0.478,3.52
				c-0.041,0.682-0.03,2.135-0.03,2.135c5.008,11.096,13.646,15.881,23.258,21.814c1.768-2.197,1.5-4.969,1.5-4.969
				s5,3.75,4.25,11.5s-3.875,13.125-3.875,13.125s8.125-6.375,10.125-6.875s6.889,6.775,11.5,10.328c3.233,2.49-7-12.713-6.5-18.963
				c0.374-4.678,20.248,2.688,31.875,14.01c6.178,4.529,6.413,5.139,9.375,8.125C290.316,517.948,289.917,514.819,280.816,509.448z"
				/>
			<path fill="#6D6E71" d="M217.013,463.396c-1.788,2.158-3.389,4.695-3.947,7.303c-0.222,1.034-0.399,2.221-0.478,3.52
				c-0.011,0.183-0.019,0.422-0.022,0.672c0.914,1.597,2.308,2.619,3.87,2.619c2.755,0,4.988-3.172,4.988-7.082
				C221.424,466.792,219.496,463.802,217.013,463.396z"/>
			<path fill="none" stroke="#000000" stroke-width="2" stroke-miterlimit="10" d="M311.066,504.698c-17.5,0-30.486,2-47.993-15.5
				s-23.507-15.5-19.507-21.5s15-27-1.5-31.5c-8.229-2.244-13.597,0.611-16.539,5.217c-2.827,0.049-9.461-0.217-9.461-0.217
				l6.729,8.973c-0.166,2.466,0.103,4.908,0.771,7.027c0,0-9,6.5-10.5,13.5c-0.222,1.034-0.399,2.221-0.478,3.52
				c-0.449,7.496,2.431,18.736,19.478,25.98c1.808,0.768,3.506,1.432,5.115,2.014c-0.934,6.852-3.672,16.037-11.365,21.736
				c0,0,16.25-0.75,22.25-9.75c4.5,10,10,15.5,20.5,16c-7.135-9.514-8.456-16.041-9.693-22.822
				c4.566,0.922,9.065,2.217,14.693,5.322c14.5,8,24,19.5,26,21c0.712-5.189,1.5-12.5-7-20
				C302.566,513.198,309.066,512.198,311.066,504.698z"/>
			<path fill="#414042" d="M225.816,475.198c-3.997,6.584,10.25,16.5,25.75,20.5s50.5,2.5,54,0s-52.26-23.135-62.88-24.066
				C232.066,470.698,230.066,468.198,225.816,475.198z"/>
			<path fill="#58595B" d="M301.579,492.425c-12.633-6.557-50.353-20.043-58.893-20.793c-10.62-0.934-12.62-3.434-16.87,3.566
				c-2.792,4.599,2.42,10.445,11.449,14.843c5.912,2.878,19.046-0.976,13.286-13.897c4.953,4.953,28.015,11.555,28.015,11.555
				l-22.255-3.4l0.938,2.775l26.817,5.076l-26.5-2.201l0.75,1.887c0,0,17.522,3.281,21.75,3.363
				C288.06,495.354,298.091,495.149,301.579,492.425z"/>
			
				<ellipse transform="matrix(0.95 0.3121 -0.3121 0.95 161.7945 -50.6252)" fill="#6D6E71" cx="239.035" cy="480.083" rx="10.75" ry="6.75"/>
			<path fill="none" stroke="#000000" stroke-width="2" stroke-linecap="round" stroke-linejoin="round" stroke-miterlimit="10" d="
				M229.417,471.112c-1.199,0.678-2.294,1.932-3.602,4.086c-3.997,6.584,10.25,16.5,25.75,20.5s50.5,2.5,54,0
				s-52.26-23.135-62.88-24.066"/>
			<ellipse cx="234.184" cy="446.948" rx="2.509" ry="2.5"/>
			<path fill="none" stroke="#000000" stroke-linecap="round" stroke-miterlimit="10" d="M244.316,443.448c2.75,2-0.75,15-7,16.25
				s-9.961-1.145-8.75-3.145"/>
		</g>
		<g>
			<path fill="#414042" stroke="#000000" stroke-width="2" stroke-miterlimit="10" d="M42.032,91.128l15.642-37l57.5-4.272
				c0,0-16.02,16.77-32.76,17.521S52.89,93.628,42.032,91.128z"/>
			<path fill="#414042" d="M131.673,84.128c-17.5,0-30.486,2-47.993-15.5s-23.507-15.5-19.507-21.5s15-27-1.5-31.5
				c-8.229-2.244-13.597,0.611-16.539,5.216c-2.827,0.049-9.461-0.216-9.461-0.216l6.729,8.972
				c-0.166,2.466,0.103,4.909,0.771,7.028c0,0-9,6.5-10.5,13.5c-0.222,1.034-0.399,2.22-0.478,3.519
				c-0.449,7.496,2.431,18.737,19.478,25.981c1.808,0.768,3.506,1.432,5.115,2.014c-0.934,6.852-3.672,16.037-11.365,21.736
				c0,0,16.25-0.75,22.25-9.75c4.5,10,10,15.5,20.5,16c-7.135-9.514-8.456-16.042-9.693-22.822
				c4.566,0.922,9.065,2.217,14.693,5.322c14.5,8,24,19.5,26,21c0.712-5.189,1.5-12.5-7-20
				C123.173,92.628,129.673,91.628,131.673,84.128z"/>
			<path fill="#58595B" d="M101.423,88.878c0,0,14.25,0.922,19.25-0.75c0,0-29.25-5.021-31-10.771
				c-0.088-0.288-0.24-3.345-0.426-3.691c-1.811-1.471-3.661-3.133-5.567-5.038c-17.507-17.5-23.507-15.5-19.507-21.5
				s15-27-1.5-31.5c-7.217-1.968-12.231-0.014-15.341,3.602c-1.776,5.399-3.257,11.733-3.749,14.712
				c0.138,0.931,0.322,1.839,0.59,2.686c0,0-9,6.5-10.5,13.5c-0.222,1.034-0.399,2.22-0.478,3.519
				c-0.041,0.682-0.03,2.135-0.03,2.135c5.008,11.096,13.646,15.88,23.258,21.815c1.768-2.197,1.5-4.969,1.5-4.969s5,3.75,4.25,11.5
				s-3.875,13.125-3.875,13.125s8.125-6.375,10.125-6.875s6.889,6.774,11.5,10.328c3.233,2.49-7-12.713-6.5-18.963
				c0.374-4.678,20.248,2.688,31.875,14.01c6.178,4.529,6.413,5.138,9.375,8.125C110.923,97.378,110.525,94.249,101.423,88.878z"/>
			<path fill="#6D6E71" d="M37.621,42.824c-1.788,2.159-3.389,4.696-3.947,7.304c-0.222,1.034-0.399,2.22-0.478,3.519
				c-0.011,0.183-0.019,0.421-0.022,0.671c0.914,1.597,2.308,2.619,3.87,2.619c2.755,0,4.988-3.171,4.988-7.082
				C42.032,46.221,40.103,43.23,37.621,42.824z"/>
			<path fill="none" stroke="#000000" stroke-width="2" stroke-miterlimit="10" d="M131.673,84.128c-17.5,0-30.486,2-47.993-15.5
				s-23.507-15.5-19.507-21.5s15-27-1.5-31.5c-8.229-2.244-13.597,0.611-16.539,5.216c-2.827,0.049-9.461-0.216-9.461-0.216
				l6.729,8.972c-0.166,2.466,0.103,4.909,0.771,7.028c0,0-9,6.5-10.5,13.5c-0.222,1.034-0.399,2.22-0.478,3.519
				c-0.449,7.496,2.431,18.737,19.478,25.981c1.808,0.768,3.506,1.432,5.115,2.014c-0.934,6.852-3.672,16.037-11.365,21.736
				c0,0,16.25-0.75,22.25-9.75c4.5,10,10,15.5,20.5,16c-7.135-9.514-8.456-16.042-9.693-22.822
				c4.566,0.922,9.065,2.217,14.693,5.322c14.5,8,24,19.5,26,21c0.712-5.189,1.5-12.5-7-20
				C123.173,92.628,129.673,91.628,131.673,84.128z"/>
			<path fill="#414042" d="M46.423,54.628c-3.997,6.583,10.25,16.5,25.75,20.5s50.5,2.5,54,0s-52.26-23.135-62.88-24.067
				S50.673,47.628,46.423,54.628z"/>
			<path fill="#58595B" d="M122.186,71.854c-12.633-6.556-50.353-20.043-58.893-20.793c-10.62-0.933-12.62-3.433-16.87,3.567
				c-2.792,4.598,2.42,10.445,11.449,14.842c5.912,2.878,19.046-0.976,13.286-13.898c4.953,4.954,28.015,11.556,28.015,11.556
				l-22.255-3.401l0.938,2.775l26.817,5.076l-26.5-2.2l0.75,1.887c0,0,17.522,3.281,21.75,3.363
				C108.667,74.783,118.699,74.579,122.186,71.854z"/>
			
				<ellipse transform="matrix(0.95 0.3121 -0.3121 0.95 21.5557 -15.6431)" fill="#6D6E71" cx="59.642" cy="59.512" rx="10.75" ry="6.75"/>
			<path fill="none" stroke="#000000" stroke-width="2" stroke-linecap="round" stroke-linejoin="round" stroke-miterlimit="10" d="
				M50.025,50.542c-1.199,0.678-2.294,1.932-3.602,4.086c-3.997,6.583,10.25,16.5,25.75,20.5s50.5,2.5,54,0
				s-52.26-23.135-62.88-24.067"/>
			<ellipse cx="54.791" cy="26.378" rx="2.509" ry="2.5"/>
			<path fill="none" stroke="#000000" stroke-linecap="round" stroke-miterlimit="10" d="M64.923,22.878c2.75,2-0.75,15-7,16.25
				s-9.961-1.145-8.75-3.145"/>
		</g>
		<g>
			<path fill="#414042" stroke="#000000" stroke-width="2" stroke-miterlimit="10" d="M312.634,324.244l15.643-37l57.5-4.272
				c0,0-16.02,16.77-32.76,17.521S323.494,326.744,312.634,324.244z"/>
			<path fill="#414042" d="M402.277,317.244c-17.5,0-30.486,2-47.994-15.5c-17.506-17.5-23.506-15.5-19.506-21.5s15-27-1.5-31.5
				c-8.23-2.244-13.598,0.611-16.539,5.216c-2.828,0.049-9.461-0.216-9.461-0.216l6.729,8.972c-0.166,2.466,0.102,4.909,0.771,7.028
				c0,0-9,6.5-10.5,13.5c-0.223,1.034-0.4,2.22-0.479,3.519c-0.449,7.496,2.432,18.737,19.479,25.981
				c1.807,0.768,3.506,1.432,5.115,2.014c-0.934,6.852-3.672,16.037-11.365,21.736c0,0,16.25-0.75,22.25-9.75
				c4.5,10,10,15.5,20.5,16c-7.135-9.514-8.457-16.042-9.693-22.822c4.566,0.922,9.064,2.217,14.693,5.322c14.5,8,24,19.5,26,21
				c0.711-5.189,1.5-12.5-7-20C393.777,325.744,400.277,324.744,402.277,317.244z"/>
			<path fill="#58595B" d="M372.027,321.994c0,0,14.25,0.922,19.25-0.75c0,0-29.25-5.021-31-10.771
				c-0.088-0.288-0.24-3.345-0.426-3.691c-1.811-1.471-3.662-3.133-5.568-5.038c-17.506-17.5-23.506-15.5-19.506-21.5
				s15-27-1.5-31.5c-7.217-1.968-12.232-0.014-15.342,3.602c-1.775,5.399-3.256,11.733-3.748,14.712
				c0.137,0.931,0.322,1.839,0.59,2.686c0,0-9,6.5-10.5,13.5c-0.223,1.034-0.4,2.22-0.479,3.519
				c-0.041,0.682-0.029,2.135-0.029,2.135c5.008,11.096,13.646,15.88,23.258,21.815c1.768-2.197,1.5-4.969,1.5-4.969
				s5,3.75,4.25,11.5s-3.875,13.125-3.875,13.125s8.125-6.375,10.125-6.875s6.889,6.774,11.5,10.328c3.232,2.49-7-12.713-6.5-18.963
				c0.373-4.678,20.248,2.688,31.875,14.01c6.178,4.529,6.412,5.138,9.375,8.125C381.527,330.494,381.128,327.365,372.027,321.994z"
				/>
			<path fill="#6D6E71" d="M308.224,275.94c-1.789,2.159-3.389,4.696-3.947,7.304c-0.223,1.034-0.4,2.22-0.479,3.519
				c-0.01,0.183-0.018,0.421-0.021,0.671c0.914,1.597,2.307,2.619,3.869,2.619c2.756,0,4.988-3.171,4.988-7.082
				C312.634,279.337,310.707,276.347,308.224,275.94z"/>
			<path fill="none" stroke="#000000" stroke-width="2" stroke-miterlimit="10" d="M402.277,317.244c-17.5,0-30.486,2-47.994-15.5
				c-17.506-17.5-23.506-15.5-19.506-21.5s15-27-1.5-31.5c-8.23-2.244-13.598,0.611-16.539,5.216
				c-2.828,0.049-9.461-0.216-9.461-0.216l6.729,8.972c-0.166,2.466,0.102,4.909,0.771,7.028c0,0-9,6.5-10.5,13.5
				c-0.223,1.034-0.4,2.22-0.479,3.519c-0.449,7.496,2.432,18.737,19.479,25.981c1.807,0.768,3.506,1.432,5.115,2.014
				c-0.934,6.852-3.672,16.037-11.365,21.736c0,0,16.25-0.75,22.25-9.75c4.5,10,10,15.5,20.5,16
				c-7.135-9.514-8.457-16.042-9.693-22.822c4.566,0.922,9.064,2.217,14.693,5.322c14.5,8,24,19.5,26,21c0.711-5.189,1.5-12.5-7-20
				C393.777,325.744,400.277,324.744,402.277,317.244z"/>
			<path fill="#414042" d="M317.027,287.744c-3.998,6.583,10.25,16.5,25.75,20.5s50.5,2.5,54,0s-52.26-23.135-62.881-24.067
				C323.277,283.244,321.277,280.744,317.027,287.744z"/>
			<path fill="#58595B" d="M392.789,304.97c-12.633-6.556-50.352-20.043-58.893-20.793c-10.619-0.933-12.619-3.433-16.869,3.567
				c-2.793,4.598,2.42,10.445,11.449,14.842c5.912,2.878,19.045-0.976,13.285-13.898c4.953,4.954,28.016,11.556,28.016,11.556
				l-22.256-3.401l0.938,2.775l26.818,5.076l-26.5-2.2l0.75,1.887c0,0,17.521,3.281,21.75,3.363
				C379.271,307.899,389.302,307.695,392.789,304.97z"/>
			
				<ellipse transform="matrix(0.95 0.3121 -0.3121 0.95 107.84 -88.4613)" fill="#6D6E71" cx="330.246" cy="292.628" rx="10.75" ry="6.75"/>
			<path fill="none" stroke="#000000" stroke-width="2" stroke-linecap="round" stroke-linejoin="round" stroke-miterlimit="10" d="
				M320.628,283.658c-1.199,0.678-2.295,1.932-3.602,4.086c-3.998,6.583,10.25,16.5,25.75,20.5s50.5,2.5,54,0
				s-52.26-23.135-62.881-24.067"/>
			<ellipse cx="325.394" cy="259.494" rx="2.51" ry="2.5"/>
			<path fill="none" stroke="#000000" stroke-linecap="round" stroke-miterlimit="10" d="M335.527,255.994c2.75,2-0.75,15-7,16.25
				s-9.961-1.145-8.75-3.145"/>
		</g>
		<g>
			<path fill="#414042" stroke="#000000" stroke-width="2" stroke-miterlimit="10" d="M133.242,325.244l15.642-37l57.5-4.272
				c0,0-16.02,16.77-32.76,17.521S144.1,327.744,133.242,325.244z"/>
			<path fill="#414042" d="M222.883,318.244c-17.5,0-30.486,2-47.993-15.5s-23.507-15.5-19.507-21.5s15-27-1.5-31.5
				c-8.229-2.244-13.597,0.611-16.539,5.216c-2.827,0.049-9.461-0.216-9.461-0.216l6.729,8.972
				c-0.166,2.466,0.103,4.909,0.771,7.028c0,0-9,6.5-10.5,13.5c-0.222,1.034-0.399,2.22-0.478,3.519
				c-0.449,7.496,2.431,18.737,19.478,25.981c1.808,0.768,3.506,1.432,5.115,2.014c-0.934,6.852-3.672,16.037-11.365,21.736
				c0,0,16.25-0.75,22.25-9.75c4.5,10,10,15.5,20.5,16c-7.135-9.514-8.456-16.042-9.693-22.822
				c4.566,0.922,9.065,2.217,14.693,5.322c14.5,8,24,19.5,26,21c0.712-5.189,1.5-12.5-7-20
				C214.383,326.744,220.883,325.744,222.883,318.244z"/>
			<path fill="#58595B" d="M192.633,322.994c0,0,14.25,0.922,19.25-0.75c0,0-29.25-5.021-31-10.771
				c-0.088-0.288-0.24-3.345-0.426-3.691c-1.811-1.471-3.661-3.133-5.567-5.038c-17.507-17.5-23.507-15.5-19.507-21.5
				s15-27-1.5-31.5c-7.217-1.968-12.231-0.014-15.341,3.602c-1.776,5.399-3.257,11.733-3.749,14.712
				c0.138,0.931,0.322,1.839,0.59,2.686c0,0-9,6.5-10.5,13.5c-0.222,1.034-0.399,2.22-0.478,3.519
				c-0.041,0.682-0.03,2.135-0.03,2.135c5.008,11.096,13.646,15.88,23.258,21.815c1.768-2.197,1.5-4.969,1.5-4.969s5,3.75,4.25,11.5
				s-3.875,13.125-3.875,13.125s8.125-6.375,10.125-6.875s6.889,6.774,11.5,10.328c3.233,2.49-7-12.713-6.5-18.963
				c0.374-4.678,20.248,2.688,31.875,14.01c6.178,4.529,6.413,5.138,9.375,8.125C202.133,331.494,201.735,328.365,192.633,322.994z"
				/>
			<path fill="#6D6E71" d="M128.831,276.94c-1.788,2.159-3.389,4.696-3.947,7.304c-0.222,1.034-0.399,2.22-0.478,3.519
				c-0.011,0.183-0.019,0.421-0.022,0.671c0.914,1.597,2.308,2.619,3.87,2.619c2.755,0,4.988-3.171,4.988-7.082
				C133.242,280.337,131.313,277.347,128.831,276.94z"/>
			<path fill="none" stroke="#000000" stroke-width="2" stroke-miterlimit="10" d="M222.883,318.244c-17.5,0-30.486,2-47.993-15.5
				s-23.507-15.5-19.507-21.5s15-27-1.5-31.5c-8.229-2.244-13.597,0.611-16.539,5.216c-2.827,0.049-9.461-0.216-9.461-0.216
				l6.729,8.972c-0.166,2.466,0.103,4.909,0.771,7.028c0,0-9,6.5-10.5,13.5c-0.222,1.034-0.399,2.22-0.478,3.519
				c-0.449,7.496,2.431,18.737,19.478,25.981c1.808,0.768,3.506,1.432,5.115,2.014c-0.934,6.852-3.672,16.037-11.365,21.736
				c0,0,16.25-0.75,22.25-9.75c4.5,10,10,15.5,20.5,16c-7.135-9.514-8.456-16.042-9.693-22.822
				c4.566,0.922,9.065,2.217,14.693,5.322c14.5,8,24,19.5,26,21c0.712-5.189,1.5-12.5-7-20
				C214.383,326.744,220.883,325.744,222.883,318.244z"/>
			<path fill="#414042" d="M137.633,288.744c-3.997,6.583,10.25,16.5,25.75,20.5s50.5,2.5,54,0s-52.26-23.135-62.88-24.067
				S141.883,281.744,137.633,288.744z"/>
			<path fill="#58595B" d="M213.396,305.97c-12.633-6.556-50.353-20.043-58.893-20.793c-10.62-0.933-12.62-3.433-16.87,3.567
				c-2.792,4.598,2.42,10.445,11.449,14.842c5.912,2.878,19.046-0.976,13.286-13.898c4.953,4.954,28.015,11.556,28.015,11.556
				l-22.255-3.401l0.938,2.775l26.817,5.076l-26.5-2.2l0.75,1.887c0,0,17.522,3.281,21.75,3.363
				C199.877,308.899,209.909,308.695,213.396,305.97z"/>
			
				<ellipse transform="matrix(0.95 0.3121 -0.3121 0.95 99.1891 -32.416)" fill="#6D6E71" cx="150.852" cy="293.628" rx="10.75" ry="6.75"/>
			<path fill="none" stroke="#000000" stroke-width="2" stroke-linecap="round" stroke-linejoin="round" stroke-miterlimit="10" d="
				M141.235,284.658c-1.199,0.678-2.294,1.932-3.602,4.086c-3.997,6.583,10.25,16.5,25.75,20.5s50.5,2.5,54,0
				s-52.26-23.135-62.88-24.067"/>
			<ellipse cx="146.001" cy="260.494" rx="2.509" ry="2.5"/>
			<path fill="none" stroke="#000000" stroke-linecap="round" stroke-miterlimit="10" d="M156.133,256.994c2.75,2-0.75,15-7,16.25
				s-9.961-1.145-8.75-3.145"/>
		</g>
	</g>
	<use xlink:href="#SVGID_2_"  overflow="visible" fill="none" stroke="#000000" stroke-width="7" stroke-miterlimit="10"/>
</g>
<radialGradient id="SVGID_8_" cx="261.8062" cy="575.5225" r="180.5935" gradientUnits="userSpaceOnUse">
	<stop  offset="0.6316" style="stop-color:#FFFFFF"/>
	<stop  offset="0.7049" style="stop-color:#F4F5F5"/>
	<stop  offset="0.8549" style="stop-color:#EAEBEB"/>
	<stop  offset="1" style="stop-color:#E6E7E8"/>
</radialGradient>
<path display="none" fill="url(#SVGID_8_)" stroke="#000000" stroke-width="3" stroke-miterlimit="10" d="M474.52,493.628
	c0,0-35,101-212.714,101s-212.714-101-212.714-101s-32,43-29,61S84.52,657.416,261.806,657.416S500.52,572.628,503.52,554.628
	S474.52,493.628,474.52,493.628z"/>
<g display="none">
	<path fill="none" d="M20.092,554.628c3,18,64.428,102.788,241.714,102.788S500.52,572.628,503.52,554.628"/>
	<path display="inline" d="M72.568,592.091l3.99-1.638l0.245,0.097c0.067,0.022,0.189,0.107,0.369,0.255
		c0.089,0.074,0.192,0.147,0.31,0.22c1.064,0.658,2.143,0.711,3.235,0.156c1.092-0.554,2.515-1.878,4.27-3.973l14.541-17.323
		c-2.012-1.244-4.096-1.511-6.25-0.801c-2.155,0.711-3.968,2.256-5.439,4.637l-0.273,0.44l-4.008,0.128
		c5.411-7.615,12.034-9.001,19.868-4.157l4.234,2.619c3.262,2.017,5.102,4.305,5.518,6.864c0.416,2.559-0.542,5.724-2.874,9.494
		c-3.779,6.111-8.278,9.942-13.498,11.493c-5.22,1.552-10.544,0.647-15.975-2.71c-0.225-0.14-0.667-0.44-1.325-0.903L72.568,592.091
		z M79.42,592.834l2.236,2.214c1.209,1.211,2.547,2.269,4.012,3.175c2.012,1.244,3.813,1.836,5.404,1.774
		c1.59-0.061,3.485-0.798,5.683-2.212c3.873-2.485,7.145-5.888,9.815-10.207c4.118-6.659,3.491-11.65-1.881-14.972l-1.832-1.133
		l-11.755,13.999c-2.129,2.547-3.987,4.318-5.575,5.314C83.939,591.783,81.903,592.465,79.42,592.834z"/>
	<path display="inline" d="M102.137,609.414l3.765-2.159l0.267,0.119c1.592,0.716,2.893,0.757,3.9,0.124
		c1.008-0.632,2.42-2.383,4.238-5.253l11.683-18.365c-2.159-0.969-4.259-0.96-6.301,0.027c-2.042,0.988-3.637,2.758-4.783,5.312
		l-0.212,0.473l-3.957,0.653c2.213-4.229,4.903-6.881,8.068-7.959c3.165-1.077,6.938-0.633,11.317,1.333l9.24,4.149l-4.132,5.461
		l-0.99-0.445c0.335-0.521,0.602-1.005,0.802-1.449c0.509-1.133,0.386-2.128-0.369-2.983c-0.755-0.856-2.384-1.847-4.888-2.971
		l-0.487-0.219l-7.542,11.918l7.009,3.147l-2.598,1.495c-2.192-1.483-3.717-2.418-4.576-2.804l-0.786-0.353l-1.372,2.172
		c-1.537,2.441-3.022,4.257-4.456,5.445c-1.434,1.188-3.316,2.163-5.646,2.924l7.36,3.795l1.621,0.806
		c1.708,0.767,3.663,0.688,5.865-0.236l-1.024,1.608c-3.007,1.735-5.328,2.235-6.962,1.502l-0.713-0.347L102.137,609.414z"/>
	<path display="inline" d="M134.101,623.374c-2.677-0.904-4.411-2.759-5.203-5.565c-0.792-2.807-0.529-6.161,0.789-10.063
		c1.977-5.854,5.184-10.497,9.621-13.928c4.438-3.43,8.604-4.487,12.499-3.172c2.655,0.896,4.379,2.728,5.172,5.492
		c0.793,2.766,0.542,6.07-0.756,9.913c-2.062,6.108-5.264,10.86-9.604,14.256C142.277,623.704,138.105,624.726,134.101,623.374z
		 M135.25,622.069c2.829,0.955,5.946-0.273,9.352-3.688c3.406-3.414,6.078-7.987,8.018-13.722
		c2.451-7.271,1.834-11.528-1.851-12.772c-2.83-0.955-5.945,0.25-9.346,3.615c-3.401,3.365-6.059,7.878-7.974,13.537
		C130.943,616.475,131.543,620.817,135.25,622.069z"/>
	<path display="inline" d="M186.648,635.697l3-3.112l0.222,0.03c0.057,0.008,0.173,0.048,0.349,0.119
		c0.187,0.073,0.4,0.126,0.639,0.159c1.161,0.158,2.142-0.298,2.943-1.371c0.802-1.072,1.599-2.982,2.393-5.73l6.134-21.321
		c-2.344-0.32-4.356,0.282-6.038,1.809c-1.681,1.526-2.711,3.678-3.091,6.454l-0.07,0.515l-3.612,1.747
		c0.965-4.762,2.808-8.089,5.53-9.981c2.722-1.892,6.541-2.502,11.456-1.829c3.834,0.524,6.451,1.396,7.85,2.611
		s1.926,3.079,1.583,5.589c-0.568,4.147-3.265,7.385-8.092,9.71l2.809,9.967c0.999,3.545,1.851,5.365,2.556,5.462
		c0.773,0.105,2.35-1.083,4.73-3.566l-0.628,2.176c-2.972,3.163-5.049,4.665-6.232,4.503c-1.536-0.211-2.911-2.787-4.124-7.729
		l-2.513-10.223l-3.226-0.441l-0.595,2.062c-1.305,4.534-3.694,7.937-7.169,10.206l6.648,1.101l-2.829,3.136L186.648,635.697z
		 M201.615,619.845l4.523,0.619c3.393-1.665,5.384-4.659,5.976-8.98c0.544-3.978-1.266-6.252-5.43-6.822l-0.666-0.091
		L201.615,619.845z"/>
	<path display="inline" d="M217.313,639.552l2.791-3.325l0.292,0.021c1.741,0.123,2.976-0.286,3.705-1.227
		c0.729-0.941,1.451-3.071,2.169-6.392l4.643-21.266c-2.36-0.166-4.329,0.566-5.906,2.196c-1.577,1.631-2.464,3.842-2.661,6.633
		l-0.036,0.518l-3.49,1.977c0.622-4.731,2.232-8.148,4.833-10.251c2.601-2.102,6.295-2.984,11.083-2.646l10.104,0.713l-1.999,6.55
		l-1.083-0.076c0.135-0.605,0.219-1.151,0.253-1.638c0.087-1.238-0.371-2.13-1.374-2.674c-1.004-0.543-2.875-0.912-5.612-1.104
		l-0.533-0.038l-2.976,13.787l7.664,0.54l-1.923,2.299c-2.569-0.638-4.323-0.99-5.262-1.056l-0.859-0.061l-0.54,2.511
		c-0.602,2.821-1.372,5.037-2.308,6.647c-0.937,1.61-2.368,3.173-4.294,4.689l8.217,1.028l1.799,0.197
		c1.867,0.132,3.675-0.615,5.425-2.241l-0.408,1.862c-2.226,2.665-4.232,3.934-6.02,3.808l-0.789-0.079L217.313,639.552z"/>
	<path display="inline" d="M244.642,648.761l2.97-2.193c1.346,1.76,3.098,2.66,5.256,2.699c1.516,0.028,2.689-0.562,3.522-1.768
		c0.832-1.207,1.528-3.318,2.089-6.335c0.038-0.204,0.096-0.503,0.172-0.896c-2.059,0.748-4.201,1.102-6.43,1.061
		c-2.951-0.054-5.257-1.26-6.919-3.616c-1.662-2.356-2.457-5.537-2.383-9.543c0.116-6.269,1.811-11.607,5.085-16.019
		c3.274-4.41,7.163-6.574,11.664-6.491c2.561,0.047,5.05,0.534,7.468,1.46l-1.493,6.207l-1.05-0.02
		c0.056-0.55,0.088-1.029,0.095-1.439c0.026-1.4-0.504-2.54-1.591-3.419c-1.086-0.878-2.531-1.334-4.334-1.367
		c-3.077-0.057-5.823,2.016-8.238,6.217c-2.415,4.202-3.674,9.093-3.777,14.674c-0.063,3.411,0.634,6.117,2.09,8.117
		s3.471,3.024,6.043,3.071c1.584,0.029,2.938-0.189,4.061-0.655l1.921-11.713l-3.048-0.056c-2.021-0.037-3.875,0.815-5.561,2.558
		l0.254-1.619c2.117-2.696,4.209-4.025,6.275-3.987l6.166,0.113l-1.478,7.262l-0.912,5.55c-0.84,5.08-2.227,8.793-4.159,11.14
		s-4.547,3.49-7.842,3.43C248.079,651.137,246.106,650.329,244.642,648.761z"/>
	<path display="inline" d="M264.921,641.465l2.511-3.543l1.154-0.024c1.309-0.026,2.264-0.632,2.866-1.816
		c0.602-1.184,1.113-3.502,1.536-6.955l2.411-19.298l-4.668,0.096l2.426-3.541l11.212-0.231l-2.546,3.544l-2.808,0.058
		l-2.084,16.744c-0.642,5.125-2.49,9.023-5.548,11.697l6.704,0.098l-2.408,3.54L264.921,641.465z"/>
	<path display="inline" d="M333.602,636.668l-0.832-6.1c-1.85-12.044-3.933-20.282-6.252-24.714
		c-2.447-4.667-4.897-6.813-7.349-6.436c-2.214,0.34-3.875,2.575-4.983,6.706l-0.965-0.496c1.696-5.749,4.038-8.852,7.023-9.311
		c7.128-1.094,12.412,9.556,15.85,31.95l3.662-12.517c2.222-7.578,3.196-12.254,2.924-14.025c-0.091-0.59-0.647-0.808-1.67-0.65
		l-1.363,0.21l-0.014-1.454l7.329-1.125l-0.003,1.456l-1.415,0.217L335.3,635.811L333.602,636.668z"/>
	<path display="inline" d="M347.568,633.67l1.772-3.964l1.127-0.248c1.279-0.282,2.098-1.062,2.457-2.341
		c0.359-1.278,0.41-3.651,0.152-7.121l-1.396-19.397l-4.56,1.004l1.688-3.946l10.952-2.412l-1.807,3.973l-2.742,0.604l1.219,16.829
		c0.37,5.151-0.684,9.336-3.162,12.554l6.595-1.211l-1.672,3.942L347.568,633.67z"/>
	<path display="inline" d="M383.283,622.448c-2.974,2.924-5.787,4.757-8.441,5.501c-2.853,0.799-5.372,0.321-7.558-1.434
		c-2.186-1.756-3.836-4.624-4.951-8.605c-1.77-6.313-1.768-12.106,0.006-17.379c1.772-5.273,4.799-8.509,9.078-9.708
		c2.555-0.716,5.05-0.94,7.485-0.676l0.341,6.644l-1.045,0.293c-0.089-0.742-0.197-1.342-0.324-1.797
		c-0.369-1.317-1.194-2.238-2.474-2.762c-1.28-0.524-2.761-0.551-4.441-0.08c-2.532,0.71-4.316,2.876-5.353,6.5
		c-0.688,2.398-1.005,5.225-0.952,8.478c0.053,3.254,0.459,6.236,1.219,8.948c0.917,3.272,2.267,5.673,4.048,7.199
		s3.767,1.983,5.956,1.37c2.455-0.688,4.827-2.267,7.117-4.737L383.283,622.448z"/>
	<path display="inline" d="M385.564,623.876l1.268-4.153l1.087-0.387c1.234-0.438,1.95-1.313,2.147-2.627
		c0.198-1.313-0.047-3.675-0.733-7.085l-3.795-19.074l-4.399,1.562l1.186-4.125l10.568-3.753l-1.3,4.166l-2.646,0.939l3.299,16.547
		c1.007,5.065,0.48,9.349-1.578,12.85l6.394-2.021l-1.17,4.119L385.564,623.876z"/>
	<path display="inline" d="M400.656,616.607l0.767-4.163c2.17,1.864,4.18,2.361,6.029,1.492c1.237-0.581,1.996-1.801,2.277-3.661
		c0.28-1.86,0.038-4.053-0.729-6.576l-6.567-21.642c-0.584,0.135-0.985,0.254-1.203,0.356c-1.705,0.801-2.736,2.306-3.095,4.515
		c-0.357,2.209,0.048,4.559,1.218,7.049l-2.072,3.449c-1.563-3.869-1.863-7.437-0.897-10.704c0.965-3.268,3.017-5.639,6.156-7.112
		l1.497-0.703c2.835,3.254,6.125,6.599,9.87,10.033l4.246,3.895c2.939,2.667,5.213,4.873,6.82,6.619l-4.002-13.181
		c-1.386-4.543-1.86-8.337-1.425-11.381c0.435-3.045,1.733-5.075,3.896-6.09c0.77-0.361,1.616-0.517,2.542-0.465l0.23,3.409
		c-1.393-0.562-2.516-0.643-3.368-0.242c-2.245,1.055-2.496,4.438-0.752,10.15l5.211,17.173l2.234,6.663l-1.555,1.876
		c-1.129-1.432-3.631-3.922-7.505-7.47l-8.172-7.471c-2.182-1.998-4.063-3.814-5.644-5.452l2.675,8.774
		c1.681,5.552,2.29,10.138,1.828,13.759c-0.463,3.622-1.967,6.031-4.514,7.228C404.866,617.575,402.867,617.532,400.656,616.607z"/>
	<path display="inline" d="M445.06,596.714c-2.354,1.563-4.882,1.8-7.586,0.709c-2.704-1.092-5.196-3.353-7.476-6.783
		c-3.421-5.146-5.13-10.523-5.127-16.133c0.003-5.608,1.716-9.55,5.141-11.826c2.333-1.551,4.837-1.794,7.51-0.729
		c2.673,1.064,5.132,3.286,7.377,6.665c3.568,5.368,5.366,10.809,5.396,16.32C450.325,590.449,448.58,594.375,445.06,596.714z
		 M444.732,595.006c2.486-1.652,3.422-4.869,2.807-9.652c-0.616-4.782-2.598-9.695-5.945-14.738
		c-4.249-6.389-7.994-8.506-11.233-6.354c-2.487,1.653-3.44,4.854-2.86,9.604c0.58,4.75,2.521,9.613,5.826,14.591
		C437.67,594.989,441.473,597.172,444.732,595.006z"/>
</g>
</svg>
