<!DOCTYPE svg PUBLIC "-//W3C//DTD SVG 1.1//EN" "http://www.w3.org/Graphics/SVG/1.1/DTD/svg11.dtd" [
	<!ENTITY ns_flows "http://ns.adobe.com/Flows/1.0/">
]><svg xmlns="http://www.w3.org/2000/svg" xmlns:xlink="http://www.w3.org/1999/xlink" width="524" height="659" viewBox="0 0 524 659"><linearGradient id="a" gradientUnits="userSpaceOnUse" x1="37.789" y1="515.304" x2="92.683" y2="536.376"><stop offset="0" stop-color="#8B5E3C"/><stop offset=".497" stop-color="#FDC060"/></linearGradient><linearGradient id="b" gradientUnits="userSpaceOnUse" x1="430.929" y1="536.376" x2="485.824" y2="515.304"><stop offset=".503" stop-color="#FDC060"/><stop offset="1" stop-color="#8B5E3C"/></linearGradient><linearGradient id="c" gradientUnits="userSpaceOnUse" x1="1.5" y1="461.128" x2="107.092" y2="461.128"><stop offset="0" stop-color="#BCBEC0"/><stop offset=".333" stop-color="#E6E7E8"/></linearGradient><linearGradient id="d" gradientUnits="userSpaceOnUse" x1="416.52" y1="461.128" x2="522.112" y2="461.128"><stop offset=".632" stop-color="#E6E7E8"/><stop offset=".687" stop-color="#DBDCDD"/><stop offset=".793" stop-color="#CACBCD"/><stop offset=".898" stop-color="#BFC1C3"/><stop offset="1" stop-color="#BCBEC0"/></linearGradient><defs><path id="e" d="M261.113 3.5H10.093v258.714c0 161.08 140 299 251.713 341 118.286-39 251.714-175.92 251.714-337V3.5H261.113z"/></defs><use xlink:href="#e" overflow="visible" fill="#FFF"/><clipPath id="f"><use xlink:href="#e" overflow="visible"/></clipPath><path clip-path="url(#f)" fill="#ED1C24" d="M10.092 520.53l254.83-125.315 248.598 122.25V455.06L264.923 332.81 10.093 458.126M10.092 302.53l254.83-125.315 248.598 122.25V237.06L264.923 114.81 10.093 240.126"/><g clip-path="url(#f)"><path fill="#414042" stroke="#000" stroke-width="2" stroke-miterlimit="10" d="M399.282 90.128l15.642-37 57.5-4.272s-16.02 16.77-32.76 17.52S410.14 92.63 399.282 90.13z"/><path fill="#414042" d="M488.923 83.128c-17.5 0-30.486 2-47.993-15.5s-23.507-15.5-19.507-21.5 15-27-1.5-31.5c-8.23-2.244-13.597.61-16.54 5.216-2.826.05-9.46-.216-9.46-.216l6.73 8.972c-.167 2.466.102 4.91.77 7.028 0 0-9 6.5-10.5 13.5-.222 1.034-.4 2.22-.478 3.52-.45 7.495 2.43 18.736 19.478 25.98 1.808.768 3.506 1.432 5.115 2.014-.934 6.852-3.672 16.037-11.365 21.736 0 0 16.25-.75 22.25-9.75 4.5 10 10 15.5 20.5 16-7.135-9.514-8.456-16.042-9.693-22.822 4.566.922 9.065 2.217 14.693 5.322 14.5 8 24 19.5 26 21 .712-5.19 1.5-12.5-7-20 10-.5 16.5-1.5 18.5-9z"/><path fill="#58595B" d="M458.673 87.878s14.25.922 19.25-.75c0 0-29.25-5.02-31-10.77-.088-.29-.24-3.346-.426-3.692-1.81-1.47-3.66-3.133-5.567-5.038-17.507-17.5-23.507-15.5-19.507-21.5s15-27-1.5-31.5c-7.217-1.968-12.23-.014-15.34 3.602-1.777 5.4-3.258 11.733-3.75 14.712.138.93.322 1.84.59 2.686 0 0-9 6.5-10.5 13.5-.222 1.034-.4 2.22-.478 3.52-.04.68-.03 2.134-.03 2.134 5.008 11.096 13.646 15.88 23.258 21.815 1.768-2.197 1.5-4.97 1.5-4.97s5 3.75 4.25 11.5-3.875 13.126-3.875 13.126 8.125-6.375 10.125-6.875 6.89 6.774 11.5 10.328c3.233 2.49-7-12.713-6.5-18.963.374-4.678 20.248 2.688 31.875 14.01 6.178 4.53 6.413 5.138 9.375 8.125-3.75-6.5-4.148-9.63-13.25-15z"/><path fill="#6D6E71" d="M394.87 41.824c-1.787 2.16-3.388 4.696-3.946 7.304-.222 1.034-.4 2.22-.478 3.52-.01.182-.02.42-.022.67.914 1.597 2.308 2.62 3.87 2.62 2.755 0 4.988-3.172 4.988-7.083 0-3.634-1.93-6.625-4.41-7.03z"/><path fill="none" stroke="#000" stroke-width="2" stroke-miterlimit="10" d="M488.923 83.128c-17.5 0-30.486 2-47.993-15.5s-23.507-15.5-19.507-21.5 15-27-1.5-31.5c-8.23-2.244-13.597.61-16.54 5.216-2.826.05-9.46-.216-9.46-.216l6.73 8.972c-.167 2.466.102 4.91.77 7.028 0 0-9 6.5-10.5 13.5-.222 1.034-.4 2.22-.478 3.52-.45 7.495 2.43 18.736 19.478 25.98 1.808.768 3.506 1.432 5.115 2.014-.934 6.852-3.672 16.037-11.365 21.736 0 0 16.25-.75 22.25-9.75 4.5 10 10 15.5 20.5 16-7.135-9.514-8.456-16.042-9.693-22.822 4.566.922 9.065 2.217 14.693 5.322 14.5 8 24 19.5 26 21 .712-5.19 1.5-12.5-7-20 10-.5 16.5-1.5 18.5-9z"/><path fill="#414042" d="M403.673 53.628c-3.997 6.583 10.25 16.5 25.75 20.5s50.5 2.5 54 0-52.26-23.135-62.88-24.067-12.62-3.432-16.87 3.568z"/><path fill="#58595B" d="M479.436 70.854c-12.633-6.556-50.353-20.043-58.893-20.793-10.62-.932-12.62-3.432-16.87 3.568-2.792 4.598 2.42 10.445 11.45 14.842 5.91 2.878 19.045-.976 13.285-13.898 4.953 4.954 28.015 11.556 28.015 11.556l-22.255-3.4.938 2.774 26.817 5.076-26.5-2.2.75 1.887s17.522 3.28 21.75 3.363c7.994.155 18.026-.05 21.513-2.774z"/><ellipse transform="rotate(18.2 416.9 58.5)" fill="#6D6E71" cx="416.892" cy="58.512" rx="10.75" ry="6.75"/><path fill="none" stroke="#000" stroke-width="2" stroke-linecap="round" stroke-linejoin="round" stroke-miterlimit="10" d="M407.275 49.542c-1.2.678-2.294 1.932-3.602 4.086-3.997 6.583 10.25 16.5 25.75 20.5s50.5 2.5 54 0-52.26-23.135-62.88-24.067"/><ellipse cx="412.041" cy="25.378" rx="2.509" ry="2.5"/><path fill="none" stroke="#000" stroke-linecap="round" stroke-miterlimit="10" d="M422.173 21.878c2.75 2-.75 15-7 16.25s-9.96-1.145-8.75-3.145"/><g><path fill="#414042" stroke="#000" stroke-width="2" stroke-miterlimit="10" d="M221.424 90.128l15.642-37 57.5-4.272s-16.02 16.77-32.76 17.52-29.523 26.252-40.382 23.752z"/><path fill="#414042" d="M311.066 83.128c-17.5 0-30.486 2-47.993-15.5s-23.507-15.5-19.507-21.5 15-27-1.5-31.5c-8.23-2.244-13.597.61-16.54 5.216-2.826.05-9.46-.216-9.46-.216l6.73 8.972c-.167 2.466.102 4.91.77 7.028 0 0-9 6.5-10.5 13.5-.222 1.034-.4 2.22-.478 3.52-.45 7.495 2.43 18.736 19.478 25.98 1.808.768 3.506 1.432 5.115 2.014-.933 6.852-3.67 16.037-11.364 21.736 0 0 16.25-.75 22.25-9.75 4.5 10 10 15.5 20.5 16-7.135-9.514-8.456-16.042-9.693-22.822 4.566.922 9.065 2.217 14.693 5.322 14.5 8 24 19.5 26 21 .712-5.19 1.5-12.5-7-20 10-.5 16.5-1.5 18.5-9z"/><path fill="#58595B" d="M280.816 87.878s14.25.922 19.25-.75c0 0-29.25-5.02-31-10.77-.088-.29-.24-3.346-.426-3.692-1.81-1.47-3.66-3.133-5.567-5.038-17.507-17.5-23.507-15.5-19.507-21.5s15-27-1.5-31.5c-7.217-1.968-12.23-.014-15.34 3.602-1.777 5.4-3.258 11.733-3.75 14.712.138.93.322 1.84.59 2.686 0 0-9 6.5-10.5 13.5-.222 1.034-.4 2.22-.478 3.52-.04.68-.03 2.134-.03 2.134 5.008 11.096 13.646 15.88 23.258 21.815 1.768-2.197 1.5-4.97 1.5-4.97s5 3.75 4.25 11.5-3.875 13.126-3.875 13.126 8.126-6.375 10.126-6.875 6.89 6.774 11.5 10.328c3.233 2.49-7-12.713-6.5-18.963.374-4.678 20.248 2.688 31.875 14.01 6.18 4.53 6.414 5.138 9.376 8.125-3.75-6.5-4.15-9.63-13.25-15z"/><path fill="#6D6E71" d="M217.013 41.824c-1.788 2.16-3.39 4.696-3.947 7.304-.222 1.034-.4 2.22-.478 3.52-.01.182-.02.42-.022.67.914 1.597 2.308 2.62 3.87 2.62 2.755 0 4.988-3.172 4.988-7.083 0-3.634-1.928-6.625-4.41-7.03z"/><path fill="none" stroke="#000" stroke-width="2" stroke-miterlimit="10" d="M311.066 83.128c-17.5 0-30.486 2-47.993-15.5s-23.507-15.5-19.507-21.5 15-27-1.5-31.5c-8.23-2.244-13.597.61-16.54 5.216-2.826.05-9.46-.216-9.46-.216l6.73 8.972c-.167 2.466.102 4.91.77 7.028 0 0-9 6.5-10.5 13.5-.222 1.034-.4 2.22-.478 3.52-.45 7.495 2.43 18.736 19.478 25.98 1.808.768 3.506 1.432 5.115 2.014-.933 6.852-3.67 16.037-11.364 21.736 0 0 16.25-.75 22.25-9.75 4.5 10 10 15.5 20.5 16-7.135-9.514-8.456-16.042-9.693-22.822 4.566.922 9.065 2.217 14.693 5.322 14.5 8 24 19.5 26 21 .712-5.19 1.5-12.5-7-20 10-.5 16.5-1.5 18.5-9z"/><path fill="#414042" d="M225.816 53.628c-3.997 6.583 10.25 16.5 25.75 20.5s50.5 2.5 54 0-52.26-23.135-62.88-24.067-12.62-3.432-16.87 3.568z"/><path fill="#58595B" d="M301.58 70.854c-12.634-6.556-50.354-20.043-58.894-20.793-10.62-.932-12.62-3.432-16.87 3.568-2.792 4.598 2.42 10.445 11.45 14.842 5.91 2.878 19.045-.976 13.285-13.898 4.954 4.954 28.016 11.556 28.016 11.556l-22.255-3.4.94 2.774 26.816 5.076-26.5-2.2.75 1.887s17.522 3.28 21.75 3.363c7.994.155 18.025-.05 21.513-2.774z"/><ellipse transform="rotate(18.2 239.1 58.5)" fill="#6D6E71" cx="239.035" cy="58.512" rx="10.75" ry="6.75"/><path fill="none" stroke="#000" stroke-width="2" stroke-linecap="round" stroke-linejoin="round" stroke-miterlimit="10" d="M229.417 49.542c-1.2.678-2.294 1.932-3.602 4.086-3.997 6.583 10.25 16.5 25.75 20.5s50.5 2.5 54 0-52.26-23.135-62.88-24.067"/><ellipse cx="234.184" cy="25.378" rx="2.509" ry="2.5"/><path fill="none" stroke="#000" stroke-linecap="round" stroke-miterlimit="10" d="M244.316 21.878c2.75 2-.75 15-7 16.25s-9.96-1.145-8.75-3.145"/></g><g><path fill="#414042" stroke="#000" stroke-width="2" stroke-miterlimit="10" d="M221.424 511.698l15.642-37 57.5-4.27s-16.02 16.77-32.76 17.52-29.523 26.25-40.382 23.75z"/><path fill="#414042" d="M311.066 504.698c-17.5 0-30.486 2-47.993-15.5s-23.507-15.5-19.507-21.5 15-27-1.5-31.5c-8.23-2.244-13.597.61-16.54 5.217-2.826.05-9.46-.217-9.46-.217l6.73 8.973c-.167 2.467.102 4.91.77 7.028 0 0-9 6.5-10.5 13.5-.222 1.034-.4 2.22-.478 3.52-.45 7.496 2.43 18.736 19.478 25.98 1.808.768 3.506 1.432 5.115 2.014-.933 6.852-3.67 16.037-11.364 21.736 0 0 16.25-.75 22.25-9.75 4.5 10 10 15.5 20.5 16-7.135-9.514-8.456-16.04-9.693-22.822 4.566.922 9.065 2.217 14.693 5.322 14.5 8 24 19.5 26 21 .712-5.19 1.5-12.5-7-20 10-.5 16.5-1.5 18.5-9z"/><path fill="#58595B" d="M280.816 509.448s14.25.922 19.25-.75c0 0-29.25-5.02-31-10.77-.088-.29-.24-3.346-.426-3.69-1.81-1.472-3.66-3.134-5.567-5.04-17.507-17.5-23.507-15.5-19.507-21.5s15-27-1.5-31.5c-7.217-1.967-12.23-.014-15.34 3.603-1.777 5.4-3.258 11.734-3.75 14.713.138.932.322 1.84.59 2.686 0 0-9 6.5-10.5 13.5-.222 1.033-.4 2.22-.478 3.52-.04.68-.03 2.134-.03 2.134 5.008 11.096 13.646 15.88 23.258 21.814 1.768-2.197 1.5-4.97 1.5-4.97s5 3.75 4.25 11.5-3.875 13.126-3.875 13.126 8.126-6.375 10.126-6.875 6.89 6.774 11.5 10.327c3.233 2.49-7-12.713-6.5-18.963.374-4.678 20.248 2.688 31.875 14.01 6.18 4.53 6.414 5.14 9.376 8.125-3.75-6.502-4.15-9.63-13.25-15.002z"/><path fill="#6D6E71" d="M217.013 463.396c-1.788 2.158-3.39 4.695-3.947 7.303-.222 1.033-.4 2.22-.478 3.52-.01.182-.02.42-.022.67.914 1.598 2.308 2.62 3.87 2.62 2.755 0 4.988-3.172 4.988-7.082 0-3.636-1.928-6.626-4.41-7.032z"/><path fill="none" stroke="#000" stroke-width="2" stroke-miterlimit="10" d="M311.066 504.698c-17.5 0-30.486 2-47.993-15.5s-23.507-15.5-19.507-21.5 15-27-1.5-31.5c-8.23-2.244-13.597.61-16.54 5.217-2.826.05-9.46-.217-9.46-.217l6.73 8.973c-.167 2.467.102 4.91.77 7.028 0 0-9 6.5-10.5 13.5-.222 1.034-.4 2.22-.478 3.52-.45 7.496 2.43 18.736 19.478 25.98 1.808.768 3.506 1.432 5.115 2.014-.933 6.852-3.67 16.037-11.364 21.736 0 0 16.25-.75 22.25-9.75 4.5 10 10 15.5 20.5 16-7.135-9.514-8.456-16.04-9.693-22.822 4.566.922 9.065 2.217 14.693 5.322 14.5 8 24 19.5 26 21 .712-5.19 1.5-12.5-7-20 10-.5 16.5-1.5 18.5-9z"/><path fill="#414042" d="M225.816 475.198c-3.997 6.584 10.25 16.5 25.75 20.5s50.5 2.5 54 0-52.26-23.135-62.88-24.066c-10.62-.934-12.62-3.434-16.87 3.566z"/><path fill="#58595B" d="M301.58 492.425c-12.634-6.557-50.354-20.043-58.894-20.793-10.62-.934-12.62-3.434-16.87 3.566-2.792 4.6 2.42 10.445 11.45 14.843 5.91 2.88 19.045-.975 13.285-13.896 4.954 4.953 28.016 11.555 28.016 11.555l-22.255-3.4.94 2.774 26.816 5.076-26.5-2.2.75 1.886s17.522 3.28 21.75 3.363c7.994.154 18.025-.05 21.513-2.775z"/><ellipse transform="rotate(18.2 239.1 480.1)" fill="#6D6E71" cx="239.035" cy="480.083" rx="10.75" ry="6.75"/><path fill="none" stroke="#000" stroke-width="2" stroke-linecap="round" stroke-linejoin="round" stroke-miterlimit="10" d="M229.417 471.112c-1.2.678-2.294 1.932-3.602 4.086-3.997 6.584 10.25 16.5 25.75 20.5s50.5 2.5 54 0-52.26-23.135-62.88-24.066"/><ellipse cx="234.184" cy="446.948" rx="2.509" ry="2.5"/><path fill="none" stroke="#000" stroke-linecap="round" stroke-miterlimit="10" d="M244.316 443.448c2.75 2-.75 15-7 16.25s-9.96-1.145-8.75-3.145"/></g><g><path fill="#414042" stroke="#000" stroke-width="2" stroke-miterlimit="10" d="M42.032 91.128l15.642-37 57.5-4.272s-16.02 16.77-32.76 17.52S52.89 93.63 42.032 91.13z"/><path fill="#414042" d="M131.673 84.128c-17.5 0-30.486 2-47.993-15.5s-23.507-15.5-19.507-21.5 15-27-1.5-31.5c-8.23-2.244-13.597.61-16.54 5.216-2.826.05-9.46-.216-9.46-.216l6.73 8.972c-.167 2.466.102 4.91.77 7.028 0 0-9 6.5-10.5 13.5-.222 1.034-.4 2.22-.478 3.52-.45 7.495 2.43 18.736 19.478 25.98 1.808.768 3.506 1.432 5.115 2.014-.934 6.852-3.672 16.037-11.365 21.736 0 0 16.25-.75 22.25-9.75 4.5 10 10 15.5 20.5 16-7.135-9.514-8.456-16.042-9.693-22.822 4.566.922 9.065 2.217 14.693 5.322 14.5 8 24 19.5 26 21 .712-5.19 1.5-12.5-7-20 10-.5 16.5-1.5 18.5-9z"/><path fill="#58595B" d="M101.423 88.878s14.25.922 19.25-.75c0 0-29.25-5.02-31-10.77-.088-.29-.24-3.346-.426-3.692-1.81-1.47-3.66-3.133-5.567-5.038-17.507-17.5-23.507-15.5-19.507-21.5s15-27-1.5-31.5c-7.217-1.968-12.23-.014-15.34 3.602-1.777 5.4-3.258 11.733-3.75 14.712.138.93.322 1.84.59 2.686 0 0-9 6.5-10.5 13.5-.222 1.034-.4 2.22-.478 3.52-.04.68-.03 2.134-.03 2.134 5.008 11.096 13.646 15.88 23.258 21.815 1.768-2.197 1.5-4.97 1.5-4.97s5 3.75 4.25 11.5-3.875 13.126-3.875 13.126 8.125-6.375 10.125-6.875 6.89 6.774 11.5 10.328c3.233 2.49-7-12.713-6.5-18.963.374-4.678 20.248 2.688 31.875 14.01 6.178 4.53 6.413 5.138 9.375 8.125-3.75-6.5-4.148-9.63-13.25-15z"/><path fill="#6D6E71" d="M37.62 42.824c-1.787 2.16-3.388 4.696-3.946 7.304-.222 1.034-.4 2.22-.478 3.52-.01.182-.02.42-.022.67.914 1.597 2.308 2.62 3.87 2.62 2.755 0 4.988-3.172 4.988-7.083 0-3.634-1.93-6.625-4.41-7.03z"/><path fill="none" stroke="#000" stroke-width="2" stroke-miterlimit="10" d="M131.673 84.128c-17.5 0-30.486 2-47.993-15.5s-23.507-15.5-19.507-21.5 15-27-1.5-31.5c-8.23-2.244-13.597.61-16.54 5.216-2.826.05-9.46-.216-9.46-.216l6.73 8.972c-.167 2.466.102 4.91.77 7.028 0 0-9 6.5-10.5 13.5-.222 1.034-.4 2.22-.478 3.52-.45 7.495 2.43 18.736 19.478 25.98 1.808.768 3.506 1.432 5.115 2.014-.934 6.852-3.672 16.037-11.365 21.736 0 0 16.25-.75 22.25-9.75 4.5 10 10 15.5 20.5 16-7.135-9.514-8.456-16.042-9.693-22.822 4.566.922 9.065 2.217 14.693 5.322 14.5 8 24 19.5 26 21 .712-5.19 1.5-12.5-7-20 10-.5 16.5-1.5 18.5-9z"/><path fill="#414042" d="M46.423 54.628c-3.997 6.583 10.25 16.5 25.75 20.5s50.5 2.5 54 0-52.26-23.135-62.88-24.067-12.62-3.432-16.87 3.568z"/><path fill="#58595B" d="M122.186 71.854C109.553 65.298 71.833 51.81 63.293 51.06c-10.62-.932-12.62-3.432-16.87 3.568-2.792 4.598 2.42 10.445 11.45 14.842 5.91 2.878 19.045-.976 13.285-13.898 4.953 4.954 28.015 11.556 28.015 11.556l-22.255-3.4.938 2.774 26.817 5.076-26.5-2.2.75 1.887s17.522 3.28 21.75 3.363c7.994.155 18.026-.05 21.513-2.774z"/><ellipse transform="rotate(18.2 59.7 59.5)" fill="#6D6E71" cx="59.642" cy="59.512" rx="10.75" ry="6.75"/><path fill="none" stroke="#000" stroke-width="2" stroke-linecap="round" stroke-linejoin="round" stroke-miterlimit="10" d="M50.025 50.542c-1.2.678-2.294 1.932-3.602 4.086-3.997 6.583 10.25 16.5 25.75 20.5s50.5 2.5 54 0-52.26-23.135-62.88-24.067"/><ellipse cx="54.791" cy="26.378" rx="2.509" ry="2.5"/><path fill="none" stroke="#000" stroke-linecap="round" stroke-miterlimit="10" d="M64.923 22.878c2.75 2-.75 15-7 16.25s-9.96-1.145-8.75-3.145"/></g><g><path fill="#414042" stroke="#000" stroke-width="2" stroke-miterlimit="10" d="M312.634 324.244l15.643-37 57.5-4.272s-16.02 16.77-32.76 17.52-29.523 26.252-40.383 23.752z"/><path fill="#414042" d="M402.277 317.244c-17.5 0-30.486 2-47.994-15.5-17.506-17.5-23.506-15.5-19.506-21.5s15-27-1.5-31.5c-8.23-2.244-13.598.61-16.54 5.216-2.827.05-9.46-.216-9.46-.216l6.73 8.972c-.167 2.466.1 4.91.77 7.028 0 0-9 6.5-10.5 13.5-.223 1.034-.4 2.22-.48 3.52-.448 7.495 2.433 18.736 19.48 25.98 1.807.768 3.506 1.432 5.115 2.014-.934 6.852-3.672 16.037-11.365 21.736 0 0 16.25-.75 22.25-9.75 4.5 10 10 15.5 20.5 16-7.135-9.514-8.457-16.042-9.693-22.822 4.566.922 9.064 2.217 14.693 5.322 14.5 8 24 19.5 26 21 .71-5.19 1.5-12.5-7-20 10-.5 16.5-1.5 18.5-9z"/><path fill="#58595B" d="M372.027 321.994s14.25.922 19.25-.75c0 0-29.25-5.02-31-10.77-.088-.29-.24-3.346-.426-3.692-1.81-1.47-3.66-3.133-5.567-5.038-17.506-17.5-23.506-15.5-19.506-21.5s15-27-1.5-31.5c-7.217-1.968-12.232-.014-15.342 3.602-1.775 5.4-3.256 11.733-3.748 14.712.137.93.322 1.84.59 2.686 0 0-9 6.5-10.5 13.5-.223 1.034-.4 2.22-.48 3.52-.04.68-.028 2.134-.028 2.134 5.007 11.096 13.645 15.88 23.257 21.815 1.768-2.197 1.5-4.97 1.5-4.97s5 3.75 4.25 11.5-3.875 13.126-3.875 13.126 8.125-6.376 10.125-6.876 6.89 6.774 11.5 10.328c3.232 2.49-7-12.713-6.5-18.963.373-4.68 20.248 2.687 31.875 14.01 6.178 4.528 6.412 5.137 9.375 8.124-3.75-6.5-4.15-9.63-13.25-15z"/><path fill="#6D6E71" d="M308.224 275.94c-1.79 2.16-3.39 4.696-3.947 7.304-.223 1.034-.4 2.22-.48 3.52-.01.182-.017.42-.02.67.914 1.597 2.307 2.62 3.87 2.62 2.755 0 4.987-3.172 4.987-7.083 0-3.633-1.927-6.623-4.41-7.03z"/><path fill="none" stroke="#000" stroke-width="2" stroke-miterlimit="10" d="M402.277 317.244c-17.5 0-30.486 2-47.994-15.5-17.506-17.5-23.506-15.5-19.506-21.5s15-27-1.5-31.5c-8.23-2.244-13.598.61-16.54 5.216-2.827.05-9.46-.216-9.46-.216l6.73 8.972c-.167 2.466.1 4.91.77 7.028 0 0-9 6.5-10.5 13.5-.223 1.034-.4 2.22-.48 3.52-.448 7.495 2.433 18.736 19.48 25.98 1.807.768 3.506 1.432 5.115 2.014-.934 6.852-3.672 16.037-11.365 21.736 0 0 16.25-.75 22.25-9.75 4.5 10 10 15.5 20.5 16-7.135-9.514-8.457-16.042-9.693-22.822 4.566.922 9.064 2.217 14.693 5.322 14.5 8 24 19.5 26 21 .71-5.19 1.5-12.5-7-20 10-.5 16.5-1.5 18.5-9z"/><path fill="#414042" d="M317.027 287.744c-3.998 6.583 10.25 16.5 25.75 20.5s50.5 2.5 54 0-52.26-23.135-62.88-24.067c-10.62-.933-12.62-3.433-16.87 3.567z"/><path fill="#58595B" d="M392.79 304.97c-12.634-6.556-50.353-20.043-58.894-20.793-10.62-.933-12.62-3.433-16.87 3.567-2.792 4.598 2.42 10.445 11.45 14.842 5.912 2.878 19.045-.976 13.285-13.898 4.954 4.954 28.017 11.556 28.017 11.556l-22.256-3.4.94 2.774 26.817 5.076-26.5-2.2.75 1.887s17.52 3.282 21.75 3.364c7.994.155 18.025-.05 21.512-2.774z"/><ellipse transform="rotate(18.2 330.3 292.6)" fill="#6D6E71" cx="330.246" cy="292.628" rx="10.75" ry="6.75"/><path fill="none" stroke="#000" stroke-width="2" stroke-linecap="round" stroke-linejoin="round" stroke-miterlimit="10" d="M320.628 283.658c-1.2.678-2.295 1.932-3.602 4.086-3.998 6.583 10.25 16.5 25.75 20.5s50.5 2.5 54 0-52.26-23.135-62.88-24.067"/><ellipse cx="325.394" cy="259.494" rx="2.51" ry="2.5"/><path fill="none" stroke="#000" stroke-linecap="round" stroke-miterlimit="10" d="M335.527 255.994c2.75 2-.75 15-7 16.25s-9.96-1.145-8.75-3.145"/></g><g><path fill="#414042" stroke="#000" stroke-width="2" stroke-miterlimit="10" d="M133.242 325.244l15.642-37 57.5-4.272s-16.02 16.77-32.76 17.52-29.524 26.252-40.382 23.752z"/><path fill="#414042" d="M222.883 318.244c-17.5 0-30.486 2-47.993-15.5s-23.507-15.5-19.507-21.5 15-27-1.5-31.5c-8.23-2.244-13.597.61-16.54 5.216-2.826.05-9.46-.216-9.46-.216l6.73 8.972c-.167 2.466.102 4.91.77 7.028 0 0-9 6.5-10.5 13.5-.222 1.034-.4 2.22-.478 3.52-.45 7.495 2.43 18.736 19.478 25.98 1.808.768 3.506 1.432 5.115 2.014-.934 6.852-3.672 16.037-11.365 21.736 0 0 16.25-.75 22.25-9.75 4.5 10 10 15.5 20.5 16-7.135-9.514-8.456-16.042-9.693-22.822 4.566.922 9.065 2.217 14.693 5.322 14.5 8 24 19.5 26 21 .712-5.19 1.5-12.5-7-20 10-.5 16.5-1.5 18.5-9z"/><path fill="#58595B" d="M192.633 322.994s14.25.922 19.25-.75c0 0-29.25-5.02-31-10.77-.088-.29-.24-3.346-.426-3.692-1.81-1.47-3.66-3.133-5.567-5.038-17.507-17.5-23.507-15.5-19.507-21.5s15-27-1.5-31.5c-7.217-1.968-12.23-.014-15.34 3.602-1.777 5.4-3.258 11.733-3.75 14.712.138.93.322 1.84.59 2.686 0 0-9 6.5-10.5 13.5-.222 1.034-.4 2.22-.478 3.52-.04.68-.03 2.134-.03 2.134 5.008 11.096 13.646 15.88 23.258 21.815 1.768-2.197 1.5-4.97 1.5-4.97s5 3.75 4.25 11.5-3.875 13.126-3.875 13.126 8.125-6.376 10.125-6.876 6.89 6.774 11.5 10.328c3.233 2.49-7-12.713-6.5-18.963.374-4.68 20.248 2.687 31.875 14.01 6.178 4.528 6.413 5.137 9.375 8.124-3.75-6.5-4.148-9.63-13.25-15z"/><path fill="#6D6E71" d="M128.83 276.94c-1.787 2.16-3.388 4.696-3.946 7.304-.222 1.034-.4 2.22-.478 3.52-.01.182-.02.42-.022.67.914 1.597 2.308 2.62 3.87 2.62 2.755 0 4.988-3.172 4.988-7.083 0-3.633-1.93-6.623-4.41-7.03z"/><path fill="none" stroke="#000" stroke-width="2" stroke-miterlimit="10" d="M222.883 318.244c-17.5 0-30.486 2-47.993-15.5s-23.507-15.5-19.507-21.5 15-27-1.5-31.5c-8.23-2.244-13.597.61-16.54 5.216-2.826.05-9.46-.216-9.46-.216l6.73 8.972c-.167 2.466.102 4.91.77 7.028 0 0-9 6.5-10.5 13.5-.222 1.034-.4 2.22-.478 3.52-.45 7.495 2.43 18.736 19.478 25.98 1.808.768 3.506 1.432 5.115 2.014-.934 6.852-3.672 16.037-11.365 21.736 0 0 16.25-.75 22.25-9.75 4.5 10 10 15.5 20.5 16-7.135-9.514-8.456-16.042-9.693-22.822 4.566.922 9.065 2.217 14.693 5.322 14.5 8 24 19.5 26 21 .712-5.19 1.5-12.5-7-20 10-.5 16.5-1.5 18.5-9z"/><path fill="#414042" d="M137.633 288.744c-3.997 6.583 10.25 16.5 25.75 20.5s50.5 2.5 54 0-52.26-23.135-62.88-24.067-12.62-3.433-16.87 3.567z"/><path fill="#58595B" d="M213.396 305.97c-12.633-6.556-50.353-20.043-58.893-20.793-10.62-.933-12.62-3.433-16.87 3.567-2.792 4.598 2.42 10.445 11.45 14.842 5.91 2.878 19.045-.976 13.285-13.898 4.953 4.954 28.015 11.556 28.015 11.556l-22.255-3.4.938 2.774 26.817 5.076-26.5-2.2.75 1.887s17.522 3.282 21.75 3.364c7.994.155 18.026-.05 21.513-2.774z"/><ellipse transform="rotate(18.2 150.9 293.6)" fill="#6D6E71" cx="150.852" cy="293.628" rx="10.75" ry="6.75"/><path fill="none" stroke="#000" stroke-width="2" stroke-linecap="round" stroke-linejoin="round" stroke-miterlimit="10" d="M141.235 284.658c-1.2.678-2.294 1.932-3.602 4.086-3.997 6.583 10.25 16.5 25.75 20.5s50.5 2.5 54 0-52.26-23.135-62.88-24.067"/><ellipse cx="146.001" cy="260.494" rx="2.509" ry="2.5"/><path fill="none" stroke="#000" stroke-linecap="round" stroke-miterlimit="10" d="M156.133 256.994c2.75 2-.75 15-7 16.25s-9.96-1.145-8.75-3.145"/></g></g><use xlink:href="#e" overflow="visible" fill="none" stroke="#000" stroke-width="7" stroke-miterlimit="10"/><radialGradient id="g" cx="261.806" cy="575.523" r="180.594" gradientUnits="userSpaceOnUse"><stop offset=".632" stop-color="#FFF"/><stop offset=".705" stop-color="#F4F5F5"/><stop offset=".855" stop-color="#EAEBEB"/><stop offset="1" stop-color="#E6E7E8"/></radialGradient></svg>