<svg xmlns="http://www.w3.org/2000/svg" width="64.133" height="37.56" viewBox="0 0 60.125 35.213"><path style="line-height:normal;text-indent:0;text-align:start;text-decoration-line:none;text-decoration-style:solid;text-decoration-color:#000;text-transform:none;block-progression:tb;isolation:auto;mix-blend-mode:normal" d="M21.523 7.087c-1.194-.002-2.28.408-2.996 1.263-.791.943-.973 2.235-.645 3.537.327 1.302 1.158 2.625 2.414 3.679 1.255 1.054 2.702 1.643 4.04 1.74 1.269.09 2.449-.267 3.242-1.107l6.122 5.14.248-.295-6.123-5.14c.69-.927.836-2.151.526-3.385-.327-1.302-1.158-2.625-2.414-3.679-1.255-1.054-2.702-1.643-4.04-1.74a5.348 5.348 0 0 0-.374-.013zm0 .384c.113 0 .229.005.346.013 1.245.09 2.623.645 3.821 1.65 1.198 1.006 1.984 2.267 2.289 3.479.304 1.212.131 2.363-.567 3.196-.699.833-1.802 1.203-3.048 1.113-1.246-.09-2.623-.645-3.821-1.65-1.198-1.006-1.984-2.267-2.289-3.479-.304-1.212-.131-2.363.567-3.196.633-.755 1.599-1.13 2.701-1.126zm12.425 13.573l-.247.295 1.406 1.766 6.478 5.438.823-.982-6.477-5.438-1.983-1.079z" white-space="normal" overflow="visible" color="#000" font-family="sans-serif"/><path d="M630.335 474.037l-174.897-146.55M639.4 463.234l-174.9-146.55m176.11 129.152L479.455 310.83M639.86 426.786l-141.527-118.51m138.817 97.807l-117.98-98.708m102.1 177.463l-174.897-146.55M612.207 495.64L437.31 349.09m159.944 152.404L436.1 366.49m138.35 134.26L436.847 385.54m118.728 117.762l-117.98-98.708m200.655-.936l-81.266 96.85m67.279-124.054l-96.717 115.262m80.534-139.852l-107.84 128.52m84.943-145.106l-105.78 126.065m80.984-140.389L460.89 439.53m72.472-130.244L445.4 414.116m52.378-106.296l-60.667 72.3m194.659 9.524L540.512 498.4m101.458-77.04l-69.215 82.49m42.655-138.586L514.47 485.56m81.956-141.544L489.41 471.553m84.415-144.477L468.56 452.526m78.717-137.686l-94.554 112.684m64.71-120.992l-77.353 92.185" stroke-width="1.282" transform="matrix(.04998 0 0 .05 -3.844 -8.025)" fill="none" stroke="#000"/><path style="line-height:normal;text-indent:0;text-align:start;text-decoration-line:none;text-decoration-style:solid;text-decoration-color:#000;text-transform:none;block-progression:tb;isolation:auto;mix-blend-mode:normal" d="M27.424 23.556a.122.122 0 0 0-.026.003c-.132.028-.212.245-.273.392l-.01.03c.041.054.08.11.117.171.01-.036.022-.07.035-.1a.43.43 0 0 1 .123-.18l.201.972c.142.329.273.713.38 1.133l-.441-2.135a.43.43 0 0 1 .185.118c.104.1.218.263.328.472.22.42.43 1.026.573 1.714.143.688.191 1.328.155 1.8-.018.237-.058.43-.114.565a.43.43 0 0 1-.123.181l-.388-1.877c.062.402.088.77.078 1.082l.17.824a.43.43 0 0 1-.185-.117.978.978 0 0 1-.058-.063l-.022.063c-.013.035-.027.075-.043.114l.034.035c.114.11.273.278.406.25.132-.027.212-.244.273-.39.084-.206.095-.41.114-.656.038-.491-.012-1.14-.157-1.84-.145-.7-.357-1.315-.587-1.751-.115-.218-.206-.401-.365-.556-.107-.104-.253-.257-.38-.253z" white-space="normal" overflow="visible" color="#000" font-family="sans-serif"/><path d="M30.071 31.647v-2.66" fill="none" stroke="#000" stroke-width=".342"/><path d="M30.577 31.713l.275-2.83" fill="none" stroke="#000" stroke-width=".36"/><path d="M31.046 31.658l.53-2.743" fill="none" stroke="#000" stroke-width=".351"/><path style="line-height:normal;text-indent:0;text-align:start;text-decoration-line:none;text-decoration-style:solid;text-decoration-color:#000;text-transform:none;block-progression:tb;isolation:auto;mix-blend-mode:normal" d="M38.602 7.087c-.123 0-.248.005-.374.014-1.338.096-2.785.685-4.04 1.74-1.256 1.053-2.088 2.377-2.415 3.678-.31 1.234-.163 2.459.527 3.386l-6.123 5.14.247.294 6.123-5.14c.793.84 1.973 1.198 3.24 1.107 1.34-.096 2.786-.686 4.042-1.74 1.256-1.054 2.087-2.377 2.414-3.679.327-1.302.146-2.594-.645-3.537-.717-.854-1.803-1.265-2.996-1.263zm0 .384c1.103-.003 2.068.372 2.701 1.127.7.833.872 1.984.568 3.195-.305 1.212-1.091 2.473-2.29 3.479-1.197 1.005-2.575 1.56-3.82 1.65-1.246.09-2.35-.28-3.048-1.113-.699-.833-.872-1.984-.567-3.196.304-1.212 1.09-2.473 2.289-3.478 1.198-1.006 2.575-1.561 3.821-1.65a4.98 4.98 0 0 1 .346-.014zM26.177 21.044l-1.983 1.08-6.477 5.437.823.982 6.478-5.438 1.406-1.766-.247-.295z" white-space="normal" overflow="visible" color="#000" font-family="sans-serif"/><path d="M726.665 474.037l174.897-146.55M717.6 463.234l174.9-146.55M716.39 445.836L877.545 310.83M717.14 426.786l141.527-118.51M719.85 406.083l117.98-98.708m-102.1 177.463l174.897-146.55M744.793 495.64L919.69 349.09M759.746 501.494L920.9 366.49M782.55 500.75l137.603-115.21M801.425 503.302l117.98-98.708m-200.655-.936l81.266 96.85m-67.279-124.054l96.717 115.262M748.92 351.864l107.84 128.52m-84.943-145.106l105.78 126.065m-80.984-140.389L896.11 439.53m-72.472-130.244l87.962 104.83M859.222 307.82l60.667 72.3m-194.659 9.524L816.488 498.4M715.03 421.36l69.215 82.49M741.59 365.264L842.53 485.56m-81.956-141.544L867.59 471.553m-84.415-144.477l105.266 125.45M809.723 314.84l94.554 112.684m-64.71-120.992l77.353 92.185" stroke-width="1.282" transform="matrix(.04998 0 0 .05 -3.844 -8.025)" fill="none" stroke="#000"/><path style="line-height:normal;text-indent:0;text-align:start;text-decoration-line:none;text-decoration-style:solid;text-decoration-color:#000;text-transform:none;block-progression:tb;isolation:auto;mix-blend-mode:normal" d="M28.46 32.38v.22h-.19v.9c0 .613.347 1.18.906 1.484.56.305 1.247.305 1.806 0 .559-.305.906-.87.907-1.485V32.6h-.19v-.22h-3.24zm.191.192h2.856v.219h.192v.708c0 .542-.307 1.044-.808 1.317a1.709 1.709 0 0 1-1.623 0 1.51 1.51 0 0 1-.808-1.317v-.708h.191v-.22zm-2.083-8.973c-.132.032-.205.251-.26.4-.079.208-.083.412-.094.658-.022.493.049 1.14.216 1.835.167.694.4 1.303.643 1.731.121.214.219.394.382.544.118.107.282.27.414.237.132-.031.204-.25.26-.4.078-.207.083-.412.093-.658.022-.492-.049-1.14-.216-1.834-.167-.694-.399-1.303-.642-1.732-.122-.214-.219-.394-.383-.543-.117-.107-.282-.27-.414-.238zm.002.312l1.159 4.815a.428.428 0 0 1-.189-.112 1.919 1.919 0 0 1-.343-.461c-.234-.412-.463-1.011-.628-1.695-.164-.683-.233-1.321-.212-1.794.01-.237.044-.432.095-.568a.43.43 0 0 1 .117-.185zm.138-.034a.43.43 0 0 1 .19.112c.107.097.225.256.342.462.234.411.464 1.01.628 1.694.165.683.234 1.322.213 1.795-.011.236-.044.432-.096.567a.43.43 0 0 1-.117.185zM28.771 23.537h-.025c-.135.014-.237.221-.313.361-.104.194-.137.395-.18.636.036.077.072.16.106.246.01-.075.02-.149.033-.217a1.92 1.92 0 0 1 .172-.55.431.431 0 0 1 .14-.167l.496 4.928a.431.431 0 0 1-.172-.136 1.42 1.42 0 0 1-.162-.253 1.22 1.22 0 0 1-.063.215c.035.062.074.121.12.177.103.123.244.306.379.292.135-.014.236-.221.312-.361.105-.195.137-.397.181-.64.089-.484.107-1.136.035-1.846-.071-.71-.218-1.345-.401-1.803-.092-.229-.164-.42-.306-.59-.095-.115-.225-.283-.352-.292zm.076.295c.052.019.11.062.172.136.093.11.19.284.277.504.176.44.322 1.065.392 1.764.07.7.052 1.341-.033 1.807a1.917 1.917 0 0 1-.171.55.43.43 0 0 1-.142.167zm4.68-.23c-.127-.007-.278.142-.387.243a1.167 1.167 0 0 0-.136.15c.024.064.042.127.055.191.057-.077.113-.14.166-.19a.43.43 0 0 1 .188-.111l-.304 1.289c-.018.39-.075.834-.176 1.3-.126.58-.298 1.1-.486 1.509l-.17.722a.429.429 0 0 1-.118-.182 1.446 1.446 0 0 1-.119.163c.054.14.123.304.236.33.132.032.296-.13.413-.239.163-.15.26-.33.38-.545.242-.43.47-1.04.634-1.734.164-.695.232-1.344.208-1.836-.012-.246-.018-.45-.097-.657-.056-.15-.13-.368-.262-.4l-.025-.003zm.025.315a.43.43 0 0 1 .119.185c.052.135.086.33.097.567.024.473-.042 1.112-.203 1.796-.162.684-.388 1.284-.62 1.697a1.921 1.921 0 0 1-.341.464.429.429 0 0 1-.188.112z" white-space="normal" overflow="visible" color="#000" font-family="sans-serif"/><path style="line-height:normal;text-indent:0;text-align:start;text-decoration-line:none;text-decoration-style:solid;text-decoration-color:#000;text-transform:none;block-progression:tb;isolation:auto;mix-blend-mode:normal" d="M30.072 23.577c-.136 0-.258.196-.347.328-.124.183-.177.381-.245.618a.133.133 0 0 0-.005.02c.03.08.057.163.084.252.018-.082.038-.16.059-.233.065-.227.143-.41.225-.53A.43.43 0 0 1 30 23.88v4.953a.431.431 0 0 1-.157-.152 1.365 1.365 0 0 1-.125-.24c-.02.075-.045.146-.079.216.025.052.053.102.086.152.09.131.211.328.347.328.135 0 .257-.197.347-.328.124-.184.176-.381.244-.618.137-.474.22-1.12.22-1.834s-.083-1.36-.22-1.834c-.068-.237-.12-.435-.244-.618-.09-.132-.212-.328-.347-.328zm.071.303a.43.43 0 0 1 .157.153c.082.12.16.302.226.53.131.454.214 1.09.214 1.794 0 .703-.083 1.34-.214 1.794a1.92 1.92 0 0 1-.226.53.43.43 0 0 1-.157.152z" white-space="normal" overflow="visible" color="#000" font-family="sans-serif"/><path style="line-height:normal;text-indent:0;text-align:start;text-decoration-line:none;text-decoration-style:solid;text-decoration-color:#000;text-transform:none;block-progression:tb;isolation:auto;mix-blend-mode:normal" d="M31.362 23.5c-.127.01-.257.178-.353.293-.142.17-.214.361-.305.59-.016.039-.03.081-.046.123l.005.017c.021.074.041.155.06.237.036-.116.074-.225.113-.324.088-.22.184-.393.278-.504a.431.431 0 0 1 .172-.136l-.497 4.928a.43.43 0 0 1-.141-.168 1.12 1.12 0 0 1-.057-.124 1.805 1.805 0 0 1-.084.219l.01.02c.076.14.178.348.312.362.135.013.276-.17.378-.292.142-.17.214-.361.306-.59.183-.458.33-1.092.402-1.803.071-.71.054-1.362-.034-1.847-.045-.242-.077-.444-.182-.639-.075-.14-.177-.347-.312-.361a.134.134 0 0 0-.025 0zm.066.31a.429.429 0 0 1 .141.168c.07.127.129.316.171.55.085.465.104 1.107.033 1.806-.07.7-.216 1.325-.393 1.764-.088.22-.184.393-.277.504a.43.43 0 0 1-.172.136z" white-space="normal" overflow="visible" color="#000" font-family="sans-serif"/><path style="line-height:normal;text-indent:0;text-align:start;text-decoration-line:none;text-decoration-style:solid;text-decoration-color:#000;text-transform:none;block-progression:tb;isolation:auto;mix-blend-mode:normal" d="M32.704 23.583c-.127-.005-.275.147-.383.25-.16.153-.253.335-.37.552a3.822 3.822 0 0 0-.068.133c.015.082.027.17.037.26.051-.118.104-.227.156-.325a1.92 1.92 0 0 1 .333-.47.43.43 0 0 1 .186-.116l-1.05 4.84a.43.43 0 0 1-.12-.182 1.02 1.02 0 0 1-.031-.089 1.56 1.56 0 0 1-.108.198c.058.148.135.357.265.386.133.028.294-.138.409-.247.16-.153.253-.335.37-.552.234-.434.451-1.048.603-1.746.151-.698.207-1.347.174-1.84-.017-.245-.026-.45-.108-.655-.06-.147-.137-.365-.27-.394a.105.105 0 0 0-.025-.003zm.03.315a.428.428 0 0 1 .122.182c.055.135.093.33.109.565.031.473-.023 1.112-.172 1.8-.149.686-.364 1.29-.589 1.708-.112.208-.227.37-.332.47a.43.43 0 0 1-.187.115z" white-space="normal" overflow="visible" color="#000" font-family="sans-serif"/><path d="M28.339 31.631h3.48v.748h-3.48z" stroke="#000" stroke-width=".139"/><path d="M31.69 31.68l.619-2.779" fill="none" stroke="#000" stroke-width=".366"/><path d="M29.545 31.685l-.259-2.822m-.803-.01l.634 2.855-.634-2.856zm-.653.013l.643 2.801-.643-2.8zm.514 1.865h3.551" fill="none" stroke="#000" stroke-width=".351"/><path d="M28.058 29.72h4.038" fill="none" stroke="#000" stroke-width=".374"/></svg>