<svg xmlns="http://www.w3.org/2000/svg" width="43.439" height="42.366" viewBox="0 0 40.724 39.719"><path d="M20.36 0C9.116 0 0 9.116 0 20.363c0 8.996 5.834 16.627 13.925 19.32 1.019.187 1.39-.442 1.39-.982 0-.482-.017-1.763-.027-3.462-5.664 1.23-6.86-2.73-6.86-2.73-.925-2.353-2.26-2.979-2.26-2.979-1.85-1.262.14-1.237.14-1.237 2.043.143 3.118 2.098 3.118 2.098 1.817 3.112 4.767 2.213 5.927 1.692.185-1.315.71-2.213 1.292-2.722-4.521-.513-9.275-2.261-9.275-10.063 0-2.223.794-4.04 2.096-5.464-.21-.515-.908-2.585.199-5.389 0 0 1.71-.548 5.6 2.087a19.45 19.45 0 0 1 5.098-.685c1.728.008 3.47.233 5.097.685 3.888-2.635 5.594-2.087 5.594-2.087 1.111 2.804.412 4.874.202 5.389 1.305 1.423 2.094 3.241 2.094 5.463 0 7.823-4.761 9.544-9.297 10.048.73.629 1.382 1.871 1.382 3.771 0 2.722-.025 4.918-.025 5.585 0 .545.366 1.179 1.4.98 8.085-2.698 13.914-10.325 13.914-19.319C40.724 9.116 31.606 0 20.36 0" fill="#fff" fill-rule="evenodd"/></svg>