<?xml version="1.0" encoding="UTF-8" standalone="no"?>
<!-- Created with Inkscape (http://www.inkscape.org/) -->

<svg
   xmlns:dc="http://purl.org/dc/elements/1.1/"
   xmlns:cc="http://creativecommons.org/ns#"
   xmlns:rdf="http://www.w3.org/1999/02/22-rdf-syntax-ns#"
   xmlns:svg="http://www.w3.org/2000/svg"
   xmlns="http://www.w3.org/2000/svg"
   xmlns:sodipodi="http://sodipodi.sourceforge.net/DTD/sodipodi-0.dtd"
   xmlns:inkscape="http://www.inkscape.org/namespaces/inkscape"
   width="11.493147mm"
   height="11.209467mm"
   viewBox="0 0 40.723749 39.718583"
   id="svg4531"
   version="1.1"
   inkscape:version="0.91pre3 r13670"
   sodipodi:docname="GitHub-Small-WHite.svg">
  <defs
     id="defs4533" />
  <sodipodi:namedview
     id="base"
     pagecolor="#ffffff"
     bordercolor="#666666"
     borderopacity="1.0"
     inkscape:pageopacity="0.0"
     inkscape:pageshadow="2"
     inkscape:zoom="3.959798"
     inkscape:cx="125.69888"
     inkscape:cy="-33.029854"
     inkscape:document-units="px"
     inkscape:current-layer="layer1"
     showgrid="false"
     fit-margin-top="0"
     fit-margin-left="0"
     fit-margin-right="0"
     fit-margin-bottom="0"
     inkscape:window-width="1920"
     inkscape:window-height="1003"
     inkscape:window-x="-9"
     inkscape:window-y="-9"
     inkscape:window-maximized="1" />
  <metadata
     id="metadata4536">
    <rdf:RDF>
      <cc:Work
         rdf:about="">
        <dc:format>image/svg+xml</dc:format>
        <dc:type
           rdf:resource="http://purl.org/dc/dcmitype/StillImage" />
        <dc:title></dc:title>
      </cc:Work>
    </rdf:RDF>
  </metadata>
  <g
     inkscape:label="Layer 1"
     inkscape:groupmode="layer"
     id="layer1"
     transform="translate(-468.20955,-243.93148)">
    <path
       d="m 488.56955,243.93148 c -11.24375,0 -20.36,9.11625 -20.36,20.3625 0,8.99625 5.83375,16.6275 13.925,19.32125 1.01875,0.18625 1.39,-0.4425 1.39,-0.9825 0,-0.4825 -0.0175,-1.76375 -0.0275,-3.4625 -5.66375,1.23 -6.85875,-2.73 -6.85875,-2.73 -0.92625,-2.3525 -2.26125,-2.97875 -2.26125,-2.97875 -1.84875,-1.2625 0.14,-1.2375 0.14,-1.2375 2.04375,0.14375 3.11875,2.09875 3.11875,2.09875 1.81625,3.11125 4.76625,2.2125 5.92625,1.69125 0.185,-1.315 0.71,-2.2125 1.2925,-2.72125 -4.52125,-0.51375 -9.275,-2.26125 -9.275,-10.06375 0,-2.2225 0.79375,-4.04 2.09625,-5.46375 -0.21,-0.515 -0.90875,-2.585 0.19875,-5.38875 0,0 1.71,-0.5475 5.6,2.0875 1.62375,-0.4525 3.36625,-0.6775 5.0975,-0.685 1.72875,0.008 3.47125,0.2325 5.0975,0.685 3.8875,-2.635 5.59375,-2.0875 5.59375,-2.0875 1.11125,2.80375 0.4125,4.87375 0.2025,5.38875 1.305,1.42375 2.09375,3.24125 2.09375,5.46375 0,7.8225 -4.76125,9.54375 -9.2975,10.0475 0.73125,0.62875 1.3825,1.87125 1.3825,3.77125 0,2.72125 -0.025,4.9175 -0.025,5.585 0,0.545 0.36625,1.17875 1.4,0.98 8.085,-2.69875 13.91375,-10.325 13.91375,-19.31875 0,-11.24625 -9.1175,-20.3625 -20.36375,-20.3625"
       style="fill:#ffffff;fill-opacity:1;fill-rule:evenodd;stroke:none"
       id="path4332"
       inkscape:connector-curvature="0" />
  </g>
</svg>
