<svg xmlns="http://www.w3.org/2000/svg" viewBox="-1.64445 -1.64445 208.7989 58.1039"><path fill="#feffff" d="M46.481 44.493c5.215 0 9.483-4.244 9.483-9.503 0-5.239-4.268-9.482-9.483-9.482-5.2585 0-9.4773 4.243-9.4773 9.482 0 5.259 4.2188 9.503 9.4773 9.503m25.584-33.239H44.641c8.179 4.735 13.714 13.601 13.714 23.739l13.71-23.737z"/><path fill="#feffff" d="M44.644 11.254H17.2212c8.2225 4.735 13.7113 13.601 13.7113 23.739L44.644 11.256zM19.07 44.493c5.2637 0 9.48-4.244 9.48-9.503 0-5.239-4.2163-9.482-9.48-9.482-5.2513 0-9.4775 4.243-9.4775 9.482 0 5.259 4.2262 9.503 9.4775 9.503m97.934-17.059c0-2.964-.21-4.45-.21-5.314 0-3.072-.81-6.004-4.291-6.004-3.666 0-4.25 2.869-4.25 6.004 0 .824-.197 2.404-.197 5.314 0 2.832.174 4.676.189 5.391.09 4.404 1.514 6.011 4.211 6.011 2.703 0 4.291-1.503 4.34-6.061 0-.787.208-2.191.208-5.341m6.124.05c0 2.144-.174 4.531-.238 5.288-.539 6.617-2.229 11.727-10.387 11.727-7.874 0-9.937-5.323-10.379-11.727-.02-.388-.257-2.456-.257-5.342 0-2.591.213-4.641.262-5.313.437-5.929 2.182-11.672 10.373-11.672 8.687 0 10.008 5.495 10.408 11.672.04.617.217 2.879.217 5.367M96.122 11.248l-5.177 11.388-4.854-11.388h-6.447l8.264 19.136v13.322h5.901V30.335l8.727-19.087h-6.414zm54.544.006v32.447h17.17v-5.863H156.57V30.32h10.241v-5.875h-10.222v-7.311h11.24v-5.88h-17.17zm33.245 16.17l7.785-16.168h-6.546l-.04.02-4.479 9.358-4.534-9.381h-6.509l7.773 16.165-7.844 16.275h6.484l4.625-9.535 4.577 9.535h6.54l-7.844-16.278zM140.54 11.251v17.65l-8.514-17.65h-5.241V43.71h5.9V26.101l8.477 17.607h5.273V11.251h-5.898zm54.435 27.482h1.565c.557 0 1.101.1 1.147.921.02.47-.112.632-.471.881.366.233.409.329.418.923 0 .453.04.622.193.741v.112h-.557c-.06-.166-.09-.312-.1-.452-.04-.426.169-1.095-.588-1.095h-1.136v1.547h-.466v-3.582zm.466.411v1.22h1.114c.305 0 .612-.07.661-.533.06-.612-.377-.687-.666-.687h-1.109zm.848 4.415c1.648 0 3.01-1.361 3.01-3.036 0-1.65-1.362-3.013-3.01-3.013-1.65 0-3.013 1.363-3.013 3.013 0 1.675 1.363 3.036 3.013 3.036m-3.335-3.036c0-1.832 1.506-3.338 3.335-3.338 1.828 0 3.335 1.506 3.335 3.338 0 1.852-1.507 3.361-3.335 3.361-1.829 0-3.335-1.509-3.335-3.361"/></svg>